<svg xmlns="http://www.w3.org/2000/svg" width="239" height="132" fill="none" viewBox="0 0 239 132">
    <path fill="#262952" d="M127.746 34.055l3.027 4.91-4.476 2.68-3.3-5.361c-1.404.355-2.853.581-4.334.581-8.854 0-15.813-7.106-15.813-15.816s6.959-15.773 15.813-15.773c8.81 0 15.857 7.063 15.857 15.773 0 5.373-2.669 10.153-6.774 13.006zm-8.048-3.08l-2.669-4.381 4.433-2.681 3.115 5.05c2.254-1.788 3.615-4.652 3.615-7.903 0-5.491-3.975-9.916-9.54-9.916-5.609 0-9.529 4.425-9.529 9.916 0 5.534 3.931 9.959 9.529 9.959.37 0 .73 0 1.046-.043zM156.486 29.06h-11.653l-2.483 7.375h-6.687l11.609-30.782h6.774l11.566 30.782h-6.6l-2.526-7.376zm-1.895-5.405l-3.975-11.575-3.932 11.574h7.907zM140.575 53.23L130 84.014h-5.021l-4.519-16.71-4.422 16.71h-5.02L100.487 53.23h6.774l6.327 20.058 4.378-15.72h5.108l4.29 15.72 6.371-20.058h6.84zM143.101 55.955c0-1.97 1.721-3.489 3.747-3.489 2.08 0 3.757 1.518 3.757 3.489 0 1.97-1.667 3.531-3.757 3.531-2.026-.01-3.747-1.572-3.747-3.531zm.817 7.235h5.914v20.812h-5.914V63.19zM176.404 72.568v11.434h-5.913v-10.81c0-3.305-1.993-4.78-4.019-4.78-2.123 0-4.748 1.12-4.748 4.91v10.68h-5.914V63.19h5.914v3.488c.904-2.81 4.247-4.016 6.327-4.016 5.511-.01 8.397 3.65 8.353 9.906zM194.254 67.701h-4.476v16.3h-5.925v-16.3h-3.844V63.19h3.844v-7.634h5.925v7.634h4.476V67.7zM218.474 75.475h-15.911c.632 2.411 2.625 3.757 5.467 3.757 2.124 0 4.248-.85 5.511-2.325l3.474 3.445c-1.993 2.638-5.696 4.07-9.398 4.07-6.469 0-11.207-4.382-11.207-10.81 0-6.74 5.151-10.95 11.207-10.95 6.011 0 10.934 4.2 10.934 10.584.01.57-.033 1.292-.077 2.229zm-5.826-3.801c-.185-2.455-2.254-3.93-4.923-3.93-2.395 0-4.519 1.12-5.151 3.93h10.074zM238.535 63.32l-1.351 5.587c-1.263-.668-2.298-.764-3.027-.764-3.028 0-5.108 2.767-5.108 8.71v7.149h-5.924V63.19h5.87v4.425c1.176-3.488 3.572-4.963 6.185-4.963 1.144 0 2.407.183 3.355.667zM111.029 106.3v7.418h10.302v5.448h-10.302v12.414h-6.284v-30.771h19.243v5.491h-12.959zM147.305 123.053h-15.9c.631 2.412 2.624 3.757 5.467 3.757 2.124 0 4.247-.85 5.51-2.325l3.475 3.445c-1.993 2.638-5.696 4.07-9.399 4.07-6.458 0-11.206-4.382-11.206-10.81 0-6.74 5.151-10.95 11.206-10.95 6.012 0 10.934 4.199 10.934 10.584.011.571-.033 1.292-.087 2.229zm-5.826-3.801c-.186-2.455-2.255-3.93-4.923-3.93-2.396 0-4.52 1.12-5.151 3.93h10.074zM150.648 124.883h5.554c0 1.206 1.046 2.498 3.115 2.498 1.721 0 3.028-.711 3.028-1.916 0-.894-.719-1.335-2.309-1.745l-2.799-.667c-5.423-1.432-6.142-4.425-6.142-6.611 0-3.219 3.387-6.212 8.277-6.212 3.844 0 8.364 1.873 8.309 6.793h-5.652c0-1.388-1.176-2.142-2.57-2.142-1.362 0-2.44.667-2.44 1.744 0 .98.904 1.475 2.08 1.787l3.474.894c5.065 1.335 5.696 4.468 5.696 6.169 0 4.382-4.519 6.525-8.854 6.525-4.421-.011-8.712-2.519-8.767-7.117zM185.269 115.279h-4.476v16.301h-5.924v-16.301h-3.844v-4.511h3.844v-7.634h5.924v7.634h4.476v4.511zM58.046 91.539c4.692 0 8.495-3.76 8.495-8.398 0-4.639-3.803-8.398-8.495-8.398-4.691 0-8.494 3.76-8.494 8.398s3.803 8.398 8.494 8.398zM39.63 78.36C17.774 78.36 0 60.79 0 39.18 0 17.571 17.773 0 39.63 0c21.858 0 39.631 17.571 39.631 39.18 0 10.465-4.127 20.306-11.61 27.703-2.21 2.186-5.793 2.186-8.004 0-2.21-2.186-2.21-5.728 0-7.914 5.348-5.286 8.288-12.317 8.288-19.789 0-15.429-12.698-27.993-28.304-27.993-15.607 0-28.305 12.554-28.305 27.993 0 15.429 12.698 27.983 28.305 27.983 3.125 0 5.663 2.508 5.663 5.599 0 3.09-2.538 5.598-5.663 5.598z"/>
</svg>
