<svg width="150" height="70" viewBox="0 0 150 70" fill="none" xmlns="http://www.w3.org/2000/svg">
<path fill-rule="evenodd" clip-rule="evenodd" d="M116.289 28.997C116.293 28.771 116.283 28.545 116.241 28.32C116.051 27.282 115.501 26.527 114.514 26.113C114.06 25.923 113.582 25.873 113.096 25.917C111.96 26.023 111.13 26.574 110.699 27.645C110.36 28.485 110.363 29.348 110.652 30.205C110.917 30.988 111.443 31.537 112.216 31.838C112.944 32.122 113.687 32.131 114.422 31.874C115.265 31.579 115.827 30.992 116.115 30.147C116.242 29.775 116.299 29.391 116.289 28.997V28.997ZM119.352 29.765C119.309 30.545 119.066 31.265 118.685 31.94C118.065 33.04 117.131 33.78 115.976 34.263C115.015 34.665 114.009 34.781 112.976 34.74C111.929 34.7 110.948 34.43 110.039 33.911C108.653 33.121 107.801 31.931 107.475 30.375C107.242 29.268 107.271 28.159 107.607 27.075C108.098 25.495 109.142 24.41 110.649 23.751C111.611 23.329 112.619 23.189 113.661 23.221C114.632 23.252 115.555 23.469 116.422 23.911C118.079 24.754 119.032 26.106 119.337 27.928C119.354 28.032 119.349 28.141 119.353 28.246C119.344 28.34 119.34 28.433 119.393 28.518V29.454C119.333 29.552 119.347 29.659 119.353 29.765" fill="#242424"/>
<mask id="mask0" mask-type="alpha" maskUnits="userSpaceOnUse" x="118" y="29" width="2" height="2">
<path d="M118.968 29.223H119.393V30.027H118.968V29.223Z" fill="white"/>
</mask>
<g mask="url(#mask0)">
<path fill-rule="evenodd" clip-rule="evenodd" d="M119.352 29.765C119.346 29.659 119.334 29.552 119.393 29.455V29.795L119.352 29.765Z" fill="#4FAE2C"/>
</g>
<mask id="mask1" mask-type="alpha" maskUnits="userSpaceOnUse" x="118" y="27" width="2" height="2">
<path d="M118.968 27.967H119.393V28.771H118.968V27.967Z" fill="white"/>
</mask>
<g mask="url(#mask1)">
<path fill-rule="evenodd" clip-rule="evenodd" d="M119.393 28.518C119.341 28.433 119.343 28.338 119.353 28.247L119.393 28.221V28.519V28.518Z" fill="#4FAE2C"/>
</g>
<path fill-rule="evenodd" clip-rule="evenodd" d="M81.833 39.5C81.833 39.918 81.834 40.336 81.831 40.754C81.831 40.854 81.845 40.91 81.968 40.907C82.435 40.9 82.903 40.915 83.371 40.898C83.785 40.883 84.161 40.741 84.478 40.466C85.083 39.942 85.088 39.101 84.486 38.571C84.178 38.3 83.81 38.151 83.403 38.137C82.928 38.12 82.453 38.127 81.978 38.127C81.837 38.127 81.833 38.132 81.833 38.288V39.5V39.5ZM85.603 42.466C86.093 43.438 86.804 44.066 87.895 44.189C88.067 44.209 88.069 44.209 88.069 44.379V46.806C88.069 46.985 88.067 46.989 87.876 46.985C86.388 46.948 85.093 46.437 84.018 45.395C83.372 44.772 82.884 44.037 82.531 43.213C82.473 43.077 82.407 43.007 82.253 43.028C82.149 43.041 82.04 43.033 81.933 43.03C81.863 43.029 81.829 43.058 81.833 43.13C81.835 43.18 81.833 43.23 81.833 43.28V46.6C81.833 46.642 81.829 46.684 81.833 46.727C81.843 46.824 81.811 46.877 81.703 46.862C81.668 46.857 81.632 46.861 81.596 46.861H78.721C78.659 46.861 78.631 46.831 78.633 46.771V36.129C78.633 36.094 78.635 36.059 78.633 36.023C78.622 35.927 78.653 35.871 78.76 35.886H78.802C80.485 35.887 82.168 35.876 83.85 35.894C84.725 35.904 85.569 36.087 86.343 36.517C87.197 36.992 87.78 37.683 88.018 38.642C88.148 39.165 88.159 39.695 88.035 40.222C87.88 40.888 87.505 41.405 86.95 41.797C86.595 42.047 86.207 42.239 85.802 42.393L85.603 42.466V42.466ZM76.943 29.809C76.357 30.01 75.805 30.165 75.241 30.278C74.585 30.408 73.927 30.503 73.259 30.529C73.063 30.536 73.051 30.488 73.051 30.739V34.229C73.051 34.499 73.076 34.464 72.809 34.464C71.908 34.466 71.006 34.465 70.105 34.465C70.069 34.465 70.033 34.462 69.999 34.465C69.895 34.477 69.834 34.445 69.849 34.327C69.854 34.292 69.849 34.256 69.849 34.22C69.849 30.724 69.849 27.226 69.851 23.73C69.851 23.463 69.816 23.492 70.088 23.492H72.856C73.065 23.492 73.051 23.468 73.051 23.685L73.052 27.855C73.053 28.083 72.996 28.099 73.3 28.082C74.495 28.015 75.659 27.776 76.8 27.415C76.94 27.371 76.944 27.29 76.944 27.179C76.942 26.03 76.942 24.88 76.944 23.732C76.944 23.455 76.914 23.492 77.179 23.492H80.075C80.127 23.494 80.152 23.521 80.151 23.572V34.235C80.151 34.479 80.18 34.465 79.925 34.465H77.051C76.981 34.468 76.944 34.44 76.945 34.367L76.944 34.197V29.809H76.943ZM115.991 42.195C115.682 42.287 115.401 42.379 115.115 42.457C114.188 42.711 113.245 42.863 112.285 42.907C112.106 42.915 112.105 42.915 112.105 43.099V46.567C112.105 46.61 112.099 46.653 112.105 46.695C112.123 46.813 112.064 46.836 111.958 46.836C110.986 46.833 110.015 46.832 109.042 46.837C108.922 46.837 108.894 46.791 108.906 46.688C108.91 46.647 108.906 46.603 108.906 46.561V36.135C108.906 36.092 108.91 36.049 108.906 36.008C108.887 35.888 108.947 35.868 109.051 35.868C110.016 35.872 110.982 35.871 111.947 35.87C112.134 35.87 112.105 35.894 112.105 36.062V40.191C112.105 40.467 112.105 40.464 112.376 40.451C113.561 40.397 114.707 40.148 115.834 39.791C116.004 39.738 115.991 39.781 115.991 39.572V36.125C115.991 36.075 115.994 36.025 115.991 35.976C115.988 35.907 116.011 35.868 116.086 35.871C116.123 35.873 116.158 35.871 116.193 35.871H119.004C119.204 35.871 119.191 35.858 119.191 36.051V46.648C119.191 46.857 119.205 46.835 118.99 46.836H116.2C115.963 46.836 115.992 46.836 115.992 46.632V42.196L115.991 42.195ZM107.027 37.822C106.263 38.228 105.511 38.625 104.757 39.024C104.739 38.99 104.723 38.967 104.715 38.94C104.54 38.326 104.113 37.977 103.517 37.823C103.062 37.705 102.601 37.701 102.152 37.848C101.788 37.968 101.512 38.186 101.442 38.591C101.389 38.888 101.478 39.138 101.712 39.33C101.918 39.5 102.156 39.605 102.414 39.67C103.019 39.826 103.634 39.93 104.244 40.052C104.801 40.164 105.352 40.297 105.89 40.477C106.476 40.673 106.966 41.014 107.37 41.479C107.632 41.781 107.786 42.135 107.86 42.525C107.998 43.236 107.967 43.935 107.688 44.613C107.35 45.433 106.738 45.993 105.966 46.394C105.29 46.745 104.566 46.931 103.81 47.002C102.899 47.089 101.996 47.049 101.107 46.819C100.192 46.582 99.367 46.176 98.699 45.489C98.4 45.179 98.143 44.801 98.033 44.492C98.854 44.056 99.678 43.62 100.503 43.184C100.525 43.215 100.543 43.23 100.548 43.25C100.735 43.956 101.211 44.392 101.88 44.625C102.552 44.858 103.24 44.891 103.93 44.692C104.17 44.623 104.392 44.51 104.572 44.332C104.954 43.952 104.907 43.389 104.47 43.079C104.18 42.874 103.85 42.769 103.51 42.694C102.845 42.55 102.179 42.414 101.514 42.268C101.112 42.18 100.717 42.066 100.33 41.929C99.768 41.731 99.299 41.399 98.905 40.955C98.609 40.623 98.445 40.227 98.374 39.792C98.26 39.085 98.307 38.39 98.588 37.727C98.984 36.788 99.705 36.193 100.642 35.84C101.452 35.535 102.296 35.459 103.154 35.517C103.854 35.564 104.53 35.711 105.166 36.013C105.915 36.368 106.53 36.874 106.936 37.611C106.959 37.654 106.981 37.699 107.002 37.744C107.01 37.763 107.015 37.784 107.027 37.822V37.822ZM81.509 28.965V23.73C81.509 23.456 81.487 23.495 81.75 23.495H89.246C89.516 23.495 89.484 23.467 89.484 23.734C89.486 24.407 89.484 25.081 89.484 25.756C89.484 25.95 89.484 25.952 89.288 25.952H84.73C84.571 25.955 84.569 25.955 84.568 26.118V27.65C84.568 27.829 84.571 27.83 84.76 27.83H88.571C88.623 27.83 88.648 27.855 88.647 27.907V29.759C88.647 29.934 88.646 29.936 88.457 29.936H84.731C84.571 29.939 84.569 29.94 84.568 30.104V31.826C84.568 32.002 84.571 32.003 84.761 32.004H89.148C89.433 32.004 89.433 32.004 89.433 32.283V34.262C89.433 34.502 89.44 34.472 89.208 34.472H81.669C81.513 34.47 81.51 34.47 81.51 34.305V28.965H81.509ZM89.357 41.34V36.105C89.357 35.84 89.32 35.87 89.597 35.87L96.877 35.869C96.92 35.869 96.963 35.874 97.006 35.869C97.105 35.858 97.122 35.909 97.122 35.994C97.119 36.724 97.117 37.455 97.123 38.186C97.125 38.316 97.063 38.316 96.97 38.316C96.288 38.315 95.606 38.316 94.926 38.316H92.604C92.422 38.316 92.421 38.317 92.421 38.501V40.033C92.421 40.191 92.422 40.193 92.584 40.193L96.246 40.194C96.538 40.194 96.504 40.166 96.505 40.458V42.097C96.505 42.324 96.515 42.307 96.3 42.307C95.085 42.307 93.872 42.305 92.658 42.307C92.388 42.307 92.422 42.268 92.421 42.543C92.419 43.081 92.42 43.62 92.421 44.159C92.421 44.389 92.395 44.366 92.622 44.366H97.094C97.278 44.368 97.279 44.368 97.279 44.552V46.658C97.279 46.832 97.278 46.834 97.108 46.834H89.528C89.358 46.834 89.357 46.832 89.357 46.638V41.34ZM69.85 41.347V36.091C69.85 35.866 69.834 35.885 70.058 35.885H76.233L77.427 35.886C77.577 35.887 77.58 35.89 77.58 36.04C77.582 36.834 77.582 37.628 77.58 38.422C77.58 38.565 77.576 38.567 77.42 38.567C76.533 38.569 75.646 38.567 74.758 38.567H73.246C73.028 38.567 73.045 38.552 73.045 38.779V40.525C73.045 40.726 73.028 40.723 73.24 40.723H76.37C76.413 40.723 76.456 40.721 76.498 40.723C76.648 40.727 76.652 40.727 76.653 40.876V42.855C76.652 43.035 76.651 43.037 76.464 43.037L73.312 43.038C73.004 43.038 73.046 42.994 73.046 43.31C73.044 44.396 73.045 45.482 73.045 46.567C73.045 46.617 73.042 46.665 73.045 46.715C73.051 46.797 73.017 46.829 72.935 46.827C72.78 46.822 72.623 46.825 72.467 46.825C71.679 46.825 70.891 46.827 70.103 46.825C69.812 46.825 69.851 46.86 69.851 46.583C69.849 44.836 69.85 43.092 69.85 41.346V41.347ZM99.378 28.974V23.676C99.379 23.493 99.379 23.491 99.563 23.491H102.394C102.584 23.491 102.578 23.473 102.578 23.674V31.524C102.578 31.573 102.58 31.624 102.578 31.673C102.576 31.746 102.613 31.775 102.683 31.773C102.733 31.771 102.782 31.773 102.832 31.773H106.663C106.706 31.773 106.749 31.771 106.792 31.773C106.942 31.778 106.945 31.778 106.946 31.926C106.948 32.28 106.946 32.636 106.946 32.99C106.946 33.43 106.948 33.869 106.946 34.31C106.946 34.46 106.942 34.462 106.794 34.463C106.544 34.466 106.297 34.464 106.048 34.464H99.662C99.605 34.464 99.548 34.462 99.492 34.464C99.412 34.468 99.372 34.439 99.378 34.354C99.381 34.305 99.378 34.254 99.378 34.206V28.974V28.974ZM90.711 28.96V23.727C90.711 23.454 90.681 23.492 90.95 23.492C91.859 23.49 92.767 23.492 93.675 23.492H93.825C93.885 23.49 93.915 23.515 93.915 23.579C93.913 23.636 93.915 23.692 93.915 23.749V31.536C93.915 31.79 93.873 31.774 94.153 31.774L97.985 31.775C98.035 31.775 98.085 31.779 98.134 31.775C98.234 31.765 98.27 31.801 98.269 31.905C98.263 32.275 98.266 32.643 98.266 33.012V34.289C98.266 34.462 98.264 34.465 98.094 34.465H90.919C90.712 34.464 90.711 34.464 90.711 34.257V28.96" fill="#242424"/>
<mask id="mask2" mask-type="alpha" maskUnits="userSpaceOnUse" x="31" y="20" width="34" height="30">
<path d="M49.304 20.803C48.767 20.805 48.23 20.833 47.694 20.889C46.624 20.999 45.576 21.205 44.549 21.519C42.018 22.289 39.769 23.561 37.81 25.339C35.964 27.016 34.555 29.002 33.622 31.319C33.119 32.567 32.79 33.861 32.651 35.203C32.569 35.988 32.551 36.773 32.606 37.56C32.656 38.255 32.65 38.949 32.535 39.639C32.493 39.889 32.447 40.14 32.402 40.391C32.357 40.455 32.356 40.531 32.353 40.604C32.313 40.626 32.318 40.666 32.319 40.704C32.311 40.723 32.305 40.742 32.298 40.762C32.246 40.923 32.175 41.078 32.146 41.246C32.039 41.499 31.931 41.752 31.826 42.005C31.82 42.021 31.817 42.036 31.813 42.05C31.742 42.16 31.677 42.275 31.638 42.4C31.593 42.424 31.587 42.47 31.575 42.512C31.425 42.76 31.252 42.997 31.15 43.273C31.12 43.33 31.09 43.386 31.092 43.452C31.075 43.494 31.071 43.535 31.078 43.58C31.05 43.592 31.044 43.642 31 43.629V44.141C31.11 44.211 31.08 44.345 31.134 44.441C31.133 44.475 31.146 44.503 31.17 44.526L31.18 44.573C31.19 44.622 31.21 44.666 31.252 44.697C31.294 44.852 31.4 44.963 31.512 45.069C31.659 45.21 31.793 45.368 32.002 45.425C32.096 45.49 32.2 45.536 32.316 45.549C32.322 45.561 32.33 45.565 32.342 45.561C32.389 45.591 32.438 45.595 32.491 45.587C32.561 45.63 32.639 45.624 32.718 45.622C32.859 45.621 33 45.621 33.142 45.617C33.582 45.607 34.02 45.636 34.455 45.687L34.467 45.697L34.483 45.695C34.97 45.783 35.452 45.885 35.922 46.035C35.997 46.067 36.07 46.107 36.156 46.101C36.234 46.166 36.335 46.182 36.426 46.217C36.698 46.317 36.948 46.464 37.219 46.567H37.221C37.269 46.606 37.315 46.649 37.384 46.647C37.406 46.678 37.434 46.697 37.473 46.7C37.562 46.778 37.664 46.833 37.771 46.88C37.777 46.9 37.791 46.907 37.813 46.904C37.928 46.994 38.053 47.074 38.186 47.14C38.193 47.162 38.208 47.174 38.23 47.179C38.34 47.252 38.445 47.334 38.56 47.399C38.833 47.554 39.088 47.743 39.385 47.855C39.445 47.912 39.517 47.949 39.597 47.969C40.062 48.224 40.55 48.425 41.049 48.604C41.373 48.719 41.695 48.851 42.036 48.918C42.082 48.964 42.142 48.951 42.199 48.96C42.336 49.016 42.479 49.06 42.627 49.073C42.611 48.993 42.577 48.933 42.529 48.893C42.578 48.933 42.611 48.993 42.627 49.073L42.711 49.093C42.777 49.13 42.851 49.143 42.926 49.146C43.193 49.21 43.459 49.286 43.736 49.294C43.776 49.324 43.821 49.325 43.868 49.32L43.948 49.33C44.384 49.413 44.825 49.455 45.269 49.47L45.271 49.504H46.89L46.889 49.458V49.504H47.443C47.423 49.496 47.416 49.481 47.425 49.46L47.294 49.456L47.426 49.46C47.694 49.45 47.963 49.435 48.226 49.377L48.238 49.376L48.298 49.37C48.369 49.373 48.442 49.378 48.506 49.338C48.568 49.343 48.629 49.344 48.689 49.324C48.886 49.293 49.084 49.271 49.275 49.21L49.303 49.211C49.342 49.213 49.381 49.217 49.404 49.171L49.485 49.16C49.628 49.19 49.752 49.132 49.88 49.087L50.007 49.068C50.049 49.072 50.085 49.052 50.122 49.033C50.232 49.03 50.336 49.005 50.434 48.953C50.711 48.915 50.969 48.813 51.232 48.73C51.257 48.732 51.282 48.735 51.282 48.698L51.285 48.705C51.421 48.69 51.549 48.647 51.669 48.581C51.804 48.546 51.939 48.51 52.059 48.436C52.131 48.436 52.193 48.415 52.241 48.358C52.284 48.372 52.324 48.356 52.362 48.34C52.634 48.227 52.908 48.117 53.175 47.993C53.403 47.888 53.641 47.799 53.853 47.66C53.965 47.636 54.056 47.571 54.147 47.507L54.088 47.46L54.081 47.422L54.088 47.46L54.147 47.507C54.24 47.488 54.315 47.437 54.386 47.377C54.36 47.374 54.335 47.367 54.317 47.351C54.335 47.368 54.36 47.374 54.386 47.377C54.41 47.374 54.431 47.365 54.445 47.343C54.515 47.326 54.575 47.295 54.623 47.243C54.687 47.241 54.733 47.208 54.773 47.16C54.843 47.14 54.901 47.1 54.956 47.054L54.952 47.049L54.956 47.054C54.991 47.044 55.024 47.033 55.044 47C55.091 46.981 55.139 46.962 55.174 46.92C55.394 46.795 55.621 46.679 55.804 46.498L55.809 46.494C55.862 46.502 55.893 46.47 55.921 46.434C56.006 46.394 56.081 46.34 56.146 46.274C56.345 46.166 56.516 46.022 56.687 45.877C56.749 45.857 56.799 45.822 56.83 45.764C56.9 45.739 56.948 45.686 57.003 45.642C57.545 45.204 58.057 44.736 58.541 44.236C60.285 42.434 61.571 40.353 62.339 37.962C62.887 36.257 63.116 34.508 62.982 32.721C62.902 31.647 63.006 30.601 63.292 29.566C63.349 29.362 63.447 29.171 63.476 28.959L63.472 28.953C63.562 28.839 63.603 28.703 63.637 28.565C63.672 28.542 63.678 28.505 63.679 28.468C63.751 28.381 63.789 28.278 63.815 28.171L63.818 28.17C63.896 28.057 63.964 27.939 64.012 27.81C64.062 27.76 64.087 27.7 64.102 27.633C64.155 27.586 64.192 27.527 64.215 27.459L64.242 27.411C64.282 27.376 64.305 27.333 64.315 27.282C64.411 27.158 64.474 27.02 64.485 26.862C64.555 26.647 64.597 26.432 64.525 26.21C64.529 26.139 64.538 26.068 64.492 26.006C64.496 25.973 64.49 25.942 64.468 25.915C64.433 25.77 64.384 25.632 64.283 25.517C64.158 25.277 63.973 25.095 63.735 24.966H63.729C63.696 24.918 63.645 24.899 63.59 24.886C63.54 24.846 63.488 24.81 63.42 24.81C63.324 24.754 63.225 24.718 63.112 24.731C63.079 24.717 63.045 24.722 63.012 24.727C62.992 24.729 62.972 24.732 62.953 24.73C62.943 24.71 62.931 24.692 62.903 24.7L62.811 24.695L62.743 24.699C62.733 24.723 62.722 24.747 62.713 24.772C62.722 24.747 62.733 24.723 62.743 24.699L62.646 24.701L62.524 24.703C62.497 24.693 62.469 24.694 62.442 24.707C62.272 24.693 62.102 24.689 61.932 24.697L61.842 24.694L61.59 24.68C61.59 24.696 61.589 24.713 61.587 24.728C61.589 24.713 61.59 24.696 61.59 24.68C61.44 24.63 61.28 24.648 61.126 24.615L60.352 24.479L60.277 24.459C60.275 24.469 60.272 24.476 60.267 24.484C60.272 24.476 60.275 24.468 60.277 24.459L59.925 24.361L59.331 24.171C59.211 24.116 59.094 24.052 58.969 24.011C58.879 23.981 58.802 23.903 58.695 23.926L58.65 23.917C58.648 23.895 58.641 23.877 58.616 23.871C58.567 23.825 58.507 23.799 58.442 23.783L57.882 23.471C57.776 23.4 57.675 23.319 57.553 23.271C57.466 23.204 57.39 23.126 57.285 23.086C57.232 23.046 57.188 22.988 57.114 22.983C57.057 22.917 56.983 22.878 56.902 22.851C56.538 22.597 56.139 22.403 55.74 22.213C55.469 22.085 55.202 21.94 54.907 21.866L54.905 21.873C54.901 21.841 54.879 21.837 54.854 21.839C54.484 21.67 54.099 21.543 53.706 21.445C53.698 21.433 53.685 21.428 53.671 21.43C53.618 21.41 53.567 21.387 53.512 21.373C52.601 21.119 51.673 20.945 50.732 20.863C50.292 20.825 49.852 20.805 49.412 20.803H49.304V20.803ZM48.477 49.192C48.499 49.222 48.508 49.258 48.509 49.298C48.509 49.258 48.499 49.222 48.477 49.192Z" fill="white"/>
</mask>
<g mask="url(#mask2)">
<path fill-rule="evenodd" clip-rule="evenodd" d="M49.304 20.803C48.767 20.805 48.23 20.833 47.694 20.889C46.624 20.999 45.576 21.205 44.549 21.519C42.018 22.289 39.769 23.561 37.81 25.339C35.964 27.016 34.555 29.002 33.622 31.319C33.119 32.567 32.79 33.861 32.651 35.203C32.569 35.988 32.551 36.773 32.606 37.56C32.656 38.255 32.65 38.949 32.535 39.639C32.493 39.889 32.447 40.14 32.402 40.391C32.357 40.455 32.356 40.531 32.353 40.604C32.313 40.626 32.318 40.666 32.319 40.704C32.311 40.723 32.305 40.742 32.298 40.762C32.246 40.923 32.175 41.078 32.146 41.246C32.039 41.499 31.931 41.752 31.826 42.005C31.82 42.021 31.817 42.036 31.813 42.05C31.742 42.16 31.677 42.275 31.638 42.4C31.593 42.424 31.587 42.47 31.575 42.512C31.425 42.76 31.252 42.997 31.15 43.273C31.12 43.33 31.09 43.386 31.092 43.452C31.075 43.494 31.071 43.535 31.078 43.58C31.05 43.592 31.044 43.642 31 43.629V44.141C31.11 44.211 31.08 44.345 31.134 44.441C31.133 44.475 31.146 44.503 31.17 44.526L31.18 44.573C31.19 44.622 31.21 44.666 31.252 44.697C31.294 44.852 31.4 44.963 31.512 45.069C31.659 45.21 31.793 45.368 32.002 45.425C32.096 45.49 32.2 45.536 32.316 45.549C32.322 45.561 32.33 45.565 32.342 45.561C32.389 45.591 32.438 45.595 32.491 45.587C32.561 45.63 32.639 45.624 32.718 45.622C32.859 45.621 33 45.621 33.142 45.617C33.582 45.607 34.02 45.636 34.455 45.687L34.467 45.697L34.483 45.695C34.97 45.783 35.452 45.885 35.922 46.035C35.997 46.067 36.07 46.107 36.156 46.101C36.234 46.166 36.335 46.182 36.426 46.217C36.698 46.317 36.948 46.464 37.219 46.567H37.221C37.269 46.606 37.315 46.649 37.384 46.647C37.406 46.678 37.434 46.697 37.473 46.7C37.562 46.778 37.664 46.833 37.771 46.88C37.777 46.9 37.791 46.907 37.813 46.904C37.928 46.994 38.053 47.074 38.186 47.14C38.193 47.162 38.208 47.174 38.23 47.179C38.34 47.252 38.445 47.334 38.56 47.399C38.833 47.554 39.088 47.743 39.385 47.855C39.445 47.912 39.517 47.949 39.597 47.969C40.062 48.224 40.55 48.425 41.049 48.604C41.373 48.719 41.695 48.851 42.036 48.918C42.082 48.964 42.142 48.951 42.199 48.96C42.336 49.016 42.479 49.06 42.627 49.073C42.611 48.993 42.577 48.933 42.529 48.893C42.578 48.933 42.611 48.993 42.627 49.073L42.711 49.093C42.777 49.13 42.851 49.143 42.926 49.146C43.193 49.21 43.459 49.286 43.736 49.294C43.776 49.324 43.821 49.325 43.868 49.32L43.948 49.33C44.384 49.413 44.825 49.455 45.269 49.47L45.271 49.504H46.89L46.889 49.458V49.504H47.443C47.423 49.496 47.416 49.481 47.425 49.46L47.294 49.456L47.426 49.46C47.694 49.45 47.963 49.435 48.226 49.377L48.238 49.376L48.298 49.37C48.369 49.373 48.442 49.378 48.506 49.338C48.568 49.343 48.629 49.344 48.689 49.324C48.886 49.293 49.084 49.271 49.275 49.21L49.303 49.211C49.342 49.213 49.381 49.217 49.404 49.171L49.485 49.16C49.628 49.19 49.752 49.132 49.88 49.087L50.007 49.068C50.049 49.072 50.085 49.052 50.122 49.033C50.232 49.03 50.336 49.005 50.434 48.953C50.711 48.915 50.969 48.813 51.232 48.73C51.257 48.732 51.282 48.735 51.282 48.698L51.285 48.705C51.421 48.69 51.549 48.647 51.669 48.581C51.804 48.546 51.939 48.51 52.059 48.436C52.131 48.436 52.193 48.415 52.241 48.358C52.284 48.372 52.324 48.356 52.362 48.34C52.634 48.227 52.908 48.117 53.175 47.993C53.403 47.888 53.641 47.799 53.853 47.66C53.965 47.636 54.056 47.571 54.147 47.507L54.088 47.46L54.081 47.422L54.088 47.46L54.147 47.507C54.24 47.488 54.315 47.437 54.386 47.377C54.36 47.374 54.335 47.367 54.317 47.351C54.335 47.368 54.36 47.374 54.386 47.377C54.41 47.374 54.431 47.365 54.445 47.343C54.515 47.326 54.575 47.295 54.623 47.243C54.687 47.241 54.733 47.208 54.773 47.16C54.843 47.14 54.901 47.1 54.956 47.054L54.952 47.049L54.956 47.054C54.991 47.044 55.024 47.033 55.044 47C55.091 46.981 55.139 46.962 55.174 46.92C55.394 46.795 55.621 46.679 55.804 46.498L55.809 46.494C55.862 46.502 55.893 46.47 55.921 46.434C56.006 46.394 56.081 46.34 56.146 46.274C56.345 46.166 56.516 46.022 56.687 45.877C56.749 45.857 56.799 45.822 56.83 45.764C56.9 45.739 56.948 45.686 57.003 45.642C57.545 45.204 58.057 44.736 58.541 44.236C60.285 42.434 61.571 40.353 62.339 37.962C62.887 36.257 63.116 34.508 62.982 32.721C62.902 31.647 63.006 30.601 63.292 29.566C63.349 29.362 63.447 29.171 63.476 28.959L63.472 28.953C63.562 28.839 63.603 28.703 63.637 28.565C63.672 28.542 63.678 28.505 63.679 28.468C63.751 28.381 63.789 28.278 63.815 28.171L63.818 28.17C63.896 28.057 63.964 27.939 64.012 27.81C64.062 27.76 64.087 27.7 64.102 27.633C64.155 27.586 64.192 27.527 64.215 27.459L64.242 27.411C64.282 27.376 64.305 27.333 64.315 27.282C64.411 27.158 64.474 27.02 64.485 26.862C64.555 26.647 64.597 26.432 64.525 26.21C64.529 26.139 64.538 26.068 64.492 26.006C64.496 25.973 64.49 25.942 64.468 25.915C64.433 25.77 64.384 25.632 64.283 25.517C64.158 25.277 63.973 25.095 63.735 24.966H63.729C63.696 24.918 63.645 24.899 63.59 24.886C63.54 24.846 63.488 24.81 63.42 24.81C63.324 24.754 63.225 24.718 63.112 24.731C63.079 24.717 63.045 24.722 63.012 24.727C62.992 24.729 62.972 24.732 62.953 24.73C62.943 24.71 62.931 24.692 62.903 24.7L62.811 24.695L62.743 24.699C62.733 24.723 62.722 24.747 62.713 24.772C62.722 24.747 62.733 24.723 62.743 24.699L62.646 24.701L62.524 24.703C62.497 24.693 62.469 24.694 62.442 24.707C62.272 24.693 62.102 24.689 61.932 24.697L61.842 24.694L61.59 24.68C61.59 24.696 61.589 24.713 61.587 24.728C61.589 24.713 61.59 24.696 61.59 24.68C61.44 24.63 61.28 24.648 61.126 24.615L60.352 24.479L60.277 24.459C60.275 24.469 60.272 24.476 60.267 24.484C60.272 24.476 60.275 24.468 60.277 24.459L59.925 24.361L59.331 24.171C59.211 24.116 59.094 24.052 58.969 24.011C58.879 23.981 58.802 23.903 58.695 23.926L58.65 23.917C58.648 23.895 58.641 23.877 58.616 23.871C58.567 23.825 58.507 23.799 58.442 23.783L57.882 23.471C57.776 23.4 57.675 23.319 57.553 23.271C57.466 23.204 57.39 23.126 57.285 23.086C57.232 23.046 57.188 22.988 57.114 22.983C57.057 22.917 56.983 22.878 56.902 22.851C56.538 22.597 56.139 22.403 55.74 22.213C55.469 22.085 55.202 21.94 54.907 21.866L54.905 21.873C54.901 21.841 54.879 21.837 54.854 21.839C54.484 21.67 54.099 21.543 53.706 21.445C53.698 21.433 53.685 21.428 53.671 21.43C53.618 21.41 53.567 21.387 53.512 21.373C52.601 21.119 51.673 20.945 50.732 20.863C50.292 20.825 49.852 20.805 49.412 20.803H49.304V20.803ZM48.477 49.192C48.499 49.222 48.508 49.258 48.509 49.298C48.509 49.258 48.499 49.222 48.477 49.192Z" fill="url(#paint0_linear)"/>
</g>
<mask id="mask3" mask-type="alpha" maskUnits="userSpaceOnUse" x="33" y="20" width="32" height="13">
<path d="M49.304 20.803C48.767 20.805 48.23 20.833 47.694 20.889C46.624 20.999 45.576 21.205 44.549 21.519C42.018 22.289 39.769 23.561 37.81 25.339C35.964 27.016 34.555 29.002 33.622 31.319C33.523 31.564 33.432 31.811 33.346 32.059H62.956C62.953 31.216 63.065 30.387 63.292 29.566C63.348 29.362 63.447 29.171 63.475 28.959L63.471 28.953C63.562 28.839 63.603 28.703 63.637 28.565C63.671 28.542 63.677 28.505 63.679 28.468C63.751 28.381 63.789 28.278 63.815 28.171L63.818 28.17C63.896 28.057 63.964 27.939 64.011 27.81C64.061 27.76 64.087 27.7 64.102 27.633C64.155 27.586 64.192 27.527 64.215 27.459L64.242 27.411C64.282 27.376 64.305 27.333 64.315 27.282C64.411 27.158 64.473 27.02 64.485 26.862C64.555 26.647 64.596 26.432 64.525 26.21C64.529 26.139 64.538 26.068 64.492 26.006C64.496 25.973 64.489 25.942 64.468 25.915C64.433 25.77 64.383 25.632 64.283 25.517C64.158 25.277 63.972 25.095 63.735 24.966H63.729C63.696 24.918 63.645 24.899 63.59 24.886C63.54 24.846 63.487 24.81 63.42 24.81C63.324 24.754 63.225 24.718 63.112 24.731C63.078 24.717 63.045 24.722 63.012 24.727C62.992 24.729 62.972 24.732 62.953 24.73C62.943 24.71 62.931 24.692 62.903 24.7L62.811 24.695L62.743 24.699C62.733 24.723 62.722 24.747 62.713 24.772C62.722 24.747 62.733 24.723 62.743 24.699L62.646 24.701L62.524 24.703C62.497 24.693 62.469 24.694 62.442 24.707C62.272 24.693 62.102 24.689 61.932 24.697L61.842 24.694L61.59 24.68C61.59 24.696 61.589 24.713 61.587 24.728C61.589 24.713 61.589 24.696 61.59 24.68C61.44 24.63 61.28 24.648 61.126 24.615L60.352 24.479L60.276 24.459C60.275 24.469 60.272 24.476 60.268 24.484C60.272 24.476 60.275 24.468 60.276 24.459L59.926 24.361L59.331 24.171C59.21 24.116 59.094 24.052 58.969 24.011C58.879 23.981 58.802 23.903 58.695 23.926L58.65 23.917C58.648 23.895 58.641 23.877 58.616 23.871C58.567 23.825 58.506 23.799 58.442 23.783L57.882 23.471C57.776 23.4 57.674 23.319 57.553 23.271C57.466 23.204 57.39 23.126 57.285 23.086C57.232 23.046 57.188 22.988 57.114 22.983C57.056 22.917 56.983 22.878 56.902 22.851C56.537 22.597 56.139 22.403 55.74 22.213C55.469 22.085 55.202 21.94 54.907 21.866L54.905 21.873C54.9 21.841 54.879 21.837 54.854 21.839C54.484 21.67 54.099 21.543 53.706 21.445C53.698 21.433 53.685 21.428 53.671 21.43C53.618 21.41 53.567 21.387 53.511 21.373C52.601 21.119 51.673 20.945 50.732 20.863C50.292 20.825 49.852 20.805 49.412 20.803H49.304V20.803Z" fill="white"/>
</mask>
<g mask="url(#mask3)">
<path fill-rule="evenodd" clip-rule="evenodd" d="M49.304 20.803C48.767 20.805 48.23 20.833 47.694 20.889C46.624 20.999 45.576 21.205 44.549 21.519C42.018 22.289 39.769 23.561 37.81 25.339C35.964 27.016 34.555 29.002 33.622 31.319C33.523 31.564 33.432 31.811 33.346 32.059H62.956C62.953 31.216 63.065 30.387 63.292 29.566C63.348 29.362 63.447 29.171 63.475 28.959L63.471 28.953C63.562 28.839 63.603 28.703 63.637 28.565C63.671 28.542 63.677 28.505 63.679 28.468C63.751 28.381 63.789 28.278 63.815 28.171L63.818 28.17C63.896 28.057 63.964 27.939 64.011 27.81C64.061 27.76 64.087 27.7 64.102 27.633C64.155 27.586 64.192 27.527 64.215 27.459L64.242 27.411C64.282 27.376 64.305 27.333 64.315 27.282C64.411 27.158 64.473 27.02 64.485 26.862C64.555 26.647 64.596 26.432 64.525 26.21C64.529 26.139 64.538 26.068 64.492 26.006C64.496 25.973 64.489 25.942 64.468 25.915C64.433 25.77 64.383 25.632 64.283 25.517C64.158 25.277 63.972 25.095 63.735 24.966H63.729C63.696 24.918 63.645 24.899 63.59 24.886C63.54 24.846 63.487 24.81 63.42 24.81C63.324 24.754 63.225 24.718 63.112 24.731C63.078 24.717 63.045 24.722 63.012 24.727C62.992 24.729 62.972 24.732 62.953 24.73C62.943 24.71 62.931 24.692 62.903 24.7L62.811 24.695L62.743 24.699C62.733 24.723 62.722 24.747 62.713 24.772C62.722 24.747 62.733 24.723 62.743 24.699L62.646 24.701L62.524 24.703C62.497 24.693 62.469 24.694 62.442 24.707C62.272 24.693 62.102 24.689 61.932 24.697L61.842 24.694L61.59 24.68C61.59 24.696 61.589 24.713 61.587 24.728C61.589 24.713 61.589 24.696 61.59 24.68C61.44 24.63 61.28 24.648 61.126 24.615L60.352 24.479L60.276 24.459C60.275 24.469 60.272 24.476 60.268 24.484C60.272 24.476 60.275 24.468 60.276 24.459L59.926 24.361L59.331 24.171C59.21 24.116 59.094 24.052 58.969 24.011C58.879 23.981 58.802 23.903 58.695 23.926L58.65 23.917C58.648 23.895 58.641 23.877 58.616 23.871C58.567 23.825 58.506 23.799 58.442 23.783L57.882 23.471C57.776 23.4 57.674 23.319 57.553 23.271C57.466 23.204 57.39 23.126 57.285 23.086C57.232 23.046 57.188 22.988 57.114 22.983C57.056 22.917 56.983 22.878 56.902 22.851C56.537 22.597 56.139 22.403 55.74 22.213C55.469 22.085 55.202 21.94 54.907 21.866L54.905 21.873C54.9 21.841 54.879 21.837 54.854 21.839C54.484 21.67 54.099 21.543 53.706 21.445C53.698 21.433 53.685 21.428 53.671 21.43C53.618 21.41 53.567 21.387 53.511 21.373C52.601 21.119 51.673 20.945 50.732 20.863C50.292 20.825 49.852 20.805 49.412 20.803H49.304V20.803Z" fill="url(#paint1_linear)"/>
</g>
<defs>
<linearGradient id="paint0_linear" x1="43.6735" y1="36.3526" x2="39.3252" y2="49.4403" gradientUnits="userSpaceOnUse">
<stop stop-color="#96DC14"/>
<stop offset="0.625" stop-color="#6CBF24"/>
<stop offset="1" stop-color="#057D46"/>
</linearGradient>
<linearGradient id="paint1_linear" x1="63" y1="24" x2="59.8665" y2="29.398" gradientUnits="userSpaceOnUse">
<stop stop-color="#069553"/>
<stop offset="0.35738" stop-color="#6CBF24"/>
<stop offset="1" stop-color="#96DC14"/>
</linearGradient>
</defs>
</svg>
