<svg width="130" height="60" viewBox="0 0 130 60" fill="none" xmlns="http://www.w3.org/2000/svg">
<path fill-rule="evenodd" clip-rule="evenodd" d="M105.299 23.997C105.303 23.771 105.293 23.545 105.251 23.32C105.061 22.282 104.511 21.527 103.524 21.113C103.07 20.923 102.592 20.873 102.106 20.917C100.97 21.023 100.14 21.574 99.709 22.645C99.37 23.485 99.373 24.348 99.662 25.205C99.927 25.988 100.453 26.537 101.226 26.838C101.954 27.122 102.697 27.131 103.432 26.874C104.275 26.579 104.837 25.992 105.125 25.147C105.252 24.775 105.309 24.391 105.299 23.997V23.997ZM108.362 24.765C108.319 25.545 108.076 26.265 107.695 26.94C107.075 28.04 106.141 28.78 104.986 29.263C104.025 29.665 103.019 29.781 101.986 29.74C100.939 29.7 99.958 29.43 99.049 28.911C97.663 28.121 96.811 26.931 96.485 25.375C96.252 24.268 96.281 23.159 96.617 22.075C97.108 20.495 98.152 19.41 99.659 18.751C100.621 18.329 101.629 18.189 102.671 18.221C103.642 18.252 104.565 18.469 105.432 18.911C107.089 19.754 108.042 21.106 108.347 22.928C108.364 23.032 108.359 23.141 108.363 23.246C108.354 23.34 108.35 23.433 108.403 23.518V24.454C108.343 24.552 108.357 24.659 108.363 24.765" fill="#242424"/>
<mask id="mask0" mask-type="alpha" maskUnits="userSpaceOnUse" x="107" y="24" width="2" height="2">
<path d="M107.978 24.223H108.403V25.027H107.978V24.223Z" fill="white"/>
</mask>
<g mask="url(#mask0)">
<path fill-rule="evenodd" clip-rule="evenodd" d="M108.362 24.765C108.356 24.659 108.344 24.552 108.403 24.455V24.795L108.362 24.765Z" fill="#4FAE2C"/>
</g>
<mask id="mask1" mask-type="alpha" maskUnits="userSpaceOnUse" x="107" y="22" width="2" height="2">
<path d="M107.978 22.967H108.403V23.771H107.978V22.967Z" fill="white"/>
</mask>
<g mask="url(#mask1)">
<path fill-rule="evenodd" clip-rule="evenodd" d="M108.403 23.518C108.351 23.433 108.353 23.338 108.363 23.247L108.403 23.221V23.519V23.518Z" fill="#4FAE2C"/>
</g>
<path fill-rule="evenodd" clip-rule="evenodd" d="M70.843 34.5C70.843 34.918 70.844 35.336 70.841 35.754C70.841 35.854 70.855 35.91 70.978 35.907C71.445 35.9 71.913 35.915 72.381 35.898C72.795 35.883 73.171 35.741 73.488 35.466C74.093 34.942 74.098 34.101 73.496 33.571C73.188 33.3 72.82 33.151 72.413 33.137C71.938 33.12 71.463 33.127 70.988 33.127C70.847 33.127 70.843 33.132 70.843 33.288V34.5V34.5ZM74.613 37.466C75.103 38.438 75.814 39.066 76.905 39.189C77.077 39.209 77.079 39.209 77.079 39.379V41.806C77.079 41.985 77.077 41.989 76.886 41.985C75.398 41.948 74.103 41.437 73.028 40.395C72.382 39.772 71.894 39.037 71.541 38.213C71.483 38.077 71.417 38.007 71.263 38.028C71.159 38.041 71.05 38.033 70.943 38.03C70.873 38.029 70.839 38.058 70.843 38.13C70.845 38.18 70.843 38.23 70.843 38.28V41.6C70.843 41.642 70.839 41.684 70.843 41.727C70.853 41.824 70.821 41.877 70.713 41.862C70.678 41.857 70.642 41.861 70.606 41.861H67.731C67.669 41.861 67.641 41.831 67.643 41.771V31.129C67.643 31.094 67.645 31.059 67.643 31.023C67.632 30.927 67.663 30.871 67.77 30.886H67.812C69.495 30.887 71.178 30.876 72.86 30.894C73.735 30.904 74.579 31.087 75.353 31.517C76.207 31.992 76.79 32.683 77.028 33.642C77.158 34.165 77.169 34.695 77.045 35.222C76.89 35.888 76.515 36.405 75.96 36.797C75.605 37.047 75.217 37.239 74.812 37.393L74.613 37.466V37.466ZM65.953 24.809C65.367 25.01 64.815 25.165 64.251 25.278C63.595 25.408 62.937 25.503 62.269 25.529C62.073 25.536 62.061 25.488 62.061 25.739V29.229C62.061 29.499 62.086 29.464 61.819 29.464C60.918 29.466 60.016 29.465 59.115 29.465C59.079 29.465 59.043 29.462 59.009 29.465C58.905 29.477 58.844 29.445 58.859 29.327C58.864 29.292 58.859 29.256 58.859 29.22C58.859 25.724 58.859 22.226 58.861 18.73C58.861 18.463 58.826 18.492 59.098 18.492H61.866C62.075 18.492 62.061 18.468 62.061 18.685L62.062 22.855C62.063 23.083 62.006 23.099 62.31 23.082C63.505 23.015 64.669 22.776 65.81 22.415C65.95 22.371 65.954 22.29 65.954 22.179C65.952 21.03 65.952 19.88 65.954 18.732C65.954 18.455 65.924 18.492 66.189 18.492H69.085C69.137 18.494 69.162 18.521 69.161 18.572V29.235C69.161 29.479 69.19 29.465 68.935 29.465H66.061C65.991 29.468 65.954 29.44 65.955 29.367L65.954 29.197V24.809H65.953ZM105.001 37.195C104.692 37.287 104.411 37.379 104.125 37.457C103.198 37.711 102.255 37.863 101.295 37.907C101.116 37.915 101.115 37.915 101.115 38.099V41.567C101.115 41.61 101.109 41.653 101.115 41.695C101.133 41.813 101.074 41.836 100.968 41.836C99.996 41.833 99.025 41.832 98.052 41.837C97.932 41.837 97.904 41.791 97.916 41.688C97.92 41.647 97.916 41.603 97.916 41.561V31.135C97.916 31.092 97.92 31.049 97.916 31.008C97.897 30.888 97.957 30.868 98.061 30.868C99.026 30.872 99.992 30.871 100.957 30.87C101.144 30.87 101.115 30.894 101.115 31.062V35.191C101.115 35.467 101.115 35.464 101.386 35.451C102.571 35.397 103.717 35.148 104.844 34.791C105.014 34.738 105.001 34.781 105.001 34.572V31.125C105.001 31.075 105.004 31.025 105.001 30.976C104.998 30.907 105.021 30.868 105.096 30.871C105.133 30.873 105.168 30.871 105.203 30.871H108.014C108.214 30.871 108.201 30.858 108.201 31.051V41.648C108.201 41.857 108.215 41.835 108 41.836H105.21C104.973 41.836 105.002 41.836 105.002 41.632V37.196L105.001 37.195ZM96.037 32.822C95.273 33.228 94.521 33.625 93.767 34.024C93.749 33.99 93.733 33.967 93.725 33.94C93.55 33.326 93.123 32.977 92.527 32.823C92.072 32.705 91.611 32.701 91.162 32.848C90.798 32.968 90.522 33.186 90.452 33.591C90.399 33.888 90.488 34.138 90.722 34.33C90.928 34.5 91.166 34.605 91.424 34.67C92.029 34.826 92.644 34.93 93.254 35.052C93.811 35.164 94.362 35.297 94.9 35.477C95.486 35.673 95.976 36.014 96.38 36.479C96.642 36.781 96.796 37.135 96.87 37.525C97.008 38.236 96.977 38.935 96.698 39.613C96.36 40.433 95.748 40.993 94.976 41.394C94.3 41.745 93.576 41.931 92.82 42.002C91.909 42.089 91.006 42.049 90.117 41.819C89.202 41.582 88.377 41.176 87.709 40.489C87.41 40.179 87.153 39.801 87.043 39.492C87.864 39.056 88.688 38.62 89.513 38.184C89.535 38.215 89.553 38.23 89.558 38.25C89.745 38.956 90.221 39.392 90.89 39.625C91.562 39.858 92.25 39.891 92.94 39.692C93.18 39.623 93.402 39.51 93.582 39.332C93.964 38.952 93.917 38.389 93.48 38.079C93.19 37.874 92.86 37.769 92.52 37.694C91.855 37.55 91.189 37.414 90.524 37.268C90.122 37.18 89.727 37.066 89.34 36.929C88.778 36.731 88.309 36.399 87.915 35.955C87.619 35.623 87.455 35.227 87.384 34.792C87.27 34.085 87.317 33.39 87.598 32.727C87.994 31.788 88.715 31.193 89.652 30.84C90.462 30.535 91.306 30.459 92.164 30.517C92.864 30.564 93.54 30.711 94.176 31.013C94.925 31.368 95.54 31.874 95.946 32.611C95.969 32.654 95.991 32.699 96.012 32.744C96.02 32.763 96.025 32.784 96.037 32.822V32.822ZM70.519 23.965V18.73C70.519 18.456 70.497 18.495 70.76 18.495H78.256C78.526 18.495 78.494 18.467 78.494 18.734C78.496 19.407 78.494 20.081 78.494 20.756C78.494 20.95 78.494 20.952 78.298 20.952H73.74C73.581 20.955 73.579 20.955 73.578 21.118V22.65C73.578 22.829 73.581 22.83 73.77 22.83H77.581C77.633 22.83 77.658 22.855 77.657 22.907V24.759C77.657 24.934 77.656 24.936 77.467 24.936H73.741C73.581 24.939 73.579 24.94 73.578 25.104V26.826C73.578 27.002 73.581 27.003 73.771 27.004H78.158C78.443 27.004 78.443 27.004 78.443 27.283V29.262C78.443 29.502 78.45 29.472 78.218 29.472H70.679C70.523 29.47 70.52 29.47 70.52 29.305V23.965H70.519ZM78.367 36.34V31.105C78.367 30.84 78.33 30.87 78.607 30.87L85.887 30.869C85.93 30.869 85.973 30.874 86.016 30.869C86.115 30.858 86.132 30.909 86.132 30.994C86.129 31.724 86.127 32.455 86.133 33.186C86.135 33.316 86.073 33.316 85.98 33.316C85.298 33.315 84.616 33.316 83.936 33.316H81.614C81.432 33.316 81.431 33.317 81.431 33.501V35.033C81.431 35.191 81.432 35.193 81.594 35.193L85.256 35.194C85.548 35.194 85.514 35.166 85.515 35.458V37.097C85.515 37.324 85.525 37.307 85.31 37.307C84.095 37.307 82.882 37.305 81.668 37.307C81.398 37.307 81.432 37.268 81.431 37.543C81.429 38.081 81.43 38.62 81.431 39.159C81.431 39.389 81.405 39.366 81.632 39.366H86.104C86.288 39.368 86.289 39.368 86.289 39.552V41.658C86.289 41.832 86.288 41.834 86.118 41.834H78.538C78.368 41.834 78.367 41.832 78.367 41.638V36.34ZM58.86 36.347V31.091C58.86 30.866 58.844 30.885 59.068 30.885H65.243L66.437 30.886C66.587 30.887 66.59 30.89 66.59 31.04C66.592 31.834 66.592 32.628 66.59 33.422C66.59 33.565 66.586 33.567 66.43 33.567C65.543 33.569 64.656 33.567 63.768 33.567H62.256C62.038 33.567 62.055 33.552 62.055 33.779V35.525C62.055 35.726 62.038 35.723 62.25 35.723H65.38C65.423 35.723 65.466 35.721 65.508 35.723C65.658 35.727 65.662 35.727 65.663 35.876V37.855C65.662 38.035 65.661 38.037 65.474 38.037L62.322 38.038C62.014 38.038 62.056 37.994 62.056 38.31C62.054 39.396 62.055 40.482 62.055 41.567C62.055 41.617 62.052 41.665 62.055 41.715C62.061 41.797 62.027 41.829 61.945 41.827C61.79 41.822 61.633 41.825 61.477 41.825C60.689 41.825 59.901 41.827 59.113 41.825C58.822 41.825 58.861 41.86 58.861 41.583C58.859 39.836 58.86 38.092 58.86 36.346V36.347ZM88.388 23.974V18.676C88.389 18.493 88.389 18.491 88.573 18.491H91.404C91.594 18.491 91.588 18.473 91.588 18.674V26.524C91.588 26.573 91.59 26.624 91.588 26.673C91.586 26.746 91.623 26.775 91.693 26.773C91.743 26.771 91.792 26.773 91.842 26.773H95.673C95.716 26.773 95.759 26.771 95.802 26.773C95.952 26.778 95.955 26.778 95.956 26.926C95.958 27.28 95.956 27.636 95.956 27.99C95.956 28.43 95.958 28.869 95.956 29.31C95.956 29.46 95.952 29.462 95.804 29.463C95.554 29.466 95.307 29.464 95.058 29.464H88.672C88.615 29.464 88.558 29.462 88.502 29.464C88.422 29.468 88.382 29.439 88.388 29.354C88.391 29.305 88.388 29.254 88.388 29.206V23.974V23.974ZM79.721 23.96V18.727C79.721 18.454 79.691 18.492 79.96 18.492C80.869 18.49 81.777 18.492 82.685 18.492H82.835C82.895 18.49 82.925 18.515 82.925 18.579C82.923 18.636 82.925 18.692 82.925 18.749V26.536C82.925 26.79 82.883 26.774 83.163 26.774L86.995 26.775C87.045 26.775 87.095 26.779 87.144 26.775C87.244 26.765 87.28 26.801 87.279 26.905C87.273 27.275 87.276 27.643 87.276 28.012V29.289C87.276 29.462 87.274 29.465 87.104 29.465H79.929C79.722 29.464 79.721 29.464 79.721 29.257V23.96" fill="#242424"/>
<mask id="mask2" mask-type="alpha" maskUnits="userSpaceOnUse" x="20" y="15" width="34" height="30">
<path d="M38.314 15.803C37.777 15.805 37.24 15.833 36.704 15.889C35.634 15.999 34.586 16.205 33.559 16.519C31.028 17.289 28.779 18.561 26.82 20.339C24.974 22.016 23.565 24.002 22.632 26.319C22.129 27.567 21.8 28.861 21.661 30.203C21.579 30.988 21.561 31.773 21.616 32.56C21.666 33.255 21.66 33.949 21.545 34.639C21.503 34.889 21.457 35.14 21.412 35.391C21.367 35.455 21.366 35.531 21.363 35.604C21.323 35.626 21.328 35.666 21.329 35.704C21.321 35.723 21.315 35.742 21.308 35.762C21.256 35.923 21.185 36.078 21.156 36.246C21.049 36.499 20.941 36.752 20.836 37.005C20.83 37.021 20.827 37.036 20.823 37.05C20.752 37.16 20.687 37.275 20.648 37.4C20.603 37.424 20.597 37.47 20.585 37.512C20.435 37.76 20.262 37.997 20.16 38.273C20.13 38.33 20.1 38.386 20.102 38.452C20.085 38.494 20.081 38.535 20.088 38.58C20.06 38.592 20.054 38.642 20.01 38.629V39.141C20.12 39.211 20.09 39.345 20.144 39.441C20.143 39.475 20.156 39.503 20.18 39.526L20.19 39.573C20.2 39.622 20.22 39.666 20.262 39.697C20.304 39.852 20.41 39.963 20.522 40.069C20.669 40.21 20.803 40.368 21.012 40.425C21.106 40.49 21.21 40.536 21.326 40.549C21.332 40.561 21.34 40.565 21.352 40.561C21.399 40.591 21.448 40.595 21.501 40.587C21.571 40.63 21.649 40.624 21.728 40.622C21.869 40.621 22.01 40.621 22.152 40.617C22.592 40.607 23.03 40.636 23.465 40.687L23.477 40.697L23.493 40.695C23.98 40.783 24.462 40.885 24.932 41.035C25.007 41.067 25.08 41.107 25.166 41.101C25.244 41.166 25.345 41.182 25.436 41.217C25.708 41.317 25.958 41.464 26.229 41.567H26.231C26.279 41.606 26.325 41.649 26.394 41.647C26.416 41.678 26.444 41.697 26.483 41.7C26.572 41.778 26.674 41.833 26.781 41.88C26.787 41.9 26.801 41.907 26.823 41.904C26.938 41.994 27.063 42.074 27.196 42.14C27.203 42.162 27.218 42.174 27.24 42.179C27.35 42.252 27.455 42.334 27.57 42.399C27.843 42.554 28.098 42.743 28.395 42.855C28.455 42.912 28.527 42.949 28.607 42.969C29.072 43.224 29.56 43.425 30.059 43.604C30.383 43.719 30.705 43.851 31.046 43.918C31.092 43.964 31.152 43.951 31.209 43.96C31.346 44.016 31.489 44.06 31.637 44.073C31.621 43.993 31.587 43.933 31.539 43.893C31.588 43.933 31.621 43.993 31.637 44.073L31.721 44.093C31.787 44.13 31.861 44.143 31.936 44.146C32.203 44.21 32.469 44.286 32.746 44.294C32.786 44.324 32.831 44.325 32.878 44.32L32.958 44.33C33.394 44.413 33.835 44.455 34.279 44.47L34.281 44.504H35.9L35.899 44.458V44.504H36.453C36.433 44.496 36.426 44.481 36.435 44.46L36.304 44.456L36.436 44.46C36.704 44.45 36.973 44.435 37.236 44.377L37.248 44.376L37.308 44.37C37.379 44.373 37.452 44.378 37.516 44.338C37.578 44.343 37.639 44.344 37.699 44.324C37.896 44.293 38.094 44.271 38.285 44.21L38.313 44.211C38.352 44.213 38.391 44.217 38.414 44.171L38.495 44.16C38.638 44.19 38.762 44.132 38.89 44.087L39.017 44.068C39.059 44.072 39.095 44.052 39.132 44.033C39.242 44.03 39.346 44.005 39.444 43.953C39.721 43.915 39.979 43.813 40.242 43.73C40.267 43.732 40.292 43.735 40.292 43.698L40.295 43.705C40.431 43.69 40.559 43.647 40.679 43.581C40.814 43.546 40.949 43.51 41.069 43.436C41.141 43.436 41.203 43.415 41.251 43.358C41.294 43.372 41.334 43.356 41.372 43.34C41.644 43.227 41.918 43.117 42.185 42.993C42.413 42.888 42.651 42.799 42.863 42.66C42.975 42.636 43.066 42.571 43.157 42.507L43.098 42.46L43.091 42.422L43.098 42.46L43.157 42.507C43.25 42.488 43.325 42.437 43.396 42.377C43.37 42.374 43.345 42.367 43.327 42.351C43.345 42.368 43.37 42.374 43.396 42.377C43.42 42.374 43.441 42.365 43.455 42.343C43.525 42.326 43.585 42.295 43.633 42.243C43.697 42.241 43.743 42.208 43.783 42.16C43.853 42.14 43.911 42.1 43.966 42.054L43.962 42.049L43.966 42.054C44.001 42.044 44.034 42.033 44.054 42C44.101 41.981 44.149 41.962 44.184 41.92C44.404 41.795 44.631 41.679 44.814 41.498L44.819 41.494C44.872 41.502 44.903 41.47 44.931 41.434C45.016 41.394 45.091 41.34 45.156 41.274C45.355 41.166 45.526 41.022 45.697 40.877C45.759 40.857 45.809 40.822 45.84 40.764C45.91 40.739 45.958 40.686 46.013 40.642C46.555 40.204 47.067 39.736 47.551 39.236C49.295 37.434 50.581 35.353 51.349 32.962C51.897 31.257 52.126 29.508 51.992 27.721C51.912 26.647 52.016 25.601 52.302 24.566C52.359 24.362 52.457 24.171 52.486 23.959L52.482 23.953C52.572 23.839 52.613 23.703 52.647 23.565C52.682 23.542 52.688 23.505 52.689 23.468C52.761 23.381 52.799 23.278 52.825 23.171L52.828 23.17C52.906 23.057 52.974 22.939 53.022 22.81C53.072 22.76 53.097 22.7 53.112 22.633C53.165 22.586 53.202 22.527 53.225 22.459L53.252 22.411C53.292 22.376 53.315 22.333 53.325 22.282C53.421 22.158 53.484 22.02 53.495 21.862C53.565 21.647 53.607 21.432 53.535 21.21C53.539 21.139 53.548 21.068 53.502 21.006C53.506 20.973 53.5 20.942 53.478 20.915C53.443 20.77 53.394 20.632 53.293 20.517C53.168 20.277 52.983 20.095 52.745 19.966H52.739C52.706 19.918 52.655 19.899 52.6 19.886C52.55 19.846 52.498 19.81 52.43 19.81C52.334 19.754 52.235 19.718 52.122 19.731C52.089 19.717 52.055 19.722 52.022 19.727C52.002 19.729 51.982 19.732 51.963 19.73C51.953 19.71 51.941 19.692 51.913 19.7L51.821 19.695L51.753 19.699C51.743 19.723 51.732 19.747 51.723 19.772C51.732 19.747 51.743 19.723 51.753 19.699L51.656 19.701L51.534 19.703C51.507 19.693 51.479 19.694 51.452 19.707C51.282 19.693 51.112 19.689 50.942 19.697L50.852 19.694L50.6 19.68C50.6 19.696 50.599 19.713 50.597 19.728C50.599 19.713 50.6 19.696 50.6 19.68C50.45 19.63 50.29 19.648 50.136 19.615L49.362 19.479L49.287 19.459C49.285 19.469 49.282 19.476 49.277 19.484C49.282 19.476 49.285 19.468 49.287 19.459L48.935 19.361L48.341 19.171C48.221 19.116 48.104 19.052 47.979 19.011C47.889 18.981 47.812 18.903 47.705 18.926L47.66 18.917C47.658 18.895 47.651 18.877 47.626 18.871C47.577 18.825 47.517 18.799 47.452 18.783L46.892 18.471C46.786 18.4 46.685 18.319 46.563 18.271C46.476 18.204 46.4 18.126 46.295 18.086C46.242 18.046 46.198 17.988 46.124 17.983C46.067 17.917 45.993 17.878 45.912 17.851C45.548 17.597 45.149 17.403 44.75 17.213C44.479 17.085 44.212 16.94 43.917 16.866L43.915 16.873C43.911 16.841 43.889 16.837 43.864 16.839C43.494 16.67 43.109 16.543 42.716 16.445C42.708 16.433 42.695 16.428 42.681 16.43C42.628 16.41 42.577 16.387 42.522 16.373C41.611 16.119 40.683 15.945 39.742 15.863C39.302 15.825 38.862 15.805 38.422 15.803H38.314V15.803ZM37.487 44.192C37.509 44.222 37.518 44.258 37.519 44.298C37.519 44.258 37.509 44.222 37.487 44.192Z" fill="white"/>
</mask>
<g mask="url(#mask2)">
<path fill-rule="evenodd" clip-rule="evenodd" d="M38.314 15.803C37.777 15.805 37.24 15.833 36.704 15.889C35.634 15.999 34.586 16.205 33.559 16.519C31.028 17.289 28.779 18.561 26.82 20.339C24.974 22.016 23.565 24.002 22.632 26.319C22.129 27.567 21.8 28.861 21.661 30.203C21.579 30.988 21.561 31.773 21.616 32.56C21.666 33.255 21.66 33.949 21.545 34.639C21.503 34.889 21.457 35.14 21.412 35.391C21.367 35.455 21.366 35.531 21.363 35.604C21.323 35.626 21.328 35.666 21.329 35.704C21.321 35.723 21.315 35.742 21.308 35.762C21.256 35.923 21.185 36.078 21.156 36.246C21.049 36.499 20.941 36.752 20.836 37.005C20.83 37.021 20.827 37.036 20.823 37.05C20.752 37.16 20.687 37.275 20.648 37.4C20.603 37.424 20.597 37.47 20.585 37.512C20.435 37.76 20.262 37.997 20.16 38.273C20.13 38.33 20.1 38.386 20.102 38.452C20.085 38.494 20.081 38.535 20.088 38.58C20.06 38.592 20.054 38.642 20.01 38.629V39.141C20.12 39.211 20.09 39.345 20.144 39.441C20.143 39.475 20.156 39.503 20.18 39.526L20.19 39.573C20.2 39.622 20.22 39.666 20.262 39.697C20.304 39.852 20.41 39.963 20.522 40.069C20.669 40.21 20.803 40.368 21.012 40.425C21.106 40.49 21.21 40.536 21.326 40.549C21.332 40.561 21.34 40.565 21.352 40.561C21.399 40.591 21.448 40.595 21.501 40.587C21.571 40.63 21.649 40.624 21.728 40.622C21.869 40.621 22.01 40.621 22.152 40.617C22.592 40.607 23.03 40.636 23.465 40.687L23.477 40.697L23.493 40.695C23.98 40.783 24.462 40.885 24.932 41.035C25.007 41.067 25.08 41.107 25.166 41.101C25.244 41.166 25.345 41.182 25.436 41.217C25.708 41.317 25.958 41.464 26.229 41.567H26.231C26.279 41.606 26.325 41.649 26.394 41.647C26.416 41.678 26.444 41.697 26.483 41.7C26.572 41.778 26.674 41.833 26.781 41.88C26.787 41.9 26.801 41.907 26.823 41.904C26.938 41.994 27.063 42.074 27.196 42.14C27.203 42.162 27.218 42.174 27.24 42.179C27.35 42.252 27.455 42.334 27.57 42.399C27.843 42.554 28.098 42.743 28.395 42.855C28.455 42.912 28.527 42.949 28.607 42.969C29.072 43.224 29.56 43.425 30.059 43.604C30.383 43.719 30.705 43.851 31.046 43.918C31.092 43.964 31.152 43.951 31.209 43.96C31.346 44.016 31.489 44.06 31.637 44.073C31.621 43.993 31.587 43.933 31.539 43.893C31.588 43.933 31.621 43.993 31.637 44.073L31.721 44.093C31.787 44.13 31.861 44.143 31.936 44.146C32.203 44.21 32.469 44.286 32.746 44.294C32.786 44.324 32.831 44.325 32.878 44.32L32.958 44.33C33.394 44.413 33.835 44.455 34.279 44.47L34.281 44.504H35.9L35.899 44.458V44.504H36.453C36.433 44.496 36.426 44.481 36.435 44.46L36.304 44.456L36.436 44.46C36.704 44.45 36.973 44.435 37.236 44.377L37.248 44.376L37.308 44.37C37.379 44.373 37.452 44.378 37.516 44.338C37.578 44.343 37.639 44.344 37.699 44.324C37.896 44.293 38.094 44.271 38.285 44.21L38.313 44.211C38.352 44.213 38.391 44.217 38.414 44.171L38.495 44.16C38.638 44.19 38.762 44.132 38.89 44.087L39.017 44.068C39.059 44.072 39.095 44.052 39.132 44.033C39.242 44.03 39.346 44.005 39.444 43.953C39.721 43.915 39.979 43.813 40.242 43.73C40.267 43.732 40.292 43.735 40.292 43.698L40.295 43.705C40.431 43.69 40.559 43.647 40.679 43.581C40.814 43.546 40.949 43.51 41.069 43.436C41.141 43.436 41.203 43.415 41.251 43.358C41.294 43.372 41.334 43.356 41.372 43.34C41.644 43.227 41.918 43.117 42.185 42.993C42.413 42.888 42.651 42.799 42.863 42.66C42.975 42.636 43.066 42.571 43.157 42.507L43.098 42.46L43.091 42.422L43.098 42.46L43.157 42.507C43.25 42.488 43.325 42.437 43.396 42.377C43.37 42.374 43.345 42.367 43.327 42.351C43.345 42.368 43.37 42.374 43.396 42.377C43.42 42.374 43.441 42.365 43.455 42.343C43.525 42.326 43.585 42.295 43.633 42.243C43.697 42.241 43.743 42.208 43.783 42.16C43.853 42.14 43.911 42.1 43.966 42.054L43.962 42.049L43.966 42.054C44.001 42.044 44.034 42.033 44.054 42C44.101 41.981 44.149 41.962 44.184 41.92C44.404 41.795 44.631 41.679 44.814 41.498L44.819 41.494C44.872 41.502 44.903 41.47 44.931 41.434C45.016 41.394 45.091 41.34 45.156 41.274C45.355 41.166 45.526 41.022 45.697 40.877C45.759 40.857 45.809 40.822 45.84 40.764C45.91 40.739 45.958 40.686 46.013 40.642C46.555 40.204 47.067 39.736 47.551 39.236C49.295 37.434 50.581 35.353 51.349 32.962C51.897 31.257 52.126 29.508 51.992 27.721C51.912 26.647 52.016 25.601 52.302 24.566C52.359 24.362 52.457 24.171 52.486 23.959L52.482 23.953C52.572 23.839 52.613 23.703 52.647 23.565C52.682 23.542 52.688 23.505 52.689 23.468C52.761 23.381 52.799 23.278 52.825 23.171L52.828 23.17C52.906 23.057 52.974 22.939 53.022 22.81C53.072 22.76 53.097 22.7 53.112 22.633C53.165 22.586 53.202 22.527 53.225 22.459L53.252 22.411C53.292 22.376 53.315 22.333 53.325 22.282C53.421 22.158 53.484 22.02 53.495 21.862C53.565 21.647 53.607 21.432 53.535 21.21C53.539 21.139 53.548 21.068 53.502 21.006C53.506 20.973 53.5 20.942 53.478 20.915C53.443 20.77 53.394 20.632 53.293 20.517C53.168 20.277 52.983 20.095 52.745 19.966H52.739C52.706 19.918 52.655 19.899 52.6 19.886C52.55 19.846 52.498 19.81 52.43 19.81C52.334 19.754 52.235 19.718 52.122 19.731C52.089 19.717 52.055 19.722 52.022 19.727C52.002 19.729 51.982 19.732 51.963 19.73C51.953 19.71 51.941 19.692 51.913 19.7L51.821 19.695L51.753 19.699C51.743 19.723 51.732 19.747 51.723 19.772C51.732 19.747 51.743 19.723 51.753 19.699L51.656 19.701L51.534 19.703C51.507 19.693 51.479 19.694 51.452 19.707C51.282 19.693 51.112 19.689 50.942 19.697L50.852 19.694L50.6 19.68C50.6 19.696 50.599 19.713 50.597 19.728C50.599 19.713 50.6 19.696 50.6 19.68C50.45 19.63 50.29 19.648 50.136 19.615L49.362 19.479L49.287 19.459C49.285 19.469 49.282 19.476 49.277 19.484C49.282 19.476 49.285 19.468 49.287 19.459L48.935 19.361L48.341 19.171C48.221 19.116 48.104 19.052 47.979 19.011C47.889 18.981 47.812 18.903 47.705 18.926L47.66 18.917C47.658 18.895 47.651 18.877 47.626 18.871C47.577 18.825 47.517 18.799 47.452 18.783L46.892 18.471C46.786 18.4 46.685 18.319 46.563 18.271C46.476 18.204 46.4 18.126 46.295 18.086C46.242 18.046 46.198 17.988 46.124 17.983C46.067 17.917 45.993 17.878 45.912 17.851C45.548 17.597 45.149 17.403 44.75 17.213C44.479 17.085 44.212 16.94 43.917 16.866L43.915 16.873C43.911 16.841 43.889 16.837 43.864 16.839C43.494 16.67 43.109 16.543 42.716 16.445C42.708 16.433 42.695 16.428 42.681 16.43C42.628 16.41 42.577 16.387 42.522 16.373C41.611 16.119 40.683 15.945 39.742 15.863C39.302 15.825 38.862 15.805 38.422 15.803H38.314V15.803ZM37.487 44.192C37.509 44.222 37.518 44.258 37.519 44.298C37.519 44.258 37.509 44.222 37.487 44.192Z" fill="url(#paint0_linear)"/>
</g>
<mask id="mask3" mask-type="alpha" maskUnits="userSpaceOnUse" x="22" y="15" width="32" height="13">
<path d="M38.314 15.803C37.777 15.805 37.24 15.833 36.704 15.889C35.634 15.999 34.586 16.205 33.559 16.519C31.028 17.289 28.779 18.561 26.82 20.339C24.974 22.016 23.565 24.002 22.632 26.319C22.533 26.564 22.442 26.811 22.356 27.059H51.966C51.963 26.216 52.075 25.387 52.302 24.566C52.358 24.362 52.457 24.171 52.485 23.959L52.481 23.953C52.572 23.839 52.613 23.703 52.647 23.565C52.681 23.542 52.687 23.505 52.689 23.468C52.761 23.381 52.799 23.278 52.825 23.171L52.828 23.17C52.906 23.057 52.974 22.939 53.021 22.81C53.071 22.76 53.097 22.7 53.112 22.633C53.165 22.586 53.202 22.527 53.225 22.459L53.252 22.411C53.292 22.376 53.315 22.333 53.325 22.282C53.421 22.158 53.483 22.02 53.495 21.862C53.565 21.647 53.606 21.432 53.535 21.21C53.539 21.139 53.548 21.068 53.502 21.006C53.506 20.973 53.499 20.942 53.478 20.915C53.443 20.77 53.393 20.632 53.293 20.517C53.168 20.277 52.982 20.095 52.745 19.966H52.739C52.706 19.918 52.655 19.899 52.6 19.886C52.55 19.846 52.497 19.81 52.43 19.81C52.334 19.754 52.235 19.718 52.122 19.731C52.088 19.717 52.055 19.722 52.022 19.727C52.002 19.729 51.982 19.732 51.963 19.73C51.953 19.71 51.941 19.692 51.913 19.7L51.821 19.695L51.753 19.699C51.743 19.723 51.732 19.747 51.723 19.772C51.732 19.747 51.743 19.723 51.753 19.699L51.656 19.701L51.534 19.703C51.507 19.693 51.479 19.694 51.452 19.707C51.282 19.693 51.112 19.689 50.942 19.697L50.852 19.694L50.6 19.68C50.6 19.696 50.599 19.713 50.597 19.728C50.599 19.713 50.599 19.696 50.6 19.68C50.45 19.63 50.29 19.648 50.136 19.615L49.362 19.479L49.286 19.459C49.285 19.469 49.282 19.476 49.278 19.484C49.282 19.476 49.285 19.468 49.286 19.459L48.936 19.361L48.341 19.171C48.22 19.116 48.104 19.052 47.979 19.011C47.889 18.981 47.812 18.903 47.705 18.926L47.66 18.917C47.658 18.895 47.651 18.877 47.626 18.871C47.577 18.825 47.516 18.799 47.452 18.783L46.892 18.471C46.786 18.4 46.684 18.319 46.563 18.271C46.476 18.204 46.4 18.126 46.295 18.086C46.242 18.046 46.198 17.988 46.124 17.983C46.066 17.917 45.993 17.878 45.912 17.851C45.547 17.597 45.149 17.403 44.75 17.213C44.479 17.085 44.212 16.94 43.917 16.866L43.915 16.873C43.91 16.841 43.889 16.837 43.864 16.839C43.494 16.67 43.109 16.543 42.716 16.445C42.708 16.433 42.695 16.428 42.681 16.43C42.628 16.41 42.577 16.387 42.521 16.373C41.611 16.119 40.683 15.945 39.742 15.863C39.302 15.825 38.862 15.805 38.422 15.803H38.314V15.803Z" fill="white"/>
</mask>
<g mask="url(#mask3)">
<path fill-rule="evenodd" clip-rule="evenodd" d="M38.314 15.803C37.777 15.805 37.24 15.833 36.704 15.889C35.634 15.999 34.586 16.205 33.559 16.519C31.028 17.289 28.779 18.561 26.82 20.339C24.974 22.016 23.565 24.002 22.632 26.319C22.533 26.564 22.442 26.811 22.356 27.059H51.966C51.963 26.216 52.075 25.387 52.302 24.566C52.358 24.362 52.457 24.171 52.485 23.959L52.481 23.953C52.572 23.839 52.613 23.703 52.647 23.565C52.681 23.542 52.687 23.505 52.689 23.468C52.761 23.381 52.799 23.278 52.825 23.171L52.828 23.17C52.906 23.057 52.974 22.939 53.021 22.81C53.071 22.76 53.097 22.7 53.112 22.633C53.165 22.586 53.202 22.527 53.225 22.459L53.252 22.411C53.292 22.376 53.315 22.333 53.325 22.282C53.421 22.158 53.483 22.02 53.495 21.862C53.565 21.647 53.606 21.432 53.535 21.21C53.539 21.139 53.548 21.068 53.502 21.006C53.506 20.973 53.499 20.942 53.478 20.915C53.443 20.77 53.393 20.632 53.293 20.517C53.168 20.277 52.982 20.095 52.745 19.966H52.739C52.706 19.918 52.655 19.899 52.6 19.886C52.55 19.846 52.497 19.81 52.43 19.81C52.334 19.754 52.235 19.718 52.122 19.731C52.088 19.717 52.055 19.722 52.022 19.727C52.002 19.729 51.982 19.732 51.963 19.73C51.953 19.71 51.941 19.692 51.913 19.7L51.821 19.695L51.753 19.699C51.743 19.723 51.732 19.747 51.723 19.772C51.732 19.747 51.743 19.723 51.753 19.699L51.656 19.701L51.534 19.703C51.507 19.693 51.479 19.694 51.452 19.707C51.282 19.693 51.112 19.689 50.942 19.697L50.852 19.694L50.6 19.68C50.6 19.696 50.599 19.713 50.597 19.728C50.599 19.713 50.599 19.696 50.6 19.68C50.45 19.63 50.29 19.648 50.136 19.615L49.362 19.479L49.286 19.459C49.285 19.469 49.282 19.476 49.278 19.484C49.282 19.476 49.285 19.468 49.286 19.459L48.936 19.361L48.341 19.171C48.22 19.116 48.104 19.052 47.979 19.011C47.889 18.981 47.812 18.903 47.705 18.926L47.66 18.917C47.658 18.895 47.651 18.877 47.626 18.871C47.577 18.825 47.516 18.799 47.452 18.783L46.892 18.471C46.786 18.4 46.684 18.319 46.563 18.271C46.476 18.204 46.4 18.126 46.295 18.086C46.242 18.046 46.198 17.988 46.124 17.983C46.066 17.917 45.993 17.878 45.912 17.851C45.547 17.597 45.149 17.403 44.75 17.213C44.479 17.085 44.212 16.94 43.917 16.866L43.915 16.873C43.91 16.841 43.889 16.837 43.864 16.839C43.494 16.67 43.109 16.543 42.716 16.445C42.708 16.433 42.695 16.428 42.681 16.43C42.628 16.41 42.577 16.387 42.521 16.373C41.611 16.119 40.683 15.945 39.742 15.863C39.302 15.825 38.862 15.805 38.422 15.803H38.314V15.803Z" fill="url(#paint1_linear)"/>
</g>
<defs>
<linearGradient id="paint0_linear" x1="33" y1="33.5" x2="26.7789" y2="46.1299" gradientUnits="userSpaceOnUse">
<stop stop-color="#96DC14"/>
<stop offset="0.57881" stop-color="#6CBF24"/>
<stop offset="1" stop-color="#057D46"/>
</linearGradient>
<linearGradient id="paint1_linear" x1="53.5" y1="18" x2="50.0802" y2="24.6692" gradientUnits="userSpaceOnUse">
<stop stop-color="#069553"/>
<stop offset="0.35738" stop-color="#6CBF24"/>
<stop offset="1" stop-color="#96DC14"/>
</linearGradient>
</defs>
</svg>
