<svg xmlns="http://www.w3.org/2000/svg" width="129" height="60" viewBox="0 0 129 60">
    <g fill="none" fill-rule="evenodd">
        <g fill-rule="nonzero">
            <g>
                <g>
                    <g>
                        <path fill="#FCCA12" d="M36.373 19.888L34.433.003l-1.967 20.215c1.275-.14 2.578-.25 3.907-.33" transform="translate(-221 -935) translate(0 80) translate(221 855) translate(36.213 10.374)"/>
                        <path fill="#59C247" d="M41.11 19.742l.006-19.74L34.434 0v.003l1.94 19.885c1.548-.094 3.131-.144 4.735-.146" transform="translate(-221 -935) translate(0 80) translate(221 855) translate(36.213 10.374)"/>
                        <path fill="#176FC1" d="M32.466 20.218L34.434.003V0L16.97.003l.007 24.004c4.105-1.792 9.444-3.125 15.49-3.79M26.476 29.221c.24.043 1.104.295 1.104.905v9.779h2.92V28.873h-4.024v.348M3.543 28.873v.348c.35.073 1.118.287.81.975L0 39.905h2.296l1.364-3.026h4.818l1.193 3.026h3.022L8.375 28.873H3.543zm.734 6.635l1.953-4.34 1.714 4.34H4.277zM48.265 28.873v.348c.349.073 1.117.287.808.975l-4.352 9.709h2.296l1.364-3.026h4.818l1.193 3.026h3.022l-4.318-11.032h-4.831zm.733 6.635l1.953-4.34 1.707 4.34h-3.66zM40.506 39.905l4.613-11.032h-2.187l-3.379 8.09-3.221-8.09h-4.099v.348c.473.091 1.008.295 1.248.905l3.893 9.779h3.132M20.287 39.905L24.9 28.873h-2.186l-3.38 8.09-3.22-8.09h-4.1v.348c.474.091 1.008.295 1.248.905l3.893 9.779h3.132" transform="translate(-221 -935) translate(0 80) translate(221 855) translate(36.213 10.374)"/>
                    </g>
                </g>
            </g>
        </g>
    </g>
</svg>
