<svg xmlns="http://www.w3.org/2000/svg" width="130" height="60" viewBox="0 0 130 60">
    <g fill="none" fill-rule="evenodd">
        <g>
            <g>
                <g>
                    <g>
                        <g>
                            <path fill="#62BB46" d="M11.372 0C5.092 0 0 5.046 0 11.265c0 6.218 5.092 11.26 11.372 11.26 6.274 0 11.365-5.042 11.365-11.26C22.737 5.046 17.646 0 11.372 0m0 21.835C5.47 21.835.698 17.1.698 11.265.698 5.422 5.47.691 11.372.691c5.892 0 10.666 4.73 10.666 10.574 0 5.835-4.774 10.57-10.666 10.57" transform="translate(-1119 -935) translate(0 80) translate(221 855) translate(898.68) translate(8.6 19.188)"/>
                            <path fill="#62BB46" d="M1.572 11.188c3.881 1.21 7.54 4.96 8.649 9.756-5.455-.703-8.636-5.145-8.65-9.756M21.117 11.188c-3.88 1.21-7.585 4.96-8.648 9.756 5.455-.703 8.637-5.145 8.648-9.756M11.358 20.944c-4.136-6.327-3.243-15.004.003-19.677 3.097 4.673 4.065 13.35-.003 19.677" transform="translate(-1119 -935) translate(0 80) translate(221 855) translate(898.68) translate(8.6 19.188)"/>
                            <path fill="#231F20" d="M25.817 1.316L28.318 1.316 28.318 4.704 32.92 4.704 32.92 1.316 35.422 1.316 35.422 10.142 32.92 10.142 32.92 6.336 28.318 6.336 28.318 10.142 25.817 10.142zM37.43 1.316L45.935 1.316 45.935 2.949 39.931 2.949 39.931 4.839 45.441 4.839 45.441 6.347 39.931 6.347 39.931 8.51 46.062 8.51 46.062 10.142 37.43 10.142zM50.06 5.31h2.741c1.13 0 1.72-.371 1.72-1.261 0-.853-.59-1.224-1.72-1.224h-2.74V5.31zm-2.5-3.994h6.133c2.04 0 3.33 1.1 3.33 2.436 0 1.038-.527 1.817-1.8 2.212v.025c1.226.26 1.575 1.162 1.655 2.065.047.556.017 1.606.478 2.088h-2.5c-.287-.555-.272-1.408-.398-2.114-.176-.927-.637-1.334-1.896-1.334H50.06v3.448H47.56V1.316zM64.046 8.634c.973 0 1.849-.247 1.849-1.161 0-.902-.717-1.262-1.8-1.262H61.37v2.423h2.675zm-.143-3.745c.893 0 1.53-.31 1.53-1.05 0-.829-.83-1.014-1.721-1.014H61.37V4.89h2.532zM58.87 1.317h5.352c2.167 0 3.632.543 3.632 2.188 0 .877-.541 1.458-1.546 1.842 1.402.308 2.088 1.137 2.088 2.236 0 1.793-1.96 2.56-4.015 2.56H58.87V1.316zM75.388 6.73l-1.434-3.237h-.031l-1.48 3.238h2.945zM72.68 1.318h2.565l4.253 8.824h-2.597l-.86-1.965h-4.253l-.891 1.965h-2.533l4.316-8.824zM80.294 1.316L82.795 1.316 82.795 8.51 88.339 8.51 88.339 10.142 80.294 10.142zM89.232 10.141L91.733 10.141 91.733 1.316 89.232 1.316zM93.739 1.316L101.736 1.316 101.736 2.949 96.24 2.949 96.24 4.988 101.003 4.988 101.003 6.496 96.24 6.496 96.24 10.142 93.739 10.142zM102.994 1.316L111.501 1.316 111.501 2.949 105.495 2.949 105.495 4.839 111.006 4.839 111.006 6.347 105.495 6.347 105.495 8.51 111.628 8.51 111.628 10.142 102.994 10.142z" transform="translate(-1119 -935) translate(0 80) translate(221 855) translate(898.68) translate(8.6 19.188)"/>
                            <path fill="#62BB46" d="M25.816 12.174L28.3 12.174 33.048 18.094 33.08 18.094 33.08 12.174 35.421 12.174 35.421 20.999 32.919 20.999 28.189 15.09 28.157 15.09 28.157 20.999 25.816 20.999zM47.13 17.661c0 2.387-1.815 3.548-4.859 3.548-3.074 0-4.842-1.136-4.842-3.548v-5.487h2.501v5.487c0 .965.32 1.918 2.341 1.918 1.785 0 2.358-.595 2.358-1.918v-5.487h2.501v5.487zM51.756 13.805L48.349 13.805 48.349 12.174 57.666 12.174 57.666 13.805 54.257 13.805 54.257 20.999 51.756 20.999zM61.412 16.167h2.74c1.13 0 1.721-.371 1.721-1.261 0-.854-.59-1.224-1.721-1.224h-2.74v2.485zm-2.5-3.993h6.133c2.04 0 3.328 1.1 3.328 2.434 0 1.039-.524 1.818-1.8 2.213v.026c1.227.259 1.578 1.162 1.658 2.062.047.557.016 1.608.477 2.09h-2.5c-.287-.557-.272-1.41-.4-2.113-.175-.927-.635-1.335-1.895-1.335h-2.5v3.448H58.91v-8.825zM70.731 20.999L73.232 20.999 73.232 12.174 70.731 12.174zM78.107 13.805L74.697 13.805 74.697 12.174 84.016 12.174 84.016 13.805 80.608 13.805 80.608 20.999 78.107 20.999zM85.482 20.999L87.984 20.999 87.984 12.174 85.482 12.174zM94.96 19.578c2.246 0 3.09-1.483 3.09-2.955 0-1.544-.844-3.029-3.09-3.029-2.247 0-3.09 1.485-3.09 3.03 0 1.471.843 2.954 3.09 2.954m0-7.615c3.503 0 5.59 2.04 5.59 4.66 0 2.549-2.087 4.586-5.59 4.586-3.504 0-5.591-2.037-5.591-4.586 0-2.62 2.087-4.66 5.591-4.66M102.018 12.174L104.504 12.174 109.251 18.094 109.283 18.094 109.283 12.174 111.625 12.174 111.625 20.999 109.124 20.999 104.392 15.09 104.36 15.09 104.36 20.999 102.018 20.999z" transform="translate(-1119 -935) translate(0 80) translate(221 855) translate(898.68) translate(8.6 19.188)"/>
                        </g>
                    </g>
                </g>
            </g>
        </g>
    </g>
</svg>
