<svg xmlns="http://www.w3.org/2000/svg" width="130" height="60" viewBox="0 0 130 60">
    <g fill="none" fill-rule="evenodd">
        <g fill-rule="nonzero">
            <g>
                <g>
                    <g>
                        <g>
                            <path fill="#231F20" d="M20.15 26.776h.596c.597 0 1.045.298 1.045.893 0 .297-.15.893-1.045.893h-.597v-1.786zm-1.568 4.984h1.567v-2.083l1.493 2.083h1.865l-1.716-2.157c1.194-.223 1.567-1.265 1.567-2.008 0-.67-.224-1.34-.82-1.711-.448-.298-.822-.446-1.941-.446h-2.015v6.322zM30.299 29.38c0-.521.373-1.265 1.194-1.265.82 0 1.194.67 1.194 1.19 0 .447-.299 1.19-1.194 1.19-.896.075-1.194-.669-1.194-1.115zM34.104 27h-1.417v.52c-.15-.297-.597-.67-1.418-.67-1.269 0-2.388.968-2.388 2.53 0 1.339.895 2.529 2.388 2.529.597 0 1.194-.224 1.418-.67v.52h1.417V27zM35.82 29.38c0-.521.374-1.19 1.195-1.19.82 0 1.194.595 1.194 1.19 0 .52-.299 1.264-1.194 1.264-.672-.074-1.194-.52-1.194-1.264zm3.732-4.017h-1.418v2.008c-.149-.148-.597-.595-1.418-.595-1.194 0-2.388.893-2.388 2.53 0 1.413.97 2.528 2.388 2.528.97 0 1.344-.446 1.418-.67v.521h1.418v-6.322z" transform="translate(-1344 -935) translate(0 80) translate(221 855) translate(1123.35) translate(40 5)"/>
                            <path fill="#231F20" d="M24.85 29.38c0-.67.523-1.19 1.12-1.19.597 0 1.12.52 1.12 1.19 0 .67-.523 1.19-1.12 1.19-.597 0-1.12-.52-1.12-1.19m-1.492 0c0 1.19.821 2.529 2.612 2.529 1.717 0 2.612-1.34 2.612-2.53 0-1.19-.82-2.528-2.612-2.528-1.716 0-2.612 1.339-2.612 2.529M44.104 20.082L43.209 22.834 43.134 22.834 42.164 20.082 40.672 20.082 42.463 24.619 41.716 26.479 43.209 26.479 45.597 20.082zM37.388 21.942c.075-.298.373-.818 1.12-.818.746 0 1.044.52 1.119.818h-2.239zm1.94 1.413c-.224.223-.447.446-.895.446-.597 0-1.045-.372-1.12-.892h3.583v-.372c0-1.488-1.045-2.603-2.538-2.603-1.492 0-2.537 1.264-2.537 2.603 0 1.413 1.194 2.529 2.537 2.529.523 0 .97-.15 1.343-.447.374-.297.747-.669.97-1.19h-1.343v-.074zM31.866 22.462c0-.595.447-1.19 1.194-1.19.746 0 1.194.595 1.194 1.19s-.448 1.19-1.194 1.19c-.747 0-1.194-.52-1.194-1.19zm-1.418 2.38h1.343v-.52c.15.372.672.67 1.343.67 1.194 0 2.388-.893 2.388-2.604 0-1.785-1.343-2.529-2.388-2.529-.224 0-.895 0-1.418.52v-2.007H30.3v6.47h.149zM26.343 22.462c0-.595.448-1.19 1.194-1.19.747 0 1.194.595 1.194 1.19s-.447 1.19-1.194 1.19c-.746 0-1.194-.52-1.194-1.19zm-1.418 2.38h1.344v-.52c.149.372.671.67 1.343.67 1.194 0 2.463-.893 2.463-2.604 0-1.785-1.344-2.529-2.388-2.529-.224 0-.896 0-1.418.52v-2.007H24.85v6.47h.074z" transform="translate(-1344 -935) translate(0 80) translate(221 855) translate(1123.35) translate(40 5)"/>
                            <path fill="#231F20" d="M22.239 22.834H20.97l.597-1.338.672 1.338zm2.612 2.009l-3.284-6.397-3.283 6.397H20l.448-.893h2.239l.447.893h1.717z" transform="translate(-1344 -935) translate(0 80) translate(221 855) translate(1123.35) translate(40 5)"/>
                            <path fill="#231F20" d="M0 0L0 33.247 16.642 49.834 16.642 16.587 50 16.587 33.358 0z" transform="translate(-1344 -935) translate(0 80) translate(221 855) translate(1123.35) translate(40 5)"/>
                            <path fill="#CD2037" d="M29.776 34.066h-1.343v2.38c0 .67-.373.892-.746.892-.747 0-.747-.595-.747-.892V33.99h-1.343v2.678c0 .595.075.892.373 1.339.373.52 1.045.595 1.343.595.374 0 .896-.075 1.194-.595v.446h1.27v-4.388zm-5.15-1.488h-1.342v1.488h-.672v1.04h.672v3.422h1.343v-3.421h.672v-1.041h-.672v-1.488zm-2.163 1.71c0-.371-.075-.743-.373-1.19-.374-.446-1.045-.669-1.642-.669-.97 0-2.09.67-2.09 1.71 0 1.117 1.045 1.563 1.418 1.712.896.372 1.194.446 1.194.892 0 .298-.224.595-.597.595-.224 0-.597-.149-.597-.818h-1.492v.223c0 .744.447 1.86 2.164 1.86 1.567 0 2.09-.967 2.09-1.785 0-.67-.3-1.19-1.419-1.711-1.044-.446-1.194-.52-1.194-.893 0-.297.224-.446.523-.446.448 0 .522.372.522.595h1.493v-.074zM31.493 36.223c0-.521.373-1.116 1.119-1.116s1.12.595 1.12 1.116c0 .446-.3 1.115-1.12 1.115-.672.075-1.12-.446-1.12-1.115zM35 32.578h-1.343v1.86c-.15-.15-.523-.521-1.344-.521-1.119 0-2.238.892-2.238 2.38 0 1.339.895 2.38 2.238 2.38.896 0 1.194-.446 1.344-.595v.446h1.268v-5.95H35zM45.448 35.256c-.15-1.19-1.12-1.414-1.717-1.414-.895 0-1.716.595-1.716 1.488 0 .595.448.967 1.045 1.19.82.298 1.194.372 1.194.744 0 .223-.224.372-.448.372-.075 0-.448 0-.522-.372H41.94c.15 1.19 1.12 1.487 1.791 1.487.97 0 1.791-.595 1.791-1.487 0-.967-.82-1.19-1.567-1.413-.373-.075-.671-.223-.671-.447 0-.148.074-.297.373-.297.373 0 .373.223.447.372h1.344v-.223zm-7.015.967c0-.67.522-1.116 1.045-1.116.597 0 1.044.446 1.044 1.116 0 .669-.522 1.115-1.044 1.115-.597.075-1.045-.446-1.045-1.115zm-1.343 0c0 1.115.746 2.38 2.388 2.38 1.641 0 2.388-1.265 2.388-2.38 0-1.116-.747-2.38-2.388-2.38-1.642.074-2.388 1.338-2.388 2.38zm-.374-3.645h-1.343v1.041h1.343v-1.041zm0 1.488h-1.343v4.462h1.343v-4.462z" transform="translate(-1344 -935) translate(0 80) translate(221 855) translate(1123.35) translate(40 5)"/>
                        </g>
                    </g>
                </g>
            </g>
        </g>
    </g>
</svg>
