<svg xmlns="http://www.w3.org/2000/svg" width="129" height="60" viewBox="0 0 129 60">
    <g fill="none" fill-rule="evenodd">
        <g fill="#000" fill-rule="nonzero">
            <g>
                <g>
                    <g>
                        <g>
                            <g>
                                <g>
                                    <path d="M27.838 37.76c-.128-.021-.254-.046-.383-.062-1.683-.214-3.184-.878-4.554-1.857-1.359-.972-2.465-2.188-3.409-3.557-1.446-2.101-2.43-4.419-3.18-6.845-.183-.593-.358-1.19-.491-1.795-.22-1.003.294-2.063 1.19-2.541.949-.505 2.087-.366 2.808.396.987 1.045 2.095 1.922 3.353 2.613 1.613.888 3.36 1.505 5.172 1.828.75.129 1.505.213 2.264.25 2.464.141 4.83-.284 7.08-1.304.788-.355 1.537-.788 2.237-1.293.095-.072.177-.16.241-.261.841-1.277 1.883-2.355 3.153-3.21.306-.206.623-.245.942-.058.406.237.402.703 0 .953-1.129.7-2.095 1.634-2.832 2.74-.811 1.214-1.266 2.55-1.343 4.017-.078 1.486.241 2.892.78 4.262.51 1.294 1.202 2.49 2.003 3.625.157.222.261.438.097.697-.14.22-.47.33-.77.267-.223-.048-.382-.178-.51-.362-.84-1.205-1.58-2.463-2.124-3.83-.022-.056-.05-.109-.088-.19-.139.147-.263.282-.392.413-1.345 1.37-2.798 2.605-4.48 3.55-1.44.81-2.964 1.375-4.626 1.517-.032.008-.062.02-.09.038l-2.048-.001zm2.92-3.205c-.014-.263-.038-.526-.036-.788 0-.15-.065-.186-.188-.186-.201 0-.4-.01-.598 0-1.892.088-2.952 1.46-3.056 3.302 1.743.295 3.44.106 5.091-.51 1.835-.682 3.325-1.844 4.565-3.364-.486-.303-1.036-.487-1.607-.537-1.183-.105-2.191.322-3.083 1.058-.378.312-.716.672-1.089 1.025zM45.312 0c.246.04.492.077.738.12.798.139 1.558.372 2.21.88.783.609 1.252 1.43 1.576 2.345.369 1.054.578 2.158.622 3.274.05 1.114.086 2.23.061 3.345-.033 1.49-.17 2.973-.591 4.413-.238.815-.57 1.585-1.111 2.25-.64.787-1.473 1.265-2.457 1.486-1.333.3-2.665.298-3.988-.05-1.503-.395-2.45-1.4-3.025-2.804-.382-.934-.602-1.912-.694-2.911-.091-1-.15-1.996-.19-2.996-.058-1.463.012-2.923.257-4.37.153-.906.402-1.783.833-2.602.661-1.256 1.71-1.965 3.09-2.213.326-.059.653-.11.98-.165L45.312 0zm.387 9.027c-.04-1.031-.043-1.774-.104-2.512-.04-.51-.147-1.015-.253-1.517-.046-.248-.194-.465-.408-.598-.497-.3-1.093-.087-1.311.48-.278.723-.327 1.486-.353 2.245-.032.922-.037 1.843-.017 2.766.016.666.078 1.332.147 1.995.047.451.125.904.37 1.3.148.241.412.388.695.387.283-.002.545-.151.69-.394.227-.375.321-.797.353-1.224.083-1.07.14-2.143.19-2.928zM0 3.816c.086.006.173.016.26.016h9.004V8.46H4.745v2.066l4.382-.08v4.05l-4.385-.08v2.15h4.533v5.126H0V3.816zM61.701 3.977c-.106.402-.228.803-.318 1.211-.778 3.561-1.562 7.122-2.313 10.69-.1.474-.03.985-.036 1.48 0 .08.014.16.014.24.007.79.012 1.58.017 2.37.002.573 0 1.146 0 1.712H53.11v-1.727c0-.054.009-.107.009-.16.008-1.151.04-2.303.012-3.452-.013-.501-.132-1.004-.238-1.497-.499-2.327-1.005-4.651-1.52-6.971-.284-1.278-.595-2.55-.893-3.825-.015-.063-.026-.127-.04-.204h4.91l.08.852c.16 1.713.318 3.427.481 5.142.103 1.062.218 2.123.328 3.184 0 .04.008.08.022.118.024.04.052.076.084.108.033-.04.09-.076.095-.12.043-.33.074-.662.113-.993.13-1.113.27-2.225.392-3.34.108-.987.2-1.977.299-2.966.06-.617.118-1.235.18-1.853.008-.048.02-.096.037-.143h4c.08 0 .161-.01.239-.015l.001.159zM16.55 2.023V.328h4.62v17.738h-4.612v-2.325l-.035-.02c-.034.051-.063.105-.087.161-.174.55-.447 1.062-.807 1.512-.282.362-.676.62-1.12.732-.598.162-1.226.166-1.825.01-.865-.223-1.37-.843-1.717-1.617-.422-.947-.598-1.957-.673-2.977-.085-1.152-.146-2.309-.132-3.463.02-1.756.092-3.512.186-5.266.058-1.088.318-2.138.82-3.117.49-.953 1.256-1.48 2.336-1.542 1.406-.08 2.39.563 2.927 1.732.023.052.054.1.08.15l.04-.013zm.07 6.253V4.842c0-.696 0-.696-.708-.74-.41-.024-.729.168-.89.546-.049.117-.102.237-.118.362-.07.541-.166 1.085-.18 1.628-.036 1.39-.05 2.78-.04 4.173.011.647.06 1.293.146 1.934.034.27.145.545.282.783.223.393.688.448 1 .121.163-.167.282-.37.35-.593.092-.34.143-.692.15-1.045.018-1.245.008-2.49.008-3.735z" transform="translate(-920 -8664) translate(1 7666) translate(221 100) translate(628) translate(0 858) translate(70 40) translate(0 11)"/>
                                    <path d="M22.033 3.845h9.039v5.57h-1.993c.028 4.092.055 8.182.08 12.248h-5.182l.073-12.249h-2.017V3.845zM32.413 3.846h5.001v.27c-.013 2.33-.035 4.66-.035 6.987 0 2.027.027 4.054.033 6.082.002.928-.13 1.833-.446 2.714-.402 1.114-1.207 1.702-2.344 1.866-1.366.196-2.716.04-4.054-.256-.018-.005-.036-.013-.052-.022l.21-5.65c.333.049.69.124 1.05.149.36.024.622-.17.722-.515.068-.23.105-.468.112-.707.014-.663.008-1.326.004-1.988-.01-1.626-.009-3.252-.044-4.877-.028-1.315-.103-2.63-.157-3.944v-.11z" transform="translate(-920 -8664) translate(1 7666) translate(221 100) translate(628) translate(0 858) translate(70 40) translate(0 11)"/>
                                </g>
                            </g>
                        </g>
                    </g>
                </g>
            </g>
        </g>
    </g>
</svg>
