<svg xmlns="http://www.w3.org/2000/svg" width="221" height="100" viewBox="0 0 221 100">
    <g fill="none" fill-rule="evenodd">
        <g fill="#2A6FE3" fill-rule="nonzero">
            <g>
                <g>
                    <g>
                        <path d="M14.535 17.73c.284 0 .555-.064.812-.204l2.966-1.597c.596-.317 1.286-.456 1.977-.38 3.601.393 6.12 1.027 6.865 1.23.149.037.325-.013.42-.127.121-.14.27-.368.392-.698.109-.316.122-.583.109-.773-.014-.152-.122-.291-.285-.33-1.164-.316-6.323-1.622-13.256-1.622S2.443 14.535 1.279 14.852c-.163.038-.271.177-.285.33-.013.177 0 .443.109.772.108.33.27.558.392.698.095.114.271.164.42.126.745-.202 3.277-.836 6.865-1.23.69-.075 1.381.064 1.977.381l2.965 1.597c.258.14.542.203.813.203zM9.802 8.158c.149.272.385.453.658.531.273.078.559.04.82-.116.26-.156.434-.402.509-.687.074-.285.037-.583-.112-.856L9.23 2.612c-.074-.142-.236-.194-.385-.181-.198.013-.472.117-.795.311-.322.194-.546.389-.658.557-.087.13-.112.298-.037.44l2.447 4.42zm-2.384 3.127c.273.149.585.173.859.111.286-.074.533-.247.69-.508.156-.26.182-.557.117-.818-.065-.26-.26-.508-.534-.656L4.112 6.973c-.143-.074-.312-.05-.443.037-.169.112-.364.335-.56.657-.194.322-.298.595-.311.793-.014.161.052.31.182.384l4.438 2.442zm8.02-4.664c0 .333-.156.638-.39.86-.248.222-.575.347-.965.347-.373 0-.716-.139-.965-.347-.249-.222-.39-.513-.39-.86V1.17c0-.18.125-.319.312-.388.218-.097.576-.153 1.043-.153.467 0 .826.056 1.043.153.172.083.312.208.312.388v5.452zm3.83 1.537c-.149.272-.385.453-.658.531-.273.078-.559.04-.82-.116-.26-.156-.434-.402-.509-.687-.074-.285-.037-.583.112-.856l2.446-4.419c.075-.142.236-.194.385-.181.2.013.472.117.795.311.323.194.547.389.658.557.087.13.112.298.038.44l-2.447 4.42zm2.384 3.127c-.273.149-.586.173-.859.111-.286-.074-.534-.247-.69-.508-.156-.26-.182-.557-.117-.818.078-.272.26-.508.534-.656l4.438-2.442c.143-.074.312-.05.442.037.17.112.365.335.56.657.195.322.3.595.312.793.013.161-.052.31-.182.384l-4.438 2.442zm29.204-3.457h2.317c.085 0 .156.053.198.12l2.304 5.561 2.233-5.561c.028-.08.113-.12.198-.12h2.275c.155 0 .254.146.184.266L54.912 20.31c-.029.067-.113.12-.184.12H52.72c-.141 0-.254-.146-.184-.266l1.937-4.27-3.788-7.798c-.085-.12.014-.266.17-.266zm33.46 1.403V8.2c0-.106.099-.199.211-.199h2.037c.113 0 .21.093.21.199v8.245c0 .106-.097.199-.21.199h-2.037c-.112 0-.21-.093-.21-.199V15.36c-.436.635-1.392 1.47-2.951 1.47-2.979 0-4.524-2.145-4.524-4.54 0-3.124 2.304-4.46 4.454-4.46 1.419-.014 2.402.621 3.02 1.402zm-4.765 3.077c0 1.538.86 2.72 2.245 2.72 1.384 0 2.27-1.03 2.27-2.61 0-1.58-.86-2.79-2.332-2.79-1.385 0-2.183 1.182-2.183 2.68zm9.03 4.317V8.207c0-.108.092-.202.197-.202h1.904c.105 0 .196.094.196.202v1.15c.447-.798 1.287-1.528 2.718-1.528 1.47 0 3.112.743 3.112 4.162v4.635c0 .109-.092.203-.197.203h-1.904c-.105 0-.197-.094-.197-.203v-4.594c0-.825-.197-2.243-1.615-2.243s-1.917 1.283-1.917 2.473v4.364c0 .109-.091.203-.196.203h-1.904c-.118-.013-.197-.094-.197-.203zm9.933 0V8.207c0-.108.092-.202.197-.202h1.904c.105 0 .196.094.196.202v1.15c.447-.798 1.287-1.528 2.718-1.528 1.47 0 3.112.743 3.112 4.162v4.635c0 .109-.092.203-.197.203h-1.904c-.105 0-.197-.094-.197-.203v-4.594c0-.825-.197-2.243-1.615-2.243s-1.917 1.283-1.917 2.473v4.364c0 .109-.091.203-.196.203H98.71c-.105-.013-.197-.094-.197-.203zm20.082-8.618h1.905c.108 0 .203.094.203.202v1.743c.378-1.729 1.864-2.323 2.945-2.067.095.014.149.095.149.19v1.918c0 .121-.108.216-.243.189-2-.392-2.81.689-2.81 2.202v4.241c0 .109-.095.203-.203.203h-1.96c-.108 0-.202-.094-.202-.203V8.21c.013-.108.108-.202.216-.202zM38.341 9.67c-.629-.205-.964-.327-1.467-.49-.518-.178-1.398-.67-1.398-1.46 0-.79.56-1.295 1.691-1.295 1.034 0 1.607.49 1.984 1.281.056.11.182.15.294.096l1.663-.941c.084-.055.126-.164.084-.26-.503-1.076-1.677-2.372-3.997-2.372-2.585 0-4.206 1.5-4.206 3.477 0 1.964 1.327 2.987 3.13 3.587.657.218.922.313 1.481.49 1.062.355 1.551.819 1.551 1.46 0 .64-.419 1.404-2.068 1.404-1.51 0-2.04-.777-2.348-1.513-.041-.11-.181-.164-.293-.096l-1.747.982c-.084.055-.126.15-.084.245.671 1.61 2.502 2.564 4.556 2.564 2.418 0 4.458-1.2 4.458-3.627 0-2.427-2.655-3.327-3.284-3.532zm12.455 4.68c-.053-.094-.185-.135-.277-.068-.74.55-1.612.563-2.272-.469-.555-.871-1.228-1.943-1.228-1.943l2.905-3.66c.106-.134.013-.322-.145-.322h-2.272c-.066 0-.119.027-.158.08l-2.51 3.5V4.43c0-.107-.092-.2-.198-.2h-1.915c-.106 0-.198.093-.198.2v12.01c0 .108.092.201.198.201h1.928c.106 0 .198-.093.198-.2V12.54s1.282 2.05 1.77 2.815c.66 1.045 1.585 1.474 2.589 1.474.951 0 1.559-.255 2.285-.978.066-.067.08-.161.04-.242l-.74-1.26zm14.714-2.69l-1.336-.477c-.483-.173-.91-.425-.91-.796 0-.37.358-.782 1.089-.782.634 0 1.02.239 1.24.663.055.106.18.133.276.08l1.405-.783c.097-.053.124-.172.07-.265-.387-.65-1.145-1.47-2.978-1.47-2.246 0-3.404 1.245-3.404 2.624 0 1.378 1.172 2.028 2.247 2.438 1.213.478 1.295.504 1.447.557.372.146.827.371.827.782 0 .411-.496.782-1.254.782-.703 0-1.503-.278-1.833-1.06-.042-.106-.18-.16-.29-.093l-1.42.782c-.082.053-.123.146-.082.239.414 1.034 1.64 1.948 3.625 1.948 2.15 0 3.583-1.1 3.583-2.65 0-1.552-1.103-2.095-2.302-2.52zm7.244-1.766c.858 0 1.493.265 2.087.688.093.066.225.04.278-.053l.792-1.376c.053-.093.027-.199-.066-.252-.819-.556-1.836-1.072-3.21-1.072-1.361 0-2.617.37-3.515 1.284-.899.9-1.308 1.972-1.308 3.243 0 1.535.634 2.514 1.321 3.203.687.688 1.93 1.27 3.515 1.27 1.427 0 2.484-.595 3.21-1.072.08-.053.106-.172.053-.251l-.78-1.364c-.052-.092-.184-.132-.277-.066-.515.37-1.255.688-2.087.688-.938 0-2.643-.529-2.643-2.435 0-1.906 1.691-2.435 2.63-2.435zm40.213 5.03c-.815 0-1.588-.186-2.15-.61-.562-.423-.829-.86-.829-1.376h7.278c.113 0 .21-.093.21-.199-.041-2.038-.744-2.99-1.418-3.64-.703-.661-1.897-1.27-3.47-1.27-1.574 0-2.782.543-3.611 1.31-.815.768-1.433 1.747-1.433 3.23 0 1.482.632 2.462 1.405 3.19.773.727 2.037 1.27 3.85 1.27 1.713 0 3.16-.569 4.2-1.694.084-.093.056-.238-.056-.291l-1.447-.794c-.07-.04-.169-.04-.239.026-.716.635-1.63.847-2.29.847zm-.411-5.295c1.073 0 2.057.643 2.212 1.8h-4.515c.297-1.247 1.229-1.8 2.303-1.8z" transform="translate(-97 -1874) translate(97 1685) translate(0 189) translate(49 39)"/>
                    </g>
                </g>
            </g>
        </g>
    </g>
</svg>
