<svg xmlns="http://www.w3.org/2000/svg" width="221" height="100" viewBox="0 0 221 100">
    <g fill="none" fill-rule="evenodd">
        <g fill-rule="nonzero">
            <g>
                <g>
                    <g>
                        <g>
                            <path fill="#231F20" d="M21.157 28.115h.627c.626 0 1.097.313 1.097.937 0 .313-.157.938-1.097.938h-.627v-1.875zm-1.646 5.233h1.646V31.16l1.567 2.187h1.959l-1.802-2.265c1.253-.234 1.645-1.328 1.645-2.109 0-.703-.235-1.405-.862-1.796-.47-.312-.862-.469-2.037-.469H19.51v6.639zM31.813 30.849c0-.547.392-1.328 1.254-1.328s1.254.703 1.254 1.25c0 .468-.314 1.25-1.254 1.25-.94.077-1.254-.704-1.254-1.172zm3.997-2.5h-1.49v.547c-.156-.312-.626-.703-1.488-.703-1.332 0-2.507 1.016-2.507 2.656 0 1.405.94 2.655 2.507 2.655.627 0 1.254-.234 1.489-.703v.547h1.489V28.35zM37.612 30.849c0-.547.392-1.25 1.254-1.25s1.253.625 1.253 1.25c0 .546-.313 1.327-1.253 1.327-.706-.078-1.254-.546-1.254-1.327zm3.918-4.218H40.04v2.109c-.157-.156-.627-.625-1.489-.625-1.253 0-2.507.937-2.507 2.656 0 1.483 1.018 2.655 2.507 2.655 1.019 0 1.41-.469 1.489-.703v.547h1.489V26.63z" transform="translate(-97 -1974) translate(97 1685) translate(0 189) translate(0 100) translate(84 26)"/>
                            <path fill="#231F20" d="M26.093 30.849c0-.703.549-1.25 1.176-1.25.627 0 1.175.547 1.175 1.25s-.548 1.25-1.175 1.25-1.176-.547-1.176-1.25m-1.567 0c0 1.25.862 2.655 2.743 2.655 1.802 0 2.742-1.406 2.742-2.655 0-1.25-.862-2.656-2.742-2.656-1.803 0-2.743 1.406-2.743 2.656M46.31 21.086L45.369 23.976 45.291 23.976 44.272 21.086 42.705 21.086 44.586 25.85 43.802 27.803 45.369 27.803 47.877 21.086zM39.257 23.039c.079-.313.392-.86 1.176-.86.783 0 1.097.547 1.175.86h-2.35zm2.038 1.484c-.235.234-.47.468-.94.468-.627 0-1.098-.39-1.176-.937h3.761v-.39c0-1.562-1.097-2.734-2.664-2.734-1.567 0-2.664 1.328-2.664 2.734 0 1.484 1.254 2.655 2.664 2.655.549 0 1.019-.156 1.41-.469.392-.312.784-.702 1.02-1.25h-1.411v-.077zM33.459 23.586c0-.625.47-1.25 1.254-1.25.783 0 1.253.625 1.253 1.25 0 .624-.47 1.25-1.253 1.25-.784 0-1.254-.548-1.254-1.25zm-1.489 2.499h1.41v-.547c.157.39.706.703 1.411.703 1.254 0 2.508-.937 2.508-2.734 0-1.874-1.41-2.655-2.508-2.655-.235 0-.94 0-1.489.547V19.29h-1.489v6.795h.157zM27.66 23.586c0-.625.47-1.25 1.254-1.25s1.254.625 1.254 1.25c0 .624-.47 1.25-1.254 1.25-.783 0-1.254-.548-1.254-1.25zm-1.488 2.499h1.41v-.547c.157.39.705.703 1.41.703 1.254 0 2.586-.937 2.586-2.734 0-1.874-1.41-2.655-2.507-2.655-.235 0-.94 0-1.489.547V19.29h-1.489v6.795h.079z" transform="translate(-97 -1974) translate(97 1685) translate(0 189) translate(0 100) translate(84 26)"/>
                            <path fill="#231F20" d="M23.35 23.976H22.02l.627-1.406.705 1.406zm2.743 2.109l-3.447-6.717-3.448 6.717H21l.47-.937h2.35l.471.937h1.802z" transform="translate(-97 -1974) translate(97 1685) translate(0 189) translate(0 100) translate(84 26)"/>
                            <path fill="#231F20" d="M0 0L0 34.91 17.474 52.326 17.474 17.416 52.5 17.416 35.026 0z" transform="translate(-97 -1974) translate(97 1685) translate(0 189) translate(0 100) translate(84 26)"/>
                            <path fill="#CD2037" d="M31.265 35.769h-1.41v2.499c0 .703-.392.937-.784.937-.784 0-.784-.625-.784-.937v-2.577h-1.41v2.811c0 .625.078.937.392 1.406.391.547 1.097.625 1.41.625.392 0 .94-.078 1.254-.625v.469h1.332v-4.608zm-5.407-1.562h-1.41v1.562h-.705v1.093h.705v3.593h1.41v-3.593h.705V35.77h-.705v-1.562zm-2.272 1.796c0-.39-.079-.78-.392-1.25-.392-.468-1.097-.702-1.724-.702-1.019 0-2.194.703-2.194 1.796 0 1.171 1.097 1.64 1.489 1.796.94.39 1.254.469 1.254.937 0 .313-.235.625-.627.625-.235 0-.627-.156-.627-.859h-1.567v.234c0 .781.47 1.953 2.272 1.953 1.646 0 2.194-1.015 2.194-1.875 0-.702-.313-1.25-1.489-1.796-1.097-.468-1.253-.546-1.253-.937 0-.312.235-.469.548-.469.47 0 .549.39.549.625h1.567v-.078zM33.067 38.034c0-.547.392-1.172 1.176-1.172.783 0 1.175.625 1.175 1.172 0 .468-.314 1.171-1.175 1.171-.706.078-1.176-.468-1.176-1.171zm3.683-3.827h-1.41v1.952c-.157-.156-.549-.546-1.41-.546-1.176 0-2.352.937-2.352 2.499 0 1.406.94 2.499 2.351 2.499.94 0 1.254-.469 1.41-.625v.469h1.333v-6.248h.078zM47.72 37.018c-.157-1.25-1.175-1.483-1.802-1.483-.94 0-1.802.624-1.802 1.561 0 .625.47 1.016 1.097 1.25.862.312 1.253.39 1.253.781 0 .234-.235.39-.47.39-.078 0-.47 0-.548-.39h-1.41c.156 1.25 1.175 1.562 1.88 1.562 1.019 0 1.88-.625 1.88-1.562 0-1.015-.861-1.25-1.645-1.484-.392-.078-.705-.234-.705-.468 0-.157.078-.313.392-.313.391 0 .391.234.47.39h1.41v-.234zm-7.366 1.016c0-.703.549-1.172 1.097-1.172.627 0 1.098.469 1.098 1.172S42 39.205 41.45 39.205c-.626.078-1.097-.468-1.097-1.171zm-1.41 0c0 1.171.784 2.499 2.507 2.499 1.724 0 2.508-1.328 2.508-2.5 0-1.17-.784-2.498-2.508-2.498-1.723.078-2.507 1.405-2.507 2.499zm-.392-3.827h-1.41V35.3h1.41v-1.093zm0 1.562h-1.41v4.686h1.41v-4.686z" transform="translate(-97 -1974) translate(97 1685) translate(0 189) translate(0 100) translate(84 26)"/>
                        </g>
                    </g>
                </g>
            </g>
        </g>
    </g>
</svg>
