<svg width="129" height="60" viewBox="0 0 129 60" xmlns="http://www.w3.org/2000/svg">
    <g fill="#000" fill-rule="nonzero">
        <path d="M60.875 50c-.132-.022-.264-.048-.397-.065-1.746-.22-3.303-.906-4.724-1.918-1.41-1.004-2.556-2.26-3.536-3.674-1.5-2.17-2.52-4.563-3.298-7.07a22.774 22.774 0 0 1-.51-1.853c-.227-1.035.305-2.13 1.235-2.624.984-.522 2.164-.378 2.913.409a14.12 14.12 0 0 0 3.477 2.699 17.544 17.544 0 0 0 5.365 1.888c.777.133 1.561.219 2.349.258 2.555.145 5.008-.294 7.344-1.347a13.31 13.31 0 0 0 2.32-1.336c.098-.074.183-.166.25-.27a11.72 11.72 0 0 1 3.27-3.315c.318-.212.647-.253.977-.06.422.245.417.727 0 .984a9.615 9.615 0 0 0-2.938 2.83 8.08 8.08 0 0 0-1.392 4.15c-.081 1.535.25 2.987.809 4.401.53 1.337 1.247 2.572 2.077 3.744.163.23.271.453.101.72-.144.228-.488.342-.799.276-.231-.05-.396-.184-.529-.374-.872-1.244-1.64-2.543-2.203-3.956-.023-.057-.052-.112-.091-.195-.144.151-.273.29-.407.426-1.395 1.414-2.902 2.69-4.646 3.667-1.495.837-3.076 1.42-4.8 1.566A.34.34 0 0 0 63 50h-2.125zm3.028-3.31c-.013-.273-.038-.544-.036-.815 0-.154-.067-.192-.196-.192-.208 0-.414-.01-.62 0-1.962.091-3.062 1.508-3.17 3.41 1.809.305 3.569.11 5.281-.526 1.903-.705 3.449-1.904 4.735-3.474a3.768 3.768 0 0 0-1.667-.555c-1.227-.11-2.272.332-3.197 1.092-.392.322-.743.695-1.13 1.06zM79 11c.255.041.51.08.766.124.828.143 1.616.384 2.291.908.813.63 1.3 1.478 1.636 2.423.382 1.089.6 2.229.645 3.381.052 1.15.09 2.304.063 3.455-.034 1.539-.177 3.07-.613 4.558-.247.842-.592 1.637-1.152 2.323-.664.813-1.528 1.307-2.548 1.536-1.383.309-2.765.307-4.137-.052-1.559-.408-2.542-1.446-3.138-2.896a10.384 10.384 0 0 1-.72-3.007 59.73 59.73 0 0 1-.197-3.094c-.06-1.511.013-3.019.266-4.513.16-.936.417-1.842.864-2.688.687-1.297 1.775-2.029 3.206-2.286.338-.06.678-.114 1.016-.17L79 11zm.401 9.323c-.041-1.065-.044-1.832-.107-2.594-.041-.526-.153-1.049-.263-1.567a.923.923 0 0 0-.423-.618c-.516-.31-1.134-.089-1.36.496-.288.747-.338 1.535-.366 2.32a50.204 50.204 0 0 0-.017 2.855c.016.688.08 1.376.152 2.061.048.466.13.934.384 1.343a.84.84 0 0 0 1.437-.008c.235-.387.333-.823.365-1.263.087-1.106.147-2.214.198-3.025zM32 14.941c.09.006.18.017.269.017h9.34v4.78h-4.687v2.134l4.546-.083v4.183l-4.549-.083v2.222h4.702v5.293H32V14.94zM96.19 15.107c-.11.415-.236.83-.329 1.251-.807 3.679-1.62 7.356-2.4 11.04-.103.491-.03 1.019-.036 1.53 0 .083.014.166.014.249.007.815.013 1.63.017 2.447.003.592 0 1.183 0 1.768H87.28v-1.784c0-.055.009-.11.009-.166.009-1.188.041-2.378.012-3.565-.013-.517-.136-1.037-.246-1.546-.518-2.403-1.043-4.803-1.577-7.2-.295-1.32-.617-2.633-.927-3.95-.015-.065-.027-.13-.041-.211h5.092c.028.297.057.588.083.88.167 1.77.33 3.54.5 5.31.107 1.097.226 2.194.34 3.29 0 .041.008.082.023.121.025.04.054.078.087.112.035-.041.093-.079.099-.124.044-.341.076-.684.116-1.026.136-1.15.28-2.298.407-3.449.113-1.02.208-2.042.31-3.063l.186-1.914c.01-.05.023-.1.04-.148h4.149c.083 0 .167-.01.248-.016v.164zM49.167 13.09v-1.751h4.791v18.32h-4.783v-2.4l-.037-.022a.998.998 0 0 0-.09.166 4.83 4.83 0 0 1-.837 1.562c-.293.373-.701.64-1.162.756a3.698 3.698 0 0 1-1.892.01c-.897-.23-1.422-.87-1.781-1.67-.438-.978-.62-2.021-.698-3.074a41.672 41.672 0 0 1-.138-3.577c.022-1.814.096-3.627.193-5.44.06-1.122.33-2.208.852-3.218.507-.984 1.302-1.528 2.422-1.593 1.459-.083 2.479.581 3.036 1.79.024.052.056.102.084.154l.04-.013zm.072 6.458V16c0-.719 0-.719-.734-.764-.426-.026-.756.173-.923.564-.05.12-.107.245-.123.373-.072.56-.172 1.12-.187 1.682a131.115 131.115 0 0 0-.041 4.31c.012.668.063 1.335.152 1.997.035.279.15.563.292.81.231.405.713.462 1.038.124.168-.173.292-.383.362-.613.096-.352.149-.714.157-1.079.018-1.286.007-2.571.007-3.857z"/>
        <path d="M54.854 14.971h9.375v5.753h-2.066c.028 4.226.057 8.45.083 12.65H56.87l.075-12.65h-2.092V14.97zM65.62 14.972h5.188v.28c-.013 2.406-.036 4.812-.037 7.215 0 2.094.029 4.188.034 6.282a8.11 8.11 0 0 1-.462 2.803c-.416 1.151-1.252 1.758-2.43 1.927-1.418.203-2.818.042-4.206-.264a.238.238 0 0 1-.054-.023l.218-5.836c.345.051.715.129 1.088.154.374.026.646-.176.75-.531.07-.238.11-.483.116-.73.015-.685.009-1.37.004-2.054-.011-1.679-.009-3.358-.045-5.037-.03-1.358-.107-2.716-.163-4.073v-.113z"/>
    </g>
</svg>
