<svg width="221" height="100" viewBox="0 0 221 100" fill="none" xmlns="http://www.w3.org/2000/svg">
<path fill-rule="evenodd" clip-rule="evenodd" d="M152.302 43.5649C152.307 43.3286 152.296 43.0924 152.252 42.8572C152.053 41.7723 151.477 40.9831 150.444 40.5503C149.969 40.3517 149.468 40.2995 148.959 40.3455C147.77 40.4563 146.901 41.0322 146.449 42.1517C146.094 43.0297 146.098 43.9318 146.4 44.8275C146.678 45.646 147.228 46.2198 148.038 46.5345C148.8 46.8313 149.578 46.8407 150.348 46.5721C151.23 46.2637 151.819 45.6502 152.12 44.7669C152.253 44.3781 152.313 43.9767 152.302 43.5649V43.5649ZM155.51 44.3676C155.465 45.1829 155.21 45.9355 154.811 46.6411C154.162 47.7909 153.184 48.5644 151.975 49.0692C150.969 49.4894 149.915 49.6107 148.834 49.5678C147.737 49.526 146.71 49.2438 145.758 48.7013C144.307 47.8755 143.415 46.6317 143.074 45.0052C142.83 43.8481 142.86 42.6889 143.212 41.5559C143.726 39.9044 144.819 38.7703 146.397 38.0814C147.404 37.6403 148.46 37.494 149.551 37.5275C150.568 37.5599 151.534 37.7867 152.442 38.2487C154.177 39.1298 155.175 40.543 155.494 42.4475C155.512 42.5562 155.506 42.6701 155.511 42.7799C155.501 42.8781 155.497 42.9753 155.553 43.0642V44.0426C155.49 44.145 155.504 44.2568 155.511 44.3676" fill="#242424"/>
<mask id="mask0" mask-type="alpha" maskUnits="userSpaceOnUse" x="155" y="43" width="1" height="2">
<path d="M155.108 43.8011H155.553V44.6415H155.108V43.8011Z" fill="white"/>
</mask>
<g mask="url(#mask0)">
<path fill-rule="evenodd" clip-rule="evenodd" d="M155.51 44.3676C155.503 44.2568 155.491 44.145 155.553 44.0436V44.399L155.51 44.3676Z" fill="#4FAE2C"/>
</g>
<mask id="mask1" mask-type="alpha" maskUnits="userSpaceOnUse" x="155" y="42" width="1" height="2">
<path d="M155.108 42.4883H155.553V43.3286H155.108V42.4883Z" fill="white"/>
</mask>
<g mask="url(#mask1)">
<path fill-rule="evenodd" clip-rule="evenodd" d="M155.553 43.0642C155.498 42.9753 155.5 42.876 155.511 42.7809L155.553 42.7537V43.0652V43.0642Z" fill="#4FAE2C"/>
</g>
<path fill-rule="evenodd" clip-rule="evenodd" d="M116.225 54.5432C116.225 54.9801 116.226 55.4171 116.223 55.854C116.223 55.9585 116.238 56.017 116.366 56.0139C116.855 56.0066 117.345 56.0223 117.835 56.0045C118.269 55.9888 118.663 55.8404 118.995 55.5529C119.628 55.0052 119.633 54.1262 119.003 53.5722C118.68 53.2889 118.295 53.1332 117.869 53.1185C117.372 53.1008 116.874 53.1081 116.377 53.1081C116.229 53.1081 116.225 53.1133 116.225 53.2764V54.5432V54.5432ZM120.172 57.6435C120.686 58.6595 121.43 59.3159 122.572 59.4444C122.752 59.4654 122.755 59.4654 122.755 59.643V62.1799C122.755 62.367 122.752 62.3712 122.552 62.367C120.994 62.3283 119.638 61.7942 118.513 60.705C117.837 60.0538 117.326 59.2856 116.956 58.4243C116.895 58.2821 116.826 58.2089 116.665 58.2309C116.556 58.2445 116.442 58.2361 116.33 58.233C116.257 58.2319 116.221 58.2623 116.225 58.3375C116.227 58.3898 116.225 58.442 116.225 58.4943V61.9646C116.225 62.0085 116.221 62.0524 116.225 62.0973C116.236 62.1987 116.202 62.2541 116.089 62.2384C116.052 62.2332 116.015 62.2374 115.977 62.2374H112.967C112.902 62.2374 112.872 62.206 112.875 62.1433V51.0197C112.875 50.9831 112.877 50.9465 112.875 50.9089C112.863 50.8085 112.895 50.75 113.007 50.7657H113.051C114.814 50.7667 116.576 50.7552 118.337 50.774C119.253 50.7845 120.137 50.9758 120.947 51.4252C121.842 51.9217 122.452 52.644 122.701 53.6464C122.837 54.1931 122.849 54.747 122.719 55.2979C122.557 55.994 122.164 56.5344 121.583 56.9442C121.211 57.2055 120.805 57.4062 120.381 57.5672L120.172 57.6435V57.6435ZM111.105 44.4136C110.491 44.6237 109.913 44.7857 109.323 44.9038C108.636 45.0397 107.947 45.139 107.248 45.1662C107.042 45.1735 107.03 45.1233 107.03 45.3857V49.0337C107.03 49.3159 107.056 49.2793 106.776 49.2793C105.833 49.2814 104.889 49.2803 103.945 49.2803C103.908 49.2803 103.87 49.2772 103.834 49.2803C103.725 49.2929 103.661 49.2594 103.677 49.1361C103.682 49.0995 103.677 49.0619 103.677 49.0243C103.677 45.37 103.677 41.7137 103.679 38.0595C103.679 37.7804 103.643 37.8107 103.927 37.8107H106.826C107.044 37.8107 107.03 37.7856 107.03 38.0124L107.031 42.3712C107.032 42.6095 106.972 42.6262 107.291 42.6084C108.542 42.5384 109.761 42.2886 110.955 41.9113C111.102 41.8653 111.106 41.7806 111.106 41.6646C111.104 40.4636 111.104 39.2615 111.106 38.0616C111.106 37.772 111.075 37.8107 111.352 37.8107H114.384C114.439 37.8128 114.465 37.841 114.464 37.8943V49.0399C114.464 49.295 114.494 49.2803 114.227 49.2803H111.218C111.145 49.2835 111.106 49.2542 111.107 49.1779L111.106 49.0002V44.4136H111.105ZM151.99 57.3602C151.667 57.4564 151.373 57.5525 151.073 57.6341C150.103 57.8996 149.115 58.0584 148.11 58.1044C147.923 58.1128 147.922 58.1128 147.922 58.3051V61.9301C147.922 61.975 147.915 62.02 147.922 62.0639C147.94 62.1872 147.879 62.2112 147.768 62.2112C146.75 62.2081 145.733 62.2071 144.714 62.2123C144.589 62.2123 144.56 62.1642 144.572 62.0566C144.576 62.0137 144.572 61.9677 144.572 61.9238V51.0259C144.572 50.981 144.576 50.936 144.572 50.8932C144.552 50.7677 144.615 50.7468 144.724 50.7468C145.734 50.751 146.746 50.75 147.756 50.7489C147.952 50.7489 147.922 50.774 147.922 50.9496V55.2655C147.922 55.554 147.922 55.5509 148.205 55.5373C149.446 55.4808 150.646 55.2206 151.826 54.8474C152.004 54.792 151.99 54.8369 151.99 54.6185V51.0155C151.99 50.9632 151.994 50.9109 151.99 50.8597C151.987 50.7876 152.011 50.7468 152.09 50.75C152.129 50.7521 152.165 50.75 152.202 50.75H155.145C155.355 50.75 155.341 50.7364 155.341 50.9381V62.0147C155.341 62.2332 155.356 62.2102 155.131 62.2112H152.209C151.961 62.2112 151.992 62.2112 151.992 61.998V57.3612L151.99 57.3602ZM142.605 52.7893C141.805 53.2137 141.017 53.6286 140.228 54.0457C140.209 54.0101 140.192 53.9861 140.184 53.9579C140.001 53.3161 139.554 52.9513 138.929 52.7903C138.453 52.667 137.97 52.6628 137.5 52.8165C137.119 52.9419 136.83 53.1698 136.757 53.5931C136.701 53.9035 136.795 54.1648 137.04 54.3655C137.255 54.5432 137.504 54.653 137.775 54.7209C138.408 54.884 139.052 54.9927 139.691 55.1202C140.274 55.2373 140.851 55.3763 141.414 55.5644C142.028 55.7693 142.541 56.1257 142.964 56.6118C143.238 56.9275 143.399 57.2975 143.477 57.7051C143.621 58.4483 143.589 59.179 143.297 59.8876C142.943 60.7448 142.302 61.3301 141.494 61.7492C140.786 62.1161 140.028 62.3105 139.236 62.3848C138.282 62.4757 137.337 62.4339 136.406 62.1935C135.448 61.9458 134.584 61.5214 133.885 60.8033C133.572 60.4793 133.303 60.0841 133.187 59.7612C134.047 59.3054 134.91 58.8497 135.774 58.394C135.797 58.4264 135.816 58.442 135.821 58.4629C136.017 59.2009 136.515 59.6566 137.215 59.9002C137.919 60.1437 138.639 60.1782 139.362 59.9702C139.613 59.8981 139.846 59.78 140.034 59.5939C140.434 59.1967 140.385 58.6082 139.927 58.2842C139.624 58.0699 139.278 57.9602 138.922 57.8818C138.226 57.7313 137.529 57.5891 136.832 57.4365C136.411 57.3445 135.998 57.2254 135.593 57.0822C135.004 56.8752 134.513 56.5282 134.1 56.0641C133.791 55.7171 133.619 55.3031 133.544 54.8484C133.425 54.1094 133.474 53.383 133.769 52.69C134.183 51.7085 134.938 51.0865 135.919 50.7176C136.767 50.3988 137.651 50.3193 138.549 50.38C139.282 50.4291 139.99 50.5827 140.656 50.8984C141.44 51.2695 142.084 51.7984 142.509 52.5687C142.533 52.6137 142.556 52.6607 142.578 52.7077C142.587 52.7276 142.592 52.7496 142.605 52.7893V52.7893ZM115.886 43.5314V38.0595C115.886 37.7731 115.863 37.8138 116.138 37.8138H123.987C124.27 37.8138 124.236 37.7846 124.236 38.0637C124.238 38.7671 124.236 39.4716 124.236 40.1772C124.236 40.38 124.236 40.382 124.031 40.382H119.258C119.092 40.3852 119.09 40.3852 119.089 40.5556V42.1569C119.089 42.344 119.092 42.345 119.29 42.345H123.28C123.335 42.345 123.361 42.3712 123.36 42.4255V44.3613C123.36 44.5443 123.359 44.5464 123.161 44.5464H119.259C119.092 44.5495 119.09 44.5505 119.089 44.722V46.5219C119.089 46.7059 119.092 46.7069 119.291 46.708H123.884C124.183 46.708 124.183 46.708 124.183 46.9996V49.0682C124.183 49.319 124.19 49.2877 123.947 49.2877H116.053C115.89 49.2856 115.887 49.2856 115.887 49.1131V43.5314H115.886ZM124.103 56.4665V50.9946C124.103 50.7176 124.064 50.7489 124.354 50.7489L131.977 50.7479C132.022 50.7479 132.067 50.7531 132.112 50.7479C132.216 50.7364 132.234 50.7897 132.234 50.8785C132.23 51.6416 132.228 52.4057 132.235 53.1698C132.237 53.3056 132.172 53.3056 132.074 53.3056C131.36 53.3046 130.646 53.3056 129.934 53.3056H127.503C127.312 53.3056 127.311 53.3067 127.311 53.499V55.1003C127.311 55.2655 127.312 55.2676 127.482 55.2676L131.316 55.2686C131.622 55.2686 131.586 55.2394 131.588 55.5446V57.2578C131.588 57.495 131.598 57.4773 131.373 57.4773C130.101 57.4773 128.831 57.4752 127.559 57.4773C127.277 57.4773 127.312 57.4365 127.311 57.7239C127.309 58.2863 127.31 58.8497 127.311 59.4131C127.311 59.6535 127.284 59.6295 127.522 59.6295H132.204C132.397 59.6315 132.398 59.6315 132.398 59.8239V62.0252C132.398 62.2071 132.397 62.2092 132.219 62.2092H124.282C124.104 62.2092 124.103 62.2071 124.103 62.0043V56.4665ZM103.678 56.4738V50.9799C103.678 50.7447 103.661 50.7646 103.896 50.7646H110.362L111.612 50.7657C111.769 50.7667 111.772 50.7698 111.772 50.9266C111.774 51.7566 111.774 52.5865 111.772 53.4164C111.772 53.5659 111.768 53.568 111.604 53.568C110.676 53.5701 109.747 53.568 108.817 53.568H107.234C107.006 53.568 107.024 53.5523 107.024 53.7896V55.6146C107.024 55.8247 107.006 55.8216 107.228 55.8216H110.505C110.55 55.8216 110.595 55.8195 110.639 55.8216C110.796 55.8258 110.8 55.8258 110.801 55.9815V58.0501C110.8 58.2382 110.799 58.2403 110.603 58.2403L107.303 58.2414C106.981 58.2414 107.025 58.1954 107.025 58.5257C107.022 59.6608 107.024 60.796 107.024 61.9301C107.024 61.9823 107.02 62.0325 107.024 62.0848C107.03 62.1705 106.994 62.2039 106.908 62.2018C106.746 62.1966 106.582 62.1998 106.418 62.1998C105.593 62.1998 104.768 62.2018 103.943 62.1998C103.638 62.1998 103.679 62.2363 103.679 61.9468C103.677 60.1207 103.678 58.2978 103.678 56.4728V56.4738ZM134.596 43.5408V38.003C134.597 37.8118 134.597 37.8097 134.789 37.8097H137.754C137.953 37.8097 137.946 37.7908 137.946 38.0009V46.2062C137.946 46.2574 137.948 46.3108 137.946 46.362C137.944 46.4383 137.983 46.4686 138.056 46.4665C138.109 46.4644 138.16 46.4665 138.212 46.4665H142.224C142.269 46.4665 142.314 46.4644 142.359 46.4665C142.516 46.4717 142.519 46.4717 142.52 46.6264C142.522 46.9964 142.52 47.3686 142.52 47.7386C142.52 48.1985 142.522 48.6574 142.52 49.1183C142.52 49.2751 142.516 49.2772 142.361 49.2783C142.099 49.2814 141.84 49.2793 141.58 49.2793H134.893C134.833 49.2793 134.774 49.2772 134.715 49.2793C134.631 49.2835 134.589 49.2532 134.596 49.1643C134.599 49.1131 134.596 49.0598 134.596 49.0096V43.5408V43.5408ZM125.521 43.5262V38.0563C125.521 37.771 125.489 37.8107 125.771 37.8107C126.723 37.8086 127.674 37.8107 128.624 37.8107H128.781C128.844 37.8086 128.876 37.8347 128.876 37.9016C128.874 37.9612 128.876 38.0198 128.876 38.0793V46.2188C128.876 46.4843 128.832 46.4675 129.125 46.4675L133.137 46.4686C133.19 46.4686 133.242 46.4728 133.293 46.4686C133.398 46.4581 133.436 46.4958 133.435 46.6045C133.428 46.9912 133.431 47.3759 133.431 47.7616V49.0964C133.431 49.2772 133.429 49.2803 133.251 49.2803H125.739C125.522 49.2793 125.521 49.2793 125.521 49.0629V43.5262" fill="#242424"/>
<mask id="mask2" mask-type="alpha" maskUnits="userSpaceOnUse" x="63" y="35" width="36" height="30">
<path d="M82.1653 35C81.6031 35.0021 81.0408 35.0314 80.4796 35.0899C79.3592 35.2049 78.2619 35.4202 77.1866 35.7484C74.5365 36.5533 72.1816 37.8828 70.1305 39.7413C68.1976 41.4942 66.7223 43.5701 65.7454 45.992C65.2187 47.2964 64.8742 48.649 64.7287 50.0517C64.6428 50.8723 64.624 51.6928 64.6816 52.5154C64.7339 53.2419 64.7276 53.9673 64.6072 54.6885C64.5633 54.9498 64.5151 55.2122 64.468 55.4745C64.4209 55.5414 64.4198 55.6209 64.4167 55.6972C64.3748 55.7202 64.38 55.762 64.3811 55.8017C64.3727 55.8216 64.3664 55.8414 64.3591 55.8623C64.3046 56.0306 64.2303 56.1926 64.1999 56.3682C64.0879 56.6327 63.9748 56.8971 63.8649 57.1616C63.8586 57.1783 63.8554 57.194 63.8513 57.2086C63.7769 57.3236 63.7089 57.4438 63.668 57.5745C63.6209 57.5996 63.6146 57.6476 63.6021 57.6915C63.445 57.9508 63.2639 58.1985 63.1571 58.487C63.1256 58.5466 63.0942 58.6051 63.0963 58.6741C63.0785 58.718 63.0743 58.7608 63.0817 58.8079C63.0524 58.8204 63.0461 58.8727 63 58.8591V59.3943C63.1152 59.4674 63.0838 59.6075 63.1403 59.7078C63.1393 59.7434 63.1529 59.7727 63.178 59.7967L63.1885 59.8458C63.1989 59.897 63.2199 59.943 63.2639 59.9754C63.3078 60.1374 63.4188 60.2535 63.5361 60.3643C63.69 60.5117 63.8303 60.6768 64.0492 60.7364C64.1476 60.8043 64.2565 60.8524 64.3779 60.866C64.3842 60.8785 64.3926 60.8827 64.4052 60.8785C64.4544 60.9099 64.5057 60.9141 64.5612 60.9057C64.6345 60.9507 64.7161 60.9444 64.7988 60.9423C64.9465 60.9413 65.0941 60.9413 65.2428 60.9371C65.7035 60.9266 66.1621 60.9569 66.6176 61.0102L66.6301 61.0207L66.6469 61.0186C67.1568 61.1106 67.6615 61.2172 68.1536 61.374C68.2321 61.4074 68.3086 61.4493 68.3986 61.443C68.4803 61.5109 68.5861 61.5276 68.6813 61.5642C68.9661 61.6688 69.2279 61.8224 69.5117 61.9301H69.5137C69.564 61.9708 69.6122 62.0158 69.6844 62.0137C69.7075 62.0461 69.7368 62.066 69.7776 62.0691C69.8708 62.1506 69.9776 62.2081 70.0896 62.2572C70.0959 62.2781 70.1106 62.2855 70.1336 62.2823C70.254 62.3764 70.3849 62.46 70.5242 62.529C70.5315 62.552 70.5472 62.5645 70.5702 62.5698C70.6854 62.6461 70.7953 62.7318 70.9158 62.7997C71.2016 62.9617 71.4686 63.1593 71.7796 63.2764C71.8424 63.3359 71.9178 63.3746 72.0016 63.3955C72.4884 63.6621 72.9994 63.8722 73.5219 64.0593C73.8611 64.1795 74.1983 64.3174 74.5553 64.3875C74.6035 64.4356 74.6663 64.422 74.726 64.4314C74.8694 64.4899 75.0192 64.5359 75.1741 64.5495C75.1574 64.4659 75.1218 64.4032 75.0715 64.3613C75.1228 64.4032 75.1574 64.4659 75.1741 64.5495L75.2621 64.5704C75.3312 64.6091 75.4087 64.6227 75.4872 64.6258C75.7668 64.6927 76.0453 64.7721 76.3353 64.7805C76.3772 64.8119 76.4243 64.8129 76.4735 64.8077L76.5573 64.8181C77.0138 64.9049 77.4756 64.9488 77.9405 64.9645L77.9426 65H79.6377L79.6367 64.9519V65H80.2168C80.1958 64.9916 80.1885 64.976 80.1979 64.954L80.0608 64.9498L80.199 64.954C80.4796 64.9436 80.7612 64.9279 81.0366 64.8673L81.0492 64.8662L81.112 64.8599C81.1863 64.8631 81.2628 64.8683 81.3298 64.8265C81.3947 64.8317 81.4586 64.8328 81.5214 64.8119C81.7277 64.7794 81.935 64.7565 82.135 64.6927L82.1643 64.6937C82.2051 64.6958 82.246 64.7 82.2701 64.6519L82.3549 64.6404C82.5046 64.6718 82.6344 64.6112 82.7684 64.5641L82.9014 64.5443C82.9454 64.5484 82.9831 64.5275 83.0218 64.5077C83.137 64.5045 83.2459 64.4784 83.3485 64.4241C83.6386 64.3843 83.9087 64.2777 84.1841 64.191C84.2102 64.1931 84.2364 64.1962 84.2364 64.1575L84.2396 64.1648C84.382 64.1492 84.516 64.1042 84.6416 64.0352C84.783 63.9986 84.9243 63.961 85.05 63.8837C85.1254 63.8837 85.1903 63.8617 85.2406 63.8021C85.2856 63.8168 85.3275 63.8 85.3672 63.7833C85.652 63.6652 85.9389 63.5502 86.2185 63.4206C86.4572 63.3109 86.7064 63.2178 86.9284 63.0725C87.0457 63.0475 87.141 62.9795 87.2362 62.9126L87.1745 62.8635L87.1671 62.8238L87.1745 62.8635L87.2362 62.9126C87.3336 62.8928 87.4122 62.8394 87.4865 62.7767C87.4593 62.7736 87.4331 62.7663 87.4142 62.7496C87.4331 62.7673 87.4593 62.7736 87.4865 62.7767C87.5116 62.7736 87.5336 62.7642 87.5483 62.7412C87.6216 62.7234 87.6844 62.691 87.7346 62.6367C87.8017 62.6346 87.8498 62.6001 87.8917 62.5499C87.965 62.529 88.0257 62.4872 88.0833 62.4391L88.0791 62.4339L88.0833 62.4391C88.12 62.4287 88.1545 62.4172 88.1755 62.3827C88.2247 62.3628 88.2749 62.3429 88.3116 62.299C88.5419 62.1684 88.7796 62.0471 88.9712 61.8579L88.9765 61.8538C89.0319 61.8621 89.0644 61.8287 89.0937 61.7911C89.1827 61.7492 89.2613 61.6928 89.3293 61.6238C89.5377 61.5109 89.7167 61.3604 89.8958 61.2088C89.9607 61.1879 90.013 61.1514 90.0455 61.0907C90.1188 61.0646 90.1691 61.0092 90.2266 60.9632C90.7941 60.5054 91.3302 60.0162 91.837 59.4936C93.6631 57.61 95.0096 55.4348 95.8137 52.9356C96.3875 51.1534 96.6273 49.3253 96.487 47.4574C96.4032 46.3348 96.5121 45.2415 96.8116 44.1596C96.8713 43.9464 96.9739 43.7467 97.0042 43.5251L97.0001 43.5189C97.0943 43.3997 97.1372 43.2576 97.1728 43.1133C97.2095 43.0893 97.2158 43.0506 97.2168 43.0119C97.2922 42.921 97.332 42.8133 97.3592 42.7015L97.3623 42.7004C97.444 42.5823 97.5152 42.459 97.5655 42.3241C97.6178 42.2719 97.644 42.2092 97.6597 42.1391C97.7152 42.09 97.7539 42.0283 97.778 41.9572L97.8063 41.9071C97.8482 41.8705 97.8723 41.8255 97.8827 41.7722C97.9832 41.6426 98.0492 41.4984 98.0607 41.3332C98.134 41.1085 98.178 40.8838 98.1026 40.6517C98.1068 40.5775 98.1162 40.5033 98.0681 40.4385C98.0722 40.404 98.066 40.3716 98.0429 40.3434C98.0063 40.1918 97.955 40.0476 97.8492 39.9274C97.7183 39.6765 97.5246 39.4863 97.2754 39.3514H97.2692C97.2346 39.3012 97.1812 39.2814 97.1236 39.2678C97.0713 39.226 97.0168 39.1884 96.9456 39.1884C96.8451 39.1298 96.7414 39.0922 96.6231 39.1058C96.5886 39.0911 96.553 39.0964 96.5184 39.1016C96.4975 39.1037 96.4765 39.1068 96.4566 39.1047C96.4462 39.0838 96.4336 39.065 96.4043 39.0734L96.308 39.0682L96.2368 39.0723C96.2263 39.0974 96.2148 39.1225 96.2053 39.1486C96.2148 39.1225 96.2263 39.0974 96.2368 39.0723L96.1352 39.0744L96.0074 39.0765C95.9792 39.0661 95.9499 39.0671 95.9216 39.0807C95.7436 39.0661 95.5656 39.0619 95.3876 39.0702L95.2934 39.0671L95.0295 39.0525C95.0295 39.0692 95.0284 39.087 95.0264 39.1026C95.0284 39.087 95.0295 39.0692 95.0295 39.0525C94.8724 39.0002 94.7049 39.019 94.5437 38.9845L93.7332 38.8424L93.6547 38.8215C93.6526 38.8319 93.6495 38.8392 93.6442 38.8476C93.6495 38.8392 93.6526 38.8309 93.6547 38.8215L93.2861 38.719L92.6642 38.5204C92.5385 38.4629 92.416 38.396 92.2852 38.3532C92.1909 38.3218 92.1103 38.2403 91.9983 38.2643L91.9511 38.2549C91.9491 38.2319 91.9417 38.2131 91.9155 38.2069C91.8642 38.1588 91.8014 38.1316 91.7334 38.1149L91.147 37.7888C91.036 37.7145 90.9303 37.6299 90.8025 37.5797C90.7114 37.5097 90.6319 37.4281 90.5219 37.3863C90.4664 37.3445 90.4203 37.2839 90.3429 37.2787C90.2832 37.2097 90.2057 37.1689 90.1209 37.1407C89.7398 36.8752 89.322 36.6724 88.9042 36.4738C88.6205 36.34 88.3409 36.1885 88.032 36.1111L88.0299 36.1184C88.0257 36.085 88.0027 36.0808 87.9765 36.0829C87.5891 35.9062 87.186 35.7735 86.7745 35.6711C86.7661 35.6585 86.7525 35.6533 86.7378 35.6554C86.6824 35.6345 86.629 35.6104 86.5714 35.5958C85.6175 35.3303 84.6458 35.1484 83.6605 35.0627C83.1998 35.023 82.7391 35.0021 82.2784 35H82.1653V35ZM81.2994 64.6739C81.3225 64.7052 81.3319 64.7429 81.3329 64.7847C81.3329 64.7429 81.3225 64.7052 81.2994 64.6739Z" fill="white"/>
</mask>
<g mask="url(#mask2)">
<path fill-rule="evenodd" clip-rule="evenodd" d="M82.1653 35C81.6031 35.0021 81.0408 35.0314 80.4796 35.0899C79.3592 35.2049 78.2619 35.4202 77.1866 35.7484C74.5365 36.5533 72.1816 37.8828 70.1305 39.7413C68.1976 41.4942 66.7223 43.5701 65.7454 45.992C65.2187 47.2964 64.8742 48.649 64.7287 50.0517C64.6428 50.8723 64.624 51.6928 64.6816 52.5154C64.7339 53.2419 64.7276 53.9673 64.6072 54.6885C64.5633 54.9498 64.5151 55.2122 64.468 55.4745C64.4209 55.5414 64.4198 55.6209 64.4167 55.6972C64.3748 55.7202 64.38 55.762 64.3811 55.8017C64.3727 55.8216 64.3664 55.8414 64.3591 55.8623C64.3046 56.0306 64.2303 56.1926 64.1999 56.3682C64.0879 56.6327 63.9748 56.8971 63.8649 57.1616C63.8586 57.1783 63.8554 57.194 63.8513 57.2086C63.7769 57.3236 63.7089 57.4438 63.668 57.5745C63.6209 57.5996 63.6146 57.6476 63.6021 57.6915C63.445 57.9508 63.2639 58.1985 63.1571 58.487C63.1256 58.5466 63.0942 58.6051 63.0963 58.6741C63.0785 58.718 63.0743 58.7608 63.0817 58.8079C63.0524 58.8204 63.0461 58.8727 63 58.8591V59.3943C63.1152 59.4674 63.0838 59.6075 63.1403 59.7078C63.1393 59.7434 63.1529 59.7727 63.178 59.7967L63.1885 59.8458C63.1989 59.897 63.2199 59.943 63.2639 59.9754C63.3078 60.1374 63.4188 60.2535 63.5361 60.3643C63.69 60.5117 63.8303 60.6768 64.0492 60.7364C64.1476 60.8043 64.2565 60.8524 64.3779 60.866C64.3842 60.8785 64.3926 60.8827 64.4052 60.8785C64.4544 60.9099 64.5057 60.9141 64.5612 60.9057C64.6345 60.9507 64.7161 60.9444 64.7988 60.9423C64.9465 60.9413 65.0941 60.9413 65.2428 60.9371C65.7035 60.9266 66.1621 60.9569 66.6176 61.0102L66.6301 61.0207L66.6469 61.0186C67.1568 61.1106 67.6615 61.2172 68.1536 61.374C68.2321 61.4074 68.3086 61.4493 68.3986 61.443C68.4803 61.5109 68.5861 61.5276 68.6813 61.5642C68.9661 61.6688 69.2279 61.8224 69.5117 61.9301H69.5137C69.564 61.9708 69.6122 62.0158 69.6844 62.0137C69.7075 62.0461 69.7368 62.066 69.7776 62.0691C69.8708 62.1506 69.9776 62.2081 70.0896 62.2572C70.0959 62.2781 70.1106 62.2855 70.1336 62.2823C70.254 62.3764 70.3849 62.46 70.5242 62.529C70.5315 62.552 70.5472 62.5645 70.5702 62.5698C70.6854 62.6461 70.7953 62.7318 70.9158 62.7997C71.2016 62.9617 71.4686 63.1593 71.7796 63.2764C71.8424 63.3359 71.9178 63.3746 72.0016 63.3955C72.4884 63.6621 72.9994 63.8722 73.5219 64.0593C73.8611 64.1795 74.1983 64.3174 74.5553 64.3875C74.6035 64.4356 74.6663 64.422 74.726 64.4314C74.8694 64.4899 75.0192 64.5359 75.1741 64.5495C75.1574 64.4659 75.1218 64.4032 75.0715 64.3613C75.1228 64.4032 75.1574 64.4659 75.1741 64.5495L75.2621 64.5704C75.3312 64.6091 75.4087 64.6227 75.4872 64.6258C75.7668 64.6927 76.0453 64.7721 76.3353 64.7805C76.3772 64.8119 76.4243 64.8129 76.4735 64.8077L76.5573 64.8181C77.0138 64.9049 77.4756 64.9488 77.9405 64.9645L77.9426 65H79.6377L79.6367 64.9519V65H80.2168C80.1958 64.9916 80.1885 64.976 80.1979 64.954L80.0608 64.9498L80.199 64.954C80.4796 64.9436 80.7612 64.9279 81.0366 64.8673L81.0492 64.8662L81.112 64.8599C81.1863 64.8631 81.2628 64.8683 81.3298 64.8265C81.3947 64.8317 81.4586 64.8328 81.5214 64.8119C81.7277 64.7794 81.935 64.7565 82.135 64.6927L82.1643 64.6937C82.2051 64.6958 82.246 64.7 82.2701 64.6519L82.3549 64.6404C82.5046 64.6718 82.6344 64.6112 82.7684 64.5641L82.9014 64.5443C82.9454 64.5484 82.9831 64.5275 83.0218 64.5077C83.137 64.5045 83.2459 64.4784 83.3485 64.4241C83.6386 64.3843 83.9087 64.2777 84.1841 64.191C84.2102 64.1931 84.2364 64.1962 84.2364 64.1575L84.2396 64.1648C84.382 64.1492 84.516 64.1042 84.6416 64.0352C84.783 63.9986 84.9243 63.961 85.05 63.8837C85.1254 63.8837 85.1903 63.8617 85.2406 63.8021C85.2856 63.8168 85.3275 63.8 85.3672 63.7833C85.652 63.6652 85.9389 63.5502 86.2185 63.4206C86.4572 63.3109 86.7064 63.2178 86.9284 63.0725C87.0457 63.0475 87.141 62.9795 87.2362 62.9126L87.1745 62.8635L87.1671 62.8238L87.1745 62.8635L87.2362 62.9126C87.3336 62.8928 87.4122 62.8394 87.4865 62.7767C87.4593 62.7736 87.4331 62.7663 87.4142 62.7496C87.4331 62.7673 87.4593 62.7736 87.4865 62.7767C87.5116 62.7736 87.5336 62.7642 87.5483 62.7412C87.6216 62.7234 87.6844 62.691 87.7346 62.6367C87.8017 62.6346 87.8498 62.6001 87.8917 62.5499C87.965 62.529 88.0257 62.4872 88.0833 62.4391L88.0791 62.4339L88.0833 62.4391C88.12 62.4287 88.1545 62.4172 88.1755 62.3827C88.2247 62.3628 88.2749 62.3429 88.3116 62.299C88.5419 62.1684 88.7796 62.0471 88.9712 61.8579L88.9765 61.8538C89.0319 61.8621 89.0644 61.8287 89.0937 61.7911C89.1827 61.7492 89.2613 61.6928 89.3293 61.6238C89.5377 61.5109 89.7167 61.3604 89.8958 61.2088C89.9607 61.1879 90.013 61.1514 90.0455 61.0907C90.1188 61.0646 90.1691 61.0092 90.2266 60.9632C90.7941 60.5054 91.3302 60.0162 91.837 59.4936C93.6631 57.61 95.0096 55.4348 95.8137 52.9356C96.3875 51.1534 96.6273 49.3253 96.487 47.4574C96.4032 46.3348 96.5121 45.2415 96.8116 44.1596C96.8713 43.9464 96.9739 43.7467 97.0042 43.5251L97.0001 43.5189C97.0943 43.3997 97.1372 43.2576 97.1728 43.1133C97.2095 43.0893 97.2158 43.0506 97.2168 43.0119C97.2922 42.921 97.332 42.8133 97.3592 42.7015L97.3623 42.7004C97.444 42.5823 97.5152 42.459 97.5655 42.3241C97.6178 42.2719 97.644 42.2092 97.6597 42.1391C97.7152 42.09 97.7539 42.0283 97.778 41.9572L97.8063 41.9071C97.8482 41.8705 97.8723 41.8255 97.8827 41.7722C97.9832 41.6426 98.0492 41.4984 98.0607 41.3332C98.134 41.1085 98.178 40.8838 98.1026 40.6517C98.1068 40.5775 98.1162 40.5033 98.0681 40.4385C98.0722 40.404 98.066 40.3716 98.0429 40.3434C98.0063 40.1918 97.955 40.0476 97.8492 39.9274C97.7183 39.6765 97.5246 39.4863 97.2754 39.3514H97.2692C97.2346 39.3012 97.1812 39.2814 97.1236 39.2678C97.0713 39.226 97.0168 39.1884 96.9456 39.1884C96.8451 39.1298 96.7414 39.0922 96.6231 39.1058C96.5886 39.0911 96.553 39.0964 96.5184 39.1016C96.4975 39.1037 96.4765 39.1068 96.4566 39.1047C96.4462 39.0838 96.4336 39.065 96.4043 39.0734L96.308 39.0682L96.2368 39.0723C96.2263 39.0974 96.2148 39.1225 96.2053 39.1486C96.2148 39.1225 96.2263 39.0974 96.2368 39.0723L96.1352 39.0744L96.0074 39.0765C95.9792 39.0661 95.9499 39.0671 95.9216 39.0807C95.7436 39.0661 95.5656 39.0619 95.3876 39.0702L95.2934 39.0671L95.0295 39.0525C95.0295 39.0692 95.0284 39.087 95.0264 39.1026C95.0284 39.087 95.0295 39.0692 95.0295 39.0525C94.8724 39.0002 94.7049 39.019 94.5437 38.9845L93.7332 38.8424L93.6547 38.8215C93.6526 38.8319 93.6495 38.8392 93.6442 38.8476C93.6495 38.8392 93.6526 38.8309 93.6547 38.8215L93.2861 38.719L92.6642 38.5204C92.5385 38.4629 92.416 38.396 92.2852 38.3532C92.1909 38.3218 92.1103 38.2403 91.9983 38.2643L91.9511 38.2549C91.9491 38.2319 91.9417 38.2131 91.9155 38.2069C91.8642 38.1588 91.8014 38.1316 91.7334 38.1149L91.147 37.7888C91.036 37.7145 90.9303 37.6299 90.8025 37.5797C90.7114 37.5097 90.6319 37.4281 90.5219 37.3863C90.4664 37.3445 90.4203 37.2839 90.3429 37.2787C90.2832 37.2097 90.2057 37.1689 90.1209 37.1407C89.7398 36.8752 89.322 36.6724 88.9042 36.4738C88.6205 36.34 88.3409 36.1885 88.032 36.1111L88.0299 36.1184C88.0257 36.085 88.0027 36.0808 87.9765 36.0829C87.5891 35.9062 87.186 35.7735 86.7745 35.6711C86.7661 35.6585 86.7525 35.6533 86.7378 35.6554C86.6824 35.6345 86.629 35.6104 86.5714 35.5958C85.6175 35.3303 84.6458 35.1484 83.6605 35.0627C83.1998 35.023 82.7391 35.0021 82.2784 35H82.1653V35ZM81.2994 64.6739C81.3225 64.7052 81.3319 64.7429 81.3329 64.7847C81.3329 64.7429 81.3225 64.7052 81.2994 64.6739Z" fill="url(#paint0_linear)"/>
</g>
<mask id="mask3" mask-type="alpha" maskUnits="userSpaceOnUse" x="65" y="35" width="34" height="12">
<path d="M82.1653 35C81.6031 35.0021 81.0408 35.0314 80.4796 35.0899C79.3592 35.2049 78.2619 35.4202 77.1866 35.7484C74.5365 36.5533 72.1816 37.8828 70.1305 39.7413C68.1976 41.4942 66.7223 43.5701 65.7454 45.992C65.6417 46.248 65.5464 46.5062 65.4564 46.7654H96.4598C96.4566 45.8843 96.5739 45.0178 96.8116 44.1596C96.8702 43.9464 96.9739 43.7467 97.0032 43.5251L96.999 43.5189C97.0943 43.3997 97.1372 43.2576 97.1728 43.1133C97.2084 43.0893 97.2147 43.0506 97.2168 43.0119C97.2922 42.921 97.332 42.8133 97.3592 42.7015L97.3623 42.7004C97.444 42.5823 97.5152 42.459 97.5644 42.3241C97.6168 42.2719 97.644 42.2092 97.6597 42.1391C97.7152 42.09 97.7539 42.0283 97.778 41.9572L97.8063 41.9071C97.8482 41.8705 97.8723 41.8255 97.8827 41.7722C97.9832 41.6426 98.0482 41.4984 98.0607 41.3332C98.134 41.1085 98.1769 40.8838 98.1026 40.6517C98.1068 40.5775 98.1162 40.5033 98.0681 40.4385C98.0722 40.404 98.0649 40.3716 98.0429 40.3434C98.0063 40.1918 97.9539 40.0476 97.8492 39.9274C97.7183 39.6765 97.5236 39.4863 97.2754 39.3514H97.2691C97.2346 39.3012 97.1812 39.2814 97.1236 39.2678C97.0713 39.226 97.0158 39.1884 96.9456 39.1884C96.8451 39.1298 96.7414 39.0922 96.6231 39.1058C96.5875 39.0911 96.553 39.0964 96.5184 39.1016C96.4975 39.1037 96.4765 39.1068 96.4566 39.1047C96.4462 39.0838 96.4336 39.065 96.4043 39.0734L96.3079 39.0682L96.2367 39.0723C96.2263 39.0974 96.2148 39.1225 96.2053 39.1486C96.2148 39.1225 96.2263 39.0974 96.2367 39.0723L96.1352 39.0744L96.0074 39.0765C95.9792 39.0661 95.9499 39.0671 95.9216 39.0807C95.7436 39.0661 95.5656 39.0619 95.3876 39.0702L95.2933 39.0671L95.0295 39.0525C95.0295 39.0692 95.0284 39.087 95.0263 39.1026C95.0284 39.087 95.0284 39.0692 95.0295 39.0525C94.8724 39.0002 94.7049 39.019 94.5437 38.9845L93.7332 38.8424L93.6537 38.8215C93.6526 38.8319 93.6495 38.8392 93.6453 38.8476C93.6495 38.8392 93.6526 38.8309 93.6537 38.8215L93.2872 38.719L92.6642 38.5204C92.5375 38.4629 92.416 38.396 92.2852 38.3532C92.1909 38.3218 92.1103 38.2403 91.9983 38.2643L91.9511 38.2549C91.949 38.2319 91.9417 38.2131 91.9155 38.2069C91.8642 38.1588 91.8004 38.1316 91.7334 38.1149L91.147 37.7888C91.036 37.7145 90.9292 37.6299 90.8025 37.5797C90.7114 37.5097 90.6318 37.4281 90.5219 37.3863C90.4664 37.3445 90.4203 37.2839 90.3429 37.2787C90.2821 37.2097 90.2057 37.1689 90.1209 37.1407C89.7387 36.8752 89.322 36.6724 88.9042 36.4738C88.6204 36.34 88.3409 36.1885 88.032 36.1111L88.0299 36.1184C88.0247 36.085 88.0027 36.0808 87.9765 36.0829C87.5891 35.9062 87.186 35.7735 86.7745 35.6711C86.7661 35.6585 86.7525 35.6533 86.7378 35.6554C86.6823 35.6345 86.6289 35.6104 86.5703 35.5958C85.6175 35.3303 84.6458 35.1484 83.6605 35.0627C83.1998 35.023 82.7391 35.0021 82.2784 35H82.1653V35Z" fill="white"/>
</mask>
<g mask="url(#mask3)">
<path fill-rule="evenodd" clip-rule="evenodd" d="M82.1653 35C81.6031 35.0021 81.0408 35.0314 80.4796 35.0899C79.3592 35.2049 78.2619 35.4202 77.1866 35.7484C74.5365 36.5533 72.1816 37.8828 70.1305 39.7413C68.1976 41.4942 66.7223 43.5701 65.7454 45.992C65.6417 46.248 65.5464 46.5062 65.4564 46.7654H96.4598C96.4566 45.8843 96.5739 45.0178 96.8116 44.1596C96.8702 43.9464 96.9739 43.7467 97.0032 43.5251L96.999 43.5189C97.0943 43.3997 97.1372 43.2576 97.1728 43.1133C97.2084 43.0893 97.2147 43.0506 97.2168 43.0119C97.2922 42.921 97.332 42.8133 97.3592 42.7015L97.3623 42.7004C97.444 42.5823 97.5152 42.459 97.5644 42.3241C97.6168 42.2719 97.644 42.2092 97.6597 42.1391C97.7152 42.09 97.7539 42.0283 97.778 41.9572L97.8063 41.9071C97.8482 41.8705 97.8723 41.8255 97.8827 41.7722C97.9832 41.6426 98.0482 41.4984 98.0607 41.3332C98.134 41.1085 98.1769 40.8838 98.1026 40.6517C98.1068 40.5775 98.1162 40.5033 98.0681 40.4385C98.0722 40.404 98.0649 40.3716 98.0429 40.3434C98.0063 40.1918 97.9539 40.0476 97.8492 39.9274C97.7183 39.6765 97.5236 39.4863 97.2754 39.3514H97.2691C97.2346 39.3012 97.1812 39.2814 97.1236 39.2678C97.0713 39.226 97.0158 39.1884 96.9456 39.1884C96.8451 39.1298 96.7414 39.0922 96.6231 39.1058C96.5875 39.0911 96.553 39.0964 96.5184 39.1016C96.4975 39.1037 96.4765 39.1068 96.4566 39.1047C96.4462 39.0838 96.4336 39.065 96.4043 39.0734L96.3079 39.0682L96.2367 39.0723C96.2263 39.0974 96.2148 39.1225 96.2053 39.1486C96.2148 39.1225 96.2263 39.0974 96.2367 39.0723L96.1352 39.0744L96.0074 39.0765C95.9792 39.0661 95.9499 39.0671 95.9216 39.0807C95.7436 39.0661 95.5656 39.0619 95.3876 39.0702L95.2933 39.0671L95.0295 39.0525C95.0295 39.0692 95.0284 39.087 95.0263 39.1026C95.0284 39.087 95.0284 39.0692 95.0295 39.0525C94.8724 39.0002 94.7049 39.019 94.5437 38.9845L93.7332 38.8424L93.6537 38.8215C93.6526 38.8319 93.6495 38.8392 93.6453 38.8476C93.6495 38.8392 93.6526 38.8309 93.6537 38.8215L93.2872 38.719L92.6642 38.5204C92.5375 38.4629 92.416 38.396 92.2852 38.3532C92.1909 38.3218 92.1103 38.2403 91.9983 38.2643L91.9511 38.2549C91.949 38.2319 91.9417 38.2131 91.9155 38.2069C91.8642 38.1588 91.8004 38.1316 91.7334 38.1149L91.147 37.7888C91.036 37.7145 90.9292 37.6299 90.8025 37.5797C90.7114 37.5097 90.6318 37.4281 90.5219 37.3863C90.4664 37.3445 90.4203 37.2839 90.3429 37.2787C90.2821 37.2097 90.2057 37.1689 90.1209 37.1407C89.7387 36.8752 89.322 36.6724 88.9042 36.4738C88.6204 36.34 88.3409 36.1885 88.032 36.1111L88.0299 36.1184C88.0247 36.085 88.0027 36.0808 87.9765 36.0829C87.5891 35.9062 87.186 35.7735 86.7745 35.6711C86.7661 35.6585 86.7525 35.6533 86.7378 35.6554C86.6823 35.6345 86.6289 35.6104 86.5703 35.5958C85.6175 35.3303 84.6458 35.1484 83.6605 35.0627C83.1998 35.023 82.7391 35.0021 82.2784 35H82.1653V35Z" fill="url(#paint1_linear)"/>
</g>
<defs>
<linearGradient id="paint0_linear" x1="76.2699" y1="51.2534" x2="71.731" y2="64.9381" gradientUnits="userSpaceOnUse">
<stop stop-color="#96DC14"/>
<stop offset="0.625" stop-color="#6CBF24"/>
<stop offset="1" stop-color="#057D46"/>
</linearGradient>
<linearGradient id="paint1_linear" x1="96.5058" y1="38.3417" x2="93.2334" y2="43.9889" gradientUnits="userSpaceOnUse">
<stop stop-color="#069553"/>
<stop offset="0.35738" stop-color="#6CBF24"/>
<stop offset="1" stop-color="#96DC14"/>
</linearGradient>
</defs>
</svg>
