<svg xmlns="http://www.w3.org/2000/svg" width="221" height="100" viewBox="0 0 221 100">
    <defs>
        <linearGradient id="3g88ahde6a" x1="-13.615%" x2="49.306%" y1="24.467%" y2="-9.038%">
            <stop offset="0%" stop-color="#FCC85D"/>
            <stop offset="26%" stop-color="#FBC241"/>
            <stop offset="59%" stop-color="#F8B500"/>
            <stop offset="84%" stop-color="#F8AF05"/>
            <stop offset="92%" stop-color="#F8A111"/>
            <stop offset="100%" stop-color="#F7931D"/>
        </linearGradient>
        <linearGradient id="qvn5vq1xgb" x1="-37.91%" x2="48.587%" y1="61.506%" y2="-7.545%">
            <stop offset="0%" stop-color="#6100F6"/>
            <stop offset="63.769%" stop-color="#865CF3"/>
        </linearGradient>
        <radialGradient id="raudxhurac" cx="72.715%" cy="14.155%" r="3.009%" fx="72.715%" fy="14.155%" gradientTransform="matrix(1 0 0 .65239 0 .05)">
            <stop offset="0%" stop-color="#FF9CDB"/>
            <stop offset="14.035%" stop-color="#ED7EC5"/>
            <stop offset="49.718%" stop-color="#E71E93"/>
        </radialGradient>
    </defs>
    <g fill="none" fill-rule="evenodd">
        <g fill-rule="nonzero">
            <g>
                <g>
                    <g>
                        <g>
                            <path fill="url(#3g88ahde6a)" d="M15.9.747l.007-.002c3.223-.819 6.073-.326 7.84 1.662 1.462 1.645 1.973 4.076 1.641 6.871-.17 1.397-.547 2.889-1.124 4.423-.48 1.28-1.052 2.614-1.804 3.923-.723 1.26-1.3 2.198-2.167 3.282-1.293 1.615-2.592 2.749-3.89 3.427-2.814 1.47-8.082.886-6.839-.469l.008-.008c1-1.066 1.962-2.169 2.881-3.305l-.001.002c1.565-1.94 2.768-3.722 3.667-5.325l.006-.011c1.07-1.914 1.704-3.573 1.992-4.946.075-.35.136-.697.188-1.036l.023-.214c.046-.795-.056-1.451-.28-1.958-1.115-2.528-6.723-.212-10.852 4.2-1.339 1.43-2.014 2.254-4.136 2.69-2.243.46-3.06-.288-3.06-.288 1.09-1.835 2.454-3.633 4.04-5.328 2.42-2.585 5.066-4.663 8.16-6.175.57-.278 1.155-.538 1.758-.778.633-.254 1.282-.466 1.943-.636z" transform="translate(-97 -2174) translate(97 1685) translate(0 189) translate(0 300) translate(47 36)"/>
                            <path fill="url(#qvn5vq1xgb)" d="M25.373 9.355c-.17 1.376-.544 2.84-1.11 4.346-.48 1.28-1.052 2.614-1.804 3.923-.723 1.26-1.298 2.198-2.166 3.282-1.293 1.615-2.592 2.75-3.89 3.427-2.815 1.47-8.082.886-6.839-.469l.008-.008c.974-1.039 1.91-2.112 2.808-3.217 4.048-2.008 9.4-5.275 12.993-11.284z" transform="translate(-97 -2174) translate(97 1685) translate(0 189) translate(0 300) translate(47 36)"/>
                            <path fill="url(#raudxhurac)" d="M12.452 20.552l-.072.087c4.05-2.009 9.416-5.283 12.993-11.284l.015-.077c.855-2.89.57-5.554-1.383-7.11C22.707-.114 19.02-.439 16.066.473c.086.02.176.045.27.074l-.108.027-.236.06-.162.04c-.636.16-1.245.39-1.895.653l-.58.258c4.217-.36 5.893 3.39 4.981 7.607-.052.24-.092.443-.13.638-.03.147-.058.29-.09.44-.109.524-.27 1.09-.5 1.703-.334.975-.83 2.061-1.492 3.244l-.006.011c-.892 1.594-2.087 3.363-3.666 5.324z" transform="translate(-97 -2174) translate(97 1685) translate(0 189) translate(0 300) translate(47 36)"/>
                            <path fill="#666777" d="M41.136 24.836c-.294 0-.578-.047-.85-.14-.268-.095-.476-.218-.623-.371l.164-.321c.144.143.335.259.573.348.238.086.483.13.737.13.354 0 .62-.064.798-.191.178-.132.266-.3.266-.505 0-.158-.05-.283-.147-.378-.1-.097-.22-.17-.352-.213-.19-.068-.385-.124-.583-.169-.242-.058-.48-.129-.714-.213-.176-.07-.333-.18-.459-.32-.124-.143-.187-.336-.187-.58 0-.198.053-.377.159-.538.106-.165.268-.297.487-.394.22-.098.492-.146.816-.146.227 0 .448.032.663.096.22.06.408.144.567.252l-.142.332c-.164-.108-.344-.19-.533-.242-.18-.055-.366-.083-.554-.084-.348 0-.61.067-.789.202-.166.117-.264.309-.26.512 0 .157.047.284.142.382.097.094.218.166.362.219.147.048.344.103.59.163.29.07.525.142.702.213.182.067.334.172.459.315.125.138.187.328.187.568 0 .198-.055.38-.164.545-.106.16-.27.29-.494.387-.222.094-.496.141-.821.141zm10.132 0c-.392 0-.75-.086-1.07-.259-.31-.168-.568-.417-.748-.72-.18-.31-.272-.663-.267-1.022 0-.378.089-.72.267-1.022.181-.304.43-.541.748-.715.328-.177.697-.268 1.07-.263.37-.006.735.083 1.06.259.318.172.567.411.748.719.181.303.272.644.272 1.022s-.09.721-.272 1.029c-.181.303-.43.54-.748.713-.325.175-.69.264-1.06.258v.001zm0-.37c.314 0 .597-.07.85-.21.254-.141.452-.336.596-.584.143-.25.215-.53.215-.837 0-.307-.072-.584-.215-.831-.14-.247-.346-.45-.595-.585-.26-.144-.553-.218-.85-.213-.3-.004-.594.07-.856.213-.25.136-.458.339-.6.585-.146.253-.22.54-.216.831 0 .308.072.587.215.837.148.248.348.442.601.585.257.138.542.208.855.208zm9.445-3.238v1.545h2.051v.36h-2.05v1.669h-.42v-3.933h2.72v.36h-2.3zm9.972 0H69.29v-.36h3.207v.36h-1.394v3.574h-.419v-3.573h.001zm13.906-.36l-1.337 3.934h-.442l-1.162-3.355-1.166 3.355h-.437l-1.337-3.933h.43l1.145 3.382 1.184-3.382h.391l1.168 3.399 1.161-3.4h.402zm9.141 2.883h-2.21l-.476 1.051h-.436l1.813-3.933h.414l1.813 3.933h-.442l-.476-1.05zm-.153-.337l-.952-2.113-.952 2.113h1.904zm10.442 1.388l-.906-1.264c-.103.011-.208.016-.318.016h-1.065v1.248h-.42v-3.933h1.485c.506 0 .903.12 1.19.36.287.24.43.569.43.988 0 .307-.079.568-.237.782-.156.208-.378.36-.67.454l.97 1.349h-.46zm-1.235-1.601c.392 0 .693-.087.9-.26.208-.172.312-.413.312-.724 0-.318-.104-.561-.311-.73-.208-.172-.509-.259-.901-.259h-1.054v1.973h1.054zm11.432 1.241v.36h-2.805v-3.933h2.72v.36h-2.3v1.398h2.051v.355h-2.051v1.46h2.385zm-80.397-7.607H31.56V6.665h2.262v.892c.373-.325.825-.595 1.352-.806.55-.217 1.136-.325 1.727-.318.404 0 .863.056 1.376.17.513.113.99.325 1.434.636.443.311.816.743 1.12 1.295.302.553.455 1.267.455 2.144v6.156h-2.148v-6.177c0-.439-.074-.81-.221-1.115-.134-.286-.334-.537-.583-.732-.242-.184-.52-.318-.816-.392-.309-.08-.626-.119-.945-.118-.288.006-.574.05-.851.128-.321.086-.625.226-.898.414-.282.193-.523.438-.711.722-.195.29-.29.647-.29 1.071v6.199zm32.585 0h-2.772l-2.89-3.649-2.912 3.649H55.06l4.299-5.386-3.993-5.016h2.772l2.606 3.257 2.584-3.257H66.1l-3.97 5.016 4.276 5.386zm8.865-.36c-.672.191-1.335.307-1.99.349-.654.041-1.244-.038-1.768-.237-.523-.2-.949-.548-1.276-1.049-.328-.5-.492-1.202-.492-2.107V8.433h-1.719V6.664h1.72v-2.27l2.382-.362v2.632h3.192v1.77h-3.192v5.305c0 .329.044.59.135.782.09.191.24.335.454.431.212.096.491.144.834.144.345 0 .762-.027 1.253-.082l.467 1.46zm3.963.103H76.94V2.806l2.294-.374v5.037c.442-.427.964-.764 1.536-.992.583-.235 1.26-.352 2.032-.352.788 0 1.517.138 2.187.416.669.278 1.248.658 1.737 1.14.491.489.881 1.069 1.147 1.708.275.654.413 1.351.413 2.09.004.718-.136 1.43-.413 2.092-.266.638-.655 1.218-1.147 1.706-.498.49-1.089.878-1.737 1.141-.67.278-1.399.416-2.187.416-.74 0-1.406-.117-1.997-.352-.578-.227-1.11-.555-1.571-.97v1.066zm3.38-8.576c-.458 0-.891.06-1.3.181-.4.115-.768.32-1.077.598-.306.277-.547.636-.72 1.077-.173.44-.26.982-.26 1.621 0 .598.087 1.117.26 1.557.174.442.414.808.72 1.1.308.291.666.507 1.077.65.409.142.842.214 1.3.214.456 0 .89-.093 1.3-.278.4-.179.762-.436 1.063-.757.303-.327.544-.706.71-1.12.174-.434.262-.898.259-1.366.006-.918-.341-1.803-.97-2.475-.3-.314-.662-.564-1.063-.735-.41-.178-.852-.269-1.3-.267zm18.638-1.342v9.925H98.96v-1.138c-.394.454-.898.8-1.513 1.035-.614.235-1.237.352-1.867.352-.788 0-1.524-.135-2.21-.404-.662-.255-1.272-.631-1.796-1.109-.511-.467-.924-1.03-1.217-1.657-.3-.635-.453-1.329-.45-2.03 0-.719.15-1.395.45-2.031.293-.627.706-1.19 1.217-1.658.525-.477 1.134-.853 1.797-1.108.685-.27 1.421-.404 2.209-.404.63 0 1.237.107 1.82.32.588.218 1.12.56 1.56 1.006l-.047-1.099h2.34zm-5.673 8.392c.458 0 .89-.09 1.3-.27.4-.172.762-.422 1.064-.735.3-.31.535-.674.71-1.087.173-.42.262-.872.259-1.326 0-.47-.087-.913-.26-1.326-.166-.404-.407-.773-.71-1.089-.302-.313-.663-.563-1.063-.735-.41-.18-.853-.272-1.3-.27-.892.003-1.745.365-2.364 1.005-.623.65-.97 1.515-.968 2.415 0 .469.086.91.26 1.326.166.403.406.772.708 1.087.3.311.655.556 1.064.736.41.18.852.271 1.3.27zm11.176 1.783h-2.261V6.665h2.262v.892c.373-.325.823-.595 1.352-.807.55-.216 1.135-.324 1.726-.318.404 0 .863.056 1.376.17.516.114 1.004.33 1.434.636.443.312.816.744 1.12 1.295.303.553.454 1.267.454 2.144v6.156h-2.145v-6.176c0-.438-.074-.81-.222-1.114-.133-.287-.333-.537-.583-.732-.243-.185-.52-.319-.816-.393-.309-.079-.626-.118-.945-.116-.248 0-.532.042-.85.126-.32.086-.619.223-.898.415-.282.192-.523.437-.712.721-.194.29-.291.647-.291 1.072v6.2-.001zm12.145-.8h-2.25V2.791l2.25-.36v7.818l4.364-4.042h2.786l-4.271 3.96 4.595 5.866h-2.553l-3.504-4.512-1.417 1.312v3.2zM46.056 12.419c.07.369.298.8.527 1.11.23.311.502.58.816.81.313.227.666.402 1.056.527.397.126.81.188 1.227.186.582 0 1.121-.097 1.618-.29.498-.193.922-.449 1.274-.766l1.378 1.242c-.536.484-1.19.871-1.963 1.161-.773.29-1.618.435-2.536.435-.764.006-1.523-.132-2.237-.404-.672-.254-1.291-.63-1.826-1.108-.516-.465-.934-1.029-1.228-1.658-.298-.635-.45-1.329-.447-2.03 0-.719.141-1.395.425-2.03.272-.621.662-1.184 1.147-1.658.487-.473 1.06-.85 1.687-1.11.642-.269 1.331-.403 2.066-.403.75 0 1.442.117 2.077.352s1.186.6 1.653 1.098c.466.498.83 1.13 1.09 1.896.26.766.39 1.682.39 2.745h-6.558l1.186-1.782h2.985c-.03-.33-.115-.651-.253-.953-.136-.301-.33-.572-.574-.797-.25-.232-.542-.415-.86-.54-.33-.13-.708-.196-1.136-.196-.342-.002-.68.061-.998.187-.646.259-1.193.716-1.561 1.305-.192.304-.365.719-.425 1.076l-.006.04c-.123.7-.124.87.006 1.555z" transform="translate(-97 -2174) translate(97 1685) translate(0 189) translate(0 300) translate(47 36)"/>
                        </g>
                    </g>
                </g>
            </g>
        </g>
    </g>
</svg>
