<svg width="150" height="70" viewBox="0 0 150 70" xmlns="http://www.w3.org/2000/svg">
    <g fill="#FFF" fill-rule="nonzero">
        <path d="M33.576 58.332c-.154-.025-.307-.055-.462-.074-2.03-.258-3.84-1.058-5.493-2.238-1.639-1.171-2.973-2.636-4.111-4.286-1.744-2.532-2.93-5.324-3.836-8.248a26.64 26.64 0 0 1-.592-2.163c-.265-1.208.354-2.485 1.436-3.062 1.143-.608 2.516-.44 3.386.478a16.427 16.427 0 0 0 4.044 3.149 20.355 20.355 0 0 0 6.239 2.202c.903.155 1.815.256 2.73.302 2.971.17 5.824-.343 8.54-1.572.95-.428 1.853-.95 2.697-1.558.115-.087.213-.194.29-.315 1.015-1.539 2.272-2.838 3.804-3.868.37-.248.752-.295 1.136-.07.49.286.485.848 0 1.148a11.197 11.197 0 0 0-3.416 3.302 9.447 9.447 0 0 0-1.62 4.84c-.094 1.792.291 3.486.941 5.136.616 1.56 1.45 3 2.415 4.368.19.268.316.528.118.84-.168.265-.568.398-.929.321-.269-.057-.46-.214-.615-.435-1.014-1.452-1.906-2.968-2.562-4.616-.026-.067-.06-.13-.106-.227-.167.176-.317.338-.472.496-1.623 1.65-3.375 3.14-5.403 4.279-1.739.976-3.577 1.655-5.58 1.827a.395.395 0 0 0-.108.045h-2.471zm3.52-3.86c-.015-.318-.044-.635-.041-.951 0-.18-.079-.225-.228-.225-.242 0-.482-.01-.721 0-2.281.107-3.56 1.76-3.686 3.98 2.103.355 4.15.128 6.141-.614 2.213-.823 4.01-2.222 5.505-4.054a4.371 4.371 0 0 0-1.938-.647c-1.426-.127-2.643.387-3.718 1.274-.456.376-.864.81-1.313 1.236zM54.651 12.833c.297.049.594.093.89.146.963.166 1.88.447 2.665 1.059.945.734 1.51 1.724 1.902 2.826.445 1.27.698 2.6.75 3.945.06 1.342.104 2.688.074 4.03-.04 1.796-.206 3.583-.713 5.318-.287.982-.688 1.91-1.34 2.71-.772.95-1.777 1.525-2.963 1.792-1.608.36-3.215.358-4.81-.06-1.813-.476-2.956-1.688-3.649-3.379a12.149 12.149 0 0 1-.837-3.508 69.915 69.915 0 0 1-.229-3.61c-.07-1.763.015-3.522.31-5.265.185-1.092.484-2.149 1.004-3.136.798-1.513 2.063-2.367 3.728-2.667.393-.07.787-.132 1.181-.198l2.037-.003zm.467 10.878c-.049-1.243-.052-2.138-.125-3.028-.048-.613-.178-1.223-.306-1.827a1.077 1.077 0 0 0-.492-.721c-.6-.362-1.318-.104-1.58.578-.335.872-.395 1.791-.427 2.706a58.767 58.767 0 0 0-.02 3.332c.019.803.095 1.606.177 2.405.057.543.152 1.089.447 1.566a.976.976 0 0 0 1.67-.009c.274-.451.388-.96.426-1.474.1-1.29.17-2.583.23-3.528zM0 17.432c.104.006.208.019.313.019h10.861v5.576h-5.45v2.49l5.285-.097v4.881l-5.289-.097v2.592h5.467v6.175H0v-21.54zM74.64 17.625c-.128.484-.275.968-.383 1.46-.939 4.291-1.884 8.582-2.79 12.88-.12.572-.036 1.188-.043 1.784 0 .097.016.193.017.29.008.951.014 1.903.02 2.856.003.69 0 1.38 0 2.062h-7.182v-2.081c0-.065.01-.13.01-.194.01-1.386.049-2.773.015-4.159-.015-.603-.16-1.21-.287-1.804a1254.63 1254.63 0 0 0-1.833-8.4c-.343-1.54-.718-3.072-1.078-4.608-.018-.076-.031-.153-.048-.246h5.921c.033.346.067.686.097 1.027.194 2.064.384 4.13.582 6.195.123 1.28.262 2.559.395 3.838 0 .048.009.096.026.142.029.047.063.09.102.13.04-.048.107-.092.114-.145.052-.398.09-.798.136-1.197.157-1.34.325-2.681.473-4.023.13-1.19.242-2.383.36-3.574.074-.744.143-1.49.217-2.233.01-.059.026-.116.046-.173h4.825c.096 0 .193-.012.287-.018l.002.191zM19.961 15.271v-2.043h5.572v21.374H19.97v-2.8l-.043-.025c-.04.061-.075.126-.104.194a5.64 5.64 0 0 1-.974 1.821c-.34.436-.816.747-1.351.883-.72.195-1.479.2-2.2.012-1.044-.27-1.654-1.017-2.071-1.95-.51-1.14-.722-2.357-.812-3.586-.103-1.388-.176-2.782-.16-4.172.025-2.117.112-4.233.225-6.346.07-1.31.383-2.577.99-3.756.59-1.148 1.514-1.782 2.817-1.858 1.696-.097 2.882.678 3.53 2.087.028.062.065.12.097.18l.046-.015zm.084 7.535v-4.138c0-.839 0-.839-.853-.891-.495-.03-.88.202-1.073.658-.06.14-.124.285-.143.435-.085.653-.2 1.307-.217 1.961-.044 1.676-.06 3.352-.049 5.03.014.779.073 1.557.177 2.33.04.324.175.656.34.944.269.472.83.54 1.207.145a1.75 1.75 0 0 0 .42-.715 5.18 5.18 0 0 0 .183-1.259c.021-1.5.008-3 .008-4.5z"/>
        <path d="M26.575 17.466h10.9v6.712h-2.402c.033 4.93.066 9.859.097 14.758h-6.25l.087-14.759h-2.432v-6.71zM39.094 17.467h6.031v.326c-.015 2.808-.041 5.615-.042 8.419 0 2.442.033 4.885.04 7.329.003 1.117-.156 2.208-.538 3.27-.484 1.343-1.456 2.051-2.827 2.248-1.647.236-3.275.049-4.89-.308a.276.276 0 0 1-.063-.027l.254-6.808c.401.06.832.15 1.266.18.434.029.751-.206.872-.62.081-.278.126-.564.134-.853.017-.798.01-1.597.005-2.396-.013-1.958-.01-3.917-.053-5.876-.034-1.584-.124-3.168-.189-4.752v-.132z"/>
    </g>
</svg>
