<svg xmlns="http://www.w3.org/2000/svg" width="221" height="100" viewBox="0 0 221 100">
    <g fill="none" fill-rule="evenodd">
        <g>
            <g>
                <g>
                    <g>
                        <g>
                            <path fill="#62BB46" d="M11.94 0C5.348 0 0 5.299 0 11.828c0 6.53 5.347 11.823 11.94 11.823 6.588 0 11.934-5.293 11.934-11.823S18.528 0 11.94 0m0 22.927C5.743 22.927.733 17.955.733 11.828.733 5.693 5.743.725 11.941.725c6.186 0 11.2 4.968 11.2 11.103 0 6.127-5.014 11.099-11.2 11.099" transform="translate(-97 -2274) translate(97 1685) translate(0 189) translate(0 400) translate(52 37)"/>
                            <path fill="#62BB46" d="M1.65 11.747c4.076 1.272 7.918 5.209 9.082 10.244-5.728-.738-9.067-5.402-9.082-10.244M22.173 11.747c-4.074 1.272-7.964 5.209-9.08 10.244 5.727-.738 9.068-5.402 9.08-10.244M11.926 21.991c-4.343-6.643-3.406-15.754.003-20.66 3.252 4.906 4.269 14.017-.003 20.66" transform="translate(-97 -2274) translate(97 1685) translate(0 189) translate(0 400) translate(52 37)"/>
                            <path fill="#231F20" d="M27.107 1.382L29.733 1.382 29.733 4.939 34.566 4.939 34.566 1.382 37.193 1.382 37.193 10.649 34.566 10.649 34.566 6.653 29.733 6.653 29.733 10.649 27.107 10.649zM39.301 1.382L48.232 1.382 48.232 3.096 41.927 3.096 41.927 5.081 47.713 5.081 47.713 6.665 41.927 6.665 41.927 8.935 48.365 8.935 48.365 10.649 39.301 10.649zM52.564 5.575h2.877c1.187 0 1.805-.39 1.805-1.324 0-.895-.618-1.284-1.805-1.284h-2.877v2.608zm-2.626-4.193h6.44c2.14 0 3.496 1.155 3.496 2.557 0 1.09-.553 1.909-1.89 2.324v.025c1.287.274 1.654 1.22 1.738 2.168.05.585.018 1.687.502 2.193h-2.626c-.3-.583-.284-1.478-.417-2.22-.185-.973-.669-1.4-1.991-1.4h-2.626v3.62h-2.626V1.382zM67.248 9.066c1.022 0 1.941-.26 1.941-1.22 0-.947-.752-1.324-1.89-1.324h-2.86v2.544h2.809zm-.15-3.932c.937 0 1.606-.326 1.606-1.104 0-.87-.87-1.064-1.807-1.064H64.44v2.168h2.659zm-5.285-3.751h5.62c2.275 0 3.814.57 3.814 2.297 0 .921-.569 1.531-1.624 1.934 1.473.323 2.193 1.194 2.193 2.348 0 1.883-2.058 2.687-4.215 2.687h-5.788V1.383zM79.158 7.067l-1.506-3.4h-.033l-1.555 3.4h3.094zm-2.844-5.684h2.693l4.466 9.265h-2.727l-.903-2.063h-4.466l-.935 2.063h-2.66l4.532-9.265zM84.309 1.382L86.935 1.382 86.935 8.935 92.756 8.935 92.756 10.649 84.309 10.649zM93.693 10.648L96.32 10.648 96.32 1.382 93.693 1.382zM98.426 1.382L106.823 1.382 106.823 3.096 101.052 3.096 101.052 5.238 106.053 5.238 106.053 6.821 101.052 6.821 101.052 10.649 98.426 10.649zM108.144 1.382L117.076 1.382 117.076 3.096 110.769 3.096 110.769 5.081 116.557 5.081 116.557 6.665 110.769 6.665 110.769 8.935 117.21 8.935 117.21 10.649 108.144 10.649z" transform="translate(-97 -2274) translate(97 1685) translate(0 189) translate(0 400) translate(52 37)"/>
                            <path fill="#62BB46" d="M27.106 12.783L29.714 12.783 34.701 18.999 34.734 18.999 34.734 12.783 37.192 12.783 37.192 22.049 34.565 22.049 29.599 15.844 29.565 15.844 29.565 22.049 27.106 22.049zM49.487 18.544c0 2.506-1.906 3.725-5.102 3.725-3.228 0-5.084-1.192-5.084-3.725v-5.76h2.626v5.76c0 1.014.335 2.013 2.458 2.013 1.874 0 2.476-.624 2.476-2.013v-5.76h2.626v5.76zM54.344 14.496L50.766 14.496 50.766 12.782 60.549 12.782 60.549 14.496 56.97 14.496 56.97 22.049 54.344 22.049zM64.483 16.975h2.877c1.187 0 1.807-.39 1.807-1.324 0-.896-.62-1.285-1.807-1.285h-2.877v2.61zm-2.626-4.192h6.44c2.142 0 3.495 1.155 3.495 2.556 0 1.09-.55 1.908-1.89 2.323v.027c1.288.272 1.656 1.22 1.74 2.166.05.585.017 1.688.501 2.194h-2.626c-.3-.585-.284-1.48-.418-2.219-.184-.973-.667-1.401-1.99-1.401h-2.626v3.62h-2.626v-9.266zM74.268 22.049L76.893 22.049 76.893 12.782 74.268 12.782zM82.012 14.496L78.432 14.496 78.432 12.782 88.217 12.782 88.217 14.496 84.639 14.496 84.639 22.049 82.012 22.049zM89.756 22.049L92.383 22.049 92.383 12.782 89.756 12.782zM99.708 20.557c2.359 0 3.245-1.557 3.245-3.102 0-1.622-.886-3.18-3.245-3.18-2.36 0-3.245 1.558-3.245 3.18 0 1.545.886 3.102 3.245 3.102m0-7.996c3.679 0 5.87 2.142 5.87 4.894 0 2.675-2.191 4.814-5.87 4.814-3.68 0-5.871-2.139-5.871-4.814 0-2.752 2.192-4.894 5.871-4.894M107.119 12.783L109.73 12.783 114.713 18.999 114.747 18.999 114.747 12.783 117.206 12.783 117.206 22.049 114.58 22.049 109.612 15.844 109.578 15.844 109.578 22.049 107.119 22.049z" transform="translate(-97 -2274) translate(97 1685) translate(0 189) translate(0 400) translate(52 37)"/>
                        </g>
                    </g>
                </g>
            </g>
        </g>
    </g>
</svg>
