<svg width="36" height="24" viewBox="0 0 36 24" fill="none" xmlns="http://www.w3.org/2000/svg">
<g clip-path="url(#clip0_340_7172)">
<path fill-rule="evenodd" clip-rule="evenodd" d="M16.0714 1.28571C15.0063 1.28571 14.1429 2.14917 14.1429 3.21429C14.1429 4.27941 15.0063 5.14286 16.0714 5.14286C17.1366 5.14286 18 4.27941 18 3.21429C18 2.14917 17.1366 1.28571 16.0714 1.28571ZM12.8571 3.21429C12.8571 1.43908 14.2962 0 16.0714 0C17.8466 0 19.2857 1.43908 19.2857 3.21429C19.2857 4.98949 17.8466 6.42857 16.0714 6.42857C14.2962 6.42857 12.8571 4.98949 12.8571 3.21429Z" fill="#FDAD31"/>
<path fill-rule="evenodd" clip-rule="evenodd" d="M8.35715 1.28571C7.29203 1.28571 6.42857 2.14917 6.42857 3.21429C6.42857 4.27941 7.29203 5.14286 8.35715 5.14286C9.42227 5.14286 10.2857 4.27941 10.2857 3.21429C10.2857 2.14917 9.42227 1.28571 8.35715 1.28571ZM5.14286 3.21429C5.14286 1.43908 6.58195 0 8.35715 0C10.1323 0 11.5714 1.43908 11.5714 3.21429C11.5714 4.98949 10.1323 6.42857 8.35715 6.42857C6.58195 6.42857 5.14286 4.98949 5.14286 3.21429Z" fill="#FDAD31"/>
<path fill-rule="evenodd" clip-rule="evenodd" d="M23.7857 1.28571C22.7206 1.28571 21.8571 2.14917 21.8571 3.21429C21.8571 4.27941 22.7206 5.14286 23.7857 5.14286C24.8508 5.14286 25.7143 4.27941 25.7143 3.21429C25.7143 2.14917 24.8508 1.28571 23.7857 1.28571ZM20.5714 3.21429C20.5714 1.43908 22.0105 0 23.7857 0C25.5609 0 27 1.43908 27 3.21429C27 4.98949 25.5609 6.42857 23.7857 6.42857C22.0105 6.42857 20.5714 4.98949 20.5714 3.21429Z" fill="#FDAD31"/>
<path d="M28.9286 13.5C28.9286 10.6714 26.6143 8.35714 23.7857 8.35714C22.2429 8.35714 20.8929 9.06429 19.9286 10.0929C18.9643 9 17.6143 8.35714 16.0714 8.35714C14.5286 8.35714 13.1786 9.06429 12.2143 10.0929C11.25 9 9.9 8.35714 8.35714 8.35714C5.52857 8.35714 3.21429 10.6714 3.21429 13.5V20.5714H10.9286V22.5H21.2143V20.5714H28.9286V13.5Z" fill="white"/>
<path fill-rule="evenodd" clip-rule="evenodd" d="M2.57143 13.5C2.57143 10.3164 5.17353 7.71429 8.35714 7.71429C9.85091 7.71429 11.1903 8.25406 12.2256 9.19062C13.2455 8.30459 14.572 7.71429 16.0714 7.71429C17.5652 7.71429 18.9046 8.25406 19.9399 9.19062C20.9598 8.30459 22.2863 7.71429 23.7857 7.71429C26.9693 7.71429 29.5714 10.3164 29.5714 13.5V21.2143H21.8571V23.1429H10.2857V21.2143H2.57143V13.5ZM8.35714 9C5.88361 9 3.85714 11.0265 3.85714 13.5V19.9286H11.5714V21.8571H20.5714V19.9286H28.2857V13.5C28.2857 11.0265 26.2592 9 23.7857 9C22.4474 9 21.26 9.61257 20.3976 10.5325L19.9142 11.0482L19.4465 10.5182C18.6014 9.56039 17.4256 9 16.0714 9C14.7332 9 13.5457 9.61257 12.6833 10.5325L12.1999 11.0482L11.7322 10.5182C10.8871 9.56039 9.71127 9 8.35714 9Z" fill="#494D9F"/>
<path fill-rule="evenodd" clip-rule="evenodd" d="M16.0714 9C13.5979 9 11.5714 11.0265 11.5714 13.5V21.8571H20.5714V18H21.8571V23.1429H10.2857V13.5C10.2857 10.3164 12.8878 7.71429 16.0714 7.71429C19.0311 7.71429 21.4982 9.95086 21.7895 12.7916L20.5105 12.9227C20.2876 10.7491 18.3832 9 16.0714 9Z" fill="#494D9F"/>
<path fill-rule="evenodd" clip-rule="evenodd" d="M21.2143 13.5C20.1492 13.5 19.2857 14.3635 19.2857 15.4286C19.2857 16.4937 20.1492 17.3571 21.2143 17.3571C22.2794 17.3571 23.1429 16.4937 23.1429 15.4286C23.1429 14.3635 22.2794 13.5 21.2143 13.5ZM18 15.4286C18 13.6534 19.4391 12.2143 21.2143 12.2143C22.9895 12.2143 24.4286 13.6534 24.4286 15.4286C24.4286 17.2038 22.9895 18.6429 21.2143 18.6429C19.4391 18.6429 18 17.2038 18 15.4286Z" fill="#FDAD31"/>
</g>
<defs>
<clipPath id="clip0_340_7172">
<rect width="27" height="23.1429" fill="white" transform="translate(2.57143)"/>
</clipPath>
</defs>
</svg>
