<svg width="36" height="23" viewBox="0 0 36 23" xmlns="http://www.w3.org/2000/svg">
    <g stroke-width="1.286" fill="none" fill-rule="evenodd">
        <path stroke="#051344" d="m20.227 8.698 4.28.618-5.324 5.157 1.257 7.281-6.58-3.438-6.58 3.438 1.257-7.281-5.323-5.157 7.357-1.062 3.29-6.625 2.09 4.209"/>
        <path d="M17.679 5.111a2.57 2.57 0 0 0-1.818.749 2.537 2.537 0 0 0-.754 1.807 2.57 2.57 0 0 0 2.571 2.556 2.57 2.57 0 0 0 1.819-.75c.465-.461.753-1.1.753-1.806s-.288-1.345-.753-1.807a2.57 2.57 0 0 0-1.818-.749z" stroke="#FDAD31"/>
    </g>
</svg>
