<svg width="36" height="23" viewBox="0 0 36 23" xmlns="http://www.w3.org/2000/svg">
    <g stroke-width="1.286" fill="none" fill-rule="evenodd">
        <path d="M22.526 6.07c.397.878.617 1.85.617 2.874 0 2.811-1.66 5.237-4.06 6.36m-9.369-9.44a7.076 7.076 0 0 1 6.357-3.947c1.064 0 2.074.233 2.979.652" stroke="#051344"/>
        <path d="M6.428 9.209a7.075 7.075 0 0 1 6.43-4.098c3.905 0 7.07 3.147 7.07 7.028 0 2.808-1.657 5.232-4.052 6.357" stroke="#051344"/>
        <path d="M16.714 15.333c0 3.882-3.166 7.028-7.071 7.028-3.906 0-7.072-3.146-7.072-7.028 0-3.881 3.166-7.027 7.072-7.027 3.905 0 7.071 3.146 7.071 7.027z" stroke="#051344"/>
        <path d="M21.214 1.282c.71 0 1.354.286 1.82.748a2.534 2.534 0 0 1 0 3.606 2.573 2.573 0 0 1-1.82.749c-.71 0-1.354-.286-1.82-.749a2.534 2.534 0 0 1 0-3.606 2.573 2.573 0 0 1 1.82-.748z" stroke="#FDAD31"/>
    </g>
</svg>
