<svg width="36" height="23" viewBox="0 0 36 23" xmlns="http://www.w3.org/2000/svg">
    <g stroke-width="1.286" fill="none" fill-rule="evenodd">
        <path stroke="#051344" d="M12.215 19.81h18.643v1H12.215zM30.857 9.734v7.516h-19.17M4.5 7.08V1.278h26.357v3.165"/>
        <path d="M30.857 4.476c.71 0 1.354.286 1.82.749a2.534 2.534 0 0 1 0 3.606 2.573 2.573 0 0 1-1.82.748c-.71 0-1.354-.286-1.82-.748a2.534 2.534 0 0 1 0-3.606 2.573 2.573 0 0 1 1.82-.749z" stroke="#FDAD31"/>
        <path stroke="#051344" d="M1.929 7.028h9.642V22.36H1.93z"/>
    </g>
</svg>
