<svg width="36" height="24" viewBox="0 0 36 24" fill="none" xmlns="http://www.w3.org/2000/svg">
<path fill-rule="evenodd" clip-rule="evenodd" d="M21.0601 9.5118L16.0714 4.5L15.1602 5.40704L20.1489 10.4188L21.0601 9.5118Z" fill="#494D9F"/>
<path fill-rule="evenodd" clip-rule="evenodd" d="M12.703 17.8689L7.71428 12.8571L6.80305 13.7642L11.7917 18.776L12.703 17.8689Z" fill="#494D9F"/>
<path fill-rule="evenodd" clip-rule="evenodd" d="M15.4286 17.8689L20.4173 12.8571L21.3285 13.7642L16.3398 18.776L15.4286 17.8689Z" fill="#494D9F"/>
<path fill-rule="evenodd" clip-rule="evenodd" d="M14.1429 5.14286C15.208 5.14286 16.0714 4.27941 16.0714 3.21429C16.0714 2.14917 15.208 1.28571 14.1429 1.28571C13.0777 1.28571 12.2143 2.14917 12.2143 3.21429C12.2143 4.27941 13.0777 5.14286 14.1429 5.14286ZM14.1429 6.42857C15.9181 6.42857 17.3571 4.98949 17.3571 3.21429C17.3571 1.43908 15.9181 0 14.1429 0C12.3677 0 10.9286 1.43908 10.9286 3.21429C10.9286 4.98949 12.3677 6.42857 14.1429 6.42857Z" fill="#494D9F"/>
<path fill-rule="evenodd" clip-rule="evenodd" d="M22.5 13.5C23.5651 13.5 24.4286 12.6366 24.4286 11.5714C24.4286 10.5063 23.5651 9.64286 22.5 9.64286C21.4349 9.64286 20.5714 10.5063 20.5714 11.5714C20.5714 12.6366 21.4349 13.5 22.5 13.5ZM22.5 14.7857C24.2752 14.7857 25.7143 13.3466 25.7143 11.5714C25.7143 9.79623 24.2752 8.35715 22.5 8.35715C20.7248 8.35715 19.2857 9.79623 19.2857 11.5714C19.2857 13.3466 20.7248 14.7857 22.5 14.7857Z" fill="#FDAD31"/>
<path fill-rule="evenodd" clip-rule="evenodd" d="M5.78571 13.5C6.85083 13.5 7.71428 12.6366 7.71428 11.5714C7.71428 10.5063 6.85083 9.64286 5.78571 9.64286C4.72059 9.64286 3.85714 10.5063 3.85714 11.5714C3.85714 12.6366 4.72059 13.5 5.78571 13.5ZM5.78571 14.7857C7.56091 14.7857 9 13.3466 9 11.5714C9 9.79623 7.56091 8.35715 5.78571 8.35715C4.01051 8.35715 2.57143 9.79623 2.57143 11.5714C2.57143 13.3466 4.01051 14.7857 5.78571 14.7857Z" fill="#494D9F"/>
<path fill-rule="evenodd" clip-rule="evenodd" d="M14.1429 21.8571C15.208 21.8571 16.0714 20.9937 16.0714 19.9286C16.0714 18.8635 15.208 18 14.1429 18C13.0777 18 12.2143 18.8635 12.2143 19.9286C12.2143 20.9937 13.0777 21.8571 14.1429 21.8571ZM14.1429 23.1429C15.9181 23.1429 17.3571 21.7038 17.3571 19.9286C17.3571 18.1534 15.9181 16.7143 14.1429 16.7143C12.3677 16.7143 10.9286 18.1534 10.9286 19.9286C10.9286 21.7038 12.3677 23.1429 14.1429 23.1429Z" fill="#494D9F"/>
<path fill-rule="evenodd" clip-rule="evenodd" d="M7.21519 9.5118L12.2039 4.5L13.1151 5.40704L8.12642 10.4188L7.21519 9.5118Z" fill="#494D9F"/>
</svg>
