<svg width="36" height="23" viewBox="0 0 36 23" xmlns="http://www.w3.org/2000/svg">
    <g fill="none" fill-rule="evenodd">
        <g transform="translate(2.571)">
            <path stroke="#051344" stroke-width="1.286" d="M14.786 17.413v4.948H.643V.64"/>
            <path fill="#051344" d="M0 0h3.214v1.278H0zM5.786 0h3.857v1.278H5.786zM12.214 0h3.214v1.278h-3.214z"/>
            <path fill="#051344" d="M15.429 0v3.194h-1.286V0zM15.429 5.75v2.556h-1.286V5.75z"/>
            <circle stroke="#051344" stroke-width="1.286" cx="7.714" cy="18.528" r="1"/>
        </g>
        <g stroke-width="1.286">
            <path stroke="#051344" d="m26.612 8.473-8.834 8.779h-3.636v-3.614l8.8-8.746"/>
            <path d="M26.571 4.9a2.57 2.57 0 0 0-1.818-.749 2.57 2.57 0 0 0-1.818.748 2.537 2.537 0 0 0-.753 1.807c0 .654.25 1.308.753 1.807.502.5 1.16.749 1.818.748a2.57 2.57 0 0 0 1.818-.748c.502-.499.753-1.153.753-1.807 0-.653-.25-1.308-.753-1.807z" stroke="#FDAD31"/>
        </g>
    </g>
</svg>
