<svg width="36" height="23" viewBox="0 0 36 23" xmlns="http://www.w3.org/2000/svg">
    <g stroke-width="1.286" fill="none" fill-rule="evenodd">
        <path stroke="#051344" d="M3.214 22.366h27.643v1H3.214zM3.214 5.683V2.556h27.643v17.25H3.214v-9.514"/>
        <path d="M3.214 5.115c.71 0 1.354.286 1.82.749a2.534 2.534 0 0 1 0 3.606 2.573 2.573 0 0 1-1.82.748c-.71 0-1.354-.286-1.82-.748a2.534 2.534 0 0 1 0-3.606 2.573 2.573 0 0 1 1.82-.749z" stroke="#FDAD31"/>
        <path stroke="#051344" d="M13.179 14.695h11.764M13.179 11.18h11.764M9.321 7.667h10.286"/>
    </g>
</svg>
