<svg width="36" height="23" viewBox="0 0 36 23" xmlns="http://www.w3.org/2000/svg" xmlns:xlink="http://www.w3.org/1999/xlink">
    <defs>
        <path id="a" d="M0 0h10.929v7.667H0z"/>
        <path id="c" d="M0 0h4.5v6.389H0z"/>
        <path d="m2.57 5.75.644 9.583H0V5.75h2.57zM12.856 0v3.833H6.43L4.5 2.57V0h8.357z" id="d"/>
        <path id="f" d="M0 0h10.929v7.667H0z"/>
        <path id="h" d="M0 0h4.5v6.389H0z"/>
        <path d="M0 4.472h2.571v8.306H0V4.472zm.643-.639V0h12.214v3.833H5.143V6.39H2.57V3.833H.643z" id="j"/>
    </defs>
    <g fill="none" fill-rule="evenodd">
        <g transform="matrix(-1 0 0 1 24.429 15.333)">
            <mask id="b" fill="#fff">
                <use xlink:href="#a"/>
            </mask>
            <ellipse stroke="#051344" stroke-width="1.286" mask="url(#b)" cx="6.429" rx="5.786" ry="7.024"/>
        </g>
        <g transform="matrix(-1 0 0 1 25.071 0)">
            <mask id="e" fill="#fff">
                <use xlink:href="#d"/>
            </mask>
            <path d="M8.036.643c.977 0 1.861.393 2.501 1.03a3.486 3.486 0 0 1 .55 4.254A3.543 3.543 0 0 1 9.255 7.45a4.382 4.382 0 0 1 .388 1.815c0 1.153-.44 2.204-1.162 2.997.299 1.423.519 2.22.519 3.072 0 1.203-.437 2.294-1.152 3.083-.692.764-1.647 1.244-2.705 1.244-1.059 0-2.013-.48-2.706-1.244-.714-.79-1.151-1.88-1.151-3.083 0-.853.22-1.65.603-2.322C1.083 11.468.643 10.417.643 9.264c0-1.03.35-1.978.94-2.733a4.506 4.506 0 0 1 2.956-1.696 4.037 4.037 0 0 1-.035-.523C4.502 3.274 4.89 2.358 5.526 1.7A3.472 3.472 0 0 1 8.036.643z" stroke="#051344" stroke-width="1.286" mask="url(#e)"/>
        </g>
        <g transform="translate(2.571 15.333)">
            <mask id="g" fill="#fff">
                <use xlink:href="#f"/>
            </mask>
            <ellipse stroke="#051344" stroke-width="1.286" mask="url(#g)" cx="6.429" rx="5.786" ry="7.024"/>
        </g>
        <g transform="translate(2.571 8.944)">
            <mask id="i" fill="#fff">
                <use xlink:href="#h"/>
            </mask>
            <path d="M4.5 2.063c1.058 0 2.013.48 2.705 1.244.715.788 1.152 1.88 1.152 3.082S7.92 8.682 7.205 9.47c-.692.765-1.647 1.244-2.705 1.244s-2.013-.48-2.705-1.244C1.08 8.682.643 7.591.643 6.39c0-1.203.437-2.294 1.152-3.082.692-.765 1.647-1.244 2.705-1.244z" stroke="#051344" stroke-width="1.286" mask="url(#i)"/>
        </g>
        <g transform="translate(1.929)">
            <mask id="k" fill="#fff">
                <use xlink:href="#j"/>
            </mask>
            <path d="M8.036.643c.977 0 1.861.393 2.501 1.03a3.486 3.486 0 0 1 .55 4.254A3.543 3.543 0 0 1 9.255 7.45a4.382 4.382 0 0 1 .388 1.815c0 1.233-.504 2.35-1.317 3.158a4.502 4.502 0 0 1-3.183 1.31c-1.243 0-2.369-.5-3.184-1.31A4.439 4.439 0 0 1 .643 9.264c0-1.03.35-1.978.94-2.733a4.506 4.506 0 0 1 2.956-1.696 4.037 4.037 0 0 1-.035-.523C4.502 3.274 4.89 2.358 5.526 1.7A3.472 3.472 0 0 1 8.036.643z" stroke="#051344" stroke-width="1.286" mask="url(#k)"/>
        </g>
        <path stroke="#051344" stroke-width="1.286" d="M13.5 3.833v16.611"/>
        <path d="M20.571 2.56c.711 0 1.354.285 1.82.748a2.534 2.534 0 0 1 0 3.606 2.573 2.573 0 0 1-1.82.749c-.71 0-1.354-.286-1.82-.75a2.534 2.534 0 0 1 0-3.605 2.573 2.573 0 0 1 1.82-.748z" stroke="#FDAD31" stroke-width="1.286"/>
    </g>
</svg>
