<svg width="36" height="23" viewBox="0 0 36 23" xmlns="http://www.w3.org/2000/svg">
    <g stroke-width="1.286" fill="none" fill-rule="evenodd">
        <path stroke="#051344" d="M19.929 13.997v8.364H3.214V5.111H19.93V8.87"/>
        <path d="M19.929 8.944a2.57 2.57 0 0 0-1.818.75 2.537 2.537 0 0 0-.754 1.806 2.57 2.57 0 0 0 2.571 2.556 2.57 2.57 0 0 0 1.819-.75c.465-.461.753-1.1.753-1.806s-.288-1.345-.753-1.807a2.57 2.57 0 0 0-1.818-.749z" stroke="#FDAD31"/>
        <path d="M7.714 4.472C7.714 2.355 9.441.64 11.571.64s3.858 1.716 3.858 3.833" stroke="#051344"/>
    </g>
</svg>
