<svg width="36" height="23" viewBox="0 0 36 23" xmlns="http://www.w3.org/2000/svg">
    <g stroke-width="1.286" fill="none" fill-rule="evenodd">
        <path stroke="#051344" d="M3.214 5.683V2.556h27.643v17.25H3.214v-9.514M3.214 22.365h27.643v1H3.214z"/>
        <path d="M3.214 5.115c.71 0 1.354.286 1.82.749a2.534 2.534 0 0 1 0 3.606 2.573 2.573 0 0 1-1.82.748c-.71 0-1.354-.286-1.82-.748a2.534 2.534 0 0 1 0-3.606 2.573 2.573 0 0 1 1.82-.749zM10.929 5.115c.71 0 1.354.286 1.82.749a2.534 2.534 0 0 1 0 3.606 2.573 2.573 0 0 1-1.82.748c-.711 0-1.354-.286-1.82-.748a2.534 2.534 0 0 1 0-3.606 2.573 2.573 0 0 1 1.82-.749zM18.667 5.115a2.61 2.61 0 0 1 1.838.75 2.522 2.522 0 0 1 0 3.603 2.61 2.61 0 0 1-1.838.75 2.61 2.61 0 0 1-1.839-.75 2.522 2.522 0 0 1 0-3.602 2.61 2.61 0 0 1 1.839-.75z" stroke="#FDAD31"/>
    </g>
</svg>
