<svg width="36" height="23" viewBox="0 0 36 23" xmlns="http://www.w3.org/2000/svg">
    <g stroke-width="1.286" fill="none" fill-rule="evenodd">
        <path d="M17.357 8.306a2.57 2.57 0 0 0-1.818.748 2.537 2.537 0 0 0-.753 1.807c0 .706.288 1.345.753 1.807a2.57 2.57 0 0 0 1.818.749 2.57 2.57 0 0 0 1.818-.75 2.537 2.537 0 0 0 0-3.614 2.57 2.57 0 0 0-1.818-.747z" stroke="#FDAD31"/>
        <path d="M17.11 3.908c2.115-.246 3.93.442 5.217 1.813 1.337 1.425 2.102 3.563 2.102 6.11 0 2.603-.974 5.27-2.421 7.28-1.365 1.897-3.157 3.246-4.972 3.246-.986 0-1.974-.305-2.89-.84-1.565.535-2.553.84-3.539.84-1.815 0-3.607-1.349-4.972-3.246-1.447-2.01-2.42-4.677-2.42-7.28 0-2.547.764-4.685 2.101-6.11 1.287-1.371 3.102-2.059 5.217-1.813.898.104 1.928.531 2.931 1.202 1.718-.671 2.748-1.098 3.646-1.202zM13.821 5.111V.639" stroke="#051344"/>
    </g>
</svg>
