<svg width="36" height="23" viewBox="0 0 36 23" xmlns="http://www.w3.org/2000/svg">
    <g stroke-width="1.286" fill="none" fill-rule="evenodd">
        <path stroke="#051344" d="M5.143 22.361h14.143v-3.833M5.143 22.361a1.923 1.923 0 0 1-1.929-1.917c0-1.058.864-1.916 1.929-1.916M3.214 2.556c0-1.059.864-1.917 1.929-1.917"/>
        <path stroke="#051344" stroke-linecap="square" d="M3.214 19.806V3.194"/>
        <path d="M5.143.639h14.143v3.836m0 5.204v8.849H5.143" stroke="#051344"/>
        <path d="M19.286 4.476c.71 0 1.354.286 1.82.749a2.534 2.534 0 0 1 0 3.606 2.573 2.573 0 0 1-1.82.748c-.71 0-1.354-.286-1.82-.748a2.534 2.534 0 0 1 0-3.606 2.573 2.573 0 0 1 1.82-.749z" stroke="#FDAD31"/>
    </g>
</svg>
