<svg width="36" height="23" viewBox="0 0 36 23" xmlns="http://www.w3.org/2000/svg">
    <g stroke-width="1.286" fill="none" fill-rule="evenodd">
        <path stroke="#051344" d="M19.286 18.528H3.214V.638h15.281M19.286 22.361h-7.393v-3.833"/>
        <path d="M21.393 3.194v1.278m0 5.111v10.223" stroke="#051344" stroke-linecap="square"/>
        <path d="M21.214 4.476c.71 0 1.354.286 1.82.749a2.534 2.534 0 0 1 0 3.606 2.573 2.573 0 0 1-1.82.748c-.71 0-1.354-.286-1.82-.748a2.534 2.534 0 0 1 0-3.606 2.573 2.573 0 0 1 1.82-.749z" stroke="#FDAD31"/>
        <path d="M19.286 22.361a1.923 1.923 0 0 0 1.928-1.917 1.923 1.923 0 0 0-1.928-1.916M21.214 2.556A1.923 1.923 0 0 0 19.286.639h-1.138" stroke="#051344"/>
        <path stroke="#051344" stroke-linecap="square" d="M8.357 5.75h7.072M8.357 9.583h7.072M8.357 13.417h7.072"/>
    </g>
</svg>
