<svg width="36" height="23" viewBox="0 0 36 23" xmlns="http://www.w3.org/2000/svg">
    <g stroke-width="1.286" fill="none" fill-rule="evenodd">
        <path d="M9 3.833a2.57 2.57 0 0 0-1.818.75 2.537 2.537 0 0 0-.753 1.806c0 .706.288 1.345.753 1.807A2.57 2.57 0 0 0 9 8.944a2.57 2.57 0 0 0 1.818-.748c.465-.462.753-1.101.753-1.807s-.288-1.345-.753-1.807A2.57 2.57 0 0 0 9 3.833z" stroke="#FDAD31"/>
        <path stroke="#051344" stroke-linecap="square" d="M7.715 12.14h7.714M7.714 15.334h7.714M7.715 18.528h7.714"/>
        <path stroke="#051344" d="M3.214.639h16.714v21.722H3.214z"/>
    </g>
</svg>
