<svg width="36" height="25" viewBox="0 0 36 25" fill="none" xmlns="http://www.w3.org/2000/svg">
<path d="M1.13123 10.1933V14.7694C1.13123 15.4073 0.914414 16.0336 0.489821 16.5097C0.175187 16.8625 0 17.3197 0 17.795V21.3265C0 21.9253 0.723971 22.2252 1.14738 21.8018C1.27343 21.6757 1.34425 21.5048 1.34425 21.3265V16.794C1.34425 16.1561 1.56108 15.5299 1.98567 15.0538C2.30029 14.701 2.47548 14.2438 2.47548 13.7685V10.1933C2.47548 9.59451 1.75151 9.29463 1.32809 9.71804C1.20205 9.84409 1.13123 10.0151 1.13123 10.1933V10.1933Z" fill="#051344"/>
<path d="M4.89118 6.43338V11.0095C4.89118 11.6474 4.67436 12.2737 4.24977 12.7498C3.93514 13.1026 3.75995 13.5598 3.75995 14.0351V17.5666C3.75995 18.1654 4.48392 18.4653 4.90733 18.0419C5.03338 17.9158 5.1042 17.7449 5.1042 17.5666V13.0341C5.1042 12.3962 5.32102 11.7699 5.74562 11.2939C6.06024 10.9411 6.23543 10.4839 6.23543 10.0086V6.43339C6.23543 5.83459 5.51146 5.53471 5.08804 5.95813C4.96199 6.08417 4.89118 6.25513 4.89118 6.43339V6.43338Z" fill="#051344"/>
<path d="M8.65107 2.67347V7.24956C8.65107 7.8875 8.43425 8.51376 8.00966 8.98988C7.69502 9.3427 7.51984 9.7999 7.51984 10.2752V13.8067C7.51984 14.4055 8.24381 14.7054 8.66722 14.282C8.79327 14.1559 8.86408 13.9849 8.86408 13.8067V9.27419C8.86408 8.63626 9.08091 8.01003 9.5055 7.53395C9.82013 7.18117 9.99531 6.72398 9.99531 6.2487V2.67347C9.99531 2.07467 9.27134 1.77479 8.84793 2.19821C8.72188 2.32426 8.65107 2.49522 8.65107 2.67347Z" fill="#051344"/>
<path d="M15.7375 9.57644H13.7816L13.3774 10.7673H12.4608L14.1929 5.75119H15.3117L17.051 10.7673H16.1417L15.7375 9.57644ZM15.4776 8.81856L14.756 6.71834L14.0415 8.81856H15.4776Z" fill="#051344"/>
<path d="M17.6357 5.75119H18.5595V10.7673H17.6357V5.75119Z" fill="#051344"/>
<path d="M18.8192 13.2327L17.6571 18.2488H16.5745L15.6435 14.503L14.7052 18.2488H13.63L12.4608 13.2327H13.3701L14.1857 17.1445L15.1456 13.2327H16.1415L17.1014 17.1734L17.9099 13.2327H18.8192Z" fill="#051344"/>
<path d="M22.9403 14.4452V18.2488H22.0887V17.7364C21.8073 18.1116 21.3814 18.3354 20.8329 18.3354C19.7431 18.3354 18.9492 17.4837 18.9492 16.3506C18.9492 15.2103 19.7431 14.4164 20.8329 14.4164C21.3814 14.4164 21.8073 14.6184 22.0887 14.9865V14.4452H22.9403ZM22.0599 16.3506C22.0599 15.6505 21.6123 15.1742 20.9556 15.1742C20.3277 15.1742 19.8658 15.6722 19.8658 16.3506C19.8658 17.0291 20.3277 17.527 20.9556 17.527C21.6123 17.527 22.0599 17.0435 22.0599 16.3506Z" fill="#051344"/>
<path d="M27.4008 14.4452L25.9502 18.2487H24.8963L23.4456 14.4452H24.3983L25.4231 17.3682L26.4481 14.4452H27.4008Z" fill="#051344"/>
<path d="M29.5733 17.5559C30.093 17.5559 30.3671 17.361 30.5404 17.0218L31.262 17.4837C30.9734 17.9529 30.4683 18.3426 29.5445 18.3426C28.3318 18.3426 27.5381 17.4837 27.5381 16.3507C27.5381 15.2464 28.3968 14.3586 29.4867 14.3586C30.6848 14.3586 31.4136 15.2969 31.4136 16.2713C31.4136 16.4156 31.4065 16.5599 31.3921 16.6393H28.4402C28.5629 17.2095 29.0031 17.5559 29.5733 17.5559V17.5559ZM30.5332 15.997C30.4322 15.4268 30.0424 15.0803 29.5084 15.0803C28.9742 15.0803 28.5557 15.4124 28.4402 15.997H30.5332Z" fill="#051344"/>
<path d="M31.7745 17.361L32.5756 17.0507C32.6839 17.4043 32.9798 17.6137 33.4417 17.6137C33.8098 17.6137 34.0408 17.4621 34.0408 17.1951C34.0408 16.4445 31.9549 16.7909 31.9549 15.4845C31.9549 14.7916 32.5324 14.3586 33.4273 14.3586C34.1635 14.3586 34.6975 14.6618 34.8563 15.1814L34.0551 15.4918C33.9542 15.2031 33.7305 15.0659 33.4128 15.0659C33.0736 15.0659 32.8933 15.2103 32.8933 15.4413C32.8933 16.1341 34.979 15.7372 34.979 17.1301C34.979 17.888 34.3583 18.3354 33.4056 18.3354C32.5828 18.3354 31.9838 18.0034 31.7745 17.361L31.7745 17.361Z" fill="#051344"/>
</svg>
