<svg width="36" height="23" viewBox="0 0 36 23" xmlns="http://www.w3.org/2000/svg">
    <g stroke-width="1.286" fill="none" fill-rule="evenodd">
        <path d="M3.214.639h9.643v9.583H3.214V.64zm0 12.139h9.643v9.583H3.214v-9.583zm21.857-4.834v2.278H15.43V.64h9.642v1.939m-9.642 10.2h9.642v9.583H15.43v-9.583z" stroke="#051344"/>
        <path d="M25.071 2.556a2.57 2.57 0 0 0-1.818.748 2.537 2.537 0 0 0-.753 1.807c0 .706.288 1.345.753 1.807a2.57 2.57 0 0 0 1.818.749 2.57 2.57 0 0 0 1.818-.75 2.537 2.537 0 0 0 0-3.614 2.57 2.57 0 0 0-1.818-.747z" stroke="#FDAD31"/>
    </g>
</svg>
