<svg width="36" height="23" viewBox="0 0 36 23" xmlns="http://www.w3.org/2000/svg">
    <g stroke-width="1.286" fill="none" fill-rule="evenodd">
        <path d="M17.357.643c.71 0 1.354.286 1.82.749a2.534 2.534 0 0 1 0 3.605 2.573 2.573 0 0 1-1.82.749c-.71 0-1.354-.286-1.82-.749a2.534 2.534 0 0 1 0-3.605 2.573 2.573 0 0 1 1.82-.75zM9.643.643c.71 0 1.354.286 1.82.749a2.534 2.534 0 0 1 0 3.605 2.573 2.573 0 0 1-1.82.749c-.71 0-1.354-.286-1.82-.749a2.534 2.534 0 0 1 0-3.605 2.573 2.573 0 0 1 1.82-.75z" stroke="#FDAD31"/>
        <path d="M3.857 14.056c0-3.176 2.59-5.75 5.786-5.75 1.486 0 2.84.556 3.865 1.47M11.58 22.362H3.857v-8.305" stroke="#051344"/>
        <path d="M17.357 8.31c1.56 0 2.977.613 4.018 1.611a5.71 5.71 0 0 1 1.764 3.917l.004 8.52H11.57v-8.302c0-1.587.648-3.023 1.694-4.062a5.788 5.788 0 0 1 4.092-1.684z" stroke="#051344"/>
    </g>
</svg>
