<svg width="36" height="23" viewBox="0 0 36 23" xmlns="http://www.w3.org/2000/svg">
    <g fill="none" fill-rule="evenodd">
        <g stroke-width="1.286">
            <path d="M3.373 17.325c.705-3.327 3.676-5.825 7.234-5.825h2.572c3.527 0 6.477-2.455 7.215-5.74" stroke="#051344"/>
            <path d="M3.214 17.254c.71 0 1.354.286 1.82.749a2.534 2.534 0 0 1 0 3.605 2.573 2.573 0 0 1-1.82.75c-.71 0-1.354-.287-1.82-.75a2.534 2.534 0 0 1 0-3.605 2.573 2.573 0 0 1 1.82-.749zM20.571.643c.711 0 1.354.286 1.82.749a2.534 2.534 0 0 1 0 3.605 2.573 2.573 0 0 1-1.82.749c-.71 0-1.354-.286-1.82-.749a2.534 2.534 0 0 1 0-3.605 2.573 2.573 0 0 1 1.82-.75z" stroke="#FDAD31"/>
        </g>
        <g fill="#051344">
            <path d="m21.802 14.461.91.91-7.228 7.228-.91-.91z"/>
            <path d="m22.731 21.715-.903.903-7.273-7.273.903-.903z"/>
        </g>
        <g fill="#051344">
            <path d="m7.66.406.909.91L1.34 8.542l-.91-.909z"/>
            <path d="m8.588 7.66-.903.903L.412 1.29l.903-.904z"/>
        </g>
    </g>
</svg>
