<svg width="36" height="23" viewBox="0 0 36 23" xmlns="http://www.w3.org/2000/svg">
    <g stroke-width="1.286" fill="none" fill-rule="evenodd">
        <path d="M14.747 2.556c-3.81 0-6.91 3.01-6.91 6.708 0 .11.015.212.02.32h-.02c-2.9 0-5.266 2.295-5.266 5.11 0 2.816 2.366 5.112 5.266 5.112h15.796c3.627 0 6.581-2.868 6.581-6.39 0-3.52-2.954-6.388-6.581-6.388-.826 0-1.597.19-2.324.459a6.805 6.805 0 0 0-6.562-4.931z" stroke="#051344"/>
        <path d="M23.786 10.865c.71 0 1.354.286 1.82.749a2.534 2.534 0 0 1 0 3.606 2.573 2.573 0 0 1-1.82.748c-.71 0-1.354-.286-1.82-.748a2.534 2.534 0 0 1 0-3.606 2.573 2.573 0 0 1 1.82-.749z" stroke="#FDAD31"/>
    </g>
</svg>
