<svg width="36" height="23" viewBox="0 0 36 23" xmlns="http://www.w3.org/2000/svg" xmlns:xlink="http://www.w3.org/1999/xlink">
    <defs>
        <path d="M4.5 17.889v-5.111H0V0h18v23H0v-5.111h4.5z" id="a"/>
    </defs>
    <g fill="none" fill-rule="evenodd">
        <g transform="translate(4.5)">
            <mask id="b" fill="#fff">
                <use xlink:href="#a"/>
            </mask>
            <path d="M6.429.643c.684 0 1.306.265 1.767.698.458.43.757 1.026.799 1.692L9 8.309h5.785c.684 0 1.306.266 1.767.698.458.43.757 1.027.8 1.692l.004 9.107c0 .704-.287 1.341-.752 1.802a2.573 2.573 0 0 1-1.82.75l-10.899-.002a2.615 2.615 0 0 1-1.79-.696 2.523 2.523 0 0 1-.805-1.692l-.005-9.107c0-.61.216-1.171.577-1.61a2.572 2.572 0 0 1 1.994-.941V3.212c.044-.743.338-1.385.798-1.842A2.498 2.498 0 0 1 6.429.643z" stroke="#051344" stroke-width="1.286" mask="url(#b)"/>
        </g>
        <path d="M5.786 12.782c.71 0 1.354.286 1.82.748a2.534 2.534 0 0 1 0 3.606 2.573 2.573 0 0 1-1.82.749c-.71 0-1.354-.286-1.82-.749a2.534 2.534 0 0 1 0-3.606 2.573 2.573 0 0 1 1.82-.748z" stroke="#FDAD31" stroke-width="1.286"/>
    </g>
</svg>
