<svg width="36" height="23" viewBox="0 0 36 23" xmlns="http://www.w3.org/2000/svg">
    <g stroke-width="1.286" fill="none" fill-rule="evenodd">
        <path d="M11.008 2.791c-4.46.985-7.794 4.94-7.794 9.667 0 .887.117 1.746.337 2.563m2.627 4.484a9.964 9.964 0 0 0 7 2.856 9.965 9.965 0 0 0 7.203-3.059m2.397-4.18c.238-.848.365-1.741.365-2.664 0-4.417-2.91-8.159-6.93-9.435" stroke="#051344"/>
        <path d="M21.857 14.698c.71 0 1.354.286 1.82.75a2.534 2.534 0 0 1 0 3.605 2.573 2.573 0 0 1-1.82.749c-.71 0-1.354-.286-1.82-.75a2.534 2.534 0 0 1 0-3.605 2.573 2.573 0 0 1 1.82-.749zM4.5 14.698c.71 0 1.354.286 1.82.75a2.534 2.534 0 0 1 0 3.605 2.573 2.573 0 0 1-1.82.749c-.71 0-1.354-.286-1.82-.75a2.534 2.534 0 0 1 0-3.605 2.573 2.573 0 0 1 1.82-.749zM13.5.643c.71 0 1.354.286 1.82.749a2.534 2.534 0 0 1 0 3.605 2.573 2.573 0 0 1-1.82.749c-.71 0-1.354-.286-1.82-.749a2.534 2.534 0 0 1 0-3.605 2.573 2.573 0 0 1 1.82-.75z" stroke="#FDAD31"/>
    </g>
</svg>
