<svg width="36" height="23" viewBox="0 0 36 23" xmlns="http://www.w3.org/2000/svg">
    <g stroke-width="1.286" fill="none" fill-rule="evenodd">
        <path d="M17.357 8.306c0-3.882-3.166-7.028-7.071-7.028-3.906 0-7.072 3.146-7.072 7.028M17.357 18.081v4.28H3.214V8.306h14.143v4.653" stroke="#051344"/>
        <path d="M17.357 12.778a2.57 2.57 0 0 0-1.818.749 2.537 2.537 0 0 0-.753 1.806c0 .706.288 1.345.753 1.807a2.57 2.57 0 0 0 1.818.749 2.57 2.57 0 0 0 1.818-.749c.466-.462.754-1.1.754-1.807a2.57 2.57 0 0 0-2.571-2.556z" stroke="#FDAD31"/>
        <path stroke="#051344" d="m2.603.479 2.54 2.716M17.968.479l-2.54 2.715"/>
    </g>
</svg>
