<svg width="36" height="23" viewBox="0 0 36 23" xmlns="http://www.w3.org/2000/svg">
    <g stroke-width="1.286" fill="none" fill-rule="evenodd">
        <path d="M20.571 9.583V11.5c0 5.998-6.439 10.861-8.678 10.861-2.24 0-8.679-4.863-8.679-10.861V.639h17.357v3.833" stroke="#051344"/>
        <path d="M20.571 4.472a2.57 2.57 0 0 0-1.818.749A2.537 2.537 0 0 0 18 7.028c0 .706.288 1.345.753 1.807a2.57 2.57 0 0 0 1.818.748 2.57 2.57 0 0 0 1.818-.748c.466-.462.754-1.101.754-1.807s-.288-1.345-.754-1.807a2.57 2.57 0 0 0-1.818-.749z" stroke="#FDAD31"/>
        <path stroke="#051344" stroke-linecap="square" d="M11.893 7.347v6.389M8.678 10.542h6.43"/>
    </g>
</svg>
