<svg width="196" height="113" viewBox="0 0 196 113" fill="none" xmlns="http://www.w3.org/2000/svg">
<g clip-path="url(#clip0_35_3992)">
<path d="M60.0612 0H51.0913V56H60.0612V0Z" fill="white"/>
<path d="M91.4566 38.1821C91.4566 46.6016 84.2415 47.3847 82.2916 47.3847C77.0264 47.3847 75.8578 42.2936 75.8578 39.1611V18.0135H66.8865V39.3568C66.8865 44.6431 68.642 48.951 71.3718 52.0842C73.9066 54.6294 77.8057 55.9999 82.0973 55.9999C85.2171 55.9999 89.3124 55.2168 91.2623 52.8674V55.9999H100.232V18.0135H91.2597V38.1854L91.4566 38.1821Z" fill="white"/>
<path d="M117.978 4.50378H109.008V18.0143H102.378V27.0211H109.008V56H117.978V27.0211H124.608V18.0143H117.978V4.50378Z" fill="white"/>
<path d="M152.688 44.6431C150.739 46.4059 148.204 47.3848 145.473 47.3848C139.233 47.3848 134.748 42.8811 134.748 36.4195C134.748 29.9579 139.233 25.6506 145.473 25.6506C148.204 25.6506 150.739 26.4337 152.688 28.3916L154.053 29.5663L159.903 23.6921L158.539 22.3216C154.834 19.189 150.349 17.2305 145.474 17.2305C134.359 17.0327 126.168 25.0626 126.168 36.4195C126.168 47.3848 134.554 55.8043 145.474 55.8043C150.544 55.8043 155.225 54.0422 158.929 50.7132L160.295 49.3427L154.055 43.0802L152.688 44.6431Z" fill="white"/>
<path d="M192.079 21.342C189.544 18.7968 186.424 17.4256 182.329 17.4256C179.209 17.4256 175.895 18.2088 173.554 20.5588V0H164.584V56.0001H173.554V34.8558C173.554 26.4364 179.794 25.6532 181.744 25.6532C187.01 25.6532 187.01 30.7437 187.01 33.8769V56.0027H195.98V33.6785C196.175 28.7832 195.005 24.2794 192.079 21.342Z" fill="white"/>
<path d="M145.083 43.0775C148.637 43.0775 151.519 40.1845 151.519 36.6159C151.519 33.0472 148.637 30.1543 145.083 30.1543C141.529 30.1543 138.648 33.0472 138.648 36.6159C138.648 40.1845 141.529 43.0775 145.083 43.0775Z" fill="white"/>
<path d="M38.804 41.9022C35.4892 45.2305 30.614 47.189 25.9363 47.189C15.7958 47.189 8.58065 39.3569 8.58065 28.5874C8.58065 17.8179 15.7951 9.98578 25.7393 9.98578C30.4196 9.98578 34.9043 11.9443 38.607 15.2727L39.9719 16.6432L45.8287 10.7689L44.4638 9.39842C39.3909 4.30733 32.764 1.56567 25.7393 1.56567C10.9205 1.76344 0 13.3148 0 28.7832C0 44.2516 10.9205 55.8043 25.7406 55.8043C32.9557 55.8043 39.7809 53.0633 44.4612 47.9722L45.8287 46.6017L39.9785 40.3392L38.804 41.9022Z" fill="white"/>
</g>
<g clip-path="url(#clip1_35_3992)">
<path d="M56.4383 95.1632L52.5371 91.2714L57.9285 90.4692L60.3396 85.5021L62.7507 90.4692L68.1421 91.2714L64.2408 95.1632L65.1617 100.625L60.3396 98.0479L55.5175 100.625L56.4383 95.1632Z" fill="#FDAD31"/>
<path d="M60.3425 91.27L61.0792 92.8062L62.7368 93.0452L61.5313 94.24L61.8159 95.9299L60.3425 95.1447L58.8523 95.947L59.1369 94.2571L57.9314 93.0623L59.589 92.8233L60.3425 91.27ZM60.3425 79.7142L56.2571 88.1293L47.1318 89.4778L53.7288 96.0323L52.1716 105.301L60.3425 100.931L68.4966 105.301L66.9394 96.0323L73.5364 89.4778L64.4111 88.1293L60.3425 79.7142Z" fill="#FDAD31"/>
<path d="M89.7829 98.0479L84.9608 100.625L85.8817 95.1632L81.9805 91.2714L87.3719 90.4692L89.7829 85.5021L92.194 90.4692L97.6022 91.2714L93.6842 95.1632L94.6051 100.625L89.7829 98.0479Z" fill="#FDAD31"/>
<path d="M89.7858 91.27L90.5225 92.8062L92.1801 93.0452L90.9746 94.24L91.2593 95.9299L89.7691 95.1276L88.2789 95.9299L88.5635 94.24L87.358 93.0452L89.0156 92.8062L89.7858 91.27ZM89.7858 79.7142L85.7004 88.1464L76.5752 89.4948L83.1721 96.0494L81.615 105.318L89.7691 100.948L97.9232 105.318L96.366 96.0494L102.963 89.4948L93.8712 88.1293L89.7858 79.7142Z" fill="#FDAD31"/>
<path d="M119.243 98.0479L114.421 100.625L115.342 95.1632L111.424 91.2714L116.832 90.4692L119.243 85.5021L121.654 90.4692L127.046 91.2714L123.144 95.1632L124.065 100.625L119.243 98.0479Z" fill="#FDAD31"/>
<path d="M119.238 91.27L119.975 92.8062L121.632 93.0452L120.427 94.24L120.711 95.9299L119.221 95.1276L117.731 95.9299L118.016 94.24L116.81 93.0452L118.468 92.8062L119.238 91.27ZM119.238 79.7142L115.153 88.1464L106.027 89.4948L112.624 96.0494L111.067 105.318L119.221 100.948L127.375 105.318L125.818 96.0494L132.415 89.4948L123.29 88.1464L119.238 79.7142Z" fill="#FDAD31"/>
<path d="M144.777 95.1632L140.876 91.2714L146.267 90.4692L148.678 85.5021L151.09 90.4692L156.481 91.2714L152.58 95.1632L153.501 100.625L148.678 98.0479L143.856 100.625L144.777 95.1632Z" fill="#FDAD31"/>
<path d="M148.681 91.27L149.418 92.8062L151.076 93.0452L149.87 94.24L150.155 95.9299L148.665 95.1276L147.174 95.9299L147.459 94.24L146.254 93.0452L147.911 92.8062L148.681 91.27ZM148.681 79.7142L144.596 88.1464L135.471 89.4948L142.068 96.0494L140.511 105.318L148.665 100.948L156.819 105.318L155.262 96.0494L161.858 89.4948L152.733 88.1464L148.681 79.7142Z" fill="#FDAD31"/>
<path d="M178.128 80.2303L174.226 88.304L165.503 89.6013L171.815 95.8656L170.325 104.742L178.128 100.543L185.947 104.742L184.457 95.8656L190.769 89.6013L182.046 88.304L178.128 80.2303Z" fill="white"/>
<path d="M191.344 89.4637L182.219 88.1152L178.133 79.6831L174.048 88.1152L164.923 89.4637L171.52 96.0182L169.963 105.287L178.117 100.917L186.271 105.287L184.747 96.0182L191.344 89.4637ZM183.558 94.7722V90.0611L187.694 90.6756L183.558 94.7722Z" fill="#FDAD31"/>
</g>
<path d="M13.042 96.072C13.042 95.2653 12.778 94.6493 12.25 94.224C11.7367 93.7987 11.0767 93.586 10.27 93.586C8.96467 93.586 7.86467 94.07 6.97 95.038L5.43 94.114L6.64 86.612H14.824V89.098H8.796L8.29 92.046C8.89133 91.5327 9.77867 91.276 10.952 91.276C12.316 91.276 13.4527 91.7013 14.362 92.552C15.2713 93.388 15.726 94.5613 15.726 96.072C15.726 97.5973 15.198 98.8367 14.142 99.79C13.1007 100.743 11.7147 101.22 9.984 101.22C8.98667 101.22 8.03333 100.941 7.124 100.384C6.21467 99.8267 5.50333 99.0933 4.99 98.184C5.04867 98.1547 5.42267 97.92 6.112 97.48C6.80133 97.04 7.18267 96.8053 7.256 96.776C7.54933 97.304 7.94533 97.7367 8.444 98.074C8.94267 98.3967 9.456 98.558 9.984 98.558C10.908 98.558 11.6487 98.316 12.206 97.832C12.7633 97.348 13.042 96.7613 13.042 96.072ZM18.5647 100.736C18.2274 100.413 18.0587 100.017 18.0587 99.548C18.0587 99.0787 18.2274 98.6827 18.5647 98.36C18.902 98.0373 19.3054 97.876 19.7747 97.876C20.2587 97.876 20.6694 98.0373 21.0067 98.36C21.3587 98.668 21.5347 99.064 21.5347 99.548C21.5347 100.032 21.3587 100.435 21.0067 100.758C20.6694 101.066 20.2587 101.22 19.7747 101.22C19.3054 101.22 18.902 101.059 18.5647 100.736ZM24.1188 93.806C24.1188 88.834 25.9008 86.348 29.4648 86.348C30.4768 86.348 31.3348 86.5387 32.0388 86.92C32.7575 87.3013 33.3075 87.844 33.6888 88.548C34.0702 89.252 34.3415 90.0293 34.5028 90.88C34.6642 91.7307 34.7448 92.706 34.7448 93.806C34.7448 94.6713 34.6935 95.456 34.5908 96.16C34.5028 96.864 34.3342 97.5387 34.0848 98.184C33.8355 98.8293 33.5128 99.372 33.1168 99.812C32.7355 100.237 32.2295 100.582 31.5988 100.846C30.9828 101.095 30.2715 101.22 29.4648 101.22C25.9008 101.22 24.1188 98.7487 24.1188 93.806ZM26.8248 93.806C26.8248 96.9887 27.7048 98.58 29.4648 98.58C31.1955 98.58 32.0608 96.9887 32.0608 93.806C32.0608 90.594 31.1955 88.988 29.4648 88.988C27.7048 88.988 26.8248 90.594 26.8248 93.806Z" fill="white"/>
<defs>
<clipPath id="clip0_35_3992">
<rect width="196" height="56" fill="white"/>
</clipPath>
<clipPath id="clip1_35_3992">
<rect width="144" height="41" fill="white" transform="translate(47 72)"/>
</clipPath>
</defs>
</svg>
