<svg id="Warstwa_1" data-name="Warstwa 1" xmlns="http://www.w3.org/2000/svg" xmlns:xlink="http://www.w3.org/1999/xlink" viewBox="0 0 60 60"><defs><style>.cls-1{fill:none;}.cls-2{clip-path:url(#clip-path);}.cls-3{fill:#051344;}.cls-4{fill:#fdad31;}</style><clipPath id="clip-path"><rect class="cls-1" width="60" height="60"/></clipPath></defs><g class="cls-2"><path class="cls-3" d="M48.75,30.94A19,19,0,0,1,48,36.19a4.63,4.63,0,0,1,1.39.53l.34.22A20.63,20.63,0,0,0,34.67,10.85c0,.13,0,.26,0,.4a4.72,4.72,0,0,1-.24,1.47A18.79,18.79,0,0,1,48.75,30.94Z"/><path class="cls-3" d="M10.61,36.72A4.63,4.63,0,0,1,12,36.19a19,19,0,0,1-.75-5.25,18.79,18.79,0,0,1,14.3-18.22,4.72,4.72,0,0,1-.24-1.47c0-.14,0-.27,0-.4A20.63,20.63,0,0,0,10.27,36.94Z"/><path class="cls-3" d="M44.71,44.84a4.73,4.73,0,0,1-1.17-1,18.7,18.7,0,0,1-27.08,0,4.73,4.73,0,0,1-1.17,1,2.31,2.31,0,0,1-.35.18,20.61,20.61,0,0,0,30.12,0A2.31,2.31,0,0,1,44.71,44.84Z"/><path class="cls-4" d="M30,8.44a2.81,2.81,0,1,1-2.81,2.81A2.81,2.81,0,0,1,30,8.44m0-1.88a4.69,4.69,0,1,0,4.69,4.69A4.69,4.69,0,0,0,30,6.56Z"/><path class="cls-4" d="M13,38h0a2.81,2.81,0,0,1,1.41,5.25,2.91,2.91,0,0,1-1.41.37,2.81,2.81,0,0,1-2.72-3.54A2.83,2.83,0,0,1,13,38m0-1.88a4.69,4.69,0,1,0,0,9.38,4.6,4.6,0,0,0,2.34-.63A4.69,4.69,0,0,0,13,36.09Z"/><path class="cls-4" d="M47.05,38h0a2.83,2.83,0,0,1,2.72,2.08,2.81,2.81,0,0,1-2.72,3.54,2.91,2.91,0,0,1-1.41-.37A2.81,2.81,0,0,1,47.05,38m0-1.88a4.69,4.69,0,0,0-2.34,8.75,4.6,4.6,0,0,0,2.34.63,4.69,4.69,0,0,0,0-9.38Z"/></g></svg>