<svg width="168" height="48" viewBox="0 0 168 48" fill="none" xmlns="http://www.w3.org/2000/svg">
<path d="M24.0246 0.721937L38.4218 0.706055L14.2672 24.8737L7.97205 31.1402L0.80957 23.9613L24.0246 0.721937ZM23.8906 22.3008C24.0775 22.0537 24.4212 22.1755 24.6821 22.1437L38.4095 22.1472L25.8985 34.659L18.699 27.4961L23.8906 22.3008Z" fill="white"/>
<path d="M58.6571 10.8018L74.3518 10.8071L74.35 13.9006C70.2444 13.9006 66.1369 13.8882 62.0295 13.9059C61.7157 14.01 61.8637 14.4035 61.8285 14.6453L61.8408 22.9659C61.9448 23.2782 62.3397 23.1282 62.583 23.1671L73.1178 23.1618V26.2518C69.8424 26.25 66.5688 26.25 63.2934 26.2518C62.8069 26.25 62.315 26.22 61.8338 26.3029L61.7968 38.0488C60.7408 38.0065 59.6866 38.0453 58.6307 38.0223L58.6289 11.3012L58.6571 10.8018ZM78.1578 10.8071H81.3803L81.3821 29.2941L81.3468 37.9994C80.2979 37.98 79.249 37.9747 78.2019 38.0029C78.1208 37.5723 78.1543 37.1347 78.1543 36.7006L78.1578 10.8071ZM109.699 13.0994L112.932 13.1012L112.937 18.5718C114.518 18.6106 116.109 18.5012 117.686 18.6265C117.642 19.6076 117.679 20.5888 117.662 21.57C116.089 21.5735 114.518 21.5859 112.948 21.5629L112.935 32.4582C112.969 33.4676 113.184 34.687 114.164 35.2076C115.284 35.8447 116.659 35.5447 117.718 34.9306V38.1C116.551 38.6294 115.22 38.6929 113.967 38.5218C112.2 38.2518 110.508 37.0465 109.974 35.2941C109.619 34.3341 109.701 33.2982 109.694 32.2959L109.686 21.6847L109.607 21.5947C108.491 21.5347 107.372 21.6035 106.254 21.5647C106.261 20.5659 106.215 19.5671 106.279 18.57C107.414 18.5506 108.555 18.6212 109.688 18.5347L109.699 13.0994ZM123.357 13.0888C124.433 13.1259 125.508 13.0765 126.582 13.1135L126.656 13.1947C126.696 14.9912 126.601 16.7929 126.698 18.5859C128.23 18.5576 129.762 18.5806 131.292 18.5718L131.303 21.5471C129.762 21.6053 128.216 21.57 126.675 21.5612L126.657 32.6453C126.656 33.6106 126.934 34.7523 127.867 35.2271C129.011 35.8518 130.398 35.5306 131.461 34.8918L131.458 38.0788C130.324 38.5906 129.046 38.6894 127.823 38.5482C126.234 38.3365 124.68 37.4382 123.934 35.9823C123.574 35.22 123.373 34.3765 123.34 33.5347V21.5735C122.224 21.5718 121.11 21.5771 119.996 21.5735L120.003 18.5612C121.101 18.5912 122.199 18.5523 123.297 18.5894C123.414 16.7612 123.289 14.9206 123.357 13.0888ZM139.05 18.6741C141.282 17.7476 143.858 17.73 146.137 18.5065C148.748 19.4082 150.768 21.6882 151.508 24.3335C151.993 25.8 151.974 27.3582 151.905 28.8829L136.559 28.8988C136.686 30.5347 137.175 32.2023 138.31 33.4306C139.923 35.3135 142.699 36.0123 145.044 35.2729C146.689 34.7876 147.972 33.5206 148.817 32.0647C149.751 32.4829 150.659 32.9594 151.589 33.3882C150.317 35.8165 148.002 37.7453 145.282 38.2676C143.048 38.6859 140.605 38.6965 138.557 37.5918C135.898 36.27 134.068 33.5788 133.547 30.6847C133.168 28.4612 133.286 26.1088 134.121 23.9982C134.998 21.6812 136.769 19.6747 139.05 18.6741ZM140.265 21.4641C138.387 22.3323 137.178 24.2612 136.801 26.2518L148.57 26.2147C148.383 24.9141 147.921 23.5923 146.969 22.6518C145.301 20.8623 142.451 20.5129 140.265 21.4641ZM158.891 21.72C160.12 18.7323 163.894 17.1635 166.879 18.4147V21.9018C165.625 21.4076 164.22 21.1023 162.896 21.4923C161.088 22.0306 159.75 23.6453 159.237 25.4223C158.884 26.6223 159.016 27.8753 159.031 29.1053C158.893 30.6971 159.099 32.2906 158.995 33.8823C159.08 35.2571 158.921 36.6318 159.038 38.0082C157.941 38.0612 156.845 38.0047 155.75 38.0418C155.686 33.8929 155.741 29.7423 155.723 25.5918L155.748 18.6053C156.776 18.6335 157.805 18.6018 158.835 18.6265C158.928 19.6571 158.72 20.6929 158.891 21.72ZM86.0025 18.5665C87.0955 18.6123 88.1973 18.5012 89.2849 18.6247L89.2691 30.1906C89.2585 31.6041 89.4595 33.1482 90.4361 34.2459C91.6965 35.6435 93.8313 35.8994 95.5554 35.347C97.8595 34.5212 99.4672 32.0788 99.3738 29.6365L99.409 18.5665L102.7 18.5735L102.681 37.9941C101.637 37.9765 100.595 37.9941 99.5536 37.9818L99.5412 35.2182C98.8661 36.0671 98.1574 36.9265 97.1896 37.4612C95.2081 38.7123 92.6943 38.8782 90.4749 38.2376C89.0434 37.8053 87.7971 36.8012 87.0796 35.4882C86.2282 34.0447 86.0131 32.3382 85.9637 30.6935L86.0025 18.5665Z" fill="white"/>
<path d="M11.5225 34.6714L18.699 27.4961L25.8985 34.659L25.9285 34.6908L18.7008 41.859L11.5225 34.6714Z" fill="white"/>
<path d="M18.7002 41.8587L25.9279 34.6904L38.4142 47.2022C33.7109 47.2128 29.0094 47.1987 24.3078 47.2093C24.0399 47.2693 23.8742 47.024 23.7032 46.8722L18.7002 41.8587Z" fill="white"/>
</svg>
