<svg width="72" height="72" viewBox="0 0 72 72" fill="none" xmlns="http://www.w3.org/2000/svg">
<circle cx="36" cy="36" r="36" fill="#F1F7FF"/>
<path d="M27.7656 26.6562C28.1828 26.6562 28.5906 26.78 28.9375 27.0117C29.2844 27.2435 29.5548 27.573 29.7144 27.9584C29.8741 28.3438 29.9159 28.768 29.8345 29.1771C29.7531 29.5863 29.5522 29.9622 29.2572 30.2572C28.9622 30.5522 28.5863 30.7531 28.1771 30.8345C27.768 30.9159 27.3438 30.8741 26.9584 30.7144C26.573 30.5548 26.2435 30.2844 26.0117 29.9375C25.78 29.5906 25.6563 29.1828 25.6563 28.7656C25.6563 28.2062 25.8785 27.6697 26.2741 27.2741C26.6697 26.8785 27.2062 26.6562 27.7656 26.6562ZM27.7656 25.25C27.0703 25.25 26.3906 25.4562 25.8124 25.8425C25.2343 26.2288 24.7837 26.7779 24.5176 27.4203C24.2515 28.0627 24.1819 28.7695 24.3176 29.4515C24.4532 30.1335 24.788 30.7599 25.2797 31.2515C25.7714 31.7432 26.3978 32.078 27.0798 32.2137C27.7617 32.3494 28.4686 32.2797 29.111 32.0136C29.7534 31.7475 30.3025 31.2969 30.6888 30.7188C31.0751 30.1407 31.2813 29.4609 31.2813 28.7656C31.2813 27.8332 30.9109 26.939 30.2515 26.2797C29.5922 25.6204 28.698 25.25 27.7656 25.25Z" fill="#FDAD31"/>
<path d="M46.75 46.3438V39.3125H45.3438V46.3438H38.3125V47.75H45.3438V54.7812H46.75V47.75H53.7812V46.3438H46.75Z" fill="#051344"/>
<path d="M20.0312 25.25H21.4375V22.4375H24.25V21.0312H20.0312V25.25Z" fill="#051344"/>
<path d="M41.125 21.0312H36.9062V22.4375H41.125V21.0312Z" fill="#051344"/>
<path d="M35.5 21.0312H31.2812V22.4375H35.5V21.0312Z" fill="#051344"/>
<path d="M35.5 46.3438H31.2812V47.75H35.5V46.3438Z" fill="#051344"/>
<path d="M21.4375 43.5312H20.0312V47.75H24.25V46.3438H21.4375V43.5312Z" fill="#051344"/>
<path d="M29.875 46.3438H25.6562V47.75H29.875V46.3438Z" fill="#051344"/>
<path d="M29.875 21.0312H25.6562V22.4375H29.875V21.0312Z" fill="#051344"/>
<path d="M21.4375 26.6562H20.0312V30.875H21.4375V26.6562Z" fill="#051344"/>
<path d="M46.75 32.2812H45.3438V36.5H46.75V32.2812Z" fill="#051344"/>
<path d="M46.75 26.6562H45.3438V30.875H46.75V26.6562Z" fill="#051344"/>
<path d="M21.4375 37.9062H20.0312V42.125H21.4375V37.9062Z" fill="#051344"/>
<path d="M45.3438 25.25H46.75V21.0312H42.5312V22.4375H45.3438V25.25Z" fill="#051344"/>
<path d="M21.4375 32.2812H20.0312V36.5H21.4375V32.2812Z" fill="#051344"/>
</svg>
