<svg width="72" height="72" viewBox="0 0 72 72" fill="none" xmlns="http://www.w3.org/2000/svg">
<circle cx="36" cy="36" r="36" fill="#F1F7FF"/>
<path d="M43.9375 25.9531C44.3547 25.9531 44.7625 26.0768 45.1094 26.3086C45.4563 26.5404 45.7267 26.8698 45.8863 27.2553C46.046 27.6407 46.0877 28.0648 46.0063 28.474C45.925 28.8832 45.7241 29.2591 45.4291 29.5541C45.1341 29.8491 44.7582 30.05 44.349 30.1313C43.9398 30.2127 43.5157 30.171 43.1303 30.0113C42.7448 29.8517 42.4154 29.5813 42.1836 29.2344C41.9518 28.8875 41.8281 28.4797 41.8281 28.0625C41.8281 27.5031 42.0504 26.9665 42.4459 26.5709C42.8415 26.1754 43.3781 25.9531 43.9375 25.9531ZM43.9375 24.5469C43.2422 24.5469 42.5625 24.7531 41.9843 25.1394C41.4062 25.5257 40.9556 26.0747 40.6895 26.7171C40.4234 27.3595 40.3538 28.0664 40.4894 28.7484C40.6251 29.4303 40.9599 30.0568 41.4516 30.5484C41.9432 31.0401 42.5697 31.3749 43.2516 31.5106C43.9336 31.6462 44.6405 31.5766 45.2829 31.3105C45.9253 31.0444 46.4743 30.5938 46.8606 30.0157C47.2469 29.4375 47.4531 28.7578 47.4531 28.0625C47.4531 27.1301 47.0827 26.2359 46.4234 25.5766C45.7641 24.9173 44.8699 24.5469 43.9375 24.5469Z" fill="#FDAD31"/>
<path d="M47.4531 28.0625C47.4568 28.5456 47.3611 29.0243 47.1719 29.4688C48.4312 30.0494 49.5113 30.9581 50.2988 32.0996C51.0862 33.2411 51.5522 34.5733 51.6478 35.9568C51.7435 37.3403 51.4652 38.724 50.8423 39.963C50.2194 41.202 49.2746 42.2506 48.1072 42.999C46.9397 43.7474 45.5924 44.168 44.2064 44.2168C42.8205 44.2655 41.447 43.9406 40.2298 43.2761C39.0126 42.6115 37.9966 41.6319 37.2881 40.4397C36.5797 39.2475 36.2049 37.8868 36.2031 36.5C36.2031 34.8456 35.7541 33.2221 34.9039 31.8028C34.0537 30.3835 32.8343 29.2216 31.3756 28.4409C29.9169 27.6603 28.2737 27.2902 26.6212 27.37C24.9686 27.4499 23.3688 27.9768 21.9922 28.8945C20.6156 29.8123 19.5139 31.0864 18.8046 32.5811C18.0953 34.0758 17.8049 35.7349 17.9645 37.3817C18.1241 39.0284 18.7276 40.6009 19.7107 41.9316C20.6939 43.2623 22.0197 44.3012 23.5469 44.9375C23.5432 44.4544 23.6389 43.9757 23.8281 43.5313C22.5688 42.9506 21.4888 42.0419 20.7013 40.9004C19.9138 39.759 19.4478 38.4267 19.3522 37.0432C19.2565 35.6597 19.5348 34.276 20.1577 33.037C20.7806 31.798 21.7254 30.7494 22.8929 30.001C24.0604 29.2526 25.4077 28.832 26.7936 28.7832C28.1795 28.7345 29.553 29.0594 30.7702 29.7239C31.9874 30.3885 33.0034 31.3681 33.7119 32.5603C34.4203 33.7525 34.7951 35.1132 34.7969 36.5C34.7969 38.1545 35.2459 39.7779 36.0961 41.1972C36.9463 42.6165 38.1657 43.7784 39.6244 44.5591C41.0831 45.3397 42.7263 45.7099 44.3789 45.63C46.0314 45.5501 47.6312 45.0232 49.0078 44.1055C50.3844 43.1877 51.4861 41.9136 52.1954 40.4189C52.9047 38.9242 53.1951 37.2651 53.0355 35.6183C52.8759 33.9716 52.2724 32.3991 51.2893 31.0684C50.3062 29.7377 48.9803 28.6988 47.4531 28.0625Z" fill="#051344"/>
<path d="M27.0625 42.8281C27.4797 42.8281 27.8875 42.9518 28.2344 43.1836C28.5813 43.4154 28.8517 43.7448 29.0113 44.1303C29.171 44.5157 29.2127 44.9398 29.1313 45.349C29.05 45.7582 28.8491 46.1341 28.5541 46.4291C28.2591 46.7241 27.8832 46.925 27.474 47.0063C27.0648 47.0877 26.6407 47.046 26.2553 46.8863C25.8698 46.7267 25.5404 46.4563 25.3086 46.1094C25.0768 45.7625 24.9531 45.3547 24.9531 44.9375C24.9531 44.3781 25.1754 43.8415 25.5709 43.4459C25.9665 43.0504 26.5031 42.8281 27.0625 42.8281ZM27.0625 41.4219C26.3672 41.4219 25.6875 41.6281 25.1093 42.0144C24.5312 42.4007 24.0806 42.9497 23.8145 43.5921C23.5484 44.2345 23.4788 44.9414 23.6144 45.6234C23.7501 46.3053 24.0849 46.9318 24.5766 47.4234C25.0682 47.9151 25.6947 48.2499 26.3766 48.3856C27.0586 48.5212 27.7655 48.4516 28.4079 48.1855C29.0503 47.9194 29.5993 47.4688 29.9856 46.8907C30.3719 46.3125 30.5781 45.6328 30.5781 44.9375C30.5781 44.0051 30.2077 43.1109 29.5484 42.4516C28.8891 41.7923 27.9949 41.4219 27.0625 41.4219Z" fill="#FDAD31"/>
</svg>
