<svg width="598" height="481" viewBox="0 0 598 481" fill="none" xmlns="http://www.w3.org/2000/svg">
<path fill-rule="evenodd" clip-rule="evenodd" d="M196.886 479.602C91.7194 485.598 29.9579 437.8 8.56183 368.527C-12.8319 299.253 6.13739 208.5 62.4372 128.586C272.562 -169.679 663.754 117.871 588.529 316.863C551.789 414.052 442.171 450.983 336.944 466.886C286.389 474.529 236.847 477.317 196.886 479.602Z" fill="#F9FBFF"/>
<g clip-path="url(#clip0_261_6318)">
<g filter="url(#filter0_d_261_6318)">
<path d="M224.1 174L210.1 150.2L224.1 126.5H252.2L266.3 150.2L252.2 174H224.1Z" fill="#494E9D"/>
<path d="M268.9 199.2L254.9 175.5L268.9 151.7H297.1L311.1 175.5L297.1 199.2H268.9Z" fill="#C3DBFA"/>
<path d="M313.8 174L299.7 150.2L313.8 126.5H341.9L356 150.2L341.9 174H313.8Z" fill="#C3DBFA"/>
<path d="M224.1 224.4L210.1 200.7L224.1 177H252.2L266.3 200.7L252.2 224.4H224.1Z" fill="#494E9D"/>
<path d="M268.9 249.7L254.9 225.9L268.9 202.2H297.1L311.1 225.9L297.1 249.7H268.9Z" fill="#C3DBFA"/>
<path d="M313.8 224.4L299.7 200.7L313.8 177H341.9L356 200.7L341.9 224.4H313.8Z" fill="#C3DBFA"/>
<path d="M313.8 274.9L299.7 251.2L313.8 227.4H341.9L356 251.2L341.9 274.9H313.8Z" fill="#C3DBFA"/>
<path d="M237.8 196.1V197.7H234.8V206.4H232.9V197.7H229.9V196.1H237.8Z" fill="white"/>
<path d="M241.5 204.7H245.6V206.3H239.6V196H241.5V204.7Z" fill="white"/>
<path d="M231.2 145.6C233.5 145.6 234.5 147.3 234.5 148.9C234.5 150.6 233.5 152.2 231.2 152.2H228.8V155.9H226.9V145.6H231.2ZM231.1 150.6C232.2 150.6 232.7 149.8 232.7 148.9C232.7 148.1 232.3 147.2 231.2 147.2H228.8V150.5H231.1V150.6Z" fill="white"/>
<path d="M248.6 155.9H246.7L245.9 149L243 154.8H241.5L238.6 149.1L237.7 156H235.8L237.1 145.7H238.7L242.2 152.8L245.6 145.7H247.2L248.6 155.9Z" fill="white"/>
<path d="M140.1 123.5L126 99.7L140.1 76H168.2L182.3 99.7L168.2 123.5H140.1Z" fill="#EF5B22"/>
<path d="M140.1 174L126 150.2L140.1 126.5H168.2L182.3 150.2L168.2 174H140.1Z" fill="#EF5B22"/>
<path d="M148.2 145.6C150.5 145.6 151.5 147.3 151.5 148.9C151.5 150.6 150.5 152.2 148.2 152.2H145.8V155.9H143.9V145.6H148.2ZM148.1 150.6C149.2 150.6 149.7 149.8 149.7 148.9C149.7 148.1 149.3 147.2 148.2 147.2H145.8V150.5H148.1V150.6Z" fill="white"/>
<path d="M152.9 150.8C152.9 147.9 155.3 145.5 158.3 145.5C161.3 145.5 163.7 147.9 163.7 150.8C163.7 153.7 161.3 156.1 158.3 156.1C155.2 156.1 152.9 153.7 152.9 150.8ZM161.8 150.8C161.8 148.8 160.3 147.2 158.3 147.2C156.3 147.2 154.8 148.9 154.8 150.8C154.8 152.8 156.3 154.4 158.3 154.4C160.3 154.4 161.8 152.7 161.8 150.8Z" fill="white"/>
<path d="M153.7 95.1001V96.7001H150.7V105.4H148.8V96.7001H145.8V95.1001H153.7Z" fill="white"/>
<path d="M157.5 103.8H161.6V105.4H155.6V95.1001H157.5V103.8Z" fill="white"/>
<path d="M281.3 230.9L282.3 232.6L280.9 233.4L279.8 231.6C279.3 231.7 278.8 231.8 278.2 231.8C275.2 231.8 272.8 229.4 272.8 226.5C272.8 223.6 275.2 221.2 278.2 221.2C281.2 221.2 283.6 223.6 283.6 226.5C283.7 228.3 282.8 229.9 281.3 230.9ZM278.9 230L277.9 228.4L279.3 227.6L280.4 229.4C281.3 228.7 281.8 227.7 281.8 226.5C281.8 224.5 280.3 222.9 278.3 222.9C276.3 222.9 274.8 224.6 274.8 226.5C274.8 228.5 276.3 230.1 278.3 230.1C278.5 230.1 278.7 230.1 278.9 230Z" fill="white"/>
<path d="M292.3 231.6L291.4 229.1H287.2L286.3 231.6H284.3L288.3 221.3H290.3L294.3 231.6H292.3ZM287.8 227.5H290.8L289.3 223.3L287.8 227.5Z" fill="white"/>
<path d="M264.8 173.4C267.1 173.4 268.4 175.1 268.4 177.3C268.4 179.5 267.1 181.2 264.8 181.2H261.7V173.5H264.8V173.4ZM264.8 179.9C266.2 179.9 267 178.7 267 177.3C267 175.9 266.3 174.6 264.8 174.6H263.1V179.9H264.8Z" fill="white"/>
<path d="M271.5 179.9H275.1V181.1H270.1V173.4H275V174.6H271.5V176.7H274.6V177.9H271.5V179.9Z" fill="white"/>
<path d="M280.7 173.4H282.2L279.8 181.1H278.5L276.1 173.4H277.6L279.2 178.9L280.7 173.4Z" fill="white"/>
<path d="M282.9 177.3C282.9 175.1 284.7 173.3 286.9 173.3C289.2 173.3 290.9 175.1 290.9 177.3C290.9 179.5 289.1 181.3 286.9 181.3C284.7 181.3 282.9 179.5 282.9 177.3ZM289.6 177.3C289.6 175.8 288.5 174.6 287 174.6C285.5 174.6 284.4 175.8 284.4 177.3C284.4 178.8 285.5 180 287 180C288.5 180 289.6 178.8 289.6 177.3Z" fill="white"/>
<path d="M295.9 173.4C297.7 173.4 298.4 174.6 298.4 175.9C298.4 177.2 297.6 178.4 295.9 178.4H294.1V181.2H292.7V173.5H295.9V173.4ZM295.8 177.1C296.6 177.1 297 176.5 297 175.9C297 175.3 296.7 174.6 295.9 174.6H294.1V177.1H295.8Z" fill="white"/>
<path d="M299.4 178.9H300.8C300.8 179.5 301.4 180.1 302.3 180.1C303.1 180.1 303.6 179.6 303.6 179C303.6 178.5 303.1 178.1 302.5 178L301.5 177.7C299.8 177.3 299.5 176.3 299.5 175.6C299.5 174.2 300.7 173.3 302.2 173.3C303.7 173.3 304.8 174.2 304.8 175.6H303.4C303.4 175 302.9 174.5 302.2 174.5C301.5 174.5 301 174.9 301 175.6C301 175.8 301.1 176.3 302 176.5L302.9 176.8C304.1 177.1 305.1 177.8 305.1 179C305.1 180.4 303.9 181.4 302.3 181.4C300.5 181.3 299.4 180.2 299.4 178.9Z" fill="white"/>
<path d="M319.1 196.3C322.1 196.3 323.9 198.5 323.9 201.5C323.9 204.4 322.1 206.6 319.1 206.6H314.9V196.3H319.1ZM319.1 204.9C321 204.9 322 203.3 322 201.4C322 199.5 321 197.9 319.1 197.9H316.8V205H319.1V204.9Z" fill="white"/>
<path d="M328 204.9H332.8V206.5H326.1V196.2H332.6V197.8H327.9V200.6H332V202.3H327.9V204.9H328Z" fill="white"/>
<path d="M340.3 196.3H342.3L339.1 206.6H337.4L334.2 196.3H336.2L338.3 203.6L340.3 196.3Z" fill="white"/>
<path d="M322.7 145.8C325 145.8 326 147.5 326 149.1C326 150.8 325 152.4 322.7 152.4H320.3V156.1H318.4V145.8H322.7ZM322.6 150.7C323.7 150.7 324.2 149.9 324.2 149C324.2 148.2 323.8 147.3 322.7 147.3H320.3V150.6H322.6V150.7Z" fill="white"/>
<path d="M327.3 150.9C327.3 148 329.7 145.6 332.7 145.6C335.7 145.6 338.1 148 338.1 150.9C338.1 153.8 335.7 156.2 332.7 156.2C329.7 156.3 327.3 153.9 327.3 150.9ZM336.2 150.9C336.2 148.9 334.7 147.3 332.7 147.3C330.7 147.3 329.2 149 329.2 150.9C329.2 152.9 330.7 154.5 332.7 154.5C334.7 154.6 336.2 152.9 336.2 150.9Z" fill="white"/>
<path d="M319.1 246.5C322.1 246.5 323.9 248.7 323.9 251.7C323.9 254.6 322.1 256.8 319.1 256.8H314.9V246.5H319.1ZM319.1 255.2C321 255.2 322 253.6 322 251.7C322 249.8 321 248.2 319.1 248.2H316.8V255.3H319.1V255.2Z" fill="white"/>
<path d="M328 255.2H332.8V256.8H326.1V246.5H332.6V248.1H327.9V250.9H332V252.6H327.9V255.2H328Z" fill="white"/>
<path d="M340.3 246.5H342.3L339.1 256.8H337.4L334.2 246.5H336.2L338.3 253.8L340.3 246.5Z" fill="white"/>
<path d="M385.1 249.7L371 225.9L385.1 202.2H413.2L427.3 225.9L413.2 249.7H385.1Z" fill="#C3DBFA"/>
<path d="M430 224.4L415.9 200.7L430 177H458.1L472.2 200.7L458.1 224.4H430Z" fill="#C3DBFA"/>
<path d="M430 274.9L415.9 251.2L430 227.4H458.1L472.2 251.2L458.1 274.9H430Z" fill="#C3DBFA"/>
<path d="M384.5 174.2V175.3H381.4V178.4H380.3V175.3H377.2V174.2H380.3V171.1H381.4V174.2H384.5Z" fill="#48499A"/>
<path d="M407.5 160.1H398.9" stroke="#484DA4" stroke-linejoin="round"/>
<path d="M410.301 160.1H415.301V165V185.7H391V165V160.1H396.1" stroke="#484DA4" stroke-linejoin="round"/>
<path d="M398.901 157.6H396.101V162.7H398.901V157.6Z" stroke="#484DA4" stroke-linejoin="round"/>
<path d="M410.301 157.6H407.5V162.7H410.301V157.6Z" stroke="#484DA4" stroke-linejoin="round"/>
<path d="M391 165H415.301" stroke="#484DA4" stroke-linejoin="round"/>
<path d="M406.401 173.6C406.401 175 405.201 176.4 403.301 176.4C401.201 176.4 400.101 175 400.101 172.3C400.101 170.3 400.901 167.7 403.701 167.7C404.701 167.7 405.801 168.1 406.401 169.4L405.301 169.8C404.901 169 404.301 168.7 403.601 168.7C402.301 168.7 401.201 170.2 401.301 171.8C401.701 171.2 402.401 170.7 403.401 170.7C405.201 170.8 406.401 172.1 406.401 173.6ZM405.201 173.5C405.201 172.6 404.401 171.8 403.401 171.8C402.301 171.8 401.401 172.5 401.401 173.4C401.401 174.4 402.201 175.2 403.301 175.2C404.301 175.3 405.201 174.5 405.201 173.5Z" fill="#48499A"/>
<path d="M399.601 182.9H398.601L398.201 180L397.001 182.4H396.201L395.001 180L394.601 182.9H393.601L394.201 178.2H395.001L396.501 181.3L398.001 178.2H398.801L399.601 182.9Z" fill="#48499A"/>
<path d="M403.6 178.1V178.9H402.301V182.8H401.301V179H400V178.2H403.6V178.1Z" fill="#48499A"/>
<path d="M407.101 178.1H408.101V182.8H407.101V180.9H405.301V182.8H404.301V178.1H405.301V180H407.101V178.1Z" fill="#48499A"/>
<path d="M409 181.5H410C410 181.8 410.301 182.1 410.801 182.1C411.201 182.1 411.5 181.9 411.5 181.5C411.5 181.2 411.301 181.1 410.901 180.9L410.301 180.7C409.201 180.4 409 179.8 409 179.4C409 178.6 409.701 178 410.701 178C411.601 178 412.301 178.5 412.301 179.4H411.301C411.301 179.1 411.1 178.8 410.6 178.8C410.2 178.8 409.901 179 409.901 179.4C409.901 179.5 409.901 179.8 410.401 179.9L410.901 180.1C411.601 180.3 412.301 180.7 412.301 181.5C412.301 182.4 411.5 183 410.6 183C409.7 182.9 409 182.3 409 181.5Z" fill="#48499A"/>
<path d="M381.8 196.7C380.7 182.6 367.2 174.8 357.7 174.2" stroke="#484DA4" stroke-linejoin="round"/>
<path d="M361.7 170.2L362.4 171L358 174.3L361.6 178.4L360.8 179.1L356.4 174.1L361.7 170.2Z" fill="#484DA4"/>
<path d="M201.6 125.1C201.6 125.1 196.3 131.9 189.8 131.9C183.3 131.9 178 125.1 178 125.1C178 125.1 183.3 118.3 189.8 118.3C196.3 118.3 201.6 125.1 201.6 125.1Z" stroke="#484DA4" stroke-width="1.1" stroke-linejoin="round"/>
<path d="M189.8 129.1C192.064 129.1 193.9 127.309 193.9 125.1C193.9 122.891 192.064 121.1 189.8 121.1C187.536 121.1 185.7 122.891 185.7 125.1C185.7 127.309 187.536 129.1 189.8 129.1Z" stroke="#484DA4" stroke-width="1.1" stroke-linejoin="round"/>
<path d="M175.1 303H440.8C443.5 303 445.6 305.2 445.6 307.8V372.8C445.6 375.5 443.4 377.6 440.8 377.6H175.1C172.4 377.6 170.3 375.4 170.3 372.8V307.8C170.3 305.2 172.4 303 175.1 303Z" fill="white"/>
<path d="M196.2 332.5H189L185.4 338.7L189 344.9H196.2L199.8 338.7L196.2 332.5Z" fill="#494E9D"/>
<path d="M196.2 352H189L185.4 358.2L189 364.4H196.2L199.8 358.2L196.2 352Z" fill="#C3DBFA"/>
<path d="M194.2 321.8H193L192.5 317.2L190.6 321H189.6L187.7 317.2L187.1 321.8H185.9L186.7 314.9H187.8L190 319.6L192.2 314.9H193.3L194.2 321.8Z" fill="#48499A"/>
<path d="M195.6 321.8V314.9H196.8V321.8H195.6Z" fill="#48499A"/>
<path d="M203.6 321.3L204.3 322.4L203.4 322.9L202.7 321.7C202.4 321.8 202 321.9 201.7 321.9C199.7 321.9 198.2 320.3 198.2 318.3C198.2 316.4 199.7 314.7 201.7 314.7C203.7 314.7 205.2 316.3 205.2 318.3C205.1 319.5 204.5 320.6 203.6 321.3ZM202 320.7L201.3 319.6L202.2 319.1L202.9 320.3C203.5 319.9 203.8 319.1 203.8 318.3C203.8 317 202.8 315.9 201.5 315.9C200.2 315.9 199.2 317 199.2 318.3C199.2 319.6 200.1 320.7 201.5 320.7C201.8 320.7 201.9 320.7 202 320.7Z" fill="#48499A"/>
<path d="M206.4 319.4V314.9H207.6V319.3C207.6 320.3 208.2 320.7 209 320.7C209.7 320.7 210.4 320.3 210.4 319.3V314.9H211.6V319.4C211.6 321 210.4 321.9 209 321.9C207.6 321.9 206.4 320.9 206.4 319.4Z" fill="#48499A"/>
<path d="M213.3 321.8V314.9H214.5V321.8H213.3Z" fill="#48499A"/>
<path d="M218.9 314.9C220.9 314.9 222 316.4 222 318.4C222 320.3 220.9 321.8 218.9 321.8H216.2V314.9H218.9ZM218.9 320.7C220.1 320.7 220.8 319.6 220.8 318.4C220.8 317.1 220.2 316 218.9 316H217.4V320.7H218.9Z" fill="#48499A"/>
<path d="M223 318.3C223 316.4 224.5 314.7 226.5 314.7C228.5 314.7 230 316.3 230 318.3C230 320.2 228.5 321.9 226.5 321.9C224.5 321.9 223 320.3 223 318.3ZM228.8 318.3C228.8 317 227.8 315.9 226.5 315.9C225.2 315.9 224.2 317 224.2 318.3C224.2 319.6 225.1 320.7 226.5 320.7C227.8 320.7 228.8 319.6 228.8 318.3Z" fill="#48499A"/>
<path d="M209.3 334C210.8 334 211.5 335.1 211.5 336.2C211.5 337.3 210.9 338.4 209.3 338.4H207.7V340.9H206.5V334H209.3ZM209.2 337.3C209.9 337.3 210.2 336.8 210.2 336.2C210.2 335.7 209.9 335.1 209.2 335.1H207.7V337.3H209.2Z" fill="#48499A"/>
<path d="M215.6 336.3L215.4 337.4C215.1 337.3 214.9 337.2 214.7 337.2C213.9 337.2 213.5 338 213.5 339.3V340.9H212.3V336.2H213.5V337.2C213.7 336.4 214.3 336.1 214.8 336.1C215.1 336.1 215.4 336.2 215.6 336.3Z" fill="#48499A"/>
<path d="M215.9 338.6C215.9 337.1 217 336.2 218.4 336.2C219.8 336.2 220.9 337.2 220.9 338.6C220.9 340 219.7 341.1 218.4 341.1C217.1 341.1 215.9 340 215.9 338.6ZM219.7 338.6C219.7 337.8 219.1 337.2 218.4 337.2C217.7 337.2 217.1 337.8 217.1 338.6C217.1 339.4 217.7 340 218.4 340C219.1 340 219.7 339.4 219.7 338.6Z" fill="#48499A"/>
<path d="M220.7 343.2V342.1H221.3C221.9 342.1 222.1 341.6 222.1 341.1V336.2H223.3V341C223.3 342.3 222.7 343.1 221.4 343.1H220.7V343.2ZM221.9 334.6C221.9 334.2 222.2 333.9 222.6 333.9C223 333.9 223.4 334.2 223.4 334.6C223.4 335 223.1 335.3 222.6 335.3C222.2 335.3 221.9 335 221.9 334.6Z" fill="#48499A"/>
<path d="M229.1 339H225.5C225.6 339.6 226.1 340 226.8 340C227.3 340 227.8 339.8 228.1 339.4L228.9 340C228.5 340.7 227.6 341.1 226.8 341.1C225.4 341.1 224.4 340.1 224.4 338.6C224.4 337.1 225.5 336.2 226.8 336.2C228.1 336.2 229.2 337.1 229.2 338.6C229.2 338.7 229.2 338.8 229.1 339ZM228 338.2C227.9 337.6 227.4 337.2 226.8 337.2C226.2 337.2 225.7 337.5 225.5 338.2H228Z" fill="#48499A"/>
<path d="M229.9 338.6C229.9 337.1 231.1 336.2 232.4 336.2C233.2 336.2 233.9 336.6 234.3 337.1L233.5 337.7C233.3 337.4 232.9 337.2 232.4 337.2C231.6 337.2 231 337.8 231 338.6C231 339.4 231.6 340 232.4 340C232.8 340 233.2 339.8 233.5 339.5L234.3 340.2C233.9 340.7 233.2 341.1 232.4 341.1C231.1 341 229.9 340 229.9 338.6Z" fill="#48499A"/>
<path d="M237.9 336.2V337.1H236.9V340.8H235.7V337.1H234.9V336.2H235.7V334.5H236.9V336.2H237.9Z" fill="#48499A"/>
<path d="M242.7 339.8H245.4V340.9H241.5V334H242.7V339.8Z" fill="#48499A"/>
<path d="M250.7 339H247.1C247.2 339.6 247.7 340 248.4 340C248.9 340 249.4 339.8 249.7 339.4L250.5 340C250.1 340.7 249.2 341.1 248.4 341.1C247 341.1 246 340.1 246 338.6C246 337.1 247.1 336.2 248.4 336.2C249.7 336.2 250.8 337.1 250.8 338.6C250.7 338.7 250.7 338.8 250.7 339ZM249.6 338.2C249.5 337.6 249 337.2 248.4 337.2C247.8 337.2 247.3 337.5 247.1 338.2H249.6Z" fill="#48499A"/>
<path d="M255.4 336.2H256.6V340.9H255.4V340.2C255.1 340.7 254.5 341 253.8 341C252.6 341 251.6 340 251.6 338.5C251.6 337.1 252.6 336.1 253.9 336.1C254.5 336.1 255.2 336.4 255.5 336.9V336.2H255.4ZM255.3 338.6C255.3 337.8 254.6 337.2 254 337.2C253.3 337.2 252.7 337.8 252.7 338.6C252.7 339.4 253.3 340 254 340C254.7 339.9 255.3 339.3 255.3 338.6Z" fill="#48499A"/>
<path d="M261.5 333.7H262.7V340.9H261.5V340.3C261.2 340.8 260.5 341 260 341C258.8 341 257.7 340 257.7 338.5C257.7 337 258.8 336.1 260 336.1C260.6 336.1 261.2 336.3 261.6 336.8V333.7H261.5ZM261.4 338.6C261.4 337.8 260.7 337.2 260.1 337.2C259.4 337.2 258.8 337.8 258.8 338.6C258.8 339.4 259.4 340 260.1 340C260.8 339.9 261.4 339.4 261.4 338.6Z" fill="#48499A"/>
<path d="M268.5 339H264.9C265 339.6 265.5 340 266.2 340C266.7 340 267.2 339.8 267.5 339.4L268.3 340C267.9 340.7 267 341.1 266.2 341.1C264.8 341.1 263.8 340.1 263.8 338.6C263.8 337.1 264.9 336.2 266.2 336.2C267.5 336.2 268.6 337.1 268.6 338.6C268.6 338.7 268.5 338.8 268.5 339ZM267.4 338.2C267.3 337.6 266.8 337.2 266.2 337.2C265.6 337.2 265.1 337.5 264.9 338.2H267.4Z" fill="#48499A"/>
<path d="M272.9 336.3L272.7 337.4C272.4 337.3 272.2 337.2 272 337.2C271.2 337.2 270.8 338 270.8 339.3V340.9H269.6V336.2H270.8V337.2C271 336.4 271.6 336.1 272.1 336.1C272.4 336.1 272.7 336.2 272.9 336.3Z" fill="#48499A"/>
<path d="M273.3 339.5H274.4C274.4 339.8 274.7 340.1 275.2 340.1C275.7 340.1 276 339.9 276 339.6C276 339.3 275.8 339.2 275.5 339.1L274.9 338.9C273.9 338.6 273.6 338.1 273.6 337.5C273.6 336.8 274.3 336.1 275.3 336.1C276.1 336.1 277.1 336.5 277.1 337.6H276C276 337.3 275.7 337.1 275.4 337.1C275 337.1 274.8 337.3 274.8 337.6C274.8 337.8 275 338 275.3 338L276 338.2C277 338.5 277.2 339.1 277.2 339.6C277.2 340.6 276.3 341.1 275.3 341.1C274.2 341 273.3 340.5 273.3 339.5Z" fill="#48499A"/>
<path d="M282.6 338.3V340.9H281.4V338.4C281.4 337.7 281 337.3 280.4 337.3C279.9 337.3 279.2 337.6 279.2 338.5V341H278V333.8H279.2V337C279.4 336.4 280.2 336.2 280.6 336.2C281.9 336.1 282.6 336.9 282.6 338.3Z" fill="#48499A"/>
<path d="M283.7 334.6C283.7 334.2 284 333.9 284.5 333.9C284.9 333.9 285.2 334.2 285.2 334.6C285.2 335 284.9 335.3 284.5 335.3C284.1 335.3 283.7 335 283.7 334.6ZM283.9 340.9V336.2H285.1V340.9H283.9Z" fill="#48499A"/>
<path d="M291.5 338.6C291.5 340.1 290.4 341 289.2 341C288.6 341 288 340.8 287.6 340.3V343.2H286.4V336.3H287.6V336.9C287.9 336.4 288.6 336.2 289.1 336.2C290.4 336.1 291.5 337.1 291.5 338.6ZM290.3 338.6C290.3 337.8 289.7 337.2 289 337.2C288.3 337.2 287.7 337.8 287.7 338.6C287.7 339.4 288.4 340 289 340C289.7 339.9 290.3 339.4 290.3 338.6Z" fill="#48499A"/>
<path d="M209.3 353.5C210.8 353.5 211.5 354.6 211.5 355.7C211.5 356.8 210.9 357.9 209.3 357.9H207.7V360.4H206.5V353.5H209.3ZM209.2 356.8C209.9 356.8 210.2 356.3 210.2 355.7C210.2 355.2 209.9 354.6 209.2 354.6H207.7V356.8H209.2Z" fill="#48499A"/>
<path d="M215.6 355.7L215.4 356.8C215.1 356.7 214.9 356.6 214.7 356.6C213.9 356.6 213.5 357.4 213.5 358.7V360.3H212.3V355.6H213.5V356.6C213.7 355.8 214.3 355.5 214.8 355.5C215.1 355.6 215.4 355.6 215.6 355.7Z" fill="#48499A"/>
<path d="M215.9 358C215.9 356.5 217 355.6 218.4 355.6C219.8 355.6 220.9 356.6 220.9 358C220.9 359.4 219.7 360.5 218.4 360.5C217.1 360.5 215.9 359.5 215.9 358ZM219.7 358C219.7 357.2 219.1 356.6 218.4 356.6C217.7 356.6 217.1 357.2 217.1 358C217.1 358.8 217.7 359.4 218.4 359.4C219.1 359.4 219.7 358.8 219.7 358Z" fill="#48499A"/>
<path d="M220.7 362.6V361.5H221.3C221.9 361.5 222.1 361 222.1 360.5V355.6H223.3V360.4C223.3 361.7 222.7 362.5 221.4 362.5H220.7V362.6ZM221.9 354C221.9 353.6 222.2 353.3 222.6 353.3C223 353.3 223.4 353.6 223.4 354C223.4 354.4 223.1 354.7 222.6 354.7C222.2 354.8 221.9 354.4 221.9 354Z" fill="#48499A"/>
<path d="M229.1 358.4H225.5C225.6 359 226.1 359.4 226.8 359.4C227.3 359.4 227.8 359.2 228.1 358.8L228.9 359.4C228.5 360.1 227.6 360.5 226.8 360.5C225.4 360.5 224.4 359.5 224.4 358C224.4 356.5 225.5 355.6 226.8 355.6C228.1 355.6 229.2 356.5 229.2 358C229.2 358.1 229.2 358.3 229.1 358.4ZM228 357.6C227.9 357 227.4 356.6 226.8 356.6C226.2 356.6 225.7 356.9 225.5 357.6H228Z" fill="#48499A"/>
<path d="M229.9 358C229.9 356.5 231.1 355.6 232.4 355.6C233.2 355.6 233.9 356 234.3 356.5L233.5 357.1C233.3 356.8 232.9 356.6 232.4 356.6C231.6 356.6 231 357.2 231 358C231 358.8 231.6 359.4 232.4 359.4C232.8 359.4 233.2 359.2 233.5 358.9L234.3 359.6C233.9 360.1 233.2 360.5 232.4 360.5C231.1 360.5 229.9 359.5 229.9 358Z" fill="#48499A"/>
<path d="M237.9 355.7V356.6H236.9V360.3H235.7V356.6H234.9V355.7H235.7V354H236.9V355.7H237.9Z" fill="#48499A"/>
<path d="M245.6 353.5V354.6H243.6V360.4H242.4V354.6H240.4V353.5H245.6Z" fill="#48499A"/>
<path d="M250.2 358.4H246.6C246.7 359 247.2 359.4 247.9 359.4C248.4 359.4 248.9 359.2 249.2 358.8L250 359.4C249.6 360.1 248.7 360.5 247.9 360.5C246.5 360.5 245.5 359.5 245.5 358C245.5 356.5 246.6 355.6 247.9 355.6C249.2 355.6 250.3 356.5 250.3 358C250.2 358.1 250.2 358.3 250.2 358.4ZM249 357.6C248.9 357 248.4 356.6 247.8 356.6C247.2 356.6 246.7 356.9 246.5 357.6H249Z" fill="#48499A"/>
<path d="M254.8 355.7H256V360.4H254.8V359.7C254.5 360.2 253.9 360.5 253.2 360.5C252 360.5 251 359.5 251 358C251 356.6 252 355.6 253.3 355.6C253.9 355.6 254.6 355.9 254.9 356.4V355.7H254.8ZM254.8 358C254.8 357.2 254.1 356.6 253.5 356.6C252.8 356.6 252.2 357.2 252.2 358C252.2 358.8 252.8 359.4 253.5 359.4C254.2 359.4 254.8 358.8 254.8 358Z" fill="#48499A"/>
<path d="M264.8 357.7V360.3H263.7V357.7C263.7 356.9 263.3 356.6 262.8 356.6C262.1 356.6 261.8 357.1 261.8 358V360.3H260.6V357.7C260.6 357 260.2 356.6 259.7 356.6C259.2 356.6 258.6 356.9 258.6 357.8V360.3H257.4V355.6H258.6V356.3C258.8 355.8 259.4 355.5 260 355.5C260.7 355.5 261.2 355.8 261.5 356.4C261.9 355.7 262.6 355.5 263.1 355.5C264.2 355.6 264.8 356.4 264.8 357.7Z" fill="#48499A"/>
<path d="M336.9 332.5H329.7L326.1 338.7L329.7 344.9H336.9L340.5 338.7L336.9 332.5Z" fill="#EF5B22"/>
<path d="M336.9 352H329.7L326.1 358.2L329.7 364.4H336.9L340.5 358.2L336.9 352Z" fill="#FBAB31"/>
<path d="M326.5 319.3C326.5 317.4 328.1 315.7 330 315.7C331.1 315.7 332.1 316.2 332.7 317L331.8 317.7C331.4 317.2 330.8 316.8 330 316.8C328.7 316.8 327.7 317.9 327.7 319.2C327.7 320.5 328.7 321.6 330 321.6C330.7 321.6 331.4 321.3 331.8 320.7L332.7 321.4C332.1 322.2 331.1 322.7 330 322.7C328.1 322.8 326.5 321.2 326.5 319.3Z" fill="#48499A"/>
<path d="M335.1 321.6H337.8V322.7H333.9V315.8H335.1V321.6Z" fill="#48499A"/>
<path d="M338.9 322.7V315.8H340.1V322.7H338.9Z" fill="#48499A"/>
<path d="M343.1 321.6H346.2V322.7H341.9V315.8H346.1V316.9H343.1V318.8H345.7V319.9H343.1V321.6Z" fill="#48499A"/>
<path d="M351.5 315.8H352.7V322.7H351.6L348.9 318.1V322.7H347.7V315.8H348.8L351.5 320.4V315.8Z" fill="#48499A"/>
<path d="M358.9 315.8V316.9H356.9V322.7H355.7V316.9H353.7V315.8H358.9Z" fill="#48499A"/>
<path d="M349.9 334C351.4 334 352.1 335.1 352.1 336.2C352.1 337.3 351.5 338.4 349.9 338.4H348.3V340.9H347.1V334H349.9ZM349.9 337.3C350.6 337.3 350.9 336.8 350.9 336.2C350.9 335.7 350.6 335.1 349.9 335.1H348.4V337.3H349.9Z" fill="#48499A"/>
<path d="M356.3 336.3L356.1 337.4C355.8 337.3 355.6 337.2 355.4 337.2C354.6 337.2 354.2 338 354.2 339.3V340.9H353V336.2H354.2V337.2C354.4 336.4 355 336.1 355.5 336.1C355.8 336.1 356.1 336.2 356.3 336.3Z" fill="#48499A"/>
<path d="M356.6 338.6C356.6 337.1 357.7 336.2 359.1 336.2C360.5 336.2 361.6 337.2 361.6 338.6C361.6 340 360.4 341.1 359.1 341.1C357.8 341.1 356.6 340 356.6 338.6ZM360.4 338.6C360.4 337.8 359.8 337.2 359.1 337.2C358.4 337.2 357.8 337.8 357.8 338.6C357.8 339.4 358.4 340 359.1 340C359.8 340 360.4 339.4 360.4 338.6Z" fill="#48499A"/>
<path d="M361.4 343.2V342.1H362C362.6 342.1 362.8 341.6 362.8 341.1V336.2H364V341C364 342.3 363.4 343.1 362.1 343.1H361.4V343.2ZM362.6 334.6C362.6 334.2 362.9 333.9 363.3 333.9C363.7 333.9 364.1 334.2 364.1 334.6C364.1 335 363.8 335.3 363.3 335.3C362.9 335.3 362.6 335 362.6 334.6Z" fill="#48499A"/>
<path d="M369.8 339H366.2C366.3 339.6 366.8 340 367.5 340C368 340 368.5 339.8 368.8 339.4L369.6 340C369.2 340.7 368.3 341.1 367.5 341.1C366.1 341.1 365.1 340.1 365.1 338.6C365.1 337.1 366.2 336.2 367.5 336.2C368.8 336.2 369.9 337.1 369.9 338.6C369.8 338.7 369.8 338.8 369.8 339ZM368.7 338.2C368.6 337.6 368.1 337.2 367.5 337.2C366.9 337.2 366.4 337.5 366.2 338.2H368.7Z" fill="#48499A"/>
<path d="M370.6 338.6C370.6 337.1 371.8 336.2 373.1 336.2C373.9 336.2 374.6 336.6 375 337.1L374.2 337.7C374 337.4 373.6 337.2 373.1 337.2C372.3 337.2 371.7 337.8 371.7 338.6C371.7 339.4 372.3 340 373.1 340C373.5 340 373.9 339.8 374.2 339.5L375 340.2C374.6 340.7 373.9 341.1 373.1 341.1C371.8 341 370.6 340 370.6 338.6Z" fill="#48499A"/>
<path d="M378.6 336.2V337.1H377.6V340.8H376.4V337.1H375.6V336.2H376.4V334.5H377.6V336.2H378.6Z" fill="#48499A"/>
<path d="M383.4 339.8H386.1V340.9H382.2V334H383.4V339.8Z" fill="#48499A"/>
<path d="M391.4 339H387.7C387.8 339.6 388.3 340 389 340C389.5 340 390 339.8 390.3 339.4L391.1 340C390.7 340.7 389.8 341.1 389 341.1C387.6 341.1 386.6 340.1 386.6 338.6C386.6 337.1 387.7 336.2 389 336.2C390.3 336.2 391.4 337.1 391.4 338.6C391.4 338.7 391.4 338.8 391.4 339ZM390.2 338.2C390.1 337.6 389.6 337.2 389 337.2C388.4 337.2 387.9 337.5 387.7 338.2H390.2Z" fill="#48499A"/>
<path d="M396 336.2H397.2V340.9H396V340.2C395.7 340.7 395.1 341 394.4 341C393.2 341 392.2 340 392.2 338.5C392.2 337.1 393.2 336.1 394.5 336.1C395.1 336.1 395.8 336.4 396.1 336.9V336.2H396ZM396 338.6C396 337.8 395.3 337.2 394.7 337.2C394 337.2 393.4 337.8 393.4 338.6C393.4 339.4 394 340 394.7 340C395.4 339.9 396 339.3 396 338.6Z" fill="#48499A"/>
<path d="M402.1 333.7H403.3V340.9H402.1V340.3C401.8 340.8 401.1 341 400.6 341C399.4 341 398.3 340 398.3 338.5C398.3 337 399.4 336.1 400.6 336.1C401.2 336.1 401.8 336.3 402.2 336.8V333.7H402.1ZM402.1 338.6C402.1 337.8 401.4 337.2 400.8 337.2C400.1 337.2 399.5 337.8 399.5 338.6C399.5 339.4 400.1 340 400.8 340C401.5 339.9 402.1 339.4 402.1 338.6Z" fill="#48499A"/>
<path d="M409.2 339H405.6C405.7 339.6 406.2 340 406.9 340C407.4 340 407.9 339.8 408.2 339.4L409 340C408.6 340.7 407.7 341.1 406.9 341.1C405.5 341.1 404.5 340.1 404.5 338.6C404.5 337.1 405.6 336.2 406.9 336.2C408.2 336.2 409.3 337.1 409.3 338.6C409.2 338.7 409.2 338.8 409.2 339ZM408.1 338.2C408 337.6 407.5 337.2 406.9 337.2C406.3 337.2 405.8 337.5 405.6 338.2H408.1Z" fill="#48499A"/>
<path d="M413.6 336.3L413.4 337.4C413.1 337.3 412.9 337.2 412.7 337.2C411.9 337.2 411.5 338 411.5 339.3V340.9H410.3V336.2H411.5V337.2C411.7 336.4 412.3 336.1 412.8 336.1C413.1 336.1 413.4 336.2 413.6 336.3Z" fill="#48499A"/>
<path d="M413.9 339.5H415C415 339.8 415.3 340.1 415.8 340.1C416.3 340.1 416.6 339.9 416.6 339.6C416.6 339.3 416.4 339.2 416.1 339.1L415.5 338.9C414.5 338.6 414.2 338.1 414.2 337.5C414.2 336.8 414.9 336.1 415.9 336.1C416.7 336.1 417.7 336.5 417.7 337.6H416.6C416.6 337.3 416.3 337.1 416 337.1C415.6 337.1 415.4 337.3 415.4 337.6C415.4 337.8 415.6 338 415.9 338L416.7 338.2C417.7 338.5 417.9 339.1 417.9 339.6C417.9 340.6 417 341.1 416 341.1C414.9 341 414 340.5 413.9 339.5Z" fill="#48499A"/>
<path d="M423.3 338.3V340.9H422.1V338.4C422.1 337.7 421.6 337.3 421.1 337.3C420.6 337.3 419.9 337.6 419.9 338.5V341H418.7V333.8H419.9V337C420.1 336.4 420.9 336.2 421.3 336.2C422.6 336.1 423.3 336.9 423.3 338.3Z" fill="#48499A"/>
<path d="M424.4 334.6C424.4 334.2 424.7 333.9 425.2 333.9C425.6 333.9 425.9 334.2 425.9 334.6C425.9 335 425.6 335.3 425.2 335.3C424.8 335.3 424.4 335 424.4 334.6ZM424.6 340.9V336.2H425.8V340.9H424.6Z" fill="#48499A"/>
<path d="M432.1 338.6C432.1 340.1 431.001 341 429.801 341C429.201 341 428.601 340.8 428.201 340.3V343.2H427V336.3H428.201V336.9C428.501 336.4 429.201 336.2 429.701 336.2C431.101 336.1 432.1 337.1 432.1 338.6ZM431 338.6C431 337.8 430.401 337.2 429.701 337.2C429.001 337.2 428.401 337.8 428.401 338.6C428.401 339.4 429.101 340 429.701 340C430.401 339.9 431 339.4 431 338.6Z" fill="#48499A"/>
<path d="M349.9 353.5C351.4 353.5 352.1 354.6 352.1 355.7C352.1 356.8 351.5 357.9 349.9 357.9H348.3V360.4H347.1V353.5H349.9ZM349.9 356.8C350.6 356.8 350.9 356.3 350.9 355.7C350.9 355.2 350.6 354.6 349.9 354.6H348.4V356.8H349.9Z" fill="#48499A"/>
<path d="M356.3 355.7L356.1 356.8C355.8 356.7 355.6 356.6 355.4 356.6C354.6 356.6 354.2 357.4 354.2 358.7V360.3H353V355.6H354.2V356.6C354.4 355.8 355 355.5 355.5 355.5C355.8 355.6 356.1 355.6 356.3 355.7Z" fill="#48499A"/>
<path d="M356.6 358C356.6 356.5 357.7 355.6 359.1 355.6C360.5 355.6 361.6 356.6 361.6 358C361.6 359.4 360.4 360.5 359.1 360.5C357.8 360.5 356.6 359.5 356.6 358ZM360.4 358C360.4 357.2 359.8 356.6 359.1 356.6C358.4 356.6 357.8 357.2 357.8 358C357.8 358.8 358.4 359.4 359.1 359.4C359.8 359.4 360.4 358.8 360.4 358Z" fill="#48499A"/>
<path d="M361.4 362.6V361.5H362C362.6 361.5 362.8 361 362.8 360.5V355.6H364V360.4C364 361.7 363.4 362.5 362.1 362.5H361.4V362.6ZM362.6 354C362.6 353.6 362.9 353.3 363.3 353.3C363.7 353.3 364.1 353.6 364.1 354C364.1 354.4 363.8 354.7 363.3 354.7C362.9 354.8 362.6 354.4 362.6 354Z" fill="#48499A"/>
<path d="M369.8 358.4H366.2C366.3 359 366.8 359.4 367.5 359.4C368 359.4 368.5 359.2 368.8 358.8L369.6 359.4C369.2 360.1 368.3 360.5 367.5 360.5C366.1 360.5 365.1 359.5 365.1 358C365.1 356.5 366.2 355.6 367.5 355.6C368.8 355.6 369.9 356.5 369.9 358C369.8 358.1 369.8 358.3 369.8 358.4ZM368.7 357.6C368.6 357 368.1 356.6 367.5 356.6C366.9 356.6 366.4 356.9 366.2 357.6H368.7Z" fill="#48499A"/>
<path d="M370.6 358C370.6 356.5 371.8 355.6 373.1 355.6C373.9 355.6 374.6 356 375 356.5L374.2 357.1C374 356.8 373.6 356.6 373.1 356.6C372.3 356.6 371.7 357.2 371.7 358C371.7 358.8 372.3 359.4 373.1 359.4C373.5 359.4 373.9 359.2 374.2 358.9L375 359.6C374.6 360.1 373.9 360.5 373.1 360.5C371.8 360.5 370.6 359.5 370.6 358Z" fill="#48499A"/>
<path d="M378.6 355.7V356.6H377.6V360.3H376.4V356.6H375.6V355.7H376.4V354H377.6V355.7H378.6Z" fill="#48499A"/>
<path d="M386.3 353.5V354.6H384.3V360.4H383.1V354.6H381.1V353.5H386.3Z" fill="#48499A"/>
<path d="M390.8 358.4H387.2C387.3 359 387.8 359.4 388.5 359.4C389 359.4 389.5 359.2 389.8 358.8L390.6 359.4C390.2 360.1 389.3 360.5 388.5 360.5C387.1 360.5 386.1 359.5 386.1 358C386.1 356.5 387.2 355.6 388.5 355.6C389.8 355.6 390.9 356.5 390.9 358C390.9 358.1 390.8 358.3 390.8 358.4ZM389.7 357.6C389.6 357 389.1 356.6 388.5 356.6C387.9 356.6 387.4 356.9 387.2 357.6H389.7Z" fill="#48499A"/>
<path d="M395.5 355.7H396.7V360.4H395.5V359.7C395.2 360.2 394.6 360.5 393.9 360.5C392.7 360.5 391.7 359.5 391.7 358C391.7 356.6 392.7 355.6 394 355.6C394.6 355.6 395.3 355.9 395.6 356.4V355.7H395.5ZM395.5 358C395.5 357.2 394.8 356.6 394.2 356.6C393.4 356.6 392.9 357.2 392.9 358C392.9 358.8 393.5 359.4 394.2 359.4C394.9 359.4 395.5 358.8 395.5 358Z" fill="#48499A"/>
<path d="M405.5 357.7V360.3H404.4V357.7C404.4 356.9 404 356.6 403.5 356.6C402.8 356.6 402.5 357.1 402.5 358V360.3H401.3V357.7C401.3 357 400.9 356.6 400.4 356.6C399.9 356.6 399.3 356.9 399.3 357.8V360.3H398.1V355.6H399.3V356.3C399.5 355.8 400.1 355.5 400.7 355.5C401.4 355.5 401.9 355.8 402.2 356.4C402.6 355.7 403.3 355.5 403.8 355.5C404.8 355.6 405.5 356.4 405.5 357.7Z" fill="#48499A"/>
<path d="M307.8 315.4V365" stroke="#E7F0FF" stroke-width="0.5" stroke-miterlimit="10"/>
</g>
</g>
<defs>
<filter id="filter0_d_261_6318" x="85" y="35" width="446.2" height="401.6" filterUnits="userSpaceOnUse" color-interpolation-filters="sRGB">
<feFlood flood-opacity="0" result="BackgroundImageFix"/>
<feColorMatrix in="SourceAlpha" type="matrix" values="0 0 0 0 0 0 0 0 0 0 0 0 0 0 0 0 0 0 127 0" result="hardAlpha"/>
<feOffset dx="9" dy="9"/>
<feGaussianBlur stdDeviation="25"/>
<feComposite in2="hardAlpha" operator="out"/>
<feColorMatrix type="matrix" values="0 0 0 0 0.215686 0 0 0 0 0.231373 0 0 0 0 0.470588 0 0 0 0.1 0"/>
<feBlend mode="normal" in2="BackgroundImageFix" result="effect1_dropShadow_261_6318"/>
<feBlend mode="normal" in="SourceGraphic" in2="effect1_dropShadow_261_6318" result="shape"/>
</filter>
<clipPath id="clip0_261_6318">
<rect width="494.45" height="408.7" fill="white" transform="translate(52 23)"/>
</clipPath>
</defs>
</svg>
