<svg width="606" height="509" viewBox="0 0 606 509" fill="none" xmlns="http://www.w3.org/2000/svg">
<path fill-rule="evenodd" clip-rule="evenodd" d="M196.886 484.602C91.7194 490.598 29.9579 442.8 8.56181 373.527C-12.8319 304.253 6.13738 213.5 62.4372 133.586C272.562 -164.679 663.754 122.871 588.529 321.863C551.789 419.052 442.171 455.983 336.944 471.886C286.389 479.529 236.847 482.317 196.886 484.602" fill="#F9FBFF"/>
<g filter="url(#filter0_d_502_10059)">
<path d="M175.4 152.5L161.1 128.8L175.4 105H204L218.2 128.8L204 152.5H175.4Z" fill="#EF5B22"/>
<path d="M220.9 177.8L206.6 154L220.9 130.3H249.5L263.8 154L249.5 177.8H220.9Z" fill="#EF5B22"/>
<path d="M266.5 152.5L252.2 128.8L266.5 105H295.1L309.4 128.8L295.1 152.5H266.5Z" fill="#EF5B22"/>
<path d="M175.4 203.1L161.1 179.3L175.4 155.5H204L218.2 179.3L204 203.1H175.4Z" fill="#FBAB31"/>
<path d="M220.9 228.3L206.6 204.6L220.9 180.8H249.5L263.8 204.6L249.5 228.3H220.9Z" fill="#FBAB31"/>
<path d="M266.5 203.1L252.2 179.3L266.5 155.5H295.1L309.4 179.3L295.1 203.1H266.5Z" fill="#C3DBFA"/>
<path d="M266.5 253.6L252.2 229.8L266.5 206.1H295.1L309.4 229.8L295.1 253.6H266.5Z" fill="#C3DBFA"/>
<path d="M312.1 228.3L297.8 204.6L312.1 180.8H340.7L355 204.6L340.7 228.3H312.1Z" fill="#C3DBFA"/>
<path d="M363.5 195.4L349.3 171.7L363.5 147.9H392.1L406.4 171.7L392.1 195.4H363.5Z" fill="#C3DBFA"/>
<path d="M383.5 284.7L369.2 260.9L383.5 237.1H412.1L426.4 260.9L412.1 284.7H383.5Z" fill="#C3DBFA"/>
<path d="M349.6 157.6C337.2 157.6 330.1 169.3 327.5 174.4" stroke="#484DA4" stroke-linejoin="round"/>
<path d="M325.2 169.1L326.3 168.8L327.6 174.1L332.8 172.3L333.1 173.4L326.9 175.5L325.2 169.1Z" fill="#484DA4"/>
<path d="M371.1 243.6C360.9 240.3 353.8 230.8 351.7 227.7" stroke="#484DA4" stroke-linejoin="round"/>
<path d="M357.5 228.1L357.3 229.1L352 228L351.3 233.4L350.2 233.3L351 226.7L357.5 228.1Z" fill="#484DA4"/>
<path d="M179.8 174.7C182.9 174.7 184.7 176.9 184.7 179.9C184.7 182.8 182.9 185 179.8 185H175.6V174.7H179.8ZM179.8 183.4C181.8 183.4 182.8 181.8 182.8 179.9C182.8 178 181.8 176.3 179.8 176.3H177.5V183.4H179.8Z" fill="white"/>
<path d="M188.7 183.4H193.6V185H186.8V174.7H193.4V176.3H188.7V179.1H192.8V180.8H188.7V183.4Z" fill="white"/>
<path d="M201 174.7H203L199.7 185H198L194.7 174.7H196.7L198.9 182L201 174.7Z" fill="white"/>
<path d="M189 124.1V125.7H185.9V134.4H184V125.7H180.9V124.1H189Z" fill="white"/>
<path d="M192.6 132.8H196.8V134.4H190.7V124.1H192.6V132.8Z" fill="white"/>
<path d="M226.1 199.9C229.2 199.9 231 202.1 231 205.1C231 208 229.2 210.2 226.1 210.2H221.9V199.9H226.1ZM226.1 208.6C228.1 208.6 229.1 207 229.1 205.1C229.1 203.2 228.1 201.5 226.1 201.5H223.8V208.6H226.1Z" fill="white"/>
<path d="M235 208.6H239.9V210.2H233.1V199.9H239.7V201.5H235V204.3H239.1V206H235V208.6Z" fill="white"/>
<path d="M247.3 199.9H249.3L246 210.2H244.3L241 199.9H243L245.2 207.2L247.3 199.9Z" fill="white"/>
<path d="M228.8 149.4C231.2 149.4 232.2 151.1 232.2 152.7C232.2 154.4 231.2 156 228.8 156H226.4V159.7H224.5V149.4H228.8ZM228.7 154.4C229.8 154.4 230.3 153.6 230.3 152.7C230.3 151.9 229.9 151 228.8 151H226.4V154.3H228.7V154.4Z" fill="white"/>
<path d="M246.3 159.7H244.4L243.5 152.8L240.6 158.6H239.1L236.2 152.8L235.3 159.7H233.4L234.7 149.4H236.4L239.9 156.5L243.4 149.4H245.1L246.3 159.7Z" fill="white"/>
<path d="M271.7 174.9C274.8 174.9 276.6 177.1 276.6 180.1C276.6 183 274.8 185.2 271.7 185.2H267.5V174.9H271.7ZM271.7 183.5C273.7 183.5 274.7 181.9 274.7 180C274.7 178.1 273.7 176.4 271.7 176.4H269.4V183.5H271.7Z" fill="white"/>
<path d="M280.6 183.5H285.5V185.1H278.7V174.9H285.3V176.5H280.6V179.3H284.7V181H280.6V183.5Z" fill="white"/>
<path d="M292.8 174.9H294.8L291.5 185.2H289.8L286.5 174.9H288.5L290.7 182.2L292.8 174.9Z" fill="white"/>
<path d="M275.5 124.3C277.9 124.3 278.9 126 278.9 127.6C278.9 129.3 277.9 130.9 275.5 130.9H273V134.6H271.1V124.3H275.5ZM275.4 129.3C276.5 129.3 277 128.5 277 127.6C277 126.8 276.6 125.9 275.5 125.9H273.1V129.2H275.4V129.3Z" fill="white"/>
<path d="M280 129.5C280 126.6 282.4 124.2 285.5 124.2C288.6 124.2 291 126.6 291 129.5C291 132.4 288.6 134.8 285.5 134.8C282.4 134.8 280 132.4 280 129.5ZM289.1 129.5C289.1 127.5 287.6 125.9 285.5 125.9C283.5 125.9 282 127.6 282 129.5C282 131.5 283.5 133.1 285.5 133.1C287.5 133.1 289.1 131.5 289.1 129.5Z" fill="white"/>
<path d="M271.7 225.2C274.8 225.2 276.6 227.4 276.6 230.4C276.6 233.3 274.8 235.5 271.7 235.5H267.5V225.2H271.7ZM271.7 233.9C273.7 233.9 274.7 232.3 274.7 230.4C274.7 228.5 273.7 226.8 271.7 226.8H269.4V233.9H271.7Z" fill="white"/>
<path d="M280.6 233.9H285.5V235.5H278.7V225.2H285.3V226.8H280.6V229.6H284.7V231.3H280.6V233.9Z" fill="white"/>
<path d="M292.8 225.2H294.8L291.5 235.5H289.8L286.5 225.2H288.5L290.7 232.5L292.8 225.2Z" fill="white"/>
<path d="M387.8 255.8C390.9 255.8 392.7 258 392.7 261C392.7 263.9 390.9 266.1 387.8 266.1H383.6V255.8H387.8ZM387.8 264.5C389.8 264.5 390.8 262.9 390.8 261C390.8 259.1 389.8 257.4 387.8 257.4H385.5V264.5H387.8Z" fill="white"/>
<path d="M396.7 264.5H401.6V266.1H394.8V255.8H401.4V257.4H396.7V260.2H400.8V261.9H396.7V264.5Z" fill="white"/>
<path d="M408.9 255.8H410.9L407.6 266.1H405.9L402.6 255.8H404.6L406.8 263.1L408.9 255.8Z" fill="white"/>
<path d="M317.3 200.1C320.4 200.1 322.2 202.3 322.2 205.3C322.2 208.2 320.4 210.4 317.3 210.4H313.1V200.1H317.3ZM317.3 208.8C319.3 208.8 320.2 207.2 320.2 205.3C320.2 203.4 319.2 201.7 317.3 201.7H315V208.8H317.3Z" fill="white"/>
<path d="M326.2 208.8H331.1V210.4H324.3V200.1H330.9V201.7H326.2V204.5H330.3V206.2H326.2V208.8Z" fill="white"/>
<path d="M338.4 200.1H340.4L337.1 210.4H335.4L332.1 200.1H334.1L336.3 207.4L338.4 200.1Z" fill="white"/>
<path d="M358.6 241.8V242.9H355.6V245.9H354.5V242.9H351.5V241.8H354.5V238.8H355.6V241.8H358.6Z" fill="#48499A"/>
<path d="M334 156.3V157.4H331V160.4H329.9V157.4H326.9V156.3H329.9V153.3H331V156.3H334Z" fill="#48499A"/>
<path d="M368.7 167.1C371.8 167.1 373.6 169.3 373.6 172.3C373.6 175.2 371.8 177.4 368.7 177.4H364.5V167.1H368.7ZM368.7 175.8C370.7 175.8 371.7 174.2 371.7 172.3C371.7 170.4 370.7 168.7 368.7 168.7H366.4V175.8H368.7Z" fill="white"/>
<path d="M377.6 175.8H382.5V177.4H375.7V167.1H382.3V168.7H377.6V171.5H381.7V173.2H377.6V175.8Z" fill="white"/>
<path d="M389.9 167.1H391.9L388.6 177.4H386.9L383.6 167.1H385.6L387.8 174.4L389.9 167.1Z" fill="white"/>
<path d="M431.5 385.6H165.8C163.1 385.6 161 383.4 161 380.8V315.8C161 313.1 163.2 311 165.8 311H431.5C434.2 311 436.3 313.2 436.3 315.8V380.8C436.3 383.4 434.1 385.6 431.5 385.6Z" fill="white"/>
<path d="M186.9 340.4H179.7L176.1 346.6L179.7 352.8H186.9L190.5 346.6L186.9 340.4Z" fill="#494E9D"/>
<path d="M186.9 359.9H179.7L176.1 366.1L179.7 372.3H186.9L190.5 366.1L186.9 359.9Z" fill="#C3DBFA"/>
<path d="M184.9 329.7H183.7L183.2 325.1L181.3 328.9H180.3L178.4 325.1L177.8 329.7H176.6L177.4 322.8H178.5L180.7 327.5L182.9 322.8H184L184.9 329.7Z" fill="#48499A"/>
<path d="M185.9 323.3C185.9 322.9 186.2 322.6 186.7 322.6C187.1 322.6 187.4 322.9 187.4 323.3C187.4 323.7 187.1 324 186.7 324C186.3 324 185.9 323.7 185.9 323.3ZM186.1 329.7V325H187.3V329.7H186.1Z" fill="#48499A"/>
<path d="M192.2 325H193.4V331.9H192.2V329C191.9 329.5 191.2 329.7 190.6 329.7C189.4 329.7 188.3 328.7 188.3 327.3C188.3 325.8 189.4 324.8 190.6 324.8C191.2 324.8 191.8 325 192.1 325.5V325H192.2ZM192.2 327.3C192.2 326.5 191.6 325.9 190.9 325.9C190.2 325.9 189.6 326.5 189.6 327.3C189.6 328.1 190.2 328.7 190.9 328.7C191.5 328.7 192.2 328.2 192.2 327.3Z" fill="#48499A"/>
<path d="M198 325H199.2V329.7H198V328.9C197.8 329.5 197 329.7 196.6 329.7C195.4 329.7 194.7 328.9 194.7 327.5V324.9H195.9V327.5C195.9 328.2 196.3 328.6 196.9 328.6C197.4 328.6 198.1 328.3 198.1 327.4V325H198Z" fill="#48499A"/>
<path d="M200.4 323.3C200.4 322.9 200.7 322.6 201.2 322.6C201.6 322.6 201.9 322.9 201.9 323.3C201.9 323.7 201.6 324 201.2 324C200.7 324 200.4 323.7 200.4 323.3ZM200.5 329.7V325H201.7V329.7H200.5Z" fill="#48499A"/>
<path d="M206.6 322.4H207.8V329.6H206.6V329C206.3 329.5 205.6 329.7 205.1 329.7C203.9 329.7 202.8 328.7 202.8 327.2C202.8 325.7 203.9 324.8 205.1 324.8C205.7 324.8 206.3 325 206.7 325.5V322.4H206.6ZM206.6 327.3C206.6 326.5 205.9 325.9 205.3 325.9C204.6 325.9 204 326.5 204 327.3C204 328.1 204.6 328.7 205.3 328.7C206 328.7 206.6 328.1 206.6 327.3Z" fill="#48499A"/>
<path d="M208.9 327.3C208.9 325.8 210 324.9 211.4 324.9C212.8 324.9 213.9 325.9 213.9 327.3C213.9 328.7 212.7 329.8 211.4 329.8C210.1 329.8 208.9 328.8 208.9 327.3ZM212.7 327.3C212.7 326.5 212.1 325.9 211.4 325.9C210.7 325.9 210.1 326.5 210.1 327.3C210.1 328.1 210.7 328.7 211.4 328.7C212.1 328.7 212.7 328.1 212.7 327.3Z" fill="#48499A"/>
<path d="M200 341.9C201.5 341.9 202.2 343 202.2 344.1C202.2 345.2 201.6 346.3 200 346.3H198.4V348.8H197.2V341.9H200ZM199.9 345.2C200.6 345.2 200.9 344.7 200.9 344.1C200.9 343.6 200.6 343 199.9 343H198.4V345.2H199.9Z" fill="#48499A"/>
<path d="M206.3 344.2L206.1 345.3C205.8 345.2 205.6 345.1 205.4 345.1C204.6 345.1 204.2 345.9 204.2 347.2V348.8H203V344.1H204.2V345.1C204.4 344.3 205 344 205.5 344C205.8 344 206.1 344.1 206.3 344.2Z" fill="#48499A"/>
<path d="M206.6 346.5C206.6 345 207.7 344.1 209.1 344.1C210.5 344.1 211.6 345.1 211.6 346.5C211.6 347.9 210.4 349 209.1 349C207.8 349 206.6 347.9 206.6 346.5ZM210.4 346.5C210.4 345.7 209.8 345.1 209.1 345.1C208.4 345.1 207.8 345.7 207.8 346.5C207.8 347.3 208.4 347.9 209.1 347.9C209.8 347.9 210.4 347.3 210.4 346.5Z" fill="#48499A"/>
<path d="M211.4 351.1V350H212C212.6 350 212.8 349.5 212.8 349V344.1H214V348.9C214 350.2 213.4 351 212.1 351H211.4V351.1ZM212.6 342.5C212.6 342.1 212.9 341.8 213.3 341.8C213.7 341.8 214.1 342.1 214.1 342.5C214.1 342.9 213.8 343.2 213.3 343.2C213 343.2 212.6 342.9 212.6 342.5Z" fill="#48499A"/>
<path d="M219.8 346.9H216.2C216.3 347.5 216.8 347.9 217.5 347.9C218 347.9 218.5 347.7 218.8 347.3L219.6 347.9C219.2 348.6 218.3 349 217.5 349C216.1 349 215.1 348 215.1 346.5C215.1 345 216.2 344.1 217.5 344.1C218.8 344.1 219.9 345 219.9 346.5C219.9 346.5 219.9 346.7 219.8 346.9ZM218.7 346.1C218.6 345.5 218.1 345.1 217.5 345.1C216.9 345.1 216.4 345.4 216.2 346.1H218.7Z" fill="#48499A"/>
<path d="M220.6 346.5C220.6 345 221.8 344.1 223.1 344.1C223.9 344.1 224.6 344.5 225 345L224.2 345.6C224 345.3 223.6 345.1 223.1 345.1C222.3 345.1 221.7 345.7 221.7 346.5C221.7 347.3 222.3 347.9 223.1 347.9C223.5 347.9 223.9 347.7 224.2 347.4L225 348.1C224.6 348.6 223.9 349 223.1 349C221.8 348.9 220.6 347.9 220.6 346.5Z" fill="#48499A"/>
<path d="M228.6 344.1V345H227.6V348.7H226.4V345H225.6V344.1H226.4V342.4H227.6V344.1H228.6Z" fill="#48499A"/>
<path d="M233.4 347.7H236.1V348.8H232.2V341.9H233.4V347.7Z" fill="#48499A"/>
<path d="M241.4 346.9H237.8C237.9 347.5 238.4 347.9 239.1 347.9C239.6 347.9 240.1 347.7 240.4 347.3L241.2 347.9C240.8 348.6 239.9 349 239.1 349C237.7 349 236.7 348 236.7 346.5C236.7 345 237.8 344.1 239.1 344.1C240.4 344.1 241.5 345 241.5 346.5C241.4 346.5 241.4 346.7 241.4 346.9ZM240.3 346.1C240.2 345.5 239.7 345.1 239.1 345.1C238.5 345.1 238 345.4 237.8 346.1H240.3Z" fill="#48499A"/>
<path d="M246.1 344.1H247.3V348.8H246.1V348.1C245.8 348.6 245.2 348.9 244.5 348.9C243.3 348.9 242.3 347.9 242.3 346.4C242.3 345 243.3 344 244.6 344C245.2 344 245.9 344.3 246.2 344.8V344.1H246.1ZM246 346.5C246 345.7 245.3 345.1 244.7 345.1C244 345.1 243.4 345.7 243.4 346.5C243.4 347.3 244 347.9 244.7 347.9C245.4 347.8 246 347.2 246 346.5Z" fill="#48499A"/>
<path d="M252.2 341.6H253.4V348.8H252.2V348.2C251.9 348.7 251.2 348.9 250.7 348.9C249.5 348.9 248.4 347.9 248.4 346.4C248.4 344.9 249.5 344 250.7 344C251.3 344 251.9 344.2 252.3 344.7V341.6H252.2ZM252.1 346.5C252.1 345.7 251.4 345.1 250.8 345.1C250.1 345.1 249.5 345.7 249.5 346.5C249.5 347.3 250.1 347.9 250.8 347.9C251.5 347.8 252.1 347.3 252.1 346.5Z" fill="#48499A"/>
<path d="M259.2 346.9H255.6C255.7 347.5 256.2 347.9 256.9 347.9C257.4 347.9 257.9 347.7 258.2 347.3L259 347.9C258.6 348.6 257.7 349 256.9 349C255.5 349 254.5 348 254.5 346.5C254.5 345 255.6 344.1 256.9 344.1C258.2 344.1 259.3 345 259.3 346.5C259.3 346.5 259.2 346.7 259.2 346.9ZM258.1 346.1C258 345.5 257.5 345.1 256.9 345.1C256.3 345.1 255.8 345.4 255.6 346.1H258.1Z" fill="#48499A"/>
<path d="M263.6 344.2L263.4 345.3C263.1 345.2 262.9 345.1 262.7 345.1C261.9 345.1 261.5 345.9 261.5 347.2V348.8H260.3V344.1H261.5V345.1C261.7 344.3 262.3 344 262.8 344C263.1 344 263.4 344.1 263.6 344.2Z" fill="#48499A"/>
<path d="M264 347.4H265.1C265.1 347.7 265.4 348 265.9 348C266.4 348 266.7 347.8 266.7 347.5C266.7 347.2 266.5 347.1 266.2 347L265.6 346.8C264.6 346.5 264.3 346 264.3 345.4C264.3 344.7 265 344 266 344C266.8 344 267.8 344.4 267.8 345.5H266.7C266.7 345.2 266.4 345 266.1 345C265.7 345 265.5 345.2 265.5 345.5C265.5 345.7 265.7 345.9 266 345.9L266.7 346.1C267.7 346.4 267.9 347 267.9 347.5C267.9 348.5 267 349 266 349C264.9 348.9 264 348.4 264 347.4Z" fill="#48499A"/>
<path d="M273.3 346.2V348.8H272.1V346.3C272.1 345.6 271.7 345.2 271.1 345.2C270.6 345.2 269.9 345.5 269.9 346.4V348.9H268.7V341.7H269.9V344.9C270.1 344.3 270.9 344.1 271.3 344.1C272.6 344 273.3 344.8 273.3 346.2Z" fill="#48499A"/>
<path d="M274.5 342.5C274.5 342.1 274.8 341.8 275.3 341.8C275.7 341.8 276 342.1 276 342.5C276 342.9 275.7 343.2 275.3 343.2C274.8 343.2 274.5 342.9 274.5 342.5ZM274.6 348.8V344.1H275.8V348.8H274.6Z" fill="#48499A"/>
<path d="M282.2 346.5C282.2 348 281.1 348.9 279.9 348.9C279.3 348.9 278.7 348.7 278.3 348.2V351.1H277.1V344.2H278.3V344.8C278.6 344.3 279.3 344.1 279.8 344.1C281.1 344 282.2 345 282.2 346.5ZM281 346.5C281 345.7 280.4 345.1 279.7 345.1C279 345.1 278.4 345.7 278.4 346.5C278.4 347.3 279.1 347.9 279.7 347.9C280.4 347.8 281 347.2 281 346.5Z" fill="#48499A"/>
<path d="M200 361.4C201.5 361.4 202.2 362.5 202.2 363.6C202.2 364.7 201.6 365.8 200 365.8H198.4V368.3H197.2V361.4H200ZM199.9 364.7C200.6 364.7 200.9 364.2 200.9 363.6C200.9 363.1 200.6 362.5 199.9 362.5H198.4V364.7H199.9Z" fill="#48499A"/>
<path d="M206.3 363.6L206.1 364.7C205.8 364.6 205.6 364.5 205.4 364.5C204.6 364.5 204.2 365.3 204.2 366.6V368.2H203V363.5H204.2V364.5C204.4 363.7 205 363.4 205.5 363.4C205.8 363.5 206.1 363.5 206.3 363.6Z" fill="#48499A"/>
<path d="M206.6 365.9C206.6 364.4 207.7 363.5 209.1 363.5C210.5 363.5 211.6 364.5 211.6 365.9C211.6 367.3 210.4 368.4 209.1 368.4C207.8 368.4 206.6 367.4 206.6 365.9ZM210.4 365.9C210.4 365.1 209.8 364.5 209.1 364.5C208.4 364.5 207.8 365.1 207.8 365.9C207.8 366.7 208.4 367.3 209.1 367.3C209.8 367.3 210.4 366.7 210.4 365.9Z" fill="#48499A"/>
<path d="M211.4 370.5V369.4H212C212.6 369.4 212.8 368.9 212.8 368.4V363.5H214V368.3C214 369.6 213.4 370.4 212.1 370.4H211.4V370.5ZM212.6 361.9C212.6 361.5 212.9 361.2 213.3 361.2C213.7 361.2 214.1 361.5 214.1 361.9C214.1 362.3 213.8 362.6 213.3 362.6C213 362.7 212.6 362.3 212.6 361.9Z" fill="#48499A"/>
<path d="M219.8 366.3H216.2C216.3 366.9 216.8 367.3 217.5 367.3C218 367.3 218.5 367.1 218.8 366.7L219.6 367.3C219.2 368 218.3 368.4 217.5 368.4C216.1 368.4 215.1 367.4 215.1 365.9C215.1 364.4 216.2 363.5 217.5 363.5C218.8 363.5 219.9 364.4 219.9 365.9C219.9 366 219.9 366.2 219.8 366.3ZM218.7 365.5C218.6 364.9 218.1 364.5 217.5 364.5C216.9 364.5 216.4 364.8 216.2 365.5H218.7Z" fill="#48499A"/>
<path d="M220.6 365.9C220.6 364.4 221.8 363.5 223.1 363.5C223.9 363.5 224.6 363.9 225 364.4L224.2 365C224 364.7 223.6 364.5 223.1 364.5C222.3 364.5 221.7 365.1 221.7 365.9C221.7 366.7 222.3 367.3 223.1 367.3C223.5 367.3 223.9 367.1 224.2 366.8L225 367.5C224.6 368 223.9 368.4 223.1 368.4C221.8 368.4 220.6 367.4 220.6 365.9Z" fill="#48499A"/>
<path d="M228.6 363.6V364.5H227.6V368.2H226.4V364.5H225.6V363.6H226.4V361.9H227.6V363.6H228.6Z" fill="#48499A"/>
<path d="M236.3 361.4V362.5H234.3V368.3H233.1V362.5H231.1V361.4H236.3Z" fill="#48499A"/>
<path d="M240.9 366.3H237.3C237.4 366.9 237.9 367.3 238.6 367.3C239.1 367.3 239.6 367.1 239.9 366.7L240.7 367.3C240.3 368 239.4 368.4 238.6 368.4C237.2 368.4 236.2 367.4 236.2 365.9C236.2 364.4 237.3 363.5 238.6 363.5C239.9 363.5 241 364.4 241 365.9C240.9 366 240.9 366.2 240.9 366.3ZM239.7 365.5C239.6 364.9 239.1 364.5 238.5 364.5C237.9 364.5 237.4 364.8 237.2 365.5H239.7Z" fill="#48499A"/>
<path d="M245.5 363.6H246.7V368.3H245.5V367.6C245.2 368.1 244.6 368.4 243.9 368.4C242.7 368.4 241.7 367.4 241.7 365.9C241.7 364.5 242.7 363.5 244 363.5C244.6 363.5 245.3 363.8 245.6 364.3V363.6H245.5ZM245.5 365.9C245.5 365.1 244.8 364.5 244.2 364.5C243.5 364.5 242.9 365.1 242.9 365.9C242.9 366.7 243.5 367.3 244.2 367.3C244.9 367.3 245.5 366.7 245.5 365.9Z" fill="#48499A"/>
<path d="M255.5 365.6V368.2H254.4V365.6C254.4 364.8 254 364.5 253.5 364.5C252.8 364.5 252.5 365 252.5 365.9V368.2H251.3V365.6C251.3 364.9 250.9 364.5 250.4 364.5C249.9 364.5 249.3 364.8 249.3 365.7V368.2H248.1V363.5H249.3V364.2C249.5 363.7 250.1 363.4 250.7 363.4C251.4 363.4 251.9 363.7 252.2 364.3C252.6 363.6 253.3 363.4 253.8 363.4C254.9 363.5 255.5 364.3 255.5 365.6Z" fill="#48499A"/>
<path d="M327.6 340.4H320.4L316.8 346.6L320.4 352.8H327.6L331.2 346.6L327.6 340.4Z" fill="#EF5B22"/>
<path d="M327.6 359.9H320.4L316.8 366.1L320.4 372.3H327.6L331.2 366.1L327.6 359.9Z" fill="#FBAB31"/>
<path d="M317.2 327.2C317.2 325.3 318.8 323.6 320.7 323.6C321.8 323.6 322.8 324.1 323.4 324.9L322.5 325.6C322.1 325.1 321.5 324.7 320.7 324.7C319.4 324.7 318.4 325.8 318.4 327.1C318.4 328.4 319.4 329.5 320.7 329.5C321.4 329.5 322.1 329.2 322.5 328.6L323.4 329.3C322.8 330.1 321.8 330.6 320.7 330.6C318.8 330.7 317.2 329.1 317.2 327.2Z" fill="#48499A"/>
<path d="M324.4 330.6V323.4H325.6V330.6H324.4Z" fill="#48499A"/>
<path d="M326.8 324.3C326.8 323.9 327.1 323.6 327.6 323.6C328 323.6 328.4 323.9 328.4 324.3C328.4 324.7 328.1 325 327.6 325C327.2 325 326.8 324.7 326.8 324.3ZM327 330.6V325.9H328.2V330.6H327Z" fill="#48499A"/>
<path d="M334.1 328.7H330.4C330.5 329.3 331 329.7 331.7 329.7C332.2 329.7 332.7 329.5 333 329.1L333.8 329.7C333.4 330.4 332.5 330.8 331.7 330.8C330.3 330.8 329.3 329.8 329.3 328.3C329.3 326.8 330.4 325.9 331.7 325.9C333 325.9 334.1 326.8 334.1 328.3C334.1 328.3 334.1 328.5 334.1 328.7ZM332.9 327.9C332.8 327.3 332.3 326.9 331.7 326.9C331.1 326.9 330.6 327.2 330.4 327.9H332.9Z" fill="#48499A"/>
<path d="M339.6 328V330.6H338.4V328.1C338.4 327.4 338 327 337.4 327C336.9 327 336.2 327.3 336.2 328.2V330.7H335V325.9H336.2V326.6C336.4 326 337.2 325.7 337.6 325.7C339 325.8 339.6 326.6 339.6 328Z" fill="#48499A"/>
<path d="M343.5 325.9V326.8H342.5V330.5H341.3V326.8H340.5V325.9H341.3V324.2H342.5V325.9H343.5Z" fill="#48499A"/>
<path d="M340.6 341.9C342.1 341.9 342.8 343 342.8 344.1C342.8 345.2 342.1 346.3 340.6 346.3H339V348.8H337.8V341.9H340.6ZM340.6 345.2C341.3 345.2 341.6 344.7 341.6 344.1C341.6 343.6 341.3 343 340.6 343H339.1V345.2H340.6Z" fill="#48499A"/>
<path d="M347 344.2L346.8 345.3C346.5 345.2 346.3 345.1 346.1 345.1C345.3 345.1 344.9 345.9 344.9 347.2V348.8H343.7V344.1H344.9V345.1C345.1 344.3 345.7 344 346.2 344C346.5 344 346.8 344.1 347 344.2Z" fill="#48499A"/>
<path d="M347.3 346.5C347.3 345 348.4 344.1 349.8 344.1C351.2 344.1 352.3 345.1 352.3 346.5C352.3 347.9 351.1 349 349.8 349C348.5 349 347.3 347.9 347.3 346.5ZM351.1 346.5C351.1 345.7 350.5 345.1 349.8 345.1C349.1 345.1 348.5 345.7 348.5 346.5C348.5 347.3 349.1 347.9 349.8 347.9C350.5 347.9 351.1 347.3 351.1 346.5Z" fill="#48499A"/>
<path d="M352.1 351.1V350H352.7C353.3 350 353.5 349.5 353.5 349V344.1H354.7V348.9C354.7 350.2 354.1 351 352.8 351H352.1V351.1ZM353.3 342.5C353.3 342.1 353.6 341.8 354 341.8C354.4 341.8 354.8 342.1 354.8 342.5C354.8 342.9 354.5 343.2 354 343.2C353.6 343.2 353.3 342.9 353.3 342.5Z" fill="#48499A"/>
<path d="M360.5 346.9H356.9C357 347.5 357.5 347.9 358.2 347.9C358.7 347.9 359.2 347.7 359.5 347.3L360.3 347.9C359.9 348.6 359 349 358.2 349C356.8 349 355.8 348 355.8 346.5C355.8 345 356.9 344.1 358.2 344.1C359.5 344.1 360.6 345 360.6 346.5C360.5 346.5 360.5 346.7 360.5 346.9ZM359.4 346.1C359.3 345.5 358.8 345.1 358.2 345.1C357.6 345.1 357.1 345.4 356.9 346.1H359.4Z" fill="#48499A"/>
<path d="M361.3 346.5C361.3 345 362.5 344.1 363.8 344.1C364.6 344.1 365.3 344.5 365.7 345L364.9 345.6C364.7 345.3 364.3 345.1 363.8 345.1C363 345.1 362.4 345.7 362.4 346.5C362.4 347.3 363 347.9 363.8 347.9C364.2 347.9 364.6 347.7 364.9 347.4L365.7 348.1C365.3 348.6 364.6 349 363.8 349C362.5 348.9 361.3 347.9 361.3 346.5Z" fill="#48499A"/>
<path d="M369.3 344.1V345H368.3V348.7H367.1V345H366.3V344.1H367.1V342.4H368.3V344.1H369.3Z" fill="#48499A"/>
<path d="M374.1 347.7H376.8V348.8H372.9V341.9H374.1V347.7Z" fill="#48499A"/>
<path d="M382.1 346.9H378.4C378.5 347.5 379 347.9 379.7 347.9C380.2 347.9 380.7 347.7 381 347.3L381.8 347.9C381.4 348.6 380.5 349 379.7 349C378.3 349 377.3 348 377.3 346.5C377.3 345 378.4 344.1 379.7 344.1C381 344.1 382.1 345 382.1 346.5C382.1 346.5 382.1 346.7 382.1 346.9ZM380.9 346.1C380.8 345.5 380.3 345.1 379.7 345.1C379.1 345.1 378.6 345.4 378.4 346.1H380.9Z" fill="#48499A"/>
<path d="M386.7 344.1H387.9V348.8H386.7V348.1C386.4 348.6 385.8 348.9 385.1 348.9C383.9 348.9 382.9 347.9 382.9 346.4C382.9 345 383.9 344 385.2 344C385.8 344 386.5 344.3 386.8 344.8V344.1H386.7ZM386.7 346.5C386.7 345.7 386 345.1 385.4 345.1C384.6 345.1 384.1 345.7 384.1 346.5C384.1 347.3 384.7 347.9 385.4 347.9C386.1 347.8 386.7 347.2 386.7 346.5Z" fill="#48499A"/>
<path d="M392.8 341.6H394V348.8H392.8V348.2C392.5 348.7 391.8 348.9 391.3 348.9C390.1 348.9 389 347.9 389 346.4C389 344.9 390.1 344 391.3 344C391.9 344 392.5 344.2 392.9 344.7V341.6H392.8ZM392.8 346.5C392.8 345.7 392.1 345.1 391.5 345.1C390.8 345.1 390.2 345.7 390.2 346.5C390.2 347.3 390.8 347.9 391.5 347.9C392.2 347.8 392.8 347.3 392.8 346.5Z" fill="#48499A"/>
<path d="M399.9 346.9H396.3C396.4 347.5 396.9 347.9 397.6 347.9C398.1 347.9 398.6 347.7 398.9 347.3L399.7 347.9C399.3 348.6 398.4 349 397.6 349C396.2 349 395.2 348 395.2 346.5C395.2 345 396.3 344.1 397.6 344.1C398.9 344.1 400 345 400 346.5C399.9 346.5 399.9 346.7 399.9 346.9ZM398.8 346.1C398.7 345.5 398.2 345.1 397.6 345.1C397 345.1 396.5 345.4 396.3 346.1H398.8Z" fill="#48499A"/>
<path d="M404.3 344.2L404.1 345.3C403.8 345.2 403.6 345.1 403.4 345.1C402.6 345.1 402.2 345.9 402.2 347.2V348.8H401V344.1H402.2V345.1C402.4 344.3 403 344 403.5 344C403.8 344 404.1 344.1 404.3 344.2Z" fill="#48499A"/>
<path d="M404.6 347.4H405.7C405.7 347.7 406 348 406.5 348C407 348 407.3 347.8 407.3 347.5C407.3 347.2 407.1 347.1 406.8 347L406.2 346.8C405.2 346.5 404.9 346 404.9 345.4C404.9 344.7 405.6 344 406.6 344C407.4 344 408.4 344.4 408.4 345.5H407.3C407.3 345.2 407 345 406.7 345C406.3 345 406.1 345.2 406.1 345.5C406.1 345.7 406.3 345.9 406.6 345.9L407.4 346.1C408.4 346.4 408.6 347 408.6 347.5C408.6 348.5 407.7 349 406.7 349C405.6 348.9 404.7 348.4 404.6 347.4Z" fill="#48499A"/>
<path d="M414 346.2V348.8H412.8V346.3C412.8 345.6 412.3 345.2 411.8 345.2C411.3 345.2 410.6 345.5 410.6 346.4V348.9H409.4V341.7H410.6V344.9C410.8 344.3 411.6 344.1 412 344.1C413.3 344 414 344.8 414 346.2Z" fill="#48499A"/>
<path d="M415.1 342.5C415.1 342.1 415.4 341.8 415.9 341.8C416.3 341.8 416.6 342.1 416.6 342.5C416.6 342.9 416.3 343.2 415.9 343.2C415.5 343.2 415.1 342.9 415.1 342.5ZM415.3 348.8V344.1H416.5V348.8H415.3Z" fill="#48499A"/>
<path d="M422.8 346.5C422.8 348 421.7 348.9 420.5 348.9C419.9 348.9 419.3 348.7 418.9 348.2V351.1H417.7V344.2H418.9V344.8C419.2 344.3 419.9 344.1 420.4 344.1C421.8 344 422.8 345 422.8 346.5ZM421.7 346.5C421.7 345.7 421.1 345.1 420.4 345.1C419.7 345.1 419.1 345.7 419.1 346.5C419.1 347.3 419.8 347.9 420.4 347.9C421.1 347.8 421.7 347.2 421.7 346.5Z" fill="#48499A"/>
<path d="M340.6 361.4C342.1 361.4 342.8 362.5 342.8 363.6C342.8 364.7 342.1 365.8 340.6 365.8H339V368.3H337.8V361.4H340.6ZM340.6 364.7C341.3 364.7 341.6 364.2 341.6 363.6C341.6 363.1 341.3 362.5 340.6 362.5H339.1V364.7H340.6Z" fill="#48499A"/>
<path d="M347 363.6L346.8 364.7C346.5 364.6 346.3 364.5 346.1 364.5C345.3 364.5 344.9 365.3 344.9 366.6V368.2H343.7V363.5H344.9V364.5C345.1 363.7 345.7 363.4 346.2 363.4C346.5 363.5 346.8 363.5 347 363.6Z" fill="#48499A"/>
<path d="M347.3 365.9C347.3 364.4 348.4 363.5 349.8 363.5C351.2 363.5 352.3 364.5 352.3 365.9C352.3 367.3 351.1 368.4 349.8 368.4C348.5 368.4 347.3 367.4 347.3 365.9ZM351.1 365.9C351.1 365.1 350.5 364.5 349.8 364.5C349.1 364.5 348.5 365.1 348.5 365.9C348.5 366.7 349.1 367.3 349.8 367.3C350.5 367.3 351.1 366.7 351.1 365.9Z" fill="#48499A"/>
<path d="M352.1 370.5V369.4H352.7C353.3 369.4 353.5 368.9 353.5 368.4V363.5H354.7V368.3C354.7 369.6 354.1 370.4 352.8 370.4H352.1V370.5ZM353.3 361.9C353.3 361.5 353.6 361.2 354 361.2C354.4 361.2 354.8 361.5 354.8 361.9C354.8 362.3 354.5 362.6 354 362.6C353.6 362.7 353.3 362.3 353.3 361.9Z" fill="#48499A"/>
<path d="M360.5 366.3H356.9C357 366.9 357.5 367.3 358.2 367.3C358.7 367.3 359.2 367.1 359.5 366.7L360.3 367.3C359.9 368 359 368.4 358.2 368.4C356.8 368.4 355.8 367.4 355.8 365.9C355.8 364.4 356.9 363.5 358.2 363.5C359.5 363.5 360.6 364.4 360.6 365.9C360.5 366 360.5 366.2 360.5 366.3ZM359.4 365.5C359.3 364.9 358.8 364.5 358.2 364.5C357.6 364.5 357.1 364.8 356.9 365.5H359.4Z" fill="#48499A"/>
<path d="M361.3 365.9C361.3 364.4 362.5 363.5 363.8 363.5C364.6 363.5 365.3 363.9 365.7 364.4L364.9 365C364.7 364.7 364.3 364.5 363.8 364.5C363 364.5 362.4 365.1 362.4 365.9C362.4 366.7 363 367.3 363.8 367.3C364.2 367.3 364.6 367.1 364.9 366.8L365.7 367.5C365.3 368 364.6 368.4 363.8 368.4C362.5 368.4 361.3 367.4 361.3 365.9Z" fill="#48499A"/>
<path d="M369.3 363.6V364.5H368.3V368.2H367.1V364.5H366.3V363.6H367.1V361.9H368.3V363.6H369.3Z" fill="#48499A"/>
<path d="M377 361.4V362.5H375V368.3H373.8V362.5H371.8V361.4H377Z" fill="#48499A"/>
<path d="M381.5 366.3H377.9C378 366.9 378.5 367.3 379.2 367.3C379.7 367.3 380.2 367.1 380.5 366.7L381.3 367.3C380.9 368 380 368.4 379.2 368.4C377.8 368.4 376.8 367.4 376.8 365.9C376.8 364.4 377.9 363.5 379.2 363.5C380.5 363.5 381.6 364.4 381.6 365.9C381.6 366 381.5 366.2 381.5 366.3ZM380.4 365.5C380.3 364.9 379.8 364.5 379.2 364.5C378.6 364.5 378.1 364.8 377.9 365.5H380.4Z" fill="#48499A"/>
<path d="M386.2 363.6H387.4V368.3H386.2V367.6C385.9 368.1 385.3 368.4 384.6 368.4C383.4 368.4 382.4 367.4 382.4 365.9C382.4 364.5 383.4 363.5 384.7 363.5C385.3 363.5 386 363.8 386.3 364.3V363.6H386.2ZM386.2 365.9C386.2 365.1 385.5 364.5 384.9 364.5C384.2 364.5 383.6 365.1 383.6 365.9C383.6 366.7 384.2 367.3 384.9 367.3C385.6 367.3 386.2 366.7 386.2 365.9Z" fill="#48499A"/>
<path d="M396.2 365.6V368.2H395.1V365.6C395.1 364.8 394.7 364.5 394.2 364.5C393.5 364.5 393.2 365 393.2 365.9V368.2H392V365.6C392 364.9 391.6 364.5 391.1 364.5C390.6 364.5 390 364.8 390 365.7V368.2H388.8V363.5H390V364.2C390.2 363.7 390.8 363.4 391.4 363.4C392.1 363.4 392.6 363.7 392.9 364.3C393.3 363.6 394 363.4 394.5 363.4C395.5 363.5 396.2 364.3 396.2 365.6Z" fill="#48499A"/>
<path d="M298.5 323.3V372.9" stroke="#E7F0FF" stroke-width="0.5" stroke-miterlimit="10"/>
</g>
<defs>
<filter id="filter0_d_502_10059" x="120" y="64" width="375.3" height="380.6" filterUnits="userSpaceOnUse" color-interpolation-filters="sRGB">
<feFlood flood-opacity="0" result="BackgroundImageFix"/>
<feColorMatrix in="SourceAlpha" type="matrix" values="0 0 0 0 0 0 0 0 0 0 0 0 0 0 0 0 0 0 127 0" result="hardAlpha"/>
<feOffset dx="9" dy="9"/>
<feGaussianBlur stdDeviation="25"/>
<feComposite in2="hardAlpha" operator="out"/>
<feColorMatrix type="matrix" values="0 0 0 0 0.215686 0 0 0 0 0.231373 0 0 0 0 0.470588 0 0 0 0.1 0"/>
<feBlend mode="normal" in2="BackgroundImageFix" result="effect1_dropShadow_502_10059"/>
<feBlend mode="normal" in="SourceGraphic" in2="effect1_dropShadow_502_10059" result="shape"/>
</filter>
</defs>
</svg>
