<svg width="598" height="481" viewBox="0 0 598 481" fill="none" xmlns="http://www.w3.org/2000/svg">
<path fill-rule="evenodd" clip-rule="evenodd" d="M401.114 0.507004C506.281 -5.4891 568.042 42.3086 589.438 111.582C610.832 180.855 591.863 271.609 535.563 351.522C325.438 649.787 -65.7543 362.237 9.47121 163.245C46.2108 66.0568 155.829 29.1259 261.056 13.2222C311.611 5.58007 361.153 2.79169 401.114 0.507004Z" fill="#F9FBFF"/>
<g clip-path="url(#clip0_261_6386)">
<g filter="url(#filter0_d_261_6386)">
<path d="M198.8 146.7L185.5 123.7L198.8 100.8H225.4L238.7 123.7L225.4 146.7H198.8Z" fill="white"/>
<path d="M242.6 222.3L229.3 199.3L242.6 176.4H269.2L282.5 199.3L269.2 222.3H242.6Z" fill="white"/>
<path d="M330.3 222.3L317 199.3L330.3 176.4H356.9L370.2 199.3L356.9 222.3H330.3Z" fill="white"/>
<path d="M330.3 171.8L317 148.9L330.3 125.9H356.9L370.2 148.9L356.9 171.8H330.3Z" fill="white"/>
<path d="M198.8 146.7L185.5 123.7L198.8 100.8H225.4L238.7 123.7L225.4 146.7H198.8Z" stroke="#B3D2F3" stroke-width="1.5" stroke-miterlimit="10"/>
<path d="M242.6 222.3L229.3 199.3L242.6 176.4H269.2L282.5 199.3L269.2 222.3H242.6Z" stroke="#B3D2F3" stroke-width="1.5" stroke-miterlimit="10"/>
<path d="M330.3 222.3L317 199.3L330.3 176.4H356.9L370.2 199.3L356.9 222.3H330.3Z" stroke="#B3D2F3" stroke-width="1.5" stroke-miterlimit="10"/>
<path d="M330.3 171.8L317 148.9L330.3 125.9H356.9L370.2 148.9L356.9 171.8H330.3Z" stroke="#B3D2F3" stroke-width="1.5" stroke-miterlimit="10"/>
<path d="M198.8 146.7L185.5 123.7L198.8 100.8H225.4L238.7 123.7L225.4 146.7H198.8Z" stroke="#B3D2F3" stroke-miterlimit="10"/>
<path d="M242.6 222.3L229.3 199.3L242.6 176.4H269.2L282.5 199.3L269.2 222.3H242.6Z" stroke="#B3D2F3" stroke-miterlimit="10"/>
<path d="M330.3 222.3L317 199.3L330.3 176.4H356.9L370.2 199.3L356.9 222.3H330.3Z" stroke="#B3D2F3" stroke-miterlimit="10"/>
<path d="M330.3 171.8L317 148.9L330.3 125.9H356.9L370.2 148.9L356.9 171.8H330.3Z" stroke="#B3D2F3" stroke-miterlimit="10"/>
<path d="M162.7 122.4L149 98.7L162.7 75H190.2L203.9 98.7L190.2 122.4H162.7Z" fill="#494E9D"/>
<path d="M242.2 172.6L228.4 148.9L242.2 125.2H269.7L283.4 148.9L269.7 172.6H242.2Z" fill="#EF5B22"/>
<path d="M286 147.4L272.3 123.7L286 100H313.5L327.2 123.7L313.5 147.4H286Z" fill="#EF5B22"/>
<path d="M198.4 197.8L184.7 174.1L198.4 150.4H225.9L239.6 174.1L225.9 197.8H198.4Z" fill="#494E9D"/>
<path d="M206.6 274.1L192.9 250.4L206.6 226.7H234.1L247.8 250.4L234.1 274.1H206.6Z" fill="#C3DBFA"/>
<path d="M286 197.8L272.3 174.1L286 150.4H313.5L327.2 174.1L313.5 197.8H286Z" fill="#FBAB31"/>
<path d="M389 144.9L375.3 121.2L389 97.5H416.5L430.2 121.2L416.5 144.9H389Z" fill="#C3DBFA"/>
<path d="M373 113.6C359.4 114.7 351.9 127.2 351.2 136.2" stroke="#484DA4" stroke-linejoin="round"/>
<path d="M347.3 132.1L348.2 131.4L351.4 135.8L355.5 132.3L356.2 133.1L351.2 137.4L347.3 132.1Z" fill="#484DA4"/>
<path d="M355.8 114V115.1H352.8V118.2H351.7V115.1H348.6V114H351.7V110.9H352.8V114H355.8Z" fill="#48499A"/>
<path d="M203.9 91C214.1 91.8 219.8 101.1 220.4 107.9" stroke="#484DA4" stroke-linejoin="round"/>
<path d="M215.4 104.9L216 104.1L220.3 107.5L223.4 103L224.3 103.7L220.5 109.1L215.4 104.9Z" fill="#484DA4"/>
<path d="M222 88.4V85.3H223.1V88.4H226.2V89.5H223.1V92.6H222V89.5H218.9V88.4H222Z" fill="#48499A"/>
<path d="M252.1 213.3C257.7 223.3 252.5 234.5 246.4 239.3" stroke="#484DA4" stroke-linejoin="round"/>
<path d="M246.1 233.4L247.2 233.6L246.7 238.9L252.1 239.1L252 240.2L245.4 240L246.1 233.4Z" fill="#484DA4"/>
<path d="M258 233.1V232H264.1V233.1H258Z" fill="#48499A"/>
<path d="M412.3 286.9C431.077 286.9 446.3 271.768 446.3 253.1C446.3 234.433 431.077 219.3 412.3 219.3C393.522 219.3 378.3 234.433 378.3 253.1C378.3 271.768 393.522 286.9 412.3 286.9Z" fill="white"/>
<path d="M404 242.5C404 243.5 403.3 244.5 401.9 244.5H399V237.6H401.7C402.9 237.6 403.7 238.3 403.7 239.4C403.7 239.9 403.5 240.6 402.8 240.8C403.6 240.9 404 241.7 404 242.5ZM401.7 238.6H400.3V240.3H401.7C402.2 240.3 402.5 240 402.5 239.5C402.4 239 402.2 238.6 401.7 238.6ZM401.7 243.3C402.4 243.3 402.8 242.8 402.8 242.3C402.8 241.8 402.5 241.3 401.8 241.3H400.3V243.3H401.7Z" fill="#494E9D"/>
<path d="M405.4 242V237.5H406.6V241.9C406.6 242.9 407.2 243.3 408 243.3C408.7 243.3 409.4 242.9 409.4 241.9V237.5H410.6V242C410.6 243.6 409.4 244.5 408 244.5C406.6 244.5 405.4 243.6 405.4 242Z" fill="#494E9D"/>
<path d="M412.3 244.4V237.5H413.5V244.4H412.3Z" fill="#494E9D"/>
<path d="M416.6 243.3H419.3V244.4H415.4V237.5H416.6V243.3Z" fill="#494E9D"/>
<path d="M423.2 237.5C425.2 237.5 426.3 239 426.3 241C426.3 242.9 425.2 244.4 423.2 244.4H420.5V237.5H423.2ZM423.2 243.3C424.4 243.3 425.1 242.2 425.1 241C425.1 239.7 424.5 238.6 423.2 238.6H421.7V243.3H423.2Z" fill="#494E9D"/>
<path d="M390.7 249.6H392.1L389.4 253.4V256.5H388.2V253.4L385.6 249.7H387L388.8 252.4L390.7 249.6Z" fill="#494E9D"/>
<path d="M392.2 253C392.2 251.1 393.7 249.4 395.7 249.4C397.7 249.4 399.2 251 399.2 253C399.2 254.9 397.7 256.6 395.7 256.6C393.7 256.6 392.2 255 392.2 253ZM398 253C398 251.7 397 250.6 395.7 250.6C394.4 250.6 393.4 251.7 393.4 253C393.4 254.3 394.4 255.4 395.7 255.4C397 255.5 398 254.4 398 253Z" fill="#494E9D"/>
<path d="M400.5 254.1V249.6H401.7V254C401.7 255 402.3 255.4 403.1 255.4C403.8 255.4 404.5 255 404.5 254V249.6H405.7V254.1C405.7 255.7 404.5 256.6 403.1 256.6C401.7 256.6 400.5 255.7 400.5 254.1Z" fill="#494E9D"/>
<path d="M411 256.5L409.3 254H408.7V256.5H407.5V249.6H410.2C411.7 249.6 412.4 250.7 412.4 251.8C412.4 252.8 411.8 253.8 410.7 253.9L412.5 256.4H411V256.5ZM408.7 250.7V253H409.9C410.8 253 411.1 252.5 411.1 251.9C411.1 251.3 410.7 250.8 410 250.8H408.7V250.7Z" fill="#494E9D"/>
<path d="M416 253C416 251.1 417.5 249.4 419.5 249.4C421.5 249.4 423 251 423 253C423 254.9 421.5 256.6 419.5 256.6C417.6 256.6 416 255 416 253ZM421.8 253C421.8 251.7 420.8 250.6 419.5 250.6C418.2 250.6 417.2 251.7 417.2 253C417.2 254.3 418.2 255.4 419.5 255.4C420.9 255.5 421.8 254.4 421.8 253Z" fill="#494E9D"/>
<path d="M431.1 249.6H432.4L430.1 256.5H429.1L428 252.6L426.9 256.5H425.9L423.6 249.6H424.9L426.4 254.4L427.5 250.5H428.5L429.6 254.4L431.1 249.6Z" fill="#494E9D"/>
<path d="M437.3 249.6H438.5V256.5H437.4L434.7 251.9V256.5H433.5V249.6H434.6L437.3 254.2V249.6Z" fill="#494E9D"/>
<path d="M404.2 261.7V262.8H402.2V268.6H401V262.8H399V261.7H404.2Z" fill="#494E9D"/>
<path d="M406.6 267.5H409.7V268.6H405.4V261.7H409.6V262.8H406.6V264.7H409.2V265.8H406.6V267.5Z" fill="#494E9D"/>
<path d="M415.5 268.5L414.9 266.8H412.2L411.6 268.5H410.3L412.9 261.6H414.2L416.8 268.5H415.5ZM412.5 265.8H414.5L413.5 263L412.5 265.8Z" fill="#494E9D"/>
<path d="M425.6 268.5H424.4L423.9 263.9L422 267.7H421L419.1 263.9L418.5 268.5H417.3L418.1 261.6H419.2L421.4 266.3L423.6 261.6H424.7L425.6 268.5Z" fill="#494E9D"/>
<path d="M167.2 303.7H432.9C435.6 303.7 437.7 305.9 437.7 308.5V373.5C437.7 376.2 435.5 378.3 432.9 378.3H167.2C164.5 378.3 162.4 376.1 162.4 373.5V308.5C162.4 305.9 164.5 303.7 167.2 303.7Z" fill="white"/>
<path d="M188.3 333.2H181.1L177.5 339.4L181.1 345.6H188.3L191.9 339.4L188.3 333.2Z" fill="#494E9D"/>
<path d="M188.3 352.7H181.1L177.5 358.9L181.1 365.1H188.3L191.9 358.9L188.3 352.7Z" fill="#C3DBFA"/>
<path d="M186.3 322.5H185.1L184.6 317.9L182.7 321.7H181.7L179.8 317.9L179.2 322.5H178L178.8 315.6H179.9L182.1 320.3L184.3 315.6H185.4L186.3 322.5Z" fill="#48499A"/>
<path d="M187.7 322.5V315.6H188.9V322.5H187.7Z" fill="#48499A"/>
<path d="M195.7 322L196.4 323.1L195.5 323.6L194.8 322.4C194.5 322.5 194.1 322.6 193.8 322.6C191.8 322.6 190.3 321 190.3 319C190.3 317.1 191.8 315.4 193.8 315.4C195.8 315.4 197.3 317 197.3 319C197.2 320.2 196.6 321.3 195.7 322ZM194.1 321.4L193.4 320.3L194.3 319.8L195 321C195.6 320.6 195.9 319.8 195.9 319C195.9 317.7 194.9 316.6 193.6 316.6C192.3 316.6 191.3 317.7 191.3 319C191.3 320.3 192.2 321.4 193.6 321.4C193.9 321.4 194 321.4 194.1 321.4Z" fill="#48499A"/>
<path d="M198.5 320.1V315.6H199.7V320C199.7 321 200.3 321.4 201.1 321.4C201.8 321.4 202.5 321 202.5 320V315.6H203.7V320.1C203.7 321.7 202.5 322.6 201.1 322.6C199.7 322.6 198.5 321.6 198.5 320.1Z" fill="#48499A"/>
<path d="M205.4 322.5V315.6H206.6V322.5H205.4Z" fill="#48499A"/>
<path d="M211 315.6C213 315.6 214.1 317.1 214.1 319.1C214.1 321 213 322.5 211 322.5H208.3V315.6H211ZM211 321.4C212.2 321.4 212.9 320.3 212.9 319.1C212.9 317.8 212.3 316.7 211 316.7H209.5V321.4H211Z" fill="#48499A"/>
<path d="M215.1 319C215.1 317.1 216.6 315.4 218.6 315.4C220.6 315.4 222.1 317 222.1 319C222.1 320.9 220.6 322.6 218.6 322.6C216.6 322.6 215.1 321 215.1 319ZM220.9 319C220.9 317.7 219.9 316.6 218.6 316.6C217.3 316.6 216.3 317.7 216.3 319C216.3 320.3 217.2 321.4 218.6 321.4C219.9 321.4 220.9 320.3 220.9 319Z" fill="#48499A"/>
<path d="M201.4 334.7C202.9 334.7 203.6 335.8 203.6 336.9C203.6 338 203 339.1 201.4 339.1H199.8V341.6H198.6V334.7H201.4ZM201.3 338C202 338 202.3 337.5 202.3 336.9C202.3 336.4 202 335.8 201.3 335.8H199.8V338H201.3Z" fill="#48499A"/>
<path d="M207.7 337L207.5 338.1C207.2 338 207 337.9 206.8 337.9C206 337.9 205.6 338.7 205.6 340V341.6H204.4V336.9H205.6V337.9C205.8 337.1 206.4 336.8 206.9 336.8C207.2 336.8 207.5 336.9 207.7 337Z" fill="#48499A"/>
<path d="M208 339.3C208 337.8 209.1 336.9 210.5 336.9C211.9 336.9 213 337.9 213 339.3C213 340.7 211.8 341.8 210.5 341.8C209.2 341.8 208 340.7 208 339.3ZM211.8 339.3C211.8 338.5 211.2 337.9 210.5 337.9C209.8 337.9 209.2 338.5 209.2 339.3C209.2 340.1 209.8 340.7 210.5 340.7C211.2 340.7 211.8 340.1 211.8 339.3Z" fill="#48499A"/>
<path d="M212.8 343.9V342.8H213.4C214 342.8 214.2 342.3 214.2 341.8V336.9H215.4V341.7C215.4 343 214.8 343.8 213.5 343.8H212.8V343.9ZM214 335.3C214 334.9 214.3 334.6 214.7 334.6C215.1 334.6 215.5 334.9 215.5 335.3C215.5 335.7 215.2 336 214.7 336C214.3 336 214 335.7 214 335.3Z" fill="#48499A"/>
<path d="M221.2 339.7H217.6C217.7 340.3 218.2 340.7 218.9 340.7C219.4 340.7 219.9 340.5 220.2 340.1L221 340.7C220.6 341.4 219.7 341.8 218.9 341.8C217.5 341.8 216.5 340.8 216.5 339.3C216.5 337.8 217.6 336.9 218.9 336.9C220.2 336.9 221.3 337.8 221.3 339.3C221.3 339.4 221.3 339.5 221.2 339.7ZM220.1 338.9C220 338.3 219.5 337.9 218.9 337.9C218.3 337.9 217.8 338.2 217.6 338.9H220.1Z" fill="#48499A"/>
<path d="M222 339.3C222 337.8 223.2 336.9 224.5 336.9C225.3 336.9 226 337.3 226.4 337.8L225.6 338.4C225.4 338.1 225 337.9 224.5 337.9C223.7 337.9 223.1 338.5 223.1 339.3C223.1 340.1 223.7 340.7 224.5 340.7C224.9 340.7 225.3 340.5 225.6 340.2L226.4 340.9C226 341.4 225.3 341.8 224.5 341.8C223.2 341.7 222 340.7 222 339.3Z" fill="#48499A"/>
<path d="M230 336.9V337.8H229V341.5H227.8V337.8H227V336.9H227.8V335.2H229V336.9H230Z" fill="#48499A"/>
<path d="M234.8 340.5H237.5V341.6H233.6V334.7H234.8V340.5Z" fill="#48499A"/>
<path d="M242.8 339.7H239.2C239.3 340.3 239.8 340.7 240.5 340.7C241 340.7 241.5 340.5 241.8 340.1L242.6 340.7C242.2 341.4 241.3 341.8 240.5 341.8C239.1 341.8 238.1 340.8 238.1 339.3C238.1 337.8 239.2 336.9 240.5 336.9C241.8 336.9 242.9 337.8 242.9 339.3C242.8 339.4 242.8 339.5 242.8 339.7ZM241.7 338.9C241.6 338.3 241.1 337.9 240.5 337.9C239.9 337.9 239.4 338.2 239.2 338.9H241.7Z" fill="#48499A"/>
<path d="M247.5 336.9H248.7V341.6H247.5V340.9C247.2 341.4 246.6 341.7 245.9 341.7C244.7 341.7 243.7 340.7 243.7 339.2C243.7 337.8 244.7 336.8 246 336.8C246.6 336.8 247.3 337.1 247.6 337.6V336.9H247.5ZM247.4 339.3C247.4 338.5 246.7 337.9 246.1 337.9C245.4 337.9 244.8 338.5 244.8 339.3C244.8 340.1 245.4 340.7 246.1 340.7C246.8 340.6 247.4 340 247.4 339.3Z" fill="#48499A"/>
<path d="M253.6 334.4H254.8V341.6H253.6V341C253.3 341.5 252.6 341.7 252.1 341.7C250.9 341.7 249.8 340.7 249.8 339.2C249.8 337.7 250.9 336.8 252.1 336.8C252.7 336.8 253.3 337 253.7 337.5V334.4H253.6ZM253.5 339.3C253.5 338.5 252.8 337.9 252.2 337.9C251.5 337.9 250.9 338.5 250.9 339.3C250.9 340.1 251.5 340.7 252.2 340.7C252.9 340.6 253.5 340.1 253.5 339.3Z" fill="#48499A"/>
<path d="M260.6 339.7H257C257.1 340.3 257.6 340.7 258.3 340.7C258.8 340.7 259.3 340.5 259.6 340.1L260.4 340.7C260 341.4 259.1 341.8 258.3 341.8C256.9 341.8 255.9 340.8 255.9 339.3C255.9 337.8 257 336.9 258.3 336.9C259.6 336.9 260.7 337.8 260.7 339.3C260.7 339.4 260.6 339.5 260.6 339.7ZM259.5 338.9C259.4 338.3 258.9 337.9 258.3 337.9C257.7 337.9 257.2 338.2 257 338.9H259.5Z" fill="#48499A"/>
<path d="M265 337L264.8 338.1C264.5 338 264.3 337.9 264.1 337.9C263.3 337.9 262.9 338.7 262.9 340V341.6H261.7V336.9H262.9V337.9C263.1 337.1 263.7 336.8 264.2 336.8C264.5 336.8 264.8 336.9 265 337Z" fill="#48499A"/>
<path d="M265.4 340.2H266.5C266.5 340.5 266.8 340.8 267.3 340.8C267.8 340.8 268.1 340.6 268.1 340.3C268.1 340 267.9 339.9 267.6 339.8L267 339.6C266 339.3 265.7 338.8 265.7 338.2C265.7 337.5 266.4 336.8 267.4 336.8C268.2 336.8 269.2 337.2 269.2 338.3H268.1C268.1 338 267.8 337.8 267.5 337.8C267.1 337.8 266.9 338 266.9 338.3C266.9 338.5 267.1 338.7 267.4 338.7L268.1 338.9C269.1 339.2 269.3 339.8 269.3 340.3C269.3 341.3 268.4 341.8 267.4 341.8C266.3 341.7 265.4 341.2 265.4 340.2Z" fill="#48499A"/>
<path d="M274.7 339V341.6H273.5V339.1C273.5 338.4 273.1 338 272.5 338C272 338 271.3 338.3 271.3 339.2V341.7H270.1V334.5H271.3V337.7C271.5 337.1 272.3 336.9 272.7 336.9C274 336.8 274.7 337.6 274.7 339Z" fill="#48499A"/>
<path d="M275.8 335.3C275.8 334.9 276.1 334.6 276.6 334.6C277 334.6 277.3 334.9 277.3 335.3C277.3 335.7 277 336 276.6 336C276.2 336 275.8 335.7 275.8 335.3ZM276 341.6V336.9H277.2V341.6H276Z" fill="#48499A"/>
<path d="M283.6 339.3C283.6 340.8 282.5 341.7 281.3 341.7C280.7 341.7 280.1 341.5 279.7 341V343.9H278.5V337H279.7V337.6C280 337.1 280.7 336.9 281.2 336.9C282.5 336.8 283.6 337.8 283.6 339.3ZM282.4 339.3C282.4 338.5 281.8 337.9 281.1 337.9C280.4 337.9 279.8 338.5 279.8 339.3C279.8 340.1 280.5 340.7 281.1 340.7C281.8 340.6 282.4 340.1 282.4 339.3Z" fill="#48499A"/>
<path d="M201.4 354.2C202.9 354.2 203.6 355.3 203.6 356.4C203.6 357.5 203 358.6 201.4 358.6H199.8V361.1H198.6V354.2H201.4ZM201.3 357.5C202 357.5 202.3 357 202.3 356.4C202.3 355.9 202 355.3 201.3 355.3H199.8V357.5H201.3Z" fill="#48499A"/>
<path d="M207.7 356.4L207.5 357.5C207.2 357.4 207 357.3 206.8 357.3C206 357.3 205.6 358.1 205.6 359.4V361H204.4V356.3H205.6V357.3C205.8 356.5 206.4 356.2 206.9 356.2C207.2 356.3 207.5 356.3 207.7 356.4Z" fill="#48499A"/>
<path d="M208 358.7C208 357.2 209.1 356.3 210.5 356.3C211.9 356.3 213 357.3 213 358.7C213 360.1 211.8 361.2 210.5 361.2C209.2 361.2 208 360.2 208 358.7ZM211.8 358.7C211.8 357.9 211.2 357.3 210.5 357.3C209.8 357.3 209.2 357.9 209.2 358.7C209.2 359.5 209.8 360.1 210.5 360.1C211.2 360.1 211.8 359.5 211.8 358.7Z" fill="#48499A"/>
<path d="M212.8 363.3V362.2H213.4C214 362.2 214.2 361.7 214.2 361.2V356.3H215.4V361.1C215.4 362.4 214.8 363.2 213.5 363.2H212.8V363.3ZM214 354.7C214 354.3 214.3 354 214.7 354C215.1 354 215.5 354.3 215.5 354.7C215.5 355.1 215.2 355.4 214.7 355.4C214.3 355.5 214 355.1 214 354.7Z" fill="#48499A"/>
<path d="M221.2 359.1H217.6C217.7 359.7 218.2 360.1 218.9 360.1C219.4 360.1 219.9 359.9 220.2 359.5L221 360.1C220.6 360.8 219.7 361.2 218.9 361.2C217.5 361.2 216.5 360.2 216.5 358.7C216.5 357.2 217.6 356.3 218.9 356.3C220.2 356.3 221.3 357.2 221.3 358.7C221.3 358.8 221.3 359 221.2 359.1ZM220.1 358.3C220 357.7 219.5 357.3 218.9 357.3C218.3 357.3 217.8 357.6 217.6 358.3H220.1Z" fill="#48499A"/>
<path d="M222 358.7C222 357.2 223.2 356.3 224.5 356.3C225.3 356.3 226 356.7 226.4 357.2L225.6 357.8C225.4 357.5 225 357.3 224.5 357.3C223.7 357.3 223.1 357.9 223.1 358.7C223.1 359.5 223.7 360.1 224.5 360.1C224.9 360.1 225.3 359.9 225.6 359.6L226.4 360.3C226 360.8 225.3 361.2 224.5 361.2C223.2 361.2 222 360.2 222 358.7Z" fill="#48499A"/>
<path d="M230 356.4V357.3H229V361H227.8V357.3H227V356.4H227.8V354.7H229V356.4H230Z" fill="#48499A"/>
<path d="M237.7 354.2V355.3H235.7V361.1H234.5V355.3H232.5V354.2H237.7Z" fill="#48499A"/>
<path d="M242.3 359.1H238.7C238.8 359.7 239.3 360.1 240 360.1C240.5 360.1 241 359.9 241.3 359.5L242.1 360.1C241.7 360.8 240.8 361.2 240 361.2C238.6 361.2 237.6 360.2 237.6 358.7C237.6 357.2 238.7 356.3 240 356.3C241.3 356.3 242.4 357.2 242.4 358.7C242.3 358.8 242.3 359 242.3 359.1ZM241.1 358.3C241 357.7 240.5 357.3 239.9 357.3C239.3 357.3 238.8 357.6 238.6 358.3H241.1Z" fill="#48499A"/>
<path d="M246.9 356.4H248.1V361.1H246.9V360.4C246.6 360.9 246 361.2 245.3 361.2C244.1 361.2 243.1 360.2 243.1 358.7C243.1 357.3 244.1 356.3 245.4 356.3C246 356.3 246.7 356.6 247 357.1V356.4H246.9ZM246.9 358.7C246.9 357.9 246.2 357.3 245.6 357.3C244.9 357.3 244.3 357.9 244.3 358.7C244.3 359.5 244.9 360.1 245.6 360.1C246.3 360.1 246.9 359.5 246.9 358.7Z" fill="#48499A"/>
<path d="M256.9 358.4V361H255.8V358.4C255.8 357.6 255.4 357.3 254.9 357.3C254.2 357.3 253.9 357.8 253.9 358.7V361H252.7V358.4C252.7 357.7 252.3 357.3 251.8 357.3C251.3 357.3 250.7 357.6 250.7 358.5V361H249.5V356.3H250.7V357C250.9 356.5 251.5 356.2 252.1 356.2C252.8 356.2 253.3 356.5 253.6 357.1C254 356.4 254.7 356.2 255.2 356.2C256.3 356.3 256.9 357.1 256.9 358.4Z" fill="#48499A"/>
<path d="M329 333.2H321.8L318.2 339.4L321.8 345.6H329L332.6 339.4L329 333.2Z" fill="#EF5B22"/>
<path d="M329 352.7H321.8L318.2 358.9L321.8 365.1H329L332.6 358.9L329 352.7Z" fill="#FBAB31"/>
<path d="M318.6 320C318.6 318.1 320.2 316.4 322.1 316.4C323.2 316.4 324.2 316.9 324.8 317.7L323.9 318.4C323.5 317.9 322.9 317.5 322.1 317.5C320.8 317.5 319.8 318.6 319.8 319.9C319.8 321.2 320.8 322.3 322.1 322.3C322.8 322.3 323.5 322 323.9 321.4L324.8 322.1C324.2 322.9 323.2 323.4 322.1 323.4C320.2 323.5 318.6 321.9 318.6 320Z" fill="#48499A"/>
<path d="M327.2 322.3H329.9V323.4H326V316.5H327.2V322.3Z" fill="#48499A"/>
<path d="M331 323.4V316.5H332.2V323.4H331Z" fill="#48499A"/>
<path d="M335.2 322.3H338.3V323.4H334V316.5H338.2V317.6H335.2V319.5H337.8V320.6H335.2V322.3Z" fill="#48499A"/>
<path d="M343.6 316.5H344.8V323.4H343.7L341 318.8V323.4H339.8V316.5H340.9L343.6 321.1V316.5Z" fill="#48499A"/>
<path d="M351 316.5V317.6H349V323.4H347.8V317.6H345.8V316.5H351Z" fill="#48499A"/>
<path d="M342 334.7C343.5 334.7 344.2 335.8 344.2 336.9C344.2 338 343.6 339.1 342 339.1H340.4V341.6H339.2V334.7H342ZM342 338C342.7 338 343 337.5 343 336.9C343 336.4 342.7 335.8 342 335.8H340.5V338H342Z" fill="#48499A"/>
<path d="M348.4 337L348.2 338.1C347.9 338 347.7 337.9 347.5 337.9C346.7 337.9 346.3 338.7 346.3 340V341.6H345.1V336.9H346.3V337.9C346.5 337.1 347.1 336.8 347.6 336.8C347.9 336.8 348.2 336.9 348.4 337Z" fill="#48499A"/>
<path d="M348.7 339.3C348.7 337.8 349.8 336.9 351.2 336.9C352.6 336.9 353.7 337.9 353.7 339.3C353.7 340.7 352.5 341.8 351.2 341.8C349.9 341.8 348.7 340.7 348.7 339.3ZM352.5 339.3C352.5 338.5 351.9 337.9 351.2 337.9C350.5 337.9 349.9 338.5 349.9 339.3C349.9 340.1 350.5 340.7 351.2 340.7C351.9 340.7 352.5 340.1 352.5 339.3Z" fill="#48499A"/>
<path d="M353.5 343.9V342.8H354.1C354.7 342.8 354.9 342.3 354.9 341.8V336.9H356.1V341.7C356.1 343 355.5 343.8 354.2 343.8H353.5V343.9ZM354.7 335.3C354.7 334.9 355 334.6 355.4 334.6C355.8 334.6 356.2 334.9 356.2 335.3C356.2 335.7 355.9 336 355.4 336C355 336 354.7 335.7 354.7 335.3Z" fill="#48499A"/>
<path d="M361.9 339.7H358.3C358.4 340.3 358.9 340.7 359.6 340.7C360.1 340.7 360.6 340.5 360.9 340.1L361.7 340.7C361.3 341.4 360.4 341.8 359.6 341.8C358.2 341.8 357.2 340.8 357.2 339.3C357.2 337.8 358.3 336.9 359.6 336.9C360.9 336.9 362 337.8 362 339.3C361.9 339.4 361.9 339.5 361.9 339.7ZM360.8 338.9C360.7 338.3 360.2 337.9 359.6 337.9C359 337.9 358.5 338.2 358.3 338.9H360.8Z" fill="#48499A"/>
<path d="M362.7 339.3C362.7 337.8 363.9 336.9 365.2 336.9C366 336.9 366.7 337.3 367.1 337.8L366.3 338.4C366.1 338.1 365.7 337.9 365.2 337.9C364.4 337.9 363.8 338.5 363.8 339.3C363.8 340.1 364.4 340.7 365.2 340.7C365.6 340.7 366 340.5 366.3 340.2L367.1 340.9C366.7 341.4 366 341.8 365.2 341.8C363.9 341.7 362.7 340.7 362.7 339.3Z" fill="#48499A"/>
<path d="M370.7 336.9V337.8H369.7V341.5H368.5V337.8H367.7V336.9H368.5V335.2H369.7V336.9H370.7Z" fill="#48499A"/>
<path d="M375.5 340.5H378.2V341.6H374.3V334.7H375.5V340.5Z" fill="#48499A"/>
<path d="M383.5 339.7H379.8C379.9 340.3 380.4 340.7 381.1 340.7C381.6 340.7 382.1 340.5 382.4 340.1L383.2 340.7C382.8 341.4 381.9 341.8 381.1 341.8C379.7 341.8 378.7 340.8 378.7 339.3C378.7 337.8 379.8 336.9 381.1 336.9C382.4 336.9 383.5 337.8 383.5 339.3C383.5 339.4 383.5 339.5 383.5 339.7ZM382.3 338.9C382.2 338.3 381.7 337.9 381.1 337.9C380.5 337.9 380 338.2 379.8 338.9H382.3Z" fill="#48499A"/>
<path d="M388.1 336.9H389.3V341.6H388.1V340.9C387.8 341.4 387.2 341.7 386.5 341.7C385.3 341.7 384.3 340.7 384.3 339.2C384.3 337.8 385.3 336.8 386.6 336.8C387.2 336.8 387.9 337.1 388.2 337.6V336.9H388.1ZM388.1 339.3C388.1 338.5 387.4 337.9 386.8 337.9C386.1 337.9 385.5 338.5 385.5 339.3C385.5 340.1 386.1 340.7 386.8 340.7C387.5 340.6 388.1 340 388.1 339.3Z" fill="#48499A"/>
<path d="M394.2 334.4H395.4V341.6H394.2V341C393.9 341.5 393.2 341.7 392.7 341.7C391.5 341.7 390.4 340.7 390.4 339.2C390.4 337.7 391.5 336.8 392.7 336.8C393.3 336.8 393.9 337 394.3 337.5V334.4H394.2ZM394.2 339.3C394.2 338.5 393.5 337.9 392.9 337.9C392.2 337.9 391.6 338.5 391.6 339.3C391.6 340.1 392.2 340.7 392.9 340.7C393.6 340.6 394.2 340.1 394.2 339.3Z" fill="#48499A"/>
<path d="M401.3 339.7H397.7C397.8 340.3 398.3 340.7 399 340.7C399.5 340.7 400 340.5 400.3 340.1L401.1 340.7C400.7 341.4 399.8 341.8 399 341.8C397.6 341.8 396.6 340.8 396.6 339.3C396.6 337.8 397.7 336.9 399 336.9C400.3 336.9 401.4 337.8 401.4 339.3C401.3 339.4 401.3 339.5 401.3 339.7ZM400.2 338.9C400.1 338.3 399.6 337.9 399 337.9C398.4 337.9 397.9 338.2 397.7 338.9H400.2Z" fill="#48499A"/>
<path d="M405.7 337L405.5 338.1C405.2 338 405 337.9 404.8 337.9C404 337.9 403.6 338.7 403.6 340V341.6H402.4V336.9H403.6V337.9C403.8 337.1 404.4 336.8 404.9 336.8C405.2 336.8 405.5 336.9 405.7 337Z" fill="#48499A"/>
<path d="M406 340.2H407.1C407.1 340.5 407.4 340.8 407.9 340.8C408.4 340.8 408.7 340.6 408.7 340.3C408.7 340 408.5 339.9 408.2 339.8L407.6 339.6C406.6 339.3 406.3 338.8 406.3 338.2C406.3 337.5 407 336.8 408 336.8C408.8 336.8 409.8 337.2 409.8 338.3H408.7C408.7 338 408.4 337.8 408.1 337.8C407.7 337.8 407.5 338 407.5 338.3C407.5 338.5 407.7 338.7 408 338.7L408.8 338.9C409.8 339.2 410 339.8 410 340.3C410 341.3 409.1 341.8 408.1 341.8C407 341.7 406.1 341.2 406 340.2Z" fill="#48499A"/>
<path d="M415.4 339V341.6H414.2V339.1C414.2 338.4 413.7 338 413.2 338C412.7 338 412 338.3 412 339.2V341.7H410.8V334.5H412V337.7C412.2 337.1 413 336.9 413.4 336.9C414.7 336.8 415.4 337.6 415.4 339Z" fill="#48499A"/>
<path d="M416.5 335.3C416.5 334.9 416.8 334.6 417.3 334.6C417.7 334.6 418 334.9 418 335.3C418 335.7 417.7 336 417.3 336C416.9 336 416.5 335.7 416.5 335.3ZM416.7 341.6V336.9H417.9V341.6H416.7Z" fill="#48499A"/>
<path d="M424.2 339.3C424.2 340.8 423.1 341.7 421.9 341.7C421.3 341.7 420.7 341.5 420.3 341V343.9H419.1V337H420.3V337.6C420.6 337.1 421.3 336.9 421.8 336.9C423.2 336.8 424.2 337.8 424.2 339.3ZM423.1 339.3C423.1 338.5 422.5 337.9 421.8 337.9C421.1 337.9 420.5 338.5 420.5 339.3C420.5 340.1 421.2 340.7 421.8 340.7C422.5 340.6 423.1 340.1 423.1 339.3Z" fill="#48499A"/>
<path d="M342 354.2C343.5 354.2 344.2 355.3 344.2 356.4C344.2 357.5 343.6 358.6 342 358.6H340.4V361.1H339.2V354.2H342ZM342 357.5C342.7 357.5 343 357 343 356.4C343 355.9 342.7 355.3 342 355.3H340.5V357.5H342Z" fill="#48499A"/>
<path d="M348.4 356.4L348.2 357.5C347.9 357.4 347.7 357.3 347.5 357.3C346.7 357.3 346.3 358.1 346.3 359.4V361H345.1V356.3H346.3V357.3C346.5 356.5 347.1 356.2 347.6 356.2C347.9 356.3 348.2 356.3 348.4 356.4Z" fill="#48499A"/>
<path d="M348.7 358.7C348.7 357.2 349.8 356.3 351.2 356.3C352.6 356.3 353.7 357.3 353.7 358.7C353.7 360.1 352.5 361.2 351.2 361.2C349.9 361.2 348.7 360.2 348.7 358.7ZM352.5 358.7C352.5 357.9 351.9 357.3 351.2 357.3C350.5 357.3 349.9 357.9 349.9 358.7C349.9 359.5 350.5 360.1 351.2 360.1C351.9 360.1 352.5 359.5 352.5 358.7Z" fill="#48499A"/>
<path d="M353.5 363.3V362.2H354.1C354.7 362.2 354.9 361.7 354.9 361.2V356.3H356.1V361.1C356.1 362.4 355.5 363.2 354.2 363.2H353.5V363.3ZM354.7 354.7C354.7 354.3 355 354 355.4 354C355.8 354 356.2 354.3 356.2 354.7C356.2 355.1 355.9 355.4 355.4 355.4C355 355.5 354.7 355.1 354.7 354.7Z" fill="#48499A"/>
<path d="M361.9 359.1H358.3C358.4 359.7 358.9 360.1 359.6 360.1C360.1 360.1 360.6 359.9 360.9 359.5L361.7 360.1C361.3 360.8 360.4 361.2 359.6 361.2C358.2 361.2 357.2 360.2 357.2 358.7C357.2 357.2 358.3 356.3 359.6 356.3C360.9 356.3 362 357.2 362 358.7C361.9 358.8 361.9 359 361.9 359.1ZM360.8 358.3C360.7 357.7 360.2 357.3 359.6 357.3C359 357.3 358.5 357.6 358.3 358.3H360.8Z" fill="#48499A"/>
<path d="M362.7 358.7C362.7 357.2 363.9 356.3 365.2 356.3C366 356.3 366.7 356.7 367.1 357.2L366.3 357.8C366.1 357.5 365.7 357.3 365.2 357.3C364.4 357.3 363.8 357.9 363.8 358.7C363.8 359.5 364.4 360.1 365.2 360.1C365.6 360.1 366 359.9 366.3 359.6L367.1 360.3C366.7 360.8 366 361.2 365.2 361.2C363.9 361.2 362.7 360.2 362.7 358.7Z" fill="#48499A"/>
<path d="M370.7 356.4V357.3H369.7V361H368.5V357.3H367.7V356.4H368.5V354.7H369.7V356.4H370.7Z" fill="#48499A"/>
<path d="M378.4 354.2V355.3H376.4V361.1H375.2V355.3H373.2V354.2H378.4Z" fill="#48499A"/>
<path d="M382.9 359.1H379.3C379.4 359.7 379.9 360.1 380.6 360.1C381.1 360.1 381.6 359.9 381.9 359.5L382.7 360.1C382.3 360.8 381.4 361.2 380.6 361.2C379.2 361.2 378.2 360.2 378.2 358.7C378.2 357.2 379.3 356.3 380.6 356.3C381.9 356.3 383 357.2 383 358.7C383 358.8 382.9 359 382.9 359.1ZM381.8 358.3C381.7 357.7 381.2 357.3 380.6 357.3C380 357.3 379.5 357.6 379.3 358.3H381.8Z" fill="#48499A"/>
<path d="M387.6 356.4H388.8V361.1H387.6V360.4C387.3 360.9 386.7 361.2 386 361.2C384.8 361.2 383.8 360.2 383.8 358.7C383.8 357.3 384.8 356.3 386.1 356.3C386.7 356.3 387.4 356.6 387.7 357.1V356.4H387.6ZM387.6 358.7C387.6 357.9 386.9 357.3 386.3 357.3C385.5 357.3 385 357.9 385 358.7C385 359.5 385.6 360.1 386.3 360.1C387 360.1 387.6 359.5 387.6 358.7Z" fill="#48499A"/>
<path d="M397.6 358.4V361H396.5V358.4C396.5 357.6 396.1 357.3 395.6 357.3C394.9 357.3 394.6 357.8 394.6 358.7V361H393.4V358.4C393.4 357.7 393 357.3 392.5 357.3C392 357.3 391.4 357.6 391.4 358.5V361H390.2V356.3H391.4V357C391.6 356.5 392.2 356.2 392.8 356.2C393.5 356.2 394 356.5 394.3 357.1C394.7 356.4 395.4 356.2 395.9 356.2C396.9 356.3 397.6 357.1 397.6 358.4Z" fill="#48499A"/>
<path d="M299.9 316.1V365.7" stroke="#E7F0FF" stroke-width="0.5" stroke-miterlimit="10"/>
</g>
</g>
<defs>
<filter id="filter0_d_261_6386" x="108" y="34" width="397.3" height="403.3" filterUnits="userSpaceOnUse" color-interpolation-filters="sRGB">
<feFlood flood-opacity="0" result="BackgroundImageFix"/>
<feColorMatrix in="SourceAlpha" type="matrix" values="0 0 0 0 0 0 0 0 0 0 0 0 0 0 0 0 0 0 127 0" result="hardAlpha"/>
<feOffset dx="9" dy="9"/>
<feGaussianBlur stdDeviation="25"/>
<feComposite in2="hardAlpha" operator="out"/>
<feColorMatrix type="matrix" values="0 0 0 0 0.215686 0 0 0 0 0.231373 0 0 0 0 0.470588 0 0 0 0.1 0"/>
<feBlend mode="normal" in2="BackgroundImageFix" result="effect1_dropShadow_261_6386"/>
<feBlend mode="normal" in="SourceGraphic" in2="effect1_dropShadow_261_6386" result="shape"/>
</filter>
<clipPath id="clip0_261_6386">
<rect width="494.45" height="408.7" fill="white" transform="translate(51 23)"/>
</clipPath>
</defs>
</svg>
