<svg width="598" height="481" viewBox="0 0 598 481" fill="none" xmlns="http://www.w3.org/2000/svg">
<path fill-rule="evenodd" clip-rule="evenodd" d="M401.114 0.507004C506.281 -5.4891 568.042 42.3086 589.438 111.582C610.832 180.855 591.863 271.609 535.563 351.522C325.438 649.787 -65.7543 362.237 9.47121 163.245C46.2108 66.0568 155.829 29.1259 261.056 13.2222C311.611 5.58007 361.153 2.79169 401.114 0.507004Z" fill="#F9FBFF"/>
<g filter="url(#filter0_d_261_6352)">
<path d="M129.1 138.9L115.6 115.9L129.1 92.8999H156.1L169.6 115.9L156.1 138.9H129.1Z" fill="#C3DBFA"/>
<path d="M128.7 139.7L114.7 115.9L128.7 92.2002H156.5L170.5 115.9L156.5 139.7H128.7Z" fill="#EF5B22"/>
<path d="M127.1 116.5C127.1 113.6 129.5 111.2 132.4 111.2C134.1 111.2 135.6 112 136.6 113.2L135.2 114.2C134.6 113.4 133.6 112.9 132.5 112.9C130.5 112.9 129 114.6 129 116.5C129 118.5 130.5 120.1 132.5 120.1C133.6 120.1 134.6 119.6 135.2 118.8L136.6 119.8C135.7 121 134.1 121.8 132.4 121.8C129.5 121.8 127.1 119.4 127.1 116.5Z" fill="white"/>
<path d="M145.4 111.3V112.9H142.4V121.6H140.5V112.9H137.5V111.3H145.4Z" fill="white"/>
<path d="M146.1 116.5C146.1 113.6 148.4 111.2 151.4 111.2C154.4 111.2 156.7 113.6 156.7 116.5C156.7 119.4 154.3 121.8 151.4 121.8C148.4 121.8 146.1 119.4 146.1 116.5ZM154.9 116.5C154.9 114.5 153.4 112.9 151.4 112.9C149.4 112.9 147.9 114.6 147.9 116.5C147.9 118.5 149.4 120.1 151.4 120.1C153.4 120.1 154.9 118.4 154.9 116.5Z" fill="white"/>
<path d="M123.7 230.8L114 214.9L123.7 199.1H142.9L152.6 214.9L142.9 230.8H123.7Z" fill="#494E9D"/>
<path d="M155.4 248.3L145.7 232.4L155.4 216.5H174.7L184.3 232.4L174.7 248.3H155.4Z" fill="#C3DBFA"/>
<path d="M187.1 230.8L177.5 215L187.1 199.1H206.4L216 215L206.4 230.8H187.1Z" fill="#C3DBFA"/>
<path d="M123.7 265.7L114 249.8L123.7 233.9H142.9L152.6 249.8L142.9 265.7H123.7Z" fill="#C3DBFA"/>
<path d="M155.4 283.1L145.7 267.2L155.4 251.4H174.7L184.3 267.2L174.7 283.1H155.4Z" fill="#C3DBFA"/>
<path d="M155.4 213L145.7 197.1L155.4 181.2H174.7L184.3 197.1L174.7 213H155.4Z" fill="#494E9D"/>
<path d="M187.1 265.7L177.5 249.8L187.1 233.9H206.4L216 249.8L206.4 265.7H187.1Z" fill="#C3DBFA"/>
<path d="M257.2 230.8L247.6 214.9L257.2 199.1H276.5L286.1 214.9L276.5 230.8H257.2Z" fill="#494E9D"/>
<path d="M288.9 248.3L279.3 232.4L288.9 216.5H308.2L317.8 232.4L308.2 248.3H288.9Z" fill="#C3DBFA"/>
<path d="M320.7 230.8L311.1 215L320.7 199.1H340L349.6 215L340 230.8H320.7Z" fill="#C3DBFA"/>
<path d="M257.2 265.7L247.6 249.8L257.2 233.9H276.5L286.1 249.8L276.5 265.7H257.2Z" fill="#C3DBFA"/>
<path d="M288.9 283.1L279.3 267.2L288.9 251.4H308.2L317.8 267.2L308.2 283.1H288.9Z" fill="#C3DBFA"/>
<path d="M288.9 213L279.3 197.1L288.9 181.2H308.2L317.8 197.1L308.2 213H288.9Z" fill="#494E9D"/>
<path d="M320.7 265.7L311.1 249.8L320.7 233.9H340L349.6 249.8L340 265.7H320.7Z" fill="#C3DBFA"/>
<path d="M390.8 230.8L381.2 214.9L390.8 199.1H410.1L419.7 214.9L410.1 230.8H390.8Z" fill="#494E9D"/>
<path d="M422.5 248.3L412.9 232.4L422.5 216.5H441.8L451.4 232.4L441.8 248.3H422.5Z" fill="#C3DBFA"/>
<path d="M454.2 230.8L444.6 215L454.2 199.1H473.5L483.1 215L473.5 230.8H454.2Z" fill="#C3DBFA"/>
<path d="M390.8 265.7L381.2 249.8L390.8 233.9H410.1L419.7 249.8L410.1 265.7H390.8Z" fill="#C3DBFA"/>
<path d="M422.5 283.1L412.9 267.2L422.5 251.4H441.8L451.4 267.2L441.8 283.1H422.5Z" fill="#C3DBFA"/>
<path d="M422.5 213L412.9 197.1L422.5 181.2H441.8L451.4 197.1L441.8 213H422.5Z" fill="#494E9D"/>
<path d="M454.2 265.7L444.6 249.8L454.2 233.9H473.5L483.1 249.8L473.5 265.7H454.2Z" fill="#C3DBFA"/>
<path d="M240.4 138.9L226.9 115.9L240.4 92.9H267.4L280.9 115.9L267.4 138.9H240.4Z" fill="#C3DBFA"/>
<path d="M329.3 138.9L315.8 115.9L329.3 92.9H356.3L369.8 115.9L356.3 138.9H329.3Z" fill="#C3DBFA"/>
<path d="M240 139.7L226 115.9L240 92.2H267.9L281.8 115.9L267.9 139.7H240Z" fill="#494E9D"/>
<path d="M328.9 139.7L315 115.9L328.9 92.2H356.8L370.7 115.9L356.8 139.7H328.9Z" fill="#494E9D"/>
<path d="M247 111.3C249.3 111.3 250.3 113 250.3 114.6C250.3 116.3 249.3 117.9 247 117.9H244.6V121.6H242.7V111.3H247ZM247 116.3C248.1 116.3 248.5 115.5 248.5 114.6C248.5 113.8 248.1 112.9 247 112.9H244.6V116.2H247V116.3Z" fill="white"/>
<path d="M264.3 121.6H262.4L261.6 114.7L258.8 120.5H257.3L254.4 114.8L253.5 121.7H251.6L252.9 111.4H254.5L257.9 118.5L261.3 111.4H262.9L264.3 121.6Z" fill="white"/>
<path d="M284.8 113.7L271.4 90.7L284.8 67.7H311.8L325.4 90.7L311.8 113.7H284.8Z" fill="#C3DBFA"/>
<path d="M284.4 114.5L270.5 90.7L284.4 67H312.3L326.2 90.7L312.3 114.5H284.4Z" fill="#494E9D"/>
<path d="M290 93.4H291.8C291.8 94.2 292.6 94.9 293.8 94.9C294.9 94.9 295.6 94.3 295.6 93.4C295.6 92.7 295 92.3 294.1 92L292.8 91.6C290.5 91 290.1 89.7 290.1 88.8C290.1 87 291.7 85.7 293.7 85.7C295.6 85.7 297.1 86.9 297.1 88.8H295.3C295.3 87.9 294.6 87.3 293.7 87.3C292.8 87.3 292.1 87.9 292.1 88.7C292.1 89 292.2 89.6 293.4 89.9L294.7 90.3C296.3 90.7 297.6 91.6 297.6 93.2C297.6 95.1 296 96.2999 293.9 96.2999C291.5 96.5999 290 95.2 290 93.4Z" fill="white"/>
<path d="M306 96.4L305.1 93.9H301L300.1 96.4H298.1L302.1 86.1H304.1L308 96.4H306ZM301.6 92.3H304.6L303.1 88.1L301.6 92.3Z" fill="white"/>
<path d="M335.7 111.5C338.7 111.5 340.5 113.7 340.5 116.7C340.5 119.6 338.7 121.8 335.7 121.8H331.6V111.5H335.7ZM335.7 120.2C337.6 120.2 338.6 118.6 338.6 116.7C338.6 114.8 337.6 113.2 335.7 113.2H333.4V120.3H335.7V120.2Z" fill="white"/>
<path d="M354.7 121.8H352.8L352 114.9L349.2 120.7H347.7L344.8 115L343.9 121.9H342L343.3 111.6H344.9L348.3 118.7L351.7 111.6H353.3L354.7 121.8Z" fill="white"/>
<path d="M298.2 126.5V167" stroke="#484DA4" stroke-linejoin="round"/>
<path d="M293.7 163.3L294.5 162.6L298.2 166.6L301.8 162.6L302.7 163.3L298.2 168.2L293.7 163.3Z" fill="#484DA4"/>
<path d="M224.8 136.7L186.9 177.8" stroke="#484DA4" stroke-linejoin="round"/>
<path d="M186.1 172H187.2V177.5L192.6 177L192.7 178.1L186.1 178.6V172Z" fill="#484DA4"/>
<path d="M370.2 136.7L408.1 177.8" stroke="#484DA4" stroke-linejoin="round"/>
<path d="M402.4 178.1L402.5 177L407.9 177.5V172H409V178.6L402.4 178.1Z" fill="#484DA4"/>
<path d="M139.4 299.6C141.5 299.6 142.7 301.2 142.7 303.2C142.7 305.2 141.5 306.8 139.4 306.8H136.6V299.6H139.4ZM139.4 305.6C140.7 305.6 141.4 304.5 141.4 303.1C141.4 301.7 140.7 300.6 139.4 300.6H137.8V305.5H139.4V305.6Z" fill="#494E9D"/>
<path d="M145.6 305.6H148.9V306.7H144.3V299.6H148.8V300.7H145.6V302.7H148.4V303.9H145.6V305.6Z" fill="#494E9D"/>
<path d="M153.4 299.6C155.5 299.6 156.7 301.2 156.7 303.2C156.7 305.2 155.5 306.8 153.4 306.8H150.5V299.6H153.4ZM153.4 305.6C154.7 305.6 155.4 304.5 155.4 303.1C155.4 301.7 154.7 300.6 153.4 300.6H151.8V305.5H153.4V305.6Z" fill="#494E9D"/>
<path d="M158.3 306.8V299.6H159.6V306.8H158.3Z" fill="#494E9D"/>
<path d="M161.1 303.2C161.1 301.2 162.8 299.5 164.8 299.5C166 299.5 167.1 300.1 167.7 300.9L166.7 301.6C166.3 301 165.6 300.7 164.8 300.7C163.4 300.7 162.3 301.9 162.3 303.2C162.3 304.6 163.3 305.7 164.8 305.7C165.6 305.7 166.3 305.3 166.7 304.8L167.7 305.5C167 306.3 166 306.9 164.8 306.9C162.8 306.9 161.1 305.2 161.1 303.2Z" fill="#494E9D"/>
<path d="M173.8 306.8L173.2 305H170.3L169.7 306.8H168.3L171.1 299.6H172.5L175.3 306.8H173.8ZM170.7 303.9H172.8L171.8 301L170.7 303.9Z" fill="#494E9D"/>
<path d="M180.4 299.6V300.7H178.3V306.8H177V300.7H174.9V299.6H180.4Z" fill="#494E9D"/>
<path d="M182.9 305.6H186.2V306.7H181.6V299.6H186.1V300.7H182.9V302.7H185.7V303.9H182.9V305.6Z" fill="#494E9D"/>
<path d="M190.7 299.6C192.8 299.6 194 301.2 194 303.2C194 305.2 192.8 306.8 190.7 306.8H187.8V299.6H190.7ZM190.7 305.6C192 305.6 192.7 304.5 192.7 303.1C192.7 301.7 192 300.6 190.7 300.6H189.1V305.5H190.7V305.6Z" fill="#494E9D"/>
<path d="M156.2 311.6V312.7H154.1V318.8H152.8V312.7H150.7V311.6H156.2Z" fill="#494E9D"/>
<path d="M158.8 317.7H162.1V318.8H157.5V311.6H162V312.7H158.8V314.7H161.6V315.9H158.8V317.7Z" fill="#494E9D"/>
<path d="M168.3 318.9L167.7 317.1H164.8L164.2 318.9H162.8L165.6 311.7H167L169.8 318.9H168.3ZM165.2 316H167.3L166.3 313.1L165.2 316Z" fill="#494E9D"/>
<path d="M179.1 318.9H177.8L177.2 314L175.2 318H174.1L172.1 314L171.5 318.8H170.2L171.1 311.6H172.2L174.6 316.6L177 311.6H178.1L179.1 318.9Z" fill="#494E9D"/>
<path d="M272.6 299.6C274.7 299.6 275.9 301.2 275.9 303.2C275.9 305.2 274.7 306.8 272.6 306.8H269.7V299.6H272.6ZM272.6 305.6C273.9 305.6 274.6 304.5 274.6 303.1C274.6 301.7 273.9 300.6 272.6 300.6H271V305.5H272.6V305.6Z" fill="#494E9D"/>
<path d="M278.8 305.6H282.1V306.7H277.5V299.6H282V300.7H278.8V302.7H281.6V303.9H278.8V305.6Z" fill="#494E9D"/>
<path d="M286.6 299.6C288.7 299.6 289.9 301.2 289.9 303.2C289.9 305.2 288.7 306.8 286.6 306.8H283.7V299.6H286.6ZM286.6 305.6C287.9 305.6 288.6 304.5 288.6 303.1C288.6 301.7 287.9 300.6 286.6 300.6H285V305.5H286.6V305.6Z" fill="#494E9D"/>
<path d="M291.5 306.8V299.6H292.8V306.8H291.5Z" fill="#494E9D"/>
<path d="M294.3 303.2C294.3 301.2 296 299.5 298 299.5C299.2 299.5 300.3 300.1 300.9 300.9L299.9 301.6C299.5 301 298.8 300.7 298 300.7C296.6 300.7 295.5 301.9 295.5 303.2C295.5 304.6 296.5 305.7 298 305.7C298.8 305.7 299.5 305.3 299.9 304.8L300.9 305.5C300.2 306.3 299.2 306.9 298 306.9C296 306.9 294.3 305.2 294.3 303.2Z" fill="#494E9D"/>
<path d="M307 306.8L306.4 305H303.5L302.9 306.8H301.5L304.3 299.6H305.7L308.5 306.8H307ZM303.8 303.9H305.9L304.9 301L303.8 303.9Z" fill="#494E9D"/>
<path d="M313.5 299.6V300.7H311.4V306.8H310.1V300.7H308V299.6H313.5Z" fill="#494E9D"/>
<path d="M316.1 305.6H319.4V306.7H314.8V299.6H319.3V300.7H316.1V302.7H318.9V303.9H316.1V305.6Z" fill="#494E9D"/>
<path d="M323.9 299.6C326 299.6 327.2 301.2 327.2 303.2C327.2 305.2 326 306.8 323.9 306.8H321V299.6H323.9ZM323.9 305.6C325.2 305.6 325.9 304.5 325.9 303.1C325.9 301.7 325.2 300.6 323.9 300.6H322.3V305.5H323.9V305.6Z" fill="#494E9D"/>
<path d="M289.4 311.6V312.7H287.3V318.8H286V312.7H283.9V311.6H289.4Z" fill="#494E9D"/>
<path d="M291.9 317.7H295.2V318.8H290.6V311.6H295.1V312.7H291.9V314.7H294.7V315.9H291.9V317.7Z" fill="#494E9D"/>
<path d="M301.5 318.9L300.9 317.1H298L297.4 318.9H296L298.8 311.7H300.2L303 318.9H301.5ZM298.3 316H300.4L299.4 313.1L298.3 316Z" fill="#494E9D"/>
<path d="M312.3 318.9H311L310.4 314L308.4 318H307.3L305.3 314L304.7 318.8H303.4L304.3 311.6H305.4L307.8 316.6L310.2 311.6H311.3L312.3 318.9Z" fill="#494E9D"/>
<path d="M406.6 299.6C408.7 299.6 409.9 301.2 409.9 303.2C409.9 305.2 408.7 306.8 406.6 306.8H403.7V299.6H406.6ZM406.6 305.6C407.9 305.6 408.6 304.5 408.6 303.1C408.6 301.7 407.9 300.6 406.6 300.6H405V305.5H406.6V305.6Z" fill="#494E9D"/>
<path d="M412.7 305.6H416V306.7H411.4V299.6H415.9V300.7H412.7V302.7H415.5V303.9H412.7V305.6Z" fill="#494E9D"/>
<path d="M420.6 299.6C422.7 299.6 423.9 301.2 423.9 303.2C423.9 305.2 422.7 306.8 420.6 306.8H417.7V299.6H420.6ZM420.6 305.6C421.9 305.6 422.6 304.5 422.6 303.1C422.6 301.7 421.9 300.6 420.6 300.6H419V305.5H420.6V305.6Z" fill="#494E9D"/>
<path d="M425.4 306.8V299.6H426.7V306.8H425.4Z" fill="#494E9D"/>
<path d="M428.3 303.2C428.3 301.2 430 299.5 432 299.5C433.2 299.5 434.3 300.1 434.9 300.9L433.9 301.6C433.5 301 432.8 300.7 432 300.7C430.6 300.7 429.5 301.9 429.5 303.2C429.5 304.6 430.5 305.7 432 305.7C432.8 305.7 433.5 305.3 433.9 304.8L434.9 305.5C434.2 306.3 433.2 306.9 432 306.9C429.9 306.9 428.3 305.2 428.3 303.2Z" fill="#494E9D"/>
<path d="M440.9 306.8L440.3 305H437.4L436.8 306.8H435.4L438.2 299.6H439.6L442.4 306.8H440.9ZM437.8 303.9H439.9L438.9 301L437.8 303.9Z" fill="#494E9D"/>
<path d="M447.5 299.6V300.7H445.4V306.8H444.1V300.7H442V299.6H447.5Z" fill="#494E9D"/>
<path d="M450.1 305.6H453.4V306.7H448.8V299.6H453.3V300.7H450.1V302.7H452.9V303.9H450.1V305.6Z" fill="#494E9D"/>
<path d="M457.9 299.6C460 299.6 461.2 301.2 461.2 303.2C461.2 305.2 460 306.8 457.9 306.8H455V299.6H457.9ZM457.9 305.6C459.2 305.6 459.9 304.5 459.9 303.1C459.9 301.7 459.2 300.6 457.9 300.6H456.3V305.5H457.9V305.6Z" fill="#494E9D"/>
<path d="M423.4 311.6V312.7H421.3V318.8H420V312.7H417.9V311.6H423.4Z" fill="#494E9D"/>
<path d="M425.9 317.7H429.2V318.8H424.6V311.6H429.1V312.7H425.9V314.7H428.7V315.9H425.9V317.7Z" fill="#494E9D"/>
<path d="M435.4 318.9L434.8 317.1H431.9L431.3 318.9H429.9L432.7 311.7H434.1L436.9 318.9H435.4ZM432.3 316H434.4L433.4 313.1L432.3 316Z" fill="#494E9D"/>
<path d="M446.3 318.9H445L444.4 314L442.4 318H441.3L439.3 314L438.7 318.8H437.4L438.3 311.6H439.4L441.8 316.6L444.2 311.6H445.3L446.3 318.9Z" fill="#494E9D"/>
<path d="M191.5 97.5002C191.5 97.5002 186.3 104.3 179.8 104.3C173.3 104.3 168.1 97.5002 168.1 97.5002C168.1 97.5002 173.3 90.7002 179.8 90.7002C186.3 90.7002 191.5 97.5002 191.5 97.5002Z" stroke="#484DA4" stroke-width="1.1" stroke-linejoin="round"/>
<path d="M179.9 101.5C182.164 101.5 184 99.7094 184 97.5002C184 95.2911 182.164 93.5002 179.9 93.5002C177.636 93.5002 175.8 95.2911 175.8 97.5002C175.8 99.7094 177.636 101.5 179.9 101.5Z" stroke="#484DA4" stroke-width="1.1" stroke-linejoin="round"/>
<path d="M166 337.6H431.7C434.4 337.6 436.5 339.8 436.5 342.4V407.4C436.5 410.1 434.3 412.2 431.7 412.2H166C163.3 412.2 161.2 410 161.2 407.4V342.4C161.2 339.8 163.3 337.6 166 337.6Z" fill="white"/>
<path d="M187.1 367.1H179.9L176.3 373.3L179.9 379.5H187.1L190.7 373.3L187.1 367.1Z" fill="#494E9D"/>
<path d="M187.1 386.6H179.9L176.3 392.8L179.9 399H187.1L190.7 392.8L187.1 386.6Z" fill="#C3DBFA"/>
<path d="M185.1 356.4H183.9L183.4 351.8L181.5 355.6H180.5L178.6 351.8L178 356.4H176.8L177.6 349.5H178.7L180.9 354.2L183.1 349.5H184.2L185.1 356.4Z" fill="#48499A"/>
<path d="M186.5 356.4V349.5H187.7V356.4H186.5Z" fill="#48499A"/>
<path d="M194.5 355.9L195.2 357L194.3 357.5L193.6 356.3C193.3 356.4 192.9 356.5 192.6 356.5C190.6 356.5 189.1 354.9 189.1 352.9C189.1 351 190.6 349.3 192.6 349.3C194.6 349.3 196.1 350.9 196.1 352.9C196 354.1 195.4 355.2 194.5 355.9ZM192.9 355.3L192.2 354.2L193.1 353.7L193.8 354.9C194.4 354.5 194.7 353.7 194.7 352.9C194.7 351.6 193.7 350.5 192.4 350.5C191.1 350.5 190.1 351.6 190.1 352.9C190.1 354.2 191 355.3 192.4 355.3C192.7 355.3 192.8 355.3 192.9 355.3Z" fill="#48499A"/>
<path d="M197.3 354V349.5H198.5V353.9C198.5 354.9 199.1 355.3 199.9 355.3C200.6 355.3 201.3 354.9 201.3 353.9V349.5H202.5V354C202.5 355.6 201.3 356.5 199.9 356.5C198.5 356.5 197.3 355.5 197.3 354Z" fill="#48499A"/>
<path d="M204.2 356.4V349.5H205.4V356.4H204.2Z" fill="#48499A"/>
<path d="M209.8 349.5C211.8 349.5 212.9 351 212.9 353C212.9 354.9 211.8 356.4 209.8 356.4H207.1V349.5H209.8ZM209.8 355.3C211 355.3 211.7 354.2 211.7 353C211.7 351.7 211.1 350.6 209.8 350.6H208.3V355.3H209.8Z" fill="#48499A"/>
<path d="M213.9 352.9C213.9 351 215.4 349.3 217.4 349.3C219.4 349.3 220.9 350.9 220.9 352.9C220.9 354.8 219.4 356.5 217.4 356.5C215.4 356.5 213.9 354.9 213.9 352.9ZM219.7 352.9C219.7 351.6 218.7 350.5 217.4 350.5C216.1 350.5 215.1 351.6 215.1 352.9C215.1 354.2 216 355.3 217.4 355.3C218.7 355.3 219.7 354.2 219.7 352.9Z" fill="#48499A"/>
<path d="M200.2 368.6C201.7 368.6 202.4 369.7 202.4 370.8C202.4 371.9 201.8 373 200.2 373H198.6V375.5H197.4V368.6H200.2ZM200.1 371.9C200.8 371.9 201.1 371.4 201.1 370.8C201.1 370.3 200.8 369.7 200.1 369.7H198.6V371.9H200.1Z" fill="#48499A"/>
<path d="M206.5 370.9L206.3 372C206 371.9 205.8 371.8 205.6 371.8C204.8 371.8 204.4 372.6 204.4 373.9V375.5H203.2V370.8H204.4V371.8C204.6 371 205.2 370.7 205.7 370.7C206 370.7 206.3 370.8 206.5 370.9Z" fill="#48499A"/>
<path d="M206.8 373.2C206.8 371.7 207.9 370.8 209.3 370.8C210.7 370.8 211.8 371.8 211.8 373.2C211.8 374.6 210.6 375.7 209.3 375.7C208 375.7 206.8 374.6 206.8 373.2ZM210.6 373.2C210.6 372.4 210 371.8 209.3 371.8C208.6 371.8 208 372.4 208 373.2C208 374 208.6 374.6 209.3 374.6C210 374.6 210.6 374 210.6 373.2Z" fill="#48499A"/>
<path d="M211.6 377.8V376.7H212.2C212.8 376.7 213 376.2 213 375.7V370.8H214.2V375.6C214.2 376.9 213.6 377.7 212.3 377.7H211.6V377.8ZM212.8 369.2C212.8 368.8 213.1 368.5 213.5 368.5C213.9 368.5 214.3 368.8 214.3 369.2C214.3 369.6 214 369.9 213.5 369.9C213.1 369.9 212.8 369.6 212.8 369.2Z" fill="#48499A"/>
<path d="M220 373.6H216.4C216.5 374.2 217 374.6 217.7 374.6C218.2 374.6 218.7 374.4 219 374L219.8 374.6C219.4 375.3 218.5 375.7 217.7 375.7C216.3 375.7 215.3 374.7 215.3 373.2C215.3 371.7 216.4 370.8 217.7 370.8C219 370.8 220.1 371.7 220.1 373.2C220.1 373.3 220.1 373.4 220 373.6ZM218.9 372.8C218.8 372.2 218.3 371.8 217.7 371.8C217.1 371.8 216.6 372.1 216.4 372.8H218.9Z" fill="#48499A"/>
<path d="M220.8 373.2C220.8 371.7 222 370.8 223.3 370.8C224.1 370.8 224.8 371.2 225.2 371.7L224.4 372.3C224.2 372 223.8 371.8 223.3 371.8C222.5 371.8 221.9 372.4 221.9 373.2C221.9 374 222.5 374.6 223.3 374.6C223.7 374.6 224.1 374.4 224.4 374.1L225.2 374.8C224.8 375.3 224.1 375.7 223.3 375.7C222 375.6 220.8 374.6 220.8 373.2Z" fill="#48499A"/>
<path d="M228.8 370.8V371.7H227.8V375.4H226.6V371.7H225.8V370.8H226.6V369.1H227.8V370.8H228.8Z" fill="#48499A"/>
<path d="M233.6 374.4H236.3V375.5H232.4V368.6H233.6V374.4Z" fill="#48499A"/>
<path d="M241.6 373.6H238C238.1 374.2 238.6 374.6 239.3 374.6C239.8 374.6 240.3 374.4 240.6 374L241.4 374.6C241 375.3 240.1 375.7 239.3 375.7C237.9 375.7 236.9 374.7 236.9 373.2C236.9 371.7 238 370.8 239.3 370.8C240.6 370.8 241.7 371.7 241.7 373.2C241.6 373.3 241.6 373.4 241.6 373.6ZM240.5 372.8C240.4 372.2 239.9 371.8 239.3 371.8C238.7 371.8 238.2 372.1 238 372.8H240.5Z" fill="#48499A"/>
<path d="M246.3 370.8H247.5V375.5H246.3V374.8C246 375.3 245.4 375.6 244.7 375.6C243.5 375.6 242.5 374.6 242.5 373.1C242.5 371.7 243.5 370.7 244.8 370.7C245.4 370.7 246.1 371 246.4 371.5V370.8H246.3ZM246.2 373.2C246.2 372.4 245.5 371.8 244.9 371.8C244.2 371.8 243.6 372.4 243.6 373.2C243.6 374 244.2 374.6 244.9 374.6C245.6 374.5 246.2 373.9 246.2 373.2Z" fill="#48499A"/>
<path d="M252.4 368.3H253.6V375.5H252.4V374.9C252.1 375.4 251.4 375.6 250.9 375.6C249.7 375.6 248.6 374.6 248.6 373.1C248.6 371.6 249.7 370.7 250.9 370.7C251.5 370.7 252.1 370.9 252.5 371.4V368.3H252.4ZM252.3 373.2C252.3 372.4 251.6 371.8 251 371.8C250.3 371.8 249.7 372.4 249.7 373.2C249.7 374 250.3 374.6 251 374.6C251.7 374.5 252.3 374 252.3 373.2Z" fill="#48499A"/>
<path d="M259.4 373.6H255.8C255.9 374.2 256.4 374.6 257.1 374.6C257.6 374.6 258.1 374.4 258.4 374L259.2 374.6C258.8 375.3 257.9 375.7 257.1 375.7C255.7 375.7 254.7 374.7 254.7 373.2C254.7 371.7 255.8 370.8 257.1 370.8C258.4 370.8 259.5 371.7 259.5 373.2C259.5 373.3 259.4 373.4 259.4 373.6ZM258.3 372.8C258.2 372.2 257.7 371.8 257.1 371.8C256.5 371.8 256 372.1 255.8 372.8H258.3Z" fill="#48499A"/>
<path d="M263.8 370.9L263.6 372C263.3 371.9 263.1 371.8 262.9 371.8C262.1 371.8 261.7 372.6 261.7 373.9V375.5H260.5V370.8H261.7V371.8C261.9 371 262.5 370.7 263 370.7C263.3 370.7 263.6 370.8 263.8 370.9Z" fill="#48499A"/>
<path d="M264.2 374.1H265.3C265.3 374.4 265.6 374.7 266.1 374.7C266.6 374.7 266.9 374.5 266.9 374.2C266.9 373.9 266.7 373.8 266.4 373.7L265.8 373.5C264.8 373.2 264.5 372.7 264.5 372.1C264.5 371.4 265.2 370.7 266.2 370.7C267 370.7 268 371.1 268 372.2H266.9C266.9 371.9 266.6 371.7 266.3 371.7C265.9 371.7 265.7 371.9 265.7 372.2C265.7 372.4 265.9 372.6 266.2 372.6L266.9 372.8C267.9 373.1 268.1 373.7 268.1 374.2C268.1 375.2 267.2 375.7 266.2 375.7C265.1 375.6 264.2 375.1 264.2 374.1Z" fill="#48499A"/>
<path d="M273.5 372.9V375.5H272.3V373C272.3 372.3 271.9 371.9 271.3 371.9C270.8 371.9 270.1 372.2 270.1 373.1V375.6H268.9V368.4H270.1V371.6C270.3 371 271.1 370.8 271.5 370.8C272.8 370.7 273.5 371.5 273.5 372.9Z" fill="#48499A"/>
<path d="M274.6 369.2C274.6 368.8 274.9 368.5 275.4 368.5C275.8 368.5 276.1 368.8 276.1 369.2C276.1 369.6 275.8 369.9 275.4 369.9C275 369.9 274.6 369.6 274.6 369.2ZM274.8 375.5V370.8H276V375.5H274.8Z" fill="#48499A"/>
<path d="M282.4 373.2C282.4 374.7 281.3 375.6 280.1 375.6C279.5 375.6 278.9 375.4 278.5 374.9V377.8H277.3V370.9H278.5V371.5C278.8 371 279.5 370.8 280 370.8C281.3 370.7 282.4 371.7 282.4 373.2ZM281.2 373.2C281.2 372.4 280.6 371.8 279.9 371.8C279.2 371.8 278.6 372.4 278.6 373.2C278.6 374 279.3 374.6 279.9 374.6C280.6 374.5 281.2 374 281.2 373.2Z" fill="#48499A"/>
<path d="M200.2 388.1C201.7 388.1 202.4 389.2 202.4 390.3C202.4 391.4 201.8 392.5 200.2 392.5H198.6V395H197.4V388.1H200.2ZM200.1 391.4C200.8 391.4 201.1 390.9 201.1 390.3C201.1 389.8 200.8 389.2 200.1 389.2H198.6V391.4H200.1Z" fill="#48499A"/>
<path d="M206.5 390.3L206.3 391.4C206 391.3 205.8 391.2 205.6 391.2C204.8 391.2 204.4 392 204.4 393.3V394.9H203.2V390.2H204.4V391.2C204.6 390.4 205.2 390.1 205.7 390.1C206 390.2 206.3 390.2 206.5 390.3Z" fill="#48499A"/>
<path d="M206.8 392.6C206.8 391.1 207.9 390.2 209.3 390.2C210.7 390.2 211.8 391.2 211.8 392.6C211.8 394 210.6 395.1 209.3 395.1C208 395.1 206.8 394.1 206.8 392.6ZM210.6 392.6C210.6 391.8 210 391.2 209.3 391.2C208.6 391.2 208 391.8 208 392.6C208 393.4 208.6 394 209.3 394C210 394 210.6 393.4 210.6 392.6Z" fill="#48499A"/>
<path d="M211.6 397.2V396.1H212.2C212.8 396.1 213 395.6 213 395.1V390.2H214.2V395C214.2 396.3 213.6 397.1 212.3 397.1H211.6V397.2ZM212.8 388.6C212.8 388.2 213.1 387.9 213.5 387.9C213.9 387.9 214.3 388.2 214.3 388.6C214.3 389 214 389.3 213.5 389.3C213.1 389.4 212.8 389 212.8 388.6Z" fill="#48499A"/>
<path d="M220 393H216.4C216.5 393.6 217 394 217.7 394C218.2 394 218.7 393.8 219 393.4L219.8 394C219.4 394.7 218.5 395.1 217.7 395.1C216.3 395.1 215.3 394.1 215.3 392.6C215.3 391.1 216.4 390.2 217.7 390.2C219 390.2 220.1 391.1 220.1 392.6C220.1 392.7 220.1 392.9 220 393ZM218.9 392.2C218.8 391.6 218.3 391.2 217.7 391.2C217.1 391.2 216.6 391.5 216.4 392.2H218.9Z" fill="#48499A"/>
<path d="M220.8 392.6C220.8 391.1 222 390.2 223.3 390.2C224.1 390.2 224.8 390.6 225.2 391.1L224.4 391.7C224.2 391.4 223.8 391.2 223.3 391.2C222.5 391.2 221.9 391.8 221.9 392.6C221.9 393.4 222.5 394 223.3 394C223.7 394 224.1 393.8 224.4 393.5L225.2 394.2C224.8 394.7 224.1 395.1 223.3 395.1C222 395.1 220.8 394.1 220.8 392.6Z" fill="#48499A"/>
<path d="M228.8 390.3V391.2H227.8V394.9H226.6V391.2H225.8V390.3H226.6V388.6H227.8V390.3H228.8Z" fill="#48499A"/>
<path d="M236.5 388.1V389.2H234.5V395H233.3V389.2H231.3V388.1H236.5Z" fill="#48499A"/>
<path d="M241.1 393H237.5C237.6 393.6 238.1 394 238.8 394C239.3 394 239.8 393.8 240.1 393.4L240.9 394C240.5 394.7 239.6 395.1 238.8 395.1C237.4 395.1 236.4 394.1 236.4 392.6C236.4 391.1 237.5 390.2 238.8 390.2C240.1 390.2 241.2 391.1 241.2 392.6C241.1 392.7 241.1 392.9 241.1 393ZM239.9 392.2C239.8 391.6 239.3 391.2 238.7 391.2C238.1 391.2 237.6 391.5 237.4 392.2H239.9Z" fill="#48499A"/>
<path d="M245.7 390.3H246.9V395H245.7V394.3C245.4 394.8 244.8 395.1 244.1 395.1C242.9 395.1 241.9 394.1 241.9 392.6C241.9 391.2 242.9 390.2 244.2 390.2C244.8 390.2 245.5 390.5 245.8 391V390.3H245.7ZM245.7 392.6C245.7 391.8 245 391.2 244.4 391.2C243.7 391.2 243.1 391.8 243.1 392.6C243.1 393.4 243.7 394 244.4 394C245.1 394 245.7 393.4 245.7 392.6Z" fill="#48499A"/>
<path d="M255.7 392.3V394.9H254.6V392.3C254.6 391.5 254.2 391.2 253.7 391.2C253 391.2 252.7 391.7 252.7 392.6V394.9H251.5V392.3C251.5 391.6 251.1 391.2 250.6 391.2C250.1 391.2 249.5 391.5 249.5 392.4V394.9H248.3V390.2H249.5V390.9C249.7 390.4 250.3 390.1 250.9 390.1C251.6 390.1 252.1 390.4 252.4 391C252.8 390.3 253.5 390.1 254 390.1C255.1 390.2 255.7 391 255.7 392.3Z" fill="#48499A"/>
<path d="M327.8 367.1H320.6L317 373.3L320.6 379.5H327.8L331.4 373.3L327.8 367.1Z" fill="#EF5B22"/>
<path d="M327.8 386.6H320.6L317 392.8L320.6 399H327.8L331.4 392.8L327.8 386.6Z" fill="#FBAB31"/>
<path d="M317.4 353.9C317.4 352 319 350.3 320.9 350.3C322 350.3 323 350.8 323.6 351.6L322.7 352.3C322.3 351.8 321.7 351.4 320.9 351.4C319.6 351.4 318.6 352.5 318.6 353.8C318.6 355.1 319.6 356.2 320.9 356.2C321.6 356.2 322.3 355.9 322.7 355.3L323.6 356C323 356.8 322 357.3 320.9 357.3C319 357.4 317.4 355.8 317.4 353.9Z" fill="#48499A"/>
<path d="M326 356.2H328.7V357.3H324.8V350.4H326V356.2Z" fill="#48499A"/>
<path d="M329.8 357.3V350.4H331V357.3H329.8Z" fill="#48499A"/>
<path d="M334 356.2H337.1V357.3H332.8V350.4H337V351.5H334V353.4H336.6V354.5H334V356.2Z" fill="#48499A"/>
<path d="M342.4 350.4H343.6V357.3H342.5L339.8 352.7V357.3H338.6V350.4H339.7L342.4 355V350.4Z" fill="#48499A"/>
<path d="M349.8 350.4V351.5H347.8V357.3H346.6V351.5H344.6V350.4H349.8Z" fill="#48499A"/>
<path d="M340.8 368.6C342.3 368.6 343 369.7 343 370.8C343 371.9 342.4 373 340.8 373H339.2V375.5H338V368.6H340.8ZM340.8 371.9C341.5 371.9 341.8 371.4 341.8 370.8C341.8 370.3 341.5 369.7 340.8 369.7H339.3V371.9H340.8Z" fill="#48499A"/>
<path d="M347.2 370.9L347 372C346.7 371.9 346.5 371.8 346.3 371.8C345.5 371.8 345.1 372.6 345.1 373.9V375.5H343.9V370.8H345.1V371.8C345.3 371 345.9 370.7 346.4 370.7C346.7 370.7 347 370.8 347.2 370.9Z" fill="#48499A"/>
<path d="M347.5 373.2C347.5 371.7 348.6 370.8 350 370.8C351.4 370.8 352.5 371.8 352.5 373.2C352.5 374.6 351.3 375.7 350 375.7C348.7 375.7 347.5 374.6 347.5 373.2ZM351.3 373.2C351.3 372.4 350.7 371.8 350 371.8C349.3 371.8 348.7 372.4 348.7 373.2C348.7 374 349.3 374.6 350 374.6C350.7 374.6 351.3 374 351.3 373.2Z" fill="#48499A"/>
<path d="M352.3 377.8V376.7H352.9C353.5 376.7 353.7 376.2 353.7 375.7V370.8H354.9V375.6C354.9 376.9 354.3 377.7 353 377.7H352.3V377.8ZM353.5 369.2C353.5 368.8 353.8 368.5 354.2 368.5C354.6 368.5 355 368.8 355 369.2C355 369.6 354.7 369.9 354.2 369.9C353.8 369.9 353.5 369.6 353.5 369.2Z" fill="#48499A"/>
<path d="M360.7 373.6H357.1C357.2 374.2 357.7 374.6 358.4 374.6C358.9 374.6 359.4 374.4 359.7 374L360.5 374.6C360.1 375.3 359.2 375.7 358.4 375.7C357 375.7 356 374.7 356 373.2C356 371.7 357.1 370.8 358.4 370.8C359.7 370.8 360.8 371.7 360.8 373.2C360.7 373.3 360.7 373.4 360.7 373.6ZM359.6 372.8C359.5 372.2 359 371.8 358.4 371.8C357.8 371.8 357.3 372.1 357.1 372.8H359.6Z" fill="#48499A"/>
<path d="M361.5 373.2C361.5 371.7 362.7 370.8 364 370.8C364.8 370.8 365.5 371.2 365.9 371.7L365.1 372.3C364.9 372 364.5 371.8 364 371.8C363.2 371.8 362.6 372.4 362.6 373.2C362.6 374 363.2 374.6 364 374.6C364.4 374.6 364.8 374.4 365.1 374.1L365.9 374.8C365.5 375.3 364.8 375.7 364 375.7C362.7 375.6 361.5 374.6 361.5 373.2Z" fill="#48499A"/>
<path d="M369.5 370.8V371.7H368.5V375.4H367.3V371.7H366.5V370.8H367.3V369.1H368.5V370.8H369.5Z" fill="#48499A"/>
<path d="M374.3 374.4H377V375.5H373.1V368.6H374.3V374.4Z" fill="#48499A"/>
<path d="M382.3 373.6H378.6C378.7 374.2 379.2 374.6 379.9 374.6C380.4 374.6 380.9 374.4 381.2 374L382 374.6C381.6 375.3 380.7 375.7 379.9 375.7C378.5 375.7 377.5 374.7 377.5 373.2C377.5 371.7 378.6 370.8 379.9 370.8C381.2 370.8 382.3 371.7 382.3 373.2C382.3 373.3 382.3 373.4 382.3 373.6ZM381.1 372.8C381 372.2 380.5 371.8 379.9 371.8C379.3 371.8 378.8 372.1 378.6 372.8H381.1Z" fill="#48499A"/>
<path d="M386.9 370.8H388.1V375.5H386.9V374.8C386.6 375.3 386 375.6 385.3 375.6C384.1 375.6 383.1 374.6 383.1 373.1C383.1 371.7 384.1 370.7 385.4 370.7C386 370.7 386.7 371 387 371.5V370.8H386.9ZM386.9 373.2C386.9 372.4 386.2 371.8 385.6 371.8C384.9 371.8 384.3 372.4 384.3 373.2C384.3 374 384.9 374.6 385.6 374.6C386.3 374.5 386.9 373.9 386.9 373.2Z" fill="#48499A"/>
<path d="M393 368.3H394.2V375.5H393V374.9C392.7 375.4 392 375.6 391.5 375.6C390.3 375.6 389.2 374.6 389.2 373.1C389.2 371.6 390.3 370.7 391.5 370.7C392.1 370.7 392.7 370.9 393.1 371.4V368.3H393ZM393 373.2C393 372.4 392.3 371.8 391.7 371.8C391 371.8 390.4 372.4 390.4 373.2C390.4 374 391 374.6 391.7 374.6C392.4 374.5 393 374 393 373.2Z" fill="#48499A"/>
<path d="M400.1 373.6H396.5C396.6 374.2 397.1 374.6 397.8 374.6C398.3 374.6 398.8 374.4 399.1 374L399.9 374.6C399.5 375.3 398.6 375.7 397.8 375.7C396.4 375.7 395.4 374.7 395.4 373.2C395.4 371.7 396.5 370.8 397.8 370.8C399.1 370.8 400.2 371.7 400.2 373.2C400.1 373.3 400.1 373.4 400.1 373.6ZM399 372.8C398.9 372.2 398.4 371.8 397.8 371.8C397.2 371.8 396.7 372.1 396.5 372.8H399Z" fill="#48499A"/>
<path d="M404.5 370.9L404.3 372C404 371.9 403.8 371.8 403.6 371.8C402.8 371.8 402.4 372.6 402.4 373.9V375.5H401.2V370.8H402.4V371.8C402.6 371 403.2 370.7 403.7 370.7C404 370.7 404.3 370.8 404.5 370.9Z" fill="#48499A"/>
<path d="M404.8 374.1H405.9C405.9 374.4 406.2 374.7 406.7 374.7C407.2 374.7 407.5 374.5 407.5 374.2C407.5 373.9 407.3 373.8 407 373.7L406.4 373.5C405.4 373.2 405.1 372.7 405.1 372.1C405.1 371.4 405.8 370.7 406.8 370.7C407.6 370.7 408.6 371.1 408.6 372.2H407.5C407.5 371.9 407.2 371.7 406.9 371.7C406.5 371.7 406.3 371.9 406.3 372.2C406.3 372.4 406.5 372.6 406.8 372.6L407.6 372.8C408.6 373.1 408.8 373.7 408.8 374.2C408.8 375.2 407.9 375.7 406.9 375.7C405.8 375.6 404.9 375.1 404.8 374.1Z" fill="#48499A"/>
<path d="M414.2 372.9V375.5H413V373C413 372.3 412.5 371.9 412 371.9C411.5 371.9 410.8 372.2 410.8 373.1V375.6H409.6V368.4H410.8V371.6C411 371 411.8 370.8 412.2 370.8C413.5 370.7 414.2 371.5 414.2 372.9Z" fill="#48499A"/>
<path d="M415.3 369.2C415.3 368.8 415.6 368.5 416.1 368.5C416.5 368.5 416.8 368.8 416.8 369.2C416.8 369.6 416.5 369.9 416.1 369.9C415.7 369.9 415.3 369.6 415.3 369.2ZM415.5 375.5V370.8H416.7V375.5H415.5Z" fill="#48499A"/>
<path d="M423 373.2C423 374.7 421.9 375.6 420.7 375.6C420.1 375.6 419.5 375.4 419.1 374.9V377.8H417.9V370.9H419.1V371.5C419.4 371 420.1 370.8 420.6 370.8C422 370.7 423 371.7 423 373.2ZM421.9 373.2C421.9 372.4 421.3 371.8 420.6 371.8C419.9 371.8 419.3 372.4 419.3 373.2C419.3 374 420 374.6 420.6 374.6C421.3 374.5 421.9 374 421.9 373.2Z" fill="#48499A"/>
<path d="M340.8 388.1C342.3 388.1 343 389.2 343 390.3C343 391.4 342.4 392.5 340.8 392.5H339.2V395H338V388.1H340.8ZM340.8 391.4C341.5 391.4 341.8 390.9 341.8 390.3C341.8 389.8 341.5 389.2 340.8 389.2H339.3V391.4H340.8Z" fill="#48499A"/>
<path d="M347.2 390.3L347 391.4C346.7 391.3 346.5 391.2 346.3 391.2C345.5 391.2 345.1 392 345.1 393.3V394.9H343.9V390.2H345.1V391.2C345.3 390.4 345.9 390.1 346.4 390.1C346.7 390.2 347 390.2 347.2 390.3Z" fill="#48499A"/>
<path d="M347.5 392.6C347.5 391.1 348.6 390.2 350 390.2C351.4 390.2 352.5 391.2 352.5 392.6C352.5 394 351.3 395.1 350 395.1C348.7 395.1 347.5 394.1 347.5 392.6ZM351.3 392.6C351.3 391.8 350.7 391.2 350 391.2C349.3 391.2 348.7 391.8 348.7 392.6C348.7 393.4 349.3 394 350 394C350.7 394 351.3 393.4 351.3 392.6Z" fill="#48499A"/>
<path d="M352.3 397.2V396.1H352.9C353.5 396.1 353.7 395.6 353.7 395.1V390.2H354.9V395C354.9 396.3 354.3 397.1 353 397.1H352.3V397.2ZM353.5 388.6C353.5 388.2 353.8 387.9 354.2 387.9C354.6 387.9 355 388.2 355 388.6C355 389 354.7 389.3 354.2 389.3C353.8 389.4 353.5 389 353.5 388.6Z" fill="#48499A"/>
<path d="M360.7 393H357.1C357.2 393.6 357.7 394 358.4 394C358.9 394 359.4 393.8 359.7 393.4L360.5 394C360.1 394.7 359.2 395.1 358.4 395.1C357 395.1 356 394.1 356 392.6C356 391.1 357.1 390.2 358.4 390.2C359.7 390.2 360.8 391.1 360.8 392.6C360.7 392.7 360.7 392.9 360.7 393ZM359.6 392.2C359.5 391.6 359 391.2 358.4 391.2C357.8 391.2 357.3 391.5 357.1 392.2H359.6Z" fill="#48499A"/>
<path d="M361.5 392.6C361.5 391.1 362.7 390.2 364 390.2C364.8 390.2 365.5 390.6 365.9 391.1L365.1 391.7C364.9 391.4 364.5 391.2 364 391.2C363.2 391.2 362.6 391.8 362.6 392.6C362.6 393.4 363.2 394 364 394C364.4 394 364.8 393.8 365.1 393.5L365.9 394.2C365.5 394.7 364.8 395.1 364 395.1C362.7 395.1 361.5 394.1 361.5 392.6Z" fill="#48499A"/>
<path d="M369.5 390.3V391.2H368.5V394.9H367.3V391.2H366.5V390.3H367.3V388.6H368.5V390.3H369.5Z" fill="#48499A"/>
<path d="M377.2 388.1V389.2H375.2V395H374V389.2H372V388.1H377.2Z" fill="#48499A"/>
<path d="M381.7 393H378.1C378.2 393.6 378.7 394 379.4 394C379.9 394 380.4 393.8 380.7 393.4L381.5 394C381.1 394.7 380.2 395.1 379.4 395.1C378 395.1 377 394.1 377 392.6C377 391.1 378.1 390.2 379.4 390.2C380.7 390.2 381.8 391.1 381.8 392.6C381.8 392.7 381.7 392.9 381.7 393ZM380.6 392.2C380.5 391.6 380 391.2 379.4 391.2C378.8 391.2 378.3 391.5 378.1 392.2H380.6Z" fill="#48499A"/>
<path d="M386.4 390.3H387.6V395H386.4V394.3C386.1 394.8 385.5 395.1 384.8 395.1C383.6 395.1 382.6 394.1 382.6 392.6C382.6 391.2 383.6 390.2 384.9 390.2C385.5 390.2 386.2 390.5 386.5 391V390.3H386.4ZM386.4 392.6C386.4 391.8 385.7 391.2 385.1 391.2C384.3 391.2 383.8 391.8 383.8 392.6C383.8 393.4 384.4 394 385.1 394C385.8 394 386.4 393.4 386.4 392.6Z" fill="#48499A"/>
<path d="M396.4 392.3V394.9H395.3V392.3C395.3 391.5 394.9 391.2 394.4 391.2C393.7 391.2 393.4 391.7 393.4 392.6V394.9H392.2V392.3C392.2 391.6 391.8 391.2 391.3 391.2C390.8 391.2 390.2 391.5 390.2 392.4V394.9H389V390.2H390.2V390.9C390.4 390.4 391 390.1 391.6 390.1C392.3 390.1 392.8 390.4 393.1 391C393.5 390.3 394.2 390.1 394.7 390.1C395.7 390.2 396.4 391 396.4 392.3Z" fill="#48499A"/>
<path d="M298.7 350V399.6" stroke="#E7F0FF" stroke-width="0.5" stroke-miterlimit="10"/>
</g>
<defs>
<filter id="filter0_d_261_6352" x="73" y="26" width="469.1" height="445.2" filterUnits="userSpaceOnUse" color-interpolation-filters="sRGB">
<feFlood flood-opacity="0" result="BackgroundImageFix"/>
<feColorMatrix in="SourceAlpha" type="matrix" values="0 0 0 0 0 0 0 0 0 0 0 0 0 0 0 0 0 0 127 0" result="hardAlpha"/>
<feOffset dx="9" dy="9"/>
<feGaussianBlur stdDeviation="25"/>
<feComposite in2="hardAlpha" operator="out"/>
<feColorMatrix type="matrix" values="0 0 0 0 0.215686 0 0 0 0 0.231373 0 0 0 0 0.470588 0 0 0 0.1 0"/>
<feBlend mode="normal" in2="BackgroundImageFix" result="effect1_dropShadow_261_6352"/>
<feBlend mode="normal" in="SourceGraphic" in2="effect1_dropShadow_261_6352" result="shape"/>
</filter>
</defs>
</svg>
