<svg width="129" height="60" viewBox="0 0 129 60" fill="none" xmlns="http://www.w3.org/2000/svg">
<path fill-rule="evenodd" clip-rule="evenodd" d="M43.1547 40.6423H38.6903V26.1546H43.1547V40.6423ZM39.0926 19.76C38.5863 20.2668 38.3329 20.8781 38.3329 21.5935C38.3329 22.3087 38.5863 22.9202 39.0926 23.4267C39.598 23.9335 40.2082 24.1868 40.9228 24.1868C41.6368 24.1868 42.2468 23.9335 42.753 23.4267C43.2593 22.9202 43.5118 22.3087 43.5118 21.5935C43.5118 20.8781 43.2593 20.2668 42.753 19.76C42.2468 19.2533 41.6368 19 40.9228 19C40.2082 19 39.598 19.2533 39.0926 19.76ZM7.32151 29.7318H11.2501V26.1546H7.32151V21.8616H2.85745V26.1546H0V29.7318H2.85745V36.6178C2.85745 37.4131 2.99124 38.0887 3.25883 38.6452C3.52696 39.2018 3.89885 39.6539 4.37505 40.0015C4.85124 40.3494 5.40662 40.6029 6.04173 40.7615C6.67657 40.9204 7.37093 41 8.12536 41C8.64088 41 9.16677 40.9705 9.70249 40.9108C10.2382 40.8509 10.754 40.7317 11.2501 40.5528V36.8265C11.0516 37.0054 10.7592 37.12 10.3723 37.1695C9.98536 37.2192 9.673 37.2441 9.4349 37.2441C8.95843 37.2441 8.57616 37.1796 8.28892 37.0502C8.00113 36.9211 7.78733 36.7371 7.64917 36.4986C7.50991 36.2604 7.42062 35.977 7.38103 35.6491C7.34117 35.3212 7.32151 34.9588 7.32151 34.5612V29.7318ZM17.3811 26.1546H12.9168V40.6423H17.3811V34.5907C17.3811 33.8752 17.4207 33.2197 17.5002 32.6235C17.5794 32.027 17.753 31.5156 18.0212 31.0881C18.2888 30.6609 18.6707 30.3278 19.1669 30.0893C19.6627 29.8508 20.3372 29.7318 21.1907 29.7318C21.5279 29.7318 21.8501 29.757 22.1578 29.8062C22.4653 29.856 22.7779 29.9304 23.0955 30.0299V25.9459C22.8768 25.886 22.6387 25.8466 22.3812 25.8264C22.1229 25.807 21.8649 25.7966 21.6074 25.7966C20.6151 25.7966 19.7919 26.0203 19.1371 26.4674C18.4823 26.9146 17.9169 27.5852 17.4407 28.4798H17.3811V26.1546ZM31.8155 34.2929C31.4781 34.2929 31.0567 34.3076 30.5511 34.3375C30.0448 34.3673 29.5585 34.452 29.0927 34.5907C28.6261 34.7302 28.2296 34.9389 27.902 35.2167C27.5746 35.4954 27.411 35.883 27.411 36.3793C27.411 36.9159 27.6387 37.3136 28.0953 37.572C28.5515 37.8302 29.0277 37.9596 29.5241 37.9596C29.9602 37.9596 30.382 37.8997 30.7892 37.7804C31.1955 37.6612 31.5578 37.4927 31.8753 37.2737C32.1924 37.0551 32.4455 36.7773 32.6341 36.439C32.8226 36.1015 32.917 35.7041 32.917 35.2468V34.2929H31.8155ZM32.917 38.8238H32.8575C32.3611 39.5989 31.7011 40.1557 30.8784 40.4932C30.0547 40.831 29.1864 41 28.2741 41C27.5994 41 26.9496 40.9054 26.3246 40.7169C25.6995 40.5282 25.1491 40.2449 24.6729 39.8672C24.1967 39.4898 23.8193 39.0226 23.5419 38.4661C23.2637 37.9101 23.1253 37.2641 23.1253 36.5284C23.1253 35.694 23.2787 34.9886 23.5867 34.4121C23.8939 33.8359 24.3106 33.3586 24.8367 32.9812C25.3621 32.6038 25.9625 32.3103 26.6372 32.1017C27.3113 31.893 28.0109 31.7393 28.7353 31.6395C29.4594 31.5404 30.1835 31.4808 30.9079 31.4609C31.6321 31.4412 32.3018 31.431 32.917 31.431C32.917 30.6363 32.6341 30.0053 32.0687 29.5379C31.5035 29.0714 30.8337 28.8372 30.0599 28.8372C29.3254 28.8372 28.6558 28.9918 28.0508 29.2994C27.4451 29.6079 26.9051 30.0299 26.4289 30.5665L24.0479 28.1221C24.8812 27.347 25.853 26.7655 26.9646 26.378C28.0753 25.9905 29.2265 25.7966 30.417 25.7966C31.7265 25.7966 32.8026 25.9607 33.6461 26.2886C34.4892 26.6165 35.1639 27.0987 35.6702 27.7345C36.1759 28.3707 36.5278 29.1504 36.7266 30.0745C36.9245 30.9987 37.0242 32.0672 37.0242 33.279V40.6423H32.917V38.8238ZM45.1788 26.1546H49.4643V28.1221H49.5241C49.6625 27.8436 49.861 27.5658 50.1193 27.2871C50.3768 27.0092 50.6848 26.7609 51.0417 26.5421C51.3988 26.3236 51.8054 26.1447 52.2619 26.0055C52.7182 25.8666 53.2143 25.7966 53.75 25.7966C54.881 25.7966 55.7935 25.971 56.4884 26.3184C57.1828 26.6665 57.7234 27.1484 58.1103 27.7641C58.4973 28.3802 58.7599 29.1058 58.8992 29.9402C59.0376 30.7749 59.1072 31.6797 59.1072 32.653V40.6423H54.6432V33.5476C54.6432 33.1303 54.6282 32.6979 54.5984 32.2507C54.5684 31.8035 54.4794 31.3914 54.3305 31.0134C54.1815 30.6363 53.9535 30.3278 53.646 30.0893C53.3383 29.8508 52.8968 29.7318 52.3215 29.7318C51.7459 29.7318 51.28 29.836 50.9229 30.0447C50.5655 30.2534 50.2924 30.5321 50.1043 30.8794C49.9154 31.2276 49.7917 31.62 49.7324 32.0571C49.6729 32.4941 49.6429 32.9511 49.6429 33.4281V40.6423H45.1788V26.1546ZM65.3568 26.1546H61.0713V40.6423H65.5353V33.4281C65.5353 32.9511 65.5654 32.4941 65.6249 32.0571C65.6842 31.62 65.8081 31.2276 65.9968 30.8794C66.1849 30.5321 66.458 30.2534 66.8154 30.0447C67.1725 29.836 67.6384 29.7318 68.2139 29.7318C68.7893 29.7318 69.2308 29.8508 69.5385 30.0893C69.8459 30.3278 70.0742 30.6363 70.223 31.0134C70.3718 31.3914 70.4611 31.8035 70.4909 32.2507C70.5206 32.6979 70.5357 33.1303 70.5357 33.5476V40.6423H75V32.653C75 31.6797 74.9301 30.7749 74.7917 29.9402C74.6524 29.1058 74.3897 28.3802 74.0028 27.7641C73.6159 27.1484 73.0753 26.6665 72.3809 26.3184C71.686 25.971 70.7735 25.7966 69.6425 25.7966C69.1071 25.7966 68.6107 25.8666 68.1544 26.0055C67.6979 26.1447 67.2913 26.3236 66.9344 26.5421C66.5773 26.7609 66.2693 27.0092 66.0118 27.2871C65.7535 27.5658 65.555 27.8436 65.4166 28.1221H65.3568V26.1546Z" fill="white"/>
</svg>
