<svg width="258" height="120" viewBox="0 0 258 120" fill="none" xmlns="http://www.w3.org/2000/svg">
<path fill-rule="evenodd" clip-rule="evenodd" d="M86.3094 81.2845H77.3807V52.3091H86.3094V81.2845ZM78.1851 39.5201C77.1726 40.5336 76.6659 41.7561 76.6659 43.1871C76.6659 44.6174 77.1726 45.8405 78.1851 46.8535C79.1959 47.8671 80.4165 48.3736 81.8456 48.3736C83.2736 48.3736 84.4936 47.8671 85.5061 46.8535C86.5185 45.8405 87.0237 44.6174 87.0237 43.1871C87.0237 41.7561 86.5185 40.5336 85.5061 39.5201C84.4936 38.5065 83.2736 38 81.8456 38C80.4165 38 79.1959 38.5065 78.1851 39.5201ZM14.643 59.4637H22.5002V52.3091H14.643V43.7231H5.71489V52.3091H0V59.4637H5.71489V73.2357C5.71489 74.8263 5.98248 76.1773 6.51766 77.2905C7.05392 78.4036 7.7977 79.3077 8.7501 80.003C9.70249 80.6987 10.8132 81.2058 12.0835 81.523C13.3531 81.8408 14.7419 82 16.2507 82C17.2818 82 18.3335 81.9409 19.405 81.8217C20.4764 81.7019 21.508 81.4634 22.5002 81.1057V73.653C22.1032 74.0107 21.5184 74.2399 20.7445 74.3389C19.9707 74.4385 19.346 74.4883 18.8698 74.4883C17.9169 74.4883 17.1523 74.3592 16.5778 74.1004C16.0023 73.8423 15.5747 73.4742 15.2983 72.9972C15.0198 72.5208 14.8412 71.9541 14.7621 71.2982C14.6823 70.6424 14.643 69.9177 14.643 69.1223V59.4637ZM34.7623 52.3091H25.8336V81.2845H34.7623V69.1814C34.7623 67.7505 34.8415 66.4394 35.0004 65.247C35.1587 64.054 35.5061 63.0311 36.0423 62.1762C36.5775 61.3218 37.3415 60.6556 38.3338 60.1786C39.3255 59.7016 40.6743 59.4637 42.3814 59.4637C43.0558 59.4637 43.7002 59.514 44.3157 59.6125C44.9306 59.712 45.5559 59.8608 46.191 60.0599V51.8918C45.7536 51.772 45.2774 51.6932 44.7624 51.6527C44.2458 51.6139 43.7297 51.5931 43.2148 51.5931C41.2302 51.5931 39.5838 52.0406 38.2742 52.9349C36.9647 53.8292 35.8337 55.1704 34.8813 56.9596H34.7623V52.3091ZM63.6311 68.5857C62.9561 68.5857 62.1135 68.6153 61.1021 68.6749C60.0897 68.7345 59.1171 68.9041 58.1854 69.1814C57.2522 69.4604 56.4592 69.8777 55.8039 70.4335C55.1491 70.9908 54.822 71.7659 54.822 72.7587C54.822 73.8319 55.2775 74.6272 56.1905 75.1441C57.1031 75.6604 58.0555 75.9192 59.0483 75.9192C59.9204 75.9192 60.7641 75.7994 61.5783 75.5609C62.3909 75.3224 63.1156 74.9855 63.7507 74.5473C64.3847 74.1103 64.8909 73.5546 65.2683 72.8779C65.6451 72.203 65.8341 71.4082 65.8341 70.4936V68.5857H63.6311ZM65.8341 77.6476H65.715C64.7222 79.1978 63.4023 80.3115 61.7569 80.9864C60.1093 81.662 58.3727 82 56.5482 82C55.1988 82 53.8991 81.8107 52.6491 81.4339C51.3991 81.0565 50.2982 80.4898 49.3458 79.7344C48.3934 78.9796 47.6387 78.0453 47.0838 76.9322C46.5274 75.8202 46.2505 74.5282 46.2505 73.0568C46.2505 71.388 46.5574 69.9773 47.1734 68.8242C47.7878 67.6717 48.6211 66.7172 49.6734 65.9624C50.7241 65.2076 51.925 64.6207 53.2744 64.2033C54.6227 63.786 56.0218 63.4785 57.4706 63.2789C58.9188 63.0809 60.3671 62.9616 61.8159 62.9217C63.2641 62.8823 64.6037 62.8621 65.8341 62.8621C65.8341 61.2726 65.2683 60.0107 64.1373 59.0759C63.0069 58.1427 61.6673 57.6745 60.1197 57.6745C58.6507 57.6745 57.3117 57.9835 56.1015 58.5989C54.8903 59.2159 53.8101 60.0599 52.8577 61.1331L48.0958 56.2441C49.7624 54.694 51.706 53.5311 53.9292 52.756C56.1507 51.9809 58.453 51.5931 60.834 51.5931C63.4531 51.5931 65.6052 51.9213 67.2921 52.5771C68.9785 53.233 70.3279 54.1973 71.3403 55.4691C72.3517 56.7413 73.0556 58.3008 73.4532 60.1491C73.8491 61.9973 74.0484 64.1344 74.0484 66.5581V81.2845H65.8341V77.6476ZM90.3576 52.3091H98.9286V56.2441H99.0482C99.325 55.6873 99.722 55.1316 100.239 54.5742C100.754 54.0184 101.37 53.5218 102.083 53.0842C102.798 52.6472 103.611 52.2894 104.524 52.011C105.436 51.7331 106.429 51.5931 107.5 51.5931C109.762 51.5931 111.587 51.9421 112.977 52.6368C114.366 53.3331 115.447 54.2969 116.221 55.5281C116.995 56.7605 117.52 58.2116 117.798 59.8805C118.075 61.5499 118.214 63.3593 118.214 65.306V81.2845H109.286V67.0952C109.286 66.2605 109.256 65.3957 109.197 64.5014C109.137 63.6071 108.959 62.7828 108.661 62.0269C108.363 61.2726 107.907 60.6556 107.292 60.1786C106.677 59.7016 105.794 59.4637 104.643 59.4637C103.492 59.4637 102.56 59.6721 101.846 60.0894C101.131 60.5068 100.585 61.0642 100.209 61.7588C99.8307 62.4551 99.5833 63.2401 99.4648 64.1141C99.3458 64.9882 99.2857 65.9022 99.2857 66.8562V81.2845H90.3576V52.3091ZM130.714 52.3091H122.143V81.2845H131.071V66.8562C131.071 65.9022 131.131 64.9882 131.25 64.1141C131.368 63.2401 131.616 62.4551 131.994 61.7588C132.37 61.0642 132.916 60.5068 133.631 60.0894C134.345 59.6721 135.277 59.4637 136.428 59.4637C137.579 59.4637 138.462 59.7016 139.077 60.1786C139.692 60.6556 140.148 61.2726 140.446 62.0269C140.744 62.7828 140.922 63.6071 140.982 64.5014C141.041 65.3957 141.071 66.2605 141.071 67.0952V81.2845H150V65.306C150 63.3593 149.86 61.5499 149.583 59.8805C149.305 58.2116 148.779 56.7605 148.006 55.5281C147.232 54.2969 146.151 53.3331 144.762 52.6368C143.372 51.9421 141.547 51.5931 139.285 51.5931C138.214 51.5931 137.221 51.7331 136.309 52.011C135.396 52.2894 134.583 52.6472 133.869 53.0842C133.155 53.5218 132.539 54.0184 132.024 54.5742C131.507 55.1316 131.11 55.6873 130.833 56.2441H130.714V52.3091Z" fill="#81A496"/>
</svg>
