<svg width="151" height="70" viewBox="0 0 151 70" fill="none" xmlns="http://www.w3.org/2000/svg">
<path d="M18.0686 21.7952L18.0761 21.793C21.6569 20.8833 24.8238 21.4306 26.7866 23.6399C28.4113 25.4674 28.9792 28.1686 28.6104 31.274C28.4211 32.8267 28.0019 34.4835 27.3612 36.1882C26.8279 37.6107 26.1924 39.0931 25.3571 40.547C24.5534 41.947 23.9134 42.9891 22.9489 44.1944C21.5127 45.989 20.069 47.2482 18.626 48.0021C15.5004 49.6342 9.64663 48.9859 11.028 47.4811L11.037 47.4713C12.1488 46.2869 13.2166 45.0622 14.2385 43.7999L14.237 43.8021C15.9759 41.646 17.313 39.6665 18.3112 37.8855C18.3136 37.8813 18.3159 37.877 18.318 37.8727C19.5078 35.7465 20.2109 33.9026 20.5317 32.3768C20.6143 31.9875 20.6826 31.6034 20.7397 31.2261C20.7457 31.1827 20.763 31.0247 20.7653 30.9888C20.8171 30.1054 20.7037 29.3762 20.455 28.8132C19.2156 26.0042 12.9848 28.5773 8.39745 33.4788C6.90941 35.0682 6.159 35.9839 3.80111 36.4682C1.30877 36.9796 0.401367 36.1486 0.401367 36.1486C1.61299 34.1092 3.12807 32.1118 4.89029 30.2289C7.57944 27.3563 10.5187 25.0474 13.956 23.3674C14.59 23.0582 15.2405 22.7692 15.9105 22.5027C16.6138 22.2208 17.3347 21.9847 18.0686 21.7959V21.7952Z" fill="white"/>
<path d="M28.5936 31.3601C28.4043 32.8889 27.989 34.5157 27.361 36.189C26.8269 37.6107 26.1914 39.093 25.3561 40.547C24.5524 41.947 23.9132 42.9898 22.9487 44.1944C21.5117 45.989 20.0687 47.249 18.6258 48.0021C15.4994 49.6342 9.64641 48.9859 11.0278 47.4811L11.0368 47.4713C12.1194 46.3177 13.1599 45.1255 14.1564 43.8972C18.6543 41.6662 24.602 38.0367 28.5936 31.3601Z" fill="white"/>
<path d="M14.2366 43.8006L14.1562 43.8972C18.6564 41.6654 24.6191 38.0277 28.5935 31.3601L28.61 31.274C29.5595 28.0622 29.244 25.1028 27.0732 23.3741C25.631 20.8384 21.5356 20.4775 18.2523 21.4905C18.3477 21.5129 18.4476 21.5406 18.5528 21.5728L18.4326 21.6028L18.1697 21.6686L17.9894 21.7136C17.2833 21.8925 16.6065 22.1478 15.8847 22.4398L15.2402 22.7258C19.9259 22.326 21.7873 26.4938 20.7747 31.1789C20.7169 31.4454 20.6726 31.6708 20.6297 31.8871C20.5974 32.0504 20.5659 32.2091 20.5306 32.376C20.4089 32.9585 20.2301 33.5881 19.9747 34.2679C19.6029 35.352 19.0531 36.5588 18.3169 37.8727L18.3102 37.8854C17.3186 39.656 15.9906 41.6213 14.2366 43.8006Z" fill="white"/>
<path fill-rule="evenodd" clip-rule="evenodd" d="M88.4385 39.3849H85.8906V24.083L88.4385 23.6667V29.2638C88.9299 28.789 89.5096 28.4147 90.1451 28.1617C90.7934 27.9004 91.546 27.7702 92.4039 27.7702C93.279 27.7702 94.0887 27.9244 94.8331 28.2328C95.5768 28.5413 96.2205 28.9635 96.7636 29.5003C97.3094 30.0426 97.7424 30.6871 98.0376 31.3967C98.3433 32.1244 98.4965 32.8985 98.4965 33.7198C98.5015 34.5173 98.3454 35.3076 98.0376 36.0436C97.7425 36.7531 97.3096 37.3973 96.7636 37.9393C96.2097 38.484 95.5538 38.9149 94.8331 39.2075C94.0895 39.5159 93.279 39.6694 92.4039 39.6694C91.5814 39.6694 90.8415 39.5392 90.1849 39.2786C89.5426 39.0267 88.951 38.6615 88.4385 38.2005V39.3849ZM81.8246 39.6582C82.5524 39.6118 83.2893 39.483 84.0352 39.2696L83.5169 37.6473C82.9708 37.7079 82.5074 37.7379 82.125 37.7379C81.7434 37.7379 81.434 37.6855 81.1973 37.5784C80.9607 37.4721 80.7932 37.3119 80.6933 37.0993C80.5927 36.8851 80.5431 36.5962 80.5431 36.2308V30.3351H84.09V28.3698H80.5431V25.4448L77.896 25.8469V28.3698H75.9858V30.3351H77.896V35.8879C77.896 36.8934 78.0778 37.6735 78.4421 38.2297C78.8056 38.786 79.2789 39.1738 79.8603 39.3954C80.4424 39.6163 81.0974 39.7039 81.8246 39.6582ZM35.4668 39.6702H37.9802V39.6694V32.7817C37.9802 32.3108 38.0868 31.9133 38.3032 31.5913C38.5123 31.2758 38.7806 31.0036 39.0934 30.7895C39.3972 30.5809 39.7346 30.4254 40.0909 30.3299C40.3987 30.2421 40.7166 30.1943 41.0366 30.1876C41.3908 30.1865 41.7437 30.2302 42.0868 30.3179C42.4156 30.4005 42.7241 30.549 42.9934 30.7543C43.2706 30.9706 43.4925 31.2493 43.6409 31.5674C43.8047 31.9058 43.8873 32.3183 43.8873 32.8064V39.6694H46.273V32.8296C46.273 31.8549 46.104 31.0613 45.7674 30.4474C45.4302 29.8342 45.0155 29.3543 44.5235 29.0085C44.0308 28.6626 43.5004 28.4267 42.9296 28.301C42.3602 28.1752 41.8501 28.1123 41.4009 28.1123C40.7446 28.1055 40.0931 28.2255 39.4825 28.4657C38.8966 28.7008 38.3948 29.0002 37.9802 29.3618V28.3706H35.4668V39.6702ZM56.1762 48.2731C56.533 48.4647 56.9304 48.5605 57.3661 48.5605V48.5598C57.7769 48.5664 58.1824 48.4677 58.5439 48.2731C58.8962 48.0814 59.1734 47.8171 59.3747 47.4802C59.576 47.1388 59.6766 46.7578 59.6766 46.3378C59.6766 45.917 59.576 45.5382 59.3747 45.2013C59.1734 44.8599 58.8969 44.5934 58.5439 44.4025C58.1825 44.2076 57.7769 44.1086 57.3661 44.115C56.9509 44.1095 56.5412 44.2103 56.1762 44.4077C55.8239 44.6001 55.5468 44.8644 55.3455 45.2013C55.1479 45.5382 55.0495 45.917 55.0495 46.3378C55.0439 46.736 55.1461 47.1283 55.3455 47.4735C55.5454 47.8094 55.8324 48.0856 56.1762 48.2731ZM45.1635 48.4041C45.4655 48.5081 45.781 48.5605 46.1077 48.5605C46.469 48.5605 46.7732 48.5081 47.0204 48.4041C47.2683 48.2955 47.4508 48.1525 47.5687 47.9736C47.6904 47.7902 47.7512 47.588 47.7512 47.3679C47.7512 47.1014 47.6821 46.891 47.5432 46.7368C47.405 46.5788 47.2352 46.462 47.0339 46.3872C46.8363 46.3078 46.5757 46.2292 46.2527 46.1506C45.98 46.084 45.7614 46.0233 45.5977 45.9694C45.4384 45.911 45.304 45.8302 45.1958 45.7261C45.0906 45.6176 45.0381 45.4761 45.0381 45.3016C45.0339 45.0759 45.1422 44.8628 45.3273 44.7326C45.5248 44.5829 45.8163 44.508 46.2031 44.508C46.4119 44.5093 46.6194 44.5408 46.8191 44.6016C47.0292 44.6601 47.2289 44.7507 47.411 44.8704L47.5687 44.502C47.3922 44.3815 47.1826 44.2879 46.9385 44.2213C46.6996 44.1502 46.454 44.115 46.2024 44.115C45.8418 44.115 45.5391 44.1689 45.2957 44.2774C45.0523 44.3853 44.8721 44.5312 44.7541 44.7147C44.6369 44.8936 44.5784 45.0927 44.5784 45.3136C44.5784 45.5839 44.6475 45.7987 44.7857 45.9567C44.9258 46.1129 45.1004 46.2347 45.2957 46.3123C45.5554 46.4062 45.8203 46.4854 46.0889 46.5496C46.3085 46.5994 46.5249 46.6619 46.7372 46.7368C46.8837 46.7855 47.0173 46.8666 47.1278 46.9741C47.2367 47.0789 47.2915 47.2182 47.2915 47.3934C47.2915 47.6217 47.1931 47.8089 46.9956 47.9549C46.7988 48.0964 46.5028 48.1667 46.1085 48.1667C45.8268 48.1667 45.5541 48.1188 45.2897 48.023C45.0253 47.9234 44.8135 47.7947 44.6535 47.6359L44.4709 47.9923C44.6347 48.163 44.8653 48.3 45.1635 48.4041ZM57.3661 48.1488C57.7146 48.1488 58.0293 48.0709 58.311 47.9167C58.592 47.7595 58.8121 47.5424 58.9721 47.2676C59.1313 46.9891 59.2109 46.6792 59.2109 46.3378C59.2109 45.9964 59.1313 45.6879 58.9721 45.4139C58.8175 45.1396 58.5884 44.9144 58.311 44.7641C58.0223 44.6039 57.6965 44.5221 57.3661 44.5268C57.0341 44.5228 56.7067 44.6045 56.4159 44.7641C56.1374 44.9152 55.9063 45.1401 55.7481 45.4139C55.5871 45.6951 55.5046 46.0141 55.5092 46.3378C55.5092 46.6792 55.5888 46.9891 55.7481 47.2676C55.9118 47.5424 56.1349 47.7587 56.4159 47.9174C56.7013 48.0709 57.0183 48.148 57.3661 48.148V48.1488ZM67.8605 46.2689V44.5522H70.4167V44.1524H67.3948V48.5224H67.8605V46.6687H70.1395V46.2689H67.8605ZM78.9401 44.5522H77.3905V44.1524H80.954V44.5522H79.4051V48.5224H78.9394V44.553L78.9401 44.5522ZM92.9057 48.5224L94.3914 44.1524H93.9445L92.654 47.9294L91.3568 44.1524H90.9226L89.6066 47.9107L88.3349 44.1524H87.8564L89.3422 48.5224H89.8274L91.1239 44.7955L92.4144 48.5224H92.9057ZM104.548 47.3552H102.092L101.563 48.5231H101.079L103.094 44.1524H103.553L105.568 48.5224H105.077L104.548 47.3552ZM103.32 44.6331L104.378 46.9809H102.263L103.32 44.6331ZM115.98 48.5231L114.973 47.1179C114.859 47.1306 114.742 47.1366 114.62 47.1366H113.436V48.5224H112.971V44.1524H114.62C115.183 44.1524 115.623 44.2857 115.942 44.5522C116.261 44.8187 116.421 45.1848 116.421 45.6505C116.421 45.9919 116.333 46.2816 116.156 46.5189C115.983 46.751 115.736 46.9202 115.413 47.0243L116.49 48.5224H115.98V48.5231ZM115.609 46.4561C115.378 46.6477 115.044 46.7435 114.607 46.7435H113.436V44.5522H114.607C115.044 44.5522 115.378 44.648 115.609 44.8389C115.839 45.0269 115.954 45.2971 115.954 45.6505C115.954 45.9964 115.839 46.2644 115.609 46.4561ZM127.31 48.1233V48.5224H124.194V44.1524H127.216V44.5522H124.66V46.1064H126.939V46.5002H124.66V48.1233H127.31ZM74.1853 39.6702H71.1055L67.8951 35.6162L64.6591 39.6702H61.5793L66.3552 33.6861L61.9188 28.1123H64.9986L67.8951 31.7313L70.766 28.1123H73.8457L69.4349 33.6861L74.1853 39.6702ZM90.7498 30.0573C91.2043 29.9233 91.6858 29.8567 92.1943 29.8567C92.6909 29.8543 93.1826 29.955 93.638 30.1524C94.0831 30.3429 94.4849 30.621 94.8196 30.97C95.5177 31.7159 95.9031 32.6997 95.8968 33.7198C95.9005 34.2395 95.8025 34.755 95.6083 35.2373C95.4246 35.697 95.1572 36.1188 94.8196 36.4816C94.486 36.8378 94.0843 37.124 93.638 37.3231C93.1828 37.5282 92.7013 37.6316 92.1943 37.6316C91.6858 37.6316 91.2043 37.5515 90.7498 37.3942C90.2939 37.2355 89.8958 36.9952 89.554 36.671C89.213 36.3476 88.9463 35.9403 88.7532 35.45C88.5609 34.9603 88.4648 34.3839 88.4648 33.7198C88.4648 33.0093 88.5609 32.4081 88.7532 31.9185C88.9455 31.4289 89.213 31.0298 89.554 30.7214C89.8969 30.4125 90.3058 30.1855 90.7498 30.0573ZM112.904 28.3654V39.3932H110.356V38.1279C109.918 38.6333 109.358 39.0173 108.675 39.2779C107.993 39.5399 107.3 39.6694 106.6 39.6694C105.725 39.6694 104.907 39.5197 104.145 39.2202C103.409 38.9367 102.732 38.5191 102.149 37.9887C101.581 37.469 101.122 36.8433 100.797 36.147C100.464 35.4414 100.294 34.6708 100.298 33.8912C100.298 33.0932 100.463 32.3415 100.797 31.6348C101.122 30.9386 101.581 30.3128 102.149 29.7931C102.732 29.2628 103.409 28.8452 104.145 28.5615C104.907 28.262 105.725 28.1123 106.6 28.1123C107.301 28.1123 107.975 28.2313 108.623 28.4687C109.276 28.7102 109.867 29.0915 110.356 29.5857L110.303 28.3654H112.904ZM108.045 37.3905C107.589 37.5896 107.109 37.69 106.6 37.69C106.103 37.692 105.611 37.59 105.156 37.3905C104.701 37.1906 104.307 36.9188 103.974 36.573C103.638 36.2226 103.371 35.8127 103.187 35.3646C102.994 34.9034 102.898 34.4123 102.898 33.8912C102.896 32.8922 103.282 31.9312 103.974 31.2088C104.662 30.4976 105.609 30.0946 106.6 30.0918C107.097 30.0897 107.589 30.1917 108.045 30.3912C108.489 30.5831 108.89 30.861 109.226 31.2088C109.562 31.5592 109.83 31.9693 110.015 32.4179C110.207 32.8776 110.303 33.3687 110.303 33.8912C110.306 34.3966 110.208 34.8975 110.015 35.3646C109.822 35.8243 109.56 36.2278 109.227 36.573C108.891 36.9206 108.489 37.1985 108.045 37.3905ZM119.018 39.6702H116.506V28.3706H119.019V29.3618C119.434 29.0002 119.934 28.7008 120.521 28.4649C121.132 28.2251 121.783 28.1051 122.439 28.1116C122.888 28.1116 123.397 28.1744 123.968 28.3002C124.541 28.4276 125.083 28.6681 125.562 29.0077C126.054 29.3543 126.468 29.8335 126.805 30.4466C127.142 31.0605 127.31 31.8541 127.31 32.8289V39.6687H124.927V32.8064C124.927 32.3198 124.844 31.9065 124.68 31.5681C124.532 31.2498 124.31 30.9712 124.032 30.7551C123.763 30.5497 123.454 30.401 123.126 30.3179C122.783 30.231 122.43 30.1878 122.076 30.1891C121.8 30.1891 121.485 30.2363 121.13 30.3298C120.777 30.4249 120.444 30.5769 120.133 30.7903C119.82 31.0043 119.552 31.2766 119.343 31.5921C119.127 31.914 119.019 32.3108 119.019 32.7832V39.6709L119.018 39.6702ZM130.011 38.7808H132.513V35.2246L134.086 33.767L137.98 38.7808H140.817L135.711 32.2621L140.456 27.863H137.361L132.513 32.3535V23.6667L130.011 24.0673V38.7808Z" fill="white"/>
<path d="M51.575 34.7634C51.6523 35.1737 51.9062 35.6521 52.1609 35.998C52.4163 36.3431 52.7182 36.6418 53.0668 36.8964C53.4153 37.1494 53.8067 37.3441 54.2401 37.4833C54.6813 37.6223 55.1415 37.6921 55.6042 37.6899C56.2502 37.6899 56.8496 37.5821 57.4017 37.368C57.9546 37.1524 58.4263 36.8687 58.8176 36.516L60.3478 37.8966C59.7528 38.4341 59.0257 38.8639 58.1671 39.1865C57.3086 39.5085 56.3689 39.6694 55.3495 39.6694C54.4999 39.6757 53.6566 39.5233 52.8632 39.2202C52.1168 38.9382 51.4291 38.5209 50.8351 37.9894C50.2611 37.4728 49.7973 36.8465 49.471 36.1477C49.1394 35.4416 48.9696 34.6708 48.9737 33.8912C48.9737 33.0932 49.1307 32.3415 49.4454 31.6355C49.7482 30.9458 50.1813 30.3206 50.7209 29.7938C51.2614 29.2681 51.8975 28.8499 52.595 28.5615C53.3086 28.262 54.0741 28.1123 54.8906 28.1123C55.7236 28.1123 56.4928 28.2426 57.1981 28.5039C57.9042 28.7651 58.5157 29.1709 59.0347 29.7242C59.553 30.2767 59.9564 30.9789 60.2456 31.8302C60.5348 32.6821 60.679 33.6996 60.679 34.881H53.3928L54.7103 32.9008H58.0267C57.9935 32.5347 57.8988 32.1769 57.7465 31.8421C57.5954 31.507 57.3783 31.2056 57.108 30.9557C56.8298 30.6985 56.5057 30.4953 56.1525 30.3568C55.7867 30.2116 55.3661 30.1382 54.8906 30.1382C54.5109 30.1359 54.1342 30.2063 53.7811 30.3456C53.0634 30.6336 52.456 31.1414 52.0467 31.7957C51.8341 32.1341 51.6411 32.5946 51.575 32.9921L51.5682 33.0363C51.4315 33.8134 51.4307 34.002 51.575 34.7634Z" fill="white"/>
</svg>
