<svg width="151" height="70" viewBox="0 0 151 70" fill="none" xmlns="http://www.w3.org/2000/svg">
<path d="M37.4811 44.6901H33.7024C26.4738 44.6901 20.7236 38.7609 20.7236 31.6786C20.7236 24.5963 26.6382 18.6667 33.7024 18.6667H37.4811V44.6901Z" fill="white"/>
<path d="M0 18.6667H3.77866C11.0073 18.6667 16.7571 24.5963 16.7571 31.6786C16.7571 38.7609 10.8429 44.6901 3.77866 44.6901H0V18.6667Z" fill="white"/>
<path d="M90.1855 18.6711H94.1155V44.69H90.1855V18.6711Z" fill="white"/>
<path d="M78.659 26.6726C73.731 26.6726 69.6758 30.7378 69.6758 35.6783C69.6758 40.6189 73.731 44.6845 78.659 44.6845C83.587 44.6845 87.6422 40.6189 87.6422 35.6783C87.637 30.74 83.5851 26.6775 78.659 26.6726ZM78.659 41.0755C78.6381 41.0755 78.6173 41.0755 78.5964 41.0755C75.625 41.0755 73.1798 38.6245 73.1798 35.6455C73.1798 32.6665 75.625 30.215 78.5964 30.215C78.6173 30.215 78.6381 30.215 78.659 30.2154C81.6323 30.2154 84.0756 32.6654 84.0756 35.6458C84.0734 38.6237 81.6297 41.0736 78.659 41.0755Z" fill="white"/>
<path d="M106.49 26.6737C104.652 26.6722 102.858 27.2394 101.353 28.2975V18.6711H97.415V44.6908H101.353V43.0624C102.86 44.1161 104.654 44.6814 106.491 44.6814C111.418 44.6814 115.472 40.617 115.472 35.6775C115.472 30.7385 111.418 26.6737 106.491 26.6737C106.491 26.6737 106.49 26.6737 106.49 26.6737ZM106.49 41.0766C103.542 41.0426 101.136 38.602 101.136 35.6469C101.136 32.6914 103.542 30.2509 106.49 30.2169C109.463 30.2169 111.906 32.6668 111.906 35.6465C111.905 38.6248 109.461 41.0751 106.49 41.0766Z" fill="white"/>
<path d="M54.7182 18.6667H45.3545V44.6598H54.7182C61.8659 44.6598 67.6813 38.8296 67.6813 31.6637C67.6813 24.4977 61.8659 18.6667 54.7182 18.6667ZM54.7182 40.7191H49.2852V22.6075H54.7182C59.6939 22.6075 63.7506 26.6745 63.7506 31.6637C63.7506 36.6528 59.6939 40.7191 54.7182 40.7191Z" fill="white"/>
<path d="M129.874 26.679L124.754 38.2195L119.634 26.679H115.341L122.607 43.0536C122.607 43.0536 120.83 47.0657 120.826 47.075C120.356 48.1257 119.11 48.6062 118.059 48.1418L117.495 47.8892L115.908 51.4593H115.914L117.275 52.0675C119.825 53.1989 122.85 52.0324 123.987 49.4809L134.166 26.676L129.874 26.679Z" fill="white"/>
</svg>
