<svg width="151" height="70" viewBox="0 0 151 70" fill="none" xmlns="http://www.w3.org/2000/svg">
<path fill-rule="evenodd" clip-rule="evenodd" d="M63.6322 43.5467C63.7124 43.4836 63.7751 43.402 63.8147 43.3091C63.8577 43.1806 63.8765 43.0456 63.8708 42.9105V31.7784H67.1884C67.3895 31.7838 67.5904 31.7606 67.7849 31.709C67.9396 31.6587 68.0672 31.5494 68.1389 31.4055C68.2582 31.1521 68.3361 30.882 68.3701 30.605C68.418 30.3344 68.4453 30.0607 68.452 29.7859C68.4566 29.6542 68.4416 29.5224 68.4074 29.395C68.3784 29.3012 68.3161 29.2209 68.2322 29.1682C68.1607 29.1281 68.0823 29.1008 68.001 29.0877C67.8566 29.0674 67.7109 29.0588 67.5649 29.0622H57.2354C57.0342 29.0568 56.8333 29.0803 56.6391 29.1317C56.4775 29.1781 56.3425 29.2879 56.2662 29.4351C56.1513 29.6554 56.0731 29.8923 56.0352 30.1372C55.9803 30.435 55.9527 30.7373 55.9531 31.0401C55.9538 31.1776 55.975 31.3144 56.0166 31.4459C56.046 31.5412 56.1113 31.6222 56.1991 31.6724C56.4081 31.761 56.6359 31.7973 56.8628 31.7784H60.5569V42.9033C60.5268 43.1439 60.6203 43.3835 60.8065 43.5431C61.0079 43.6942 61.4826 43.7697 62.2306 43.7697C62.9786 43.7697 63.4446 43.6967 63.6285 43.5503L63.6322 43.5467ZM79.8923 43.6198C80.5846 43.3993 81.2202 43.0352 81.7563 42.5523C82.243 42.1104 82.6161 41.5617 82.8448 40.9509C83.0781 40.2994 83.1942 39.6127 83.1875 38.9219V29.8664C83.2167 29.6294 83.1312 29.393 82.9565 29.2266C82.7379 29.0755 82.2708 29 81.555 29C80.8393 29 80.3646 29.0755 80.1309 29.2266C80.0447 29.2816 79.9773 29.3605 79.9371 29.4534C79.8874 29.5857 79.8621 29.7255 79.8626 29.8664V38.8818C79.8601 39.2551 79.7959 39.6255 79.6725 39.9786C79.5226 40.3788 79.2263 40.7097 78.8413 40.9072C78.3183 41.173 77.7332 41.299 77.145 41.2729C76.7234 41.2817 76.303 41.2235 75.9 41.1009C75.5851 41.0039 75.297 40.8375 75.0575 40.6148C74.8363 40.4029 74.6701 40.142 74.5729 39.8544C74.4681 39.5394 74.4164 39.2096 74.42 38.8782V29.8664C74.4492 29.6294 74.3637 29.393 74.189 29.2266C73.9704 29.0755 73.5031 29 72.7875 29C72.0716 29 71.5969 29.0755 71.3634 29.2266C71.2772 29.2816 71.2096 29.3605 71.1696 29.4534C71.13 29.5875 71.1149 29.7273 71.1248 29.8664V38.9183C71.1183 39.6091 71.2344 40.2958 71.4677 40.9473C71.69 41.5617 72.0581 42.1156 72.5413 42.5633C73.0787 43.0408 73.7143 43.4 74.4053 43.6162C76.1945 44.1279 78.0955 44.1279 79.8849 43.6162L79.8923 43.6198ZM89.8156 43.5467C89.8969 43.4832 89.962 43.4018 90.0057 43.3091C90.0516 43.1813 90.0719 43.046 90.0652 42.9105V29.8664C90.0716 29.7286 90.0514 29.5911 90.0057 29.4608C89.9636 29.37 89.8981 29.292 89.8156 29.234C89.6142 29.083 89.1471 29.0074 88.414 29.0074C87.6807 29.0074 87.206 29.083 86.9899 29.234C86.9074 29.292 86.8417 29.37 86.7998 29.4608C86.758 29.5918 86.7414 29.7293 86.7513 29.8664V42.918C86.7274 43.1522 86.8122 43.3844 86.9826 43.5503C87.1837 43.7016 87.6584 43.7769 88.4064 43.7769C89.1544 43.7769 89.6241 43.7003 89.8156 43.5467Z" fill="white"/>
<path fill-rule="evenodd" clip-rule="evenodd" d="M3.07316 22.0652H14.6801C15.8264 22.0652 16.6748 22.4314 17.0096 24.0096C17.3818 25.7781 17.2405 27.0085 15.2086 27.1476L11.5616 27.4039C14.2484 44.0646 29.9154 49.4986 38.4484 31.5452C39.8625 28.5756 40.3091 28.0337 41.8684 28.411C43.9634 28.9236 44.25 29.9928 43.2453 32.9771C35.8807 55.1083 11.0889 57.3273 6.22515 27.781L3.27419 27.9899C0.866423 28.1581 0.76958 26.1588 0.76958 25.0605C0.762236 22.8523 1.59206 22.0652 3.07316 22.0652Z" fill="white"/>
<path fill-rule="evenodd" clip-rule="evenodd" d="M45.4183 11C47.9119 11 49.9333 13.0147 49.9333 15.5C49.9333 17.9852 47.9119 20 45.4183 20C42.9248 20 40.9033 17.9852 40.9033 15.5C40.9033 13.0147 42.9248 11 45.4183 11Z" fill="white"/>
</svg>
