<svg width="151" height="70" viewBox="0 0 151 70" fill="none" xmlns="http://www.w3.org/2000/svg">
<mask id="mask0_32_4414" style="mask-type:alpha" maskUnits="userSpaceOnUse" x="0" y="21" width="28" height="28">
<path fill-rule="evenodd" clip-rule="evenodd" d="M0 21H27.9241V48.8313H0V21Z" fill="white"/>
</mask>
<g mask="url(#mask0_32_4414)">
<path fill-rule="evenodd" clip-rule="evenodd" d="M23.58 27.1959C23.8663 27.9586 23.1835 32.1528 22.6183 33.2641C22.5974 31.5098 22.4434 29.2933 21.7859 28.3299C20.0626 29.3399 19.535 29.4252 17.6602 30.542C18.7518 29.3633 19.1305 28.8607 19.8065 27.8733C18.0789 27.9642 15.5675 28.1716 13.7759 28.5674C15.3354 27.7365 18.4298 26.8124 20.0626 26.5933C19.684 26.0717 16.6185 24.418 15.8563 24.0989C18.2833 24.2873 21.2484 25.1911 22.6866 26.0668C23.2518 25.8907 23.8398 25.8827 24.8932 25.7888C24.6248 26.2478 24.6131 26.5129 23.58 27.1959ZM14.8145 44.1316C14.5092 44.1918 14.0917 44.2206 13.6454 44.2034C12.792 44.7066 11.6438 45.076 10.7714 45.2822C11.2916 44.9521 11.7454 44.6072 12.2816 44.1237C11.7454 44.0114 11.2473 43.853 10.7332 43.5892C11.5705 43.5892 12.2564 43.4996 13.1146 43.2597C13.6146 42.7025 14.0025 42.2245 14.4525 41.6151C14.4716 42.0416 14.4919 42.3625 14.5276 42.7411C15.352 42.3527 15.9665 41.9833 16.6788 41.4875C16.0102 42.1631 15.4259 42.7252 14.6212 43.3456C14.6859 43.6812 14.7351 43.8739 14.8145 44.1316ZM9.38114 36.0439C8.97541 35.0676 8.38866 33.1144 8.38866 33.1144C7.26258 33.7145 4.67241 36.1421 4.67241 36.1421C6.09587 33.3003 7.54149 32.0068 7.54149 32.0068C7.04402 31.5048 5.74 31.2545 4.78631 31.2121C5.28132 31.0109 6.55147 30.7746 7.52733 30.7304C8.50441 30.7028 9.09547 30.758 9.09547 30.758C9.96666 30.0726 11.2898 29.4946 11.7454 29.4277C11.4369 29.8265 11.0792 30.5709 10.9825 30.9164C13.5345 31.2612 15.5823 32.5677 15.5823 32.5677C13.3504 32.1737 12.1745 32.2228 11.3421 32.297C10.5146 32.375 10.3447 32.4719 10.3447 32.4719C9.74255 33.787 9.38114 36.0439 9.38114 36.0439ZM6.57487 44.6986C5.83605 43.9733 5.38106 43.337 4.94085 42.3957C4.12137 42.014 3.52847 41.6697 2.79335 41.2218C3.31729 40.9874 3.76797 40.8327 4.4052 40.6554C4.20634 39.5398 4.26483 38.539 4.41875 37.1374C4.70627 38.4604 4.9624 39.4103 5.52698 40.3952C6.22085 40.2645 6.81498 40.1737 7.61906 40.054C7.18131 40.702 6.91349 41.207 6.6783 41.8538C7.46329 42.5853 8.17687 43.0111 9.16689 43.3775C8.127 43.3456 7.34262 43.2063 6.42772 42.94C6.3563 43.5892 6.40247 44.0807 6.57487 44.6986ZM0 48.8315H27.9242V21H0V48.8315Z" fill="white"/>
</g>
<path fill-rule="evenodd" clip-rule="evenodd" d="M38.4309 31.1609C40.3112 31.1768 41.0002 31.5573 41.0002 32.5772C41.0002 32.8588 40.9133 33.1086 40.7465 33.2994C40.3869 33.7308 39.6857 33.9542 38.7905 33.8983H38.7449L38.2191 35.2624H38.7449C39.7823 35.2324 40.6849 35.5588 41.1485 36.1234C41.3628 36.3805 41.4699 36.6891 41.4699 37.0058C41.4699 38.0717 40.5273 38.6233 38.6686 38.6233C38.3552 38.6233 37.8454 38.6233 37.5296 38.6123C37.476 37.1886 37.4526 35.2624 37.4526 34.6813C37.4526 34.0094 37.4963 32.5127 37.5296 31.2327C37.7444 31.1885 38.0997 31.1609 38.4309 31.1609ZM34.9486 30.1803C35.0065 31.191 35.0662 33.7486 35.0662 34.6813C35.0662 35.5404 35.0644 38.4171 34.9148 39.6573L34.9043 39.7555H39.4154C41.6306 39.7555 43.9757 39.0676 43.9757 37.1064C43.9757 35.8779 43.083 34.9703 41.4139 34.4733C42.652 34.1425 43.477 33.2994 43.477 32.3354C43.477 30.7338 41.6306 30.1312 39.8962 30.0889H34.9228L34.9486 30.1803Z" fill="white"/>
<path fill-rule="evenodd" clip-rule="evenodd" d="M54.3839 30.0891H52.1889L52.2776 32.5271C52.3201 33.731 52.362 34.9706 52.4469 36.1733C52.3053 35.7965 52.1729 35.6026 51.5062 34.6349C51.5031 34.6012 49.2226 31.1041 48.4314 30.1118L48.408 30.0891H45.8622V30.1799C45.9429 31.1912 45.9755 33.7488 45.9755 34.681C45.9755 35.5407 45.9755 38.4168 45.8542 39.6575L45.832 39.7557H48.1008V39.6575C47.9721 37.2987 47.9721 34.9178 47.9721 32.6081C48.0516 32.8885 48.1519 33.1291 48.5096 33.6568C48.538 33.7194 52.4469 39.39 52.6365 39.7152L52.6562 39.7557H54.4737L54.4713 39.6575C54.3327 38.4168 54.3211 35.5407 54.3211 34.681C54.3211 33.7488 54.3839 31.1912 54.443 30.1799L54.4713 30.0891H54.3839Z" fill="white"/>
<path fill-rule="evenodd" clip-rule="evenodd" d="M60.3347 31.2559C61.6005 31.2326 62.4828 31.4872 62.9015 32.0168C63.0936 32.2444 63.2007 32.5445 63.2007 32.8882C63.2007 34.2866 61.6215 34.591 60.3014 34.591L59.7664 34.5603C59.7664 34.5603 59.639 34.5487 59.5454 34.5382C59.5355 34.2154 59.5355 33.789 59.5355 33.3109C59.5355 32.7028 59.5355 31.9806 59.5645 31.3117C59.7504 31.2878 60.0318 31.2559 60.3347 31.2559ZM57.0075 30.1802C57.0968 31.1914 57.1307 33.7491 57.1307 34.6812C57.1307 35.5403 57.1307 38.417 56.9971 39.6572V39.756H59.6962L59.6845 39.6572C59.5928 38.7649 59.5454 37.0633 59.5355 35.7624C59.663 35.7679 60.0453 35.7882 60.0453 35.7882L60.4276 35.7962C63.9789 35.7962 65.7065 34.8598 65.7065 32.8882C65.7065 30.6459 63.2826 30.1311 61.2625 30.0894H57.0075V30.1802Z" fill="white"/>
<path fill-rule="evenodd" clip-rule="evenodd" d="M74.1807 31.2559C75.4484 31.2326 76.3307 31.4872 76.7555 32.0168C76.9501 32.2444 77.0486 32.5445 77.0486 32.8882C77.0486 34.2866 75.4712 34.591 74.1678 34.591L73.6334 34.5603C73.6334 34.5603 73.4918 34.5487 73.4099 34.5382C73.3945 34.2154 73.3945 33.7865 73.3945 33.3109C73.3945 32.6967 73.3945 31.9806 73.4204 31.3117C73.5885 31.2878 73.8803 31.2559 74.1807 31.2559ZM70.8585 30.1802C70.9435 31.1914 70.9927 33.7491 70.9927 34.6812C70.9927 35.5403 70.9841 38.417 70.8438 39.6572V39.756H73.5447L73.5287 39.6572C73.4438 38.7649 73.3945 37.0633 73.3945 35.7624C73.5207 35.7679 73.8803 35.7882 73.8803 35.7882L74.2719 35.7962C77.8213 35.7962 79.5643 34.8598 79.5643 32.8882C79.5643 30.6459 77.1268 30.1311 75.1006 30.0894H70.8585V30.1802Z" fill="white"/>
<path fill-rule="evenodd" clip-rule="evenodd" d="M83.8322 32.9355C84.0464 33.397 84.603 34.6813 85.2304 36.2148C85.1331 36.2197 85.0131 36.2197 85.0131 36.2197L83.8322 36.2344C83.8322 36.2344 82.6082 36.2197 82.4056 36.2148C82.9148 34.9894 83.4197 33.8818 83.8322 32.9355ZM83.1746 30.0889H83.1395L83.1204 30.138C82.6174 31.5131 79.3796 38.5558 78.8673 39.6346L78.8242 39.7555H81.1238L81.1429 39.7015C81.3454 39.0388 81.617 38.292 81.9131 37.4948C82.0054 37.4948 83.8322 37.4666 83.8322 37.4666L85.4194 37.4783C85.4194 37.4783 85.6755 37.4948 85.7525 37.4948C86.1613 38.5337 86.4753 39.3161 86.612 39.715L86.6385 39.7555H89.3013L84.9977 30.0889H84.9447H83.1746Z" fill="white"/>
<path fill-rule="evenodd" clip-rule="evenodd" d="M90.3855 30.1802C90.4631 31.1908 90.5013 33.7485 90.5013 34.6812C90.5013 35.5403 90.5013 38.417 90.3535 39.6572V39.7554H93.0699L93.0582 39.6572C92.9148 38.4084 92.9043 35.5403 92.9043 34.6812C92.9043 34.0093 92.9252 32.5126 92.9929 31.3013C93.1992 31.2878 93.5126 31.2559 93.7262 31.2559C94.9822 31.2326 95.8694 31.4909 96.2856 32.0168C96.4839 32.2444 96.5744 32.5507 96.5744 32.8882C96.5744 34.0044 95.5289 34.5701 94.5549 34.6211C94.228 34.6346 93.986 34.5922 93.986 34.5922L93.7958 34.5603L93.8998 34.7377C94.864 36.1386 96.3059 38.5667 96.9013 39.7149L96.9191 39.7554H99.8196L99.7482 39.6253C99.63 39.462 97.7399 36.6896 96.9376 35.5059C96.9376 35.5059 96.9013 35.4716 96.8668 35.4347C98.3549 34.9892 99.0728 34.1602 99.0728 32.8882C99.0728 30.6625 96.6507 30.1323 94.6054 30.0894H90.3775L90.3855 30.1802Z" fill="white"/>
<path fill-rule="evenodd" clip-rule="evenodd" d="M103.659 30.0891H101.074L101.088 30.1799C101.155 31.1912 101.208 33.7488 101.208 34.681C101.208 35.5364 101.195 38.4088 101.074 39.6575L101.063 39.7557H103.745L103.73 39.6575C103.628 38.4088 103.595 35.5364 103.595 34.681C103.595 33.7488 103.659 31.1912 103.73 30.1799V30.0891H103.659Z" fill="white"/>
<path fill-rule="evenodd" clip-rule="evenodd" d="M109.669 31.1609C111.564 31.1768 112.252 31.5573 112.252 32.5772C112.252 32.8588 112.166 33.1086 111.993 33.2994C111.652 33.7308 110.922 33.9542 110.035 33.8983H109.99L109.469 35.2624H109.99C111.033 35.2324 111.926 35.5588 112.389 36.1234C112.615 36.3805 112.722 36.6891 112.722 37.0058C112.722 38.0717 111.776 38.6233 109.907 38.6233C109.606 38.6233 109.101 38.6233 108.784 38.6123C108.707 37.1886 108.707 35.2624 108.707 34.6813C108.707 34.0094 108.733 32.5127 108.784 31.2327C108.989 31.1885 109.344 31.1609 109.669 31.1609ZM106.189 30.1803C106.266 31.191 106.314 33.7486 106.314 34.6813C106.314 35.5404 106.314 38.4171 106.177 39.6573L106.155 39.7555H110.672C112.881 39.7555 115.232 39.0676 115.232 37.1064C115.232 35.8779 114.338 34.9703 112.655 34.4733C113.894 34.1425 114.729 33.2994 114.729 32.3354C114.729 30.7338 112.881 30.1312 111.161 30.0889H106.177L106.189 30.1803Z" fill="white"/>
<path fill-rule="evenodd" clip-rule="evenodd" d="M120.757 32.9305C120.975 33.3809 121.527 34.6677 122.156 36.2049C122.06 36.2049 121.943 36.2147 121.943 36.2147L120.757 36.2306C120.757 36.2306 119.52 36.2049 119.336 36.2049C119.839 34.9702 120.332 33.87 120.757 32.9305ZM121.873 30.0894H120.057L120.046 30.1323C119.503 31.5958 116.083 39.0104 115.796 39.6253L115.745 39.756H118.056L118.071 39.6983C118.263 39.0356 118.532 38.2924 118.833 37.4788C118.906 37.4788 120.743 37.4499 120.743 37.4499L122.334 37.4745C122.334 37.4745 122.611 37.4788 122.67 37.4788C123.089 38.5177 123.399 39.3068 123.534 39.6983L123.559 39.756H126.234L121.931 30.0894H121.873Z" fill="white"/>
<path fill-rule="evenodd" clip-rule="evenodd" d="M126.99 32.5886C126.99 34.2866 128.696 34.9701 130.208 35.5948C131.384 36.0618 132.616 36.5539 132.616 37.3633C132.616 37.6088 132.566 37.815 132.43 37.9598C132.147 38.2924 131.574 38.4311 130.665 38.3813C129.763 38.3451 128.748 38.0623 127.605 37.5376L127.158 37.3228V37.6978V39.4294L127.464 39.5061L127.641 39.5368C128.205 39.6761 129.294 39.932 130.378 39.932C133.225 39.932 134.925 38.7992 134.925 36.9276C134.925 35.1696 133.17 34.486 131.62 33.8699C130.476 33.4091 129.294 32.9513 129.294 32.1971C129.294 31.9805 129.294 31.3466 130.77 31.3466C131.857 31.3466 132.915 31.7872 133.515 32.0167L134.062 32.2444L134.058 31.8823V30.131L133.515 30.0328C132.961 29.9218 132.038 29.7383 131.087 29.7383C128.63 29.7383 126.99 30.895 126.99 32.5886Z" fill="white"/>
</svg>
