<svg width="151" height="70" viewBox="0 0 151 70" fill="none" xmlns="http://www.w3.org/2000/svg">
<path fill-rule="evenodd" clip-rule="evenodd" d="M30.8366 38.2107C30.5723 38.0433 30.174 37.9819 29.5121 38.0973L28 38.3558V41.5381L29.5121 41.2753C30.174 41.1627 30.599 40.9575 30.8366 40.7265V40.7266C31.1266 40.4683 31.5 40.136 31.5 39.3443C31.5 38.5443 31.1026 38.3493 30.8366 38.2107Z" fill="white"/>
<path fill-rule="evenodd" clip-rule="evenodd" d="M15.8506 46.3759C15.488 46.1701 15.2471 46.163 14.644 46.2854L12.833 46.6441V49.7048L14.644 49.345C15.2471 49.2253 15.4879 49.0924 15.8506 48.7418L15.8499 48.7412C16.211 48.388 16.333 47.9457 16.333 47.4761C16.333 46.9768 16.2111 46.5804 15.8506 46.3759Z" fill="white"/>
<path fill-rule="evenodd" clip-rule="evenodd" d="M15.7238 41.8476C16.1803 41.4477 16.333 41.0451 16.333 40.513C16.333 39.9483 16.1803 39.5973 15.7238 39.3655C15.2683 39.1313 14.9647 39.1861 14.2027 39.3211L12.833 39.5664V42.7048L14.2027 42.4624C14.9647 42.3263 15.2683 42.2407 15.7238 41.8476Z" fill="white"/>
<path fill-rule="evenodd" clip-rule="evenodd" d="M42.0007 40.371L42 40.3715L44.3333 39.9466L43.1657 35.7048L42.0007 40.371Z" fill="white"/>
<mask id="mask0_32_4911" style="mask-type:alpha" maskUnits="userSpaceOnUse" x="0" y="14" width="105" height="48">
<path fill-rule="evenodd" clip-rule="evenodd" d="M0 14.7595H105V61.3715H0V14.7595Z" fill="white"/>
</mask>
<g mask="url(#mask0_32_4911)">
<path fill-rule="evenodd" clip-rule="evenodd" d="M94.4463 32.6765V39.036L93.5965 39.1866L89.0974 39.9584L76.3411 42.1569V25.9042L81.6656 24.9849V36.8838L89.0974 35.6015V33.5977L83.4408 24.6813L89.3574 23.6616L91.77 28.7317L94.2106 22.826L100.124 21.8072L94.4463 32.6765ZM74.5268 42.4843L68.9668 43.4418L63.997 35.2289C63.997 35.2289 64.1141 36.9765 64.1141 38.1534V44.2785L58.9071 45.1755V28.9199L64.7054 27.921L69.4393 36.1766C69.4393 36.1766 69.3208 34.429 69.3208 33.2512V33.2502V27.1251L74.5268 26.2299V42.4843ZM57.0938 45.4951L51.7445 46.4175V46.4154L46.7191 47.2812L46.0797 45.1057L41.4166 45.9071L40.8007 48.2991L37.2508 48.908L35.2392 49.2542L31.0983 49.9713L28.4943 45.0001L27.8069 45.1195V50.5372L22.4584 51.4594V35.2039L29.5588 33.9791C31.5698 33.6359 33.1081 33.7209 34.2936 34.3426C35.4764 34.9641 36.3036 36.2351 36.3036 38.0022C36.3036 41.2989 34.2936 42.8255 33.5833 43.3715L35.9834 46.9965L40.919 32.0242L46.837 31.004L51.7447 44.2092V30.1595L52.2619 30.0709L52.2617 30.0683V30.0658L57.0938 29.2358V45.4951ZM19.6171 50.8875C18.5536 51.7798 16.8978 52.4171 15.3591 52.6801L5.76645 54.3235V50.4827L7.31142 50.2272V41.6535L5.76645 41.9096V38.0694L14.0569 36.6506C15.4772 36.4092 17.0159 36.2603 18.1983 36.5275C19.3824 36.7946 20.6126 37.7584 20.6126 39.6449C20.6126 41.5297 19.3824 43.0379 18.3164 43.6444L18.3154 43.6458C20.2091 43.8378 21.4434 45.0396 21.4434 46.9245C21.4434 48.8084 20.6829 50.0004 19.6171 50.8875ZM0 32.7518V61.3716L105 43.485V14.7595L0 32.7518Z" fill="white"/>
</g>
</svg>
