<svg width="151" height="70" viewBox="0 0 151 70" fill="none" xmlns="http://www.w3.org/2000/svg">
<path fill-rule="evenodd" clip-rule="evenodd" d="M15.6326 35.2025C15.8921 34.9559 16.0651 34.6168 16.0651 34.2469V28.189C16.0651 27.9887 15.9094 27.8499 15.7191 27.7574C15.4769 27.6495 15.079 27.5879 14.5601 27.5879C14.0411 27.5879 13.6432 27.6495 13.401 27.7574C13.1934 27.8345 13.0551 27.9887 13.0551 28.189V34.2469C13.0551 34.6322 13.2107 34.9559 13.4875 35.2025C13.7643 35.4338 14.1449 35.5879 14.5601 35.5879C14.9925 35.5879 15.3558 35.4492 15.6326 35.2025ZM10.5338 36.5447C10.2302 36.4583 9.96807 36.2567 9.80248 35.9543L7.08408 31.0443C7.00128 30.8859 7.02888 30.6987 7.12547 30.5547C7.24966 30.3676 7.49805 30.1516 7.85682 29.9356C8.21559 29.7196 8.51917 29.6044 8.73996 29.59C8.90555 29.5756 9.08493 29.6332 9.16773 29.7916L11.8861 34.7016C12.0517 35.004 12.0931 35.3352 12.0103 35.652C11.9275 35.9687 11.7343 36.2423 11.4446 36.4151C11.1548 36.5879 10.8374 36.6311 10.5338 36.5447ZM15.9644 46.3625C15.6786 46.5175 15.3777 46.5879 15.0617 46.5879C14.7608 46.5879 14.4449 46.5175 14.159 46.3625L10.8641 44.5879C10.2021 44.2358 9.43482 44.0809 8.66751 44.1654C4.68054 44.602 1.86709 45.3062 1.03961 45.5316C0.874109 45.5738 0.678521 45.5175 0.573205 45.3907C0.437798 45.2358 0.257256 44.9823 0.136895 44.6161C0.0165332 44.2499 0.00148802 43.9541 0.0165332 43.7569C0.0315784 43.5879 0.15194 43.433 0.332482 43.3907C1.62637 43.0386 7.35858 41.5879 15.0617 41.5879C22.7649 41.5879 28.4971 43.0386 29.791 43.3907C29.9715 43.433 30.0919 43.5879 30.1069 43.7569C30.1219 43.9682 30.1069 44.2639 29.9865 44.6161C29.8511 44.9823 29.6856 45.2358 29.5502 45.3907C29.4449 45.5175 29.2493 45.5738 29.0838 45.5316C28.2563 45.3062 25.4579 44.602 21.4559 44.1654C20.6886 44.0809 19.9213 44.2358 19.2593 44.5879L15.9644 46.3625ZM7.15378 39.4288C7.45746 39.594 7.80452 39.6216 8.10819 39.5527C8.42633 39.4701 8.70109 39.2773 8.87462 38.9881C9.04815 38.699 9.07707 38.3685 9.00476 38.0793C8.93246 37.7901 8.71555 37.5147 8.41187 37.3495L3.48074 34.6368C3.32167 34.5542 3.13368 34.5817 2.98907 34.6781C2.80108 34.8021 2.58417 35.0499 2.36726 35.4079C2.15035 35.766 2.03466 36.0689 2.0202 36.2892C2.00574 36.4682 2.07804 36.6335 2.22265 36.7161L7.15378 39.4288ZM20.321 35.9543C20.1554 36.2567 19.8932 36.4583 19.5896 36.5447C19.286 36.6311 18.9687 36.5879 18.6789 36.4151C18.3891 36.2423 18.1959 35.9687 18.1131 35.652C18.0303 35.3352 18.0717 35.004 18.2373 34.7016L20.9557 29.7916C21.0385 29.6332 21.2179 29.5756 21.3835 29.59C21.6043 29.6044 21.9078 29.7196 22.2666 29.9356C22.6254 30.1516 22.8738 30.3676 22.998 30.5547C23.0946 30.6987 23.1222 30.8859 23.0394 31.0443L20.321 35.9543ZM22.0152 39.5527C22.3189 39.6216 22.666 39.594 22.9697 39.4288L27.9008 36.7161C28.0454 36.6335 28.1177 36.4682 28.1032 36.2892C28.0888 36.0689 27.9731 35.766 27.7562 35.4079C27.5393 35.0499 27.3224 34.8021 27.1344 34.6781C26.9898 34.5817 26.8018 34.5542 26.6427 34.6368L21.7116 37.3495C21.4079 37.5147 21.2054 37.7764 21.1187 38.0793C21.0464 38.3685 21.0753 38.699 21.2488 38.9881C21.4223 39.2773 21.6971 39.4701 22.0152 39.5527ZM55.4181 35.5879H57.9933C58.0876 35.5879 58.1661 35.647 58.2132 35.7209L60.7727 41.9005L63.2538 35.7209C63.2852 35.6322 63.3794 35.5879 63.4736 35.5879H66.0018C66.1745 35.5879 66.2844 35.7505 66.2059 35.8836L59.9248 49.4548C59.8934 49.5288 59.7992 49.5879 59.7206 49.5879H57.4909C57.3338 49.5879 57.2082 49.4253 57.2867 49.2922L59.438 44.5467L55.2296 35.8836C55.1354 35.7505 55.2453 35.5879 55.4181 35.5879ZM92.5965 35.9999V37.1469C91.9097 36.2793 90.8169 35.5734 89.2403 35.5881C86.8519 35.5881 84.2917 37.0734 84.2917 40.5439C84.2917 43.2056 86.0089 45.5879 89.3183 45.5879C91.0511 45.5879 92.1126 44.6614 92.5965 43.9556V45.1614C92.5965 45.2791 92.7058 45.382 92.8307 45.382H95.0942C95.2191 45.382 95.3284 45.2791 95.3284 45.1614V35.9999C95.3284 35.8822 95.2191 35.7793 95.0942 35.7793H92.8307C92.7058 35.7793 92.5965 35.8822 92.5965 35.9999ZM87.3017 40.565C87.3017 42.2749 88.2579 43.5879 89.7962 43.5879C91.3345 43.5879 92.3184 42.4429 92.3184 40.6871C92.3184 38.9314 91.3622 37.5879 89.7269 37.5879C88.1886 37.5879 87.3017 38.9009 87.3017 40.565ZM97.3351 36.0083V45.3627C97.3351 45.4828 97.4226 45.5729 97.5539 45.5879H99.6691C99.7858 45.5879 99.888 45.4828 99.888 45.3627V40.5128C99.888 39.1915 100.442 37.7651 102.018 37.7651C103.593 37.7651 103.812 39.3416 103.812 40.2576V45.3627C103.812 45.4828 103.914 45.5879 104.031 45.5879H106.146C106.263 45.5879 106.365 45.4828 106.365 45.3627V40.2125C106.365 36.4137 104.542 35.5879 102.908 35.5879C101.318 35.5879 100.384 36.3987 99.888 37.2846V36.0083C99.888 35.8882 99.7858 35.7831 99.6691 35.7831H97.5539C97.4372 35.7831 97.3351 35.8882 97.3351 36.0083ZM108.372 45.3627V36.0083C108.372 35.8882 108.474 35.7831 108.591 35.7831H110.706C110.823 35.7831 110.925 35.8882 110.925 36.0083V37.2846C111.421 36.3987 112.354 35.5879 113.944 35.5879C115.578 35.5879 117.402 36.4137 117.402 40.2125V45.3627C117.402 45.4828 117.3 45.5879 117.183 45.5879H115.068C114.951 45.5879 114.849 45.4828 114.849 45.3627V40.2576C114.849 39.3416 114.63 37.7651 113.054 37.7651C111.479 37.7651 110.925 39.1915 110.925 40.5128V45.3627C110.925 45.4828 110.823 45.5879 110.706 45.5879H108.591C108.474 45.5729 108.372 45.4828 108.372 45.3627ZM132.802 35.7864H130.685C130.565 35.7864 130.46 35.8915 130.445 36.0116V45.3627C130.445 45.4828 130.55 45.5879 130.67 45.5879H132.847C132.967 45.5879 133.072 45.4828 133.072 45.3627V40.6496C133.072 38.9685 133.973 37.7677 136.195 38.203C136.345 38.2331 136.465 38.128 136.465 37.9929V35.8615C136.465 35.7564 136.405 35.6664 136.3 35.6514C135.099 35.3662 133.448 36.0266 133.027 37.9479V36.0116C133.027 35.8915 132.922 35.7864 132.802 35.7864ZM41.5128 37.6333C41.144 37.5134 40.866 37.4187 40.6035 37.3294L40.6034 37.3293L40.6034 37.3293L40.6034 37.3293L40.6033 37.3293L40.6033 37.3293C40.3686 37.2494 40.1463 37.1737 39.8825 37.0879C39.308 36.8909 38.3297 36.3455 38.3297 35.4667C38.3297 34.5879 38.9508 34.0273 40.2085 34.0273C41.3575 34.0273 41.9942 34.5727 42.4134 35.4515C42.4755 35.5727 42.6152 35.6182 42.7395 35.5576L44.5872 34.5121C44.6804 34.4515 44.727 34.3303 44.6804 34.2243C44.1214 33.0273 42.8171 31.5879 40.2396 31.5879C37.3671 31.5879 35.5659 33.2546 35.5659 35.4515C35.5659 37.6333 37.041 38.7697 39.044 39.4364C39.2983 39.5209 39.4999 39.5888 39.6808 39.6498L39.6812 39.6499C40.0192 39.7638 40.2854 39.8536 40.6899 39.9818C41.8699 40.3758 42.4134 40.8909 42.4134 41.603C42.4134 42.3152 41.9476 43.1637 40.1154 43.1637C38.4384 43.1637 37.8484 42.3 37.5068 41.4818C37.4602 41.3606 37.3049 41.3 37.1807 41.3758L35.2398 42.4667C35.1467 42.5273 35.1001 42.6333 35.1467 42.7394C35.892 44.5273 37.926 45.5879 40.2085 45.5879C42.8947 45.5879 45.1617 44.2546 45.1617 41.5576C45.1617 38.8606 42.2115 37.8606 41.5128 37.6333ZM55.0436 42.7581C55.1464 42.6836 55.2931 42.7283 55.3518 42.8326L56.1736 44.2326C56.2176 44.3219 56.203 44.4262 56.1296 44.5007C55.3225 45.3049 54.6474 45.5879 53.5908 45.5879C52.4754 45.5879 51.4482 45.1113 50.7144 43.9496C50.1714 43.1007 48.7479 40.8219 48.7479 40.8219V45.156C48.7479 45.2751 48.6452 45.3794 48.5278 45.3794H46.3852C46.2678 45.3794 46.1651 45.2751 46.1651 45.156V31.8113C46.1651 31.6921 46.2678 31.5879 46.3852 31.5879H48.5131C48.6305 31.5879 48.7332 31.6921 48.7332 31.8113V39.6304L51.5215 35.7432C51.5656 35.6836 51.6243 35.6538 51.6976 35.6538H54.2218C54.3979 35.6538 54.5006 35.8624 54.3832 36.0113L51.1547 40.0773C51.1547 40.0773 51.9031 41.2687 52.5195 42.2368C53.2532 43.3836 54.2218 43.3687 55.0436 42.7581ZM70.6376 39.4648L70.6373 39.4647L70.2158 39.314C69.6798 39.1225 69.2051 38.8427 69.2051 38.4303C69.2051 38.0179 69.6033 37.5614 70.4148 37.5614C71.1192 37.5614 71.548 37.8265 71.793 38.2978C71.8543 38.4156 71.9921 38.445 72.0993 38.3861L73.6612 37.5172C73.7684 37.4583 73.799 37.3257 73.7377 37.2226C73.309 36.501 72.4668 35.5879 70.4302 35.5879C67.9342 35.5879 66.6479 36.9723 66.6479 38.5039C66.6479 40.0356 67.9495 40.7573 69.1439 41.2138C70.435 41.7218 70.5734 41.7701 70.7309 41.8251L70.7517 41.8324C71.1652 41.9944 71.6705 42.2447 71.6705 42.7013C71.6705 43.1578 71.1192 43.5702 70.277 43.5702C69.4961 43.5702 68.6079 43.2609 68.2404 42.392C68.1945 42.2742 68.0414 42.2153 67.9188 42.2889L66.3416 43.1578C66.2497 43.2168 66.2038 43.3199 66.2497 43.4229C66.7091 44.5717 68.072 45.5879 70.277 45.5879C72.6658 45.5879 74.2584 44.3655 74.2584 42.6424C74.2584 40.9193 73.0334 40.3154 71.7011 39.8442C71.2068 39.6685 70.9387 39.5725 70.6376 39.4648ZM82.0687 38.6467C81.408 38.1761 80.7033 37.882 79.7491 37.882C78.7067 37.882 76.8276 38.4702 76.8276 40.5879C76.8276 42.7055 78.7214 43.2938 79.7638 43.2938C80.6887 43.2938 81.5108 42.9408 82.0834 42.5291C82.1861 42.4555 82.3329 42.4997 82.3917 42.6026L83.2578 44.1173C83.3166 44.2055 83.2872 44.3379 83.1991 44.3967C82.3917 44.9261 81.2172 45.5879 79.6316 45.5879C77.8699 45.5879 76.4899 44.9408 75.7265 44.1761C74.9631 43.4114 74.2584 42.3232 74.2584 40.6173C74.2584 39.2055 74.7135 38.0144 75.7118 37.0144C76.7101 35.9997 78.1048 35.5879 79.6169 35.5879C81.1438 35.5879 82.2742 36.1614 83.1844 36.7791C83.2872 36.8379 83.3166 36.9555 83.2578 37.0585L82.377 38.5879C82.3182 38.6908 82.1714 38.7202 82.0687 38.6467ZM124.431 43.4702C123.525 43.4702 122.667 43.2644 122.042 42.7938C121.418 42.3232 121.121 41.8379 121.121 41.2644H129.208C129.332 41.2644 129.442 41.1614 129.442 41.0438C129.395 38.7791 128.614 37.7202 127.865 36.9997C127.085 36.2644 125.758 35.5879 124.009 35.5879C122.261 35.5879 120.918 36.1908 119.997 37.0438C119.092 37.8967 118.405 38.985 118.405 40.632C118.405 42.2791 119.108 43.3673 119.966 44.1761C120.825 44.985 122.23 45.5879 124.243 45.5879C126.148 45.5879 127.756 44.9555 128.911 43.7055C129.005 43.6026 128.973 43.4408 128.849 43.382L127.241 42.4997C127.163 42.4555 127.053 42.4555 126.975 42.5291C126.179 43.235 125.164 43.4702 124.431 43.4702ZM126.432 39.5879C126.259 38.3022 125.167 37.5879 123.974 37.5879C122.781 37.5879 121.746 38.2022 121.415 39.5879H126.432Z" fill="white"/>
</svg>
