<svg width="50" height="50" viewBox="0 0 50 50" fill="none" xmlns="http://www.w3.org/2000/svg">
<path fill-rule="evenodd" clip-rule="evenodd" d="M20.1492 31.7597H18.582V25.4375H20.597C21.7164 25.4375 22.0895 25.5863 22.5373 25.8838C23.1343 26.2557 23.3582 26.9251 23.3582 27.5945C23.3582 28.3383 22.985 29.3796 21.791 29.6027L23.5074 31.7597H21.6417L20.1492 29.6771V31.7597ZM20.7462 26.7763H20.1492V28.5614H20.7462C21.6417 28.5614 21.791 27.9664 21.791 27.6689C21.791 27.0738 21.3432 26.7763 20.7462 26.7763Z" fill="#231F20"/>
<path fill-rule="evenodd" clip-rule="evenodd" d="M32.6866 26.9993H34.1045V31.7596H32.6866V31.2389C32.4627 31.6852 31.8657 31.9084 31.2687 31.9084C29.7761 31.9084 28.8806 30.7183 28.8806 29.3795C28.8806 27.8175 30 26.8506 31.2687 26.8506C32.0896 26.8506 32.5373 27.2225 32.6866 27.52V26.9993ZM31.4926 28.115C30.6717 28.115 30.2985 28.8588 30.2985 29.3795C30.2985 29.8257 30.597 30.5695 31.4926 30.4952C32.3881 30.4952 32.6866 29.7514 32.6866 29.3051C32.6866 28.7844 32.3135 28.115 31.4926 28.115Z" fill="#231F20"/>
<path fill-rule="evenodd" clip-rule="evenodd" d="M38.1343 25.3633H39.5522V31.6855H38.1343V31.1648C38.0597 31.388 37.6866 31.8342 36.7164 31.8342C35.2985 31.8342 34.3284 30.7186 34.3284 29.3054C34.3284 27.669 35.5224 26.7765 36.7164 26.7765C37.5373 26.7765 37.9851 27.2228 38.1343 27.3715V25.3633ZM37.0149 28.1897C36.194 28.1897 35.8209 28.8591 35.8209 29.3797C35.8209 30.1235 36.3433 30.5698 37.0149 30.6442C37.9105 30.6442 38.209 29.9004 38.209 29.3797C38.209 28.7847 37.8358 28.1897 37.0149 28.1897Z" fill="#231F20"/>
<path fill-rule="evenodd" clip-rule="evenodd" d="M25.9701 31.9084C24.179 31.9084 23.3582 30.5695 23.3582 29.3795C23.3582 28.1894 24.2537 26.8506 25.9701 26.8506C27.7611 26.8506 28.582 28.1894 28.582 29.3795C28.582 30.5695 27.6865 31.9084 25.9701 31.9084ZM25.9701 28.1894C25.3731 28.1894 24.8507 28.7101 24.8507 29.3795C24.8507 30.0489 25.3731 30.5695 25.9701 30.5695C26.5671 30.5695 27.0895 30.0489 27.0895 29.3795C27.0895 28.7101 26.5671 28.1894 25.9701 28.1894Z" fill="#231F20"/>
<path d="M44.1045 20.0825L43.2089 22.8345H43.1343L42.1642 20.0825H40.6716L42.4627 24.6196L41.7164 26.4791H43.2089L45.597 20.0825H44.1045Z" fill="#231F20"/>
<path fill-rule="evenodd" clip-rule="evenodd" d="M38.4329 23.8013C38.8806 23.8013 39.1045 23.5782 39.3284 23.355V23.4294H40.6717C40.4478 23.9501 40.0747 24.322 39.7015 24.6195C39.3284 24.917 38.8806 25.0657 38.3582 25.0657C37.015 25.0657 35.8209 23.9501 35.8209 22.5369C35.8209 21.198 36.8657 19.9336 38.3582 19.9336C39.8508 19.9336 40.8955 21.0493 40.8955 22.5369V22.9088H37.3135C37.3881 23.4294 37.8358 23.8013 38.4329 23.8013ZM38.5075 21.1237C37.7612 21.1237 37.4627 21.6443 37.3881 21.9418H39.6269C39.5523 21.6443 39.2538 21.1237 38.5075 21.1237Z" fill="#231F20"/>
<path fill-rule="evenodd" clip-rule="evenodd" d="M31.791 24.8425H30.4477H30.2985V18.3716H31.7164V20.3798C32.2388 19.8592 32.9104 19.8592 33.1343 19.8592C34.1791 19.8592 35.5223 20.6029 35.5223 22.388C35.5223 24.0988 34.3283 24.9913 33.1343 24.9913C32.4626 24.9913 31.9403 24.6938 31.791 24.3219V24.8425ZM33.0597 21.2724C32.3134 21.2724 31.8656 21.8674 31.8656 22.4624C31.8656 23.1318 32.3134 23.6525 33.0597 23.6525C33.8059 23.6525 34.2537 23.0575 34.2537 22.4624C34.2537 21.8674 33.8059 21.2724 33.0597 21.2724Z" fill="#231F20"/>
<path fill-rule="evenodd" clip-rule="evenodd" d="M26.2686 24.8425H24.9253H24.8507V18.3716H26.2686V20.3798C26.791 19.8592 27.4626 19.8592 27.6865 19.8592C28.7313 19.8592 30.0746 20.6029 30.0746 22.388C30.0746 24.0988 28.8059 24.9913 27.6119 24.9913C26.9403 24.9913 26.4179 24.6938 26.2686 24.3219V24.8425ZM27.5373 21.2724C26.791 21.2724 26.3432 21.8674 26.3432 22.4624C26.3432 23.1318 26.791 23.6525 27.5373 23.6525C28.2835 23.6525 28.7313 23.0575 28.7313 22.4624C28.7313 21.8674 28.2835 21.2724 27.5373 21.2724Z" fill="#231F20"/>
<path fill-rule="evenodd" clip-rule="evenodd" d="M21.5672 18.4458L24.8507 24.8424H23.1343L22.6866 23.9498H20.4477L20 24.8424H18.2836L21.5672 18.4458ZM22.1642 22.8342H22.2388L21.5672 21.4953L20.9701 22.8342H21.0448H22.1642Z" fill="#231F20"/>
<path d="M0 0V33.2474L16.6418 49.8339V16.5865H50L33.3582 0H0Z" fill="#231F20"/>
<path fill-rule="evenodd" clip-rule="evenodd" d="M22.0895 33.0986C22.388 33.5449 22.4627 33.9168 22.4627 34.2887V34.3631H20.9701C20.9701 34.1399 20.8955 33.768 20.4477 33.768C20.1492 33.768 19.9254 33.9168 19.9254 34.2143C19.9254 34.5862 20.0746 34.6606 21.1194 35.1068C22.2388 35.6275 22.5373 36.1481 22.5373 36.8176C22.5373 37.6357 22.0149 38.6027 20.4477 38.6027C18.7313 38.6027 18.2836 37.487 18.2836 36.7432V36.52H19.7761C19.7761 37.1895 20.1492 37.3382 20.3731 37.3382C20.7463 37.3382 20.9701 37.0407 20.9701 36.7432C20.9701 36.3401 20.7267 36.2404 20.0198 35.951C19.944 35.9199 19.8629 35.8867 19.7761 35.8506C19.403 35.7019 18.3582 35.2556 18.3582 34.1399C18.3582 33.0986 19.4776 32.4292 20.4477 32.4292C21.0448 32.4292 21.7164 32.6523 22.0895 33.0986ZM24.6269 32.578H23.2836V34.0655H22.6119V35.1068H23.2836V38.5283H24.6269V35.1068H25.2985V34.0655H24.6269V32.578ZM29.7761 34.0655H28.4328V36.4457C28.4328 37.1151 28.0597 37.3382 27.6866 37.3382C26.9403 37.3382 26.9403 36.7432 26.9403 36.4457V33.9912H25.597V36.6688C25.597 37.2638 25.6716 37.5613 25.9701 38.0076C26.3433 38.5283 27.0149 38.6027 27.3134 38.6027C27.6866 38.6027 28.2089 38.5283 28.5075 38.0076V38.4539H29.7761V34.0655Z" fill="#CD2037"/>
<path fill-rule="evenodd" clip-rule="evenodd" d="M33.6567 32.5781H34.9253V38.5284H33.6567V38.0822C33.6404 38.0983 33.6224 38.118 33.6021 38.1403C33.4354 38.3227 33.1115 38.6772 32.3134 38.6772C30.9701 38.6772 30.0746 37.6359 30.0746 36.2971C30.0746 34.8095 31.194 33.9169 32.3134 33.9169C33.1343 33.9169 33.5074 34.2888 33.6567 34.4376V32.5781ZM32.6119 35.107C31.8656 35.107 31.4925 35.702 31.4925 36.2227C31.4925 36.8921 31.9403 37.4128 32.6119 37.3384C33.4328 37.3384 33.7313 36.669 33.7313 36.2227C33.7313 35.702 33.3582 35.107 32.6119 35.107Z" fill="#CD2037"/>
<path fill-rule="evenodd" clip-rule="evenodd" d="M36.7165 32.5781H35.3732V33.6194H36.7165V32.5781ZM39.4776 38.6028C37.8359 38.6028 37.0896 37.3384 37.0896 36.2227C37.0896 35.1814 37.8359 33.9169 39.4776 33.8426C41.1194 33.8426 41.8657 35.107 41.8657 36.2227C41.8657 37.3384 41.1194 38.6028 39.4776 38.6028ZM45.4478 35.2558C45.2985 34.0657 44.3284 33.8426 43.7314 33.8426C42.8359 33.8426 42.015 34.4376 42.015 35.3301C42.015 35.9252 42.4627 36.2971 43.0597 36.5202C43.1687 36.5597 43.2697 36.5952 43.363 36.6281C43.9731 36.8427 44.2538 36.9415 44.2538 37.264C44.2538 37.4871 44.0299 37.6359 43.806 37.6359C43.7314 37.6359 43.3582 37.6359 43.2836 37.264H41.9403C42.0896 38.4541 43.0597 38.7516 43.7314 38.7516C44.7015 38.7516 45.5224 38.1565 45.5224 37.264C45.5224 36.3184 44.7373 36.0841 44.0047 35.8655L43.9553 35.8508C43.5821 35.7764 43.2836 35.6277 43.2836 35.4045C43.2836 35.2558 43.3582 35.107 43.6568 35.107C43.9615 35.107 44.0173 35.2558 44.0682 35.3914L44.0682 35.3915L44.0683 35.3915C44.0797 35.4219 44.0908 35.4516 44.1045 35.4789H45.4478V35.2558ZM38.4329 36.2227C38.4329 35.5533 38.9553 35.107 39.4776 35.107C40.0747 35.107 40.5224 35.5533 40.5224 36.2227C40.5224 36.8921 40 37.3384 39.4776 37.3384C38.8806 37.4128 38.4329 36.8921 38.4329 36.2227ZM35.3732 34.0657H36.7165V38.5284H35.3732V34.0657Z" fill="#CD2037"/>
</svg>
