<svg width="215" height="100" viewBox="0 0 215 100" fill="none" xmlns="http://www.w3.org/2000/svg">
<mask id="mask0_1039_21802" style="mask-type:alpha" maskUnits="userSpaceOnUse" x="1" y="36" width="41" height="41">
<path fill-rule="evenodd" clip-rule="evenodd" d="M1.4668 36.5908H41.3583V76.3498H1.4668V36.5908Z" fill="white"/>
</mask>
<g mask="url(#mask0_1039_21802)">
<path fill-rule="evenodd" clip-rule="evenodd" d="M35.152 45.4421C35.561 46.5317 34.5856 52.5234 33.7782 54.111C33.7483 51.6047 33.5284 48.4384 32.589 47.0621C30.1272 48.505 29.3734 48.6269 26.6952 50.2223C28.2546 48.5383 28.7955 47.8204 29.7613 46.4099C27.2933 46.5396 23.7056 46.8359 21.1461 47.4013C23.374 46.2144 27.7946 44.8942 30.1272 44.5812C29.5863 43.8361 25.207 41.4736 24.1181 41.0178C27.5853 41.2869 31.8212 42.5782 33.8758 43.8291C34.6832 43.5775 35.5232 43.5661 37.0281 43.432C36.6446 44.0877 36.6279 44.4664 35.152 45.4421ZM22.6299 69.636C22.1937 69.7219 21.5973 69.7631 20.9597 69.7386C19.7406 70.4574 18.1003 70.9851 16.854 71.2797C17.5972 70.8081 18.2454 70.3154 19.0115 69.6246C18.2454 69.4642 17.5338 69.238 16.7994 68.8611C17.9956 68.8611 18.9754 68.7331 20.2015 68.3903C20.9157 67.5944 21.4698 66.9115 22.1128 66.041C22.14 66.6502 22.169 67.1087 22.2201 67.6496C23.3978 67.0947 24.2756 66.567 25.2932 65.8586C24.338 66.8238 23.5033 67.6268 22.3538 68.5131C22.4461 68.9926 22.5165 69.2678 22.6299 69.636ZM14.8679 58.0821C14.2883 56.6874 13.4501 53.8971 13.4501 53.8971C11.8414 54.7545 8.14118 58.2224 8.14118 58.2224C10.1747 54.1627 12.2399 52.3148 12.2399 52.3148C11.5292 51.5977 9.66631 51.2401 8.3039 51.1796C9.01105 50.8921 10.8256 50.5546 12.2196 50.4914C13.6155 50.452 14.4598 50.5309 14.4598 50.5309C15.7044 49.5517 17.5945 48.7259 18.2454 48.6304C17.8047 49.2002 17.2937 50.2635 17.1556 50.7571C20.8014 51.2497 23.7267 53.116 23.7267 53.116C20.5384 52.5533 18.8584 52.6234 17.6693 52.7295C16.4872 52.8408 16.2444 52.9793 16.2444 52.9793C15.3842 54.8579 14.8679 58.0821 14.8679 58.0821ZM10.859 70.446C9.80352 69.4098 9.15354 68.5008 8.52466 67.156C7.35399 66.6108 6.50698 66.119 5.45681 65.4791C6.2053 65.1442 6.84913 64.9233 7.75946 64.6699C7.47536 63.0762 7.55892 61.6465 7.77881 59.6443C8.18955 61.5343 8.55544 62.8913 9.36199 64.2983C10.3532 64.1115 11.202 63.9818 12.3507 63.8109C11.7253 64.7366 11.3427 65.458 11.0067 66.382C12.1282 67.4269 13.1476 68.0353 14.5619 68.5586C13.0763 68.5131 11.9558 68.3141 10.6488 67.9336C10.5467 68.8611 10.6127 69.5633 10.859 70.446ZM1.46631 76.3501H41.3581V36.5908H1.46631V76.3501Z" fill="white"/>
</g>
<path fill-rule="evenodd" clip-rule="evenodd" d="M56.3686 51.1067C59.0547 51.1294 60.0389 51.673 60.0389 53.1299C60.0389 53.5323 59.9149 53.8891 59.6766 54.1617C59.1629 54.778 58.1611 55.097 56.8823 55.0173H56.8172L56.066 56.966H56.8172C58.2992 56.9231 59.5886 57.3894 60.2509 58.1959C60.557 58.5632 60.71 59.0042 60.71 59.4565C60.71 60.9792 59.3635 61.7673 56.7081 61.7673C56.2604 61.7673 55.5322 61.7673 55.0809 61.7515C55.0044 59.7177 54.971 56.966 54.971 56.1358C54.971 55.1759 55.0335 53.0379 55.0809 51.2092C55.3879 51.1461 55.8954 51.1067 56.3686 51.1067ZM51.3939 49.7058C51.4766 51.1496 51.5619 54.8034 51.5619 56.1358C51.5619 57.3631 51.5592 61.4727 51.3455 63.2444L51.3306 63.3846H57.775C60.9396 63.3846 64.2898 62.4019 64.2898 59.6003C64.2898 57.8453 63.0144 56.5487 60.63 55.8387C62.3988 55.3662 63.5774 54.1617 63.5774 52.7845C63.5774 50.4965 60.9396 49.6357 58.4619 49.5752H51.357L51.3939 49.7058Z" fill="white"/>
<path fill-rule="evenodd" clip-rule="evenodd" d="M79.1578 49.5752H76.0222L76.1489 53.058C76.2096 54.778 76.2694 56.5487 76.3908 58.2669C76.1885 57.7287 75.9994 57.4517 75.0468 56.0692C75.0424 56.021 71.7846 51.0251 70.6544 49.6076L70.6209 49.5752H66.984V49.7049C67.0992 51.1496 67.1459 54.8034 67.1459 56.135C67.1459 57.3631 67.1459 61.4718 66.9726 63.2444L66.9409 63.3846H70.182V63.2444C69.9982 59.8746 69.9982 56.4733 69.9982 53.1737C70.1117 53.5744 70.255 53.918 70.7661 54.6719C70.8065 54.7613 76.3908 62.8622 76.6617 63.3268L76.6898 63.3846H79.2862L79.2827 63.2444C79.0848 61.4718 79.0681 57.3631 79.0681 56.135C79.0681 54.8034 79.1578 51.1496 79.2422 49.7049L79.2827 49.5752H79.1578Z" fill="white"/>
<path fill-rule="evenodd" clip-rule="evenodd" d="M87.6596 51.2417C89.468 51.2083 90.7283 51.5721 91.3264 52.3287C91.6009 52.6539 91.7539 53.0826 91.7539 53.5735C91.7539 55.5713 89.4979 56.0061 87.6121 56.0061L86.8478 55.9623C86.8478 55.9623 86.6657 55.9456 86.532 55.9307C86.518 55.4696 86.518 54.8604 86.518 54.1775C86.518 53.3087 86.518 52.277 86.5593 51.3214C86.8249 51.2872 87.2269 51.2417 87.6596 51.2417ZM82.9066 49.7049C83.0341 51.1496 83.0825 54.8034 83.0825 56.135C83.0825 57.3622 83.0825 61.4719 82.8916 63.2435V63.3846H86.7475L86.7308 63.2435C86.5998 61.9689 86.532 59.538 86.518 57.6796C86.7 57.6875 87.2462 57.7164 87.2462 57.7164L87.7924 57.7278C92.8656 57.7278 95.3336 56.3901 95.3336 53.5735C95.3336 50.3703 91.8709 49.6348 88.9851 49.5752H82.9066V49.7049Z" fill="white"/>
<path fill-rule="evenodd" clip-rule="evenodd" d="M107.44 51.2417C109.251 51.2083 110.511 51.5721 111.118 52.3287C111.396 52.6539 111.537 53.0826 111.537 53.5735C111.537 55.5713 109.284 56.0061 107.422 56.0061L106.658 55.9623C106.658 55.9623 106.456 55.9456 106.339 55.9307C106.317 55.4696 106.317 54.8569 106.317 54.1775C106.317 53.3 106.317 52.277 106.354 51.3214C106.594 51.2872 107.011 51.2417 107.44 51.2417ZM102.694 49.7049C102.815 51.1496 102.886 54.8034 102.886 56.135C102.886 57.3622 102.873 61.4719 102.673 63.2435V63.3846H106.531L106.509 63.2435C106.387 61.9689 106.317 59.538 106.317 57.6796C106.497 57.6875 107.011 57.7164 107.011 57.7164L107.57 57.7278C112.641 57.7278 115.131 56.3901 115.131 53.5735C115.131 50.3703 111.649 49.6348 108.754 49.5752H102.694V49.7049Z" fill="white"/>
<path fill-rule="evenodd" clip-rule="evenodd" d="M121.227 53.6419C121.534 54.3011 122.329 56.1358 123.225 58.3265C123.086 58.3335 122.914 58.3335 122.914 58.3335L121.227 58.3546C121.227 58.3546 119.479 58.3335 119.19 58.3265C119.917 56.5759 120.638 54.9936 121.227 53.6419ZM120.288 49.5752H120.238L120.211 49.6453C119.492 51.6098 114.867 61.6708 114.135 63.2119L114.073 63.3846H117.358L117.386 63.3075C117.675 62.3607 118.063 61.2939 118.486 60.1552C118.618 60.1552 121.227 60.1148 121.227 60.1148L123.495 60.1315C123.495 60.1315 123.861 60.1552 123.971 60.1552C124.555 61.6393 125.003 62.757 125.199 63.3268L125.236 63.3846H129.04L122.892 49.5752H122.817H120.288Z" fill="white"/>
<path fill-rule="evenodd" clip-rule="evenodd" d="M130.589 49.7049C130.7 51.1487 130.754 54.8025 130.754 56.135C130.754 57.3622 130.754 61.4719 130.543 63.2435V63.3838H134.424L134.407 63.2435C134.202 61.4596 134.187 57.3622 134.187 56.135C134.187 55.1751 134.217 53.037 134.314 51.3065C134.608 51.2872 135.056 51.2417 135.361 51.2417C137.155 51.2083 138.423 51.5774 139.017 52.3287C139.301 52.6539 139.43 53.0913 139.43 53.5735C139.43 55.1681 137.936 55.9763 136.545 56.0491C136.078 56.0683 135.732 56.0079 135.732 56.0079L135.461 55.9623L135.609 56.2156C136.987 58.2169 139.046 61.6857 139.897 63.3259L139.922 63.3838H144.066L143.964 63.1979C143.795 62.9647 141.095 59.0042 139.949 57.3131C139.949 57.3131 139.897 57.2641 139.848 57.2115C141.974 56.575 142.999 55.3907 142.999 53.5735C142.999 50.394 139.539 49.6366 136.617 49.5752H130.577L130.589 49.7049Z" fill="white"/>
<path fill-rule="evenodd" clip-rule="evenodd" d="M149.551 49.5752H145.858L145.878 49.7049C145.974 51.1496 146.049 54.8034 146.049 56.135C146.049 57.357 146.031 61.4605 145.858 63.2444L145.843 63.3846H149.674L149.653 63.2444C149.507 61.4605 149.46 57.357 149.46 56.135C149.46 54.8034 149.551 51.1496 149.653 49.7049V49.5752H149.551Z" fill="white"/>
<path fill-rule="evenodd" clip-rule="evenodd" d="M158.137 51.1067C160.844 51.1294 161.827 51.673 161.827 53.1299C161.827 53.5323 161.704 53.8891 161.458 54.1617C160.97 54.778 159.927 55.097 158.66 55.0173H158.595L157.852 56.966H158.595C160.085 56.9231 161.362 57.3894 162.023 58.1959C162.346 58.5632 162.499 59.0042 162.499 59.4565C162.499 60.9792 161.147 61.7673 158.478 61.7673C158.048 61.7673 157.326 61.7673 156.873 61.7515C156.763 59.7177 156.763 56.966 156.763 56.1358C156.763 55.1759 156.799 53.0379 156.873 51.2092C157.166 51.1461 157.673 51.1067 158.137 51.1067ZM153.165 49.7058C153.276 51.1496 153.344 54.8034 153.344 56.1358C153.344 57.3631 153.344 61.4727 153.148 63.2444L153.118 63.3846H159.57C162.726 63.3846 166.084 62.4019 166.084 59.6003C166.084 57.8453 164.808 56.5487 162.403 55.8387C164.173 55.3662 165.366 54.1617 165.366 52.7845C165.366 50.4965 162.726 49.6357 160.269 49.5752H153.148L153.165 49.7058Z" fill="white"/>
<path fill-rule="evenodd" clip-rule="evenodd" d="M173.978 53.634C174.289 54.2774 175.077 56.1157 175.975 58.3116C175.838 58.3116 175.672 58.3256 175.672 58.3256L173.978 58.3484C173.978 58.3484 172.21 58.3116 171.948 58.3116C172.666 56.5479 173.37 54.9761 173.978 53.634ZM175.571 49.5752H172.978L172.961 49.6366C172.186 51.7273 167.299 62.3195 166.89 63.1979L166.817 63.3846H170.119L170.14 63.3022C170.415 62.3555 170.798 61.2939 171.229 60.1315C171.333 60.1315 173.958 60.0903 173.958 60.0903L176.229 60.1254C176.229 60.1254 176.625 60.1315 176.711 60.1315C177.309 61.6156 177.752 62.743 177.945 63.3022L177.981 63.3846H181.801L175.654 49.5752H175.571Z" fill="white"/>
<path fill-rule="evenodd" clip-rule="evenodd" d="M182.881 53.1461C182.881 55.5718 185.319 56.5483 187.479 57.4407C189.159 58.1078 190.918 58.8109 190.918 59.9671C190.918 60.3178 190.847 60.6123 190.652 60.8192C190.248 61.2943 189.43 61.4925 188.131 61.4215C186.843 61.3697 185.392 60.9656 183.76 60.2161L183.121 59.9093V60.4449V62.9187L183.559 63.0283L183.811 63.0721C184.617 63.2711 186.173 63.6367 187.721 63.6367C191.789 63.6367 194.216 62.0184 194.216 59.3447C194.216 56.8332 191.709 55.8567 189.496 54.9765C187.861 54.3182 186.173 53.6642 186.173 52.5868C186.173 52.2774 186.173 51.3718 188.281 51.3718C189.834 51.3718 191.345 52.0013 192.203 52.3291L192.984 52.6543L192.979 52.1371V49.6353L192.203 49.495C191.411 49.3363 190.093 49.0742 188.734 49.0742C185.224 49.0742 182.881 50.7267 182.881 53.1461Z" fill="white"/>
</svg>
