<svg width="258" height="120" viewBox="0 0 258 120" fill="none" xmlns="http://www.w3.org/2000/svg">
<path d="M1.87793 92.2012H53.092L53.092 42.0059L1.87793 42.0059L1.87793 92.2012Z" fill="url(#paint0_linear_1060_43678)"/>
<path d="M5.87866 42.905C4.88507 42.905 4.23592 43.7404 4.08176 44.912C3.9276 46.0835 2.80273 51.6123 2.80273 65.8402C2.80273 80.0752 4.08176 89.3887 4.08176 89.3887C4.19979 90.5147 4.88507 91.3945 5.87866 91.3945H50.2074C51.1974 91.3945 51.9851 90.6119 52.0019 89.3887C52.0188 88.1656 51.5093 78.4799 51.5093 67.8255C51.5093 57.17 52.0019 44.912 52.0019 44.912C52.026 43.822 51.1974 42.905 50.2074 42.905L5.87866 42.905Z" fill="url(#paint1_linear_1060_43678)"/>
<path d="M30.774 48.0257C32.1722 48.6103 37.7917 51.6388 38.4806 52.6063C35.6528 52.9784 30.1067 54.4176 27.1199 55.8665L26.9453 56.217C30.2392 55.4943 34.8435 55.1162 38.0182 54.9446C36.8331 56.6779 36.0478 57.5037 34.2449 59.4651L34.0775 59.8456C37.5135 57.7882 38.4806 57.6406 41.6481 55.792C42.844 57.5554 43.1319 61.6186 43.1776 64.8391C44.2086 62.7961 45.4599 55.0994 44.9396 53.7082C47.04 52.2714 47.3242 51.1142 47.3242 51.1142C45.3985 51.2799 44.3362 51.3123 43.2981 51.6388C40.8376 50.1348 35.1952 48.1506 30.9366 47.6704L30.774 48.0257Z" fill="url(#paint2_linear_1060_43678)"/>
<path d="M9.79433 71.9439C9.51612 74.5079 9.40411 76.342 9.77265 78.3934C8.73088 78.6803 7.81798 78.7211 6.97854 79.0776L6.81836 79.4293C8.15399 80.2504 9.24153 80.8794 10.7518 81.5816C11.5599 83.3113 12.3945 84.478 13.7482 85.8104L13.9132 85.4539C13.6699 84.4708 13.3544 83.6582 13.4736 82.5839C15.1525 83.0712 16.5929 83.3293 18.5066 83.3869L18.668 83.0304C16.9855 82.3798 15.3043 81.8673 13.9433 80.5877C14.3709 79.4017 14.8611 78.4714 15.6607 77.2951L15.8294 76.935C14.3841 77.1523 13.0738 77.6792 11.8237 77.9217C10.8385 76.1956 10.4555 73.8345 9.95932 71.585L9.79433 71.9439Z" fill="url(#paint3_linear_1060_43678)"/>
<path d="M18.3693 60.2417C18.3693 60.2417 17.2878 60.1385 15.4981 60.1925C13.9854 60.2621 11.7296 60.3966 10.6325 60.7183L10.4723 61.0688C12.2162 61.1432 14.6056 61.6101 15.5198 62.5248C16.4339 63.4395 12.8726 64.9051 10.2483 70.1147C7.62399 75.3242 15.0055 65.6661 17.0674 64.563C19.1292 63.4599 18.1465 68.1449 18.8956 69.9382L19.0606 69.5805C19.2677 68.4282 19.7844 65.3024 20.6612 63.3903C21.5379 61.4781 20.9719 63.2018 22.493 63.0542C24.0177 62.9185 26.1735 62.8381 30.2671 63.5547L30.4333 63.2042C29.4987 62.6544 25.7736 61.0628 21.8306 60.5334H21.9595C22.5002 58.9465 23.1771 57.7498 23.1771 57.7498C22.3412 57.8674 19.9614 58.9766 18.3693 60.2417Z" fill="url(#paint4_linear_1060_43678)"/>
<path d="M28.3338 82.219C28.2727 81.5303 28.2265 80.8403 28.1953 80.1496C27.4298 81.1957 26.613 82.2037 25.7481 83.1697C24.7834 83.4374 23.6802 83.4266 22.6745 83.4158C22.2964 83.4087 21.9181 83.4095 21.54 83.4182L21.3774 83.7747C22.3132 84.2548 23.2322 84.5501 24.2125 84.7506C23.4176 85.472 22.3554 86.0206 21.6087 86.5235L21.4449 86.874C23.0443 86.4971 25.1507 85.8201 26.72 84.897C27.5365 84.933 28.2989 84.879 28.8589 84.7686C29.4189 84.6582 29.0263 84.4049 29.0263 84.4133C28.9239 84.0532 28.6024 83.8335 28.5084 83.3294C29.979 82.1914 31.0448 81.1543 32.2745 79.9216L32.4455 79.5639C31.2303 80.3993 29.7549 81.548 28.3338 82.219Z" fill="url(#paint5_linear_1060_43678)"/>
<path fill-rule="evenodd" clip-rule="evenodd" d="M25.9086 82.8143C26.7767 81.8505 27.5955 80.8438 28.3619 79.7978C28.3897 80.4871 28.4355 81.1756 28.4992 81.8625C29.8813 81.2159 31.2022 80.4465 32.4458 79.5638C31.2174 80.8025 30.1467 81.8336 28.6714 82.9728C28.7906 83.5874 28.8797 83.9403 29.0255 84.4132C28.4654 84.5236 27.7007 84.5765 26.8817 84.5453C25.3148 85.4683 23.2108 86.1453 21.6102 86.5234C22.5946 85.898 23.5216 85.187 24.3803 84.3988C23.3926 84.2047 22.4368 83.8746 21.5404 83.4181C23.0183 83.4314 24.4901 83.228 25.9086 82.8143ZM14.1035 80.236C15.5439 81.578 16.8518 82.3594 18.668 83.0304C16.7603 82.9728 15.3223 82.7159 13.6422 82.2286C13.5122 83.4181 13.5965 84.3196 13.9144 85.4539C12.5583 84.1227 11.7225 82.9572 10.9156 81.2287C9.41132 80.5301 8.32499 79.8975 6.97852 79.0764C7.93959 78.6455 8.76578 78.3634 9.93401 78.0393C9.57029 75.9927 9.67748 74.1562 9.9593 71.585C10.4868 74.0109 10.9565 75.755 11.9923 77.5604C13.2668 77.3257 14.5461 77.1172 15.8293 76.935C15.0272 78.1233 14.5347 79.05 14.1035 80.236ZM38.284 57.3117L38.284 57.3117L38.284 57.3117C39.2981 56.8112 40.306 56.3138 41.8109 55.4318C43.0189 57.1975 43.3007 61.2619 43.3381 64.4801C44.3738 62.4431 45.6275 54.75 45.1024 53.3516C46.6915 52.3015 46.9629 51.7893 47.2991 51.1549C47.3637 51.0329 47.4307 50.9065 47.5099 50.7708C47.0797 50.8091 46.6918 50.8396 46.3371 50.8675L46.3369 50.8675H46.3368C45.1003 50.9647 44.2691 51.0301 43.4633 51.281C40.8258 49.6737 35.3869 48.016 30.9368 47.6715C32.335 48.2561 37.9558 51.2906 38.6507 52.2461C35.6555 52.6494 29.9817 54.3431 27.1202 55.8664C30.4081 55.1401 35.0123 54.7608 38.181 54.5928C36.9429 56.4041 36.2468 57.326 34.2452 59.4902C36.0455 58.4164 37.1685 57.8622 38.284 57.3117ZM23.3963 57.4448C22.8303 58.177 22.1739 59.5406 21.9968 60.1744C26.6782 60.8082 30.4346 63.2041 30.4346 63.2041C26.3398 62.4803 24.184 62.5703 22.6568 62.7072C21.1393 62.8488 20.8262 63.0265 20.8262 63.0265C19.723 65.4392 19.0606 69.5804 19.0606 69.5804C18.3163 67.7907 17.2396 64.2064 17.2396 64.2064C15.1742 65.3059 10.423 69.7605 10.423 69.7605C13.0352 64.5473 15.686 62.1742 15.686 62.1742C14.7743 61.2535 12.3825 60.7938 10.6325 60.717C11.5406 60.3473 13.871 59.9152 15.6607 59.8335C17.4528 59.7819 18.5367 59.8839 18.5367 59.8839C20.1349 58.626 22.5593 57.5673 23.3963 57.4436V57.4448Z" fill="white"/>
<path fill-rule="evenodd" clip-rule="evenodd" d="M224.698 68.5988C222.203 67.5677 219.431 66.4217 219.431 63.6267H219.432C219.432 60.8023 222.167 58.8733 226.264 58.8733C227.849 58.8733 229.388 59.1794 230.311 59.3655L231.218 59.5287V62.448L231.224 63.053L230.311 62.6713C230.235 62.6423 230.154 62.6112 230.069 62.5785C229.041 62.1829 227.41 61.5549 225.736 61.5549C223.275 61.5549 223.275 62.6124 223.275 62.9749C223.275 64.1991 225.145 64.954 227.002 65.7034L227.151 65.7634L227.214 65.7886C229.783 66.8096 232.662 67.9539 232.662 70.8613C232.662 73.9822 229.828 75.8704 225.078 75.8704C223.274 75.8704 221.456 75.4442 220.516 75.2114L220.22 75.161L219.711 75.0313V71.5203L220.458 71.878C222.363 72.753 224.057 73.2248 225.557 73.2848C227.074 73.3688 228.029 73.136 228.501 72.5814C228.73 72.3401 228.81 71.9968 228.81 71.5887C228.81 70.2383 226.759 69.4185 224.796 68.6394L224.698 68.5988ZM98.3712 59.4591H94.7124L94.8605 63.5235L94.8783 64.0195L94.8783 64.0197C94.9444 65.8709 95.0119 67.7624 95.1423 69.6033C94.9063 68.9743 94.6859 68.6514 93.5731 67.0381C93.5694 66.9817 89.7673 61.1516 88.4461 59.4963L88.41 59.4591H84.1634V59.6103C84.2983 61.2968 84.3525 65.5617 84.3525 67.1162C84.3525 68.5494 84.3525 73.3448 84.1502 75.413L84.114 75.5763H87.8969V75.413C87.6814 71.4795 87.6814 67.5099 87.6814 63.6591C87.8138 64.1261 87.98 64.527 88.5762 65.4069C88.5954 65.4476 89.597 66.9086 90.8311 68.7087L90.8325 68.7108L90.8329 68.7113L90.833 68.7115C92.7651 71.5298 95.2659 75.1776 95.4591 75.5079L95.4916 75.5763H98.523L98.5182 75.413C98.2869 73.3448 98.2676 68.5494 98.2676 67.1162C98.2676 65.5617 98.3712 61.2968 98.47 59.6103L98.5182 59.4591H98.3712ZM66.1631 67.115C66.1631 65.5605 66.0655 61.2968 65.9692 59.6103L65.9246 59.4591H74.2166C77.1095 59.5287 80.1866 60.5334 80.1866 63.2042C80.1866 64.8127 78.8125 66.2171 76.7482 66.7693C79.5303 67.5975 81.0176 69.1112 81.0176 71.1578C81.0176 74.4299 77.1107 75.5751 73.4133 75.5751H65.8945L65.9102 75.413C66.1631 73.3448 66.1631 68.5482 66.1631 67.115ZM76.0569 63.6075C76.0569 61.9066 74.9091 61.2716 71.7742 61.2452V61.2464C71.2226 61.2464 70.6289 61.292 70.2712 61.3665C70.2609 61.7598 70.2501 62.1655 70.2392 62.5728L70.2392 62.5736L70.2392 62.5739L70.2392 62.574C70.1911 64.3736 70.1423 66.2021 70.1423 67.1162C70.1537 69.3013 70.1967 71.4862 70.2712 73.6701C70.7987 73.6869 71.6477 73.6869 72.1692 73.6869C75.2692 73.6869 76.8409 72.7686 76.8409 70.9897C76.8409 70.464 76.6615 69.9478 76.305 69.5193C75.5318 68.5782 74.0275 68.0356 72.2969 68.0837H71.4213L72.2969 65.8102H72.374C73.865 65.9038 75.0344 65.5317 75.6354 64.8115C75.9124 64.4934 76.0569 64.0769 76.0569 63.6075ZM112.575 62.6725C111.876 61.7902 110.403 61.3653 108.295 61.4037C107.865 61.4071 107.436 61.4384 107.01 61.4973C106.963 62.6124 106.963 63.8164 106.963 64.8307C106.963 65.6277 106.963 66.3383 106.979 66.8785L107.346 66.9145L108.24 66.9649C110.44 66.9649 113.073 66.4584 113.073 64.1261C113.073 63.5523 112.896 63.0518 112.575 62.6725ZM102.747 59.6103C102.895 61.2968 102.951 65.5605 102.951 67.1162C102.951 68.5482 102.951 73.346 102.73 75.413V75.5763H107.23L107.211 75.413C107.057 73.9246 106.979 71.0869 106.963 68.9191L107.813 68.9611L108.449 68.9743C114.37 68.9743 117.25 67.4139 117.25 64.1261C117.25 60.387 113.21 59.5287 109.843 59.4591L102.747 59.4591V59.6103ZM135.674 62.6725C134.966 61.7902 133.495 61.3653 131.381 61.4037C130.88 61.4037 130.394 61.4565 130.112 61.4973C130.071 62.6124 130.071 63.8068 130.071 64.8307C130.071 65.6241 130.071 66.3383 130.095 66.8785C130.232 66.8941 130.469 66.9145 130.469 66.9145L131.36 66.9649C133.532 66.9649 136.162 66.4584 136.162 64.1261C136.162 63.5523 135.999 63.0518 135.674 62.6725ZM125.841 59.6103C125.984 61.2968 126.065 65.5605 126.065 67.1162C126.065 68.5482 126.051 73.346 125.817 75.413V75.5763H130.322L130.295 75.413C130.152 73.9246 130.07 71.0869 130.07 68.9191C130.279 68.9287 130.88 68.9611 130.88 68.9611L131.533 68.9743C137.451 68.9743 140.356 67.4139 140.356 64.1261C140.356 60.387 136.294 59.5287 132.913 59.4591H125.841V59.6103ZM149.804 69.6729C148.759 67.1162 147.829 64.9735 147.472 64.2053C147.259 64.6936 147.031 65.2079 146.793 65.746C146.263 66.9449 145.68 68.262 145.093 69.6729C145.434 69.6801 147.472 69.7065 147.472 69.7065L149.441 69.6801C149.441 69.6801 149.643 69.6801 149.804 69.6729ZM146.377 59.4591H146.318L146.287 59.5395C145.448 61.8334 140.049 73.5765 139.194 75.3746L139.123 75.5763H142.957L142.989 75.4875C143.326 74.3819 143.78 73.136 144.274 71.806C144.427 71.806 147.472 71.7603 147.472 71.7603L150.12 71.7796C150.12 71.7796 150.546 71.806 150.674 71.806C150.806 72.1404 150.931 72.4589 151.05 72.76L151.055 72.7719L151.056 72.7741L151.056 72.7751C151.55 74.0261 151.924 74.9744 152.107 75.5079L152.151 75.5763H156.593L149.417 59.4591H149.328H146.377ZM158.593 67.1162C158.593 65.5617 158.528 61.2968 158.399 59.6103L158.386 59.4591H165.435C168.845 59.5311 172.885 60.4146 172.885 64.1261C172.885 66.2459 171.686 67.6287 169.205 68.3705C169.264 68.4342 169.322 68.4906 169.322 68.4906C170.662 70.4652 173.812 75.0877 174.01 75.359L174.13 75.5763H169.292L169.264 75.5079C168.271 73.5933 165.867 69.5469 164.259 67.2098L164.086 66.9145L164.401 66.9673C164.401 66.9673 164.806 67.0381 165.35 67.0153C166.975 66.9313 168.718 65.9878 168.718 64.1249C168.718 63.5643 168.568 63.053 168.236 62.6725C167.545 61.7962 166.063 61.3653 163.968 61.4037C163.709 61.4037 163.36 61.4319 163.056 61.4565C162.944 61.4655 162.839 61.4741 162.746 61.4805C162.636 63.4995 162.6 65.9962 162.6 67.1162C162.6 68.5494 162.616 73.3304 162.856 75.413L162.875 75.5763H158.347V75.413C158.593 73.3448 158.593 68.5494 158.593 67.1162ZM180.532 59.4591H176.221L176.245 59.6103C176.356 61.2968 176.442 65.5617 176.442 67.1162C176.442 68.5422 176.423 73.3304 176.22 75.413L176.203 75.5763H180.673L180.65 75.413C180.478 73.3304 180.425 68.5422 180.425 67.1162C180.425 65.5617 180.534 61.2968 180.65 59.6103V59.4591H180.532ZM194.859 63.6075C194.859 61.9066 193.711 61.2716 190.553 61.2452V61.2464C190.01 61.2464 189.418 61.292 189.077 61.3665C188.988 63.4983 188.948 65.995 188.948 67.1162C188.948 68.0837 188.948 71.2958 189.077 73.6701C189.605 73.6869 190.448 73.6869 190.948 73.6869C194.066 73.6869 195.644 72.7686 195.644 70.9897C195.644 70.464 195.464 69.9478 195.087 69.5193C194.315 68.5782 192.824 68.0356 191.087 68.0837H190.218L191.089 65.8102H191.161C192.642 65.9038 193.857 65.5317 194.427 64.8115C194.715 64.4934 194.859 64.0769 194.859 63.6075ZM184.749 59.6103C184.878 61.2968 184.956 65.5605 184.956 67.115C184.956 68.5482 184.956 73.3448 184.73 75.413L184.693 75.5751H192.224C195.906 75.5751 199.827 74.4299 199.827 71.1578C199.827 69.1112 198.336 67.5975 195.53 66.7693C197.598 66.2171 198.989 64.8127 198.989 63.2042C198.989 60.5334 195.906 59.5287 193.04 59.4591H184.73L184.749 59.6103ZM211.371 69.6561C210.325 67.0934 209.401 64.9471 209.04 64.1969C208.215 66.0011 207.425 67.8211 206.672 69.6561C206.978 69.6561 209.04 69.6993 209.04 69.6993L211.017 69.6729C211.017 69.6729 211.212 69.6561 211.371 69.6561ZM210.9 59.4591H207.873L207.854 59.5311C206.95 61.9714 201.246 74.3339 200.767 75.359L200.683 75.5751H204.536L204.561 75.479C204.882 74.3747 205.33 73.136 205.831 71.7796C205.954 71.7796 209.015 71.7315 209.015 71.7315L211.669 71.7736L212.232 71.7796C212.928 73.5117 213.445 74.8285 213.67 75.4803L213.711 75.5763H218.17L210.998 59.4591H210.9Z" fill="black"/>
<defs>
<linearGradient id="paint0_linear_1060_43678" x1="54.9736" y1="40.7515" x2="54.9736" y2="94.6351" gradientUnits="userSpaceOnUse">
<stop stop-color="#007348"/>
<stop offset="0.6" stop-color="#8DC9AB"/>
<stop offset="1" stop-color="#00925B"/>
</linearGradient>
<linearGradient id="paint1_linear_1060_43678" x1="58.1227" y1="29.3265" x2="58.1227" y2="89.8768" gradientUnits="userSpaceOnUse">
<stop stop-color="#00925B"/>
<stop offset="0.3" stop-color="#8DC9AB"/>
<stop offset="0.55" stop-color="#00925B"/>
<stop offset="0.835" stop-color="#007348"/>
<stop offset="1" stop-color="#009C6D"/>
</linearGradient>
<linearGradient id="paint2_linear_1060_43678" x1="13.8805" y1="86.5331" x2="13.8805" y2="47.3499" gradientUnits="userSpaceOnUse">
<stop stop-color="#00A678"/>
<stop offset="1" stop-color="#00925B"/>
</linearGradient>
<linearGradient id="paint3_linear_1060_43678" x1="-3.5808" y1="86.5354" x2="-3.5808" y2="47.3404" gradientUnits="userSpaceOnUse">
<stop stop-color="#00A678"/>
<stop offset="1" stop-color="#00925B"/>
</linearGradient>
<linearGradient id="paint4_linear_1060_43678" x1="-8.89005" y1="86.5271" x2="-8.89005" y2="47.3578" gradientUnits="userSpaceOnUse">
<stop stop-color="#00A678"/>
<stop offset="1" stop-color="#00925B"/>
</linearGradient>
<linearGradient id="paint5_linear_1060_43678" x1="-2.75231" y1="86.5319" x2="-2.75231" y2="47.3491" gradientUnits="userSpaceOnUse">
<stop stop-color="#00A678"/>
<stop offset="1" stop-color="#00925B"/>
</linearGradient>
</defs>
</svg>
