<svg width="258" height="120" viewBox="0 0 258 120" fill="none" xmlns="http://www.w3.org/2000/svg">
<path fill-rule="evenodd" clip-rule="evenodd" d="M52.8627 65.5039C52.4097 65.217 51.7268 65.1117 50.5921 65.3096L48 65.7526V71.208L50.5921 70.7575C51.7268 70.5645 52.4554 70.2127 52.8627 69.8167V69.817C53.3598 69.3742 54 68.8045 54 67.4472C54 66.0759 53.3188 65.7416 52.8627 65.5039Z" fill="#231F20"/>
<path fill-rule="evenodd" clip-rule="evenodd" d="M27.173 79.5013C26.5514 79.1485 26.1384 79.1362 25.1046 79.3462L22 79.9611V85.208L25.1046 84.5912C26.1384 84.3859 26.5512 84.1582 27.173 83.5571L27.1719 83.5561C27.7908 82.9506 28 82.1924 28 81.3873C28 80.5314 27.7911 79.8518 27.173 79.5013Z" fill="#231F20"/>
<path fill-rule="evenodd" clip-rule="evenodd" d="M26.9557 71.7384C27.7382 71.0529 28 70.3627 28 69.4506C28 68.4825 27.7382 67.8808 26.9557 67.4835C26.1748 67.082 25.6544 67.1758 24.348 67.4074L22 67.8278V73.208L24.348 72.7924C25.6544 72.5591 26.1748 72.4123 26.9557 71.7384Z" fill="#231F20"/>
<path fill-rule="evenodd" clip-rule="evenodd" d="M72.0012 69.2072L72 69.208L76 68.4796L73.9984 61.208L72.0012 69.2072Z" fill="#231F20"/>
<mask id="mask0_1060_43934" style="mask-type:alpha" maskUnits="userSpaceOnUse" x="0" y="25" width="180" height="81">
<path fill-rule="evenodd" clip-rule="evenodd" d="M0 25.3018H180V105.208H0V25.3018Z" fill="white"/>
</mask>
<g mask="url(#mask0_1060_43934)">
<path fill-rule="evenodd" clip-rule="evenodd" d="M161.908 56.0166V66.9186L160.451 67.1768L152.738 68.4999L130.87 72.2686V44.407L139.998 42.8309V63.229L152.738 61.0309V57.5957L143.041 42.3105L153.184 40.5624L157.32 49.2541L161.504 39.1301L171.64 37.3834L161.908 56.0166ZM127.76 72.8299L118.229 74.4713L109.709 60.3922C109.709 60.3922 109.91 63.388 109.91 65.4055V75.9057L100.984 77.4434V49.5768L110.924 47.8643L119.039 62.0168C119.039 62.0168 118.836 59.0209 118.836 57.0018V57.0001V46.4999L127.76 44.9653V72.8299ZM97.875 77.9913L88.7048 79.5726V79.569L80.09 81.0532L78.9938 77.3238L71 78.6976L69.944 82.7982L63.8586 83.842L60.4101 84.4355L53.3114 85.6649L48.8474 77.1428L47.669 77.3474V86.6349L38.5001 88.2159V60.3493L50.6723 58.2497C54.1197 57.6613 56.7567 57.807 58.789 58.8728C60.8168 59.9382 62.2348 62.117 62.2348 65.1463C62.2348 70.7978 58.789 73.4149 57.5713 74.3509L61.6858 80.5651L70.1468 54.8984L80.2919 53.1495L88.7053 75.787V51.7018L89.5919 51.5499L89.5914 51.5453V51.5411L97.875 50.1182V77.9913ZM33.6292 87.2355C31.8062 88.7651 28.9677 89.8576 26.3298 90.3084L9.88535 93.1257V86.5415L12.5339 86.1034V71.4057L9.88535 71.8447V65.2615L24.0976 62.8293C26.5324 62.4155 29.17 62.1603 31.1971 62.6182C33.227 63.0761 35.3359 64.7284 35.3359 67.9624C35.3359 71.1934 33.227 73.779 31.3995 74.8186L31.3979 74.8211C34.6441 75.1503 36.7602 77.2105 36.7602 80.4418C36.7602 83.6713 35.4564 85.7147 33.6292 87.2355ZM0 56.1457V105.208L180 74.5455V25.3018L0 56.1457Z" fill="#231F20"/>
</g>
</svg>
