<svg id="Warstwa_1" data-name="Warstwa 1" xmlns="http://www.w3.org/2000/svg" xmlns:xlink="http://www.w3.org/1999/xlink" viewBox="0 0 60 60"><defs><style>.cls-1{fill:none;}.cls-2{clip-path:url(#clip-path);}.cls-3{fill:#051344;}.cls-4{fill:#fdad31;}</style><clipPath id="clip-path"><rect class="cls-1" width="60" height="60"/></clipPath></defs><g class="cls-2"><polygon class="cls-3" points="52.5 45.94 7.5 45.94 7.5 47.81 52.5 47.81 52.5 45.94 52.5 45.94"/><path class="cls-3" d="M7.5,12.19V16a4.83,4.83,0,0,1,.94-.09,4.91,4.91,0,0,1,.94.09v-2H50.62V40.31H9.38V25.22a4.91,4.91,0,0,1-.94.09,4.83,4.83,0,0,1-.94-.09v17h45v-30Z"/><path class="cls-4" d="M8.44,17.81a2.82,2.82,0,1,1-2.82,2.81,2.81,2.81,0,0,1,2.82-2.81m0-1.87a4.69,4.69,0,1,0,4.68,4.68,4.69,4.69,0,0,0-4.68-4.68Z"/><path class="cls-4" d="M19.69,17.81a2.82,2.82,0,1,1-2.81,2.81,2.81,2.81,0,0,1,2.81-2.81m0-1.87a4.69,4.69,0,1,0,4.69,4.68,4.69,4.69,0,0,0-4.69-4.68Z"/><path class="cls-4" d="M30.94,17.81a2.82,2.82,0,1,1-2.82,2.81,2.81,2.81,0,0,1,2.82-2.81m0-1.87a4.69,4.69,0,1,0,4.68,4.68,4.69,4.69,0,0,0-4.68-4.68Z"/></g></svg>