<svg id="Warstwa_1" data-name="Warstwa 1" xmlns="http://www.w3.org/2000/svg" xmlns:xlink="http://www.w3.org/1999/xlink" viewBox="0 0 60 60"><defs><style>.cls-1{fill:none;}.cls-2{clip-path:url(#clip-path);}.cls-3{fill:#fdad31;}.cls-4{fill:#051344;}</style><clipPath id="clip-path"><rect class="cls-1" width="60" height="60"/></clipPath></defs><g class="cls-2"><path class="cls-3" d="M8.44,17.81a2.82,2.82,0,1,1-2.82,2.81,2.81,2.81,0,0,1,2.82-2.81m0-1.87a4.69,4.69,0,1,0,4.68,4.68,4.69,4.69,0,0,0-4.68-4.68Z"/><rect class="cls-4" x="7.5" y="45.94" width="45" height="1.88"/><path class="cls-4" d="M7.5,12.19V16a4.83,4.83,0,0,1,.94-.09,4.91,4.91,0,0,1,.94.09v-2H50.62V40.31H9.38V25.22a4.91,4.91,0,0,1-.94.09,4.83,4.83,0,0,1-.94-.09v17h45v-30Z"/><polygon class="cls-4" points="26.25 19.69 20.08 25.86 20.08 25.86 18.75 27.19 26.25 34.69 27.58 33.36 21.4 27.19 27.58 21.01 26.25 19.69"/><polygon class="cls-4" points="33.75 34.69 41.25 27.19 39.92 25.86 39.92 25.86 33.75 19.69 32.42 21.01 38.6 27.19 32.42 33.36 33.75 34.69"/></g></svg>