<svg width="258" height="120" viewBox="0 0 258 120" fill="none" xmlns="http://www.w3.org/2000/svg">
<path d="M64.2534 76.6114H57.7757C45.3838 76.6114 35.5264 66.4471 35.5264 54.306C35.5264 42.165 45.6655 32 57.7757 32H64.2534V76.6114Z" fill="black"/>
<path d="M0 32H6.4777C18.8696 32 28.7264 42.165 28.7264 54.306C28.7264 66.4471 18.5878 76.6115 6.4777 76.6115H0V32Z" fill="black"/>
<path d="M154.604 32.0077H161.341V76.6115H154.604V32.0077Z" fill="black"/>
<path d="M134.844 45.7245C126.396 45.7245 119.444 52.6933 119.444 61.1629C119.444 69.6325 126.396 76.6019 134.844 76.6019C143.292 76.6019 150.244 69.6325 150.244 61.1629C150.235 52.6972 143.289 45.7328 134.844 45.7245ZM134.844 70.4152C134.808 70.4152 134.773 70.4152 134.737 70.4152C129.643 70.4152 125.451 66.2134 125.451 61.1065C125.451 55.9997 129.643 51.7972 134.737 51.7972C134.773 51.7972 134.808 51.7972 134.844 51.7979C139.941 51.7979 144.13 55.9978 144.13 61.1072C144.126 66.2121 139.937 70.412 134.844 70.4152Z" fill="black"/>
<path d="M182.553 45.7263C179.403 45.7238 176.327 46.6961 173.748 48.51V32.0077H166.997V76.6127H173.748V73.8214C176.331 75.6276 179.406 76.5967 182.555 76.5967C191.002 76.5967 197.951 69.6292 197.951 61.1615C197.951 52.6945 191.002 45.7263 182.555 45.7263C182.555 45.7263 182.554 45.7263 182.553 45.7263ZM182.553 70.417C177.5 70.3587 173.375 66.1749 173.375 61.109C173.375 56.0425 177.5 51.8586 182.553 51.8003C187.65 51.8003 191.839 56.0002 191.839 61.1084C191.836 66.2139 187.646 70.4144 182.553 70.417Z" fill="black"/>
<path d="M93.8031 32H77.751V76.5596H93.8031C106.056 76.5596 116.026 66.5649 116.026 54.2804C116.026 41.9959 106.056 32 93.8031 32ZM93.8031 69.804H84.4893V38.7555H93.8031C102.333 38.7555 109.287 45.7276 109.287 54.2804C109.287 62.8333 102.333 69.804 93.8031 69.804Z" fill="black"/>
<path d="M222.641 45.7352L213.864 65.5189L205.087 45.7352H197.728L210.185 73.8059C210.185 73.8059 207.137 80.6838 207.131 80.6998C206.325 82.501 204.189 83.3247 202.387 82.5285L201.42 82.0955L198.699 88.2157H198.711L201.044 89.2584C205.414 91.1979 210.601 89.1982 212.55 84.8241L230 45.7301L222.641 45.7352Z" fill="black"/>
</svg>
