<svg width="215" height="100" viewBox="0 0 215 100" fill="none" xmlns="http://www.w3.org/2000/svg">
<path d="M53.5447 63.8432H48.1466C37.82 63.8432 29.6055 55.3729 29.6055 45.2554C29.6055 35.1378 38.0548 26.667 48.1466 26.667H53.5447V63.8432Z" fill="white"/>
<path d="M0 26.667H5.39808C15.7247 26.667 23.9387 35.1378 23.9387 45.2554C23.9387 55.3729 15.4899 63.8432 5.39808 63.8432H0V26.667Z" fill="white"/>
<path d="M128.836 26.6738H134.451V63.8436H128.836V26.6738Z" fill="white"/>
<path d="M112.37 38.1045C105.33 38.1045 99.5371 43.9119 99.5371 50.9698C99.5371 58.0278 105.33 63.8357 112.37 63.8357C119.41 63.8357 125.203 58.0278 125.203 50.9698C125.196 43.9151 119.408 38.1114 112.37 38.1045ZM112.37 58.6801C112.34 58.6801 112.311 58.6801 112.281 58.6801C108.036 58.6801 104.543 55.1786 104.543 50.9229C104.543 46.6672 108.036 43.1651 112.281 43.1651C112.311 43.1651 112.34 43.1651 112.37 43.1657C116.618 43.1657 120.108 46.6656 120.108 50.9234C120.105 55.1775 116.614 58.6774 112.37 58.6801Z" fill="white"/>
<path d="M152.128 38.106C149.502 38.1039 146.939 38.9141 144.79 40.4258V26.6738H139.164V63.8447H144.79V61.5186C146.943 63.0238 149.505 63.8314 152.13 63.8314C159.168 63.8314 164.96 58.0251 164.96 50.9687C164.96 43.9128 159.168 38.106 152.13 38.106C152.129 38.106 152.129 38.106 152.128 38.106ZM152.128 58.6816C147.917 58.633 144.48 55.1465 144.48 50.9249C144.48 46.7028 147.917 43.2163 152.128 43.1677C156.375 43.1677 159.866 46.6676 159.866 50.9244C159.864 55.179 156.372 58.6795 152.128 58.6816Z" fill="white"/>
<path d="M78.1692 26.667H64.7925V63.8H78.1692C88.3803 63.8 96.688 55.4711 96.688 45.234C96.688 34.9969 88.3803 26.667 78.1692 26.667ZM78.1692 58.1703H70.4078V32.2966H78.1692C85.2774 32.2966 91.0727 38.1066 91.0727 45.234C91.0727 52.3614 85.2774 58.1703 78.1692 58.1703Z" fill="white"/>
<path d="M185.534 38.1127L178.22 54.5991L170.906 38.1127H164.773L175.154 61.5049C175.154 61.5049 172.614 67.2365 172.609 67.2498C171.938 68.7508 170.157 69.4372 168.656 68.7737L167.85 68.4129L165.583 73.513H165.592L167.537 74.382C171.178 75.9982 175.501 74.3318 177.125 70.6868L191.666 38.1084L185.534 38.1127Z" fill="white"/>
</svg>
