<svg width="115" height="29" viewBox="0 0 115 29" fill="none" xmlns="http://www.w3.org/2000/svg">
<path d="M32.1272 22.3057H28.8883C22.6924 22.3057 17.7637 17.2235 17.7637 11.153C17.7637 5.08251 22.8333 0 28.8883 0H32.1272V22.3057Z" fill="black"/>
<path d="M0 0H3.23885C9.4348 0 14.3632 5.08251 14.3632 11.153C14.3632 17.2235 9.29392 22.3057 3.23885 22.3057H0V0Z" fill="black"/>
<path d="M77.3018 0.00390625H80.6703V22.3058H77.3018V0.00390625Z" fill="black"/>
<path d="M67.4226 6.8623C63.1985 6.8623 59.7227 10.3467 59.7227 14.5815C59.7227 18.8163 63.1985 22.301 67.4226 22.301C71.6466 22.301 75.1224 18.8163 75.1224 14.5815C75.118 10.3486 71.645 6.86647 67.4226 6.8623ZM67.4226 19.2077C67.4047 19.2077 67.3868 19.2077 67.3689 19.2077C64.822 19.2077 62.7261 17.1068 62.7261 14.5533C62.7261 11.9999 64.822 9.89868 67.3689 9.89868C67.3868 9.89868 67.4047 9.89868 67.4226 9.899C69.9711 9.899 72.0654 11.9989 72.0654 14.5536C72.0634 17.1061 69.9688 19.2061 67.4226 19.2077Z" fill="black"/>
<path d="M91.2762 6.86322C89.701 6.86194 88.1632 7.34809 86.8736 8.25506V0.00390625H83.498V22.3064H86.8736V20.9107C88.1651 21.8139 89.7026 22.2984 91.2775 22.2984C95.5005 22.2984 98.9755 18.8146 98.9755 14.5808C98.9755 10.3473 95.5005 6.86322 91.2775 6.86322C91.2772 6.86322 91.2768 6.86322 91.2762 6.86322ZM91.2762 19.2086C88.7497 19.1794 86.6874 17.0875 86.6874 14.5546C86.6874 12.0213 88.7497 9.92938 91.2762 9.90023C93.8247 9.90023 95.919 12.0002 95.919 14.5542C95.9177 17.107 93.8228 19.2073 91.2762 19.2086Z" fill="black"/>
<path d="M46.901 0H38.875V22.2798H46.901C53.0277 22.2798 58.0123 17.2825 58.0123 11.1402C58.0123 4.99796 53.0277 0 46.901 0ZM46.901 18.902H42.2442V3.37777H46.901C51.166 3.37777 54.6431 6.86379 54.6431 11.1402C54.6431 15.4166 51.166 18.902 46.901 18.902Z" fill="black"/>
<path d="M111.32 6.8678L106.931 16.7596L102.543 6.8678H98.8633L105.092 20.9031C105.092 20.9031 103.568 24.3421 103.565 24.3501C103.162 25.2507 102.094 25.6625 101.193 25.2644L100.709 25.0479L99.3492 28.108H99.3549L100.522 28.6294C102.707 29.5991 105.3 28.5993 106.275 26.4122L114.999 6.86523L111.32 6.8678Z" fill="black"/>
</svg>
