<svg width="215" height="100" viewBox="0 0 215 100" fill="none" xmlns="http://www.w3.org/2000/svg">
<path fill-rule="evenodd" clip-rule="evenodd" d="M47.9196 83.297C47.9881 83.3089 48.0565 83.3208 48.125 83.3319L51.6667 83.3333C51.7146 83.3044 51.7666 83.2827 51.8209 83.269C54.6938 83.0235 57.3278 82.0527 59.8202 80.658C62.7271 79.031 65.2382 76.904 67.5639 74.5461C67.7125 74.3954 67.8579 74.2416 68.0098 74.0811C68.0851 74.0014 68.162 73.9201 68.2417 73.8366C68.2642 73.8845 68.2847 73.9266 68.3034 73.9651C68.3391 74.0385 68.3685 74.0988 68.3931 74.1609C69.3327 76.5161 70.6118 78.6811 72.0653 80.7555C72.2861 81.0715 72.5611 81.2962 72.9473 81.3778C73.4646 81.4878 74.0375 81.2976 74.2785 80.9194C74.5618 80.4734 74.3813 80.1021 74.1097 79.7183C72.7264 77.7656 71.5306 75.7064 70.6479 73.4784C69.716 71.1212 69.1646 68.701 69.2993 66.1426C69.4327 63.6173 70.2181 61.3175 71.6209 59.2278C72.8953 57.3247 74.5651 55.7161 76.5174 54.5106C77.2118 54.0812 77.2195 53.2791 76.5174 52.8704C75.966 52.5489 75.4181 52.6159 74.8889 52.9707C72.6931 54.4421 70.8917 56.2974 69.4375 58.4956C69.3264 58.6689 69.1853 58.8213 69.0209 58.9457C67.8107 59.8151 66.5155 60.5606 65.1549 61.1709C61.2625 62.9272 57.1729 63.6588 52.9146 63.4168C51.6025 63.3516 50.2955 63.2077 49.0007 62.986C45.8677 62.4302 42.8472 61.3674 40.0591 59.8398C37.8841 58.6498 35.9695 57.1396 34.2625 55.3417C33.0153 54.03 31.0479 53.7894 29.4091 54.6593C27.8584 55.4828 26.9709 57.3076 27.3507 59.0328C27.5799 60.0749 27.8834 61.1031 28.2 62.123C29.4973 66.2995 31.1973 70.2887 33.6973 73.9058C35.3292 76.263 37.241 78.3554 39.5903 80.0281C41.9591 81.7146 44.5535 82.8569 47.4639 83.2255C47.6165 83.2445 47.7681 83.2708 47.9196 83.297ZM53.1491 77.42C53.1573 77.5519 53.1656 77.6839 53.1723 77.8161C53.3752 77.6243 53.5723 77.4313 53.7676 77.2401C54.1918 76.8248 54.6074 76.418 55.0549 76.05C56.5959 74.7832 58.3389 74.0482 60.3841 74.2301C61.3704 74.3152 62.3223 74.6321 63.1618 75.1546C61.0181 77.7711 58.4424 79.7702 55.2709 80.9457C52.4167 82.0057 49.4827 82.3307 46.4688 81.8218C46.6486 78.652 48.482 76.2907 51.7514 76.1378C51.9803 76.1273 52.2089 76.1308 52.4386 76.1343C52.5539 76.1361 52.6694 76.1378 52.7854 76.1378C52.9993 76.1378 53.1118 76.2021 53.1118 76.458C53.1089 76.7785 53.129 77.099 53.1491 77.42Z" fill="white"/>
<path fill-rule="evenodd" clip-rule="evenodd" d="M78.756 18.4005C78.6151 18.3782 78.4741 18.3559 78.3332 18.333L75.4137 18.3365C75.2395 18.3655 75.0651 18.394 74.8907 18.4225C74.5001 18.4863 74.1094 18.5502 73.72 18.62C71.3346 19.048 69.5207 20.2678 68.3769 22.4293C67.6318 23.8399 67.2026 25.3501 66.9373 26.9101C66.5144 29.4001 66.3922 31.9122 66.4936 34.4319C66.5623 36.1523 66.6637 37.8679 66.8221 39.5882C66.9804 41.3086 67.3616 42.9917 68.0221 44.6001C69.0151 47.0161 70.6533 48.7468 73.2512 49.4265C75.538 50.0247 77.8415 50.0274 80.1457 49.5123C81.8457 49.1313 83.2859 48.3084 84.3929 46.9538C85.3269 45.8101 85.9019 44.4839 86.313 43.0816C87.0401 40.6019 87.2783 38.049 87.3353 35.485C87.3783 33.5669 87.3158 31.6446 87.2297 29.7271C87.1545 27.8057 86.7922 25.9061 86.1547 24.0909C85.5936 22.5164 84.7832 21.1024 83.429 20.0534C82.3033 19.1794 80.9894 18.7783 79.6096 18.5405C79.3253 18.4905 79.0407 18.4455 78.756 18.4005ZM78.948 32.2419C78.9628 32.742 78.9787 33.2792 79.0019 33.8718C78.9788 34.2341 78.9547 34.6321 78.9291 35.0561C78.859 36.2132 78.7773 37.564 78.6721 38.9127C78.6179 39.647 78.4554 40.3738 78.0623 41.0182C77.8112 41.4367 77.3586 41.694 76.869 41.6966C76.3794 41.6991 75.9241 41.4465 75.6686 41.0307C75.245 40.3496 75.1089 39.5703 75.0283 38.7937C74.9096 37.6521 74.8012 36.505 74.7748 35.3585C74.7392 33.7709 74.7487 32.1842 74.8033 30.5984C74.8491 29.2915 74.9339 27.9777 75.4137 26.733C75.7901 25.7581 76.8207 25.3895 77.6797 25.9067C78.0501 26.1358 78.306 26.51 78.3846 26.937C78.5686 27.8 78.754 28.6706 78.8235 29.5473C78.8933 30.394 78.9185 31.244 78.948 32.2419Z" fill="white"/>
<path d="M0 24.9023C0.149306 24.912 0.298611 24.9293 0.447917 24.9293C5.48125 24.9293 10.5146 24.9293 15.5479 24.9293H16.016V32.8958H8.20347V36.4527L15.7792 36.3144V43.2873L8.19861 43.149V46.8511H16.0347V55.673H0V24.9023Z" fill="white"/>
<path d="M106.985 25.1781C106.801 25.8696 106.59 26.5611 106.436 27.2629C105.09 33.3935 103.735 39.5228 102.436 45.6631C102.263 46.4811 102.385 47.3606 102.374 48.2118C102.374 48.3501 102.398 48.4884 102.399 48.6267C102.41 49.9852 102.419 51.3451 102.427 52.7064C102.431 53.6918 102.427 54.6778 102.427 55.6521H92.1328C92.1328 54.6688 92.1328 53.6717 92.1328 52.6788C92.1328 52.5868 92.1481 52.4948 92.1481 52.4022C92.1626 50.4218 92.2175 48.44 92.1689 46.461C92.1474 45.5987 91.9411 44.7323 91.7578 43.8839C90.8953 39.8784 90.0196 35.8785 89.1307 31.884C88.639 29.6845 88.1015 27.4953 87.5856 25.3005C87.5599 25.1926 87.5404 25.0827 87.5161 24.9492H96.0036C96.0508 25.4436 96.0988 25.9298 96.1425 26.4159C96.4203 29.365 96.6925 32.3155 96.9758 35.2667C97.1529 37.095 97.3522 38.9219 97.5425 40.7487C97.5431 40.8179 97.5555 40.8864 97.5793 40.9513C97.621 41.0188 97.6702 41.0814 97.7258 41.138C97.7828 41.0689 97.88 41.0067 97.8897 40.9306C97.964 40.3622 98.0175 39.7911 98.0842 39.2213C98.3099 37.3052 98.5501 35.3905 98.7619 33.4731C98.9501 31.7727 99.1092 30.0696 99.2786 28.3672C99.3842 27.3044 99.4835 26.2402 99.589 25.1774C99.6045 25.0938 99.6265 25.0115 99.655 24.9313H100.079C102.243 24.9313 104.406 24.9313 106.57 24.9313C106.709 24.9313 106.848 24.914 106.983 24.9043L106.985 25.1781Z" fill="white"/>
<path fill-rule="evenodd" clip-rule="evenodd" d="M28.611 18.8972V21.8159L28.5444 21.8374C28.5282 21.8071 28.5112 21.7773 28.4942 21.7474C28.4629 21.6924 28.4316 21.6374 28.4055 21.5801C27.4763 19.5666 25.7763 18.4602 23.3458 18.5985C21.4784 18.7064 20.1527 19.6122 19.3076 21.2524C18.4388 22.9368 17.9888 24.7457 17.8888 26.6175C17.727 29.6372 17.6034 32.6603 17.5673 35.6835C17.5437 37.6694 17.6485 39.6615 17.7958 41.644C17.9256 43.3996 18.2298 45.1387 18.9597 46.7678C19.5583 48.1003 20.4326 49.1679 21.9277 49.5524C22.9624 49.8202 24.0495 49.8142 25.0812 49.5351C25.8493 49.3404 26.5307 48.897 27.018 48.2745C27.6404 47.4999 28.1138 46.6176 28.4145 45.6718C28.4554 45.5751 28.5054 45.4825 28.5638 45.3952L28.6256 45.4298V49.4314H36.5972V18.8972H28.611ZM28.7312 26.6687V32.5794C28.7312 33.1698 28.7326 33.7601 28.734 34.3505C28.7378 35.9031 28.7415 37.4557 28.7194 39.0088C28.7065 39.6165 28.6186 40.2203 28.4576 40.8066C28.3417 41.1902 28.135 41.5405 27.8548 41.8279C27.3138 42.3914 26.5103 42.296 26.1242 41.6205C25.8881 41.2097 25.6958 40.7361 25.6381 40.2721C25.4892 39.1681 25.4046 38.0564 25.3847 36.9426C25.3684 34.5464 25.3916 32.1519 25.4541 29.7589C25.4726 29.0484 25.5729 28.338 25.673 27.6287C25.7046 27.4047 25.7362 27.1808 25.7652 26.957C25.7903 26.7583 25.8722 26.5654 25.9515 26.3785C25.9577 26.3639 25.9639 26.3493 25.9701 26.3347C26.2478 25.6833 26.7985 25.3521 27.5083 25.395C28.1242 25.4326 28.4299 25.4513 28.5817 25.6138C28.7312 25.7739 28.7312 26.0736 28.7312 26.6687Z" fill="white"/>
<path d="M38.0903 24.9521H53.7153V34.5394H50.2709C50.3188 41.5835 50.366 48.6241 50.4098 55.6232H41.4514C41.4931 48.6259 41.535 41.5978 41.5771 34.5388H38.0903V24.9521Z" fill="white"/>
<path d="M56.035 24.9531H64.6801C64.6801 25.1232 64.6801 25.2712 64.6801 25.4185C64.6579 29.429 64.6204 33.4396 64.619 37.4446C64.619 40.9345 64.6662 44.4244 64.6759 47.9149C64.6808 49.5115 64.4523 51.0701 63.9058 52.5865C63.2113 54.5047 61.819 55.517 59.8537 55.7984C57.4926 56.1359 55.1586 55.8676 52.8454 55.358C52.8136 55.3491 52.783 55.3363 52.7544 55.3199C52.8773 52.0375 52.9995 48.7779 53.1183 45.5936C53.6933 45.6787 54.31 45.808 54.9322 45.8502C55.5544 45.8924 56.0093 45.557 56.1822 44.9644C56.2991 44.5685 56.3638 44.1592 56.3745 43.7467C56.3995 42.6065 56.3898 41.4648 56.3822 40.3246C56.3634 37.5262 56.3669 34.7278 56.3065 31.9301C56.2572 29.6662 56.128 27.4037 56.035 25.1412C56.035 25.0859 56.035 25.0278 56.035 24.9531Z" fill="white"/>
</svg>
