<svg width="258" height="120" viewBox="0 0 258 120" fill="none" xmlns="http://www.w3.org/2000/svg">
<path fill-rule="evenodd" clip-rule="evenodd" d="M57.5036 99.9561C57.5857 99.9703 57.6678 99.9845 57.75 99.9979L62 99.9996C62.0575 99.9649 62.1199 99.9389 62.185 99.9224C65.6325 99.6279 68.7934 98.4629 71.7842 96.7892C75.2725 94.8368 78.2859 92.2844 81.0767 89.4549C81.255 89.2741 81.4295 89.0895 81.6118 88.8968C81.7022 88.8012 81.7945 88.7037 81.89 88.6035C81.917 88.661 81.9416 88.7115 81.9641 88.7578C82.007 88.8458 82.0422 88.9182 82.0717 88.9927C83.1992 91.8189 84.7342 94.4169 86.4784 96.9062C86.7434 97.2854 87.0734 97.5551 87.5367 97.653C88.1575 97.7849 88.845 97.5568 89.1342 97.1029C89.4742 96.5677 89.2575 96.1221 88.9317 95.6616C87.2717 93.3183 85.8367 90.8472 84.7775 88.1737C83.6592 85.345 82.9975 82.4408 83.1592 79.3707C83.3192 76.3404 84.2617 73.5806 85.945 71.073C87.4744 68.7893 89.4781 66.8589 91.8209 65.4123C92.6542 64.897 92.6634 63.9345 91.8209 63.4441C91.1592 63.0583 90.5017 63.1387 89.8667 63.5644C87.2317 65.3302 85.07 67.5564 83.325 70.1943C83.1917 70.4023 83.0224 70.5852 82.825 70.7345C81.3729 71.7778 79.8186 72.6724 78.1859 73.4047C73.515 75.5123 68.6075 76.3902 63.4975 76.0997C61.923 76.0215 60.3546 75.8489 58.8009 75.5828C55.0413 74.9158 51.4167 73.6405 48.0709 71.8074C45.4609 70.3793 43.1634 68.5671 41.115 66.4097C39.6184 64.8356 37.2575 64.5469 35.2909 65.5907C33.43 66.579 32.365 68.7687 32.8209 70.839C33.0959 72.0895 33.46 73.3233 33.84 74.5472C35.3967 79.5591 37.4367 84.346 40.4367 88.6865C42.395 91.5152 44.6892 94.0261 47.5084 96.0333C50.3509 98.0571 53.4642 99.4279 56.9567 99.8702C57.1398 99.893 57.3217 99.9245 57.5036 99.9561ZM63.7789 92.9036C63.7888 93.0619 63.7987 93.2203 63.8067 93.3789C64.0502 93.1487 64.2868 92.9171 64.5211 92.6877C65.0302 92.1893 65.5289 91.7011 66.0659 91.2596C67.915 89.7395 70.0067 88.8575 72.4609 89.0757C73.6444 89.1779 74.7868 89.5581 75.7942 90.1851C73.2217 93.3249 70.1309 95.7238 66.325 97.1344C62.9 98.4064 59.3792 98.7964 55.7625 98.1857C55.9784 94.3821 58.1784 91.5484 62.1017 91.365C62.3764 91.3523 62.6507 91.3565 62.9263 91.3608C63.0646 91.3629 63.2033 91.365 63.3425 91.365C63.5992 91.365 63.7342 91.4422 63.7342 91.7492C63.7307 92.1338 63.7547 92.5184 63.7789 92.9036Z" fill="black"/>
<path fill-rule="evenodd" clip-rule="evenodd" d="M94.5073 22.081C94.3381 22.0542 94.169 22.0275 93.9998 22L90.4965 22.0041C90.2874 22.039 90.0781 22.0732 89.8689 22.1074C89.4001 22.184 88.9312 22.2606 88.464 22.3444C85.6015 22.858 83.4248 24.3217 82.0523 26.9156C81.1581 28.6083 80.6431 30.4205 80.3248 32.2925C79.8173 35.2805 79.6706 38.295 79.7923 41.3187C79.8748 43.3832 79.9965 45.4418 80.1865 47.5063C80.3765 49.5708 80.834 51.5904 81.6265 53.5205C82.8181 56.4197 84.784 58.4966 87.9015 59.3122C90.6456 60.03 93.4098 60.0333 96.1748 59.4151C98.2148 58.9579 99.9431 57.9705 101.271 56.345C102.392 54.9726 103.082 53.3811 103.576 51.6983C104.448 48.7227 104.734 45.6592 104.802 42.5824C104.854 40.2807 104.779 37.9739 104.676 35.6729C104.585 33.3672 104.151 31.0877 103.386 28.9095C102.712 27.0201 101.74 25.3232 100.115 24.0645C98.764 23.0156 97.1873 22.5344 95.5315 22.2489C95.1904 22.189 94.8489 22.135 94.5073 22.081ZM94.7376 38.6907C94.7554 39.2908 94.7745 39.9355 94.8023 40.6466C94.7746 41.0814 94.7457 41.5589 94.7149 42.0677C94.6308 43.4562 94.5327 45.0773 94.4065 46.6956C94.3415 47.5768 94.1465 48.4489 93.6748 49.2223C93.3735 49.7245 92.8303 50.0332 92.2428 50.0363C91.6553 50.0393 91.1089 49.7363 90.8023 49.2372C90.294 48.4199 90.1306 47.4847 90.034 46.5529C89.8915 45.1829 89.7615 43.8063 89.7298 42.4306C89.687 40.5254 89.6984 38.6214 89.764 36.7185C89.819 35.1502 89.9206 33.5736 90.4965 32.08C90.9481 30.9101 92.1848 30.4678 93.2156 31.0885C93.6601 31.3634 93.9673 31.8124 94.0615 32.3248C94.2823 33.3604 94.5048 34.4051 94.5881 35.4572C94.672 36.4732 94.7022 37.4932 94.7376 38.6907Z" fill="black"/>
<path d="M0 29.8828C0.179167 29.8944 0.358333 29.9152 0.5375 29.9152C6.5775 29.9152 12.6175 29.9152 18.6575 29.9152H19.2192V39.4749H9.84417V43.7433L18.935 43.5773V51.9447L9.83833 51.7788V56.2214H19.2417V66.8076H0V29.8828Z" fill="black"/>
<path d="M128.382 30.2143C128.161 31.0441 127.907 31.8739 127.722 32.7161C126.107 40.0728 124.482 47.4279 122.923 54.7963C122.716 55.7779 122.862 56.8333 122.849 57.8548C122.849 58.0207 122.877 58.1867 122.878 58.3526C122.892 59.9829 122.903 61.6147 122.912 63.2483C122.917 64.4307 122.912 65.614 122.912 66.7831H110.559C110.559 65.6032 110.559 64.4066 110.559 63.2151C110.559 63.1047 110.577 62.9944 110.577 62.8832C110.595 60.5067 110.661 58.1286 110.602 55.7538C110.577 54.7191 110.329 53.6794 110.109 52.6613C109.074 47.8547 108.023 43.0547 106.957 38.2614C106.367 35.6219 105.722 32.9949 105.102 30.3612C105.072 30.2318 105.048 30.0998 105.019 29.9397H115.204C115.261 30.533 115.318 31.1163 115.371 31.6996C115.704 35.2386 116.031 38.7792 116.371 42.3207C116.583 44.5146 116.822 46.7068 117.051 48.8991C117.051 48.982 117.066 49.0643 117.095 49.1422C117.145 49.2232 117.204 49.2983 117.271 49.3662C117.339 49.2833 117.456 49.2086 117.467 49.1173C117.557 48.4352 117.621 47.7498 117.701 47.0661C117.972 44.7668 118.26 42.4692 118.514 40.1682C118.74 38.1278 118.931 36.0841 119.134 34.0412C119.261 32.7659 119.38 31.4889 119.507 30.2135C119.525 30.1131 119.552 30.0143 119.586 29.9181H120.094C122.691 29.9181 125.287 29.9181 127.884 29.9181C128.051 29.9181 128.217 29.8974 128.379 29.8857L128.382 30.2143Z" fill="black"/>
<path fill-rule="evenodd" clip-rule="evenodd" d="M34.3331 22.677V26.1795L34.2531 26.2052C34.2338 26.169 34.2133 26.1331 34.1929 26.0972C34.1554 26.0313 34.1178 25.9653 34.0865 25.8966C32.9715 23.4803 30.9315 22.1526 28.0148 22.3186C25.774 22.448 24.1831 23.535 23.169 25.5032C22.1265 27.5246 21.5865 29.6952 21.4665 31.9414C21.2723 35.565 21.124 39.1928 21.0806 42.8205C21.0523 45.2036 21.1781 47.5942 21.3548 49.9731C21.5106 52.0799 21.8756 54.1668 22.7515 56.1217C23.4698 57.7207 24.519 59.0019 26.3131 59.4632C27.5548 59.7846 28.8593 59.7775 30.0973 59.4425C31.0191 59.2089 31.8367 58.6768 32.4215 57.9298C33.1684 57.0003 33.7365 55.9415 34.0973 54.8066C34.1464 54.6905 34.2064 54.5794 34.2765 54.4746L34.3506 54.5161V59.318H43.9165V22.677H34.3331ZM34.4773 32.0028V39.0957C34.4773 39.8041 34.479 40.5126 34.4807 41.2211C34.4852 43.0841 34.4897 44.9473 34.4631 46.8109C34.4477 47.5401 34.3422 48.2647 34.149 48.9683C34.01 49.4286 33.7619 49.849 33.4256 50.1939C32.7765 50.8701 31.8123 50.7556 31.349 49.9449C31.0656 49.4521 30.8348 48.8837 30.7656 48.3269C30.5869 47.0021 30.4854 45.6681 30.4615 44.3315C30.442 41.4561 30.4698 38.5826 30.5448 35.7111C30.567 34.8585 30.6873 34.006 30.8075 33.1549C30.8454 32.886 30.8833 32.6173 30.9181 32.3488C30.9483 32.1103 31.0465 31.8789 31.1417 31.6546C31.1492 31.6371 31.1566 31.6195 31.164 31.602C31.4973 30.8204 32.1581 30.4229 33.0098 30.4744C33.749 30.5195 34.1158 30.5419 34.2979 30.7369C34.4773 30.929 34.4773 31.2887 34.4773 32.0028Z" fill="black"/>
<path d="M45.7085 29.9424H64.4585V41.4471H60.3252C60.3827 49.9 60.4393 58.3487 60.4918 66.7476H49.7418C49.7918 58.3509 49.8421 49.9172 49.8927 41.4463H45.7085V29.9424Z" fill="black"/>
<path d="M67.2418 29.9443H77.616C77.616 30.1485 77.616 30.326 77.616 30.5028C77.5893 35.3154 77.5443 40.1281 77.5427 44.9341C77.5427 49.122 77.5993 53.3098 77.611 57.4985C77.6168 59.4144 77.3427 61.2847 76.6868 63.1044C75.8535 65.4062 74.1827 66.621 71.8243 66.9587C68.991 67.3636 66.1902 67.0417 63.4143 66.4301C63.3762 66.4195 63.3395 66.4042 63.3052 66.3845C63.4527 62.4456 63.5993 58.534 63.7418 54.713C64.4318 54.815 65.1718 54.9702 65.9185 55.0208C66.6652 55.0714 67.211 54.669 67.4185 53.9579C67.5589 53.4828 67.6365 52.9916 67.6493 52.4966C67.6793 51.1284 67.6677 49.7584 67.6585 48.3901C67.636 45.032 67.6402 41.674 67.5677 38.3167C67.5085 35.6 67.3535 32.885 67.2418 30.17C67.2418 30.1037 67.2418 30.034 67.2418 29.9443Z" fill="black"/>
</svg>
