<svg width="215" height="100" viewBox="0 0 215 100" fill="none" xmlns="http://www.w3.org/2000/svg">
<g clip-path="url(#clip0_1060_47182)">
<path d="M41.4212 91.6667C40.0421 90.2421 38.6893 88.7911 37.2623 87.4168C37.0038 87.1678 36.4435 87.1702 36.0221 87.1678C32.6318 87.1487 29.2415 87.1678 25.8535 87.1535C22.6691 87.1367 20.6412 85.0992 20.6364 81.8956C20.6244 75.0359 20.6244 68.1763 20.6412 61.3167C20.6484 58.1514 22.6356 56.145 25.7913 56.133C32.6102 56.1115 39.4316 56.1115 46.2505 56.1282C49.423 56.1354 51.4485 58.1993 51.4533 61.3933C51.4653 68.2529 51.4677 75.1126 51.4581 81.9722C51.4533 85.0489 49.3631 87.1247 46.2745 87.1582C45.1587 87.1702 44.0382 87.1966 42.9248 87.1463C42.1204 87.108 41.8857 87.4384 41.9121 88.1998C41.9552 89.3538 41.9097 90.5126 41.9025 91.6691H41.4236L41.4212 91.6667Z" fill="white"/>
<path d="M-4.71137e-05 28.6964C1.00556 26.0962 2.9593 25.2558 5.65288 25.3133C10.8341 25.4234 16.0202 25.3396 21.2062 25.3444C24.4624 25.3492 26.1384 27.0252 26.1408 30.279C26.1456 35.8218 26.1504 41.3646 26.1408 46.9098C26.1361 49.9817 24.484 51.6385 21.4193 51.6457C17.8302 51.6553 14.2412 51.6888 10.6522 51.6266C9.44304 51.605 8.49251 51.878 7.71436 52.8381C6.84763 53.9059 5.90188 54.9115 4.99205 55.9435L4.54911 55.649V51.6816C2.10214 51.6984 0.828378 50.2953 -0.00244141 48.3296V28.6964H-4.71137e-05ZM7.29057 41.7453C7.20198 43.4524 7.92745 44.9297 9.33769 45.7749C11.6338 47.1492 14.064 47.4174 16.5469 46.3376C19.4991 45.0542 20.0043 41.1467 17.4136 39.2098C16.3817 38.4388 15.1055 37.9911 13.9276 37.4212C13.2835 37.11 12.57 36.928 11.969 36.5545C11.0376 35.9775 11.0161 34.7588 11.8541 34.141C13.0608 33.2551 14.7153 33.7029 15.3593 35.058C15.4934 35.3406 15.7783 35.7308 16.0202 35.75C16.9922 35.829 17.9739 35.7835 18.946 35.7835C18.9604 34.0141 18.3666 32.7883 17.0904 31.9718C14.8877 30.564 12.5532 30.6023 10.2308 31.5839C8.7463 32.2112 7.76943 33.3318 7.66408 35.0389C7.56113 36.7269 8.35364 37.9695 9.7136 38.8362C10.4798 39.3247 11.3465 39.6599 12.1797 40.0334C12.9411 40.3758 13.7384 40.6439 14.4878 41.0127C15.2492 41.3886 15.7161 42.126 15.3593 42.873C15.1079 43.3998 14.3897 43.9385 13.8078 44.0295C11.993 44.3168 11.3274 43.7661 10.6426 41.7405H7.29057V41.7453Z" fill="white"/>
<path d="M77.5751 75.1453C76.5959 77.2978 74.9151 78.1406 72.5854 77.9754C71.0794 77.87 69.5567 78.0089 68.0459 77.9371C67.0115 77.8892 66.2166 78.1478 65.5366 78.9666C64.9692 79.649 64.2557 80.2117 63.3076 80.7193C63.3076 80.1015 63.286 79.4814 63.3124 78.8637C63.3435 78.1933 63.0442 77.9227 62.3882 77.9538C61.9524 77.9754 61.5118 77.961 61.0737 77.9347C59.2708 77.8341 57.8486 76.6801 57.5876 74.9035C57.4032 73.6513 57.4344 72.3656 57.4272 71.0918C57.408 68.1827 57.4128 65.2761 57.4272 62.367C57.4463 59.1611 58.8494 57.7604 62.0338 57.7556C65.5007 57.7484 68.9701 57.8442 72.4322 57.7221C74.7858 57.6407 76.5504 58.3398 77.5751 60.5378V75.143V75.1453Z" fill="white"/>
<path d="M56.7471 54.2124C56.7471 53.1062 56.692 51.9953 56.7638 50.8915C56.8285 49.8979 56.4789 49.5842 55.4805 49.5914C49.818 49.6297 44.1483 49.4526 38.4906 49.6537C33.7618 49.8213 30.7786 46.5459 30.8504 42.0494C30.994 33.1163 30.8863 24.1808 30.9102 15.2477C30.9198 11.8047 32.7634 9.3434 35.9095 8.51258C36.4387 8.37371 37.0109 8.34498 37.5616 8.34498C46.7748 8.33301 55.9881 8.33301 65.2037 8.33301C69.0944 8.33301 71.8287 11.0122 71.8766 14.9317C71.9197 18.2813 71.8886 21.6333 71.8886 24.9829C71.8886 30.8058 71.8981 36.6287 71.891 42.4517C71.8862 46.9745 69.274 49.7159 64.7895 49.5627C62.6897 49.4909 61.131 50.0152 59.8213 51.6457C59.0145 52.6489 57.9873 53.4774 57.0583 54.3848L56.7447 54.2124H56.7471Z" fill="white"/>
</g>
<defs>
<clipPath id="clip0_1060_47182">
<rect width="77.5751" height="83.3333" fill="white" transform="translate(0 8.33301)"/>
</clipPath>
</defs>
</svg>
