<svg width="258" height="120" viewBox="0 0 258 120" fill="none" xmlns="http://www.w3.org/2000/svg">
<g clip-path="url(#clip0_1060_47190)">
<path d="M49.7054 110C48.0504 108.291 46.4271 106.55 44.7147 104.901C44.4044 104.602 43.7321 104.605 43.2264 104.602C39.158 104.579 35.0897 104.602 31.0242 104.585C27.2029 104.564 24.7693 102.119 24.7636 98.2751C24.7492 90.0435 24.7492 81.812 24.7693 73.5804C24.7779 69.7821 27.1626 67.3744 30.9495 67.36C39.1322 67.3342 47.3178 67.3342 55.5005 67.3543C59.3074 67.3629 61.7381 69.8396 61.7439 73.6723C61.7582 81.9039 61.7611 90.1355 61.7496 98.367C61.7439 102.059 59.2356 104.55 55.5293 104.59C54.1904 104.605 52.8457 104.636 51.5097 104.576C50.5443 104.53 50.2628 104.926 50.2944 105.84C50.3461 107.225 50.2915 108.616 50.2829 110.003H49.7082L49.7054 110Z" fill="#494D9F"/>
<path d="M-5.65366e-05 34.4361C1.20667 31.3158 3.55116 30.3074 6.78345 30.3763C13.001 30.5085 19.2242 30.4079 25.4474 30.4137C29.3549 30.4194 31.3661 32.4306 31.369 36.3352C31.3748 42.9866 31.3805 49.6379 31.369 56.2921C31.3633 59.9784 29.3808 61.9666 25.7032 61.9752C21.3963 61.9867 17.0894 62.027 12.7826 61.9523C11.3317 61.9264 10.191 62.2539 9.25724 63.4061C8.21716 64.6875 7.08226 65.8942 5.99046 67.1325L5.45893 66.7791V62.0183C2.52257 62.0384 0.994054 60.3548 -0.00292969 57.9959V34.4361H-5.65366e-05ZM8.74869 50.0948C8.64238 52.1433 9.51295 53.9161 11.2052 54.9303C13.9606 56.5795 16.8768 56.9013 19.8563 55.6055C23.3989 54.0655 24.0051 49.3765 20.8964 47.0521C19.658 46.1269 18.1267 45.5897 16.7131 44.9058C15.9402 44.5323 15.084 44.314 14.3628 43.8658C13.2452 43.1733 13.2193 41.7109 14.2249 40.9696C15.673 39.9066 17.6583 40.4438 18.4312 42.07C18.5921 42.4091 18.934 42.8774 19.2242 42.9004C20.3907 42.9952 21.5687 42.9406 22.7352 42.9406C22.7524 40.8174 22.0399 39.3463 20.5085 38.3666C17.8652 36.6771 15.0639 36.7231 12.2769 37.9011C10.4956 38.6539 9.32332 39.9985 9.1969 42.0471C9.07335 44.0726 10.0244 45.5638 11.6563 46.6039C12.5757 47.19 13.6158 47.5922 14.6157 48.0405C15.5293 48.4513 16.4861 48.7731 17.3854 49.2156C18.299 49.6667 18.8593 50.5516 18.4312 51.448C18.1295 52.0801 17.2676 52.7266 16.5694 52.8357C14.3916 53.1805 13.5928 52.5197 12.7711 50.089H8.74869V50.0948Z" fill="#494D9F"/>
<path d="M93.0902 90.1752C91.9151 92.7582 89.8981 93.7695 87.1025 93.5713C85.2953 93.4448 83.468 93.6115 81.655 93.5253C80.4138 93.4678 79.46 93.7781 78.644 94.7608C77.963 95.5796 77.1068 96.2548 75.9691 96.8639C75.9691 96.1226 75.9432 95.3785 75.9748 94.6372C76.0122 93.8327 75.653 93.5081 74.8658 93.5454C74.3429 93.5713 73.8142 93.554 73.2884 93.5224C71.1249 93.4018 69.4183 92.0169 69.1051 89.885C68.8839 88.3824 68.9212 86.8395 68.9126 85.311C68.8896 81.8201 68.8954 78.3321 68.9126 74.8412C68.9356 70.9941 70.6193 69.3133 74.4406 69.3075C78.6009 69.2989 82.7641 69.4138 86.9186 69.2673C89.743 69.1696 91.8605 70.0086 93.0902 72.6461V90.1723V90.1752Z" fill="#494D9F"/>
<path d="M68.0966 65.0553C68.0966 63.7279 68.0305 62.3947 68.1167 61.0702C68.1943 59.8779 67.7748 59.5015 66.5767 59.5101C59.7817 59.5561 52.978 59.3435 46.1888 59.5848C40.5143 59.7859 36.9344 55.8555 37.0206 50.4597C37.193 39.74 37.0637 29.0174 37.0924 18.2977C37.1039 14.1661 39.3162 11.2125 43.0915 10.2155C43.7265 10.0488 44.4132 10.0144 45.074 10.0144C56.1299 10 67.1858 10 78.2445 10C82.9134 10 86.1945 13.2151 86.252 17.9184C86.3037 21.9379 86.2664 25.9603 86.2664 29.9799C86.2664 36.9674 86.2779 43.9549 86.2692 50.9424C86.2635 56.3698 83.1289 59.6595 77.7475 59.4756C75.2277 59.3894 73.3573 60.0187 71.7857 61.9753C70.8174 63.1791 69.5849 64.1732 68.4701 65.2622L68.0937 65.0553H68.0966Z" fill="#494D9F"/>
</g>
<defs>
<clipPath id="clip0_1060_47190">
<rect width="93.0901" height="100" fill="white" transform="translate(0 10)"/>
</clipPath>
</defs>
</svg>
