<svg width="258" height="120" viewBox="0 0 258 120" fill="none" xmlns="http://www.w3.org/2000/svg">
<path fill-rule="evenodd" clip-rule="evenodd" d="M96.833 46.4875V43.0903H90.3154V49.4823H93.5639C93.3517 50.5165 92.6869 51.6568 91.436 52.9161L93.298 54.6899C94.8862 53.0839 95.8277 51.8335 96.4018 50.1044C96.7805 48.9641 96.8354 47.5411 96.833 46.4875Z" fill="black"/>
<path fill-rule="evenodd" clip-rule="evenodd" d="M22.9376 66.6283V69.2129H7.65751C8.17435 73.505 10.7135 74.5662 12.9701 74.5662C15.7913 74.5662 17.0135 73.4593 17.6718 71.8436L22.7493 73.8746C21.2918 77.5662 17.9067 79.5966 12.7349 79.5966C5.54148 79.5966 1.26318 74.9815 1.26318 67.4133C1.26318 60.8597 5.21264 55.7832 12.5466 55.7832C19.035 55.7832 22.9376 60.5366 22.9376 66.6283ZM7.7515 65.1517H17.2487C17.1544 62.6136 15.3678 60.7214 12.7349 60.7214C9.91438 60.7214 8.26835 62.4288 7.7515 65.1517Z" fill="black"/>
<path fill-rule="evenodd" clip-rule="evenodd" d="M46.9155 79.2276H40.5683V65.1517C40.5683 62.2905 39.5337 60.9062 37.1363 60.9062C35.3026 60.9062 34.0331 61.5058 32.8106 62.5213V79.2276H26.4634V56.1523H32.5754V57.8597C34.6443 56.4756 36.666 55.7832 38.7817 55.7832C40.8503 55.7832 43.06 56.5219 44.4706 58.7366C46.2103 56.9833 48.7961 55.7832 52.1341 55.7832C56.2247 55.7832 61.0201 57.5372 61.0201 64.8749V79.2276H54.6732V65.1517C54.6732 62.3368 53.6858 60.9522 51.3352 60.9522C48.6081 60.9522 46.9155 62.7984 46.9155 65.2905V79.2276Z" fill="black"/>
<path fill-rule="evenodd" clip-rule="evenodd" d="M65.0171 56.1522H70.988V57.8141C72.8688 56.4755 74.6083 55.9216 77.1471 55.9216C82.8363 55.9216 86.6443 60.1211 86.6443 67.2283C86.6443 73.9662 82.46 79.2737 74.9374 79.2737C73.762 79.2737 72.5397 79.2275 71.3643 79.0889V86.3804H65.0171V56.1522ZM71.3643 62.3367V74.2433C72.4925 74.3355 73.48 74.3355 74.9374 74.3355C78.4169 74.3355 80.2503 71.5204 80.2503 66.9512C80.2503 62.9363 78.7457 61.0904 75.5017 61.0904C73.856 61.0904 72.5397 61.4597 71.3643 62.3367Z" fill="black"/>
<path fill-rule="evenodd" clip-rule="evenodd" d="M91.4098 61.2286H88.1187V56.1521H97.757V79.2274H91.4098V61.2286Z" fill="black"/>
<path fill-rule="evenodd" clip-rule="evenodd" d="M102.685 45.9993H109.032V64.9674H111.524L117.495 56.1522H124.312L116.931 66.6747L124.736 79.2275H117.683L111.665 69.9516H109.032V79.2275H102.685V45.9993Z" fill="black"/>
</svg>
