<svg width="215" height="100" viewBox="0 0 215 100" fill="none" xmlns="http://www.w3.org/2000/svg">
<path fill-rule="evenodd" clip-rule="evenodd" d="M80.6945 38.7397V35.9087H75.2632V41.2353H77.9703C77.7934 42.0972 77.2394 43.0474 76.197 44.0968L77.7487 45.575C79.0721 44.2367 79.8567 43.1946 80.3351 41.7537C80.6507 40.8035 80.6965 39.6177 80.6945 38.7397Z" fill="white"/>
<path fill-rule="evenodd" clip-rule="evenodd" d="M19.1147 55.5234V57.6773H6.38134C6.81204 61.254 8.92801 62.1383 10.8085 62.1383C13.1595 62.1383 14.178 61.2159 14.7266 59.8695L18.9578 61.562C17.7433 64.6383 14.9223 66.3304 10.6125 66.3304C4.61798 66.3304 1.05273 62.4844 1.05273 56.1776C1.05273 50.7162 4.34394 46.4858 10.4556 46.4858C15.8626 46.4858 19.1147 50.447 19.1147 55.5234ZM6.45967 54.2929H14.374C14.2954 52.1779 12.8066 50.601 10.6125 50.601C8.26206 50.601 6.89037 52.0238 6.45967 54.2929Z" fill="white"/>
<path fill-rule="evenodd" clip-rule="evenodd" d="M39.0966 66.0228H33.8073V54.2929C33.8073 51.9086 32.9452 50.755 30.9473 50.755C29.4192 50.755 28.3614 51.2547 27.3425 52.101V66.0228H22.0532V46.7934H27.1466V48.2162C28.8706 47.0629 30.5554 46.4858 32.3185 46.4858C34.0423 46.4858 35.8838 47.1014 37.0592 48.947C38.509 47.4859 40.6638 46.4858 43.4455 46.4858C46.8543 46.4858 50.8505 47.9475 50.8505 54.0623V66.0228H45.5614V54.2929C45.5614 51.9472 44.7386 50.7934 42.7798 50.7934C40.5071 50.7934 39.0966 52.3319 39.0966 54.4086V66.0228Z" fill="white"/>
<path fill-rule="evenodd" clip-rule="evenodd" d="M54.1807 46.7937H59.1564V48.1786C60.7238 47.0631 62.1733 46.6016 64.289 46.6016C69.03 46.6016 72.2034 50.1011 72.2034 56.0238C72.2034 61.6387 68.7164 66.0616 62.4476 66.0616C61.4681 66.0616 60.4495 66.0231 59.47 65.9076V71.9838H54.1807V46.7937ZM59.47 51.9474V61.8696C60.4102 61.9465 61.2331 61.9465 62.4476 61.9465C65.3471 61.9465 66.875 59.6005 66.875 55.7929C66.875 52.4471 65.6212 50.9088 62.9178 50.9088C61.5464 50.9088 60.4495 51.2166 59.47 51.9474Z" fill="white"/>
<path fill-rule="evenodd" clip-rule="evenodd" d="M76.1748 51.0238H73.4321V46.7935H81.4641V66.0229H76.1748V51.0238Z" fill="white"/>
<path fill-rule="evenodd" clip-rule="evenodd" d="M85.5708 38.333H90.8601V54.1398H92.9363L97.9123 46.7938H103.593L97.4423 55.5626L103.946 66.0232H98.0689L93.0537 58.2932H90.8601V66.0232H85.5708V38.333Z" fill="white"/>
</svg>
