<svg width="258" height="120" viewBox="0 0 258 120" fill="none" xmlns="http://www.w3.org/2000/svg">
<g clip-path="url(#clip0_1060_47193)">
<path d="M108.742 2.84948C103.677 1.06675 97.978 0 93.5043 0C81.4097 0 70.3626 8.23129 61.1558 16.2896C61.0726 16.3636 61.0142 16.4613 60.9884 16.5696C60.9626 16.6779 60.9707 16.7915 61.0117 16.895C61.0527 16.9987 61.1244 17.0873 61.2171 17.1491C61.3098 17.2109 61.4192 17.243 61.5306 17.241C64.1206 17.1786 66.6049 17.9762 69.4832 18.8988C73.1111 20.0665 77.2196 21.3879 82.6879 21.3879C83.2645 21.3879 83.8459 21.3879 84.4274 21.3447C97.1803 20.7056 105.479 14.7135 109.078 3.53181C109.121 3.39666 109.11 3.25001 109.048 3.12274C108.985 2.99546 108.875 2.8975 108.742 2.84948ZM62.3139 16.4001L62.6214 16.1358L62.6887 16.2319L62.4148 16.4049L62.3139 16.4001ZM89.4296 6.07857C95.434 4.81297 101.553 4.16888 107.689 4.15649C106.412 7.94505 104.211 11.3555 101.284 14.0792L101.236 14.0504C97.1197 11.6711 93.1747 9.00733 89.4296 6.07857ZM88.0457 6.3861C91.9609 9.48533 96.0873 12.308 100.395 14.8336C99.2952 15.7126 98.1142 16.485 96.868 17.1401L96.5941 17.0248C92.0772 15.1027 86.9357 12.1235 81.3136 8.22649C83.4759 7.53454 85.7392 6.91947 88.0457 6.3861ZM80.0114 8.64934L80.242 8.80791C85.8401 12.7193 90.996 15.7322 95.5706 17.7648C93.3518 18.739 91.0163 19.4222 88.6223 19.7974L88.3772 19.6724C84.5763 17.5966 80.5255 14.3387 76.3354 9.98518C77.5127 9.52869 78.7476 9.08181 80.0114 8.64934ZM75.2446 10.4225C79.2426 14.6222 83.1396 17.8561 86.8299 20.0328C86.0275 20.1241 85.201 20.1914 84.3649 20.2347C78.2191 20.5422 73.7502 19.1102 69.81 17.8321C67.8337 17.126 65.7976 16.6001 63.7266 16.2608C67.3993 14.0034 71.2517 12.0523 75.2446 10.4273V10.4225ZM65.7352 13.8341C73.1784 7.71233 82.8705 1.09078 93.5043 1.09078C97.7054 1.18518 101.874 1.85617 105.892 3.08493C91.4141 3.41168 77.58 7.11649 65.7352 13.8341Z" fill="#494D9F"/>
<path d="M36.308 115.171L34.8184 114.162L33.3288 115.171L32.9636 114.902L33.4777 113.201L32.0362 112.124L32.1755 111.692L33.9775 111.649L34.5974 109.972H35.049L35.6497 111.649L37.4564 111.692L37.5958 112.124L36.1542 113.201L36.6684 114.902L36.308 115.171ZM32.8819 112.153L34.0303 113.023L33.6363 114.392L34.8376 113.58L36.0389 114.392L35.6257 113.023L36.7741 112.153L35.3325 112.12L34.852 110.764L34.3715 112.12L32.8819 112.153ZM19.6292 104.441L18.1396 103.432L16.65 104.441L16.2848 104.172L16.8182 102.476L15.3766 101.39L15.516 100.957L17.2987 100.909L17.8993 99.232H18.351L18.9661 100.909L20.7728 100.952L20.9122 101.385L19.4706 102.466L19.9848 104.162L19.6292 104.441ZM18.1396 102.831L19.3361 103.643L18.9228 102.274L20.0713 101.404L18.6297 101.37L18.1492 100.015L17.6687 101.37L16.2271 101.404L17.3804 102.274L16.9671 103.643L18.1396 102.831ZM8.07272 87.7668L6.58311 86.7578L5.0935 87.7668L4.72831 87.4977L5.24246 85.7967L3.8009 84.7204L3.94025 84.2879L5.747 84.2398L6.34765 82.5628H6.79934L7.39999 84.2398L9.20674 84.2879L9.34129 84.7155L7.89973 85.7967L8.41388 87.4977L8.07272 87.7668ZM4.64662 84.7492L5.79506 85.6141L5.38181 86.974L6.58311 86.1619L7.7796 86.974L7.36635 85.5997L8.51479 84.7348L7.07324 84.6963L6.59272 83.3413L6.1122 84.6963L4.64662 84.7492ZM1.28299 67.7821L0.917791 67.513L1.44156 65.8311L0 64.7548L0.13935 64.3223L1.9461 64.2743L2.54675 62.6021H2.99844L3.59909 64.2743L5.40584 64.3223L5.54519 64.7548L4.10363 65.8311L4.61779 67.5322L4.25259 67.8013L2.77259 66.7922L1.28299 67.7821ZM0.840908 64.7644L1.98935 65.6293L1.5761 67.0036L2.77259 66.1915L3.96909 67.0036L3.55584 65.6293L4.70428 64.7644L3.26272 64.7308L2.7822 63.3757L2.30169 64.7308L0.840908 64.7644ZM5.30012 48.4267L4.93493 48.1577L5.44908 46.4566L4.00753 45.3755L4.14688 44.943L5.95363 44.8997L6.56389 43.2468H7.01557L7.61622 44.919L9.42297 44.9622L9.56232 45.3947L8.12077 46.4758L8.64934 48.1529L8.28414 48.4219L6.79454 47.4129L5.30012 48.4267ZM4.85805 45.4091L6.00648 46.274L5.59324 47.6483L6.78973 46.8362L7.98622 47.6483L7.57298 46.274L8.72142 45.4091L7.27986 45.3706L6.79934 44.0156L6.31882 45.3706L4.85805 45.4091ZM16.0301 31.7431L15.6649 31.474L16.1791 29.7922L14.7375 28.7111L14.8769 28.2786L16.6836 28.2353L17.2987 26.5391H17.7504L18.351 28.2161L20.1578 28.2594L20.2971 28.6918L18.8556 29.773L19.3697 31.474L19.0045 31.7431L17.5197 30.7533L16.0301 31.7431ZM15.588 28.7255L16.7365 29.5904L16.3376 30.9647L17.5341 30.1526L18.7402 30.9647L18.327 29.5904L19.4754 28.7255L18.0339 28.687L17.5534 27.332L17.0728 28.687L15.588 28.7255ZM35.6833 20.1818L34.1937 19.1727L32.7089 20.1818L32.3437 19.9127L32.8531 18.2117L31.4115 17.1305L31.5461 16.6981L33.3528 16.6548L33.9535 14.9778H34.4051L35.0106 16.6548L36.8174 16.6981L36.9567 17.1305L35.5151 18.2117L36.0389 19.9176L35.6833 20.1818ZM34.1937 18.5913L35.395 19.4034L34.9818 18.0291L36.1302 17.1642L34.6887 17.1257L34.2081 15.7707L33.7276 17.1257L32.2861 17.1642L33.4345 18.0291L33.0213 19.4034L34.1937 18.5913ZM52.6889 16.3713L52.3237 16.1022L52.8571 14.4156L51.4155 13.3392L51.5549 12.9068L53.3616 12.8587L53.9623 11.1865H54.4139L55.0146 12.8587L56.8214 12.9068L56.9607 13.3392L55.5191 14.4156L56.0333 16.1166L55.6681 16.3857L54.1785 15.3766L52.6889 16.3713ZM52.2468 13.3537L53.3953 14.2186L52.9772 15.5929L54.1785 14.7808L55.375 15.5929L54.9617 14.2186L56.1102 13.3537L54.6686 13.32L54.1881 11.965L53.7076 13.32L52.2468 13.3537Z" fill="#494D9F"/>
<path d="M28.0143 48.4941H19.5668C17.1384 53.5358 15.8458 59.0488 15.7803 64.6444H24.1509C24.2288 59.0415 25.5483 53.5257 28.0143 48.4941Z" fill="#494D9F"/>
<path d="M38.1341 35.2793H30.0422C25.9034 38.633 22.501 42.8043 20.0474 47.5325H28.4997C30.9366 42.8945 34.2019 38.7417 38.1341 35.2793Z" fill="#494D9F"/>
<path d="M24.1509 65.6055H15.7803C15.8444 71.2002 17.1388 76.7123 19.5716 81.7509H28.0143C25.5483 76.721 24.2289 71.2068 24.1509 65.6055Z" fill="#494D9F"/>
<path d="M52.1748 28C48.0591 29.4734 44.211 31.6077 40.7817 34.3188H46.8219C48.4191 32.0609 50.2102 29.9467 52.1748 28Z" fill="#494D9F"/>
<path d="M28.4997 82.7119H20.0474C22.5011 87.4428 25.9054 91.6159 30.047 94.9699H38.1389C34.2026 91.5084 30.9354 87.3535 28.4997 82.7119Z" fill="#494D9F"/>
<path d="M29.5806 82.7119C32.1159 87.3941 35.5155 91.5535 39.5994 94.9699H46.1296C43.4942 91.1445 41.3018 87.0322 39.5946 82.7119H29.5806Z" fill="#494D9F"/>
<path d="M31.2817 95.9307C37.5454 100.607 45.0924 103.25 52.9051 103.504C47.9151 101.872 43.2831 99.3016 39.2584 95.9307H31.2817Z" fill="#494D9F"/>
<path d="M52.9002 26.7461C45.087 26.9965 37.539 29.6399 31.2769 34.3191H39.2583C43.2794 30.9455 47.9104 28.3747 52.9002 26.7461Z" fill="#494D9F"/>
<path d="M25.1118 65.6055C25.19 71.2191 26.5475 76.7409 29.0809 81.7509H39.2487C37.2832 76.5894 36.2234 71.1274 36.1157 65.6055H25.1118Z" fill="#494D9F"/>
<path d="M46.8267 95.9307H40.7817C44.2101 98.6393 48.0565 100.772 52.17 102.245C50.2088 100.299 48.4209 98.1867 46.8267 95.9307Z" fill="#494D9F"/>
<path d="M46.1296 35.2793H39.5946C35.5123 38.6942 32.1143 42.852 29.5806 47.5325H39.6138C41.3149 43.2147 43.5009 39.1039 46.1296 35.2793Z" fill="#494D9F"/>
<path d="M77.0799 34.3191C70.8177 29.6399 63.2698 26.9965 55.4565 26.7461C60.4463 28.3747 65.0773 30.9455 69.0985 34.3191H77.0799Z" fill="#494D9F"/>
<path d="M67.7245 82.7119H54.6592V94.9699H61.0549C63.7456 91.1562 65.9839 87.0426 67.7245 82.7119Z" fill="#494D9F"/>
<path d="M54.1787 24.1992C43.3411 24.2207 32.9527 28.5316 25.284 36.1895C17.6152 43.8475 13.2897 54.2298 13.2529 65.0674V65.1779C13.2529 76.0321 17.5647 86.4417 25.2398 94.1168C32.9149 101.792 43.3245 106.104 54.1787 106.104C65.0329 106.104 75.4426 101.792 83.1176 94.1168C90.7927 86.4417 95.1045 76.0321 95.1045 65.1779V65.0674C95.0702 54.229 90.7456 43.8452 83.0763 36.1867C75.407 28.5282 65.0171 24.2182 54.1787 24.1992ZM54.1787 104.484C46.3944 104.483 38.7851 102.174 32.3132 97.8488C25.8412 93.5233 20.7972 87.3759 17.8189 80.1838C14.8406 72.9918 14.0619 65.0781 15.5811 57.4435C17.1003 49.8088 20.8493 42.7961 26.354 37.2921C31.8587 31.7881 38.8718 28.0399 46.5067 26.5216C54.1415 25.0033 62.0551 25.7831 69.2468 28.7622C76.4385 31.7414 82.5853 36.7862 86.9099 43.2587C91.2346 49.7312 93.5428 57.3407 93.5428 65.125C93.5314 75.5611 89.3803 85.5663 82.0004 92.9453C74.6206 100.324 64.6148 104.474 54.1787 104.484Z" fill="#494D9F"/>
<path d="M71.2852 65.6055H54.6592V81.7509H68.1137C70.1036 76.595 71.1769 71.131 71.2852 65.6055Z" fill="#494D9F"/>
<path d="M68.0942 48.4941H54.6396V64.6444H71.2656C71.1578 59.1173 70.0845 53.6516 68.0942 48.4941Z" fill="#494D9F"/>
<path d="M78.3247 35.2793H70.2231C74.1555 38.7427 77.4222 42.8953 79.8624 47.5325H88.3099C85.8622 42.8031 82.4626 38.6313 78.3247 35.2793Z" fill="#494D9F"/>
<path d="M61.0549 35.2793H54.6592V47.5325H67.7197C65.9815 43.2032 63.7448 39.091 61.0549 35.2793Z" fill="#494D9F"/>
<path d="M53.698 102.35V95.9307H47.999C49.675 98.2592 51.5845 100.41 53.698 102.35Z" fill="#494D9F"/>
<path d="M54.6592 27.8945V34.3191H60.3582C58.6848 31.987 56.775 29.8341 54.6592 27.8945Z" fill="#494D9F"/>
<path d="M60.3582 95.9307H54.6592V102.35C56.7739 100.412 58.6836 98.2603 60.3582 95.9307Z" fill="#494D9F"/>
<path d="M84.2062 64.6444H92.5768C92.5136 59.0485 91.2209 53.535 88.7903 48.4941H80.3428C82.8132 53.5241 84.1329 59.041 84.2062 64.6444Z" fill="#494D9F"/>
<path d="M55.4565 103.504C63.269 103.249 70.8158 100.606 77.0799 95.9307H69.0985C65.0755 99.3015 60.445 101.872 55.4565 103.504Z" fill="#494D9F"/>
<path d="M80.3428 81.7509H88.7903C91.2214 76.712 92.5141 71.1999 92.5768 65.6055H84.2062C84.133 71.2074 82.8133 76.7227 80.3428 81.7509Z" fill="#494D9F"/>
<path d="M70.2231 94.9699H78.3247C82.4649 91.6158 85.8676 87.4426 88.3195 82.7119H79.8624C77.4235 87.3514 74.1567 91.5058 70.2231 94.9699Z" fill="#494D9F"/>
<path d="M47.999 34.3191H53.698V27.8945C51.5835 29.8354 49.6738 31.9882 47.999 34.3191Z" fill="#494D9F"/>
<path d="M37.0767 64.6444H53.6978V48.4941H40.2433C38.2527 53.6513 37.181 59.1174 37.0767 64.6444Z" fill="#494D9F"/>
<path d="M40.6377 47.5325H53.6982V35.2793H47.3073C44.6148 39.0902 42.3764 43.2025 40.6377 47.5325Z" fill="#494D9F"/>
<path d="M47.3073 94.9699H53.6982V82.7119H40.6377C42.3764 87.0435 44.6148 91.1573 47.3073 94.9699Z" fill="#494D9F"/>
<path d="M40.2625 81.7509H53.717V65.6055H37.0767C37.1871 71.1321 38.2653 76.5966 40.2625 81.7509Z" fill="#494D9F"/>
<path d="M78.8051 82.7119H68.7431C67.0378 87.0331 64.8452 91.1456 62.208 94.9699H68.7623C72.8535 91.5544 76.2611 87.3951 78.8051 82.7119Z" fill="#494D9F"/>
<path d="M79.2859 48.4941H69.1133C71.0742 53.6586 72.1339 59.1213 72.2463 64.6444H83.2453C83.1695 59.0301 81.8154 53.5069 79.2859 48.4941Z" fill="#494D9F"/>
<path d="M83.2453 65.6055H72.2463C72.1339 71.1269 71.0742 76.5881 69.1133 81.7509H79.2859C81.816 76.7401 83.1701 71.2183 83.2453 65.6055Z" fill="#494D9F"/>
<path d="M68.7623 35.2793H62.208C64.8434 39.103 67.0358 43.2138 68.7431 47.5325H78.8051C76.261 42.8508 72.8534 38.6931 68.7623 35.2793Z" fill="#494D9F"/>
<path d="M56.187 102.245C60.301 100.773 64.1476 98.6402 67.5753 95.9307H61.5352C59.9395 98.1869 58.15 100.3 56.187 102.245Z" fill="#494D9F"/>
<path d="M61.5352 34.3188H67.5801C64.1509 31.6077 60.3027 29.4734 56.187 28C58.1485 29.9482 59.9379 32.0623 61.5352 34.3188Z" fill="#494D9F"/>
<path fill-rule="evenodd" clip-rule="evenodd" d="M101.116 52.8571L100.467 53.006L101.212 56.2303L107.459 54.7887L106.714 51.5645L106.07 51.7134L106.651 54.2361L104.201 54.7791L103.634 52.3237L102.985 52.4726L103.557 54.9281L101.697 55.3557L101.116 52.8571ZM108.434 62.6356L108.362 61.9196L103.461 62.4338L108.117 56.9367L101.471 57.6334L101.548 58.3494L106.473 57.8304L101.798 63.3276L108.434 62.6356ZM107.636 67.5946L101.966 64.0195L101.889 68.2337H102.552L102.605 65.1968L108.28 68.7814L108.357 64.2021H107.694L107.636 67.5946ZM102.418 69.2476C101.937 69.7326 101.634 70.3659 101.558 71.0447C101.455 71.9193 101.7 72.7992 102.239 73.4955C102.778 74.1918 103.569 74.6489 104.441 74.7687C105.309 74.8678 106.18 74.6207 106.867 74.0808C107.553 73.541 107.999 72.7522 108.107 71.8856C108.195 71.2 108.061 70.5041 107.723 69.9011L106.843 69.7905C107.073 70.0698 107.244 70.3924 107.346 70.7391C107.449 71.0858 107.48 71.4496 107.439 71.8087C107.328 72.4795 106.963 73.0815 106.419 73.4892C105.875 73.897 105.194 74.0789 104.519 73.9971C103.844 73.9153 103.227 73.576 102.796 73.0501C102.365 72.5242 102.154 71.8523 102.206 71.1744C102.252 70.814 102.371 70.4667 102.555 70.1536C102.739 69.8405 102.985 69.5682 103.278 69.3533L102.418 69.2476ZM100.933 75.4414L100.775 76.143L107.021 77.5846L107.156 76.883L100.933 75.4414ZM104.388 86.157L104.614 85.4651L100.578 83.4901L105.714 82.9231L101.899 79.3961L106.315 80.2082L106.536 79.5114L99.8087 78.363L104.172 82.4234L98.2854 83.0913L104.388 86.157ZM96.9592 87.8869C97.2976 87.3008 97.8483 86.8671 98.4974 86.6756C99.1465 86.4841 99.8443 86.5494 100.447 86.858C101.049 87.1665 101.51 87.6948 101.733 88.3335C101.957 88.9722 101.927 89.6724 101.649 90.2895C101.353 90.8465 100.867 91.2794 100.28 91.51C99.9277 91.6528 99.5484 91.7152 99.1693 91.6928C98.7903 91.6703 98.421 91.5636 98.0884 91.3803C97.4839 91.0633 97.0272 90.5224 96.8162 89.8732C96.6052 89.224 96.6565 88.518 96.9592 87.9061V87.8869ZM96.3634 87.5697C95.9746 88.3488 95.9031 89.2483 96.1639 90.079C96.4246 90.9098 96.9974 91.607 97.7617 92.0241C98.449 92.3913 99.245 92.5004 100.006 92.3317C100.48 92.2211 100.925 92.0098 101.311 91.7122C101.696 91.4146 102.013 91.0375 102.24 90.6066C102.643 89.8273 102.719 88.92 102.453 88.0841C102.187 87.2483 101.599 86.5525 100.82 86.1498C100.041 85.7471 99.1335 85.6704 98.2977 85.9367C97.4619 86.203 96.7661 86.7904 96.3634 87.5697ZM96.2336 99.6596L96.6469 99.0734L92.6105 96.2431L99.7366 95.1619L94.2635 91.3178L93.8503 91.9088L97.9058 94.7487L90.7749 95.8299L96.2336 99.6596ZM88.4877 99.4674C88.7766 99.1513 89.1382 98.9104 89.5412 98.7653C89.9442 98.6203 90.3764 98.5755 90.8005 98.6349C91.2247 98.6943 91.628 98.8561 91.9756 99.1063C92.3232 99.3564 92.6047 99.6875 92.7957 100.071C92.9867 100.454 93.0816 100.878 93.072 101.306C93.0624 101.735 92.9488 102.154 92.7408 102.528C92.5329 102.903 92.2369 103.221 91.8785 103.455C91.5201 103.69 91.11 103.833 90.6836 103.874C90.3052 103.912 89.923 103.866 89.5643 103.74C89.2055 103.614 88.8789 103.41 88.6078 103.143C88.1098 102.669 87.8182 102.018 87.7958 101.33C87.7733 100.642 88.0218 99.9735 88.4877 99.4674ZM88.0071 98.9869C87.4182 99.6293 87.1015 100.475 87.1239 101.346C87.1464 102.218 87.5061 103.046 88.1273 103.658C88.6894 104.194 89.4227 104.516 90.1983 104.566C90.6844 104.59 91.1701 104.51 91.6226 104.331C92.0752 104.152 92.4841 103.878 92.8219 103.528C93.1489 103.218 93.4093 102.845 93.5872 102.432C93.765 102.018 93.8567 101.572 93.8564 101.122C93.8562 100.672 93.7642 100.226 93.5859 99.8128C93.4076 99.3994 93.1469 99.0266 92.8196 98.7174C92.4924 98.4081 92.1055 98.1688 91.6826 98.0142C91.2597 97.8596 90.8097 97.7929 90.3602 97.8181C89.9106 97.8433 89.4709 97.96 89.068 98.1609C88.6651 98.3619 88.3074 98.6429 88.0168 98.9869H88.0071ZM84.7012 105.748L82.9761 103.619L82.4139 104.071L86.4358 109.039L86.974 108.597L85.2442 106.459L85.2682 106.204L89.1508 106.834L89.91 106.219L85.3547 105.517L85.8352 101.313L85.0904 101.913L84.7012 105.748ZM81.8181 105.267L81.4577 104.715L78.6851 106.512L82.1688 111.889L84.9414 110.087L84.5714 109.558L82.3995 110.966L81.0348 108.871L83.1491 107.497L82.7887 106.939L80.6744 108.314L79.6317 106.675L81.8181 105.267ZM71.3139 116.992L71.9866 116.718L70.9055 112.36L74.6631 115.93L74.9178 110.74L77.133 114.642L77.8105 114.368L74.3604 108.472L74.0577 114.426L69.733 110.337L71.3139 116.992ZM64.2022 112.365L63.5055 112.538L64.5002 116.531C64.5829 117.065 64.8581 117.55 65.2738 117.895C65.5588 118.106 65.887 118.252 66.2348 118.321C66.5825 118.39 66.9413 118.381 67.2854 118.295C67.6294 118.209 67.9502 118.048 68.2247 117.824C68.4991 117.599 68.7205 117.317 68.8729 116.997C69.0763 116.495 69.0916 115.937 68.9161 115.425L67.9215 111.437L67.2247 111.61L68.1857 115.411C68.3335 115.809 68.3668 116.24 68.2818 116.656C68.184 116.9 68.0297 117.117 67.8315 117.29C67.6333 117.463 67.3969 117.586 67.1418 117.65C66.8866 117.714 66.62 117.716 66.3638 117.657C66.1075 117.598 65.869 117.478 65.6678 117.309C65.4033 116.982 65.2367 116.588 65.1873 116.17L64.2022 112.365ZM60.065 116.016L59.743 113.734L60.1611 113.676C60.4915 113.606 60.8353 113.633 61.1509 113.753C61.3138 113.832 61.4537 113.951 61.5572 114.099C61.6607 114.247 61.7244 114.419 61.742 114.599C61.8477 115.339 61.4008 115.824 60.5118 115.949L60.065 116.016ZM61.0837 116.454C61.5218 116.374 61.9105 116.124 62.1645 115.758C62.4185 115.393 62.5171 114.941 62.4387 114.503C62.4079 114.223 62.309 113.955 62.1507 113.722C61.9924 113.489 61.7795 113.299 61.5305 113.167C61.0349 112.961 60.4869 112.915 59.9641 113.037L58.9406 113.181L59.8295 119.515L60.5407 119.414L60.1515 116.641L60.3341 116.617L62.6309 119.121L63.4911 118.996L61.0837 116.454ZM54.5102 114.051C54.9366 114.033 55.3609 114.12 55.7467 114.302C56.1324 114.485 56.4679 114.758 56.7244 115.1C56.9809 115.441 57.1507 115.839 57.219 116.26C57.2874 116.682 57.2523 117.113 57.1169 117.518C56.9814 117.923 56.7496 118.288 56.4414 118.584C56.1332 118.879 55.7579 119.095 55.3477 119.213C54.9376 119.331 54.5049 119.347 54.0869 119.261C53.669 119.175 53.2783 118.988 52.9485 118.717C52.6517 118.479 52.4116 118.178 52.2454 117.835C52.0792 117.493 51.9911 117.118 51.9874 116.737C51.9719 116.047 52.229 115.378 52.703 114.877C53.177 114.375 53.8298 114.08 54.5198 114.056L54.5102 114.051ZM54.5102 113.378C53.6433 113.416 52.8243 113.786 52.2244 114.413C51.6244 115.04 51.2899 115.874 51.2907 116.742C51.3066 117.52 51.5977 118.268 52.1124 118.852C52.4389 119.213 52.839 119.499 53.2858 119.693C53.7326 119.886 54.2157 119.981 54.7024 119.971C55.5792 119.946 56.4099 119.573 57.0119 118.935C57.6139 118.297 57.9377 117.446 57.9122 116.569C57.8867 115.692 57.514 114.862 56.876 114.26C56.238 113.658 55.387 113.334 54.5102 113.359V113.378ZM50.6084 114.123L50.6804 113.465L47.7973 113.162L47.1294 119.519L47.8406 119.596L48.1721 116.449L50.2816 116.67L50.3489 116.012L48.2394 115.791L48.4412 113.893L50.6084 114.123Z" fill="#494D9F"/>
</g>
<defs>
<clipPath id="clip0_1060_47193">
<rect width="109.107" height="120" fill="white"/>
</clipPath>
</defs>
</svg>
