<svg width="215" height="100" viewBox="0 0 215 100" fill="none" xmlns="http://www.w3.org/2000/svg">
<g clip-path="url(#clip0_1039_11801)">
<path d="M90.6177 2.37456C86.3971 0.88896 81.648 0 77.92 0C67.8411 0 58.6351 6.85941 50.9629 13.5747C50.8935 13.6363 50.8448 13.7178 50.8233 13.808C50.8019 13.8983 50.8086 13.9929 50.8427 14.0792C50.8769 14.1655 50.9367 14.2394 51.0139 14.2909C51.0912 14.3424 51.1823 14.3692 51.2752 14.3675C53.4335 14.3155 55.5038 14.9802 57.9024 15.749C60.9256 16.7221 64.3493 17.8232 68.9062 17.8232C69.3868 17.8232 69.8713 17.8232 70.3558 17.7872C80.9833 17.2546 87.8987 12.2612 90.898 2.94318C90.934 2.83055 90.9249 2.70834 90.8726 2.60228C90.8203 2.49622 90.7289 2.41458 90.6177 2.37456ZM51.9279 13.6668L52.1842 13.4465L52.2402 13.5266L52.012 13.6708L51.9279 13.6668ZM74.5243 5.06547C79.528 4.01081 84.6271 3.47407 89.7407 3.46374C88.6764 6.62088 86.8419 9.46288 84.403 11.7327L84.3629 11.7086C80.9328 9.72589 77.6453 7.5061 74.5243 5.06547ZM73.3711 5.32175C76.6338 7.90445 80.0725 10.2567 83.6622 12.3614C82.7457 13.0939 81.7615 13.7375 80.723 14.2834L80.4947 14.1873C76.7307 12.5856 72.4461 10.1029 67.761 6.8554C69.5629 6.27878 71.449 5.76623 73.3711 5.32175ZM66.6758 7.20779L66.868 7.33993C71.5331 10.5994 75.8297 13.1102 79.6418 14.804C77.7928 15.6158 75.8466 16.1851 73.8516 16.4978L73.6474 16.3937C70.4799 14.6638 67.1043 11.9489 63.6125 8.32099C64.5936 7.94058 65.6227 7.56817 66.6758 7.20779ZM62.7035 8.68538C66.0351 12.1852 69.2826 14.8801 72.358 16.694C71.6892 16.7701 71.0005 16.8262 70.3037 16.8622C65.1822 17.1185 61.4582 15.9252 58.1747 14.8601C56.5278 14.2717 54.831 13.8334 53.1052 13.5506C56.1658 11.6695 59.3761 10.0436 62.7035 8.68939V8.68538ZM54.779 11.5285C60.9817 6.42694 69.0584 0.908982 77.92 0.908982C81.4209 0.987651 84.8944 1.54681 88.2431 2.57078C76.1781 2.84307 64.6496 5.93041 54.779 11.5285Z" fill="white"/>
<path d="M30.2567 95.9759L29.0153 95.135L27.774 95.9759L27.4697 95.7516L27.8981 94.3341L26.6968 93.4371L26.813 93.0767L28.3146 93.0407L28.8311 91.6432H29.2075L29.7081 93.0407L31.2137 93.0767L31.3298 93.4371L30.1285 94.3341L30.557 95.7516L30.2567 95.9759ZM27.4016 93.4611L28.3586 94.1859L28.0303 95.3272L29.0313 94.6504L30.0324 95.3272L29.6881 94.1859L30.6451 93.4611L29.4438 93.4331L29.0434 92.3039L28.6429 93.4331L27.4016 93.4611ZM16.3577 87.0342L15.1163 86.1933L13.875 87.0342L13.5707 86.81L14.0151 85.3964L12.8138 84.4915L12.93 84.1311L14.4156 84.091L14.9161 82.6935H15.2925L15.8051 84.091L17.3107 84.1271L17.4268 84.4875L16.2255 85.3884L16.654 86.802L16.3577 87.0342ZM15.1163 85.6928L16.1134 86.3695L15.769 85.2283L16.7261 84.5035L15.5248 84.4754L15.1243 83.3462L14.7239 84.4754L13.5226 84.5035L14.4836 85.2283L14.1393 86.3695L15.1163 85.6928ZM6.72726 73.1392L5.48592 72.2983L4.24458 73.1392L3.94025 72.915L4.36872 71.4974L3.16742 70.6005L3.28355 70.2401L4.78917 70.2L5.28971 68.8025H5.66612L6.16666 70.2L7.67228 70.2401L7.78441 70.5965L6.58311 71.4974L7.01157 72.915L6.72726 73.1392ZM3.87218 70.6245L4.82921 71.3453L4.48484 72.4785L5.48592 71.8018L6.483 72.4785L6.13863 71.3332L7.09566 70.6125L5.89436 70.5804L5.49393 69.4512L5.0935 70.5804L3.87218 70.6245ZM1.06915 56.4852L0.764826 56.261L1.2013 54.8595L0 53.9625L0.116125 53.6021L1.62175 53.562L2.12229 52.1685H2.4987L2.99924 53.562L4.50486 53.6021L4.62099 53.9625L3.41969 54.8595L3.84815 56.277L3.54383 56.5012L2.31049 55.6603L1.06915 56.4852ZM0.700757 53.9705L1.65779 54.6913L1.31342 55.8365L2.31049 55.1598L3.30757 55.8365L2.9632 54.6913L3.92023 53.9705L2.71894 53.9425L2.3185 52.8132L1.91807 53.9425L0.700757 53.9705ZM4.41677 40.3558L4.11244 40.1315L4.5409 38.714L3.33961 37.813L3.45573 37.4527L4.96136 37.4166L5.46991 36.0391H5.84631L6.34685 37.4326L7.85248 37.4687L7.9686 37.8291L6.76731 38.73L7.20778 40.1275L6.90345 40.3518L5.66211 39.5109L4.41677 40.3558ZM4.04837 37.8411L5.0054 38.5618L4.66103 39.7071L5.65811 39.0304L6.65519 39.7071L6.31081 38.5618L7.26785 37.8411L6.06655 37.809L5.66612 36.6798L5.26569 37.809L4.04837 37.8411ZM13.3584 26.4528L13.0541 26.2285L13.4826 24.827L12.2813 23.926L12.3974 23.5657L13.903 23.5296L14.4156 22.1161H14.792L15.2925 23.5136L16.7981 23.5496L16.9143 23.91L15.713 24.811L16.1414 26.2285L15.8371 26.4528L14.5998 25.6279L13.3584 26.4528ZM12.99 23.9381L13.9471 24.6588L13.6147 25.8041L14.6118 25.1273L15.6169 25.8041L15.2725 24.6588L16.2295 23.9381L15.0282 23.906L14.6278 22.7768L14.2274 23.906L12.99 23.9381ZM29.7361 16.8184L28.4948 15.9775L27.2574 16.8184L26.9531 16.5941L27.3776 15.1766L26.1763 14.2756L26.2884 13.9152L27.794 13.8792L28.2946 12.4817H28.671L29.1755 13.8792L30.6811 13.9152L30.7973 14.2756L29.596 15.1766L30.0324 16.5981L29.7361 16.8184ZM28.4948 15.4929L29.4958 16.1697L29.1515 15.0244L30.1085 14.3036L28.9072 14.2716L28.5068 13.1424L28.1063 14.2716L26.9051 14.3036L27.8621 15.0244L27.5177 16.1697L28.4948 15.4929ZM43.9074 13.6429L43.6031 13.4187L44.0476 12.0132L42.8463 11.1162L42.9624 10.7558L44.468 10.7158L44.9686 9.32227H45.345L45.8455 10.7158L47.3511 10.7558L47.4673 11.1162L46.266 12.0132L46.6944 13.4307L46.3901 13.6549L45.1487 12.814L43.9074 13.6429ZM43.539 11.1282L44.496 11.849L44.1477 12.9942L45.1487 12.3175L46.1458 12.9942L45.8015 11.849L46.7585 11.1282L45.5572 11.1002L45.1568 9.97097L44.7563 11.1002L43.539 11.1282Z" fill="white"/>
<path d="M23.3454 40.4116H16.3058C14.2822 44.613 13.205 49.2072 13.1504 53.8702H20.1259C20.1908 49.2011 21.2904 44.6046 23.3454 40.4116Z" fill="white"/>
<path d="M31.7783 29.3999H25.035C21.5861 32.1947 18.7507 35.6707 16.7061 39.6109H23.7497C25.7804 35.7459 28.5015 32.2852 31.7783 29.3999Z" fill="white"/>
<path d="M20.1259 54.6709H13.1504C13.2039 59.3332 14.2825 63.9266 16.3098 68.1254H23.3454C21.2905 63.9339 20.1909 59.3386 20.1259 54.6709Z" fill="white"/>
<path d="M43.4791 23.333C40.0493 24.5609 36.8426 26.3394 33.9849 28.5987H39.0183C40.3493 26.7171 41.8419 24.9552 43.4791 23.333Z" fill="white"/>
<path d="M23.7497 68.9263H16.7061C18.7509 72.8686 21.5878 76.3463 25.0391 79.1413H31.7823C28.5021 76.2567 25.7794 72.7942 23.7497 68.9263Z" fill="white"/>
<path d="M24.6504 68.9263C26.7632 72.8281 29.5961 76.2942 32.9994 79.1413H38.4413C36.2451 75.9535 34.4181 72.5265 32.9954 68.9263H24.6504Z" fill="white"/>
<path d="M26.0684 79.9424C31.2881 83.8394 37.5773 86.042 44.0878 86.2532C39.9295 84.8935 36.0695 82.7515 32.7155 79.9424H26.0684Z" fill="white"/>
<path d="M44.0834 22.2881C37.5724 22.4967 31.2825 24.6996 26.064 28.5989H32.7151C36.0661 25.7876 39.9253 23.6453 44.0834 22.2881Z" fill="white"/>
<path d="M20.9268 54.6709C20.9919 59.3489 22.1231 63.9504 24.2343 68.1254H32.7075C31.0696 63.8242 30.1864 59.2725 30.0967 54.6709H20.9268Z" fill="white"/>
<path d="M39.0223 79.9424H33.9849C36.8418 82.1996 40.0472 83.9767 43.4751 85.2041C41.8407 83.5829 40.3508 81.8224 39.0223 79.9424Z" fill="white"/>
<path d="M38.4413 29.3999H32.9954C29.5935 32.2457 26.7618 35.7105 24.6504 39.6109H33.0114C34.429 36.0127 36.2507 32.5871 38.4413 29.3999Z" fill="white"/>
<path d="M64.2333 28.5989C59.0149 24.6996 52.7249 22.4967 46.2139 22.2881C50.372 23.6453 54.2312 25.7876 57.5822 28.5989H64.2333Z" fill="white"/>
<path d="M56.4371 68.9263H45.5493V79.1413H50.8791C53.1214 75.9632 54.9866 72.5352 56.4371 68.9263Z" fill="white"/>
<path d="M45.1488 20.166C36.1174 20.184 27.4604 23.7763 21.0698 30.1579C14.6792 36.5396 11.0746 45.1915 11.0439 54.2228V54.3149C11.0439 63.3601 14.6371 72.0348 21.033 78.4307C27.4289 84.8265 36.1036 88.4197 45.1488 88.4197C54.1939 88.4197 62.8686 84.8265 69.2645 78.4307C75.6604 72.0348 79.2536 63.3601 79.2536 54.3149V54.2228C79.225 45.1908 75.6211 36.5377 69.2301 30.1556C62.839 23.7735 54.1808 20.1818 45.1488 20.166ZM45.1488 87.0703C38.6618 87.0695 32.3208 85.1451 26.9275 81.5406C21.5342 77.9361 17.3308 72.8132 14.8489 66.8199C12.367 60.8265 11.7181 54.2317 12.9841 47.8695C14.2501 41.5073 17.3743 35.6634 21.9615 31.0767C26.5487 26.4901 32.393 23.3666 38.7554 22.1014C45.1178 20.8361 51.7124 21.4859 57.7055 23.9685C63.6986 26.4511 68.8209 30.6551 72.4248 36.0489C76.0286 41.4426 77.9522 47.7839 77.9522 54.2708C77.9426 62.9676 74.4834 71.3053 68.3335 77.4544C62.1836 83.6035 53.8455 87.0618 45.1488 87.0703Z" fill="white"/>
<path d="M59.4043 54.6709H45.5493V68.1254H56.7614C58.4196 63.8288 59.3141 59.2755 59.4043 54.6709Z" fill="white"/>
<path d="M56.7453 40.4116H45.5332V53.8702H59.3882C59.2983 49.2642 58.4039 44.7095 56.7453 40.4116Z" fill="white"/>
<path d="M65.2703 29.3999H58.519C61.796 32.2861 64.5182 35.7466 66.5517 39.6109H73.5913C71.5516 35.6698 68.7186 32.1932 65.2703 29.3999Z" fill="white"/>
<path d="M50.8791 29.3999H45.5493V39.6109H56.4331C54.9846 36.0031 53.1207 32.5763 50.8791 29.3999Z" fill="white"/>
<path d="M44.7481 85.2922V79.9424H39.999C41.3956 81.8828 42.987 83.6754 44.7481 85.2922Z" fill="white"/>
<path d="M45.5493 23.2451V28.5989H50.2985C48.904 26.6555 47.3125 24.8614 45.5493 23.2451Z" fill="white"/>
<path d="M50.2985 79.9424H45.5493V85.2922C47.3116 83.6764 48.903 81.8837 50.2985 79.9424Z" fill="white"/>
<path d="M70.1716 53.8702H77.1472C77.0945 49.2069 76.0173 44.6123 73.9918 40.4116H66.9521C69.0108 44.6033 70.1106 49.2006 70.1716 53.8702Z" fill="white"/>
<path d="M46.2139 86.2532C52.7243 86.0412 59.0133 83.8387 64.2333 79.9424H57.5822C54.2296 82.7514 50.3709 84.8934 46.2139 86.2532Z" fill="white"/>
<path d="M66.9521 68.1254H73.9918C76.0177 63.9263 77.0949 59.3329 77.1472 54.6709H70.1716C70.1107 59.3391 69.0109 63.9352 66.9521 68.1254Z" fill="white"/>
<path d="M58.519 79.1413H65.2703C68.7205 76.3462 71.5561 72.8685 73.5993 68.9263H66.5517C64.5193 72.7925 61.797 76.2545 58.519 79.1413Z" fill="white"/>
<path d="M39.999 28.5989H44.7481V23.2451C42.9861 24.8625 41.3947 26.6565 39.999 28.5989Z" fill="white"/>
<path d="M30.8975 53.8702H44.7484V40.4116H33.5363C31.8775 44.7093 30.9844 49.2643 30.8975 53.8702Z" fill="white"/>
<path d="M33.8647 39.6109H44.7485V29.3999H39.4227C37.179 32.5757 35.3137 36.0025 33.8647 39.6109Z" fill="white"/>
<path d="M39.4227 79.1413H44.7485V68.9263H33.8647C35.3137 72.5359 37.179 75.9641 39.4227 79.1413Z" fill="white"/>
<path d="M33.5523 68.1254H44.7644V54.6709H30.8975C30.9895 59.2764 31.888 63.8302 33.5523 68.1254Z" fill="white"/>
<path d="M65.6708 68.9263H57.2857C55.8646 72.5272 54.0375 75.9544 51.8398 79.1413H57.3017C60.7111 76.295 63.5508 72.8289 65.6708 68.9263Z" fill="white"/>
<path d="M66.0714 40.4116H57.5942C59.2283 44.7153 60.1114 49.2676 60.2051 53.8702H69.371C69.3078 49.1916 68.1793 44.5889 66.0714 40.4116Z" fill="white"/>
<path d="M69.371 54.6709H60.2051C60.1114 59.2721 59.2283 63.8231 57.5942 68.1254H66.0714C68.1798 63.9497 69.3083 59.3483 69.371 54.6709Z" fill="white"/>
<path d="M57.3017 29.3999H51.8398C54.036 32.5863 55.863 36.012 57.2857 39.6109H65.6708C63.5507 35.7095 60.711 32.2448 57.3017 29.3999Z" fill="white"/>
<path d="M46.8228 85.2041C50.2511 83.9776 53.4565 82.2004 56.313 79.9424H51.2796C49.9498 81.8226 48.4586 83.5831 46.8228 85.2041Z" fill="white"/>
<path d="M51.2796 28.5987H56.317C53.4593 26.3394 50.2525 24.5609 46.8228 23.333C48.4574 24.9565 49.9485 26.7183 51.2796 28.5987Z" fill="white"/>
<path fill-rule="evenodd" clip-rule="evenodd" d="M84.263 44.0474L83.7224 44.1715L84.3431 46.8584L89.5487 45.6571L88.928 42.9702L88.3915 43.0944L88.876 45.1966L86.8338 45.6491L86.3613 43.6029L85.8207 43.727L86.2972 45.7732L84.7475 46.1296L84.263 44.0474ZM90.3616 52.1962L90.3015 51.5995L86.2171 52.028L90.0973 47.4471L84.5593 48.0277L84.6234 48.6243L88.7278 48.1919L84.8316 52.7728L90.3616 52.1962ZM89.6969 56.3286L84.9718 53.3494L84.9077 56.8612H85.4603L85.5043 54.3305L90.2335 57.3177L90.2975 53.5016H89.7449L89.6969 56.3286ZM85.3482 57.7061C84.9474 58.1103 84.6948 58.6381 84.6314 59.2038C84.546 59.9326 84.7497 60.6658 85.1989 61.2461C85.6482 61.8263 86.307 62.2073 87.034 62.3071C87.757 62.3897 88.4835 62.1837 89.0555 61.7339C89.6276 61.284 89.9991 60.6266 90.0893 59.9045C90.1628 59.3331 90.0505 58.7533 89.7689 58.2507L89.0362 58.1586C89.2275 58.3913 89.37 58.6601 89.4553 58.9491C89.5406 59.238 89.5669 59.5411 89.5327 59.8404C89.4402 60.3994 89.1355 60.9011 88.6822 61.2409C88.2288 61.5806 87.6617 61.7323 87.0993 61.6641C86.5368 61.5959 86.0224 61.3132 85.6633 60.875C85.3042 60.4367 85.1282 59.8767 85.172 59.3119C85.21 59.0115 85.3088 58.7221 85.4624 58.4612C85.6159 58.2003 85.8209 57.9734 86.0649 57.7942L85.3482 57.7061ZM84.1108 62.8677L83.9787 63.4523L89.1843 64.6536L89.2964 64.069L84.1108 62.8677ZM86.99 71.7973L87.1782 71.2207L83.8145 69.5749L88.0951 69.1024L84.9157 66.1633L88.5957 66.84L88.7799 66.2594L83.1738 65.3023L86.8098 68.686L81.9045 69.2426L86.99 71.7973ZM80.7993 73.2389C81.0812 72.7505 81.5401 72.3891 82.0811 72.2295C82.622 72.0699 83.2035 72.1243 83.7055 72.3815C84.2074 72.6386 84.5913 73.0788 84.7778 73.6111C84.9643 74.1433 84.9391 74.7269 84.7075 75.2411C84.4604 75.7053 84.0557 76.066 83.5663 76.2582C83.273 76.3772 82.9569 76.4292 82.641 76.4105C82.3252 76.3918 82.0174 76.3028 81.7403 76.1501C81.2365 75.8859 80.856 75.4352 80.6801 74.8941C80.5043 74.3531 80.547 73.7648 80.7993 73.2549V73.2389ZM80.3027 72.9746C79.9787 73.6239 79.9192 74.3734 80.1365 75.0657C80.3538 75.758 80.8311 76.339 81.468 76.6866C82.0407 76.9926 82.7041 77.0835 83.338 76.9429C83.7333 76.8508 84.1041 76.6747 84.4254 76.4267C84.7467 76.1786 85.0108 75.8644 85.2 75.5054C85.5356 74.8559 85.5995 74.0998 85.3776 73.4033C85.1557 72.7068 84.6662 72.1269 84.0167 71.7913C83.3673 71.4557 82.6112 71.3919 81.9147 71.6138C81.2182 71.8357 80.6383 72.3252 80.3027 72.9746ZM80.1946 83.0495L80.539 82.561L77.1753 80.2024L83.1138 79.3015L78.5528 76.098L78.2085 76.5905L81.5881 78.9571L75.6457 79.8581L80.1946 83.0495ZM73.7396 82.8893C73.9805 82.6259 74.2818 82.4251 74.6176 82.3043C74.9534 82.1834 75.3136 82.1461 75.667 82.1956C76.0205 82.2451 76.3566 82.3799 76.6462 82.5884C76.9359 82.7969 77.1705 83.0727 77.3297 83.3922C77.4888 83.7116 77.5679 84.065 77.5599 84.4218C77.552 84.7786 77.4572 85.1281 77.284 85.4401C77.1107 85.7521 76.864 86.0172 76.5654 86.2126C76.2667 86.4079 75.9249 86.5276 75.5696 86.5613C75.2543 86.5931 74.9358 86.555 74.6368 86.4498C74.3378 86.3446 74.0657 86.1749 73.8397 85.9526C73.4248 85.5571 73.1818 85.0144 73.1631 84.4415C73.1443 83.8685 73.3514 83.3111 73.7396 82.8893ZM73.3392 82.4889C72.8484 83.0242 72.5845 83.7292 72.6032 84.4552C72.6219 85.1813 72.9216 85.8717 73.4393 86.3811C73.9077 86.8284 74.5188 87.0964 75.1652 87.1379C75.5702 87.1583 75.975 87.0916 76.3521 86.9424C76.7292 86.7932 77.07 86.565 77.3515 86.273C77.624 86.015 77.841 85.7042 77.9892 85.3595C78.1374 85.0148 78.2138 84.6434 78.2136 84.2682C78.2134 83.893 78.1367 83.5218 77.9882 83.1772C77.8396 82.8326 77.6223 82.522 77.3496 82.2643C77.0769 82.0066 76.7545 81.8072 76.4021 81.6783C76.0497 81.5495 75.6747 81.4939 75.3001 81.5149C74.9254 81.5359 74.559 81.6331 74.2232 81.8006C73.8875 81.9681 73.5894 82.2023 73.3472 82.4889H73.3392ZM70.5842 88.123L69.1467 86.3491L68.6782 86.7255L72.0298 90.8659L72.4783 90.4975L71.0367 88.7156L71.0567 88.5034L74.2922 89.028L74.9249 88.5154L71.1288 87.9308L71.5293 84.427L70.9086 84.9275L70.5842 88.123ZM68.1816 87.7225L67.8813 87.2621L65.5708 88.7597L68.474 93.2405L70.7844 91.7389L70.4761 91.2984L68.6662 92.4717L67.5289 90.7258L69.2908 89.5806L68.9905 89.1161L67.2286 90.2613L66.3597 88.8958L68.1816 87.7225ZM59.4282 97.4931L59.9888 97.2649L59.0878 93.6329L62.2192 96.6081L62.4314 92.2835L64.2774 95.535L64.842 95.3067L61.9669 90.3934L61.7146 95.3548L58.1108 91.9471L59.4282 97.4931ZM53.5018 93.6369L52.9212 93.7811L53.75 97.1087C53.819 97.5537 54.0483 97.9582 54.3947 98.2459C54.6322 98.4217 54.9057 98.5428 55.1955 98.6005C55.4854 98.6581 55.7844 98.6509 56.0711 98.5793C56.3578 98.5077 56.6251 98.3736 56.8538 98.1865C57.0825 97.9994 57.267 97.7639 57.394 97.4971C57.5635 97.0793 57.5763 96.6142 57.43 96.1877L56.6011 92.8641L56.0205 93.0083L56.8214 96.1757C56.9445 96.5071 56.9723 96.8664 56.9015 97.2128C56.8199 97.4162 56.6913 97.5974 56.5262 97.7415C56.361 97.8856 56.164 97.9884 55.9514 98.0416C55.7388 98.0947 55.5166 98.0967 55.303 98.0473C55.0895 97.9979 54.8908 97.8985 54.7231 97.7574C54.5027 97.4852 54.3638 97.1562 54.3227 96.8084L53.5018 93.6369ZM50.0541 96.6802L49.7858 94.7782L50.1341 94.7301C50.4095 94.6716 50.696 94.6938 50.959 94.7942C51.0947 94.8595 51.2113 94.9586 51.2976 95.0821C51.3839 95.2055 51.4369 95.3491 51.4516 95.499C51.5397 96.1156 51.1673 96.5201 50.4265 96.6242L50.0541 96.6802ZM50.903 97.0446C51.2681 96.9783 51.592 96.7699 51.8037 96.4652C52.0153 96.1604 52.0975 95.7841 52.0322 95.4189C52.0065 95.1856 51.9241 94.9622 51.7921 94.7682C51.6602 94.5742 51.4828 94.4154 51.2754 94.3057C50.8623 94.1337 50.4057 94.0959 49.97 94.1975L49.117 94.3177L49.8578 99.5954L50.4505 99.5113L50.1261 97.2008L50.2783 97.1808L52.1924 99.267L52.9091 99.1629L50.903 97.0446ZM45.4251 95.0425C45.7804 95.0277 46.134 95.0994 46.4555 95.2516C46.7769 95.4038 47.0565 95.6319 47.2703 95.9162C47.484 96.2004 47.6255 96.5324 47.6824 96.8834C47.7394 97.2345 47.7102 97.5942 47.5973 97.9314C47.4844 98.2687 47.2912 98.5735 47.0344 98.8195C46.7776 99.0655 46.4648 99.2455 46.123 99.3438C45.7812 99.4421 45.4207 99.4559 45.0724 99.3839C44.7241 99.3119 44.3985 99.1564 44.1237 98.9307C43.8764 98.7321 43.6763 98.4811 43.5378 98.1958C43.3993 97.9105 43.3258 97.598 43.3228 97.2809C43.3098 96.7057 43.524 96.1486 43.9191 95.7303C44.3141 95.312 44.8581 95.0663 45.4331 95.0465L45.4251 95.0425ZM45.4251 94.4818C44.7027 94.5128 44.0202 94.8218 43.5202 95.3441C43.0203 95.8665 42.7415 96.5618 42.7422 97.2849C42.7554 97.9334 42.998 98.5562 43.4269 99.0428C43.699 99.3436 44.0324 99.5826 44.4048 99.7436C44.7771 99.9045 45.1797 99.9837 45.5852 99.9758C46.3159 99.9545 47.0082 99.6439 47.5098 99.1122C48.0115 98.5806 48.2814 97.8714 48.2601 97.1407C48.2389 96.4101 47.9283 95.7178 47.3966 95.2161C46.8649 94.7145 46.1557 94.4446 45.4251 94.4658V94.4818ZM42.1735 95.1025L42.2336 94.5539L39.831 94.3017L39.2744 99.5994L39.8671 99.6634L40.1434 97.0406L41.9013 97.2248L41.9573 96.6762L40.1994 96.492L40.3676 94.9103L42.1735 95.1025Z" fill="white"/>
</g>
<defs>
<clipPath id="clip0_1039_11801">
<rect width="90.9222" height="100" fill="white"/>
</clipPath>
</defs>
</svg>
