<?xml version="1.0" encoding="UTF-8"?>
<svg id="Warstwa_1" data-name="Warstwa 1" xmlns="http://www.w3.org/2000/svg" xmlns:xlink="http://www.w3.org/1999/xlink" viewBox="0 0 60 60">
  <defs>
    <style>
      .cls-1 {
        fill: none;
      }

      .cls-2 {
        clip-path: url(#clippath);
      }

      .cls-3 {
        fill: #fdad31;
      }

      .cls-4 {
        fill: #051344;
      }
    </style>
    <clipPath id="clippath">
      <rect class="cls-1" width="60" height="60"/>
    </clipPath>
  </defs>
  <g class="cls-2">
    <g>
      <path class="cls-4" d="M36.73,41.5l-11.43-17.88c-.03-1.54-.35-3.02-.89-4.38-.45,.46-1,.81-1.61,1.05,.4,1.13,.63,2.34,.63,3.61,0,5.94-4.84,10.78-10.78,10.78-2.5,0-4.8-.86-6.63-2.29l12.53-12.53c-.53-.34-.99-.79-1.34-1.31L4.65,31.12c-1.73-1.91-2.78-4.44-2.78-7.22,0-5.94,4.84-10.78,10.78-10.78,1.48,0,2.9,.3,4.19,.85,.27-.59,.67-1.12,1.15-1.54-1.62-.76-3.43-1.18-5.34-1.18C5.67,11.25,0,16.92,0,23.91s5.51,12.5,12.37,12.65l17.88,11.43c.74,.48,1.62,.77,2.57,.77,2.59,0,4.69-2.1,4.69-4.69,0-.95-.28-1.83-.77-2.57Zm-3.92,5.38c-.55,0-1.08-.16-1.54-.46h-.02l-15.86-10.15h0c4.79-1.06,8.56-4.83,9.62-9.62l10.14,15.86h0v.02c.31,.46,.47,.99,.47,1.54,0,1.55-1.26,2.81-2.81,2.81Z"/>
      <path class="cls-3" d="M21.09,13.12c1.55,0,2.81,1.26,2.81,2.81s-1.26,2.81-2.81,2.81-2.81-1.26-2.81-2.81,1.26-2.81,2.81-2.81m0-1.88c-2.59,0-4.69,2.1-4.69,4.69s2.1,4.69,4.69,4.69,4.69-2.1,4.69-4.69-2.1-4.69-4.69-4.69h0Z"/>
    </g>
  </g>
</svg>