<?xml version="1.0" encoding="UTF-8"?>
<svg id="Warstwa_1" data-name="Warstwa 1" xmlns="http://www.w3.org/2000/svg" xmlns:xlink="http://www.w3.org/1999/xlink" viewBox="0 0 60 60">
  <defs>
    <style>
      .cls-1 {
        fill: none;
      }

      .cls-2 {
        clip-path: url(#clippath);
      }

      .cls-3 {
        fill: #fdad31;
      }

      .cls-4 {
        fill: #051344;
      }
    </style>
    <clipPath id="clippath">
      <rect class="cls-1" width="60" height="60"/>
    </clipPath>
  </defs>
  <g class="cls-2">
    <g>
      <path class="cls-3" d="M34.69,11.25c1.55,0,2.81,1.26,2.81,2.81s-1.26,2.81-2.81,2.81-2.81-1.26-2.81-2.81,1.26-2.81,2.81-2.81m0-1.88c-2.59,0-4.69,2.1-4.69,4.69s2.1,4.69,4.69,4.69,4.69-2.1,4.69-4.69-2.1-4.69-4.69-4.69h0Z"/>
      <path class="cls-3" d="M10.31,11.25c1.55,0,2.81,1.26,2.81,2.81s-1.26,2.81-2.81,2.81-2.81-1.26-2.81-2.81,1.26-2.81,2.81-2.81m0-1.88c-2.59,0-4.69,2.1-4.69,4.69s2.1,4.69,4.69,4.69,4.69-2.1,4.69-4.69-2.1-4.69-4.69-4.69h0Z"/>
      <path class="cls-3" d="M22.5,11.25c1.55,0,2.81,1.26,2.81,2.81s-1.26,2.81-2.81,2.81-2.81-1.26-2.81-2.81,1.26-2.81,2.81-2.81m0-1.88c-2.59,0-4.69,2.1-4.69,4.69s2.1,4.69,4.69,4.69,4.69-2.1,4.69-4.69-2.1-4.69-4.69-4.69h0Z"/>
      <path class="cls-3" d="M31.83,35.62c1.55,0,2.81,1.26,2.81,2.81s-1.26,2.81-2.81,2.81-2.81-1.26-2.81-2.81,1.26-2.81,2.81-2.81m0-1.88c-2.59,0-4.69,2.1-4.69,4.69s2.1,4.69,4.69,4.69,4.69-2.1,4.69-4.69-2.1-4.69-4.69-4.69h0Z"/>
      <path class="cls-4" d="M34.69,20.62c-2.28,0-4.39,.74-6.09,1.99-1.71-1.25-3.81-1.99-6.09-1.99s-4.39,.74-6.09,1.99c-1.71-1.25-3.81-1.99-6.09-1.99C4.62,20.62,0,25.24,0,30.94v15.94H12.19v3.75h20.62v-3.75h12.19v-15.94c0-5.7-4.62-10.31-10.31-10.31Zm-5.34,2.6h0Zm-13.69,0h0Zm-3.47,21.77H1.88v-14.06c0-4.65,3.79-8.44,8.44-8.44,1.72,0,3.32,.52,4.65,1.4-1.72,1.84-2.78,4.32-2.78,7.04v14.06Zm30.94,0h-10.31v-1.98c-.32,.07-.65,.11-.98,.11-.31,0-.6-.03-.89-.09v5.71H14.06V30.94c0-4.65,3.79-8.44,8.44-8.44s8.44,3.79,8.44,8.44v2.9c.29-.06,.59-.09,.89-.09,.34,0,.67,.04,.98,.11v-2.92c0-2.72-1.05-5.19-2.78-7.04,1.33-.89,2.93-1.4,4.65-1.4,4.65,0,8.44,3.79,8.44,8.44v14.06Z"/>
    </g>
  </g>
</svg>