<?xml version="1.0" encoding="UTF-8"?>
<svg id="Warstwa_1" data-name="Warstwa 1" xmlns="http://www.w3.org/2000/svg" xmlns:xlink="http://www.w3.org/1999/xlink" viewBox="0 0 60 60">
  <defs>
    <style>
      .cls-1 {
        fill: none;
      }

      .cls-2 {
        clip-path: url(#clippath);
      }

      .cls-3 {
        fill: #fdad31;
      }

      .cls-4 {
        fill: #051344;
      }
    </style>
    <clipPath id="clippath">
      <rect class="cls-1" width="60" height="60"/>
    </clipPath>
  </defs>
  <g class="cls-2">
    <g>
      <path class="cls-3" d="M30.94,10.31c1.55,0,2.81,1.26,2.81,2.81s-1.26,2.81-2.81,2.81-2.81-1.26-2.81-2.81,1.26-2.81,2.81-2.81m0-1.88c-2.59,0-4.69,2.1-4.69,4.69s2.1,4.69,4.69,4.69,4.69-2.1,4.69-4.69-2.1-4.69-4.69-4.69h0Z"/>
      <path class="cls-3" d="M4.69,10.31c1.55,0,2.81,1.26,2.81,2.81s-1.26,2.81-2.81,2.81-2.81-1.26-2.81-2.81,1.26-2.81,2.81-2.81m0-1.88c-2.59,0-4.69,2.1-4.69,4.69s2.1,4.69,4.69,4.69,4.69-2.1,4.69-4.69-2.1-4.69-4.69-4.69h0Z"/>
      <path class="cls-4" d="M32.81,29.06c-1.19,0-2.28,.45-3.11,1.19-.66-1.79-2.38-3.06-4.39-3.06-1.06,0-2.03,.35-2.81,.94v-9.38c0-2.59-2.1-4.69-4.69-4.69s-4.69,2.1-4.69,4.69v8.54c-.3-.06-.62-.1-.94-.1-2.59,0-4.69,2.1-4.69,4.69v12.19c0,4.14,3.36,7.5,7.5,7.5h15c4.14,0,7.5-3.36,7.5-7.5v-10.31c0-2.59-2.1-4.69-4.69-4.69Zm2.81,7.5v7.5c0,3.1-2.52,5.62-5.62,5.62H15c-3.1,0-5.62-2.52-5.62-5.62v-12.19c0-1.55,1.26-2.81,2.81-2.81,.33,0,.64,.06,.94,.16v10.15h1.88V18.75c0-1.55,1.26-2.81,2.81-2.81s2.81,1.26,2.81,2.81v14.06h1.88v-.94c0-1.55,1.26-2.81,2.81-2.81s2.81,1.26,2.81,2.81v1.88h1.88c0-1.55,1.26-2.81,2.81-2.81s2.81,1.26,2.81,2.81v2.81Z"/>
      <path class="cls-3" d="M15.48,14.69c-.3-.45-.48-.99-.48-1.56,0-1.55,1.26-2.81,2.81-2.81s2.81,1.26,2.81,2.81c0,.58-.18,1.12-.48,1.56,.55,.32,1.03,.74,1.41,1.25,.59-.78,.94-1.76,.94-2.81,0-2.59-2.1-4.69-4.69-4.69s-4.69,2.1-4.69,4.69c0,1.06,.35,2.03,.94,2.81,.38-.51,.86-.93,1.41-1.25Z"/>
    </g>
  </g>
</svg>