<?xml version="1.0" encoding="UTF-8"?>
<svg id="Warstwa_1" data-name="Warstwa 1" xmlns="http://www.w3.org/2000/svg" xmlns:xlink="http://www.w3.org/1999/xlink" viewBox="0 0 60 60">
  <defs>
    <style>
      .cls-1 {
        fill: none;
      }

      .cls-2 {
        clip-path: url(#clippath);
      }

      .cls-3 {
        fill: #fdad31;
      }

      .cls-4 {
        fill: #051344;
      }
    </style>
    <clipPath id="clippath">
      <rect class="cls-1" width="60" height="60"/>
    </clipPath>
  </defs>
  <g class="cls-2">
    <g>
      <path class="cls-4" d="M24.38,15c6.15,0,12.05,2.09,16.61,5.89,4.05,3.37,5.89,7.08,5.89,9.11s-1.84,5.74-5.89,9.11c-4.56,3.8-10.46,5.89-16.61,5.89s-12.05-2.09-16.61-5.89c-4.05-3.37-5.89-7.08-5.89-9.11s1.84-5.74,5.89-9.11c4.56-3.8,10.46-5.89,16.61-5.89m0-1.88C9.38,13.12,0,24.38,0,30s9.38,16.88,24.38,16.88,24.38-11.25,24.38-16.88S39.38,13.12,24.38,13.12h0Z"/>
      <path class="cls-4" d="M31.76,28.72c.07,.42,.12,.84,.12,1.28,0,4.14-3.36,7.5-7.5,7.5s-7.5-3.36-7.5-7.5,3.36-7.5,7.5-7.5c.44,0,.86,.05,1.28,.12,.26-.64,.66-1.21,1.15-1.67-.78-.21-1.59-.32-2.44-.32-5.18,0-9.38,4.2-9.38,9.38s4.2,9.38,9.38,9.38,9.38-4.2,9.38-9.38c0-.84-.11-1.66-.32-2.44-.46,.5-1.03,.9-1.67,1.15Z"/>
      <path class="cls-3" d="M30,21.56c1.55,0,2.81,1.26,2.81,2.81s-1.26,2.81-2.81,2.81-2.81-1.26-2.81-2.81,1.26-2.81,2.81-2.81m0-1.88c-2.59,0-4.69,2.1-4.69,4.69s2.1,4.69,4.69,4.69,4.69-2.1,4.69-4.69-2.1-4.69-4.69-4.69h0Z"/>
    </g>
  </g>
</svg>