<svg width="89" height="30" viewBox="0 0 89 30" fill="none" xmlns="http://www.w3.org/2000/svg">
<path fill-rule="evenodd" clip-rule="evenodd" d="M85.2894 8.99717C85.2934 8.77057 85.283 8.54476 85.2412 8.31976C85.0516 7.28235 84.5019 6.527 83.5143 6.11316C83.0603 5.92351 82.5822 5.87209 82.096 5.91709C80.9606 6.02316 80.1305 6.57441 79.699 7.64476C79.3607 8.4845 79.3631 9.34834 79.6524 10.2041C79.9175 10.9884 80.4439 11.5373 81.2161 11.8378C81.9442 12.1223 82.6875 12.1311 83.4227 11.874C84.2657 11.579 84.8274 10.9924 85.1159 10.1471C85.2428 9.77503 85.2999 9.39092 85.2894 8.99717ZM88.3526 9.76539C88.3092 10.5457 88.0666 11.2657 87.6857 11.9399C87.0653 13.0399 86.1316 13.78 84.9768 14.263C84.015 14.6648 83.0097 14.7805 81.9771 14.7403C80.9292 14.7009 79.9481 14.4301 79.0392 13.911C77.6531 13.1203 76.8013 11.9302 76.475 10.3753C76.2428 9.26798 76.2717 8.15905 76.6076 7.07423C77.0986 5.49441 78.1425 4.40959 79.6492 3.75066C80.6118 3.32878 81.6203 3.18896 82.6609 3.22191C83.6325 3.25244 84.555 3.46941 85.4228 3.91137C87.0798 4.75432 88.0328 6.10592 88.3374 7.92842C88.3542 8.03208 88.3494 8.14057 88.3534 8.24584C88.3446 8.33985 88.3406 8.43307 88.3928 8.51825V9.45441C88.3334 9.55164 88.347 9.65932 88.3526 9.76539Z" fill="#242424"/>
<mask id="mask0_1126_14383" style="mask-type:alpha" maskUnits="userSpaceOnUse" x="87" y="9" width="2" height="2">
<path fill-rule="evenodd" clip-rule="evenodd" d="M87.9684 9.22314H88.3928V10.0267H87.9684V9.22314Z" fill="white"/>
</mask>
<g mask="url(#mask0_1126_14383)">
<path fill-rule="evenodd" clip-rule="evenodd" d="M88.3521 9.76556C88.3465 9.65948 88.3337 9.55181 88.3931 9.45457V9.79529C88.3787 9.78484 88.3658 9.776 88.3521 9.76556Z" fill="#4FAE2C"/>
</g>
<mask id="mask1_1126_14383" style="mask-type:alpha" maskUnits="userSpaceOnUse" x="87" y="7" width="2" height="2">
<path fill-rule="evenodd" clip-rule="evenodd" d="M87.9688 7.96777H88.3929V8.77134H87.9688V7.96777Z" fill="white"/>
</mask>
<g mask="url(#mask1_1126_14383)">
<path fill-rule="evenodd" clip-rule="evenodd" d="M88.3931 8.51862C88.3408 8.43344 88.344 8.33943 88.3537 8.24621C88.3674 8.23737 88.3794 8.22934 88.3931 8.2205V8.51862Z" fill="#4FAE2C"/>
</g>
<path fill-rule="evenodd" clip-rule="evenodd" d="M50.8332 19.5C50.8332 19.9179 50.8348 20.3358 50.8316 20.7536C50.8308 20.8533 50.8452 20.9095 50.9682 20.9071C51.4358 20.8999 51.9035 20.9151 52.3712 20.8983C52.785 20.883 53.1611 20.7408 53.4785 20.4659C54.0836 19.942 54.0876 19.1007 53.4866 18.5711C53.178 18.2995 52.8108 18.1516 52.4033 18.1372C51.9284 18.1195 51.4535 18.1267 50.9786 18.1267C50.8372 18.1267 50.834 18.1316 50.834 18.2883C50.8324 18.6925 50.8332 19.0958 50.8332 19.5ZM54.6035 22.466C55.0929 23.4383 55.8049 24.0667 56.8953 24.1889C57.0673 24.2082 57.0697 24.209 57.0697 24.3793C57.0705 25.1877 57.0705 25.9969 57.0697 26.8061C57.0697 26.9845 57.0673 26.9893 56.8768 26.9845C55.3886 26.9475 54.0933 26.4365 53.0181 25.3958C52.372 24.7715 51.8842 24.037 51.5315 23.2125C51.4736 23.0767 51.4077 23.0068 51.2534 23.0277C51.149 23.0414 51.0405 23.0325 50.9344 23.0301C50.8629 23.0285 50.83 23.0583 50.8332 23.1306C50.8356 23.1796 50.8332 23.2294 50.8332 23.2792V26.5996C50.8332 26.6422 50.83 26.684 50.834 26.7266C50.8428 26.8238 50.8115 26.8768 50.703 26.8616C50.6684 26.8567 50.6323 26.8608 50.5969 26.8608H47.8704C47.8214 26.8608 47.7708 26.86 47.7217 26.8608C47.6599 26.8616 47.6317 26.831 47.6333 26.7708C47.6342 26.7201 47.6333 26.6711 47.6333 26.6213V16.1291C47.6333 16.0937 47.6358 16.0583 47.6325 16.023C47.6221 15.9266 47.6526 15.8711 47.7603 15.8856C47.774 15.8872 47.7892 15.8856 47.8029 15.8856C49.4856 15.8872 51.1683 15.8759 52.8509 15.8944C53.7252 15.9041 54.569 16.0873 55.3436 16.5172C56.1978 16.9921 56.7804 17.6832 57.0183 18.6418C57.1476 19.165 57.1597 19.6945 57.0359 20.2216C56.88 20.8878 56.5064 21.4053 55.9503 21.7966C55.5951 22.0474 55.2078 22.2386 54.802 22.3929C54.7433 22.4154 54.6839 22.4371 54.6035 22.466Z" fill="#242424"/>
<path fill-rule="evenodd" clip-rule="evenodd" d="M45.9434 9.80933C45.3576 10.0102 44.8056 10.1653 44.2415 10.2778C43.5857 10.408 42.9276 10.5028 42.259 10.5293C42.063 10.5358 42.0517 10.4875 42.0517 10.7399C42.0525 11.9026 42.0525 13.067 42.0517 14.2298C42.0517 14.499 42.0766 14.4644 41.8099 14.4644C40.9082 14.466 40.0066 14.4652 39.105 14.4652C39.0697 14.4652 39.0335 14.462 38.999 14.4652C38.8953 14.4765 38.8342 14.4451 38.8495 14.327C38.8543 14.2917 38.8503 14.2555 38.8503 14.2201C38.8503 10.7238 38.8503 7.22585 38.8511 3.72951C38.8511 3.46272 38.8165 3.49245 39.0882 3.49245C40.0107 3.49085 40.934 3.49165 41.8565 3.49165C42.0654 3.49165 42.0517 3.46835 42.0517 3.68451C42.0525 5.07388 42.0509 6.46486 42.0525 7.85504C42.0533 8.08326 41.9963 8.09853 42.3 8.08165C43.4957 8.01495 44.6593 7.77549 45.8004 7.41469C45.9402 7.37049 45.9442 7.29013 45.9442 7.17924C45.9426 6.03013 45.9426 4.88022 45.9442 3.73192C45.9442 3.45469 45.9153 3.49245 46.1797 3.49245C47.0957 3.49085 48.011 3.49165 48.9271 3.49165C48.9761 3.49165 49.0259 3.49165 49.0749 3.49245C49.1272 3.49406 49.1521 3.52058 49.1513 3.57201C49.1513 3.62183 49.1521 3.67165 49.1521 3.72147V14.2346C49.1521 14.4789 49.1802 14.4652 48.9255 14.4652H46.1781C46.1355 14.4652 46.0929 14.4636 46.0503 14.4652C45.9812 14.4676 45.9434 14.4395 45.9442 14.3672C45.9442 14.3101 45.9434 14.2531 45.9434 14.1968V10.0681V9.80933Z" fill="#242424"/>
<path fill-rule="evenodd" clip-rule="evenodd" d="M84.992 22.195C84.6827 22.2874 84.4014 22.379 84.1153 22.457C83.1888 22.7109 82.2454 22.8636 81.286 22.9078C81.1068 22.915 81.1052 22.915 81.1052 23.099C81.1044 24.2546 81.1052 25.4117 81.1052 26.5672C81.1052 26.6098 81.0995 26.6532 81.106 26.695C81.1236 26.8131 81.0642 26.8364 80.9589 26.8364C79.9866 26.8332 79.0151 26.8324 78.0428 26.8372C77.9222 26.838 77.8949 26.7914 77.9061 26.6886C77.9102 26.6468 77.9069 26.6034 77.9069 26.5616V16.1337C77.9069 16.0911 77.911 16.0485 77.9061 16.0067C77.8877 15.887 77.9479 15.8677 78.0516 15.8677C79.0167 15.8709 79.9826 15.8701 80.9477 15.8693C81.1349 15.8693 81.1052 15.8934 81.1052 16.0613V20.1901C81.1052 20.4657 81.1052 20.4633 81.3768 20.4504C82.5612 20.3958 83.7079 20.1467 84.8345 19.7907C85.0041 19.7369 84.9912 19.7795 84.9912 19.5713C84.9928 18.423 84.992 17.2731 84.992 16.124C84.992 16.075 84.9944 16.0244 84.992 15.9754C84.988 15.9062 85.0121 15.8669 85.0869 15.8701C85.123 15.8717 85.1584 15.8693 85.1937 15.8693H88.0046C88.2047 15.8693 88.1919 15.8572 88.1919 16.0501V26.6476C88.1919 26.8557 88.2055 26.834 87.9902 26.8348C87.0604 26.8348 86.1307 26.834 85.201 26.8348C84.9639 26.8348 84.992 26.8348 84.992 26.6307V22.4594V22.195Z" fill="#242424"/>
<path fill-rule="evenodd" clip-rule="evenodd" d="M76.027 17.8224C75.2628 18.2282 74.5115 18.6252 73.7577 19.0246C73.7393 18.99 73.7232 18.9667 73.7151 18.9402C73.5408 18.3262 73.1133 17.9775 72.517 17.8232C72.0622 17.7051 71.6009 17.7011 71.1526 17.8481C70.7885 17.9679 70.5129 18.1856 70.4414 18.5906C70.3892 18.8879 70.4784 19.1379 70.7122 19.3299C70.9179 19.4995 71.1566 19.6047 71.4145 19.6706C72.0188 19.8257 72.6335 19.9294 73.2451 20.0523C73.8011 20.164 74.3524 20.2974 74.8908 20.4774C75.4766 20.6735 75.9668 21.0142 76.3701 21.4787C76.6321 21.7808 76.7864 22.1352 76.8611 22.5249C76.9985 23.2361 76.9672 23.936 76.6884 24.6126C76.3501 25.4322 75.7377 25.9923 74.9663 26.3941C74.2905 26.7453 73.5665 26.9309 72.8103 27.0024C71.8991 27.0892 70.9959 27.049 70.1071 26.8192C69.1918 26.5821 68.3674 26.1763 67.6996 25.4893C67.4007 25.1799 67.1435 24.8006 67.0334 24.4921C67.8547 24.0565 68.6784 23.6202 69.5036 23.1838C69.5253 23.2152 69.543 23.2304 69.5478 23.2497C69.7351 23.9561 70.2108 24.3924 70.8801 24.6246C71.5527 24.8577 72.2398 24.8914 72.9301 24.6921C73.1703 24.623 73.3921 24.5097 73.5721 24.3313C73.9538 23.9512 73.9072 23.3896 73.4701 23.0794C73.1808 22.8745 72.8505 22.7692 72.5098 22.6945C71.8452 22.5498 71.1791 22.414 70.5145 22.2678C70.1127 22.1802 69.7174 22.0661 69.3301 21.9295C68.7684 21.731 68.2991 21.3991 67.9053 20.9555C67.6088 20.6229 67.4449 20.2275 67.3742 19.792C67.2601 19.0848 67.3075 18.3905 67.5879 17.7268C67.9841 16.7882 68.7049 16.1928 69.6418 15.84C70.4526 15.5346 71.2964 15.4591 72.1546 15.517C72.8537 15.5644 73.5303 15.7106 74.1668 16.0128C74.9149 16.3679 75.5304 16.8742 75.9362 17.6111C75.9595 17.6545 75.9812 17.6995 76.0021 17.7437C76.0101 17.7629 76.015 17.7838 76.027 17.8224Z" fill="#242424"/>
<path fill-rule="evenodd" clip-rule="evenodd" d="M50.5098 8.96494V3.72968C50.5098 3.45646 50.4873 3.49503 50.7508 3.49503C53.2491 3.49423 55.7482 3.49423 58.2465 3.49503C58.5157 3.49503 58.4844 3.46691 58.4844 3.73369C58.486 4.40709 58.4852 5.08128 58.4844 5.75548C58.4844 5.94994 58.4836 5.95155 58.2883 5.95155H53.8582C53.8156 5.95155 53.7731 5.95075 53.7305 5.95155C53.5714 5.95477 53.569 5.95477 53.5681 6.11789C53.5673 6.62896 53.5673 7.14003 53.5681 7.6503C53.569 7.82869 53.5714 7.8295 53.7602 7.8295C54.9744 7.8303 56.1878 7.8303 57.402 7.8303C57.4582 7.8303 57.5153 7.83111 57.5723 7.8303C57.6246 7.8303 57.6495 7.85521 57.6487 7.90744C57.6479 7.93557 57.6487 7.9645 57.6487 7.99262C57.6487 8.58084 57.6495 9.16986 57.6487 9.75887C57.6487 9.93405 57.6471 9.93566 57.4574 9.93566H53.8582C53.8156 9.93566 53.7739 9.93486 53.7313 9.93566C53.5722 9.93887 53.569 9.93968 53.5681 10.1036C53.5673 10.6782 53.5673 11.2527 53.5681 11.8273C53.569 12.0032 53.5714 12.0041 53.7618 12.0049H58.1485C58.433 12.0049 58.433 12.0049 58.433 12.2837V14.2629C58.433 14.5032 58.4402 14.4734 58.208 14.4734C57.2148 14.4742 56.2207 14.4734 55.2267 14.4734H50.7974C50.7548 14.4734 50.7123 14.4742 50.6697 14.4734C50.513 14.471 50.5106 14.471 50.5106 14.3055C50.509 13.6329 50.5098 12.9587 50.5098 12.2845V8.96494Z" fill="#242424"/>
<path fill-rule="evenodd" clip-rule="evenodd" d="M58.3571 21.3395C58.3571 19.5941 58.3563 17.8495 58.3579 16.105C58.3579 15.8398 58.3202 15.8695 58.5966 15.8695C61.0234 15.8687 63.451 15.8687 65.8778 15.8687C65.9204 15.8687 65.9637 15.8736 66.0063 15.8687C66.1052 15.8575 66.122 15.9081 66.122 15.9941C66.1196 16.7245 66.1172 17.455 66.1237 18.1854C66.1253 18.3156 66.0642 18.3164 65.9702 18.3164C65.2879 18.3148 64.6065 18.3156 63.9259 18.3156C63.152 18.3156 62.3782 18.3148 61.6044 18.3156C61.422 18.3156 61.4212 18.3172 61.4212 18.5012C61.4204 19.0123 61.4204 19.5218 61.4212 20.0328C61.4212 20.1912 61.4228 20.1936 61.5843 20.1936C62.8049 20.1944 64.0255 20.1936 65.2462 20.1944C65.5387 20.1944 65.5041 20.1654 65.5049 20.4579C65.5057 21.0044 65.5049 21.5508 65.5049 22.0964C65.5049 22.3238 65.5145 22.3062 65.3 22.3062C64.0858 22.3062 62.8724 22.3053 61.6582 22.307C61.389 22.307 61.422 22.2684 61.4212 22.5424C61.4195 23.0808 61.4204 23.62 61.4212 24.1592C61.4212 24.3898 61.3954 24.3657 61.6229 24.3657C63.0709 24.3665 64.5197 24.3657 65.9678 24.3657H66.0947C66.2779 24.3681 66.2795 24.3681 66.2795 24.5521C66.2804 25.2545 66.2804 25.956 66.2795 26.6583C66.2795 26.8319 66.2779 26.8343 66.1084 26.8343C63.5812 26.8351 61.0539 26.8351 58.5275 26.8343C58.3579 26.8343 58.3571 26.8319 58.3571 26.6374V21.3395Z" fill="#242424"/>
<path fill-rule="evenodd" clip-rule="evenodd" d="M38.8503 21.3475V16.1975V16.0914C38.8511 15.8664 38.8342 15.8857 39.0584 15.8857H45.2338C45.6316 15.8857 46.0294 15.8849 46.4271 15.8865C46.5766 15.8873 46.5806 15.8897 46.5806 16.04C46.5822 16.8339 46.5822 17.6286 46.5806 18.4225C46.5806 18.5648 46.5766 18.5672 46.4207 18.5672C45.5336 18.5688 44.6464 18.568 43.7585 18.568H42.247C42.0284 18.568 42.0453 18.5519 42.0453 18.7793V20.5247C42.0453 20.7264 42.0284 20.7232 42.2405 20.7232C43.2844 20.7224 44.3266 20.7224 45.3704 20.7224C45.413 20.7224 45.4564 20.7216 45.4982 20.7232C45.6493 20.7272 45.6525 20.7272 45.6533 20.8758C45.6549 21.2375 45.6541 21.5991 45.6541 21.9615C45.6541 22.2596 45.6549 22.5577 45.6533 22.855C45.6525 23.0358 45.6517 23.0375 45.4645 23.0375C44.4142 23.0383 43.3631 23.0366 42.3128 23.0383C42.0043 23.0383 42.0469 22.9941 42.0461 23.3107C42.0445 24.3963 42.0453 25.4819 42.0453 26.5667C42.0453 26.6166 42.042 26.6656 42.0461 26.7154C42.0517 26.7974 42.0179 26.8287 41.936 26.8271C41.7801 26.8223 41.6234 26.8255 41.4675 26.8255C40.6792 26.8255 39.8917 26.8271 39.1034 26.8255C38.8125 26.8247 38.8511 26.86 38.8511 26.5828C38.8495 24.8375 38.8503 23.0921 38.8503 21.3475Z" fill="#242424"/>
<path fill-rule="evenodd" clip-rule="evenodd" d="M68.3783 8.97357V3.7825V3.67643C68.3799 3.49402 68.3799 3.49161 68.5632 3.49161H71.3949C71.5854 3.49161 71.579 3.47393 71.579 3.67482C71.5782 5.34143 71.5782 7.00804 71.5782 8.67464V11.5249C71.5782 11.5739 71.5806 11.6246 71.579 11.6736C71.5766 11.7467 71.6135 11.7756 71.6834 11.7732C71.7333 11.7724 71.7823 11.774 71.8321 11.774H75.6635C75.7069 11.774 75.7495 11.7724 75.7921 11.774C75.9432 11.7788 75.9456 11.7788 75.9464 11.9267C75.948 12.2811 75.9472 12.6362 75.9472 12.9906C75.9472 13.4302 75.948 13.8697 75.9464 14.3101C75.9456 14.4604 75.9424 14.4628 75.7945 14.4644C75.5454 14.4668 75.2971 14.4652 75.0488 14.4652H68.6628C68.6058 14.4652 68.5487 14.4628 68.4924 14.4652C68.4129 14.4692 68.3719 14.4395 68.3783 14.3551C68.3816 14.3061 68.3783 14.2554 68.3783 14.2064V8.97357Z" fill="#242424"/>
<path fill-rule="evenodd" clip-rule="evenodd" d="M59.7109 8.96032C59.7109 7.21576 59.7109 5.47121 59.7117 3.72666C59.7117 3.45425 59.6819 3.49201 59.9503 3.49201C60.8592 3.49041 61.7672 3.49121 62.6752 3.49121C62.7251 3.49121 62.7749 3.49282 62.8247 3.49121C62.885 3.4896 62.9163 3.51532 62.9147 3.5788C62.9131 3.63585 62.9147 3.6921 62.9147 3.74916C62.9147 6.34469 62.9147 8.94023 62.9155 11.5358C62.9155 11.7897 62.8737 11.7744 63.1534 11.7744C64.431 11.7752 65.7087 11.7752 66.9856 11.7752C67.0354 11.7752 67.0852 11.7792 67.1343 11.7744C67.2339 11.7648 67.2709 11.8009 67.2693 11.9054C67.2636 12.2742 67.2668 12.6431 67.2668 13.0119C67.2668 13.437 67.2677 13.8637 67.2668 14.2888C67.266 14.4624 67.2644 14.4648 67.0941 14.4648C66.5187 14.4664 65.9442 14.4656 65.3688 14.4656H60.0042H59.919C59.7125 14.464 59.7117 14.464 59.7117 14.2575C59.7109 12.492 59.7109 10.7258 59.7109 8.96032Z" fill="#242424"/>
<mask id="mask2_1126_14383" style="mask-type:alpha" maskUnits="userSpaceOnUse" x="0" y="0" width="34" height="30">
<path fill-rule="evenodd" clip-rule="evenodd" d="M18.3037 0.803711C17.767 0.805318 17.2302 0.834247 16.6934 0.889693C15.6246 0.998979 14.576 1.2055 13.549 1.51889C11.0178 2.28951 8.76857 3.56157 6.81027 5.33987C4.96446 7.01612 3.555 9.00255 2.62205 11.3192C2.11902 12.568 1.78955 13.8617 1.65054 15.2037C1.56857 15.9888 1.55089 16.7739 1.60634 17.5606C1.65536 18.2557 1.64973 18.9492 1.53482 19.6394C1.49304 19.8901 1.44723 20.1409 1.40223 20.3916C1.35723 20.4559 1.35563 20.5306 1.35321 20.6045C1.31223 20.6262 1.31786 20.6664 1.31866 20.705C1.31143 20.7234 1.305 20.7427 1.29777 20.762C1.24554 20.9235 1.17482 21.0786 1.14589 21.2466C1.03902 21.4997 0.931339 21.7528 0.825268 22.0051C0.820446 22.0212 0.817232 22.0365 0.813214 22.0509C0.741696 22.161 0.677411 22.2759 0.638036 22.4013C0.593036 22.4246 0.586607 22.4704 0.574554 22.5122C0.424286 22.7605 0.251518 22.9976 0.150268 23.274C0.119732 23.3302 0.0908036 23.3865 0.0916071 23.4524C0.0747321 23.4942 0.0707143 23.5359 0.0779464 23.5801C0.0498214 23.5922 0.0441964 23.642 0 23.6292V24.141C0.110089 24.2109 0.0803571 24.3451 0.134196 24.4408C0.132589 24.4753 0.14625 24.5034 0.170357 24.5267C0.172768 24.5412 0.175982 24.5573 0.179196 24.5734C0.189643 24.6224 0.209732 24.6666 0.252321 24.6971C0.294107 24.8522 0.400179 24.9631 0.511071 25.07C0.658929 25.2106 0.793125 25.3681 1.00125 25.4259C1.09607 25.4902 1.19973 25.5368 1.31625 25.5497C1.32187 25.5617 1.32991 25.5658 1.34196 25.5617C1.38857 25.5907 1.43759 25.5955 1.49063 25.5875C1.56054 25.6301 1.63929 25.6244 1.71804 25.6228C1.85946 25.6212 2.00009 25.6212 2.14152 25.6172C2.58107 25.6075 3.01982 25.6365 3.45536 25.6871L3.46741 25.6984L3.48348 25.6951C3.96964 25.7835 4.45179 25.8864 4.92188 26.035C4.99741 26.0672 5.06973 26.1074 5.15571 26.1017C5.23366 26.1668 5.33491 26.1829 5.42571 26.2175C5.69813 26.3171 5.94804 26.465 6.21884 26.567H6.22125C6.26866 26.6064 6.31527 26.6498 6.38357 26.6474C6.40607 26.6787 6.4342 26.698 6.47277 26.7004C6.56196 26.7784 6.66402 26.8338 6.77089 26.8796C6.77652 26.9013 6.79098 26.9077 6.81268 26.9045C6.92839 26.9953 7.05375 27.0749 7.18554 27.1408C7.19277 27.1625 7.20804 27.1745 7.22973 27.1793C7.33982 27.2525 7.44509 27.3344 7.5608 27.3995C7.83321 27.5546 8.08795 27.7434 8.38527 27.8551C8.44554 27.9122 8.51705 27.9492 8.59661 27.9692C9.06188 28.2248 9.55045 28.4257 10.0487 28.6041C10.3733 28.7198 10.6947 28.8516 11.0363 28.9183C11.0821 28.9649 11.1423 28.9512 11.1986 28.9601C11.336 29.0163 11.4782 29.0597 11.6269 29.0734C11.6108 28.9938 11.5779 28.9335 11.5288 28.8934C11.5779 28.9335 11.6108 28.9938 11.6269 29.0734C11.655 29.0806 11.6831 29.087 11.7113 29.0934C11.7771 29.1304 11.8503 29.1433 11.9258 29.1465C12.1934 29.2108 12.4586 29.2871 12.7358 29.2943C12.7752 29.3249 12.821 29.3257 12.8676 29.3209C12.8949 29.3249 12.9214 29.3273 12.9487 29.3305C13.3843 29.4133 13.8246 29.4559 14.269 29.4703C14.2698 29.4816 14.2706 29.4928 14.2706 29.5041H15.8898C15.889 29.4896 15.889 29.4735 15.889 29.4583C15.889 29.4735 15.889 29.4896 15.8898 29.5041H16.4427C16.4226 29.496 16.4162 29.4816 16.425 29.4607C16.3816 29.4591 16.3374 29.4583 16.294 29.4567C16.3374 29.4583 16.3816 29.4591 16.4258 29.4607C16.6942 29.4502 16.9626 29.4358 17.2262 29.3771L17.2382 29.3763C17.2583 29.3747 17.2776 29.3731 17.2977 29.3707C17.3692 29.3731 17.4415 29.3787 17.5058 29.3385C17.5685 29.3434 17.6287 29.3442 17.689 29.3241C17.8859 29.2935 18.0844 29.2718 18.2748 29.2108C18.2837 29.2108 18.2941 29.2108 18.3029 29.2116C18.3415 29.214 18.3809 29.2172 18.4042 29.1706C18.4315 29.1674 18.4588 29.1634 18.4854 29.1601C18.6276 29.1899 18.7521 29.1328 18.8799 29.087C18.9217 29.0806 18.9643 29.075 19.0069 29.0685C19.0495 29.0726 19.0848 29.0525 19.1218 29.0332C19.2319 29.0308 19.3363 29.0059 19.4344 28.9536C19.7108 28.9159 19.9688 28.8138 20.2323 28.7302C20.2572 28.7326 20.2829 28.7351 20.2813 28.6981L20.2846 28.7053C20.4212 28.6909 20.5489 28.6475 20.6687 28.5816C20.8037 28.5462 20.9387 28.5101 21.0592 28.4369C21.1307 28.4361 21.1934 28.4152 21.2408 28.3582C21.2842 28.3726 21.3244 28.3566 21.3621 28.3405C21.6337 28.2272 21.9078 28.1179 22.1746 27.9934C22.4028 27.8881 22.6406 27.7997 22.8528 27.6607C22.9653 27.6366 23.0561 27.5715 23.1469 27.5072C23.1268 27.4911 23.1083 27.475 23.0882 27.4606C23.0858 27.4469 23.0834 27.4349 23.081 27.422C23.0834 27.4349 23.0858 27.4469 23.0882 27.4606C23.1083 27.475 23.1268 27.4911 23.1469 27.5072C23.2401 27.4887 23.3148 27.4373 23.3855 27.3778C23.3598 27.3746 23.3349 27.3682 23.3172 27.3513C23.3349 27.3682 23.3598 27.3746 23.3855 27.3778C23.4104 27.3746 23.4313 27.3658 23.445 27.3433C23.5141 27.3264 23.5744 27.2959 23.6234 27.2428C23.6869 27.2412 23.7335 27.2083 23.7721 27.1609C23.8428 27.1408 23.9014 27.1006 23.9561 27.0548L23.9521 27.0492L23.9561 27.0548C23.9906 27.0451 24.0236 27.0331 24.0437 27.0001C24.0911 26.9817 24.1393 26.9624 24.1738 26.9206C24.3932 26.7952 24.6206 26.6795 24.8038 26.4987C24.8038 26.4987 24.8095 26.4955 24.8095 26.4947C24.8617 26.5027 24.893 26.4706 24.9212 26.4336C25.0063 26.3951 25.0811 26.3404 25.1462 26.2745C25.3446 26.1668 25.5158 26.0222 25.687 25.8776C25.7488 25.8567 25.7995 25.8229 25.83 25.7642C25.8991 25.7393 25.9481 25.6863 26.0028 25.6421C26.5452 25.205 27.0571 24.7365 27.5408 24.2367C29.2846 22.4342 30.5711 20.3538 31.3393 17.9624C31.8865 16.2572 32.1163 14.5086 31.9821 12.7215C31.9018 11.6479 32.0062 10.6009 32.2923 9.56666C32.3486 9.36255 32.4474 9.1713 32.4755 8.95916L32.4715 8.95353C32.5623 8.83943 32.6033 8.70362 32.6371 8.56541C32.6716 8.5421 32.678 8.50594 32.6788 8.46898C32.7512 8.38139 32.7889 8.27934 32.8154 8.17166L32.8179 8.17005C32.8958 8.05755 32.9641 7.93942 33.0115 7.81005C33.0613 7.76103 33.0871 7.69996 33.1023 7.63326C33.1554 7.58666 33.1915 7.52719 33.2148 7.45969C33.2245 7.44362 33.2333 7.42755 33.2421 7.41148C33.2815 7.37693 33.3048 7.33353 33.3153 7.28291C33.4109 7.15835 33.4736 7.02014 33.4848 6.86184C33.5555 6.64728 33.5965 6.43192 33.525 6.21014C33.529 6.13942 33.5379 6.06871 33.4921 6.00603C33.4961 5.97309 33.4896 5.94255 33.4679 5.91523C33.4334 5.77059 33.3836 5.63237 33.2831 5.51746C33.1578 5.27719 32.9721 5.09559 32.7351 4.96621L32.7295 4.96701C32.6957 4.9188 32.6451 4.89951 32.5904 4.88666C32.5398 4.84648 32.4876 4.81032 32.4193 4.81032C32.3237 4.75407 32.2248 4.71871 32.1123 4.73157C32.0786 4.71791 32.0448 4.72273 32.0119 4.72755C31.9918 4.72996 31.9725 4.73237 31.9532 4.73076C31.9428 4.70987 31.9307 4.693 31.9034 4.70103C31.8721 4.69943 31.8415 4.69701 31.811 4.69541C31.7885 4.69701 31.766 4.69782 31.7435 4.69943C31.7338 4.72353 31.7218 4.74764 31.7129 4.77255C31.7218 4.74764 31.733 4.72353 31.7427 4.69943C31.7105 4.70023 31.6784 4.70184 31.6462 4.70184C31.6053 4.70184 31.5651 4.70344 31.5241 4.70344C31.4968 4.693 31.4695 4.6946 31.4421 4.70746C31.2726 4.693 31.1022 4.68978 30.9319 4.69782C30.9021 4.69701 30.8716 4.69541 30.8419 4.6946C30.7583 4.68978 30.6755 4.68576 30.5904 4.68014C30.5896 4.69621 30.5888 4.71309 30.5871 4.72835C30.5888 4.71309 30.5896 4.69621 30.5904 4.68014C30.4401 4.63032 30.2802 4.6488 30.1259 4.61585L29.3521 4.47925C29.3263 4.47282 29.3014 4.46639 29.2765 4.45996C29.2749 4.4688 29.2717 4.47684 29.2677 4.48487C29.2717 4.47684 29.2749 4.4688 29.2765 4.45996L28.9254 4.36112C28.7285 4.29764 28.5292 4.23496 28.3307 4.17148C28.2102 4.11684 28.0937 4.05255 27.9691 4.01237C27.8783 3.98184 27.802 3.90309 27.6951 3.92639C27.6806 3.92318 27.6646 3.92076 27.6501 3.91755C27.6477 3.89585 27.6412 3.87737 27.6163 3.87175C27.5673 3.82514 27.5071 3.79943 27.442 3.78335C27.2547 3.67969 27.0683 3.57523 26.8819 3.47157C26.7758 3.40005 26.6746 3.31969 26.5532 3.27068C26.4664 3.20478 26.3901 3.12603 26.2848 3.08666C26.2318 3.04568 26.1884 2.98862 26.1137 2.983C26.0566 2.9171 25.9827 2.87853 25.9023 2.85121C25.5375 2.59728 25.1389 2.40362 24.7404 2.21398C24.4688 2.08541 24.202 1.94076 23.9071 1.86684L23.9054 1.87326C23.9006 1.84112 23.8789 1.83791 23.854 1.83951C23.4844 1.67076 23.0995 1.543 22.7057 1.44576C22.6977 1.43371 22.6848 1.42889 22.6712 1.4305C22.6181 1.41121 22.5667 1.38791 22.5121 1.37344C21.6008 1.11951 20.6735 0.945943 19.7325 0.863175C19.2921 0.825407 18.8526 0.805318 18.4122 0.803711H18.3037ZM17.4769 29.1923C17.4986 29.222 17.5082 29.259 17.509 29.2984C17.5082 29.259 17.4986 29.222 17.4769 29.1923Z" fill="white"/>
</mask>
<g mask="url(#mask2_1126_14383)">
<path fill-rule="evenodd" clip-rule="evenodd" d="M18.3037 0.803711C17.767 0.805318 17.2302 0.834247 16.6934 0.889693C15.6246 0.998979 14.576 1.2055 13.549 1.51889C11.0178 2.28951 8.76857 3.56157 6.81027 5.33987C4.96446 7.01612 3.555 9.00255 2.62205 11.3192C2.11902 12.568 1.78955 13.8617 1.65054 15.2037C1.56857 15.9888 1.55089 16.7739 1.60634 17.5606C1.65536 18.2557 1.64973 18.9492 1.53482 19.6394C1.49304 19.8901 1.44723 20.1409 1.40223 20.3916C1.35723 20.4559 1.35563 20.5306 1.35321 20.6045C1.31223 20.6262 1.31786 20.6664 1.31866 20.705C1.31143 20.7234 1.305 20.7427 1.29777 20.762C1.24554 20.9235 1.17482 21.0786 1.14589 21.2466C1.03902 21.4997 0.931339 21.7528 0.825268 22.0051C0.820446 22.0212 0.817232 22.0365 0.813214 22.0509C0.741696 22.161 0.677411 22.2759 0.638036 22.4013C0.593036 22.4246 0.586607 22.4704 0.574554 22.5122C0.424286 22.7605 0.251518 22.9976 0.150268 23.274C0.119732 23.3302 0.0908036 23.3865 0.0916071 23.4524C0.0747321 23.4942 0.0707143 23.5359 0.0779464 23.5801C0.0498214 23.5922 0.0441964 23.642 0 23.6292V24.141C0.110089 24.2109 0.0803571 24.3451 0.134196 24.4408C0.132589 24.4753 0.14625 24.5034 0.170357 24.5267C0.172768 24.5412 0.175982 24.5573 0.179196 24.5734C0.189643 24.6224 0.209732 24.6666 0.252321 24.6971C0.294107 24.8522 0.400179 24.9631 0.511071 25.07C0.658929 25.2106 0.793125 25.3681 1.00125 25.4259C1.09607 25.4902 1.19973 25.5368 1.31625 25.5497C1.32187 25.5617 1.32991 25.5658 1.34196 25.5617C1.38857 25.5907 1.43759 25.5955 1.49063 25.5875C1.56054 25.6301 1.63929 25.6244 1.71804 25.6228C1.85946 25.6212 2.00009 25.6212 2.14152 25.6172C2.58107 25.6075 3.01982 25.6365 3.45536 25.6871L3.46741 25.6984L3.48348 25.6951C3.96964 25.7835 4.45179 25.8864 4.92188 26.035C4.99741 26.0672 5.06973 26.1074 5.15571 26.1017C5.23366 26.1668 5.33491 26.1829 5.42571 26.2175C5.69813 26.3171 5.94804 26.465 6.21884 26.567H6.22125C6.26866 26.6064 6.31527 26.6498 6.38357 26.6474C6.40607 26.6787 6.4342 26.698 6.47277 26.7004C6.56196 26.7784 6.66402 26.8338 6.77089 26.8796C6.77652 26.9013 6.79098 26.9077 6.81268 26.9045C6.92839 26.9953 7.05375 27.0749 7.18554 27.1408C7.19277 27.1625 7.20804 27.1745 7.22973 27.1793C7.33982 27.2525 7.44509 27.3344 7.5608 27.3995C7.83321 27.5546 8.08795 27.7434 8.38527 27.8551C8.44554 27.9122 8.51705 27.9492 8.59661 27.9692C9.06188 28.2248 9.55045 28.4257 10.0487 28.6041C10.3733 28.7198 10.6947 28.8516 11.0363 28.9183C11.0821 28.9649 11.1423 28.9512 11.1986 28.9601C11.336 29.0163 11.4782 29.0597 11.6269 29.0734C11.6108 28.9938 11.5779 28.9335 11.5288 28.8934C11.5779 28.9335 11.6108 28.9938 11.6269 29.0734C11.655 29.0806 11.6831 29.087 11.7113 29.0934C11.7771 29.1304 11.8503 29.1433 11.9258 29.1465C12.1934 29.2108 12.4586 29.2871 12.7358 29.2943C12.7752 29.3249 12.821 29.3257 12.8676 29.3209C12.8949 29.3249 12.9214 29.3273 12.9487 29.3305C13.3843 29.4133 13.8246 29.4559 14.269 29.4703C14.2698 29.4816 14.2706 29.4928 14.2706 29.5041H15.8898C15.889 29.4896 15.889 29.4735 15.889 29.4583C15.889 29.4735 15.889 29.4896 15.8898 29.5041H16.4427C16.4226 29.496 16.4162 29.4816 16.425 29.4607C16.3816 29.4591 16.3374 29.4583 16.294 29.4567C16.3374 29.4583 16.3816 29.4591 16.4258 29.4607C16.6942 29.4502 16.9626 29.4358 17.2262 29.3771L17.2382 29.3763C17.2583 29.3747 17.2776 29.3731 17.2977 29.3707C17.3692 29.3731 17.4415 29.3787 17.5058 29.3385C17.5685 29.3434 17.6287 29.3442 17.689 29.3241C17.8859 29.2935 18.0844 29.2718 18.2748 29.2108C18.2837 29.2108 18.2941 29.2108 18.3029 29.2116C18.3415 29.214 18.3809 29.2172 18.4042 29.1706C18.4315 29.1674 18.4588 29.1634 18.4854 29.1601C18.6276 29.1899 18.7521 29.1328 18.8799 29.087C18.9217 29.0806 18.9643 29.075 19.0069 29.0685C19.0495 29.0726 19.0848 29.0525 19.1218 29.0332C19.2319 29.0308 19.3363 29.0059 19.4344 28.9536C19.7108 28.9159 19.9688 28.8138 20.2323 28.7302C20.2572 28.7326 20.2829 28.7351 20.2813 28.6981L20.2846 28.7053C20.4212 28.6909 20.5489 28.6475 20.6687 28.5816C20.8037 28.5462 20.9387 28.5101 21.0592 28.4369C21.1307 28.4361 21.1934 28.4152 21.2408 28.3582C21.2842 28.3726 21.3244 28.3566 21.3621 28.3405C21.6337 28.2272 21.9078 28.1179 22.1746 27.9934C22.4028 27.8881 22.6406 27.7997 22.8528 27.6607C22.9653 27.6366 23.0561 27.5715 23.1469 27.5072C23.1268 27.4911 23.1083 27.475 23.0882 27.4606C23.0858 27.4469 23.0834 27.4349 23.081 27.422C23.0834 27.4349 23.0858 27.4469 23.0882 27.4606C23.1083 27.475 23.1268 27.4911 23.1469 27.5072C23.2401 27.4887 23.3148 27.4373 23.3855 27.3778C23.3598 27.3746 23.3349 27.3682 23.3172 27.3513C23.3349 27.3682 23.3598 27.3746 23.3855 27.3778C23.4104 27.3746 23.4313 27.3658 23.445 27.3433C23.5141 27.3264 23.5744 27.2959 23.6234 27.2428C23.6869 27.2412 23.7335 27.2083 23.7721 27.1609C23.8428 27.1408 23.9014 27.1006 23.9561 27.0548L23.9521 27.0492L23.9561 27.0548C23.9906 27.0451 24.0236 27.0331 24.0437 27.0001C24.0911 26.9817 24.1393 26.9624 24.1738 26.9206C24.3932 26.7952 24.6206 26.6795 24.8038 26.4987C24.8038 26.4987 24.8095 26.4955 24.8095 26.4947C24.8617 26.5027 24.893 26.4706 24.9212 26.4336C25.0063 26.3951 25.0811 26.3404 25.1462 26.2745C25.3446 26.1668 25.5158 26.0222 25.687 25.8776C25.7488 25.8567 25.7995 25.8229 25.83 25.7642C25.8991 25.7393 25.9481 25.6863 26.0028 25.6421C26.5452 25.205 27.0571 24.7365 27.5408 24.2367C29.2846 22.4342 30.5711 20.3538 31.3393 17.9624C31.8865 16.2572 32.1163 14.5086 31.9821 12.7215C31.9018 11.6479 32.0062 10.6009 32.2923 9.56666C32.3486 9.36255 32.4474 9.1713 32.4755 8.95916L32.4715 8.95353C32.5623 8.83943 32.6033 8.70362 32.6371 8.56541C32.6716 8.5421 32.678 8.50594 32.6788 8.46898C32.7512 8.38139 32.7889 8.27934 32.8154 8.17166L32.8179 8.17005C32.8958 8.05755 32.9641 7.93942 33.0115 7.81005C33.0613 7.76103 33.0871 7.69996 33.1023 7.63326C33.1554 7.58666 33.1915 7.52719 33.2148 7.45969C33.2245 7.44362 33.2333 7.42755 33.2421 7.41148C33.2815 7.37693 33.3048 7.33353 33.3153 7.28291C33.4109 7.15835 33.4736 7.02014 33.4848 6.86184C33.5555 6.64728 33.5965 6.43192 33.525 6.21014C33.529 6.13942 33.5379 6.06871 33.4921 6.00603C33.4961 5.97309 33.4896 5.94255 33.4679 5.91523C33.4334 5.77059 33.3836 5.63237 33.2831 5.51746C33.1578 5.27719 32.9721 5.09559 32.7351 4.96621L32.7295 4.96701C32.6957 4.9188 32.6451 4.89951 32.5904 4.88666C32.5398 4.84648 32.4876 4.81032 32.4193 4.81032C32.3237 4.75407 32.2248 4.71871 32.1123 4.73157C32.0786 4.71791 32.0448 4.72273 32.0119 4.72755C31.9918 4.72996 31.9725 4.73237 31.9532 4.73076C31.9428 4.70987 31.9307 4.693 31.9034 4.70103C31.8721 4.69943 31.8415 4.69701 31.811 4.69541C31.7885 4.69701 31.766 4.69782 31.7435 4.69943C31.7338 4.72353 31.7218 4.74764 31.7129 4.77255C31.7218 4.74764 31.733 4.72353 31.7427 4.69943C31.7105 4.70023 31.6784 4.70184 31.6462 4.70184C31.6053 4.70184 31.5651 4.70344 31.5241 4.70344C31.4968 4.693 31.4695 4.6946 31.4421 4.70746C31.2726 4.693 31.1022 4.68978 30.9319 4.69782C30.9021 4.69701 30.8716 4.69541 30.8419 4.6946C30.7583 4.68978 30.6755 4.68576 30.5904 4.68014C30.5896 4.69621 30.5888 4.71309 30.5871 4.72835C30.5888 4.71309 30.5896 4.69621 30.5904 4.68014C30.4401 4.63032 30.2802 4.6488 30.1259 4.61585L29.3521 4.47925C29.3263 4.47282 29.3014 4.46639 29.2765 4.45996C29.2749 4.4688 29.2717 4.47684 29.2677 4.48487C29.2717 4.47684 29.2749 4.4688 29.2765 4.45996L28.9254 4.36112C28.7285 4.29764 28.5292 4.23496 28.3307 4.17148C28.2102 4.11684 28.0937 4.05255 27.9691 4.01237C27.8783 3.98184 27.802 3.90309 27.6951 3.92639C27.6806 3.92318 27.6646 3.92076 27.6501 3.91755C27.6477 3.89585 27.6412 3.87737 27.6163 3.87175C27.5673 3.82514 27.5071 3.79943 27.442 3.78335C27.2547 3.67969 27.0683 3.57523 26.8819 3.47157C26.7758 3.40005 26.6746 3.31969 26.5532 3.27068C26.4664 3.20478 26.3901 3.12603 26.2848 3.08666C26.2318 3.04568 26.1884 2.98862 26.1137 2.983C26.0566 2.9171 25.9827 2.87853 25.9023 2.85121C25.5375 2.59728 25.1389 2.40362 24.7404 2.21398C24.4688 2.08541 24.202 1.94076 23.9071 1.86684L23.9054 1.87326C23.9006 1.84112 23.8789 1.83791 23.854 1.83951C23.4844 1.67076 23.0995 1.543 22.7057 1.44576C22.6977 1.43371 22.6848 1.42889 22.6712 1.4305C22.6181 1.41121 22.5667 1.38791 22.5121 1.37344C21.6008 1.11951 20.6735 0.945943 19.7325 0.863175C19.2921 0.825407 18.8526 0.805318 18.4122 0.803711H18.3037ZM17.4769 29.1923C17.4986 29.222 17.5082 29.259 17.509 29.2984C17.5082 29.259 17.4986 29.222 17.4769 29.1923Z" fill="url(#paint0_linear_1126_14383)"/>
</g>
<mask id="mask3_1126_14383" style="mask-type:alpha" maskUnits="userSpaceOnUse" x="2" y="0" width="32" height="13">
<path fill-rule="evenodd" clip-rule="evenodd" d="M18.3038 0.803711C17.767 0.805318 17.2302 0.834247 16.6934 0.889693C15.6246 0.998979 14.576 1.2055 13.549 1.51889C11.0178 2.28951 8.76858 3.56157 6.81027 5.33987C4.96447 7.01612 3.55501 9.00255 2.62206 11.3192C2.52322 11.5643 2.43161 11.811 2.34644 12.0593H31.9556C31.9532 11.2164 32.0649 10.3871 32.2923 9.56666C32.3486 9.36255 32.4474 9.1713 32.4755 8.95916L32.4715 8.95353C32.5623 8.83943 32.6033 8.70362 32.6371 8.56541C32.6716 8.5421 32.678 8.50594 32.6788 8.46898C32.7512 8.38139 32.7889 8.27934 32.8155 8.17166L32.8179 8.17005C32.8958 8.05755 32.9641 7.93942 33.0115 7.81005C33.0613 7.76103 33.0871 7.69996 33.1023 7.63326C33.1554 7.58666 33.1915 7.52719 33.2148 7.45969C33.2245 7.44362 33.2333 7.42755 33.2421 7.41148C33.2815 7.37693 33.3048 7.33353 33.3153 7.28291C33.4109 7.15835 33.4736 7.02014 33.4848 6.86184C33.5555 6.64728 33.5965 6.43192 33.525 6.21014C33.529 6.13942 33.5379 6.06871 33.4921 6.00603C33.4961 5.97309 33.4896 5.94255 33.468 5.91523C33.4334 5.77059 33.3836 5.63237 33.2831 5.51746C33.1578 5.27719 32.9721 5.09559 32.7351 4.96621L32.7295 4.96701C32.6957 4.9188 32.6451 4.89951 32.5905 4.88666C32.5398 4.84648 32.4876 4.81032 32.4193 4.81032C32.3237 4.75407 32.2248 4.71871 32.1123 4.73157C32.0786 4.71791 32.0448 4.72273 32.0119 4.72755C31.9918 4.72996 31.9725 4.73237 31.9532 4.73076C31.9428 4.70987 31.9307 4.693 31.9034 4.70103C31.8721 4.69943 31.8415 4.69701 31.811 4.69541C31.7885 4.69701 31.766 4.69782 31.7435 4.69943C31.7338 4.72353 31.7218 4.74764 31.713 4.77255C31.7218 4.74764 31.733 4.72353 31.7427 4.69943C31.7105 4.70023 31.6784 4.70184 31.6463 4.70184C31.6053 4.70184 31.5651 4.70344 31.5241 4.70344C31.4968 4.693 31.4695 4.6946 31.4422 4.70746C31.2726 4.693 31.1022 4.68978 30.9319 4.69782C30.9022 4.69701 30.8716 4.69541 30.8419 4.6946C30.7583 4.68978 30.6755 4.68576 30.5904 4.68014C30.5896 4.69621 30.5888 4.71309 30.5872 4.72835C30.5888 4.71309 30.5896 4.69621 30.5904 4.68014C30.4401 4.63032 30.2802 4.6488 30.1259 4.61585L29.3521 4.47925C29.3263 4.47282 29.3014 4.46639 29.2765 4.45996C29.2749 4.4688 29.2717 4.47684 29.2677 4.48487C29.2717 4.47684 29.2749 4.4688 29.2765 4.45996L28.9254 4.36112C28.7285 4.29764 28.5292 4.23496 28.3307 4.17148C28.2102 4.11684 28.0937 4.05255 27.9691 4.01237C27.8783 3.98184 27.802 3.90309 27.6951 3.92639C27.6806 3.92318 27.6646 3.92076 27.6501 3.91755C27.6477 3.89585 27.6413 3.87737 27.6163 3.87175C27.5673 3.82514 27.5071 3.79943 27.442 3.78335C27.2547 3.67969 27.0683 3.57523 26.8819 3.47157C26.7758 3.40005 26.6746 3.31969 26.5532 3.27068C26.4664 3.20478 26.3901 3.12603 26.2848 3.08666C26.2318 3.04568 26.1884 2.98862 26.1137 2.983C26.0566 2.9171 25.9827 2.87853 25.9023 2.85121C25.5375 2.59728 25.1389 2.40362 24.7404 2.21398C24.4688 2.08541 24.202 1.94076 23.9071 1.86684L23.9055 1.87326C23.9006 1.84112 23.8789 1.83791 23.854 1.83951C23.4844 1.67076 23.0995 1.543 22.7057 1.44576C22.6977 1.43371 22.6848 1.42889 22.6712 1.4305C22.6181 1.41121 22.5667 1.38791 22.5121 1.37344C21.6008 1.11951 20.6735 0.945943 19.7325 0.863175C19.2922 0.825407 18.8526 0.805318 18.4122 0.803711H18.3038Z" fill="white"/>
</mask>
<g mask="url(#mask3_1126_14383)">
<path fill-rule="evenodd" clip-rule="evenodd" d="M18.3038 0.803711C17.767 0.805318 17.2302 0.834247 16.6934 0.889693C15.6246 0.998979 14.576 1.2055 13.549 1.51889C11.0178 2.28951 8.76858 3.56157 6.81027 5.33987C4.96447 7.01612 3.55501 9.00255 2.62206 11.3192C2.52322 11.5643 2.43161 11.811 2.34644 12.0593H31.9556C31.9532 11.2164 32.0649 10.3871 32.2923 9.56666C32.3486 9.36255 32.4474 9.1713 32.4755 8.95916L32.4715 8.95353C32.5623 8.83943 32.6033 8.70362 32.6371 8.56541C32.6716 8.5421 32.678 8.50594 32.6788 8.46898C32.7512 8.38139 32.7889 8.27934 32.8155 8.17166L32.8179 8.17005C32.8958 8.05755 32.9641 7.93942 33.0115 7.81005C33.0613 7.76103 33.0871 7.69996 33.1023 7.63326C33.1554 7.58666 33.1915 7.52719 33.2148 7.45969C33.2245 7.44362 33.2333 7.42755 33.2421 7.41148C33.2815 7.37693 33.3048 7.33353 33.3153 7.28291C33.4109 7.15835 33.4736 7.02014 33.4848 6.86184C33.5555 6.64728 33.5965 6.43192 33.525 6.21014C33.529 6.13942 33.5379 6.06871 33.4921 6.00603C33.4961 5.97309 33.4896 5.94255 33.468 5.91523C33.4334 5.77059 33.3836 5.63237 33.2831 5.51746C33.1578 5.27719 32.9721 5.09559 32.7351 4.96621L32.7295 4.96701C32.6957 4.9188 32.6451 4.89951 32.5905 4.88666C32.5398 4.84648 32.4876 4.81032 32.4193 4.81032C32.3237 4.75407 32.2248 4.71871 32.1123 4.73157C32.0786 4.71791 32.0448 4.72273 32.0119 4.72755C31.9918 4.72996 31.9725 4.73237 31.9532 4.73076C31.9428 4.70987 31.9307 4.693 31.9034 4.70103C31.8721 4.69943 31.8415 4.69701 31.811 4.69541C31.7885 4.69701 31.766 4.69782 31.7435 4.69943C31.7338 4.72353 31.7218 4.74764 31.713 4.77255C31.7218 4.74764 31.733 4.72353 31.7427 4.69943C31.7105 4.70023 31.6784 4.70184 31.6463 4.70184C31.6053 4.70184 31.5651 4.70344 31.5241 4.70344C31.4968 4.693 31.4695 4.6946 31.4422 4.70746C31.2726 4.693 31.1022 4.68978 30.9319 4.69782C30.9022 4.69701 30.8716 4.69541 30.8419 4.6946C30.7583 4.68978 30.6755 4.68576 30.5904 4.68014C30.5896 4.69621 30.5888 4.71309 30.5872 4.72835C30.5888 4.71309 30.5896 4.69621 30.5904 4.68014C30.4401 4.63032 30.2802 4.6488 30.1259 4.61585L29.3521 4.47925C29.3263 4.47282 29.3014 4.46639 29.2765 4.45996C29.2749 4.4688 29.2717 4.47684 29.2677 4.48487C29.2717 4.47684 29.2749 4.4688 29.2765 4.45996L28.9254 4.36112C28.7285 4.29764 28.5292 4.23496 28.3307 4.17148C28.2102 4.11684 28.0937 4.05255 27.9691 4.01237C27.8783 3.98184 27.802 3.90309 27.6951 3.92639C27.6806 3.92318 27.6646 3.92076 27.6501 3.91755C27.6477 3.89585 27.6413 3.87737 27.6163 3.87175C27.5673 3.82514 27.5071 3.79943 27.442 3.78335C27.2547 3.67969 27.0683 3.57523 26.8819 3.47157C26.7758 3.40005 26.6746 3.31969 26.5532 3.27068C26.4664 3.20478 26.3901 3.12603 26.2848 3.08666C26.2318 3.04568 26.1884 2.98862 26.1137 2.983C26.0566 2.9171 25.9827 2.87853 25.9023 2.85121C25.5375 2.59728 25.1389 2.40362 24.7404 2.21398C24.4688 2.08541 24.202 1.94076 23.9071 1.86684L23.9055 1.87326C23.9006 1.84112 23.8789 1.83791 23.854 1.83951C23.4844 1.67076 23.0995 1.543 22.7057 1.44576C22.6977 1.43371 22.6848 1.42889 22.6712 1.4305C22.6181 1.41121 22.5667 1.38791 22.5121 1.37344C21.6008 1.11951 20.6735 0.945943 19.7325 0.863175C19.2922 0.825407 18.8526 0.805318 18.4122 0.803711H18.3038Z" fill="url(#paint1_linear_1126_14383)"/>
</g>
<defs>
<linearGradient id="paint0_linear_1126_14383" x1="5.53535" y1="15.1638" x2="2.69663" y2="27.5942" gradientUnits="userSpaceOnUse">
<stop stop-color="#97DF13"/>
<stop offset="0.578808" stop-color="#6CBF24"/>
<stop offset="1" stop-color="#057D46"/>
</linearGradient>
<linearGradient id="paint1_linear_1126_14383" x1="20.1388" y1="0.0487898" x2="19.5606" y2="6.02574" gradientUnits="userSpaceOnUse">
<stop stop-color="#069553"/>
<stop offset="0.357381" stop-color="#6CBF24"/>
<stop offset="1" stop-color="#96DC14"/>
</linearGradient>
</defs>
</svg>
