<svg width="258" height="120" viewBox="0 0 258 120" fill="none" xmlns="http://www.w3.org/2000/svg">
<path fill-rule="evenodd" clip-rule="evenodd" d="M170.579 47.9946C170.587 47.5414 170.566 47.0898 170.482 46.6398C170.103 44.565 169.004 43.0542 167.029 42.2266C166.121 41.8473 165.164 41.7444 164.192 41.8344C161.921 42.0466 160.261 43.1491 159.398 45.2898C158.721 46.9692 158.726 48.6969 159.305 50.4085C159.835 51.9771 160.888 53.0748 162.432 53.6758C163.888 54.2448 165.375 54.2625 166.845 53.7482C168.531 53.1583 169.655 51.9851 170.232 50.2944C170.486 49.5503 170.6 48.7821 170.579 47.9946ZM176.705 49.531C176.618 51.0916 176.133 52.5316 175.371 53.88C174.131 56.0801 172.263 57.5603 169.954 58.5262C168.03 59.3298 166.019 59.5612 163.954 59.4808C161.858 59.4021 159.896 58.8605 158.078 57.8223C155.306 56.2408 153.603 53.8607 152.95 50.7508C152.486 48.5362 152.543 46.3183 153.215 44.1487C154.197 40.9891 156.285 38.8194 159.298 37.5016C161.224 36.6578 163.241 36.3782 165.322 36.4441C167.265 36.5051 169.11 36.9391 170.846 37.823C174.16 39.5089 176.066 42.2121 176.675 45.8571C176.708 46.0644 176.699 46.2814 176.707 46.4919C176.689 46.68 176.681 46.8664 176.786 47.0367V48.9091C176.667 49.1035 176.694 49.3189 176.705 49.531Z" fill="#242424"/>
<mask id="mask0_1060_43679" style="mask-type:alpha" maskUnits="userSpaceOnUse" x="175" y="48" width="2" height="3">
<path fill-rule="evenodd" clip-rule="evenodd" d="M175.937 48.4462H176.786V50.0533H175.937V48.4462Z" fill="white"/>
</mask>
<g mask="url(#mask0_1060_43679)">
<path fill-rule="evenodd" clip-rule="evenodd" d="M176.704 49.531C176.693 49.3188 176.667 49.1035 176.786 48.909V49.5905C176.757 49.5696 176.732 49.5519 176.704 49.531Z" fill="#4FAE2C"/>
</g>
<mask id="mask1_1060_43679" style="mask-type:alpha" maskUnits="userSpaceOnUse" x="175" y="45" width="2" height="3">
<path fill-rule="evenodd" clip-rule="evenodd" d="M175.938 45.9355H176.786V47.5427H175.938V45.9355Z" fill="white"/>
</mask>
<g mask="url(#mask1_1060_43679)">
<path fill-rule="evenodd" clip-rule="evenodd" d="M176.786 47.0372C176.682 46.8669 176.688 46.6788 176.707 46.4924C176.735 46.4747 176.759 46.4587 176.786 46.441V47.0372Z" fill="#4FAE2C"/>
</g>
<path fill-rule="evenodd" clip-rule="evenodd" d="M101.666 69.0005C101.666 69.8362 101.67 70.6719 101.663 71.5076C101.662 71.7069 101.69 71.8194 101.936 71.8146C102.872 71.8001 103.807 71.8306 104.742 71.7969C105.57 71.7663 106.322 71.4819 106.957 70.9322C108.167 69.8844 108.175 68.2017 106.973 67.1426C106.356 66.5994 105.622 66.3037 104.807 66.2747C103.857 66.2394 102.907 66.2538 101.957 66.2538C101.674 66.2538 101.668 66.2635 101.668 66.5769C101.665 67.3853 101.666 68.1921 101.666 69.0005ZM109.207 74.9324C110.186 76.8771 111.61 78.1338 113.791 78.3781C114.135 78.4167 114.139 78.4183 114.139 78.759C114.141 80.3758 114.141 81.9942 114.139 83.6126C114.139 83.9694 114.135 83.979 113.754 83.9694C110.777 83.8954 108.187 82.8733 106.036 80.7921C104.744 79.5433 103.768 78.0744 103.063 76.4255C102.947 76.1538 102.815 76.014 102.507 76.0558C102.298 76.0831 102.081 76.0655 101.869 76.0606C101.726 76.0574 101.66 76.1169 101.666 76.2615C101.671 76.3596 101.666 76.4592 101.666 76.5588V83.1996C101.666 83.2847 101.66 83.3683 101.668 83.4535C101.686 83.648 101.623 83.754 101.406 83.7235C101.337 83.7138 101.265 83.7219 101.194 83.7219H95.7408C95.6428 83.7219 95.5415 83.7203 95.4435 83.7219C95.3197 83.7235 95.2635 83.6624 95.2667 83.5419C95.2683 83.4406 95.2667 83.3426 95.2667 83.243V62.2585C95.2667 62.1878 95.2715 62.1171 95.2651 62.0463C95.2442 61.8535 95.3053 61.7426 95.5206 61.7715C95.5479 61.7747 95.5785 61.7715 95.6058 61.7715C98.9712 61.7747 102.337 61.7522 105.702 61.7892C107.45 61.8085 109.138 62.1749 110.687 63.0347C112.396 63.9846 113.561 65.3667 114.037 67.284C114.295 68.3303 114.319 69.3894 114.072 70.4437C113.76 71.776 113.013 72.811 111.901 73.5937C111.19 74.0951 110.416 74.4776 109.604 74.7862C109.487 74.8312 109.368 74.8746 109.207 74.9324Z" fill="#242424"/>
<path fill-rule="evenodd" clip-rule="evenodd" d="M91.8868 49.6189C90.7152 50.0207 89.6111 50.3309 88.4829 50.5559C87.1715 50.8162 85.8552 51.0059 84.5181 51.0589C84.126 51.0718 84.1035 50.9753 84.1035 51.48C84.1051 53.8055 84.1051 56.1343 84.1035 58.4598C84.1035 58.9982 84.1533 58.9291 83.6197 58.9291C81.8165 58.9323 80.0133 58.9307 78.2101 58.9307C78.1393 58.9307 78.067 58.9243 77.9979 58.9307C77.7906 58.9532 77.6685 58.8905 77.699 58.6543C77.7086 58.5835 77.7006 58.5112 77.7006 58.4405C77.7006 51.4478 77.7006 44.4519 77.7022 37.4593C77.7022 36.9257 77.6331 36.9852 78.1763 36.9852C80.0213 36.9819 81.8679 36.9835 83.7129 36.9835C84.1308 36.9835 84.1035 36.9369 84.1035 37.3693C84.1051 40.148 84.1018 42.93 84.1051 45.7103C84.1067 46.1668 83.9926 46.1973 84.6001 46.1635C86.9915 46.0302 89.3186 45.5512 91.6008 44.8296C91.8804 44.7412 91.8885 44.5805 91.8885 44.3587C91.8852 42.0605 91.8852 39.7607 91.8885 37.4641C91.8885 36.9096 91.8306 36.9852 92.3593 36.9852C94.1915 36.9819 96.022 36.9835 97.8542 36.9835C97.9522 36.9835 98.0518 36.9835 98.1499 36.9852C98.2543 36.9884 98.3042 37.0414 98.3026 37.1443C98.3026 37.2439 98.3042 37.3435 98.3042 37.4432V58.4694C98.3042 58.958 98.3604 58.9307 97.851 58.9307H92.3561C92.271 58.9307 92.1858 58.9275 92.1006 58.9307C91.9624 58.9355 91.8868 58.8793 91.8885 58.7346C91.8885 58.6205 91.8868 58.5064 91.8868 58.3939V50.1364V49.6189Z" fill="#242424"/>
<path fill-rule="evenodd" clip-rule="evenodd" d="M169.984 74.39C169.365 74.5748 168.803 74.758 168.231 74.9139C166.378 75.4218 164.491 75.7271 162.572 75.8155C162.214 75.83 162.21 75.83 162.21 76.198C162.209 78.5091 162.21 80.8234 162.21 83.1345C162.21 83.2196 162.199 83.3064 162.212 83.39C162.247 83.6262 162.128 83.6729 161.918 83.6729C159.973 83.6664 158.03 83.6648 156.086 83.6745C155.844 83.6761 155.79 83.5829 155.812 83.3771C155.82 83.2936 155.814 83.2068 155.814 83.1232V62.2673C155.814 62.1821 155.822 62.097 155.812 62.0134C155.775 61.7739 155.896 61.7354 156.103 61.7354C158.033 61.7418 159.965 61.7402 161.895 61.7386C162.27 61.7386 162.21 61.7868 162.21 62.1227V70.3802C162.21 70.9314 162.21 70.9266 162.754 70.9009C165.122 70.7916 167.416 70.2934 169.669 69.5814C170.008 69.4737 169.982 69.5589 169.982 69.1427C169.986 66.8461 169.984 64.5462 169.984 62.248C169.984 62.15 169.989 62.0487 169.984 61.9507C169.976 61.8125 170.024 61.7337 170.174 61.7402C170.246 61.7434 170.317 61.7386 170.387 61.7386H176.009C176.409 61.7386 176.384 61.7145 176.384 62.1002V83.2952C176.384 83.7114 176.411 83.668 175.98 83.6696C174.121 83.6696 172.261 83.668 170.402 83.6696C169.928 83.6696 169.984 83.6696 169.984 83.2614V74.9187V74.39Z" fill="#242424"/>
<path fill-rule="evenodd" clip-rule="evenodd" d="M152.054 65.6449C150.526 66.4565 149.023 67.2505 147.515 68.0492C147.479 67.9801 147.446 67.9335 147.43 67.8805C147.082 66.6526 146.227 65.9551 145.034 65.6465C144.124 65.4103 143.202 65.4023 142.305 65.6964C141.577 65.9358 141.026 66.3714 140.883 67.1814C140.778 67.776 140.957 68.2758 141.424 68.6599C141.836 68.999 142.313 69.2096 142.829 69.3414C144.038 69.6515 145.267 69.8589 146.49 70.1048C147.602 70.3281 148.705 70.5949 149.782 70.9549C150.953 71.3471 151.934 72.0285 152.74 72.9574C153.264 73.5617 153.573 74.2705 153.722 75.0499C153.997 76.4723 153.934 77.8721 153.377 79.2253C152.7 80.8646 151.475 81.9848 149.933 82.7883C148.581 83.4906 147.133 83.8619 145.621 84.0049C143.798 84.1785 141.992 84.0981 140.214 83.6385C138.384 83.1644 136.735 82.3528 135.399 80.9787C134.801 80.3599 134.287 79.6014 134.067 78.9842C135.709 78.1131 137.357 77.2405 139.007 76.3678C139.051 76.4305 139.086 76.461 139.096 76.4996C139.47 77.9123 140.422 78.7849 141.76 79.2494C143.105 79.7155 144.48 79.783 145.86 79.3844C146.341 79.2462 146.784 79.0196 147.144 78.6628C147.908 77.9026 147.814 76.7792 146.94 76.1589C146.362 75.749 145.701 75.5385 145.02 75.389C143.69 75.0998 142.358 74.8281 141.029 74.5356C140.225 74.3605 139.435 74.1323 138.66 73.859C137.537 73.4621 136.598 72.7983 135.811 71.9112C135.218 71.2458 134.89 70.4551 134.748 69.584C134.52 68.1698 134.615 66.7812 135.176 65.4537C135.968 63.5765 137.41 62.3857 139.284 61.6801C140.905 61.0694 142.593 60.9183 144.309 61.034C145.707 61.1289 147.061 61.4214 148.334 62.0257C149.83 62.736 151.061 63.7485 151.872 65.2223C151.919 65.309 151.962 65.399 152.004 65.4874C152.02 65.526 152.03 65.5678 152.054 65.6449Z" fill="#242424"/>
<path fill-rule="evenodd" clip-rule="evenodd" d="M101.02 47.9301V37.4596C101.02 36.9132 100.975 36.9903 101.502 36.9903C106.498 36.9887 111.496 36.9887 116.493 36.9903C117.031 36.9903 116.969 36.9341 116.969 37.4676C116.972 38.8144 116.97 40.1628 116.969 41.5112C116.969 41.9001 116.967 41.9033 116.577 41.9033H107.716C107.631 41.9033 107.546 41.9017 107.461 41.9033C107.143 41.9098 107.138 41.9098 107.136 42.236C107.135 43.2582 107.135 44.2803 107.136 45.3008C107.138 45.6576 107.143 45.6592 107.52 45.6592C109.949 45.6608 112.376 45.6608 114.804 45.6608C114.916 45.6608 115.031 45.6625 115.145 45.6608C115.249 45.6608 115.299 45.7107 115.297 45.8151C115.296 45.8714 115.297 45.9292 115.297 45.9855C115.297 47.1619 115.299 48.34 115.297 49.518C115.297 49.8683 115.294 49.8716 114.915 49.8716H107.716C107.631 49.8716 107.548 49.87 107.463 49.8716C107.144 49.878 107.138 49.8796 107.136 50.2075C107.135 51.3566 107.135 52.5057 107.136 53.6548C107.138 54.0067 107.143 54.0083 107.524 54.01H116.297C116.866 54.01 116.866 54.01 116.866 54.5676V58.526C116.866 59.0066 116.88 58.9471 116.416 58.9471C114.43 58.9487 112.441 58.9471 110.453 58.9471H101.595C101.51 58.9471 101.425 58.9487 101.339 58.9471C101.026 58.9423 101.021 58.9423 101.021 58.6112C101.018 57.266 101.02 55.9176 101.02 54.5692V47.9301Z" fill="#242424"/>
<path fill-rule="evenodd" clip-rule="evenodd" d="M116.714 72.6794C116.714 69.1887 116.713 65.6996 116.716 62.2105C116.716 61.6801 116.64 61.7396 117.193 61.7396C122.047 61.738 126.902 61.738 131.756 61.738C131.841 61.738 131.927 61.7476 132.013 61.738C132.21 61.7155 132.244 61.8167 132.244 61.9887C132.239 63.4496 132.234 64.9105 132.247 66.3714C132.251 66.6317 132.128 66.6333 131.94 66.6333C130.576 66.6301 129.213 66.6317 127.852 66.6317C126.304 66.6317 124.756 66.6301 123.209 66.6317C122.844 66.6317 122.842 66.6349 122.842 67.003C122.841 68.0251 122.841 69.044 122.842 70.0662C122.842 70.3828 122.846 70.3876 123.169 70.3876C125.61 70.3892 128.051 70.3876 130.492 70.3892C131.077 70.3892 131.008 70.3314 131.01 70.9164C131.011 72.0092 131.01 73.1021 131.01 74.1933C131.01 74.6482 131.029 74.6128 130.6 74.6128C128.172 74.6128 125.745 74.6112 123.316 74.6144C122.778 74.6144 122.844 74.5373 122.842 75.0853C122.839 76.1621 122.841 77.2405 122.842 78.3189C122.842 78.7801 122.791 78.7319 123.246 78.7319C126.142 78.7335 129.039 78.7319 131.936 78.7319H132.189C132.556 78.7367 132.559 78.7367 132.559 79.1048C132.561 80.5094 132.561 81.9124 132.559 83.3171C132.559 83.6642 132.556 83.669 132.217 83.669C127.162 83.6707 122.108 83.6707 117.055 83.669C116.716 83.669 116.714 83.6642 116.714 83.2753V72.6794Z" fill="#242424"/>
<path fill-rule="evenodd" clip-rule="evenodd" d="M77.7 72.695V62.3948V62.1826C77.7016 61.7326 77.6679 61.7712 78.1163 61.7712H90.4672C91.2627 61.7712 92.0582 61.7696 92.8538 61.7728C93.1527 61.7744 93.1607 61.7792 93.1607 62.0798C93.164 63.6676 93.164 65.2571 93.1607 66.845C93.1607 67.1294 93.1527 67.1342 92.8409 67.1342C91.0666 67.1375 89.2923 67.1359 87.5165 67.1359H84.4934C84.0563 67.1359 84.09 67.1037 84.09 67.5585V71.0492C84.09 71.4526 84.0563 71.4462 84.4806 71.4462C86.5682 71.4446 88.6527 71.4446 90.7404 71.4446C90.8256 71.4446 90.9124 71.443 90.9959 71.4462C91.2981 71.4542 91.3045 71.4542 91.3061 71.7516C91.3093 72.4748 91.3077 73.198 91.3077 73.9228C91.3077 74.5191 91.3093 75.1153 91.3061 75.71C91.3045 76.0716 91.3029 76.0748 90.9284 76.0748C88.8279 76.0764 86.7257 76.0732 84.6252 76.0764C84.0081 76.0764 84.0932 75.988 84.0916 76.6212C84.0884 78.7925 84.09 80.9637 84.09 83.1334C84.09 83.233 84.0836 83.331 84.0916 83.4307C84.1029 83.5946 84.0354 83.6573 83.8715 83.6541C83.5597 83.6444 83.2463 83.6509 82.9345 83.6509C81.3579 83.6509 79.7829 83.6541 78.2063 83.6509C77.6245 83.6492 77.7016 83.72 77.7016 83.1655C77.6984 79.6748 77.7 76.1841 77.7 72.695Z" fill="#242424"/>
<path fill-rule="evenodd" clip-rule="evenodd" d="M136.757 47.9475V37.5654V37.3532C136.76 36.9884 136.76 36.9836 137.126 36.9836H142.79C143.171 36.9836 143.158 36.9482 143.158 37.35C143.156 40.6832 143.156 44.0164 143.156 47.3497V53.0502C143.156 53.1482 143.161 53.2495 143.158 53.3475C143.153 53.4938 143.227 53.5516 143.367 53.5468C143.467 53.5452 143.565 53.5484 143.664 53.5484H151.327C151.414 53.5484 151.499 53.5452 151.584 53.5484C151.886 53.558 151.891 53.558 151.893 53.8538C151.896 54.5625 151.894 55.2729 151.894 55.9816C151.894 56.8607 151.896 57.7398 151.893 58.6205C151.891 58.9211 151.885 58.9259 151.589 58.9291C151.091 58.9339 150.594 58.9307 150.098 58.9307H137.326C137.212 58.9307 137.097 58.9259 136.985 58.9307C136.826 58.9388 136.744 58.8793 136.757 58.7105C136.763 58.6125 136.757 58.5113 136.757 58.4132V47.9475Z" fill="#242424"/>
<path fill-rule="evenodd" clip-rule="evenodd" d="M119.422 47.9209C119.422 44.4318 119.422 40.9427 119.423 37.4536C119.423 36.9087 119.364 36.9843 119.901 36.9843C121.718 36.9811 123.534 36.9827 125.35 36.9827C125.45 36.9827 125.55 36.9859 125.649 36.9827C125.77 36.9795 125.833 37.0309 125.829 37.1578C125.826 37.272 125.829 37.3845 125.829 37.4986C125.829 42.6896 125.829 47.8807 125.831 53.0718C125.831 53.5796 125.747 53.5491 126.307 53.5491C128.862 53.5507 131.417 53.5507 133.971 53.5507C134.071 53.5507 134.17 53.5587 134.269 53.5491C134.468 53.5298 134.542 53.6021 134.539 53.8111C134.527 54.5487 134.534 55.2864 134.534 56.0241C134.534 56.8743 134.535 57.7277 134.534 58.5778C134.532 58.925 134.529 58.9298 134.188 58.9298C133.037 58.933 131.888 58.9314 130.738 58.9314H120.008H119.838C119.425 58.9282 119.423 58.9282 119.423 58.5152C119.422 54.9843 119.422 51.4518 119.422 47.9209Z" fill="#242424"/>
<mask id="mask2_1060_43679" style="mask-type:alpha" maskUnits="userSpaceOnUse" x="0" y="31" width="68" height="59">
<path fill-rule="evenodd" clip-rule="evenodd" d="M36.6075 31.6072C35.5339 31.6104 34.4604 31.6682 33.3868 31.7791C31.2493 31.9977 29.152 32.4107 27.098 33.0375C22.0355 34.5788 17.5371 37.1229 13.6205 40.6795C9.92893 44.032 7.11 48.0049 5.24411 52.6382C4.23804 55.1357 3.57911 57.7232 3.30107 60.4072C3.13714 61.9774 3.10179 63.5475 3.21268 65.1209C3.31071 66.5111 3.29946 67.8981 3.06964 69.2786C2.98607 69.78 2.89446 70.2815 2.80446 70.7829C2.71446 70.9115 2.71125 71.0609 2.70643 71.2088C2.62446 71.2522 2.63571 71.3325 2.63732 71.4097C2.62286 71.4466 2.61 71.4852 2.59554 71.5238C2.49107 71.8468 2.34964 72.157 2.29179 72.4929C2.07804 72.9991 1.86268 73.5054 1.65054 74.01C1.64089 74.0422 1.63446 74.0727 1.62643 74.1016C1.48339 74.3218 1.35482 74.5516 1.27607 74.8024C1.18607 74.849 1.17321 74.9406 1.14911 75.0241C0.848571 75.5208 0.503036 75.9949 0.300536 76.5477C0.239464 76.6602 0.181607 76.7727 0.183214 76.9045C0.149464 76.9881 0.141429 77.0716 0.155893 77.16C0.0996429 77.1841 0.0883929 77.2838 0 77.2581V78.2818C0.220179 78.4216 0.160714 78.69 0.268393 78.8813C0.265179 78.9504 0.2925 79.0066 0.340714 79.0532C0.345536 79.0822 0.351964 79.1143 0.358393 79.1465C0.379286 79.2445 0.419464 79.3329 0.504643 79.394C0.588214 79.7041 0.800357 79.9259 1.02214 80.1397C1.31786 80.4209 1.58625 80.7359 2.0025 80.8516C2.19214 80.9802 2.39946 81.0734 2.6325 81.0991C2.64375 81.1232 2.65982 81.1313 2.68393 81.1232C2.77714 81.1811 2.87518 81.1908 2.98125 81.1747C3.12107 81.2599 3.27857 81.2486 3.43607 81.2454C3.71893 81.2422 4.00018 81.2422 4.28304 81.2341C5.16214 81.2149 6.03964 81.2727 6.91071 81.374L6.93482 81.3965L6.96696 81.39C7.93929 81.5668 8.90357 81.7725 9.84375 82.0699C9.99482 82.1341 10.1395 82.2145 10.3114 82.2033C10.4673 82.3334 10.6698 82.3656 10.8514 82.4347C11.3963 82.634 11.8961 82.9297 12.4377 83.1338H12.4425C12.5373 83.2125 12.6305 83.2993 12.7671 83.2945C12.8121 83.3572 12.8684 83.3957 12.9455 83.4006C13.1239 83.5565 13.328 83.6674 13.5418 83.759C13.553 83.8024 13.582 83.8152 13.6254 83.8088C13.8568 83.9904 14.1075 84.1495 14.3711 84.2813C14.3855 84.3247 14.4161 84.3488 14.4595 84.3584C14.6796 84.5047 14.8902 84.6686 15.1216 84.7988C15.6664 85.109 16.1759 85.4866 16.7705 85.71C16.8911 85.8241 17.0341 85.8981 17.1932 85.9382C18.1238 86.4493 19.1009 86.8511 20.0973 87.2079C20.7466 87.4393 21.3895 87.7029 22.0725 87.8363C22.1641 87.9295 22.2846 87.9022 22.3971 87.9199C22.672 88.0324 22.9564 88.1191 23.2537 88.1465C23.2216 87.9874 23.1557 87.8668 23.0577 87.7865C23.1557 87.8668 23.2216 87.9874 23.2537 88.1465C23.31 88.1609 23.3663 88.1738 23.4225 88.1866C23.5543 88.2606 23.7005 88.2863 23.8516 88.2927C24.3868 88.4213 24.9171 88.574 25.4716 88.5884C25.5504 88.6495 25.642 88.6511 25.7352 88.6415C25.7898 88.6495 25.8429 88.6543 25.8975 88.6607C26.7686 88.8263 27.6493 88.9115 28.538 88.9404C28.5396 88.9629 28.5413 88.9854 28.5413 89.0079H31.7796C31.778 88.979 31.778 88.9468 31.778 88.9163C31.778 88.9468 31.778 88.979 31.7796 89.0079H32.8854C32.8452 88.9918 32.8323 88.9629 32.85 88.9211C32.7632 88.9179 32.6748 88.9163 32.588 88.9131C32.6748 88.9163 32.7632 88.9179 32.8516 88.9211C33.3884 88.9002 33.9252 88.8713 34.4523 88.754L34.4764 88.7524C34.5166 88.7491 34.5552 88.7459 34.5954 88.7411C34.7384 88.7459 34.883 88.7572 35.0116 88.6768C35.137 88.6865 35.2575 88.6881 35.378 88.6479C35.7718 88.5868 36.1688 88.5434 36.5496 88.4213C36.5673 88.4213 36.5882 88.4213 36.6059 88.4229C36.683 88.4277 36.7618 88.4341 36.8084 88.3409C36.863 88.3345 36.9177 88.3265 36.9707 88.32C37.2552 88.3795 37.5043 88.2654 37.7598 88.1738C37.8434 88.1609 37.9286 88.1497 38.0137 88.1368C38.0989 88.1449 38.1696 88.1047 38.2436 88.0661C38.4637 88.0613 38.6727 88.0115 38.8688 87.907C39.4216 87.8315 39.9375 87.6274 40.4646 87.4602C40.5145 87.465 40.5659 87.4699 40.5627 87.3959L40.5691 87.4104C40.8423 87.3815 41.0979 87.2947 41.3373 87.1629C41.6073 87.0922 41.8773 87.0199 42.1184 86.8736C42.2614 86.872 42.3868 86.8302 42.4816 86.7161C42.5684 86.745 42.6488 86.7129 42.7243 86.6807C43.2675 86.4541 43.8155 86.2356 44.3491 85.9865C44.8055 85.7759 45.2812 85.5991 45.7055 85.3211C45.9305 85.2729 46.1121 85.1427 46.2938 85.0141C46.2536 84.982 46.2166 84.9499 46.1764 84.9209C46.1716 84.8936 46.1668 84.8695 46.162 84.8438C46.1668 84.8695 46.1716 84.8936 46.1764 84.9209C46.2166 84.9499 46.2536 84.982 46.2938 85.0141C46.4802 84.9772 46.6296 84.8743 46.7711 84.7554C46.7196 84.749 46.6698 84.7361 46.6345 84.7024C46.6698 84.7361 46.7196 84.749 46.7711 84.7554C46.8209 84.749 46.8627 84.7313 46.89 84.6863C47.0282 84.6525 47.1488 84.5915 47.2468 84.4854C47.3737 84.4822 47.467 84.4163 47.5441 84.3215C47.6855 84.2813 47.8029 84.2009 47.9121 84.1093L47.9041 84.0981L47.9121 84.1093C47.9813 84.09 48.0471 84.0659 48.0873 84C48.1821 83.9631 48.2786 83.9245 48.3477 83.8409C48.7864 83.5902 49.2412 83.3588 49.6077 82.9972C49.6077 82.9972 49.6189 82.9907 49.6189 82.9891C49.7234 83.0052 49.7861 82.9409 49.8423 82.867C50.0127 82.7899 50.1621 82.6806 50.2923 82.5488C50.6893 82.3334 51.0316 82.0441 51.3739 81.7549C51.4977 81.7131 51.5989 81.6456 51.66 81.5282C51.7982 81.4784 51.8962 81.3724 52.0055 81.284C53.0904 80.4097 54.1141 79.4727 55.0816 78.4731C58.5691 74.8683 61.1421 70.7074 62.6786 65.9245C63.773 62.5141 64.2327 59.017 63.9643 55.4427C63.8036 53.2956 64.0125 51.2015 64.5846 49.1331C64.6971 48.7249 64.8948 48.3424 64.9511 47.9181L64.943 47.9068C65.1246 47.6786 65.2066 47.407 65.2741 47.1306C65.3432 47.084 65.3561 47.0116 65.3577 46.9377C65.5023 46.7625 65.5779 46.5584 65.6309 46.3431L65.6357 46.3399C65.7916 46.1149 65.9282 45.8786 66.023 45.6199C66.1227 45.5218 66.1741 45.3997 66.2046 45.2663C66.3107 45.1731 66.383 45.0541 66.4296 44.9191C66.4489 44.887 66.4666 44.8549 66.4843 44.8227C66.563 44.7536 66.6096 44.6668 66.6305 44.5656C66.8218 44.3165 66.9471 44.04 66.9696 43.7234C67.1111 43.2943 67.193 42.8636 67.05 42.42C67.058 42.2786 67.0757 42.1372 66.9841 42.0118C66.9921 41.9459 66.9793 41.8849 66.9359 41.8302C66.8668 41.5409 66.7671 41.2645 66.5663 41.0347C66.3155 40.5541 65.9443 40.1909 65.4702 39.9322L65.4589 39.9338C65.3914 39.8374 65.2902 39.7988 65.1809 39.7731C65.0796 39.6927 64.9752 39.6204 64.8386 39.6204C64.6473 39.5079 64.4496 39.4372 64.2246 39.4629C64.1571 39.4356 64.0896 39.4452 64.0238 39.4549C63.9836 39.4597 63.945 39.4645 63.9064 39.4613C63.8855 39.4195 63.8614 39.3857 63.8068 39.4018C63.7441 39.3986 63.683 39.3938 63.622 39.3906C63.577 39.3938 63.532 39.3954 63.487 39.3986C63.4677 39.4468 63.4436 39.495 63.4259 39.5449C63.4436 39.495 63.4661 39.4468 63.4854 39.3986C63.4211 39.4002 63.3568 39.4034 63.2925 39.4034C63.2105 39.4034 63.1302 39.4066 63.0482 39.4066C62.9936 39.3857 62.9389 39.389 62.8843 39.4147C62.5452 39.3857 62.2045 39.3793 61.8638 39.3954C61.8043 39.3938 61.7432 39.3906 61.6838 39.389C61.5166 39.3793 61.3511 39.3713 61.1807 39.36C61.1791 39.3922 61.1775 39.4259 61.1743 39.4565C61.1775 39.4259 61.1791 39.3922 61.1807 39.36C60.8802 39.2604 60.5604 39.2974 60.2518 39.2315L58.7041 38.9582C58.6527 38.9454 58.6029 38.9325 58.553 38.9197C58.5498 38.9374 58.5434 38.9534 58.5354 38.9695C58.5434 38.9534 58.5498 38.9374 58.553 38.9197L57.8507 38.722C57.457 38.595 57.0584 38.4697 56.6614 38.3427C56.4204 38.2334 56.1873 38.1049 55.9382 38.0245C55.7566 37.9634 55.6039 37.8059 55.3902 37.8525C55.3613 37.8461 55.3291 37.8413 55.3002 37.8349C55.2954 37.7915 55.2825 37.7545 55.2327 37.7432C55.1346 37.65 55.0141 37.5986 54.8839 37.5665C54.5095 37.3591 54.1366 37.1502 53.7637 36.9429C53.5516 36.7999 53.3491 36.6391 53.1064 36.5411C52.9329 36.4093 52.7802 36.2518 52.5696 36.1731C52.4636 36.0911 52.3768 35.977 52.2273 35.9657C52.1132 35.834 51.9654 35.7568 51.8046 35.7022C51.075 35.1943 50.2779 34.807 49.4807 34.4277C48.9375 34.1706 48.4039 33.8813 47.8141 33.7334L47.8109 33.7463C47.8013 33.682 47.7579 33.6756 47.708 33.6788C46.9688 33.3413 46.1989 33.0857 45.4114 32.8913C45.3954 32.8672 45.3696 32.8575 45.3423 32.8607C45.2363 32.8222 45.1334 32.7756 45.0241 32.7466C43.2016 32.2388 41.347 31.8916 39.465 31.7261C38.5843 31.6506 37.7052 31.6104 36.8245 31.6072H36.6075ZM34.9537 88.3843C34.9971 88.4438 35.0164 88.5177 35.018 88.5965C35.0164 88.5177 34.9971 88.4438 34.9537 88.3843Z" fill="white"/>
</mask>
<g mask="url(#mask2_1060_43679)">
<path fill-rule="evenodd" clip-rule="evenodd" d="M36.6075 31.6072C35.5339 31.6104 34.4604 31.6682 33.3868 31.7791C31.2493 31.9977 29.152 32.4107 27.098 33.0375C22.0355 34.5788 17.5371 37.1229 13.6205 40.6795C9.92893 44.032 7.11 48.0049 5.24411 52.6382C4.23804 55.1357 3.57911 57.7232 3.30107 60.4072C3.13714 61.9774 3.10179 63.5475 3.21268 65.1209C3.31071 66.5111 3.29946 67.8981 3.06964 69.2786C2.98607 69.78 2.89446 70.2815 2.80446 70.7829C2.71446 70.9115 2.71125 71.0609 2.70643 71.2088C2.62446 71.2522 2.63571 71.3325 2.63732 71.4097C2.62286 71.4466 2.61 71.4852 2.59554 71.5238C2.49107 71.8468 2.34964 72.157 2.29179 72.4929C2.07804 72.9991 1.86268 73.5054 1.65054 74.01C1.64089 74.0422 1.63446 74.0727 1.62643 74.1016C1.48339 74.3218 1.35482 74.5516 1.27607 74.8024C1.18607 74.849 1.17321 74.9406 1.14911 75.0241C0.848571 75.5208 0.503036 75.9949 0.300536 76.5477C0.239464 76.6602 0.181607 76.7727 0.183214 76.9045C0.149464 76.9881 0.141429 77.0716 0.155893 77.16C0.0996429 77.1841 0.0883929 77.2838 0 77.2581V78.2818C0.220179 78.4216 0.160714 78.69 0.268393 78.8813C0.265179 78.9504 0.2925 79.0066 0.340714 79.0532C0.345536 79.0822 0.351964 79.1143 0.358393 79.1465C0.379286 79.2445 0.419464 79.3329 0.504643 79.394C0.588214 79.7041 0.800357 79.9259 1.02214 80.1397C1.31786 80.4209 1.58625 80.7359 2.0025 80.8516C2.19214 80.9802 2.39946 81.0734 2.6325 81.0991C2.64375 81.1232 2.65982 81.1313 2.68393 81.1232C2.77714 81.1811 2.87518 81.1908 2.98125 81.1747C3.12107 81.2599 3.27857 81.2486 3.43607 81.2454C3.71893 81.2422 4.00018 81.2422 4.28304 81.2341C5.16214 81.2149 6.03964 81.2727 6.91071 81.374L6.93482 81.3965L6.96696 81.39C7.93929 81.5668 8.90357 81.7725 9.84375 82.0699C9.99482 82.1341 10.1395 82.2145 10.3114 82.2033C10.4673 82.3334 10.6698 82.3656 10.8514 82.4347C11.3963 82.634 11.8961 82.9297 12.4377 83.1338H12.4425C12.5373 83.2125 12.6305 83.2993 12.7671 83.2945C12.8121 83.3572 12.8684 83.3957 12.9455 83.4006C13.1239 83.5565 13.328 83.6674 13.5418 83.759C13.553 83.8024 13.582 83.8152 13.6254 83.8088C13.8568 83.9904 14.1075 84.1495 14.3711 84.2813C14.3855 84.3247 14.4161 84.3488 14.4595 84.3584C14.6796 84.5047 14.8902 84.6686 15.1216 84.7988C15.6664 85.109 16.1759 85.4866 16.7705 85.71C16.8911 85.8241 17.0341 85.8981 17.1932 85.9382C18.1238 86.4493 19.1009 86.8511 20.0973 87.2079C20.7466 87.4393 21.3895 87.7029 22.0725 87.8363C22.1641 87.9295 22.2846 87.9022 22.3971 87.9199C22.672 88.0324 22.9564 88.1191 23.2537 88.1465C23.2216 87.9874 23.1557 87.8668 23.0577 87.7865C23.1557 87.8668 23.2216 87.9874 23.2537 88.1465C23.31 88.1609 23.3663 88.1738 23.4225 88.1866C23.5543 88.2606 23.7005 88.2863 23.8516 88.2927C24.3868 88.4213 24.9171 88.574 25.4716 88.5884C25.5504 88.6495 25.642 88.6511 25.7352 88.6415C25.7898 88.6495 25.8429 88.6543 25.8975 88.6607C26.7686 88.8263 27.6493 88.9115 28.538 88.9404C28.5396 88.9629 28.5413 88.9854 28.5413 89.0079H31.7796C31.778 88.979 31.778 88.9468 31.778 88.9163C31.778 88.9468 31.778 88.979 31.7796 89.0079H32.8854C32.8452 88.9918 32.8323 88.9629 32.85 88.9211C32.7632 88.9179 32.6748 88.9163 32.588 88.9131C32.6748 88.9163 32.7632 88.9179 32.8516 88.9211C33.3884 88.9002 33.9252 88.8713 34.4523 88.754L34.4764 88.7524C34.5166 88.7491 34.5552 88.7459 34.5954 88.7411C34.7384 88.7459 34.883 88.7572 35.0116 88.6768C35.137 88.6865 35.2575 88.6881 35.378 88.6479C35.7718 88.5868 36.1688 88.5434 36.5496 88.4213C36.5673 88.4213 36.5882 88.4213 36.6059 88.4229C36.683 88.4277 36.7618 88.4341 36.8084 88.3409C36.863 88.3345 36.9177 88.3265 36.9707 88.32C37.2552 88.3795 37.5043 88.2654 37.7598 88.1738C37.8434 88.1609 37.9286 88.1497 38.0137 88.1368C38.0989 88.1449 38.1696 88.1047 38.2436 88.0661C38.4637 88.0613 38.6727 88.0115 38.8688 87.907C39.4216 87.8315 39.9375 87.6274 40.4646 87.4602C40.5145 87.465 40.5659 87.4699 40.5627 87.3959L40.5691 87.4104C40.8423 87.3815 41.0979 87.2947 41.3373 87.1629C41.6073 87.0922 41.8773 87.0199 42.1184 86.8736C42.2614 86.872 42.3868 86.8302 42.4816 86.7161C42.5684 86.745 42.6488 86.7129 42.7243 86.6807C43.2675 86.4541 43.8155 86.2356 44.3491 85.9865C44.8055 85.7759 45.2812 85.5991 45.7055 85.3211C45.9305 85.2729 46.1121 85.1427 46.2938 85.0141C46.2536 84.982 46.2166 84.9499 46.1764 84.9209C46.1716 84.8936 46.1668 84.8695 46.162 84.8438C46.1668 84.8695 46.1716 84.8936 46.1764 84.9209C46.2166 84.9499 46.2536 84.982 46.2938 85.0141C46.4802 84.9772 46.6296 84.8743 46.7711 84.7554C46.7196 84.749 46.6698 84.7361 46.6345 84.7024C46.6698 84.7361 46.7196 84.749 46.7711 84.7554C46.8209 84.749 46.8627 84.7313 46.89 84.6863C47.0282 84.6525 47.1488 84.5915 47.2468 84.4854C47.3737 84.4822 47.467 84.4163 47.5441 84.3215C47.6855 84.2813 47.8029 84.2009 47.9121 84.1093L47.9041 84.0981L47.9121 84.1093C47.9813 84.09 48.0471 84.0659 48.0873 84C48.1821 83.9631 48.2786 83.9245 48.3477 83.8409C48.7864 83.5902 49.2412 83.3588 49.6077 82.9972C49.6077 82.9972 49.6189 82.9907 49.6189 82.9891C49.7234 83.0052 49.7861 82.9409 49.8423 82.867C50.0127 82.7899 50.1621 82.6806 50.2923 82.5488C50.6893 82.3334 51.0316 82.0441 51.3739 81.7549C51.4977 81.7131 51.5989 81.6456 51.66 81.5282C51.7982 81.4784 51.8962 81.3724 52.0055 81.284C53.0904 80.4097 54.1141 79.4727 55.0816 78.4731C58.5691 74.8683 61.1421 70.7074 62.6786 65.9245C63.773 62.5141 64.2327 59.017 63.9643 55.4427C63.8036 53.2956 64.0125 51.2015 64.5846 49.1331C64.6971 48.7249 64.8948 48.3424 64.9511 47.9181L64.943 47.9068C65.1246 47.6786 65.2066 47.407 65.2741 47.1306C65.3432 47.084 65.3561 47.0116 65.3577 46.9377C65.5023 46.7625 65.5779 46.5584 65.6309 46.3431L65.6357 46.3399C65.7916 46.1149 65.9282 45.8786 66.023 45.6199C66.1227 45.5218 66.1741 45.3997 66.2046 45.2663C66.3107 45.1731 66.383 45.0541 66.4296 44.9191C66.4489 44.887 66.4666 44.8549 66.4843 44.8227C66.563 44.7536 66.6096 44.6668 66.6305 44.5656C66.8218 44.3165 66.9471 44.04 66.9696 43.7234C67.1111 43.2943 67.193 42.8636 67.05 42.42C67.058 42.2786 67.0757 42.1372 66.9841 42.0118C66.9921 41.9459 66.9793 41.8849 66.9359 41.8302C66.8668 41.5409 66.7671 41.2645 66.5663 41.0347C66.3155 40.5541 65.9443 40.1909 65.4702 39.9322L65.4589 39.9338C65.3914 39.8374 65.2902 39.7988 65.1809 39.7731C65.0796 39.6927 64.9752 39.6204 64.8386 39.6204C64.6473 39.5079 64.4496 39.4372 64.2246 39.4629C64.1571 39.4356 64.0896 39.4452 64.0238 39.4549C63.9836 39.4597 63.945 39.4645 63.9064 39.4613C63.8855 39.4195 63.8614 39.3857 63.8068 39.4018C63.7441 39.3986 63.683 39.3938 63.622 39.3906C63.577 39.3938 63.532 39.3954 63.487 39.3986C63.4677 39.4468 63.4436 39.495 63.4259 39.5449C63.4436 39.495 63.4661 39.4468 63.4854 39.3986C63.4211 39.4002 63.3568 39.4034 63.2925 39.4034C63.2105 39.4034 63.1302 39.4066 63.0482 39.4066C62.9936 39.3857 62.9389 39.389 62.8843 39.4147C62.5452 39.3857 62.2045 39.3793 61.8638 39.3954C61.8043 39.3938 61.7432 39.3906 61.6838 39.389C61.5166 39.3793 61.3511 39.3713 61.1807 39.36C61.1791 39.3922 61.1775 39.4259 61.1743 39.4565C61.1775 39.4259 61.1791 39.3922 61.1807 39.36C60.8802 39.2604 60.5604 39.2974 60.2518 39.2315L58.7041 38.9582C58.6527 38.9454 58.6029 38.9325 58.553 38.9197C58.5498 38.9374 58.5434 38.9534 58.5354 38.9695C58.5434 38.9534 58.5498 38.9374 58.553 38.9197L57.8507 38.722C57.457 38.595 57.0584 38.4697 56.6614 38.3427C56.4204 38.2334 56.1873 38.1049 55.9382 38.0245C55.7566 37.9634 55.6039 37.8059 55.3902 37.8525C55.3613 37.8461 55.3291 37.8413 55.3002 37.8349C55.2954 37.7915 55.2825 37.7545 55.2327 37.7432C55.1346 37.65 55.0141 37.5986 54.8839 37.5665C54.5095 37.3591 54.1366 37.1502 53.7637 36.9429C53.5516 36.7999 53.3491 36.6391 53.1064 36.5411C52.9329 36.4093 52.7802 36.2518 52.5696 36.1731C52.4636 36.0911 52.3768 35.977 52.2273 35.9657C52.1132 35.834 51.9654 35.7568 51.8046 35.7022C51.075 35.1943 50.2779 34.807 49.4807 34.4277C48.9375 34.1706 48.4039 33.8813 47.8141 33.7334L47.8109 33.7463C47.8013 33.682 47.7579 33.6756 47.708 33.6788C46.9688 33.3413 46.1989 33.0857 45.4114 32.8913C45.3954 32.8672 45.3696 32.8575 45.3423 32.8607C45.2363 32.8222 45.1334 32.7756 45.0241 32.7466C43.2016 32.2388 41.347 31.8916 39.465 31.7261C38.5843 31.6506 37.7052 31.6104 36.8245 31.6072H36.6075ZM34.9537 88.3843C34.9971 88.4438 35.0164 88.5177 35.018 88.5965C35.0164 88.5177 34.9971 88.4438 34.9537 88.3843Z" fill="url(#paint0_linear_1060_43679)"/>
</g>
<mask id="mask3_1060_43679" style="mask-type:alpha" maskUnits="userSpaceOnUse" x="4" y="31" width="64" height="24">
<path fill-rule="evenodd" clip-rule="evenodd" d="M36.6075 31.6072C35.5339 31.6104 34.4604 31.6682 33.3868 31.7791C31.2493 31.9977 29.152 32.4107 27.098 33.0375C22.0355 34.5788 17.5372 37.1229 13.6205 40.6795C9.92894 44.032 7.11001 48.0049 5.24412 52.6382C5.04644 53.1284 4.86323 53.6218 4.69287 54.1184H63.9113C63.9064 52.4325 64.1298 50.774 64.5847 49.1331C64.6972 48.7249 64.8948 48.3424 64.9511 47.9181L64.9431 47.9068C65.1247 47.6786 65.2066 47.407 65.2741 47.1306C65.3432 47.084 65.3561 47.0116 65.3577 46.9377C65.5023 46.7625 65.5779 46.5584 65.6309 46.3431L65.6357 46.3399C65.7916 46.1149 65.9282 45.8786 66.023 45.6199C66.1227 45.5218 66.1741 45.3997 66.2047 45.2663C66.3107 45.1731 66.383 45.0541 66.4297 44.9191C66.4489 44.887 66.4666 44.8549 66.4843 44.8227C66.563 44.7536 66.6097 44.6668 66.6306 44.5656C66.8218 44.3165 66.9472 44.04 66.9697 43.7234C67.1111 43.2943 67.1931 42.8636 67.05 42.42C67.0581 42.2786 67.0757 42.1372 66.9841 42.0118C66.9922 41.9459 66.9793 41.8849 66.9359 41.8302C66.8668 41.5409 66.7672 41.2645 66.5663 41.0347C66.3156 40.5541 65.9443 40.1909 65.4702 39.9322L65.4589 39.9338C65.3914 39.8374 65.2902 39.7988 65.1809 39.7731C65.0797 39.6927 64.9752 39.6204 64.8386 39.6204C64.6473 39.5079 64.4497 39.4372 64.2247 39.4629C64.1572 39.4356 64.0897 39.4452 64.0238 39.4549C63.9836 39.4597 63.945 39.4645 63.9064 39.4613C63.8855 39.4195 63.8614 39.3857 63.8068 39.4018C63.7441 39.3986 63.6831 39.3938 63.622 39.3906C63.577 39.3938 63.532 39.3954 63.487 39.3986C63.4677 39.4468 63.4436 39.495 63.4259 39.5449C63.4436 39.495 63.4661 39.4468 63.4854 39.3986C63.4211 39.4002 63.3568 39.4034 63.2925 39.4034C63.2106 39.4034 63.1302 39.4066 63.0482 39.4066C62.9936 39.3857 62.9389 39.389 62.8843 39.4147C62.5452 39.3857 62.2045 39.3793 61.8638 39.3954C61.8043 39.3938 61.7432 39.3906 61.6838 39.389C61.5166 39.3793 61.3511 39.3713 61.1807 39.36C61.1791 39.3922 61.1775 39.4259 61.1743 39.4565C61.1775 39.4259 61.1791 39.3922 61.1807 39.36C60.8802 39.2604 60.5604 39.2974 60.2518 39.2315L58.7041 38.9582C58.6527 38.9454 58.6029 38.9325 58.5531 38.9197C58.5498 38.9374 58.5434 38.9534 58.5354 38.9695C58.5434 38.9534 58.5498 38.9374 58.5531 38.9197L57.8507 38.722C57.457 38.595 57.0584 38.4697 56.6614 38.3427C56.4204 38.2334 56.1873 38.1049 55.9382 38.0245C55.7566 37.9634 55.6039 37.8059 55.3902 37.8525C55.3613 37.8461 55.3291 37.8413 55.3002 37.8349C55.2954 37.7915 55.2825 37.7545 55.2327 37.7432C55.1347 37.65 55.0141 37.5986 54.8839 37.5665C54.5095 37.3591 54.1366 37.1502 53.7638 36.9429C53.5516 36.7999 53.3491 36.6391 53.1064 36.5411C52.9329 36.4093 52.7802 36.2518 52.5697 36.1731C52.4636 36.0911 52.3768 35.977 52.2273 35.9657C52.1132 35.834 51.9654 35.7568 51.8047 35.7022C51.075 35.1943 50.2779 34.807 49.4807 34.4277C48.9375 34.1706 48.4039 33.8813 47.8141 33.7334L47.8109 33.7463C47.8013 33.682 47.7579 33.6756 47.708 33.6788C46.9688 33.3413 46.1989 33.0857 45.4114 32.8913C45.3954 32.8672 45.3697 32.8575 45.3423 32.8607C45.2363 32.8222 45.1334 32.7756 45.0241 32.7466C43.2016 32.2388 41.347 31.8916 39.465 31.7261C38.5843 31.6506 37.7052 31.6104 36.8245 31.6072H36.6075Z" fill="white"/>
</mask>
<g mask="url(#mask3_1060_43679)">
<path fill-rule="evenodd" clip-rule="evenodd" d="M36.6075 31.6072C35.5339 31.6104 34.4604 31.6682 33.3868 31.7791C31.2493 31.9977 29.152 32.4107 27.098 33.0375C22.0355 34.5788 17.5372 37.1229 13.6205 40.6795C9.92894 44.032 7.11001 48.0049 5.24412 52.6382C5.04644 53.1284 4.86323 53.6218 4.69287 54.1184H63.9113C63.9064 52.4325 64.1298 50.774 64.5847 49.1331C64.6972 48.7249 64.8948 48.3424 64.9511 47.9181L64.9431 47.9068C65.1247 47.6786 65.2066 47.407 65.2741 47.1306C65.3432 47.084 65.3561 47.0116 65.3577 46.9377C65.5023 46.7625 65.5779 46.5584 65.6309 46.3431L65.6357 46.3399C65.7916 46.1149 65.9282 45.8786 66.023 45.6199C66.1227 45.5218 66.1741 45.3997 66.2047 45.2663C66.3107 45.1731 66.383 45.0541 66.4297 44.9191C66.4489 44.887 66.4666 44.8549 66.4843 44.8227C66.563 44.7536 66.6097 44.6668 66.6306 44.5656C66.8218 44.3165 66.9472 44.04 66.9697 43.7234C67.1111 43.2943 67.1931 42.8636 67.05 42.42C67.0581 42.2786 67.0757 42.1372 66.9841 42.0118C66.9922 41.9459 66.9793 41.8849 66.9359 41.8302C66.8668 41.5409 66.7672 41.2645 66.5663 41.0347C66.3156 40.5541 65.9443 40.1909 65.4702 39.9322L65.4589 39.9338C65.3914 39.8374 65.2902 39.7988 65.1809 39.7731C65.0797 39.6927 64.9752 39.6204 64.8386 39.6204C64.6473 39.5079 64.4497 39.4372 64.2247 39.4629C64.1572 39.4356 64.0897 39.4452 64.0238 39.4549C63.9836 39.4597 63.945 39.4645 63.9064 39.4613C63.8855 39.4195 63.8614 39.3857 63.8068 39.4018C63.7441 39.3986 63.6831 39.3938 63.622 39.3906C63.577 39.3938 63.532 39.3954 63.487 39.3986C63.4677 39.4468 63.4436 39.495 63.4259 39.5449C63.4436 39.495 63.4661 39.4468 63.4854 39.3986C63.4211 39.4002 63.3568 39.4034 63.2925 39.4034C63.2106 39.4034 63.1302 39.4066 63.0482 39.4066C62.9936 39.3857 62.9389 39.389 62.8843 39.4147C62.5452 39.3857 62.2045 39.3793 61.8638 39.3954C61.8043 39.3938 61.7432 39.3906 61.6838 39.389C61.5166 39.3793 61.3511 39.3713 61.1807 39.36C61.1791 39.3922 61.1775 39.4259 61.1743 39.4565C61.1775 39.4259 61.1791 39.3922 61.1807 39.36C60.8802 39.2604 60.5604 39.2974 60.2518 39.2315L58.7041 38.9582C58.6527 38.9454 58.6029 38.9325 58.5531 38.9197C58.5498 38.9374 58.5434 38.9534 58.5354 38.9695C58.5434 38.9534 58.5498 38.9374 58.5531 38.9197L57.8507 38.722C57.457 38.595 57.0584 38.4697 56.6614 38.3427C56.4204 38.2334 56.1873 38.1049 55.9382 38.0245C55.7566 37.9634 55.6039 37.8059 55.3902 37.8525C55.3613 37.8461 55.3291 37.8413 55.3002 37.8349C55.2954 37.7915 55.2825 37.7545 55.2327 37.7432C55.1347 37.65 55.0141 37.5986 54.8839 37.5665C54.5095 37.3591 54.1366 37.1502 53.7638 36.9429C53.5516 36.7999 53.3491 36.6391 53.1064 36.5411C52.9329 36.4093 52.7802 36.2518 52.5697 36.1731C52.4636 36.0911 52.3768 35.977 52.2273 35.9657C52.1132 35.834 51.9654 35.7568 51.8047 35.7022C51.075 35.1943 50.2779 34.807 49.4807 34.4277C48.9375 34.1706 48.4039 33.8813 47.8141 33.7334L47.8109 33.7463C47.8013 33.682 47.7579 33.6756 47.708 33.6788C46.9688 33.3413 46.1989 33.0857 45.4114 32.8913C45.3954 32.8672 45.3697 32.8575 45.3423 32.8607C45.2363 32.8222 45.1334 32.7756 45.0241 32.7466C43.2016 32.2388 41.347 31.8916 39.465 31.7261C38.5843 31.6506 37.7052 31.6104 36.8245 31.6072H36.6075Z" fill="url(#paint1_linear_1060_43679)"/>
</g>
<defs>
<linearGradient id="paint0_linear_1060_43679" x1="11.0707" y1="60.3273" x2="5.39325" y2="85.1881" gradientUnits="userSpaceOnUse">
<stop stop-color="#97DF13"/>
<stop offset="0.578808" stop-color="#6CBF24"/>
<stop offset="1" stop-color="#057D46"/>
</linearGradient>
<linearGradient id="paint1_linear_1060_43679" x1="40.2776" y1="30.0973" x2="39.1212" y2="42.0512" gradientUnits="userSpaceOnUse">
<stop stop-color="#069553"/>
<stop offset="0.357381" stop-color="#6CBF24"/>
<stop offset="1" stop-color="#96DC14"/>
</linearGradient>
</defs>
</svg>
