<svg width="215" height="100" viewBox="0 0 215 100" fill="none" xmlns="http://www.w3.org/2000/svg">
<path fill-rule="evenodd" clip-rule="evenodd" d="M142.149 39.9955C142.156 39.6178 142.139 39.2414 142.069 38.8664C141.753 37.1374 140.837 35.8785 139.191 35.1888C138.434 34.8727 137.637 34.787 136.827 34.862C134.935 35.0388 133.551 35.9575 132.832 37.7414C132.268 39.141 132.272 40.5807 132.754 42.0071C133.196 43.3142 134.074 44.2289 135.361 44.7298C136.574 45.2039 137.813 45.2187 139.038 44.7901C140.443 44.2986 141.379 43.3209 141.86 41.912C142.072 41.2919 142.167 40.6517 142.149 39.9955ZM147.255 41.2758C147.182 42.5763 146.778 43.7763 146.143 44.8999C145.109 46.7334 143.553 47.9669 141.628 48.7718C140.025 49.4414 138.35 49.6343 136.629 49.5673C134.882 49.5017 133.247 49.0504 131.732 48.1852C129.422 46.8673 128.003 44.8838 127.459 42.2923C127.072 40.4468 127.12 38.5986 127.68 36.7905C128.498 34.1575 130.238 32.3495 132.749 31.2513C134.353 30.5481 136.034 30.3151 137.769 30.37C139.388 30.4209 140.925 30.7825 142.372 31.5191C145.133 32.924 146.722 35.1767 147.229 38.2142C147.257 38.387 147.249 38.5678 147.256 38.7432C147.241 38.8999 147.235 39.0553 147.322 39.1972V40.7575C147.223 40.9196 147.245 41.099 147.255 41.2758Z" fill="white"/>
<mask id="mask0_1039_21530" style="mask-type:alpha" maskUnits="userSpaceOnUse" x="146" y="40" width="2" height="2">
<path fill-rule="evenodd" clip-rule="evenodd" d="M146.614 40.3716H147.322V41.7109H146.614V40.3716Z" fill="white"/>
</mask>
<g mask="url(#mask0_1039_21530)">
<path fill-rule="evenodd" clip-rule="evenodd" d="M147.254 41.2756C147.245 41.0988 147.223 40.9193 147.322 40.7573V41.3252C147.298 41.3077 147.277 41.293 147.254 41.2756Z" fill="#4FAE2C"/>
</g>
<mask id="mask1_1039_21530" style="mask-type:alpha" maskUnits="userSpaceOnUse" x="146" y="38" width="2" height="2">
<path fill-rule="evenodd" clip-rule="evenodd" d="M146.615 38.2798H147.322V39.6191H146.615V38.2798Z" fill="white"/>
</mask>
<g mask="url(#mask1_1039_21530)">
<path fill-rule="evenodd" clip-rule="evenodd" d="M147.322 39.1979C147.235 39.0559 147.241 38.8992 147.257 38.7438C147.28 38.7291 147.3 38.7157 147.322 38.701V39.1979Z" fill="#4FAE2C"/>
</g>
<path fill-rule="evenodd" clip-rule="evenodd" d="M84.7223 57.5006C84.7223 58.197 84.725 58.8934 84.7197 59.5898C84.7183 59.7559 84.7424 59.8497 84.9473 59.8457C85.7268 59.8336 86.5063 59.859 87.2857 59.8309C87.9755 59.8055 88.6023 59.5684 89.1313 59.1104C90.1398 58.2372 90.1465 56.8349 89.1447 55.9523C88.6304 55.4997 88.0183 55.2532 87.3393 55.2291C86.5478 55.1997 85.7563 55.2117 84.9648 55.2117C84.729 55.2117 84.7237 55.2198 84.7237 55.4809C84.721 56.1546 84.7223 56.8269 84.7223 57.5006ZM91.0063 62.4439C91.8219 64.0644 93.0085 65.1117 94.8259 65.3153C95.1125 65.3474 95.1165 65.3488 95.1165 65.6327C95.1179 66.98 95.1179 68.3287 95.1165 69.6774C95.1165 69.9747 95.1125 69.9827 94.7951 69.9747C92.3148 69.9131 90.1558 69.0613 88.3639 67.3269C87.2871 66.2863 86.4741 65.0622 85.8862 63.6881C85.7898 63.4617 85.6799 63.3452 85.4228 63.38C85.2487 63.4028 85.0679 63.3881 84.8911 63.384C84.7719 63.3814 84.717 63.4309 84.7224 63.5515C84.7264 63.6332 84.7224 63.7162 84.7224 63.7992V69.3332C84.7224 69.4041 84.717 69.4738 84.7237 69.5448C84.7384 69.7068 84.6862 69.7952 84.5054 69.7698C84.4478 69.7617 84.3875 69.7684 84.3286 69.7684H79.7844C79.7027 69.7684 79.6183 69.7671 79.5366 69.7684C79.4335 69.7698 79.3866 69.7189 79.3893 69.6184C79.3907 69.534 79.3893 69.4524 79.3893 69.3693V51.8823C79.3893 51.8233 79.3933 51.7644 79.388 51.7055C79.3706 51.5448 79.4215 51.4523 79.6009 51.4765C79.6237 51.4791 79.6491 51.4765 79.6719 51.4765C82.4764 51.4791 85.2808 51.4604 88.0853 51.4912C89.5424 51.5073 90.9487 51.8126 92.2398 52.5291C93.6634 53.3206 94.6344 54.4724 95.0308 56.0702C95.2465 56.9421 95.2665 57.8247 95.0603 58.7032C94.8005 59.8135 94.1777 60.676 93.2509 61.3282C92.659 61.7461 92.0134 62.0648 91.3371 62.322C91.2393 62.3595 91.1402 62.3957 91.0063 62.4439Z" fill="white"/>
<path fill-rule="evenodd" clip-rule="evenodd" d="M76.5727 41.3489C75.5964 41.6837 74.6763 41.9422 73.7361 42.1297C72.6432 42.3467 71.5464 42.5047 70.4321 42.5489C70.1053 42.5596 70.0865 42.4792 70.0865 42.8998C70.0879 44.8377 70.0879 46.7783 70.0865 48.7163C70.0865 49.165 70.1281 49.1074 69.6834 49.1074C68.1807 49.11 66.6781 49.1087 65.1754 49.1087C65.1164 49.1087 65.0562 49.1033 64.9986 49.1087C64.8258 49.1275 64.724 49.0752 64.7495 48.8783C64.7575 48.8194 64.7508 48.7592 64.7508 48.7002C64.7508 42.873 64.7508 37.0431 64.7522 31.2158C64.7522 30.7712 64.6946 30.8208 65.1472 30.8208C66.6847 30.8181 68.2236 30.8194 69.7611 30.8194C70.1093 30.8194 70.0865 30.7806 70.0865 31.1408C70.0879 33.4565 70.0852 35.7748 70.0879 38.0917C70.0892 38.4721 69.9941 38.4975 70.5004 38.4694C72.4932 38.3583 74.4325 37.9592 76.3343 37.3578C76.5673 37.2842 76.574 37.1502 76.574 36.9654C76.5714 35.0502 76.5714 33.1337 76.574 31.2199C76.574 30.7578 76.5258 30.8208 76.9664 30.8208C78.4932 30.8181 80.0187 30.8194 81.5455 30.8194C81.6272 30.8194 81.7102 30.8194 81.7919 30.8208C81.8789 30.8234 81.9205 30.8676 81.9191 30.9533C81.9191 31.0364 81.9205 31.1194 81.9205 31.2025V48.7243C81.9205 49.1315 81.9673 49.1087 81.5428 49.1087H76.9638C76.8928 49.1087 76.8218 49.106 76.7508 49.1087C76.6356 49.1127 76.5727 49.0658 76.574 48.9453C76.574 48.8502 76.5727 48.7551 76.5727 48.6614V41.7801V41.3489Z" fill="white"/>
<path fill-rule="evenodd" clip-rule="evenodd" d="M141.654 61.9918C141.138 62.1458 140.669 62.2985 140.193 62.4284C138.648 62.8516 137.076 63.1061 135.477 63.1798C135.178 63.1918 135.176 63.1918 135.176 63.4985C135.174 65.4244 135.176 67.353 135.176 69.2789C135.176 69.3499 135.166 69.4222 135.177 69.4918C135.206 69.6887 135.107 69.7275 134.932 69.7275C133.311 69.7222 131.692 69.7208 130.072 69.7289C129.871 69.7302 129.825 69.6525 129.844 69.4811C129.851 69.4115 129.845 69.3391 129.845 69.2695V51.8896C129.845 51.8186 129.852 51.7476 129.844 51.678C129.813 51.4784 129.914 51.4463 130.086 51.4463C131.695 51.4516 133.305 51.4503 134.913 51.449C135.225 51.449 135.176 51.4891 135.176 51.7691V58.6503C135.176 59.1097 135.176 59.1057 135.628 59.0842C137.602 58.9932 139.514 58.578 141.391 57.9847C141.674 57.8949 141.652 57.9659 141.652 57.6191C141.655 55.7052 141.654 53.7887 141.654 51.8735C141.654 51.7918 141.658 51.7074 141.654 51.6258C141.647 51.5106 141.687 51.4449 141.812 51.4503C141.872 51.453 141.931 51.449 141.99 51.449H146.675C147.008 51.449 146.987 51.4289 146.987 51.7503V69.4128C146.987 69.7597 147.01 69.7235 146.651 69.7249C145.101 69.7249 143.551 69.7235 142.002 69.7249C141.607 69.7249 141.654 69.7249 141.654 69.3847V62.4324V61.9918Z" fill="white"/>
<path fill-rule="evenodd" clip-rule="evenodd" d="M126.712 54.7039C125.439 55.3802 124.187 56.0418 122.93 56.7074C122.899 56.6498 122.873 56.611 122.859 56.5668C122.569 55.5436 121.856 54.9623 120.862 54.7052C120.104 54.5083 119.336 54.5016 118.588 54.7467C117.982 54.9463 117.522 55.3092 117.403 55.9842C117.316 56.4797 117.465 56.8963 117.854 57.2164C118.197 57.4989 118.595 57.6744 119.025 57.7842C120.032 58.0427 121.057 58.2155 122.076 58.4204C123.003 58.6065 123.921 58.8289 124.819 59.1289C125.795 59.4556 126.612 60.0235 127.284 60.7976C127.721 61.3012 127.978 61.8918 128.103 62.5414C128.332 63.7266 128.279 64.8931 127.815 66.0208C127.251 67.3869 126.23 68.3204 124.945 68.99C123.818 69.5753 122.612 69.8847 121.351 70.0039C119.833 70.1485 118.327 70.0815 116.846 69.6985C115.32 69.3034 113.946 68.6271 112.833 67.482C112.335 66.9664 111.907 66.3342 111.723 65.8199C113.092 65.094 114.465 64.3668 115.84 63.6396C115.876 63.6918 115.906 63.7172 115.914 63.7494C116.226 64.9266 117.019 65.6539 118.134 66.0409C119.255 66.4293 120.4 66.4855 121.551 66.1534C121.951 66.0382 122.321 65.8494 122.621 65.5521C123.257 64.9186 123.179 63.9824 122.451 63.4655C121.969 63.1239 121.418 62.9485 120.85 62.8239C119.743 62.5829 118.633 62.3565 117.525 62.1128C116.855 61.9668 116.196 61.7766 115.551 61.5489C114.615 61.2181 113.833 60.665 113.176 59.9257C112.682 59.3713 112.409 58.7123 112.291 57.9864C112.101 56.8079 112.18 55.6507 112.647 54.5445C113.308 52.9802 114.509 51.9878 116.07 51.3998C117.422 50.8909 118.828 50.765 120.258 50.8614C121.424 50.9405 122.551 51.1842 123.612 51.6878C124.859 52.2797 125.885 53.1235 126.561 54.3516C126.6 54.4239 126.636 54.4989 126.671 54.5726C126.684 54.6047 126.692 54.6396 126.712 54.7039Z" fill="white"/>
<path fill-rule="evenodd" clip-rule="evenodd" d="M84.1834 39.9419V31.2165C84.1834 30.7611 84.1459 30.8254 84.5852 30.8254C88.749 30.824 92.9142 30.824 97.0781 30.8254C97.5267 30.8254 97.4745 30.7785 97.4745 31.2232C97.4772 32.3455 97.4758 33.4691 97.4745 34.5928C97.4745 34.9169 97.4731 34.9196 97.1477 34.9196H89.7642C89.6932 34.9196 89.6223 34.9182 89.5513 34.9196C89.2861 34.9249 89.2821 34.9249 89.2807 35.1968C89.2794 36.0486 89.2794 36.9004 89.2807 37.7508C89.2821 38.0482 89.2861 38.0495 89.6008 38.0495C91.6245 38.0508 93.6468 38.0508 95.6705 38.0508C95.7642 38.0508 95.8593 38.0522 95.9544 38.0508C96.0415 38.0508 96.083 38.0923 96.0816 38.1794C96.0803 38.2263 96.0816 38.2745 96.0816 38.3214C96.0816 39.3017 96.083 40.2834 96.0816 41.2651C96.0816 41.5571 96.079 41.5598 95.7629 41.5598H89.7642C89.6932 41.5598 89.6236 41.5584 89.5526 41.5598C89.2874 41.5651 89.2821 41.5665 89.2807 41.8397C89.2794 42.7973 89.2794 43.7548 89.2807 44.7124C89.2821 45.0057 89.2861 45.0071 89.6035 45.0084H96.9147C97.3888 45.0084 97.3888 45.0084 97.3888 45.4732V48.7718C97.3888 49.1723 97.4008 49.1227 97.0138 49.1227C95.3584 49.124 93.7017 49.1227 92.045 49.1227H84.6629C84.5919 49.1227 84.5209 49.124 84.4499 49.1227C84.1888 49.1187 84.1848 49.1187 84.1848 48.8428C84.1821 47.7218 84.1834 46.5982 84.1834 45.4745V39.9419Z" fill="white"/>
<path fill-rule="evenodd" clip-rule="evenodd" d="M97.2623 60.5662C97.2623 57.6573 97.261 54.7497 97.2636 51.8421C97.2636 51.4002 97.2007 51.4497 97.6614 51.4497C101.706 51.4484 105.752 51.4484 109.797 51.4484C109.868 51.4484 109.94 51.4564 110.011 51.4484C110.176 51.4296 110.204 51.514 110.204 51.6573C110.2 52.8747 110.196 54.0921 110.206 55.3096C110.209 55.5265 110.107 55.5279 109.951 55.5279C108.814 55.5252 107.678 55.5265 106.544 55.5265C105.254 55.5265 103.964 55.5252 102.674 55.5265C102.37 55.5265 102.369 55.5292 102.369 55.8359C102.368 56.6877 102.368 57.5368 102.369 58.3886C102.369 58.6524 102.372 58.6564 102.641 58.6564C104.675 58.6578 106.71 58.6564 108.744 58.6578C109.231 58.6578 109.174 58.6096 109.175 59.0971C109.177 60.0078 109.175 60.9185 109.175 61.8279C109.175 62.2069 109.191 62.1774 108.834 62.1774C106.81 62.1774 104.788 62.1761 102.764 62.1787C102.315 62.1787 102.37 62.1145 102.369 62.5712C102.366 63.4685 102.368 64.3671 102.369 65.2658C102.369 65.6502 102.326 65.61 102.705 65.61C105.119 65.6113 107.533 65.61 109.947 65.61H110.158C110.464 65.614 110.466 65.614 110.466 65.9207C110.468 67.0912 110.468 68.2604 110.466 69.431C110.466 69.7203 110.464 69.7243 110.181 69.7243C105.969 69.7256 101.757 69.7256 97.5462 69.7243C97.2636 69.7243 97.2623 69.7203 97.2623 69.3962V60.5662Z" fill="white"/>
<path fill-rule="evenodd" clip-rule="evenodd" d="M64.7505 60.5789V51.9954V51.8186C64.7518 51.4436 64.7237 51.4758 65.0974 51.4758H75.3898C76.0527 51.4758 76.7157 51.4744 77.3786 51.4771C77.6277 51.4785 77.6344 51.4825 77.6344 51.7329C77.6371 53.0561 77.6371 54.3807 77.6344 55.7039C77.6344 55.941 77.6277 55.945 77.3679 55.945C75.8893 55.9477 74.4108 55.9463 72.9309 55.9463H70.4117C70.0474 55.9463 70.0755 55.9195 70.0755 56.2986V59.2075C70.0755 59.5436 70.0474 59.5383 70.401 59.5383C72.1407 59.5369 73.8777 59.5369 75.6175 59.5369C75.6885 59.5369 75.7608 59.5356 75.8304 59.5383C76.0822 59.545 76.0876 59.545 76.0889 59.7928C76.0916 60.3954 76.0902 60.9981 76.0902 61.6021C76.0902 62.099 76.0916 62.5959 76.0889 63.0914C76.0876 63.3928 76.0862 63.3954 75.7742 63.3954C74.0237 63.3968 72.2719 63.3941 70.5215 63.3968C70.0072 63.3968 70.0782 63.3231 70.0768 63.8508C70.0742 65.6602 70.0755 67.4695 70.0755 69.2776C70.0755 69.3606 70.0702 69.4423 70.0768 69.5253C70.0862 69.6619 70.03 69.7142 69.8934 69.7115C69.6335 69.7035 69.3724 69.7088 69.1126 69.7088C67.7987 69.7088 66.4862 69.7115 65.1724 69.7088C64.6876 69.7075 64.7518 69.7664 64.7518 69.3044C64.7492 66.3954 64.7505 63.4865 64.7505 60.5789Z" fill="white"/>
<path fill-rule="evenodd" clip-rule="evenodd" d="M113.964 39.9561V31.3043V31.1275C113.967 30.8235 113.967 30.8195 114.272 30.8195H118.992C119.309 30.8195 119.298 30.79 119.298 31.1249C119.297 33.9025 119.297 36.6802 119.297 39.4579V44.2083C119.297 44.29 119.301 44.3744 119.298 44.4561C119.294 44.578 119.356 44.6262 119.472 44.6222C119.556 44.6208 119.637 44.6235 119.72 44.6235H126.106C126.178 44.6235 126.249 44.6208 126.32 44.6235C126.572 44.6316 126.576 44.6316 126.577 44.878C126.58 45.4686 126.579 46.0606 126.579 46.6512C126.579 47.3838 126.58 48.1164 126.577 48.8503C126.576 49.1008 126.571 49.1048 126.324 49.1075C125.909 49.1115 125.495 49.1088 125.081 49.1088H114.438C114.343 49.1088 114.248 49.1048 114.154 49.1088C114.022 49.1155 113.953 49.0659 113.964 48.9253C113.969 48.8436 113.964 48.7592 113.964 48.6775V39.9561Z" fill="white"/>
<path fill-rule="evenodd" clip-rule="evenodd" d="M99.5184 39.9342C99.5184 37.0266 99.5184 34.119 99.5197 31.2114C99.5197 30.7574 99.4701 30.8203 99.9175 30.8203C101.432 30.8177 102.946 30.819 104.459 30.819C104.542 30.819 104.625 30.8217 104.708 30.819C104.809 30.8163 104.861 30.8592 104.858 30.965C104.855 31.0601 104.858 31.1538 104.858 31.2489C104.858 35.5748 104.858 39.9007 104.859 44.2266C104.859 44.6498 104.79 44.6244 105.256 44.6244C107.385 44.6257 109.515 44.6257 111.643 44.6257C111.726 44.6257 111.809 44.6324 111.891 44.6244C112.057 44.6083 112.118 44.6686 112.116 44.8427C112.106 45.4574 112.112 46.0721 112.112 46.6869C112.112 47.3954 112.113 48.1065 112.112 48.815C112.11 49.1043 112.108 49.1083 111.824 49.1083C110.865 49.111 109.907 49.1096 108.948 49.1096H100.007H99.8652C99.521 49.107 99.5197 49.107 99.5197 48.7628C99.5184 45.8204 99.5184 42.8766 99.5184 39.9342Z" fill="white"/>
<mask id="mask2_1039_21530" style="mask-type:alpha" maskUnits="userSpaceOnUse" x="0" y="26" width="56" height="49">
<path fill-rule="evenodd" clip-rule="evenodd" d="M30.5062 26.3394C29.6116 26.342 28.717 26.3902 27.8223 26.4827C26.0411 26.6648 24.2933 27.009 22.5817 27.5313C18.3629 28.8157 14.6143 30.9358 11.3504 33.8996C8.27411 36.6934 5.925 40.0041 4.37009 43.8652C3.5317 45.9465 2.98259 48.1027 2.75089 50.3394C2.61429 51.6478 2.58482 52.9563 2.67723 54.2675C2.75893 55.426 2.74955 56.5818 2.55804 57.7322C2.48839 58.1501 2.41205 58.5679 2.33705 58.9858C2.26205 59.0929 2.25937 59.2175 2.25536 59.3407C2.18705 59.3769 2.19643 59.4438 2.19777 59.5081C2.18571 59.5389 2.175 59.5711 2.16295 59.6032C2.07589 59.8724 1.95804 60.1309 1.90982 60.4108C1.7317 60.8327 1.55223 61.2545 1.37545 61.6751C1.36741 61.7019 1.36205 61.7273 1.35536 61.7514C1.23616 61.9349 1.12902 62.1264 1.06339 62.3353C0.988393 62.3742 0.977679 62.4505 0.957589 62.5202C0.707143 62.934 0.419196 63.3291 0.250446 63.7898C0.199554 63.8836 0.151339 63.9773 0.152679 64.0871C0.124554 64.1568 0.117857 64.2264 0.129911 64.3001C0.0830357 64.3202 0.0736607 64.4032 0 64.3818V65.2349C0.183482 65.3514 0.133929 65.5751 0.223661 65.7344C0.220982 65.792 0.24375 65.8389 0.283929 65.8778C0.287946 65.9019 0.293304 65.9286 0.298661 65.9554C0.316071 66.0371 0.349554 66.1108 0.420536 66.1617C0.490179 66.4202 0.666964 66.605 0.851786 66.7831C1.09821 67.0175 1.32187 67.28 1.66875 67.3764C1.82679 67.4836 1.99955 67.5612 2.19375 67.5827C2.20312 67.6027 2.21652 67.6094 2.23661 67.6027C2.31429 67.651 2.39598 67.659 2.48438 67.6456C2.60089 67.7166 2.73214 67.7072 2.86339 67.7045C3.09911 67.7019 3.33348 67.7019 3.5692 67.6952C4.30179 67.6791 5.03304 67.7273 5.75893 67.8117L5.77902 67.8304L5.8058 67.8251C6.61607 67.9724 7.41964 68.1438 8.20312 68.3916C8.32902 68.4452 8.44955 68.5121 8.59286 68.5028C8.72277 68.6112 8.89152 68.638 9.04286 68.6956C9.49687 68.8617 9.91339 69.1081 10.3647 69.2782H10.3687C10.4478 69.3438 10.5254 69.4161 10.6393 69.4121C10.6768 69.4644 10.7237 69.4965 10.7879 69.5005C10.9366 69.6304 11.1067 69.7228 11.2848 69.7992C11.2942 69.8353 11.3183 69.8461 11.3545 69.8407C11.5473 69.992 11.7563 70.1246 11.9759 70.2344C11.9879 70.2706 12.0134 70.2907 12.0496 70.2987C12.233 70.4206 12.4085 70.5572 12.6013 70.6657C13.0554 70.9242 13.4799 71.2389 13.9754 71.4251C14.0759 71.5202 14.1951 71.5818 14.3277 71.6152C15.1031 72.0411 15.9174 72.376 16.7478 72.6733C17.2888 72.8661 17.8246 73.0858 18.3937 73.1969C18.4701 73.2746 18.5705 73.2519 18.6643 73.2666C18.8933 73.3603 19.1304 73.4327 19.3781 73.4554C19.3513 73.3228 19.2964 73.2224 19.2147 73.1554C19.2964 73.2224 19.3513 73.3228 19.3781 73.4554C19.425 73.4675 19.4719 73.4782 19.5187 73.4889C19.6286 73.5505 19.7504 73.5719 19.8763 73.5773C20.3223 73.6844 20.7643 73.8117 21.2263 73.8237C21.292 73.8746 21.3683 73.876 21.446 73.8679C21.4915 73.8746 21.5357 73.8786 21.5812 73.884C22.3071 74.0219 23.0411 74.0929 23.7817 74.117C23.783 74.1358 23.7844 74.1545 23.7844 74.1733H26.483C26.4817 74.1492 26.4817 74.1224 26.4817 74.0969C26.4817 74.1224 26.4817 74.1492 26.483 74.1733H27.4045C27.371 74.1599 27.3603 74.1358 27.375 74.101C27.3027 74.0983 27.229 74.0969 27.1567 74.0943C27.229 74.0969 27.3027 74.0983 27.3763 74.101C27.8237 74.0836 28.271 74.0594 28.7103 73.9617L28.7304 73.9603C28.7638 73.9577 28.796 73.955 28.8295 73.951C28.9487 73.955 29.0692 73.9644 29.1763 73.8974C29.2808 73.9054 29.3813 73.9068 29.4817 73.8733C29.8098 73.8224 30.1406 73.7862 30.458 73.6844C30.4728 73.6844 30.4902 73.6844 30.5049 73.6858C30.5692 73.6898 30.6348 73.6952 30.6737 73.6175C30.7192 73.6121 30.7647 73.6054 30.8089 73.6001C31.046 73.6496 31.2536 73.5545 31.4665 73.4782C31.5362 73.4675 31.6071 73.4581 31.6781 73.4474C31.7491 73.4541 31.808 73.4206 31.8696 73.3885C32.0531 73.3844 32.2272 73.3429 32.3906 73.2559C32.8513 73.1929 33.2812 73.0228 33.7205 72.8836C33.7621 72.8876 33.8049 72.8916 33.8022 72.83L33.8076 72.842C34.0353 72.8179 34.2482 72.7456 34.4478 72.6358C34.6728 72.5769 34.8978 72.5166 35.0987 72.3947C35.2179 72.3934 35.3223 72.3586 35.4013 72.2635C35.4737 72.2876 35.5406 72.2608 35.6036 72.234C36.0562 72.0452 36.5129 71.863 36.9576 71.6554C37.3379 71.48 37.7344 71.3327 38.0879 71.101C38.2754 71.0608 38.4268 70.9523 38.5781 70.8452C38.5446 70.8184 38.5138 70.7916 38.4804 70.7675C38.4763 70.7447 38.4723 70.7246 38.4683 70.7032C38.4723 70.7246 38.4763 70.7447 38.4804 70.7675C38.5138 70.7916 38.5446 70.8184 38.5781 70.8452C38.7335 70.8144 38.858 70.7286 38.9759 70.6295C38.933 70.6242 38.8915 70.6135 38.8621 70.5853C38.8915 70.6135 38.933 70.6242 38.9759 70.6295C39.0174 70.6242 39.0522 70.6094 39.075 70.5719C39.1902 70.5438 39.2906 70.4929 39.3723 70.4045C39.4781 70.4019 39.5558 70.3469 39.6201 70.2679C39.7379 70.2344 39.8357 70.1675 39.9268 70.0911L39.9201 70.0818L39.9268 70.0911C39.9844 70.0751 40.0393 70.055 40.0728 70.0001C40.1518 69.9693 40.2321 69.9371 40.2897 69.8675C40.6554 69.6586 41.0344 69.4657 41.3397 69.1644C41.3397 69.1644 41.3491 69.159 41.3491 69.1577C41.4362 69.1711 41.4884 69.1175 41.5353 69.0559C41.6772 68.9916 41.8018 68.9005 41.9103 68.7907C42.2411 68.6112 42.5263 68.3702 42.8116 68.1291C42.9147 68.0943 42.9991 68.038 43.05 67.9403C43.1652 67.8987 43.2469 67.8103 43.3379 67.7367C44.242 67.0081 45.0951 66.2273 45.9013 65.3943C48.8076 62.3903 50.9518 58.9228 52.2321 54.9371C53.1442 52.0952 53.5272 49.1809 53.3036 46.2023C53.1696 44.413 53.3437 42.6679 53.8205 40.9443C53.9143 40.6041 54.079 40.2853 54.1259 39.9318L54.1192 39.9224C54.2705 39.7322 54.3388 39.5059 54.3951 39.2755C54.4527 39.2367 54.4634 39.1764 54.4647 39.1148C54.5853 38.9688 54.6482 38.7987 54.6924 38.6193L54.6964 38.6166C54.8263 38.4291 54.9402 38.2322 55.0192 38.0166C55.1022 37.9349 55.1451 37.8331 55.1705 37.7219C55.2589 37.6443 55.3192 37.5452 55.358 37.4327C55.3741 37.4059 55.3888 37.3791 55.4036 37.3523C55.4692 37.2947 55.508 37.2224 55.5254 37.138C55.6848 36.9304 55.7893 36.7001 55.808 36.4362C55.9259 36.0786 55.9942 35.7197 55.875 35.3501C55.8817 35.2322 55.8964 35.1144 55.8201 35.0099C55.8268 34.955 55.8161 34.9041 55.7799 34.8586C55.7223 34.6175 55.6393 34.3871 55.4719 34.1956C55.2629 33.7952 54.9536 33.4925 54.5585 33.2769L54.5491 33.2782C54.4929 33.1978 54.4085 33.1657 54.3174 33.1443C54.233 33.0773 54.146 33.017 54.0321 33.017C53.8728 32.9233 53.708 32.8644 53.5205 32.8858C53.4643 32.863 53.408 32.8711 53.3531 32.8791C53.3196 32.8831 53.2875 32.8871 53.2554 32.8844C53.2379 32.8496 53.2179 32.8215 53.1723 32.8349C53.1201 32.8322 53.0692 32.8282 53.0183 32.8255C52.9808 32.8282 52.9433 32.8295 52.9058 32.8322C52.8897 32.8724 52.8696 32.9126 52.8549 32.9541C52.8696 32.9126 52.8884 32.8724 52.9045 32.8322C52.8509 32.8336 52.7973 32.8362 52.7437 32.8362C52.6754 32.8362 52.6085 32.8389 52.5402 32.8389C52.4946 32.8215 52.4491 32.8242 52.4036 32.8456C52.121 32.8215 51.8371 32.8161 51.5531 32.8295C51.5036 32.8282 51.4527 32.8255 51.4031 32.8242C51.2638 32.8161 51.1259 32.8094 50.9839 32.8001C50.9826 32.8269 50.9813 32.855 50.9786 32.8804C50.9813 32.855 50.9826 32.8269 50.9839 32.8001C50.7335 32.717 50.467 32.7478 50.2098 32.6929L48.9201 32.4652C48.8772 32.4545 48.8357 32.4438 48.7942 32.4331C48.7915 32.4478 48.7862 32.4612 48.7795 32.4746C48.7862 32.4612 48.7915 32.4478 48.7942 32.4331L48.2089 32.2684C47.8808 32.1626 47.5487 32.0581 47.2179 31.9523C47.017 31.8612 46.8228 31.7541 46.6152 31.6871C46.4638 31.6362 46.3366 31.505 46.1585 31.5438C46.1344 31.5385 46.1076 31.5344 46.0835 31.5291C46.0795 31.4929 46.0687 31.4621 46.0272 31.4527C45.9455 31.3751 45.8451 31.3322 45.7366 31.3054C45.4246 31.1327 45.1138 30.9586 44.8031 30.7858C44.6263 30.6666 44.4576 30.5327 44.2554 30.451C44.1107 30.3411 43.9835 30.2099 43.808 30.1443C43.7196 30.076 43.6473 29.9809 43.5228 29.9715C43.4277 29.8617 43.3045 29.7974 43.1705 29.7519C42.5625 29.3286 41.8982 29.0059 41.2339 28.6898C40.7812 28.4755 40.3366 28.2344 39.8451 28.1112L39.8424 28.1219C39.8344 28.0684 39.7982 28.063 39.7567 28.0657C39.1406 27.7844 38.4991 27.5715 37.8429 27.4094C37.8295 27.3894 37.808 27.3813 37.7853 27.384C37.6969 27.3519 37.6112 27.313 37.5201 27.2889C36.0013 26.8657 34.4558 26.5764 32.8875 26.4385C32.1536 26.3755 31.421 26.342 30.6871 26.3394H30.5062ZM29.1281 73.6536C29.1643 73.7032 29.1804 73.7648 29.1817 73.8304C29.1804 73.7648 29.1643 73.7032 29.1281 73.6536Z" fill="white"/>
</mask>
<g mask="url(#mask2_1039_21530)">
<path fill-rule="evenodd" clip-rule="evenodd" d="M30.5062 26.3394C29.6116 26.342 28.717 26.3902 27.8223 26.4827C26.0411 26.6648 24.2933 27.009 22.5817 27.5313C18.3629 28.8157 14.6143 30.9358 11.3504 33.8996C8.27411 36.6934 5.925 40.0041 4.37009 43.8652C3.5317 45.9465 2.98259 48.1027 2.75089 50.3394C2.61429 51.6478 2.58482 52.9563 2.67723 54.2675C2.75893 55.426 2.74955 56.5818 2.55804 57.7322C2.48839 58.1501 2.41205 58.5679 2.33705 58.9858C2.26205 59.0929 2.25937 59.2175 2.25536 59.3407C2.18705 59.3769 2.19643 59.4438 2.19777 59.5081C2.18571 59.5389 2.175 59.5711 2.16295 59.6032C2.07589 59.8724 1.95804 60.1309 1.90982 60.4108C1.7317 60.8327 1.55223 61.2545 1.37545 61.6751C1.36741 61.7019 1.36205 61.7273 1.35536 61.7514C1.23616 61.9349 1.12902 62.1264 1.06339 62.3353C0.988393 62.3742 0.977679 62.4505 0.957589 62.5202C0.707143 62.934 0.419196 63.3291 0.250446 63.7898C0.199554 63.8836 0.151339 63.9773 0.152679 64.0871C0.124554 64.1568 0.117857 64.2264 0.129911 64.3001C0.0830357 64.3202 0.0736607 64.4032 0 64.3818V65.2349C0.183482 65.3514 0.133929 65.5751 0.223661 65.7344C0.220982 65.792 0.24375 65.8389 0.283929 65.8778C0.287946 65.9019 0.293304 65.9286 0.298661 65.9554C0.316071 66.0371 0.349554 66.1108 0.420536 66.1617C0.490179 66.4202 0.666964 66.605 0.851786 66.7831C1.09821 67.0175 1.32187 67.28 1.66875 67.3764C1.82679 67.4836 1.99955 67.5612 2.19375 67.5827C2.20312 67.6027 2.21652 67.6094 2.23661 67.6027C2.31429 67.651 2.39598 67.659 2.48438 67.6456C2.60089 67.7166 2.73214 67.7072 2.86339 67.7045C3.09911 67.7019 3.33348 67.7019 3.5692 67.6952C4.30179 67.6791 5.03304 67.7273 5.75893 67.8117L5.77902 67.8304L5.8058 67.8251C6.61607 67.9724 7.41964 68.1438 8.20312 68.3916C8.32902 68.4452 8.44955 68.5121 8.59286 68.5028C8.72277 68.6112 8.89152 68.638 9.04286 68.6956C9.49687 68.8617 9.91339 69.1081 10.3647 69.2782H10.3687C10.4478 69.3438 10.5254 69.4161 10.6393 69.4121C10.6768 69.4644 10.7237 69.4965 10.7879 69.5005C10.9366 69.6304 11.1067 69.7228 11.2848 69.7992C11.2942 69.8353 11.3183 69.8461 11.3545 69.8407C11.5473 69.992 11.7563 70.1246 11.9759 70.2344C11.9879 70.2706 12.0134 70.2907 12.0496 70.2987C12.233 70.4206 12.4085 70.5572 12.6013 70.6657C13.0554 70.9242 13.4799 71.2389 13.9754 71.4251C14.0759 71.5202 14.1951 71.5818 14.3277 71.6152C15.1031 72.0411 15.9174 72.376 16.7478 72.6733C17.2888 72.8661 17.8246 73.0858 18.3937 73.1969C18.4701 73.2746 18.5705 73.2519 18.6643 73.2666C18.8933 73.3603 19.1304 73.4327 19.3781 73.4554C19.3513 73.3228 19.2964 73.2224 19.2147 73.1554C19.2964 73.2224 19.3513 73.3228 19.3781 73.4554C19.425 73.4675 19.4719 73.4782 19.5187 73.4889C19.6286 73.5505 19.7504 73.5719 19.8763 73.5773C20.3223 73.6844 20.7643 73.8117 21.2263 73.8237C21.292 73.8746 21.3683 73.876 21.446 73.8679C21.4915 73.8746 21.5357 73.8786 21.5812 73.884C22.3071 74.0219 23.0411 74.0929 23.7817 74.117C23.783 74.1358 23.7844 74.1545 23.7844 74.1733H26.483C26.4817 74.1492 26.4817 74.1224 26.4817 74.0969C26.4817 74.1224 26.4817 74.1492 26.483 74.1733H27.4045C27.371 74.1599 27.3603 74.1358 27.375 74.101C27.3027 74.0983 27.229 74.0969 27.1567 74.0943C27.229 74.0969 27.3027 74.0983 27.3763 74.101C27.8237 74.0836 28.271 74.0594 28.7103 73.9617L28.7304 73.9603C28.7638 73.9577 28.796 73.955 28.8295 73.951C28.9487 73.955 29.0692 73.9644 29.1763 73.8974C29.2808 73.9054 29.3813 73.9068 29.4817 73.8733C29.8098 73.8224 30.1406 73.7862 30.458 73.6844C30.4728 73.6844 30.4902 73.6844 30.5049 73.6858C30.5692 73.6898 30.6348 73.6952 30.6737 73.6175C30.7192 73.6121 30.7647 73.6054 30.8089 73.6001C31.046 73.6496 31.2536 73.5545 31.4665 73.4782C31.5362 73.4675 31.6071 73.4581 31.6781 73.4474C31.7491 73.4541 31.808 73.4206 31.8696 73.3885C32.0531 73.3844 32.2272 73.3429 32.3906 73.2559C32.8513 73.1929 33.2812 73.0228 33.7205 72.8836C33.7621 72.8876 33.8049 72.8916 33.8022 72.83L33.8076 72.842C34.0353 72.8179 34.2482 72.7456 34.4478 72.6358C34.6728 72.5769 34.8978 72.5166 35.0987 72.3947C35.2179 72.3934 35.3223 72.3586 35.4013 72.2635C35.4737 72.2876 35.5406 72.2608 35.6036 72.234C36.0562 72.0452 36.5129 71.863 36.9576 71.6554C37.3379 71.48 37.7344 71.3327 38.0879 71.101C38.2754 71.0608 38.4268 70.9523 38.5781 70.8452C38.5446 70.8184 38.5138 70.7916 38.4804 70.7675C38.4763 70.7447 38.4723 70.7246 38.4683 70.7032C38.4723 70.7246 38.4763 70.7447 38.4804 70.7675C38.5138 70.7916 38.5446 70.8184 38.5781 70.8452C38.7335 70.8144 38.858 70.7286 38.9759 70.6295C38.933 70.6242 38.8915 70.6135 38.8621 70.5853C38.8915 70.6135 38.933 70.6242 38.9759 70.6295C39.0174 70.6242 39.0522 70.6094 39.075 70.5719C39.1902 70.5438 39.2906 70.4929 39.3723 70.4045C39.4781 70.4019 39.5558 70.3469 39.6201 70.2679C39.7379 70.2344 39.8357 70.1675 39.9268 70.0911L39.9201 70.0818L39.9268 70.0911C39.9844 70.0751 40.0393 70.055 40.0728 70.0001C40.1518 69.9693 40.2321 69.9371 40.2897 69.8675C40.6554 69.6586 41.0344 69.4657 41.3397 69.1644C41.3397 69.1644 41.3491 69.159 41.3491 69.1577C41.4362 69.1711 41.4884 69.1175 41.5353 69.0559C41.6772 68.9916 41.8018 68.9005 41.9103 68.7907C42.2411 68.6112 42.5263 68.3702 42.8116 68.1291C42.9147 68.0943 42.9991 68.038 43.05 67.9403C43.1652 67.8987 43.2469 67.8103 43.3379 67.7367C44.242 67.0081 45.0951 66.2273 45.9013 65.3943C48.8076 62.3903 50.9518 58.9228 52.2321 54.9371C53.1442 52.0952 53.5272 49.1809 53.3036 46.2023C53.1696 44.413 53.3437 42.6679 53.8205 40.9443C53.9143 40.6041 54.079 40.2853 54.1259 39.9318L54.1192 39.9224C54.2705 39.7322 54.3388 39.5059 54.3951 39.2755C54.4527 39.2367 54.4634 39.1764 54.4647 39.1148C54.5853 38.9688 54.6482 38.7987 54.6924 38.6193L54.6964 38.6166C54.8263 38.4291 54.9402 38.2322 55.0192 38.0166C55.1022 37.9349 55.1451 37.8331 55.1705 37.7219C55.2589 37.6443 55.3192 37.5452 55.358 37.4327C55.3741 37.4059 55.3888 37.3791 55.4036 37.3523C55.4692 37.2947 55.508 37.2224 55.5254 37.138C55.6848 36.9304 55.7893 36.7001 55.808 36.4362C55.9259 36.0786 55.9942 35.7197 55.875 35.3501C55.8817 35.2322 55.8964 35.1144 55.8201 35.0099C55.8268 34.955 55.8161 34.9041 55.7799 34.8586C55.7223 34.6175 55.6393 34.3871 55.4719 34.1956C55.2629 33.7952 54.9536 33.4925 54.5585 33.2769L54.5491 33.2782C54.4929 33.1978 54.4085 33.1657 54.3174 33.1443C54.233 33.0773 54.146 33.017 54.0321 33.017C53.8728 32.9233 53.708 32.8644 53.5205 32.8858C53.4643 32.863 53.408 32.8711 53.3531 32.8791C53.3196 32.8831 53.2875 32.8871 53.2554 32.8844C53.2379 32.8496 53.2179 32.8215 53.1723 32.8349C53.1201 32.8322 53.0692 32.8282 53.0183 32.8255C52.9808 32.8282 52.9433 32.8295 52.9058 32.8322C52.8897 32.8724 52.8696 32.9126 52.8549 32.9541C52.8696 32.9126 52.8884 32.8724 52.9045 32.8322C52.8509 32.8336 52.7973 32.8362 52.7437 32.8362C52.6754 32.8362 52.6085 32.8389 52.5402 32.8389C52.4946 32.8215 52.4491 32.8242 52.4036 32.8456C52.121 32.8215 51.8371 32.8161 51.5531 32.8295C51.5036 32.8282 51.4527 32.8255 51.4031 32.8242C51.2638 32.8161 51.1259 32.8094 50.9839 32.8001C50.9826 32.8269 50.9813 32.855 50.9786 32.8804C50.9813 32.855 50.9826 32.8269 50.9839 32.8001C50.7335 32.717 50.467 32.7478 50.2098 32.6929L48.9201 32.4652C48.8772 32.4545 48.8357 32.4438 48.7942 32.4331C48.7915 32.4478 48.7862 32.4612 48.7795 32.4746C48.7862 32.4612 48.7915 32.4478 48.7942 32.4331L48.2089 32.2684C47.8808 32.1626 47.5487 32.0581 47.2179 31.9523C47.017 31.8612 46.8228 31.7541 46.6152 31.6871C46.4638 31.6362 46.3366 31.505 46.1585 31.5438C46.1344 31.5385 46.1076 31.5344 46.0835 31.5291C46.0795 31.4929 46.0687 31.4621 46.0272 31.4527C45.9455 31.3751 45.8451 31.3322 45.7366 31.3054C45.4246 31.1327 45.1138 30.9586 44.8031 30.7858C44.6263 30.6666 44.4576 30.5327 44.2554 30.451C44.1107 30.3411 43.9835 30.2099 43.808 30.1443C43.7196 30.076 43.6473 29.9809 43.5228 29.9715C43.4277 29.8617 43.3045 29.7974 43.1705 29.7519C42.5625 29.3286 41.8982 29.0059 41.2339 28.6898C40.7812 28.4755 40.3366 28.2344 39.8451 28.1112L39.8424 28.1219C39.8344 28.0684 39.7982 28.063 39.7567 28.0657C39.1406 27.7844 38.4991 27.5715 37.8429 27.4094C37.8295 27.3894 37.808 27.3813 37.7853 27.384C37.6969 27.3519 37.6112 27.313 37.5201 27.2889C36.0013 26.8657 34.4558 26.5764 32.8875 26.4385C32.1536 26.3755 31.421 26.342 30.6871 26.3394H30.5062ZM29.1281 73.6536C29.1643 73.7032 29.1804 73.7648 29.1817 73.8304C29.1804 73.7648 29.1643 73.7032 29.1281 73.6536Z" fill="white"/>
</g>
<mask id="mask3_1039_21530" style="mask-type:alpha" maskUnits="userSpaceOnUse" x="3" y="26" width="53" height="20">
<path fill-rule="evenodd" clip-rule="evenodd" d="M30.5062 26.3394C29.6115 26.342 28.7169 26.3902 27.8223 26.4827C26.041 26.6648 24.2932 27.009 22.5816 27.5313C18.3629 28.8157 14.6142 30.9358 11.3504 33.8996C8.27404 36.6934 5.92493 40.0041 4.37002 43.8652C4.20529 44.2737 4.05261 44.6849 3.91064 45.0987H53.2593C53.2553 43.6938 53.4414 42.3117 53.8205 40.9443C53.9142 40.6041 54.0789 40.2853 54.1258 39.9318L54.1191 39.9224C54.2705 39.7322 54.3388 39.5059 54.395 39.2755C54.4526 39.2367 54.4633 39.1764 54.4647 39.1148C54.5852 38.9688 54.6481 38.7987 54.6923 38.6193L54.6964 38.6166C54.8263 38.4291 54.9401 38.2322 55.0191 38.0166C55.1022 37.9349 55.145 37.8331 55.1705 37.7219C55.2589 37.6443 55.3191 37.5452 55.358 37.4327C55.374 37.4059 55.3888 37.3791 55.4035 37.3523C55.4691 37.2947 55.508 37.2224 55.5254 37.138C55.6847 36.9304 55.7892 36.7001 55.808 36.4362C55.9258 36.0786 55.9941 35.7197 55.8749 35.3501C55.8816 35.2322 55.8964 35.1144 55.82 35.0099C55.8267 34.955 55.816 34.9041 55.7798 34.8586C55.7222 34.6175 55.6392 34.3871 55.4718 34.1956C55.2629 33.7952 54.9535 33.4925 54.5584 33.2769L54.549 33.2782C54.4928 33.1978 54.4084 33.1657 54.3173 33.1443C54.233 33.0773 54.1459 33.017 54.0321 33.017C53.8727 32.9233 53.708 32.8644 53.5205 32.8858C53.4642 32.863 53.408 32.8711 53.3531 32.8791C53.3196 32.8831 53.2874 32.8871 53.2553 32.8844C53.2379 32.8496 53.2178 32.8215 53.1723 32.8349C53.12 32.8322 53.0691 32.8282 53.0182 32.8255C52.9807 32.8282 52.9432 32.8295 52.9057 32.8322C52.8897 32.8724 52.8696 32.9126 52.8548 32.9541C52.8696 32.9126 52.8883 32.8724 52.9044 32.8322C52.8508 32.8336 52.7973 32.8362 52.7437 32.8362C52.6754 32.8362 52.6084 32.8389 52.5401 32.8389C52.4946 32.8215 52.449 32.8242 52.4035 32.8456C52.1209 32.8215 51.837 32.8161 51.5531 32.8295C51.5035 32.8282 51.4526 32.8255 51.4031 32.8242C51.2638 32.8161 51.1258 32.8094 50.9839 32.8001C50.9825 32.8269 50.9812 32.855 50.9785 32.8804C50.9812 32.855 50.9825 32.8269 50.9839 32.8001C50.7334 32.717 50.4669 32.7478 50.2098 32.6929L48.92 32.4652C48.8772 32.4545 48.8356 32.4438 48.7941 32.4331C48.7914 32.4478 48.7861 32.4612 48.7794 32.4746C48.7861 32.4612 48.7914 32.4478 48.7941 32.4331L48.2089 32.2684C47.8807 32.1626 47.5486 32.0581 47.2178 31.9523C47.0169 31.8612 46.8227 31.7541 46.6151 31.6871C46.4638 31.6362 46.3365 31.505 46.1584 31.5438C46.1343 31.5385 46.1075 31.5344 46.0834 31.5291C46.0794 31.4929 46.0687 31.4621 46.0272 31.4527C45.9455 31.3751 45.845 31.3322 45.7365 31.3054C45.4245 31.1327 45.1138 30.9586 44.8031 30.7858C44.6263 30.6666 44.4575 30.5327 44.2553 30.451C44.1106 30.3411 43.9834 30.2099 43.808 30.1443C43.7196 30.076 43.6473 29.9809 43.5227 29.9715C43.4276 29.8617 43.3044 29.7974 43.1705 29.7519C42.5624 29.3286 41.8981 29.0059 41.2339 28.6898C40.7812 28.4755 40.3365 28.2344 39.845 28.1112L39.8423 28.1219C39.8343 28.0684 39.7981 28.063 39.7566 28.0657C39.1406 27.7844 38.499 27.5715 37.8428 27.4094C37.8294 27.3894 37.808 27.3813 37.7852 27.384C37.6968 27.3519 37.6111 27.313 37.52 27.2889C36.0013 26.8657 34.4557 26.5764 32.8874 26.4385C32.1535 26.3755 31.4209 26.342 30.687 26.3394H30.5062Z" fill="white"/>
</mask>
<g mask="url(#mask3_1039_21530)">
<path fill-rule="evenodd" clip-rule="evenodd" d="M30.5062 26.3394C29.6115 26.342 28.7169 26.3902 27.8223 26.4827C26.041 26.6648 24.2932 27.009 22.5816 27.5313C18.3629 28.8157 14.6142 30.9358 11.3504 33.8996C8.27404 36.6934 5.92493 40.0041 4.37002 43.8652C4.20529 44.2737 4.05261 44.6849 3.91064 45.0987H53.2593C53.2553 43.6938 53.4414 42.3117 53.8205 40.9443C53.9142 40.6041 54.0789 40.2853 54.1258 39.9318L54.1191 39.9224C54.2705 39.7322 54.3388 39.5059 54.395 39.2755C54.4526 39.2367 54.4633 39.1764 54.4647 39.1148C54.5852 38.9688 54.6481 38.7987 54.6923 38.6193L54.6964 38.6166C54.8263 38.4291 54.9401 38.2322 55.0191 38.0166C55.1022 37.9349 55.145 37.8331 55.1705 37.7219C55.2589 37.6443 55.3191 37.5452 55.358 37.4327C55.374 37.4059 55.3888 37.3791 55.4035 37.3523C55.4691 37.2947 55.508 37.2224 55.5254 37.138C55.6847 36.9304 55.7892 36.7001 55.808 36.4362C55.9258 36.0786 55.9941 35.7197 55.8749 35.3501C55.8816 35.2322 55.8964 35.1144 55.82 35.0099C55.8267 34.955 55.816 34.9041 55.7798 34.8586C55.7222 34.6175 55.6392 34.3871 55.4718 34.1956C55.2629 33.7952 54.9535 33.4925 54.5584 33.2769L54.549 33.2782C54.4928 33.1978 54.4084 33.1657 54.3173 33.1443C54.233 33.0773 54.1459 33.017 54.0321 33.017C53.8727 32.9233 53.708 32.8644 53.5205 32.8858C53.4642 32.863 53.408 32.8711 53.3531 32.8791C53.3196 32.8831 53.2874 32.8871 53.2553 32.8844C53.2379 32.8496 53.2178 32.8215 53.1723 32.8349C53.12 32.8322 53.0691 32.8282 53.0182 32.8255C52.9807 32.8282 52.9432 32.8295 52.9057 32.8322C52.8897 32.8724 52.8696 32.9126 52.8548 32.9541C52.8696 32.9126 52.8883 32.8724 52.9044 32.8322C52.8508 32.8336 52.7973 32.8362 52.7437 32.8362C52.6754 32.8362 52.6084 32.8389 52.5401 32.8389C52.4946 32.8215 52.449 32.8242 52.4035 32.8456C52.1209 32.8215 51.837 32.8161 51.5531 32.8295C51.5035 32.8282 51.4526 32.8255 51.4031 32.8242C51.2638 32.8161 51.1258 32.8094 50.9839 32.8001C50.9825 32.8269 50.9812 32.855 50.9785 32.8804C50.9812 32.855 50.9825 32.8269 50.9839 32.8001C50.7334 32.717 50.4669 32.7478 50.2098 32.6929L48.92 32.4652C48.8772 32.4545 48.8356 32.4438 48.7941 32.4331C48.7914 32.4478 48.7861 32.4612 48.7794 32.4746C48.7861 32.4612 48.7914 32.4478 48.7941 32.4331L48.2089 32.2684C47.8807 32.1626 47.5486 32.0581 47.2178 31.9523C47.0169 31.8612 46.8227 31.7541 46.6151 31.6871C46.4638 31.6362 46.3365 31.505 46.1584 31.5438C46.1343 31.5385 46.1075 31.5344 46.0834 31.5291C46.0794 31.4929 46.0687 31.4621 46.0272 31.4527C45.9455 31.3751 45.845 31.3322 45.7365 31.3054C45.4245 31.1327 45.1138 30.9586 44.8031 30.7858C44.6263 30.6666 44.4575 30.5327 44.2553 30.451C44.1106 30.3411 43.9834 30.2099 43.808 30.1443C43.7196 30.076 43.6473 29.9809 43.5227 29.9715C43.4276 29.8617 43.3044 29.7974 43.1705 29.7519C42.5624 29.3286 41.8981 29.0059 41.2339 28.6898C40.7812 28.4755 40.3365 28.2344 39.845 28.1112L39.8423 28.1219C39.8343 28.0684 39.7981 28.063 39.7566 28.0657C39.1406 27.7844 38.499 27.5715 37.8428 27.4094C37.8294 27.3894 37.808 27.3813 37.7852 27.384C37.6968 27.3519 37.6111 27.313 37.52 27.2889C36.0013 26.8657 34.4557 26.5764 32.8874 26.4385C32.1535 26.3755 31.4209 26.342 30.687 26.3394H30.5062Z" fill="white"/>
</g>
</svg>
