<svg width="258" height="120" viewBox="0 0 258 120" fill="none" xmlns="http://www.w3.org/2000/svg">
<path fill-rule="evenodd" clip-rule="evenodd" d="M23.9442 38.3755C11.3845 38.3755 1.19971 48.4684 1.19971 60.9054C1.19971 73.3424 11.3845 83.4254 23.9442 83.4254C36.4918 83.4254 46.6733 73.3424 46.6733 60.9054C46.6733 48.4684 36.4918 38.3755 23.9442 38.3755ZM23.9442 82.0454C12.1388 82.0454 2.59604 72.5747 2.59604 60.9054C2.59604 49.2189 12.1388 39.7568 23.9442 39.7568C35.7269 39.7568 45.2763 49.2189 45.2763 60.9054C45.2763 72.5747 35.7269 82.0454 23.9442 82.0454Z" fill="#62BB46"/>
<path fill-rule="evenodd" clip-rule="evenodd" d="M4.34326 60.7512C12.1065 63.1726 19.4239 70.6722 21.6412 80.2633C10.7309 78.8569 4.37063 69.9733 4.34326 60.7512Z" fill="#62BB46"/>
<path fill-rule="evenodd" clip-rule="evenodd" d="M43.4343 60.7512C35.6737 63.1726 28.2642 70.6722 26.1377 80.2633C37.0467 78.8569 43.4116 69.9733 43.4343 60.7512Z" fill="#62BB46"/>
<path fill-rule="evenodd" clip-rule="evenodd" d="M23.9156 80.2632C15.6431 67.61 17.4285 50.2561 23.9223 40.9104C30.1163 50.2561 32.052 67.61 23.9156 80.2632Z" fill="#62BB46"/>
<path fill-rule="evenodd" clip-rule="evenodd" d="M52.833 41.0083H57.835V47.7839H67.04V41.0083H72.0446V58.659H67.04V51.047H57.835V58.659H52.833V41.0083Z" fill="#231F20"/>
<path fill-rule="evenodd" clip-rule="evenodd" d="M76.0591 41.0083H93.0694V44.2734H81.061V48.053H92.0822V51.0702H81.061V55.3946H93.3243V58.659H76.0591V41.0083Z" fill="#231F20"/>
<path fill-rule="evenodd" clip-rule="evenodd" d="M101.321 48.9946H106.802C109.063 48.9946 110.24 48.2527 110.24 46.4727C110.24 44.768 109.063 44.0261 106.802 44.0261H101.321V48.9946ZM96.3188 41.0083H108.586C112.664 41.0083 115.245 43.2089 115.245 45.8789C115.245 47.9551 114.192 49.5143 111.644 50.3045V50.3527C114.097 50.8738 114.796 52.6783 114.956 54.4827C115.051 55.5956 114.989 57.6963 115.912 58.659H110.911C110.338 57.5495 110.368 55.8435 110.115 54.4325C109.764 52.5784 108.842 51.7638 106.323 51.7638H101.321V58.659H96.3188V41.0083Z" fill="#231F20"/>
<path fill-rule="evenodd" clip-rule="evenodd" d="M129.291 55.6435C131.238 55.6435 132.989 55.1496 132.989 53.3213C132.989 51.5168 131.556 50.798 129.389 50.798H123.941V55.6435H129.291ZM129.005 48.1538C130.791 48.1538 132.064 47.5342 132.064 46.0518C132.064 44.3954 130.406 44.0258 128.623 44.0258H123.941V48.1538H129.005ZM118.939 41.0093H129.644C133.977 41.0093 136.908 42.0963 136.908 45.3853C136.908 47.1395 135.825 48.3013 133.815 49.0696C136.62 49.6845 137.992 51.3429 137.992 53.5421C137.992 57.1279 134.073 58.66 129.963 58.66H118.939V41.0093Z" fill="#231F20"/>
<path fill-rule="evenodd" clip-rule="evenodd" d="M151.977 51.8371L149.109 45.361H149.045L146.084 51.8371H151.977ZM146.56 41.0095H151.69L160.196 58.6576H155.002L153.282 54.7279H144.775L142.993 58.6576H137.927L146.56 41.0095Z" fill="#231F20"/>
<path fill-rule="evenodd" clip-rule="evenodd" d="M161.788 41.0083H166.79V55.3946H177.878V58.659H161.788V41.0083Z" fill="#231F20"/>
<path fill-rule="evenodd" clip-rule="evenodd" d="M179.663 58.6579H184.666V41.0078H179.663V58.6579Z" fill="#231F20"/>
<path fill-rule="evenodd" clip-rule="evenodd" d="M188.678 41.0083H204.672V44.2734H193.68V48.3519H203.206V51.3677H193.68V58.659H188.678V41.0083Z" fill="#231F20"/>
<path fill-rule="evenodd" clip-rule="evenodd" d="M207.188 41.0083H224.202V44.2734H212.189V48.053H223.212V51.0702H212.189V55.3946H224.456V58.659H207.188V41.0083Z" fill="#231F20"/>
<path fill-rule="evenodd" clip-rule="evenodd" d="M52.8311 62.7234H57.799L67.2963 74.5639H67.3597V62.7234H72.0413V80.3735H67.0387L57.5781 68.5554H57.5133V80.3735H52.8311V62.7234Z" fill="#62BB46"/>
<path fill-rule="evenodd" clip-rule="evenodd" d="M95.4604 73.6974C95.4604 78.4714 91.8294 80.793 85.7421 80.793C79.5935 80.793 76.0586 78.5223 76.0586 73.6974V62.7244H81.0606V73.6974C81.0606 75.6282 81.6987 77.5325 85.7421 77.5325C89.3124 77.5325 90.4584 76.3429 90.4584 73.6974V62.7244H95.4604V73.6974Z" fill="#62BB46"/>
<path fill-rule="evenodd" clip-rule="evenodd" d="M104.712 65.986H97.897V62.7229H116.532V65.986H109.714V80.3736H104.712V65.986Z" fill="#62BB46"/>
<path fill-rule="evenodd" clip-rule="evenodd" d="M124.024 70.7097H129.504C131.765 70.7097 132.946 69.9671 132.946 68.1871C132.946 66.4805 131.765 65.7386 129.504 65.7386H124.024V70.7097ZM119.022 62.7234H131.29C135.37 62.7234 137.946 64.9233 137.946 67.592C137.946 69.6689 136.898 71.2267 134.345 72.0182V72.0691C136.8 72.5875 137.501 74.3927 137.661 76.1945C137.755 77.308 137.693 79.41 138.615 80.3735H133.614C133.042 79.2599 133.072 77.5553 132.816 76.1469C132.466 74.2942 131.546 73.4775 129.026 73.4775H124.024V80.3735H119.022V62.7234Z" fill="#62BB46"/>
<path fill-rule="evenodd" clip-rule="evenodd" d="M142.662 80.3732H147.663V62.7231H142.662V80.3732Z" fill="#62BB46"/>
<path fill-rule="evenodd" clip-rule="evenodd" d="M157.414 65.986H150.595V62.7229H169.233V65.986H162.416V80.3736H157.414V65.986Z" fill="#62BB46"/>
<path fill-rule="evenodd" clip-rule="evenodd" d="M172.164 80.3732H177.167V62.7231H172.164V80.3732Z" fill="#62BB46"/>
<path fill-rule="evenodd" clip-rule="evenodd" d="M191.12 77.5324C195.612 77.5324 197.3 74.5661 197.3 71.6224C197.3 68.5345 195.612 65.5642 191.12 65.5642C186.626 65.5642 184.938 68.5345 184.938 71.6224C184.938 74.5661 186.626 77.5324 191.12 77.5324ZM191.12 62.3018C198.127 62.3018 202.302 66.3815 202.302 71.6224C202.302 76.7191 198.127 80.7936 191.12 80.7936C184.112 80.7936 179.937 76.7191 179.937 71.6224C179.937 66.3815 184.112 62.3018 191.12 62.3018Z" fill="#62BB46"/>
<path fill-rule="evenodd" clip-rule="evenodd" d="M205.236 62.7234H210.208L219.701 74.5639H219.766V62.7234H224.449V80.3735H219.448L209.984 68.5554H209.919V80.3735H205.236V62.7234Z" fill="#62BB46"/>
</svg>
