<svg width="215" height="100" viewBox="0 0 215 100" fill="none" xmlns="http://www.w3.org/2000/svg">
<path fill-rule="evenodd" clip-rule="evenodd" d="M19.9537 31.9824C9.48734 31.9824 1 40.4321 1 50.8443C1 61.2564 9.48734 69.6978 19.9537 69.6978C30.4101 69.6978 38.8946 61.2564 38.8946 50.8443C38.8946 40.4321 30.4101 31.9824 19.9537 31.9824ZM19.9537 68.5425C10.1159 68.5425 2.16361 60.6137 2.16361 50.8443C2.16361 41.0604 10.1159 33.1388 19.9537 33.1388C29.7726 33.1388 37.7305 41.0604 37.7305 50.8443C37.7305 60.6137 29.7726 68.5425 19.9537 68.5425Z" fill="white"/>
<path fill-rule="evenodd" clip-rule="evenodd" d="M3.61963 50.7148C10.089 52.742 16.1868 59.0206 18.0346 67.0502C8.94264 65.8727 3.64243 58.4355 3.61963 50.7148Z" fill="white"/>
<path fill-rule="evenodd" clip-rule="evenodd" d="M36.1956 50.7148C29.7284 52.742 23.5539 59.0206 21.7817 67.0502C30.8726 65.8727 36.1767 58.4355 36.1956 50.7148Z" fill="white"/>
<path fill-rule="evenodd" clip-rule="evenodd" d="M19.9303 67.0503C13.0365 56.4572 14.5244 41.9287 19.9359 34.1045C25.0976 41.9287 26.7106 56.4572 19.9303 67.0503Z" fill="white"/>
<path fill-rule="evenodd" clip-rule="evenodd" d="M44.0278 34.1865H48.1961V39.859H55.867V34.1865H60.0375V48.9636H55.867V42.5908H48.1961V48.9636H44.0278V34.1865Z" fill="white"/>
<path fill-rule="evenodd" clip-rule="evenodd" d="M63.3828 34.1865H77.558V36.9201H67.5511V40.0843H76.7354V42.6102H67.5511V46.2306H77.7705V48.9636H63.3828V34.1865Z" fill="white"/>
<path fill-rule="evenodd" clip-rule="evenodd" d="M84.4344 40.8726H89.0021C90.886 40.8726 91.8672 40.2515 91.8672 38.7612C91.8672 37.3341 90.886 36.713 89.0021 36.713H84.4344V40.8726ZM80.2661 34.1865H90.4889C93.8868 34.1865 96.0377 36.0288 96.0377 38.2641C96.0377 40.0023 95.1605 41.3077 93.0369 41.9692V42.0096C95.0816 42.4458 95.6634 43.9565 95.7969 45.4672C95.8758 46.3989 95.8247 48.1576 96.5934 48.9636H92.4262C91.9484 48.0347 91.974 46.6065 91.7632 45.4251C91.47 43.8729 90.7019 43.1909 88.6027 43.1909H84.4344V48.9636H80.2661V34.1865Z" fill="white"/>
<path fill-rule="evenodd" clip-rule="evenodd" d="M107.743 46.4391C109.366 46.4391 110.825 46.0256 110.825 44.495C110.825 42.9843 109.63 42.3826 107.824 42.3826H103.284V46.4391H107.743ZM107.504 40.1688C108.993 40.1688 110.054 39.6501 110.054 38.409C110.054 37.0223 108.673 36.7129 107.186 36.7129H103.284V40.1688H107.504ZM99.1167 34.1875H108.037C111.648 34.1875 114.09 35.0976 114.09 37.851C114.09 39.3197 113.188 40.2923 111.513 40.9355C113.85 41.4504 114.993 42.8387 114.993 44.6799C114.993 47.6819 111.728 48.9645 108.303 48.9645H99.1167V34.1875Z" fill="white"/>
<path fill-rule="evenodd" clip-rule="evenodd" d="M126.647 43.2522L124.257 37.8306H124.204L121.737 43.2522H126.647ZM122.133 34.1875H126.409L133.497 48.9623H129.169L127.735 45.6724H120.646L119.161 48.9623H114.939L122.133 34.1875Z" fill="white"/>
<path fill-rule="evenodd" clip-rule="evenodd" d="M134.823 34.1865H138.992V46.2306H148.232V48.9636H134.823V34.1865Z" fill="white"/>
<path fill-rule="evenodd" clip-rule="evenodd" d="M149.719 48.963H153.889V34.1865H149.719V48.963Z" fill="white"/>
<path fill-rule="evenodd" clip-rule="evenodd" d="M157.232 34.1865H170.561V36.9201H161.401V40.3345H169.339V42.8593H161.401V48.9636H157.232V34.1865Z" fill="white"/>
<path fill-rule="evenodd" clip-rule="evenodd" d="M172.657 34.1865H186.835V36.9201H176.824V40.0843H186.011V42.6102H176.824V46.2306H187.047V48.9636H172.657V34.1865Z" fill="white"/>
<path fill-rule="evenodd" clip-rule="evenodd" d="M44.0259 52.3662H48.1658L56.0803 62.279H56.1331V52.3662H60.0344V67.1427H55.8656L47.9817 57.2487H47.9278V67.1427H44.0259V52.3662Z" fill="white"/>
<path fill-rule="evenodd" clip-rule="evenodd" d="M79.5505 61.5537C79.5505 65.5505 76.5247 67.4941 71.4519 67.4941C66.3281 67.4941 63.3823 65.5931 63.3823 61.5537V52.3672H67.5506V61.5537C67.5506 63.1701 68.0824 64.7644 71.4519 64.7644C74.4272 64.7644 75.3822 63.7685 75.3822 61.5537V52.3672H79.5505V61.5537Z" fill="white"/>
<path fill-rule="evenodd" clip-rule="evenodd" d="M87.2606 55.0981H81.5811V52.3662H97.1101V55.0981H91.4289V67.1432H87.2606V55.0981Z" fill="white"/>
<path fill-rule="evenodd" clip-rule="evenodd" d="M103.353 59.0522H107.92C109.804 59.0522 110.788 58.4306 110.788 56.9404C110.788 55.5116 109.804 54.8905 107.92 54.8905H103.353V59.0522ZM99.1855 52.3662H109.408C112.808 52.3662 114.955 54.2079 114.955 56.4422C114.955 58.1809 114.082 59.4851 111.955 60.1478V60.1904C114 60.6244 114.584 62.1356 114.718 63.6441C114.796 64.5763 114.744 66.3361 115.513 67.1427H111.345C110.868 66.2105 110.893 64.7834 110.68 63.6043C110.389 62.0532 109.622 61.3695 107.522 61.3695H103.353V67.1427H99.1855V52.3662Z" fill="white"/>
<path fill-rule="evenodd" clip-rule="evenodd" d="M118.885 67.1427H123.053V52.3662H118.885V67.1427Z" fill="white"/>
<path fill-rule="evenodd" clip-rule="evenodd" d="M131.178 55.0981H125.496V52.3662H141.027V55.0981H135.347V67.1432H131.178V55.0981Z" fill="white"/>
<path fill-rule="evenodd" clip-rule="evenodd" d="M143.47 67.1427H147.64V52.3662H143.47V67.1427Z" fill="white"/>
<path fill-rule="evenodd" clip-rule="evenodd" d="M159.267 64.7646C163.011 64.7646 164.417 62.2813 164.417 59.8168C164.417 57.2316 163.011 54.745 159.267 54.745C155.522 54.745 154.116 57.2316 154.116 59.8168C154.116 62.2813 155.522 64.7646 159.267 64.7646ZM159.267 52.0137C165.106 52.0137 168.585 55.4292 168.585 59.8168C168.585 64.0837 165.106 67.4949 159.267 67.4949C153.427 67.4949 149.948 64.0837 149.948 59.8168C149.948 55.4292 153.427 52.0137 159.267 52.0137Z" fill="white"/>
<path fill-rule="evenodd" clip-rule="evenodd" d="M171.03 52.3662H175.174L183.085 62.279H183.139V52.3662H187.042V67.1427H182.874L174.987 57.2487H174.933V67.1427H171.03V52.3662Z" fill="white"/>
</svg>
