<svg width="215" height="100" viewBox="0 0 215 100" fill="none" xmlns="http://www.w3.org/2000/svg">
<path fill-rule="evenodd" clip-rule="evenodd" d="M125.422 27.5913C125.422 28.8626 124.41 29.7526 123.273 29.7526C122.135 29.7526 121.124 28.7355 121.124 27.5913C121.124 26.3199 122.135 25.4299 123.273 25.4299C124.41 25.4299 125.422 26.3199 125.422 27.5913ZM123.399 25.8113C122.388 25.8113 121.629 26.5742 121.629 27.5913C121.629 28.6084 122.388 29.3712 123.399 29.3712C124.41 29.3712 125.169 28.6084 125.169 27.5913C125.169 26.5742 124.41 25.8113 123.399 25.8113ZM122.893 27.7184H123.273L123.905 28.7355H124.284L123.525 27.5913C123.905 27.5913 124.157 27.337 124.157 26.9556C124.157 26.447 123.905 26.1928 123.273 26.1928H122.388V28.7355H122.767V27.7184H122.893ZM122.893 26.5742V27.337H123.273C123.652 27.337 123.905 27.337 123.905 26.9556C123.905 26.5742 123.652 26.5742 123.399 26.5742H122.893Z" fill="white"/>
<path fill-rule="evenodd" clip-rule="evenodd" d="M6.46794 24.9214H114.045C117.078 24.9214 119.607 27.337 119.48 30.3883V68.5295C119.48 71.5808 117.078 73.9964 114.045 73.9964H6.46794C3.43406 73.9964 1.03223 71.5808 1.03223 68.5295V30.3883C1.03223 27.337 3.43406 24.9214 6.46794 24.9214ZM34.1522 62.0455H46.7934V36.8723H34.1522V47.679H25.6826V36.8723H13.0414V62.0455H25.6826V51.2388H34.1522V62.0455ZM66.2608 62.0455H53.6196V36.8723H66.2608V62.0455ZM72.7079 62.1727H93.313C100.519 62.1727 107.092 56.7057 107.092 49.5861C107.092 42.3392 100.519 36.8723 93.313 36.8723H72.7079V62.1727Z" fill="white"/>
<path d="M85.0962 39.1607V59.8841C90.2791 59.8841 93.313 60.7741 93.313 49.586C93.313 38.2708 89.7734 39.1607 85.0962 39.1607Z" fill="white"/>
</svg>
