<svg width="258" height="120" viewBox="0 0 258 120" fill="none" xmlns="http://www.w3.org/2000/svg">
<path fill-rule="evenodd" clip-rule="evenodd" d="M150.506 33.1097C150.506 34.6354 149.292 35.7033 147.927 35.7033C146.562 35.7033 145.348 34.4828 145.348 33.1097C145.348 31.5841 146.562 30.5161 147.927 30.5161C149.292 30.5161 150.506 31.5841 150.506 33.1097ZM148.079 30.9738C146.865 30.9738 145.955 31.8892 145.955 33.1097C145.955 34.3302 146.865 35.2456 148.079 35.2456C149.292 35.2456 150.202 34.3302 150.202 33.1097C150.202 31.8892 149.292 30.9738 148.079 30.9738ZM147.472 33.2623H147.927L148.685 34.4828H149.141L148.23 33.1097C148.685 33.1097 148.989 32.8046 148.989 32.3469C148.989 31.7366 148.685 31.4315 147.927 31.4315H146.865V34.4828H147.32V33.2623H147.472ZM147.472 31.8892V32.8046H147.927C148.382 32.8046 148.685 32.8046 148.685 32.3469C148.685 31.8892 148.382 31.8892 148.079 31.8892H147.472Z" fill="#1D1E1F"/>
<path fill-rule="evenodd" clip-rule="evenodd" d="M7.76114 29.9058H136.853C140.494 29.9058 143.528 32.8045 143.376 36.4661V82.2355C143.376 85.8971 140.494 88.7958 136.853 88.7958H7.76114C4.12048 88.7958 1.23828 85.8971 1.23828 82.2355V36.4661C1.23828 32.8045 4.12048 29.9058 7.76114 29.9058ZM40.9822 74.4547H56.1517V44.2469H40.9822V57.2149H30.8187V44.2469H15.6493V74.4547H30.8187V61.4867H40.9822V74.4547ZM79.5126 74.4547H64.3432V44.2469H79.5126V74.4547ZM87.249 74.6073H111.975C120.622 74.6073 128.51 68.047 128.51 59.5034C128.51 50.8072 120.622 44.2469 111.975 44.2469H87.249V74.6073Z" fill="#00549B"/>
<path d="M102.115 46.9929V71.861C108.335 71.861 111.975 72.9289 111.975 59.5032C111.975 45.9249 107.728 46.9929 102.115 46.9929Z" fill="#005196"/>
</svg>
