<svg width="258" height="120" viewBox="0 0 258 120" fill="none" xmlns="http://www.w3.org/2000/svg">
<path fill-rule="evenodd" clip-rule="evenodd" d="M45.1363 40.1274C43.0715 38.754 40.6625 38.0117 37.9999 38.0117C34.1962 38.0117 30.0665 39.6263 26.0274 42.6513C22.7489 40.1459 19.4343 38.6056 16.2465 38.1045L16.0472 38.2901C15.214 38.9953 13.1311 40.3501 11.9537 39.9418C10.7583 39.5149 8.20441 41.5007 7.78781 41.5192C7.64291 41.5192 7.78781 40.016 8.60289 39.9047C8.3312 39.9418 10.3417 38.8468 11.1024 38.2344C9.79833 38.5128 8.56666 38.9953 7.44367 39.6634C7.6248 39.7562 7.7697 39.8304 7.29877 40.2387C6.90029 40.5356 6.6286 42.2059 6.24823 42.243C5.14335 42.8925 4.90789 41.3708 3.82112 43.4864C3.73056 43.6906 3.35019 43.839 2.95171 43.9875C1.73815 45.8433 0.85063 48.0703 0.379698 50.5942C-0.417263 54.807 0.0174433 59.5393 1.90117 64.2346L2.86115 64.383C3.25963 64.5686 3.89357 65.9234 4.2196 66.3131C5.05279 67.2781 6.12144 67.5379 7.17198 68.2803C7.80593 68.7071 9.09193 69.9691 9.20061 70.6928C9.25495 70.1732 12.5334 71.4537 13.1673 71.7321C14.6344 72.4373 15.9929 73.4766 14.9786 75.3324C14.6344 75.9448 16.9348 77.6336 16.5544 78.5059L15.8118 79.1183C15.4857 79.6379 15.6669 80.1947 16.011 80.6401C18.746 82.4402 21.8433 84.0919 25.3572 85.5209C25.5745 85.6137 25.81 85.6694 26.0274 85.6694C26.2447 85.6694 26.4802 85.6137 26.6975 85.5209C43.0533 78.6729 50.6607 67.4266 51.8018 57.368C50.8418 57.4237 49.6826 57.5536 49.592 56.9968C49.5196 56.403 48.7951 57.0896 48.3423 56.6071C48.1249 56.3844 47.6902 55.141 47.3098 55.1596C46.5672 55.1967 47.7083 57.6649 48.1068 58.0547C48.6502 57.8505 50.2803 57.5907 50.2984 58.6485C50.3528 60.6528 47.5634 61.9333 46.1144 62.62C43.959 63.6593 45.0457 61.191 44.1763 59.929C43.7054 59.261 44.0133 58.2402 43.5062 57.7021C43.2888 57.4608 42.4737 55.605 42.5462 55.4008L42.4013 55.772C42.1477 55.8648 41.9304 54.974 41.9304 54.8255C41.7311 55.4936 42.4556 56.8855 42.6549 57.5165C42.9809 58.6114 42.9084 60.0404 43.4156 61.024C43.6692 61.5436 44.6835 63.6593 45.082 63.7521L47.3642 63.3994C48.6683 64.1789 41.8941 69.5608 41.1877 70.2846C40.6081 70.8784 40.753 72.8456 40.4451 73.6807C40.0829 74.6272 39.2497 74.7014 38.3803 75.0169C37.4565 75.351 37.2935 76.5016 36.5328 76.7057C35.1924 77.0769 33.689 79.1369 32.077 78.6172C31.588 78.4688 29.3239 78.6544 29.3058 77.7821C29.2695 77.1326 29.1246 76.6129 28.9978 75.9448C28.8711 75.3139 29.3058 74.8128 29.1065 74.2004C28.9616 73.7921 28.4001 72.7528 28.4364 72.326C28.545 71.9734 29.1246 71.0083 29.5412 70.9341C30.1208 70.8228 29.9397 69.932 30.0122 69.468C30.139 68.6329 29.8491 67.8349 29.4144 67.1853C28.7624 66.2574 29.3601 65.8491 29.8491 64.9583C29.994 64.4944 29.8854 63.8077 29.2333 63.8077C27.893 63.7892 28.6718 62.5458 27.7481 62.3231C27.096 62.156 26.4258 62.4159 25.7738 62.4159C24.9406 62.4159 24.2885 61.7478 23.564 61.4137C20.5935 60.059 20.666 56.1246 22.2599 53.7677C22.4591 53.3594 22.3686 52.4686 22.6222 52.1717C23.2018 51.5036 24.1617 50.8355 24.9587 50.4272C25.4115 50.2045 25.8281 50.4272 26.3172 50.2973C27.0598 50.0746 27.3315 49.2395 28.0922 48.924C29.1971 48.4786 30.3925 48.8683 31.588 49.0725C32.2219 49.1652 34.6852 49.3879 34.9207 49.9633C34.8845 50.056 34.9388 51.4479 34.486 51.2438C35.4279 51.5778 36.2973 53.6378 37.3116 53.545C37.8369 53.4893 38.0905 51.9861 38.8331 52.9883C39.2859 53.5821 41.8036 54.5843 42.4737 54.2873C42.8903 54.1203 43.6148 52.3573 43.2707 52.0418C43.4518 52.3758 41.8579 51.8933 41.7311 51.782C41.4956 51.6149 41.1334 51.8933 40.7711 51.5593C40.9885 51.7448 39.5938 50.3159 40.7349 49.9076C40.264 50.0746 40.0104 49.5735 39.4851 49.7777C39.1229 49.9261 39.5032 50.2231 39.0142 50.2973C38.2535 50.4458 38.2172 48.757 38.018 48.5157C37.8006 48.2559 36.2611 46.2145 36.5146 47.3094L37.7282 49.6292C37.6195 49.6478 37.4746 48.8312 37.3116 49.3508C37.5108 49.091 36.9675 50.6685 36.8588 50.056C36.7863 49.8148 37.1486 49.8148 37.0399 49.4622C37.0942 49.2766 36.6595 48.924 36.6052 48.757C36.4241 48.3301 35.935 47.328 35.5909 47.031C35.5003 46.9383 33.8521 46.697 33.7072 46.697C33.4898 46.8826 33.2906 47.0682 33.1094 47.2723C32.7472 47.3094 32.3849 47.3651 32.0408 47.4764L31.4612 48.1631C31.2619 48.2373 29.5775 48.293 29.5775 48.3116C29.6861 48.1631 28.6175 47.5878 28.7986 47.2723C28.9797 46.9197 29.7224 45.8804 29.7405 45.435C29.7767 44.9525 31.914 46.8083 32.4212 45.6948C32.6385 45.2123 32.8559 44.637 32.077 44.303C32.2219 44.3587 33.7796 44.2102 34.0875 44.0246C34.5222 43.7648 35.4279 43.3751 35.9713 43.5421C36.5871 43.7277 36.732 42.7626 37.1486 42.3915C37.4022 42.5956 36.7501 43.1895 37.0037 43.5978C37.058 43.3565 37.9455 44.0246 38.0542 44.006C38.3259 43.9504 39.5757 44.4143 39.5576 43.7462C39.5214 43.0596 39.8112 43.3379 40.1191 43.3008C40.0829 43.3008 40.9704 42.4471 41.224 42.5399C41.0609 42.2616 40.2821 42.5214 40.0285 42.41C39.3765 42.1502 39.9923 41.1295 40.3364 40.8697C40.6081 40.6841 39.9742 40.1274 39.8293 40.6284C39.5938 41.3522 38.7244 41.8162 38.5795 42.8554C38.3803 44.4143 37.0761 41.9832 36.8769 42.0389C36.1524 42.2244 35.9169 41.2037 36.3878 40.7955C36.8588 40.3686 37.6376 40.6284 38.1267 40.1645C38.4889 39.849 38.8874 39.4593 39.3221 39.2737C40.8074 38.6241 40.8798 39.5335 42.0209 40.016C43.1439 40.48 42.3288 40.4057 42.039 40.814C41.7492 41.1852 42.4918 41.5935 42.8722 41.3151C43.0896 41.1666 43.5967 40.7398 43.8503 40.4057C44.0677 40.1274 44.8465 40.2758 45.1363 40.1274ZM31.7691 41.909L31.9865 41.7605L32.1495 41.779C32.2763 41.7234 32.4212 41.5749 32.5479 41.6491C32.6385 41.7048 32.8015 41.9646 32.6928 42.0574C32.5842 42.1502 32.5842 41.909 32.4574 42.2244C32.2944 42.5956 31.9321 42.4657 31.6242 42.5028C31.4068 42.5214 31.2619 42.3544 31.4974 42.2059L31.7691 42.0389L31.7872 41.909H31.7691ZM32.5842 42.7626C32.711 42.6884 32.874 42.8369 32.9645 42.6513C33.0551 42.4843 33.2543 42.3172 33.1638 41.909C33.1457 41.7976 33.4717 41.7976 33.3811 41.6306H33.1094C33.1094 41.6306 33.8883 40.2573 34.1419 41.0738L33.8883 41.2409C34.0875 41.6306 33.9426 42.3915 33.9064 42.9111C34.1238 43.1524 34.5585 43.3008 33.9789 43.4122C34.2505 43.4493 32.4393 43.6906 32.3125 43.3194C32.2038 43.0781 33.0913 43.2266 33.0913 43.1338C33.0913 43.1152 32.4212 42.874 32.5842 42.7626Z" fill="#F03D4A"/>
<path fill-rule="evenodd" clip-rule="evenodd" d="M74.2251 44.2275V50.6003H80.3625V44.2275H84.6059V60.7304H80.3625V53.934H74.2251V60.7304H70V44.2275H74.2251ZM97.2995 44.2275V47.856H92.2548V50.6003H97.0263V54.2472H92.2548V57.0836H97.2995V60.7304H88.0297V44.2275H97.2995ZM111.341 60.7304L110.285 57.8572H104.439L103.309 60.7304H98.8475L105.094 44.2275H109.72L115.857 60.7304H111.341ZM105.622 54.5787H109.137L107.407 49.311L105.622 54.5787ZM126.165 53.9709C127.149 53.713 127.677 53.4736 128.241 52.9763C129.17 52.1659 129.735 50.7661 129.735 49.311C129.735 47.9481 129.225 46.6219 128.351 45.6826C127.385 44.6696 126.165 44.2275 124.326 44.2275H117.751V60.7304H121.976V54.3945L126.02 60.7304H131.301L126.165 53.9709ZM121.976 51.6133V47.506H122.76C123.579 47.506 124.18 47.6902 124.581 47.9481C125.036 48.298 125.382 48.9611 125.382 49.5689C125.382 50.1583 125.036 50.8582 124.581 51.1713C124.18 51.466 123.579 51.6133 122.76 51.6133H121.976ZM139.223 47.856H142.756V44.2275H131.556V47.856H134.998V60.7304H139.223V47.856ZM149.513 60.7304V52.8105L143.612 44.2275H148.675L151.753 48.7216L154.721 44.2275H159.857L153.738 52.8105V60.7304H149.513ZM79.3427 72.2051V68.5767H70V85.0796H74.2251V78.5963H78.8692V74.9495H74.2251V72.2051H79.3427ZM90.1058 68.0794C87.8294 68.0794 85.6804 68.8161 84.1324 70.1607C82.2019 71.8183 81.0728 74.2311 81.0728 76.7176C81.0728 81.8564 84.8973 85.669 90.033 85.669C92.4369 85.669 94.4402 84.9691 96.0793 83.5877C98.028 81.93 99.1389 79.4804 99.1389 76.865C99.1389 74.5811 98.3011 72.463 96.7896 70.8422C95.0412 69.0003 92.8194 68.0794 90.1058 68.0794ZM90.1058 72.242C92.6555 72.242 94.6952 74.3048 94.6952 76.865C94.6952 79.4251 92.6555 81.5064 90.1058 81.5064C87.538 81.5064 85.4982 79.4251 85.4982 76.8097C85.4982 74.3048 87.5926 72.242 90.1058 72.242ZM106.059 68.5767H101.816V78.099C101.816 80.5302 102.144 81.8748 103 83.0167C104.129 84.5639 106.333 85.5032 108.828 85.5032C111.195 85.5032 113.107 84.7112 114.455 83.1641C115.621 81.8379 116.039 80.5302 116.039 78.099V68.5767H111.796V77.5096C111.796 79.241 111.723 79.7382 111.359 80.3829C110.922 81.1933 109.975 81.709 108.9 81.709C107.862 81.709 106.988 81.2486 106.515 80.4566C106.096 79.7567 106.059 79.3883 106.059 77.5096V68.5767ZM123.688 85.0796H119.463V68.5767H123.688L131.501 78.67V68.5767H135.726V85.0796H131.501L123.688 74.9863V85.0796ZM145.415 85.0796H139.15V68.5767H145.415C149.731 68.5767 153.446 72.3893 153.446 76.8097C153.446 81.267 149.731 85.0796 145.415 85.0796ZM143.394 72.2051V81.4327H144.359C145.961 81.4327 146.981 81.0091 147.837 80.0514C148.602 79.2041 149.021 78.0438 149.021 76.8097C149.021 75.5941 148.602 74.4337 147.837 73.5865C146.981 72.6287 145.961 72.2051 144.359 72.2051H143.394ZM165.412 82.2063L166.45 85.0796H170.984L164.847 68.5767H160.221L153.956 85.0796H158.437L159.566 82.2063H165.412ZM164.264 78.9463H160.731L162.516 73.6602L164.264 78.9463ZM178.105 72.2051H181.62V68.5767H170.42V72.2051H173.862V85.0796H178.105V72.2051ZM183.532 68.5767H187.758V85.0796H183.532V68.5767ZM193.512 70.1607C195.06 68.8161 197.209 68.0794 199.486 68.0794C202.199 68.0794 204.421 69.0003 206.17 70.8422C207.681 72.463 208.519 74.5811 208.519 76.865C208.519 79.4804 207.408 81.93 205.459 83.5877C203.82 84.9691 201.817 85.669 199.413 85.669C194.277 85.669 190.453 81.8564 190.453 76.7176C190.453 74.2311 191.582 71.8183 193.512 70.1607ZM204.075 76.865C204.075 74.3048 202.036 72.242 199.486 72.242C196.973 72.242 194.878 74.3048 194.878 76.8097C194.878 79.4251 196.918 81.5064 199.486 81.5064C202.036 81.5064 204.075 79.4251 204.075 76.865ZM215.439 85.0796H211.196V68.5767H215.439L223.234 78.67V68.5767H227.477V85.0796H223.234L215.439 74.9863V85.0796Z" fill="#434242"/>
</svg>
