<svg width="215" height="100" viewBox="0 0 215 100" fill="none" xmlns="http://www.w3.org/2000/svg">
<path fill-rule="evenodd" clip-rule="evenodd" d="M37.6136 33.4397C35.8929 32.2953 33.8854 31.6767 31.6666 31.6767C28.4968 31.6767 25.0554 33.0222 21.6895 35.543C18.9575 33.4552 16.1953 32.1716 13.5387 31.754L13.3727 31.9087C12.6784 32.4964 10.9426 33.6253 9.96146 33.2851C8.96525 32.9294 6.83701 34.5842 6.48985 34.5996C6.36909 34.5996 6.48985 33.3469 7.16907 33.2542C6.94266 33.2851 8.61809 32.3726 9.25204 31.8623C8.16527 32.0943 7.13889 32.4964 6.20306 33.0531C6.354 33.1304 6.47475 33.1923 6.08231 33.5325C5.75024 33.78 5.52383 35.1718 5.20686 35.2028C4.28613 35.7441 4.08991 34.4759 3.18427 36.2389C3.1088 36.4091 2.79182 36.5328 2.45976 36.6565C1.44846 38.203 0.708858 40.0589 0.316415 42.1621C-0.347719 45.6727 0.0145361 49.6164 1.58431 53.5291L2.38429 53.6528C2.71636 53.8074 3.24464 54.9364 3.51633 55.2612C4.21066 56.0654 5.1012 56.2819 5.97665 56.9005C6.50494 57.2562 7.57661 58.3078 7.66717 58.911C7.71246 58.4779 10.4445 59.545 10.9728 59.777C12.1954 60.3647 13.3274 61.2308 12.4821 62.7773C12.1954 63.2876 14.1123 64.695 13.7953 65.4218L13.1765 65.9322C12.9048 66.3652 13.0557 66.8292 13.3425 67.2003C15.6217 68.7005 18.2028 70.0769 21.131 71.2677C21.3121 71.345 21.5083 71.3914 21.6895 71.3914C21.8706 71.3914 22.0668 71.345 22.2479 71.2677C35.8778 65.561 42.2173 56.1891 43.1682 47.8069C42.3682 47.8533 41.4022 47.9616 41.3267 47.4976C41.2663 47.0027 40.6626 47.575 40.2852 47.1729C40.1041 46.9873 39.7418 45.9511 39.4249 45.9666C38.806 45.9975 39.7569 48.0544 40.089 48.3791C40.5418 48.209 41.9003 47.9925 41.9154 48.874C41.9607 50.5443 39.6362 51.6114 38.4287 52.1836C36.6325 53.0496 37.5381 50.9928 36.8136 49.9411C36.4212 49.3844 36.6778 48.5338 36.2551 48.0853C36.074 47.8843 35.3948 46.3377 35.4552 46.1676L35.3344 46.4769C35.1231 46.5542 34.942 45.8119 34.942 45.6882C34.7759 46.2449 35.3797 47.4048 35.5457 47.9307C35.8174 48.8431 35.757 50.0339 36.1797 50.8536C36.391 51.2866 37.2362 53.0496 37.5683 53.127L39.4701 52.8331C40.5569 53.4827 34.9118 57.9676 34.3231 58.5707C33.8401 59.0656 33.9609 60.7049 33.7043 61.4009C33.4024 62.1896 32.7081 62.2515 31.9835 62.5144C31.2138 62.7927 31.0779 63.7516 30.444 63.9217C29.327 64.231 28.0742 65.9477 26.7308 65.5146C26.3233 65.3909 24.4366 65.5456 24.4215 64.8187C24.3913 64.2774 24.2705 63.8444 24.1649 63.2876C24.0592 62.7618 24.4215 62.3443 24.2554 61.8339C24.1347 61.4937 23.6668 60.6276 23.697 60.2719C23.7875 59.9781 24.2705 59.1739 24.6177 59.112C25.1007 59.0192 24.9498 58.2769 25.0101 57.8903C25.1158 57.1943 24.8743 56.5293 24.512 55.988C23.9687 55.2148 24.4668 54.8745 24.8743 54.1322C24.995 53.7456 24.9045 53.1734 24.3611 53.1734C23.2441 53.1579 23.8932 52.1217 23.1234 51.9362C22.58 51.797 22.0215 52.0135 21.4781 52.0135C20.7838 52.0135 20.2404 51.4567 19.6367 51.1784C17.1613 50.0494 17.2217 46.7708 18.5499 44.8067C18.716 44.4664 18.6405 43.7241 18.8518 43.4767C19.3348 42.9199 20.1348 42.3632 20.7989 42.0229C21.1763 41.8374 21.5234 42.0229 21.931 41.9147C22.5498 41.7291 22.7762 41.0332 23.4102 40.7703C24.3309 40.3991 25.3271 40.7239 26.3233 40.894C26.8516 40.9713 28.9044 41.1569 29.1006 41.6363C29.0704 41.7136 29.1157 42.8735 28.7383 42.7034C29.5232 42.9818 30.2477 44.6984 31.093 44.6211C31.5307 44.5747 31.742 43.322 32.3609 44.1571C32.7382 44.652 34.8363 45.4871 35.3948 45.2397C35.7419 45.1005 36.3457 43.6313 36.0589 43.3684C36.2099 43.6468 34.8816 43.2447 34.7759 43.1519C34.5797 43.0127 34.2778 43.2447 33.9759 42.9663C34.1571 43.121 32.9948 41.9301 33.9458 41.5899C33.5533 41.7291 33.342 41.3115 32.9043 41.4817C32.6024 41.6054 32.9194 41.8528 32.5118 41.9147C31.8779 42.0384 31.8477 40.6311 31.6817 40.43C31.5005 40.2135 30.2176 38.5123 30.4289 39.4248L31.4402 41.3579C31.3496 41.3734 31.2288 40.6929 31.093 41.126C31.259 40.9094 30.8062 42.224 30.7157 41.7136C30.6553 41.5126 30.9572 41.5126 30.8666 41.2187C30.9119 41.0641 30.5496 40.7703 30.5043 40.6311C30.3534 40.2754 29.9459 39.4402 29.6591 39.1928C29.5836 39.1155 28.2101 38.9144 28.0893 38.9144C27.9082 39.0691 27.7421 39.2237 27.5912 39.3938C27.2893 39.4248 26.9874 39.4712 26.7007 39.564L26.2177 40.1362C26.0516 40.198 24.6479 40.2444 24.6479 40.2599C24.7384 40.1362 23.8479 39.6568 23.9988 39.3938C24.1498 39.1 24.7686 38.234 24.7837 37.8628C24.8139 37.4607 26.595 39.0072 27.0176 38.0793C27.1988 37.6772 27.3799 37.1978 26.7308 36.9194C26.8516 36.9658 28.1497 36.8421 28.4063 36.6874C28.7685 36.4709 29.5232 36.1461 29.976 36.2853C30.4892 36.44 30.61 35.6358 30.9572 35.3265C31.1685 35.4966 30.6251 35.9915 30.8364 36.3317C30.8817 36.1307 31.6213 36.6874 31.7119 36.672C31.9383 36.6256 32.9797 37.0122 32.9647 36.4555C32.9345 35.8832 33.176 36.1152 33.4326 36.0843C33.4024 36.0843 34.142 35.3729 34.3533 35.4502C34.2174 35.2182 33.5684 35.4347 33.3571 35.342C32.8137 35.1254 33.3269 34.2749 33.6137 34.0583C33.8401 33.9037 33.3118 33.4397 33.1911 33.8573C32.9948 34.4604 32.2703 34.8471 32.1496 35.7131C31.9835 37.0122 30.8968 34.9863 30.7307 35.0327C30.127 35.1873 29.9308 34.3367 30.3232 33.9965C30.7157 33.6408 31.3647 33.8573 31.7722 33.4707C32.0741 33.2078 32.4062 32.883 32.7684 32.7283C34.0061 32.187 34.0665 32.9448 35.0174 33.3469C35.9533 33.7336 35.274 33.6717 35.0325 34.0119C34.791 34.3213 35.4099 34.6615 35.7268 34.4295C35.908 34.3058 36.3306 33.9501 36.5419 33.6717C36.723 33.4397 37.3721 33.5635 37.6136 33.4397ZM26.4742 34.9244L26.6554 34.8007L26.7912 34.8161C26.8969 34.7697 27.0176 34.646 27.1233 34.7079C27.1988 34.7543 27.3346 34.9708 27.244 35.0481C27.1535 35.1254 27.1535 34.9244 27.0478 35.1873C26.912 35.4966 26.6101 35.3884 26.3535 35.4193C26.1724 35.4347 26.0516 35.2956 26.2478 35.1718L26.4742 35.0327L26.4893 34.9244H26.4742ZM27.1535 35.6358C27.2591 35.5739 27.395 35.6977 27.4704 35.543C27.5459 35.4038 27.712 35.2646 27.6365 34.9244C27.6214 34.8316 27.8931 34.8316 27.8176 34.6924H27.5912C27.5912 34.6924 28.2402 33.548 28.4516 34.2285L28.2402 34.3676C28.4063 34.6924 28.2855 35.3265 28.2553 35.7595C28.4365 35.9606 28.7987 36.0843 28.3157 36.1771C28.5421 36.208 27.0327 36.4091 26.9271 36.0998C26.8365 35.8987 27.5761 36.0224 27.5761 35.9451C27.5761 35.9296 27.0176 35.7286 27.1535 35.6358Z" fill="white"/>
<path fill-rule="evenodd" clip-rule="evenodd" d="M61.8544 36.8569V42.1675H66.9689V36.8569H70.5051V50.6093H66.9689V44.9456H61.8544V50.6093H58.3335V36.8569H61.8544ZM81.0831 36.8569V39.8806H76.8792V42.1675H80.8554V45.2066H76.8792V47.5703H81.0831V50.6093H73.3582V36.8569H81.0831ZM92.7842 50.6093L91.9039 48.2149H87.0323L86.0913 50.6093H82.3731L87.5786 36.8569H91.4335L96.5479 50.6093H92.7842ZM88.0187 45.4828H90.9478L89.506 41.0931L88.0187 45.4828ZM105.138 44.9763C105.957 44.7614 106.397 44.5619 106.868 44.1475C107.642 43.4722 108.112 42.3057 108.112 41.0931C108.112 39.9573 107.687 38.8522 106.959 38.0694C106.155 37.2252 105.138 36.8569 103.605 36.8569H98.1263V50.6093H101.647V45.3293L105.016 50.6093H109.418L105.138 44.9763ZM101.647 43.0117V39.5889H102.3C102.983 39.5889 103.484 39.7424 103.817 39.9573C104.197 40.2489 104.485 40.8015 104.485 41.308C104.485 41.7991 104.197 42.3824 103.817 42.6433C103.484 42.8889 102.983 43.0117 102.3 43.0117H101.647ZM116.019 39.8806H118.964V36.8569H109.63V39.8806H112.498V50.6093H116.019V39.8806ZM124.594 50.6093V44.0094L119.677 36.8569H123.896L126.461 40.602L128.935 36.8569H133.214L128.115 44.0094V50.6093H124.594ZM66.119 60.1715V57.1478H58.3335V70.9003H61.8544V65.4975H65.7245V62.4585H61.8544V60.1715H66.119ZM75.0884 56.7334C73.1913 56.7334 71.4005 57.3474 70.1105 58.4678C68.5018 59.8492 67.5608 61.8599 67.5608 63.9319C67.5608 68.2142 70.7479 71.3914 75.0276 71.3914C77.0309 71.3914 78.7004 70.8082 80.0662 69.657C81.6901 68.2756 82.6159 66.2343 82.6159 64.0547C82.6159 62.1515 81.9178 60.3864 80.6581 59.0357C79.2012 57.5009 77.3497 56.7334 75.0884 56.7334ZM75.0884 60.2022C77.2131 60.2022 78.9128 61.9213 78.9128 64.0547C78.9128 66.1882 77.2131 67.9226 75.0884 67.9226C72.9485 67.9226 71.2487 66.1882 71.2487 64.0087C71.2487 61.9213 72.994 60.2022 75.0884 60.2022ZM88.383 57.1478H84.8469V65.0831C84.8469 67.1091 85.12 68.2296 85.8333 69.1812C86.7743 70.4705 88.6106 71.2533 90.6898 71.2533C92.6628 71.2533 94.2563 70.5933 95.3793 69.304C96.3506 68.1989 96.6997 67.1091 96.6997 65.0831V57.1478H93.1636V64.5919C93.1636 66.0347 93.1029 66.4491 92.7993 66.9863C92.4351 67.6617 91.6459 68.0914 90.7505 68.0914C89.8855 68.0914 89.157 67.7077 88.7624 67.0477C88.4133 66.4645 88.383 66.1575 88.383 64.5919V57.1478ZM103.074 70.9003H99.5529V57.1478H103.074L109.585 65.5589V57.1478H113.106V70.9003H109.585L103.074 62.4892V70.9003ZM121.179 70.9003H115.959V57.1478H121.179C124.776 57.1478 127.872 60.325 127.872 64.0087C127.872 67.7231 124.776 70.9003 121.179 70.9003ZM119.495 60.1715V67.8612H120.299C121.635 67.8612 122.485 67.5082 123.198 66.7101C123.835 66.004 124.184 65.0371 124.184 64.0087C124.184 62.9957 123.835 62.0287 123.198 61.3227C122.485 60.5245 121.635 60.1715 120.299 60.1715H119.495ZM137.843 68.5059L138.708 70.9003H142.487L137.373 57.1478H133.518L128.297 70.9003H132.031L132.972 68.5059H137.843ZM136.887 65.7891H133.943L135.43 61.3841L136.887 65.7891ZM148.421 60.1715H151.35V57.1478H142.017V60.1715H144.885V70.9003H148.421V60.1715ZM152.944 57.1478H156.465V70.9003H152.944V57.1478ZM161.261 58.4678C162.551 57.3474 164.341 56.7334 166.238 56.7334C168.5 56.7334 170.351 57.5009 171.808 59.0357C173.068 60.3864 173.766 62.1515 173.766 64.0547C173.766 66.2343 172.84 68.2756 171.216 69.657C169.85 70.8082 168.181 71.3914 166.178 71.3914C161.898 71.3914 158.711 68.2142 158.711 63.9319C158.711 61.8599 159.652 59.8492 161.261 58.4678ZM170.063 64.0547C170.063 61.9213 168.363 60.2022 166.238 60.2022C164.144 60.2022 162.399 61.9213 162.399 64.0087C162.399 66.1882 164.099 67.9226 166.238 67.9226C168.363 67.9226 170.063 66.1882 170.063 64.0547ZM179.533 70.9003H175.997V57.1478H179.533L186.029 65.5589V57.1478H189.565V70.9003H186.029L179.533 62.4892V70.9003Z" fill="white"/>
</svg>
