<svg width="215" height="100" viewBox="0 0 215 100" fill="none" xmlns="http://www.w3.org/2000/svg">
<path fill-rule="evenodd" clip-rule="evenodd" d="M49.3494 21.517C51.2216 21.226 51.768 22.3302 50.6165 23.5253C42.554 31.8968 39.2945 43.2903 47.4593 45.0351C52.5137 46.1152 58.2027 42.9004 63.2718 38.6975C63.5867 36.8553 64.2718 35.0088 65.3447 33.3112C68.8248 27.804 73.6369 26.7283 75.1601 27.5862C76.6923 28.4495 75.3703 31.1082 71.1979 35.4404C69.7552 36.9389 68.3584 38.3548 67.0024 39.6807C66.206 43.7726 68.3291 47.3487 72.4522 48.0148C76.0308 48.5935 79.6984 46.3674 83.3334 42.9525V18.0535C82.9981 19.1223 82.3329 20.2466 81.3798 21.2363C79.197 23.5027 76.3343 24.2043 74.9858 22.8036C73.6369 21.4034 74.313 18.4311 76.4953 16.1651C78.6776 13.8987 81.5403 13.1972 82.8892 14.5978C83.0762 14.792 83.223 15.0177 83.3334 15.2664V14.1362C83.3334 10.9313 80.8315 8.3335 77.7453 8.3335H60.3674C61.7136 9.73464 61.0374 12.7051 58.8561 14.97C56.6738 17.2364 53.8111 17.938 52.4621 16.5373C51.1137 15.1371 51.7893 12.1648 53.9716 9.89884C54.6061 9.24006 55.2978 8.71451 55.9934 8.3335H41.5734C38.4872 8.3335 35.9849 10.9313 35.9849 14.1362V28.3231C40.7874 24.3149 45.6833 22.0863 49.3494 21.517" fill="white"/>
<path fill-rule="evenodd" clip-rule="evenodd" d="M71.0787 51.348C66.6129 50.7265 63.9387 47.409 63.2483 43.3694C55.7366 50.0308 49.4738 53.275 43.4796 51.176C38.5904 49.4635 36.2727 43.2619 38.4285 35.9307C40.097 30.2582 43.6524 27.2729 43.2083 27.2729C42.6699 27.2729 39.7907 28.5609 35.9849 31.2002V51.8092C35.9849 54.9943 38.4872 57.576 41.5733 57.576H77.7449C80.831 57.576 83.3334 54.9943 83.3334 51.8092V45.6511C79.438 49.5475 75.3642 51.9445 71.0787 51.348" fill="white"/>
<path fill-rule="evenodd" clip-rule="evenodd" d="M11.9824 63.2577C11.1658 63.2577 10.5036 63.9411 10.5036 64.7848C10.5036 65.628 11.1658 66.3118 11.9824 66.3118C12.7995 66.3118 13.4612 65.628 13.4612 64.7848C13.4612 63.9411 12.7995 63.2577 11.9824 63.2577ZM0 64.7849C0 63.9411 0.662248 63.2578 1.47884 63.2578C2.29544 63.2578 2.95769 63.9411 2.95769 64.7849C2.95769 65.6281 2.29544 66.3119 1.47884 66.3119C0.662248 66.3119 0 65.6281 0 64.7849ZM2.5665 79.9097H0.391642V68.1526H2.5665V79.9097ZM13.07 79.9097H10.8956V68.1526H13.07V79.9097ZM27.3561 67.7478C25.9477 67.7478 24.6164 68.3171 23.5736 69.2729V68.1528H21.3988V79.9099H23.5736V72.1805C24.3116 70.8771 25.7567 69.9926 27.1545 69.9926C28.5812 69.9926 29.7205 70.6739 29.7205 72.8081V79.9099H31.8949L31.8954 72.3519C31.8954 69.2017 29.8749 67.7478 27.3561 67.7478ZM108.358 74.0306C108.358 76.2609 110.021 78.0688 112.073 78.0688C114.125 78.0688 115.789 76.2609 115.789 74.0306C115.789 71.8003 114.125 69.9924 112.073 69.9924C110.021 69.9924 108.358 71.8003 108.358 74.0306ZM115.789 69.056V63.6621H117.963V79.9096H115.789V79.0062C114.761 79.826 113.472 80.3146 112.073 80.3146C108.713 80.3146 105.988 77.501 105.988 74.0311C105.988 70.5611 108.713 67.7476 112.073 67.7476C113.472 67.7476 114.761 68.2362 115.789 69.056ZM62.2858 69.9926C63.5736 69.9926 64.7076 70.7048 65.3742 71.7861H67.9696C67.0942 69.4253 64.8803 67.7478 62.2863 67.7478C58.9253 67.7478 56.2011 70.5613 56.2011 74.0313C56.2011 77.5013 58.9253 80.3148 62.2863 80.3148C64.8803 80.3148 67.0942 78.6373 67.9696 76.2765H65.3737C64.7071 77.3573 63.5731 78.069 62.2858 78.069C60.2344 78.069 58.5708 76.2611 58.5708 74.0308C58.5708 71.8005 60.2344 69.9926 62.2858 69.9926ZM94.3362 68.1528H96.511V69.3147C97.5601 68.333 98.9102 67.7478 100.339 67.7478V69.998C100.272 69.9946 100.205 69.9926 100.137 69.9926C98.7105 69.9926 97.2341 70.914 96.511 72.2612V79.9099H94.3362V68.1528ZM79.8448 78.0689C77.793 78.0689 76.1299 76.261 76.1299 74.0307C76.1299 71.8004 77.793 69.9924 79.8448 69.9924C81.8967 69.9924 83.5598 71.8004 83.5598 74.0307C83.5598 76.261 81.8967 78.0689 79.8448 78.0689ZM83.5598 69.0562C82.5325 68.2364 81.2441 67.7478 79.8449 67.7478C76.4844 67.7478 73.7597 70.5613 73.7597 74.0313C73.7597 77.5013 76.4844 80.3148 79.8449 80.3148C81.2441 80.3148 82.5325 79.8262 83.5598 79.0064V79.9098H85.7347V68.1528H83.5598V69.0562ZM47.5895 72.4892C47.0541 70.9298 45.7031 69.9924 44.1205 69.9924C42.5708 69.9924 41.2434 71.0239 40.6863 72.4892H47.5895ZM38.0355 74.0313C38.0355 70.5613 40.7597 67.7478 44.1207 67.7478C47.4811 67.7478 50.2053 70.5613 50.2053 74.0313C50.2053 74.2265 50.1957 74.4193 50.1788 74.61H40.4438C40.7023 76.5659 42.2497 78.069 44.1207 78.069C45.4075 78.069 46.5415 77.3573 47.2081 76.277H49.804C48.9286 78.6378 46.7147 80.3148 44.1207 80.3148C40.7597 80.3148 38.0355 77.5013 38.0355 74.0313ZM123.241 79.9096C122.487 79.9096 121.873 79.2761 121.873 78.4981C121.873 77.7197 122.487 77.0862 123.241 77.0862C123.995 77.0862 124.608 77.7197 124.608 78.4981C124.608 78.7981 124.516 79.0766 124.361 79.3056L123.77 78.6751L123.778 78.6666C123.964 78.6387 124.119 78.5705 124.244 78.4629C124.369 78.3548 124.431 78.2308 124.431 78.0904C124.431 77.9175 124.346 77.7746 124.177 77.661C124.008 77.548 123.807 77.4912 123.576 77.4912H122.644V79.5048H122.995V78.6895H123.385L124.122 79.5048H124.198C123.951 79.7551 123.613 79.9096 123.241 79.9096ZM123.241 76.6812C122.269 76.6812 121.482 77.4945 121.482 78.4981C121.482 79.5012 122.269 80.3145 123.241 80.3145C124.212 80.3145 125 79.5012 125 78.4981C125 77.4945 124.212 76.6812 123.241 76.6812ZM123.561 78.4475H122.995V77.7387H123.583C123.731 77.7387 123.849 77.7751 123.938 77.8483C124.028 77.9215 124.072 78.0022 124.072 78.0904C124.072 78.1935 124.022 78.2786 123.921 78.3459C123.82 78.4136 123.7 78.4475 123.561 78.4475ZM50.9978 91.6669H50.2255L50.2458 88.441C49.5551 88.9909 48.8441 89.4316 48.2074 89.6827C48.1867 89.6896 48.1664 89.6961 48.1529 89.6961C48.1327 89.6961 48.1192 89.6896 48.1057 89.6692C47.9296 89.4725 47.3942 89.1467 47.3942 89.1467C49.1557 88.5834 50.9312 86.9683 51.6759 85.8013C51.6759 85.8013 52.1636 86.0254 52.4414 86.2222C52.4954 86.256 52.5162 86.2964 52.5162 86.3238C52.5162 86.3646 52.4684 86.385 52.4009 86.385C52.3604 86.385 52.3126 86.3781 52.2653 86.3646L52.2483 86.3854C51.903 86.8056 51.393 87.4265 50.9978 87.7895V91.6669ZM43.9652 91.6669H44.7374V87.7895C45.1308 87.4282 45.6376 86.8113 45.9827 86.3911L46.0045 86.3646C46.0523 86.3781 46.0995 86.385 46.1401 86.385C46.2081 86.385 46.2553 86.3646 46.2553 86.3238C46.2553 86.2964 46.2351 86.256 46.1811 86.2222C45.9032 86.0254 45.4156 85.8013 45.4156 85.8013C44.6704 86.9683 42.8949 88.5834 41.1339 89.1467C41.1339 89.1467 41.6688 89.4725 41.8448 89.6692C41.8583 89.6896 41.8719 89.6961 41.8926 89.6961C41.9061 89.6961 41.9264 89.6896 41.9466 89.6827C42.5833 89.4316 43.2943 88.9909 43.9855 88.441L43.9652 91.6669ZM59.0166 90.3371L59.0135 90.3389C59.0089 90.3415 59.0048 90.3438 59.0002 90.3453C58.9985 90.3458 58.9968 90.3462 58.995 90.3464C58.9934 90.3467 58.9918 90.3468 58.99 90.3468C58.9765 90.3468 58.963 90.3398 58.9495 90.3264C58.4276 89.7631 57.6757 89.3088 57.256 89.0847L57.7234 88.6235C58.1295 88.8133 59.0373 89.3223 59.5182 89.7904L59.0238 90.3333L59.0219 90.3342L59.0166 90.3371ZM57.1409 86.8731H57.9874C58.029 86.8731 58.0558 86.8563 58.0796 86.8414C58.0985 86.8295 58.1155 86.8188 58.1364 86.8188C58.2179 86.8188 58.6448 87.1854 58.6448 87.2601C58.6448 87.3074 58.5768 87.3278 58.4818 87.3547C58.1364 87.8095 57.683 88.3185 57.1274 88.8071L57.138 91.6669H56.3995L56.4159 89.3768C55.8607 89.7703 55.2308 90.1299 54.5266 90.3874C54.5126 90.3944 54.4991 90.3944 54.4924 90.3944C54.4788 90.3944 54.4653 90.3944 54.4518 90.3809C54.2893 90.1976 53.8016 89.8719 53.8016 89.8719C55.8405 89.2274 56.89 88.2169 57.4525 87.5176L54.6481 87.5654V86.8935L56.4159 86.8801V86.4323V86.3507C56.4159 86.2286 56.4159 85.9916 56.3889 85.8013C57.2696 85.8352 57.3579 85.8486 57.3579 85.9368C57.3579 85.9916 57.2832 86.0454 57.1611 86.0658C57.1476 86.1679 57.1409 86.3507 57.1409 86.5275V86.8731ZM61.5365 91.653C62.7052 90.7784 63.3722 89.5811 63.7176 87.8304H64.9977C64.9263 90.3077 64.4551 90.8521 63.8724 90.8521C63.5743 90.8521 63.257 90.7918 62.9521 90.7306C62.9521 90.7306 63.2637 91.2799 63.3317 91.5309C63.3385 91.5648 63.3587 91.5788 63.3925 91.5788C63.5551 91.5992 63.7176 91.6056 63.8734 91.6056C65.235 91.6056 65.6889 90.5513 65.7429 87.1725L63.8261 87.1789C63.8663 86.8831 63.8932 86.4329 63.9134 86.0946L63.9134 86.0944L63.9135 86.0939L63.9139 86.0862C64.0427 86.0727 64.131 86.0115 64.131 85.9572C64.131 85.9169 64.0832 85.876 63.9752 85.8626C63.7311 85.8287 63.1624 85.8013 63.1624 85.8013C63.1557 86.2426 63.1349 86.7924 63.0944 87.1789L61.2659 87.1859V87.8443C61.8616 87.8374 62.4307 87.8374 62.9931 87.8374C62.7288 89.1602 62.0502 90.3376 60.7508 91.2052C60.7575 91.2052 61.3064 91.4906 61.4757 91.653C61.4892 91.6669 61.496 91.6669 61.5095 91.6669C61.5162 91.6669 61.5297 91.6669 61.5365 91.653ZM67.5396 89.0584H72.3461V88.3258H67.5396V89.0584ZM76.4662 86.324C76.7981 86.4326 77.2925 86.7718 77.4685 86.9416L77.8004 86.5003C77.55 86.2767 77.0417 86.0187 76.7846 85.9375L76.4662 86.324ZM75.8703 86.9276C76.2021 87.0566 76.6695 87.3619 76.8793 87.5995L77.2247 87.1652C76.9609 86.9077 76.453 86.6363 76.2021 86.5481L75.8703 86.9276ZM77.0536 89.6432L77.055 89.6418L77.5634 88.943C76.8993 88.563 75.8019 88.1357 75.0437 87.8911V86.5678C75.0437 86.5678 75.0437 86.3033 75.064 86.0797C75.2063 86.0523 75.267 85.9915 75.267 85.9437C75.267 85.8491 75.0572 85.8351 74.2647 85.8013C74.285 86.0727 74.285 86.5543 74.285 86.5543V91.6669H75.0437V88.6442C75.6736 88.8748 76.3711 89.2075 76.9943 89.6483C76.9979 89.6501 77.001 89.652 77.0039 89.6537C77.0119 89.6585 77.0182 89.6622 77.028 89.6622C77.0346 89.6622 77.0411 89.6557 77.0536 89.6432Z" fill="white"/>
</svg>
