<svg width="258" height="120" viewBox="0 0 258 120" fill="none" xmlns="http://www.w3.org/2000/svg">
<path fill-rule="evenodd" clip-rule="evenodd" d="M59.2191 25.8202C61.4657 25.471 62.1214 26.796 60.7396 28.2302C51.0646 38.2759 47.1532 51.9481 56.951 54.0419C63.0163 55.338 69.843 51.4803 75.926 46.4368C76.3038 44.2262 77.126 42.0103 78.4135 39.9732C82.5896 33.3646 88.364 32.0737 90.1919 33.1032C92.0305 34.1392 90.4441 37.3297 85.4373 42.5283C83.7061 44.3265 82.0299 46.0256 80.4027 47.6167C79.447 52.5269 81.9947 56.8182 86.9424 57.6176C91.2368 58.312 95.6379 55.6407 99.9998 51.5428V21.664C99.5975 22.9466 98.7993 24.2958 97.6555 25.4834C95.0362 28.2031 91.601 29.0449 89.9828 27.3641C88.364 25.6839 89.1754 22.1171 91.7941 19.398C94.4129 16.6783 97.8481 15.8364 99.4669 17.5172C99.6913 17.7502 99.8674 18.021 99.9998 18.3195V16.9632C99.9998 13.1173 96.9975 10 93.2941 10H72.4407C74.0561 11.6814 73.2447 15.2459 70.6271 17.9638C68.0083 20.6835 64.5731 21.5254 62.9544 19.8446C61.3362 18.1644 62.147 14.5975 64.7657 11.8784C65.5271 11.0879 66.3572 10.4572 67.1919 10H49.8879C46.1845 10 43.1816 13.1173 43.1816 16.9632V33.9876C48.9447 29.1777 54.8197 26.5034 59.2191 25.8202Z" fill="#494D9F"/>
<path fill-rule="evenodd" clip-rule="evenodd" d="M85.2943 61.6171C79.9352 60.8713 76.7262 56.8903 75.8978 52.0428C66.8837 60.0364 59.3684 63.9295 52.1753 61.4107C46.3083 59.3557 43.5271 51.9138 46.114 43.1163C48.1163 36.3094 52.3827 32.7271 51.8497 32.7271C51.2037 32.7271 47.7486 34.2725 43.1816 37.4397V62.1706C43.1816 65.9927 46.1845 69.0907 49.8878 69.0907H93.2936C96.997 69.0907 99.9998 65.9927 99.9998 62.1706V54.7808C95.3254 59.4566 90.4368 62.333 85.2943 61.6171Z" fill="#494D9F"/>
<path fill-rule="evenodd" clip-rule="evenodd" d="M14.3789 75.9092C13.399 75.9092 12.6043 76.7292 12.6043 77.7416C12.6043 78.7535 13.399 79.5741 14.3789 79.5741C15.3594 79.5741 16.1535 78.7535 16.1535 77.7416C16.1535 76.7292 15.3594 75.9092 14.3789 75.9092ZM0 77.7417C0 76.7293 0.794698 75.9093 1.77461 75.9093C2.75453 75.9093 3.54923 76.7293 3.54923 77.7417C3.54923 78.7536 2.75453 79.5742 1.77461 79.5742C0.794698 79.5742 0 78.7536 0 77.7417ZM3.0798 95.8916H0.469971V81.7831H3.0798V95.8916ZM15.684 95.8916H13.0747V81.7831H15.684V95.8916ZM32.8273 81.2973C31.1372 81.2973 29.5397 81.9805 28.2883 83.1274V81.7832H25.6785V95.8917H28.2883V86.6166C29.1739 85.0525 30.908 83.991 32.5854 83.991C34.2975 83.991 35.6646 84.8086 35.6646 87.3696V95.8917H38.2739L38.2744 86.8221C38.2744 83.0419 35.8498 81.2973 32.8273 81.2973ZM130.03 88.8366C130.03 91.513 132.026 93.6825 134.488 93.6825C136.95 93.6825 138.946 91.513 138.946 88.8366C138.946 86.1603 136.95 83.9908 134.488 83.9908C132.026 83.9908 130.03 86.1603 130.03 88.8366ZM138.946 82.8671V76.3944H141.555V95.8915H138.946V94.8073C137.713 95.7911 136.167 96.3774 134.488 96.3774C130.455 96.3774 127.186 93.0012 127.186 88.8372C127.186 84.6733 130.455 81.2971 134.488 81.2971C136.167 81.2971 137.713 81.8834 138.946 82.8671ZM74.7429 83.991C76.2883 83.991 77.6491 84.8457 78.449 86.1432H81.5636C80.513 83.3103 77.8563 81.2973 74.7435 81.2973C70.7104 81.2973 67.4413 84.6735 67.4413 88.8375C67.4413 93.0014 70.7104 96.3776 74.7435 96.3776C77.8563 96.3776 80.513 94.3647 81.5636 91.5318H78.4484C77.6485 92.8287 76.2878 93.6828 74.7429 93.6828C72.2813 93.6828 70.285 91.5132 70.285 88.8369C70.285 86.1605 72.2813 83.991 74.7429 83.991ZM113.203 81.7832H115.813V83.1776C117.072 81.9996 118.692 81.2973 120.407 81.2973V83.9976C120.327 83.9934 120.246 83.991 120.165 83.991C118.453 83.991 116.681 85.0967 115.813 86.7134V95.8917H113.203V81.7832ZM95.8138 93.6826C93.3516 93.6826 91.3558 91.5131 91.3558 88.8367C91.3558 86.1604 93.3516 83.9908 95.8138 83.9908C98.276 83.9908 100.272 86.1604 100.272 88.8367C100.272 91.5131 98.276 93.6826 95.8138 93.6826ZM100.272 82.8674C99.0389 81.8836 97.493 81.2973 95.8139 81.2973C91.7813 81.2973 88.5117 84.6735 88.5117 88.8375C88.5117 93.0014 91.7813 96.3776 95.8139 96.3776C97.493 96.3776 99.0389 95.7913 100.272 94.8076V95.8917H102.882V81.7832H100.272V82.8674ZM57.1074 86.9869C56.4649 85.1156 54.8437 83.9908 52.9447 83.9908C51.085 83.9908 49.4921 85.2286 48.8236 86.9869H57.1074ZM45.6426 88.8375C45.6426 84.6735 48.9117 81.2973 52.9448 81.2973C56.9773 81.2973 60.2464 84.6735 60.2464 88.8375C60.2464 89.0718 60.2348 89.3031 60.2146 89.532H48.5326C48.8428 91.879 50.6996 93.6828 52.9448 93.6828C54.489 93.6828 55.8498 92.8287 56.6497 91.5324H59.7648C58.7143 94.3653 56.0576 96.3776 52.9448 96.3776C48.9117 96.3776 45.6426 93.0014 45.6426 88.8375ZM147.889 95.8915C146.984 95.8915 146.248 95.1312 146.248 94.1977C146.248 93.2635 146.984 92.5033 147.889 92.5033C148.794 92.5033 149.529 93.2635 149.529 94.1977C149.529 94.5576 149.42 94.8918 149.234 95.1666L148.525 94.41L148.533 94.3999C148.757 94.3664 148.943 94.2845 149.093 94.1554C149.242 94.0257 149.317 93.8769 149.317 93.7084C149.317 93.501 149.215 93.3294 149.012 93.1932C148.809 93.0575 148.569 92.9894 148.291 92.9894H147.173V95.4057H147.594V94.4274H148.062L148.946 95.4057H149.037C148.741 95.706 148.336 95.8915 147.889 95.8915ZM147.889 92.0174C146.723 92.0174 145.778 92.9934 145.778 94.1977C145.778 95.4014 146.723 96.3774 147.889 96.3774C149.055 96.3774 150 95.4014 150 94.1977C150 92.9934 149.055 92.0174 147.889 92.0174ZM148.273 94.1369H147.594V93.2864H148.299C148.477 93.2864 148.619 93.33 148.726 93.4179C148.833 93.5057 148.887 93.6026 148.887 93.7083C148.887 93.8321 148.826 93.9343 148.706 94.0149C148.584 94.0962 148.44 94.1369 148.273 94.1369ZM61.1973 110H60.2706L60.295 106.129C59.4661 106.789 58.6129 107.318 57.8489 107.619C57.824 107.627 57.7997 107.635 57.7835 107.635C57.7592 107.635 57.743 107.627 57.7268 107.603C57.5155 107.367 56.8731 106.976 56.8731 106.976C58.9869 106.3 61.1174 104.362 62.0111 102.961C62.0111 102.961 62.5963 103.23 62.9297 103.467C62.9945 103.507 63.0194 103.556 63.0194 103.588C63.0194 103.637 62.9621 103.662 62.8811 103.662C62.8324 103.662 62.7751 103.654 62.7184 103.637L62.698 103.662C62.2837 104.167 61.6716 104.912 61.1973 105.347V110ZM52.7582 110H53.6849V105.347C54.157 104.914 54.7651 104.173 55.1793 103.669L55.2054 103.637C55.2627 103.654 55.3194 103.662 55.3681 103.662C55.4497 103.662 55.5064 103.637 55.5064 103.588C55.5064 103.556 55.4821 103.507 55.4173 103.467C55.0839 103.23 54.4987 102.961 54.4987 102.961C53.6045 104.362 51.4739 106.3 49.3607 106.976C49.3607 106.976 50.0026 107.367 50.2138 107.603C50.23 107.627 50.2462 107.635 50.2711 107.635C50.2873 107.635 50.3116 107.627 50.3359 107.619C51.1 107.318 51.9531 106.789 52.7825 106.129L52.7582 110ZM70.8234 108.403L70.8162 108.407C70.807 108.412 70.7996 108.416 70.788 108.416C70.7718 108.416 70.7556 108.408 70.7394 108.392C70.1132 107.716 69.2108 107.171 68.7072 106.902L69.2681 106.348C69.7555 106.576 70.8448 107.187 71.4218 107.748L70.8286 108.4L70.8234 108.403ZM68.569 104.248H69.5848C69.6348 104.248 69.667 104.227 69.6955 104.21C69.7182 104.195 69.7386 104.183 69.7637 104.183C69.8615 104.183 70.3737 104.622 70.3737 104.712C70.3737 104.769 70.2921 104.793 70.1781 104.826C69.7637 105.371 69.2196 105.982 68.5528 106.568L68.5656 110H67.6794L67.6991 107.252C67.0329 107.724 66.277 108.156 65.4319 108.465C65.4151 108.473 65.3989 108.473 65.3908 108.473C65.3746 108.473 65.3584 108.473 65.3422 108.457C65.1471 108.237 64.562 107.846 64.562 107.846C67.0086 107.073 68.2681 105.86 68.9429 105.021L65.5778 105.078V104.272L67.6991 104.256V103.719V103.621C67.6991 103.474 67.6991 103.19 67.6667 102.961C68.7236 103.002 68.8295 103.018 68.8295 103.124C68.8295 103.19 68.7398 103.254 68.5933 103.279C68.5771 103.401 68.569 103.621 68.569 103.833V104.248ZM73.8438 109.983C75.2462 108.934 76.0467 107.497 76.4611 105.396H77.9973C77.9116 108.369 77.3461 109.022 76.6469 109.022C76.2892 109.022 75.9084 108.95 75.5426 108.877C75.5426 108.877 75.9165 109.536 75.9981 109.837C76.0062 109.878 76.0305 109.894 76.071 109.894C76.2661 109.919 76.4611 109.927 76.6481 109.927C78.282 109.927 78.8267 108.661 78.8915 104.607L76.5914 104.615C76.6396 104.26 76.6719 103.719 76.6961 103.313L76.6967 103.303C76.8512 103.287 76.9572 103.214 76.9572 103.149C76.9572 103.1 76.8999 103.051 76.7702 103.035C76.4773 102.994 75.7949 102.961 75.7949 102.961C75.7868 103.491 75.7619 104.151 75.7133 104.615L73.5191 104.623V105.413C74.2339 105.405 74.9169 105.405 75.5918 105.405C75.2746 106.992 74.4602 108.405 72.9009 109.446C72.909 109.446 73.5677 109.789 73.7708 109.983C73.787 110 73.7952 110 73.8114 110C73.8195 110 73.8357 110 73.8438 109.983ZM81.0476 106.87H86.8154V105.991H81.0476V106.87ZM91.7595 103.589C92.1577 103.719 92.751 104.126 92.9622 104.33L93.3605 103.8C93.0601 103.532 92.45 103.222 92.1415 103.125L91.7595 103.589ZM91.0443 104.313C91.4426 104.468 92.0034 104.834 92.2552 105.119L92.6696 104.598C92.353 104.289 91.7435 103.963 91.4426 103.858L91.0443 104.313ZM92.4336 107.595C92.4417 107.595 92.4499 107.586 92.4661 107.57L93.0761 106.732C92.2791 106.276 90.9623 105.763 90.0524 105.469V103.881C90.0524 103.881 90.0524 103.564 90.0768 103.296C90.2475 103.263 90.3204 103.19 90.3204 103.132C90.3204 103.019 90.0686 103.002 89.1177 102.961C89.142 103.287 89.142 103.865 89.142 103.865V110H90.0524V106.373C90.8084 106.65 91.6453 107.049 92.3931 107.578C92.3975 107.58 92.4012 107.582 92.4047 107.584C92.4143 107.59 92.4218 107.595 92.4336 107.595Z" fill="#494D9F"/>
</svg>
