<svg width="258" height="120" viewBox="0 0 258 120" fill="none" xmlns="http://www.w3.org/2000/svg">
<path d="M30.5163 53.999C31.0607 55.1686 31.4677 56.3969 31.7294 57.6595H51.3172V78.6575H30.2492V60.6545C30.1868 58.329 29.5809 56.0501 28.4796 53.999C25.4772 48.376 19.2508 45.2429 12.9285 46.1739C6.60623 47.1049 1.55486 51.8987 0.312229 58.1468C-0.930398 64.3949 1.90436 70.7467 7.39229 74.0109C12.8802 77.2751 19.835 76.7462 24.7624 72.6898V67.2545C21.6849 72.0088 15.5728 73.7915 10.4092 71.4409C5.24558 69.0903 2.59535 63.3187 4.18558 57.8874C5.77581 52.4561 11.1245 49.011 16.7462 49.7972C22.3678 50.5835 26.5587 55.3627 26.5876 61.0205V82.318H54.9787V53.999H30.5163Z" fill="black"/>
<path d="M61.1655 61.3642V78.6145H65.0261V57.5196L61.1655 61.3642Z" fill="black"/>
<path d="M84.7331 62.2833C82.713 62.169 80.7773 63.106 79.6155 64.7604C78.6259 63.194 76.8909 62.2554 75.0367 62.2833C72.2871 62.2833 71.2097 63.6508 70.9067 64.1664H70.8506V62.8213H67.3267V78.6481H71.1199V70.802C71.1199 69.1094 71.1199 65.8029 74.1501 65.8029C76.4956 65.8029 77.3261 67.7532 77.3261 69.9165V78.6481H81.1306V70.802C81.0213 69.5983 81.2222 68.3867 81.7142 67.2824C82.2692 66.3634 83.2657 65.8019 84.3403 65.8029C87.3367 65.8029 87.3367 68.9974 87.3367 69.9165V78.6481H91.1412V69.4121C91.2543 67.7621 90.8333 66.1196 89.9404 64.7268C88.7179 63.1 86.7672 62.1847 84.7331 62.2833Z" fill="black"/>
<path fill-rule="evenodd" clip-rule="evenodd" d="M100.714 62.2833C102.792 62.2803 104.755 63.2358 106.034 64.8726V62.8214H109.524V78.6482H106.034V76.6978C104.595 78.2297 102.603 79.122 100.501 79.175C96.4045 79.175 92.7796 75.9244 92.7796 70.6563C92.682 68.4848 93.4718 66.3669 94.9678 64.7882C96.4639 63.2095 98.5378 62.3055 100.714 62.2833ZM97.9139 74.2814C98.7994 75.2017 100.02 75.7255 101.298 75.7339C102.598 75.7255 103.836 75.1772 104.715 74.2204C105.594 73.2636 106.035 71.9845 105.933 70.6899C106.003 69.4171 105.547 68.1712 104.67 67.2448C103.794 66.3183 102.574 65.7928 101.298 65.7917C99.9963 65.8203 98.7621 66.3738 97.8762 67.3262C96.9903 68.2786 96.5282 69.5486 96.5953 70.8468C96.5528 72.1225 97.0284 73.3611 97.9139 74.2814Z" fill="black"/>
<path fill-rule="evenodd" clip-rule="evenodd" d="M124.338 64.8053H124.394L124.45 62.8214H128.142V75.7563C128.142 83.3671 122.475 85.1156 119.479 85.1156C115.981 85.2063 112.799 83.107 111.51 79.8587H115.842C117.184 81.4519 119.379 82.0399 121.339 81.3314C123.299 80.623 124.608 78.7685 124.619 76.6866L124.562 76.6194C123.388 78.3388 121.403 79.324 119.321 79.2198C114.718 79.0614 111.1 75.2327 111.207 70.6339C111.163 66.1202 114.769 62.4141 119.288 62.3282C121.291 62.2044 123.211 63.1462 124.338 64.8053ZM116.284 74.1934C117.176 75.1496 118.417 75.7052 119.725 75.7339C121.014 75.6768 122.224 75.1012 123.08 74.1382C123.937 73.1753 124.366 71.9071 124.271 70.6227C124.267 68.0316 122.217 65.9051 119.624 65.8029C118.362 65.8233 117.161 66.3485 116.29 67.2607C115.419 68.173 114.95 69.3962 114.989 70.6563C114.926 71.9616 115.393 73.2372 116.284 74.1934Z" fill="black"/>
<path d="M144.404 62.2833C142.755 62.2922 141.183 62.9819 140.061 64.1888V62.7989H136.548V78.637H140.353V71.0934C140.213 69.7368 140.45 68.3679 141.037 67.1367C141.63 66.2801 142.599 65.7591 143.641 65.7356C146.84 65.7356 146.84 69.5018 146.84 70.8244V78.6706H150.633V70.0734C150.633 68.8517 150.633 66.1952 149.174 64.4691C147.976 63.0777 146.241 62.2623 144.404 62.2273" fill="black"/>
<path fill-rule="evenodd" clip-rule="evenodd" d="M165.525 64.7941H165.581L165.593 62.7989H169.083V78.6594H165.593V76.6978C164.152 78.2325 162.154 79.125 160.049 79.175C155.952 79.175 152.327 75.9244 152.327 70.6563C152.23 68.4829 153.021 66.3633 154.52 64.7842C156.018 63.2052 158.095 62.3024 160.273 62.2833C162.314 62.2819 164.246 63.2053 165.525 64.7941ZM157.451 74.2142C158.336 75.1344 159.556 75.6583 160.834 75.6666V75.6554C162.125 75.6493 163.356 75.1096 164.234 74.1646C165.112 73.2196 165.559 71.9536 165.469 70.6675C165.556 69.3863 165.107 68.1266 164.228 67.1893C163.349 66.252 162.12 65.7215 160.834 65.7244C159.534 65.7561 158.302 66.3106 157.416 67.2623C156.531 68.2139 156.068 69.4822 156.132 70.7796C156.089 72.0552 156.565 73.2939 157.451 74.2142Z" fill="black"/>
<path d="M176.647 57.5196H172.842V62.7989H170.991V66.1728H172.842V78.637H176.647V66.1728H178.948V62.7989H176.647V57.5196Z" fill="black"/>
<path fill-rule="evenodd" clip-rule="evenodd" d="M186.001 70.6395C186.001 65.975 189.787 62.1937 194.457 62.1937V62.2833C199.079 62.2709 202.838 65.996 202.863 70.6115C202.922 72.8626 202.057 75.04 200.47 76.6397C198.884 78.2394 196.712 79.1227 194.457 79.0853C189.787 79.0853 186.001 75.304 186.001 70.6395ZM191.09 74.1793C191.966 75.1074 193.18 75.6435 194.457 75.6666V75.6442C195.723 75.6092 196.921 75.0709 197.787 74.1491C198.654 73.2272 199.115 71.9981 199.07 70.7348C199.19 69.004 198.334 67.3506 196.851 66.4485C195.367 65.5465 193.503 65.5465 192.019 66.4485C190.535 67.3506 189.679 69.004 189.8 70.7348C189.748 72.0095 190.213 73.2512 191.09 74.1793Z" fill="black"/>
<path d="M212.234 62.2833C210.584 62.2881 209.01 62.9785 207.891 64.1888V62.7989H204.367V78.637H208.171V71.0934C208.032 69.7368 208.268 68.3679 208.856 67.1367C209.45 66.2815 210.417 65.7609 211.459 65.7356C214.658 65.7356 214.658 69.5018 214.658 70.8244V78.6706H218.451V70.0734C218.451 68.8517 218.451 66.1952 216.992 64.4691C215.795 63.0766 214.06 62.2609 212.223 62.2273" fill="black"/>
<rect x="130.398" y="62.799" width="3.82693" height="15.8492" fill="black"/>
<rect x="180.631" y="62.799" width="3.82693" height="15.8492" fill="black"/>
</svg>
