<svg width="215" height="100" viewBox="0 0 215 100" fill="none" xmlns="http://www.w3.org/2000/svg">
<path d="M25.4302 44.9992C25.8838 45.9739 26.223 46.9975 26.4411 48.0497H42.7642V65.548H25.2076V50.5455C25.1556 48.6076 24.6507 46.7085 23.7329 44.9992C21.2309 40.3134 16.0422 37.7025 10.7737 38.4784C5.50511 39.2542 1.29563 43.249 0.26011 48.4557C-0.775413 53.6625 1.58688 58.9556 6.16016 61.6758C10.7334 64.396 16.5291 63.9552 20.6352 60.5749V56.0455C18.0707 60.0074 12.9773 61.493 8.67425 59.5341C4.37123 57.5753 2.16271 52.7657 3.4879 48.2396C4.81309 43.7134 9.27037 40.8426 13.9551 41.4978C18.6398 42.153 22.1321 46.1357 22.1563 50.8505V68.5984H45.8155V44.9992H25.4302Z" fill="white"/>
<path d="M50.9712 51.137V65.5122H54.1884V47.9331L50.9712 51.137Z" fill="white"/>
<path d="M70.6108 51.9028C68.9274 51.8076 67.3144 52.5884 66.3462 53.9671C65.5215 52.6618 64.0757 51.8796 62.5305 51.9028C60.2392 51.9028 59.3413 53.0424 59.0888 53.4721H59.0421V52.3512H56.1055V65.5402H59.2665V59.0017C59.2665 57.5913 59.2665 54.8358 61.7916 54.8358C63.7463 54.8358 64.4383 56.4611 64.4383 58.2638V65.5402H67.6087V59.0017C67.5177 57.9986 67.6851 56.989 68.095 56.0688C68.5576 55.3029 69.388 54.835 70.2835 54.8358C72.7805 54.8358 72.7805 57.4979 72.7805 58.2638V65.5402H75.9509V57.8435C76.0452 56.4685 75.6944 55.0997 74.9502 53.9391C73.9315 52.5834 72.3059 51.8207 70.6108 51.9028Z" fill="white"/>
<path fill-rule="evenodd" clip-rule="evenodd" d="M83.9283 51.9028C85.6602 51.9003 87.2962 52.6966 88.3613 54.0605V52.3512H91.2698V65.5402H88.3613V63.9149C87.1629 65.1915 85.5022 65.9351 83.7506 65.9792C80.3371 65.9792 77.3163 63.2704 77.3163 58.8803C77.235 57.0707 77.8932 55.3058 79.1399 53.9903C80.3866 52.6747 82.1148 51.9213 83.9283 51.9028ZM81.5949 61.9012C82.3328 62.6681 83.3497 63.1047 84.4146 63.1116C85.4982 63.1046 86.53 62.6477 87.2627 61.8504C87.9954 61.053 88.3629 59.9872 88.2771 58.9083C88.3362 57.8477 87.9558 56.8094 87.2253 56.0374C86.4947 55.2653 85.4783 54.8274 84.4146 54.8265C83.3303 54.8503 82.3017 55.3116 81.5635 56.1052C80.8252 56.8989 80.4402 57.9572 80.4961 59.0391C80.4607 60.1021 80.857 61.1343 81.5949 61.9012Z" fill="white"/>
<path fill-rule="evenodd" clip-rule="evenodd" d="M103.615 54.0045H103.662L103.708 52.3512H106.785V63.1303C106.785 69.4726 102.062 70.9298 99.5654 70.9298C96.6511 71.0053 93.9995 69.2558 92.9253 66.549H96.5353C97.6535 67.8766 99.4822 68.3666 101.116 67.7762C102.749 67.1858 103.84 65.6405 103.849 63.9056L103.802 63.8495C102.824 65.2824 101.169 66.1034 99.4345 66.0166C95.5986 65.8845 92.5834 62.694 92.6728 58.8616C92.6362 55.1002 95.6409 52.0118 99.4065 51.9402C101.076 51.8371 102.676 52.6219 103.615 54.0045ZM96.9037 61.8279C97.6469 62.6247 98.6811 63.0877 99.7712 63.1116C100.845 63.0641 101.853 62.5844 102.567 61.7819C103.28 60.9795 103.638 59.9226 103.559 58.8523C103.556 56.6931 101.847 54.921 99.687 54.8358C98.6353 54.8528 97.6343 55.2904 96.9082 56.0507C96.1822 56.8109 95.7918 57.8302 95.8245 58.8803C95.7713 59.968 96.1605 61.0311 96.9037 61.8279Z" fill="white"/>
<path d="M120.337 51.9029C118.962 51.9103 117.652 52.485 116.717 53.4908V52.3326H113.79V65.5309H116.96V59.2447C116.844 58.1141 117.041 56.9734 117.531 55.9474C118.025 55.2335 118.832 54.7994 119.701 54.7798C122.366 54.7798 122.366 57.9183 122.366 59.0205V65.5589H125.527V58.3947C125.527 57.3765 125.527 55.1628 124.311 53.7243C123.313 52.5649 121.867 51.8854 120.337 51.8562" fill="white"/>
<path fill-rule="evenodd" clip-rule="evenodd" d="M137.938 53.9951H137.984L137.994 52.3325H140.902V65.5495H137.994V63.9149C136.793 65.1938 135.128 65.9375 133.374 65.9792C129.96 65.9792 126.939 63.2704 126.939 58.8803C126.858 57.0691 127.517 55.3028 128.766 53.9869C130.015 52.6711 131.746 51.9188 133.561 51.9028C135.262 51.9016 136.872 52.6712 137.938 53.9951ZM131.209 61.8452C131.947 62.6121 132.963 63.0486 134.028 63.0556V63.0462C135.104 63.0411 136.13 62.5914 136.861 61.8039C137.593 61.0164 137.966 59.9614 137.891 58.8896C137.963 57.822 137.589 56.7722 136.856 55.9912C136.124 55.2101 135.1 54.768 134.028 54.7704C132.945 54.7968 131.918 55.2589 131.18 56.0519C130.442 56.845 130.056 57.9019 130.11 58.9831C130.074 60.0461 130.471 61.0783 131.209 61.8452Z" fill="white"/>
<path d="M147.206 47.9331H144.035V52.3326H142.492V55.1441H144.035V65.5309H147.206V55.1441H149.123V52.3326H147.206V47.9331Z" fill="white"/>
<path fill-rule="evenodd" clip-rule="evenodd" d="M155.001 58.8663C155.001 54.9792 158.156 51.8281 162.048 51.8281V51.9029C165.899 51.8925 169.032 54.9967 169.053 58.843C169.101 60.7189 168.381 62.5334 167.059 63.8665C165.736 65.1995 163.927 65.9357 162.048 65.9045C158.156 65.9045 155.001 62.7534 155.001 58.8663ZM159.242 61.8161C159.972 62.5896 160.984 63.0364 162.048 63.0556V63.0369C163.102 63.0077 164.101 62.5592 164.823 61.791C165.545 61.0228 165.929 59.9985 165.892 58.9457C165.992 57.5034 165.279 56.1256 164.042 55.3738C162.806 54.6221 161.253 54.6221 160.016 55.3738C158.78 56.1256 158.066 57.5034 158.167 58.9457C158.124 60.008 158.511 61.0427 159.242 61.8161Z" fill="white"/>
<path d="M176.862 51.9029C175.487 51.9069 174.175 52.4822 173.242 53.4908V52.3326H170.306V65.5309H173.476V59.2447C173.36 58.1141 173.557 56.9734 174.047 55.9474C174.542 55.2347 175.348 54.8009 176.216 54.7798C178.882 54.7798 178.882 57.9183 178.882 59.0205V65.5589H182.043V58.3947C182.043 57.3765 182.043 55.1628 180.827 53.7243C179.829 52.5639 178.383 51.8842 176.852 51.8562" fill="white"/>
<rect x="108.665" y="52.3325" width="3.18912" height="13.2077" fill="white"/>
<rect x="150.526" y="52.3325" width="3.18912" height="13.2077" fill="white"/>
</svg>
