<svg width="216" height="100" viewBox="0 0 216 100" fill="none" xmlns="http://www.w3.org/2000/svg">
<path fill-rule="evenodd" clip-rule="evenodd" d="M3.21652 23.5043C3.45268 23.4237 3.70297 23.4045 3.94421 23.3453C12.7088 23.3215 21.4742 23.3419 30.2392 23.3351C58.9061 23.3351 87.5731 23.3351 116.24 23.3351C119.462 23.3417 122.684 23.3218 125.906 23.3451C126.606 23.4428 127.308 23.6882 127.817 24.1971C128.289 24.6157 128.598 25.1852 128.76 25.7895C128.894 26.5024 128.841 27.2281 128.85 27.949C128.85 42.6806 128.85 57.4121 128.85 72.1437C128.841 72.8376 128.894 73.5367 128.758 74.2224C128.49 75.3723 127.538 76.3162 126.387 76.5889C125.698 76.7206 124.997 76.6721 124.301 76.6797C84.2702 76.6791 44.2391 76.6808 4.20818 76.6789C3.95811 76.6673 3.7123 76.6154 3.46382 76.5885C2.31357 76.3168 1.36282 75.3736 1.09385 74.2251C1.06534 73.9772 1.01161 73.7321 1.00114 73.483C0.999363 57.8575 1.00165 42.2319 1 26.6064C1.00077 26.3314 1.06357 26.0621 1.09146 25.7895C1.34999 24.7351 2.16815 23.8217 3.21652 23.5043Z" stroke="white"/>
<path fill-rule="evenodd" clip-rule="evenodd" d="M87.9745 68.9533C87.9745 56.3396 87.9733 43.7259 87.9751 31.1122C91.2181 31.1123 94.4611 31.112 97.7041 31.1124C97.7029 43.726 97.7054 56.3396 97.7029 68.9533C94.46 68.9525 91.2173 68.9526 87.9745 68.9533ZM99.9676 40.8641C104.698 40.866 109.427 40.8605 114.158 40.867C112.894 41.6006 111.764 42.5558 110.85 43.6937C108.555 46.5573 107.42 50.2264 107.281 53.8591C107.216 54.3669 107.223 54.8841 107.283 55.3923C107.414 58.9664 108.511 62.5756 110.734 65.4185C111.938 66.9709 113.536 68.2462 115.387 68.9408C110.247 68.9693 105.107 68.9442 99.9674 68.9534C99.9678 59.5903 99.9674 50.2272 99.9676 40.8641Z" fill="white"/>
<path fill-rule="evenodd" clip-rule="evenodd" d="M25.8593 43.5403C26.8104 43.5369 27.7615 43.5402 28.7127 43.5386C28.7138 47.2521 28.7127 50.9656 28.7133 54.6791C27.7622 54.6797 26.8112 54.6801 25.8603 54.679C25.858 50.9661 25.86 47.2532 25.8593 43.5403ZM36.1462 45.7967C35.7732 45.7969 35.4017 45.8046 35.0314 45.8092C34.6403 45.8531 34.2486 45.8977 33.8577 45.9411C33.0738 46.1219 32.2325 46.3308 31.6678 46.9455C31.2274 47.3585 31.0354 47.9462 30.9119 48.5192C31.8812 48.5278 32.8504 48.5269 33.8199 48.5213C34.0009 48.2451 34.2478 47.9888 34.5841 47.9186C35.5605 47.6973 36.5924 47.7112 37.5698 47.9186C38.039 48.021 38.4209 48.3802 38.4957 48.8624C38.4961 48.9835 38.4987 49.1047 38.4999 49.2265C37.4272 49.2258 36.3538 49.229 35.2812 49.2265C34.3229 49.2952 33.3534 49.2825 32.4152 49.5278C32.1983 49.6032 31.9846 49.6858 31.7707 49.7685C31.2151 50.0411 30.7534 50.5232 30.597 51.1308C30.5023 51.3763 30.5452 51.645 30.471 51.8946C30.471 51.9528 30.471 52.0687 30.471 52.1269C30.5398 52.4058 30.5226 52.7011 30.639 52.9702C30.9562 53.843 31.7926 54.4147 32.6588 54.6673C32.9711 54.7348 33.2873 54.7885 33.6015 54.8473C33.9671 54.8431 34.331 54.8596 34.6933 54.9059C35.0044 54.8425 35.323 54.8611 35.6381 54.841C36.2481 54.737 36.8684 54.6243 37.4249 54.3409C37.7804 54.1605 38.1479 54.0019 38.4831 53.7843C38.4949 54.0902 38.5592 54.3905 38.6658 54.6778C39.7064 54.6781 40.7472 54.6828 41.7879 54.6757C41.5632 54.3393 41.3673 53.9716 41.3554 53.5582C41.34 51.8615 41.3597 50.1637 41.3449 48.4669C41.2294 47.9239 41.0968 47.331 40.6646 46.9434C40.3425 46.5859 39.8912 46.3935 39.4573 46.2089C38.3881 45.855 37.2655 45.7959 36.1462 45.7967ZM35.6969 50.7353C36.4961 50.7325 37.2954 50.7342 38.0947 50.7353C38.192 51.3946 37.7342 51.9685 37.2296 52.332C36.6861 52.7331 36.0105 52.8931 35.3526 52.9849C34.8537 53.03 34.3441 52.9771 33.8682 52.8216C33.4745 52.6827 33.1039 52.331 33.1375 51.8841C33.1356 51.4995 33.4519 51.2335 33.7443 51.0366C34.3681 50.794 35.0404 50.7922 35.6969 50.7353ZM57.8876 45.9482C59.1309 45.7597 60.4057 45.7297 61.6441 45.9723C62.6341 46.1866 63.6373 46.6172 64.2518 47.4559C64.466 47.7728 64.6036 48.133 64.7083 48.499C63.743 48.5495 62.7813 48.6138 61.8174 48.6825C61.6578 48.3857 61.4532 48.1036 61.1307 47.9698C60.3042 47.6019 59.3454 47.5664 58.4764 47.7984C58.1928 47.8965 57.8533 48.0082 57.7285 48.3089C57.6784 48.4797 57.7287 48.7003 57.8963 48.7909C58.2375 49.0236 58.6605 49.0518 59.0532 49.138C60.26 49.2655 61.4705 49.3562 62.6724 49.5241C63.0681 49.6292 63.4664 49.7581 63.8064 49.9928C64.2366 50.2691 64.52 50.7326 64.6583 51.2163C64.8379 51.9598 64.6928 52.8089 64.1905 53.4021C63.2579 54.4708 61.7465 54.7702 60.39 54.8019C59.9529 54.8863 59.4824 54.8827 59.0449 54.8035C58.5401 54.8099 58.0389 54.7434 57.546 54.6397C56.7175 54.4791 55.8798 54.1697 55.2724 53.5641C54.8035 53.1303 54.5375 52.5302 54.3564 51.9298C54.5998 51.8639 54.8497 51.8237 55.1032 51.8343C55.8497 51.7745 56.5986 51.7271 57.3462 51.6659C57.5196 52.1492 57.8927 52.5788 58.3924 52.7408C59.0554 52.999 59.7811 52.9349 60.4777 52.9337C60.936 52.8461 61.5061 52.7948 61.7814 52.3617C61.9753 52.0692 61.7254 51.6795 61.4168 51.5948C59.8399 51.1073 58.1415 51.3146 56.561 50.8452C55.8151 50.6202 55.0831 50.0842 54.9106 49.2878C54.7739 48.5812 54.8552 47.7734 55.3473 47.212C55.9708 46.4532 56.9588 46.1436 57.8876 45.9482ZM46.4524 45.9276C47.1214 45.8607 47.7896 45.7701 48.4642 45.8003C49.7302 45.8409 51.0791 46.0389 52.1039 46.8432C52.6533 47.2301 53.0093 47.8384 53.1546 48.4866C52.8297 48.5506 52.4957 48.4966 52.1715 48.5616C51.8641 48.6117 51.5493 48.5556 51.2436 48.6182C50.924 48.6738 50.5962 48.6138 50.2784 48.683C50.0432 48.2412 49.627 47.9152 49.1385 47.7989C48.3492 47.5848 47.4989 47.6044 46.7211 47.8558C46.4752 47.9289 46.3069 48.127 46.1719 48.3327C46.1739 48.4047 46.178 48.5486 46.1801 48.6205C46.3177 48.7508 46.451 48.9067 46.6478 48.9458C47.2793 49.1346 47.9413 49.199 48.597 49.2332L48.6666 49.2743C49.5025 49.3359 50.3454 49.3775 51.1688 49.5508C51.5711 49.632 51.96 49.7819 52.3008 50.0124C52.4578 50.1757 52.6191 50.3353 52.7827 50.4928C53.2612 51.2179 53.2952 52.2036 52.9125 52.9761C52.5781 53.6782 51.8897 54.1278 51.1802 54.3926C50.0451 54.7962 48.8236 54.8741 47.6289 54.8441C47.3443 54.7518 47.0412 54.8244 46.7516 54.7691C45.9135 54.6467 45.0505 54.4853 44.3244 54.0257C44.0965 53.8896 43.8993 53.7116 43.6852 53.5572C43.5208 53.3296 43.3327 53.119 43.1912 52.8759C43.0062 52.5812 42.9286 52.2388 42.8154 51.9143C43.2121 51.7975 43.6283 51.87 44.0299 51.7878C44.6219 51.7707 45.2123 51.7162 45.801 51.6482C45.9075 51.9679 46.0719 52.2887 46.362 52.4799C46.9431 52.897 47.6895 52.9648 48.3842 52.9384C48.8962 52.9675 49.4092 52.8782 49.8868 52.6937C50.1037 52.5661 50.2582 52.3709 50.3102 52.1223C50.2647 52.005 50.2242 51.8857 50.1638 51.7759C49.9323 51.6103 49.6561 51.515 49.3803 51.4545C48.7981 51.3717 48.2196 51.2402 47.6288 51.2444C46.4238 51.0822 45.0942 51.1116 44.066 50.362C43.7971 50.1721 43.6048 49.9024 43.4574 49.613C43.1951 48.8977 43.2356 48.0671 43.6487 47.4161C44.1109 46.7476 44.8498 46.3267 45.6253 46.1186C45.898 46.0432 46.1768 45.9926 46.4524 45.9276ZM13.5813 46.0884C14.5518 46.0897 15.5222 46.0894 16.4927 46.0886C16.5021 47.207 16.4749 48.3263 16.5067 49.4444C17.7799 48.3085 19.1083 47.2343 20.3705 46.0867C21.632 46.0951 22.8936 46.0817 24.1551 46.0937C22.8082 47.2236 21.4386 48.3265 20.0898 49.4543C20.1097 49.4676 20.1495 49.4941 20.1694 49.5073C20.5115 49.903 20.8285 50.3225 21.1981 50.6943L21.2167 50.7674C21.5797 51.1379 21.909 51.5408 22.232 51.9463C22.3546 52.0748 22.4778 52.2038 22.5821 52.3486C23.2614 53.11 23.9065 53.9009 24.5752 54.6718C23.3627 54.6887 22.1499 54.6763 20.9374 54.6785C20.8662 54.6029 20.7952 54.5288 20.7243 54.4544C19.8525 53.3139 18.9115 52.2266 18.0511 51.0775C17.5159 51.486 17.0329 51.9586 16.4948 52.3641C16.4902 53.1359 16.4946 53.9079 16.4925 54.6799C15.522 54.6784 14.5515 54.6802 13.5811 54.6796C13.5826 51.8159 13.5818 48.9521 13.5813 46.0884ZM66.4964 46.0891C67.447 46.0888 68.3977 46.0898 69.3485 46.0886C69.3502 48.9523 69.3494 51.816 69.349 54.6797C68.3979 54.6792 67.447 54.6799 66.4962 54.679C66.4969 51.8156 66.4966 48.9524 66.4964 46.0891ZM71.6189 46.0889C72.5895 46.0892 73.5603 46.0894 74.5313 46.0888C74.5303 47.1973 74.5303 48.3058 74.5314 49.4143C74.8622 49.1596 75.1837 48.8905 75.4797 48.5957L75.5555 48.5791C76.0264 48.098 76.5781 47.7047 77.0695 47.2452C77.5108 46.8544 77.9754 46.4892 78.4083 46.0886C79.6595 46.0974 80.9112 46.0732 82.1622 46.1012C80.8263 47.2359 79.4602 48.3356 78.1098 49.4531C78.2526 49.5977 78.4008 49.7397 78.5245 49.9029C79.6341 51.1827 80.716 52.4865 81.8336 53.759C82.0801 54.0751 82.3527 54.37 82.617 54.6719C81.3833 54.6896 80.1493 54.6737 78.9157 54.6806C78.8896 54.6392 78.8373 54.5563 78.8112 54.5148C77.8719 53.3843 76.9896 52.2074 76.0452 51.0809C75.5374 51.5074 75.0399 51.9454 74.531 52.37C74.5307 53.14 74.5304 53.91 74.5308 54.6802C73.5601 54.6792 72.5896 54.6792 71.6192 54.6801C71.6191 51.8164 71.6198 48.9526 71.6189 46.0889ZM61.4339 57.5238C61.4301 58.7352 61.4411 59.9473 61.4255 61.1587C60.8154 60.6386 60.0527 60.3576 59.2839 60.1668C58.4005 59.9933 57.4801 59.989 56.609 60.2317C55.5683 60.4985 54.6524 61.173 54.0601 62.0627C53.041 63.6867 53.0871 65.952 54.2428 67.4973C54.5745 67.83 54.8808 68.201 55.2968 68.4348C55.7417 68.7329 56.2484 68.9208 56.7644 69.0563C58.371 69.4079 60.2038 69.0974 61.4276 67.9472C61.4337 68.2639 61.4324 68.582 61.4339 68.8993C62.3841 68.9 63.3348 68.8989 64.2852 68.8993C64.2862 65.1074 64.2858 61.3157 64.2852 57.5238C63.3344 57.5228 62.3845 57.5237 61.4339 57.5238ZM58.7653 62.0522C59.0576 62.0524 59.3509 62.1223 59.6388 62.1736C59.8191 62.2273 59.9976 62.2894 60.1763 62.3515C60.7671 62.6322 61.2545 63.1472 61.4066 63.7933C61.5814 64.6516 61.4975 65.6215 60.9363 66.3296C60.4904 66.903 59.7516 67.1807 59.0425 67.2211C58.3566 67.2646 57.6281 67.0923 57.1045 66.6309C56.7989 66.3287 56.5779 65.9514 56.439 65.5469C56.2615 64.9018 56.2259 64.1918 56.4915 63.5652C56.7745 62.7709 57.5403 62.2119 58.3685 62.1025C58.5006 62.0658 58.6325 62.0522 58.7653 62.0522ZM76.9857 59.8989C76.9438 59.8991 76.902 59.9011 76.8598 59.9052C76.5556 60.0139 76.2257 59.9201 75.9149 59.9931C74.4835 60.1862 73.022 60.7375 72.0664 61.8597C71.5101 62.4784 71.1848 63.2814 71.0984 64.103C71.1077 64.59 71.0514 65.0868 71.1677 65.5658C71.295 66.2571 71.6579 66.8831 72.1 67.4219C72.8903 68.2943 74.0126 68.8237 75.157 69.0521C76.0183 69.2171 76.914 69.3215 77.7857 69.1965C78.9999 69.1436 80.215 68.7531 81.206 68.0456C82.009 67.491 82.5562 66.6275 82.8248 65.6997C82.9059 65.1409 83.034 64.5743 82.936 64.0089C82.8486 63.0729 82.4085 62.1792 81.7435 61.5165C81.6039 61.405 81.4736 61.2842 81.3487 61.1587C80.3427 60.4165 79.106 60.0334 77.8655 59.9596C77.5692 59.9789 77.2797 59.8976 76.9857 59.8989ZM77.1957 61.9895C77.2556 62.0003 77.3752 62.0205 77.4351 62.0313C78.1881 62.0659 78.9526 62.3742 79.4507 62.95C80.0458 63.6491 80.1623 64.6739 79.8265 65.5156C79.5722 66.2336 78.9288 66.7366 78.2224 66.9762C77.6696 67.1521 77.0856 67.0893 76.5154 67.0955C76.1259 67.0563 75.7475 66.9428 75.388 66.7921C74.7458 66.4901 74.2734 65.8849 74.1219 65.1954C74.0302 64.87 74.0639 64.5299 74.0673 64.1972C74.2098 63.5668 74.5117 62.9419 75.0667 62.5754C75.6856 62.1392 76.4576 62.0264 77.1957 61.9895ZM38.1584 60.3594C38.6284 60.1965 39.1224 60.0648 39.6238 60.0705L39.7039 60.0224C39.864 60.0232 40.0245 60.0239 40.1856 60.0246C40.1849 60.8733 40.1859 61.7221 40.1852 62.5709C39.8082 62.5701 39.4314 62.5697 39.0547 62.5691C38.6771 62.5602 38.3156 62.6844 37.9501 62.7593C37.6057 62.892 37.2792 63.0793 37.0085 63.3309C36.7016 63.6805 36.565 64.1554 36.5745 64.6146C36.5793 66.0427 36.5742 67.4709 36.5771 68.8992C35.606 68.8992 34.635 68.8997 33.664 68.8989C33.6624 66.0347 33.6637 63.1705 33.6633 60.3064C34.6346 60.3086 35.606 60.3061 36.5774 60.3075C36.5734 60.762 36.5808 61.2168 36.5722 61.6716C36.9502 61.0853 37.495 60.5978 38.1584 60.3594ZM46.5771 60.0224C46.2541 60.0226 45.93 60.023 45.6071 60.0245C44.5981 60.1134 43.5449 60.2086 42.6529 60.7318C41.8984 61.1254 41.4948 61.9364 41.3281 62.7365C42.2941 62.7475 43.2624 62.756 44.2276 62.7324C44.3799 62.5497 44.5416 62.3726 44.7421 62.2406C45.0766 62.1236 45.4212 62.0518 45.7709 61.9978C46.6421 61.9871 47.5637 61.916 48.3744 62.2971C48.8037 62.4988 48.9478 63.0111 48.9224 63.4501C47.9008 63.4732 46.8799 63.4143 45.859 63.4418C45.4142 63.5209 44.9621 63.4927 44.5132 63.5003C44.0328 63.5531 43.5496 63.5808 43.0771 63.6908C42.6476 63.777 42.2527 63.9645 41.8698 64.17C41.267 64.582 40.9075 65.3123 40.9418 66.0387C40.959 66.3721 40.8882 66.722 41.0257 67.039C41.2272 67.8151 41.88 68.4023 42.6004 68.7089C43.2259 68.9769 43.9155 69.0647 44.5909 69.0877C45.1 69.1852 45.6101 69.0533 46.1215 69.0605C47.1123 68.9131 48.0657 68.5534 48.9014 68.0016C48.9124 68.3086 48.9836 68.61 49.0861 68.8993C50.1277 68.8978 51.1686 68.9031 52.2104 68.8973C51.9692 68.5461 51.796 68.1492 51.7757 67.7191C51.7502 65.9894 51.8008 64.2579 51.7484 62.5294C51.6346 61.9473 51.3913 61.3701 50.9107 60.9955C49.9695 60.2368 48.7054 60.1244 47.545 60.0266C47.222 60.0228 46.9001 60.0222 46.5771 60.0224ZM48.0804 64.9547C48.363 64.9554 48.6459 64.9583 48.9287 64.961C48.9181 65.0691 48.9063 65.1784 48.8951 65.2875C48.806 65.7772 48.5141 66.2202 48.0993 66.497C47.6873 66.8219 47.1787 66.9768 46.6863 67.1332C45.9215 67.2478 45.0842 67.2977 44.3872 66.903C43.8225 66.6387 43.8174 65.7432 44.3074 65.4005C44.6674 65.1447 45.1135 65.0858 45.5378 65.0154C46.3837 64.9655 47.2326 64.9527 48.0804 64.9547ZM66.5563 60.1946C67.5071 60.1946 68.4579 60.1946 69.4089 60.1946C69.4075 63.0962 69.409 65.9977 69.4081 68.8994C68.4573 68.8991 67.5065 68.8993 66.5559 68.8994C66.5567 65.9978 66.5558 63.0962 66.5563 60.1946Z" fill="white"/>
</svg>
