<svg width="258" height="120" viewBox="0 0 258 120" fill="none" xmlns="http://www.w3.org/2000/svg">
<path d="M2.94938 28.3204C3.23276 28.2236 3.53311 28.2006 3.8226 28.1295C14.3401 28.101 24.8586 28.1254 35.3765 28.1173C69.7769 28.1173 104.177 28.1173 138.578 28.1173C142.444 28.1253 146.311 28.1013 150.177 28.1293C151.017 28.2465 151.859 28.541 152.47 29.1517C153.036 29.654 153.407 30.3374 153.601 31.0626C153.763 31.9181 153.698 32.7889 153.71 33.6539C153.71 51.3319 153.71 69.0098 153.71 86.6877C153.699 87.5204 153.762 88.3592 153.599 89.182C153.277 90.562 152.135 91.6947 150.754 92.0219C149.927 92.18 149.086 92.1217 148.251 92.1308C100.214 92.1301 52.1765 92.1321 4.13937 92.1298C3.83928 92.1159 3.54432 92.0537 3.24613 92.0214C1.86584 91.6953 0.724934 90.5634 0.402165 89.1854C0.367963 88.8878 0.303483 88.5938 0.290921 88.2948C0.288786 69.5442 0.291531 50.7935 0.289551 32.0428C0.29047 31.7129 0.365835 31.3897 0.399305 31.0625C0.709536 29.7974 1.69133 28.7013 2.94938 28.3204Z" fill="black"/>
<path fill-rule="evenodd" clip-rule="evenodd" d="M104.659 70.159C104.659 74.3923 104.659 78.6257 104.659 82.859C108.55 82.8582 112.442 82.8581 116.333 82.859C116.335 74.2282 116.335 65.5973 116.334 56.9665C116.334 50.461 116.334 43.9555 116.335 37.4499C113.666 37.4496 110.997 37.4497 108.329 37.4497C107.106 37.4498 105.883 37.4498 104.66 37.4498C104.658 48.3529 104.659 59.2559 104.659 70.159ZM125.54 49.1521C123.377 49.1525 121.214 49.1529 119.051 49.1521C119.051 53.7299 119.051 58.3077 119.051 62.8854C119.051 69.5433 119.051 76.2012 119.051 82.8591C121.457 82.8548 123.863 82.8568 126.269 82.8587C130.031 82.8618 133.792 82.8649 137.554 82.844C135.333 82.0106 133.415 80.4802 131.971 78.6173C129.303 75.2058 127.987 70.8748 127.829 66.5858C127.758 65.976 127.749 65.3554 127.828 64.746C127.994 60.3868 129.356 55.9838 132.11 52.5475C133.206 51.182 134.563 50.0358 136.079 49.1555C132.566 49.1507 129.053 49.1514 125.54 49.1521Z" fill="#77B926"/>
<path fill-rule="evenodd" clip-rule="evenodd" d="M32.0872 52.3617C31.4317 52.3614 30.7762 52.3611 30.1207 52.3634C30.121 54.0665 30.1208 55.7697 30.1207 57.4728C30.1204 60.2252 30.1201 62.9775 30.1218 65.7299C31.263 65.7311 32.4041 65.7307 33.5454 65.7299C33.5451 63.8519 33.5452 61.9738 33.5453 60.0957V60.0653C33.5454 57.4973 33.5455 54.9293 33.5447 52.3613C33.0589 52.3622 32.573 52.3619 32.0872 52.3617ZM41.5106 55.0807L41.5107 55.0807H41.5107H41.5108H41.5108H41.5108H41.5108H41.5108H41.5109H41.5109H41.5109H41.5109H41.511H41.511H41.511C41.8281 55.076 42.1461 55.0713 42.465 55.071C43.8081 55.0701 45.1552 55.141 46.4383 55.5657C46.9589 55.7872 47.5005 56.0181 47.887 56.4472C48.4056 56.9123 48.5648 57.6237 48.7033 58.2753C48.7121 59.2855 48.7108 60.296 48.7094 61.3065V61.3076C48.708 62.3335 48.7066 63.3594 48.7159 64.3849C48.7302 64.881 48.9653 65.3221 49.2349 65.7259C48.3281 65.7321 47.4212 65.7308 46.5144 65.7295C46.1724 65.729 45.8304 65.7285 45.4884 65.7284C45.3605 65.3836 45.2833 65.0233 45.2692 64.6561C44.9757 64.8467 44.6616 64.9995 44.3475 65.1523C44.2311 65.2089 44.1147 65.2656 43.9993 65.3241C43.3316 65.6641 42.5872 65.7995 41.8552 65.9243C41.734 65.932 41.6124 65.935 41.4907 65.9379H41.4907C41.2329 65.9442 40.9751 65.9505 40.7214 66.0021C40.2867 65.9465 39.85 65.9268 39.4113 65.9318C39.3088 65.9126 39.2061 65.8939 39.1034 65.8752L39.1032 65.8752L39.1032 65.8751C38.8281 65.825 38.5528 65.7748 38.28 65.7158C37.2406 65.4127 36.2369 64.7267 35.8562 63.6793C35.7713 63.4828 35.7457 63.2747 35.72 63.0664C35.7035 62.9324 35.687 62.7984 35.6547 62.6673V62.3886C35.6956 62.2509 35.7068 62.1084 35.718 61.9659V61.9659C35.7313 61.7985 35.7445 61.6312 35.8058 61.472C35.9935 60.7429 36.5475 60.1644 37.2142 59.8372C37.4709 59.738 37.7274 59.6389 37.9877 59.5484C38.8434 59.3247 39.7208 59.2798 40.5976 59.2349C40.8743 59.2208 41.151 59.2066 41.4269 59.1868C42.1898 59.1886 42.953 59.188 43.7163 59.1874H43.7163H43.7163H43.7164H43.7164H43.7164H43.7165H43.7165H43.7165H43.7166H43.7166H43.7166H43.7167H43.7167H43.7167C44.241 59.1869 44.7653 59.1865 45.2893 59.1868C45.2888 59.1313 45.288 59.0759 45.2872 59.0206L45.2872 59.0199C45.2859 58.9298 45.2846 58.8398 45.2843 58.7499C45.1945 58.1713 44.7362 57.7403 44.1732 57.6174C43.0004 57.3685 41.762 57.3518 40.5904 57.6174C40.1868 57.7016 39.8906 58.0092 39.6733 58.3406C38.51 58.3473 37.3469 58.3483 36.1838 58.3381C36.332 57.6505 36.5624 56.9452 37.0908 56.4497C37.7684 55.712 38.7781 55.4614 39.7187 55.2443C40.0196 55.2109 40.3209 55.1769 40.6222 55.143L41.1271 55.0861C41.2548 55.0845 41.3826 55.0826 41.5106 55.0807L41.5106 55.0807ZM44.5072 60.9969H44.5073L44.8031 60.9974C44.9198 61.7885 44.3705 62.4773 43.765 62.9134C43.1128 63.3947 42.3021 63.5868 41.5126 63.6969C40.9139 63.751 40.3024 63.6876 39.7313 63.501C39.2588 63.3343 38.8141 62.9122 38.8545 62.376C38.8522 61.9145 39.2317 61.5952 39.5826 61.359C40.1912 61.1223 40.8382 61.0766 41.4822 61.0311C41.6304 61.0206 41.7784 61.0102 41.9258 60.9974C42.786 60.9944 43.6465 60.9957 44.5069 60.9969H44.5069H44.507H44.507H44.507H44.5071H44.5071H44.5071H44.5071H44.5072H44.5072H44.5072H44.5072ZM73.0623 55.2818C71.5763 54.9906 70.0465 55.0267 68.5545 55.2529C67.44 55.4874 66.2545 55.8589 65.5063 56.7694C64.9156 57.4431 64.8182 58.4125 64.9822 59.2604C65.1892 60.2161 66.0676 60.8593 66.9626 61.1292C67.8984 61.4072 68.8686 61.4874 69.8388 61.5676C70.8349 61.65 71.831 61.7324 72.7897 62.0288C73.16 62.1305 73.4598 62.5981 73.2272 62.9491C72.9347 63.4093 72.3648 63.5102 71.8564 63.6003L71.8563 63.6003L71.8562 63.6003L71.8561 63.6003C71.7904 63.612 71.7257 63.6234 71.6627 63.6355C71.5267 63.6357 71.3898 63.6379 71.2524 63.6402L71.2523 63.6402C70.5453 63.6517 69.8264 63.6634 69.1603 63.404C68.5607 63.2095 68.1129 62.6941 67.9049 62.1142C67.4334 62.1527 66.9615 62.1868 66.4899 62.2208L66.4897 62.2208L66.4895 62.2208C66.0638 62.2515 65.6382 62.2822 65.2133 62.3162C64.9092 62.3035 64.6092 62.3517 64.3172 62.4308C64.5345 63.1512 64.8536 63.8714 65.4163 64.392C66.1453 65.1186 67.1504 65.49 68.1447 65.6827C68.7361 65.8071 69.3375 65.8869 69.9434 65.8792C70.4683 65.9743 71.0329 65.9786 71.5574 65.8773C73.1853 65.8393 74.9989 65.48 76.118 64.1976C76.7208 63.4857 76.8949 62.4668 76.6794 61.5746C76.5134 60.9942 76.1734 60.4379 75.6571 60.1065C75.2491 59.8247 74.7711 59.6701 74.2963 59.544C73.3186 59.4074 72.3361 59.3134 71.3535 59.2193L71.3534 59.2193L71.3533 59.2193C70.8865 59.1746 70.4197 59.1299 69.9533 59.0807C69.8475 59.0574 69.7399 59.0377 69.6319 59.0179C69.2591 58.9496 68.8825 58.8807 68.565 58.6641C68.3639 58.5553 68.3035 58.2907 68.3637 58.0858C68.5103 57.7325 68.9038 57.5965 69.2397 57.4805L69.2611 57.4731C70.304 57.1947 71.4545 57.2374 72.4463 57.6788C72.8333 57.8393 73.0788 58.1779 73.2704 58.5341C74.427 58.4515 75.5811 58.3745 76.7394 58.3139C76.6138 57.8747 76.4487 57.4423 76.1916 57.0621C75.4542 56.0556 74.2503 55.539 73.0623 55.2818ZM54.8323 55.2282C54.9637 55.215 55.0951 55.2011 55.2265 55.1872C55.8979 55.1162 56.5695 55.0451 57.2465 55.0754C58.7656 55.1242 60.3844 55.3617 61.6141 56.3269C62.2734 56.7912 62.7006 57.5211 62.875 58.299C62.6809 58.3372 62.4841 58.3403 62.2875 58.3434C62.089 58.3466 61.8907 58.3497 61.6953 58.3889C61.521 58.4174 61.3448 58.4173 61.1688 58.4173C60.972 58.4173 60.7754 58.4173 60.5817 58.4569C60.4007 58.4884 60.2175 58.489 60.0343 58.4895C59.8295 58.4902 59.6249 58.4908 59.4236 58.5346C59.1413 58.0044 58.6419 57.6133 58.0556 57.4737C57.1084 57.2168 56.0882 57.2404 55.1548 57.542C54.8597 57.6297 54.6577 57.8675 54.4957 58.1143L54.5056 58.4597C54.5292 58.4821 54.5528 58.5051 54.5765 58.5283C54.7181 58.6668 54.8645 58.8098 55.0668 58.8499C55.8247 59.0766 56.619 59.1539 57.4059 59.1948L57.4894 59.2442C57.6233 59.2541 57.7574 59.2635 57.8915 59.273L57.8919 59.273C58.7623 59.3343 59.636 59.3959 60.4921 59.576C60.9748 59.6735 61.4414 59.8534 61.8504 60.1299C62.0388 60.3259 62.2323 60.5174 62.4287 60.7064C63.0029 61.5765 63.0437 62.7594 62.5845 63.6863C62.1832 64.5289 61.3571 65.0684 60.5057 65.3862C59.1435 65.8705 57.6777 65.964 56.2441 65.9279C56.0517 65.8656 55.8524 65.866 55.6528 65.8664C55.498 65.8667 55.3432 65.867 55.1913 65.838C54.1857 65.691 53.15 65.4973 52.2787 64.9459C52.1033 64.8412 51.9431 64.7157 51.783 64.5904L51.7829 64.5903C51.6934 64.5202 51.6038 64.4501 51.5117 64.3837C51.4448 64.2911 51.3747 64.2009 51.3046 64.1107C51.1678 63.9348 51.0312 63.759 50.9189 63.5661C50.7528 63.3016 50.6589 63.0051 50.5653 62.7095L50.5652 62.7092C50.5336 62.6097 50.5021 62.5103 50.4679 62.4122C50.7299 62.3351 50.999 62.3267 51.2683 62.3184C51.4884 62.3116 51.7086 62.3048 51.9253 62.2604C52.6357 62.2399 53.3443 62.1745 54.0507 62.0929C54.1785 62.4766 54.3757 62.8615 54.7239 63.0909C55.4211 63.5914 56.3168 63.6728 57.1505 63.6411C57.7649 63.6761 58.3805 63.5688 58.9536 63.3475C59.2139 63.1943 59.3993 62.9602 59.4617 62.6618C59.4509 62.6341 59.4404 62.6062 59.4299 62.5784C59.387 62.4651 59.3442 62.3519 59.286 62.2461C59.0082 62.0474 58.6768 61.933 58.3458 61.8604C58.1616 61.8342 57.9776 61.804 57.7936 61.7737L57.7936 61.7737L57.7936 61.7737L57.7935 61.7737L57.7935 61.7737L57.7935 61.7737L57.7934 61.7737L57.7934 61.7737L57.7934 61.7736L57.7933 61.7736L57.7933 61.7736L57.7933 61.7736C57.2797 61.6892 56.7659 61.6046 56.244 61.6083C55.9528 61.5691 55.6554 61.5392 55.3562 61.5092L55.3562 61.5092C54.1699 61.39 52.954 61.2678 51.9687 60.5495C51.6459 60.3216 51.4152 59.998 51.2384 59.6506C50.9236 58.7923 50.9722 57.7955 51.4679 57.0144C52.0225 56.2122 52.9092 55.7071 53.8399 55.4574C54.0471 55.4001 54.2573 55.3547 54.4676 55.3093C54.5893 55.283 54.7111 55.2568 54.8323 55.2282ZM18.8807 55.4213C17.7161 55.4223 16.5516 55.4227 15.3871 55.4211L15.3872 56.5023C15.3878 59.5784 15.3884 62.6545 15.3867 65.7306C15.8745 65.7309 16.3622 65.7307 16.85 65.7305C17.5268 65.7302 18.2036 65.7299 18.8805 65.7309C18.8815 65.3427 18.8812 64.9545 18.8809 64.5664C18.8805 64.0282 18.8801 63.49 18.8833 62.9519C19.2141 62.7026 19.5275 62.4322 19.8409 62.1618C20.1392 61.9044 20.4375 61.6471 20.7507 61.408C21.306 62.1496 21.8892 62.8697 22.4725 63.5899L22.4725 63.5899L22.4725 63.5899L22.4726 63.59L22.4726 63.59L22.4726 63.59L22.4726 63.59L22.4726 63.59L22.4726 63.5901L22.4727 63.5901L22.4727 63.5901C22.9739 64.209 23.4751 64.8278 23.9586 65.4603L24.0231 65.528C24.0868 65.5947 24.1505 65.6615 24.2144 65.7292C24.6989 65.7283 25.1835 65.7294 25.6681 65.7304H25.6681H25.6681H25.6681H25.6681H25.6681H25.6681H25.6681H25.6682H25.6682H25.6682C26.6387 65.7326 27.6093 65.7347 28.5796 65.7212C28.2537 65.3454 27.9324 64.9656 27.6111 64.5859C27.1415 64.0308 26.6719 63.4758 26.1879 62.9333C26.0637 62.7608 25.9169 62.6069 25.7709 62.4538L25.7709 62.4538L25.7679 62.4507C25.3802 61.964 24.9851 61.4805 24.5495 61.0359L24.5272 60.9481C24.229 60.6482 23.9594 60.3224 23.6899 59.9968L23.6899 59.9968L23.6899 59.9968L23.6899 59.9968L23.6899 59.9968L23.6899 59.9968L23.6899 59.9968L23.6899 59.9968L23.6899 59.9968L23.6899 59.9968L23.6899 59.9968C23.5585 59.8381 23.4272 59.6794 23.2927 59.5238L23.1973 59.4602C23.9733 58.8113 24.7551 58.1693 25.5369 57.5272L25.5369 57.5272L25.537 57.5272L25.537 57.5271L25.537 57.5271L25.5371 57.5271L25.5371 57.527L25.5372 57.527L25.5372 57.527L25.5372 57.5269L25.5373 57.5269C26.3858 56.83 27.2344 56.1331 28.0756 55.4275C27.2606 55.4197 26.4455 55.4208 25.6304 55.4219C24.9316 55.4228 24.2328 55.4238 23.534 55.4191C22.7096 56.1686 21.8617 56.8921 21.0137 57.6157L21.0137 57.6157L21.0137 57.6157L21.0136 57.6157L21.0136 57.6157L21.0136 57.6157L21.0136 57.6157L21.0136 57.6157L21.0136 57.6157L21.0136 57.6157L21.0136 57.6157C20.3037 58.2214 19.5937 58.8272 18.8975 59.4483C18.8739 58.6198 18.8773 57.7908 18.8808 56.9617V56.9617V56.9617V56.9617V56.9617V56.9617V56.9617V56.9617V56.9617V56.9617V56.9617C18.8829 56.4482 18.885 55.9347 18.8807 55.4213ZM78.8852 55.4219C79.2937 55.4218 79.7022 55.4219 80.1108 55.422H80.1112C80.8433 55.4221 81.5755 55.4223 82.3077 55.4213C82.3094 58.369 82.3089 61.3166 82.3085 64.2643L82.3082 65.7306C81.8503 65.7304 81.3924 65.7304 80.9345 65.7305C80.2512 65.7305 79.568 65.7305 78.8849 65.7298C78.8856 62.6958 78.8854 59.6618 78.8852 56.6279L78.8852 55.4219ZM88.527 55.4216C87.3618 55.4223 86.1969 55.4221 85.0321 55.4217C85.0328 57.7795 85.0327 60.1373 85.0326 62.4951L85.0325 65.7312C86.197 65.7301 87.3616 65.7301 88.5265 65.7312C88.526 64.8071 88.5262 63.8831 88.5266 62.9591C88.8515 62.6881 89.1724 62.4125 89.4933 62.1369C89.7758 61.8943 90.0584 61.6517 90.3437 61.4121C90.9345 62.1169 91.5051 62.8381 92.0757 63.5593L92.076 63.5596C92.5997 64.2216 93.1235 64.8836 93.6628 65.5328L93.7883 65.7318C94.3878 65.7284 94.9874 65.7296 95.5871 65.7307C96.468 65.7323 97.349 65.734 98.2298 65.7213C98.1531 65.6336 98.0757 65.5464 97.9983 65.4592L97.9981 65.459L97.9977 65.4586L97.9972 65.4579C97.7554 65.1853 97.5136 64.9128 97.2898 64.6258C96.5331 63.7643 95.7901 62.8908 95.047 62.0172L95.0469 62.0171L95.0468 62.0171L95.0468 62.017L95.0467 62.0169L95.0466 62.0168L95.0465 62.0166L95.0462 62.0163L95.0459 62.0159L95.0452 62.0151L95.0448 62.0146L95.0445 62.0143L95.0443 62.0141L95.0442 62.0139L95.044 62.0138L95.0439 62.0136L95.0437 62.0134C94.4709 61.34 93.898 60.6665 93.3189 59.9985C93.1927 59.832 93.0452 59.6839 92.8985 59.5367L92.8985 59.5366C92.8727 59.5107 92.8468 59.4848 92.8212 59.4588C93.3713 59.0035 93.9236 58.5508 94.4758 58.098C95.5505 57.217 96.6252 56.3359 97.6841 55.4365C96.7632 55.4159 95.842 55.4188 94.9208 55.4218C94.3403 55.4236 93.7598 55.4255 93.1794 55.4214C92.879 55.6994 92.5657 55.9633 92.2525 56.2271L92.2524 56.2272L92.2523 56.2273L92.2522 56.2274C92.0241 56.4196 91.796 56.6117 91.5729 56.8093C91.3199 57.0458 91.0536 57.2678 90.7873 57.4897C90.433 57.785 90.0787 58.0803 89.756 58.4099L89.6651 58.4298C89.3099 58.7837 88.9241 59.1066 88.5271 59.4122C88.5258 58.0819 88.5258 56.7518 88.527 55.4216ZM72.8102 69.1436C72.8085 69.666 72.8091 70.1885 72.8098 70.7111C72.8109 71.6426 72.812 72.5742 72.8001 73.5055C72.0679 72.8814 71.1527 72.5441 70.2302 72.3152C69.17 72.1069 68.0656 72.1018 67.0203 72.393C65.7714 72.7133 64.6723 73.5227 63.9616 74.5903C62.7387 76.5391 62.794 79.2574 64.1808 81.1118C64.2621 81.1933 64.3421 81.2767 64.4222 81.3603L64.4223 81.3604L64.4224 81.3605L64.4225 81.3606L64.4226 81.3607L64.4227 81.3608L64.4228 81.3609L64.4228 81.361C64.7349 81.6864 65.0487 82.0137 65.4456 82.2368C65.9795 82.5946 66.5876 82.82 67.2067 82.9826C69.1347 83.4046 71.334 83.0319 72.8026 81.6517C72.8079 81.9251 72.8085 82.1993 72.8092 82.4734V82.4735V82.4735V82.4736V82.4736V82.4736V82.4737V82.4744C72.8094 82.5811 72.8097 82.6877 72.8102 82.7943C73.4236 82.7947 74.0371 82.7945 74.6507 82.7943H74.6507H74.6507H74.6508H74.6508C75.1778 82.7942 75.7048 82.794 76.2317 82.7943C76.2329 78.2439 76.2324 73.6938 76.2317 69.1436C75.4477 69.1428 74.6641 69.143 73.8804 69.1433H73.8803H73.8803H73.8802H73.8801H73.8801H73.88H73.8799L72.8102 69.1436ZM70.4464 74.6843C70.1687 74.6314 69.8879 74.5779 69.6079 74.5777C69.4485 74.5776 69.2901 74.5941 69.1317 74.638C68.1378 74.7693 67.2188 75.4401 66.8792 76.3933C66.5605 77.1452 66.6033 77.9972 66.8162 78.7714C66.9829 79.2568 67.2482 79.7094 67.6149 80.0722C68.2431 80.6258 69.1174 80.8326 69.9404 80.7803C70.7913 80.7318 71.6779 80.3987 72.2131 79.7106C72.8865 78.8609 72.9871 77.6969 72.7774 76.667C72.5948 75.8917 72.01 75.2737 71.301 74.9368C71.0866 74.8623 70.8723 74.7878 70.656 74.7234C70.5864 74.711 70.5165 74.6977 70.4465 74.6843L70.4464 74.6843ZM91.4724 71.9938C91.422 71.994 91.3718 71.9963 91.3212 72.0013C91.1211 72.0728 90.9116 72.0713 90.7018 72.0697C90.529 72.0685 90.3558 72.0672 90.1874 72.1068C88.4697 72.3384 86.7159 73.0001 85.5691 74.3467C84.9015 75.0892 84.5112 76.0527 84.4076 77.0387C84.4106 77.1993 84.4077 77.3609 84.4048 77.5226V77.5227C84.3972 77.9493 84.3895 78.3773 84.4907 78.794C84.6434 79.6235 85.079 80.3748 85.6094 81.0214C86.5578 82.0683 87.9046 82.7035 89.2778 82.9776C90.3114 83.1756 91.3862 83.3009 92.4323 83.1508C93.8893 83.0874 95.3474 82.6188 96.5366 81.7697C97.5003 81.1042 98.1569 80.0681 98.4792 78.9547C98.4955 78.8419 98.5135 78.7289 98.5315 78.6157C98.6206 78.0555 98.7105 77.4901 98.6127 76.9257C98.5078 75.8025 97.9797 74.7301 97.1816 73.9349C97.0142 73.801 96.8578 73.6561 96.7079 73.5055C95.5007 72.6149 94.0167 72.1552 92.528 72.0666C92.3328 72.0793 92.1399 72.0556 91.9472 72.0319C91.7892 72.0124 91.6313 71.993 91.4724 71.9938ZM91.8681 74.5275L91.7966 74.5152L91.7243 74.5024C90.8386 74.5467 89.9121 74.6821 89.1695 75.2055C88.5035 75.6454 88.1412 76.3951 87.9702 77.1517C87.9694 77.2293 87.9673 77.3073 87.9651 77.3853C87.9561 77.7089 87.9471 78.0349 88.0357 78.3495C88.2175 79.1769 88.7844 79.9031 89.555 80.2655C89.9865 80.4464 90.4405 80.5826 90.908 80.6296C91.0612 80.628 91.2152 80.6305 91.3695 80.633C91.9041 80.6416 92.4415 80.6503 92.9564 80.4865C93.804 80.1989 94.5761 79.5954 94.8813 78.7337C95.2842 77.7237 95.1444 76.4939 94.4303 75.655C93.8325 74.9641 92.9151 74.5941 92.0115 74.5526L91.9628 74.544L91.8687 74.5277L91.8681 74.5275ZM44.8795 72.5463C45.4436 72.3508 46.0363 72.1928 46.638 72.1996L46.7341 72.1419L47.3122 72.1445C47.3117 72.672 47.3118 73.1995 47.3119 73.7271C47.312 74.2181 47.3121 74.7091 47.3117 75.2002C47.0042 75.1995 46.6968 75.1991 46.3894 75.1986H46.3889H46.3883H46.3877L45.9551 75.198C45.6237 75.1901 45.3025 75.2678 44.9822 75.3453C44.8647 75.3737 44.7473 75.4021 44.6295 75.4262C44.2163 75.5855 43.8245 75.8102 43.4996 76.1121C43.1314 76.5317 42.9675 77.1015 42.9788 77.6526C42.982 78.6 42.9816 79.5475 42.9811 80.4951V80.4966C42.9808 81.2624 42.9804 82.0282 42.982 82.7941L42.1229 82.7942H42.1229H42.1229H42.1228C41.2439 82.7943 40.3651 82.7944 39.4863 82.7937C39.4851 80.5817 39.4852 78.3697 39.4854 76.1577C39.4855 74.9327 39.4856 73.7077 39.4855 72.4827C40.1207 72.4841 40.7559 72.4839 41.3912 72.4837C41.9216 72.4835 42.452 72.4833 42.9824 72.484C42.9804 72.7115 42.9807 72.9391 42.9811 73.1666C42.9816 73.4847 42.9821 73.8028 42.9761 74.121C43.4298 73.4174 44.0834 72.8324 44.8795 72.5463ZM53.818 72.1444C54.2054 72.1427 54.5944 72.1421 54.982 72.1419C55.3696 72.1417 55.7559 72.1424 56.1435 72.1469C57.536 72.2643 59.0528 72.3992 60.1823 73.3096C60.759 73.7591 61.051 74.4518 61.1876 75.1503C61.2237 76.343 61.219 77.5369 61.2143 78.7309V78.7309V78.7309V78.7315C61.2108 79.6137 61.2073 80.496 61.2203 81.378C61.2447 81.8941 61.4524 82.3703 61.7419 82.7917C60.9685 82.7961 60.1956 82.7953 59.4226 82.7945H59.4217C58.9455 82.794 58.4692 82.7935 57.9928 82.7943C57.8698 82.447 57.7843 82.0853 57.7711 81.717C56.7683 82.3791 55.6242 82.8108 54.4352 82.9876C54.2034 82.9843 53.9719 83.0049 53.7405 83.0254L53.7405 83.0255C53.3593 83.0593 52.9787 83.0931 52.5985 83.0203C51.7881 82.9927 50.9606 82.8873 50.21 82.5657C49.3455 82.1978 48.5621 81.4931 48.3203 80.5618C48.2043 80.2943 48.2118 80.0073 48.2194 79.7214V79.7214V79.7213V79.7213C48.2225 79.6007 48.2257 79.4802 48.2196 79.3615C48.1785 78.4898 48.6098 77.6135 49.3332 77.119C49.7927 76.8725 50.2666 76.6475 50.7819 76.544C51.2166 76.4428 51.6587 76.3997 52.1011 76.3565L52.1012 76.3565L52.1013 76.3565C52.236 76.3434 52.3707 76.3302 52.5053 76.3155C52.64 76.3132 52.775 76.3136 52.91 76.314C53.3148 76.3152 53.72 76.3164 54.1203 76.2451C54.7486 76.2283 55.3768 76.2386 56.0052 76.249C56.6021 76.2588 57.1991 76.2687 57.7963 76.2552C57.8268 75.7284 57.6539 75.1136 57.1387 74.8715C56.2792 74.4675 55.3158 74.487 54.382 74.506L54.3816 74.506C54.2586 74.5085 54.1362 74.5109 54.0145 74.5124C53.5949 74.5773 53.1814 74.6634 52.7799 74.8037C52.5394 74.9622 52.3453 75.1747 52.1626 75.3939C51.0043 75.4222 49.8424 75.4121 48.6832 75.3989C48.8832 74.4388 49.3676 73.4655 50.273 72.9932C51.3433 72.3654 52.6072 72.2511 53.818 72.1444ZM56.786 78.0607C57.1043 78.0615 57.423 78.0646 57.7415 78.0676L57.8039 78.0683C57.7952 78.1565 57.7859 78.2455 57.7766 78.3345L57.7635 78.46C57.6567 79.0477 57.3064 79.5793 56.8086 79.9114C56.3299 80.2889 55.7425 80.4752 55.1693 80.657L55.113 80.6748C54.1952 80.8123 53.1905 80.8722 52.3541 80.3986C51.6764 80.0815 51.6703 79.0069 52.2584 78.5956C52.6615 78.3092 53.1546 78.2285 53.6326 78.1504L53.7348 78.1335C54.7499 78.0737 55.7685 78.0583 56.786 78.0607ZM82.3801 72.3485L78.9571 72.3486C78.9567 73.962 78.9568 75.5754 78.9569 77.1888C78.9569 79.0573 78.957 80.9258 78.9565 82.7944C80.0973 82.7942 81.2382 82.794 82.3792 82.7943C82.3797 81.2272 82.3796 79.6601 82.3795 78.0931C82.3793 76.1782 82.3792 74.2634 82.3801 72.3485Z" fill="white"/>
</svg>
