<svg width="215" height="100" viewBox="0 0 215 100" fill="none" xmlns="http://www.w3.org/2000/svg">
<path fill-rule="evenodd" clip-rule="evenodd" d="M0 36.8173C0 35.876 0.32447 35.06 0.973411 34.3693C1.62172 33.6785 2.40981 33.3335 3.33705 33.3335H6.58112V46.7984L19.1874 33.3335H27.5288L14.6448 46.6095L28.6413 66.1014H20.577L12.421 54.5197C10.9991 52.5735 9.67086 51.8205 8.43497 52.26C7.19907 52.6994 6.58112 53.4833 6.58112 54.6142V66.1014H0V36.8173Z" fill="white"/>
<path fill-rule="evenodd" clip-rule="evenodd" d="M34.2956 53.483C34.3576 58.4421 35.9951 60.9222 39.2082 60.9222C42.4213 60.9222 44.0595 58.3797 44.1208 53.2947C44.1208 48.3357 42.5143 45.8561 39.3012 45.8561C35.9641 45.8561 34.2956 48.398 34.2956 53.483ZM50.7019 53.4817C50.7019 62.2703 46.9012 66.6646 39.3011 66.6646C31.7004 66.6646 27.9004 62.2703 27.9004 53.4817C27.9004 44.6308 31.7004 40.2051 39.3011 40.2051C46.9012 40.2051 50.7019 44.6308 50.7019 53.4817Z" fill="white"/>
<path fill-rule="evenodd" clip-rule="evenodd" d="M53.7622 33.3335H61.0852L67.944 57.8153L74.2469 35.7815C74.6175 34.1495 75.6984 33.3335 77.4909 33.3335H82.2182L71.1881 66.1014H64.8846L53.7622 33.3335Z" fill="white"/>
<path fill-rule="evenodd" clip-rule="evenodd" d="M104.651 55.9327C104.651 60.3269 103.539 63.2145 101.314 64.5953C99.0896 65.9138 96.6178 66.573 93.8987 66.573C91.3036 66.573 88.9248 65.8508 86.7623 64.407C84.5991 63.0262 83.5176 60.2017 83.5176 55.9327V40.5845H89.8204V57.2511C89.8204 60.0757 91.2423 61.4886 94.0841 61.4886C96.9271 61.4886 98.3477 60.0757 98.3477 57.2511V43.7862C98.2864 41.6517 99.3059 40.5845 101.407 40.5845H104.651V55.9327Z" fill="white"/>
<path fill-rule="evenodd" clip-rule="evenodd" d="M123.283 50.5638C122.911 47.1738 121.367 45.4788 118.648 45.4788C115.929 45.4788 114.323 47.1738 113.828 50.5638H123.283ZM129.585 58.286C128.843 61.1735 127.607 63.2765 125.877 64.5944C123.838 65.9758 121.428 66.6665 118.647 66.6665C111.047 66.4153 107.247 61.9581 107.247 53.2954C107.247 44.6322 111.078 40.2694 118.74 40.207C126.712 40.207 130.45 45.1976 129.956 55.1781H113.735C113.982 59.0705 115.651 61.0168 118.74 61.0168C120.224 61.0168 121.583 60.4205 122.819 59.2273C123.375 58.5995 124.086 58.286 124.951 58.286H129.585Z" fill="white"/>
</svg>
