<svg width="258" height="120" viewBox="0 0 258 120" fill="none" xmlns="http://www.w3.org/2000/svg">
<path fill-rule="evenodd" clip-rule="evenodd" d="M0 44.1807C0 43.0512 0.389365 42.0719 1.16809 41.2431C1.94606 40.4142 2.89177 40.0002 4.00446 40.0002H7.89735V56.1581L23.0249 40.0002H33.0345L17.5738 55.9314L34.3696 79.3216H24.6924L14.9051 65.4236C13.1989 63.0882 11.605 62.1845 10.122 62.7119C8.63888 63.2393 7.89735 64.18 7.89735 65.537V79.3216H0V44.1807Z" fill="#3E3E40"/>
<path fill-rule="evenodd" clip-rule="evenodd" d="M41.1547 64.1796C41.2291 70.1305 43.1942 73.1067 47.0499 73.1067C50.9056 73.1067 52.8714 70.0557 52.945 63.9537C52.945 58.0028 51.0171 55.0273 47.1614 55.0273C43.157 55.0273 41.1547 58.0776 41.1547 64.1796ZM60.8422 64.1781C60.8422 74.7244 56.2814 79.9975 47.1614 79.9975C38.0405 79.9975 33.4805 74.7244 33.4805 64.1781C33.4805 53.557 38.0405 48.2461 47.1614 48.2461C56.2814 48.2461 60.8422 53.557 60.8422 64.1781Z" fill="#3E3E40"/>
<path fill-rule="evenodd" clip-rule="evenodd" d="M64.5146 40H73.3023L81.5328 69.3782L89.0962 42.9377C89.541 40.9792 90.8381 40 92.9891 40H98.6618L85.4257 79.3215H77.8616L64.5146 40Z" fill="#3E3E40"/>
<path fill-rule="evenodd" clip-rule="evenodd" d="M125.581 67.119C125.581 72.3921 124.247 75.8572 121.577 77.5142C118.907 79.0963 115.941 79.8874 112.678 79.8874C109.564 79.8874 106.709 79.0208 104.114 77.2882C101.519 75.6313 100.221 72.2418 100.221 67.119V48.7012H107.784V68.7012C107.784 72.0907 109.49 73.7862 112.9 73.7862C116.312 73.7862 118.017 72.0907 118.017 68.7012V52.5433C117.943 49.9819 119.167 48.7012 121.688 48.7012H125.581V67.119Z" fill="#3E3E40"/>
<path fill-rule="evenodd" clip-rule="evenodd" d="M147.939 60.6762C147.494 56.6082 145.64 54.5742 142.378 54.5742C139.115 54.5742 137.188 56.6082 136.594 60.6762H147.939ZM155.502 69.9428C154.612 73.4078 153.129 75.9315 151.053 77.5129C148.606 79.1706 145.714 79.9995 142.377 79.9995C133.256 79.698 128.696 74.3493 128.696 63.9541C128.696 53.5582 133.294 48.3228 142.489 48.248C152.054 48.248 156.541 54.2367 155.948 66.2133H136.482C136.779 70.8842 138.781 73.2197 142.489 73.2197C144.269 73.2197 145.9 72.5042 147.383 71.0724C148.05 70.3191 148.903 69.9428 149.941 69.9428H155.502Z" fill="#3E3E40"/>
</svg>
