<svg width="258" height="120" viewBox="0 0 258 120" fill="none" xmlns="http://www.w3.org/2000/svg">
<path fill-rule="evenodd" clip-rule="evenodd" d="M34.3894 83.1679C34.0095 82.7897 33.4823 82.8534 33.0225 82.7298C28.1373 81.4186 24.9276 76.8203 25.2313 71.5426C25.5014 66.846 29.3989 62.6262 34.1411 61.8956C39.8876 61.0105 45.3783 64.8653 46.3308 70.4534C47.3494 76.4296 43.5988 81.859 37.7021 82.9448C37.5059 82.9808 37.263 82.906 37.1592 83.1679H36.7331C36.1651 82.9889 35.5968 82.9889 35.0286 83.1679H34.3894Z" fill="#494D9F"/>
<mask id="mask0_1060_45652" style="mask-type:alpha" maskUnits="userSpaceOnUse" x="8" y="38" width="30" height="29">
<path fill-rule="evenodd" clip-rule="evenodd" d="M8.81152 38H37.4327V66.6669H8.81152V38Z" fill="white"/>
</mask>
<g mask="url(#mask0_1060_45652)">
<path fill-rule="evenodd" clip-rule="evenodd" d="M8.81227 50.0454C8.83955 49.4565 9.19196 49.0749 9.6426 48.7591C14.5504 45.3187 19.4529 41.8713 24.3709 38.446C25.3826 37.7414 25.9579 37.8566 26.6944 38.8992C30.1523 43.7942 33.5955 48.6999 37.0306 53.6107C37.7077 54.5787 37.5396 55.2594 36.45 56.0288C33.2927 58.2588 30.124 60.4728 26.9584 62.6914C25.3321 63.8311 23.7083 64.9747 22.073 66.1018C20.8133 66.9703 20.2389 66.8657 19.3466 65.5936C16.6794 61.7899 14.0229 57.9786 11.3631 54.1696C10.6523 53.152 9.94643 52.1309 9.23415 51.1144C9.00744 50.7907 8.79736 50.4649 8.81227 50.0454Z" fill="#494D9F"/>
</g>
<path fill-rule="evenodd" clip-rule="evenodd" d="M26.1118 82.9776C17.5733 82.9731 9.0346 82.9691 0.495889 82.9646C-0.320162 82.4307 0.0326787 81.836 0.409809 81.2441C3.32394 76.6725 6.23957 72.102 9.15391 67.5306C10.2016 65.8874 11.2371 64.2363 12.2965 62.6006C13.0192 61.4848 13.626 61.4939 14.3528 62.6317C18.319 68.8435 22.2785 75.0598 26.2386 81.2758C26.617 81.8701 26.9732 82.4716 26.1118 82.9776Z" fill="#494D9F"/>
<path fill-rule="evenodd" clip-rule="evenodd" d="M127.365 66.7414C128.48 63.7346 129.591 60.8264 130.628 57.8922C130.965 56.9377 131.518 56.5111 132.513 56.5584C133.256 56.5936 134.005 56.5962 134.748 56.5561C135.409 56.5205 135.431 56.7355 135.198 57.2814C132.392 63.8547 129.607 70.4366 126.814 77.0155C126.525 77.6965 126.054 78.0888 125.262 78.0649C124.271 78.0349 123.277 78.0574 122.11 78.0574C122.75 76.6765 123.219 75.3012 123.977 74.1097C125.128 72.302 124.95 70.7038 124.043 68.8286C122.242 65.1044 120.695 61.2579 119.01 57.477C118.682 56.7413 118.754 56.4832 119.613 56.5523C120.389 56.6145 121.175 56.603 121.953 56.5559C122.951 56.4956 123.518 56.923 123.874 57.8547C124.993 60.7898 126.167 63.7041 127.365 66.7414Z" fill="#494D9F"/>
<path fill-rule="evenodd" clip-rule="evenodd" d="M61.4582 61.1167C61.4582 57.4956 61.4784 53.8745 61.4411 50.2538C61.4337 49.52 61.6095 49.2417 62.3746 49.3054C63.1853 49.3732 64.0116 49.3781 64.8215 49.3046C65.6384 49.2302 65.8291 49.5245 65.8231 50.3128C65.7875 55.2471 65.8052 60.1817 65.8052 65.1164C65.8052 67.3885 65.7794 69.6611 65.8205 71.9324C65.8331 72.6321 65.6215 72.8644 64.9252 72.8213C64.0412 72.7666 63.1485 72.7655 62.2644 72.822C61.5918 72.865 61.4382 72.6226 61.4437 71.9797C61.4737 68.3591 61.4582 64.7378 61.4582 61.1167Z" fill="#494D9F"/>
<path fill-rule="evenodd" clip-rule="evenodd" d="M96.197 68.2995C95.2702 70.0819 92.3077 70.3107 90.9353 68.8382C90.6905 68.5755 90.649 68.2946 90.6517 67.9667C90.66 66.9725 90.6547 65.9782 90.6547 64.984C90.6547 64.1319 90.6541 63.2797 90.6547 62.4274C90.656 61.1684 91.5355 60.1476 92.932 59.7834C94.4544 59.3867 95.8174 59.7894 96.3415 61.0071C97.3855 63.4337 97.4279 65.9321 96.197 68.2995ZM100.241 59.1154C99.2394 57.1531 97.5189 56.2196 95.2681 56.2914C93.3345 56.353 91.8255 57.2481 90.5026 58.6271C90.4071 58.4424 90.3221 58.3262 90.284 58.1965C89.8076 56.5672 89.8093 56.5665 88.0949 56.5652C87.8467 56.565 87.5921 56.6004 87.3507 56.5588C86.4713 56.4076 86.3169 56.8201 86.3213 57.6182C86.3533 63.2954 86.3356 68.9728 86.3409 74.6505C86.3422 75.7452 85.9478 77.2567 86.5044 77.8299C87.2036 78.5503 88.716 77.9517 89.8683 78.0711C90.5684 78.1437 90.6813 77.8503 90.6683 77.2309C90.63 75.4286 90.6547 73.625 90.6547 71.6735C94.2121 74.2735 98.6441 72.9142 100.328 69.5385C102.054 66.0781 101.989 62.5429 100.241 59.1154Z" fill="#494D9F"/>
<path fill-rule="evenodd" clip-rule="evenodd" d="M79.2889 62.7706C77.2117 62.7662 75.1343 62.7683 73.045 62.7683C73.4121 60.2694 74.9547 59.0822 77.2273 59.4681C78.6188 59.7044 79.6239 60.8379 79.7159 62.2348C79.7389 62.5833 79.675 62.7715 79.2889 62.7706ZM79.0957 56.7468C73.9431 55.0294 69.0267 58.2564 68.6298 63.7335C68.3786 67.1958 69.3007 70.3322 72.6005 72.031C75.9796 73.7701 79.3791 73.4123 82.5468 71.2518C83.287 70.7471 83.5927 70.2826 82.8182 69.4501C81.7071 68.255 81.5711 68.16 80.1316 68.8816C79.6586 69.1186 79.179 69.3615 78.6764 69.517C75.8733 70.3857 73.6495 69.1113 73.032 66.3406C72.8747 65.6353 72.9515 65.3068 73.8012 65.3462C75.2166 65.4118 76.6371 65.3641 78.0555 65.3635C79.5093 65.3628 80.963 65.3573 82.417 65.3656C83.004 65.3688 83.4393 65.2318 83.5853 64.5596C84.2675 61.4204 82.1828 57.7755 79.0957 56.7468Z" fill="#494D9F"/>
<path fill-rule="evenodd" clip-rule="evenodd" d="M111.338 69.6674C110.233 70.1947 109.031 70.4871 107.901 69.7403C107.006 69.1484 107.14 67.6831 108.148 67.0383C109.447 66.2072 110.954 66.0546 112.431 66.1204C113.202 66.1547 112.583 66.9949 112.785 67.3888C113.127 68.6909 112.233 69.2398 111.338 69.6674ZM117.045 67.0153H117.036C117.036 65.4544 117.095 63.8907 117.023 62.3329C116.901 59.7197 115.836 57.5779 113.247 56.7182C110.017 55.6458 107.034 56.4567 104.355 58.489C104.055 58.717 104.019 58.9239 104.187 59.2946C104.988 61.0665 105.791 61.3748 107.508 60.4443C108.534 59.8884 109.595 59.5688 110.768 59.7109C112.124 59.8754 112.841 60.9252 112.794 62.7141C112.755 64.2101 111.57 63.4324 110.957 63.5167C108.869 63.8035 106.813 64.1285 105.028 65.3364C103.479 66.3846 102.877 68.0116 103.297 69.7914C103.718 71.5756 104.972 72.6829 106.855 72.967C109.009 73.2919 110.942 72.8112 112.607 71.393C113.09 70.9816 113.335 70.9356 113.491 71.6457C113.678 72.4995 114.27 72.8572 115.134 72.8095C115.523 72.7882 115.918 72.7731 116.304 72.8157C116.941 72.8864 117.066 72.5873 117.056 72.0171C117.025 70.3503 117.045 68.6826 117.045 67.0153Z" fill="#494D9F"/>
<path fill-rule="evenodd" clip-rule="evenodd" d="M144.282 69.638C143.177 70.1792 141.98 70.4811 140.833 69.7695C139.925 69.2065 140.02 67.7008 141.002 67.0595C142.299 66.2123 143.81 66.0561 145.291 66.1228C146.054 66.1571 145.461 67.0009 145.655 67.4065C145.971 68.6428 145.157 69.2104 144.282 69.638ZM149.902 66.9651H149.881C149.881 65.298 149.956 63.6269 149.863 61.9652C149.732 59.6368 148.646 57.856 146.491 56.8243C143.998 55.6305 139.292 56.5088 137.197 58.5114C136.893 58.8022 136.93 58.9891 137.087 59.3168C137.942 61.1083 138.661 61.371 140.414 60.4294C141.476 59.859 142.578 59.5431 143.784 59.7274C145.093 59.9281 145.817 61.0923 145.65 62.8424C145.53 64.1012 144.478 63.4443 143.89 63.5193C141.764 63.7908 139.675 64.1221 137.868 65.3726C136.297 66.4603 135.761 68.024 136.232 69.9444C136.632 71.5801 137.9 72.6747 139.691 72.9589C141.841 73.3002 143.786 72.8404 145.45 71.4246C145.98 70.9731 146.239 70.9445 146.397 71.6711C146.578 72.4978 147.126 72.8319 147.945 72.8044C148.37 72.7901 148.8 72.7716 149.221 72.8159C149.818 72.8788 149.918 72.5879 149.91 72.0725C149.887 70.3703 149.902 68.6675 149.902 66.9651Z" fill="#494D9F"/>
</svg>
