<svg width="215" height="100" viewBox="0 0 215 100" fill="none" xmlns="http://www.w3.org/2000/svg">
<path fill-rule="evenodd" clip-rule="evenodd" d="M28.6576 69.3067C28.341 68.9916 27.9017 69.0446 27.5185 68.9417C23.4475 67.849 20.7728 64.0171 21.0258 59.619C21.2509 55.7052 24.4988 52.1886 28.4507 51.5798C33.2394 50.8422 37.815 54.0546 38.6087 58.7114C39.4576 63.6915 36.3321 68.216 31.4182 69.1208C31.2547 69.1508 31.0523 69.0885 30.9658 69.3067H30.6107C30.1373 69.1576 29.6638 69.1576 29.1902 69.3067H28.6576Z" fill="white"/>
<mask id="mask0_1039_20353" style="mask-type:alpha" maskUnits="userSpaceOnUse" x="7" y="31" width="25" height="25">
<path fill-rule="evenodd" clip-rule="evenodd" d="M7.34326 31.6667H31.1942V55.5558H7.34326V31.6667Z" fill="white"/>
</mask>
<g mask="url(#mask0_1039_20353)">
<path fill-rule="evenodd" clip-rule="evenodd" d="M7.34389 41.7046C7.36661 41.2138 7.66029 40.8958 8.03583 40.6327C12.1257 37.7657 16.2111 34.8928 20.3094 32.0384C21.1525 31.4512 21.6319 31.5473 22.2457 32.4161C25.1273 36.4953 27.9966 40.5833 30.8592 44.6757C31.4234 45.4823 31.2833 46.0496 30.3753 46.6907C27.7443 48.5491 25.1037 50.394 22.4657 52.2429C21.1104 53.1927 19.7572 54.1456 18.3945 55.0849C17.3448 55.8086 16.8661 55.7215 16.1225 54.6614C13.8998 51.4917 11.686 48.3156 9.4696 45.1414C8.87727 44.2934 8.28902 43.4425 7.69545 42.5954C7.50653 42.3257 7.33146 42.0542 7.34389 41.7046Z" fill="white"/>
</g>
<path fill-rule="evenodd" clip-rule="evenodd" d="M21.7598 69.1483C14.6444 69.1445 7.52883 69.1411 0.413241 69.1374C-0.266802 68.6925 0.0272322 68.1969 0.341508 67.7036C2.76995 63.894 5.19964 60.0852 7.62826 56.2757C8.50131 54.9064 9.36423 53.5305 10.247 52.1674C10.8493 51.2376 11.355 51.2452 11.9606 52.1933C15.2659 57.3698 18.5654 62.5501 21.8655 67.7301C22.1808 68.2253 22.4777 68.7266 21.7598 69.1483Z" fill="white"/>
<path fill-rule="evenodd" clip-rule="evenodd" d="M106.138 55.6181C107.067 53.1124 107.993 50.6889 108.857 48.2438C109.138 47.4483 109.599 47.0929 110.428 47.1323C111.047 47.1616 111.671 47.1637 112.29 47.1303C112.841 47.1007 112.859 47.2798 112.665 47.7347C110.327 53.2125 108.006 58.6974 105.679 64.1799C105.438 64.7473 105.045 65.0742 104.385 65.0543C103.559 65.0293 102.731 65.0481 101.759 65.0481C102.292 63.8974 102.682 62.7512 103.314 61.7583C104.273 60.252 104.125 58.9201 103.369 57.3574C101.868 54.2539 100.58 51.0485 99.1751 47.8977C98.9018 47.2846 98.9617 47.0696 99.6776 47.1271C100.324 47.179 100.98 47.1694 101.628 47.1301C102.46 47.0799 102.932 47.4361 103.228 48.2125C104.161 50.6584 105.14 53.087 106.138 55.6181Z" fill="white"/>
<path fill-rule="evenodd" clip-rule="evenodd" d="M51.2151 50.9308C51.2151 47.9132 51.2319 44.8956 51.2009 41.8784C51.1947 41.2669 51.3411 41.035 51.9787 41.0881C52.6544 41.1446 53.3429 41.1487 54.0178 41.0874C54.6986 41.0254 54.8575 41.2706 54.8525 41.9276C54.8229 46.0395 54.8376 50.1517 54.8376 54.2639C54.8376 56.1574 54.8161 58.0512 54.8504 59.9439C54.8609 60.527 54.6845 60.7206 54.1043 60.6847C53.3676 60.6391 52.6236 60.6382 51.887 60.6852C51.3264 60.7211 51.1984 60.519 51.203 59.9834C51.228 56.9661 51.2151 53.9484 51.2151 50.9308Z" fill="white"/>
<path fill-rule="evenodd" clip-rule="evenodd" d="M80.1643 56.9164C79.3919 58.4017 76.9232 58.5924 75.7795 57.3653C75.5755 57.1464 75.5409 56.9124 75.5432 56.6391C75.5501 55.8106 75.5457 54.982 75.5457 54.1535C75.5457 53.4434 75.5451 52.7332 75.5457 52.023C75.5467 50.9738 76.2797 50.1231 77.4434 49.8197C78.712 49.4891 79.8479 49.8247 80.2847 50.8394C81.1547 52.8616 81.19 54.9436 80.1643 56.9164ZM83.534 49.263C82.6996 47.6277 81.2658 46.8499 79.3901 46.9097C77.7788 46.961 76.5213 47.7069 75.4189 48.8561C75.3394 48.7021 75.2685 48.6054 75.2367 48.4972C74.8397 47.1395 74.8411 47.1389 73.4125 47.1379C73.2057 47.1377 72.9935 47.1672 72.7923 47.1325C72.0595 47.0065 71.9308 47.3502 71.9345 48.0153C71.9612 52.7463 71.9464 57.4775 71.9509 62.2089C71.9519 63.1212 71.6233 64.3808 72.087 64.8584C72.6698 65.4587 73.9301 64.9599 74.8903 65.0594C75.4738 65.1199 75.5679 64.8754 75.557 64.3593C75.5251 62.8573 75.5457 61.3543 75.5457 59.7281C78.5102 61.8948 82.2035 60.762 83.6069 57.9489C85.0453 55.0652 84.991 52.1192 83.534 49.263Z" fill="white"/>
<path fill-rule="evenodd" clip-rule="evenodd" d="M66.0743 52.3089C64.3433 52.3052 62.6121 52.307 60.871 52.307C61.1769 50.2246 62.4624 49.2353 64.3563 49.5568C65.5159 49.7537 66.3534 50.6983 66.4301 51.8624C66.4493 52.1529 66.396 52.3097 66.0743 52.3089ZM65.9132 47.2891C61.6194 45.8579 57.5224 48.547 57.1917 53.1113C56.9823 55.9966 57.7508 58.6103 60.5006 60.0259C63.3165 61.4751 66.1494 61.177 68.7891 59.3766C69.406 58.956 69.6608 58.5689 69.0153 57.8752C68.0894 56.8793 67.9761 56.8001 66.7765 57.4015C66.3823 57.5989 65.9827 57.8013 65.5638 57.9309C63.2279 58.6548 61.3747 57.5929 60.8602 55.2839C60.7291 54.6962 60.793 54.4224 61.5011 54.4553C62.6806 54.5099 63.8644 54.4702 65.0464 54.4696C66.2579 54.4691 67.4694 54.4645 68.681 54.4714C69.1702 54.4741 69.5329 54.3599 69.6545 53.7997C70.2231 51.1838 68.4859 48.1463 65.9132 47.2891Z" fill="white"/>
<path fill-rule="evenodd" clip-rule="evenodd" d="M92.7813 58.0563C91.8608 58.4958 90.8587 58.7394 89.9173 58.117C89.1714 57.6238 89.2832 56.4027 90.1229 55.8654C91.2058 55.1728 92.4613 55.0457 93.6921 55.1005C94.3344 55.1291 93.8191 55.8292 93.9869 56.1575C94.2719 57.2426 93.5275 57.7 92.7813 58.0563ZM97.537 55.8463H97.5299C97.5299 54.5455 97.5792 53.2424 97.5188 51.9443C97.4169 49.7665 96.5295 47.9817 94.372 47.2653C91.6806 46.3717 89.1946 47.0474 86.9626 48.741C86.7118 48.931 86.6824 49.1034 86.8223 49.4123C87.4901 50.8889 88.1589 51.1458 89.5899 50.3704C90.4446 49.9072 91.3289 49.6408 92.3065 49.7593C93.4363 49.8963 94.0336 50.7712 93.9947 52.2619C93.962 53.5086 92.975 52.8605 92.4636 52.9308C90.7237 53.1698 89.0101 53.4406 87.5229 54.4471C86.2324 55.3207 85.7305 56.6765 86.0806 58.1597C86.4313 59.6465 87.4764 60.5693 89.0455 60.806C90.8402 61.0767 92.4514 60.6762 93.8386 59.4944C94.241 59.1515 94.4457 59.1131 94.5755 59.7049C94.7317 60.4164 95.225 60.7145 95.9446 60.6748C96.269 60.657 96.598 60.6444 96.9194 60.6799C97.4505 60.7389 97.5549 60.4896 97.5462 60.0144C97.5204 58.6254 97.537 57.2357 97.537 55.8463Z" fill="white"/>
<path fill-rule="evenodd" clip-rule="evenodd" d="M120.235 58.0318C119.314 58.4828 118.317 58.7344 117.361 58.1414C116.604 57.6723 116.683 56.4175 117.501 55.883C118.583 55.1771 119.842 55.0469 121.076 55.1025C121.711 55.1311 121.218 55.8342 121.379 56.1723C121.643 57.2025 120.964 57.6755 120.235 58.0318ZM124.918 55.8044H124.901C124.901 54.4152 124.964 53.0226 124.886 51.6378C124.776 49.6975 123.872 48.2135 122.076 47.3538C119.998 46.3589 116.077 47.0908 114.331 48.7596C114.077 49.002 114.108 49.1577 114.239 49.4308C114.952 50.9237 115.551 51.1426 117.012 50.358C117.897 49.8827 118.815 49.6194 119.82 49.773C120.911 49.9402 121.515 50.9104 121.375 52.3688C121.275 53.4178 120.398 52.8704 119.908 52.9329C118.137 53.1591 116.396 53.4352 114.89 54.4773C113.581 55.3838 113.134 56.6868 113.526 58.2872C113.86 59.6503 114.917 60.5624 116.409 60.7992C118.201 61.0837 119.822 60.7005 121.208 59.5207C121.65 59.1444 121.866 59.1206 121.998 59.7261C122.148 60.415 122.605 60.6934 123.287 60.6705C123.642 60.6586 124 60.6432 124.351 60.6801C124.849 60.7325 124.931 60.4901 124.925 60.0606C124.906 58.6421 124.918 57.2231 124.918 55.8044Z" fill="white"/>
</svg>
