<svg width="500" height="396" viewBox="0 0 500 396" fill="none" xmlns="http://www.w3.org/2000/svg">
<g filter="url(#filter0_d_988_805)">
<path d="M353.031 135.3V129.945" stroke="#FFA100" stroke-width="1.5" stroke-miterlimit="10"/>
<path d="M353.031 123.799V109.227" stroke="#FFA100" stroke-width="1.5" stroke-miterlimit="10"/>
<path d="M353.034 129.946C354.73 129.946 356.106 128.57 356.106 126.873C356.106 125.176 354.73 123.801 353.034 123.801C351.337 123.801 349.961 125.176 349.961 126.873C349.961 128.57 351.337 129.946 353.034 129.946Z" stroke="#FFA100" stroke-width="1.29" stroke-miterlimit="10"/>
<path d="M362.518 119.325C364.215 119.325 365.591 117.949 365.591 116.252C365.591 114.555 364.215 113.18 362.518 113.18C360.821 113.18 359.445 114.555 359.445 116.252C359.445 117.949 360.821 119.325 362.518 119.325Z" stroke="#FFA100" stroke-width="1.29" stroke-miterlimit="10"/>
<path d="M371.992 135.303V126.875" stroke="#FFA100" stroke-width="1.5" stroke-miterlimit="10"/>
<path d="M371.992 120.639V109.227" stroke="#FFA100" stroke-width="1.5" stroke-miterlimit="10"/>
<path d="M371.994 126.872C373.691 126.872 375.067 125.496 375.067 123.799C375.067 122.102 373.691 120.727 371.994 120.727C370.298 120.727 368.922 122.102 368.922 123.799C368.922 125.496 370.298 126.872 371.994 126.872Z" stroke="#FFA100" stroke-width="1.29" stroke-miterlimit="10"/>
<path d="M217.402 69.9023H303.611C313.97 69.9023 322.31 78.2423 322.31 88.6013V301.225C322.31 311.584 313.97 319.924 303.611 319.924H217.402C207.043 319.924 198.703 311.584 198.703 301.225V88.6013C198.703 78.2423 207.043 69.9023 217.402 69.9023Z" fill="white"/>
<path d="M313.531 90.886V300.525C313.531 307.373 308.001 312.816 301.241 312.816H219.861C213.013 312.816 207.57 307.285 207.57 300.525V90.886C207.57 84.0385 213.101 78.5956 219.861 78.5956H231.185V81.6682C231.185 84.4774 233.468 86.7599 236.277 86.7599H284.912C287.721 86.7599 290.004 84.4774 290.004 81.6682V78.5078H301.241C308.001 78.5078 313.531 84.0385 313.531 90.886Z" fill="#E9F2FF"/>
<path d="M368.75 206.234V247.407" stroke="#FDAD31" stroke-width="1.5" stroke-miterlimit="10"/>
<path d="M216.082 166.996H247.773C248.915 166.996 249.792 167.874 249.792 169.015C249.792 170.156 248.915 171.034 247.773 171.034H216.082C214.94 171.034 214.062 170.156 214.062 169.015C214.063 167.874 214.94 166.996 216.082 166.996Z" fill="white"/>
<path d="M255.238 166.996H289.651C290.792 166.996 291.67 167.874 291.67 169.015C291.67 170.156 290.792 171.034 289.651 171.034H255.238C254.097 171.034 253.219 170.156 253.219 169.015C253.219 167.874 254.097 166.996 255.238 166.996Z" fill="white"/>
<path d="M216.082 182.27H291.668C292.809 182.27 293.687 183.147 293.687 184.289C293.687 185.43 292.809 186.308 291.668 186.308H216.082C214.94 186.308 214.062 185.43 214.062 184.289C214.063 183.147 214.94 182.27 216.082 182.27Z" fill="white"/>
<path d="M299.738 182.27H338.54C339.682 182.27 340.56 183.147 340.56 184.289C340.56 185.43 339.682 186.308 338.54 186.308H299.738C298.597 186.308 297.719 185.43 297.719 184.289C297.719 183.147 298.597 182.27 299.738 182.27Z" fill="white"/>
<path d="M321.082 166.996H343.029C344.17 166.996 345.048 167.874 345.048 169.015C345.048 170.156 344.17 171.034 343.029 171.034H321.082C319.94 171.034 319.062 170.156 319.062 169.015C319.062 167.874 320.028 166.996 321.082 166.996Z" fill="white"/>
<path d="M297.55 166.996H313.528C314.669 166.996 315.547 167.874 315.547 169.015C315.547 170.156 314.669 171.034 313.528 171.034H297.55C296.409 171.034 295.531 170.156 295.531 169.015C295.531 167.874 296.409 166.996 297.55 166.996Z" fill="white"/>
<path d="M216.082 174.633H263.575C264.717 174.633 265.594 175.511 265.594 176.652C265.594 177.793 264.717 178.671 263.575 178.671H216.082C214.94 178.671 214.062 177.793 214.062 176.652C214.063 175.511 214.94 174.633 216.082 174.633Z" fill="white"/>
<path d="M271.3 174.633H333.279C334.42 174.633 335.298 175.511 335.298 176.652C335.298 177.793 334.42 178.671 333.279 178.671H271.3C270.159 178.671 269.281 177.793 269.281 176.652C269.281 175.511 270.159 174.633 271.3 174.633Z" fill="white"/>
<path d="M381.744 273.131L390.874 267.425L383.06 254.783L369.453 253.203L381.744 273.131Z" fill="#E9F2FF"/>
<path d="M399.653 293.5C397.371 294.904 395.001 294.904 392.718 293.412C392.718 293.412 390.611 292.271 390.172 288.408C389.997 286.476 389.206 286.125 388.329 285.423L386.748 284.37C386.046 283.843 385.519 282.965 385.344 282.087L384.905 280.156C384.641 278.927 383.939 277.873 382.973 277.171L381.832 276.293C381.042 275.678 380.34 274.537 380.34 273.835C380.164 271.728 379.55 270.411 379.286 269.884C379.199 269.709 379.286 269.533 379.374 269.445L384.115 266.461L388.68 263.651C388.855 263.564 389.031 263.564 389.119 263.739L401.321 283.404C403.428 286.652 402.726 291.041 399.653 293.5Z" fill="#55C9EF"/>
<path d="M146.468 144.611C142.781 148.649 136.987 154.794 133.476 158.92C126.189 167.348 118.991 175.863 112.319 184.818C101.608 199.039 85.9821 217.651 86.2455 236.525C86.2455 237.491 86.6844 238.544 87.8257 240.037C90.7227 243.812 100.555 253.732 100.555 253.732L101.521 253.117C101.521 253.03 97.8336 245.831 106.525 225.727C108.719 220.548 119.078 204.219 130.93 189.295C143.659 173.23 150.77 165.329 158.671 156.989C158.671 156.813 147.873 143.03 146.468 144.611Z" fill="#E9F2FF"/>
<path d="M189.312 196.139C186.942 189.379 184.572 185.253 182.64 182.883C176.671 175.509 156.479 190.081 147.964 197.368C136.024 207.376 128.562 215.277 122.593 221.685C115.57 229.06 110.917 235.293 102.665 238.716C90.55 243.72 88.1797 240.472 88.1797 240.472C88.1797 240.472 100.821 256.186 104.245 256.186C107.581 256.186 111.356 255.572 116.535 251.534C125.49 244.686 155.426 210.712 167.892 203.162C173.774 199.65 178.953 199.299 179.041 199.299C182.201 198.948 190.015 197.895 189.312 196.139Z" fill="#FDAD31"/>
<path d="M366.287 324.489C335.561 312.813 291.052 305.702 265.33 305.702C224.157 305.702 199.225 313.428 173.328 319.134C165.953 320.714 159.545 322.119 154.19 323.172C136.456 326.684 127.151 322.031 125.571 319.31C123.2 315.096 119.952 308.951 118.635 306.58C116.177 301.928 115.826 301.401 115.124 300.084C114.685 299.294 114.07 297.538 114.07 297.538L115.826 298.592C118.811 302.015 123.815 307.722 133.033 307.985C133.12 307.985 133.296 307.985 133.384 307.985C141.109 308.161 149.449 306.141 154.365 304.912L154.892 304.825C155.594 304.649 214.588 288.32 265.067 288.32C296.758 288.32 343.55 297.714 371.028 307.985L366.287 324.489Z" fill="#FDAD31"/>
<path d="M185.793 213.348C185.266 214.05 184.652 214.84 184.125 215.718C182.72 217.737 179.296 221.863 175.083 227.13C163.494 241.44 144.005 265.494 136.895 279.013C131.364 289.636 130.223 299.029 133.734 307.896C133.646 307.896 133.471 307.896 133.383 307.896C124.165 307.633 120.654 304.472 117.405 301.312C116.703 300.609 114.684 298.327 114.508 297.888C112.226 290.689 112.577 280.769 130.486 256.013C142.425 239.509 155.681 222.653 170.605 206.5C173.502 203.34 175.785 200.53 177.453 198.16C182.193 191.576 182.808 188.24 183.071 186.396C183.335 184.816 182.896 183.324 182.72 182.973C182.808 183.06 182.984 183.324 183.159 183.499C184.125 184.728 186.671 188.064 188.602 193.244C192.553 203.954 191.675 205.183 185.793 213.348Z" fill="#E9F2FF"/>
<path d="M371.207 307.898L378.494 310.093C379.196 310.269 379.547 311.059 379.371 311.761L375.158 325.807C374.982 326.51 374.192 326.861 373.49 326.685L366.203 324.49L371.207 307.898Z" fill="#D9E8FF"/>
<path d="M146.117 144.961L151.385 139.43C151.911 138.903 152.701 138.903 153.228 139.342L163.851 149.438C164.377 149.965 164.377 150.755 163.938 151.282L158.671 156.812L146.117 144.961Z" fill="#C5DDFC"/>
<path d="M214.859 272.695V287.444" stroke="#FDAD31" stroke-width="1.5" stroke-miterlimit="10"/>
<path d="M260.422 268.305V283.053" stroke="#FDAD31" stroke-width="1.5" stroke-miterlimit="10"/>
<path d="M237.688 273.395V284.895" stroke="#FDAD31" stroke-width="1.5" stroke-miterlimit="10"/>
<path d="M226.273 278.66V285.859" stroke="#FDAD31" stroke-width="1.5" stroke-miterlimit="10"/>
<path d="M249.094 275.852V283.05" stroke="#FDAD31" stroke-width="1.5" stroke-miterlimit="10"/>
<path d="M272.008 275.852V283.05" stroke="#FDAD31" stroke-width="1.5" stroke-miterlimit="10"/>
<path d="M294.828 278.66V285.859" stroke="#FDAD31" stroke-width="1.5" stroke-miterlimit="10"/>
<path d="M283.414 273.395V284.895" stroke="#FDAD31" stroke-width="1.5" stroke-miterlimit="10"/>
<path d="M306.328 272.695V287.444" stroke="#FDAD31" stroke-width="1.5" stroke-miterlimit="10"/>
<path d="M211.607 263.734L211.695 268.387H210.905V264.876L209.852 265.315V264.524L211.607 263.734Z" fill="#FDAD31"/>
<path d="M216.002 266.807C216.002 267.773 215.212 268.475 214.246 268.475C213.544 268.475 212.841 268.036 212.578 267.509L213.193 267.07C213.368 267.422 213.719 267.685 214.158 267.685C214.685 267.685 215.124 267.334 215.124 266.807C215.124 266.28 214.773 265.929 214.246 265.929C213.895 265.929 213.544 266.105 213.193 266.368L212.666 266.017L213.105 263.734H215.651V264.524H213.807L213.632 265.578C213.895 265.402 214.158 265.315 214.509 265.315C215.387 265.315 216.002 265.929 216.002 266.807Z" fill="#FDAD31"/>
<path d="M216.695 266.105C216.695 264.788 217.046 263.734 218.363 263.734C219.68 263.734 220.031 264.788 220.031 266.105C220.031 267.422 219.68 268.475 218.363 268.475C217.046 268.475 216.695 267.422 216.695 266.105ZM219.241 266.105C219.241 265.227 219.066 264.524 218.363 264.524C217.661 264.524 217.485 265.227 217.485 266.105C217.485 266.983 217.661 267.685 218.363 267.685C219.066 267.685 219.241 266.983 219.241 266.105Z" fill="#FDAD31"/>
<path d="M235.052 266.985H236.193V267.512H234.174V267.249L235.315 265.844C235.491 265.668 235.578 265.493 235.578 265.317C235.578 265.054 235.403 264.878 235.139 264.878C234.876 264.878 234.7 265.054 234.613 265.317L234.086 265.229C234.174 264.703 234.525 264.352 235.052 264.352C235.666 264.352 236.017 264.703 236.017 265.229C236.017 265.493 235.842 265.756 235.666 266.02L235.052 266.985Z" fill="#FDAD31"/>
<path d="M237.505 266.985H238.646V267.512H236.627V267.249L237.768 265.844C237.944 265.668 238.031 265.493 238.031 265.317C238.031 265.054 237.856 264.878 237.593 264.878C237.329 264.878 237.154 265.054 237.066 265.317L236.539 265.229C236.627 264.703 236.978 264.352 237.505 264.352C238.119 264.352 238.47 264.703 238.47 265.229C238.47 265.493 238.295 265.756 238.119 266.02L237.505 266.985Z" fill="#FDAD31"/>
<path d="M241.283 266.459C241.283 267.073 240.756 267.512 240.141 267.512C239.702 267.512 239.263 267.249 239 266.898L239.439 266.634C239.527 266.898 239.79 267.073 240.053 267.073C240.405 267.073 240.668 266.81 240.668 266.546C240.668 266.195 240.405 266.02 240.053 266.02C239.79 266.02 239.527 266.108 239.351 266.283L239 266.02L239.263 264.527H240.931V265.054H239.702L239.527 265.756C239.702 265.669 239.878 265.581 240.141 265.581C240.844 265.493 241.283 265.932 241.283 266.459Z" fill="#FDAD31"/>
<path d="M281.925 266.636C281.925 267.163 281.486 267.602 280.872 267.602C280.433 267.602 280.082 267.426 279.906 267.075L280.257 266.812C280.433 267.075 280.609 267.163 280.872 267.163C281.223 267.163 281.399 266.987 281.399 266.724C281.399 266.461 281.135 266.197 280.872 266.197H280.521V265.758H280.696C281.048 265.758 281.223 265.583 281.223 265.319C281.223 265.144 281.047 264.968 280.784 264.968C280.609 264.968 280.345 265.056 280.257 265.231L279.906 264.88C280.082 264.617 280.433 264.441 280.784 264.441C281.311 264.441 281.662 264.793 281.662 265.231C281.662 265.495 281.486 265.758 281.311 265.846C281.75 266.022 281.925 266.285 281.925 266.636Z" fill="#FDAD31"/>
<path d="M282.369 264.441H284.476V264.529L282.984 267.514H282.369L283.598 264.968H282.281V264.441H282.369Z" fill="#FDAD31"/>
<path d="M286.931 266.463C286.931 267.077 286.404 267.516 285.79 267.516C285.351 267.516 284.912 267.253 284.648 266.902L285.087 266.638C285.175 266.902 285.439 267.077 285.702 267.077C286.053 267.077 286.316 266.814 286.316 266.55C286.316 266.199 286.053 266.024 285.702 266.024C285.439 266.024 285.175 266.111 285 266.287L284.648 266.024L284.912 264.531H286.58V265.058H285.351L285.175 265.76C285.351 265.673 285.526 265.585 285.79 265.585C286.492 265.497 286.931 265.936 286.931 266.463Z" fill="#FDAD31"/>
<path d="M257.965 262.248C257.965 263.126 257.263 263.653 256.297 263.653C255.595 263.653 255.068 263.302 254.805 262.775L255.419 262.336C255.595 262.687 255.946 262.863 256.297 262.863C256.824 262.863 257.175 262.599 257.175 262.16C257.175 261.721 256.824 261.458 256.297 261.458H255.858V260.844H256.209C256.736 260.844 256.999 260.58 256.999 260.229C256.999 259.878 256.736 259.702 256.385 259.702C256.122 259.702 255.77 259.878 255.595 260.141L255.068 259.615C255.331 259.263 255.858 259 256.385 259C257.175 259 257.79 259.527 257.79 260.229C257.79 260.668 257.526 261.019 257.175 261.195C257.614 261.282 257.965 261.721 257.965 262.248Z" fill="#FDAD31"/>
<path d="M258.664 261.37C258.664 260.053 259.015 259 260.332 259C261.649 259 262 260.053 262 261.37C262 262.687 261.649 263.741 260.332 263.741C259.015 263.741 258.664 262.687 258.664 261.37ZM261.21 261.37C261.21 260.492 261.034 259.79 260.332 259.79C259.63 259.79 259.454 260.492 259.454 261.37C259.454 262.248 259.63 262.95 260.332 262.95C261.034 262.95 261.21 262.248 261.21 261.37Z" fill="#FDAD31"/>
<path d="M262.797 261.37C262.797 260.053 263.148 259 264.465 259C265.782 259 266.133 260.053 266.133 261.37C266.133 262.687 265.782 263.741 264.465 263.741C263.148 263.741 262.797 262.687 262.797 261.37ZM265.343 261.37C265.343 260.492 265.167 259.79 264.465 259.79C263.763 259.79 263.587 260.492 263.587 261.37C263.587 262.248 263.763 262.95 264.465 262.95C265.167 262.95 265.343 262.248 265.343 261.37Z" fill="#FDAD31"/>
<path d="M304.05 266.719V267.422H303.348V268.299H302.47V267.422H300.188V267.246L302.909 263.734H303.26V266.719H304.05ZM301.504 266.719H302.558V265.402L301.504 266.719Z" fill="#FDAD31"/>
<path d="M307.908 266.807C307.908 267.773 307.118 268.475 306.152 268.475C305.45 268.475 304.748 268.036 304.484 267.509L305.099 267.07C305.274 267.422 305.626 267.685 306.065 267.685C306.591 267.685 307.03 267.334 307.03 266.807C307.03 266.28 306.679 265.929 306.152 265.929C305.801 265.929 305.45 266.105 305.099 266.368L304.572 266.017L305.011 263.734H307.557V264.524H305.713L305.538 265.578C305.801 265.402 306.065 265.315 306.416 265.315C307.294 265.315 307.908 265.929 307.908 266.807Z" fill="#FDAD31"/>
<path d="M308.617 266.105C308.617 264.788 308.968 263.734 310.285 263.734C311.602 263.734 311.953 264.788 311.953 266.105C311.953 267.422 311.602 268.475 310.285 268.475C308.968 268.475 308.617 267.422 308.617 266.105ZM311.251 266.105C311.251 265.227 311.075 264.524 310.373 264.524C309.671 264.524 309.495 265.227 309.495 266.105C309.495 266.983 309.671 267.685 310.373 267.685C310.987 267.685 311.251 266.983 311.251 266.105Z" fill="#FDAD31"/>
<path d="M353.031 135.3V129.945" stroke="#FFA100" stroke-width="1.5" stroke-miterlimit="10"/>
<path d="M353.031 123.799V109.227" stroke="#FFA100" stroke-width="1.5" stroke-miterlimit="10"/>
<path d="M353.034 129.946C354.73 129.946 356.106 128.57 356.106 126.873C356.106 125.176 354.73 123.801 353.034 123.801C351.337 123.801 349.961 125.176 349.961 126.873C349.961 128.57 351.337 129.946 353.034 129.946Z" stroke="#FFA100" stroke-width="1.29" stroke-miterlimit="10"/>
<path d="M362.516 135.298V119.32" stroke="#FFA100" stroke-width="1.5" stroke-miterlimit="10"/>
<path d="M362.516 113.089V109.227" stroke="#FFA100" stroke-width="1.5" stroke-miterlimit="10"/>
<path d="M362.518 119.321C364.215 119.321 365.591 117.945 365.591 116.248C365.591 114.551 364.215 113.176 362.518 113.176C360.821 113.176 359.445 114.551 359.445 116.248C359.445 117.945 360.821 119.321 362.518 119.321Z" stroke="#FFA100" stroke-width="1.29" stroke-miterlimit="10"/>
<path d="M371.992 135.303V126.875" stroke="#FFA100" stroke-width="1.5" stroke-miterlimit="10"/>
<path d="M371.992 120.639V109.227" stroke="#FFA100" stroke-width="1.5" stroke-miterlimit="10"/>
<path d="M371.994 126.872C373.691 126.872 375.067 125.496 375.067 123.799C375.067 122.102 373.691 120.727 371.994 120.727C370.298 120.727 368.922 122.102 368.922 123.799C368.922 125.496 370.298 126.872 371.994 126.872Z" stroke="#FFA100" stroke-width="1.29" stroke-miterlimit="10"/>
<path d="M355.398 186.134H356.013C357.33 186.134 358.296 185.169 358.296 184.027V169.279C358.296 168.05 357.242 167.172 356.013 167.172H355.398" stroke="#FFA100" stroke-width="1.29" stroke-miterlimit="10"/>
<path d="M361.366 167.172H360.751C359.434 167.172 358.469 168.138 358.469 169.279V184.027C358.469 185.256 359.522 186.134 360.751 186.134H361.366" stroke="#FFA100" stroke-width="1.29" stroke-miterlimit="10"/>
<path d="M355.398 186.134H356.013C357.33 186.134 358.296 185.169 358.296 184.027V169.279C358.296 168.05 357.242 167.172 356.013 167.172H355.398" stroke="#F15B22" stroke-width="1.5" stroke-miterlimit="10"/>
<path d="M361.366 167.172H360.751C359.434 167.172 358.469 168.138 358.469 169.279V184.027C358.469 185.256 359.522 186.134 360.751 186.134H361.366" stroke="#F15B22" stroke-width="1.5" stroke-miterlimit="10"/>
<path d="M205.551 142.15C215.491 142.15 223.548 134.092 223.548 124.153C223.548 114.214 215.491 106.156 205.551 106.156C195.612 106.156 187.555 114.214 187.555 124.153C187.555 134.092 195.612 142.15 205.551 142.15Z" fill="#F9FBFF"/>
<path d="M317.922 144.519C329.17 144.519 338.289 135.4 338.289 124.152C338.289 112.904 329.17 103.785 317.922 103.785C306.673 103.785 297.555 112.904 297.555 124.152C297.555 135.4 306.673 144.519 317.922 144.519Z" fill="#F9FBFF"/>
<path d="M260.513 152.953C276.416 152.953 289.308 140.061 289.308 124.158C289.308 108.255 276.416 95.3633 260.513 95.3633C244.611 95.3633 231.719 108.255 231.719 124.158C231.719 140.061 244.611 152.953 260.513 152.953Z" fill="#F9FBFF"/>
<path d="M282.11 111.606C285.601 111.606 288.431 108.776 288.431 105.286C288.431 101.795 285.601 98.9648 282.11 98.9648C278.619 98.9648 275.789 101.795 275.789 105.286C275.789 108.776 278.619 111.606 282.11 111.606Z" fill="#FF4D00"/>
<path d="M365.155 206.498V239.857L217.67 239.418C215.914 239.418 214.422 237.926 214.422 236.17V209.307C214.422 207.551 215.914 206.059 217.67 206.059L365.155 206.498Z" fill="white"/>
<path d="M324.592 217.125H356.459C358.215 217.125 359.707 218.617 359.707 220.373V231.61C359.707 233.366 358.215 234.858 356.459 234.858H324.592C322.836 234.858 321.344 233.366 321.344 231.61V220.373C321.344 218.617 322.836 217.125 324.592 217.125Z" fill="#F9FBFF"/>
<path d="M230.654 234.945C237.151 234.945 242.418 229.679 242.418 223.182C242.418 216.685 237.151 211.418 230.654 211.418C224.157 211.418 218.891 216.685 218.891 223.182C218.891 229.679 224.157 234.945 230.654 234.945Z" fill="#E9F2FF"/>
<path d="M305.107 234.945C311.604 234.945 316.871 229.679 316.871 223.182C316.871 216.685 311.604 211.418 305.107 211.418C298.611 211.418 293.344 216.685 293.344 223.182C293.344 229.679 298.611 234.945 305.107 234.945Z" fill="#E9F2FF"/>
<path d="M323.364 211.418H342.677C343.379 211.418 343.994 212.032 343.994 212.735C343.994 213.437 343.379 214.052 342.677 214.052H323.364C322.661 214.052 322.047 213.437 322.047 212.735C322.135 212.032 322.661 211.418 323.364 211.418Z" fill="#E9F2FF"/>
<path d="M347.067 211.418H351.807C352.51 211.418 353.124 212.032 353.124 212.735C353.124 213.437 352.51 214.052 351.807 214.052H347.067C346.365 214.052 345.75 213.437 345.75 212.735C345.838 212.032 346.365 211.418 347.067 211.418Z" fill="#E9F2FF"/>
<path d="M248.129 211.418H259.981C260.683 211.418 261.298 212.032 261.298 212.735C261.298 213.437 260.683 214.052 259.981 214.052H248.129C247.427 214.052 246.812 213.437 246.812 212.735C246.812 212.032 247.427 211.418 248.129 211.418Z" fill="#E9F2FF"/>
<path d="M263.84 211.418H276.482C277.184 211.418 277.799 212.032 277.799 212.735C277.799 213.437 277.184 214.052 276.482 214.052H263.84C263.138 214.052 262.523 213.437 262.523 212.735C262.523 212.032 263.138 211.418 263.84 211.418Z" fill="#E9F2FF"/>
<path d="M280.176 211.418H283.863C284.566 211.418 285.18 212.032 285.18 212.735C285.18 213.437 284.566 214.052 283.863 214.052H280.176C279.474 214.052 278.859 213.437 278.859 212.735C278.859 212.032 279.474 211.418 280.176 211.418Z" fill="#E9F2FF"/>
<path d="M250.061 217.125H281.928C283.684 217.125 285.176 218.617 285.176 220.373V231.61C285.176 233.366 283.684 234.858 281.928 234.858H250.061C248.305 234.858 246.812 233.366 246.812 231.61V220.373C246.812 218.617 248.305 217.125 250.061 217.125Z" fill="#F9FBFF"/>
<path d="M372.789 239.858L379.198 207.113L410.45 213.697C412.206 214.049 413.347 215.717 412.996 217.472L407.817 243.809C407.466 245.565 405.798 246.706 404.042 246.355L372.789 239.858Z" fill="white"/>
<path d="M384.816 213.698L397.282 216.156C397.984 216.332 398.423 216.946 398.335 217.649C398.16 218.351 397.545 218.79 396.843 218.614L384.377 216.156C383.675 215.981 383.236 215.366 383.324 214.664C383.411 214.049 384.114 213.523 384.816 213.698Z" fill="#E9F2FF"/>
<path d="M385.697 219.665L402.201 222.913C403.957 223.264 405.098 224.932 404.747 226.688L402.553 237.662C402.201 239.417 400.533 240.559 398.778 240.208L382.273 236.959C380.518 236.608 379.376 234.94 379.728 233.185L381.922 222.211C382.186 220.455 383.854 219.314 385.697 219.665Z" fill="#F9FBFF"/>
</g>
<defs>
<filter id="filter0_d_988_805" x="45.2422" y="28.9023" width="426.82" height="356.828" filterUnits="userSpaceOnUse" color-interpolation-filters="sRGB">
<feFlood flood-opacity="0" result="BackgroundImageFix"/>
<feColorMatrix in="SourceAlpha" type="matrix" values="0 0 0 0 0 0 0 0 0 0 0 0 0 0 0 0 0 0 127 0" result="hardAlpha"/>
<feOffset dx="9" dy="9"/>
<feGaussianBlur stdDeviation="25"/>
<feComposite in2="hardAlpha" operator="out"/>
<feColorMatrix type="matrix" values="0 0 0 0 0.215686 0 0 0 0 0.231373 0 0 0 0 0.470588 0 0 0 0.1 0"/>
<feBlend mode="normal" in2="BackgroundImageFix" result="effect1_dropShadow_988_805"/>
<feBlend mode="normal" in="SourceGraphic" in2="effect1_dropShadow_988_805" result="shape"/>
</filter>
</defs>
</svg>
