<svg width="500" height="396" viewBox="0 0 500 396" fill="none" xmlns="http://www.w3.org/2000/svg">
<g clip-path="url(#clip0_909_16033)">
<g filter="url(#filter0_d_909_16033)">
<path d="M350.859 325.776V278.41H284.005V324.811V225.352H217.152V324.811V259.116H150.299V325.776H141.906V339.185H358.962V325.776H350.859Z" fill="#F9FBFF"/>
<path d="M250.245 215.416C280.614 215.416 305.233 190.798 305.233 160.429C305.233 130.06 280.614 105.441 250.245 105.441C219.877 105.441 195.258 130.06 195.258 160.429C195.258 190.798 219.877 215.416 250.245 215.416Z" fill="white"/>
<path d="M269.929 157.824H249.381L231.438 175.864L241.663 186.09L269.929 157.824Z" fill="#54C3F6"/>
<path d="M226.226 170.751L216 160.429L249.378 127.051H269.926L226.226 170.751Z" fill="#54C3F6"/>
<path d="M241.664 186.089L249.382 193.807H269.93L251.986 175.863L241.664 186.089Z" fill="#015799"/>
<path d="M241.664 186.089L256.906 180.88L251.986 175.863L241.664 186.089Z" fill="url(#paint0_linear_909_16033)"/>
<path d="M241.746 165.579L231.445 175.879L241.746 186.179L252.046 175.879L241.746 165.579Z" fill="#29B4F4"/>
<path d="M162.069 222.842C181.556 207.986 185.511 181.65 173.645 164.768C155.798 139.3 106.888 146.632 97.9167 176.826C92.8039 193.998 103.319 213.485 123.095 204.224C142.968 194.866 147.405 162.26 155.219 142.966C160.815 128.978 173.163 114.604 188.984 108.43" stroke="#B9D8F9" stroke-miterlimit="10" stroke-dasharray="4 4"/>
<path d="M324.329 141.036C326.939 141.036 329.056 138.92 329.056 136.309C329.056 133.698 326.939 131.582 324.329 131.582C321.718 131.582 319.602 133.698 319.602 136.309C319.602 138.92 321.718 141.036 324.329 141.036Z" fill="#C3DBFA"/>
<path d="M144.321 119.716C146.931 119.716 149.048 117.599 149.048 114.989C149.048 112.378 146.931 110.262 144.321 110.262C141.71 110.262 139.594 112.378 139.594 114.989C139.594 117.599 141.71 119.716 144.321 119.716Z" fill="#C3DBFA"/>
<path d="M210.883 70.2274C213.494 70.2274 215.61 68.1111 215.61 65.5004C215.61 62.8898 213.494 60.7734 210.883 60.7734C208.273 60.7734 206.156 62.8898 206.156 65.5004C206.156 68.1111 208.273 70.2274 210.883 70.2274Z" stroke="#C3DBFA" stroke-width="1.5" stroke-miterlimit="10"/>
<path d="M313.235 226.317C315.845 226.317 317.962 224.201 317.962 221.59C317.962 218.98 315.845 216.863 313.235 216.863C310.624 216.863 308.508 218.98 308.508 221.59C308.508 224.201 310.624 226.317 313.235 226.317Z" fill="#C3DBFA"/>
<path d="M128.211 240.595C130.822 240.595 132.938 238.478 132.938 235.868C132.938 233.257 130.822 231.141 128.211 231.141C125.601 231.141 123.484 233.257 123.484 235.868C123.484 238.478 125.601 240.595 128.211 240.595Z" stroke="#C3DBFA" stroke-width="1.5" stroke-miterlimit="10"/>
<path d="M311.305 203.741C325.872 204.417 342.078 200.462 353.848 191.49C360.793 186.184 367.064 178.37 368.704 169.495C370.344 160.813 366.485 150.201 355.97 151.745C355.005 151.841 354.137 152.13 353.269 152.42C339.377 157.243 328.959 174.608 333.107 188.982C338.316 207.118 361.083 215.028 378.254 211.17C405.169 205.092 419.157 183.097 425.524 161.488" stroke="#B9D8F9" stroke-miterlimit="10" stroke-dasharray="4 4"/>
<path d="M365.234 36.7539C334.364 42.5421 348.448 80.5509 324.717 92.7061C295.679 107.562 266.739 91.0661 236.93 70.5181" stroke="#B9D8F9" stroke-miterlimit="10" stroke-dasharray="4 4"/>
<path d="M284.009 225.352H217.156V325.68H284.009V225.352Z" fill="#EF5B22"/>
<path d="M350.861 278.41H284.008V325.68H350.861V278.41Z" fill="#C5DDFC"/>
<path d="M217.15 259.117H150.297V325.681H217.15V259.117Z" fill="#FCC070"/>
<path d="M358.962 325.777H141.906V339.09H358.962V325.777Z" fill="#F9FBFF"/>
</g>
</g>
<defs>
<filter id="filter0_d_909_16033" x="55.1328" y="-4.73828" width="429.867" height="402.922" filterUnits="userSpaceOnUse" color-interpolation-filters="sRGB">
<feFlood flood-opacity="0" result="BackgroundImageFix"/>
<feColorMatrix in="SourceAlpha" type="matrix" values="0 0 0 0 0 0 0 0 0 0 0 0 0 0 0 0 0 0 127 0" result="hardAlpha"/>
<feOffset dx="9" dy="9"/>
<feGaussianBlur stdDeviation="25"/>
<feComposite in2="hardAlpha" operator="out"/>
<feColorMatrix type="matrix" values="0 0 0 0 0.215686 0 0 0 0 0.231373 0 0 0 0 0.470588 0 0 0 0.1 0"/>
<feBlend mode="normal" in2="BackgroundImageFix" result="effect1_dropShadow_909_16033"/>
<feBlend mode="normal" in="SourceGraphic" in2="effect1_dropShadow_909_16033" result="shape"/>
</filter>
<linearGradient id="paint0_linear_909_16033" x1="244.69" y1="188.119" x2="252.346" y2="180.463" gradientUnits="userSpaceOnUse">
<stop stop-color="#1A237E" stop-opacity="0.4"/>
<stop offset="1" stop-color="#1A237E" stop-opacity="0"/>
</linearGradient>
<clipPath id="clip0_909_16033">
<rect width="500" height="395.813" fill="white"/>
</clipPath>
</defs>
</svg>
