<svg width="216" height="100" viewBox="0 0 216 100" fill="none" xmlns="http://www.w3.org/2000/svg">
<path fill-rule="evenodd" clip-rule="evenodd" d="M0.953613 65.5071V47.229H5.13607V48.7875H5.20298C5.64937 48.1217 6.29605 47.5972 7.1421 47.1987C7.98861 46.8105 8.96573 46.6162 10.0707 46.6162C11.385 46.6162 12.5569 46.9114 13.5827 47.5015C14.341 47.9502 15.0312 48.6084 15.6581 49.481C16.1134 48.8884 16.5319 48.4446 16.9123 48.1418C17.4924 47.683 18.1878 47.3148 19.0025 47.0325C19.8159 46.7601 20.7538 46.6162 21.8127 46.6162C22.9278 46.6162 23.9066 46.7702 24.7477 47.0829C25.5898 47.3955 26.326 47.8041 26.9556 48.3136C27.5853 48.8229 28.0747 49.3424 28.421 49.872C28.7649 50.4066 29.0298 51.0269 29.216 51.7531C29.3985 52.477 29.4904 53.5032 29.4904 54.8298V65.5071H24.9235V55.3593C24.9235 53.6671 24.6006 52.4544 23.9539 51.7231C23.307 50.9866 22.4541 50.6183 21.394 50.6183C20.5913 50.6183 19.8645 50.8378 19.2124 51.2791C18.5589 51.7179 18.1102 52.2702 17.8649 52.9333C17.6194 53.599 17.4962 54.7489 17.4962 56.3882V65.5071H12.9477V55.3593C12.9477 53.7731 12.5934 52.5879 11.8861 51.801C11.1765 51.0119 10.3041 50.6183 9.26609 50.6183C8.57485 50.6183 7.99632 50.7293 7.52666 50.9612C7.05961 51.1782 6.67644 51.5162 6.38116 51.9499C6.08481 52.3936 5.86555 52.9385 5.71999 53.5941C5.57567 54.2446 5.50366 55.1828 5.50366 56.3882V65.5071H0.953613Z" fill="white"/>
<path fill-rule="evenodd" clip-rule="evenodd" d="M41.2295 62.1889C42.847 62.1889 44.1837 61.62 45.2399 60.4876C46.2989 59.3551 46.8257 58.017 46.8257 56.4757C46.8257 55.4399 46.5675 54.4596 46.0473 53.5356C45.5274 52.6162 44.8251 51.9004 43.9337 51.4025C43.0452 50.8947 42.1539 50.6459 41.248 50.6459C40.3528 50.6459 39.4481 50.8947 38.5251 51.39C37.6032 51.89 36.8797 52.5857 36.3569 53.4796C35.8286 54.3734 35.5655 55.3686 35.5655 56.4554C35.5655 57.5269 35.8272 58.5072 36.3462 59.406C36.865 60.2971 37.5713 60.9903 38.4586 61.4676C39.346 61.9449 40.2703 62.1889 41.2295 62.1889ZM41.2295 66.2336C39.8752 66.2336 38.5689 65.9873 37.3133 65.4897C36.0561 64.9946 34.9772 64.3115 34.0742 63.4431C33.1697 62.5747 32.4619 61.6328 31.9538 60.6171C31.2872 59.2995 30.9536 57.9026 30.9536 56.4277C30.9536 54.7212 31.4057 53.0936 32.3195 51.5447C33.228 49.9958 34.4973 48.7873 36.1266 47.9189C37.755 47.0531 39.4548 46.6162 41.2295 46.6162C43.0172 46.6162 44.7172 47.0479 46.3386 47.9088C47.9535 48.7745 49.2094 49.968 50.1006 51.4992C50.9919 53.0275 51.4415 54.6781 51.4415 56.4554C51.4415 57.7198 51.2233 58.9032 50.7871 60.0103C50.348 61.12 49.7573 62.0824 49.0071 62.8997C48.2543 63.7225 47.4722 64.3573 46.6661 64.8093C45.8558 65.2638 44.9819 65.6143 44.0453 65.8631C43.1076 66.1093 42.1713 66.2336 41.2295 66.2336Z" fill="white"/>
<path fill-rule="evenodd" clip-rule="evenodd" d="M57.1291 56.3574C57.1291 58.2115 57.7006 59.6588 58.8335 60.6992C59.9716 61.7348 61.2884 62.2589 62.7859 62.2589C64.3018 62.2589 65.5794 61.7348 66.6141 60.6819C67.6566 59.6339 68.1765 58.2665 68.1765 56.5795C68.1765 54.9126 67.6436 53.5551 66.5857 52.4972C65.5226 51.4443 64.2215 50.9151 62.6827 50.9151C61.6866 50.9151 60.7452 51.1673 59.8631 51.6611C58.9864 52.1629 58.3085 52.8439 57.8379 53.7074C57.3643 54.5733 57.1291 55.4541 57.1291 56.3574ZM52.9053 65.6476V41.5303H57.3929V49.1984C59.0303 47.701 60.9882 46.955 63.2645 46.955C64.9096 46.955 66.4642 47.3644 67.9281 48.1902C69.3896 49.0086 70.5431 50.1914 71.3915 51.7235C72.2401 53.2659 72.6615 54.8577 72.6615 56.4999C72.6615 58.0668 72.2686 59.6538 71.4847 61.2631C70.696 62.8701 69.5939 64.1006 68.1689 64.9539C66.7409 65.8073 65.1114 66.2337 63.2645 66.2337C61.9222 66.2337 60.7684 66.0117 59.8087 65.575C58.8466 65.1336 57.9179 64.4323 57.0332 63.4717V65.6476H52.9053Z" fill="white"/>
<path fill-rule="evenodd" clip-rule="evenodd" d="M74.8564 65.5071H79.2467V47.5262H74.8564V65.5071ZM74.8564 45.482H79.2467V41.5303H74.8564V45.482Z" fill="white"/>
<path fill-rule="evenodd" clip-rule="evenodd" d="M98.6028 59.773H101.198C100.572 60.9167 99.9363 61.8339 99.2954 62.519C98.3943 63.4614 97.3539 64.1944 96.1696 64.7185C94.9801 65.2453 93.6412 65.5071 92.1554 65.5071C90.2914 65.5071 88.6051 65.094 87.0859 64.2701C85.5744 63.441 84.3747 62.2974 83.4969 60.8207C82.6136 59.352 82.1733 57.7751 82.1733 56.0943C82.1733 54.4567 82.6033 52.8897 83.4685 51.3982C84.331 49.9015 85.5488 48.7326 87.1142 47.8856C88.6798 47.0419 90.3249 46.6162 92.0553 46.6162C93.4763 46.6162 94.8384 46.8932 96.1334 47.4475C97.4285 47.9993 98.5256 48.7577 99.424 49.7201C100.091 50.4355 100.68 51.3653 101.198 52.5117H98.6028C98.1778 51.7862 97.7581 51.2115 97.3409 50.7934C96.6947 50.161 95.9301 49.652 95.0522 49.2692C94.1664 48.8838 93.2061 48.6872 92.1554 48.6872C90.8269 48.6872 89.5551 49.0096 88.3345 49.652C87.1195 50.2944 86.1744 51.1814 85.5127 52.3102C84.846 53.4413 84.5215 54.6734 84.5215 56.0136C84.5215 57.3391 84.8563 58.586 85.523 59.7475C86.1875 60.9116 87.1142 61.8185 88.2961 62.4635C89.4752 63.1084 90.7679 63.4361 92.1683 63.4361C93.5692 63.4361 94.8281 63.1187 95.9455 62.4888C97.0604 61.854 97.9461 60.9521 98.6028 59.773Z" fill="white"/>
<path fill-rule="evenodd" clip-rule="evenodd" d="M105.078 56.1573C105.078 57.4146 105.401 58.6063 106.046 59.7476C106.689 60.889 107.618 61.7857 108.827 62.4486C110.039 63.1036 111.275 63.4362 112.545 63.4362C113.815 63.4362 115.04 63.1185 116.223 62.4788C117.403 61.8413 118.327 60.9445 118.999 59.7929C119.666 58.6341 120.002 57.3743 120.002 56.0136C120.002 54.6331 119.661 53.3834 118.983 52.2647C118.298 51.1435 117.356 50.2694 116.149 49.6393C114.94 49.0045 113.736 48.687 112.529 48.687C111.315 48.687 110.097 49.0197 108.88 49.6772C107.66 50.3349 106.718 51.2417 106.059 52.4006C105.403 53.5572 105.078 54.8044 105.078 56.1573ZM102.662 56.1901C102.662 54.842 102.918 53.5901 103.434 52.4311C103.953 51.2746 104.641 50.2921 105.498 49.4781C106.35 48.6619 107.295 48.0195 108.33 47.5484C109.666 46.9261 111.076 46.6162 112.545 46.6162C114.236 46.6162 115.858 47.0392 117.417 47.8757C118.973 48.7224 120.195 49.894 121.082 51.4031C121.973 52.9148 122.418 54.4667 122.418 56.0617C122.418 57.6565 121.973 59.2136 121.092 60.7202C120.208 62.2318 118.988 63.4034 117.43 64.2473C115.874 65.0863 114.239 65.5071 112.529 65.5071C111.315 65.5071 110.155 65.3004 109.049 64.8923C107.941 64.4893 106.959 63.9248 106.104 63.1992C105.247 62.4788 104.583 61.7429 104.115 60.9922C103.638 60.2441 103.281 59.4579 103.032 58.639C102.783 57.8226 102.662 57.0064 102.662 56.1901Z" fill="white"/>
<path fill-rule="evenodd" clip-rule="evenodd" d="M125.345 65.507V47.8039H127.68V50.065H127.747C129.016 48.2502 130.954 47.3428 133.549 47.3428C134.779 47.3428 135.889 47.5609 136.889 47.9923C137.886 48.4236 138.758 49.041 139.512 49.8396C140.002 50.3775 140.409 51.0619 140.719 51.8801C141.201 53.08 141.442 54.3792 141.442 55.7675V65.507H139.101V55.7675C139.101 54.3446 138.838 53.1496 138.309 52.1725C137.786 51.2007 137.053 50.4916 136.13 50.0452C135.202 49.604 134.287 49.3808 133.369 49.3808C132.395 49.3808 131.441 49.6288 130.495 50.1196C129.554 50.6082 128.852 51.3297 128.38 52.2767C127.914 53.2338 127.68 54.3993 127.68 55.7675V65.507H125.345Z" fill="white"/>
<path fill-rule="evenodd" clip-rule="evenodd" d="M145.854 65.5071V49.6273H142.906V47.5639H145.854C145.902 46.2798 146.043 45.2669 146.277 44.5182C146.516 43.7718 146.926 43.1158 147.512 42.5579C148.094 41.9949 148.834 41.5703 149.739 41.2813C150.646 40.9923 151.785 40.8341 153.15 40.8037V42.9349C151.841 42.955 150.832 43.1485 150.13 43.5078C149.43 43.8722 148.927 44.4074 148.621 45.1112C148.395 45.6111 148.283 46.428 148.283 47.5639H153.15V49.6273H148.283V65.5071H145.854Z" fill="white"/>
</svg>
