<svg width="259" height="120" viewBox="0 0 259 120" fill="none" xmlns="http://www.w3.org/2000/svg">
<path fill-rule="evenodd" clip-rule="evenodd" d="M0.944336 78.6085V56.6748H5.96328V58.545H6.04358C6.57924 57.746 7.35526 57.1167 8.37052 56.6385C9.38634 56.1726 10.5589 55.9395 11.8848 55.9395C13.462 55.9395 14.8682 56.2937 16.0992 57.0018C17.0092 57.5402 17.8374 58.3301 18.5897 59.3772C19.1361 58.6661 19.6383 58.1335 20.0948 57.7702C20.7909 57.2196 21.6253 56.7777 22.603 56.439C23.5791 56.1121 24.7046 55.9395 25.9752 55.9395C27.3134 55.9395 28.4879 56.1242 29.4973 56.4994C30.5077 56.8746 31.3912 57.3649 32.1467 57.9763C32.9024 58.5875 33.4897 59.2109 33.9052 59.8465C34.3179 60.4879 34.6357 61.2322 34.8593 62.1038C35.0781 62.9724 35.1884 64.2039 35.1884 65.7958V78.6085H29.7082V66.4312C29.7082 64.4006 29.3207 62.9452 28.5447 62.0677C27.7683 61.1839 26.7449 60.742 25.4729 60.742C24.5096 60.742 23.6374 61.0053 22.8549 61.5349C22.0707 62.0614 21.5323 62.7242 21.2379 63.52C20.9433 64.3188 20.7955 65.6987 20.7955 67.6658V78.6085H15.3373V66.4312C15.3373 64.5277 14.9121 63.1055 14.0633 62.1612C13.2118 61.2143 12.1649 60.742 10.9193 60.742C10.0898 60.742 9.39559 60.8752 8.83199 61.1535C8.27153 61.4138 7.81173 61.8194 7.4574 62.3399C7.10177 62.8723 6.83866 63.5262 6.66399 64.3129C6.4908 65.0936 6.40439 66.2194 6.40439 67.6658V78.6085H0.944336Z" fill="black"/>
<path fill-rule="evenodd" clip-rule="evenodd" d="M49.2755 74.6267C51.2164 74.6267 52.8204 73.944 54.0878 72.5851C55.3587 71.2262 55.9909 69.6204 55.9909 67.7709C55.9909 66.5279 55.681 65.3515 55.0568 64.2427C54.4328 63.1394 53.5901 62.2805 52.5204 61.683C51.4543 61.0737 50.3847 60.775 49.2976 60.775C48.2234 60.775 47.1377 61.0737 46.0301 61.668C44.9238 62.268 44.0556 63.1029 43.4283 64.1756C42.7943 65.2481 42.4786 66.4423 42.4786 67.7465C42.4786 69.0323 42.7927 70.2086 43.4155 71.2872C44.038 72.3565 44.8856 73.1884 45.9504 73.7611C47.0152 74.3339 48.1243 74.6267 49.2755 74.6267ZM49.2755 79.4803C47.6502 79.4803 46.0826 79.1847 44.576 78.5876C43.0673 77.9935 41.7727 77.1738 40.6891 76.1318C39.6036 75.0897 38.7543 73.9594 38.1446 72.7406C37.3447 71.1594 36.9443 69.4831 36.9443 67.7132C36.9443 65.6654 37.4869 63.7123 38.5834 61.8536C39.6736 59.9949 41.1967 58.5448 43.1519 57.5027C45.106 56.4637 47.1458 55.9395 49.2755 55.9395C51.4207 55.9395 53.4607 56.4574 55.4063 57.4906C57.3442 58.5294 58.8512 59.9616 59.9208 61.799C60.9903 63.633 61.5298 65.6137 61.5298 67.7465C61.5298 69.2638 61.2679 70.6838 60.7445 72.0124C60.2176 73.344 59.5088 74.4988 58.6085 75.4797C57.7052 76.4669 56.7666 77.2288 55.7993 77.7711C54.827 78.3165 53.7783 78.7371 52.6544 79.0358C51.5291 79.3312 50.4056 79.4803 49.2755 79.4803Z" fill="black"/>
<path fill-rule="evenodd" clip-rule="evenodd" d="M68.3548 67.6294C68.3548 69.8544 69.0406 71.5911 70.4 72.8396C71.7658 74.0824 73.3459 74.7113 75.1429 74.7113C76.9619 74.7113 78.4951 74.0824 79.7367 72.8188C80.9878 71.5612 81.6116 69.9204 81.6116 67.896C81.6116 65.8957 80.9721 64.2667 79.7026 62.9973C78.4269 61.7337 76.8656 61.0987 75.019 61.0987C73.8238 61.0987 72.694 61.4013 71.6356 61.994C70.5835 62.5961 69.77 63.4133 69.2053 64.4495C68.6369 65.4885 68.3548 66.5455 68.3548 67.6294ZM63.2861 78.7777V49.8369H68.6712V59.0387C70.6362 57.2418 72.9857 56.3465 75.7172 56.3465C77.6913 56.3465 79.5569 56.8378 81.3135 57.8288C83.0673 58.8109 84.4515 60.2303 85.4696 62.0687C86.488 63.9197 86.9936 65.8299 86.9936 67.8005C86.9936 69.6808 86.5221 71.5852 85.5815 73.5163C84.635 75.4447 83.3124 76.9213 81.6025 77.9452C79.8888 78.9693 77.9335 79.481 75.7172 79.481C74.1065 79.481 72.7219 79.2146 71.5703 78.6906C70.4157 78.161 69.3012 77.3193 68.2397 76.1666V78.7777H63.2861Z" fill="black"/>
<path fill-rule="evenodd" clip-rule="evenodd" d="M89.6279 78.6091H94.8962V57.032H89.6279V78.6091ZM89.6279 54.579H94.8963V49.8369H89.6279V54.579Z" fill="black"/>
<path fill-rule="evenodd" clip-rule="evenodd" d="M118.123 71.7275H121.238C120.487 73.1 119.724 74.2006 118.955 75.0229C117.873 76.1537 116.625 77.0333 115.204 77.6622C113.776 78.2944 112.17 78.6085 110.387 78.6085C108.15 78.6085 106.126 78.1128 104.303 77.1241C102.489 76.1292 101.05 74.7569 99.9965 72.9849C98.9365 71.2224 98.4082 69.3301 98.4082 67.3131C98.4082 65.348 98.9242 63.4676 99.9623 61.6778C100.997 59.8818 102.459 58.4792 104.337 57.4627C106.216 56.4502 108.19 55.9395 110.267 55.9395C111.972 55.9395 113.606 56.2719 115.16 56.937C116.714 57.5992 118.031 58.5092 119.109 59.6642C119.909 60.5226 120.617 61.6384 121.238 63.014H118.123C117.613 62.1435 117.11 61.4538 116.609 60.9521C115.834 60.1933 114.916 59.5824 113.863 59.123C112.8 58.6606 111.647 58.4246 110.387 58.4246C108.792 58.4246 107.266 58.8116 105.802 59.5824C104.344 60.3533 103.21 61.4177 102.415 62.7722C101.615 64.1296 101.226 65.6081 101.226 67.2163C101.226 68.8069 101.628 70.3032 102.428 71.697C103.225 73.094 104.337 74.1821 105.756 74.9562C107.17 75.7301 108.722 76.1233 110.402 76.1233C112.083 76.1233 113.594 75.7424 114.935 74.9866C116.273 74.2248 117.336 73.1425 118.123 71.7275Z" fill="black"/>
<path fill-rule="evenodd" clip-rule="evenodd" d="M125.893 67.3888C125.893 68.8975 126.28 70.3276 127.055 71.6972C127.826 73.0668 128.941 74.1429 130.392 74.9383C131.847 75.7243 133.329 76.1235 134.854 76.1235C136.378 76.1235 137.848 75.7422 139.268 74.9745C140.684 74.2095 141.792 73.1334 142.599 71.7515C143.399 70.361 143.802 68.8492 143.802 67.2163C143.802 65.5598 143.393 64.0601 142.58 62.7177C141.757 61.3722 140.627 60.3233 139.179 59.5672C137.728 58.8053 136.283 58.4244 134.835 58.4244C133.377 58.4244 131.917 58.8236 130.456 59.6126C128.992 60.4018 127.862 61.49 127.071 62.8808C126.283 64.2687 125.893 65.7653 125.893 67.3888ZM122.994 67.4281C122.994 65.8105 123.302 64.3081 123.921 62.9174C124.543 61.5295 125.369 60.3505 126.398 59.3737C127.42 58.3942 128.554 57.6234 129.795 57.058C131.399 56.3113 133.092 55.9395 134.854 55.9395C136.883 55.9395 138.829 56.447 140.7 57.4508C142.567 58.4669 144.034 59.8728 145.098 61.6837C146.168 63.4978 146.701 65.3601 146.701 67.274C146.701 69.1878 146.168 71.0563 145.111 72.8642C144.05 74.6782 142.586 76.084 140.716 77.0967C138.849 78.1035 136.886 78.6085 134.835 78.6085C133.377 78.6085 131.986 78.3604 130.659 77.8708C129.329 77.3872 128.151 76.7098 127.125 75.839C126.096 74.9745 125.299 74.0915 124.737 73.1906C124.165 72.2929 123.737 71.3495 123.438 70.3668C123.14 69.3872 122.994 68.4077 122.994 67.4281Z" fill="black"/>
<path fill-rule="evenodd" clip-rule="evenodd" d="M150.213 78.6087V57.3649H153.016V60.0782H153.096C154.619 57.9004 156.945 56.8115 160.058 56.8115C161.535 56.8115 162.867 57.0733 164.067 57.591C165.263 58.1085 166.309 58.8494 167.214 59.8077C167.802 60.4532 168.29 61.2745 168.663 62.2563C169.241 63.6961 169.531 65.2552 169.531 66.9212V78.6087H166.721V66.9212C166.721 65.2137 166.405 63.7797 165.771 62.6072C165.143 61.4411 164.263 60.5901 163.156 60.0544C162.042 59.525 160.944 59.2572 159.843 59.2572C158.674 59.2572 157.529 59.5547 156.394 60.1438C155.265 60.73 154.422 61.5958 153.856 62.7323C153.296 63.8808 153.016 65.2793 153.016 66.9212V78.6087H150.213Z" fill="black"/>
<path fill-rule="evenodd" clip-rule="evenodd" d="M174.824 78.6089V59.5531H171.287V57.0771H174.824C174.882 55.5361 175.051 54.3206 175.332 53.4222C175.619 52.5266 176.111 51.7394 176.814 51.0699C177.513 50.3942 178.4 49.8847 179.486 49.5379C180.575 49.1911 181.941 49.0013 183.579 48.9648V51.5223C182.009 51.5464 180.798 51.7786 179.955 52.2097C179.116 52.6471 178.512 53.2893 178.145 54.1339C177.874 54.7337 177.739 55.714 177.739 57.0771H183.579V59.5531H177.739V78.6089H174.824Z" fill="black"/>
</svg>
