<svg width="258" height="120" viewBox="0 0 258 120" fill="none" xmlns="http://www.w3.org/2000/svg">
<path fill-rule="evenodd" clip-rule="evenodd" d="M52.0228 76.0456H46.0411C45.9587 69.3717 46.1622 62.7041 45.8638 56.0255H51.0942C51.1788 56.9411 51.2626 57.8477 51.3464 58.7543C51.3715 58.7622 51.3967 58.7701 51.4219 58.778C51.4784 58.7117 51.5401 58.6492 51.5904 58.5781C53.1222 56.4196 55.2324 55.4824 57.8278 55.5856C59.4524 55.6502 60.8705 56.2154 61.9626 57.4608C62.2912 57.8355 62.5265 58.2943 62.8002 58.7177C62.86 58.8103 62.9009 58.9154 62.9692 59.0524C63.1074 58.8783 63.2192 58.739 63.3294 58.5984C64.5469 57.0448 66.0822 55.9998 68.0437 55.6876C70.0129 55.3744 71.8713 55.6318 73.4684 56.9536C74.5952 57.886 75.2393 59.1302 75.6393 60.5174C75.9458 61.5801 76.0949 62.672 76.0987 63.7749C76.112 67.7782 76.104 71.7809 76.104 75.7841V76.0365H70.09V75.6653C70.09 72.1506 70.0907 68.6361 70.0895 65.1214C70.0893 64.2366 70.0091 63.3619 69.7073 62.5231C69.3545 61.5423 68.7425 60.8229 67.6717 60.6527C66.5172 60.4693 65.5642 60.8584 64.8273 61.7805C64.1995 62.5659 64.0708 63.4933 64.0706 64.4564C64.0687 68.1915 64.0699 71.9265 64.0699 75.6615V76.0441H58.0557V75.702C58.0557 72.0534 58.0569 68.4046 58.055 64.756C58.0545 63.9569 57.9491 63.1754 57.6737 62.4194C56.862 60.1901 54.3269 60.1613 53.0674 61.5415C52.288 62.3959 52.0173 63.415 52.0197 64.5481C52.0278 68.2353 52.0228 71.9222 52.0228 75.6095V76.0456Z" fill="#262626"/>
<path fill-rule="evenodd" clip-rule="evenodd" d="M86.2166 66.0603C86.2465 66.499 86.2579 66.9399 86.3101 67.3757C86.4483 68.5277 86.7503 69.6256 87.44 70.5808C88.5527 72.1219 90.6306 72.5323 92.1325 71.5024C92.9694 70.9285 93.4556 70.0944 93.7759 69.1527C94.2813 67.6657 94.3454 66.1346 94.1515 64.5906C94.0033 63.4113 93.6766 62.2849 92.9269 61.3337C92.0731 60.2509 90.9456 59.8637 89.6133 60.1017C88.2985 60.3364 87.4822 61.2018 86.9447 62.3723C86.4089 63.5396 86.2394 64.7845 86.2166 66.0603ZM79.7891 66.1557C79.8558 64.3629 80.1649 62.6431 80.9422 61.0296C81.9543 58.9282 83.5307 57.4017 85.6693 56.5121C88.4371 55.361 91.2897 55.2006 94.1284 56.1503C97.5747 57.303 99.6151 59.7981 100.37 63.348C100.828 65.5003 100.724 67.652 100.048 69.7539C99.1457 72.5618 97.33 74.5586 94.618 75.6498C91.4945 76.9062 88.3422 76.8885 85.2745 75.464C82.4213 74.1393 80.7511 71.8159 80.1146 68.7398C79.9393 67.8924 79.8942 67.0177 79.7891 66.1557Z" fill="#262626"/>
<path fill-rule="evenodd" clip-rule="evenodd" d="M123.329 76.0465H117.143C117.143 75.9189 117.144 75.8069 117.143 75.6948C117.141 71.9883 117.151 68.2815 117.124 64.575C117.119 63.9715 117.014 63.3492 116.841 62.77C116.213 60.6632 113.852 59.9042 112.104 61.236C111.193 61.9302 110.67 62.8655 110.645 64.0328C110.621 65.2105 110.634 66.3888 110.634 67.567C110.633 70.2678 110.634 72.9686 110.634 75.6699V76.0367H104.464C104.382 69.3693 104.578 62.7082 104.306 56.0305H109.652C109.748 56.9498 109.846 57.8736 109.943 58.7974C109.968 58.8043 109.992 58.8111 110.016 58.818C110.067 58.7589 110.123 58.7031 110.169 58.6398C111.743 56.4553 113.903 55.5039 116.54 55.5815C118.178 55.6297 119.655 56.1301 120.879 57.2654C122.094 58.3925 122.753 59.8333 123.043 61.4391C123.207 62.3478 123.309 63.2805 123.316 64.2033C123.346 68.0533 123.329 71.9037 123.329 75.7539V76.0465Z" fill="#262626"/>
<path fill-rule="evenodd" clip-rule="evenodd" d="M175.284 66.582C174.669 66.6165 174.122 66.6297 173.578 66.6819C172.678 66.7683 171.797 66.9455 170.983 67.3672C169.852 67.9536 169.332 68.9294 169.504 70.1997C169.624 71.0914 170.106 71.708 170.97 71.9942C171.564 72.1908 172.169 72.2042 172.762 72.0241C174.021 71.6412 174.961 70.8692 175.174 69.5163C175.321 68.5817 175.253 67.6126 175.284 66.582ZM175.006 62.773C175.155 61.7304 174.695 60.8313 173.824 60.3626C173.146 59.9982 172.407 59.8924 171.65 59.8804C169.631 59.8483 167.75 60.3679 165.941 61.3296C165.895 61.1787 165.846 61.0312 165.803 60.882C165.493 59.7985 165.192 58.7123 164.87 57.6324C164.807 57.42 164.857 57.328 165.041 57.2339C166.538 56.4725 168.128 56.0187 169.779 55.7713C171.211 55.5565 172.651 55.4996 174.093 55.6533C175.875 55.8432 177.529 56.3671 178.879 57.6242C180.001 58.6685 180.656 59.9865 180.934 61.4761C181.105 62.3923 181.206 63.3343 181.218 64.2662C181.256 67.0717 181.213 69.8783 181.25 72.6838C181.264 73.7321 181.416 74.7788 181.504 75.8262C181.509 75.8913 181.511 75.9564 181.516 76.0479C181.403 76.0532 181.301 76.0618 181.199 76.0618C179.566 76.0628 177.933 76.0577 176.3 76.0673C176.056 76.0687 175.951 76.0106 175.918 75.7476C175.856 75.2651 175.749 74.7884 175.659 74.3092C175.644 74.2273 175.618 74.1474 175.585 74.014C175.492 74.0985 175.428 74.1469 175.376 74.2063C174.212 75.5321 172.721 76.2143 171.009 76.4406C169.604 76.6264 168.217 76.5441 166.914 75.9275C164.759 74.9081 163.579 73.1749 163.402 70.79C163.261 68.8832 163.78 67.1689 165.111 65.7604C166.076 64.7394 167.277 64.0962 168.584 63.6405C170.065 63.1243 171.595 62.8638 173.154 62.7785C173.768 62.745 174.384 62.773 175.006 62.773Z" fill="#262626"/>
<path fill-rule="evenodd" clip-rule="evenodd" d="M133.004 63.7458H140.347C140.301 63.3706 140.28 63.0177 140.21 62.6748C140.015 61.7114 139.627 60.8499 138.796 60.2694C137.456 59.3341 135.422 59.5686 134.284 60.7919C133.517 61.6154 133.138 62.6154 133.004 63.7458ZM145.856 68.0443H133.044C133.128 69.0462 133.535 69.8469 134.261 70.4815C135.107 71.2204 136.12 71.5928 137.208 71.7367C139.464 72.0355 141.672 71.759 143.84 71.0914C143.93 71.0636 144.02 71.0349 144.137 70.9985C144.251 71.5779 144.365 72.1478 144.475 72.7187C144.62 73.4694 144.753 74.223 144.91 74.9713C144.95 75.1619 144.91 75.2366 144.732 75.3077C143.381 75.8443 141.977 76.1568 140.541 76.3235C139.238 76.4746 137.931 76.5397 136.62 76.4427C134.31 76.2717 132.158 75.6539 130.347 74.1178C128.692 72.7144 127.758 70.8883 127.376 68.7701C126.832 65.7465 127.194 62.8503 128.778 60.1868C130.384 57.487 132.785 55.9932 135.882 55.6475C137.544 55.4619 139.183 55.574 140.754 56.203C143.058 57.1256 144.5 58.8698 145.331 61.1736C146.004 63.0423 146.148 64.9774 145.983 66.9445C145.952 67.3041 145.9 67.6619 145.856 68.0443Z" fill="#262626"/>
<path fill-rule="evenodd" clip-rule="evenodd" d="M156.665 50.6031V56.0109H157.027C158.28 56.0109 159.533 56.0169 160.786 56.0059C161.026 56.0038 161.115 56.0521 161.112 56.3182C161.098 57.6488 161.106 58.9799 161.105 60.3111C161.105 60.3951 161.096 60.4789 161.089 60.5984H156.678C156.672 60.7347 156.662 60.836 156.662 60.9375C156.665 63.3981 156.657 65.859 156.683 68.3194C156.689 68.8388 156.775 69.3699 156.908 69.873C157.165 70.839 157.818 71.3567 158.81 71.3849C159.414 71.4019 160.02 71.3282 160.625 71.2932C160.718 71.2879 160.81 71.2726 160.946 71.2568C160.946 71.4575 160.946 71.6371 160.946 71.8164C160.954 73.0992 160.954 74.3824 160.974 75.6649C160.978 75.9058 160.893 75.9944 160.676 76.0526C159.633 76.3328 158.57 76.4271 157.496 76.4731C156.363 76.5217 155.264 76.3835 154.202 75.9767C152.383 75.2804 151.329 73.9148 150.952 72.0367C150.752 71.0399 150.635 70.0112 150.617 68.9944C150.572 66.3235 150.602 63.6515 150.602 60.9799V60.6135H147.993V56.0172H150.587C150.593 55.8936 150.601 55.7928 150.602 55.6917C150.603 54.629 150.604 53.5663 150.601 52.5034C150.6 52.3494 150.608 52.2424 150.799 52.19C152.71 51.6677 154.618 51.1337 156.528 50.604C156.553 50.5969 156.583 50.6031 156.665 50.6031Z" fill="#262626"/>
<path fill-rule="evenodd" clip-rule="evenodd" d="M185.01 75.0552C185.378 73.5706 185.739 72.1161 186.093 70.6849C186.773 70.9584 187.429 71.2572 188.107 71.4883C189.282 71.8877 190.489 72.1602 191.737 72.0788C192.249 72.0455 192.785 71.9569 193.252 71.7548C194.197 71.3453 194.4 70.0671 193.639 69.3617C193.306 69.0523 192.881 68.816 192.46 68.6366C191.492 68.2243 190.488 67.897 189.522 67.4791C188.512 67.0419 187.598 66.4334 186.853 65.6068C185.253 63.8329 185.145 61.8124 186.014 59.6975C186.706 58.0127 188.034 56.957 189.677 56.2812C191.314 55.6076 193.027 55.4817 194.768 55.6208C196.184 55.7341 197.558 56.0437 198.87 56.6141C199.1 56.7144 199.151 56.8145 199.087 57.0635C198.765 58.3027 198.465 59.5479 198.157 60.7906C198.141 60.8539 198.117 60.9149 198.098 60.9741C197.491 60.7523 196.906 60.509 196.303 60.3239C195.29 60.0131 194.255 59.8237 193.189 59.9538C192.672 60.017 192.185 60.1642 191.807 60.5577C191.297 61.0885 191.268 61.9601 191.83 62.4314C192.251 62.7855 192.754 63.0662 193.26 63.2872C194.155 63.6775 195.092 63.9701 195.989 64.3545C197.01 64.7917 197.938 65.3863 198.685 66.233C199.732 67.4219 200.074 68.8402 199.987 70.388C199.859 72.6623 198.739 74.2959 196.767 75.3505C195.357 76.1059 193.824 76.3871 192.244 76.4584C189.969 76.5616 187.759 76.2654 185.649 75.361C185.441 75.2717 185.239 75.1656 185.01 75.0552Z" fill="#262626"/>
<path fill-rule="evenodd" clip-rule="evenodd" d="M38.4352 72.1714C38.0228 73.3816 37.4941 74.5516 36.849 75.6677C35.4601 78.0711 33.7101 80.1544 31.4362 81.7528C29.4227 83.1677 27.2002 83.9122 24.7204 83.7486C22.8781 83.6267 21.2093 82.9893 19.6725 81.9807C17.4724 80.537 15.8122 78.5747 14.4243 76.36C12.6731 73.5658 11.4554 70.5319 10.5423 67.3708C10.2674 66.4195 10.0551 65.4447 9.89605 64.4672C9.82174 64.0099 9.8761 63.5041 9.98531 63.048C10.3958 61.332 12.5757 60.5521 13.8507 61.6426C14.2469 61.9814 14.4869 62.4369 14.6313 62.9234C14.9193 63.8932 15.1588 64.8776 15.4285 65.8532C16.1913 68.6143 17.1256 71.308 18.5657 73.7961C19.5163 75.4388 20.6428 76.9438 22.2038 78.0443C25.1559 80.1254 28.3004 80.2791 31.5404 78.8249C33.7968 77.8125 35.5442 76.1495 37.0287 74.1936C37.5237 73.5418 37.966 72.8493 38.4352 72.1714Z" fill="#B40004"/>
<path fill-rule="evenodd" clip-rule="evenodd" d="M0 59.6992C0.358496 58.8908 0.682804 58.0644 1.0819 57.2768C2.52609 54.4264 4.47075 51.9928 7.10154 50.1667C9.0811 48.7929 11.2679 48.0786 13.6953 48.2338C15.5794 48.3545 17.2807 49.013 18.8445 50.0527C20.9191 51.432 22.5121 53.2791 23.8509 55.3636C25.7977 58.3941 27.0914 61.7144 28.0636 65.1707C28.2723 65.913 28.4408 66.6745 28.5372 67.4388C28.5989 67.9307 28.5614 68.4589 28.4522 68.944C28.1457 70.3058 26.6248 71.1506 25.2975 70.7402C24.6524 70.5407 24.2077 70.0898 23.9879 69.4725C23.6971 68.6567 23.463 67.8184 23.2417 66.9798C22.4539 63.9964 21.5069 61.0748 19.9827 58.3771C18.9768 56.597 17.7569 54.9967 16.0668 53.8114C14.6758 52.8359 13.1295 52.3218 11.4389 52.2399C8.80642 52.1123 6.53412 53.054 4.48571 54.6376C2.75377 55.9763 1.38246 57.6413 0.234328 59.5018C0.184708 59.5823 0.134851 59.6625 0.0849944 59.743C0.0565046 59.7284 0.0282523 59.7138 0 59.6992Z" fill="#B40004"/>
<path fill-rule="evenodd" clip-rule="evenodd" d="M12.7617 46.9489C14.577 46.3029 16.3659 45.9947 18.2211 46.1382C21.642 46.4025 24.4344 47.9829 26.8444 50.3461C29.2518 52.7062 31.0061 55.521 32.4033 58.5771C32.9113 59.6882 33.4104 60.8041 33.6304 62.0205C33.7235 62.5348 33.7508 63.0494 33.5948 63.5547C33.3748 64.2656 32.8997 64.7199 32.1668 64.8319C31.3812 64.9519 30.7126 64.7012 30.2696 64.0128C30.1027 63.7537 29.998 63.4445 29.9095 63.145C28.9774 59.9894 27.7882 56.9474 26.0178 54.163C24.6619 52.0304 23.0294 50.1581 20.9038 48.7669C18.9476 47.4863 16.8141 46.7756 14.4671 46.805C13.9203 46.812 13.3747 46.8951 12.7617 46.9489Z" fill="#B40004"/>
<path fill-rule="evenodd" clip-rule="evenodd" d="M25.634 85.1205C24.7143 85.3327 23.8043 85.6152 22.8734 85.7445C18.5363 86.3477 14.9205 84.798 11.8118 81.8455C9.2515 79.4141 7.42222 76.4671 5.97209 73.2627C5.48397 72.1842 5.007 71.1004 4.80164 69.9202C4.71712 69.4343 4.70192 68.9511 4.83274 68.47C5.02837 67.7512 5.61739 67.2229 6.31611 67.1418C7.14397 67.0457 7.90014 67.3913 8.23346 68.0847C8.43432 68.5028 8.56157 68.9587 8.69951 69.4046C9.66935 72.54 10.8977 75.5562 12.731 78.2917C14.1838 80.4593 15.9323 82.3234 18.2084 83.6304C20.0085 84.6641 21.9408 85.2192 24.0215 85.178C24.55 85.1675 25.0768 85.0875 25.6044 85.0396C25.6143 85.0664 25.6241 85.0937 25.634 85.1205Z" fill="#B40004"/>
<mask id="mask0_1060_47189" style="mask-type:alpha" maskUnits="userSpaceOnUse" x="0" y="71" width="17" height="15">
<path fill-rule="evenodd" clip-rule="evenodd" d="M0.827637 71.6074H16.323V86.0001H0.827637V71.6074Z" fill="white"/>
</mask>
<g mask="url(#mask0_1060_47189)">
<path fill-rule="evenodd" clip-rule="evenodd" d="M16.2952 86.0001C15.3721 85.7951 14.4377 85.6314 13.5279 85.3773C10.2962 84.475 7.49733 82.8024 5.1182 80.4266C3.44348 78.7537 2.10493 76.8367 1.15979 74.6519C0.930206 74.1217 0.783247 73.5698 0.839751 72.98C0.90409 72.3083 1.37298 71.7523 1.97934 71.6362C2.6403 71.5095 3.24547 71.8045 3.54129 72.4589C3.91427 73.2846 4.21935 74.1418 4.60087 74.9632C6.11439 78.2224 8.18654 81.0401 11.0813 83.1954C12.5808 84.312 14.2185 85.163 15.982 85.7695C16.0962 85.8088 16.2095 85.8509 16.323 85.8916C16.3137 85.9278 16.3045 85.964 16.2952 86.0001Z" fill="#B40004"/>
</g>
<mask id="mask1_1060_47189" style="mask-type:alpha" maskUnits="userSpaceOnUse" x="22" y="46" width="16" height="15">
<path fill-rule="evenodd" clip-rule="evenodd" d="M22.1167 46H37.6118V60.3863H22.1167V46Z" fill="white"/>
</mask>
<g mask="url(#mask1_1060_47189)">
<path fill-rule="evenodd" clip-rule="evenodd" d="M22.125 46C22.8938 46.1556 23.6744 46.2677 24.4296 46.4744C30.2351 48.0643 34.4879 51.5704 37.1458 57.024C37.4325 57.6124 37.6431 58.2266 37.608 58.8968C37.5759 59.5081 37.3131 59.9899 36.7481 60.2449C36.231 60.4784 35.7056 60.4317 35.2882 60.0381C35.0629 59.8259 34.8877 59.5244 34.7764 59.2299C33.8747 56.8485 32.7301 54.6031 31.1807 52.58C28.8559 49.5447 25.9151 47.374 22.2957 46.16C22.2508 46.1449 22.2062 46.1286 22.1623 46.1109C22.1459 46.1046 22.1319 46.0927 22.1167 46.0833C22.1195 46.0556 22.1224 46.0278 22.125 46Z" fill="#B40004"/>
</g>
</svg>
