<svg width="215" height="100" viewBox="0 0 215 100" fill="none" xmlns="http://www.w3.org/2000/svg">
<path fill-rule="evenodd" clip-rule="evenodd" d="M43.3527 63.3718H38.368C38.2994 57.8103 38.4689 52.2539 38.2202 46.6884H42.5789C42.6494 47.4514 42.7192 48.2069 42.7891 48.9624C42.81 48.969 42.831 48.9756 42.852 48.9822C42.8991 48.9269 42.9505 48.8748 42.9924 48.8155C44.2689 47.0168 46.0274 46.2358 48.1902 46.3218C49.5441 46.3757 50.7258 46.8466 51.6359 47.8845C51.9097 48.1967 52.1058 48.5791 52.3339 48.9319C52.3838 49.0091 52.4178 49.0967 52.4748 49.2108C52.5899 49.0658 52.6831 48.9496 52.7749 48.8325C53.7895 47.5378 55.0689 46.667 56.7035 46.4068C58.3445 46.1458 59.8932 46.3603 61.2241 47.4618C62.1631 48.2388 62.6998 49.2757 63.0332 50.4317C63.2886 51.3172 63.4129 52.2272 63.416 53.1463C63.4271 56.4823 63.4204 59.8179 63.4204 63.1539V63.3642H58.4088V63.0549C58.4088 60.126 58.4093 57.1973 58.4084 54.2683C58.4082 53.531 58.3413 52.8021 58.0898 52.103C57.7958 51.2857 57.2858 50.6863 56.3935 50.5444C55.4314 50.3915 54.6372 50.7158 54.0231 51.4843C53.5 52.1388 53.3928 52.9116 53.3926 53.7142C53.391 56.8267 53.392 59.9392 53.392 63.0517V63.3706H48.3802V63.0855C48.3802 60.045 48.3812 57.0043 48.3796 53.9638C48.3792 53.2979 48.2913 52.6466 48.0618 52.0166C47.3854 50.1589 45.2728 50.1349 44.2232 51.2851C43.5737 51.9971 43.3482 52.8464 43.3501 53.7906C43.3569 56.8632 43.3527 59.9356 43.3527 63.0084V63.3718Z" fill="white"/>
<path fill-rule="evenodd" clip-rule="evenodd" d="M71.847 55.0505C71.8719 55.4161 71.8814 55.7834 71.9249 56.1466C72.0401 57.1066 72.2917 58.0215 72.8665 58.8175C73.7938 60.1018 75.5253 60.4438 76.7769 59.5856C77.4743 59.1073 77.8795 58.4122 78.1464 57.6274C78.5676 56.3882 78.621 55.1124 78.4594 53.8257C78.3359 52.8429 78.0637 51.9043 77.4389 51.1117C76.7274 50.2093 75.7879 49.8866 74.6776 50.085C73.5819 50.2805 72.9017 51.0017 72.4538 51.9771C72.0072 52.9499 71.866 53.9873 71.847 55.0505ZM66.4907 55.1299C66.5463 53.6359 66.8039 52.2028 67.4517 50.8582C68.2951 49.107 69.6088 47.8349 71.391 47.0936C73.6974 46.1344 76.0746 46.0007 78.4402 46.7921C81.3121 47.7527 83.0124 49.832 83.6414 52.7902C84.0228 54.5838 83.9363 56.3769 83.3735 58.1285C82.6213 60.4684 81.1081 62.1324 78.8482 63.0417C76.2453 64.0887 73.6183 64.074 71.0619 62.8869C68.6842 61.783 67.2924 59.8468 66.762 57.2834C66.616 56.5772 66.5784 55.8483 66.4907 55.1299Z" fill="white"/>
<path fill-rule="evenodd" clip-rule="evenodd" d="M102.774 63.3725H97.6196C97.6196 63.2662 97.6198 63.1728 97.6196 63.0794C97.6176 59.9906 97.6261 56.9017 97.6032 53.8129C97.5996 53.31 97.5114 52.7914 97.3677 52.3087C96.8446 50.5531 94.8768 49.9205 93.4203 51.0304C92.6612 51.6089 92.2247 52.3883 92.2043 53.3611C92.184 54.3425 92.1954 55.3244 92.195 56.3062C92.1943 58.5569 92.1949 60.8076 92.1949 63.0586V63.3644H87.0534C86.9848 57.8082 87.1484 52.2572 86.9219 46.6925H91.3764C91.4571 47.4585 91.5384 48.2284 91.6195 48.9982C91.6399 49.004 91.6601 49.0096 91.6805 49.0154C91.723 48.9661 91.7695 48.9196 91.8073 48.8669C93.1192 47.0465 94.919 46.2537 97.1168 46.3183C98.4818 46.3585 99.7126 46.7755 100.732 47.7216C101.745 48.6608 102.295 49.8615 102.536 51.1996C102.673 51.9569 102.758 52.7341 102.763 53.5032C102.788 56.7115 102.774 59.9202 102.774 63.1287V63.3725Z" fill="white"/>
<path fill-rule="evenodd" clip-rule="evenodd" d="M146.07 55.4855C145.558 55.5142 145.102 55.5252 144.648 55.5687C143.898 55.6407 143.164 55.7884 142.486 56.1398C141.543 56.6285 141.11 57.4416 141.253 58.5002C141.354 59.2433 141.755 59.7571 142.475 59.9956C142.97 60.1594 143.474 60.1706 143.968 60.0205C145.018 59.7015 145.801 59.0581 145.978 57.9307C146.1 57.1519 146.044 56.3443 146.07 55.4855ZM145.838 52.3113C145.963 51.4425 145.579 50.6932 144.853 50.3027C144.288 49.9989 143.673 49.9107 143.041 49.9008C141.359 49.874 139.792 50.307 138.285 51.1084C138.246 50.9827 138.205 50.8598 138.169 50.7355C137.911 49.8325 137.66 48.9274 137.392 48.0274C137.339 47.8504 137.381 47.7738 137.535 47.6954C138.782 47.0608 140.107 46.6827 141.483 46.4766C142.676 46.2976 143.876 46.2501 145.078 46.3782C146.563 46.5364 147.941 46.973 149.066 48.0206C150.001 48.8909 150.547 49.9892 150.778 51.2305C150.921 51.994 151.005 52.779 151.015 53.5556C151.047 55.8935 151.011 58.2324 151.042 60.5703C151.054 61.4439 151.18 62.3161 151.253 63.1889C151.258 63.2432 151.259 63.2975 151.264 63.3737C151.169 63.3781 151.084 63.3853 150.999 63.3853C149.638 63.3861 148.277 63.3819 146.916 63.3899C146.714 63.3911 146.626 63.3426 146.598 63.1235C146.547 62.7214 146.458 62.3241 146.383 61.9248C146.37 61.8566 146.349 61.7899 146.321 61.6788C146.243 61.7492 146.19 61.7895 146.146 61.839C145.177 62.9439 143.934 63.5124 142.508 63.701C141.336 63.8558 140.181 63.7872 139.095 63.2733C137.299 62.4239 136.316 60.9795 136.169 58.9921C136.051 57.4031 136.484 55.9745 137.593 54.8008C138.397 53.9499 139.397 53.414 140.487 53.0342C141.721 52.604 142.996 52.3869 144.295 52.3159C144.806 52.2879 145.32 52.3113 145.838 52.3113Z" fill="white"/>
<path fill-rule="evenodd" clip-rule="evenodd" d="M110.836 53.1219H116.956C116.917 52.8092 116.9 52.515 116.842 52.2293C116.679 51.4265 116.356 50.7086 115.663 50.2249C114.546 49.4454 112.852 49.6408 111.903 50.6603C111.264 51.3465 110.948 52.1798 110.836 53.1219ZM121.546 56.7039H110.87C110.94 57.5388 111.279 58.2061 111.884 58.7349C112.589 59.3507 113.433 59.661 114.34 59.7809C116.22 60.0299 118.06 59.7995 119.866 59.2431C119.941 59.22 120.016 59.196 120.114 59.1657C120.209 59.6486 120.304 60.1235 120.396 60.5992C120.516 61.2248 120.627 61.8528 120.758 62.4764C120.791 62.6352 120.759 62.6975 120.61 62.7567C119.484 63.2039 118.314 63.4643 117.117 63.6032C116.032 63.7291 114.942 63.7834 113.85 63.7026C111.925 63.5601 110.132 63.0453 108.622 61.7652C107.243 60.5957 106.465 59.0739 106.147 57.3087C105.693 54.7891 105.995 52.3756 107.315 50.156C108.654 47.9061 110.654 46.6614 113.235 46.3732C114.62 46.2186 115.985 46.312 117.295 46.8362C119.215 47.605 120.417 49.0585 121.109 50.9783C121.67 52.5356 121.79 54.1481 121.652 55.7874C121.627 56.0871 121.583 56.3852 121.546 56.7039Z" fill="white"/>
<path fill-rule="evenodd" clip-rule="evenodd" d="M130.555 42.1691V46.6756H130.856C131.9 46.6756 132.945 46.6806 133.989 46.6714C134.188 46.6696 134.263 46.7099 134.26 46.9316C134.249 48.0405 134.255 49.1498 134.254 50.2591C134.254 50.3291 134.247 50.3989 134.241 50.4985H130.565C130.56 50.6121 130.552 50.6965 130.552 50.7811C130.555 52.8316 130.547 54.8823 130.569 56.9327C130.574 57.3655 130.646 57.8081 130.757 58.2273C130.971 59.0323 131.515 59.4637 132.342 59.4873C132.845 59.5014 133.35 59.44 133.854 59.4108C133.931 59.4064 134.008 59.3937 134.122 59.3805C134.122 59.5477 134.121 59.6974 134.122 59.8468C134.128 60.9158 134.128 61.9852 134.145 63.0539C134.148 63.2547 134.078 63.3285 133.897 63.377C133.027 63.6105 132.141 63.6891 131.246 63.7274C130.302 63.7679 129.387 63.6528 128.501 63.3138C126.986 62.7335 126.107 61.5955 125.793 60.0304C125.627 59.1997 125.529 58.3425 125.514 57.4952C125.477 55.2695 125.502 53.0427 125.502 50.8164V50.5111H123.328V46.6808H125.489C125.494 46.5778 125.501 46.4938 125.501 46.4096C125.502 45.524 125.503 44.6385 125.501 43.7527C125.5 43.6244 125.506 43.5352 125.666 43.4915C127.259 43.0563 128.849 42.6113 130.44 42.1699C130.461 42.1639 130.485 42.1691 130.555 42.1691Z" fill="white"/>
<path fill-rule="evenodd" clip-rule="evenodd" d="M154.175 62.5457C154.482 61.3085 154.782 60.0964 155.078 58.9037C155.644 59.1316 156.19 59.3807 156.756 59.5732C157.735 59.9061 158.741 60.1331 159.781 60.0653C160.207 60.0376 160.654 59.9637 161.043 59.7953C161.831 59.4541 162 58.3889 161.366 57.8011C161.088 57.5432 160.734 57.3463 160.383 57.1968C159.576 56.8532 158.74 56.5804 157.935 56.2322C157.093 55.8679 156.332 55.3608 155.711 54.672C154.377 53.1937 154.288 51.51 155.012 49.7476C155.589 48.3436 156.695 47.4638 158.064 46.9007C159.429 46.3393 160.856 46.2344 162.306 46.3503C163.487 46.4447 164.632 46.7027 165.725 47.178C165.917 47.2616 165.959 47.345 165.905 47.5526C165.637 48.5852 165.388 49.6229 165.131 50.6585C165.118 50.7112 165.098 50.7621 165.081 50.8114C164.576 50.6266 164.088 50.4238 163.586 50.2696C162.742 50.0106 161.879 49.8527 160.991 49.9611C160.56 50.0138 160.154 50.1365 159.839 50.4643C159.415 50.9067 159.39 51.6331 159.858 52.0258C160.209 52.3209 160.628 52.5548 161.05 52.739C161.796 53.0642 162.577 53.3081 163.325 53.6283C164.175 53.9927 164.948 54.4882 165.571 55.1938C166.444 56.1845 166.728 57.3664 166.656 58.6563C166.549 60.5516 165.616 61.9129 163.973 62.7917C162.797 63.4213 161.52 63.6555 160.203 63.715C158.307 63.801 156.466 63.5542 154.708 62.8005C154.534 62.726 154.366 62.6376 154.175 62.5457Z" fill="white"/>
<path fill-rule="evenodd" clip-rule="evenodd" d="M32.0294 60.143C31.6857 61.1515 31.2451 62.1265 30.7076 63.0566C29.5502 65.0594 28.0919 66.7954 26.1969 68.1274C24.519 69.3065 22.6669 69.9269 20.6005 69.7906C19.0652 69.6891 17.6745 69.1579 16.3939 68.3174C14.5604 67.1143 13.1769 65.479 12.0203 63.6334C10.561 61.3049 9.54623 58.7767 8.78532 56.1425C8.55622 55.3497 8.37934 54.5373 8.24679 53.7228C8.18486 53.3417 8.23017 52.9202 8.32118 52.5401C8.66325 51.1101 10.4799 50.4602 11.5423 51.369C11.8725 51.6513 12.0725 52.0308 12.1928 52.4363C12.4328 53.2445 12.6324 54.0648 12.8572 54.8778C13.4929 57.1787 14.2714 59.4234 15.4715 61.4969C16.2637 62.8658 17.2025 64.1199 18.5033 65.037C20.9633 66.7713 23.5838 66.8994 26.2838 65.6876C28.1641 64.8439 29.6202 63.458 30.8574 61.8281C31.2699 61.285 31.6384 60.7079 32.0294 60.143Z" fill="white"/>
<path fill-rule="evenodd" clip-rule="evenodd" d="M0 49.7494C0.298747 49.0757 0.569003 48.3871 0.901581 47.7308C2.10508 45.3554 3.72563 43.3274 5.91795 41.8057C7.56759 40.6609 9.38994 40.0656 11.4127 40.1949C12.9828 40.2955 14.4006 40.8442 15.7038 41.7107C17.4326 42.8601 18.7601 44.3994 19.8757 46.1364C21.4981 48.6619 22.5761 51.4288 23.3863 54.309C23.5602 54.9276 23.7007 55.5621 23.781 56.1991C23.8325 56.609 23.8012 57.0492 23.7102 57.4534C23.4548 58.5883 22.1874 59.2923 21.0812 58.9502C20.5437 58.784 20.1731 58.4083 19.9899 57.8938C19.7475 57.214 19.5525 56.5154 19.3681 55.8166C18.7116 53.3304 17.9224 50.8958 16.6523 48.6477C15.814 47.1643 14.7975 45.8307 13.389 44.8429C12.2298 44.03 10.9412 43.6016 9.53239 43.5333C7.33868 43.427 5.4451 44.2118 3.73809 45.5314C2.29481 46.647 1.15205 48.0345 0.195273 49.585C0.153924 49.652 0.112376 49.7188 0.0708287 49.7859C0.0470872 49.7737 0.0235436 49.7616 0 49.7494Z" fill="white"/>
<path fill-rule="evenodd" clip-rule="evenodd" d="M10.6348 39.1244C12.1475 38.5861 13.6383 38.3293 15.1842 38.4488C18.035 38.6691 20.362 39.9861 22.3704 41.9554C24.3765 43.9221 25.8384 46.2678 27.0027 48.8146C27.4261 49.7405 27.842 50.6704 28.0254 51.6841C28.1029 52.1127 28.1257 52.5415 27.9957 52.9626C27.8123 53.555 27.4164 53.9335 26.8057 54.0269C26.151 54.1269 25.5939 53.918 25.2247 53.3443C25.0856 53.1284 24.9983 52.8708 24.9245 52.6211C24.1478 49.9915 23.1568 47.4565 21.6815 45.1362C20.5516 43.359 19.1912 41.7988 17.4199 40.6394C15.7896 39.5722 14.0118 38.98 12.0559 39.0045C11.6003 39.0103 11.1456 39.0795 10.6348 39.1244Z" fill="white"/>
<path fill-rule="evenodd" clip-rule="evenodd" d="M21.3615 70.934C20.5951 71.1108 19.8367 71.3463 19.061 71.4541C15.4468 71.9567 12.4336 70.6653 9.84298 68.2049C7.70942 66.1787 6.18502 63.7229 4.97658 61.0525C4.56981 60.1538 4.17234 59.2506 4.0012 58.2671C3.93077 57.8622 3.91811 57.4595 4.02712 57.0586C4.19015 56.4596 4.681 56.0194 5.26326 55.9518C5.95315 55.8717 6.58328 56.1597 6.86106 56.7376C7.02844 57.086 7.13448 57.4659 7.24943 57.8375C8.05763 60.4503 9.08128 62.9638 10.609 65.2434C11.8197 67.0497 13.2768 68.6032 15.1735 69.6923C16.6736 70.5537 18.2839 71.0163 20.0178 70.9819C20.4582 70.9732 20.8972 70.9065 21.3368 70.8666C21.3451 70.889 21.3532 70.9117 21.3615 70.934Z" fill="white"/>
<mask id="mask0_1039_1184" style="mask-type:alpha" maskUnits="userSpaceOnUse" x="0" y="59" width="14" height="13">
<path fill-rule="evenodd" clip-rule="evenodd" d="M0.689453 59.6729H13.6022V71.6667H0.689453V59.6729Z" fill="white"/>
</mask>
<g mask="url(#mask0_1039_1184)">
<path fill-rule="evenodd" clip-rule="evenodd" d="M13.5791 71.6668C12.8099 71.496 12.0311 71.3595 11.273 71.1478C8.57993 70.3959 6.24753 69.002 4.26492 67.0221C2.86932 65.6281 1.75387 64.0306 0.966244 62.2099C0.774928 61.7681 0.652461 61.3081 0.699548 60.8167C0.753165 60.2569 1.14391 59.7936 1.64921 59.6968C2.20001 59.5913 2.70432 59.8371 2.95083 60.3825C3.26165 61.0705 3.51588 61.7849 3.83382 62.4693C5.09508 65.1853 6.82187 67.5334 9.2342 69.3295C10.4838 70.26 11.8485 70.9692 13.3181 71.4746C13.4133 71.5073 13.5077 71.5425 13.6022 71.5764C13.5945 71.6065 13.5868 71.6366 13.5791 71.6668Z" fill="white"/>
</g>
<mask id="mask1_1039_1184" style="mask-type:alpha" maskUnits="userSpaceOnUse" x="18" y="38" width="14" height="13">
<path fill-rule="evenodd" clip-rule="evenodd" d="M18.4307 38.3334H31.3433V50.322H18.4307V38.3334Z" fill="white"/>
</mask>
<g mask="url(#mask1_1039_1184)">
<path fill-rule="evenodd" clip-rule="evenodd" d="M18.4376 38.3334C19.0782 38.4631 19.7287 38.5565 20.3581 38.7287C25.196 40.0537 28.74 42.9754 30.9549 47.5201C31.1939 48.0103 31.3694 48.5222 31.3401 49.0807C31.3134 49.5902 31.0944 49.9916 30.6235 50.2042C30.1926 50.3987 29.7547 50.3598 29.4069 50.0317C29.2192 49.8549 29.0732 49.6037 28.9804 49.3583C28.229 47.3738 27.2751 45.5027 25.984 43.8167C24.0467 41.2873 21.596 39.4784 18.5798 38.4667C18.5424 38.4541 18.5053 38.4405 18.4687 38.4258C18.455 38.4206 18.4433 38.4106 18.4307 38.4028C18.433 38.3797 18.4354 38.3565 18.4376 38.3334Z" fill="white"/>
</g>
</svg>
