<svg width="215" height="100" viewBox="0 0 215 100" fill="none" xmlns="http://www.w3.org/2000/svg">
<path fill-rule="evenodd" clip-rule="evenodd" d="M1.3335 55.285V55.5366C1.40129 67.9045 11.511 77.9083 23.9713 77.9083C36.4739 77.9083 46.6094 67.8363 46.6094 55.4108C46.6094 42.9868 36.4739 32.9141 23.9713 32.9141C11.511 32.9141 1.40129 42.9182 1.3335 55.285ZM26.1159 55.6279L26.1584 55.5342C26.2772 54.9956 26.3965 54.5483 26.5153 54.0032L26.5455 53.8498C28.3508 45.5633 29.3625 41.9076 31.4871 41.9076C33.7649 41.9076 34.85 45.7029 36.5658 54.8982L36.7202 55.6279H41.6822C41.6822 55.6279 41.3518 57.8569 40.7322 59.6833C40.1984 61.2548 39.656 62.4919 38.2245 62.4919C36.993 62.4919 36.1787 61.5621 35.167 57.7477L35.118 57.4064H35.0481H27.663L27.6189 57.7486C27.293 59.1504 26.7955 61.3478 26.2392 62.8925C25.6862 64.4271 24.9372 65.9515 23.5718 65.9515C21.6706 65.9515 20.6389 63.2521 19.1759 57.7624L19.1269 57.4064H12.3128L12.2642 57.7364C11.2521 61.5511 10.4381 62.5422 9.20629 62.5422C7.77476 62.5422 7.23197 61.3064 6.69897 59.7349C6.07898 57.9085 5.74857 55.6279 5.74857 55.6279H10.8224L10.871 55.5252C12.2552 50.3525 13.5025 46.474 15.8616 46.474C18.0136 46.474 19.0763 49.8703 20.5703 55.55L20.6181 55.6279H26.1159ZM31.5381 44.1326C30.952 44.1326 30.6719 45.2516 30.085 47.2858C29.516 49.2587 28.9659 51.7324 28.4341 54.1757L28.0939 55.6279H34.7541L34.7034 55.4432L34.6687 55.3584C34.2072 52.8867 33.6285 50.1167 33.0991 47.867C32.7945 46.5731 32.2664 44.1301 31.5769 44.1301C31.5639 44.1301 31.5512 44.1306 31.5381 44.1326ZM14.1932 51.2535C13.6953 52.6006 13.2419 54.1668 12.9025 55.4254L12.8196 55.6279H18.6217C18.6217 55.6279 17.8334 52.4354 17.3139 50.997C16.7029 49.3041 16.4093 48.4737 15.8346 48.4737C15.2734 48.4737 14.8965 49.3488 14.1932 51.2535ZM37.0702 57.4064C37.0702 57.4064 37.2765 58.3939 37.3455 58.6715C37.5702 59.5782 37.8344 60.5157 38.2232 60.5157C38.6092 60.5157 38.7485 59.9053 39.1471 58.5075C39.2271 58.2279 39.3758 57.4064 39.3758 57.4064H37.0702ZM21.1258 57.4064L21.2091 57.8667C21.6432 59.4674 21.9802 60.7353 22.3024 61.6335C22.7921 62.9984 23.0886 63.8049 23.5449 63.8828C24.0456 63.9689 24.4757 62.5938 25.607 57.8817L25.6785 57.4064H21.1258ZM8.05331 57.4064C8.05331 57.4064 8.20238 58.2027 8.28162 58.4816C8.68065 59.8798 8.89997 60.5429 9.28552 60.5429C9.67435 60.5429 9.85895 59.6358 10.0836 58.7291C10.1522 58.4511 10.3589 57.4064 10.3589 57.4064H8.05331Z" fill="white"/>
<mask id="mask0_1039_1135" style="mask-type:alpha" maskUnits="userSpaceOnUse" x="1" y="32" width="46" height="46">
<path fill-rule="evenodd" clip-rule="evenodd" d="M1.3335 55.285V55.5366C1.40129 67.9045 11.511 77.9083 23.9713 77.9083C36.4739 77.9083 46.6094 67.8363 46.6094 55.4108C46.6094 42.9868 36.4739 32.9141 23.9713 32.9141C11.511 32.9141 1.40129 42.9182 1.3335 55.285ZM26.1159 55.6279L26.1584 55.5342C26.2772 54.9956 26.3965 54.5483 26.5153 54.0032L26.5455 53.8498C28.3508 45.5633 29.3625 41.9076 31.4871 41.9076C33.7649 41.9076 34.85 45.7029 36.5658 54.8982L36.7202 55.6279H41.6822C41.6822 55.6279 41.3518 57.8569 40.7322 59.6833C40.1984 61.2548 39.656 62.4919 38.2245 62.4919C36.993 62.4919 36.1787 61.5621 35.167 57.7477L35.118 57.4064H35.0481H27.663L27.6189 57.7486C27.293 59.1504 26.7955 61.3478 26.2392 62.8925C25.6862 64.4271 24.9372 65.9515 23.5718 65.9515C21.6706 65.9515 20.6389 63.2521 19.1759 57.7624L19.1269 57.4064H12.3128L12.2642 57.7364C11.2521 61.5511 10.4381 62.5422 9.20629 62.5422C7.77476 62.5422 7.23197 61.3064 6.69897 59.7349C6.07898 57.9085 5.74857 55.6279 5.74857 55.6279H10.8224L10.871 55.5252C12.2552 50.3525 13.5025 46.474 15.8616 46.474C18.0136 46.474 19.0763 49.8703 20.5703 55.55L20.6181 55.6279H26.1159ZM31.5381 44.1326C30.952 44.1326 30.6719 45.2516 30.085 47.2858C29.516 49.2587 28.9659 51.7324 28.4341 54.1757L28.0939 55.6279H34.7541L34.7034 55.4432L34.6687 55.3584C34.2072 52.8867 33.6285 50.1167 33.0991 47.867C32.7945 46.5731 32.2664 44.1301 31.5769 44.1301C31.5639 44.1301 31.5512 44.1306 31.5381 44.1326ZM14.1932 51.2535C13.6953 52.6006 13.2419 54.1668 12.9025 55.4254L12.8196 55.6279H18.6217C18.6217 55.6279 17.8334 52.4354 17.3139 50.997C16.7029 49.3041 16.4093 48.4737 15.8346 48.4737C15.2734 48.4737 14.8965 49.3488 14.1932 51.2535ZM37.0702 57.4064C37.0702 57.4064 37.2765 58.3939 37.3455 58.6715C37.5702 59.5782 37.8344 60.5157 38.2232 60.5157C38.6092 60.5157 38.7485 59.9053 39.1471 58.5075C39.2271 58.2279 39.3758 57.4064 39.3758 57.4064H37.0702ZM21.1258 57.4064L21.2091 57.8667C21.6432 59.4674 21.9802 60.7353 22.3024 61.6335C22.7921 62.9984 23.0886 63.8049 23.5449 63.8828C24.0456 63.9689 24.4757 62.5938 25.607 57.8817L25.6785 57.4064H21.1258ZM8.05331 57.4064C8.05331 57.4064 8.20238 58.2027 8.28162 58.4816C8.68065 59.8798 8.89997 60.5429 9.28552 60.5429C9.67435 60.5429 9.85895 59.6358 10.0836 58.7291C10.1522 58.4511 10.3589 57.4064 10.3589 57.4064H8.05331Z" fill="white"/>
</mask>
<g mask="url(#mask0_1039_1135)">
</g>
<path fill-rule="evenodd" clip-rule="evenodd" d="M58.1041 41.8284L53.7135 65.3743C53.6351 65.7972 53.9243 66.143 54.3568 66.143H56.5758C57.0083 66.143 57.4232 65.7964 57.4976 65.3731L59.6969 52.8424C59.7713 52.4195 59.9816 52.3919 60.1646 52.7811L66.3179 65.884C66.5009 66.2733 66.8007 66.2737 66.9845 65.8849L73.1696 52.7803C73.3534 52.3919 73.5642 52.4195 73.6389 52.8424L75.8383 65.3731C75.9126 65.7964 76.3272 66.143 76.7597 66.143H78.9787C79.4112 66.143 79.7004 65.7972 79.6219 65.3743L75.2318 41.8284C75.193 41.6214 75.0676 41.5244 74.9279 41.5244C74.7821 41.5244 74.62 41.6303 74.5248 41.8284L66.989 57.5208C66.8031 57.9088 66.498 57.9084 66.3126 57.5204L58.8082 41.8284C58.7135 41.6303 58.5525 41.5244 58.4067 41.5244C58.2675 41.5244 58.1425 41.6214 58.1041 41.8284Z" fill="white"/>
<path fill-rule="evenodd" clip-rule="evenodd" d="M91.6144 62.6587C91.3224 62.6587 91.0859 62.8941 91.0859 63.1835V65.5489C91.0859 65.8386 91.3224 66.0736 91.6144 66.0736H106.339C106.631 66.0736 106.867 65.8386 106.867 65.5489V63.1835C106.867 62.8941 106.631 62.6587 106.339 62.6587H91.6144Z" fill="white"/>
<path fill-rule="evenodd" clip-rule="evenodd" d="M80.2124 53.728C80.2124 60.5462 85.7739 66.0736 92.6355 66.0736C99.4962 66.0736 105.059 60.5462 105.059 53.728C105.059 46.9099 99.4962 41.3828 92.6355 41.3828C85.7739 41.3828 80.2124 46.9099 80.2124 53.728ZM83.6489 53.728C83.6489 48.7955 87.6723 44.7978 92.6355 44.7978C97.5986 44.7978 101.622 48.7955 101.622 53.728C101.622 58.6605 97.5986 62.6587 92.6355 62.6587C87.6723 62.6587 83.6489 58.6605 83.6489 53.728Z" fill="white"/>
<mask id="mask1_1039_1135" style="mask-type:alpha" maskUnits="userSpaceOnUse" x="80" y="41" width="26" height="26">
<path fill-rule="evenodd" clip-rule="evenodd" d="M80.2124 53.728C80.2124 60.5462 85.7739 66.0736 92.6355 66.0736C99.4962 66.0736 105.059 60.5462 105.059 53.728C105.059 46.9099 99.4962 41.3828 92.6355 41.3828C85.7739 41.3828 80.2124 46.9099 80.2124 53.728ZM83.6489 53.728C83.6489 48.7955 87.6723 44.7978 92.6355 44.7978C97.5986 44.7978 101.622 48.7955 101.622 53.728C101.622 58.6605 97.5986 62.6587 92.6355 62.6587C87.6723 62.6587 83.6489 58.6605 83.6489 53.728Z" fill="white"/>
</mask>
<g mask="url(#mask1_1039_1135)">
</g>
<path fill-rule="evenodd" clip-rule="evenodd" d="M118.768 41.8286L109.114 65.3501C108.95 65.7479 109.17 66.0738 109.603 66.0738H111.822C112.254 66.0738 112.739 65.747 112.898 65.3473L113.118 64.7957C113.278 64.3959 113.762 64.0692 114.195 64.0692H124.275C124.708 64.0692 125.188 64.3979 125.341 64.7998L125.548 65.3432C125.701 65.7446 126.182 66.0738 126.614 66.0738H128.832C129.265 66.0738 129.486 65.7479 129.322 65.3501L119.667 41.8286C119.585 41.6301 119.402 41.5303 119.218 41.5303C119.034 41.5303 118.85 41.6301 118.768 41.8286ZM114.946 60.0909L118.932 49.9317C119.089 49.5311 119.346 49.5311 119.503 49.9317L123.489 60.0909C123.646 60.4915 123.421 60.8198 122.988 60.8198H115.447C115.015 60.8198 114.79 60.4915 114.946 60.0909Z" fill="white"/>
<mask id="mask2_1039_1135" style="mask-type:alpha" maskUnits="userSpaceOnUse" x="109" y="41" width="21" height="26">
<path fill-rule="evenodd" clip-rule="evenodd" d="M118.768 41.8286L109.114 65.3501C108.95 65.7479 109.17 66.0738 109.603 66.0738H111.822C112.254 66.0738 112.739 65.747 112.898 65.3473L113.118 64.7957C113.278 64.3959 113.762 64.0692 114.195 64.0692H124.275C124.708 64.0692 125.188 64.3979 125.341 64.7998L125.548 65.3432C125.701 65.7446 126.182 66.0738 126.614 66.0738H128.832C129.265 66.0738 129.486 65.7479 129.322 65.3501L119.667 41.8286C119.585 41.6301 119.402 41.5303 119.218 41.5303C119.034 41.5303 118.85 41.6301 118.768 41.8286ZM114.946 60.0909L118.932 49.9317C119.089 49.5311 119.346 49.5311 119.503 49.9317L123.489 60.0909C123.646 60.4915 123.421 60.8198 122.988 60.8198H115.447C115.015 60.8198 114.79 60.4915 114.946 60.0909Z" fill="white"/>
</mask>
<g mask="url(#mask2_1039_1135)">
</g>
</svg>
