<svg width="258" height="120" viewBox="0 0 258 120" fill="none" xmlns="http://www.w3.org/2000/svg">
<path fill-rule="evenodd" clip-rule="evenodd" d="M1.6001 66.2737V66.5756C1.68146 81.4171 13.8131 93.4217 28.7654 93.4217C43.7686 93.4217 55.9312 81.3353 55.9312 66.4246C55.9312 51.5159 43.7686 39.4286 28.7654 39.4286C13.8131 39.4286 1.68146 51.4336 1.6001 66.2737ZM31.339 66.6852L31.3899 66.5727C31.5326 65.9264 31.6757 65.3897 31.8183 64.7356L31.8546 64.5515C34.0209 54.6076 35.2349 50.2209 37.7844 50.2209C40.5177 50.2209 41.82 54.7752 43.8789 65.8095L44.0642 66.6852H50.0185C50.0185 66.6852 49.622 69.36 48.8785 71.5517C48.238 73.4375 47.5871 74.922 45.8693 74.922C44.3916 74.922 43.4143 73.8062 42.2003 69.229L42.1415 68.8194H42.0577H33.1955L33.1426 69.23C32.7515 70.9122 32.1545 73.549 31.487 75.4027C30.8234 77.2442 29.9245 79.0735 28.2861 79.0735C26.0046 79.0735 24.7666 75.8342 23.011 69.2465L22.9522 68.8194H14.7752L14.7169 69.2154C13.5024 73.7931 12.5256 74.9824 11.0475 74.9824C9.32962 74.9824 8.67826 73.4994 8.03867 71.6136C7.29468 69.4219 6.89818 66.6852 6.89818 66.6852H12.9868L13.0451 66.562C14.7061 60.3547 16.2029 55.7005 19.0338 55.7005C21.6162 55.7005 22.8914 59.7761 24.6843 66.5917L24.7416 66.6852H31.339ZM37.8457 52.8908C37.1424 52.8908 36.8061 54.2336 36.1019 56.6746C35.4191 59.0421 34.759 62.0106 34.1208 64.9426L33.7126 66.6852H41.7048L41.644 66.4636L41.6024 66.3618C41.0485 63.3958 40.354 60.0717 39.7189 57.3721C39.3532 55.8194 38.7195 52.8879 37.8922 52.8879C37.8765 52.8879 37.8613 52.8884 37.8457 52.8908ZM17.0317 61.4359C16.4342 63.0524 15.8902 64.9319 15.4829 66.4422L15.3835 66.6852H22.3459C22.3459 66.6852 21.4 62.8542 20.7766 61.1281C20.0434 59.0967 19.691 58.1002 19.0014 58.1002C18.328 58.1002 17.8757 59.1502 17.0317 61.4359ZM44.4842 68.8194C44.4842 68.8194 44.7317 70.0044 44.8145 70.3375C45.0841 71.4256 45.4012 72.5506 45.8678 72.5506C46.3309 72.5506 46.4981 71.8181 46.9764 70.1407C47.0725 69.8052 47.2509 68.8194 47.2509 68.8194H44.4842ZM25.3508 68.8194L25.4508 69.3717C25.9718 71.2926 26.3761 72.8141 26.7628 73.8919C27.3505 75.5298 27.7063 76.4976 28.2537 76.5911C28.8546 76.6943 29.3707 75.0443 30.7283 69.3897L30.8141 68.8194H25.3508ZM9.66387 68.8194C9.66387 68.8194 9.84276 69.775 9.93784 70.1096C10.4167 71.7874 10.6799 72.5832 11.1425 72.5832C11.6091 72.5832 11.8306 71.4947 12.1002 70.4067C12.1825 70.073 12.4305 68.8194 12.4305 68.8194H9.66387Z" fill="#231F20"/>
<path fill-rule="evenodd" clip-rule="evenodd" d="M69.725 50.1259L64.4563 78.381C64.3622 78.8884 64.7092 79.3034 65.2282 79.3034H67.891C68.41 79.3034 68.908 78.8875 68.9972 78.3795L71.6364 63.3427C71.7256 62.8352 71.978 62.8021 72.1976 63.2691L79.5816 78.9927C79.8012 79.4597 80.1609 79.4602 80.3814 78.9936L87.8037 63.2681C88.0242 62.8021 88.2771 62.8352 88.3668 63.3427L91.006 78.3795C91.0952 78.8875 91.5927 79.3034 92.1117 79.3034H94.7745C95.2935 79.3034 95.6405 78.8884 95.5464 78.381L90.2782 50.1259C90.2317 49.8775 90.0812 49.7611 89.9136 49.7611C89.7386 49.7611 89.544 49.8882 89.4299 50.1259L80.3868 68.9568C80.1638 69.4224 79.7977 69.4219 79.5752 68.9563L70.5699 50.1259C70.4562 49.8882 70.2631 49.7611 70.0882 49.7611C69.921 49.7611 69.7711 49.8775 69.725 50.1259Z" fill="#231F20"/>
<path fill-rule="evenodd" clip-rule="evenodd" d="M109.937 75.1222C109.587 75.1222 109.303 75.4047 109.303 75.7519V78.5904C109.303 78.9381 109.587 79.2201 109.937 79.2201H127.606C127.957 79.2201 128.24 78.9381 128.24 78.5904V75.7519C128.24 75.4047 127.957 75.1222 127.606 75.1222H109.937Z" fill="#231F20"/>
<path fill-rule="evenodd" clip-rule="evenodd" d="M96.2549 64.4054C96.2549 72.5871 102.929 79.2201 111.163 79.2201C119.395 79.2201 126.07 72.5871 126.07 64.4054C126.07 56.2236 119.395 49.5911 111.163 49.5911C102.929 49.5911 96.2549 56.2236 96.2549 64.4054ZM100.379 64.4054C100.379 58.4864 105.207 53.6891 111.163 53.6891C117.118 53.6891 121.946 58.4864 121.946 64.4054C121.946 70.3244 117.118 75.1222 111.163 75.1222C105.207 75.1222 100.379 70.3244 100.379 64.4054Z" fill="#231F20"/>
<path fill-rule="evenodd" clip-rule="evenodd" d="M142.522 50.1259L130.937 78.3517C130.74 78.829 131.005 79.2201 131.524 79.2201H134.186C134.705 79.2201 135.287 78.8281 135.478 78.3483L135.742 77.6865C135.934 77.2067 136.514 76.8147 137.034 76.8147H149.13C149.65 76.8147 150.225 77.2092 150.409 77.6913L150.658 78.3435C150.842 78.8251 151.418 79.2201 151.937 79.2201H154.599C155.118 79.2201 155.383 78.829 155.186 78.3517L143.601 50.1259C143.502 49.8878 143.282 49.7679 143.061 49.7679C142.841 49.7679 142.62 49.8878 142.522 50.1259ZM137.936 72.0407L142.719 59.8496C142.907 59.3689 143.216 59.3689 143.404 59.8496L148.187 72.0407C148.376 72.5214 148.106 72.9154 147.586 72.9154H138.537C138.018 72.9154 137.748 72.5214 137.936 72.0407Z" fill="#231F20"/>
<mask id="mask0_1060_43484" style="mask-type:alpha" maskUnits="userSpaceOnUse" x="130" y="49" width="26" height="31">
<path fill-rule="evenodd" clip-rule="evenodd" d="M142.522 50.1259L130.937 78.3517C130.74 78.829 131.005 79.2201 131.524 79.2201H134.186C134.705 79.2201 135.287 78.8281 135.478 78.3483L135.742 77.6865C135.934 77.2067 136.514 76.8147 137.034 76.8147H149.13C149.65 76.8147 150.225 77.2092 150.409 77.6913L150.658 78.3435C150.842 78.8251 151.418 79.2201 151.937 79.2201H154.599C155.118 79.2201 155.383 78.829 155.186 78.3517L143.601 50.1259C143.502 49.8878 143.282 49.7679 143.061 49.7679C142.841 49.7679 142.62 49.8878 142.522 50.1259ZM137.936 72.0407L142.719 59.8496C142.907 59.3689 143.216 59.3689 143.404 59.8496L148.187 72.0407C148.376 72.5214 148.106 72.9154 147.586 72.9154H138.537C138.018 72.9154 137.748 72.5214 137.936 72.0407Z" fill="white"/>
</mask>
<g mask="url(#mask0_1060_43484)">
</g>
</svg>
