<svg width="258" height="120" viewBox="0 0 258 120" fill="none" xmlns="http://www.w3.org/2000/svg">
<path d="M30.9742 37.3628L30.9871 37.359C37.1256 35.7996 42.5545 36.7378 45.9193 40.5252C48.7046 43.658 49.6781 48.2886 49.0458 53.6123C48.7213 56.2741 48.0028 59.1143 46.9044 62.0366C45.9901 64.4751 44.9007 67.0163 43.4688 69.5087C42.0909 71.9087 40.9938 73.6953 39.3404 75.7616C36.8783 78.8379 34.4034 80.9966 31.9297 82.289C26.5716 85.0869 16.5365 83.9755 18.9046 81.3958L18.9201 81.3791C20.8259 79.3486 22.6565 77.2492 24.4082 75.0852L24.4057 75.089C27.3867 71.3928 29.6788 67.9994 31.3901 64.9462C31.3942 64.939 31.3981 64.9317 31.4017 64.9243C33.4415 61.2794 34.6467 58.1184 35.1966 55.5027C35.3382 54.8354 35.4554 54.177 35.5533 53.5301C35.5636 53.4557 35.5932 53.1849 35.5971 53.1233C35.6859 51.6088 35.4915 50.3588 35.0652 49.3936C32.9405 44.5782 22.2591 48.9894 14.3951 57.3919C11.8441 60.1166 10.5577 61.6863 6.51563 62.5166C2.24304 63.3932 0.6875 61.9686 0.6875 61.9686C2.76456 58.4726 5.36185 55.0484 8.3828 51.8206C12.9928 46.8961 18.0315 42.938 23.9241 40.058C25.0109 39.528 26.126 39.0326 27.2747 38.5757C28.4802 38.0925 29.716 37.6878 30.9742 37.3641V37.3628Z" fill="url(#paint0_linear_1060_43930)"/>
<path d="M49.0174 53.76C48.6929 56.3808 47.9808 59.1696 46.9043 62.0381C45.9887 64.4753 44.8993 67.0165 43.4674 69.5089C42.0896 71.9089 40.9937 73.6967 39.3403 75.7617C36.8769 78.8381 34.4033 80.9981 31.9296 82.2892C26.5702 85.0871 16.5364 83.9756 18.9045 81.396L18.92 81.3793C20.7758 79.4016 22.5596 77.3579 24.2678 75.2522C31.9785 71.4276 42.1746 65.2056 49.0174 53.76Z" fill="url(#paint1_linear_1060_43930)"/>
<path d="M24.4059 75.0866L24.2681 75.2521C31.9827 71.4262 42.2044 65.1901 49.0177 53.7599L49.046 53.6123C50.6737 48.1065 50.1328 43.0331 46.4114 40.0697C43.939 35.7227 36.9184 35.1041 31.2899 36.8406C31.4534 36.8791 31.6247 36.9266 31.805 36.9818L31.5989 37.0331L31.1483 37.146L30.8392 37.223C29.6288 37.5298 28.4685 37.9674 27.2311 38.468L26.1262 38.9582C34.1589 38.2729 37.3498 45.4177 35.614 53.4493C35.5148 53.9062 35.4389 54.2926 35.3655 54.6635C35.3101 54.9433 35.256 55.2153 35.1955 55.5015C34.9869 56.5 34.6804 57.5794 34.2426 58.7447C33.6052 60.6031 32.6626 62.672 31.4006 64.9244L31.3891 64.9462C29.6893 67.9815 27.4126 71.3505 24.4059 75.0866Z" fill="url(#paint2_radial_1060_43930)"/>
<path fill-rule="evenodd" clip-rule="evenodd" d="M151.608 67.517H147.241V41.2851L151.608 40.5715V50.1664C152.451 49.3526 153.445 48.7108 154.534 48.2772C155.645 47.8293 156.936 47.606 158.406 47.606C159.906 47.606 161.295 47.8704 162.571 48.3991C163.845 48.9279 164.949 49.6517 165.88 50.572C166.816 51.5016 167.558 52.6064 168.064 53.8229C168.588 55.0704 168.851 56.3974 168.851 57.8053C168.859 59.1724 168.592 60.5272 168.064 61.7891C167.558 63.0053 166.816 64.1097 165.88 65.0387C164.931 65.9726 163.806 66.7113 162.571 67.2128C161.296 67.7416 159.906 68.0047 158.406 68.0047C156.996 68.0047 155.728 67.7814 154.602 67.3347C153.501 66.9028 152.487 66.2768 151.608 65.4866V67.517ZM140.27 67.9854C141.518 67.9059 142.781 67.6851 144.06 67.3193L143.171 64.5382C142.235 64.6421 141.441 64.6935 140.785 64.6935C140.131 64.6935 139.601 64.6036 139.195 64.4201C138.789 64.2378 138.502 63.9632 138.331 63.5987C138.158 63.2316 138.073 62.7362 138.073 62.1099V52.003H144.154V48.634H138.073V43.6197L133.536 44.3089V48.634H130.261V52.003H133.536V61.5221C133.536 63.2458 133.847 64.5831 134.472 65.5367C135.095 66.4902 135.906 67.1551 136.903 67.535C137.901 67.9136 139.024 68.0637 140.27 67.9854ZM60.7998 68.006H65.1084V68.0047V56.1972C65.1084 55.3899 65.2913 54.7084 65.6622 54.1566C66.0206 53.6157 66.4806 53.1489 67.0168 52.782C67.5377 52.4243 68.116 52.1578 68.7269 51.994C69.2545 51.8436 69.7994 51.7617 70.3481 51.7501C70.9552 51.7482 71.5602 51.8232 72.1483 51.9735C72.712 52.1151 73.2408 52.3697 73.7026 52.7217C74.1777 53.0925 74.5581 53.5701 74.8126 54.1155C75.0933 54.6956 75.2349 55.4028 75.2349 56.2396V68.0047H79.3247V56.2793C79.3247 54.6083 79.0349 53.2479 78.458 52.1955C77.8799 51.1444 77.1691 50.3217 76.3256 49.7288C75.4809 49.1358 74.5718 48.7315 73.5931 48.5159C72.617 48.3003 71.7427 48.1925 70.9726 48.1925C69.8474 48.1808 68.7306 48.3865 67.6838 48.7983C66.6794 49.2013 65.8193 49.7146 65.1084 50.3345V48.6353H60.7998V68.006ZM96.3017 82.7538C96.9134 83.0823 97.5946 83.2466 98.3414 83.2466V83.2453C99.0456 83.2567 99.7409 83.0874 100.361 82.7538C100.964 82.4252 101.44 81.9722 101.785 81.3946C102.13 80.8094 102.302 80.1561 102.302 79.4361C102.302 78.7148 102.13 78.0654 101.785 77.4879C101.44 76.9027 100.966 76.4458 100.361 76.1185C99.741 75.7844 99.0457 75.6147 98.3414 75.6256C97.6296 75.6163 96.9274 75.7891 96.3017 76.1275C95.6978 76.4573 95.2226 76.9104 94.8775 77.4879C94.5388 78.0654 94.3702 78.7148 94.3702 79.4361C94.3605 80.1188 94.5358 80.7914 94.8775 81.3831C95.2203 81.959 95.7122 82.4324 96.3017 82.7538ZM77.4227 82.9784C77.9404 83.1568 78.4812 83.2466 79.0414 83.2466C79.6607 83.2466 80.1823 83.1568 80.6059 82.9784C81.0309 82.7923 81.3438 82.5471 81.5459 82.2404C81.7546 81.926 81.8589 81.5794 81.8589 81.2021C81.8589 80.7452 81.7404 80.3846 81.5022 80.1202C81.2652 79.8494 80.9742 79.6492 80.6291 79.5208C80.2904 79.3848 79.8436 79.25 79.2899 79.1153C78.8225 79.0011 78.4477 78.8971 78.167 78.8047C77.894 78.7046 77.6635 78.566 77.4781 78.3876C77.2978 78.2015 77.2077 77.9589 77.2077 77.6599C77.2006 77.273 77.3863 76.9077 77.7034 76.6845C78.0421 76.4278 78.5417 76.2994 79.2049 76.2994C79.5628 76.3016 79.9185 76.3556 80.2608 76.4599C80.621 76.5601 80.9633 76.7155 81.2755 76.9206L81.5459 76.2892C81.2433 76.0826 80.8841 75.9221 80.4656 75.8079C80.0561 75.686 79.635 75.6257 79.2036 75.6257C78.5855 75.6257 78.0666 75.7181 77.6494 75.9042C77.2321 76.089 76.9231 76.3392 76.7209 76.6537C76.52 76.9604 76.4196 77.3018 76.4196 77.6804C76.4196 78.1437 76.5381 78.5121 76.775 78.7829C77.0152 79.0507 77.3145 79.2594 77.6494 79.3925C78.0946 79.5534 78.5486 79.6892 79.0092 79.7993C79.3856 79.8846 79.7566 79.9918 80.1205 80.1202C80.3716 80.2036 80.6006 80.3427 80.7901 80.527C80.9768 80.7067 81.0708 80.9454 81.0708 81.2458C81.0708 81.6372 80.9021 81.9581 80.5634 82.2083C80.226 82.4509 79.7187 82.5715 79.0427 82.5715C78.5598 82.5715 78.0923 82.4894 77.6391 82.3251C77.1858 82.1544 76.8227 81.9337 76.5484 81.6616L76.2355 82.2725C76.5162 82.5651 76.9115 82.8 77.4227 82.9784ZM98.3414 82.5407C98.9389 82.5407 99.4785 82.4073 99.9614 82.1429C100.443 81.8733 100.82 81.5012 101.095 81.0301C101.368 80.5527 101.504 80.0214 101.504 79.4361C101.504 78.8509 101.368 78.3221 101.095 77.8524C100.83 77.3821 100.437 76.996 99.9614 76.7384C99.4664 76.4638 98.9078 76.3235 98.3414 76.3315C97.7723 76.3247 97.2111 76.4649 96.7125 76.7384C96.2352 76.9975 95.839 77.383 95.5677 77.8524C95.2917 78.3344 95.1503 78.8812 95.1582 79.4361C95.1582 80.0214 95.2947 80.5527 95.5677 81.0301C95.8484 81.5012 96.2309 81.8721 96.7125 82.1441C97.2018 82.4073 97.7452 82.5394 98.3414 82.5394V82.5407ZM116.332 79.3181V76.3752H120.714V75.6898H115.534V83.1812H116.332V80.0034H120.239V79.3181H116.332ZM135.325 76.3752H132.669V75.6898H138.778V76.3752H136.123V83.1812H135.324V76.3765L135.325 76.3752ZM159.266 83.1812L161.813 75.6898H161.047L158.835 82.1647L156.611 75.6898H155.867L153.611 82.1326L151.431 75.6898H150.61L153.158 83.1812H153.989L156.212 76.7923L158.424 83.1812H159.266ZM179.224 81.1803H175.015L174.108 83.1824H173.278L176.731 75.6898H177.52L180.973 83.1812H180.131L179.224 81.1803ZM177.12 76.5138L178.933 80.5386H175.307L177.12 76.5138ZM198.822 83.1824L197.096 80.7735C196.901 80.7953 196.7 80.8055 196.491 80.8055H194.462V83.1812H193.663V75.6898H196.491C197.456 75.6898 198.21 75.9183 198.758 76.3752C199.305 76.8321 199.578 77.4597 199.578 78.258C199.578 78.8432 199.427 79.3399 199.125 79.7467C198.828 80.1446 198.405 80.4346 197.851 80.613L199.696 83.1812H198.822V83.1824ZM198.186 79.6389C197.791 79.9675 197.218 80.1317 196.469 80.1317H194.462V76.3752H196.469C197.218 76.3752 197.791 76.5394 198.186 76.8667C198.581 77.1889 198.778 77.6522 198.778 78.2579C198.778 78.8509 198.581 79.3104 198.186 79.6389ZM218.246 82.4971V83.1812H212.903V75.6898H218.085V76.3752H213.703V79.0396H217.61V79.7146H213.703V82.4971H218.246ZM127.174 68.006H121.895L116.391 61.0562L110.844 68.006H105.564L113.751 57.7476L106.146 48.1925H111.426L116.391 54.3966L121.313 48.1925H126.592L119.031 57.7476L127.174 68.006ZM155.571 51.5268C156.35 51.2971 157.175 51.1829 158.047 51.1829C158.898 51.1788 159.741 51.3514 160.522 51.6898C161.285 52.0164 161.974 52.4931 162.547 53.0913C163.744 54.3701 164.405 56.0567 164.394 57.8053C164.4 58.6963 164.232 59.5799 163.9 60.4068C163.585 61.1948 163.126 61.9179 162.547 62.5399C161.976 63.1506 161.287 63.641 160.522 63.9824C159.742 64.3341 158.916 64.5112 158.047 64.5112C157.175 64.5112 156.35 64.3739 155.571 64.1044C154.789 63.8323 154.107 63.4203 153.521 62.8646C152.936 62.3101 152.479 61.612 152.148 60.7713C151.818 59.932 151.654 58.9437 151.654 57.8053C151.654 56.5874 151.818 55.5568 152.148 54.7174C152.478 53.8781 152.936 53.194 153.521 52.6652C154.109 52.1358 154.81 51.7465 155.571 51.5268ZM193.549 48.6263V67.5311H189.181V65.3621C188.43 66.2284 187.471 66.8868 186.299 67.3335C185.13 67.7827 183.943 68.0047 182.742 68.0047C181.242 68.0047 179.84 67.748 178.534 67.2346C177.272 66.7486 176.111 66.0327 175.112 65.1234C174.139 64.2326 173.351 63.1599 172.794 61.9662C172.224 60.7567 171.931 59.4356 171.939 58.0992C171.939 56.7311 172.222 55.4425 172.794 54.231C173.352 53.0375 174.139 51.9648 175.112 51.0738C176.111 50.1648 177.272 49.4489 178.534 48.9626C179.84 48.4492 181.242 48.1925 182.742 48.1925C183.944 48.1925 185.099 48.3966 186.21 48.8034C187.329 49.2175 188.343 49.8711 189.181 50.7183L189.091 48.6263H193.549ZM185.219 64.0979C184.438 64.4393 183.614 64.6113 182.742 64.6113C181.89 64.6148 181.047 64.4399 180.266 64.0979C179.487 63.7553 178.811 63.2894 178.241 62.6965C177.665 62.0958 177.208 61.3932 176.891 60.625C176.56 59.8344 176.395 58.9925 176.395 58.0992C176.393 56.3866 177.054 54.7392 178.241 53.5007C179.419 52.2815 181.044 51.5906 182.742 51.5859C183.595 51.5823 184.438 51.7572 185.219 52.0992C185.98 52.4281 186.669 52.9045 187.244 53.5007C187.821 54.1015 188.279 54.8045 188.596 55.5735C188.926 56.3615 189.091 57.2034 189.091 58.0992C189.096 58.9656 188.928 59.8242 188.596 60.625C188.265 61.413 187.816 62.1048 187.246 62.6965C186.669 63.2925 185.981 63.7688 185.219 64.0979ZM204.031 68.006H199.723V48.6353H204.032V50.3345C204.743 49.7146 205.6 49.2013 206.607 48.797C207.654 48.3858 208.77 48.1801 209.895 48.1912C210.665 48.1912 211.538 48.299 212.515 48.5146C213.498 48.733 214.427 49.1454 215.248 49.7275C216.091 50.3217 216.802 51.1431 217.379 52.1942C217.957 53.2466 218.246 54.607 218.246 56.2781V68.0034H214.16V56.2396C214.16 55.4053 214.018 54.6969 213.737 54.1168C213.483 53.5711 213.102 53.0934 212.626 52.723C212.164 52.371 211.635 52.116 211.072 51.9735C210.484 51.8246 209.88 51.7504 209.273 51.7527C208.799 51.7527 208.26 51.8336 207.652 51.994C207.045 52.157 206.475 52.4175 205.942 52.7833C205.405 53.1502 204.946 53.617 204.587 54.1578C204.217 54.7097 204.032 55.3899 204.032 56.1998V68.0073L204.031 68.006ZM222.876 66.4813H227.164V60.385L229.862 57.8862L236.537 66.4813H241.4L232.647 55.3065L240.782 47.7651H235.476L227.164 55.4631V40.5715L222.876 41.2582V66.4813Z" fill="#666777"/>
<path d="M88.4135 59.5943C88.5462 60.2976 88.9814 61.1177 89.4179 61.7107C89.8558 62.3023 90.3734 62.8144 90.9709 63.2508C91.5684 63.6846 92.2393 64.0183 92.9823 64.257C93.7386 64.4953 94.5276 64.6148 95.3208 64.6112C96.4282 64.6112 97.4558 64.4264 98.4022 64.0593C99.35 63.6897 100.159 63.2033 100.83 62.5988L103.453 64.9654C102.433 65.8869 101.186 66.6236 99.7144 67.1768C98.2426 67.7286 96.6316 68.0046 94.8842 68.0046C93.4277 68.0153 91.982 67.7541 90.6219 67.2345C89.3423 66.7511 88.1635 66.0357 87.1452 65.1246C86.1613 64.239 85.366 63.1653 84.8067 61.9674C84.2383 60.7569 83.9471 59.4356 83.9542 58.0991C83.9542 56.731 84.2234 55.4424 84.7629 54.2322C85.282 53.0498 86.0243 51.978 86.9494 51.0749C87.876 50.1738 88.9664 49.4568 90.1622 48.9624C91.3855 48.4491 92.6977 48.1924 94.0974 48.1924C95.5255 48.1924 96.8441 48.4157 98.0533 48.8636C99.2637 49.3115 100.312 50.0071 101.202 50.9556C102.09 51.9028 102.782 53.1066 103.277 54.5659C103.773 56.0264 104.02 57.7706 104.02 59.7958H91.5298L93.7884 56.4012H99.4736C99.4168 55.7737 99.2544 55.1602 98.9933 54.5864C98.7343 54.0119 98.362 53.4952 97.8987 53.0668C97.4217 52.6258 96.8662 52.2776 96.2608 52.0401C95.6337 51.7911 94.9126 51.6653 94.0974 51.6653C93.4465 51.6614 92.8008 51.7821 92.1955 52.0208C90.9651 52.5145 89.924 53.3851 89.2222 54.5068C88.8578 55.0869 88.5269 55.8762 88.4135 56.5577L88.4019 56.6335C88.1676 57.9656 88.1663 58.2891 88.4135 59.5943Z" fill="#666777"/>
<defs>
<linearGradient id="paint0_linear_1060_43930" x1="2.6479" y1="62.4363" x2="32.8034" y2="45.0659" gradientUnits="userSpaceOnUse">
<stop stop-color="#FCC85D"/>
<stop offset="0.26" stop-color="#FBC241"/>
<stop offset="0.59" stop-color="#F8B500"/>
<stop offset="0.84" stop-color="#F8AF05"/>
<stop offset="0.92" stop-color="#F8A111"/>
<stop offset="1" stop-color="#F7931D"/>
</linearGradient>
<linearGradient id="paint1_linear_1060_43930" x1="17.7287" y1="85.4314" x2="43.8739" y2="63.9281" gradientUnits="userSpaceOnUse">
<stop stop-color="#6100F6"/>
<stop offset="0.63769" stop-color="#865CF3"/>
</linearGradient>
<radialGradient id="paint2_radial_1060_43930" cx="0" cy="0" r="1" gradientUnits="userSpaceOnUse" gradientTransform="translate(42.9171 41.5048) scale(0.77171 1.1829)">
<stop stop-color="#FF9CDB"/>
<stop offset="0.14035" stop-color="#ED7EC5"/>
<stop offset="0.49718" stop-color="#E71E93"/>
</radialGradient>
</defs>
</svg>
