<svg width="215" height="100" viewBox="0 0 215 100" fill="none" xmlns="http://www.w3.org/2000/svg">
<path d="M25.8117 31.1358L25.8224 31.1326C30.9378 29.8332 35.4619 30.615 38.2659 33.7711C40.587 36.3818 41.3982 40.2407 40.8713 44.677C40.6009 46.8952 40.0021 49.2621 39.0868 51.6973C38.3249 53.7294 37.4171 55.8471 36.2238 57.9241C35.0756 59.9241 34.1614 61.4129 32.7835 63.1348C30.7318 65.6984 28.6693 67.4973 26.6079 68.5744C22.1428 70.9059 13.7803 69.9797 15.7537 67.83L15.7665 67.8161C17.3548 66.124 18.8803 64.3745 20.34 62.5711L20.3379 62.5744C22.8221 59.4941 24.7322 56.6663 26.1583 54.1219C26.1617 54.116 26.1649 54.1099 26.1679 54.1038C27.8677 51.0663 28.8721 48.4321 29.3303 46.2524C29.4484 45.6963 29.546 45.1476 29.6276 44.6086C29.6362 44.5465 29.6608 44.3209 29.6641 44.2695C29.7381 43.0075 29.5761 41.9658 29.2209 41.1615C27.4503 37.1487 18.5491 40.8246 11.9957 47.8268C9.86995 50.0973 8.79794 51.4054 5.42953 52.0973C1.86904 52.8278 0.572754 51.6407 0.572754 51.6407C2.30364 48.7273 4.46805 45.8738 6.9855 43.184C10.8271 39.0802 15.0261 35.7818 19.9366 33.3818C20.8422 32.9401 21.7715 32.5273 22.7287 32.1465C23.7334 31.7439 24.7632 31.4066 25.8117 31.1369V31.1358Z" fill="white"/>
<path d="M40.8475 44.8C40.5771 46.984 39.9837 49.308 39.0866 51.6984C38.3236 53.7294 37.4158 55.8471 36.2225 57.9241C35.0743 59.9241 34.1611 61.4139 32.7833 63.1348C30.7305 65.6984 28.6691 67.4984 26.6077 68.5744C22.1415 70.9059 13.78 69.9797 15.7534 67.83L15.7663 67.8161C17.3129 66.168 18.7993 64.4649 20.2228 62.7102C26.6485 59.523 35.1451 54.338 40.8475 44.8Z" fill="white"/>
<path d="M20.338 62.5722L20.2231 62.7102C26.652 59.5219 35.1701 54.3251 40.8478 44.8L40.8714 44.677C42.2278 40.0888 41.7771 35.861 38.6759 33.3914C36.6156 29.769 30.7651 29.2535 26.0747 30.7005C26.211 30.7326 26.3537 30.7722 26.5039 30.8182L26.3322 30.861L25.9566 30.9551L25.6991 31.0193C24.6904 31.2749 23.7235 31.6396 22.6923 32.0567L21.7716 32.4652C28.4655 31.8941 31.1246 37.8481 29.6781 44.5412C29.5955 44.9219 29.5321 45.2439 29.471 45.5529C29.4248 45.7861 29.3798 46.0128 29.3293 46.2513C29.1555 47.0834 28.9001 47.9829 28.5353 48.954C28.0041 50.5027 27.2186 52.2267 26.167 54.1038L26.1573 54.1219C24.7408 56.6513 22.8436 59.4588 20.338 62.5722Z" fill="white"/>
<path fill-rule="evenodd" clip-rule="evenodd" d="M126.34 56.2642H122.7V34.4043L126.34 33.8096V41.8054C127.042 41.1272 127.871 40.5924 128.778 40.231C129.704 39.8578 130.78 39.6717 132.005 39.6717C133.255 39.6717 134.412 39.892 135.476 40.3326C136.538 40.7733 137.458 41.3765 138.233 42.1433C139.013 42.918 139.632 43.8387 140.053 44.8524C140.49 45.892 140.709 46.9979 140.709 48.1711C140.716 49.3104 140.493 50.4394 140.053 51.4909C139.632 52.5044 139.013 53.4248 138.233 54.1989C137.442 54.9772 136.505 55.5928 135.476 56.0107C134.413 56.4513 133.255 56.6706 132.005 56.6706C130.83 56.6706 129.773 56.4845 128.835 56.1123C127.918 55.7524 127.072 55.2307 126.34 54.5722V56.2642ZM116.892 56.6546C117.932 56.5882 118.984 56.4043 120.05 56.0995L119.31 53.7818C118.529 53.8685 117.867 53.9112 117.321 53.9112C116.776 53.9112 116.334 53.8364 115.996 53.6834C115.658 53.5316 115.419 53.3027 115.276 52.9989C115.132 52.6931 115.061 52.2802 115.061 51.7583V43.3358H120.128V40.5283H115.061V36.3497L111.28 36.9241V40.5283H108.551V43.3358H111.28V51.2685C111.28 52.7048 111.539 53.8193 112.06 54.6139C112.579 55.4086 113.255 55.9626 114.086 56.2792C114.917 56.5947 115.853 56.7198 116.892 56.6546ZM50.6665 56.6717H54.257V56.6706V46.831C54.257 46.1583 54.4094 45.5904 54.7185 45.1305C55.0172 44.6797 55.4005 44.2908 55.8474 43.985C56.2814 43.6869 56.7634 43.4648 57.2724 43.3283C57.7121 43.203 58.1662 43.1347 58.6234 43.1251C59.1294 43.1235 59.6335 43.186 60.1236 43.3112C60.5933 43.4293 61.034 43.6414 61.4188 43.9348C61.8148 44.2438 62.1317 44.6418 62.3438 45.0963C62.5777 45.5797 62.6958 46.169 62.6958 46.8663V56.6706H66.1039V46.8995C66.1039 45.507 65.8624 44.3733 65.3817 43.4963C64.8999 42.6203 64.3075 41.9348 63.6047 41.4406C62.9007 40.9465 62.1431 40.6096 61.3276 40.43C60.5142 40.2503 59.7856 40.1604 59.1439 40.1604C58.2062 40.1507 57.2755 40.3221 56.4032 40.6652C55.5662 41.0011 54.8494 41.4289 54.257 41.9455V40.5294H50.6665V56.6717ZM80.2514 68.9615C80.7611 69.2353 81.3288 69.3722 81.9512 69.3722V69.3711C82.538 69.3806 83.1174 69.2395 83.6338 68.9615C84.1371 68.6877 84.533 68.3102 84.8206 67.8289C85.1082 67.3412 85.252 66.7968 85.252 66.1968C85.252 65.5957 85.1082 65.0546 84.8206 64.5733C84.533 64.0856 84.1381 63.7048 83.6338 63.4321C83.1175 63.1537 82.5381 63.0122 81.9512 63.0214C81.358 63.0136 80.7728 63.1576 80.2514 63.4396C79.7481 63.7144 79.3522 64.092 79.0646 64.5733C78.7824 65.0546 78.6418 65.5957 78.6418 66.1968C78.6337 66.7657 78.7798 67.3262 79.0646 67.8193C79.3503 68.2992 79.7602 68.6937 80.2514 68.9615ZM64.5189 69.1487C64.9503 69.2973 65.401 69.3722 65.8678 69.3722C66.384 69.3722 66.8186 69.2973 67.1716 69.1487C67.5257 68.9936 67.7865 68.7893 67.955 68.5337C68.1288 68.2717 68.2157 67.9829 68.2157 67.6685C68.2157 67.2877 68.117 66.9872 67.9185 66.7668C67.721 66.5412 67.4785 66.3743 67.1909 66.2674C66.9087 66.154 66.5363 66.0417 66.0749 65.9294C65.6854 65.8342 65.3731 65.7476 65.1392 65.6706C64.9117 65.5872 64.7196 65.4717 64.5651 65.323C64.4149 65.1679 64.3397 64.9658 64.3397 64.7166C64.3338 64.3942 64.4886 64.0897 64.7529 63.9037C65.0351 63.6898 65.4515 63.5829 66.0041 63.5829C66.3024 63.5846 66.5988 63.6297 66.884 63.7166C67.1842 63.8001 67.4694 63.9296 67.7296 64.1005L67.955 63.5743C67.7028 63.4021 67.4034 63.2685 67.0546 63.1733C66.7134 63.0717 66.3625 63.0214 66.003 63.0214C65.4879 63.0214 65.0555 63.0984 64.7078 63.2535C64.3601 63.4075 64.1026 63.616 63.9341 63.8781C63.7667 64.1337 63.683 64.4182 63.683 64.7337C63.683 65.1198 63.7817 65.4267 63.9792 65.6524C64.1794 65.8756 64.4288 66.0495 64.7078 66.1604C65.0789 66.2945 65.4572 66.4077 65.841 66.4995C66.1546 66.5705 66.4639 66.6598 66.7671 66.7668C66.9764 66.8364 67.1672 66.9523 67.3251 67.1059C67.4807 67.2556 67.559 67.4546 67.559 67.7048C67.559 68.031 67.4184 68.2984 67.1362 68.507C66.855 68.7091 66.4323 68.8096 65.8689 68.8096C65.4665 68.8096 65.0769 68.7412 64.6992 68.6043C64.3215 68.462 64.0189 68.2781 63.7903 68.0513L63.5296 68.5604C63.7635 68.8043 64.0929 69 64.5189 69.1487ZM81.9512 68.784C82.4491 68.784 82.8987 68.6727 83.3011 68.4524C83.7025 68.2278 84.0169 67.9177 84.2454 67.5251C84.4729 67.1273 84.5867 66.6845 84.5867 66.1968C84.5867 65.7091 84.4729 65.2685 84.2454 64.877C84.0246 64.4851 83.6973 64.1633 83.3011 63.9487C82.8887 63.7198 82.4232 63.6029 81.9512 63.6096C81.4769 63.604 81.0093 63.7208 80.5937 63.9487C80.196 64.1646 79.8658 64.4859 79.6398 64.877C79.4098 65.2787 79.2919 65.7344 79.2985 66.1968C79.2985 66.6845 79.4123 67.1273 79.6398 67.5251C79.8737 67.9177 80.1924 68.2267 80.5937 68.4535C81.0015 68.6727 81.4544 68.7829 81.9512 68.7829V68.784ZM96.9432 66.0984V63.646H100.595V63.0749H96.2779V69.3177H96.9432V66.6695H100.199V66.0984H96.9432ZM112.771 63.646H110.557V63.0749H115.648V63.646H113.435V69.3177H112.77V63.6471L112.771 63.646ZM132.722 69.3177L134.845 63.0749H134.206L132.363 68.4706L130.509 63.0749H129.889L128.009 68.4439L126.192 63.0749H125.509L127.631 69.3177H128.325L130.177 63.9936L132.02 69.3177H132.722ZM149.354 67.6503H145.846L145.09 69.3187H144.398L147.276 63.0749H147.933L150.811 69.3177H150.109L149.354 67.6503ZM147.6 63.7615L149.111 67.1155H146.089L147.6 63.7615ZM165.685 69.3187L164.247 67.3112C164.084 67.3294 163.917 67.338 163.743 67.338H162.052V69.3177H161.386V63.0749H163.743C164.546 63.0749 165.175 63.2652 165.631 63.646C166.087 64.0267 166.315 64.5497 166.315 65.215C166.315 65.7027 166.189 66.1166 165.937 66.4556C165.69 66.7872 165.337 67.0289 164.876 67.1775L166.414 69.3177H165.685V69.3187ZM165.155 66.3658C164.825 66.6396 164.348 66.7765 163.724 66.7765H162.052V63.646H163.724C164.348 63.646 164.825 63.7829 165.155 64.0556C165.484 64.3241 165.648 64.7102 165.648 65.215C165.648 65.7091 165.484 66.092 165.155 66.3658ZM181.871 68.7476V69.3177H177.419V63.0749H181.737V63.646H178.086V65.8663H181.341V66.4289H178.086V68.7476H181.871ZM105.979 56.6717H101.579L96.9926 50.8802L92.3698 56.6717H87.9701L94.7928 48.123L88.4551 40.1604H92.8548L96.9926 45.3305L101.094 40.1604H105.494L99.1924 48.123L105.979 56.6717ZM129.642 42.939C130.291 42.7476 130.979 42.6524 131.706 42.6524C132.415 42.649 133.118 42.7929 133.768 43.0749C134.404 43.3471 134.978 43.7443 135.456 44.2428C136.454 45.3084 137.004 46.7139 136.995 48.1711C137 48.9136 136.86 49.65 136.583 50.339C136.32 50.9957 135.938 51.5983 135.456 52.1166C134.98 52.6255 134.406 53.0342 133.768 53.3187C133.118 53.6118 132.43 53.7594 131.706 53.7594C130.979 53.7594 130.291 53.6449 129.642 53.4203C128.991 53.1936 128.422 52.8503 127.934 52.3872C127.447 51.9251 127.066 51.3433 126.79 50.6428C126.515 49.9433 126.378 49.1198 126.378 48.1711C126.378 47.1562 126.515 46.2973 126.79 45.5979C127.065 44.8984 127.447 44.3283 127.934 43.8877C128.424 43.4465 129.008 43.1221 129.642 42.939ZM161.291 40.5219V56.2759H157.651V54.4685C157.025 55.1904 156.226 55.739 155.249 56.1112C154.275 56.4856 153.286 56.6706 152.285 56.6706C151.035 56.6706 149.867 56.4567 148.779 56.0289C147.727 55.6239 146.759 55.0273 145.926 54.2695C145.116 53.5272 144.459 52.6332 143.995 51.6385C143.52 50.6306 143.276 49.5297 143.282 48.416C143.282 47.2759 143.518 46.2021 143.995 45.1925C144.46 44.198 145.116 43.3041 145.926 42.5615C146.759 41.804 147.727 41.2074 148.779 40.8021C149.867 40.3743 151.035 40.1604 152.285 40.1604C153.287 40.1604 154.249 40.3305 155.175 40.6695C156.108 41.0146 156.953 41.5593 157.651 42.2652L157.576 40.5219H161.291ZM154.349 53.415C153.699 53.6995 153.012 53.8428 152.285 53.8428C151.575 53.8457 150.872 53.6999 150.222 53.415C149.573 53.1294 149.009 52.7412 148.534 52.2471C148.054 51.7465 147.673 51.1611 147.409 50.5209C147.134 49.862 146.996 49.1604 146.996 48.416C146.994 46.9889 147.545 45.616 148.534 44.584C149.516 43.568 150.87 42.9922 152.285 42.9882C152.996 42.9853 153.699 43.131 154.349 43.416C154.984 43.6901 155.557 44.0871 156.037 44.584C156.517 45.0846 156.899 45.6704 157.164 46.3112C157.438 46.9679 157.576 47.6695 157.576 48.416C157.58 49.138 157.44 49.8536 157.164 50.5209C156.888 51.1775 156.513 51.754 156.038 52.2471C155.558 52.7438 154.984 53.1407 154.349 53.415ZM170.026 56.6717H166.436V40.5294H170.027V41.9455C170.619 41.4289 171.334 41.0011 172.173 40.6642C173.045 40.3215 173.975 40.1501 174.912 40.1594C175.554 40.1594 176.282 40.2492 177.096 40.4289C177.915 40.6108 178.69 40.9545 179.373 41.4396C180.076 41.9348 180.668 42.6193 181.149 43.4952C181.631 44.3722 181.871 45.5059 181.871 46.8984V56.6695H178.466V46.8663C178.466 46.1711 178.348 45.5808 178.115 45.0973C177.902 44.6426 177.585 44.2445 177.188 43.9358C176.804 43.6425 176.363 43.43 175.893 43.3112C175.403 43.1872 174.9 43.1254 174.394 43.1273C173.999 43.1273 173.55 43.1947 173.043 43.3283C172.538 43.4642 172.062 43.6813 171.618 43.9861C171.171 44.2919 170.788 44.6808 170.489 45.1316C170.181 45.5915 170.027 46.1583 170.027 46.8332V56.6727L170.026 56.6717ZM185.73 55.4011H189.304V50.3209L191.552 48.2385L197.115 55.4011H201.167L193.873 46.0888L200.651 39.8043H196.23L189.304 46.2193V33.8096L185.73 34.3818V55.4011Z" fill="white"/>
<path d="M73.6776 49.662C73.7881 50.2481 74.1509 50.9316 74.5146 51.4257C74.8795 51.9187 75.3109 52.3455 75.8088 52.7091C76.3067 53.0706 76.8658 53.3487 77.4849 53.5476C78.1152 53.7462 78.7726 53.8458 79.4336 53.8428C80.3565 53.8428 81.2128 53.6888 82.0015 53.3829C82.7913 53.0749 83.4652 52.6695 84.0243 52.1658L86.2102 54.138C85.3603 54.9059 84.3215 55.5198 83.095 55.9808C81.8685 56.4406 80.526 56.6706 79.0699 56.6706C77.8561 56.6796 76.6514 56.4619 75.518 56.0289C74.4516 55.626 73.4693 55.0299 72.6206 54.2706C71.8007 53.5326 71.138 52.6379 70.6719 51.6396C70.1983 50.6308 69.9556 49.5298 69.9615 48.416C69.9615 47.2759 70.1858 46.2021 70.6354 45.1936C71.068 44.2083 71.6866 43.3151 72.4575 42.5626C73.2297 41.8116 74.1383 41.2141 75.1349 40.8021C76.1543 40.3743 77.2478 40.1604 78.4142 40.1604C79.6043 40.1604 80.7031 40.3465 81.7107 40.7198C82.7194 41.0931 83.5929 41.6727 84.3344 42.4631C85.0748 43.2524 85.6511 44.2556 86.0642 45.4717C86.4774 46.6888 86.6834 48.1422 86.6834 49.8299H76.2745L78.1567 47.0011H82.8943C82.847 46.4782 82.7117 45.9669 82.4941 45.4888C82.2782 45.01 81.968 44.5794 81.582 44.2225C81.1845 43.855 80.7215 43.5648 80.217 43.3668C79.6944 43.1594 79.0935 43.0545 78.4142 43.0545C77.8717 43.0513 77.3337 43.1519 76.8293 43.3508C75.804 43.7622 74.9363 44.4877 74.3515 45.4225C74.0478 45.9059 73.7721 46.5636 73.6776 47.1316L73.668 47.1947C73.4727 48.3048 73.4716 48.5743 73.6776 49.662Z" fill="white"/>
</svg>
