<svg width="121" height="25" viewBox="0 0 121 25" fill="none" xmlns="http://www.w3.org/2000/svg">
<path d="M15.4871 1.68167L15.4935 1.67974C18.5628 0.900064 21.2773 1.36915 22.9596 3.26284C24.3523 4.82926 24.839 7.14456 24.5229 9.80637C24.3607 11.1373 24.0014 12.5574 23.4522 14.0186C22.995 15.2378 22.4503 16.5084 21.7344 17.7546C21.0455 18.9546 20.4969 19.8479 19.6702 20.881C18.4392 22.4192 17.2017 23.4986 15.9648 24.1448C13.2858 25.5437 8.26826 24.988 9.4523 23.6981L9.46003 23.6898C10.4129 22.6745 11.3283 21.6249 12.2041 20.5428L12.2028 20.5448C13.6933 18.6966 14.8394 17 15.6951 15.4733C15.6971 15.4697 15.699 15.4661 15.7009 15.4624C16.7207 13.64 17.3234 12.0594 17.5983 10.7516C17.6691 10.4179 17.7277 10.0887 17.7766 9.7653C17.7818 9.72809 17.7966 9.59268 17.7985 9.56188C17.843 8.80466 17.7457 8.17964 17.5326 7.69707C16.4703 5.28937 11.1295 7.49493 7.19754 11.6962C5.92207 13.0586 5.27886 13.8434 3.25782 14.2586C1.12152 14.6969 0.34375 13.9846 0.34375 13.9846C1.38228 12.2365 2.68093 10.5244 4.1914 8.91054C6.49638 6.4483 9.01577 4.46926 11.962 3.02926C12.5054 2.76423 13.063 2.51653 13.6373 2.28809C14.2401 2.04647 14.858 1.84412 15.4871 1.68231V1.68167Z" fill="url(#paint0_linear_1126_5889)"/>
<path d="M24.5087 9.88037C24.3464 11.1907 23.9904 12.5852 23.4521 14.0194C22.9944 15.238 22.4497 16.5086 21.7337 17.7548C21.0448 18.9548 20.4969 19.8487 19.6702 20.8812C18.4385 22.4194 17.2016 23.4994 15.9648 24.145C13.2851 25.5439 8.26822 24.9882 9.45226 23.6983L9.45998 23.69C10.3879 22.7012 11.2798 21.6793 12.1339 20.6265C15.9893 18.7142 21.0873 15.6032 24.5087 9.88037Z" fill="url(#paint1_linear_1126_5889)"/>
<path d="M12.2027 20.5435L12.1338 20.6263C15.9911 18.7134 21.102 15.5953 24.5086 9.88021L24.5228 9.80641C25.3366 7.05347 25.0662 4.51679 23.2054 3.03508C21.9692 0.861601 18.459 0.552296 15.6447 1.42053C15.7265 1.43978 15.8121 1.46353 15.9022 1.49112L15.7992 1.51679L15.5739 1.57326L15.4194 1.61176C14.8141 1.76513 14.234 1.98395 13.6153 2.23422L13.0629 2.47935C17.0792 2.13668 18.6747 5.70909 17.8068 9.72492C17.7572 9.95337 17.7192 10.1465 17.6825 10.332C17.6548 10.4719 17.6278 10.6079 17.5975 10.751C17.4932 11.2503 17.34 11.7899 17.1211 12.3726C16.8023 13.3018 16.331 14.3363 15.7001 15.4625L15.6943 15.4734C14.8444 16.991 13.7061 18.6755 12.2027 20.5435Z" fill="url(#paint2_radial_1126_5889)"/>
<path fill-rule="evenodd" clip-rule="evenodd" d="M75.8042 16.7589H73.6203V3.64292L75.8042 3.28613V8.08357C76.2254 7.67667 76.7223 7.35579 77.267 7.13897C77.8227 6.91501 78.4678 6.80335 79.2031 6.80335C79.9532 6.80335 80.6473 6.93554 81.2853 7.19993C81.9227 7.46431 82.4745 7.82624 82.94 8.28635C83.4079 8.75118 83.779 9.30358 84.032 9.9118C84.294 10.5355 84.4254 11.1991 84.4254 11.903C84.4297 12.5866 84.2959 13.264 84.032 13.8949C83.7791 14.503 83.408 15.0552 82.94 15.5197C82.4653 15.9867 81.903 16.356 81.2853 16.6068C80.6479 16.8712 79.9532 17.0027 79.2031 17.0027C78.4981 17.0027 77.8639 16.8911 77.3012 16.6677C76.7506 16.4518 76.2435 16.1388 75.8042 15.7437V16.7589ZM70.1351 16.9931C70.759 16.9533 71.3906 16.8429 72.03 16.66L71.5857 15.2694C71.1176 15.3214 70.7204 15.3471 70.3927 15.3471C70.0656 15.3471 69.8003 15.3022 69.5975 15.2104C69.3947 15.1193 69.2511 14.982 69.1655 14.7997C69.0792 14.6162 69.0367 14.3685 69.0367 14.0553V9.00185H72.077V7.31736H69.0367V4.8102L66.7678 5.1548V7.31736H65.1305V9.00185H66.7678V13.7614C66.7678 14.6232 66.9236 15.2919 67.2359 15.7687C67.5475 16.2455 67.9531 16.5779 68.4515 16.7678C68.9504 16.9571 69.5119 17.0322 70.1351 16.9931ZM30.3999 17.0034H32.5542V17.0027V11.099C32.5542 10.6953 32.6457 10.3546 32.8311 10.0786C33.0103 9.8082 33.2403 9.57483 33.5084 9.39137C33.7689 9.21251 34.058 9.07926 34.3634 8.99736C34.6273 8.92218 34.8997 8.8812 35.1741 8.87544C35.4776 8.87446 35.7801 8.91198 36.0742 8.9871C36.356 9.05793 36.6204 9.18522 36.8513 9.36121C37.0889 9.54662 37.279 9.78542 37.4063 10.0581C37.5466 10.3482 37.6175 10.7017 37.6175 11.1201V17.0027H39.6623V11.14C39.6623 10.3045 39.5175 9.62431 39.229 9.09811C38.9399 8.57255 38.5845 8.16121 38.1628 7.86474C37.7404 7.56827 37.2859 7.36613 36.7966 7.25833C36.3085 7.15052 35.8713 7.09661 35.4863 7.09661C34.9237 7.09077 34.3653 7.19363 33.8419 7.3995C33.3397 7.601 32.9096 7.85768 32.5542 8.16763V7.318H30.3999V17.0034ZM48.1509 24.3773C48.4567 24.5415 48.7973 24.6237 49.1707 24.6237V24.623C49.5228 24.6287 49.8705 24.5441 50.1803 24.3773C50.4822 24.213 50.7198 23.9865 50.8924 23.6977C51.0649 23.4051 51.1512 23.0784 51.1512 22.7184C51.1512 22.3578 51.0649 22.0331 50.8924 21.7443C50.7198 21.4517 50.4829 21.2232 50.1803 21.0596C49.8705 20.8926 49.5229 20.8077 49.1707 20.8132C48.8148 20.8085 48.4637 20.8949 48.1509 21.0641C47.8489 21.229 47.6113 21.4555 47.4388 21.7443C47.2694 22.0331 47.1851 22.3578 47.1851 22.7184C47.1802 23.0598 47.2679 23.3961 47.4388 23.6919C47.6102 23.9799 47.8561 24.2166 48.1509 24.3773ZM38.7114 24.4896C38.9702 24.5788 39.2406 24.6237 39.5207 24.6237C39.8304 24.6237 40.0911 24.5788 40.303 24.4896C40.5154 24.3965 40.6719 24.2739 40.773 24.1206C40.8773 23.9634 40.9294 23.7901 40.9294 23.6014C40.9294 23.373 40.8702 23.1927 40.7511 23.0605C40.6326 22.9251 40.4871 22.825 40.3146 22.7608C40.1452 22.6928 39.9218 22.6254 39.6449 22.558C39.4112 22.5009 39.2239 22.4489 39.0835 22.4027C38.947 22.3527 38.8318 22.2834 38.7391 22.1942C38.6489 22.1011 38.6038 21.9798 38.6038 21.8303C38.6003 21.6368 38.6931 21.4542 38.8517 21.3426C39.0211 21.2143 39.2709 21.1501 39.6025 21.1501C39.7814 21.1511 39.9593 21.1782 40.1304 21.2303C40.3105 21.2804 40.4817 21.3581 40.6378 21.4607L40.773 21.145C40.6217 21.0416 40.442 20.9614 40.2328 20.9043C40.028 20.8434 39.8175 20.8132 39.6018 20.8132C39.2928 20.8132 39.0333 20.8594 38.8247 20.9524C38.6161 21.0448 38.4616 21.17 38.3605 21.3272C38.26 21.4806 38.2098 21.6513 38.2098 21.8406C38.2098 22.0722 38.269 22.2564 38.3875 22.3918C38.5076 22.5257 38.6573 22.6301 38.8247 22.6966C39.0473 22.7771 39.2743 22.845 39.5046 22.9C39.6928 22.9427 39.8783 22.9962 40.0602 23.0605C40.1858 23.1022 40.3003 23.1717 40.395 23.2639C40.4884 23.3537 40.5354 23.4731 40.5354 23.6232C40.5354 23.819 40.451 23.9794 40.2817 24.1045C40.113 24.2258 39.8594 24.2861 39.5213 24.2861C39.2799 24.2861 39.0462 24.2451 38.8195 24.1629C38.5929 24.0776 38.4113 23.9672 38.2742 23.8312L38.1177 24.1366C38.2581 24.2829 38.4558 24.4004 38.7114 24.4896ZM49.1707 24.2707C49.4695 24.2707 49.7392 24.204 49.9807 24.0718C50.2215 23.937 50.4101 23.7509 50.5473 23.5154C50.6838 23.2767 50.752 23.0111 50.752 22.7184C50.752 22.4258 50.6838 22.1614 50.5473 21.9266C50.4148 21.6914 50.2184 21.4984 49.9807 21.3696C49.7332 21.2323 49.4539 21.1621 49.1707 21.1661C48.8862 21.1627 48.6056 21.2328 48.3562 21.3696C48.1176 21.4991 47.9195 21.6919 47.7839 21.9266C47.6459 22.1675 47.5752 22.441 47.5791 22.7184C47.5791 23.0111 47.6474 23.2767 47.7839 23.5154C47.9242 23.7509 48.1154 23.9364 48.3562 24.0724C48.6009 24.204 48.8726 24.2701 49.1707 24.2701V24.2707ZM58.1659 22.6594V21.188H60.357V20.8453H57.7668V24.5909H58.1659V23.0021H60.1194V22.6594H58.1659ZM67.6627 21.188H66.3345V20.8453H69.3889V21.188H68.0613V24.5909H67.6621V21.1886L67.6627 21.188ZM79.6332 24.5909L80.9067 20.8453H80.5236L79.4175 24.0827L78.3056 20.8453H77.9334L76.8054 24.0667L75.7154 20.8453H75.3052L76.5788 24.5909H76.9947L78.106 21.3965L79.2121 24.5909H79.6332ZM89.6122 23.5905H87.5075L87.0542 24.5916H86.6389L88.3657 20.8453H88.7598L90.4866 24.5909H90.0655L89.6122 23.5905ZM88.5602 21.2573L89.4667 23.2697H87.6536L88.5602 21.2573ZM99.411 24.5916L98.5482 23.3871C98.4504 23.398 98.3499 23.4031 98.2456 23.4031H97.2309V24.5909H96.8317V20.8453H98.2456C98.7279 20.8453 99.1052 20.9595 99.3788 21.188C99.6524 21.4164 99.7889 21.7302 99.7889 22.1293C99.7889 22.422 99.7136 22.6703 99.5623 22.8737C99.4142 23.0727 99.2024 23.2177 98.9255 23.3069L99.8482 24.5909H99.411V24.5916ZM99.0929 22.8198C98.8953 22.9841 98.6088 23.0662 98.2347 23.0662H97.2309V21.188H98.2347C98.6088 21.188 98.8953 21.2701 99.0929 21.4337C99.2906 21.5948 99.3891 21.8265 99.3891 22.1293C99.3891 22.4258 99.2906 22.6555 99.0929 22.8198ZM109.123 24.2489V24.5909H106.451V20.8453H109.042V21.188H106.851V22.5201H108.805V22.8577H106.851V24.2489H109.123ZM63.5872 17.0034H60.9474L58.1956 13.5285L55.4219 17.0034H52.7821L56.8757 11.8742L53.0731 7.09661H55.7129L58.1956 10.1986L60.6564 7.09661H63.2961L59.5155 11.8742L63.5872 17.0034ZM77.7854 8.76378C78.1749 8.64891 78.5876 8.5918 79.0235 8.5918C79.4492 8.58976 79.8706 8.67608 80.261 8.84528C80.6424 9.00858 80.9869 9.24692 81.2737 9.54603C81.8721 10.1854 82.2025 11.0287 82.197 11.903C82.2002 12.3485 82.1162 12.7903 81.9498 13.2038C81.7923 13.5978 81.5631 13.9593 81.2737 14.2703C80.9878 14.5756 80.6434 14.8209 80.261 14.9916C79.8708 15.1674 79.4581 15.256 79.0235 15.256C78.5876 15.256 78.1749 15.1873 77.7854 15.0525C77.3945 14.9165 77.0533 14.7105 76.7603 14.4327C76.468 14.1554 76.2395 13.8063 76.074 13.386C75.9092 12.9663 75.8268 12.4722 75.8268 11.903C75.8268 11.294 75.9092 10.7788 76.074 10.3591C76.2388 9.93939 76.468 9.59736 76.7603 9.33298C77.0543 9.06824 77.4048 8.8736 77.7854 8.76378ZM96.7744 7.31351V16.7659H94.5905V15.6814C94.2151 16.1146 93.7355 16.4438 93.1496 16.6671C92.5649 16.8917 91.9713 17.0027 91.3712 17.0027C90.6212 17.0027 89.92 16.8744 89.2671 16.6177C88.6359 16.3747 88.0556 16.0167 87.5558 15.5621C87.0694 15.1167 86.6756 14.5803 86.3968 13.9835C86.1118 13.3787 85.9657 12.7182 85.9693 12.05C85.9693 11.3659 86.111 10.7216 86.3968 10.1159C86.6758 9.51913 87.0695 8.98279 87.5558 8.53726C88.0557 8.08275 88.636 7.7248 89.2671 7.48164C89.92 7.22496 90.6212 7.09661 91.3712 7.09661C91.9719 7.09661 92.5495 7.19865 93.1051 7.40207C93.6645 7.60909 94.1716 7.93592 94.5905 8.3595L94.5454 7.31351H96.7744ZM92.6094 15.0493C92.2192 15.22 91.8071 15.306 91.3712 15.306C90.9451 15.3078 90.5233 15.2203 90.1331 15.0493C89.7436 14.878 89.4056 14.6451 89.1203 14.3486C88.8326 14.0483 88.6038 13.697 88.4456 13.3129C88.2801 12.9176 88.1977 12.4966 88.1977 12.05C88.1964 11.1937 88.5269 10.37 89.1203 9.75073C89.7097 9.14113 90.5219 8.79568 91.3712 8.7933C91.7974 8.79151 92.2192 8.87896 92.6094 9.04998C92.9902 9.21443 93.3344 9.45262 93.6221 9.75073C93.9104 10.0511 94.1397 10.4026 94.2982 10.7871C94.463 11.1811 94.5454 11.6021 94.5454 12.05C94.5481 12.4831 94.4641 12.9125 94.2982 13.3129C94.1327 13.7069 93.908 14.0528 93.6228 14.3486C93.3347 14.6466 92.9903 14.8848 92.6094 15.0493ZM102.015 17.0034H99.8617V7.318H102.016V8.16763C102.371 7.85768 102.8 7.601 103.304 7.39886C103.827 7.19326 104.385 7.09041 104.947 7.09597C105.332 7.09597 105.769 7.14988 106.258 7.25768C106.749 7.36685 107.214 7.57305 107.624 7.8641C108.046 8.16121 108.401 8.57191 108.69 9.09747C108.979 9.62367 109.123 10.3039 109.123 11.1394V17.0021H107.08V11.1201C107.08 10.703 107.009 10.3488 106.869 10.0588C106.741 9.78591 106.551 9.54706 106.313 9.36185C106.082 9.18585 105.818 9.05836 105.536 8.9871C105.242 8.91267 104.94 8.87559 104.636 8.87672C104.4 8.87672 104.13 8.91715 103.826 8.99736C103.523 9.07886 103.237 9.20913 102.971 9.39202C102.703 9.57547 102.473 9.80884 102.294 10.0793C102.109 10.3552 102.016 10.6953 102.016 11.1003V17.004L102.015 17.0034ZM111.438 16.241H113.582V13.1929L114.931 11.9435L118.269 16.241H120.7L116.324 10.6536L120.391 6.88292H117.738L113.582 10.7319V3.28613L111.438 3.62945V16.241Z" fill="#666777"/>
<path d="M44.2068 12.7976C44.2731 13.1493 44.4907 13.5594 44.709 13.8558C44.9279 14.1517 45.1867 14.4077 45.4855 14.6259C45.7842 14.8428 46.1196 15.0096 46.4911 15.129C46.8693 15.2481 47.2638 15.3079 47.6604 15.3061C48.2141 15.3061 48.7279 15.2137 49.2011 15.0302C49.675 14.8453 50.0793 14.6021 50.4148 14.2999L51.7263 15.4832C51.2164 15.944 50.5931 16.3123 49.8572 16.5889C49.1213 16.8648 48.3158 17.0028 47.4421 17.0028C46.7138 17.0082 45.991 16.8776 45.311 16.6177C44.6712 16.376 44.0818 16.0183 43.5726 15.5628C43.0806 15.12 42.683 14.5831 42.4033 13.9842C42.1192 13.3789 41.9736 12.7183 41.9771 12.05C41.9771 11.366 42.1117 10.7217 42.3815 10.1166C42.641 9.52541 43.0122 8.98948 43.4747 8.53796C43.938 8.08737 44.4832 7.7289 45.0811 7.48171C45.6928 7.22502 46.3489 7.09668 47.0487 7.09668C47.7628 7.09668 48.4221 7.20834 49.0266 7.43229C49.6319 7.65625 50.1559 8.00406 50.6008 8.47828C51.0451 8.95187 51.3908 9.55379 51.6387 10.2834C51.8866 11.0137 52.0102 11.8858 52.0102 12.8984H45.7649L46.8942 11.2011H49.7368C49.7084 10.8873 49.6272 10.5806 49.4966 10.2937C49.3671 10.0064 49.181 9.74807 48.9494 9.5339C48.7109 9.31339 48.4331 9.13928 48.1304 9.02053C47.8168 8.89604 47.4563 8.83315 47.0487 8.83315C46.7232 8.8312 46.4004 8.89155 46.0978 9.0109C45.4826 9.25775 44.962 9.69302 44.6111 10.2539C44.4289 10.544 44.2634 10.9386 44.2068 11.2794L44.201 11.3172C44.0838 11.9833 44.0831 12.145 44.2068 12.7976Z" fill="#666777"/>
<defs>
<linearGradient id="paint0_linear_1126_5889" x1="1.32395" y1="14.2184" x2="16.4017" y2="5.5332" gradientUnits="userSpaceOnUse">
<stop stop-color="#FCC85D"/>
<stop offset="0.26" stop-color="#FBC241"/>
<stop offset="0.59" stop-color="#F8B500"/>
<stop offset="0.84" stop-color="#F8AF05"/>
<stop offset="0.92" stop-color="#F8A111"/>
<stop offset="1" stop-color="#F7931D"/>
</linearGradient>
<linearGradient id="paint1_linear_1126_5889" x1="8.86436" y1="25.7161" x2="21.9369" y2="14.9644" gradientUnits="userSpaceOnUse">
<stop stop-color="#6100F6"/>
<stop offset="0.63769" stop-color="#865CF3"/>
</linearGradient>
<radialGradient id="paint2_radial_1126_5889" cx="0" cy="0" r="1" gradientUnits="userSpaceOnUse" gradientTransform="translate(21.4583 3.75263) scale(0.385855 0.591452)">
<stop stop-color="#FF9CDB"/>
<stop offset="0.14035" stop-color="#ED7EC5"/>
<stop offset="0.49718" stop-color="#E71E93"/>
</radialGradient>
</defs>
</svg>
