<svg width="258" height="120" viewBox="0 0 258 120" fill="none" xmlns="http://www.w3.org/2000/svg">
<path fill-rule="evenodd" clip-rule="evenodd" d="M29.401 86.7096L12.7667 57.7193V86.7096H0V36.8751H12.7667L29.3668 65.8311V36.8751H42.0993V86.7096H29.401ZM55.3451 34C56.6458 34 57.8095 34.2624 58.8363 34.7872C59.8631 35.312 60.6674 36.0422 61.2493 36.9778C61.8312 37.9133 62.1221 38.9743 62.1221 40.1609C62.1221 41.3702 61.8369 42.4427 61.2664 43.3782C60.6959 44.3138 59.8916 45.0439 58.8534 45.5687C57.8152 46.0936 56.6458 46.356 55.3451 46.356C54.0217 46.356 52.8466 46.0936 51.8197 45.5687C50.7929 45.0439 49.9886 44.3138 49.4067 43.3782C48.8249 42.4427 48.5339 41.3702 48.5339 40.1609C48.5339 38.9743 48.8249 37.9133 49.4067 36.9778C49.9886 36.0422 50.7929 35.312 51.8197 34.7872C52.8466 34.2624 54.0217 34 55.3451 34ZM49.2527 86.7096V49.676H61.5744V86.7096H49.2527ZM81.4604 47.2116V57.1375H100.696V67.4398H81.4604V86.7096H68.6937V36.8751H102.442V47.2116H81.4604ZM113.223 34C114.524 34 115.687 34.2624 116.714 34.7872C117.741 35.312 118.545 36.0422 119.127 36.9778C119.709 37.9133 120 38.9743 120 40.1609C120 41.3702 119.715 42.4427 119.144 43.3782C118.574 44.3138 117.77 45.0439 116.731 45.5687C115.693 46.0936 114.524 46.356 113.223 46.356C111.9 46.356 110.724 46.0936 109.698 45.5687C108.671 45.0439 107.867 44.3138 107.285 43.3782C106.703 42.4427 106.412 41.3702 106.412 40.1609C106.412 38.9743 106.703 37.9133 107.285 36.9778C107.867 36.0422 108.671 35.312 109.698 34.7872C110.724 34.2624 111.9 34 113.223 34ZM107.131 86.7096V49.676H119.452V86.7096H107.131Z" fill="#6F9AEF"/>
</svg>
