<svg width="215" height="100" viewBox="0 0 215 100" fill="none" xmlns="http://www.w3.org/2000/svg">
<path fill-rule="evenodd" clip-rule="evenodd" d="M24.5009 72.2577L10.6389 48.0991V72.2577H0V30.7289H10.6389L24.4723 54.859V30.7289H35.0827V72.2577H24.5009ZM46.1209 28.333C47.2048 28.333 48.1746 28.5517 49.0302 28.989C49.8859 29.4264 50.5562 30.0348 51.0411 30.8145C51.526 31.5941 51.7684 32.4783 51.7684 33.4671C51.7684 34.4749 51.5307 35.3686 51.0553 36.1482C50.58 36.9278 49.9097 37.5363 49.0445 37.9736C48.1793 38.411 47.2048 38.6296 46.1209 38.6296C45.0181 38.6296 44.0388 38.411 43.1831 37.9736C42.3274 37.5363 41.6572 36.9278 41.1723 36.1482C40.6874 35.3686 40.445 34.4749 40.445 33.4671C40.445 32.4783 40.6874 31.5941 41.1723 30.8145C41.6572 30.0348 42.3274 29.4264 43.1831 28.989C44.0388 28.5517 45.0181 28.333 46.1209 28.333ZM41.0439 72.2577V41.3963H51.312V72.2577H41.0439ZM67.8836 39.3427V47.6142H83.9133V56.1995H67.8836V72.2577H57.2447V30.7289H85.3679V39.3427H67.8836ZM94.3525 28.333C95.4364 28.333 96.4062 28.5517 97.2618 28.989C98.1175 29.4264 98.7878 30.0348 99.2727 30.8145C99.7576 31.5941 100 32.4783 100 33.4671C100 34.4749 99.7623 35.3686 99.2869 36.1482C98.8116 36.9278 98.1413 37.5363 97.2761 37.9736C96.4109 38.411 95.4364 38.6296 94.3525 38.6296C93.2497 38.6296 92.2704 38.411 91.4147 37.9736C90.559 37.5363 89.8888 36.9278 89.4039 36.1482C88.919 35.3686 88.6766 34.4749 88.6766 33.4671C88.6766 32.4783 88.919 31.5941 89.4039 30.8145C89.8888 30.0348 90.559 29.4264 91.4147 28.989C92.2704 28.5517 93.2497 28.333 94.3525 28.333ZM89.2755 72.2577V41.3963H99.5436V72.2577H89.2755Z" fill="white"/>
</svg>
