<svg width="215" height="100" viewBox="0 0 215 100" fill="none" xmlns="http://www.w3.org/2000/svg">
<path fill-rule="evenodd" clip-rule="evenodd" d="M123.738 47.5845C121.728 47.5845 119.811 48.6386 118.635 50.2638C117.449 48.5138 115.849 47.5845 113.829 47.5845C112.351 47.5845 110.865 48.333 109.774 49.5153V48.082H105.739V65.5699H109.774V56.9682C109.774 54.1503 110.164 51.2693 113.049 51.2693C115.235 51.2693 115.682 53.292 115.682 56.3269V65.5699H119.718V56.9682C119.718 54.0084 120.111 51.2693 122.958 51.2693C124.829 51.2693 125.628 52.6014 125.628 55.7229V65.5699H129.663V55.1893C129.663 50.1435 127.67 47.5845 123.738 47.5845Z" fill="white"/>
<path fill-rule="evenodd" clip-rule="evenodd" d="M143.811 48.0823V57.7151C143.811 60.9372 142.789 62.3106 140.395 62.3106C138 62.3106 136.979 60.9372 136.979 57.7151V48.0823H132.943V58.0712C132.943 63.2734 135.59 66.1393 140.395 66.1393C145.198 66.1393 147.844 63.2734 147.844 58.0712V48.0823H147.426H143.811Z" fill="white"/>
<path fill-rule="evenodd" clip-rule="evenodd" d="M158.539 55.0923L157.819 54.771C156.259 54.0836 154.914 53.4915 154.914 52.4853C154.914 51.769 155.609 51.2696 156.234 51.2696C156.933 51.2696 157.639 51.7605 157.986 52.4899L158.175 52.8856L161.512 51.1L161.333 50.7353C160.354 48.7336 158.558 47.5848 156.41 47.5848C153.477 47.5848 151.09 49.9428 151.09 52.8422C151.09 55.3618 152.639 56.4008 154.506 57.4095L157.633 59.0813C158.28 59.5157 158.584 59.8351 158.584 60.5245C158.584 61.7777 157.501 62.4526 156.483 62.4526C155.144 62.4526 154.455 61.6883 153.831 60.5389L153.646 60.1946L150.198 61.7633L150.336 62.1326C151.243 64.528 153.712 66.1393 156.483 66.1393C159.924 66.1393 162.62 63.5324 162.62 60.2064C162.62 57.3372 160.556 56.0117 158.539 55.0923Z" fill="white"/>
<path fill-rule="evenodd" clip-rule="evenodd" d="M165.616 48.0823V65.5702H169.65V48.0823H169.231H165.616Z" fill="white"/>
<path fill-rule="evenodd" clip-rule="evenodd" d="M167.634 38.2286C166.188 38.2286 165.011 39.422 165.011 40.8895C165.011 42.3175 166.188 43.48 167.634 43.48C169.078 43.48 170.253 42.3175 170.253 40.8895C170.253 39.422 169.078 38.2286 167.634 38.2286Z" fill="white"/>
<path fill-rule="evenodd" clip-rule="evenodd" d="M12.9626 57.1261C12.9626 57.9745 12.9508 58.8025 12.9278 59.6043C12.9048 60.3975 12.8208 61.0973 12.6877 61.7171C12.5381 62.3387 12.3202 62.8204 12.0197 63.1878C11.7225 63.5538 11.2856 63.7378 10.7167 63.7378C10.1649 63.7378 9.73716 63.5308 9.43076 63.1398C9.12173 62.7389 8.89275 62.2224 8.75432 61.5672C8.60407 60.9127 8.52271 60.1799 8.5004 59.3506C8.48269 58.5258 8.46563 57.6886 8.46563 56.8625C8.46563 55.955 8.49188 55.1053 8.5378 54.3239C8.58111 53.5432 8.68477 52.8676 8.83239 52.3149C8.9833 51.7544 9.21687 51.3049 9.51146 50.9861C9.80933 50.6635 10.2109 50.5169 10.7167 50.5169C11.2659 50.5169 11.6937 50.695 11.9889 51.0775C12.2868 51.4435 12.5033 51.9357 12.6496 52.5581C12.7887 53.1771 12.8812 53.8783 12.9166 54.6683C12.9508 55.47 12.9626 56.2908 12.9626 57.1261ZM10.7804 48.32C9.43994 48.32 8.17957 48.5165 6.9999 48.8832C5.82088 49.2637 4.78292 49.8249 3.89325 50.5603C3.00882 51.293 2.2976 52.2118 1.7806 53.3165C1.26621 54.4166 1.00049 55.6902 1.00049 57.1261C1.00049 58.6198 1.24653 59.9164 1.71367 61.0165C2.19394 62.1199 2.85857 63.0373 3.72266 63.7484C4.57822 64.4588 5.60108 64.9871 6.7801 65.3216C7.97158 65.6515 9.27133 65.8178 10.68 65.8178C12.044 65.8178 13.3293 65.6417 14.5083 65.298C15.7024 64.9654 16.7371 64.4252 17.6038 63.705C18.4797 62.9676 19.1647 62.0634 19.6706 60.9587C20.1758 59.856 20.4251 58.5594 20.4251 57.0939C20.4251 55.8998 20.2223 54.7721 19.8208 53.7187C19.4048 52.6593 18.7979 51.732 17.9942 50.9263C17.1931 50.1147 16.1847 49.4806 14.9801 49.0205C13.763 48.5618 12.3675 48.32 10.7804 48.32Z" fill="white"/>
<path fill-rule="evenodd" clip-rule="evenodd" d="M181.802 51.4118C183.555 51.4118 185.01 52.0978 186.248 53.5108L186.983 54.3487V48.8652L186.774 48.7437C185.512 48.007 183.829 47.5844 182.158 47.5844C176.736 47.5844 172.647 51.6181 172.647 56.9688C172.647 62.1105 176.746 66.1389 181.98 66.1389C183.778 66.1389 185.298 65.7729 186.762 64.9869L186.983 64.8686V59.4259L186.25 60.2448C185.026 61.6156 183.6 62.3103 182.017 62.3103C178.875 62.3103 176.681 60.0555 176.681 56.8249C176.681 53.8906 179.027 51.4118 181.802 51.4118Z" fill="white"/>
<path fill-rule="evenodd" clip-rule="evenodd" d="M22.7954 54.5785V57.1809C22.7954 58.6399 22.775 60.0876 22.7311 61.5248C22.6851 62.9456 22.5926 64.369 22.4653 65.782L24.2342 65.5848C24.8181 65.5152 25.4021 65.4836 25.9971 65.4836C26.6414 65.4836 27.2608 65.5283 27.8644 65.5993C28.4766 65.6775 29.0926 65.7353 29.7258 65.782C29.6654 65.1044 29.6103 64.3441 29.5755 63.5312C29.5552 62.7163 29.5322 61.672 29.5322 60.3971V57.4123C29.5322 56.8044 29.5401 56.1965 29.5663 55.6004C29.5873 55.0011 29.6562 54.4741 29.7802 54.0173C29.8931 53.5567 30.0925 53.1775 30.3438 52.8909C30.5958 52.6011 30.9599 52.4539 31.448 52.4539C31.8903 52.4539 32.2255 52.5663 32.465 52.772C32.7137 52.9803 32.8902 53.2682 33.0174 53.6165C33.1421 53.9674 33.211 54.3597 33.234 54.7724C33.2569 55.1963 33.2661 55.6248 33.2661 56.0605C33.2661 57.7093 33.2464 59.3378 33.1992 60.9275C33.1533 62.5119 33.0844 64.1272 33.0063 65.782C33.5666 65.6893 34.1735 65.6196 34.8178 65.5612C35.4568 65.5152 36.0552 65.4836 36.6299 65.4836C37.2224 65.4836 37.8208 65.5152 38.4165 65.5612C39.0116 65.6196 39.6073 65.6893 40.1939 65.782C40.1591 65.0808 40.127 64.2764 40.1132 63.3702L40.1014 60.7881V59.364V58.1102L40.1132 56.692L40.1388 55.2673V54.0173C40.1388 52.1687 39.6526 50.7558 38.717 49.8016C37.7624 48.8395 36.3649 48.3578 34.5199 48.3578C33.9189 48.3578 33.396 48.413 32.9367 48.5273C32.465 48.6325 32.0287 48.8033 31.6186 49.0347C31.1941 49.2772 30.7919 49.5473 30.4022 49.8824C30.021 50.2163 29.63 50.5941 29.2317 51.041C29.3439 50.1814 29.4161 49.3205 29.4364 48.4616C28.3151 48.6542 27.1676 48.7587 25.9971 48.7587C25.4224 48.7587 24.8411 48.7337 24.2342 48.6759C23.6247 48.6213 23.0525 48.5517 22.4975 48.4616C22.6044 49.4921 22.6851 50.4811 22.7311 51.3972C22.775 52.3264 22.7954 53.3832 22.7954 54.5785Z" fill="white"/>
<path fill-rule="evenodd" clip-rule="evenodd" d="M42.5461 48.5976V59.0656C42.5461 60.1901 42.5113 61.3151 42.4392 62.4264L42.2456 65.7819L44.1181 65.5847C44.7801 65.5151 45.3988 65.4835 45.9742 65.4835C46.5923 65.4835 47.2025 65.5151 47.8087 65.5611C48.413 65.6196 49.0113 65.6892 49.6097 65.7819C49.5054 64.1994 49.4129 62.797 49.3433 61.6016C49.2771 60.3977 49.2548 59.2726 49.2548 58.2146L52.9821 65.7819C54.2287 65.5847 55.5173 65.4835 56.8124 65.4835C58.0492 65.4835 59.2485 65.5847 60.442 65.7819V65.1477C60.3317 65.0465 60.251 64.9309 60.1815 64.8047C60.1126 64.6903 60.0313 64.5642 59.9532 64.4255L54.4012 54.4411C55.3211 53.4521 56.237 52.4999 57.1444 51.5825L59.7773 48.9189V48.4616C59.341 48.5516 58.9447 48.6212 58.5983 48.6758C58.2427 48.7336 57.832 48.7586 57.3727 48.7586C56.9568 48.7586 56.5572 48.7336 56.1753 48.6889C55.8125 48.6442 55.3985 48.5759 54.9629 48.4616C54.6099 49.055 54.1932 49.6661 53.7248 50.2944C53.2485 50.9266 52.7623 51.5476 52.2571 52.1785C51.7401 52.8127 51.2257 53.4179 50.6929 54.0284C50.1733 54.635 49.676 55.2067 49.2193 55.7594V54.315C49.2193 51.9965 49.2423 49.7135 49.2974 47.4515C49.3551 45.1889 49.4483 42.9269 49.5749 40.6531C49.1353 40.7477 48.6354 40.8141 48.06 40.8726C47.4826 40.9324 46.7773 40.9521 45.948 40.9521C45.1239 40.9521 44.4271 40.9324 43.817 40.8726C43.2114 40.8141 42.6845 40.7477 42.2456 40.6531C42.3381 41.9865 42.4103 43.3054 42.4654 44.6263C42.5113 45.9426 42.5461 47.2662 42.5461 48.5976Z" fill="white"/>
<path fill-rule="evenodd" clip-rule="evenodd" d="M64.9069 72.0259L63.7141 74.4489L64.8144 74.2405C65.1851 74.1827 65.5459 74.1505 65.9278 74.1505C66.2775 74.1505 66.6128 74.1827 66.9474 74.2405L67.9676 74.4489C68.543 72.6338 69.2483 70.6366 70.0888 68.443C70.9221 66.2507 71.7973 64.0216 72.7158 61.7616C73.6245 59.4996 74.5405 57.3171 75.4334 55.2227C76.3349 53.1191 77.1439 51.2594 77.8551 49.6546L78.3787 48.4618C77.9542 48.5512 77.5776 48.6208 77.22 48.676C76.867 48.7339 76.5088 48.7582 76.1676 48.7582C75.8113 48.7582 75.4531 48.7339 75.0896 48.676C74.7189 48.6208 74.3469 48.5512 73.9506 48.4618C73.5747 50.0449 73.141 51.5958 72.6351 53.0843C72.1181 54.5912 71.6037 56.0909 71.0782 57.6208C70.5658 56.0909 70.0888 54.5787 69.6184 53.0501L68.2425 48.4618C67.5805 48.5978 66.9133 48.676 66.2604 48.7109C65.5925 48.7339 64.9358 48.7582 64.2744 48.7582C63.552 48.7582 62.8415 48.7339 62.1677 48.6885C61.4768 48.6438 60.8115 48.5761 60.1816 48.4618C60.6868 49.8018 61.2485 51.1332 61.8783 52.4534C62.5115 53.7829 63.1039 55.1169 63.676 56.4602C64.6097 58.5966 65.3786 60.4433 65.9934 62.0139L67.6442 66.2198C67.4854 66.5852 67.2912 67.0321 67.0497 67.5473L66.2939 69.1541L65.5223 70.7378L64.9069 72.0259Z" fill="white"/>
<path fill-rule="evenodd" clip-rule="evenodd" d="M89.8351 57.1261C89.8351 57.9745 89.8266 58.8025 89.803 59.6043C89.7741 60.3975 89.696 61.0973 89.5602 61.7171C89.41 62.3387 89.1908 62.8204 88.8923 63.1878C88.5951 63.5538 88.162 63.7378 87.5866 63.7378C87.0375 63.7378 86.6097 63.5308 86.3033 63.1398C85.9995 62.7389 85.7627 62.2224 85.6269 61.5672C85.474 60.9127 85.3985 60.1799 85.3749 59.3506C85.352 58.5258 85.3408 57.6886 85.3408 56.8625C85.3408 55.955 85.3644 55.1053 85.413 54.3239C85.4536 53.5432 85.5567 52.8676 85.7082 52.3149C85.8578 51.7544 86.0835 51.3049 86.384 50.9861C86.6812 50.6635 87.0834 50.5169 87.5866 50.5169C88.1384 50.5169 88.5636 50.695 88.8588 51.0775C89.1593 51.4435 89.3785 51.9357 89.5228 52.5581C89.6612 53.1771 89.757 53.8783 89.7859 54.6683C89.8266 55.47 89.8351 56.2908 89.8351 57.1261ZM87.6529 48.32C86.3125 48.32 85.0515 48.5165 83.8692 48.8832C82.6901 49.2637 81.6555 49.8249 80.7632 50.5603C79.8814 51.293 79.1669 52.2118 78.6558 53.3165C78.1361 54.4166 77.875 55.6902 77.875 57.1261C77.875 58.6198 78.1158 59.9164 78.581 61.0165C79.0665 62.1199 79.7337 63.0373 80.5952 63.7484C81.4508 64.4588 82.4763 64.9871 83.6559 65.3216C84.8461 65.6515 86.1439 65.8178 87.5525 65.8178C88.9166 65.8178 90.2045 65.6417 91.3835 65.298C92.5783 64.9654 93.6077 64.4252 94.4764 63.705C95.3549 62.9676 96.0405 62.0634 96.5411 60.9587C97.0457 59.856 97.2976 58.5594 97.2976 57.0939C97.2976 55.8998 97.0949 54.7721 96.6894 53.7187C96.2826 52.6593 95.6705 51.732 94.8727 50.9263C94.0624 50.1147 93.0579 49.4806 91.8552 49.0205C90.6415 48.5618 89.2367 48.32 87.6529 48.32Z" fill="white"/>
</svg>
