<svg width="258" height="120" viewBox="0 0 258 120" fill="none" xmlns="http://www.w3.org/2000/svg">
<path fill-rule="evenodd" clip-rule="evenodd" d="M148.485 57.1016C146.074 57.1016 143.773 58.3665 142.362 60.3167C140.938 58.2166 139.019 57.1016 136.594 57.1016C134.821 57.1016 133.038 57.9998 131.729 59.4185V57.6985H126.887V78.684H131.729V68.362C131.729 64.9805 132.196 61.5233 135.658 61.5233C138.282 61.5233 138.819 63.9506 138.819 67.5923V78.684H143.661V68.362C143.661 64.8102 144.133 61.5233 147.549 61.5233C149.794 61.5233 150.754 63.1218 150.754 66.8676V78.684H155.595V66.2273C155.595 60.1724 153.204 57.1016 148.485 57.1016Z" fill="#C9252B"/>
<path fill-rule="evenodd" clip-rule="evenodd" d="M172.572 57.6992V69.2586C172.572 73.1251 171.346 74.7733 168.473 74.7733C165.599 74.7733 164.374 73.1251 164.374 69.2586V57.6992H159.531V69.686C159.531 75.9286 162.707 79.3677 168.473 79.3677C174.237 79.3677 177.412 75.9286 177.412 69.686V57.6992H176.911H172.572Z" fill="#C9252B"/>
<path fill-rule="evenodd" clip-rule="evenodd" d="M190.247 66.111L189.382 65.7254C187.511 64.9005 185.896 64.19 185.896 62.9827C185.896 62.1231 186.731 61.5237 187.48 61.5237C188.319 61.5237 189.166 62.1128 189.583 62.9882L189.81 63.4629L193.814 61.3203L193.599 60.8826C192.425 58.4805 190.27 57.1021 187.692 57.1021C184.172 57.1021 181.308 59.9316 181.308 63.4109C181.308 66.4344 183.166 67.6812 185.407 68.8917L189.16 70.8979C189.935 71.4191 190.3 71.8024 190.3 72.6296C190.3 74.1335 189.001 74.9434 187.779 74.9434C186.172 74.9434 185.345 74.0263 184.597 72.647L184.374 72.2338L180.237 74.1162L180.402 74.5593C181.491 77.4338 184.454 79.3675 187.779 79.3675C191.908 79.3675 195.144 76.2391 195.144 72.248C195.144 68.8049 192.666 67.2143 190.247 66.111Z" fill="#C9252B"/>
<path fill-rule="evenodd" clip-rule="evenodd" d="M198.739 57.6992V78.6847H203.579V57.6992H203.076H198.739Z" fill="#C9252B"/>
<path fill-rule="evenodd" clip-rule="evenodd" d="M201.16 45.8745C199.426 45.8745 198.013 47.3066 198.013 49.0676C198.013 50.7812 199.426 52.1762 201.16 52.1762C202.893 52.1762 204.303 50.7812 204.303 49.0676C204.303 47.3066 202.893 45.8745 201.16 45.8745Z" fill="#C9252B"/>
<path fill-rule="evenodd" clip-rule="evenodd" d="M218.162 61.6944C220.266 61.6944 222.012 62.5177 223.497 64.2132L224.379 65.2186V58.6385L224.129 58.4927C222.615 57.6086 220.595 57.1016 218.589 57.1016C212.083 57.1016 207.177 61.942 207.177 68.3628C207.177 74.5328 212.095 79.367 218.376 79.367C220.534 79.367 222.357 78.9277 224.114 77.9845L224.379 77.8426V71.3114L223.5 72.294C222.03 73.939 220.32 74.7726 218.42 74.7726C214.65 74.7726 212.016 72.0669 212.016 68.1901C212.016 64.669 214.833 61.6944 218.162 61.6944Z" fill="#C9252B"/>
<path fill-rule="evenodd" clip-rule="evenodd" d="M15.5547 68.5517C15.5547 69.5697 15.5405 70.5634 15.513 71.5255C15.4854 72.4773 15.3846 73.3172 15.2248 74.0608C15.0453 74.8069 14.7839 75.3849 14.4233 75.8257C14.0666 76.265 13.5423 76.4858 12.8597 76.4858C12.1975 76.4858 11.6842 76.2374 11.3165 75.7682C10.9457 75.2871 10.6709 74.6673 10.5048 73.881C10.3245 73.0956 10.2269 72.2163 10.2001 71.2211C10.1788 70.2314 10.1584 69.2267 10.1584 68.2354C10.1584 67.1464 10.1899 66.1267 10.245 65.1891C10.2969 64.2522 10.4213 63.4415 10.5985 62.7783C10.7796 62.1056 11.0599 61.5662 11.4134 61.1837C11.7708 60.7965 12.2526 60.6207 12.8597 60.6207C13.5187 60.6207 14.032 60.8344 14.3863 61.2934C14.7437 61.7326 15.0036 62.3233 15.1791 63.0701C15.346 63.8129 15.4571 64.6544 15.4996 65.6023C15.5405 66.5644 15.5547 67.5493 15.5547 68.5517ZM12.936 57.9844C11.3275 57.9844 9.81509 58.2202 8.39949 58.6602C6.98466 59.1168 5.73912 59.7903 4.67151 60.6727C3.61019 61.552 2.75673 62.6545 2.13632 63.9801C1.51906 65.3002 1.2002 66.8286 1.2002 68.5517C1.2002 70.3441 1.49544 71.9001 2.05602 73.2202C2.63234 74.5442 3.4299 75.6451 4.4668 76.4984C5.49347 77.3509 6.72091 77.9849 8.13573 78.3863C9.56551 78.7822 11.1252 78.9817 12.8156 78.9817C14.4524 78.9817 15.9948 78.7704 17.4096 78.3579C18.8426 77.9589 20.0842 77.3107 21.1242 76.4464C22.1753 75.5615 22.9973 74.4764 23.6043 73.1508C24.2105 71.8275 24.5097 70.2716 24.5097 68.513C24.5097 67.0801 24.2664 65.7269 23.7846 64.4627C23.2854 63.1915 22.5571 62.0788 21.5927 61.112C20.6313 60.138 19.4212 59.377 17.9757 58.825C16.5152 58.2746 14.8406 57.9844 12.936 57.9844Z" fill="#231F20"/>
<path fill-rule="evenodd" clip-rule="evenodd" d="M27.354 65.4947V68.6176C27.354 70.3683 27.3296 72.1056 27.2769 73.8302C27.2218 75.5352 27.1107 77.2433 26.958 78.9388L29.0806 78.7022C29.7814 78.6186 30.4821 78.5808 31.1962 78.5808C31.9693 78.5808 32.7126 78.6344 33.4369 78.7196C34.1715 78.8134 34.9108 78.8828 35.6705 78.9388C35.5981 78.1257 35.532 77.2133 35.4902 76.2378C35.4658 75.26 35.4383 74.0069 35.4383 72.477V68.8951C35.4383 68.1657 35.4477 67.4362 35.4792 66.721C35.5044 66.0018 35.5871 65.3693 35.7359 64.8212C35.8713 64.2684 36.1106 63.8134 36.4122 63.4696C36.7145 63.1218 37.1515 62.9451 37.7373 62.9451C38.2679 62.9451 38.6702 63.08 38.9576 63.3268C39.256 63.5768 39.4678 63.9222 39.6205 64.3402C39.7701 64.7613 39.8528 65.2321 39.8804 65.7273C39.9079 66.236 39.9189 66.7502 39.9189 67.273C39.9189 69.2516 39.8953 71.2058 39.8386 73.1134C39.7835 75.0147 39.7008 76.9531 39.6072 78.9388C40.2795 78.8276 41.0078 78.744 41.781 78.6738C42.5478 78.6186 43.2658 78.5808 43.9555 78.5808C44.6665 78.5808 45.3845 78.6186 46.0994 78.6738C46.8135 78.744 47.5284 78.8276 48.2323 78.9388C48.1906 78.0974 48.152 77.1321 48.1354 76.0446L48.1213 72.9462V71.2373V69.7326L48.1354 68.0308L48.1662 66.3212V64.8212C48.1662 62.6029 47.5827 60.9074 46.46 59.7623C45.3145 58.6078 43.6375 58.0298 41.4235 58.0298C40.7023 58.0298 40.0748 58.096 39.5237 58.2332C38.9576 58.3594 38.434 58.5645 37.942 58.842C37.4326 59.133 36.9499 59.4572 36.4823 59.8593C36.0248 60.26 35.5556 60.7134 35.0777 61.2496C35.2123 60.2182 35.2989 59.1851 35.3233 58.1544C33.9778 58.3854 32.6008 58.5108 31.1962 58.5108C30.5065 58.5108 29.8089 58.4809 29.0806 58.4115C28.3492 58.346 27.6627 58.2624 26.9966 58.1544C27.1249 59.3909 27.2218 60.5778 27.2769 61.6771C27.3296 62.7922 27.354 64.0602 27.354 65.4947Z" fill="#231F20"/>
<path fill-rule="evenodd" clip-rule="evenodd" d="M51.0549 58.3171V70.8788C51.0549 72.2281 51.0132 73.5781 50.9266 74.9117L50.6943 78.9383L52.9414 78.7017C53.7358 78.6181 54.4782 78.5803 55.1687 78.5803C55.9104 78.5803 56.6426 78.6181 57.3701 78.6733C58.0952 78.7435 58.8132 78.8271 59.5313 78.9383C59.4061 77.0393 59.2951 75.3564 59.2116 73.922C59.1321 72.4773 59.1053 71.1272 59.1053 69.8575L63.5781 78.9383C65.074 78.7017 66.6203 78.5803 68.1745 78.5803C69.6586 78.5803 71.0978 78.7017 72.53 78.9383V78.1773C72.3977 78.0558 72.3009 77.917 72.2174 77.7656C72.1347 77.6284 72.0371 77.477 71.9434 77.3106L65.2811 65.3294C66.3849 64.1425 67.484 62.9998 68.5729 61.8989L71.7324 58.7027V58.1539C71.2089 58.2619 70.7333 58.3455 70.3176 58.411C69.8909 58.4803 69.398 58.5103 68.8469 58.5103C68.3477 58.5103 67.8682 58.4803 67.41 58.4267C66.9746 58.3731 66.4778 58.2911 65.955 58.1539C65.5315 58.866 65.0315 59.5994 64.4694 60.3533C63.8978 61.1119 63.3144 61.8571 62.7081 62.6142C62.0877 63.3752 61.4704 64.1015 60.8311 64.8341C60.2076 65.562 59.6108 66.2481 59.0628 66.9113V65.178C59.0628 62.3958 59.0904 59.6562 59.1565 56.9418C59.2258 54.2266 59.3376 51.5123 59.4895 48.7837C58.962 48.8973 58.3621 48.9769 57.6716 49.0471C56.9788 49.1188 56.1324 49.1425 55.1372 49.1425C54.1483 49.1425 53.3122 49.1188 52.58 49.0471C51.8533 48.9769 51.2211 48.8973 50.6943 48.7837C50.8053 50.3838 50.892 51.9665 50.9581 53.5516C51.0132 55.1312 51.0549 56.7194 51.0549 58.3171Z" fill="#231F20"/>
<path fill-rule="evenodd" clip-rule="evenodd" d="M77.8876 86.4312L76.4562 89.3388L77.7766 89.0888C78.2214 89.0194 78.6544 88.9808 79.1127 88.9808C79.5323 88.9808 79.9346 89.0194 80.3362 89.0888L81.5605 89.3388C82.2509 87.1607 83.0973 84.7641 84.1059 82.1318C85.1058 79.501 86.1561 76.826 87.2583 74.114C88.3488 71.3997 89.4479 68.7807 90.5194 66.2674C91.6012 63.7431 92.572 61.5114 93.4254 59.5856L94.0537 58.1543C93.5443 58.2615 93.0924 58.3451 92.6633 58.4114C92.2397 58.4808 91.8098 58.51 91.4004 58.51C90.9729 58.51 90.543 58.4808 90.1069 58.4114C89.662 58.3451 89.2156 58.2615 88.7401 58.1543C88.2889 60.054 87.7685 61.9151 87.1615 63.7013C86.5411 65.5096 85.9238 67.3092 85.2932 69.1451C84.6783 67.3092 84.1059 65.4946 83.5414 63.6603L81.8903 58.1543C81.0959 58.3175 80.2952 58.4114 79.5118 58.4532C78.7103 58.4808 77.9222 58.51 77.1286 58.51C76.2618 58.51 75.4091 58.4808 74.6005 58.4264C73.7715 58.3727 72.9731 58.2915 72.2173 58.1543C72.8235 59.7623 73.4975 61.36 74.2533 62.9443C75.0131 64.5396 75.724 66.1405 76.4106 67.7524C77.5309 70.3161 78.4537 72.5321 79.1914 74.4169L81.1723 79.4639C80.9818 79.9024 80.7487 80.4386 80.459 81.0569L79.552 82.985L78.6261 84.8856L77.8876 86.4312Z" fill="#231F20"/>
<path fill-rule="evenodd" clip-rule="evenodd" d="M107.801 68.5517C107.801 69.5697 107.791 70.5634 107.763 71.5255C107.728 72.4773 107.634 73.3172 107.471 74.0608C107.291 74.8069 107.028 75.3849 106.67 75.8257C106.313 76.265 105.794 76.4858 105.103 76.4858C104.444 76.4858 103.931 76.2374 103.563 75.7682C103.199 75.2871 102.914 74.6673 102.751 73.881C102.568 73.0956 102.477 72.2163 102.449 71.2211C102.422 70.2314 102.408 69.2267 102.408 68.2354C102.408 67.1464 102.437 66.1267 102.495 65.1891C102.544 64.2522 102.667 63.4415 102.849 62.7783C103.029 62.1056 103.299 61.5662 103.66 61.1837C104.017 60.7965 104.499 60.6207 105.103 60.6207C105.765 60.6207 106.276 60.8344 106.63 61.2934C106.99 61.7326 107.253 62.3233 107.427 63.0701C107.593 63.8129 107.708 64.6544 107.742 65.6023C107.791 66.5644 107.801 67.5493 107.801 68.5517ZM105.183 57.9844C103.574 57.9844 102.061 58.2202 100.642 58.6602C99.2274 59.1168 97.9858 59.7903 96.915 60.6727C95.8569 61.552 94.9995 62.6545 94.3861 63.9801C93.7626 65.3002 93.4492 66.8286 93.4492 68.5517C93.4492 70.3441 93.7382 71.9001 94.2964 73.2202C94.879 74.5442 95.6797 75.6451 96.7135 76.4984C97.7401 77.3509 98.9707 77.9849 100.386 78.3863C101.815 78.7822 103.372 78.9817 105.062 78.9817C106.699 78.9817 108.245 78.7704 109.659 78.3579C111.093 77.9589 112.328 77.3107 113.371 76.4464C114.425 75.5615 115.248 74.4764 115.849 73.1508C116.454 71.8275 116.756 70.2716 116.756 68.513C116.756 67.0801 116.513 65.7269 116.027 64.4627C115.538 63.1915 114.804 62.0788 113.846 61.112C112.874 60.138 111.669 59.377 110.226 58.825C108.769 58.2746 107.083 57.9844 105.183 57.9844Z" fill="#231F20"/>
</svg>
