<svg width="215" height="100" viewBox="0 0 215 100" fill="none" xmlns="http://www.w3.org/2000/svg">
<path fill-rule="evenodd" clip-rule="evenodd" d="M109.337 61.7518C106.256 61.7675 103.69 59.2392 103.663 56.1609C103.635 53.0885 106.178 50.5435 109.303 50.5159C112.41 50.4886 114.98 53.0062 115 56.0983C115.021 59.1914 112.472 61.7359 109.337 61.7518ZM114.795 46.7056C112.231 45.327 109.569 44.8993 106.779 45.5654C103.983 46.2326 101.756 47.775 100.183 50.1698C97.4965 54.2625 97.7928 59.3177 100.928 63.0913C102.413 64.8785 104.313 66.0778 106.58 66.6414C109.752 67.43 112.718 66.8904 115.478 65.1336C115.528 65.2268 115.564 65.2945 115.599 65.3627C115.962 66.0597 116.532 66.5383 117.307 66.6051C118.202 66.6824 119.109 66.6231 120.025 66.6231V37.4326H114.795V46.7056Z" fill="white"/>
<path fill-rule="evenodd" clip-rule="evenodd" d="M39.1605 61.9536C36.0304 61.9506 33.4877 59.4361 33.4868 56.3428C33.4859 53.2682 36.0541 50.7192 39.1593 50.7127C42.2591 50.7061 44.8243 53.2546 44.825 56.3413C44.8256 59.4431 42.2889 61.9564 39.1605 61.9536ZM42.3739 45.9574C39.0569 44.9801 35.9395 45.5035 33.0138 47.3337C32.9586 47.2303 32.918 47.1528 32.8761 47.0761C32.5049 46.3971 31.933 45.934 31.1729 45.8665C30.2979 45.7887 29.4107 45.8484 28.4912 45.8484V75.0598H28.8084C30.3288 75.0598 31.8492 75.0518 33.3693 75.0671C33.6578 75.0699 33.7096 74.9725 33.7088 74.7124C33.7007 71.8602 33.7037 69.0078 33.7038 66.1555V65.7574C36.2391 67.1465 38.8657 67.542 41.6197 66.9219C44.3956 66.2966 46.5931 64.7836 48.2115 62.4569C50.8326 58.6891 50.8652 53.4386 47.6839 49.5175C46.2861 47.7948 44.5092 46.5866 42.3739 45.9574Z" fill="white"/>
<path fill-rule="evenodd" clip-rule="evenodd" d="M62.8644 61.9537C59.7348 61.951 57.2034 59.4349 57.2088 56.3324C57.2142 53.2458 59.7857 50.6991 62.8833 50.7126C65.9905 50.7264 68.5568 53.2816 68.5469 56.3517C68.5369 59.4489 65.9934 61.9564 62.8644 61.9537ZM70.9562 45.8706C70.6809 45.8812 70.398 46.0068 70.1418 46.1286C69.6212 46.3763 69.2838 46.8123 69.031 47.3538C66.6553 45.8214 64.0827 45.2011 61.2941 45.5969C58.4859 45.9955 56.164 47.3119 54.3767 49.4882C51.1915 53.3673 51.1707 58.6181 53.8148 62.45C55.1565 64.3942 56.9379 65.8021 59.1759 66.5666C62.6439 67.751 65.9397 67.2948 69.0427 65.343C69.4975 66.3759 70.284 66.8607 71.3755 66.867C72.0314 66.8709 72.6872 66.8684 73.3431 66.8668C73.4182 66.8665 73.4935 66.8532 73.5689 66.8459V45.8585C72.6827 45.8585 71.8184 45.8375 70.9562 45.8706Z" fill="white"/>
<path fill-rule="evenodd" clip-rule="evenodd" d="M133.172 61.7676C130.036 61.7622 127.489 59.2259 127.504 56.123C127.519 53.0388 130.083 50.517 133.194 50.5267C136.311 50.5365 138.855 53.0732 138.842 56.1602C138.83 59.2676 136.296 61.7731 133.172 61.7676ZM133.51 45.2899C127.365 45.1122 122.226 49.9983 122.219 56.129C122.211 62.2491 127.253 67.0416 133.169 67.0046C139.136 67.0425 144.122 62.231 144.131 56.1717C144.141 50.1024 139.225 45.4552 133.51 45.2899Z" fill="white"/>
<path fill-rule="evenodd" clip-rule="evenodd" d="M96.4297 53.0067C95.918 50.159 94.3902 48.0215 91.8098 46.6686C90.2142 45.8319 88.4943 45.4836 86.699 45.4767C84.6443 45.4688 82.6973 45.8835 80.9133 46.9396C80.8484 46.978 80.7762 47.0041 80.6951 47.0416C80.1353 46.0777 79.2684 45.7611 78.2183 45.8011C77.7818 45.8177 77.344 45.8039 76.9069 45.8039H76.3101V66.8129H81.5807V66.391C81.5807 62.7863 81.5801 59.1817 81.5811 55.5769C81.5814 54.1513 81.9678 52.8767 83.0749 51.9008C83.9014 51.1724 84.8894 50.8149 85.9768 50.733C87.6149 50.6097 89.0398 51.0775 90.1561 52.3192C91.0167 53.2765 91.3234 54.4342 91.3239 55.6914C91.325 59.2664 91.3243 62.8414 91.3243 66.4164V66.8009H96.6057V66.3918C96.6057 62.6286 96.614 58.8654 96.5982 55.1023C96.5953 54.403 96.5531 53.6937 96.4297 53.0067Z" fill="white"/>
<path fill-rule="evenodd" clip-rule="evenodd" d="M23.2785 50.77C23.2784 50.7289 23.2765 50.6884 23.2754 50.6475C23.2745 50.6144 23.2739 50.5815 23.2722 50.5485C23.2488 50.023 23.1458 49.5207 22.9593 49.0463C22.7998 48.6245 22.5803 48.2197 22.3 47.8445C21.9618 47.3918 21.5817 47.0101 21.1619 46.7024C18.4851 44.0021 15.7849 41.3247 13.0872 38.645C12.8225 38.3821 12.516 38.1472 12.1945 37.9571C10.3645 36.8748 8.50661 36.8559 6.71339 37.9953C4.16213 39.6164 3.61431 42.9959 5.49434 45.3575C5.61621 45.5106 5.74619 45.6572 5.88046 45.8005C5.52081 45.8049 5.15366 45.8533 4.8057 45.9417C2.74382 46.4662 1.41673 47.7622 0.957162 49.8317C0.303218 52.7759 2.31346 55.5518 5.31833 55.8967C5.504 55.918 5.69086 55.9302 5.87831 55.9371C5.74476 56.0797 5.61549 56.2256 5.49434 56.3778C3.61431 58.7395 4.16213 62.1189 6.71339 63.7401C8.50661 64.8795 10.3645 64.8606 12.1945 63.7782C12.516 63.5882 12.8225 63.3533 13.0872 63.0904C15.8919 60.3045 18.6996 57.5215 21.4804 54.7121C21.8353 54.4159 22.1483 54.0716 22.4095 53.6892C23.0087 52.8619 23.2888 51.9173 23.2769 50.8906C23.2777 50.8505 23.2788 50.8102 23.2785 50.77Z" fill="white"/>
</svg>
