<svg width="258" height="120" viewBox="0 0 258 120" fill="none" xmlns="http://www.w3.org/2000/svg">
<path fill-rule="evenodd" clip-rule="evenodd" d="M131.204 74.1018C134.966 74.0827 138.025 71.0292 138 67.3177C137.976 63.607 134.892 60.5859 131.164 60.6188C127.414 60.6518 124.362 63.7058 124.395 67.3928C124.428 71.0867 127.507 74.1206 131.204 74.1018ZM144.03 79.9473C142.93 79.9473 141.842 80.0185 140.768 79.9258C139.838 79.8455 139.154 79.2712 138.719 78.4348C138.677 78.3531 138.633 78.2717 138.574 78.1599C135.261 80.2681 131.703 80.9157 127.896 79.9693C125.176 79.293 122.896 77.8538 121.114 75.7091C117.351 71.1809 116.996 65.1146 120.22 60.2035C122.107 57.3296 124.78 55.4787 128.134 54.6782C131.483 53.8788 134.678 54.3919 137.754 56.0463V44.9187H144.03V79.9473Z" fill="#18414F"/>
<path fill-rule="evenodd" clip-rule="evenodd" d="M46.9922 74.3444C50.7462 74.3478 53.7904 71.3319 53.7895 67.6096C53.7888 63.9057 50.7106 60.8475 46.9908 60.8553C43.2646 60.8632 40.1826 63.9219 40.1838 67.6113C40.1849 71.3234 43.236 74.3408 46.9922 74.3444ZM34.189 55.018C35.2924 55.018 36.3571 54.9465 37.407 55.0399C38.3193 55.1209 39.0055 55.6765 39.4508 56.4913C39.5012 56.5834 39.55 56.6764 39.6163 56.8004C43.127 54.6043 46.8679 53.9762 50.8484 55.149C53.4108 55.9039 55.543 57.3537 57.2202 59.421C61.0379 64.1264 60.9986 70.4269 57.8534 74.9484C55.9112 77.7405 53.2744 79.556 49.9433 80.3063C46.6384 81.0505 43.4866 80.5757 40.4441 78.9089V79.3867C40.4441 82.8094 40.4405 86.2323 40.4502 89.655C40.4512 89.9671 40.389 90.084 40.0428 90.0806C38.2187 90.0622 36.3941 90.0719 34.5697 90.0719H34.189V55.018Z" fill="#18414F"/>
<path fill-rule="evenodd" clip-rule="evenodd" d="M75.4368 74.3442C79.1916 74.3475 82.2438 71.3385 82.2559 67.6219C82.2677 63.9377 79.188 60.8715 75.4596 60.8551C71.7424 60.8387 68.6564 63.8948 68.65 67.5987C68.6435 71.3218 71.6813 74.3411 75.4368 74.3442ZM82.8368 56.8244C83.1402 56.1748 83.545 55.6515 84.1698 55.3543C84.477 55.208 84.8167 55.0572 85.1469 55.0447C86.1817 55.0049 87.2188 55.03 88.2823 55.03V80.2149C88.1916 80.2237 88.1014 80.2398 88.0113 80.2401C87.2243 80.2421 86.4372 80.245 85.6502 80.2404C84.3403 80.2327 83.3966 79.6511 82.8508 78.4116C79.1272 80.7535 75.1721 81.3011 71.0106 79.8797C68.3249 78.9624 66.1873 77.2729 64.5773 74.9399C61.4044 70.3418 61.4293 64.0405 65.2516 59.3857C67.3963 56.7742 70.1827 55.1944 73.5524 54.7161C76.8987 54.2412 79.9859 54.9856 82.8368 56.8244Z" fill="#18414F"/>
<path fill-rule="evenodd" clip-rule="evenodd" d="M153.005 67.3477C152.988 71.0711 156.043 74.1146 159.806 74.1211C163.555 74.1278 166.596 71.1211 166.611 67.3922C166.626 63.6878 163.574 60.6437 159.833 60.6322C156.1 60.6205 153.023 63.6467 153.005 67.3477ZM159.803 80.4056C152.703 80.45 146.653 74.6989 146.663 67.3548C146.672 59.9979 152.838 54.1346 160.212 54.3479C167.07 54.5462 172.97 60.1229 172.958 67.4062C172.946 74.6773 166.963 80.451 159.803 80.4056Z" fill="#18414F"/>
<path fill-rule="evenodd" clip-rule="evenodd" d="M97.8969 80.1755H91.5723V54.9646H92.2883C92.8129 54.9646 93.3382 54.9813 93.8621 54.9614C95.1222 54.9133 96.1625 55.2934 96.8341 56.45C96.9315 56.405 97.0182 56.3736 97.0962 56.3275C99.2369 55.0602 101.573 54.5626 104.039 54.5722C106.193 54.5803 108.257 54.9984 110.172 56.0023C113.268 57.6259 115.102 60.1908 115.716 63.6081C115.864 64.4324 115.914 65.2836 115.918 66.1229C115.937 70.6387 115.927 75.1544 115.927 79.6702V80.1611H109.589V79.6997C109.589 75.4097 109.59 71.1197 109.589 66.8297C109.588 65.3212 109.22 63.9318 108.187 62.783C106.848 61.2931 105.138 60.7316 103.172 60.8796C101.867 60.9781 100.682 61.4069 99.69 62.281C98.3614 63.4521 97.8978 64.9817 97.8973 66.6924C97.8962 71.018 97.8969 75.3435 97.8969 79.6692V80.1755Z" fill="#18414F"/>
<path fill-rule="evenodd" clip-rule="evenodd" d="M21.7453 67.0639C24.8166 67.1276 27.4233 64.9132 27.8576 61.958C28.1389 60.0446 27.6543 58.3264 26.293 56.9483C22.7878 53.3995 19.2435 49.8892 15.7044 46.3738C15.3868 46.0583 15.019 45.7765 14.6332 45.5485C12.437 44.2496 10.2077 44.2269 8.05587 45.5942C4.99421 47.5396 4.33683 51.595 6.59286 54.4288C7.11573 55.0857 7.75665 55.6511 8.35665 56.2449C11.0458 58.9066 13.7373 61.5662 16.4342 64.2202C17.001 64.778 17.5598 65.353 18.1835 65.8425C19.2539 66.6821 20.494 67.0944 21.7453 67.0639Z" fill="#5BC8B6"/>
<path fill-rule="evenodd" clip-rule="evenodd" d="M26.0603 65.3314C28.2773 63.2119 28.5493 59.8089 26.7599 57.4132C25.6013 55.8621 24.0397 54.9887 22.0993 54.9735C17.103 54.9347 12.1063 54.9504 7.10983 54.9588C6.66137 54.9594 6.20132 55.0195 5.76674 55.13C3.29249 55.7594 1.69999 57.3145 1.14836 59.7978C0.363768 63.331 2.77592 66.6619 6.38176 67.0758C7.21758 67.1718 8.07171 67.1199 8.91726 67.117C12.7073 67.104 16.4973 67.0876 20.2873 67.0637C21.0839 67.0585 21.8868 67.0715 22.6753 66.978C24.0278 66.8172 25.197 66.2348 26.0603 65.3314Z" fill="#8EE7FA"/>
<path fill-rule="evenodd" clip-rule="evenodd" d="M21.7453 55.0182C24.8166 54.9546 27.4233 57.169 27.8576 60.1242C28.1389 62.0376 27.6543 63.7557 26.293 65.1339C22.7878 68.6825 19.2435 72.193 15.7044 75.7083C15.3868 76.0239 15.019 76.3057 14.6332 76.5337C12.437 77.8326 10.2077 77.8552 8.05587 76.488C4.99421 74.5425 4.33683 70.4872 6.59286 67.6533C7.11573 66.9963 7.75665 66.4311 8.35665 65.8373C11.0458 63.1754 13.7373 60.516 16.4342 57.8619C17.001 57.3041 17.5598 56.729 18.1835 56.2396C19.2539 55.4 20.494 54.9878 21.7453 55.0182Z" fill="#18414F"/>
<path fill-rule="evenodd" clip-rule="evenodd" d="M27.9344 61.041C27.9344 64.406 25.1975 67.1338 21.8215 67.1338C18.4453 67.1338 15.7085 64.406 15.7085 61.041C15.7085 57.6762 18.4453 54.9485 21.8215 54.9485C25.1975 54.9485 27.9344 57.6762 27.9344 61.041Z" fill="#EE732E"/>
</svg>
