<svg width="215" height="100" viewBox="0 0 215 100" fill="none" xmlns="http://www.w3.org/2000/svg">
<mask id="mask0_1046_19850" style="mask-type:alpha" maskUnits="userSpaceOnUse" x="0" y="26" width="62" height="59">
<path fill-rule="evenodd" clip-rule="evenodd" d="M0 26.6667H61.8648V84.1267H0V26.6667Z" fill="white"/>
</mask>
<g mask="url(#mask0_1046_19850)">
<path fill-rule="evenodd" clip-rule="evenodd" d="M55.1116 59.7961C54.1556 60.6777 53.2612 60.618 51.7213 59.5532L43.7254 51.5574L40.7921 54.4907L48.7471 62.4456C49.5839 63.8436 49.4957 65.0642 48.4835 66.076C47.1602 67.4 45.4859 66.8527 44.802 66.5404L36.9057 58.5649L33.9578 61.4836L41.6592 69.2625L41.7673 69.404C41.9821 69.6996 42.9928 71.2473 41.7872 72.6983C40.833 73.8477 39.7885 73.6575 39.249 73.4373C38.9965 72.3878 38.4759 71.3839 37.6703 70.5339L37.5708 70.4322C36.3427 69.2031 34.6883 68.537 32.9535 68.5861C32.9549 68.5313 32.9556 68.4758 32.9556 68.4207C32.9556 66.736 32.2995 65.1517 31.1081 63.9599C29.9164 62.7682 28.3323 62.1124 26.6473 62.1124C26.4514 62.1124 26.2572 62.1209 26.0648 62.1384C26.1868 60.3797 25.5769 58.5791 24.2358 57.2377C23.0437 56.0459 21.4596 55.3898 19.7746 55.3898C19.6558 55.3898 19.5378 55.393 19.4204 55.3994C19.4275 55.2749 19.4311 55.1504 19.4311 55.0245C19.4311 53.3395 18.7749 51.7551 17.5835 50.5637C16.3918 49.372 14.8074 48.7162 13.1224 48.7162C11.4374 48.7162 9.85303 49.372 8.66164 50.5637L6.75435 52.4707C4.81826 48.9075 1.51935 40.7641 7.5997 34.7026C10.9658 31.3475 15.3786 30.2643 20.7139 31.4823C23.368 32.0887 25.8041 33.1926 27.4984 34.1411L21.7431 39.8971C20.5392 41.1009 19.876 42.7013 19.876 44.4037C19.876 46.1062 20.5392 47.7066 21.7427 48.9107C24.0501 51.2171 27.6979 51.3789 30.197 49.4026L30.2144 49.4207L30.5743 49.075C30.6344 49.0192 30.6977 48.9691 30.7564 48.9107L30.751 48.9054L36.8687 43.026L36.916 42.9791C36.9648 42.9303 38.1291 41.7894 39.9254 41.7894C41.6634 41.7894 43.0063 43.2998 43.0088 43.302L43.0572 43.3575C43.4783 43.8205 53.3796 54.7098 54.7008 56.0406C55.2531 56.5975 55.8396 57.5808 55.8211 58.4244C55.8143 58.7384 55.7332 59.2228 55.1116 59.7961ZM34.6375 76.4204L31.712 79.3459C31.3041 79.7538 30.7614 79.9789 30.1842 79.9789C29.6073 79.9789 29.0646 79.7538 28.6563 79.3459C28.2484 78.9376 28.024 78.3953 28.024 77.8184C28.024 77.2412 28.2484 76.6985 28.6563 76.2906L31.5822 73.3651C31.9901 72.9572 32.5328 72.7321 33.11 72.7321C33.6868 72.7321 34.2292 72.9572 34.619 73.3466L34.6798 73.4082C35.4899 74.2638 35.4711 75.5865 34.6375 76.4204ZM25.2493 72.874C24.4068 73.7169 23.0362 73.7169 22.194 72.874C21.7858 72.4661 21.5614 71.9237 21.5614 71.3465C21.5614 70.7693 21.7858 70.227 22.194 69.8191L25.1195 66.8932C25.5274 66.4853 26.0701 66.2602 26.6473 66.2602C27.2242 66.2602 27.7665 66.4853 28.1748 66.8932C29.0173 67.7354 29.0173 69.1064 28.1748 69.9485L25.2493 72.874ZM18.3766 66.1514C17.9687 66.5597 17.426 66.7844 16.8491 66.7844C16.2719 66.7844 15.7296 66.5597 15.3213 66.1514C14.913 65.7435 14.6883 65.2008 14.6883 64.6239C14.6883 64.0467 14.913 63.5044 15.3213 63.0961L18.2472 60.1706C18.6551 59.7623 19.1974 59.5376 19.7746 59.5376C20.3515 59.5376 20.8942 59.7627 21.3021 60.171C22.1446 61.0131 22.1446 62.3837 21.3024 63.2262L18.3766 66.1514ZM11.7248 59.4775C11.3165 59.8857 10.7741 60.1109 10.1973 60.1109C9.61973 60.1109 9.07738 59.8857 8.66911 59.4775C8.26119 59.0695 8.03643 58.5272 8.03643 57.9504C8.03643 57.3732 8.26119 56.8305 8.66911 56.4225L11.5946 53.4971H11.5949C12.0029 53.0891 12.5456 52.864 13.1224 52.864C13.6996 52.864 14.242 53.0891 14.6502 53.4971C15.0581 53.9053 15.2829 54.4477 15.2829 55.0245C15.2829 55.6017 15.0581 56.1441 14.6502 56.5523L11.7248 59.4775ZM53.8416 34.8733C59.7925 40.8242 57.5623 47.7233 55.8136 51.1641C53.2509 48.3897 48.7709 43.4755 46.1459 40.5881C45.7711 40.1564 43.4377 37.6413 39.9254 37.6413C36.5255 37.6413 34.3601 39.6641 33.9713 40.0575L27.647 46.1346C27.2526 46.4543 26.7647 46.6293 26.2497 46.6293C25.6551 46.6293 25.0964 46.3974 24.676 45.9774C24.2557 45.5571 24.0241 44.9984 24.0241 44.4037C24.0241 43.8095 24.2557 43.2508 24.676 42.8304L32.8212 34.6852C36.3566 31.1502 46.9806 28.0117 53.8416 34.8733ZM56.7749 31.94C48.8324 23.9976 36.3516 26.1222 30.5608 31.132C28.4732 29.8347 25.2049 28.2535 21.6375 27.4387C14.917 25.902 9.05035 27.3992 4.67067 31.7654C-3.35076 39.7619 0.665467 50.9756 4.13792 56.1964C3.97575 56.7597 3.88826 57.3479 3.88826 57.9504C3.88826 59.6354 4.54441 61.2194 5.73616 62.4111C6.92755 63.6025 8.51191 64.2587 10.1973 64.2587C10.3157 64.2587 10.4338 64.2555 10.5511 64.2491C10.544 64.3735 10.5401 64.4984 10.5401 64.6239C10.5401 66.3089 11.1966 67.8937 12.388 69.0847C13.5798 70.2764 15.1638 70.9322 16.8491 70.9322C17.0433 70.9322 17.2364 70.9237 17.4281 70.9063C17.4182 71.0521 17.4132 71.199 17.4132 71.3465C17.4132 73.0316 18.0693 74.6159 19.2607 75.8073C20.5304 77.0769 22.2154 77.6797 23.878 77.6502C23.8766 77.7061 23.8758 77.7623 23.8758 77.8184C23.8758 79.5035 24.532 81.0875 25.7234 82.2792C26.9148 83.4706 28.4991 84.1268 30.1842 84.1268C31.8692 84.1268 33.4539 83.4706 34.6453 82.2792L37.5708 79.3537C38.096 78.8285 38.5036 78.2342 38.8066 77.6033C39.2159 77.6858 39.6562 77.7367 40.1175 77.7367C41.6816 77.7367 43.4704 77.1641 44.9776 75.3496C46.1559 73.9313 46.5432 72.4287 46.5104 71.0606C48.1201 71.0578 49.8837 70.5424 51.4168 69.0093C52.8067 67.6195 53.3885 66.0646 53.4472 64.5546C55.3765 64.6805 56.8698 63.818 57.9247 62.8447C59.2256 61.6444 59.9326 60.1471 59.9682 58.5151C60.0051 56.8479 59.3604 55.4424 58.7188 54.4612C59.5215 53.1055 60.6766 50.8319 61.3391 48.0551C62.7941 41.9534 61.2157 36.3809 56.7749 31.94Z" fill="white"/>
</g>
<path fill-rule="evenodd" clip-rule="evenodd" d="M82.2907 47.1529H78.0231V53.2983H82.1769C83.0493 53.2983 83.7275 52.9904 84.2108 52.3737C84.6949 51.7574 84.9363 51.0507 84.9363 50.2541C84.9363 49.4574 84.7091 48.7419 84.2539 48.106C83.7986 47.4708 83.1439 47.1529 82.2907 47.1529ZM74.3813 63.5123V43.9095H82.3476C84.3961 43.9095 85.9467 44.5311 86.9994 45.773C88.0521 47.0153 88.5784 48.509 88.5784 50.2541C88.5784 51.9995 88.0521 53.4833 86.9994 54.7067C85.9467 55.9301 84.3961 56.5418 82.3476 56.5418H78.0231V63.5123H74.3813Z" fill="white"/>
<path fill-rule="evenodd" clip-rule="evenodd" d="M103.259 43.9094H106.929V63.5122H103.259V55.4037H95.4067V63.5122H91.7935V43.9094H95.4067V52.1318H103.259V43.9094Z" fill="white"/>
<path fill-rule="evenodd" clip-rule="evenodd" d="M120.386 63.5123H116.659V54.5786L109.148 43.9095H113.473L118.508 51.449L123.601 43.9095H127.954L120.386 54.6355V63.5123Z" fill="white"/>
<path fill-rule="evenodd" clip-rule="evenodd" d="M128.58 57.7936H132.222C132.26 58.5525 132.582 59.2019 133.189 59.7425C133.796 60.2831 134.602 60.5533 135.608 60.5533C136.556 60.5533 137.324 60.3307 137.912 59.8847C138.5 59.4395 138.813 58.8747 138.851 58.1919C138.889 57.5475 138.685 57.0066 138.239 56.5705C137.793 56.1342 137.096 55.7835 136.148 55.5175L133.73 54.8916C130.429 53.9242 128.78 52.1034 128.78 49.429C128.78 47.7408 129.419 46.3612 130.7 45.2893C131.98 44.2178 133.54 43.6819 135.38 43.6819C137.277 43.6819 138.837 44.2178 140.06 45.2893C141.284 46.3612 141.895 47.798 141.895 49.5997H138.253C138.253 48.8219 137.993 48.201 137.471 47.7361C136.949 47.2717 136.234 47.0391 135.323 47.0391C134.488 47.0391 133.791 47.2525 133.232 47.6796C132.672 48.106 132.393 48.6608 132.393 49.3436C132.393 50.4248 133.17 51.1744 134.726 51.5916L137.144 52.3029C139.173 52.8527 140.596 53.6589 141.412 54.7209C142.227 55.7835 142.588 56.9685 142.493 58.2772C142.417 59.9843 141.719 61.3357 140.401 62.3315C139.083 63.3277 137.485 63.8252 135.608 63.8252C133.54 63.8252 131.852 63.2469 130.544 62.0897C129.234 60.9328 128.58 59.5006 128.58 57.7936Z" fill="white"/>
<mask id="mask1_1046_19850" style="mask-type:alpha" maskUnits="userSpaceOnUse" x="-2" y="26" width="176" height="59">
<path fill-rule="evenodd" clip-rule="evenodd" d="M-1.6665 84.1268H173.333V26.6667H-1.6665V84.1268Z" fill="white"/>
</mask>
<g mask="url(#mask1_1046_19850)">
<path fill-rule="evenodd" clip-rule="evenodd" d="M146.134 63.5122H149.748V43.9094H146.134V63.5122Z" fill="white"/>
<path fill-rule="evenodd" clip-rule="evenodd" d="M158.895 49.1586C157.672 50.4204 157.06 51.9518 157.06 53.7534C157.06 55.5558 157.672 57.0822 158.895 58.3344C160.118 59.5859 161.612 60.2118 163.376 60.2118C165.14 60.2118 166.633 59.5859 167.857 58.3344C169.08 57.0822 169.692 55.5558 169.692 53.7534C169.692 51.9518 169.08 50.4204 167.857 49.1586C166.633 47.8975 165.14 47.2669 163.376 47.2669C161.612 47.2669 160.118 47.8975 158.895 49.1586ZM153.446 53.7534C153.446 50.9652 154.404 48.5896 156.32 46.6264C158.235 44.6633 160.588 43.6821 163.376 43.6821C166.164 43.6821 168.52 44.6633 170.446 46.6264C172.371 48.5896 173.334 50.9652 173.334 53.7534C173.334 56.5231 172.366 58.8888 170.432 60.852C168.497 62.8151 166.145 63.7966 163.376 63.7966C160.606 63.7966 158.259 62.8151 156.334 60.852C154.409 58.8888 153.446 56.5231 153.446 53.7534Z" fill="white"/>
</g>
</svg>
