<svg width="258" height="120" viewBox="0 0 258 120" fill="none" xmlns="http://www.w3.org/2000/svg">
<mask id="mask0_1060_47013" style="mask-type:alpha" maskUnits="userSpaceOnUse" x="0" y="32" width="75" height="69">
<path fill-rule="evenodd" clip-rule="evenodd" d="M0 32H74.2378V100.952H0V32Z" fill="white"/>
</mask>
<g mask="url(#mask0_1060_47013)">
<path fill-rule="evenodd" clip-rule="evenodd" d="M66.1339 71.7556C64.9867 72.8135 63.9134 72.7418 62.0655 71.4641L52.4705 61.8691L48.9506 65.3891L58.4965 74.935C59.5006 76.6126 59.3948 78.0773 58.1802 79.2914C56.5922 80.8803 54.583 80.2235 53.7623 79.8488L44.2869 70.2781L40.7494 73.7806L49.991 83.1152L50.1208 83.2851C50.3785 83.6397 51.5914 85.497 50.1447 87.2382C48.9996 88.6175 47.7462 88.3892 47.0988 88.125C46.7958 86.8657 46.171 85.6609 45.2044 84.6409L45.0849 84.5189C43.6113 83.044 41.626 82.2446 39.5442 82.3035C39.5459 82.2378 39.5468 82.1712 39.5468 82.1051C39.5468 80.0835 38.7594 78.1822 37.3297 76.7522C35.8996 75.3221 33.9988 74.5351 31.9768 74.5351C31.7417 74.5351 31.5086 74.5453 31.2778 74.5663C31.4241 72.4559 30.6922 70.2952 29.0829 68.6854C27.6524 67.2553 25.7516 66.4679 23.7295 66.4679C23.587 66.4679 23.4453 66.4718 23.3045 66.4795C23.313 66.3301 23.3173 66.1807 23.3173 66.0297C23.3173 64.0076 22.5299 62.1064 21.1002 60.6767C19.6702 59.2466 17.7689 58.4597 15.7469 58.4597C13.7249 58.4597 11.8236 59.2466 10.394 60.6767L8.10522 62.9651C5.78191 58.6893 1.82323 48.9172 9.11964 41.6434C13.159 37.6173 18.4543 36.3174 24.8566 37.779C28.0416 38.5067 30.9649 39.8313 32.9981 40.9695L26.0917 47.8767C24.6471 49.3213 23.8512 51.2418 23.8512 53.2847C23.8512 55.3276 24.6471 57.2481 26.0913 58.6931C28.8601 61.4607 33.2375 61.6549 36.2364 59.2833L36.2573 59.3051L36.6892 58.8903C36.7613 58.8233 36.8372 58.7631 36.9077 58.6931L36.9013 58.6867L44.2425 51.6314L44.2992 51.5751C44.3577 51.5166 45.7549 50.1476 47.9105 50.1476C49.9961 50.1476 51.6076 51.96 51.6106 51.9626L51.6686 52.0292C52.1739 52.5848 64.0555 65.652 65.641 67.2489C66.3037 67.9172 67.0075 69.0973 66.9853 70.1095C66.9772 70.4864 66.8799 71.0676 66.1339 71.7556ZM41.5649 91.7048L38.0544 95.2153C37.5649 95.7048 36.9136 95.975 36.221 95.975C35.5288 95.975 34.8775 95.7048 34.3876 95.2153C33.8981 94.7254 33.6288 94.0746 33.6288 93.3824C33.6288 92.6897 33.8981 92.0385 34.3876 91.549L37.8986 88.0384C38.3881 87.5489 39.0393 87.2788 39.732 87.2788C40.4242 87.2788 41.075 87.5489 41.5428 88.0162L41.6157 88.09C42.5879 89.1168 42.5653 90.704 41.5649 91.7048ZM30.2992 87.449C29.2882 88.4605 27.6434 88.4605 26.6328 87.449C26.1429 86.9595 25.8736 86.3087 25.8736 85.6161C25.8736 84.9234 26.1429 84.2726 26.6328 83.7831L30.1434 80.2721C30.6329 79.7826 31.2842 79.5125 31.9768 79.5125C32.669 79.5125 33.3198 79.7826 33.8098 80.2721C34.8208 81.2827 34.8208 82.9279 33.8098 83.9385L30.2992 87.449ZM22.0519 79.3819C21.5624 79.8718 20.9112 80.1415 20.219 80.1415C19.5263 80.1415 18.8755 79.8718 18.3856 79.3819C17.8957 78.8924 17.6259 78.2411 17.6259 77.5489C17.6259 76.8563 17.8957 76.2055 18.3856 75.7155L21.8966 72.205C22.3861 71.715 23.0369 71.4453 23.7295 71.4453C24.4218 71.4453 25.073 71.7155 25.5625 72.2054C26.5735 73.216 26.5735 74.8607 25.5629 75.8717L22.0519 79.3819ZM14.0697 71.3732C13.5798 71.8631 12.929 72.1333 12.2367 72.1333C11.5437 72.1333 10.8929 71.8631 10.4029 71.3732C9.91343 70.8837 9.64371 70.2329 9.64371 69.5407C9.64371 68.848 9.91343 68.1968 10.4029 67.7073L13.9135 64.1967H13.9139C14.4034 63.7072 15.0547 63.4371 15.7469 63.4371C16.4395 63.4371 17.0903 63.7072 17.5803 64.1967C18.0698 64.6866 18.3395 65.3374 18.3395 66.0297C18.3395 66.7223 18.0698 67.3731 17.5803 67.863L14.0697 71.3732ZM64.6099 41.8482C71.751 48.9893 69.0747 57.2682 66.9763 61.3971C63.901 58.0679 58.5251 52.1709 55.3751 48.7059C54.9253 48.1879 52.1253 45.1698 47.9105 45.1698C43.8307 45.1698 41.2321 47.5972 40.7656 48.0692L33.1764 55.3618C32.7032 55.7455 32.1176 55.9554 31.4997 55.9554C30.7861 55.9554 30.1157 55.6772 29.6112 55.1732C29.1068 54.6687 28.829 53.9983 28.829 53.2847C28.829 52.5716 29.1068 51.9011 29.6112 51.3967L39.3855 41.6225C43.6279 37.3804 56.3767 33.6142 64.6099 41.8482ZM68.1299 38.3283C58.5989 28.7973 43.622 31.3468 36.6729 37.3587C34.1678 35.8018 30.2458 33.9044 25.9649 32.9267C17.9004 31.0826 10.8604 32.8793 5.6048 38.1187C-4.02091 47.7146 0.798561 61.1709 4.9655 67.4359C4.7709 68.1119 4.66591 68.8177 4.66591 69.5407C4.66591 71.5627 5.4533 73.4635 6.88339 74.8936C8.31306 76.3232 10.2143 77.1106 12.2367 77.1106C12.3789 77.1106 12.5205 77.1068 12.6614 77.0991C12.6528 77.2485 12.6481 77.3983 12.6481 77.5489C12.6481 79.5709 13.436 81.4726 14.8656 82.9018C16.2957 84.3319 18.1965 85.1189 20.219 85.1189C20.452 85.1189 20.6837 85.1087 20.9137 85.0877C20.9018 85.2627 20.8958 85.439 20.8958 85.6161C20.8958 87.6381 21.6832 89.5393 23.1129 90.969C24.6364 92.4926 26.6584 93.2159 28.6536 93.1805C28.6519 93.2475 28.651 93.3149 28.651 93.3824C28.651 95.4044 29.4384 97.3052 30.8681 98.7353C32.2977 100.165 34.199 100.952 36.221 100.952C38.243 100.952 40.1447 100.165 41.5743 98.7353L45.0849 95.2247C45.7152 94.5944 46.2043 93.8813 46.5679 93.1242C47.0591 93.2232 47.5875 93.2842 48.141 93.2842C50.0179 93.2842 52.1645 92.5971 53.9732 90.4198C55.387 88.7178 55.8518 86.9147 55.8125 85.273C57.7441 85.2695 59.8604 84.6512 61.7002 82.8114C63.368 81.1436 64.0662 79.2778 64.1366 77.4657C66.4518 77.6168 68.2438 76.5819 69.5096 75.4138C71.0707 73.9735 71.9191 72.1768 71.9618 70.2184C72.0062 68.2177 71.2324 66.5311 70.4626 65.3537C71.4258 63.7268 72.8119 60.9985 73.607 57.6663C75.3529 50.3443 73.4589 43.6573 68.1299 38.3283Z" fill="#61C6FF"/>
</g>
<path fill-rule="evenodd" clip-rule="evenodd" d="M98.7486 56.5835H93.6274V63.958H98.612C99.6589 63.958 100.473 63.5884 101.053 62.8484C101.634 62.1089 101.923 61.2609 101.923 60.3049C101.923 59.349 101.651 58.4903 101.104 57.7272C100.558 56.965 99.7724 56.5835 98.7486 56.5835ZM89.2573 76.2147V52.6914H98.8169C101.275 52.6914 103.136 53.4374 104.399 54.9277C105.662 56.4184 106.294 58.2108 106.294 60.3049C106.294 62.3995 105.662 64.1799 104.399 65.648C103.136 67.1161 101.275 67.8501 98.8169 67.8501H93.6274V76.2147H89.2573Z" fill="#333333"/>
<path fill-rule="evenodd" clip-rule="evenodd" d="M123.911 52.6914H128.315V76.2147H123.911V66.4845H114.488V76.2147H110.152V52.6914H114.488V62.5582H123.911V52.6914Z" fill="#333333"/>
<path fill-rule="evenodd" clip-rule="evenodd" d="M144.463 76.2147H139.991V65.4944L130.978 52.6914H136.167L142.21 61.7388L148.321 52.6914H153.545L144.463 65.5627V76.2147Z" fill="#333333"/>
<path fill-rule="evenodd" clip-rule="evenodd" d="M154.296 69.352H158.666C158.712 70.2628 159.098 71.042 159.827 71.6907C160.555 72.3394 161.522 72.6637 162.729 72.6637C163.867 72.6637 164.789 72.3966 165.494 71.8614C166.2 71.3271 166.575 70.6494 166.621 69.83C166.666 69.0567 166.422 68.4076 165.887 67.8844C165.352 67.3608 164.515 66.94 163.377 66.6207L160.475 65.8696C156.515 64.7088 154.535 62.5238 154.535 59.3145C154.535 57.2886 155.303 55.6332 156.839 54.347C158.376 53.0611 160.248 52.418 162.456 52.418C164.732 52.418 166.604 53.0611 168.072 54.347C169.54 55.6332 170.274 57.3574 170.274 59.5194H165.904C165.904 58.586 165.591 57.8409 164.965 57.2831C164.339 56.7257 163.48 56.4466 162.387 56.4466C161.386 56.4466 160.549 56.7027 159.878 57.2152C159.207 57.7269 158.871 58.3927 158.871 59.2121C158.871 60.5095 159.804 61.4091 161.67 61.9097L164.572 62.7632C167.008 63.423 168.715 64.3905 169.694 65.6648C170.672 66.94 171.105 68.3619 170.991 69.9324C170.9 71.9809 170.063 73.6026 168.482 74.7976C166.9 75.9929 164.982 76.59 162.729 76.59C160.248 76.59 158.222 75.8961 156.652 74.5074C155.081 73.1191 154.296 71.4005 154.296 69.352Z" fill="#333333"/>
<mask id="mask1_1060_47013" style="mask-type:alpha" maskUnits="userSpaceOnUse" x="-2" y="32" width="210" height="69">
<path fill-rule="evenodd" clip-rule="evenodd" d="M-2 100.952H208V32H-2V100.952Z" fill="white"/>
</mask>
<g mask="url(#mask1_1060_47013)">
<path fill-rule="evenodd" clip-rule="evenodd" d="M175.361 76.2147H179.697V52.6914H175.361V76.2147Z" fill="#333333"/>
<path fill-rule="evenodd" clip-rule="evenodd" d="M190.673 58.9907C189.206 60.5049 188.471 62.3425 188.471 64.5045C188.471 66.6674 189.206 68.4991 190.673 70.0017C192.141 71.5035 193.934 72.2546 196.051 72.2546C198.168 72.2546 199.96 71.5035 201.428 70.0017C202.896 68.4991 203.63 66.6674 203.63 64.5045C203.63 62.3425 202.896 60.5049 201.428 58.9907C199.96 57.4774 198.168 56.7207 196.051 56.7207C193.934 56.7207 192.141 57.4774 190.673 58.9907ZM184.135 64.5045C184.135 61.1587 185.285 58.3079 187.584 55.9521C189.882 53.5964 192.705 52.4189 196.051 52.4189C199.396 52.4189 202.224 53.5964 204.535 55.9521C206.845 58.3079 208 61.1587 208 64.5045C208 67.8282 206.839 70.667 204.518 73.0228C202.196 75.3785 199.374 76.5564 196.051 76.5564C192.727 76.5564 189.911 75.3785 187.601 73.0228C185.291 70.667 184.135 67.8282 184.135 64.5045Z" fill="#333333"/>
</g>
</svg>
