<svg width="258" height="120" viewBox="0 0 258 120" fill="none" xmlns="http://www.w3.org/2000/svg">
<path fill-rule="evenodd" clip-rule="evenodd" d="M97.1808 50.0571H106.755C113.307 50.0571 117.634 53.9487 117.634 59.7873C117.634 65.9148 113.024 69.9734 106.068 69.9734H104.775C104.405 69.9734 104.106 69.6664 104.106 69.2878V66.1049C104.106 65.7263 104.405 65.4182 104.775 65.4182H106.593C110.314 65.4182 112.821 63.1823 112.821 59.7873C112.821 56.7234 110.314 54.6522 106.593 54.6522H101.59C101.404 54.6522 101.254 54.806 101.254 54.995V77.9455C101.254 78.3866 100.906 78.7444 100.474 78.7444H97.1808C96.7488 78.7444 96.3999 78.3866 96.3999 77.9455V50.8554C96.3999 50.4144 96.7488 50.0571 97.1808 50.0571ZM180.263 52.9972C180.263 51.3 181.558 50.0571 183.174 50.0571C184.792 50.0571 186.086 51.3 186.086 52.9972C186.086 54.6117 184.792 55.854 183.174 55.854C181.558 55.854 180.263 54.6117 180.263 52.9972ZM181.594 78.7444H184.795C185.196 78.7444 185.521 78.4126 185.521 78.0027V59.9011C185.521 59.4919 185.196 59.1588 184.795 59.1588H181.594C181.194 59.1588 180.869 59.4919 180.869 59.9011V78.0027C180.869 78.4126 181.194 78.7444 181.594 78.7444ZM172.036 52.9972C172.036 51.3 173.33 50.0571 174.948 50.0571C176.564 50.0571 177.859 51.3 177.859 52.9972C177.859 54.6117 176.564 55.854 174.948 55.854C173.33 55.854 172.036 54.6117 172.036 52.9972ZM122.407 50.0571C120.789 50.0571 119.496 51.3 119.496 52.9972C119.496 54.6117 120.789 55.854 122.407 55.854C124.026 55.854 125.319 54.6117 125.319 52.9972C125.319 51.3 124.026 50.0571 122.407 50.0571ZM193.41 68.9727C193.41 72.2845 195.593 74.8939 198.91 74.8939C201.093 74.8939 202.769 73.7488 203.378 71.936C203.482 71.6262 203.765 71.4151 204.085 71.4151H207.696C208.017 71.4151 208.254 71.7191 208.189 72.0405C207.326 76.3351 203.541 79.2 198.91 79.2C193.166 79.2 188.758 74.7691 188.758 68.9727C188.758 63.1342 193.166 58.7039 198.91 58.7039C203.54 58.7039 207.322 61.6052 208.188 65.861C208.252 66.1836 208.016 66.4876 207.695 66.4876H204.081C203.762 66.4876 203.482 66.279 203.378 65.9714C202.765 64.1927 201.092 63.051 198.91 63.051C195.593 63.051 193.41 65.6598 193.41 68.9727ZM173.367 78.7444H176.568C176.968 78.7444 177.293 78.4126 177.293 78.0027V59.9011C177.293 59.4919 176.968 59.1588 176.568 59.1588H173.367C172.966 59.1588 172.642 59.4919 172.642 59.9011V78.0027C172.642 78.4126 172.966 78.7444 173.367 78.7444ZM155.597 60.1358C157.065 59.1184 158.74 58.538 160.672 58.538C165.687 58.538 169.044 62.2653 169.044 67.9375V78.2069C169.044 78.504 168.809 78.7444 168.517 78.7444H164.919C164.629 78.7444 164.392 78.504 164.392 78.2069V68.227C164.392 64.7904 162.614 62.8862 159.702 62.8862C158.072 62.8862 156.289 63.8436 154.847 65.6021C154.797 65.665 154.766 65.7471 154.766 65.8286V78.2069C154.766 78.504 154.531 78.7444 154.24 78.7444H150.601C150.31 78.7444 150.075 78.504 150.075 78.2069V59.6971C150.075 59.4005 150.31 59.1588 150.601 59.1588H154.254C154.549 59.1588 154.763 59.4085 154.766 59.708C154.772 60.352 155.245 60.3791 155.597 60.1358ZM138.144 63.051C140.346 63.051 142.032 64.217 142.628 66.0257C142.72 66.302 142.974 66.4876 143.258 66.4876H146.928C147.25 66.4876 147.487 66.1824 147.422 65.8621C146.556 61.6052 142.772 58.7039 138.144 58.7039C132.399 58.7039 127.991 63.1342 127.991 68.9727C127.991 74.7691 132.399 79.2 138.144 79.2C142.774 79.2 146.559 76.3351 147.423 72.0405C147.487 71.7191 147.25 71.4151 146.928 71.4151H143.262C142.974 71.4151 142.72 71.603 142.63 71.8815C142.036 73.7268 140.349 74.8939 138.144 74.8939C134.827 74.8939 132.642 72.2845 132.642 68.9727C132.642 65.661 134.827 63.051 138.144 63.051ZM120.103 77.9496C120.103 78.3895 120.45 78.7444 120.878 78.7444H123.978C124.406 78.7444 124.754 78.3895 124.754 77.9496V59.9536C124.754 59.5156 124.406 59.1588 123.978 59.1588H120.878C120.45 59.1588 120.103 59.5156 120.103 59.9536V77.9496Z" fill="#49D174"/>
<path d="M75.6552 67.397L72.5386 60.3847C72.3469 59.9537 71.9196 59.6755 71.4481 59.6755H59.319C59.0835 59.6755 58.8697 59.5364 58.774 59.3204L55.9783 53.0246C55.8908 52.8274 56.0352 52.6044 56.2508 52.6044H63.1348C63.999 52.6044 64.5765 51.7129 64.2255 50.9222L61.1885 44.0872C60.949 43.5479 60.4148 43.2002 59.826 43.2002H17.7305C17.1412 43.2002 16.607 43.5485 16.3675 44.0883L13.3362 50.9228C12.9851 51.7134 13.5632 52.6044 14.4268 52.6044H21.3085C21.5247 52.6044 21.6692 52.8274 21.581 53.0252L18.7745 59.3215C18.6784 59.537 18.4651 59.6755 18.2296 59.6755H6.30253C5.71312 59.6755 5.17948 60.0233 4.93938 60.5625L1.90416 67.3975C1.55314 68.1882 2.1306 69.0792 2.99479 69.0792H14.0223C14.2385 69.0792 14.383 69.3026 14.2948 69.5004L8.41837 82.6585C8.06507 83.4497 8.64253 84.3431 9.50786 84.3431H19.0169C19.6057 84.3431 20.1394 83.9959 20.3795 83.4566L33.9489 52.959C34.0451 52.743 34.2584 52.6044 34.494 52.6044H40.277C42.3269 52.6044 44.098 52.9807 44.8193 54.5928C45.5408 56.2044 46.3896 58.0862 47.0496 59.6105C47.2225 60.009 48.0293 62.0789 46.9654 63.7041C45.889 65.3482 43.8311 66.2169 39.0681 66.2169H32.7052C32.3519 66.2169 32.0317 66.4256 31.8878 66.7487L31.2248 68.3888C31.0492 68.7845 31.3381 69.2303 31.7699 69.2303H39.6724C44.6687 69.2303 47.8638 67.9629 49.517 65.4382C51.3399 62.6546 50.0569 59.3637 49.6706 58.4709C49.0011 56.9266 48.1618 55.0683 47.2129 52.9448C46.2662 50.8259 43.9466 49.7422 40.277 49.7422H33.2207C32.6319 49.7422 32.0982 50.0894 31.8582 50.6281L18.2887 81.1262C18.1926 81.3417 17.9791 81.4808 17.7436 81.4808H12.5346C12.3184 81.4808 12.1738 81.2573 12.262 81.0595L18.1385 67.9015C18.4918 67.1101 17.9143 66.2169 17.0489 66.2169H6.01408C5.79846 66.2169 5.65395 65.994 5.74157 65.7962L7.03133 62.8928C7.12748 62.6768 7.34082 62.5377 7.57692 62.5377H19.5017C20.0905 62.5377 20.6235 62.1911 20.8636 61.6524L25.423 51.4256C25.7757 50.6343 25.1983 49.7422 24.3335 49.7422H17.4449C17.2293 49.7422 17.0849 49.5193 17.1725 49.3215L18.4599 46.4182C18.556 46.2021 18.7695 46.063 19.0055 46.063H58.5516C58.7871 46.063 59.001 46.2016 59.0966 46.4176L60.3869 49.3215C60.4751 49.5193 60.3306 49.7422 60.1144 49.7422H53.2316C52.3673 49.7422 51.7899 50.6332 52.1409 51.4239L56.6821 61.6507C56.9217 62.1899 57.4559 62.5377 58.0452 62.5377H69.9808C70.2163 62.5377 70.4301 62.6768 70.5258 62.8923L71.8167 65.7962C71.9043 65.994 71.7604 66.2169 71.5442 66.2169H60.5474C59.6832 66.2169 59.1057 67.1079 59.4568 67.8992L65.3013 81.0601C65.3889 81.2579 65.2444 81.4808 65.0282 81.4808H59.8145C59.5785 81.4808 59.3645 81.3417 59.269 81.1257L54.1606 69.6121C54.0167 69.2879 53.6964 69.0792 53.3425 69.0792H51.7159C51.2841 69.0792 50.9957 69.5249 51.1709 69.92L57.1765 83.4555C57.416 83.9953 57.9502 84.3431 58.5396 84.3431H68.0481C68.9123 84.3431 69.4898 83.4515 69.1387 82.6608L63.2942 69.4999C63.2066 69.302 63.351 69.0792 63.5666 69.0792H74.5651C75.4288 69.0792 76.0068 68.1875 75.6552 67.397Z" fill="#49D174"/>
</svg>
