<svg width="215" height="100" viewBox="0 0 215 100" fill="none" xmlns="http://www.w3.org/2000/svg">
<path fill-rule="evenodd" clip-rule="evenodd" d="M80.9843 41.7142H88.9626C94.4228 41.7142 98.0285 44.9572 98.0285 49.8227C98.0285 54.929 94.1866 58.3111 88.39 58.3111H87.3125C87.0043 58.3111 86.7549 58.0553 86.7549 57.7398V55.0874C86.7549 54.7719 87.0043 54.5151 87.3125 54.5151H88.8276C91.9284 54.5151 94.0181 52.6519 94.0181 49.8227C94.0181 47.2695 91.9284 45.5435 88.8276 45.5435H84.6582C84.5034 45.5435 84.3787 45.6716 84.3787 45.8291V64.9546C84.3787 65.3222 84.0884 65.6203 83.7289 65.6203H80.9843C80.6242 65.6203 80.3335 65.3222 80.3335 64.9546V42.3795C80.3335 42.0119 80.6242 41.7142 80.9843 41.7142ZM150.219 44.1643C150.219 42.7499 151.298 41.7142 152.646 41.7142C153.994 41.7142 155.072 42.7499 155.072 44.1643C155.072 45.5097 153.994 46.545 152.646 46.545C151.298 46.545 150.219 45.5097 150.219 44.1643ZM151.328 65.6203H153.996C154.33 65.6203 154.601 65.3438 154.601 65.0022V49.9175C154.601 49.5765 154.33 49.299 153.996 49.299H151.328C150.995 49.299 150.724 49.5765 150.724 49.9175V65.0022C150.724 65.3438 150.995 65.6203 151.328 65.6203ZM143.363 44.1643C143.363 42.7499 144.442 41.7142 145.79 41.7142C147.137 41.7142 148.216 42.7499 148.216 44.1643C148.216 45.5097 147.137 46.545 145.79 46.545C144.442 46.545 143.363 45.5097 143.363 44.1643ZM102.006 41.7142C100.658 41.7142 99.5799 42.7499 99.5799 44.1643C99.5799 45.5097 100.658 46.545 102.006 46.545C103.355 46.545 104.433 45.5097 104.433 44.1643C104.433 42.7499 103.355 41.7142 102.006 41.7142ZM161.175 57.4772C161.175 60.2371 162.995 62.4115 165.759 62.4115C167.578 62.4115 168.974 61.4573 169.482 59.9466C169.569 59.6884 169.804 59.5126 170.071 59.5126H173.08C173.348 59.5126 173.545 59.7659 173.491 60.0337C172.772 63.6126 169.618 65.9999 165.759 65.9999C160.972 65.9999 157.299 62.3075 157.299 57.4772C157.299 52.6118 160.972 48.9199 165.759 48.9199C169.617 48.9199 172.769 51.3377 173.49 54.8842C173.544 55.153 173.347 55.4063 173.079 55.4063H170.068C169.802 55.4063 169.569 55.2324 169.482 54.9761C168.971 53.4939 167.577 52.5425 165.759 52.5425C162.995 52.5425 161.175 54.7165 161.175 57.4772ZM144.473 65.6203H147.14C147.473 65.6203 147.744 65.3438 147.744 65.0022V49.9175C147.744 49.5765 147.473 49.299 147.14 49.299H144.473C144.139 49.299 143.869 49.5765 143.869 49.9175V65.0022C143.869 65.3438 144.139 65.6203 144.473 65.6203ZM129.665 50.1131C130.888 49.2653 132.284 48.7816 133.893 48.7816C138.073 48.7816 140.87 51.8877 140.87 56.6145V65.1724C140.87 65.42 140.674 65.6203 140.431 65.6203H137.433C137.191 65.6203 136.994 65.42 136.994 65.1724V56.8558C136.994 53.992 135.512 52.4051 133.085 52.4051C131.727 52.4051 130.241 53.2029 129.039 54.6683C128.997 54.7208 128.972 54.7892 128.972 54.8571V65.1724C128.972 65.42 128.776 65.6203 128.534 65.6203H125.501C125.259 65.6203 125.063 65.42 125.063 65.1724V49.7475C125.063 49.5003 125.259 49.299 125.501 49.299H128.546C128.791 49.299 128.97 49.5071 128.972 49.7567C128.977 50.2933 129.371 50.3159 129.665 50.1131ZM115.12 52.5425C116.955 52.5425 118.36 53.5141 118.857 55.0214C118.933 55.2516 119.145 55.4063 119.382 55.4063H122.44C122.708 55.4063 122.906 55.152 122.852 54.885C122.13 51.3377 118.977 48.9199 115.12 48.9199C110.333 48.9199 106.66 52.6118 106.66 57.4772C106.66 62.3075 110.333 65.9999 115.12 65.9999C118.978 65.9999 122.133 63.6126 122.853 60.0337C122.906 59.7659 122.708 59.5126 122.44 59.5126H119.385C119.145 59.5126 118.933 59.6691 118.858 59.9013C118.364 61.439 116.958 62.4115 115.12 62.4115C112.356 62.4115 110.535 60.2371 110.535 57.4772C110.535 54.7175 112.356 52.5425 115.12 52.5425ZM100.086 64.958C100.086 65.3246 100.375 65.6203 100.732 65.6203H103.315C103.672 65.6203 103.962 65.3246 103.962 64.958V49.9613C103.962 49.5963 103.672 49.299 103.315 49.299H100.732C100.375 49.299 100.086 49.5963 100.086 49.9613V64.958Z" fill="white"/>
<path d="M63.0462 56.164L60.449 50.3204C60.2892 49.9612 59.9331 49.7294 59.5402 49.7294H49.4327C49.2364 49.7294 49.0582 49.6135 48.9785 49.4335L46.6488 44.187C46.5758 44.0226 46.6961 43.8369 46.8759 43.8369H52.6125C53.3326 43.8369 53.8139 43.0939 53.5214 42.435L50.9906 36.7392C50.791 36.2898 50.3458 36 49.8551 36H14.7756C14.2845 36 13.8393 36.2903 13.6397 36.7401L11.1136 42.4355C10.8211 43.0944 11.3028 43.8369 12.0225 43.8369H17.7572C17.9374 43.8369 18.0578 44.0226 17.9843 44.1875L15.6456 49.4344C15.5655 49.614 15.3877 49.7294 15.1915 49.7294H5.25227C4.76109 49.7294 4.31639 50.0192 4.11631 50.4686L1.58697 56.1644C1.29444 56.8233 1.77566 57.5658 2.49582 57.5658H11.6854C11.8656 57.5658 11.986 57.752 11.9125 57.9168L7.01547 68.8819C6.72106 69.5413 7.20227 70.2857 7.92338 70.2857H15.8476C16.3383 70.2857 16.783 69.9964 16.983 69.547L28.2909 44.1324C28.371 43.9523 28.5488 43.8369 28.7452 43.8369H33.5644C35.2726 43.8369 36.7485 44.1504 37.3496 45.4939C37.9508 46.8369 38.6582 48.405 39.2081 49.6753C39.3523 50.0073 40.0246 51.7322 39.138 53.0866C38.241 54.4566 36.5261 55.1806 32.5569 55.1806H27.2545C26.9601 55.1806 26.6932 55.3545 26.5733 55.6237L26.0209 56.9905C25.8745 57.3202 26.1153 57.6917 26.4751 57.6917H33.0605C37.2241 57.6917 39.8866 56.6356 41.2643 54.5316C42.7834 52.212 41.7142 49.4696 41.3923 48.7256C40.8344 47.4387 40.135 45.89 39.3443 44.1205C38.5554 42.3547 36.6223 41.4517 33.5644 41.4517H27.6841C27.1934 41.4517 26.7487 41.741 26.5486 42.1899L15.2408 67.605C15.1606 67.7846 14.9828 67.9005 14.7865 67.9005H10.4456C10.2655 67.9005 10.145 67.7143 10.2185 67.5494L15.1156 56.5844C15.41 55.9249 14.9287 55.1806 14.2076 55.1806H5.0119C4.83221 55.1806 4.71179 54.9948 4.78481 54.83L5.85961 52.4105C5.93973 52.2305 6.11751 52.1146 6.31427 52.1146H16.2516C16.7422 52.1146 17.1864 51.8258 17.3865 51.3768L21.186 42.8545C21.4799 42.1951 20.9987 41.4517 20.278 41.4517H14.5376C14.3579 41.4517 14.2376 41.2659 14.3105 41.1011L15.3834 38.6817C15.4635 38.5016 15.6414 38.3857 15.8381 38.3857H48.7932C48.9894 38.3857 49.1676 38.5011 49.2473 38.6812L50.3226 41.1011C50.3961 41.2659 50.2756 41.4517 50.0955 41.4517H44.3598C43.6396 41.4517 43.1584 42.1942 43.4509 42.8531L47.2353 51.3754C47.4349 51.8248 47.88 52.1146 48.3712 52.1146H58.3175C58.5137 52.1146 58.6919 52.2305 58.7716 52.4101L59.8474 54.83C59.9204 54.9948 59.8005 55.1806 59.6203 55.1806H50.4563C49.7362 55.1806 49.2549 55.9231 49.5475 56.5825L54.4179 67.5499C54.4909 67.7147 54.3705 67.9005 54.1903 67.9005H49.8456C49.6489 67.9005 49.4706 67.7846 49.391 67.6046L45.134 58.0099C45.0141 57.7397 44.7471 57.5658 44.4523 57.5658H43.0968C42.7369 57.5658 42.4965 57.9373 42.6426 58.2665L47.6472 69.5461C47.8468 69.9959 48.292 70.2857 48.7831 70.2857H56.7069C57.427 70.2857 57.9083 69.5428 57.6157 68.8839L52.7453 57.9164C52.6723 57.7515 52.7927 57.5658 52.9724 57.5658H62.1378C62.8575 57.5658 63.3392 56.8228 63.0462 56.164Z" fill="white"/>
</svg>
