<svg width="258" height="120" viewBox="0 0 258 120" fill="none" xmlns="http://www.w3.org/2000/svg">
<mask id="mask0_1060_47015" style="mask-type:alpha" maskUnits="userSpaceOnUse" x="20" y="35" width="48" height="55">
<path fill-rule="evenodd" clip-rule="evenodd" d="M20.0322 35.0479H67.7784V89.0651H20.0322V35.0479Z" fill="white"/>
</mask>
<g mask="url(#mask0_1060_47015)">
<path fill-rule="evenodd" clip-rule="evenodd" d="M36.4262 49.1354C35.8385 48.4891 35.892 47.5113 36.5452 46.928C37.1799 46.3605 38.1728 46.3972 38.7615 47.0067C38.7735 47.0182 38.7844 47.0298 38.7954 47.0424C42.9122 51.5431 45.7511 56.4959 47.028 61.0732C47.8014 63.8471 48.0078 66.4961 47.5884 68.8472C47.1482 71.3178 46.0307 73.4633 44.1727 75.102C42.8653 76.257 41.1995 77.1414 39.1536 77.6912C38.3082 77.9104 37.4387 77.431 37.2104 76.619C37.2083 76.6106 37.2061 76.6043 37.2039 76.5959C36.9734 75.765 37.4726 74.9068 38.318 74.6813C39.8549 74.2679 41.0903 73.6164 42.0428 72.7771C43.3426 71.6305 44.1291 70.0956 44.448 68.3079C44.7877 66.4017 44.6097 64.2164 43.9619 61.8936C42.815 57.7801 40.2175 53.2794 36.4262 49.1364V49.1354ZM39.8647 88.6062C39.2618 89.2042 38.2667 89.2199 37.6441 88.6408C37.6321 88.6303 37.62 88.6177 37.608 88.6062C36.9865 87.9882 36.9865 87.0094 37.608 86.3915L60.0296 64.3706C63.0684 61.3869 64.5878 57.4506 64.5878 53.5144C64.5878 49.577 63.0695 45.6418 60.0296 42.6571C57.1252 39.793 53.1383 38.1784 48.9756 38.1826C44.9668 38.1826 40.9581 39.6734 37.9215 42.6571L32.992 47.4977C28.3388 52.0687 25.1733 57.2272 23.8724 61.8936C23.2498 64.1303 23.0608 66.2443 23.3524 68.1054C23.6255 69.8449 24.3322 71.3535 25.5119 72.5117C26.4983 73.4811 27.8254 74.226 29.5152 74.6813C30.3617 74.9068 30.8609 75.765 30.6304 76.5959C30.4152 77.4111 29.5534 77.9041 28.7047 77.6975C28.696 77.6954 28.6883 77.6933 28.6807 77.6912C26.4153 77.0827 24.6173 76.064 23.2563 74.7285C21.5753 73.0772 20.5758 70.9716 20.199 68.5702C19.8429 66.2926 20.0624 63.7422 20.8063 61.0732C22.2514 55.8927 25.6987 50.2296 30.7353 45.283L35.6648 40.4424C39.1602 36.9908 43.9619 35.0447 48.9756 35.0479C53.7992 35.0479 58.6239 36.846 62.2852 40.4424C65.9477 44.0388 67.7784 48.7766 67.7784 53.5144C67.7784 58.2511 65.9477 62.9899 62.2852 66.5863L39.8647 88.6072V88.6062Z" fill="#6F90EB"/>
</g>
<path fill-rule="evenodd" clip-rule="evenodd" d="M35.0202 92.321L35.0158 92.3292L35.0017 92.3531L34.9974 92.3613L34.9822 92.3862L34.9768 92.3955L34.9627 92.4183L34.9573 92.4276L34.941 92.4514L34.9356 92.4597L34.9215 92.4793L34.9128 92.4928C34.8987 92.5125 34.8846 92.5311 34.8694 92.5497V92.5508L34.8445 92.5808C34.7762 92.6615 34.7003 92.7371 34.6157 92.8044L34.5843 92.8272V92.8282C34.5647 92.8427 34.5452 92.8572 34.5257 92.8696L34.5116 92.881L34.4921 92.8934L34.4823 92.8997L34.4574 92.9141L34.4487 92.9204L34.4259 92.9338L34.4162 92.94L34.3901 92.9535L34.3826 92.9576L34.3489 92.9763C33.8902 93.2102 33.3405 93.2102 32.8829 92.9763L32.8742 92.9721L32.8492 92.9576L32.8416 92.9535L32.8156 92.94L32.8059 92.9338L32.7831 92.9204L32.7744 92.9141L32.7495 92.8997L32.7408 92.8934L32.7202 92.88L32.7061 92.8696C32.6866 92.8572 32.6671 92.8438 32.6486 92.8282H32.6475L32.6172 92.8044C32.5716 92.7692 32.5283 92.7309 32.4871 92.6895L5.45445 66.2975C1.81743 62.7508 0 58.0747 0 53.3997C0 48.7256 1.81743 44.0495 5.45337 40.5008C8.76724 37.2543 13.2653 35.3526 18.0116 35.1942C22.7525 35.0296 27.3774 36.6197 30.9201 39.6333C31.5794 40.1913 31.6521 41.1644 31.0806 41.8083C30.5297 42.4367 29.5495 42.5215 28.8902 41.9946C28.8782 41.9853 28.8663 41.9749 28.8544 41.9646C25.9059 39.4583 22.0564 38.1353 18.1103 38.2751C14.1707 38.4086 10.4394 39.9894 7.69153 42.6872C4.67586 45.6314 3.1664 49.5155 3.1664 53.3997C3.1664 57.2838 4.67478 61.168 7.69153 64.1132L32.0327 87.8736V72.4778L27.0283 67.5915C26.4102 66.9828 26.4102 66.0159 27.0283 65.4072C27.6279 64.8171 28.6147 64.8016 29.2339 65.3741C29.2447 65.3845 29.2567 65.3958 29.2675 65.4072L32.0327 68.104V64.284L27.0283 59.3988C26.4102 58.7901 26.4102 57.8221 27.0283 57.2134C27.6268 56.6234 28.6136 56.6078 29.2317 57.1793C29.2437 57.1896 29.2556 57.201 29.2675 57.2134L32.0327 59.9112V54.1668C32.0327 53.3117 32.7419 52.6191 33.6159 52.6191C34.491 52.6191 35.1991 53.3117 35.1991 54.1657V59.9102L37.9643 57.2134C38.5629 56.6234 39.5496 56.6078 40.1677 57.1793C40.1797 57.1896 40.1916 57.201 40.2035 57.2134C40.8216 57.817 40.8216 58.7953 40.2035 59.3988L35.1991 64.284V68.104L37.9643 65.4072C38.5639 64.8171 39.5507 64.8016 40.1699 65.3741C40.1808 65.3845 40.1927 65.3958 40.2035 65.4072C40.8216 66.0108 40.8216 66.988 40.2035 67.5915L35.1991 72.4778V91.6056C35.1991 91.8634 35.134 92.1067 35.0202 92.3199V92.321Z" fill="#EBB06F"/>
<path fill-rule="evenodd" clip-rule="evenodd" d="M86.9508 66.1485H92.8897C94.4822 66.1485 95.715 65.8173 96.5891 65.153C97.4631 64.4897 97.8996 63.4722 97.8996 62.1025C97.8996 60.7327 97.4631 59.7373 96.5891 59.1161C95.715 58.495 94.4822 58.1849 92.8897 58.1849H86.9508V66.1485ZM93.0556 55.2949C94.139 55.2949 95.1624 55.4284 96.1246 55.6963C97.0867 55.9642 97.9328 56.3767 98.6627 56.9326C99.3926 57.4895 99.9732 58.196 100.405 59.0519C100.836 59.9079 101.052 60.9254 101.052 62.1025C101.052 63.2806 100.836 64.3021 100.405 65.1691C99.9732 66.0361 99.3926 66.7586 98.6627 67.3366C97.9328 67.9146 97.0867 68.3431 96.1246 68.6211C95.1624 68.899 94.139 69.0385 93.0556 69.0385H86.9508V76.9057C86.9508 77.1416 86.8626 77.3443 86.6853 77.5158C86.508 77.6874 86.2986 77.7727 86.055 77.7727H84.6946C84.451 77.7727 84.2416 77.6874 84.0643 77.5158C83.887 77.3443 83.7988 77.1416 83.7988 76.9057V56.1619C83.7988 55.9261 83.887 55.7234 84.0643 55.5518C84.2416 55.3812 84.451 55.2949 84.6946 55.2949H93.0556Z" fill="#6F90EB"/>
<path fill-rule="evenodd" clip-rule="evenodd" d="M109.678 76.8724C109.678 77.1171 109.57 77.3275 109.353 77.5056C109.136 77.6837 108.879 77.7722 108.581 77.7722H107.078C106.78 77.7722 106.523 77.6837 106.306 77.5056C106.089 77.3275 105.981 77.1171 105.981 76.8724V55.0101C105.981 54.7654 106.089 54.555 106.306 54.3769C106.523 54.1988 106.78 54.1113 107.078 54.1113H108.581C108.879 54.1113 109.136 54.1988 109.353 54.3769C109.57 54.555 109.678 54.7654 109.678 55.0101V76.8724Z" fill="#6F90EB"/>
<path fill-rule="evenodd" clip-rule="evenodd" d="M120.834 74.9459C121.646 74.9459 122.391 74.8257 123.067 74.5833C123.744 74.343 124.325 74.0093 124.81 73.5821C125.294 73.1549 125.667 72.6455 125.927 72.054C126.186 71.4614 126.316 70.8052 126.316 70.0822V69.2607L122.323 69.884C120.902 70.1038 119.773 70.455 118.939 70.9367C118.104 71.4183 117.687 72.0427 117.687 72.8098C117.687 73.0501 117.743 73.2914 117.856 73.5328C117.969 73.7731 118.149 74.0041 118.397 74.2229C118.646 74.4416 118.966 74.6172 119.362 74.7487C119.756 74.8801 120.247 74.9459 120.834 74.9459ZM114.607 73.1374C114.607 72.2624 114.788 71.4953 115.149 70.8381C115.509 70.1798 116.006 69.6211 116.638 69.1611C117.269 68.702 118.008 68.3303 118.854 68.0437C119.7 67.7603 120.597 67.5405 121.545 67.3875L126.316 66.6307V66.2035C126.316 65.0861 125.938 64.2492 125.182 63.6905C124.426 63.1319 123.484 62.8525 122.357 62.8525C121.364 62.8525 120.614 63.0281 120.106 63.3773C119.599 63.7285 119.164 64.1444 118.804 64.6261C118.668 64.8027 118.521 64.9218 118.364 64.9886C118.206 65.0533 117.991 65.0861 117.721 65.0861H116.705C116.457 65.0861 116.237 64.9988 116.046 64.8243C115.854 64.6487 115.769 64.4412 115.792 64.1989C115.836 63.7172 116.034 63.2253 116.384 62.7211C116.734 62.2168 117.207 61.7681 117.805 61.3727C118.403 60.9783 119.091 60.6559 119.87 60.4043C120.648 60.1527 121.477 60.0264 122.357 60.0264C123.372 60.0264 124.314 60.1681 125.182 60.4536C126.051 60.738 126.795 61.154 127.416 61.7023C128.037 62.2497 128.521 62.9295 128.871 63.7398C129.221 64.5501 129.395 65.4805 129.395 66.5331V76.5551C129.395 76.7974 129.305 77.0049 129.125 77.1805C128.944 77.3561 128.729 77.4434 128.482 77.4434H127.23C126.981 77.4434 126.767 77.3561 126.587 77.1805C126.406 77.0049 126.316 76.7974 126.316 76.5551V75.2088C126.113 75.6247 125.797 75.9923 125.369 76.3096C124.939 76.627 124.448 76.895 123.896 77.1137C123.343 77.3335 122.768 77.4968 122.171 77.6077C121.573 77.7166 121.014 77.772 120.496 77.772C119.616 77.772 118.809 77.6508 118.076 77.4095C117.343 77.1692 116.722 76.8467 116.215 76.4411C115.707 76.0365 115.312 75.5487 115.03 74.9777C114.748 74.4098 114.607 73.7957 114.607 73.1374Z" fill="#6F90EB"/>
<path fill-rule="evenodd" clip-rule="evenodd" d="M150.345 76.868C150.345 77.1139 150.253 77.3252 150.068 77.5042C149.882 77.6831 149.663 77.772 149.409 77.772H148.126C147.871 77.772 147.652 77.6831 147.467 77.5042C147.282 77.3252 147.19 77.1139 147.19 76.868V68.0297C147.19 66.3106 146.762 65.0278 145.907 64.1782C145.05 63.3307 143.861 62.9058 142.335 62.9058C140.878 62.9058 139.705 63.3307 138.815 64.1782C137.926 65.0278 137.48 66.3106 137.48 68.0297V76.868C137.48 77.1139 137.387 77.3252 137.203 77.5042C137.018 77.6831 136.799 77.772 136.544 77.772H135.261C135.006 77.772 134.787 77.6831 134.602 77.5042C134.417 77.3252 134.325 77.1139 134.325 76.868V61.2652C134.325 61.0204 134.417 60.808 134.602 60.629C134.787 60.4512 135.006 60.3622 135.261 60.3622H136.544C136.799 60.3622 137.018 60.4512 137.203 60.629C137.387 60.808 137.48 61.0204 137.48 61.2652V62.3032C137.919 61.7455 138.573 61.2265 139.439 60.7462C140.306 60.267 141.445 60.0264 142.855 60.0264C143.941 60.0264 144.948 60.199 145.872 60.5453C146.796 60.8917 147.588 61.3824 148.247 62.0196C148.906 62.6547 149.42 63.4416 149.79 64.3791C150.16 65.3166 150.345 66.366 150.345 67.5264V76.868Z" fill="#6F90EB"/>
<path fill-rule="evenodd" clip-rule="evenodd" d="M159.456 71.9403C159.456 72.3621 159.496 72.7557 159.577 73.1233C159.658 73.4889 159.802 73.8065 160.01 74.0731C160.217 74.3397 160.512 74.5449 160.892 74.6896C161.273 74.8333 161.763 74.9062 162.364 74.9062H164.198C164.453 74.9062 164.671 74.9958 164.856 75.1728C165.041 75.3499 165.133 75.5623 165.133 75.806V76.8714C165.133 77.1171 165.041 77.3275 164.856 77.5056C164.671 77.6837 164.453 77.7722 164.198 77.7722H162.017C160.01 77.7722 158.556 77.2713 157.656 76.2715C156.756 75.2718 156.306 73.8284 156.306 71.9403V63.3091H153.744C153.49 63.3091 153.271 63.2206 153.086 63.0425C152.902 62.8644 152.81 62.654 152.81 62.4093V61.3418C152.81 61.0982 152.902 60.8878 153.086 60.7097C153.271 60.5316 153.49 60.4431 153.744 60.4431H156.306V55.0101C156.306 54.7664 156.398 54.556 156.583 54.3779C156.768 54.1998 156.986 54.1113 157.24 54.1113H158.521C158.775 54.1113 158.994 54.1998 159.179 54.3779C159.364 54.556 159.456 54.7664 159.456 55.0101V60.4431H163.852C164.105 60.4431 164.325 60.5316 164.51 60.7097C164.695 60.8878 164.787 61.0982 164.787 61.3418V62.4093C164.787 62.654 164.695 62.8644 164.51 63.0425C164.325 63.2206 164.105 63.3091 163.852 63.3091H159.456V71.9403Z" fill="#6F90EB"/>
<path fill-rule="evenodd" clip-rule="evenodd" d="M172 67.3542H181.733V67.2557C181.733 65.9207 181.288 64.8517 180.399 64.0518C179.51 63.2529 178.327 62.8524 176.849 62.8524C176.179 62.8524 175.556 62.9571 174.979 63.1645C174.402 63.373 173.893 63.6687 173.455 64.0518C173.015 64.4358 172.67 64.901 172.415 65.4494C172.161 65.9967 172.022 66.5995 172 67.2557V67.3542ZM168.917 67.2557C169.009 66.2483 169.263 65.3066 169.679 64.4297C170.095 63.5537 170.637 62.7866 171.307 62.1294C171.977 61.4722 172.779 60.9578 173.714 60.585C174.65 60.2133 175.694 60.0264 176.849 60.0264C178.096 60.0264 179.21 60.2184 180.192 60.6014C181.173 60.9855 182.01 61.5379 182.703 62.2609C183.396 62.9838 183.927 63.8608 184.296 64.8907C184.665 65.9207 184.85 67.0708 184.85 68.34V69.2273C184.85 69.4696 184.758 69.6771 184.573 69.8527C184.388 70.0283 184.17 70.1145 183.915 70.1145H172V70.3117C172.045 71.8017 172.525 72.9456 173.437 73.7466C174.349 74.5455 175.486 74.946 176.849 74.946C178.119 74.946 179.071 74.7766 179.707 74.4357C180.342 74.0958 180.855 73.7179 181.248 73.302C181.432 73.1274 181.594 73.0062 181.733 72.9405C181.872 72.8748 182.079 72.8419 182.357 72.8419H183.396C183.65 72.8419 183.881 72.9302 184.088 73.1058C184.296 73.2804 184.377 73.4889 184.331 73.7292C184.262 74.1235 184.065 74.5568 183.742 75.0282C183.418 75.4995 182.951 75.9359 182.339 76.3416C181.727 76.7472 180.966 77.0871 180.053 77.3602C179.141 77.6344 178.072 77.772 176.849 77.772C175.694 77.772 174.655 77.579 173.732 77.1959C172.808 76.8129 172.005 76.2871 171.324 75.6186C170.643 74.9501 170.095 74.1625 169.679 73.2527C169.263 72.3439 169.009 71.3529 168.917 70.2798C168.801 69.2714 168.801 68.2641 168.917 67.2557Z" fill="#6F90EB"/>
<mask id="mask1_1060_47015" style="mask-type:alpha" maskUnits="userSpaceOnUse" x="189" y="60" width="11" height="18">
<path fill-rule="evenodd" clip-rule="evenodd" d="M189.256 60.0869H199.584V77.4568H189.256V60.0869Z" fill="white"/>
</mask>
<g mask="url(#mask1_1060_47015)">
<path fill-rule="evenodd" clip-rule="evenodd" d="M198.626 60.0869C198.886 60.0869 199.111 60.1756 199.3 60.3541C199.489 60.5326 199.584 60.7435 199.584 60.9878V62.0577C199.584 62.303 199.489 62.5139 199.3 62.6924C199.111 62.8709 198.886 62.9596 198.626 62.9596H196.568C193.846 62.9596 192.486 64.2404 192.486 66.801V76.5538C192.486 76.8002 192.391 77.011 192.202 77.1895C192.012 77.368 191.787 77.4568 191.528 77.4568H190.215C189.954 77.4568 189.73 77.368 189.54 77.1895C189.351 77.011 189.256 76.8002 189.256 76.5538V60.9878C189.256 60.7435 189.351 60.5326 189.54 60.3541C189.73 60.1756 189.954 60.0869 190.215 60.0869H191.528C191.787 60.0869 192.012 60.1756 192.202 60.3541C192.391 60.5326 192.486 60.7435 192.486 60.9878V62.0233C192.959 61.3562 193.526 60.8667 194.19 60.5535C194.852 60.2424 195.716 60.0869 196.781 60.0869H198.626Z" fill="#6F90EB"/>
</g>
</svg>
