<svg width="215" height="100" viewBox="0 0 215 100" fill="none" xmlns="http://www.w3.org/2000/svg">
<mask id="mask0_1039_19669" style="mask-type:alpha" maskUnits="userSpaceOnUse" x="16" y="29" width="41" height="46">
<path fill-rule="evenodd" clip-rule="evenodd" d="M16.6938 29.2067H56.4823V74.2211H16.6938V29.2067Z" fill="white"/>
</mask>
<g mask="url(#mask0_1039_19669)">
<path fill-rule="evenodd" clip-rule="evenodd" d="M30.3555 40.9463C29.8658 40.4078 29.9104 39.593 30.4547 39.1069C30.9835 38.6339 31.811 38.6645 32.3016 39.1724C32.3116 39.1821 32.3207 39.1917 32.3298 39.2022C35.7605 42.9527 38.1263 47.0801 39.1903 50.8945C39.8348 53.2061 40.0068 55.4136 39.6573 57.3728C39.2905 59.4317 38.3593 61.2196 36.8109 62.5852C35.7214 63.5477 34.3333 64.2847 32.6284 64.7428C31.9238 64.9256 31.1993 64.526 31.009 63.8493C31.0072 63.8423 31.0054 63.8371 31.0036 63.8301C30.8115 63.1377 31.2275 62.4225 31.932 62.2346C33.2127 61.8901 34.2422 61.3472 35.036 60.6478C36.1192 59.6922 36.7745 58.4132 37.0403 56.9234C37.3234 55.3349 37.175 53.5138 36.6353 51.5782C35.6795 48.1502 33.5149 44.3996 30.3555 40.9472V40.9463ZM33.2209 73.8386C32.7185 74.337 31.8892 74.3501 31.3704 73.8675C31.3604 73.8588 31.3504 73.8483 31.3404 73.8386C30.8224 73.3237 30.8224 72.508 31.3404 71.9931L50.025 53.6423C52.5573 51.1559 53.8235 47.8757 53.8235 44.5955C53.8235 41.3144 52.5583 38.035 50.025 35.5477C47.6047 33.161 44.2823 31.8155 40.8133 31.819C37.4727 31.819 34.1321 33.0613 31.6016 35.5477L27.4936 39.5816C23.616 43.3907 20.9781 47.6895 19.894 51.5782C19.3751 53.4421 19.2177 55.2038 19.4607 56.7547C19.6883 58.2042 20.2772 59.4614 21.2603 60.4266C22.0822 61.2344 23.1882 61.8551 24.5963 62.2346C25.3018 62.4225 25.7177 63.1377 25.5257 63.8301C25.3464 64.5094 24.6282 64.9203 23.9209 64.7481C23.9136 64.7463 23.9073 64.7446 23.9009 64.7428C22.013 64.2358 20.5148 63.3869 19.3806 62.2739C17.9797 60.8978 17.1468 59.1432 16.8328 57.142C16.5361 55.244 16.719 53.1187 17.3389 50.8945C18.5432 46.5774 21.4159 41.8582 25.6131 37.736L29.721 33.7022C32.6338 30.8259 36.6353 29.2041 40.8133 29.2067C44.833 29.2067 48.8535 30.7052 51.9047 33.7022C54.9568 36.6991 56.4823 40.6473 56.4823 44.5955C56.4823 48.5428 54.9568 52.4918 51.9047 55.4888L33.2209 73.8395V73.8386Z" fill="white"/>
</g>
<path fill-rule="evenodd" clip-rule="evenodd" d="M29.1835 76.9345L29.1799 76.9414L29.1681 76.9612L29.1645 76.9681L29.1519 76.9888L29.1473 76.9966L29.1356 77.0156L29.1311 77.0234L29.1175 77.0432L29.113 77.0501L29.1012 77.0665L29.094 77.0777C29.0823 77.0941 29.0705 77.1096 29.0579 77.1252V77.126L29.0371 77.151C28.9802 77.2183 28.9169 77.2813 28.8464 77.3374L28.8202 77.3563V77.3572C28.8039 77.3693 28.7877 77.3814 28.7714 77.3917L28.7597 77.4012L28.7434 77.4116L28.7353 77.4167L28.7145 77.4288L28.7073 77.434L28.6883 77.4452L28.6801 77.4504L28.6585 77.4616L28.6521 77.465L28.6241 77.4806C28.2419 77.6755 27.7837 77.6755 27.4024 77.4806L27.3951 77.4771L27.3744 77.465L27.368 77.4616L27.3464 77.4504L27.3382 77.4452L27.3192 77.434L27.312 77.4288L27.2912 77.4167L27.284 77.4116L27.2668 77.4003L27.2551 77.3917C27.2388 77.3814 27.2226 77.3702 27.2072 77.3572H27.2063L27.181 77.3374C27.143 77.308 27.1069 77.2761 27.0725 77.2416L4.54538 55.2483C1.51452 52.2927 0 48.396 0 44.5001C0 40.6051 1.51452 36.7083 4.54447 33.751C7.30604 31.0456 11.0544 29.4609 15.0097 29.3289C18.9605 29.1917 22.8145 30.5168 25.7668 33.0281C26.3162 33.4931 26.3767 34.304 25.9005 34.8406C25.4415 35.3642 24.6245 35.435 24.0751 34.9959C24.0652 34.9881 24.0552 34.9795 24.0453 34.9709C21.5883 32.8823 18.3803 31.7798 15.0919 31.8962C11.8089 32.0075 8.69947 33.3249 6.40961 35.573C3.89655 38.0265 2.63867 41.2633 2.63867 44.5001C2.63867 47.7369 3.89565 50.9737 6.40961 53.428L26.6939 73.2284V60.3985L22.5236 56.3267C22.0085 55.8194 22.0085 55.0136 22.5236 54.5064C23.0233 54.0147 23.8456 54.0017 24.3616 54.4788C24.3706 54.4874 24.3806 54.4969 24.3896 54.5064L26.6939 56.7537V53.5704L22.5236 49.4994C22.0085 48.9921 22.0085 48.1855 22.5236 47.6782C23.0224 47.1865 23.8447 47.1736 24.3598 47.6498C24.3697 47.6584 24.3797 47.6679 24.3896 47.6782L26.6939 49.9264V45.1393C26.6939 44.4268 27.2849 43.8496 28.0132 43.8496C28.7425 43.8496 29.3326 44.4268 29.3326 45.1385V49.9255L31.6369 47.6782C32.1357 47.1865 32.958 47.1736 33.4731 47.6498C33.4831 47.6584 33.493 47.6679 33.5029 47.6782C34.018 48.1812 34.018 48.9964 33.5029 49.4994L29.3326 53.5704V56.7537L31.6369 54.5064C32.1366 54.0147 32.9589 54.0017 33.4749 54.4788C33.484 54.4874 33.4939 54.4969 33.5029 54.5064C34.018 55.0093 34.018 55.8237 33.5029 56.3267L29.3326 60.3985V76.3384C29.3326 76.5532 29.2784 76.7559 29.1835 76.9336V76.9345Z" fill="white"/>
<path fill-rule="evenodd" clip-rule="evenodd" d="M72.4591 55.1236H77.4082C78.7354 55.1236 79.7627 54.8477 80.491 54.2941C81.2194 53.7413 81.5832 52.8934 81.5832 51.752C81.5832 50.6105 81.2194 49.781 80.491 49.2633C79.7627 48.7457 78.7354 48.4873 77.4082 48.4873H72.4591V55.1236ZM77.5465 46.079C78.4494 46.079 79.3022 46.1902 80.104 46.4135C80.9058 46.6367 81.6108 46.9804 82.2191 47.4437C82.8274 47.9078 83.3112 48.4965 83.6706 49.2098C84.0301 49.9231 84.2098 50.7711 84.2098 51.752C84.2098 52.7337 84.0301 53.585 83.6706 54.3075C83.3112 55.03 82.8274 55.6321 82.2191 56.1137C81.6108 56.5954 80.9058 56.9525 80.104 57.1841C79.3022 57.4157 78.4494 57.532 77.5465 57.532H72.4591V64.088C72.4591 64.2845 72.3857 64.4534 72.2379 64.5964C72.0902 64.7394 71.9157 64.8105 71.7126 64.8105H70.579C70.376 64.8105 70.2015 64.7394 70.0537 64.5964C69.906 64.4534 69.8325 64.2845 69.8325 64.088V46.8015C69.8325 46.605 69.906 46.436 70.0537 46.2931C70.2015 46.1509 70.376 46.079 70.579 46.079H77.5465Z" fill="white"/>
<path fill-rule="evenodd" clip-rule="evenodd" d="M91.3982 64.0606C91.3982 64.2646 91.3083 64.4399 91.1274 64.5883C90.9465 64.7367 90.7328 64.8105 90.4841 64.8105H89.2315C88.9829 64.8105 88.7691 64.7367 88.5882 64.5883C88.4073 64.4399 88.3174 64.2646 88.3174 64.0606V45.8421C88.3174 45.6381 88.4073 45.4628 88.5882 45.3144C88.7691 45.166 88.9829 45.0931 89.2315 45.0931H90.4841C90.7328 45.0931 90.9465 45.166 91.1274 45.3144C91.3083 45.4628 91.3982 45.6381 91.3982 45.8421V64.0606Z" fill="white"/>
<path fill-rule="evenodd" clip-rule="evenodd" d="M100.695 62.4554C101.371 62.4554 101.992 62.3552 102.556 62.1533C103.12 61.953 103.604 61.6749 104.008 61.3189C104.412 60.9629 104.722 60.5384 104.939 60.0455C105.155 59.5517 105.263 59.0048 105.263 58.4023V57.7177L101.935 58.2372C100.751 58.4203 99.8108 58.713 99.1155 59.1144C98.4193 59.5157 98.0721 60.036 98.0721 60.6753C98.0721 60.8756 98.1188 61.0767 98.2131 61.2778C98.3074 61.4781 98.4572 61.6706 98.6643 61.8529C98.8714 62.0352 99.1384 62.1815 99.468 62.2911C99.7967 62.4006 100.206 62.4554 100.695 62.4554ZM95.5059 60.9483C95.5059 60.2192 95.6566 59.5799 95.9571 59.0322C96.2576 58.4836 96.6718 58.0181 97.1979 57.6347C97.724 57.2522 98.34 56.9424 99.045 56.7036C99.7499 56.4674 100.497 56.2843 101.287 56.1568L105.263 55.526V55.17C105.263 54.2389 104.948 53.5415 104.318 53.0759C103.688 52.6104 102.903 52.3776 101.964 52.3776C101.136 52.3776 100.511 52.5239 100.088 52.8149C99.6653 53.1076 99.3032 53.4542 99.0027 53.8555C98.8899 54.0027 98.7674 54.102 98.6361 54.1576C98.5047 54.2115 98.3259 54.2389 98.1003 54.2389H97.2543C97.0472 54.2389 96.8639 54.1662 96.7044 54.0207C96.5449 53.8744 96.4735 53.7015 96.4929 53.4995C96.5299 53.0982 96.6947 52.6882 96.9864 52.2681C97.278 51.8479 97.672 51.4739 98.1708 51.1444C98.6687 50.8158 99.2424 50.5471 99.8909 50.3374C100.54 50.1277 101.23 50.0225 101.964 50.0225C102.81 50.0225 103.595 50.1406 104.318 50.3785C105.042 50.6155 105.662 50.9621 106.18 51.4191C106.697 51.8752 107.1 52.4418 107.392 53.117C107.684 53.7922 107.829 54.5676 107.829 55.4447V63.7964C107.829 63.9984 107.753 64.1712 107.604 64.3176C107.453 64.4639 107.274 64.5366 107.068 64.5366H106.024C105.817 64.5366 105.638 64.4639 105.489 64.3176C105.338 64.1712 105.263 63.9984 105.263 63.7964V62.6744C105.094 63.021 104.83 63.3274 104.473 63.5919C104.116 63.8563 103.707 64.0797 103.247 64.2619C102.786 64.4451 102.306 64.5811 101.809 64.6736C101.311 64.7643 100.844 64.8105 100.413 64.8105C99.6795 64.8105 99.0071 64.7095 98.3964 64.5084C97.7856 64.3081 97.2684 64.0394 96.8454 63.7014C96.4224 63.3642 96.0928 62.9577 95.8584 62.4819C95.6231 62.0086 95.5059 61.4969 95.5059 60.9483Z" fill="white"/>
<path fill-rule="evenodd" clip-rule="evenodd" d="M125.287 64.0571C125.287 64.262 125.211 64.4382 125.056 64.5873C124.902 64.7364 124.719 64.8105 124.507 64.8105H123.438C123.226 64.8105 123.043 64.7364 122.889 64.5873C122.734 64.4382 122.658 64.262 122.658 64.0571V56.6919C122.658 55.2593 122.301 54.1903 121.589 53.4823C120.875 52.776 119.884 52.422 118.612 52.422C117.399 52.422 116.421 52.776 115.679 53.4823C114.938 54.1903 114.567 55.2593 114.567 56.6919V64.0571C114.567 64.262 114.489 64.4382 114.335 64.5873C114.181 64.7364 113.999 64.8105 113.786 64.8105H112.717C112.505 64.8105 112.323 64.7364 112.168 64.5873C112.014 64.4382 111.937 64.262 111.937 64.0571V51.0548C111.937 50.8508 112.014 50.6738 112.168 50.5247C112.323 50.3765 112.505 50.3024 112.717 50.3024H113.786C113.999 50.3024 114.181 50.3765 114.335 50.5247C114.489 50.6738 114.567 50.8508 114.567 51.0548V51.9198C114.932 51.4551 115.477 51.0226 116.199 50.6224C116.922 50.223 117.871 50.0225 119.046 50.0225C119.95 50.0225 120.789 50.1663 121.56 50.4549C122.33 50.7436 122.99 51.1525 123.539 51.6835C124.088 52.2128 124.516 52.8685 124.825 53.6497C125.133 54.431 125.287 55.3055 125.287 56.2725V64.0571Z" fill="white"/>
<path fill-rule="evenodd" clip-rule="evenodd" d="M132.88 59.9506C132.88 60.3021 132.913 60.6301 132.981 60.9364C133.048 61.2411 133.168 61.5058 133.341 61.7279C133.515 61.9501 133.76 62.121 134.077 62.2417C134.394 62.3614 134.803 62.4222 135.303 62.4222H136.832C137.044 62.4222 137.226 62.4968 137.38 62.6444C137.534 62.7919 137.611 62.9689 137.611 63.172V64.0598C137.611 64.2646 137.534 64.4399 137.38 64.5883C137.226 64.7367 137.044 64.8105 136.832 64.8105H135.015C133.341 64.8105 132.13 64.3931 131.38 63.5599C130.63 62.7268 130.255 61.524 130.255 59.9506V52.7579H128.12C127.908 52.7579 127.726 52.6841 127.572 52.5357C127.418 52.3873 127.341 52.212 127.341 52.0081V51.1185C127.341 50.9155 127.418 50.7402 127.572 50.5918C127.726 50.4434 127.908 50.3696 128.12 50.3696H130.255V45.8421C130.255 45.639 130.331 45.4637 130.486 45.3153C130.64 45.1669 130.822 45.0931 131.034 45.0931H132.101C132.313 45.0931 132.495 45.1669 132.649 45.3153C132.803 45.4637 132.88 45.639 132.88 45.8421V50.3696H136.543C136.754 50.3696 136.937 50.4434 137.092 50.5918C137.246 50.7402 137.322 50.9155 137.322 51.1185V52.0081C137.322 52.212 137.246 52.3873 137.092 52.5357C136.937 52.6841 136.754 52.7579 136.543 52.7579H132.88V59.9506Z" fill="white"/>
<path fill-rule="evenodd" clip-rule="evenodd" d="M143.333 56.129H151.444V56.0469C151.444 54.9344 151.074 54.0436 150.333 53.377C149.592 52.7112 148.606 52.3775 147.374 52.3775C146.816 52.3775 146.296 52.4647 145.816 52.6376C145.335 52.8113 144.911 53.0578 144.546 53.377C144.179 53.697 143.892 54.0847 143.68 54.5416C143.468 54.9977 143.352 55.5 143.333 56.0469V56.129ZM140.764 56.0469C140.841 55.2074 141.053 54.4227 141.399 53.6919C141.746 52.9619 142.198 52.3227 142.756 51.775C143.314 51.2273 143.983 50.7986 144.762 50.488C145.541 50.1782 146.412 50.0225 147.374 50.0225C148.414 50.0225 149.342 50.1825 150.16 50.5017C150.978 50.8217 151.675 51.2821 152.253 51.8846C152.83 52.487 153.273 53.2178 153.58 54.0761C153.888 54.9344 154.042 55.8928 154.042 56.9505V57.6899C154.042 57.8918 153.966 58.0647 153.811 58.211C153.657 58.3574 153.475 58.4292 153.263 58.4292H143.333V58.5935C143.371 59.8352 143.771 60.7885 144.531 61.456C145.291 62.1218 146.239 62.4555 147.374 62.4555C148.432 62.4555 149.226 62.3143 149.756 62.0302C150.285 61.7469 150.713 61.432 151.04 61.0855C151.194 60.94 151.329 60.839 151.444 60.7842C151.56 60.7295 151.733 60.7021 151.964 60.7021H152.83C153.042 60.7021 153.234 60.7757 153.407 60.922C153.58 61.0675 153.648 61.2412 153.609 61.4415C153.552 61.7701 153.387 62.1312 153.119 62.524C152.849 62.9167 152.459 63.2804 151.949 63.6185C151.439 63.9565 150.805 64.2397 150.044 64.4673C149.284 64.6958 148.394 64.8105 147.374 64.8105C146.412 64.8105 145.546 64.6496 144.777 64.3304C144.007 64.0112 143.338 63.5731 142.77 63.016C142.203 62.4589 141.746 61.8026 141.399 61.0444C141.053 60.2871 140.841 59.4613 140.764 58.567C140.668 57.7267 140.668 56.8872 140.764 56.0469Z" fill="white"/>
<mask id="mask1_1039_19669" style="mask-type:alpha" maskUnits="userSpaceOnUse" x="157" y="50" width="10" height="15">
<path fill-rule="evenodd" clip-rule="evenodd" d="M157.713 50.0727H166.32V64.5476H157.713V50.0727Z" fill="white"/>
</mask>
<g mask="url(#mask1_1039_19669)">
<path fill-rule="evenodd" clip-rule="evenodd" d="M165.521 50.0727C165.738 50.0727 165.925 50.1467 166.083 50.2954C166.241 50.4442 166.32 50.6199 166.32 50.8234V51.7151C166.32 51.9195 166.241 52.0952 166.083 52.244C165.925 52.3927 165.738 52.4667 165.521 52.4667H163.806C161.538 52.4667 160.405 53.534 160.405 55.6678V63.7952C160.405 64.0005 160.325 64.1762 160.168 64.3249C160.01 64.4737 159.823 64.5476 159.606 64.5476H158.512C158.295 64.5476 158.108 64.4737 157.95 64.3249C157.792 64.1762 157.713 64.0005 157.713 63.7952V50.8234C157.713 50.6199 157.792 50.4442 157.95 50.2954C158.108 50.1467 158.295 50.0727 158.512 50.0727H159.606C159.823 50.0727 160.01 50.1467 160.168 50.2954C160.325 50.4442 160.405 50.6199 160.405 50.8234V51.6864C160.799 51.1305 161.272 50.7225 161.824 50.4616C162.376 50.2024 163.096 50.0727 163.984 50.0727H165.521Z" fill="white"/>
</g>
</svg>
