<svg width="225" height="100" viewBox="0 0 225 100" fill="none" xmlns="http://www.w3.org/2000/svg">
<path d="M42.4149 46.0801C40.65 46.0801 39.0072 46.0801 37.3525 46.0801C37.3525 52.9874 37.3525 59.7746 37.3525 66.5615C44.3286 66.5615 51.1811 66.5615 58.0794 66.5615C58.0794 65.0607 58.0794 63.6901 58.0794 62.0674C52.8076 62.0674 47.6703 62.0674 42.4149 62.0674C42.4149 56.647 42.4149 51.3944 42.4149 46.0801Z" fill="white"/>
<path fill-rule="evenodd" clip-rule="evenodd" d="M10.1631 46.0312H30.5164C35.083 49.6349 35.6926 56.9763 31.8126 61.2986C31.1489 62.0349 30.4439 62.3788 29.4164 62.3641C26.4168 62.3255 23.4165 62.3322 20.417 62.3389C19.2625 62.3415 18.108 62.3441 16.9538 62.3441H15.2883V66.5943H10.1631V46.0312ZM15.3917 57.6292H28.8538C29.9617 55.2786 30.0088 53.0231 28.7958 50.8037H15.3917V57.6292Z" fill="white"/>
<path fill-rule="evenodd" clip-rule="evenodd" d="M63.1096 60.4773C66.1965 55.6187 69.2398 50.8287 72.2896 46.0303C74.3164 46.0303 76.2747 46.0303 78.3256 46.0305C82.6088 52.8052 86.8949 59.5856 91.3055 66.5637H85.2292C84.8708 65.9844 84.495 65.3778 84.1075 64.7526C83.8182 64.2858 83.5224 63.8085 83.2227 63.3244H67.2476C66.6896 64.1343 66.1372 64.9344 65.5922 65.724C65.3868 66.0214 65.1825 66.3174 64.9792 66.6119H59.2119C60.5212 64.5513 61.8192 62.5083 63.1096 60.4773ZM73.2046 53.358C72.1303 55.0797 71.0724 56.7751 69.9848 58.517H80.5067L80.1073 57.8583C78.4966 55.2022 76.954 52.6585 75.3197 49.9684C74.5996 51.1223 73.8987 52.2456 73.2046 53.358Z" fill="white"/>
<path d="M102.631 57.9684C99.4019 53.8882 96.2631 49.9219 93.1968 46.0437C90.9458 46.0437 88.8654 46.0437 86.4316 46.0437C90.8572 51.5468 95.0718 56.7929 99.3269 62.0858C98.2296 63.5637 97.178 64.9839 95.9772 66.5999C98.2255 66.5999 100.172 66.5999 102.164 66.5999C107.499 59.817 112.826 53.0395 118.337 46.0303C115.867 46.0303 113.784 46.0303 111.676 46.0303C108.659 50.0129 105.661 53.966 102.631 57.9684Z" fill="white"/>
<path d="M0.0761719 76.9365C43.0758 76.9365 85.2563 76.9365 128.257 76.9365C128.257 76.8687 128.257 76.8022 128.257 76.7344H0.0761719C0.0761719 76.8022 0.0761719 76.8687 0.0761719 76.9365Z" fill="#654079"/>
<path d="M128.257 35.8604C85.2563 35.8604 43.0758 35.8604 0.0761719 35.8604C0.0761719 35.9282 0.0761719 35.9954 0.0761719 36.0625H128.257C128.257 35.9954 128.257 35.9282 128.257 35.8604Z" fill="#654079"/>
</svg>
