<svg width="258" height="120" viewBox="0 0 258 120" fill="none" xmlns="http://www.w3.org/2000/svg">
<rect x="1.6001" y="43.1021" width="154.8" height="48.9796" fill="#654079"/>
<path d="M52.898 55.296C50.7802 55.296 48.8089 55.296 46.8232 55.296C46.8232 63.5848 46.8232 71.7294 46.8232 79.8737C55.1945 79.8737 63.4176 79.8737 71.6954 79.8737C71.6954 78.0728 71.6954 76.428 71.6954 74.4808C65.3693 74.4808 59.2045 74.4808 52.898 74.4808C52.898 67.9763 52.898 61.6732 52.898 55.296Z" fill="white"/>
<path fill-rule="evenodd" clip-rule="evenodd" d="M14.1958 55.2379H38.6198C44.0997 59.5623 44.8312 68.372 40.1752 73.5587C39.3788 74.4423 38.5328 74.855 37.2998 74.8373C33.7003 74.791 30.0999 74.7991 26.5005 74.8071C25.115 74.8102 23.7297 74.8133 22.3447 74.8133H20.346V79.9136H14.1958V55.2379ZM20.4701 69.1555H36.6246C37.9542 66.3347 38.0107 63.6281 36.5551 60.9649H20.4701V69.1555Z" fill="white"/>
<path fill-rule="evenodd" clip-rule="evenodd" d="M77.7306 72.5749C81.4354 66.7438 85.0877 60.9953 88.748 55.2365C91.18 55.2365 93.5301 55.2365 95.9911 55.2367C101.131 63.3663 106.274 71.5028 111.567 79.8766H104.275C103.845 79.1812 103.394 78.4532 102.929 77.7028C102.582 77.1427 102.227 76.5702 101.868 75.9893H82.6975C82.028 76.961 81.3654 77.9208 80.7115 78.8681C80.4649 79.2253 80.2195 79.5808 79.9755 79.9344H73.0547C74.6254 77.4623 76.1826 75.0114 77.7306 72.5749ZM89.8437 64.0332C88.5554 66.098 87.2865 68.1314 85.9822 70.2205H98.6085L98.1264 69.4256C96.1946 66.24 94.3443 63.1888 92.3841 59.9622C91.5192 61.348 90.6773 62.6972 89.8437 64.0332Z" fill="white"/>
<path d="M125.157 69.562C121.282 64.6658 117.516 59.9062 113.836 55.2524C111.135 55.2524 108.638 55.2524 105.718 55.2524C111.028 61.856 116.086 68.1514 121.192 74.5028C119.875 76.2764 118.613 77.9806 117.172 79.9197C119.87 79.9197 122.206 79.9197 124.596 79.9197C130.998 71.7803 137.392 63.6472 144.004 55.2362C141.041 55.2362 138.541 55.2362 136.01 55.2362C132.39 60.0154 128.793 64.7591 125.157 69.562Z" fill="white"/>
<path d="M2.09131 92.3242C53.6908 92.3242 104.307 92.3242 155.908 92.3242C155.908 92.2428 155.908 92.1631 155.908 92.0817H2.09131C2.09131 92.1631 2.09131 92.2428 2.09131 92.3242Z" fill="#654079"/>
<path d="M155.908 43.0327C104.307 43.0327 53.6908 43.0327 2.09131 43.0327C2.09131 43.1141 2.09131 43.1947 2.09131 43.2753H155.908C155.908 43.1947 155.908 43.1141 155.908 43.0327Z" fill="#654079"/>
</svg>
