<svg width="215" height="100" viewBox="0 0 215 100" fill="none" xmlns="http://www.w3.org/2000/svg">
<path fill-rule="evenodd" clip-rule="evenodd" d="M32.5001 33.4257C44.7281 33.4257 54.6446 43.0794 54.6446 54.9832C54.6446 66.8872 44.7281 76.5409 32.5001 76.5409C20.2722 76.5409 10.3557 66.8872 10.3557 54.9832C10.3557 43.0794 20.2722 33.4257 32.5001 33.4257ZM32.5001 24.2856C49.9126 24.2856 64.0335 38.0323 64.0335 54.9832C64.0335 71.9343 49.9126 85.681 32.5001 85.681C15.0877 85.681 0.966797 71.9343 0.966797 54.9832C0.966797 38.0323 15.0877 24.2856 32.5001 24.2856Z" fill="white"/>
<path fill-rule="evenodd" clip-rule="evenodd" d="M19.7585 51.8033H21.6157C24.023 51.8033 24.1358 55.5168 21.5293 55.5168H19.7553L19.7585 51.8033ZM15.9829 49.1362L16.4359 51.8033L16.4358 60.8306H19.7585V57.9581H21.9985C28.1092 57.7143 27.9911 49.1362 21.6389 49.1362H15.9829Z" fill="white"/>
<path fill-rule="evenodd" clip-rule="evenodd" d="M38.5063 49.531L41.8698 49.1362V55.748C41.8698 57.3475 42.9317 57.8258 43.7213 57.8258C44.4284 57.8258 45.8644 57.3804 45.8644 55.748V49.531L49.0175 49.1362V55.748C49.0175 58.374 46.7912 60.8306 43.8194 60.8306C40.8477 60.8306 38.5399 59.1428 38.5281 55.748L38.5063 49.531Z" fill="white"/>
<path fill-rule="evenodd" clip-rule="evenodd" d="M25.6481 43.2891L26.3247 46.6878H32.6356L24.9922 68.1396H38.5065L37.5128 64.5288H30.8323L38.0452 43.2891H25.6481Z" fill="white"/>
</svg>
