<svg width="258" height="120" viewBox="0 0 258 120" fill="none" xmlns="http://www.w3.org/2000/svg">
<path d="M30.5451 49.8535L31.4265 54.1646H39.0076L38.9798 54.2398L29.7959 80.4327H46.1591L45.0855 75.8431H36.7739L36.8006 75.7703L45.6657 49.8535H30.5451Z" fill="url(#paint0_radial_1060_45868)"/>
<path fill-rule="evenodd" clip-rule="evenodd" d="M19.5688 58.0078H26.5645C29.4322 58.0078 31.8413 60.4687 31.8413 63.3993C31.8413 66.3251 29.4322 68.859 26.5645 68.859C26.3329 68.859 24.0425 68.8561 24.0425 68.8561H23.9904V72.2781H20.0662V61.3805L19.5688 58.0078ZM24.0425 65.6981L26.2152 65.6936C27.3153 65.6936 28.2854 64.6229 28.2857 63.4934C28.2857 62.3709 27.3153 61.3834 26.2152 61.3834C26.1423 61.3834 24.0425 61.3875 24.0425 61.3875H23.9904V65.6981H24.0425Z" fill="url(#paint1_radial_1060_45868)"/>
<path d="M54.5394 67.5842C54.5394 69.0328 53.4907 70.1237 52.2948 70.1237C51.0989 70.1237 50.051 69.0328 50.051 67.5842C50.051 67.4605 50.0551 58.8528 50.056 58.0078L46.1592 58.7211V67.3768C46.1592 71.2678 48.9371 74.3167 52.2951 74.3167C55.6531 74.3167 58.4316 71.2682 58.4316 67.3768V58.0082L54.5308 58.7214C54.5314 59.4305 54.5394 67.4665 54.5394 67.5842Z" fill="url(#paint2_radial_1060_45868)"/>
<path fill-rule="evenodd" clip-rule="evenodd" d="M1.16016 65.1482C1.16016 44.3544 18.1366 27.433 39.0037 27.4287C59.8637 27.4327 76.8375 44.3544 76.8402 65.1482C76.8375 85.9406 59.864 102.857 39.0037 102.857C18.1366 102.857 1.16016 85.9406 1.16016 65.1482ZM12.3921 65.1452C12.4178 79.7435 24.3556 91.6407 39.0043 91.663C53.6447 91.6403 65.5801 79.7435 65.6118 65.1452C65.5805 50.5475 53.6447 38.6496 39.0043 38.6237H39.0037C24.356 38.6496 12.4178 50.5475 12.3921 65.1452Z" fill="url(#paint3_radial_1060_45868)"/>
<defs>
<radialGradient id="paint0_radial_1060_45868" cx="0" cy="0" r="1" gradientUnits="userSpaceOnUse" gradientTransform="translate(15.1782 40.6843) scale(74.1684 138.604)">
<stop stop-color="#84D0F0"/>
<stop offset="0.15" stop-color="#00A8E4"/>
<stop offset="0.333" stop-color="#0078BE"/>
<stop offset="0.5" stop-color="#00509E"/>
<stop offset="1" stop-color="#001C54"/>
</radialGradient>
<radialGradient id="paint1_radial_1060_45868" cx="0" cy="0" r="1" gradientUnits="userSpaceOnUse" gradientTransform="translate(18.0049 41.7527) scale(66.0719 76.8278)">
<stop stop-color="#84D0F0"/>
<stop offset="0.15" stop-color="#00A8E4"/>
<stop offset="0.333" stop-color="#0078BE"/>
<stop offset="0.5" stop-color="#00509E"/>
<stop offset="1" stop-color="#001C54"/>
</radialGradient>
<radialGradient id="paint2_radial_1060_45868" cx="0" cy="0" r="1" gradientUnits="userSpaceOnUse" gradientTransform="translate(19.1927 40.5445) scale(65.0931 86.5025)">
<stop stop-color="#84D0F0"/>
<stop offset="0.15" stop-color="#00A8E4"/>
<stop offset="0.333" stop-color="#0078BE"/>
<stop offset="0.5" stop-color="#00509E"/>
<stop offset="1" stop-color="#001C54"/>
</radialGradient>
<radialGradient id="paint3_radial_1060_45868" cx="0" cy="0" r="1" gradientUnits="userSpaceOnUse" gradientTransform="translate(16.9946 41.0205) scale(69.8705 69.6384)">
<stop stop-color="#84D0F0"/>
<stop offset="0.15" stop-color="#00A8E4"/>
<stop offset="0.333" stop-color="#0078BE"/>
<stop offset="0.5" stop-color="#00509E"/>
<stop offset="1" stop-color="#001C54"/>
</radialGradient>
</defs>
</svg>
