<svg width="258" height="120" viewBox="0 0 258 120" fill="none" xmlns="http://www.w3.org/2000/svg">
<path fill-rule="evenodd" clip-rule="evenodd" d="M51.5767 57.1543C47.5342 57.1543 43.9229 60.7677 43.9229 65.6543C43.9229 70.5409 47.5342 74.1543 51.5767 74.1543C55.6192 74.1543 59.2305 70.5409 59.2305 65.6543C59.2305 60.7677 55.6192 57.1543 51.5767 57.1543ZM38.9229 65.6543C38.9229 58.3906 44.4035 52.1543 51.5767 52.1543C58.7499 52.1543 64.2305 58.3906 64.2305 65.6543C64.2305 72.918 58.7499 79.1543 51.5767 79.1543C44.4035 79.1543 38.9229 72.918 38.9229 65.6543Z" fill="black"/>
<path fill-rule="evenodd" clip-rule="evenodd" d="M80.3462 57.1543C76.3038 57.1543 72.6924 60.7677 72.6924 65.6543C72.6924 70.5409 76.3038 74.1543 80.3462 74.1543C84.3887 74.1543 88.0001 70.5409 88.0001 65.6543C88.0001 60.7677 84.3887 57.1543 80.3462 57.1543ZM67.6924 65.6543C67.6924 58.3906 73.1731 52.1543 80.3462 52.1543C87.5194 52.1543 93.0001 58.3906 93.0001 65.6543C93.0001 72.918 87.5194 79.1543 80.3462 79.1543C73.1731 79.1543 67.6924 72.918 67.6924 65.6543Z" fill="black"/>
<path fill-rule="evenodd" clip-rule="evenodd" d="M17.7308 47C10.6998 47 5 52.6998 5 59.7308C5 66.7618 10.6998 72.4615 17.7308 72.4615C24.7618 72.4615 30.4615 66.7618 30.4615 59.7308C30.4615 52.6998 24.7618 47 17.7308 47ZM0 59.7308C0 49.9383 7.93834 42 17.7308 42C27.5232 42 35.4615 49.9383 35.4615 59.7308C35.4615 69.5232 27.5232 77.4615 17.7308 77.4615C7.93834 77.4615 0 69.5232 0 59.7308Z" fill="black"/>
<path fill-rule="evenodd" clip-rule="evenodd" d="M21.0399 63.0399C22.0162 62.0635 23.5991 62.0635 24.5754 63.0399L34.7292 73.1937C35.7055 74.17 35.7055 75.7529 34.7292 76.7292C33.7529 77.7056 32.17 77.7056 31.1937 76.7292L21.0399 66.5754C20.0635 65.5991 20.0635 64.0162 21.0399 63.0399Z" fill="black"/>
<path fill-rule="evenodd" clip-rule="evenodd" d="M62.5356 42C63.9164 42 65.0356 43.1193 65.0356 44.5V65.125C65.0356 66.5057 63.9164 67.625 62.5356 67.625C61.1549 67.625 60.0356 66.5057 60.0356 65.125V44.5C60.0356 43.1193 61.1549 42 62.5356 42Z" fill="black"/>
<path fill-rule="evenodd" clip-rule="evenodd" d="M111.037 55.7608C111.046 56.1684 111.118 56.8452 110.583 57.4238C110.049 58.0025 109.673 58.2035 109.017 58.206C108.361 58.2084 108.125 58.1371 107.545 57.843C106.538 57.3323 105.346 56.9851 104.25 56.9851C102.284 56.9851 100.941 58.1346 100.941 59.8589C100.941 61.631 103.147 62.4931 105.402 63.4031C108.567 64.6484 112.5 66.3727 112.5 70.6832C112.5 76.0954 108.183 78.3465 103.579 78.3465C100.925 78.3465 98.441 77.5545 96.4752 76.0355C95.8832 75.578 95.5682 75.0612 95.5773 74.467C95.5865 73.8728 95.77 73.3525 96.3193 72.8766C96.8572 72.4106 97.3479 72.3213 98.0768 72.3512C98.8057 72.3812 99.2409 72.7094 99.8204 73.1015C100.963 73.8748 102.163 74.2754 103.531 74.2754C105.641 74.2754 107.56 73.2217 107.56 70.9706C107.56 69.1027 105.354 68.2406 102.955 67.2827C99.7898 65.9895 96.1926 64.5526 96.1926 60.242C96.1926 55.3088 100.078 52.9619 104.25 52.9619C106.416 52.9619 108.528 53.5045 110.299 54.5489C110.881 54.8922 111.029 55.3533 111.037 55.7608Z" fill="black"/>
</svg>
