<svg width="215" height="100" viewBox="0 0 215 100" fill="none" xmlns="http://www.w3.org/2000/svg">
<path fill-rule="evenodd" clip-rule="evenodd" d="M42.9809 47.6282C39.6122 47.6282 36.6027 50.6394 36.6027 54.7115C36.6027 58.7837 39.6122 61.7949 42.9809 61.7949C46.3496 61.7949 49.3591 58.7837 49.3591 54.7115C49.3591 50.6394 46.3496 47.6282 42.9809 47.6282ZM32.436 54.7115C32.436 48.6585 37.0033 43.4615 42.9809 43.4615C48.9585 43.4615 53.5258 48.6585 53.5258 54.7115C53.5258 60.7646 48.9585 65.9615 42.9809 65.9615C37.0033 65.9615 32.436 60.7646 32.436 54.7115Z" fill="white"/>
<path fill-rule="evenodd" clip-rule="evenodd" d="M66.955 47.6282C63.5863 47.6282 60.5768 50.6394 60.5768 54.7115C60.5768 58.7837 63.5863 61.7949 66.955 61.7949C70.3237 61.7949 73.3332 58.7837 73.3332 54.7115C73.3332 50.6394 70.3237 47.6282 66.955 47.6282ZM56.4102 54.7115C56.4102 48.6585 60.9774 43.4615 66.955 43.4615C72.9327 43.4615 77.4999 48.6585 77.4999 54.7115C77.4999 60.7646 72.9327 65.9615 66.955 65.9615C60.9774 65.9615 56.4102 60.7646 56.4102 54.7115Z" fill="white"/>
<path fill-rule="evenodd" clip-rule="evenodd" d="M14.7756 39.1667C8.91647 39.1667 4.16667 43.9165 4.16667 49.7756C4.16667 55.6348 8.91647 60.3846 14.7756 60.3846C20.6348 60.3846 25.3846 55.6348 25.3846 49.7756C25.3846 43.9165 20.6348 39.1667 14.7756 39.1667ZM0 49.7756C0 41.6153 6.61528 35 14.7756 35C22.936 35 29.5513 41.6153 29.5513 49.7756C29.5513 57.936 22.936 64.5513 14.7756 64.5513C6.61528 64.5513 0 57.936 0 49.7756Z" fill="white"/>
<path fill-rule="evenodd" clip-rule="evenodd" d="M17.533 52.5333C18.3466 51.7197 19.6657 51.7197 20.4793 52.5333L28.9409 60.9948C29.7545 61.8084 29.7545 63.1275 28.9409 63.9411C28.1273 64.7547 26.8082 64.7547 25.9946 63.9411L17.533 55.4796C16.7195 54.666 16.7195 53.3469 17.533 52.5333Z" fill="white"/>
<path fill-rule="evenodd" clip-rule="evenodd" d="M52.1131 35C53.2637 35 54.1965 35.9327 54.1965 37.0833V54.2708C54.1965 55.4214 53.2637 56.3542 52.1131 56.3542C50.9625 56.3542 50.0298 55.4214 50.0298 54.2708V37.0833C50.0298 35.9327 50.9625 35 52.1131 35Z" fill="white"/>
<path fill-rule="evenodd" clip-rule="evenodd" d="M92.5308 46.4671C92.5379 46.8067 92.5984 47.3707 92.1527 47.8529C91.7071 48.3351 91.3937 48.5026 90.8473 48.5047C90.301 48.5067 90.1042 48.4473 89.6209 48.2022C88.7818 47.7766 87.7883 47.4873 86.8752 47.4873C85.2365 47.4873 84.1173 48.4452 84.1173 49.8821C84.1173 51.3589 85.9559 52.0773 87.8345 52.8357C90.4725 53.8734 93.75 55.3103 93.75 58.9024C93.75 63.4126 90.1527 65.2885 86.3157 65.2885C84.104 65.2885 82.034 64.6284 80.3959 63.3627C79.9025 62.9814 79.64 62.5507 79.6476 62.0555C79.6553 61.5604 79.8082 61.1268 80.2659 60.7302C80.7141 60.3418 81.1231 60.2675 81.7305 60.2924C82.3379 60.3174 82.7006 60.5909 83.1835 60.9177C84.1357 61.562 85.1353 61.8959 86.2757 61.8959C88.0344 61.8959 89.6331 61.0178 89.6331 59.1419C89.6331 57.5853 87.7945 56.8669 85.796 56.0686C83.158 54.991 80.1603 53.7936 80.1603 50.2014C80.1603 46.0904 83.3979 44.1346 86.8752 44.1346C88.6802 44.1346 90.4398 44.5868 91.9156 45.4571C92.4007 45.7432 92.5237 46.1274 92.5308 46.4671Z" fill="white"/>
</svg>
