<svg width="215" height="100" viewBox="0 0 215 100" fill="none" xmlns="http://www.w3.org/2000/svg">
<path d="M34.7667 58.9935C34.7667 49.8468 27.6267 42.2868 18.4334 42.2868C9.28669 42.2868 2.19336 49.8468 2.19336 58.9935C2.19336 68.0935 9.28669 75.5602 18.4334 75.5602C20.2067 75.5602 21.8867 75.2802 23.4734 74.7668L26.9734 80.3669L30.5667 78.1735L27.3 72.9469C31.8267 69.9602 34.7667 64.8269 34.7667 58.9935ZM18.4334 71.0802C11.9 71.0802 7.00003 65.5735 7.00003 58.9935C7.00003 52.3668 11.9 46.7668 18.4334 46.7668C25.0134 46.7668 29.96 52.3668 29.96 58.9935C29.96 63.1469 28 66.8802 24.8734 69.0268L21.2334 63.1469L17.64 65.3869L21 70.8002C20.2067 70.9869 19.32 71.0802 18.4334 71.0802Z" fill="white"/>
<path d="M55.8608 65.0602C55.8608 69.5869 52.4074 71.2668 49.5608 71.2668C46.7608 71.2668 44.6141 69.1202 44.6141 65.5268V53.2069H40.0408V65.6669C39.9941 71.8735 43.3074 75.5602 48.8141 75.5602C51.1008 75.5602 54.6008 74.3469 55.8608 71.6869V75.0002H60.4341V53.2069H55.8608V65.0602Z" fill="white"/>
<path d="M79.3877 52.6468C76.3077 52.6468 73.2743 53.9535 71.8277 56.4268V41.3535H67.2543V75.0002H71.8277V71.7335C73.2743 74.2069 76.4477 75.5602 79.3877 75.5602C85.2677 75.5602 90.2143 70.9869 90.2143 64.0802C90.2143 57.1268 85.3143 52.6468 79.3877 52.6468ZM78.8277 71.2668C75.1877 71.2668 71.8743 68.4202 71.8743 64.0335C71.8743 59.6468 75.4677 56.9402 78.8277 56.9402C82.6077 56.9402 85.5944 59.9268 85.5944 64.0335C85.5944 68.0935 82.6077 71.2668 78.8277 71.2668Z" fill="white"/>
<path d="M97.9329 48.2135C99.6596 48.2135 101.06 46.9535 101.06 45.2735C101.06 43.5935 99.6596 42.3335 97.9329 42.3335C96.2529 42.3335 94.8063 43.5935 94.8063 45.2735C94.8063 46.9535 96.2529 48.2135 97.9329 48.2135ZM100.22 75.0002V53.2069H95.6463V75.0002H100.22Z" fill="white"/>
<path d="M113.478 53.2069V45.0402H108.905V53.2069H104.985V57.0335H108.905V75.0002H113.478V57.0335H118.145V53.2069H113.478Z" fill="white"/>
<path d="M34.7667 58.9935C34.7667 49.8468 27.6267 42.2868 18.4334 42.2868C9.28669 42.2868 2.19336 49.8468 2.19336 58.9935C2.19336 68.0935 9.28669 75.5602 18.4334 75.5602C20.2067 75.5602 21.8867 75.2802 23.4734 74.7668L26.9734 80.3669L30.5667 78.1735L27.3 72.9469C31.8267 69.9602 34.7667 64.8269 34.7667 58.9935ZM18.4334 71.0802C11.9 71.0802 7.00003 65.5735 7.00003 58.9935C7.00003 52.3668 11.9 46.7668 18.4334 46.7668C25.0134 46.7668 29.96 52.3668 29.96 58.9935C29.96 63.1469 28 66.8802 24.8734 69.0268L21.2334 63.1469L17.64 65.3869L21 70.8002C20.2067 70.9869 19.32 71.0802 18.4334 71.0802Z" stroke="white"/>
<path d="M55.8608 65.0602C55.8608 69.5869 52.4074 71.2668 49.5608 71.2668C46.7608 71.2668 44.6141 69.1202 44.6141 65.5268V53.2069H40.0408V65.6669C39.9941 71.8735 43.3074 75.5602 48.8141 75.5602C51.1008 75.5602 54.6008 74.3469 55.8608 71.6869V75.0002H60.4341V53.2069H55.8608V65.0602Z" stroke="white"/>
<path d="M79.3877 52.6468C76.3077 52.6468 73.2743 53.9535 71.8277 56.4268V41.3535H67.2543V75.0002H71.8277V71.7335C73.2743 74.2069 76.4477 75.5602 79.3877 75.5602C85.2677 75.5602 90.2143 70.9869 90.2143 64.0802C90.2143 57.1268 85.3143 52.6468 79.3877 52.6468ZM78.8277 71.2668C75.1877 71.2668 71.8743 68.4202 71.8743 64.0335C71.8743 59.6468 75.4677 56.9402 78.8277 56.9402C82.6077 56.9402 85.5944 59.9268 85.5944 64.0335C85.5944 68.0935 82.6077 71.2668 78.8277 71.2668Z" stroke="white"/>
<path d="M97.9329 48.2135C99.6596 48.2135 101.06 46.9535 101.06 45.2735C101.06 43.5935 99.6596 42.3335 97.9329 42.3335C96.2529 42.3335 94.8063 43.5935 94.8063 45.2735C94.8063 46.9535 96.2529 48.2135 97.9329 48.2135ZM100.22 75.0002V53.2069H95.6463V75.0002H100.22Z" stroke="white"/>
<path d="M113.478 53.2069V45.0402H108.905V53.2069H104.985V57.0335H108.905V75.0002H113.478V57.0335H118.145V53.2069H113.478Z" stroke="white"/>
</svg>
