<svg width="258" height="120" viewBox="0 0 258 120" fill="none" xmlns="http://www.w3.org/2000/svg">
<path d="M41.7198 57.168C41.7198 46.192 33.1518 37.12 22.1198 37.12C11.1438 37.12 2.63184 46.192 2.63184 57.168C2.63184 68.088 11.1438 77.048 22.1198 77.048C24.2478 77.048 26.2638 76.712 28.1678 76.096L32.3678 82.816L36.6798 80.184L32.7598 73.912C38.1918 70.328 41.7198 64.168 41.7198 57.168ZM22.1198 71.672C14.2798 71.672 8.39984 65.064 8.39984 57.168C8.39984 49.216 14.2798 42.496 22.1198 42.496C30.0158 42.496 35.9518 49.216 35.9518 57.168C35.9518 62.152 33.5998 66.632 29.8478 69.208L25.4798 62.152L21.1678 64.84L25.1998 71.336C24.2478 71.56 23.1838 71.672 22.1198 71.672Z" fill="black"/>
<path d="M67.0327 64.448C67.0327 69.88 62.8887 71.896 59.4727 71.896C56.1127 71.896 53.5367 69.32 53.5367 65.008V50.224H48.0487V65.176C47.9927 72.624 51.9687 77.048 58.5767 77.048C61.3207 77.048 65.5207 75.592 67.0327 72.4V76.376H72.5207V50.224H67.0327V64.448Z" fill="black"/>
<path d="M95.265 49.552C91.569 49.552 87.929 51.12 86.193 54.088V36H80.705V76.376H86.193V72.456C87.929 75.424 91.737 77.048 95.265 77.048C102.321 77.048 108.257 71.56 108.257 63.272C108.257 54.928 102.377 49.552 95.265 49.552ZM94.593 71.896C90.225 71.896 86.249 68.48 86.249 63.216C86.249 57.952 90.561 54.704 94.593 54.704C99.129 54.704 102.713 58.288 102.713 63.216C102.713 68.088 99.129 71.896 94.593 71.896Z" fill="black"/>
<path d="M117.519 44.232C119.591 44.232 121.271 42.72 121.271 40.704C121.271 38.688 119.591 37.176 117.519 37.176C115.503 37.176 113.767 38.688 113.767 40.704C113.767 42.72 115.503 44.232 117.519 44.232ZM120.263 76.376V50.224H114.775V76.376H120.263Z" fill="black"/>
<path d="M136.174 50.224V40.424H130.686V50.224H125.982V54.816H130.686V76.376H136.174V54.816H141.774V50.224H136.174Z" fill="black"/>
</svg>
