<svg width="258" height="120" viewBox="0 0 258 120" fill="none" xmlns="http://www.w3.org/2000/svg">
<path fill-rule="evenodd" clip-rule="evenodd" d="M114.979 54.8402C117.407 57.8596 118.678 61.6304 118.567 65.4866H89.4026C89.3899 68.9554 90.6736 72.3064 93.007 74.8959C95.2286 77.1928 98.3193 78.4675 101.533 78.4122C103.168 78.4182 104.79 78.1314 106.322 77.5656C107.761 77.0579 109.098 76.3029 110.272 75.3354C111.558 74.0903 112.665 72.6772 113.564 71.1354C113.914 70.3518 114.689 69.8383 115.555 69.8168C116.73 69.8253 117.685 70.7555 117.711 71.9168C117.706 72.1799 117.65 72.4395 117.547 72.6819V72.7633C116.547 74.8014 115.168 76.6349 113.481 78.168C111.98 79.5189 110.231 80.5742 108.33 81.2773C106.258 82.0219 104.066 82.386 101.862 82.3517C97.1216 82.5886 92.5262 80.6987 89.3533 77.2075C86.4621 74.0175 84.8623 69.8847 84.8601 65.6006C84.8237 61.6433 86.1728 57.7954 88.6785 54.7099C91.7503 50.7218 96.5813 48.4479 101.648 48.6053C106.845 48.4513 111.802 50.7696 114.979 54.8402ZM113.728 61.303C113.314 59.7257 112.498 58.2798 111.358 57.103C110.219 55.7612 108.783 54.6973 107.161 53.9937C105.446 53.1981 103.575 52.7868 101.681 52.789C98.6929 52.7347 95.7948 53.7987 93.5666 55.7681C91.7753 57.1796 90.4842 59.1179 89.8799 61.303H113.728Z" fill="#665BFF"/>
<path d="M151.352 48.768C150.298 48.2829 149.045 48.7347 148.554 49.7773L137.659 72.9748L126.747 49.7773C126.249 48.7326 124.991 48.2817 123.932 48.768C122.878 49.2538 122.421 50.4925 122.912 51.5354L137.297 82.319H137.84L152.307 51.5517C152.808 50.5215 152.383 49.2842 151.352 48.768Z" fill="#665BFF"/>
<path fill-rule="evenodd" clip-rule="evenodd" d="M157.592 58.8665C160.293 52.5564 166.578 48.484 173.506 48.5566V48.5892C182.873 48.634 190.436 56.1722 190.409 65.4379C190.415 72.2901 186.237 78.4676 179.831 81.0773C173.426 83.687 166.061 82.2122 161.186 77.3436C156.311 72.475 154.892 65.1766 157.592 58.8665ZM185.465 60.4859C183.427 55.7575 178.702 52.7165 173.506 52.7892C166.492 52.8429 160.845 58.5008 160.882 65.4379C160.876 70.5781 164.011 75.2122 168.818 77.1667C173.624 79.1212 179.148 78.0084 182.799 74.3503C186.45 70.6922 187.504 65.2143 185.465 60.4859Z" fill="#665BFF"/>
<path d="M198.95 36.1846C197.787 36.1846 196.844 37.1175 196.844 38.2683V80.1867C196.844 81.3375 197.787 82.2704 198.95 82.2704C200.114 82.2704 201.057 81.3375 201.057 80.1867V38.2683C201.057 37.1175 200.114 36.1846 198.95 36.1846Z" fill="#665BFF"/>
<path d="M221.811 77.0775C221.483 77.0819 221.161 77.1657 220.873 77.3217C218.108 78.9496 211.656 79.3077 211.656 70.3055V54.9381H217.647C218.447 55.008 219.219 54.6253 219.64 53.9492C220.062 53.2731 220.062 52.4194 219.64 51.7433C219.219 51.0672 218.447 50.6845 217.647 50.7544H211.656V38.2847C211.727 37.4933 211.34 36.7302 210.656 36.313C209.973 35.8957 209.11 35.8957 208.426 36.313C207.743 36.7302 207.356 37.4933 207.426 38.2847V68.9055C207.426 73.3496 207.92 75.4985 209.072 77.4357C210.542 80.2756 213.423 82.1335 216.643 82.3194C218.636 82.3156 220.609 81.9286 222.453 81.1798C223.35 80.8719 223.964 80.051 224 79.1124C223.983 78.5554 223.742 78.0279 223.332 77.6463C222.921 77.2646 222.374 77.06 221.811 77.0775Z" fill="#665BFF"/>
<rect x="52.585" y="48.752" width="8.47612" height="4.1837" rx="1.285" fill="#665BFF"/>
<rect x="14.4668" y="48.752" width="29.6582" height="4.1837" rx="1.285" fill="#665BFF"/>
<rect x="42.3477" y="59.2354" width="12.706" height="4.1837" rx="1.285" fill="#665BFF"/>
<rect y="59.2354" width="29.6582" height="4.1837" rx="1.285" fill="#665BFF"/>
<rect x="33.8882" y="69.7031" width="21.1821" height="4.1837" rx="1.285" fill="#665BFF"/>
<rect x="16.9355" y="69.7031" width="8.47612" height="4.1837" rx="1.285" fill="#665BFF"/>
<path d="M78.3262 48.7842H78.1616C73.545 48.9295 69.253 51.1692 66.5255 54.8562C64.8096 56.6824 63.7309 59.0046 63.4478 61.4818V80.2515C63.4478 81.4023 64.3909 82.3352 65.5544 82.3352C66.7179 82.3352 67.6611 81.4023 67.6611 80.2515V61.4818C68.2379 59.328 69.5091 57.4191 71.282 56.0446C73.1239 54.1921 75.6037 53.0937 78.2275 52.9679C79.4001 52.9679 80.3506 52.0277 80.3506 50.8679C80.3515 49.7481 79.4575 48.8279 78.3262 48.7842Z" fill="#665BFF"/>
</svg>
