<svg width="215" height="100" viewBox="0 0 215 100" fill="none" xmlns="http://www.w3.org/2000/svg">
<path fill-rule="evenodd" clip-rule="evenodd" d="M95.8156 45.7002C97.8386 48.2163 98.8976 51.3587 98.8056 54.5722H74.5019C74.4913 57.4628 75.561 60.2553 77.5055 62.4132C79.3569 64.3273 81.9324 65.3896 84.6101 65.3435C85.9727 65.3485 87.3249 65.1095 88.6013 64.638C89.8005 64.2149 90.9149 63.5857 91.893 62.7795C92.9643 61.7419 93.8872 60.5643 94.6361 59.2795C94.9277 58.6265 95.5741 58.1986 96.2957 58.1807C97.2743 58.1878 98.0702 58.9629 98.0924 59.9307C98.0878 60.1499 98.0412 60.3662 97.9552 60.5683V60.6361C97.1219 62.3345 95.9727 63.8624 94.5675 65.14C93.3161 66.2658 91.8591 67.1452 90.2746 67.731C88.548 68.3516 86.7213 68.655 84.8844 68.6264C80.9343 68.8238 77.1048 67.2489 74.4607 64.3396C72.0515 61.6812 70.7183 58.2373 70.7164 54.6672C70.6861 51.3694 71.8104 48.1628 73.8984 45.5916C76.4583 42.2682 80.4841 40.3732 84.7061 40.5044C89.037 40.3761 93.1678 42.308 95.8156 45.7002ZM94.7732 51.0858C94.4279 49.7714 93.7479 48.5665 92.7982 47.5858C91.8492 46.4677 90.6524 45.5811 89.3007 44.9947C87.8716 44.3318 86.3121 43.989 84.7335 43.9909C82.2438 43.9456 79.8286 44.8323 77.9718 46.4734C76.4791 47.6497 75.4031 49.265 74.8996 51.0858H94.7732Z" fill="white"/>
<path d="M126.127 40.6406C125.248 40.2364 124.205 40.6129 123.795 41.4817L114.716 60.813L105.623 41.4817C105.208 40.6112 104.16 40.2354 103.277 40.6406C102.399 41.0455 102.018 42.0777 102.427 42.9468L114.414 68.5998H114.867L126.923 42.9604C127.34 42.1019 126.986 41.0708 126.127 40.6406Z" fill="white"/>
<path fill-rule="evenodd" clip-rule="evenodd" d="M131.327 49.0552C133.577 43.7968 138.815 40.4032 144.588 40.4637V40.4908C152.395 40.5282 158.697 46.81 158.674 54.5314C158.679 60.2416 155.197 65.3895 149.859 67.5643C144.521 69.739 138.384 68.51 134.322 64.4529C130.259 60.3957 129.076 54.3137 131.327 49.0552ZM154.555 50.4047C152.856 46.4644 148.918 43.9302 144.588 43.9908C138.743 44.0356 134.038 48.7505 134.068 54.5314C134.063 58.8149 136.676 62.6767 140.681 64.3054C144.687 65.9342 149.29 65.0069 152.333 61.9584C155.375 58.91 156.253 54.3451 154.555 50.4047Z" fill="white"/>
<path d="M165.792 30.1543C164.822 30.1543 164.036 30.9317 164.036 31.8907V66.8227C164.036 67.7817 164.822 68.5591 165.792 68.5591C166.761 68.5591 167.547 67.7817 167.547 66.8227V31.8907C167.547 30.9317 166.761 30.1543 165.792 30.1543Z" fill="white"/>
<path d="M184.843 64.2313C184.569 64.2349 184.301 64.3047 184.061 64.4348C181.757 65.7913 176.38 66.0898 176.38 58.5879V45.7818H181.373C182.04 45.84 182.682 45.5211 183.034 44.9577C183.386 44.3942 183.386 43.6828 183.034 43.1194C182.682 42.556 182.04 42.2371 181.373 42.2953H176.38V31.9039C176.439 31.2444 176.117 30.6085 175.547 30.2608C174.978 29.9131 174.258 29.9131 173.689 30.2608C173.119 30.6085 172.797 31.2444 172.856 31.9039V57.4212C172.856 61.1247 173.267 62.9154 174.227 64.5297C175.452 66.8963 177.853 68.4446 180.536 68.5995C182.197 68.5963 183.841 68.2738 185.378 67.6499C186.125 67.3932 186.637 66.7092 186.667 65.927C186.653 65.4628 186.452 65.0233 186.11 64.7052C185.768 64.3871 185.312 64.2167 184.843 64.2313Z" fill="white"/>
<rect x="43.8208" y="40.627" width="7.06343" height="3.48642" rx="1.285" fill="white"/>
<rect x="12.0557" y="40.627" width="24.7152" height="3.48642" rx="1.285" fill="white"/>
<rect x="35.29" y="49.3633" width="10.5883" height="3.48642" rx="1.285" fill="white"/>
<rect y="49.3633" width="24.7152" height="3.48642" rx="1.285" fill="white"/>
<rect x="28.2402" y="58.0859" width="17.6517" height="3.48642" rx="1.285" fill="white"/>
<rect x="14.1133" y="58.0859" width="7.06343" height="3.48642" rx="1.285" fill="white"/>
<path d="M65.2718 40.6543H65.1346C61.2874 40.7754 57.7108 42.6418 55.4378 45.7143C54.0079 47.2361 53.109 49.1713 52.873 51.2356V66.877C52.873 67.836 53.659 68.6135 54.6286 68.6135C55.5982 68.6135 56.3842 67.836 56.3842 66.877V51.2356C56.8648 49.4408 57.9242 47.8501 59.4016 46.7047C60.9365 45.1609 63.003 44.2455 65.1895 44.1407C66.1666 44.1407 66.9588 43.3572 66.9588 42.3907C66.9595 41.4576 66.2145 40.6907 65.2718 40.6543Z" fill="white"/>
</svg>
