<svg width="258" height="120" viewBox="0 0 258 120" fill="none" xmlns="http://www.w3.org/2000/svg">
<g clip-path="url(#clip0_1060_43931)">
<mask id="mask0_1060_43931" style="mask-type:alpha" maskUnits="userSpaceOnUse" x="0" y="33" width="180" height="51">
<path fill-rule="evenodd" clip-rule="evenodd" d="M0.000488281 33.9995H179.12V83.2981H0.000488281V33.9995Z" fill="white"/>
</mask>
<g mask="url(#mask0_1060_43931)">
<path d="M54.2906 68.034C57.1839 68.034 58.9896 66.7823 58.9896 64.8124C58.9896 60.5852 52.0949 62.6783 52.0949 60.1133C52.0949 59.2514 52.9362 58.6153 54.6599 58.6153C55.727 58.6153 56.8145 58.841 57.7995 59.4772L58.6408 57.9176C57.6969 57.302 56.0963 56.9327 54.6804 56.9327C51.8897 56.9327 50.1455 58.246 50.1455 60.1954C50.1455 64.5251 57.0197 62.4115 57.0197 64.8534C57.0197 65.7768 56.2605 66.3308 54.4342 66.3308C53.0183 66.3308 51.5409 65.8589 50.6175 65.2022L49.7967 66.7618C50.6996 67.48 52.4848 68.034 54.2906 68.034ZM65.5863 56.9327C63.8421 56.9327 62.2211 57.4252 61.0925 58.328L61.9133 59.8055C62.7546 59.0873 64.0679 58.6358 65.3606 58.6358C67.31 58.6358 68.2745 59.6003 68.2745 61.2624V61.6523H65.1554C61.9133 61.6523 60.7847 63.0887 60.7847 64.8329C60.7847 66.7207 62.3442 68.034 64.8066 68.034C66.5097 68.034 67.7204 67.4594 68.3771 66.4745V67.9109H70.2444V61.3445C70.2444 58.3691 68.5617 56.9327 65.5863 56.9327ZM65.1349 66.5155C63.6369 66.5155 62.7341 65.8384 62.7341 64.7508C62.7341 63.8274 63.2881 63.0682 65.2375 63.0682H68.2745V64.5866C67.782 65.8384 66.6123 66.5155 65.1349 66.5155ZM74.0643 67.9109H76.0342V52.685H74.0643V67.9109ZM87.6649 57.0353L83.8482 65.7563L80.1135 57.0353H78.0615L82.8222 67.9109H84.8331L89.5938 57.0353H87.6649ZM101.135 62.5346C101.135 59.1899 98.8985 56.9327 95.7589 56.9327C92.6194 56.9327 90.3006 59.2514 90.3006 62.4731C90.3006 65.7152 92.6399 68.034 96.1488 68.034C97.9546 68.034 99.4525 67.4184 100.437 66.2693L99.3499 64.997C98.5496 65.8794 97.4826 66.3103 96.2104 66.3103C94.0558 66.3103 92.5168 65.0381 92.2705 63.1297H101.094C101.115 62.945 101.135 62.6988 101.135 62.5346ZM95.7589 58.5948C97.6673 58.5948 99.0421 59.8876 99.2473 61.7138H92.2705C92.4757 59.867 93.8711 58.5948 95.7589 58.5948Z" fill="#494D9F"/>
<path fill-rule="evenodd" clip-rule="evenodd" d="M15.8761 71.7654C15.8761 71.7654 11.3491 68.9281 11.3491 66.0886C11.3491 64.8366 12.3607 63.8251 13.6126 63.8251C14.8645 63.8251 15.8761 64.8366 15.8761 66.0886C15.8761 64.8366 16.8876 63.8251 18.1395 63.8251C19.3892 63.8251 20.403 64.8366 20.403 66.0886C20.403 68.9281 15.8761 71.7654 15.8761 71.7654ZM15.8761 57.0098C10.1199 57.0098 5.45459 61.675 5.45459 67.4312C5.45459 73.1851 10.1199 77.8527 15.8761 77.8527C21.6322 77.8527 26.2975 73.1851 26.2975 67.4312C26.2975 61.675 21.6322 57.0098 15.8761 57.0098Z" fill="#494D9F"/>
<path fill-rule="evenodd" clip-rule="evenodd" d="M15.9105 83.2982C7.13788 83.2982 0.000488281 76.1789 0.000488281 67.4312C0.000488281 63.1765 1.66066 59.1871 4.6771 56.1933C5.12617 55.7488 5.84739 55.751 6.29192 56.2001C6.73645 56.6469 6.73191 57.3681 6.28512 57.8127C3.70413 60.3755 2.2821 63.7911 2.2821 67.4312C2.2821 74.9224 8.39662 81.0166 15.9105 81.0166C23.3881 81.0166 29.4709 74.9224 29.4709 67.4312C29.4709 60.7021 24.6446 55.9121 16.2258 54.2882C9.82547 53.0544 6.57996 49.7658 6.57996 44.5154C6.57996 39.3715 10.7644 35.1871 15.9105 35.1848C18.403 35.1848 20.7482 36.1578 22.5104 37.92C22.9549 38.3668 22.9549 39.088 22.5081 39.5348C22.0636 39.9794 21.3424 39.9794 20.8956 39.5326C19.5643 38.2013 17.7952 37.4664 15.9105 37.4664C12.0232 37.4664 8.86156 40.6303 8.86156 44.5154C8.86156 47.1032 9.67124 50.7002 16.6589 52.0474C26.1097 53.8709 31.7525 59.6225 31.7525 67.4312C31.7525 76.1789 24.6468 83.2982 15.9105 83.2982Z" fill="#494D9F"/>
<path fill-rule="evenodd" clip-rule="evenodd" d="M20.407 44.5193C20.407 47.0232 18.3771 49.0508 15.8755 49.0508C13.3717 49.0508 11.3418 47.0232 11.3418 44.5193C11.3418 42.0155 13.3717 39.9856 15.8755 39.9856C18.3771 39.9856 20.407 42.0155 20.407 44.5193Z" fill="#494D9F"/>
</g>
</g>
<defs>
<clipPath id="clip0_1060_43931">
<rect width="180" height="50" fill="white" transform="translate(0 34)"/>
</clipPath>
</defs>
</svg>
