<svg width="215" height="100" viewBox="0 0 215 100" fill="none" xmlns="http://www.w3.org/2000/svg">
<g clip-path="url(#clip0_1039_22004)">
<mask id="mask0_1039_22004" style="mask-type:alpha" maskUnits="userSpaceOnUse" x="0" y="28" width="150" height="42">
<path fill-rule="evenodd" clip-rule="evenodd" d="M0.000488281 28.333H149.267V69.4152H0.000488281V28.333Z" fill="white"/>
</mask>
<g mask="url(#mask0_1039_22004)">
<path d="M46.0733 58.3673C48.9666 58.3673 50.7724 57.1155 50.7724 55.1456C50.7724 50.9185 43.8776 53.0115 43.8776 50.4465C43.8776 49.5847 44.719 48.9486 46.4426 48.9486C47.5097 48.9486 48.5972 49.1743 49.5822 49.8104L50.4235 48.2509C49.4796 47.6353 47.879 47.2659 46.4632 47.2659C43.6724 47.2659 41.9282 48.5792 41.9282 50.5286C41.9282 54.8583 48.8024 52.7448 48.8024 55.1867C48.8024 56.1101 48.0432 56.6641 46.2169 56.6641C44.801 56.6641 43.3236 56.1921 42.4002 55.5355L41.5794 57.095C42.4823 57.8132 44.2675 58.3673 46.0733 58.3673ZM57.3691 47.2659C55.6249 47.2659 54.0038 47.7584 52.8752 48.6613L53.696 50.1387C54.5373 49.4205 55.8506 48.9691 57.1433 48.9691C59.0927 48.9691 60.0572 49.9335 60.0572 51.5957V51.9855H56.9381C53.696 51.9855 52.5674 53.4219 52.5674 55.1661C52.5674 57.054 54.1269 58.3673 56.5893 58.3673C58.2925 58.3673 59.5031 57.7927 60.1598 56.8077V58.2441H62.0271V51.6777C62.0271 48.7023 60.3445 47.2659 57.3691 47.2659ZM56.9176 56.8488C55.4197 56.8488 54.5168 56.1716 54.5168 55.0841C54.5168 54.1607 55.0708 53.4014 57.0202 53.4014H60.0572V54.9199C59.5647 56.1716 58.3951 56.8488 56.9176 56.8488ZM65.847 58.2441H67.8169V43.0183H65.847V58.2441ZM79.4476 47.3685L75.6309 56.0895L71.8963 47.3685H69.8443L74.6049 58.2441H76.6159L81.3765 47.3685H79.4476ZM92.9179 52.8679C92.9179 49.5231 90.6812 47.2659 87.5416 47.2659C84.4021 47.2659 82.0833 49.5847 82.0833 52.8063C82.0833 56.0485 84.4226 58.3673 87.9315 58.3673C89.7373 58.3673 91.2352 57.7517 92.2202 56.6025L91.1326 55.3303C90.3324 56.2127 89.2653 56.6436 87.9931 56.6436C85.8385 56.6436 84.2995 55.3713 84.0532 53.463H92.8768C92.8974 53.2783 92.9179 53.0321 92.9179 52.8679ZM87.5416 48.9281C89.45 48.9281 90.8248 50.2208 91.03 52.0471H84.0532C84.2584 50.2003 85.6538 48.9281 87.5416 48.9281Z" fill="white"/>
<path fill-rule="evenodd" clip-rule="evenodd" d="M13.23 59.8042C13.23 59.8042 9.45752 57.4398 9.45752 55.0735C9.45752 54.0302 10.3005 53.1873 11.3437 53.1873C12.387 53.1873 13.23 54.0302 13.23 55.0735C13.23 54.0302 14.0729 53.1873 15.1162 53.1873C16.1576 53.1873 17.0024 54.0302 17.0024 55.0735C17.0024 57.4398 13.23 59.8042 13.23 59.8042ZM13.23 47.5078C8.43314 47.5078 4.54541 51.3955 4.54541 56.1924C4.54541 60.9873 8.43314 64.8769 13.23 64.8769C18.0268 64.8769 21.9145 60.9873 21.9145 56.1924C21.9145 51.3955 18.0268 47.5078 13.23 47.5078Z" fill="white"/>
<path fill-rule="evenodd" clip-rule="evenodd" d="M13.2588 69.4148C5.94832 69.4148 0.000488281 63.4821 0.000488281 56.1923C0.000488281 52.6467 1.38397 49.3222 3.89767 46.8274C4.27189 46.4569 4.87291 46.4588 5.24335 46.8331C5.61379 47.2054 5.61001 47.8064 5.23768 48.1768C3.08686 50.3125 1.90183 53.1589 1.90183 56.1923C1.90183 62.435 6.99727 67.5134 13.2588 67.5134C19.4902 67.5134 24.5592 62.435 24.5592 56.1923C24.5592 50.5847 20.5372 46.593 13.5216 45.2398C8.18797 44.2116 5.48338 41.4711 5.48338 37.0958C5.48338 32.8093 8.97043 29.3222 13.2588 29.3203C15.3359 29.3203 17.2902 30.1311 18.7587 31.5997C19.1292 31.972 19.1292 32.573 18.7568 32.9453C18.3864 33.3158 17.7854 33.3158 17.4131 32.9434C16.3036 31.834 14.8294 31.2217 13.2588 31.2217C10.0194 31.2217 7.38472 33.8582 7.38472 37.0958C7.38472 39.2523 8.05945 42.2498 13.8825 43.3725C21.7582 44.892 26.4605 49.6851 26.4605 56.1923C26.4605 63.4821 20.5391 69.4148 13.2588 69.4148Z" fill="white"/>
<path fill-rule="evenodd" clip-rule="evenodd" d="M17.0055 37.0994C17.0055 39.186 15.314 40.8756 13.2293 40.8756C11.1427 40.8756 9.45117 39.186 9.45117 37.0994C9.45117 35.0128 11.1427 33.3213 13.2293 33.3213C15.314 33.3213 17.0055 35.0128 17.0055 37.0994Z" fill="white"/>
</g>
</g>
<defs>
<clipPath id="clip0_1039_22004">
<rect width="150" height="41.6667" fill="white" transform="translate(0 28.333)"/>
</clipPath>
</defs>
</svg>
