<svg width="215" height="100" viewBox="0 0 215 100" fill="none" xmlns="http://www.w3.org/2000/svg">
<path d="M13.6879 68.6205C21.5687 68.6205 26.2927 64.7722 26.2927 58.5735C26.2927 53.9878 22.9284 50.8309 16.4301 49.0795L13.2731 48.2269C8.59522 46.9826 7.14346 45.3925 7.14346 43.1804C7.14346 40.323 9.77041 38.8021 13.1809 38.8021C16.9139 38.8021 19.103 40.6916 19.2644 43.7564H25.394C25.3249 37.6038 20.3013 33.6172 13.1809 33.6172C6.38296 33.6172 1.01384 37.3042 1.01384 43.4337C1.01384 48.0193 3.87125 51.3838 9.58606 52.8815L12.766 53.7112C18.1583 55.1168 20.14 56.6838 20.14 59.0112C20.14 62.0068 17.2596 63.4356 13.6878 63.4356C9.47083 63.4356 6.35996 61.2464 6.1295 57.5595H0C0.25346 64.4265 5.6687 68.6205 13.6879 68.6205Z" fill="white"/>
<path d="M126.799 57.6983L132.376 31.4286L125.555 30L119.979 56.2466L126.799 57.6983Z" fill="white"/>
<path d="M126.177 71.2014C128.689 71.2014 130.763 69.2889 130.763 66.7079C130.763 64.127 128.712 62.1914 126.177 62.1914C123.642 62.1914 121.614 64.1271 121.614 66.7079C121.614 69.2888 123.665 71.2014 126.177 71.2014Z" fill="white"/>
<path fill-rule="evenodd" clip-rule="evenodd" d="M108.388 50.808V50.0245C112.374 49.0797 114.287 46.4067 114.287 42.8579C114.287 38.0188 110.853 34.2627 102.304 34.2627H89.9297V67.9754H103.479C112.558 67.9754 115.854 63.8506 115.854 58.8272C115.854 54.4949 113.342 51.7297 108.388 50.808ZM95.8518 39.4475H102.696C106.337 39.4475 108.318 40.8301 108.318 43.7335C108.318 46.6369 106.337 48.1579 102.696 48.1579H95.8518V39.4475ZM95.852 62.7907H103.733C107.835 62.7907 109.885 60.901 109.885 57.9976C109.885 55.0942 107.835 53.2967 103.733 53.2967H95.852V62.7907Z" fill="white"/>
<path fill-rule="evenodd" clip-rule="evenodd" d="M48.2392 50.808V50.0245C52.2257 49.0797 54.1384 46.4067 54.1384 42.8579C54.1384 38.0188 50.7049 34.2627 42.1557 34.2627H29.7812V67.9754H43.3309C52.41 67.9754 55.7053 63.8506 55.7053 58.8272C55.7053 54.4949 53.1935 51.7297 48.2392 50.808ZM35.8418 39.4475H42.6856C46.3265 39.4475 48.3082 40.8301 48.3082 43.7335C48.3082 46.6369 46.3264 48.1579 42.6856 48.1579H35.8418V39.4475ZM35.8418 62.7907H43.7226C47.8244 62.7907 49.8752 60.901 49.8752 57.9976C49.8752 55.0942 47.8243 53.2967 43.7226 53.2967H35.8418V62.7907Z" fill="white"/>
<path fill-rule="evenodd" clip-rule="evenodd" d="M87.8969 67.9754H81.2604L78.2677 59.3571H65.1652L62.1343 67.9754H55.8203L68.1026 34.2627H75.7069L87.8969 67.9754ZM71.2595 42.0284L66.8914 54.4489H76.5634L72.2504 42.0284H71.2595Z" fill="white"/>
</svg>
