<svg width="258" height="120" viewBox="0 0 258 120" fill="none" xmlns="http://www.w3.org/2000/svg">
<path d="M16.4255 82.3451C25.8825 82.3451 31.5512 77.7272 31.5512 70.2887C31.5512 64.786 27.514 60.9976 19.7161 58.896L15.9277 57.8729C10.3143 56.3797 8.57215 54.4716 8.57215 51.817C8.57215 48.3881 11.7245 46.5631 15.817 46.5631C20.2966 46.5631 22.9236 48.8305 23.1172 52.5082H30.4728C30.3898 45.1251 24.3616 40.3412 15.817 40.3412C7.65956 40.3412 1.21661 44.7656 1.21661 52.121C1.21661 57.6238 4.6455 61.6611 11.5033 63.4584L15.3193 64.4539C21.7899 66.1407 24.168 68.0211 24.168 70.814C24.168 74.4087 20.7115 76.1232 16.4253 76.1232C11.365 76.1232 7.63196 73.4963 7.3554 69.072H0C0.304152 77.3124 6.80244 82.3451 16.4255 82.3451Z" fill="black"/>
<path d="M152.159 69.238L158.851 37.7144L150.666 36L143.974 67.4959L152.159 69.238Z" fill="#FF620F"/>
<path d="M151.412 85.4423C154.426 85.4423 156.915 83.1472 156.915 80.0501C156.915 76.9529 154.454 74.6302 151.412 74.6302C148.371 74.6302 145.937 76.9531 145.937 80.0501C145.937 83.1471 148.398 85.4423 151.412 85.4423Z" fill="#FF620F"/>
<path fill-rule="evenodd" clip-rule="evenodd" d="M130.065 60.9701V60.0299C134.849 58.8961 137.144 55.6885 137.144 51.43C137.144 45.6231 133.024 41.1157 122.765 41.1157H107.916V81.571H124.175C135.07 81.571 139.024 76.6212 139.024 70.5931C139.024 65.3944 136.01 62.0761 130.065 60.9701ZM115.022 47.3375H123.235C127.604 47.3375 129.982 48.9966 129.982 52.4807C129.982 55.9648 127.604 57.79 123.235 57.79H115.022V47.3375ZM115.022 75.3493H124.479C129.401 75.3493 131.862 73.0817 131.862 69.5976C131.862 66.1135 129.401 63.9565 124.479 63.9565H115.022V75.3493Z" fill="black"/>
<path fill-rule="evenodd" clip-rule="evenodd" d="M57.8869 60.9701V60.0299C62.6706 58.8961 64.9659 55.6885 64.9659 51.43C64.9659 45.6231 60.8457 41.1157 50.5867 41.1157H35.7373V81.571H51.9969C62.8919 81.571 66.8461 76.6212 66.8461 70.5931C66.8461 65.3944 63.8321 62.0761 57.8869 60.9701ZM43.0099 47.3375H51.2226C55.5917 47.3375 57.9697 48.9966 57.9697 52.4807C57.9697 55.9648 55.5915 57.79 51.2226 57.79H43.0099V47.3375ZM43.0099 75.3493H52.4669C57.3891 75.3493 59.8501 73.0817 59.8501 69.5976C59.8501 66.1135 57.389 63.9565 52.4669 63.9565H43.0099V75.3493Z" fill="black"/>
<path fill-rule="evenodd" clip-rule="evenodd" d="M105.476 81.571H97.5125L93.9212 71.229H78.1982L74.5611 81.571H66.9844L81.7231 41.1157H90.8483L105.476 81.571ZM85.5114 50.4346L80.2697 65.3392H91.8761L86.7005 50.4346H85.5114Z" fill="black"/>
</svg>
