<svg width="258" height="120" viewBox="0 0 258 120" fill="none" xmlns="http://www.w3.org/2000/svg">
<path fill-rule="evenodd" clip-rule="evenodd" d="M117.143 67.4358C116.888 66.3364 116.386 65.3739 115.486 64.6859C113.631 63.2669 111.602 63.1784 109.533 64.0898C108.066 64.7358 107.28 65.9847 106.912 67.5879H117.144C117.144 67.5207 117.152 67.4762 117.143 67.4358ZM121.485 70.9984C121.468 71.1063 121.444 71.2132 121.418 71.3528H107.051C107.006 72.6098 108.635 74.4674 110.335 75.0437C112.504 75.7792 115.479 75.5073 117.152 72.7559C118.356 73.5111 119.559 74.2662 120.777 75.0298C119.881 76.4894 118.704 77.5993 117.251 78.4211C113.828 80.3563 108.445 80.1294 105.225 76.728C103.398 74.7991 102.464 72.5152 102.399 69.8537C102.348 67.7417 102.715 65.7279 103.826 63.9108C105.527 61.1286 107.972 59.5368 111.236 59.3127C113.607 59.1501 115.824 59.6028 117.746 61.0844C120.041 62.8531 121.266 65.2329 121.554 68.1207C121.651 69.0833 121.643 70.0425 121.485 70.9984ZM54.7262 67.5968C54.3995 65.4159 52.3973 63.1931 48.8486 63.5687C46.6629 63.8002 44.3913 65.8951 44.555 67.5968H54.7262ZM59.0675 70.9832C59.0496 71.0918 59.0258 71.1994 58.9952 71.3564H44.6121C44.8431 72.8748 46.1982 74.568 48.1512 75.1231C50.4009 75.7625 53.1293 75.3692 54.7271 72.7551C55.9302 73.5092 57.1333 74.2633 58.3528 75.0276C57.7065 76.0986 56.8974 76.9865 55.9169 77.7156C53.9253 79.1966 51.6799 79.7544 49.2328 79.6088C46.9803 79.4749 44.9795 78.7199 43.2928 77.1886C41.2178 75.3049 40.12 72.9461 39.9871 70.1301C39.8701 67.6508 40.3569 65.3289 41.8084 63.2825C43.5156 60.8756 45.8261 59.523 48.7698 59.3147C50.8159 59.17 52.7802 59.463 54.5497 60.5617C57.1437 62.1724 58.6087 64.5537 59.0668 67.5791C59.2384 68.7122 59.2547 69.8485 59.0675 70.9832ZM75.8689 68.8719C75.6937 66.2577 73.795 63.8585 70.9484 63.6012C69.0524 63.4298 67.3895 63.9296 66.0969 65.4137C65.0451 66.6215 64.6533 68.0559 64.6608 69.6402C64.676 72.894 67.0751 75.3394 70.2817 75.3445C71.6068 75.3465 72.7572 74.9885 73.6871 74.2455C75.4083 72.8702 76.0136 71.0321 75.8689 68.8719ZM79.4564 73.7307C78.1006 76.8266 75.8444 78.8782 72.4832 79.4667C69.7726 79.9414 67.2226 79.5281 65.0279 77.6922C64.9942 77.664 64.9596 77.6361 64.9219 77.6141C64.9065 77.6052 64.8816 77.6126 64.8122 77.6126V77.995C64.8122 80.996 64.8124 83.9968 64.8116 86.9978C64.8115 87.1414 64.8018 87.285 64.7965 87.4286H60.4557C60.4558 79.6771 60.4557 71.9255 60.4562 64.174C60.4564 61.9137 61.9019 60.1564 64.0922 59.76C64.3025 59.7219 64.5202 59.7255 64.7718 59.7069V62.1767C65.0849 61.8085 65.3318 61.46 65.6351 61.1721C66.7696 60.0949 68.1525 59.5153 69.675 59.3497C72.3298 59.0611 74.7506 59.6949 76.7992 61.4859C78.8223 63.2546 79.9312 65.5114 80.1887 68.1995C80.3709 70.1015 80.2273 71.9702 79.4564 73.7307ZM96.9051 69.4844C96.9528 66.3953 94.8479 63.8682 91.9711 63.5993C89.7164 63.3886 87.6757 64.2084 86.447 66.3474C85.794 67.4841 85.5981 68.7272 85.6963 70.0238C86.0677 74.9287 91.0147 76.5101 94.2486 74.5444C96.1058 73.4155 96.8827 71.6329 96.9051 69.4844ZM99.8914 74.8922C98.4429 77.4025 96.3048 79.0276 93.4257 79.4859C90.6977 79.9201 88.1416 79.5027 85.9596 77.6266C85.9436 77.6129 85.9207 77.6075 85.8787 77.5878C85.8634 77.6378 85.8368 77.6841 85.8368 77.7304C85.8374 80.9632 85.8401 84.1959 85.8426 87.4286H81.4361C81.4435 87.2744 81.4573 87.1202 81.4574 86.966C81.4584 79.371 81.458 71.776 81.4584 64.181C81.4585 61.927 82.9079 60.1639 85.0947 59.7633C85.3052 59.7247 85.5228 59.7253 85.7694 59.7052V62.1469C85.8312 62.1248 85.8707 62.1234 85.8832 62.1042C86.8664 60.5906 88.3327 59.8256 90.021 59.4674C94.755 58.4632 99.4772 61.3877 100.812 66.1969C101.645 69.1967 101.473 72.1507 99.8914 74.8922ZM134.838 73.3934C133.18 73.388 131.846 74.7222 131.838 76.3941C131.829 78.0632 133.211 79.4565 134.849 79.4305C136.502 79.4042 137.8 78.0789 137.8 76.4163C137.8 74.7198 136.506 73.3988 134.838 73.3934ZM127.359 78.7236C127.359 76.1105 127.351 73.4974 127.364 70.8844C127.368 70.1223 127.404 69.3576 127.476 68.5992C127.77 65.5345 129.928 63.4578 132.976 63.3004C133.583 63.2689 134.193 63.2958 134.817 63.2958V59.455C131.833 58.963 129.224 59.4941 127.279 62.1215V59.7028C127.013 59.7248 126.804 59.7247 126.601 59.7616C124.452 60.1528 123.008 61.8846 123.005 64.0989C122.998 69.015 123.003 73.9312 123.003 78.8473C123.004 78.9547 123.014 79.0621 123.02 79.1867H127.359V78.7236ZM38.546 79.185V78.7752C38.546 75.1218 38.5488 71.4684 38.5431 67.8149C38.5422 67.2292 38.5343 66.6404 38.4765 66.0585C38.2944 64.2284 37.5491 62.6643 36.2363 61.3833C34.9211 60.1001 33.3408 59.4346 31.5238 59.3067C29.4918 59.1636 27.6333 59.6163 26.0092 60.9037C25.9534 60.9478 25.8924 60.9853 25.7788 61.0643V49.7358C25.7087 49.7242 25.6763 49.7132 25.6444 49.7145C23.2526 49.8084 21.4118 51.7412 21.4113 54.1661C21.4099 62.3808 21.4108 70.5954 21.4108 78.8102V79.1761H25.7867V78.7527C25.7867 75.0771 25.772 71.4014 25.7933 67.726C25.803 66.0471 26.5343 64.7222 28.0495 64.0066C29.6123 63.2685 31.1968 63.3509 32.6133 64.4321C33.7329 65.2867 34.1721 66.4983 34.171 67.8938C34.1682 71.514 34.1701 75.1343 34.1701 78.7545V79.185H38.546ZM0.200195 73.6682C1.4741 72.8625 2.71583 72.0771 3.97348 71.2817C4.01901 71.3706 4.05606 71.4355 4.08652 71.5035C4.93358 73.3914 6.3627 74.5566 8.36983 74.9694C10.1441 75.3343 11.9023 75.3028 13.5843 74.5395C14.6824 74.0411 15.4809 73.2605 15.6205 71.9774C15.7669 70.6327 15.2829 69.5569 14.1529 68.8322C13.0091 68.0986 11.7345 67.6472 10.4524 67.2269C8.55927 66.6064 6.64282 66.0509 4.84843 65.1581C2.54981 64.0143 1.21774 62.136 0.971907 59.5828C0.659287 56.3356 1.85081 53.5722 5.03182 51.8221C6.90457 50.7917 8.92314 50.5417 11.0178 50.7432C13.4152 50.9738 15.4503 51.9741 17.1411 53.6954C17.8776 54.4454 18.4877 55.2914 18.9816 56.2753C17.7518 57.0537 16.5323 57.8256 15.2883 58.6129C15.1901 58.4297 15.1045 58.2667 15.016 58.1053C13.778 55.8469 11.8009 54.9766 9.37559 55.1064C8.35956 55.1607 7.4242 55.4317 6.58649 56.0495C5.07932 57.1609 4.82856 60.139 6.85424 61.2014C7.42631 61.5015 7.99272 61.8277 8.5946 62.0517C10.329 62.6971 12.0855 63.2818 13.8232 63.9186C15.1967 64.4219 16.5141 65.0416 17.6504 65.999C19.3295 67.4135 20.0972 69.2493 20.0812 71.4284C20.0667 73.4161 19.435 75.191 18.115 76.6781C16.9618 77.9775 15.4943 78.7828 13.8327 79.1934C10.7749 79.949 7.76558 79.8254 4.88376 78.4518C2.76965 77.4442 1.21557 75.8426 0.200195 73.6682Z" fill="#283241"/>
</svg>
