<svg width="215" height="100" viewBox="0 0 215 100" fill="none" xmlns="http://www.w3.org/2000/svg">
<path fill-rule="evenodd" clip-rule="evenodd" d="M97.6188 56.1965C97.4064 55.2803 96.9879 54.4782 96.2382 53.9049C94.6922 52.7224 93.0016 52.6486 91.2772 53.4081C90.0548 53.9465 89.3993 54.9872 89.0929 56.3232H97.6198C97.6198 56.2672 97.6266 56.2301 97.6188 56.1965ZM101.237 59.1653C101.223 59.2552 101.203 59.3443 101.181 59.4607H89.2085C89.1717 60.5081 90.529 62.0561 91.9454 62.5364C93.7528 63.1493 96.2319 62.9227 97.626 60.6298C98.6293 61.2592 99.6324 61.8884 100.647 62.5248C99.9006 63.7412 98.9201 64.6661 97.7088 65.3509C94.8562 66.9635 90.3708 66.7745 87.6869 63.94C86.1648 62.3325 85.3864 60.4293 85.3325 58.2114C85.2897 56.4514 85.5955 54.7732 86.5214 53.259C87.9392 50.9404 89.9761 49.6139 92.6967 49.4272C94.6719 49.2917 96.5196 49.669 98.1216 50.9036C100.034 52.3775 101.054 54.3607 101.295 56.7672C101.375 57.5693 101.369 58.3687 101.237 59.1653ZM45.6049 56.3306C45.3326 54.5132 43.6641 52.6609 40.7068 52.9739C38.8855 53.1668 36.9924 54.9126 37.1288 56.3306H45.6049ZM49.2226 59.1526C49.2077 59.2431 49.1878 59.3328 49.1624 59.4636H37.1764C37.369 60.729 38.4982 62.14 40.1257 62.6025C42.0005 63.1353 44.2741 62.8076 45.6056 60.6292C46.6082 61.2576 47.6108 61.8861 48.627 62.523C48.0885 63.4155 47.4142 64.1554 46.5971 64.763C44.9374 65.9972 43.0663 66.4619 41.027 66.3406C39.1499 66.229 37.4826 65.5998 36.077 64.3238C34.3479 62.754 33.433 60.7884 33.3223 58.4417C33.2248 56.3756 33.6304 54.4407 34.84 52.7353C36.2627 50.7296 38.1881 49.6025 40.6412 49.4289C42.3462 49.3083 43.9831 49.5524 45.4578 50.4681C47.6194 51.8103 48.8402 53.7947 49.222 56.3158C49.365 57.2602 49.3786 58.207 49.2226 59.1526ZM63.2237 57.3932C63.0778 55.2147 61.4955 53.2154 59.1234 53.001C57.5434 52.8581 56.1576 53.2746 55.0804 54.5114C54.2039 55.5179 53.8774 56.7132 53.8836 58.0335C53.8963 60.7449 55.8956 62.7828 58.5678 62.787C59.672 62.7887 60.6307 62.4904 61.4056 61.8712C62.84 60.7251 63.3444 59.1934 63.2237 57.3932ZM66.2133 61.4422C65.0835 64.0221 63.2033 65.7318 60.4023 66.2222C58.1435 66.6178 56.0185 66.2734 54.1896 64.7435C54.1615 64.72 54.1326 64.6967 54.1012 64.6784C54.0884 64.6709 54.0677 64.6772 54.0099 64.6772V64.9958C54.0099 67.4966 54.01 69.9973 54.0093 72.4981C54.0093 72.6178 54.0012 72.7375 53.9968 72.8571H50.3794C50.3795 66.3975 50.3794 59.9379 50.3799 53.4783C50.38 51.5947 51.5846 50.1303 53.4098 49.8C53.5851 49.7682 53.7665 49.7712 53.9762 49.7557V51.8139C54.2371 51.5071 54.4428 51.2167 54.6956 50.9767C55.641 50.079 56.7935 49.596 58.0622 49.4581C60.2746 49.2175 62.2918 49.7457 63.999 51.2382C65.6849 52.7121 66.609 54.5928 66.8236 56.8329C66.9754 58.4179 66.8558 59.9751 66.2133 61.4422ZM80.754 57.9036C80.7937 55.3294 79.0396 53.2234 76.6423 52.9994C74.7633 52.8238 73.0628 53.507 72.0389 55.2894C71.4947 56.2367 71.3314 57.2726 71.4133 58.3531C71.7227 62.4406 75.8453 63.7584 78.5401 62.1203C80.0878 61.1795 80.7353 59.6941 80.754 57.9036ZM83.2425 62.4101C82.0354 64.502 80.2536 65.8563 77.8544 66.2382C75.5811 66.6001 73.451 66.2522 71.6326 64.6888C71.6194 64.6774 71.6002 64.6729 71.5653 64.6565C71.5525 64.6981 71.5303 64.7367 71.5303 64.7753C71.5308 67.4692 71.5331 70.1632 71.5352 72.8571H67.8631C67.8693 72.7286 67.8808 72.6001 67.8808 72.4716C67.8817 66.1425 67.8813 59.8133 67.8817 53.4841C67.8818 51.6058 69.0896 50.1365 70.9119 49.8027C71.0873 49.7705 71.2687 49.7711 71.4742 49.7543V51.7891C71.5257 51.7706 71.5586 51.7695 71.569 51.7535C72.3884 50.4921 73.6102 49.8546 75.0172 49.5561C78.9622 48.7193 82.8974 51.1564 84.0097 55.164C84.7035 57.6639 84.5607 60.1255 83.2425 62.4101ZM112.365 61.1611C110.983 61.1567 109.871 62.2685 109.864 63.6617C109.858 65.0527 111.009 66.2137 112.374 66.192C113.752 66.1701 114.833 65.0657 114.833 63.6802C114.833 62.2665 113.755 61.1656 112.365 61.1611ZM106.132 65.603C106.132 63.4254 106.125 61.2478 106.136 59.0703C106.14 58.4352 106.169 57.798 106.23 57.1659C106.474 54.6121 108.273 52.8814 110.813 52.7503C111.319 52.7241 111.827 52.7464 112.347 52.7464V49.5458C109.86 49.1358 107.687 49.5784 106.065 51.7679V49.7523C105.844 49.7706 105.669 49.7705 105.5 49.8013C103.709 50.1273 102.506 51.5704 102.504 53.4157C102.498 57.5125 102.502 61.6093 102.503 65.706C102.503 65.7955 102.511 65.8851 102.516 65.9888H106.132V65.603ZM32.1213 65.9874V65.646C32.1213 62.6015 32.1236 59.5569 32.1189 56.5124C32.1182 56.0243 32.1116 55.5336 32.0634 55.0487C31.9117 53.5236 31.2906 52.2202 30.1966 51.1527C29.1006 50.0834 27.7836 49.5288 26.2695 49.4222C24.5762 49.3029 23.0275 49.6802 21.674 50.753C21.6275 50.7898 21.5767 50.8211 21.482 50.8868V41.4464C21.4236 41.4368 21.3966 41.4276 21.37 41.4287C19.3768 41.5069 17.8428 43.1176 17.8425 45.1384C17.8413 51.9839 17.842 58.8295 17.842 65.6751V65.9801H21.4886V65.6272C21.4886 62.5642 21.4764 59.5011 21.4941 56.4383C21.5022 55.0392 22.1116 53.9351 23.3742 53.3388C24.6766 52.7237 25.997 52.7924 27.1774 53.6934C28.1104 54.4056 28.4764 55.4152 28.4755 56.5781C28.4732 59.595 28.4747 62.6119 28.4747 65.6287V65.9874H32.1213ZM0.166504 61.3901C1.22809 60.7187 2.26286 60.0642 3.3109 59.4014C3.34885 59.4755 3.37972 59.5295 3.40511 59.5862C4.11099 61.1595 5.30193 62.1304 6.97453 62.4744C8.45313 62.7785 9.91829 62.7523 11.32 62.1162C12.235 61.7009 12.9004 61.0503 13.0167 59.9812C13.1387 58.8606 12.7354 57.964 11.7937 57.3601C10.8406 56.7488 9.77847 56.3726 8.70997 56.0224C7.1324 55.5053 5.53536 55.0424 4.04003 54.2983C2.12452 53.3452 1.01446 51.7799 0.809597 49.6523C0.549081 46.9463 1.54201 44.6435 4.19285 43.185C5.75349 42.3263 7.43563 42.118 9.18121 42.286C11.179 42.4782 12.8749 43.3117 14.2839 44.7462C14.8977 45.3711 15.4061 46.0761 15.8177 46.8961C14.7929 47.5447 13.7766 48.1879 12.7399 48.8441C12.6581 48.6914 12.5867 48.5556 12.513 48.421C11.4813 46.5391 9.83374 45.8138 7.81267 45.9219C6.96597 45.9672 6.18651 46.1931 5.48842 46.7079C4.23245 47.634 4.02347 50.1158 5.71154 51.0012C6.18826 51.2512 6.66028 51.5231 7.16184 51.7097C8.60721 52.2476 10.0709 52.7348 11.519 53.2654C12.6636 53.6849 13.7614 54.2013 14.7083 54.9991C16.1076 56.1779 16.7474 57.7077 16.734 59.5237C16.7219 61.1801 16.1955 62.6591 15.0955 63.8984C14.1345 64.9812 12.9116 65.6523 11.5269 65.9945C8.97877 66.6242 6.47099 66.5211 4.06948 65.3765C2.30772 64.5368 1.01265 63.2021 0.166504 61.3901Z" fill="white"/>
</svg>
