<svg width="117" height="20" viewBox="0 0 117 20" fill="none" xmlns="http://www.w3.org/2000/svg">
<path fill-rule="evenodd" clip-rule="evenodd" d="M13.3997 7.17381C13.6221 6.96241 13.7704 6.67175 13.7704 6.35465V1.16225C13.7704 0.99049 13.6369 0.87158 13.4738 0.792307C13.2662 0.699822 12.9252 0.646973 12.4804 0.646973C12.0355 0.646973 11.6945 0.699822 11.4869 0.792307C11.309 0.858368 11.1904 0.99049 11.1904 1.16225V6.35465C11.1904 6.68496 11.3238 6.96241 11.5611 7.17381C11.7983 7.37199 12.1245 7.50412 12.4804 7.50412C12.8511 7.50412 13.1624 7.38521 13.3997 7.17381ZM9.02933 8.32423C8.76912 8.25018 8.54439 8.07739 8.40246 7.81821L6.0724 3.60962C6.00143 3.47386 6.02509 3.31341 6.10788 3.18999C6.21433 3.02955 6.42723 2.84442 6.73475 2.65929C7.04227 2.47416 7.30248 2.37543 7.49172 2.36309C7.63366 2.35074 7.78742 2.40011 7.85838 2.53587L10.1884 6.74447C10.3304 7.00365 10.3659 7.28751 10.2949 7.55903C10.2239 7.83056 10.0583 8.06505 9.80996 8.21316C9.56157 8.36126 9.28954 8.39828 9.02933 8.32423ZM13.6841 16.7395C13.4391 16.8723 13.1812 16.9327 12.9104 16.9327C12.6525 16.9327 12.3816 16.8723 12.1366 16.7395L9.31243 15.2184C8.74501 14.9166 8.08732 14.7838 7.42963 14.8562C4.01222 15.2305 1.6007 15.8341 0.891422 16.0273C0.749567 16.0635 0.581921 16.0152 0.49165 15.9065C0.375587 15.7737 0.220837 15.5564 0.11767 15.2425C0.0145027 14.9287 0.00160678 14.6751 0.0145027 14.5061C0.0273985 14.3613 0.130566 14.2285 0.285316 14.1922C1.39436 13.8904 6.30769 12.647 12.9104 12.647C19.5131 12.647 24.4264 13.8904 25.5354 14.1922C25.6902 14.2285 25.7934 14.3613 25.8062 14.5061C25.8191 14.6872 25.8062 14.9407 25.7031 15.2425C25.587 15.5564 25.4452 15.7737 25.3291 15.9065C25.2388 16.0152 25.0712 16.0635 24.9293 16.0273C24.2201 15.8341 21.8214 15.2305 18.3911 14.8562C17.7334 14.7838 17.0757 14.9166 16.5083 15.2184L13.6841 16.7395ZM6.13214 10.7963C6.39244 10.9379 6.68992 10.9615 6.95021 10.9025C7.2229 10.8317 7.45841 10.6665 7.60715 10.4186C7.75589 10.1707 7.78067 9.88748 7.7187 9.63962C7.65673 9.39176 7.4708 9.1557 7.21051 9.01407L2.98382 6.6889C2.84748 6.61809 2.68634 6.64169 2.5624 6.72431C2.40126 6.83054 2.21534 7.04299 2.02941 7.34986C1.84349 7.65674 1.74433 7.9164 1.73193 8.10525C1.71954 8.25868 1.78151 8.40032 1.90546 8.47114L6.13214 10.7963ZM17.4183 7.81821C17.2764 8.07739 17.0516 8.25018 16.7914 8.32423C16.5312 8.39828 16.2592 8.36126 16.0108 8.21316C15.7624 8.06505 15.5968 7.83056 15.5259 7.55903C15.4549 7.28751 15.4904 7.00365 15.6323 6.74447L17.9624 2.53587C18.0333 2.40011 18.1871 2.35074 18.329 2.36309C18.5183 2.37543 18.7785 2.47416 19.086 2.65929C19.3935 2.84442 19.6064 3.02955 19.7129 3.18999C19.7957 3.31341 19.8193 3.47386 19.7484 3.60962L17.4183 7.81821ZM18.8705 10.9025C19.1308 10.9615 19.4283 10.9379 19.6886 10.7963L23.9153 8.47114C24.0392 8.40032 24.1012 8.25868 24.0888 8.10525C24.0764 7.9164 23.9773 7.65674 23.7913 7.34986C23.6054 7.04299 23.4195 6.83054 23.2584 6.72431C23.1344 6.64169 22.9733 6.61809 22.8369 6.6889L18.6102 9.01407C18.35 9.1557 18.1764 9.37996 18.1021 9.63962C18.0401 9.88748 18.0649 10.1707 18.2136 10.4186C18.3623 10.6665 18.5979 10.8317 18.8705 10.9025ZM47.5015 7.50412H49.7089C49.7897 7.50412 49.857 7.5548 49.8973 7.61816L52.0913 12.9149L54.2179 7.61816C54.2448 7.54213 54.3255 7.50412 54.4063 7.50412H56.5733C56.7213 7.50412 56.8156 7.6435 56.7483 7.75755L51.3644 19.3901C51.3375 19.4534 51.2568 19.5041 51.1895 19.5041H49.2782C49.1436 19.5041 49.0359 19.3647 49.1032 19.2507L50.9472 15.1831L47.34 7.75755C47.2593 7.6435 47.3535 7.50412 47.5015 7.50412ZM79.3688 7.85724V8.84041C78.7801 8.09673 77.8434 7.4917 76.492 7.50431C74.4448 7.50431 72.2504 8.77739 72.2504 11.7521C72.2504 14.0336 73.7222 16.0755 76.5589 16.0755C78.0441 16.0755 78.954 15.2814 79.3688 14.6764V15.71C79.3688 15.8108 79.4625 15.8991 79.5695 15.8991H81.5097C81.6167 15.8991 81.7104 15.8108 81.7104 15.71V7.85724C81.7104 7.7564 81.6167 7.66817 81.5097 7.66817H79.5695C79.4625 7.66817 79.3688 7.7564 79.3688 7.85724ZM74.8304 11.7702C74.8304 13.2358 75.65 14.3613 76.9685 14.3613C78.287 14.3613 79.1304 13.3798 79.1304 11.8749C79.1304 10.37 78.3108 9.2184 76.9091 9.2184C75.5906 9.2184 74.8304 10.3438 74.8304 11.7702ZM83.4304 7.86448V15.8825C83.4304 15.9855 83.5054 16.0627 83.6179 16.0755H85.431C85.5311 16.0755 85.6186 15.9855 85.6186 15.8825V11.7255C85.6186 10.5929 86.0937 9.37027 87.4442 9.37027C88.7946 9.37027 88.9822 10.7216 88.9822 11.5067V15.8825C88.9822 15.9855 89.0697 16.0755 89.1697 16.0755H90.9828C91.0828 16.0755 91.1704 15.9855 91.1704 15.8825V11.4681C91.1704 8.21197 89.6074 7.50412 88.2069 7.50412C86.844 7.50412 86.0437 8.1991 85.6186 8.95843V7.86448C85.6186 7.76152 85.5311 7.67143 85.431 7.67143H83.6179C83.5179 7.67143 83.4304 7.76152 83.4304 7.86448ZM92.8904 15.8825V7.86448C92.8904 7.76152 92.9779 7.67143 93.0779 7.67143H94.891C94.9911 7.67143 95.0786 7.76152 95.0786 7.86448V8.95843C95.5037 8.1991 96.304 7.50412 97.6669 7.50412C99.0674 7.50412 100.63 8.21197 100.63 11.4681V15.8825C100.63 15.9855 100.543 16.0755 100.443 16.0755H98.6297C98.5297 16.0755 98.4422 15.9855 98.4422 15.8825V11.5067C98.4422 10.7216 98.2546 9.37027 96.9042 9.37027C95.5537 9.37027 95.0786 10.5929 95.0786 11.7255V15.8825C95.0786 15.9855 94.9911 16.0755 94.891 16.0755H93.0779C92.9779 16.0627 92.8904 15.9855 92.8904 15.8825ZM113.831 7.6743H112.016C111.913 7.6743 111.823 7.76436 111.81 7.86729V15.8826C111.81 15.9855 111.9 16.0755 112.003 16.0755H113.869C113.972 16.0755 114.062 15.9855 114.062 15.8826V11.8428C114.062 10.4018 114.834 9.37256 116.739 9.74567C116.867 9.7714 116.97 9.68134 116.97 9.56555V7.73863C116.97 7.64857 116.919 7.57138 116.829 7.55851C115.799 7.31407 114.384 7.88015 114.024 9.52695V7.86729C114.024 7.76436 113.934 7.6743 113.831 7.6743ZM35.5827 9.25736C35.2666 9.15453 35.0283 9.07341 34.8034 8.99682C34.6021 8.9283 34.4115 8.86341 34.1853 8.78983C33.6929 8.621 32.8544 8.15347 32.8544 7.40022C32.8544 6.64697 33.3868 6.16645 34.4648 6.16645C35.4497 6.16645 35.9953 6.63399 36.3547 7.38723C36.4079 7.49113 36.5277 7.53009 36.6342 7.47814L38.2179 6.58204C38.2978 6.53009 38.3377 6.42619 38.2978 6.33528C37.8187 5.30931 36.7007 4.07554 34.4914 4.07554C32.0292 4.07554 30.4854 5.50412 30.4854 7.38723C30.4854 9.25736 31.7497 10.2314 33.4666 10.8028C33.6845 10.8752 33.8571 10.9334 34.0122 10.9856L34.0125 10.9857L34.0128 10.9859C34.3026 11.0835 34.5307 11.1604 34.8774 11.2703C35.8889 11.608 36.3547 12.0496 36.3547 12.66C36.3547 13.2703 35.9554 13.9976 34.3849 13.9976C32.9476 13.9976 32.4418 13.2574 32.149 12.5561C32.1091 12.4522 31.976 12.4002 31.8695 12.4652L30.2059 13.4002C30.126 13.4522 30.0861 13.5431 30.126 13.634C30.7649 15.1665 32.5084 16.0755 34.4648 16.0755C36.7673 16.0755 38.7104 14.9327 38.7104 12.621C38.7104 10.3093 36.1817 9.45217 35.5827 9.25736ZM47.1806 13.65C47.2686 13.5862 47.3944 13.6245 47.4447 13.7138L48.1492 14.9138C48.1869 14.9904 48.1743 15.0798 48.1114 15.1436C47.4196 15.833 46.841 16.0755 45.9353 16.0755C44.9793 16.0755 44.0988 15.667 43.4698 14.6713C43.0044 13.9436 41.7843 11.9904 41.7843 11.9904V15.7053C41.7843 15.8075 41.6962 15.8968 41.5956 15.8968H39.7591C39.6584 15.8968 39.5704 15.8075 39.5704 15.7053V4.26703C39.5704 4.16491 39.6584 4.07554 39.7591 4.07554H41.583C41.6836 4.07554 41.7717 4.16491 41.7717 4.26703V10.9692L44.1617 7.63725C44.1994 7.58618 44.2497 7.56065 44.3126 7.56065H46.4762C46.6271 7.56065 46.7152 7.73937 46.6145 7.86703L43.8472 11.3521C43.8472 11.3521 44.4887 12.3734 45.017 13.2032C45.646 14.1862 46.4762 14.1734 47.1806 13.65ZM60.5476 10.8274L60.5472 10.8273L60.1853 10.6979C59.7259 10.5338 59.319 10.2939 59.319 9.94047C59.319 9.58701 59.6603 9.19568 60.3559 9.19568C60.9597 9.19568 61.3272 9.4229 61.5372 9.82686C61.5897 9.92785 61.7078 9.9531 61.7997 9.9026L63.1385 9.15781C63.2304 9.10731 63.2566 8.9937 63.2041 8.90534C62.8366 8.28678 62.1147 7.50412 60.369 7.50412C58.2296 7.50412 57.1271 8.69073 57.1271 10.0036C57.1271 11.3164 58.2427 11.935 59.2665 12.3263C60.3732 12.7617 60.4918 12.8032 60.6268 12.8503L60.6447 12.8565C60.9991 12.9954 61.4322 13.21 61.4322 13.6013C61.4322 13.9926 60.9597 14.3461 60.2378 14.3461C59.5684 14.3461 58.8071 14.081 58.4921 13.3362C58.4527 13.2352 58.3215 13.1847 58.2165 13.2479L56.8646 13.9926C56.7858 14.0431 56.7464 14.1315 56.7858 14.2199C57.1796 15.2045 58.3477 16.0755 60.2378 16.0755C62.2853 16.0755 63.6504 15.0278 63.6504 13.5508C63.6504 12.0739 62.6003 11.5563 61.4584 11.1523C61.0352 11.0019 60.8054 10.9197 60.5476 10.8274ZM70.3449 10.126C69.7786 9.7226 69.1746 9.4705 68.3567 9.4705C67.4632 9.4705 65.8525 9.9747 65.8525 11.7898C65.8525 13.605 67.4758 14.1092 68.3693 14.1092C69.162 14.1092 69.8667 13.8066 70.3575 13.4537C70.4456 13.3907 70.5714 13.4285 70.6217 13.5167L71.3642 14.815C71.4145 14.8907 71.3894 15.0041 71.3139 15.0545C70.6217 15.5083 69.6151 16.0755 68.256 16.0755C66.746 16.0755 65.5631 15.5209 64.9087 14.8655C64.2544 14.21 63.6504 13.2772 63.6504 11.815C63.6504 10.605 64.0405 9.58395 64.8962 8.7268C65.7519 7.85706 66.9473 7.50412 68.2434 7.50412C69.5521 7.50412 70.5211 7.99571 71.3013 8.52512C71.3894 8.57554 71.4145 8.67638 71.3642 8.76462L70.6092 10.0755C70.5588 10.1638 70.433 10.189 70.3449 10.126ZM106.655 14.2604C105.879 14.2604 105.143 14.0839 104.608 13.6806C104.073 13.2772 103.819 12.8613 103.819 12.3697H110.75C110.857 12.3697 110.95 12.2814 110.95 12.1806C110.91 10.2394 110.241 9.33185 109.599 8.7142C108.93 8.08395 107.793 7.50412 106.294 7.50412C104.795 7.50412 103.645 8.02092 102.855 8.75202C102.079 9.48311 101.49 10.4159 101.49 11.8276C101.49 13.2394 102.092 14.1722 102.828 14.8655C103.564 15.5587 104.769 16.0755 106.495 16.0755C108.127 16.0755 109.505 15.5335 110.495 14.4621C110.576 14.3739 110.549 14.2352 110.442 14.1848L109.064 13.4285C108.997 13.3907 108.903 13.3907 108.836 13.4537C108.154 14.0587 107.284 14.2604 106.655 14.2604ZM108.37 10.9327C108.223 9.83065 107.286 9.2184 106.263 9.2184C105.241 9.2184 104.354 9.74493 104.07 10.9327H108.37Z" fill="#2A6FE3"/>
</svg>
