<svg width="215" height="100" viewBox="0 0 215 100" fill="none" xmlns="http://www.w3.org/2000/svg">
<path fill-rule="evenodd" clip-rule="evenodd" d="M22.3326 50.2894C22.7033 49.937 22.9504 49.4526 22.9504 48.9241V40.2701C22.9504 39.9838 22.728 39.7856 22.4562 39.6535C22.1102 39.4994 21.5418 39.4113 20.8004 39.4113C20.059 39.4113 19.4907 39.4994 19.1447 39.6535C18.8481 39.7636 18.6504 39.9838 18.6504 40.2701V48.9241C18.6504 49.4746 18.8728 49.937 19.2682 50.2894C19.6636 50.6197 20.2073 50.8399 20.8004 50.8399C21.4182 50.8399 21.9372 50.6417 22.3326 50.2894ZM15.0487 52.2067C14.615 52.0833 14.2404 51.7953 14.0039 51.3634L10.1205 44.349C10.0022 44.1228 10.0416 43.8554 10.1796 43.6497C10.357 43.3823 10.7118 43.0737 11.2244 42.7652C11.7369 42.4566 12.1706 42.2921 12.486 42.2715C12.7226 42.2509 12.9788 42.3332 13.0971 42.5595L16.9805 49.5738C17.2171 50.0058 17.2762 50.4789 17.158 50.9314C17.0397 51.3839 16.7637 51.7748 16.3497 52.0216C15.9358 52.2684 15.4824 52.3302 15.0487 52.2067ZM22.8067 66.2322C22.3983 66.4536 21.9684 66.5542 21.5171 66.5542C21.0872 66.5542 20.6359 66.4536 20.2275 66.2322L15.5205 63.697C14.5748 63.194 13.4787 62.9727 12.3825 63.0934C6.68684 63.7171 2.66762 64.7232 1.4855 65.0451C1.24908 65.1055 0.969665 65.025 0.819213 64.8439C0.625775 64.6226 0.367858 64.2604 0.195913 63.7373C0.0239676 63.2141 0.00247452 62.7916 0.0239676 62.5099C0.0454608 62.2684 0.217406 62.0471 0.475323 61.9868C2.32373 61.4837 10.5126 59.4113 21.5171 59.4113C32.5216 59.4113 40.7104 61.4837 42.5589 61.9868C42.8168 62.0471 42.9887 62.2684 43.0102 62.5099C43.0317 62.8117 43.0102 63.2342 42.8383 63.7373C42.6448 64.2604 42.4084 64.6226 42.215 64.8439C42.0645 65.025 41.7851 65.1055 41.5487 65.0451C40.3666 64.7232 36.3688 63.7171 30.6517 63.0934C29.5555 62.9727 28.4594 63.194 27.5137 63.697L22.8067 66.2322ZM10.22 56.3268C10.6539 56.5629 11.1497 56.6022 11.5835 56.5039C12.038 56.3859 12.4305 56.1105 12.6784 55.6974C12.9263 55.2843 12.9676 54.8121 12.8643 54.399C12.761 53.9859 12.4511 53.5925 12.0173 53.3565L4.97284 49.4812C4.74559 49.3632 4.47704 49.4025 4.27045 49.5402C4.0019 49.7172 3.69202 50.0713 3.38215 50.5828C3.07228 51.0942 2.90701 51.527 2.88635 51.8418C2.86569 52.0975 2.96898 52.3335 3.17557 52.4516L10.22 56.3268ZM29.0303 51.3634C28.7937 51.7953 28.4192 52.0833 27.9855 52.2067C27.5518 52.3302 27.0984 52.2684 26.6845 52.0216C26.2705 51.7748 25.9945 51.3839 25.8762 50.9314C25.758 50.4789 25.8171 50.0058 26.0536 49.5738L29.9371 42.5595C30.0554 42.3332 30.3116 42.2509 30.5482 42.2715C30.8636 42.2921 31.2973 42.4566 31.8098 42.7652C32.3223 43.0737 32.6772 43.3823 32.8546 43.6497C32.9926 43.8554 33.032 44.1228 32.9137 44.349L29.0303 51.3634ZM31.4507 56.5039C31.8845 56.6022 32.3803 56.5629 32.8141 56.3268L39.8586 52.4516C40.0652 52.3335 40.1685 52.0975 40.1478 51.8418C40.1272 51.527 39.9619 51.0942 39.652 50.5828C39.3422 50.0713 39.0323 49.7172 38.7637 49.5402C38.5571 49.4025 38.2886 49.3632 38.0613 49.4812L31.0169 53.3565C30.583 53.5925 30.2938 53.9663 30.1699 54.399C30.0666 54.8121 30.1079 55.2843 30.3558 55.6974C30.6037 56.1105 30.9962 56.3859 31.4507 56.5039ZM79.169 50.8399H82.848C82.9826 50.8399 83.0947 50.9243 83.162 51.0299L86.8186 59.8578L90.3629 51.0299C90.4078 50.9032 90.5424 50.8399 90.6769 50.8399H94.2886C94.5354 50.8399 94.6924 51.0722 94.5802 51.2623L85.6072 70.6498C85.5623 70.7554 85.4277 70.8399 85.3156 70.8399H82.1301C81.9058 70.8399 81.7264 70.6076 81.8385 70.4175L84.9118 63.6382L78.8999 51.2623C78.7653 51.0722 78.9223 50.8399 79.169 50.8399ZM132.281 51.4284V53.067C131.3 51.8276 129.739 50.8192 127.486 50.8402C124.074 50.8402 120.417 52.962 120.417 57.9199C120.417 61.7223 122.87 65.1256 127.598 65.1256C130.073 65.1256 131.59 63.8021 132.281 62.7937V64.5164C132.281 64.6844 132.437 64.8315 132.616 64.8315H135.849C136.028 64.8315 136.184 64.6844 136.184 64.5164V51.4284C136.184 51.2604 136.028 51.1133 135.849 51.1133H132.616C132.437 51.1133 132.281 51.2604 132.281 51.4284ZM124.717 57.95C124.717 60.3928 126.083 62.2684 128.281 62.2684C130.478 62.2684 131.884 60.6327 131.884 58.1245C131.884 55.6163 130.518 53.697 128.182 53.697C125.984 53.697 124.717 55.5727 124.717 57.95ZM139.05 51.4405V64.8038C139.05 64.9754 139.175 65.1041 139.363 65.1256H142.385C142.552 65.1256 142.697 64.9754 142.697 64.8038V57.8755C142.697 55.9879 143.489 53.9501 145.74 53.9501C147.991 53.9501 148.303 56.2024 148.303 57.5108V64.8038C148.303 64.9754 148.449 65.1256 148.616 65.1256H151.638C151.805 65.1256 151.95 64.9754 151.95 64.8038V57.4465C151.95 52.0196 149.345 50.8399 147.011 50.8399C144.74 50.8399 143.406 51.9982 142.697 53.2637V51.4405C142.697 51.2689 142.552 51.1187 142.385 51.1187H139.363C139.196 51.1187 139.05 51.2689 139.05 51.4405ZM154.817 64.8038V51.4405C154.817 51.2689 154.963 51.1187 155.13 51.1187H158.151C158.318 51.1187 158.464 51.2689 158.464 51.4405V53.2637C159.173 51.9982 160.506 50.8399 162.778 50.8399C165.112 50.8399 167.717 52.0196 167.717 57.4465V64.8038C167.717 64.9754 167.571 65.1256 167.404 65.1256H164.383C164.216 65.1256 164.07 64.9754 164.07 64.8038V57.5108C164.07 56.2024 163.757 53.9501 161.507 53.9501C159.256 53.9501 158.464 55.9879 158.464 57.8755V64.8038C158.464 64.9754 158.318 65.1256 158.151 65.1256H155.13C154.963 65.1041 154.817 64.9754 154.817 64.8038ZM189.717 51.1235H186.694C186.522 51.1235 186.372 51.2736 186.35 51.4452V64.8039C186.35 64.9755 186.501 65.1256 186.672 65.1256H189.782C189.953 65.1256 190.104 64.9755 190.104 64.8039V58.0709C190.104 55.6694 191.39 53.954 194.564 54.5758C194.779 54.6187 194.95 54.4686 194.95 54.2756V51.2307C194.95 51.0806 194.865 50.952 194.714 50.9305C192.999 50.5231 190.64 51.4666 190.039 54.2113V51.4452C190.039 51.2736 189.889 51.1235 189.717 51.1235ZM59.3044 53.7619C58.7775 53.5906 58.3804 53.4554 58.0054 53.3277L58.0053 53.3277L58.0053 53.3277L58.0053 53.3277L58.0052 53.3277L58.0052 53.3276C57.6699 53.2135 57.3522 53.1053 56.9753 52.9827C56.1546 52.7013 54.7571 51.9221 54.7571 50.6667C54.7571 49.4113 55.6444 48.6104 57.4411 48.6104C59.0826 48.6104 59.992 49.3897 60.5909 50.6451C60.6796 50.8182 60.8793 50.8832 61.0567 50.7966L63.6964 49.3031C63.8294 49.2165 63.896 49.0433 63.8295 48.8918C63.0309 47.1819 61.1676 45.1256 57.4855 45.1256C53.3819 45.1256 50.8088 47.5065 50.8088 50.6451C50.8088 53.7619 52.916 55.3853 55.7775 56.3377C56.1411 56.4585 56.4292 56.5556 56.6878 56.6428C57.1707 56.8055 57.5509 56.9337 58.1287 57.1169C59.8146 57.6797 60.5909 58.4156 60.5909 59.4329C60.5909 60.4503 59.9255 61.6624 57.308 61.6624C54.9124 61.6624 54.0695 60.4286 53.5815 59.2598C53.5149 59.0866 53.2931 59 53.1157 59.1083L50.3429 60.6667C50.2099 60.7533 50.1433 60.9048 50.2099 61.0563C51.2746 63.6104 54.1804 65.1256 57.4411 65.1256C61.2785 65.1256 64.5171 63.2208 64.5171 59.368C64.5171 55.5152 60.3026 54.0866 59.3044 53.7619ZM78.6341 61.083C78.7808 60.9766 78.9905 61.0405 79.0744 61.1894L80.2484 63.1894C80.3113 63.3171 80.2903 63.466 80.1855 63.5724C79.0324 64.7213 78.068 65.1256 76.5586 65.1256C74.9653 65.1256 73.4977 64.4447 72.4495 62.7852C71.6738 61.5724 69.6402 58.3171 69.6402 58.3171V64.5086C69.6402 64.6788 69.4935 64.8277 69.3257 64.8277H66.2649C66.0972 64.8277 65.9504 64.6788 65.9504 64.5086V45.4447C65.9504 45.2745 66.0972 45.1256 66.2649 45.1256H69.3048C69.4725 45.1256 69.6193 45.2745 69.6193 45.4447V56.6149L73.6026 51.0618C73.6655 50.9766 73.7493 50.9341 73.8541 50.9341H77.4601C77.7116 50.9341 77.8584 51.232 77.6907 51.4447L73.0784 57.2532C73.0784 57.2532 74.1476 58.9554 75.0282 60.3384C76.0764 61.9766 77.4601 61.9554 78.6341 61.083ZM102.431 56.9202C101.724 56.6692 101.341 56.5321 100.911 56.3782L100.309 56.1628C99.543 55.8893 98.8648 55.4896 98.8648 54.9005C98.8648 54.3114 99.4336 53.6591 100.593 53.6591C101.599 53.6591 102.212 54.0379 102.562 54.7111C102.649 54.8794 102.846 54.9215 102.999 54.8373L105.231 53.596C105.384 53.5119 105.427 53.3225 105.34 53.1752C104.727 52.1443 103.524 50.8399 100.615 50.8399C97.0491 50.8399 95.2116 52.8176 95.2116 55.0057C95.2116 57.1938 97.071 58.2247 98.7773 58.8769C100.622 59.6026 100.819 59.6716 101.044 59.7501L101.074 59.7606C101.665 59.992 102.387 60.3497 102.387 61.0019C102.387 61.6541 101.599 62.2432 100.396 62.2432C99.2805 62.2432 98.0117 61.8014 97.4867 60.56C97.421 60.3917 97.2023 60.3076 97.0273 60.4128L94.7741 61.6541C94.6428 61.7383 94.5772 61.8855 94.6428 62.0328C95.2991 63.6739 97.246 65.1256 100.396 65.1256C103.809 65.1256 106.084 63.3793 106.084 60.9177C106.084 58.4561 104.334 57.5935 102.431 56.9202ZM117.241 55.2096C116.298 54.5373 115.291 54.1172 113.928 54.1172C112.439 54.1172 109.754 54.9575 109.754 57.9827C109.754 61.0079 112.46 61.8483 113.949 61.8483C115.27 61.8483 116.444 61.3441 117.262 60.7558C117.409 60.6508 117.619 60.7138 117.703 60.8609L118.94 63.0247C119.024 63.1508 118.982 63.3399 118.856 63.4239C117.703 64.1802 116.025 65.1256 113.76 65.1256C111.243 65.1256 109.272 64.2012 108.181 63.1088C107.09 62.0163 106.084 60.4617 106.084 58.0247C106.084 56.0079 106.734 54.3063 108.16 52.8777C109.586 51.4281 111.579 50.8399 113.739 50.8399C115.92 50.8399 117.535 51.6592 118.835 52.5416C118.982 52.6256 119.024 52.7937 118.94 52.9407L117.682 55.1256C117.598 55.2726 117.388 55.3147 117.241 55.2096ZM177.759 62.1004C176.465 62.1004 175.239 61.8063 174.346 61.134C173.454 60.4617 173.031 59.7684 173.031 58.9491H184.583C184.761 58.9491 184.917 58.8021 184.917 58.634C184.85 55.3987 183.735 53.8861 182.665 52.8567C181.55 51.8063 179.654 50.8399 177.156 50.8399C174.659 50.8399 172.741 51.7012 171.425 52.9197C170.132 54.1382 169.15 55.6928 169.15 58.0458C169.15 60.3987 170.154 61.9533 171.38 63.1088C172.607 64.2642 174.614 65.1256 177.491 65.1256C180.212 65.1256 182.509 64.2222 184.159 62.4365C184.293 62.2894 184.248 62.0584 184.07 61.9743L181.773 60.7138C181.661 60.6508 181.505 60.6508 181.394 60.7558C180.256 61.7642 178.807 62.1004 177.759 62.1004ZM180.617 56.5542C180.371 54.7174 178.81 53.697 177.106 53.697C175.401 53.697 173.923 54.5746 173.45 56.5542H180.617Z" fill="white"/>
</svg>
