<svg width="258" height="120" viewBox="0 0 258 120" fill="none" xmlns="http://www.w3.org/2000/svg">
<path fill-rule="evenodd" clip-rule="evenodd" d="M26.7991 60.3473C27.244 59.9245 27.5405 59.3431 27.5405 58.7089V48.3241C27.5405 47.9806 27.2736 47.7428 26.9474 47.5842C26.5322 47.3993 25.8502 47.2936 24.9605 47.2936C24.0709 47.2936 23.3888 47.3993 22.9736 47.5842C22.6178 47.7164 22.3805 47.9806 22.3805 48.3241V58.7089C22.3805 59.3696 22.6474 59.9245 23.1219 60.3473C23.5964 60.7436 24.2488 61.0079 24.9605 61.0079C25.7019 61.0079 26.3246 60.77 26.7991 60.3473ZM18.0584 62.6481C17.538 62.5 17.0885 62.1544 16.8047 61.6361L12.1445 53.2189C12.0026 52.9473 12.0499 52.6265 12.2155 52.3796C12.4284 52.0587 12.8542 51.6885 13.4693 51.3182C14.0843 50.948 14.6047 50.7505 14.9832 50.7258C15.2671 50.7011 15.5746 50.7999 15.7165 51.0714L20.3766 59.4886C20.6605 60.0069 20.7315 60.5747 20.5895 61.1177C20.4476 61.6607 20.1164 62.1297 19.6197 62.4259C19.1229 62.7221 18.5788 62.7962 18.0584 62.6481ZM27.368 79.4787C26.878 79.7443 26.3621 79.865 25.8205 79.865C25.3047 79.865 24.763 79.7443 24.273 79.4787L18.6246 76.4364C17.4898 75.8328 16.1744 75.5672 14.859 75.7121C8.0242 76.4606 3.20115 77.6678 1.7826 78.0541C1.49889 78.1266 1.1636 78.03 0.983056 77.8127C0.75093 77.5471 0.441429 77.1125 0.235095 76.4847C0.0287612 75.857 0.00296943 75.3499 0.0287612 75.0119C0.0545529 74.7221 0.260887 74.4566 0.570388 74.3841C2.78848 73.7805 12.6151 71.2936 25.8205 71.2936C39.0259 71.2936 48.8525 73.7805 51.0706 74.3841C51.3801 74.4566 51.5865 74.7221 51.6123 75.0119C51.638 75.3741 51.6123 75.8811 51.4059 76.4847C51.1738 77.1125 50.8901 77.5471 50.658 77.8127C50.4774 78.03 50.1421 78.1266 49.8584 78.0541C48.4399 77.6678 43.6426 76.4606 36.782 75.7121C35.4666 75.5672 34.1512 75.8328 33.0164 76.4364L27.368 79.4787ZM12.264 67.5922C12.7846 67.8755 13.3796 67.9227 13.9002 67.8047C14.4456 67.663 14.9166 67.3326 15.214 66.8368C15.5115 66.3411 15.5611 65.7746 15.4372 65.2789C15.3132 64.7831 14.9414 64.311 14.4208 64.0278L5.9674 59.3774C5.69471 59.2358 5.37245 59.283 5.12455 59.4483C4.80228 59.6607 4.43043 60.0856 4.05858 60.6994C3.68673 61.3131 3.48841 61.8324 3.46362 62.2101C3.43883 62.517 3.56278 62.8003 3.81068 62.9419L12.264 67.5922ZM34.8363 61.6361C34.5525 62.1544 34.103 62.5 33.5826 62.6481C33.0622 62.7962 32.5181 62.7221 32.0213 62.4259C31.5246 62.1297 31.1934 61.6607 31.0515 61.1177C30.9095 60.5747 30.9805 60.0069 31.2644 59.4886L35.9245 51.0714C36.0664 50.7999 36.374 50.7011 36.6578 50.7258C37.0363 50.7505 37.5567 50.948 38.1718 51.3182C38.7868 51.6885 39.2126 52.0587 39.4255 52.3796C39.5911 52.6265 39.6384 52.9473 39.4965 53.2189L34.8363 61.6361ZM37.7408 67.8047C38.2614 67.9227 38.8564 67.8755 39.377 67.5922L47.8303 62.9419C48.0782 62.8003 48.2022 62.517 48.1774 62.2101C48.1526 61.8324 47.9543 61.3131 47.5824 60.6994C47.2106 60.0856 46.8387 59.6607 46.5165 59.4483C46.2686 59.283 45.9463 59.2358 45.6736 59.3774L37.2202 64.0278C36.6997 64.311 36.3526 64.7595 36.2039 65.2789C36.0799 65.7746 36.1295 66.3411 36.427 66.8368C36.7244 67.3326 37.1955 67.663 37.7408 67.8047ZM95.0028 61.0079H99.4176C99.5791 61.0079 99.7137 61.1092 99.7944 61.236L104.182 71.8294L108.435 61.236C108.489 61.0839 108.651 61.0079 108.812 61.0079H113.146C113.442 61.0079 113.631 61.2866 113.496 61.5147L102.729 84.7798C102.675 84.9065 102.513 85.0079 102.379 85.0079H98.5562C98.287 85.0079 98.0716 84.7291 98.2062 84.501L101.894 76.3658L94.6798 61.5147C94.5183 61.2866 94.7067 61.0079 95.0028 61.0079ZM158.737 61.7141V63.6805C157.56 62.1931 155.687 60.983 152.984 61.0083C148.889 61.0083 144.501 63.5544 144.501 69.5039C144.501 74.0668 147.444 78.1507 153.118 78.1507C156.088 78.1507 157.908 76.5625 158.737 75.3525V77.4196C158.737 77.6213 158.925 77.7978 159.139 77.7978H163.019C163.233 77.7978 163.421 77.6213 163.421 77.4196V61.7141C163.421 61.5124 163.233 61.336 163.019 61.336H159.139C158.925 61.336 158.737 61.5124 158.737 61.7141ZM149.661 69.54C149.661 72.4713 151.3 74.7222 153.937 74.7222C156.574 74.7222 158.261 72.7592 158.261 69.7494C158.261 66.7396 156.621 64.4364 153.818 64.4364C151.181 64.4364 149.661 66.6873 149.661 69.54ZM166.861 61.7286V77.7646C166.861 77.9705 167.011 78.125 167.236 78.1507H170.862C171.062 78.1507 171.237 77.9705 171.237 77.7646V69.4506C171.237 67.1855 172.187 64.7402 174.888 64.7402C177.589 64.7402 177.964 67.4429 177.964 69.013V77.7646C177.964 77.9705 178.139 78.1507 178.339 78.1507H181.965C182.165 78.1507 182.34 77.9705 182.34 77.7646V68.9358C182.34 62.4236 179.214 61.0079 176.414 61.0079C173.688 61.0079 172.087 62.3978 171.237 63.9165V61.7286C171.237 61.5227 171.062 61.3425 170.862 61.3425H167.236C167.036 61.3425 166.861 61.5227 166.861 61.7286ZM185.781 77.7646V61.7286C185.781 61.5227 185.956 61.3425 186.156 61.3425H189.782C189.982 61.3425 190.157 61.5227 190.157 61.7286V63.9165C191.007 62.3978 192.608 61.0079 195.334 61.0079C198.134 61.0079 201.26 62.4236 201.26 68.9358V77.7646C201.26 77.9705 201.085 78.1507 200.885 78.1507H197.259C197.059 78.1507 196.884 77.9705 196.884 77.7646V69.013C196.884 67.4429 196.509 64.7402 193.808 64.7402C191.107 64.7402 190.157 67.1855 190.157 69.4506V77.7646C190.157 77.9705 189.982 78.1507 189.782 78.1507H186.156C185.956 78.125 185.781 77.9705 185.781 77.7646ZM227.661 61.3482H224.032C223.826 61.3482 223.646 61.5284 223.62 61.7342V77.7648C223.62 77.9706 223.801 78.1507 224.007 78.1507H227.738C227.944 78.1507 228.124 77.9706 228.124 77.7648V69.6852C228.124 66.8033 229.668 64.7448 233.477 65.491C233.735 65.5424 233.94 65.3623 233.94 65.1307V61.4769C233.94 61.2968 233.838 61.1424 233.657 61.1167C231.599 60.6278 228.768 61.7599 228.047 65.0535V61.7342C228.047 61.5284 227.867 61.3482 227.661 61.3482ZM71.1653 64.5144C70.533 64.3087 70.0564 64.1465 69.6064 63.9933C69.204 63.8562 68.8228 63.7264 68.3704 63.5793C67.3855 63.2416 65.7085 62.3066 65.7085 60.8001C65.7085 59.2936 66.7733 58.3325 68.9293 58.3325C70.8991 58.3325 71.9904 59.2676 72.7091 60.7741C72.8156 60.9819 73.0551 61.0598 73.2681 60.9559L76.4356 59.1637C76.5953 59.0598 76.6752 58.852 76.5954 58.6702C75.6371 56.6183 73.4012 54.1507 68.9826 54.1507C64.0582 54.1507 60.9705 57.0079 60.9705 60.7741C60.9705 64.5144 63.4992 66.4624 66.933 67.6053C67.3687 67.75 67.714 67.8664 68.0241 67.9709L68.0247 67.9711L68.0254 67.9714C68.6049 68.1667 69.0612 68.3204 69.7545 68.5403C71.7775 69.2157 72.7091 70.0988 72.7091 71.3195C72.7091 72.5403 71.9106 73.9949 68.7696 73.9949C65.8949 73.9949 64.8834 72.5144 64.2978 71.1118C64.2179 70.904 63.9518 70.8001 63.7388 70.9299L60.4115 72.8001C60.2518 72.904 60.172 73.0858 60.2518 73.2676C61.5295 76.3325 65.0165 78.1507 68.9293 78.1507C73.5343 78.1507 77.4205 75.865 77.4205 71.2416C77.4205 66.6183 72.3631 64.904 71.1653 64.5144ZM94.3609 73.2997C94.537 73.172 94.7886 73.2486 94.8892 73.4273L96.298 75.8273C96.3735 75.9805 96.3484 76.1592 96.2226 76.2869C94.8389 77.6656 93.6817 78.1507 91.8703 78.1507C89.9583 78.1507 88.1973 77.3337 86.9394 75.3422C86.0086 73.8869 83.5683 69.9805 83.5683 69.9805V77.4103C83.5683 77.6145 83.3922 77.7933 83.1909 77.7933H79.5179C79.3166 77.7933 79.1405 77.6145 79.1405 77.4103V54.5337C79.1405 54.3294 79.3166 54.1507 79.5179 54.1507H83.1657C83.367 54.1507 83.5431 54.3294 83.5431 54.5337V67.938L88.3231 61.2741C88.3985 61.172 88.4992 61.1209 88.625 61.1209H92.9521C93.254 61.1209 93.4301 61.4784 93.2288 61.7337L87.6941 68.7039C87.6941 68.7039 88.9772 70.7465 90.0338 72.406C91.2917 74.372 92.9521 74.3465 94.3609 73.2997ZM122.917 68.3043C122.069 68.0032 121.61 67.8388 121.094 67.6541L120.37 67.3954C119.452 67.0672 118.638 66.5875 118.638 65.8806C118.638 65.1737 119.32 64.391 120.712 64.391C121.919 64.391 122.654 64.8454 123.074 65.6534C123.179 65.8553 123.415 65.9058 123.599 65.8048L126.277 64.3153C126.46 64.2143 126.513 63.987 126.408 63.8103C125.673 62.5732 124.229 61.0079 120.738 61.0079C116.459 61.0079 114.254 63.3811 114.254 66.0068C114.254 68.6325 116.485 69.8696 118.533 70.6523C120.746 71.5231 120.983 71.606 121.253 71.7002L121.289 71.7127C121.998 71.9904 122.864 72.4196 122.864 73.2023C122.864 73.9849 121.919 74.6919 120.475 74.6919C119.137 74.6919 117.614 74.1617 116.984 72.6721C116.905 72.4701 116.643 72.3691 116.433 72.4953L113.729 73.9849C113.571 74.0859 113.493 74.2626 113.571 74.4394C114.359 76.4087 116.695 78.1507 120.475 78.1507C124.57 78.1507 127.301 76.0552 127.301 73.1013C127.301 70.1474 125.2 69.1122 122.917 68.3043ZM140.69 66.2516C139.557 65.4448 138.349 64.9406 136.713 64.9406C134.926 64.9406 131.705 65.949 131.705 69.5793C131.705 73.2095 134.951 74.2179 136.738 74.2179C138.324 74.2179 139.733 73.6129 140.715 72.907C140.891 72.781 141.143 72.8566 141.243 73.0331L142.728 75.6297C142.829 75.781 142.778 76.0079 142.627 76.1087C141.243 77.0163 139.23 78.1507 136.512 78.1507C133.492 78.1507 131.126 77.0415 129.817 75.7306C128.509 74.4196 127.301 72.5541 127.301 69.6297C127.301 67.2095 128.081 65.1675 129.792 63.4532C131.503 61.7137 133.894 61.0079 136.487 61.0079C139.104 61.0079 141.042 61.9911 142.602 63.0499C142.778 63.1507 142.829 63.3524 142.728 63.5289L141.218 66.1507C141.117 66.3272 140.866 66.3776 140.69 66.2516ZM213.31 74.5205C211.758 74.5205 210.286 74.1675 209.216 73.3608C208.145 72.5541 207.637 71.7221 207.637 70.739H221.499C221.713 70.739 221.9 70.5625 221.9 70.3608C221.82 66.4785 220.482 64.6633 219.198 63.428C217.86 62.1675 215.585 61.0079 212.588 61.0079C209.59 61.0079 207.289 62.0415 205.71 63.5037C204.158 64.9658 202.98 66.8314 202.98 69.6549C202.98 72.4785 204.185 74.344 205.657 75.7306C207.128 77.1171 209.537 78.1507 212.989 78.1507C216.254 78.1507 219.01 77.0667 220.991 74.9238C221.151 74.7474 221.098 74.47 220.884 74.3692L218.127 72.8566C217.993 72.781 217.806 72.781 217.672 72.907C216.307 74.1171 214.568 74.5205 213.31 74.5205ZM216.741 67.865C216.445 65.6609 214.572 64.4364 212.527 64.4364C210.481 64.4364 208.707 65.4895 208.141 67.865H216.741Z" fill="#2A6FE3"/>
</svg>
