<svg width="215" height="100" viewBox="0 0 215 100" fill="none" xmlns="http://www.w3.org/2000/svg">
<path fill-rule="evenodd" clip-rule="evenodd" d="M31.9155 68.4208H39.2807V61.0557H31.9155V68.4208Z" fill="white"/>
<path fill-rule="evenodd" clip-rule="evenodd" d="M31.9155 58.5995H39.2807V51.2344H31.9155V58.5995Z" fill="white"/>
<path fill-rule="evenodd" clip-rule="evenodd" d="M31.9155 48.7763H39.2807V41.4111H31.9155V48.7763Z" fill="white"/>
<path fill-rule="evenodd" clip-rule="evenodd" d="M31.9155 38.955H39.2807V31.5898H31.9155V38.955Z" fill="white"/>
<path fill-rule="evenodd" clip-rule="evenodd" d="M41.7349 58.5995H49.1V51.2344H41.7349V58.5995Z" fill="white"/>
<path fill-rule="evenodd" clip-rule="evenodd" d="M41.7349 48.7763H49.1V41.4111H41.7349V48.7763Z" fill="white"/>
<path fill-rule="evenodd" clip-rule="evenodd" d="M9.82031 48.7714H17.1855V41.4062H9.82031V48.7714Z" fill="white"/>
<path fill-rule="evenodd" clip-rule="evenodd" d="M9.82031 58.5937H17.1855V51.2285H9.82031V58.5937Z" fill="white"/>
<path fill-rule="evenodd" clip-rule="evenodd" d="M0 53.6825H7.36516V46.3174H0V53.6825Z" fill="white"/>
<path fill-rule="evenodd" clip-rule="evenodd" d="M19.6401 36.4872H29.4604V26.667H19.6401V36.4872Z" fill="white"/>
<path fill-rule="evenodd" clip-rule="evenodd" d="M19.6401 48.7626H29.4604V38.9424H19.6401V48.7626Z" fill="white"/>
<path fill-rule="evenodd" clip-rule="evenodd" d="M19.6401 61.039H29.4604V51.2188H19.6401V61.039Z" fill="white"/>
<path fill-rule="evenodd" clip-rule="evenodd" d="M19.6401 73.3339H29.4604V63.5137H19.6401V73.3339Z" fill="white"/>
<path fill-rule="evenodd" clip-rule="evenodd" d="M63.0731 41.6738C60.5346 40.9795 59.314 39.5192 59.314 37.2724C59.314 34.4471 61.5402 32.1973 65.9691 32.1973C68.2916 32.1973 70.29 32.8199 71.5598 33.4896L70.5257 36.6939C69.2422 36.1047 67.5021 35.6442 65.8022 35.6442C64.1504 35.6442 63.408 36.1951 63.408 36.9856C63.408 37.7035 63.8863 37.9912 64.8919 38.2779L67.7652 39.1382C70.7575 40.022 72.1225 41.389 72.1225 43.6388C72.1225 46.7754 69.4887 48.9299 65.4192 48.9299C63.0005 48.9299 60.6309 48.1158 59.5771 47.5178L60.4256 44.2477C61.8397 44.8162 63.6663 45.4821 65.4909 45.4821C67.1181 45.4821 68.0049 44.8123 68.0049 43.9265C68.0049 43.2077 67.286 42.8247 66.1135 42.4898L63.0731 41.6738Z" fill="white"/>
<path fill-rule="evenodd" clip-rule="evenodd" d="M93.0465 38.7295L88.1364 44.6216H87.4421L82.5585 38.7295V48.6891H78.5322V32.4092H82.0037L87.7976 39.2087L93.5915 32.4092H97.063V48.6891H93.0367L93.0465 38.7295Z" fill="white"/>
<path fill-rule="evenodd" clip-rule="evenodd" d="M108.581 42.752H113.393L111.047 36.3836L108.581 42.752ZM108.679 32.4092H113.393L119.57 48.6891H115.5L114.405 45.6969H107.582L106.451 48.6891H102.381L108.679 32.4092Z" fill="white"/>
<path fill-rule="evenodd" clip-rule="evenodd" d="M152.789 35.9287V48.6891H148.763V35.9287H143.754V32.4092H157.64V35.9287H152.789Z" fill="white"/>
<path fill-rule="evenodd" clip-rule="evenodd" d="M129.004 39.9247V35.8984H132.644C133.961 35.8984 134.798 36.6644 134.798 37.9086C134.798 39.1057 133.961 39.9198 132.644 39.9198L129.004 39.9247ZM137.919 45.7441L135.071 42.5927C137.349 41.9918 138.968 40.2055 138.968 37.772C138.968 33.9657 135.879 32.4092 132.719 32.4092H124.987V48.6891H129.013V42.8235L130.74 42.797L135.732 48.6891H140.28V45.7431L137.919 45.7441Z" fill="white"/>
<path fill-rule="evenodd" clip-rule="evenodd" d="M62.743 60.1411H66.2341C67.0342 60.1411 67.6492 59.8927 68.0793 59.3958C68.5094 58.8989 68.7245 58.2874 68.7245 57.5613V56.539C68.7428 55.8657 68.5132 55.2091 68.0793 54.6937C67.6492 54.1904 67.0342 53.9383 66.2341 53.9377H62.743V60.1411ZM59.1636 67.3452H60.833V53.8691H59.1636V52.8477H66.4119C67.7906 52.8477 68.8617 53.1923 69.6251 53.8818C70.3885 54.5711 70.7701 55.5977 70.7701 56.9614C70.7701 58.0142 70.4774 58.8924 69.8922 59.5961C69.3069 60.2999 68.4506 60.756 67.3232 60.9642L69.9256 65.7888C70.2214 66.323 70.555 66.7158 70.9262 66.9673C71.2974 67.2186 71.7557 67.3447 72.3011 67.3452H72.4975V68.3685H71.0814C70.7168 68.3771 70.3528 68.3321 70.0012 68.2351C69.7261 68.1531 69.4668 68.0252 69.2342 67.8569C69.003 67.6853 68.8036 67.4747 68.645 67.2343C68.4741 66.983 68.3 66.694 68.1226 66.3672L65.367 61.2342H62.743V67.3483H64.4125V68.3716H59.1636V67.3452Z" fill="white"/>
<path fill-rule="evenodd" clip-rule="evenodd" d="M75.7954 67.3452H77.4648V53.8691H75.7954V52.8477H87.2694V56.5793H85.6677V53.9378H79.3759V59.8299H83.7783V58.0514H85.1119V62.6984H83.7783V60.9199H79.3759V67.2785H85.8906V64.4306H87.4913V68.3666H75.7954V67.3452Z" fill="white"/>
<path fill-rule="evenodd" clip-rule="evenodd" d="M94.7797 60.1637H98.2933C99.094 60.1637 99.7056 59.9117 100.128 59.4075C100.55 58.9034 100.761 58.288 100.761 57.5613V56.539C100.761 55.8136 100.55 55.1986 100.128 54.6938C99.7056 54.1891 99.094 53.9371 98.2933 53.9378H94.7797V60.1637ZM91.2002 67.3453H92.8697V53.869H91.2002V52.8477H98.4485C99.8567 52.8477 100.937 53.1999 101.689 53.9043C102.441 54.6088 102.816 55.6425 102.812 57.0055C102.812 58.3548 102.426 59.4001 101.656 60.1412C100.885 60.8822 99.8031 61.2528 98.4092 61.2528H94.7797V67.3413H96.892V68.3646H91.1963L91.2002 67.3453Z" fill="white"/>
<path fill-rule="evenodd" clip-rule="evenodd" d="M113.059 67.4567C113.752 67.4701 114.44 67.3296 115.072 67.0453C115.646 66.7787 116.15 66.383 116.545 65.8894C116.96 65.3645 117.27 64.7643 117.457 64.1217C117.671 63.3926 117.776 62.6357 117.769 61.876V59.3413C117.776 58.5814 117.671 57.8246 117.457 57.0954C117.27 56.453 116.96 55.8529 116.545 55.3277C116.15 54.8341 115.646 54.4385 115.072 54.172C113.786 53.623 112.332 53.623 111.046 54.172C110.472 54.4385 109.968 54.8341 109.573 55.3277C109.157 55.8526 108.848 56.4528 108.66 57.0954C108.446 57.8246 108.342 58.5814 108.349 59.3413V61.876C108.341 62.6357 108.446 63.3926 108.66 64.1217C108.847 64.7645 109.157 65.3647 109.573 65.8894C109.968 66.383 110.472 66.7787 111.046 67.0453C111.678 67.3297 112.366 67.4703 113.059 67.4567ZM113.059 68.6351C112.097 68.647 111.142 68.4576 110.257 68.0794C109.423 67.7168 108.682 67.1695 108.09 66.4786C107.464 65.7374 106.992 64.8797 106.7 63.9549C106.373 62.9729 106.209 61.8575 106.209 60.6091C106.209 59.3606 106.373 58.245 106.7 57.2623C106.993 56.3375 107.465 55.4798 108.09 54.7385C108.682 54.0479 109.423 53.5007 110.257 53.1378C112.052 52.3968 114.067 52.3968 115.861 53.1378C116.695 53.5004 117.437 54.0476 118.029 54.7385C118.654 55.48 119.126 56.3377 119.419 57.2623C119.746 58.2482 119.91 59.3639 119.91 60.6091C119.91 61.8542 119.746 62.9695 119.419 63.9549C119.126 64.8795 118.654 65.7372 118.029 66.4786C117.437 67.1697 116.696 67.7171 115.861 68.0794C114.976 68.4578 114.022 68.6472 113.059 68.6351Z" fill="white"/>
<path fill-rule="evenodd" clip-rule="evenodd" d="M126.607 60.1411H130.098C130.899 60.1411 131.514 59.8927 131.944 59.3958C132.373 58.8989 132.588 58.2874 132.589 57.5613V56.539C132.607 55.8657 132.377 55.2091 131.944 54.6937C131.513 54.1904 130.898 53.9383 130.098 53.9377H126.607V60.1411ZM123.028 67.3452H124.697V53.8691H123.028V52.8477H130.276C131.655 52.8477 132.726 53.1923 133.489 53.8818C134.253 54.5711 134.635 55.5977 134.635 56.9614C134.635 58.0142 134.343 58.8924 133.758 59.5961C133.172 60.2999 132.316 60.756 131.189 60.9642L133.791 65.7888C134.087 66.323 134.421 66.7158 134.791 66.9673C135.162 67.2186 135.62 67.3447 136.166 67.3452H136.363V68.3685H134.94C134.575 68.3771 134.211 68.3321 133.86 68.2351C133.585 68.1528 133.325 68.025 133.093 67.8569C132.861 67.6853 132.662 67.4747 132.503 67.2343C132.332 66.983 132.158 66.694 131.981 66.3672L129.234 61.2342H126.61V67.3483H128.28V68.3716H123.028V67.3452Z" fill="white"/>
<path fill-rule="evenodd" clip-rule="evenodd" d="M141.896 67.3452H144.009V53.9378H140.095V56.5832H138.495V52.8516H151.436V56.5832H149.835V53.9378H145.921V67.3452H148.033V68.3685H141.896V67.3452Z" fill="white"/>
<path fill-rule="evenodd" clip-rule="evenodd" d="M154.906 67.3452H156.576V53.8691H154.906V52.8477H160.154V53.8691H158.485V67.3452H160.154V68.3685H154.906V67.3452Z" fill="white"/>
<path fill-rule="evenodd" clip-rule="evenodd" d="M163.811 67.3452H165.48V53.8691H163.811V52.8477H167.569L175.908 65.2997H175.996V53.8691H174.327V52.8477H178.885V53.8691H177.216V68.3685H175.726L166.79 55.0053H166.701V67.3452H168.371V68.3685H163.811V67.3452Z" fill="white"/>
<path fill-rule="evenodd" clip-rule="evenodd" d="M188.307 68.6349C187.394 68.6474 186.488 68.4575 185.656 68.0792C184.865 67.7112 184.17 67.1674 183.621 66.4892C183.026 65.74 182.581 64.8832 182.309 63.9654C181.984 62.8767 181.826 61.7449 181.842 60.6089C181.842 59.3185 181.998 58.1728 182.309 57.1718C182.579 56.249 183.033 55.3906 183.644 54.648C184.212 53.9738 184.932 53.4443 185.744 53.1033C186.623 52.7442 187.564 52.5665 188.513 52.5809C189.714 52.5809 190.641 52.7474 191.293 53.0806C191.945 53.4139 192.36 53.8103 192.538 54.27H192.649V52.8479H194.244V57.384H192.643V56.2949C192.643 55.4647 192.295 54.8346 191.598 54.4045C190.902 53.9744 189.952 53.7595 188.75 53.7602C187.935 53.7602 187.228 53.8912 186.627 54.153C186.05 54.3957 185.539 54.7732 185.138 55.2539C184.731 55.7542 184.432 56.3333 184.26 56.9548C184.058 57.6747 183.961 58.4198 183.97 59.1673V62.0152C183.961 62.7575 184.07 63.4966 184.292 64.2051C184.483 64.8213 184.797 65.3925 185.215 65.8842C185.613 66.3418 186.106 66.7062 186.661 66.9517C187.249 67.2086 187.885 67.3374 188.526 67.3299C189.061 67.3338 189.592 67.2586 190.105 67.1069C190.564 66.9741 190.994 66.7551 191.372 66.4617C191.727 66.1819 192.012 65.8244 192.206 65.4168C192.415 64.964 192.517 64.4697 192.507 63.9714V61.8982H189.749V60.875H195.864V61.8982H194.441V68.3688H193.708L192.64 66.2083H192.551C192.419 66.5267 192.239 66.8232 192.018 67.0872C191.765 67.3891 191.469 67.6513 191.139 67.865C190.757 68.1107 190.342 68.298 189.905 68.4208C189.386 68.5688 188.848 68.6409 188.307 68.6349Z" fill="white"/>
</svg>
