<svg width="258" height="120" viewBox="0 0 258 120" fill="none" xmlns="http://www.w3.org/2000/svg">
<path fill-rule="evenodd" clip-rule="evenodd" d="M50.2988 82.1043H59.137V73.2661H50.2988V82.1043Z" fill="#494D9F"/>
<path fill-rule="evenodd" clip-rule="evenodd" d="M50.2988 70.3192H59.137V61.481H50.2988V70.3192Z" fill="#494D9F"/>
<path fill-rule="evenodd" clip-rule="evenodd" d="M50.2988 58.5311H59.137V49.6929H50.2988V58.5311Z" fill="#494D9F"/>
<path fill-rule="evenodd" clip-rule="evenodd" d="M50.2988 46.7454H59.137V37.9072H50.2988V46.7454Z" fill="#494D9F"/>
<path fill-rule="evenodd" clip-rule="evenodd" d="M62.082 70.3192H70.9202V61.481H62.082V70.3192Z" fill="#494D9F"/>
<path fill-rule="evenodd" clip-rule="evenodd" d="M62.082 58.5311H70.9202V49.6929H62.082V58.5311Z" fill="#494D9F"/>
<path fill-rule="evenodd" clip-rule="evenodd" d="M23.7847 58.5252H32.6229V49.687H23.7847V58.5252Z" fill="#494D9F"/>
<path fill-rule="evenodd" clip-rule="evenodd" d="M23.7847 70.3118H32.6229V61.4736H23.7847V70.3118Z" fill="#494D9F"/>
<path fill-rule="evenodd" clip-rule="evenodd" d="M12 64.4183H20.8382V55.5801H12V64.4183Z" fill="#494D9F"/>
<path fill-rule="evenodd" clip-rule="evenodd" d="M35.5684 43.7843H47.3526V32H35.5684V43.7843Z" fill="#494D9F"/>
<path fill-rule="evenodd" clip-rule="evenodd" d="M35.5684 58.5147H47.3526V46.7305H35.5684V58.5147Z" fill="#494D9F"/>
<path fill-rule="evenodd" clip-rule="evenodd" d="M35.5684 73.2462H47.3526V61.4619H35.5684V73.2462Z" fill="#494D9F"/>
<path fill-rule="evenodd" clip-rule="evenodd" d="M35.5684 88.0001H47.3526V76.2158H35.5684V88.0001Z" fill="#494D9F"/>
<path fill-rule="evenodd" clip-rule="evenodd" d="M87.6878 50.0085C84.6415 49.1754 83.1768 47.4231 83.1768 44.7268C83.1768 41.3365 85.8483 38.6367 91.163 38.6367C93.9499 38.6367 96.348 39.3838 97.8717 40.1875L96.6309 44.0327C95.0906 43.3257 93.0025 42.773 90.9626 42.773C88.9805 42.773 88.0896 43.4341 88.0896 44.3827C88.0896 45.2442 88.6635 45.5894 89.8702 45.9335L93.3183 46.9658C96.909 48.0264 98.547 49.6668 98.547 52.3666C98.547 56.1305 95.3864 58.7159 90.503 58.7159C87.6006 58.7159 84.757 57.739 83.4926 57.0214L84.5107 53.0972C86.2077 53.7795 88.3995 54.5785 90.5891 54.5785C92.5417 54.5785 93.6058 53.7748 93.6058 52.7118C93.6058 51.8492 92.7432 51.3897 91.3362 50.9878L87.6878 50.0085Z" fill="#494D9F"/>
<path fill-rule="evenodd" clip-rule="evenodd" d="M123.656 46.4745L117.764 53.545H116.931L111.07 46.4745V58.4261H106.239V38.8901H110.405L117.357 47.0496L124.31 38.8901H128.476V58.4261H123.644L123.656 46.4745Z" fill="#494D9F"/>
<path fill-rule="evenodd" clip-rule="evenodd" d="M142.297 51.3015H148.071L145.256 43.6594L142.297 51.3015ZM142.415 38.8901H148.071L155.484 58.4261H150.601L149.287 54.8354H141.099L139.741 58.4261H134.858L142.415 38.8901Z" fill="#494D9F"/>
<path fill-rule="evenodd" clip-rule="evenodd" d="M195.347 43.1136V58.4261H190.515V43.1136H184.505V38.8901H201.168V43.1136H195.347Z" fill="#494D9F"/>
<path fill-rule="evenodd" clip-rule="evenodd" d="M166.805 47.9088V43.0772H171.172C172.752 43.0772 173.758 43.9964 173.758 45.4895C173.758 46.926 172.752 47.9029 171.172 47.9029L166.805 47.9088ZM177.502 54.892L174.085 51.1104C176.818 50.3892 178.761 48.2457 178.761 45.3255C178.761 40.7579 175.055 38.8901 171.263 38.8901H161.984V58.4261H166.815V51.3873L168.888 51.3555L174.878 58.4261H180.336V54.8908L177.502 54.892Z" fill="#494D9F"/>
<path fill-rule="evenodd" clip-rule="evenodd" d="M87.2919 72.1687H91.4812C92.4413 72.1687 93.1793 71.8705 93.6955 71.2742C94.2116 70.678 94.4697 69.9441 94.4697 69.0728V67.8461C94.4916 67.0381 94.2161 66.2502 93.6955 65.6318C93.1793 65.0277 92.4413 64.7252 91.4812 64.7245H87.2919V72.1687ZM82.9966 80.8136H84.9999V64.6422H82.9966V63.4165H91.6945C93.3491 63.4165 94.6344 63.8301 95.5504 64.6575C96.4665 65.4846 96.9244 66.7166 96.9244 68.353C96.9244 69.6163 96.5732 70.6702 95.8709 71.5146C95.1685 72.3592 94.141 72.9065 92.7881 73.1563L95.911 78.9459C96.266 79.5869 96.6663 80.0582 97.1118 80.36C97.5572 80.6616 98.1072 80.8129 98.7616 80.8136H98.9973V82.0415H97.298C96.8604 82.0518 96.4237 81.9978 96.0017 81.8814C95.6716 81.783 95.3605 81.6296 95.0813 81.4276C94.8039 81.2217 94.5646 80.9689 94.3743 80.6804C94.1692 80.3789 93.9603 80.0321 93.7474 79.6399L90.4407 73.4804H87.2919V80.8173H89.2953V82.0452H82.9966V80.8136Z" fill="#494D9F"/>
<path fill-rule="evenodd" clip-rule="evenodd" d="M102.955 80.8136H104.958V64.6422H102.955V63.4165H116.723V67.8945H114.801V64.7247H107.251V71.7952H112.534V69.661H114.134V75.2374H112.534V73.1032H107.251V80.7335H115.069V77.316H116.99V82.0392H102.955V80.8136Z" fill="#494D9F"/>
<path fill-rule="evenodd" clip-rule="evenodd" d="M125.736 72.1962H129.952C130.913 72.1962 131.647 71.8938 132.153 71.2888C132.66 70.6839 132.914 69.9454 132.914 69.0734V67.8466C132.914 66.9761 132.66 66.2381 132.153 65.6324C131.647 65.0267 130.913 64.7243 129.952 64.7251H125.736V72.1962ZM121.44 80.8141H123.444V64.6426H121.44V63.417H130.138C131.828 63.417 133.124 63.8397 134.027 64.685C134.93 65.5304 135.379 66.7708 135.374 68.4064C135.374 70.0256 134.912 71.2799 133.987 72.1693C133.062 73.0584 131.764 73.5031 130.091 73.5031H125.736V80.8094H128.27V82.0373H121.436L121.44 80.8141Z" fill="#494D9F"/>
<path fill-rule="evenodd" clip-rule="evenodd" d="M147.671 80.9472C148.502 80.9634 149.327 80.7948 150.086 80.4536C150.775 80.1337 151.38 79.6589 151.854 79.0665C152.352 78.4366 152.724 77.7164 152.949 76.9453C153.206 76.0703 153.331 75.1621 153.322 74.2504V71.2087C153.331 70.2969 153.205 69.3888 152.949 68.5137C152.724 67.7429 152.352 67.0227 151.854 66.3925C151.38 65.8001 150.775 65.3254 150.086 65.0056C148.543 64.3469 146.798 64.3469 145.255 65.0056C144.566 65.3254 143.961 65.8001 143.487 66.3925C142.989 67.0224 142.617 67.7426 142.392 68.5137C142.135 69.3888 142.01 70.2969 142.019 71.2087V74.2504C142.01 75.1621 142.135 76.0703 142.392 76.9453C142.617 77.7166 142.989 78.4368 143.487 79.0665C143.961 79.6589 144.566 80.1337 145.255 80.4536C146.013 80.7949 146.839 80.9636 147.671 80.9472ZM147.671 82.3613C146.516 82.3756 145.371 82.1484 144.309 81.6945C143.307 81.2594 142.418 80.6027 141.708 79.7735C140.957 78.8842 140.39 77.8549 140.04 76.7451C139.648 75.5666 139.451 74.2282 139.451 72.7302C139.451 71.2319 139.648 69.8932 140.04 68.714C140.391 67.6043 140.957 66.575 141.708 65.6854C142.418 64.8568 143.308 64.2 144.309 63.7646C146.462 62.8753 148.88 62.8753 151.033 63.7646C152.034 64.1997 152.924 64.8564 153.635 65.6854C154.385 66.5753 154.951 67.6045 155.302 68.714C155.695 69.8971 155.891 71.2359 155.891 72.7302C155.891 74.2243 155.695 75.5626 155.302 76.7451C154.952 77.8547 154.385 78.8839 153.635 79.7735C152.924 80.6029 152.035 81.2597 151.033 81.6945C149.971 82.1486 148.826 82.3758 147.671 82.3613Z" fill="#494D9F"/>
<path fill-rule="evenodd" clip-rule="evenodd" d="M163.929 72.1687H168.118C169.079 72.1687 169.817 71.8705 170.332 71.2742C170.848 70.678 171.106 69.9441 171.106 69.0728V67.8461C171.128 67.0381 170.853 66.2502 170.332 65.6318C169.816 65.0277 169.078 64.7252 168.118 64.7245H163.929V72.1687ZM159.633 80.8136H161.637V64.6422H159.633V63.4165H168.331C169.986 63.4165 171.271 63.8301 172.187 64.6575C173.103 65.4846 173.561 66.7166 173.562 68.353C173.562 69.6163 173.211 70.6702 172.509 71.5146C171.806 72.3592 170.779 72.9065 169.427 73.1563L172.549 78.9459C172.905 79.5869 173.305 80.0582 173.75 80.36C174.194 80.6616 174.744 80.8129 175.399 80.8136H175.635V82.0415H173.928C173.49 82.0518 173.053 81.9978 172.631 81.8814C172.301 81.7826 171.99 81.6293 171.711 81.4276C171.434 81.2217 171.194 80.9689 171.004 80.6804C170.799 80.3789 170.59 80.0321 170.377 79.6399L167.081 73.4804H163.932V80.8173H165.936V82.0452H159.633V80.8136Z" fill="#494D9F"/>
<path fill-rule="evenodd" clip-rule="evenodd" d="M182.275 80.8143H184.81V64.7253H180.114V67.8999H178.193V63.4219H193.723V67.8999H191.802V64.7253H187.105V80.8143H189.639V82.0422H182.275V80.8143Z" fill="#494D9F"/>
<path fill-rule="evenodd" clip-rule="evenodd" d="M197.887 80.8136H199.891V64.6422H197.887V63.4165H204.185V64.6422H202.181V80.8136H204.185V82.0415H197.887V80.8136Z" fill="#494D9F"/>
<path fill-rule="evenodd" clip-rule="evenodd" d="M208.573 80.8136H210.577V64.6422H208.573V63.4165H213.083L223.089 78.3589H223.195V64.6422H221.192V63.4165H226.662V64.6422H224.659V82.0415H222.871L212.147 66.0056H212.041V80.8136H214.045V82.0415H208.573V80.8136Z" fill="#494D9F"/>
<path fill-rule="evenodd" clip-rule="evenodd" d="M237.969 82.361C236.872 82.376 235.786 82.1482 234.787 81.6941C233.839 81.2526 233.003 80.5999 232.346 79.7861C231.631 78.8871 231.097 77.8589 230.771 76.7576C230.381 75.4512 230.192 74.093 230.21 72.7298C230.21 71.1814 230.397 69.8065 230.771 68.6053C231.095 67.498 231.64 66.4678 232.373 65.5767C233.054 64.7677 233.918 64.1323 234.893 63.7231C235.947 63.2922 237.077 63.0789 238.215 63.0962C239.657 63.0962 240.769 63.2961 241.551 63.6959C242.334 64.0959 242.832 64.5715 243.046 65.1231H243.179V63.4166H245.093V68.8599H243.172V67.553C243.172 66.5568 242.754 65.8007 241.918 65.2845C241.082 64.7684 239.943 64.5105 238.5 64.5114C237.522 64.5114 236.673 64.6686 235.953 64.9827C235.26 65.2739 234.647 65.7269 234.165 66.3038C233.677 66.9042 233.318 67.5991 233.112 68.3449C232.87 69.2088 232.753 70.1029 232.764 70.9999V74.4173C232.754 75.3081 232.884 76.195 233.15 77.0452C233.38 77.7847 233.757 78.4702 234.258 79.0602C234.735 79.6092 235.328 80.0466 235.993 80.3412C236.699 80.6494 237.462 80.8041 238.232 80.795C238.873 80.7997 239.511 80.7094 240.126 80.5274C240.677 80.368 241.193 80.1052 241.647 79.7531C242.072 79.4174 242.414 78.9885 242.647 78.4993C242.898 77.9559 243.021 77.3628 243.008 76.7648V74.277H239.699V73.0491H247.037V74.277H245.329V82.0416H244.449L243.168 79.4491H243.061C242.903 79.8311 242.687 80.1869 242.421 80.5038C242.118 80.866 241.763 81.1807 241.366 81.4371C240.909 81.7319 240.41 81.9567 239.886 82.1041C239.263 82.2817 238.617 82.3682 237.969 82.361Z" fill="#494D9F"/>
</svg>
