<svg width="258" height="120" viewBox="0 0 258 120" fill="none" xmlns="http://www.w3.org/2000/svg">
<path fill-rule="evenodd" clip-rule="evenodd" d="M7.86133 46.2031V50.1233L11.8581 54.1201V50.2009H13.8347V56.0399L15.86 58.0703L17.8325 56.0905V50.2009H19.7647V54.1987L23.7615 50.2019V46.2031H7.86133Z" fill="#3E62DF"/>
<path fill-rule="evenodd" clip-rule="evenodd" d="M0.162394 38.0714H0L0.00310307 53.8267L27.2149 81.0375V90.4698H4.41877V81.0199L12.645 72.6354L9.56883 72.6871L9.52746 69.5365L0.0279276 79.1984L0.0248246 94.8658H31.6172L31.611 79.2139L4.39705 52.0031V42.396H27.2149V52.0497L23.4292 55.8375L23.4189 55.8271L18.8698 60.3742L18.8656 63.5352L21.9439 63.5279L22.009 63.4627L22.0152 63.4679L31.611 53.8743V38.5368L31.5861 38.0197L0.678538 38L0.162394 38.0714Z" fill="#3E62DF"/>
<path fill-rule="evenodd" clip-rule="evenodd" d="M40.0562 55.9629V59.5004H46.0461V77.6833H49.7698V59.5004H55.7577V55.9629H40.0562Z" fill="#3E62DF"/>
<path fill-rule="evenodd" clip-rule="evenodd" d="M58.0542 58.2287C58.0542 59.593 59.1403 60.6791 60.5056 60.6791C61.871 60.6791 62.9581 59.593 62.9581 58.2287C62.9581 56.8634 61.871 55.7783 60.5056 55.7783C59.1403 55.7783 58.0542 56.8634 58.0542 58.2287ZM58.6438 77.6839H62.3675V62.9764H58.6438V77.6839Z" fill="#3E62DF"/>
<path fill-rule="evenodd" clip-rule="evenodd" d="M79.0618 65.1791C79.0618 65.1791 78.0378 62.6025 74.5003 62.6025C71.4914 62.6025 70.156 65.116 70.156 65.116V62.9759H66.6816V77.6824H70.4043V67.9719C70.4043 67.9719 71.3362 66.079 73.2901 66.079C75.152 66.079 75.9267 67.164 75.9267 69.1821V77.6824H79.6514V67.9719C79.6514 67.9719 80.5813 66.079 82.5363 66.079C84.3981 66.079 85.1728 67.164 85.1728 69.1821V77.6824H88.8986V68.2201C88.8986 64.6826 86.7254 62.6025 83.7464 62.6025C80.302 62.6025 79.0618 65.1791 79.0618 65.1791Z" fill="#3E62DF"/>
<path fill-rule="evenodd" clip-rule="evenodd" d="M91.6304 70.3291C91.6304 74.6424 95.0748 78.0547 99.5411 78.0547C103.111 78.0547 105.438 75.9457 105.438 75.9457L103.576 73.1529C103.576 73.1529 102.118 74.6424 99.5411 74.6424C97.2138 74.6424 95.6944 72.9667 95.4151 71.6634H106.4C106.431 71.1049 106.431 70.5463 106.431 70.2671C106.431 65.7376 103.049 62.6035 99.0146 62.6035C94.7634 62.6035 91.6304 66.0159 91.6304 70.3291ZM99.0146 65.9848C101.466 65.9848 102.644 67.6925 102.708 68.9638H95.4151C95.5392 67.6605 96.6253 65.9848 99.0146 65.9848Z" fill="#3E62DF"/>
<path fill-rule="evenodd" clip-rule="evenodd" d="M109.161 67.1951C109.161 69.9889 111.705 71.2301 114.623 71.8497C116.856 72.3162 117.539 72.5003 117.539 73.4622C117.539 74.3621 116.268 74.7966 114.746 74.7966C112.264 74.7966 110.31 72.6885 110.31 72.6885L108.231 75.3872C108.231 75.3872 110.557 78.0548 114.87 78.0548C118.625 78.0548 121.294 76.0378 121.294 73.5264C121.294 70.4843 119.215 69.5224 116.298 68.9028C113.815 68.3742 112.822 68.1581 112.822 67.2582C112.822 66.3583 114.095 65.8597 115.491 65.8597C117.477 65.8597 119.154 67.1341 119.154 67.1341L121.015 64.4034C121.015 64.4034 118.812 62.6025 115.491 62.6025C111.457 62.6025 109.161 64.8998 109.161 67.1951Z" fill="#3E62DF"/>
<path fill-rule="evenodd" clip-rule="evenodd" d="M124.583 54.2246V77.6838H128.306V68.0033C128.306 68.0033 129.299 66.0783 131.223 66.0783C132.836 66.0783 134.14 66.9772 134.14 69.0883V77.6838H137.863V68.1584C137.863 64.6209 135.32 62.6029 132.465 62.6029C129.611 62.6029 128.306 64.745 128.306 64.745V54.2246H124.583Z" fill="#3E62DF"/>
<path fill-rule="evenodd" clip-rule="evenodd" d="M140.595 70.3291C140.595 74.6424 144.039 78.0547 148.508 78.0547C152.075 78.0547 154.402 75.9457 154.402 75.9457L152.541 73.1529C152.541 73.1529 151.083 74.6424 148.508 74.6424C146.181 74.6424 144.66 72.9667 144.38 71.6634H155.364C155.396 71.1049 155.396 70.5463 155.396 70.2671C155.396 65.7376 152.014 62.6035 147.979 62.6035C143.729 62.6035 140.595 66.0159 140.595 70.3291ZM147.979 65.9848C150.431 65.9848 151.611 67.6925 151.673 68.9638H144.38C144.506 67.6605 145.591 65.9848 147.979 65.9848Z" fill="#3E62DF"/>
<path fill-rule="evenodd" clip-rule="evenodd" d="M157.133 70.3291C157.133 74.6424 160.578 78.0547 165.044 78.0547C168.615 78.0547 170.942 75.9457 170.942 75.9457L169.08 73.1529C169.08 73.1529 167.622 74.6424 165.044 74.6424C162.717 74.6424 161.198 72.9667 160.92 71.6634H171.904C171.935 71.1049 171.935 70.5463 171.935 70.2671C171.935 65.7376 168.553 62.6035 164.519 62.6035C160.267 62.6035 157.133 66.0159 157.133 70.3291ZM164.519 65.9848C166.97 65.9848 168.148 67.6925 168.211 68.9638H160.92C161.044 67.6605 162.129 65.9848 164.519 65.9848Z" fill="#3E62DF"/>
<path fill-rule="evenodd" clip-rule="evenodd" d="M176.372 58.6006V62.9759H173.486V66.3252H176.372V72.8416C176.372 75.9767 178.543 78.0548 181.399 78.0548C183.54 78.0548 184.937 77.0938 184.937 77.0938L183.57 74.0518C183.57 74.0518 182.858 74.5814 182.019 74.5814C181.026 74.5814 180.096 74.0518 180.096 72.2541V66.3252H184.533V62.9759H180.096V58.6006H176.372Z" fill="#3E62DF"/>
<path fill-rule="evenodd" clip-rule="evenodd" d="M187.573 67.1951C187.573 69.9889 190.118 71.2301 193.035 71.8497C195.269 72.3162 195.95 72.5003 195.95 73.4622C195.95 74.3621 194.679 74.7966 193.159 74.7966C190.676 74.7966 188.721 72.6885 188.721 72.6885L186.642 75.3872C186.642 75.3872 188.968 78.0548 193.283 78.0548C197.037 78.0548 199.706 76.0378 199.706 73.5264C199.706 70.4843 197.626 69.5224 194.71 68.9028C192.228 68.3742 191.235 68.1581 191.235 67.2582C191.235 66.3583 192.506 65.8597 193.903 65.8597C195.889 65.8597 197.565 67.1341 197.565 67.1341L199.427 64.4034C199.427 64.4034 197.225 62.6025 193.903 62.6025C189.869 62.6025 187.573 64.8998 187.573 67.1951Z" fill="#3E62DF"/>
<mask id="mask0_1060_47191" style="mask-type:alpha" maskUnits="userSpaceOnUse" x="186" y="62" width="14" height="17">
<path fill-rule="evenodd" clip-rule="evenodd" d="M187.573 67.1951C187.573 69.9889 190.118 71.2301 193.035 71.8497C195.269 72.3162 195.95 72.5003 195.95 73.4622C195.95 74.3621 194.679 74.7966 193.159 74.7966C190.676 74.7966 188.721 72.6885 188.721 72.6885L186.642 75.3872C186.642 75.3872 188.968 78.0548 193.283 78.0548C197.037 78.0548 199.706 76.0378 199.706 73.5264C199.706 70.4843 197.626 69.5224 194.71 68.9028C192.228 68.3742 191.235 68.1581 191.235 67.2582C191.235 66.3583 192.506 65.8597 193.903 65.8597C195.889 65.8597 197.565 67.1341 197.565 67.1341L199.427 64.4034C199.427 64.4034 197.225 62.6025 193.903 62.6025C189.869 62.6025 187.573 64.8998 187.573 67.1951Z" fill="white"/>
</mask>
<g mask="url(#mask0_1060_47191)">
</g>
</svg>
