<svg width="215" height="100" viewBox="0 0 215 100" fill="none" xmlns="http://www.w3.org/2000/svg">
<path fill-rule="evenodd" clip-rule="evenodd" d="M6.55078 38.5025V41.7693L9.88141 45.1V41.834H11.5286V46.6998L13.2163 48.3918L14.8601 46.742V41.834H16.4703V45.1655L19.8009 41.8349V38.5025H6.55078Z" fill="white"/>
<path fill-rule="evenodd" clip-rule="evenodd" d="M0.135328 31.7262H0L0.00258589 44.8556L22.6791 67.5313V75.3915H3.68231V67.5166L10.5375 60.5295L7.97402 60.5726L7.93955 57.9471L0.023273 65.9987L0.0206871 79.0549H26.3476L26.3425 66.0116L3.66421 43.336V35.33H22.6791V43.3747L19.5243 46.5312L19.5157 46.5226L15.7248 50.3118L15.7214 52.946L18.2866 52.9399L18.3409 52.8856L18.346 52.89L26.3425 44.8952V32.114L26.3218 31.6831L0.565448 31.6667L0.135328 31.7262Z" fill="white"/>
<path fill-rule="evenodd" clip-rule="evenodd" d="M33.3799 46.6356V49.5835H38.3715V64.736H41.4746V49.5835H46.4645V46.6356H33.3799Z" fill="white"/>
<path fill-rule="evenodd" clip-rule="evenodd" d="M48.3784 48.5237C48.3784 49.6606 49.2835 50.5657 50.4213 50.5657C51.5591 50.5657 52.465 49.6606 52.465 48.5237C52.465 47.3859 51.5591 46.4817 50.4213 46.4817C49.2835 46.4817 48.3784 47.3859 48.3784 48.5237ZM48.8697 64.7364H51.9728V52.4801H48.8697V64.7364Z" fill="white"/>
<path fill-rule="evenodd" clip-rule="evenodd" d="M65.8852 54.3161C65.8852 54.3161 65.0319 52.1689 62.0839 52.1689C59.5765 52.1689 58.4637 54.2635 58.4637 54.2635V52.4801H55.5684V64.7355H58.6706V56.6434C58.6706 56.6434 59.4472 55.066 61.0754 55.066C62.627 55.066 63.2726 55.9702 63.2726 57.6519V64.7355H66.3765V56.6434C66.3765 56.6434 67.1514 55.066 68.7805 55.066C70.3321 55.066 70.9777 55.9702 70.9777 57.6519V64.7355H74.0825V56.8503C74.0825 53.9024 72.2715 52.1689 69.789 52.1689C66.9187 52.1689 65.8852 54.3161 65.8852 54.3161Z" fill="white"/>
<path fill-rule="evenodd" clip-rule="evenodd" d="M76.3589 58.6078C76.3589 62.2022 79.2292 65.0458 82.9512 65.0458C85.9258 65.0458 87.8652 63.2883 87.8652 63.2883L86.3137 60.961C86.3137 60.961 85.0983 62.2022 82.9512 62.2022C81.0118 62.2022 79.7455 60.8058 79.5128 59.7197H88.6669C88.6927 59.2543 88.6927 58.7888 88.6927 58.5561C88.6927 54.7816 85.8741 52.1698 82.5124 52.1698C78.9698 52.1698 76.3589 55.0134 76.3589 58.6078ZM82.5124 54.9876C84.5553 54.9876 85.5371 56.4107 85.5905 57.47H79.5128C79.6162 56.3839 80.5213 54.9876 82.5124 54.9876Z" fill="white"/>
<path fill-rule="evenodd" clip-rule="evenodd" d="M90.9673 55.9961C90.9673 58.3242 93.0877 59.3586 95.5193 59.8749C97.3803 60.2636 97.9492 60.4171 97.9492 61.2187C97.9492 61.9686 96.8898 62.3306 95.6219 62.3306C93.5532 62.3306 91.9249 60.574 91.9249 60.574L90.1924 62.8228C90.1924 62.8228 92.1309 65.0458 95.7253 65.0458C98.8543 65.0458 101.078 63.365 101.078 61.2721C101.078 58.7371 99.3456 57.9355 96.9148 57.4192C94.8461 56.9787 94.0186 56.7986 94.0186 56.0486C94.0186 55.2987 95.0789 54.8833 96.2425 54.8833C97.8975 54.8833 99.2947 55.9452 99.2947 55.9452L100.845 53.6696C100.845 53.6696 99.0103 52.1689 96.2425 52.1689C92.8808 52.1689 90.9673 54.0834 90.9673 55.9961Z" fill="white"/>
<path fill-rule="evenodd" clip-rule="evenodd" d="M103.819 45.187V64.7363H106.922V56.6692C106.922 56.6692 107.749 55.0651 109.352 55.0651C110.697 55.0651 111.784 55.8142 111.784 57.5734V64.7363H114.886V56.7985C114.886 53.8506 112.767 52.1689 110.387 52.1689C108.009 52.1689 106.922 53.954 106.922 53.954V45.187H103.819Z" fill="white"/>
<path fill-rule="evenodd" clip-rule="evenodd" d="M117.162 58.6078C117.162 62.2022 120.032 65.0458 123.756 65.0458C126.729 65.0458 128.668 63.2883 128.668 63.2883L127.117 60.961C127.117 60.961 125.902 62.2022 123.756 62.2022C121.818 62.2022 120.55 60.8058 120.317 59.7197H129.47C129.497 59.2543 129.497 58.7888 129.497 58.5561C129.497 54.7816 126.678 52.1698 123.316 52.1698C119.774 52.1698 117.162 55.0134 117.162 58.6078ZM123.316 54.9876C125.359 54.9876 126.342 56.4107 126.394 57.47H120.317C120.421 56.3839 121.325 54.9876 123.316 54.9876Z" fill="white"/>
<path fill-rule="evenodd" clip-rule="evenodd" d="M130.944 58.6078C130.944 62.2022 133.815 65.0458 137.537 65.0458C140.512 65.0458 142.452 63.2883 142.452 63.2883L140.9 60.961C140.9 60.961 139.685 62.2022 137.537 62.2022C135.597 62.2022 134.332 60.8058 134.1 59.7197H143.253C143.279 59.2543 143.279 58.7888 143.279 58.5561C143.279 54.7816 140.46 52.1698 137.099 52.1698C133.556 52.1698 130.944 55.0134 130.944 58.6078ZM137.099 54.9876C139.142 54.9876 140.123 56.4107 140.176 57.47H134.1C134.203 56.3839 135.108 54.9876 137.099 54.9876Z" fill="white"/>
<path fill-rule="evenodd" clip-rule="evenodd" d="M146.977 48.834V52.4801H144.572V55.2711H146.977V60.7015C146.977 63.3141 148.786 65.0458 151.166 65.0458C152.95 65.0458 154.114 64.245 154.114 64.245L152.975 61.71C152.975 61.71 152.381 62.1513 151.682 62.1513C150.855 62.1513 150.08 61.71 150.08 60.2119V55.2711H153.778V52.4801H150.08V48.834H146.977Z" fill="white"/>
<path fill-rule="evenodd" clip-rule="evenodd" d="M156.311 55.9961C156.311 58.3242 158.431 59.3586 160.863 59.8749C162.724 60.2636 163.292 60.4171 163.292 61.2187C163.292 61.9686 162.233 62.3306 160.966 62.3306C158.897 62.3306 157.268 60.574 157.268 60.574L155.535 62.8228C155.535 62.8228 157.474 65.0458 161.069 65.0458C164.198 65.0458 166.422 63.365 166.422 61.2721C166.422 58.7371 164.688 57.9355 162.258 57.4192C160.19 56.9787 159.362 56.7986 159.362 56.0486C159.362 55.2987 160.422 54.8833 161.586 54.8833C163.241 54.8833 164.637 55.9452 164.637 55.9452L166.189 53.6696C166.189 53.6696 164.354 52.1689 161.586 52.1689C158.224 52.1689 156.311 54.0834 156.311 55.9961Z" fill="white"/>
<mask id="mask0_1039_19106" style="mask-type:alpha" maskUnits="userSpaceOnUse" x="155" y="52" width="12" height="14">
<path fill-rule="evenodd" clip-rule="evenodd" d="M156.311 55.9961C156.311 58.3242 158.431 59.3586 160.863 59.8749C162.724 60.2636 163.292 60.4171 163.292 61.2187C163.292 61.9686 162.233 62.3306 160.966 62.3306C158.897 62.3306 157.268 60.574 157.268 60.574L155.535 62.8228C155.535 62.8228 157.474 65.0458 161.069 65.0458C164.198 65.0458 166.422 63.365 166.422 61.2721C166.422 58.7371 164.688 57.9355 162.258 57.4192C160.19 56.9787 159.362 56.7986 159.362 56.0486C159.362 55.2987 160.422 54.8833 161.586 54.8833C163.241 54.8833 164.637 55.9452 164.637 55.9452L166.189 53.6696C166.189 53.6696 164.354 52.1689 161.586 52.1689C158.224 52.1689 156.311 54.0834 156.311 55.9961Z" fill="white"/>
</mask>
<g mask="url(#mask0_1039_19106)">
</g>
</svg>
