<svg width="215" height="100" viewBox="0 0 215 100" fill="none" xmlns="http://www.w3.org/2000/svg">
<path fill-rule="evenodd" clip-rule="evenodd" d="M33.5822 61.2663H30.9702V50.7292H34.3284C36.1941 50.7292 36.816 50.9772 37.5623 51.473C38.5573 52.0929 38.9304 53.2085 38.9304 54.3242C38.9304 55.5639 38.3085 57.2994 36.3185 57.6713L39.1792 61.2663H36.0697L33.5822 57.7952V61.2663ZM34.5772 52.9606H33.5822V55.9358H34.5772C36.0697 55.9358 36.3185 54.9441 36.3185 54.4482C36.3185 53.4565 35.5722 52.9606 34.5772 52.9606Z" fill="white"/>
<path fill-rule="evenodd" clip-rule="evenodd" d="M54.4776 53.3324H56.8407V61.2662H54.4776V60.3984C54.1044 61.1422 53.1094 61.5141 52.1144 61.5141C49.6268 61.5141 48.1343 59.5306 48.1343 57.2993C48.1343 54.696 49.9999 53.0845 52.1144 53.0845C53.4825 53.0845 54.2288 53.7043 54.4776 54.2002V53.3324ZM52.4875 55.1919C51.1194 55.1919 50.4975 56.4315 50.4975 57.2993C50.4975 58.0431 50.995 59.2827 52.4875 59.1588C53.98 59.1588 54.4776 57.9191 54.4776 57.1753C54.4776 56.3076 53.8557 55.1919 52.4875 55.1919Z" fill="white"/>
<path fill-rule="evenodd" clip-rule="evenodd" d="M63.5571 50.6052H65.9203V61.1422H63.5571V60.2745C63.4328 60.6464 62.8109 61.3902 61.194 61.3902C58.8308 61.3902 57.2139 59.5307 57.2139 57.1754C57.2139 54.4481 59.2039 52.9606 61.194 52.9606C62.5621 52.9606 63.3084 53.7043 63.5571 53.9523V50.6052ZM61.6915 55.3159C60.3233 55.3159 59.7014 56.4316 59.7014 57.2993C59.7014 58.539 60.5721 59.2828 61.6915 59.4067C63.184 59.4067 63.6815 58.1671 63.6815 57.2993C63.6815 56.3076 63.0596 55.3159 61.6915 55.3159Z" fill="white"/>
<path fill-rule="evenodd" clip-rule="evenodd" d="M43.2834 61.5141C40.2983 61.5141 38.9302 59.2827 38.9302 57.2993C38.9302 55.3158 40.4227 53.0845 43.2834 53.0845C46.2685 53.0845 47.6366 55.3158 47.6366 57.2993C47.6366 59.2827 46.1441 61.5141 43.2834 61.5141ZM43.2834 55.3158C42.2884 55.3158 41.4177 56.1836 41.4177 57.2993C41.4177 58.415 42.2884 59.2827 43.2834 59.2827C44.2784 59.2827 45.1491 58.415 45.1491 57.2993C45.1491 56.1836 44.2784 55.3158 43.2834 55.3158Z" fill="white"/>
<path d="M73.5075 41.8037L72.015 46.3904H71.8906L70.2737 41.8037H67.7861L70.7712 49.3656L69.5274 52.4647H72.015L75.9951 41.8037H73.5075Z" fill="white"/>
<path fill-rule="evenodd" clip-rule="evenodd" d="M64.0549 48.0021C64.8012 48.0021 65.1743 47.6302 65.5474 47.2583V47.3823H67.7862C67.4131 48.25 66.7912 48.8698 66.1693 49.3657C65.5474 49.8616 64.8012 50.1095 63.9305 50.1095C61.6917 50.1095 59.7017 48.25 59.7017 45.8947C59.7017 43.6633 61.443 41.5559 63.9305 41.5559C66.4181 41.5559 68.1594 43.4154 68.1594 45.8947V46.5145H62.1892C62.3136 47.3823 63.0599 48.0021 64.0549 48.0021ZM64.1793 43.5393C62.9355 43.5393 62.438 44.4071 62.3136 44.903H66.0449C65.9206 44.4071 65.4231 43.5393 64.1793 43.5393Z" fill="white"/>
<path fill-rule="evenodd" clip-rule="evenodd" d="M52.9851 49.7376H50.7463H50.4976V38.9526H52.8607V42.2997C53.7314 41.4319 54.8508 41.4319 55.2239 41.4319C56.9652 41.4319 59.204 42.6716 59.204 45.6467C59.204 48.4979 57.214 49.9855 55.2239 49.9855C54.1045 49.9855 53.2339 49.4897 52.9851 48.8698V49.7376ZM55.0995 43.7873C53.8558 43.7873 53.1095 44.779 53.1095 45.7707C53.1095 46.8864 53.8558 47.7541 55.0995 47.7541C56.3433 47.7541 57.0896 46.7624 57.0896 45.7707C57.0896 44.779 56.3433 43.7873 55.0995 43.7873Z" fill="white"/>
<path fill-rule="evenodd" clip-rule="evenodd" d="M43.7812 49.7376H41.5423H41.418V38.9526H43.7812V42.2997C44.6518 41.4319 45.7712 41.4319 46.1443 41.4319C47.8856 41.4319 50.1244 42.6716 50.1244 45.6467C50.1244 48.4979 48.01 49.9855 46.02 49.9855C44.9006 49.9855 44.0299 49.4897 43.7812 48.8698V49.7376ZM45.8956 43.7873C44.6518 43.7873 43.9055 44.779 43.9055 45.7707C43.9055 46.8864 44.6518 47.7541 45.8956 47.7541C47.1394 47.7541 47.8856 46.7624 47.8856 45.7707C47.8856 44.779 47.1394 43.7873 45.8956 43.7873Z" fill="white"/>
<path fill-rule="evenodd" clip-rule="evenodd" d="M35.9453 39.0767L41.4179 49.7376H38.5572L37.811 48.2501H34.0796L33.3334 49.7376H30.4727L35.9453 39.0767ZM36.9403 46.3906H37.0647L35.9453 44.1592L34.9503 46.3906H35.0746H36.9403Z" fill="white"/>
<path d="M0 8.33325V63.7456L27.7363 91.3897V35.9774H83.3333L55.597 8.33325H0Z" fill="white"/>
<path fill-rule="evenodd" clip-rule="evenodd" d="M36.8159 63.4975C37.3135 64.2413 37.4378 64.8611 37.4378 65.481V65.6049H34.9503C34.9503 65.233 34.8259 64.6132 34.0796 64.6132C33.5821 64.6132 33.209 64.8611 33.209 65.357C33.209 65.9768 33.4577 66.1008 35.199 66.8446C37.0647 67.7123 37.5622 68.5801 37.5622 69.6958C37.5622 71.0594 36.6916 72.6709 34.0796 72.6709C31.2189 72.6709 30.4727 70.8115 30.4727 69.5718V69.1999H32.9602C32.9602 70.3156 33.5821 70.5635 33.9552 70.5635C34.5771 70.5635 34.9503 70.0677 34.9503 69.5718C34.9503 68.9001 34.5445 68.7339 33.3665 68.2514C33.2401 68.1997 33.1048 68.1443 32.9602 68.0842C32.3383 67.8363 30.597 67.0925 30.597 65.233C30.597 63.4975 32.4627 62.3818 34.0796 62.3818C35.0746 62.3818 36.1941 62.7537 36.8159 63.4975ZM41.0448 62.6298H38.806V65.1091H37.6866V66.8446H38.806V72.547H41.0448V66.8446H42.1642V65.1091H41.0448V62.6298ZM49.6269 65.1091H47.3881V69.0759C47.3881 70.1916 46.7662 70.5635 46.1443 70.5635C44.9005 70.5635 44.9005 69.5718 44.9005 69.0759V64.9851H42.6617V69.4478C42.6617 70.4396 42.7861 70.9354 43.2836 71.6792C43.9055 72.547 45.0249 72.6709 45.5224 72.6709C46.1443 72.6709 47.0149 72.547 47.5125 71.6792V72.423H49.6269V65.1091Z" fill="white"/>
<path fill-rule="evenodd" clip-rule="evenodd" d="M56.0947 62.6299H58.2091V72.5471H56.0947V71.8033C56.0676 71.8302 56.0376 71.8631 56.0037 71.9002C55.7259 72.2042 55.1861 72.795 53.8559 72.795C51.617 72.795 50.1245 71.0595 50.1245 68.8281C50.1245 66.3488 51.9902 64.8613 53.8559 64.8613C55.224 64.8613 55.8459 65.4811 56.0947 65.729V62.6299ZM54.3534 66.8447C53.1096 66.8447 52.4877 67.8364 52.4877 68.7042C52.4877 69.8198 53.234 70.6876 54.3534 70.5636C55.7215 70.5636 56.219 69.4479 56.219 68.7042C56.219 67.8364 55.5971 66.8447 54.3534 66.8447Z" fill="white"/>
<path fill-rule="evenodd" clip-rule="evenodd" d="M61.1939 62.6299H58.9551V64.3654H61.1939V62.6299ZM65.7959 72.671C63.0596 72.671 61.8158 70.5636 61.8158 68.7042C61.8158 66.9687 63.0596 64.8613 65.7959 64.7373C68.5322 64.7373 69.776 66.8447 69.776 68.7042C69.776 70.5636 68.5322 72.671 65.7959 72.671ZM75.7461 67.0926C75.4974 65.1092 73.8805 64.7373 72.8854 64.7373C71.3929 64.7373 70.0247 65.729 70.0247 67.2166C70.0247 68.2083 70.771 68.8281 71.766 69.2C71.9476 69.2658 72.116 69.3251 72.2715 69.3798C73.2883 69.7375 73.7561 69.9021 73.7561 70.4397C73.7561 70.8116 73.3829 71.0595 73.0098 71.0595C72.8854 71.0595 72.2635 71.0595 72.1392 70.4397H69.9004C70.1491 72.4231 71.766 72.919 72.8854 72.919C74.5023 72.919 75.8705 71.9272 75.8705 70.4397C75.8705 68.8636 74.5619 68.4732 73.3409 68.1089L73.2586 68.0843C72.6367 67.9604 72.1392 67.7124 72.1392 67.3405C72.1392 67.0926 72.2635 66.8447 72.761 66.8447C73.2689 66.8447 73.362 67.0927 73.4469 67.3187C73.4659 67.3695 73.4845 67.4191 73.5073 67.4645H75.7461V67.0926ZM64.0546 68.7042C64.0546 67.5885 64.9252 66.8447 65.7959 66.8447C66.7909 66.8447 67.5372 67.5885 67.5372 68.7042C67.5372 69.8198 66.6665 70.5636 65.7959 70.5636C64.8008 70.6876 64.0546 69.8198 64.0546 68.7042ZM58.9551 65.1092H61.1939V72.5471H58.9551V65.1092Z" fill="white"/>
</svg>
