<svg width="258" height="120" viewBox="0 0 258 120" fill="none" xmlns="http://www.w3.org/2000/svg">
<path fill-rule="evenodd" clip-rule="evenodd" d="M40.2984 73.5197H37.1641V60.8752H41.1939C43.4327 60.8752 44.179 61.1728 45.0745 61.7678C46.2685 62.5116 46.7163 63.8504 46.7163 65.1892C46.7163 66.6768 45.97 68.7594 43.582 69.2057L47.0148 73.5197H43.2835L40.2984 69.3544V73.5197ZM41.4924 63.5529H40.2984V67.1231H41.4924C43.2835 67.1231 43.582 65.933 43.582 65.338C43.582 64.1479 42.6865 63.5529 41.4924 63.5529Z" fill="#231F20"/>
<path fill-rule="evenodd" clip-rule="evenodd" d="M65.3732 63.9991H68.209V73.5196H65.3732V72.4782C64.9254 73.3708 63.7314 73.8171 62.5373 73.8171C59.5523 73.8171 57.7612 71.4369 57.7612 68.7593C57.7612 65.6354 60 63.7015 62.5373 63.7015C64.1791 63.7015 65.0747 64.4453 65.3732 65.0404V63.9991ZM62.9851 66.2304C61.3433 66.2304 60.597 67.718 60.597 68.7593C60.597 69.6519 61.1941 71.1394 62.9851 70.9907C64.7762 70.9907 65.3732 69.5031 65.3732 68.6105C65.3732 67.5692 64.6269 66.2304 62.9851 66.2304Z" fill="#231F20"/>
<path fill-rule="evenodd" clip-rule="evenodd" d="M76.2687 60.7264H79.1045V73.3709H76.2687V72.3296C76.1194 72.7758 75.3732 73.6684 73.4329 73.6684C70.597 73.6684 68.6567 71.437 68.6567 68.6106C68.6567 65.3379 71.0448 63.5528 73.4329 63.5528C75.0746 63.5528 75.9702 64.4454 76.2687 64.7429V60.7264ZM74.0299 66.3792C72.3881 66.3792 71.6418 67.7181 71.6418 68.7594C71.6418 70.2469 72.6866 71.1395 74.0299 71.2882C75.8209 71.2882 76.4179 69.8007 76.4179 68.7594C76.4179 67.5693 75.6717 66.3792 74.0299 66.3792Z" fill="#231F20"/>
<path fill-rule="evenodd" clip-rule="evenodd" d="M51.9402 73.8171C48.3581 73.8171 46.7163 71.1394 46.7163 68.7593C46.7163 66.3792 48.5074 63.7015 51.9402 63.7015C55.5223 63.7015 57.1641 66.3792 57.1641 68.7593C57.1641 71.1394 55.373 73.8171 51.9402 73.8171ZM51.9402 66.3792C50.7462 66.3792 49.7014 67.4205 49.7014 68.7593C49.7014 70.0981 50.7462 71.1394 51.9402 71.1394C53.1342 71.1394 54.179 70.0981 54.179 68.7593C54.179 67.4205 53.1342 66.3792 51.9402 66.3792Z" fill="#231F20"/>
<path d="M88.2089 50.1647L86.4179 55.6687H86.2686L84.3283 50.1647H81.3433L84.9254 59.2389L83.4328 62.9578H86.4179L91.194 50.1647H88.2089Z" fill="#231F20"/>
<path fill-rule="evenodd" clip-rule="evenodd" d="M76.8655 57.6025C77.761 57.6025 78.2088 57.1562 78.6565 56.7099V56.8587H81.3431C80.8953 57.9 80.1491 58.6438 79.4028 59.2388C78.6565 59.8338 77.761 60.1314 76.7162 60.1314C74.0297 60.1314 71.6416 57.9 71.6416 55.0736C71.6416 52.3959 73.7312 49.8671 76.7162 49.8671C79.7013 49.8671 81.7909 52.0984 81.7909 55.0736V55.8174H74.6267C74.7759 56.8587 75.6715 57.6025 76.8655 57.6025ZM77.0147 52.2472C75.5222 52.2472 74.9252 53.2885 74.7759 53.8835H79.2535C79.1043 53.2885 78.5073 52.2472 77.0147 52.2472Z" fill="#231F20"/>
<path fill-rule="evenodd" clip-rule="evenodd" d="M63.5822 59.6851H60.8957H60.5972V46.7432H63.433V50.7596C64.4778 49.7183 65.821 49.7183 66.2688 49.7183C68.3584 49.7183 71.0449 51.2059 71.0449 54.7761C71.0449 58.1975 68.6569 59.9826 66.2688 59.9826C64.9255 59.9826 63.8807 59.3876 63.5822 58.6438V59.6851ZM66.1196 52.5447C64.627 52.5447 63.7315 53.7348 63.7315 54.9248C63.7315 56.2637 64.627 57.305 66.1196 57.305C67.6121 57.305 68.5076 56.1149 68.5076 54.9248C68.5076 53.7348 67.6121 52.5447 66.1196 52.5447Z" fill="#231F20"/>
<path fill-rule="evenodd" clip-rule="evenodd" d="M52.5375 59.6851H49.8509H49.7017V46.7432H52.5375V50.7596C53.5823 49.7183 54.9255 49.7183 55.3733 49.7183C57.4629 49.7183 60.1494 51.2059 60.1494 54.7761C60.1494 58.1975 57.6121 59.9826 55.224 59.9826C53.8808 59.9826 52.836 59.3876 52.5375 58.6438V59.6851ZM55.0748 52.5447C53.5823 52.5447 52.6867 53.7348 52.6867 54.9248C52.6867 56.2637 53.5823 57.305 55.0748 57.305C56.5673 57.305 57.4629 56.1149 57.4629 54.9248C57.4629 53.7348 56.5673 52.5447 55.0748 52.5447Z" fill="#231F20"/>
<path fill-rule="evenodd" clip-rule="evenodd" d="M43.1345 46.892L49.7017 59.6851H46.2689L45.3734 57.9H40.8957L40.0002 59.6851H36.5674L43.1345 46.892ZM44.3286 55.6687H44.4778L43.1345 52.991L41.9405 55.6687H42.0898H44.3286Z" fill="#231F20"/>
<path d="M0 10V76.4948L33.2836 109.668V43.173H100L66.7164 10H0Z" fill="#231F20"/>
<path fill-rule="evenodd" clip-rule="evenodd" d="M44.1793 76.1972C44.7763 77.0898 44.9256 77.8336 44.9256 78.5773V78.7261H41.9405C41.9405 78.2798 41.7913 77.536 40.8957 77.536C40.2987 77.536 39.851 77.8336 39.851 78.4286C39.851 79.1724 40.1495 79.3211 42.239 80.2137C44.4778 81.255 45.0748 82.2963 45.0748 83.6351C45.0748 85.2714 44.0301 87.2053 40.8957 87.2053C37.4629 87.2053 36.5674 84.9739 36.5674 83.4864V83.0401H39.5525C39.5525 84.3789 40.2987 84.6764 40.7465 84.6764C41.4928 84.6764 41.9405 84.0814 41.9405 83.4864C41.9405 82.6803 41.4536 82.4809 40.0399 81.9019C39.8883 81.8398 39.726 81.7733 39.5525 81.7013C38.8062 81.4037 36.7166 80.5112 36.7166 78.2798C36.7166 76.1972 38.9554 74.8584 40.8957 74.8584C42.0898 74.8584 43.4331 75.3047 44.1793 76.1972ZM49.254 75.1559H46.5674V78.1311H45.2241V80.2137H46.5674V87.0565H49.254V80.2137H50.5972V78.1311H49.254V75.1559ZM59.5525 78.1311H56.8659V82.8913C56.8659 84.2301 56.1196 84.6764 55.3734 84.6764C53.8808 84.6764 53.8808 83.4864 53.8808 82.8913V77.9823H51.1942V83.3376C51.1942 84.5277 51.3435 85.1227 51.9405 86.0152C52.6868 87.0565 54.0301 87.2053 54.6271 87.2053C55.3734 87.2053 56.4181 87.0565 57.0151 86.0152V86.9078H59.5525V78.1311Z" fill="#CD2037"/>
<path fill-rule="evenodd" clip-rule="evenodd" d="M67.3136 75.156H69.8509V87.0566H67.3136V86.1641C67.2811 86.1964 67.2451 86.2358 67.2045 86.2803C66.8711 86.6452 66.2233 87.3541 64.627 87.3541C61.9405 87.3541 60.1494 85.2715 60.1494 82.5939C60.1494 79.6187 62.3882 77.8336 64.627 77.8336C66.2688 77.8336 67.0151 78.5774 67.3136 78.875V75.156ZM65.224 80.2138C63.7315 80.2138 62.9852 81.4038 62.9852 82.4451C62.9852 83.784 63.8808 84.8253 65.224 84.6765C66.8658 84.6765 67.4628 83.3377 67.4628 82.4451C67.4628 81.4038 66.7166 80.2138 65.224 80.2138Z" fill="#CD2037"/>
<path fill-rule="evenodd" clip-rule="evenodd" d="M73.4327 75.156H70.7461V77.2386H73.4327V75.156ZM78.9551 87.2054C75.6715 87.2054 74.1789 84.6765 74.1789 82.4451C74.1789 80.3625 75.6715 77.8336 78.9551 77.6849C82.2386 77.6849 83.7312 80.2138 83.7312 82.4451C83.7312 84.6765 82.2386 87.2054 78.9551 87.2054ZM90.8953 80.5113C90.5968 78.1312 88.6565 77.6849 87.4625 77.6849C85.6715 77.6849 84.0297 78.875 84.0297 80.66C84.0297 81.8501 84.9252 82.5939 86.1192 83.0402C86.3371 83.1191 86.5391 83.1902 86.7258 83.2559L86.7258 83.2559C87.9459 83.6852 88.5073 83.8827 88.5073 84.5278C88.5073 84.974 88.0595 85.2715 87.6118 85.2715C87.4625 85.2715 86.7162 85.2715 86.567 84.5278H83.8804C84.1789 86.9079 86.1192 87.5029 87.4625 87.5029C89.4028 87.5029 91.0446 86.3128 91.0446 84.5278C91.0446 82.6365 89.4743 82.168 88.0091 81.7309L87.9103 81.7014C87.164 81.5526 86.567 81.2551 86.567 80.8088C86.567 80.5113 86.7162 80.2138 87.3133 80.2138C87.9227 80.2138 88.0345 80.5114 88.1362 80.7826L88.1362 80.7827L88.1363 80.7827C88.1591 80.8435 88.1814 80.903 88.2088 80.9576H90.8953V80.5113ZM76.8655 82.4451C76.8655 81.1063 77.9103 80.2138 78.955 80.2138C80.1491 80.2138 81.0446 81.1063 81.0446 82.4451C81.0446 83.784 79.9998 84.6765 78.955 84.6765C77.761 84.8253 76.8655 83.784 76.8655 82.4451ZM70.7461 78.1312H73.4327V87.0566H70.7461V78.1312Z" fill="#CD2037"/>
</svg>
