<svg width="215" height="100" viewBox="0 0 215 100" fill="none" xmlns="http://www.w3.org/2000/svg">
<path fill-rule="evenodd" clip-rule="evenodd" d="M37.5962 59.5183V59.0895C37.5962 55.0257 37.5961 50.962 37.5963 46.8982C37.5963 46.3655 37.629 46.3325 38.1546 46.3323C39.6241 46.3319 41.0935 46.3276 42.5628 46.3366C42.8057 46.3381 42.8929 46.2645 42.8789 46.0185C42.8602 45.6887 42.8765 45.3569 42.8739 45.026C42.8657 43.9935 42.1074 43.2084 41.0796 43.2061C37.5819 43.1986 34.0844 43.1991 30.5868 43.2059C29.5718 43.2079 28.8062 43.9794 28.7839 44.9919C28.7767 45.3226 28.7991 45.6547 28.7774 45.9842C28.7596 46.2539 28.8438 46.3408 29.1217 46.3382C30.529 46.3251 31.9363 46.3322 33.3437 46.3323C34.03 46.3323 34.0301 46.3323 34.0301 47.0073C34.0301 51.04 34.03 55.0728 34.0302 59.1056C34.0302 59.5173 34.031 59.5179 34.4285 59.5182C35.1218 59.5187 35.8152 59.5183 36.5084 59.5183H37.5962ZM30.9249 79.3778C31.0297 79.4664 31.0971 79.5396 31.1786 79.5899C32.1361 80.1808 33.0572 80.8458 34.0614 81.343C38.3967 83.4899 42.9577 84.0289 47.6952 83.0931C49.752 82.6868 51.6876 81.9636 53.4157 80.7515C54.462 80.0175 55.3538 79.1347 55.91 77.9626C56.7128 76.271 57.342 74.5141 57.8477 72.7124C57.8698 72.6335 57.8746 72.5497 57.8955 72.4167C57.7858 72.4831 57.7326 72.5125 57.6822 72.546C52.0329 76.2918 45.7545 78.2353 39.0744 79.0161C36.6587 79.2985 34.2317 79.3962 31.8 79.3779C31.5263 79.3759 31.2525 79.3778 30.9249 79.3778ZM52.291 51.3467C52.3205 51.9877 52.2977 52.5996 52.3892 53.1939C52.4957 53.8844 52.924 54.2844 53.6236 54.3438C54.4353 54.4128 55.2547 54.392 56.0706 54.4094C56.1771 54.4117 56.2836 54.4097 56.4254 54.4097C56.3749 54.4988 56.3588 54.5365 56.3346 54.5682C55.0153 56.2946 52.5413 56.8877 50.5825 55.9477C48.004 54.7103 46.9665 51.5555 48.3135 48.9753C49.1221 47.4264 50.3818 46.4944 52.1655 46.4015C53.6068 46.3264 54.7749 46.9202 55.7153 47.9876C56.3647 48.7247 57.1852 48.8985 58.0586 48.4638C58.5119 48.2383 58.9613 48.0053 59.4107 47.7724C59.4797 47.7368 59.5396 47.6837 59.6047 47.6377C59.5729 47.5673 59.5557 47.5184 59.5303 47.4744C58.0329 44.8897 55.8153 43.418 52.8163 43.2237C50.3431 43.0634 48.2174 43.906 46.4854 45.6659C43.5396 48.6591 43.5358 53.2223 45.694 56.3308C48.2807 60.0567 53.0959 60.5582 56.26 57.6779C56.3025 57.6391 56.3519 57.6079 56.4465 57.5367C56.4465 58.1346 56.4556 58.6785 56.4423 59.2219C56.4367 59.4517 56.5112 59.5262 56.7439 59.523C57.6129 59.5111 58.4822 59.5189 59.3514 59.517C59.4304 59.5168 59.5092 59.4996 59.6031 59.4886C59.609 59.3695 59.6183 59.2681 59.6184 59.1666C59.6193 57.14 59.6216 55.1133 59.6181 53.0866C59.6161 51.9427 59.0156 51.3479 57.871 51.347C56.1429 51.3456 54.4148 51.3467 52.6867 51.3467H52.291ZM42.3403 24.5529C42.2304 24.4583 42.1712 24.4025 42.1071 24.3529C40.3349 22.9816 38.4503 21.7938 36.3982 20.884C36.1986 20.7955 35.9612 20.7402 35.7451 20.7503C35.106 20.7805 34.4636 20.8159 33.8321 20.9123C31.1854 21.3163 28.7731 22.3309 26.5358 23.7796C23.2891 25.8819 20.6888 28.6331 18.562 31.8353C14.2921 38.2642 12.2933 45.4065 11.9914 53.0639C11.9104 55.1204 12.0005 57.1738 12.2116 59.2232C12.4128 61.1765 12.7349 63.1079 13.1721 65.0206C13.2094 65.1839 13.3221 65.3658 13.4551 65.4653C14.0919 65.9418 14.747 66.3942 15.3977 66.8521C15.5102 66.9313 15.6327 66.9966 15.7868 67.0902C15.7813 66.9906 15.7864 66.9488 15.7757 66.9114C15.1128 64.577 14.7668 62.1945 14.6451 59.7729C14.5216 57.314 14.7168 54.8826 15.2021 52.4729C15.9095 48.9594 17.2301 45.6782 18.9977 42.5708C20.0873 40.6555 21.2473 38.7801 22.677 37.0988C24.2333 35.2685 25.9781 33.6203 27.8365 32.0953C31.6212 28.9895 35.7943 26.5836 40.4784 25.1018C41.0754 24.9129 41.6797 24.747 42.3403 24.5529ZM37.3808 15H39.9887C40.0977 15.0215 40.2059 15.057 40.3158 15.0625C41.9919 15.1472 43.6436 15.3994 45.2736 15.7929C50.282 17.0021 54.6804 19.3945 58.6117 22.6845C58.9268 22.9482 59.2199 23.1992 59.6702 23.1576C59.818 23.1439 59.974 23.2074 60.1249 23.2412C61.6202 23.5759 62.9099 24.3265 64.1037 25.2498C66.8212 27.3517 68.8245 30.0352 70.3732 33.0714C71.9571 36.1765 72.9059 39.47 73.2099 42.9457C73.2418 43.3109 73.2917 43.6746 73.3333 44.039V46.645C73.3128 46.7212 73.2826 46.7961 73.2734 46.8735C73.145 47.9593 73.0265 49.0464 72.8901 50.1312C72.8273 50.6309 72.6564 51.1271 72.6621 51.6235C72.6896 54.0472 72.538 56.455 72.1247 58.8436C71.4527 62.7267 70.2227 66.4238 68.3743 69.908C65.6742 74.9977 62.0011 79.2168 57.1536 82.3796C55.216 83.6438 53.1537 84.6715 50.9783 85.4399C49.2126 86.0636 47.3666 86.3891 45.4956 86.5442C45.1287 86.5746 44.7635 86.6253 44.3974 86.6667H41.9136C41.8051 86.6448 41.6973 86.6089 41.5879 86.6032C39.8696 86.5135 38.1792 86.2416 36.5159 85.8092C31.1577 84.4167 26.5641 81.6901 22.6158 77.8393C22.4952 77.7215 22.3381 77.6218 22.1796 77.5651C20.5533 76.9835 18.9727 76.2984 17.4469 75.4893C13.0284 73.1462 9.17629 70.1093 6.23246 66.0401C2.77586 61.262 0.649382 55.949 0.122574 50.0397C0.0879876 49.6522 0.0411064 49.2658 0 48.8788V46.2727C0.0222297 46.154 0.0511036 46.0361 0.0656957 45.9164C0.220559 44.6465 0.300226 43.3624 0.539289 42.1086C1.50399 37.0478 3.63705 32.506 6.76852 28.4246C7.06558 28.0374 7.37997 27.6634 7.68622 27.2832C7.42492 27.7567 7.11954 28.1956 6.83403 28.6472C3.4666 33.972 2.10313 39.774 2.73606 46.0361C3.01269 48.7737 3.70703 51.4132 4.76654 53.9546C6.41397 57.9065 8.79758 61.3433 11.9686 64.2285C12.0597 64.3114 12.1579 64.3865 12.2528 64.4653C12.2511 64.285 12.2012 64.1522 12.1485 64.0205C9.9123 58.4315 8.62527 52.6591 8.74902 46.6084C8.7874 44.7348 8.95381 42.8749 9.28135 41.0319C10.1438 36.1786 11.9168 31.6878 14.7099 27.6148C16.8847 24.4434 19.4734 21.6628 22.7793 19.6569C26.93 17.1385 31.4146 15.5365 36.286 15.1227C36.6518 15.0916 37.0159 15.0414 37.3808 15Z" fill="white"/>
</svg>
