<svg width="258" height="120" viewBox="0 0 258 120" fill="none" xmlns="http://www.w3.org/2000/svg">
<path fill-rule="evenodd" clip-rule="evenodd" d="M45.1154 71.422V70.9074C45.1154 66.0309 45.1153 61.1544 45.1155 56.2778C45.1155 55.6386 45.1548 55.599 45.7856 55.5988C47.5489 55.5983 49.3122 55.5931 51.0754 55.604C51.3669 55.6057 51.4715 55.5174 51.4547 55.2222C51.4322 54.8264 51.4518 54.4283 51.4486 54.0312C51.4388 52.7922 50.5289 51.85 49.2955 51.8473C45.0983 51.8383 40.9012 51.8389 36.7041 51.8471C35.4861 51.8495 34.5674 52.7753 34.5407 53.9903C34.532 54.3872 34.5589 54.7857 34.5329 55.181C34.5115 55.5046 34.6125 55.609 34.9461 55.6058C36.6348 55.5901 38.3236 55.5987 40.0124 55.5988C40.8359 55.5988 40.8361 55.5988 40.8361 56.4087C40.8362 61.248 40.836 66.0873 40.8362 70.9267C40.8362 71.4208 40.8372 71.4215 41.3142 71.4218C42.1462 71.4224 42.9782 71.4219 43.8101 71.422H45.1154ZM37.1098 95.2533C37.2356 95.3596 37.3165 95.4475 37.4144 95.5079C38.5634 96.217 39.6687 97.0149 40.8737 97.6116C46.0761 100.188 51.5492 100.835 57.2342 99.7117C59.7024 99.2241 62.0252 98.3563 64.0988 96.9018C65.3544 96.0211 66.4246 94.9617 67.0921 93.5551C68.0554 91.5252 68.8104 89.4169 69.4173 87.2549C69.4438 87.1602 69.4495 87.0596 69.4746 86.9001C69.343 86.9797 69.2792 87.015 69.2187 87.0552C62.4395 91.5501 54.9054 93.8823 46.8892 94.8194C43.9905 95.1582 41.078 95.2754 38.16 95.2535C37.8315 95.2511 37.503 95.2533 37.1098 95.2533ZM62.7492 61.616C62.7846 62.3852 62.7572 63.1195 62.8671 63.8326C62.9949 64.6613 63.5088 65.1413 64.3483 65.2125C65.3224 65.2953 66.3056 65.2704 67.2848 65.2913C67.4125 65.294 67.5403 65.2917 67.7105 65.2917C67.6499 65.3985 67.6306 65.4439 67.6015 65.4818C66.0183 67.5536 63.0495 68.2653 60.699 67.1372C57.6048 65.6523 56.3598 61.8666 57.9762 58.7704C58.9465 56.9117 60.4582 55.7932 62.5985 55.6818C64.3281 55.5917 65.7299 56.3043 66.8584 57.5852C67.6376 58.4697 68.6223 58.6782 69.6704 58.1566C70.2142 57.886 70.7536 57.6064 71.2929 57.3269C71.3757 57.2841 71.4475 57.2204 71.5257 57.1653C71.4875 57.0807 71.4669 57.0221 71.4364 56.9693C69.6395 53.8676 66.9784 52.1016 63.3796 51.8684C60.4117 51.676 57.8609 52.6873 55.7825 54.7991C52.2476 58.391 52.2429 63.8667 54.8328 67.597C57.9369 72.0681 63.7151 72.6699 67.5119 69.2135C67.563 69.167 67.6223 69.1295 67.7359 69.044C67.7359 69.7615 67.7467 70.4142 67.7308 71.0662C67.724 71.342 67.8134 71.4315 68.0926 71.4276C69.1355 71.4133 70.1787 71.4227 71.2217 71.4204C71.3164 71.4202 71.4111 71.3995 71.5237 71.3863C71.5308 71.2434 71.542 71.1217 71.5421 71C71.5431 68.568 71.5459 66.136 71.5417 63.704C71.5393 62.3313 70.8188 61.6175 69.4452 61.6164C67.3715 61.6147 65.2977 61.616 63.224 61.616H62.7492ZM50.8083 29.4635C50.6765 29.35 50.6054 29.283 50.5285 29.2235C48.4019 27.5779 46.1403 26.1526 43.6779 25.0608C43.4383 24.9546 43.1534 24.8882 42.8941 24.9004C42.1272 24.9366 41.3563 24.979 40.5985 25.0947C37.4224 25.5796 34.5277 26.7971 31.843 28.5355C27.9469 31.0583 24.8266 34.3597 22.2744 38.2024C17.1505 45.9171 14.752 54.4878 14.3897 63.6767C14.2924 66.1445 14.4006 68.6086 14.6539 71.0678C14.8954 73.4118 15.2819 75.7295 15.8065 78.0247C15.8513 78.2207 15.9865 78.439 16.1461 78.5584C16.9103 79.1302 17.6964 79.673 18.4772 80.2225C18.6123 80.3176 18.7592 80.3959 18.9442 80.5083C18.9375 80.3887 18.9436 80.3385 18.9309 80.2936C18.1353 77.4924 17.7201 74.6334 17.5741 71.7275C17.4259 68.7768 17.6602 65.8591 18.2425 62.9674C19.0914 58.7513 20.6761 54.8138 22.7973 51.0849C24.1048 48.7866 25.4968 46.5361 27.2123 44.5186C29.08 42.3222 31.1737 40.3444 33.4038 38.5143C37.9454 34.7873 42.9532 31.9003 48.5741 30.1221C49.2904 29.8955 50.0156 29.6964 50.8083 29.4635ZM44.8569 18H47.9865C48.1172 18.0258 48.2471 18.0684 48.3789 18.0751C50.3903 18.1766 52.3724 18.4793 54.3283 18.9515C60.3383 20.4025 65.6165 23.2734 70.334 27.2214C70.7122 27.5378 71.0639 27.839 71.6043 27.7891C71.7816 27.7727 71.9688 27.8489 72.1499 27.8894C73.9443 28.291 75.4919 29.1918 76.9244 30.2998C80.1854 32.8221 82.5894 36.0423 84.4478 39.6856C86.3485 43.4118 87.4871 47.364 87.8519 51.5349C87.8902 51.9731 87.9501 52.4095 88 52.8468V55.974C87.9754 56.0654 87.9391 56.1553 87.9281 56.2483C87.774 57.5512 87.6318 58.8557 87.4681 60.1575C87.3927 60.7571 87.1877 61.3526 87.1945 61.9482C87.2275 64.8566 87.0456 67.746 86.5496 70.6123C85.7432 75.2721 84.2673 79.7086 82.0492 83.8896C78.809 89.9973 74.4013 95.0602 68.5843 98.8555C66.2592 100.373 63.7844 101.606 61.174 102.528C59.0551 103.276 56.8399 103.667 54.5947 103.853C54.1544 103.89 53.7161 103.95 53.2769 104H50.2964C50.1661 103.974 50.0368 103.931 49.9055 103.924C47.8435 103.816 45.8151 103.49 43.8191 102.971C37.3893 101.3 31.8769 98.0282 27.1389 93.4071C26.9942 93.2659 26.8057 93.1462 26.6156 93.0781C24.6639 92.3802 22.7672 91.5581 20.9363 90.5871C15.6341 87.7755 11.0115 84.1312 7.47896 79.2481C3.33103 73.5145 0.779258 67.1388 0.147089 60.0477C0.105585 59.5826 0.0493277 59.1189 0 58.6545V55.5273C0.0266757 55.3848 0.0613243 55.2433 0.0788349 55.0997C0.264671 53.5758 0.360271 52.0349 0.647146 50.5303C1.80478 44.4574 4.36446 39.0072 8.12223 34.1096C8.4787 33.6449 8.85596 33.1961 9.22346 32.7399C8.90991 33.308 8.54345 33.8347 8.20084 34.3766C4.15992 40.7664 2.52376 47.7287 3.28327 55.2434C3.61523 58.5284 4.44843 61.6958 5.71985 64.7456C7.69676 69.4878 10.5571 73.6119 14.3623 77.0743C14.4716 77.1737 14.5895 77.2638 14.7034 77.3583C14.7014 77.142 14.6414 76.9827 14.5782 76.8246C11.8948 70.1178 10.3503 63.1909 10.4988 55.9301C10.5449 53.6817 10.7446 51.4499 11.1376 49.2383C12.1726 43.4144 14.3002 38.0253 17.6519 33.1377C20.2616 29.332 23.3681 25.9954 27.3351 23.5883C32.316 20.5662 37.6975 18.6438 43.5432 18.1472C43.9822 18.11 44.4191 18.0497 44.8569 18Z" fill="#0C4A85"/>
</svg>
