<svg width="258" height="120" viewBox="0 0 258 120" fill="none" xmlns="http://www.w3.org/2000/svg">
<path fill-rule="evenodd" clip-rule="evenodd" d="M109.084 74.6516C109.222 74.5434 109.329 74.4035 109.397 74.2443C109.471 74.024 109.503 73.7925 109.493 73.561V54.4773H115.18C115.525 54.4866 115.87 54.4468 116.203 54.3583C116.468 54.2721 116.687 54.0847 116.81 53.8381C117.014 53.4037 117.148 52.9407 117.206 52.4657C117.288 52.0019 117.335 51.5327 117.347 51.0616C117.354 50.8359 117.329 50.6098 117.27 50.3915C117.22 50.2307 117.114 50.0931 116.97 50.0027C116.847 49.9339 116.713 49.8871 116.573 49.8647C116.326 49.8299 116.076 49.8152 115.826 49.821H98.1181C97.7733 49.8117 97.4288 49.8519 97.0958 49.9401C96.8188 50.0197 96.5875 50.2079 96.4567 50.4603C96.2596 50.8379 96.1256 51.244 96.0606 51.6638C95.9664 52.1743 95.9191 52.6926 95.9199 53.2116C95.9211 53.4474 95.9574 53.682 96.0287 53.9073C96.0791 54.0708 96.1911 54.2095 96.3416 54.2957C96.6998 54.4476 97.0903 54.5098 97.4793 54.4773H103.812V73.5486C103.76 73.961 103.921 74.3718 104.24 74.6454C104.585 74.9044 105.399 75.0339 106.681 75.0339C107.964 75.0339 108.762 74.9086 109.078 74.6578L109.084 74.6516ZM136.958 74.7768C138.145 74.3989 139.235 73.7747 140.154 72.9469C140.988 72.1894 141.628 71.2487 142.02 70.2017C142.42 69.0848 142.619 67.9075 142.607 66.7234V51.1996C142.658 50.7934 142.511 50.388 142.211 50.1028C141.837 49.8438 141.036 49.7144 139.809 49.7144C138.582 49.7144 137.768 49.8438 137.367 50.1028C137.22 50.1971 137.104 50.3323 137.035 50.4916C136.95 50.7184 136.907 50.958 136.908 51.1996V66.6546C136.903 67.2946 136.793 67.9296 136.582 68.5348C136.325 69.2208 135.817 69.7882 135.157 70.1267C134.26 70.5824 133.257 70.7984 132.249 70.7536C131.526 70.7687 130.805 70.6689 130.115 70.4587C129.575 70.2925 129.081 70.0073 128.67 69.6254C128.291 69.2622 128.006 68.815 127.84 68.3218C127.66 67.7819 127.571 67.2165 127.577 66.6484V51.1996C127.628 50.7934 127.481 50.388 127.181 50.1028C126.807 49.8438 126.006 49.7144 124.779 49.7144C123.552 49.7144 122.738 49.8438 122.337 50.1028C122.19 50.1971 122.074 50.3323 122.005 50.4916C121.938 50.7215 121.911 50.9611 121.928 51.1996V66.7172C121.917 67.9014 122.116 69.0786 122.516 70.1955C122.897 71.2487 123.528 72.1982 124.357 72.9658C125.278 73.7844 126.368 74.4 127.552 74.7707C130.619 75.648 133.878 75.648 136.946 74.7707L136.958 74.7768ZM153.97 74.6516C154.109 74.5426 154.221 74.4031 154.296 74.2443C154.375 74.0251 154.409 73.7932 154.398 73.561V51.1996C154.409 50.9635 154.374 50.7277 154.296 50.5043C154.224 50.3486 154.111 50.2148 153.97 50.1155C153.625 49.8566 152.824 49.7271 151.567 49.7271C150.31 49.7271 149.496 49.8566 149.126 50.1155C148.984 50.2148 148.872 50.3486 148.8 50.5043C148.728 50.7289 148.7 50.9646 148.717 51.1996V73.5737C148.676 73.9753 148.821 74.3734 149.113 74.6578C149.458 74.9171 150.272 75.0462 151.554 75.0462C152.836 75.0462 153.642 74.9148 153.97 74.6516Z" fill="#DB2128"/>
<path fill-rule="evenodd" clip-rule="evenodd" d="M5.2689 37.826H25.1665C27.1316 37.826 28.586 38.4539 29.1599 41.1593C29.798 44.1911 29.5557 46.3004 26.0725 46.5388L19.8205 46.9782C24.4265 75.5393 51.2842 84.8548 65.9122 54.0775C68.3363 48.9868 69.1019 48.0578 71.7751 48.7046C75.3665 49.5833 75.8578 51.4162 74.1355 56.5321C61.5104 94.4715 19.0101 98.2755 10.6723 47.6246L5.61352 47.9827C1.48592 48.2711 1.31991 44.8437 1.31991 42.9609C1.30732 39.1755 2.72987 37.826 5.2689 37.826Z" fill="#DB2128"/>
<path fill-rule="evenodd" clip-rule="evenodd" d="M77.8601 18.8572C82.1348 18.8572 85.6001 22.311 85.6001 26.5715C85.6001 30.8319 82.1348 34.2857 77.8601 34.2857C73.5855 34.2857 70.1201 30.8319 70.1201 26.5715C70.1201 22.311 73.5855 18.8572 77.8601 18.8572Z" fill="#DB2128"/>
</svg>
