<svg width="215" height="100" viewBox="0 0 215 100" fill="none" xmlns="http://www.w3.org/2000/svg">
<path fill-rule="evenodd" clip-rule="evenodd" d="M90.9036 62.2088C91.0183 62.1186 91.1079 62.002 91.1644 61.8693C91.2258 61.6858 91.2527 61.4928 91.2445 61.2999V45.3969H95.9839C96.2713 45.4046 96.5583 45.3714 96.8361 45.2977C97.0571 45.2259 97.2394 45.0697 97.3418 44.8642C97.5123 44.5022 97.6236 44.1164 97.6722 43.7205C97.7405 43.334 97.7796 42.9431 97.7891 42.5505C97.7957 42.3624 97.7743 42.174 97.7254 41.992C97.684 41.858 97.595 41.7434 97.4752 41.668C97.373 41.6107 97.261 41.5717 97.1448 41.553C96.9386 41.524 96.7304 41.5118 96.5218 41.5166H81.7654C81.478 41.5089 81.191 41.5424 80.9135 41.6158C80.6827 41.6822 80.4899 41.839 80.3809 42.0493C80.2167 42.364 80.105 42.7025 80.0508 43.0522C79.9724 43.4777 79.9329 43.9096 79.9336 44.3421C79.9346 44.5386 79.9648 44.7341 80.0242 44.9218C80.0663 45.0581 80.1595 45.1737 80.285 45.2455C80.5835 45.3721 80.9089 45.4239 81.2331 45.3969H86.5104V61.2896C86.4674 61.6333 86.601 61.9756 86.867 62.2036C87.1547 62.4194 87.8328 62.5273 88.9014 62.5273C89.97 62.5273 90.6357 62.423 90.8984 62.2139L90.9036 62.2088ZM114.132 62.3131C115.121 61.9982 116.029 61.478 116.795 60.7882C117.491 60.1569 118.024 59.373 118.35 58.5005C118.684 57.5697 118.849 56.5887 118.84 55.6019V42.6654C118.882 42.3269 118.759 41.9891 118.51 41.7514C118.198 41.5356 117.53 41.4277 116.508 41.4277C115.485 41.4277 114.807 41.5356 114.473 41.7514C114.35 41.83 114.254 41.9427 114.196 42.0754C114.125 42.2645 114.089 42.4641 114.09 42.6654V55.5446C114.086 56.0779 113.995 56.6071 113.818 57.1114C113.604 57.6831 113.181 58.1559 112.631 58.438C111.884 58.8177 111.048 58.9978 110.208 58.9604C109.605 58.973 109.005 58.8899 108.429 58.7147C107.979 58.5762 107.568 58.3385 107.226 58.0203C106.91 57.7176 106.672 57.3449 106.533 56.934C106.384 56.484 106.31 56.0129 106.315 55.5394V42.6654C106.357 42.3269 106.234 41.9891 105.985 41.7514C105.673 41.5356 105.005 41.4277 103.983 41.4277C102.96 41.4277 102.282 41.5356 101.948 41.7514C101.825 41.83 101.729 41.9427 101.671 42.0754C101.615 42.267 101.593 42.4667 101.607 42.6654V55.5968C101.598 56.5836 101.764 57.5646 102.097 58.4954C102.415 59.373 102.941 60.1643 103.631 60.8039C104.399 61.4861 105.307 61.9991 106.294 62.308C108.85 63.0391 111.566 63.0391 114.122 62.308L114.132 62.3131ZM128.309 62.2088C128.425 62.118 128.518 62.0017 128.58 61.8693C128.646 61.6867 128.675 61.4935 128.665 61.2999V42.6654C128.674 42.4687 128.645 42.2722 128.58 42.086C128.52 41.9562 128.426 41.8448 128.309 41.762C128.021 41.5463 127.354 41.4384 126.306 41.4384C125.259 41.4384 124.581 41.5463 124.272 41.762C124.154 41.8448 124.06 41.9562 124 42.086C123.941 42.2732 123.917 42.4696 123.931 42.6654V61.3105C123.897 61.6452 124.018 61.9769 124.261 62.2139C124.549 62.43 125.227 62.5376 126.295 62.5376C127.364 62.5376 128.035 62.4281 128.309 62.2088Z" fill="white"/>
<path fill-rule="evenodd" clip-rule="evenodd" d="M4.39099 31.5215H20.9723C22.6099 31.5215 23.8219 32.0447 24.3002 34.2992C24.832 36.8257 24.63 38.5834 21.7273 38.7821L16.5174 39.1483C20.3557 62.9492 42.7371 70.7121 54.927 45.0644C56.9472 40.8221 57.5852 40.0479 59.8128 40.587C62.8056 41.3192 63.2151 42.8466 61.7798 47.1099C51.2589 78.726 15.842 81.896 8.89383 39.687L4.67818 39.9854C1.23851 40.2257 1.10017 37.3695 1.10017 35.8005C1.08968 32.646 2.27513 31.5215 4.39099 31.5215Z" fill="white"/>
<path fill-rule="evenodd" clip-rule="evenodd" d="M64.8836 15.7139C68.4458 15.7139 71.3336 18.5921 71.3336 22.1424C71.3336 25.6928 68.4458 28.571 64.8836 28.571C61.3214 28.571 58.4336 25.6928 58.4336 22.1424C58.4336 18.5921 61.3214 15.7139 64.8836 15.7139Z" fill="white"/>
</svg>
