<svg width="215" height="100" viewBox="0 0 215 100" fill="none" xmlns="http://www.w3.org/2000/svg">
<path fill-rule="evenodd" clip-rule="evenodd" d="M11.0344 65.6755C11.0344 65.6755 19.2781 44.5798 20.9014 40.4355H15.3718C14.2304 43.4314 10.0451 54.3163 9.08127 56.7379C9.05049 56.8086 9.01971 56.8834 8.98725 56.9622L8.98713 56.9625L8.98709 56.9626C8.93935 57.0786 8.88797 57.2034 8.82761 57.3371C8.57593 55.9127 8.03377 52.8156 7.48075 49.6565L7.48056 49.6554C6.696 45.1736 5.88964 40.5673 5.85989 40.4355H0.533203C0.533203 40.7102 4.97211 65.6755 4.97211 65.6755H11.0344ZM32.9499 65.7005H37.9468C37.9722 65.5007 37.9722 57.362 37.9215 55.5396C37.9215 55.3908 37.9218 55.2417 37.9221 55.0925V55.0918V55.0912V55.0906V55.09C37.9246 53.8874 37.9271 52.6715 37.7693 51.4952C37.4649 49.1984 35.4103 47.4258 33.1021 47.2511C30.9207 47.0763 28.9929 47.6256 27.1413 49.1734V40.4355H22.2965V65.6755H27.192V53.4175C27.192 53.1849 27.9628 52.6488 28.2116 52.4758L28.2573 52.4439C28.8407 52.0195 29.6271 51.7199 30.3626 51.645C31.8338 51.4952 32.6962 52.6436 32.8992 53.9418C33.0034 54.5163 32.9705 61.2465 32.9555 64.3186V64.3192V64.3197V64.3201V64.3207V64.3211C32.9523 64.9855 32.9499 65.4784 32.9499 65.7005ZM54.7132 57.9113H44.1613C43.8315 59.9335 45.5564 61.8059 47.6871 61.9057C49.5133 61.9806 51.7708 61.5312 53.4957 61.0819L54.3327 64.4023C51.1114 65.6505 47.5095 66.2497 44.1359 65.1762C39.8746 63.8281 39.0883 59.1346 39.2912 55.265C39.3926 53.2677 39.976 51.2705 41.2189 49.6977C43.2481 47.1512 46.7993 46.6519 49.8431 47.3759C52.0245 47.9002 53.4196 49.3731 54.2059 51.4203C55.0176 53.4924 54.7132 57.9113 54.7132 57.9113ZM50.0206 54.4161C50.0714 53.068 49.8685 51.8447 48.6509 51.1207C47.6617 50.5215 46.5203 50.5215 45.531 51.1706C44.4149 51.9196 44.1106 53.093 44.0598 54.4161H50.0206ZM83.3082 53.6945C83.3347 53.876 83.3624 54.0657 83.4012 54.2663C83.1977 54.2663 82.9942 54.2622 82.7913 54.2581C82.286 54.248 81.7845 54.2379 81.2959 54.2913C81.0556 54.3086 80.8139 54.3219 80.5721 54.3352C79.7676 54.3795 78.962 54.4239 78.2013 54.6159C74.0668 55.6644 72.9508 58.0361 73.4581 61.2067C74.1936 65.7504 79.3935 67.0486 82.5388 64.9765C82.8775 64.7728 83.1882 64.5278 83.5125 64.2723L83.5125 64.2722C83.6254 64.1833 83.7399 64.0931 83.8578 64.0028C84.01 64.3523 84.4412 65.7254 84.4412 65.7254H88.246C88.246 65.7254 88.2296 59.7185 88.1443 55.0902H93.1414V65.6505H98.4428V55.0902H106.498L106.509 65.6505H111.81V40.4355H106.484L106.493 50.0722H98.4174V40.4355H93.0907V50.1221H87.5915C87.1675 49.2661 86.4641 48.556 85.4812 48.05C84.3397 47.4508 83.1222 47.301 81.8539 47.276C79.4189 47.2261 77.0345 47.5257 74.6756 48.2247C74.2951 48.3496 74.1176 48.4494 74.219 48.8489C74.3644 49.3781 74.5014 49.9074 74.6396 50.4414C74.7426 50.8393 74.8463 51.2399 74.9546 51.645C74.9546 51.645 77.4658 51.1956 77.694 51.1706L77.8786 51.1393C78.7113 50.9978 79.5834 50.8495 80.4335 50.896C81.6764 50.9459 82.7671 51.6699 83.1476 52.8683C83.2258 53.1303 83.2655 53.4018 83.3082 53.6945ZM80.3574 57.9113C81.2705 57.8114 83.249 57.8364 83.249 57.8364C83.249 57.8364 83.2744 59.2344 83.2744 59.8835C83.249 60.5326 81.5242 61.9057 80.6871 62.0306C79.6218 62.1803 78.8608 61.8308 78.5565 60.8073C77.9984 58.9848 78.6579 58.111 80.3574 57.9113ZM71.9361 65.7005V40.4355C70.3128 40.4355 68.6894 40.4355 67.1168 40.4605V48.8738C66.9923 48.789 66.8786 48.7148 66.7731 48.646L66.7727 48.6457L66.7726 48.6456C66.5988 48.5323 66.447 48.4333 66.3051 48.3246C64.8085 47.276 63.1852 47.0014 61.435 47.4009C61.0799 47.4758 60.7247 47.5756 60.395 47.7254C58.9492 48.3246 57.9346 49.5229 57.3004 50.896C55.7278 54.3412 55.9815 58.5104 57.1229 62.0805C57.5541 63.4536 58.5433 64.7518 59.8877 65.4009C61.1813 66.05 62.6779 66 64.0476 65.6006C64.889 65.359 65.6699 64.9148 66.4739 64.4574L66.474 64.4573C66.8333 64.2529 67.1973 64.0458 67.5733 63.853C67.6296 64.0006 67.6858 64.1618 67.7446 64.3304C67.8449 64.618 67.9527 64.927 68.0806 65.2261C68.1567 65.4009 68.3597 65.6755 68.5118 65.6755C69.3455 65.7128 70.1791 65.7083 71.0444 65.7036C71.3376 65.7021 71.6345 65.7005 71.9361 65.7005ZM65.47 51.8853C65.8167 52.0607 67.0914 52.7057 67.0914 53.4924L67.1421 59.2344C67.1675 59.8586 66.9138 60.258 66.4319 60.5326C66.3549 60.5755 66.2778 60.6188 66.2007 60.6621C65.6939 60.9469 65.1847 61.2331 64.6563 61.4064C63.312 61.8558 62.1452 61.3565 61.6633 60.0583C60.8262 57.7864 60.8262 55.4896 61.6379 53.2178C62.272 51.4203 63.6671 50.9709 65.3919 51.8447C65.4045 51.8521 65.4314 51.8658 65.4697 51.8851L65.47 51.8853ZM176.086 65.7005H181.082C181.082 65.5007 181.082 57.362 181.057 55.5396C181.057 55.4364 181.057 55.3331 181.057 55.2297L181.058 55.09C181.06 53.8874 181.063 52.6716 180.905 51.4952C180.601 49.1984 178.546 47.4258 176.238 47.2511C174.056 47.0763 172.129 47.6256 170.277 49.1734V40.4355H165.432V65.6755H170.328V53.4175C170.328 53.1849 171.098 52.6489 171.347 52.4758L171.393 52.4439C171.976 52.0195 172.763 51.7199 173.498 51.645C174.969 51.4952 175.832 52.6436 176.035 53.9418C176.139 54.5163 176.106 61.2451 176.091 64.3176V64.3211C176.088 64.9855 176.086 65.4784 176.086 65.7005ZM146.231 40.4355H151.228V65.7005H146.231V40.4355ZM139.67 53.6946V53.6945L139.67 53.6943L139.67 53.694C139.627 53.4015 139.587 53.1301 139.509 52.8683C139.128 51.6699 138.038 50.9459 136.795 50.896C135.945 50.8495 135.073 50.9978 134.24 51.1393L134.055 51.1706C133.827 51.1956 131.316 51.645 131.316 51.645C131.21 51.2485 131.108 50.8565 131.008 50.4669L131.006 50.4594L131.001 50.4427L131.001 50.4414C130.863 49.9074 130.726 49.3781 130.58 48.8489C130.479 48.4494 130.657 48.3496 131.037 48.2247C133.396 47.5257 135.78 47.2261 138.215 47.276C139.484 47.301 140.701 47.4508 141.843 48.05C143.491 48.8988 144.354 50.3218 144.43 52.0444C144.582 56.4134 144.607 65.7254 144.607 65.7254H140.803C140.803 65.7254 140.371 64.3523 140.219 64.0028C140.103 64.092 139.99 64.1811 139.878 64.269L139.876 64.2708L139.874 64.2722C139.55 64.5278 139.239 64.7727 138.9 64.9765C135.755 67.0486 130.555 65.7504 129.819 61.2067C129.312 58.0361 130.428 55.6644 134.563 54.6159C135.323 54.4239 136.129 54.3795 136.933 54.3352C137.175 54.3219 137.417 54.3086 137.657 54.2913C138.144 54.2381 138.63 54.2479 139.135 54.258C139.34 54.2621 139.549 54.2663 139.763 54.2663C139.724 54.0657 139.696 53.8761 139.67 53.6946ZM139.61 57.8364C139.61 57.8364 137.632 57.8114 136.719 57.9113C135.019 58.111 134.36 58.9848 134.918 60.8073C135.222 61.8308 135.983 62.1803 137.049 62.0306C137.886 61.9057 139.61 60.5326 139.636 59.8835C139.61 59.2344 139.61 57.8364 139.61 57.8364ZM118.228 58.0611H128.779C128.779 58.0611 129.059 53.6672 128.272 51.5701C127.486 49.5229 126.091 48.05 123.909 47.5257C120.866 46.8017 117.314 47.301 115.285 49.8475C114.042 51.4203 113.459 53.4175 113.357 55.4147C113.155 59.2844 113.941 63.9778 118.202 65.326C121.576 66.3995 125.178 65.8003 128.399 64.552L127.562 61.2317C125.837 61.681 123.58 62.1304 121.753 62.0555C119.623 61.9557 117.898 60.0833 118.228 58.0611ZM122.717 51.2705C123.935 51.9945 124.138 53.2178 124.087 54.5659H118.126C118.177 53.2428 118.481 52.0694 119.597 51.3204C120.587 50.6713 121.728 50.6713 122.717 51.2705ZM153.079 51.6949H154.804C154.804 51.6949 154.779 58.086 154.779 61.1817C154.804 63.5534 155.489 64.7268 157.848 65.5257C158.228 65.6505 158.634 65.7504 159.015 65.7753C160.613 65.9251 162.211 65.9501 163.758 65.3509C163.619 64.7018 163.485 64.0652 163.352 63.4286C163.219 62.792 163.086 62.1554 162.946 61.5063C162.83 61.5349 162.736 61.5599 162.656 61.5812C162.526 61.6157 162.432 61.6406 162.338 61.6561C162.266 61.6619 162.196 61.6679 162.127 61.6739C160.72 61.7943 159.775 61.8752 159.75 59.7337C159.75 57.9612 159.776 51.6699 159.776 51.6699H163.631V47.5756H159.801V42.3828L154.931 42.3579V47.6006H153.079V51.6949Z" fill="white"/>
</svg>
