<svg width="258" height="120" viewBox="0 0 258 120" fill="none" xmlns="http://www.w3.org/2000/svg">
<path d="M45.5367 78.8404H39.5404C39.5404 77.3424 39.6317 65.5688 39.4795 64.73C39.236 63.1721 38.2011 61.794 36.4357 61.9738C35.553 62.0637 34.6094 62.4232 33.9093 62.9324C33.6963 63.0822 32.6309 63.8012 32.6309 64.1008V78.8104H26.7563C26.7563 78.8104 26.7563 58.6184 26.7563 48.5225C28.7044 48.5225 30.622 48.5225 32.57 48.5225C32.57 51.9377 32.57 55.353 32.57 59.0079C34.792 57.1505 37.1053 56.4914 39.723 56.7011C42.4929 56.9108 44.9584 59.0379 45.3237 61.794C45.5367 63.3818 45.5063 65.0295 45.5063 66.6473C45.5672 68.8343 45.5672 78.6007 45.5367 78.8404Z" fill="#637B86"/>
<path fill-rule="evenodd" clip-rule="evenodd" d="M52.9936 69.4935H65.6559C65.6559 69.4935 66.0212 64.1908 65.0472 61.7043C64.1036 59.2477 62.4295 57.4801 59.8118 56.851C56.1592 55.9822 51.8978 56.5814 49.4628 59.6372C47.9713 61.5245 47.2712 63.9212 47.1495 66.3179C46.906 70.9614 47.8496 76.5936 52.9632 78.2114C57.0115 79.4996 61.3337 78.7806 65.1993 77.2826L64.1949 73.2982C62.1251 73.8374 59.4161 74.3767 57.2245 74.2868C54.6677 74.167 52.5979 71.9201 52.9936 69.4935ZM58.3812 61.3448C59.8422 62.2136 60.0857 63.6815 60.0248 65.2993H52.8719C52.9327 63.7115 53.298 62.3034 54.6373 61.4047C55.8244 60.6258 57.1941 60.6258 58.3812 61.3448Z" fill="#637B86"/>
<path fill-rule="evenodd" clip-rule="evenodd" d="M99.9702 64.4332C100.002 64.651 100.035 64.8786 100.082 65.1194C99.8376 65.1194 99.5934 65.1144 99.3499 65.1095C98.7436 65.0973 98.1418 65.0852 97.5554 65.1493C97.2671 65.1701 96.977 65.1861 96.6869 65.202C95.7215 65.2552 94.7547 65.3084 93.842 65.5388C88.8806 66.797 87.5413 69.6431 88.15 73.4478C89.0328 78.9002 95.2726 80.4581 99.0469 77.9715C99.4534 77.727 99.8263 77.4331 100.215 77.1264C100.351 77.0197 100.488 76.9114 100.63 76.8031C100.812 77.2225 101.33 78.8703 101.33 78.8703H105.896C105.896 78.8703 105.865 67.6958 105.682 62.4531C105.591 60.3859 104.556 58.6783 102.578 57.6597C101.208 56.9407 99.747 56.761 98.2251 56.731C95.303 56.6711 92.4418 57.0306 89.6111 57.8694C89.1545 58.0192 88.9414 58.1391 89.0632 58.6184C89.2376 59.2535 89.402 59.8887 89.5679 60.5294C89.6915 61.007 89.8159 61.4876 89.9459 61.9737C89.9459 61.9737 92.9593 61.4345 93.2332 61.4045C93.3068 61.3921 93.3806 61.3796 93.4547 61.367C94.4539 61.1971 95.5004 61.0192 96.5205 61.075C98.012 61.1349 99.3209 62.0037 99.7774 63.4417C99.8714 63.7561 99.9189 64.0819 99.9702 64.4332ZM96.4292 69.4933C97.525 69.3734 99.8992 69.4034 99.8992 69.4034C99.8992 69.4034 99.9296 71.0811 99.9296 71.86C99.8992 72.6389 97.8294 74.2866 96.8249 74.4364C95.5465 74.6162 94.6334 74.1968 94.2681 72.9685C93.5985 70.7815 94.3899 69.7329 96.4292 69.4933Z" fill="#637B86"/>
<path d="M118.101 60.0864V48.5225H111.709V60.1463H101.269V66.108H111.77V78.7804H118.132V66.108H127.872V60.0864H118.101Z" fill="url(#paint0_linear_1060_45867)"/>
<path d="M127.78 48.5225L127.811 78.7804H134.172V48.5225H127.78Z" fill="#77CFEB"/>
<path d="M25.082 48.5225C23.134 53.4956 13.2416 78.8104 13.2416 78.8104H5.96682C5.96682 78.8104 0.640137 48.852 0.640137 48.5225C2.77081 48.5225 4.90149 48.5225 7.03216 48.5225C7.09304 48.7921 9.86291 64.67 10.5934 68.8043C10.7152 68.5347 10.8065 68.295 10.8978 68.0853C12.0545 65.1793 17.0768 52.1175 18.4465 48.5225C20.6989 48.5225 22.8905 48.5225 25.082 48.5225Z" fill="#637B86"/>
<path fill-rule="evenodd" clip-rule="evenodd" d="M86.3236 78.8404V48.5225C84.3755 48.5225 82.4275 48.5225 80.5403 48.5524V58.6484C80.3907 58.5464 80.2541 58.4573 80.1273 58.3746C79.9187 58.2385 79.7366 58.1197 79.5663 57.9893C77.7704 56.7311 75.8224 56.4015 73.7222 56.8809C73.296 56.9707 72.8699 57.0906 72.4742 57.2703C70.7392 57.9893 69.5217 59.4273 68.7607 61.075C66.8736 65.2093 67.1779 70.2123 68.5477 74.4964C69.0651 76.1441 70.2522 77.7019 71.8654 78.4809C73.4178 79.2598 75.2136 79.1999 76.8573 78.7205C77.867 78.4307 78.804 77.8976 79.7689 77.3486C80.2001 77.1033 80.6369 76.8548 81.0882 76.6234C81.1557 76.8005 81.2232 76.994 81.2937 77.1963C81.4141 77.5414 81.5434 77.9122 81.697 78.2711C81.7883 78.4809 82.0318 78.8104 82.2144 78.8104C83.2148 78.8552 84.2151 78.8498 85.2535 78.8442C85.6053 78.8423 85.9615 78.8404 86.3236 78.8404ZM78.5642 62.2621C78.9803 62.4727 80.5099 63.2467 80.5099 64.1907L80.5707 71.0811C80.6012 71.8301 80.2968 72.3094 79.7185 72.639C79.626 72.6904 79.5335 72.7424 79.441 72.7944C78.8329 73.1361 78.2218 73.4795 77.5878 73.6875C75.9746 74.2268 74.5744 73.6276 73.9961 72.0698C72.9916 69.3435 72.9916 66.5874 73.9657 63.8612C74.7266 61.7042 76.4007 61.1649 78.4705 62.2134C78.4857 62.2224 78.5181 62.2388 78.5642 62.2621Z" fill="#637B86"/>
<path d="M217.299 78.8404H211.303C211.303 77.3424 211.394 65.5688 211.242 64.73C210.999 63.1721 209.964 61.794 208.198 61.9738C207.316 62.0637 206.372 62.4232 205.672 62.9324C205.459 63.0822 204.394 63.8012 204.394 64.1008V78.8104H198.519C198.519 78.8104 198.519 58.6184 198.519 48.5225C200.467 48.5225 202.385 48.5225 204.333 48.5225C204.333 51.9377 204.333 55.353 204.333 59.0079C206.555 57.1505 208.868 56.4914 211.486 56.7011C214.256 56.9108 216.721 59.0379 217.086 61.794C217.299 63.3818 217.269 65.0295 217.269 66.6473C217.299 68.8343 217.299 78.6007 217.299 78.8404Z" fill="#77CFEB"/>
<rect x="175.477" y="48.5225" width="5.99632" height="30.3179" fill="#77CFEB"/>
<path fill-rule="evenodd" clip-rule="evenodd" d="M167.604 64.4332C167.636 64.651 167.669 64.8786 167.716 65.1194C167.46 65.1194 167.209 65.1143 166.962 65.1094C166.356 65.0972 165.773 65.0855 165.189 65.1493C164.901 65.1701 164.611 65.1861 164.321 65.202C163.355 65.2552 162.389 65.3084 161.476 65.5388C156.514 66.797 155.175 69.6431 155.784 73.4478C156.667 78.9002 162.906 80.4581 166.681 77.9715C167.087 77.727 167.46 77.4331 167.849 77.1264C167.985 77.0197 168.122 76.9114 168.264 76.8031C168.446 77.2225 168.964 78.8703 168.964 78.8703H173.529C173.529 78.8703 173.499 67.6958 173.316 62.4531C173.225 60.3859 172.19 58.6783 170.212 57.6597C168.842 56.9407 167.381 56.761 165.859 56.731C162.937 56.6711 160.076 57.0306 157.245 57.8694C156.788 58.0192 156.575 58.1391 156.697 58.6184C156.871 59.2535 157.036 59.8887 157.202 60.5294C157.325 61.007 157.45 61.4876 157.58 61.9737C157.58 61.9737 160.593 61.4345 160.867 61.4045C160.941 61.3921 161.014 61.3796 161.088 61.367C162.088 61.1971 163.134 61.0192 164.154 61.075C165.646 61.1349 166.955 62.0037 167.411 63.4417C167.505 63.7561 167.553 64.0819 167.604 64.4332ZM164.063 69.4933C165.159 69.3734 167.533 69.4034 167.533 69.4034C167.533 69.4034 167.533 71.0811 167.563 71.86C167.533 72.6389 165.463 74.2866 164.459 74.4364C163.18 74.6162 162.267 74.1968 161.902 72.9685C161.232 70.7815 162.024 69.7329 164.063 69.4933Z" fill="#77CFEB"/>
<path fill-rule="evenodd" clip-rule="evenodd" d="M141.874 69.6732H154.536C154.536 69.6732 154.871 64.4005 153.927 61.884C152.983 59.4274 151.309 57.6598 148.692 57.0307C145.039 56.1619 140.778 56.7611 138.343 59.8168C136.851 61.7042 136.151 64.1009 136.029 66.4976C135.786 71.1411 136.729 76.7733 141.843 78.391C145.891 79.6793 150.214 78.9603 154.079 77.4623L153.075 73.4779C151.005 74.0171 148.296 74.5564 146.104 74.4665C143.548 74.3467 141.478 72.0998 141.874 69.6732ZM147.261 61.5245C148.722 62.3933 148.966 63.8612 148.905 65.479H141.752C141.813 63.8912 142.178 62.4831 143.517 61.5844C144.704 60.8055 146.074 60.8055 147.261 61.5245Z" fill="#77CFEB"/>
<path d="M185.765 62.0335H183.695V57.1204H185.917V50.8291L191.761 50.8591V57.0904H196.358V62.0036H191.731C191.731 62.0036 191.701 69.5531 191.701 71.6801C191.731 74.3764 192.979 74.1367 194.805 73.9869C194.988 73.957 195.171 73.8971 195.536 73.8072C195.871 75.365 196.175 76.8629 196.51 78.4208C194.653 79.1398 192.735 79.1098 190.818 78.9301C190.361 78.9001 189.874 78.7803 189.418 78.6305C186.587 77.6718 185.765 76.2638 185.735 73.4177C185.735 69.7029 185.765 62.0335 185.765 62.0335Z" fill="#77CFEB"/>
<defs>
<linearGradient id="paint0_linear_1060_45867" x1="101.268" y1="78.7747" x2="127.865" y2="78.7747" gradientUnits="userSpaceOnUse">
<stop offset="0.621" stop-color="#77CFEB"/>
<stop offset="1" stop-color="#599FB5"/>
</linearGradient>
</defs>
</svg>
