<svg width="215" height="100" viewBox="0 0 215 100" fill="none" xmlns="http://www.w3.org/2000/svg">
<mask id="mask0_1039_16376" style="mask-type:alpha" maskUnits="userSpaceOnUse" x="0" y="42" width="34" height="24">
<path fill-rule="evenodd" clip-rule="evenodd" d="M0 42.564H33.0811V65.9849H0V42.564Z" fill="white"/>
</mask>
<g mask="url(#mask0_1039_16376)">
<path fill-rule="evenodd" clip-rule="evenodd" d="M16.6102 48.4534C16.0812 49.7809 15.6077 50.9665 15.1355 52.153C13.5857 56.0498 12.0402 59.9488 10.4805 63.8419C10.3141 64.2572 10.1073 64.6688 9.8503 65.0334C8.94521 66.3169 7.16748 66.2829 6.31743 64.9601C6.06881 64.5729 5.88143 64.1261 5.75897 63.6808C4.1071 57.6646 2.47193 51.6434 0.832738 45.624C0.560312 44.6246 0.286031 43.6265 0 42.5816H3.2286C4.9049 49.0376 6.5914 55.5315 8.31625 62.1743C8.70525 61.191 9.04385 60.3452 9.37534 59.4967C11.0575 55.1861 12.7347 50.874 14.4243 46.5662C14.5941 46.133 14.7988 45.7035 15.0511 45.3139C15.8594 44.0662 17.4652 43.9929 18.2349 45.2601C18.8212 46.2255 19.2062 47.3226 19.6094 48.3882C21.3083 52.8769 22.9809 57.3754 24.6646 61.8697C24.6822 61.9164 24.7205 61.9557 24.8019 62.0766C26.5378 55.5334 28.2571 49.0536 29.9786 42.564H33.0813C32.7869 43.6435 32.5071 44.6911 32.2164 45.7354C30.5556 51.6966 28.8966 57.6584 27.2203 63.6149C27.0812 64.1085 26.8795 64.6097 26.5954 65.0318C25.7642 66.2665 24.0783 66.3108 23.1992 65.111C22.8364 64.6159 22.5702 64.0318 22.3482 63.4545C20.4424 58.5066 18.5568 53.5507 16.6102 48.4534Z" fill="white"/>
</g>
<path fill-rule="evenodd" clip-rule="evenodd" d="M52.7671 53.6163C52.6502 53.6064 52.55 53.587 52.4504 53.591C50.784 53.6534 49.1115 53.6494 47.4537 53.8043C45.9401 53.9457 44.4236 54.1773 42.9437 54.5217C41.5707 54.8409 40.6582 55.784 40.4396 57.2107C40.3042 58.0945 40.2383 59.0175 40.3332 59.9019C40.5398 61.8278 41.4573 62.8111 43.3698 63.1321C46.3566 63.6333 49.3155 63.4663 52.2201 62.5436C52.6199 62.4168 52.7665 62.2288 52.7665 61.8135C52.7671 59.1728 52.789 56.532 52.802 53.8912C52.8023 53.8084 52.7816 53.7255 52.7671 53.6163ZM52.897 51.2616C52.789 50.1113 52.759 49.068 52.5803 48.0506C52.3088 46.503 51.284 45.609 49.7988 45.2203C47.9546 44.737 46.073 44.8344 44.2031 44.9562C42.4223 45.0725 40.6483 45.2948 38.8115 45.4763C38.7178 44.707 38.6201 43.9043 38.5137 43.0332C39.7624 42.8594 40.99 42.6111 42.2281 42.5335C44.3918 42.3977 46.5634 42.2904 48.7289 42.3241C49.8019 42.3411 50.9018 42.5969 51.9328 42.9234C54.2312 43.651 55.4623 45.3319 55.7993 47.6848C55.88 48.2498 55.9063 48.8265 55.9079 49.3976C55.9174 52.9775 55.9212 56.557 55.9079 60.1366C55.9035 61.3172 55.8302 62.4978 55.8163 63.6788C55.8126 64.0081 55.688 64.1683 55.3986 64.2997C53.6756 65.0814 51.8635 65.5861 49.9921 65.7237C47.972 65.8721 45.9332 65.9179 43.9106 65.8282C42.7894 65.7784 41.6446 65.4692 40.5821 65.0814C38.9358 64.4806 37.8702 63.2511 37.4346 61.5284C36.9815 59.7393 37.0023 57.9436 37.5168 56.1767C38.2379 53.7008 40.037 52.436 42.4755 51.9991C45.5792 51.4431 48.7268 51.3856 51.8669 51.2631C52.1573 51.252 52.4489 51.2616 52.897 51.2616Z" fill="white"/>
<path fill-rule="evenodd" clip-rule="evenodd" d="M89.5791 42.5455C85.9132 46.3706 82.3467 50.0921 78.7597 53.8352C82.5705 57.7552 86.3656 61.6595 90.2476 65.6531C88.8416 65.6531 87.5626 65.6658 86.2846 65.6373C86.1195 65.6336 85.9374 65.4376 85.8004 65.295C82.5674 61.9192 79.3398 58.5391 76.1115 55.1587C76.0169 55.0594 75.9309 54.9515 75.7549 54.7483V65.6141H72.6309V33.6621H75.7089V53.0451C75.7667 53.081 75.8248 53.1172 75.883 53.1534C75.9745 53.0124 76.0472 52.8531 76.1606 52.7328C79.2711 49.4325 82.3828 46.1337 85.5081 42.8479C85.6628 42.6856 85.9411 42.565 86.1659 42.5588C87.2556 42.5294 88.3471 42.5455 89.5791 42.5455Z" fill="white"/>
<path fill-rule="evenodd" clip-rule="evenodd" d="M107.891 65.6294H104.749V65.0663C104.749 59.4193 104.744 53.7719 104.753 48.1249C104.755 46.961 104.823 45.7974 104.831 44.6338C104.834 44.2772 104.976 44.109 105.291 43.9862C107.455 43.1418 109.7 42.6399 112.004 42.4107C113.942 42.2178 115.886 42.1389 117.827 42.3965C119.235 42.5836 120.586 42.9426 121.734 43.8322C123.024 44.831 123.595 46.2235 123.799 47.7844C123.908 48.6264 123.979 49.4796 123.982 50.3281C123.999 55.2627 123.99 60.1976 123.99 65.1325V65.622H120.826C120.826 65.3962 120.826 65.1751 120.826 64.9537C120.812 59.8803 120.807 54.8069 120.774 49.7335C120.771 49.1676 120.662 48.5921 120.531 48.0383C120.105 46.2519 118.826 45.4102 117.125 45.1202C114.21 44.6223 111.353 44.9411 108.536 45.794C108.09 45.9291 107.947 46.1428 107.946 46.5982C107.939 51.7935 107.911 56.9885 107.892 62.1831C107.887 63.3118 107.891 64.4404 107.891 65.6294Z" fill="white"/>
<mask id="mask1_1039_16376" style="mask-type:alpha" maskUnits="userSpaceOnUse" x="130" y="42" width="20" height="24">
<path fill-rule="evenodd" clip-rule="evenodd" d="M130.716 42.2324H149.961V65.6315H130.716V42.2324Z" fill="white"/>
</mask>
<g mask="url(#mask1_1039_16376)">
<path fill-rule="evenodd" clip-rule="evenodd" d="M149.959 65.6315H146.795C146.795 65.4132 146.795 65.1971 146.795 64.9809C146.782 59.9075 146.776 54.8341 146.745 49.7606C146.741 49.1944 146.637 48.6187 146.507 48.0645C146.083 46.2547 144.793 45.4061 143.069 45.1161C140.153 44.626 137.296 44.9411 134.483 45.8047C134.06 45.9346 133.917 46.1334 133.916 46.571C133.907 52.6871 133.881 58.8029 133.86 64.9188C133.859 65.1423 133.86 65.3659 133.86 65.6216H130.718V65.0415C130.718 59.4288 130.712 53.8164 130.722 48.2043C130.724 47.0058 130.789 45.8075 130.803 44.6087C130.807 44.2775 130.939 44.1148 131.235 43.9983C133.413 43.1405 135.676 42.6392 137.998 42.4082C139.936 42.2159 141.88 42.1389 143.82 42.399C145.21 42.5854 146.544 42.9429 147.682 43.8152C148.976 44.8084 149.555 46.1971 149.765 47.7575C149.877 48.5989 149.948 49.4526 149.951 50.3008C149.968 55.2531 149.959 60.205 149.959 65.1575V65.6315Z" fill="white"/>
</g>
<mask id="mask2_1039_16376" style="mask-type:alpha" maskUnits="userSpaceOnUse" x="62" y="33" width="6" height="34">
<path fill-rule="evenodd" clip-rule="evenodd" d="M62.4277 33.6514H67.4223V66.6666H62.4277V33.6514Z" fill="white"/>
</mask>
<g mask="url(#mask2_1039_16376)">
<path fill-rule="evenodd" clip-rule="evenodd" d="M62.454 33.6514H65.5907V34.331C65.5907 42.6046 65.5963 50.8785 65.5864 59.1521C65.5839 61.0597 65.8492 62.8893 66.9009 64.5326C67.0592 64.7799 67.229 65.0202 67.4223 65.3062C66.5472 65.758 65.69 66.2005 64.7864 66.6668C64.0335 65.878 63.5007 64.9615 63.1129 63.9528C62.5681 62.5356 62.4314 61.0522 62.4305 59.5528C62.4258 51.0878 62.4283 42.6229 62.4292 34.1579C62.4295 34.0042 62.4441 33.8502 62.454 33.6514Z" fill="white"/>
</g>
<mask id="mask3_1039_16376" style="mask-type:alpha" maskUnits="userSpaceOnUse" x="0" y="33" width="150" height="34">
<path fill-rule="evenodd" clip-rule="evenodd" d="M0 66.6668H149.961V33.3335H0V66.6668Z" fill="white"/>
</mask>
<g mask="url(#mask3_1039_16376)">
<path fill-rule="evenodd" clip-rule="evenodd" d="M94.9644 65.6236H98.0665V42.5781H94.9644V65.6236Z" fill="white"/>
<path fill-rule="evenodd" clip-rule="evenodd" d="M98.4293 35.5979C98.4169 35.7611 98.4073 35.8817 98.3987 36.0029C98.2821 37.6941 97.0112 38.4582 95.4638 37.704C95.1429 37.5475 94.8018 37.1202 94.7538 36.7779C94.6478 36.0187 94.6651 35.229 94.7412 34.4624C94.8009 33.8634 95.2195 33.459 95.8411 33.3832C96.266 33.3313 96.7088 33.3102 97.1302 33.3687C97.8461 33.4686 98.2308 33.9039 98.3473 34.6569C98.3974 34.981 98.4055 35.3115 98.4293 35.5979Z" fill="white"/>
</g>
</svg>
