<svg width="258" height="120" viewBox="0 0 258 120" fill="none" xmlns="http://www.w3.org/2000/svg">
<mask id="mask0_1060_47016" style="mask-type:alpha" maskUnits="userSpaceOnUse" x="0" y="51" width="40" height="29">
<path fill-rule="evenodd" clip-rule="evenodd" d="M0 51.0762H39.6974V79.1813H0V51.0762Z" fill="white"/>
</mask>
<g mask="url(#mask0_1060_47016)">
<path fill-rule="evenodd" clip-rule="evenodd" d="M19.9323 58.1435C19.2974 59.7365 18.7293 61.1592 18.1627 62.583C16.3029 67.2592 14.4483 71.938 12.5766 76.6097C12.377 77.1081 12.1287 77.602 11.8204 78.0394C10.7343 79.5797 8.60098 79.5389 7.58092 77.9515C7.28258 77.4869 7.05771 76.9507 6.91077 76.4164C4.92852 69.1969 2.96632 61.9715 0.999286 54.7483C0.672375 53.549 0.343238 52.3512 0 51.0973H3.87432C5.88588 58.8445 7.90968 66.6373 9.9795 74.6086C10.4463 73.4286 10.8526 72.4137 11.2504 71.3955C13.269 66.2228 15.2817 61.0482 17.3092 55.8789C17.5129 55.359 17.7586 54.8436 18.0614 54.3761C19.0313 52.8788 20.9583 52.7909 21.8819 54.3115C22.5854 55.47 23.0474 56.7865 23.5313 58.0652C25.5699 63.4517 27.577 68.8499 29.5975 74.243C29.6186 74.2991 29.6646 74.3462 29.7622 74.4913C31.8454 66.6395 33.9086 58.8638 35.9743 51.0762H39.6976C39.3443 52.3716 39.0085 53.6287 38.6597 54.8818C36.6667 62.0353 34.6759 69.1895 32.6644 76.3374C32.4974 76.9296 32.2554 77.5311 31.9144 78.0376C30.917 79.5193 28.8939 79.5723 27.839 78.1326C27.4037 77.5385 27.0842 76.8376 26.8178 76.1448C24.5309 70.2073 22.2682 64.2602 19.9323 58.1435Z" fill="#494D9F"/>
</g>
<path fill-rule="evenodd" clip-rule="evenodd" d="M63.3205 64.3394C63.1802 64.3275 63.06 64.3042 62.9405 64.309C60.9409 64.3839 58.9337 64.3791 56.9445 64.565C55.1281 64.7346 53.3084 65.0125 51.5324 65.4259C49.8849 65.8088 48.7899 66.9406 48.5275 68.6527C48.365 69.7132 48.286 70.8209 48.3999 71.8821C48.6477 74.1931 49.7487 75.3731 52.0438 75.7583C55.6279 76.3598 59.1787 76.1594 62.6641 75.0521C63.1439 74.9 63.3198 74.6744 63.3198 74.176C63.3205 71.0071 63.3469 67.8382 63.3624 64.6693C63.3628 64.5698 63.338 64.4704 63.3205 64.3394ZM63.4763 61.5137C63.3468 60.1334 63.3108 58.8814 63.0964 57.6606C62.7706 55.8034 61.5408 54.7306 59.7586 54.2642C57.5456 53.6842 55.2876 53.8011 53.0438 53.9473C50.9068 54.0868 48.778 54.3536 46.5738 54.5714C46.4614 53.6482 46.3441 52.6849 46.2165 51.6396C47.7149 51.4311 49.188 51.1331 50.6738 51.04C53.2701 50.8771 55.8761 50.7483 58.4747 50.7887C59.7623 50.8092 61.0822 51.116 62.3193 51.5079C65.0775 52.381 66.5547 54.3981 66.9592 57.2216C67.056 57.8995 67.0876 58.5916 67.0894 59.2769C67.1009 63.5728 67.1054 67.8683 67.0894 72.1637C67.0842 73.5805 66.9963 74.9972 66.9796 76.4143C66.9751 76.8095 66.8256 77.0017 66.4783 77.1594C64.4107 78.0975 62.2362 78.7031 59.9905 78.8682C57.5663 79.0463 55.1199 79.1012 52.6927 78.9936C51.3472 78.9339 49.9736 78.5628 48.6986 78.0975C46.723 77.3765 45.4443 75.9011 44.9215 73.8339C44.3778 71.6869 44.4027 69.5321 45.0202 67.4118C45.8855 64.4407 48.0444 62.923 50.9706 62.3987C54.695 61.7315 58.4721 61.6625 62.2403 61.5156C62.5887 61.5022 62.9387 61.5137 63.4763 61.5137Z" fill="#494D9F"/>
<path fill-rule="evenodd" clip-rule="evenodd" d="M107.495 51.0546C103.096 55.6447 98.8162 60.1105 94.5118 64.6023C99.0848 69.3063 103.639 73.9914 108.297 78.7837C106.61 78.7837 105.075 78.7989 103.542 78.7648C103.344 78.7603 103.125 78.5251 102.961 78.354C99.0811 74.3031 95.2079 70.2469 91.334 66.1904C91.2204 66.0713 91.1173 65.9418 90.9061 65.698V78.737H87.1572V40.3945H90.8508V63.6542C90.9202 63.6972 90.99 63.7406 91.0597 63.7841C91.1696 63.6148 91.2568 63.4237 91.393 63.2794C95.1255 59.319 98.8596 55.3604 102.61 51.4175C102.796 51.2227 103.129 51.0779 103.399 51.0705C104.707 51.0353 106.017 51.0546 107.495 51.0546Z" fill="#494D9F"/>
<path fill-rule="evenodd" clip-rule="evenodd" d="M129.469 78.7545H125.699V78.0788C125.699 71.3023 125.693 64.5255 125.704 57.7491C125.706 56.3524 125.788 54.9561 125.798 53.5597C125.801 53.1319 125.971 52.93 126.349 52.7827C128.946 51.7693 131.64 51.1671 134.405 50.8921C136.731 50.6606 139.063 50.5659 141.393 50.875C143.082 51.0995 144.703 51.5304 146.081 52.5979C147.629 53.7965 148.314 55.4674 148.559 57.3405C148.69 58.351 148.775 59.3747 148.779 60.3929C148.799 66.3144 148.789 72.2363 148.789 78.1582V78.7456H144.991C144.991 78.4747 144.992 78.2094 144.991 77.9437C144.975 71.8556 144.968 65.7675 144.93 59.6794C144.925 59.0003 144.795 58.3098 144.637 57.6452C144.127 55.5015 142.591 54.4915 140.55 54.1434C137.052 53.546 133.624 53.9286 130.244 54.952C129.708 55.1141 129.537 55.3705 129.536 55.9171C129.527 62.1514 129.494 68.3854 129.47 74.6189C129.465 75.9733 129.469 77.3277 129.469 78.7545Z" fill="#494D9F"/>
<mask id="mask1_1060_47016" style="mask-type:alpha" maskUnits="userSpaceOnUse" x="156" y="50" width="24" height="29">
<path fill-rule="evenodd" clip-rule="evenodd" d="M156.859 50.6787H179.954V78.7576H156.859V50.6787Z" fill="white"/>
</mask>
<g mask="url(#mask1_1060_47016)">
<path fill-rule="evenodd" clip-rule="evenodd" d="M179.951 78.7576H176.154C176.154 78.4956 176.154 78.2363 176.154 77.9769C176.138 71.8888 176.131 65.8007 176.094 59.7126C176.089 59.0331 175.964 58.3422 175.808 57.6773C175.299 55.5054 173.752 54.4872 171.683 54.1391C168.183 53.551 164.756 53.9291 161.379 54.9655C160.872 55.1213 160.7 55.3599 160.699 55.885C160.688 63.2243 160.657 70.5633 160.632 77.9023C160.631 78.1706 160.632 78.4389 160.632 78.7457H156.861V78.0496C156.861 71.3144 156.855 64.5795 156.866 57.845C156.869 56.4067 156.947 54.9688 156.963 53.5302C156.968 53.1328 157.127 52.9376 157.482 52.7977C160.096 51.7684 162.811 51.1669 165.597 50.8897C167.923 50.6589 170.256 50.5665 172.584 50.8785C174.252 51.1023 175.853 51.5313 177.218 52.578C178.772 53.7699 179.466 55.4364 179.717 57.3088C179.852 58.3185 179.937 59.343 179.941 60.3608C179.961 66.3035 179.951 72.2457 179.951 78.1888V78.7576Z" fill="#494D9F"/>
</g>
<mask id="mask2_1060_47016" style="mask-type:alpha" maskUnits="userSpaceOnUse" x="74" y="40" width="7" height="40">
<path fill-rule="evenodd" clip-rule="evenodd" d="M74.9131 40.3818H80.9065V80.0002H74.9131V40.3818Z" fill="white"/>
</mask>
<g mask="url(#mask2_1060_47016)">
<path fill-rule="evenodd" clip-rule="evenodd" d="M74.9446 40.3818H78.7087V41.1974C78.7087 51.1257 78.7154 61.0544 78.7035 70.9827C78.7005 73.2718 79.0189 75.4674 80.2809 77.4393C80.4709 77.7361 80.6746 78.0244 80.9065 78.3677C79.8564 78.9098 78.8278 79.4408 77.7435 80.0004C76.84 79.0538 76.2006 77.9539 75.7353 76.7435C75.0815 75.0429 74.9175 73.2629 74.9164 71.4636C74.9108 61.3056 74.9138 51.1476 74.9149 40.9896C74.9152 40.8052 74.9327 40.6204 74.9446 40.3818Z" fill="#494D9F"/>
</g>
<mask id="mask3_1060_47016" style="mask-type:alpha" maskUnits="userSpaceOnUse" x="0" y="40" width="180" height="40">
<path fill-rule="evenodd" clip-rule="evenodd" d="M0 80H179.953V40H0V80Z" fill="white"/>
</mask>
<g mask="url(#mask3_1060_47016)">
<path fill-rule="evenodd" clip-rule="evenodd" d="M113.958 78.7483H117.68V51.0938H113.958V78.7483Z" fill="#494D9F"/>
<path fill-rule="evenodd" clip-rule="evenodd" d="M118.115 42.7172C118.1 42.9132 118.088 43.0579 118.078 43.2033C117.938 45.2327 116.413 46.1496 114.556 45.2446C114.171 45.0568 113.762 44.544 113.704 44.1332C113.577 43.2223 113.598 42.2746 113.689 41.3547C113.761 40.6359 114.263 40.1506 115.009 40.0597C115.519 39.9973 116.05 39.9721 116.556 40.0422C117.415 40.1621 117.877 40.6845 118.017 41.5881C118.077 41.977 118.086 42.3736 118.115 42.7172Z" fill="#494D9F"/>
</g>
</svg>
