<svg width="258" height="120" viewBox="0 0 258 120" fill="none" xmlns="http://www.w3.org/2000/svg">
<path d="M0 20H5.47848L11.3565 39.7843L17.8744 20H23.3132L29.7914 39.7843L35.6696 20H41.1479L32.4704 47.6258H27.4723L20.5938 27.1176L13.6763 47.6258H8.7172L0 20Z" fill="#31A58F"/>
<path fill-rule="evenodd" clip-rule="evenodd" d="M47.7719 42.6392H61.0478L63.1274 47.6258H68.6455L57.1693 20H51.6107L40.1338 47.6258H45.6924L47.7719 42.6392ZM54.4104 26.675L59.2483 38.2964H49.5717L54.4104 26.675Z" fill="#31A58F"/>
<path d="M75.1 24.5842H66.3027V20H88.8563V24.5842H80.0584V47.6258H75.1V24.5842Z" fill="#31A58F"/>
<path d="M100.245 24.5842H91.4473V20H114V24.5842H105.203V47.6258H100.245V24.5842Z" fill="#31A58F"/>
<path d="M8.71729 85.1248H13.6758V57.499H8.71729V85.1248Z" fill="#31A58F"/>
<path fill-rule="evenodd" clip-rule="evenodd" d="M47.186 82.0289L44.4265 79.616C46.1865 77.2835 47.2258 74.3883 47.2258 71.292C47.2258 63.5311 40.6279 57.0166 32.8303 57.0166C24.9924 57.0166 18.3945 63.5311 18.3945 71.292C18.3945 79.053 24.9924 85.6077 32.8303 85.6077C36.1094 85.6077 39.1485 84.4415 41.5873 82.5515L44.5468 85.1251L47.186 82.0289ZM34.3899 76.2382L37.9488 79.3746C36.4687 80.4203 34.7095 81.0234 32.8303 81.0234C27.7515 81.0234 23.4727 76.6 23.4727 71.2919C23.4727 66.0241 27.7515 61.6008 32.8303 61.6008C37.8687 61.6008 42.1073 66.0241 42.1073 71.2919C42.1073 73.1417 41.5872 74.8709 40.7079 76.3586L37.0292 73.1417L34.3899 76.2382Z" fill="#31A58F"/>
<path d="M60.3954 100H0.0219727V95.0132H57.093L72.675 57.5044L82.8757 82.0596L88.3763 68.8186H114V73.8056H91.6787L82.8757 94.9965L72.675 70.4408L60.3954 100Z" fill="#31A58F"/>
</svg>
