<svg width="215" height="100" viewBox="0 0 215 100" fill="none" xmlns="http://www.w3.org/2000/svg">
<path d="M0 16.667H4.5654L9.46374 33.1539L14.8954 16.667H19.4277L24.8262 33.1539L29.7246 16.667H34.2899L27.0587 39.6885H22.8936L17.1615 22.5983L11.3969 39.6885H7.26433L0 16.667Z" fill="white"/>
<path fill-rule="evenodd" clip-rule="evenodd" d="M39.8099 35.533H50.8732L52.6062 39.6885H57.2045L47.6411 16.667H43.0089L33.4448 39.6885H38.077L39.8099 35.533ZM45.342 22.2295L49.3736 31.914H41.3098L45.342 22.2295Z" fill="white"/>
<path d="M62.5835 20.4871H55.2524V16.667H74.0471V20.4871H66.7155V39.6885H62.5835V20.4871Z" fill="white"/>
<path d="M83.5371 20.4871H76.2061V16.667H95.0002V20.4871H87.6691V39.6885H83.5371V20.4871Z" fill="white"/>
<path d="M7.26465 70.9375H11.3967V47.916H7.26465V70.9375Z" fill="white"/>
<path fill-rule="evenodd" clip-rule="evenodd" d="M39.3215 68.3572L37.0219 66.3465C38.4886 64.4027 39.3546 61.9901 39.3546 59.4099C39.3546 52.9424 33.8564 47.5137 27.3584 47.5137C20.8269 47.5137 15.3286 52.9424 15.3286 59.4099C15.3286 65.8773 20.8269 71.3396 27.3584 71.3396C30.091 71.3396 32.6236 70.3677 34.6559 68.7927L37.1221 70.9374L39.3215 68.3572ZM28.6581 63.5317L31.6238 66.1453C30.3904 67.0168 28.9244 67.5194 27.3584 67.5194C23.1261 67.5194 19.5604 63.8332 19.5604 59.4098C19.5604 55.0199 23.1261 51.3339 27.3584 51.3339C31.5571 51.3339 35.0893 55.0199 35.0893 59.4098C35.0893 60.9512 34.6558 62.3923 33.9231 63.632L30.8575 60.9512L28.6581 63.5317Z" fill="white"/>
<path d="M50.3292 83.3341H0.0180664V79.1782H47.5773L60.5622 47.9209L69.0629 68.3835L73.6467 57.3494H94.9997V61.5052H76.3986L69.0629 79.1643L60.5622 58.7013L50.3292 83.3341Z" fill="white"/>
</svg>
