<svg width="215" height="100" viewBox="0 0 215 100" fill="none" xmlns="http://www.w3.org/2000/svg">
<path fill-rule="evenodd" clip-rule="evenodd" d="M40 90C62.0914 90 80 72.0914 80 50C80 27.9086 62.0914 10 40 10C17.9086 10 0 27.9086 0 50C0 72.0914 17.9086 90 40 90ZM24.3311 71.9936C24.7664 72.3903 25.3363 72.5886 26.041 72.5886H32.2588C32.9221 72.5886 33.4402 72.4216 33.8133 72.0876C34.1864 71.7535 34.4558 71.3777 34.6216 70.9601L40.7773 53.6105L46.9329 70.9601C47.0573 71.3777 47.306 71.7535 47.6791 72.0876C48.0521 72.4216 48.5703 72.5886 49.2335 72.5886H55.5135C56.1768 72.5886 56.7364 72.3903 57.1923 71.9936C57.6483 71.5969 57.9177 71.1063 58.0007 70.5217L64.6537 30.436V30.0602C64.6537 29.7261 64.5294 29.4234 64.2807 29.152C64.032 28.8806 63.7211 28.7449 63.348 28.7449H55.2026C54.5808 28.7449 54.1249 28.8597 53.8347 29.0894C53.5445 29.319 53.358 29.6844 53.2751 30.1855L49.4201 53.7984L45.1297 40.1442C44.7981 39.0168 44.1142 38.4531 43.0779 38.4531H38.4145C37.3782 38.4531 36.6942 39.0168 36.3626 40.1442L32.0723 53.8611L28.2794 30.1855C28.1551 29.2251 27.4918 28.7449 26.2897 28.7449H18.1444C17.8127 28.7449 17.5122 28.8806 17.2428 29.152C16.9733 29.4234 16.8386 29.7261 16.8386 30.0602C16.8386 30.2272 16.8593 30.3525 16.9008 30.436L23.5539 70.5217C23.6368 71.1063 23.8959 71.5969 24.3311 71.9936Z" fill="white"/>
<mask id="mask0_1039_2314" style="mask-type:alpha" maskUnits="userSpaceOnUse" x="0" y="10" width="80" height="80">
<path fill-rule="evenodd" clip-rule="evenodd" d="M40 90C62.0914 90 80 72.0914 80 50C80 27.9086 62.0914 10 40 10C17.9086 10 0 27.9086 0 50C0 72.0914 17.9086 90 40 90ZM24.3311 71.9936C24.7664 72.3903 25.3363 72.5886 26.041 72.5886H32.2588C32.9221 72.5886 33.4402 72.4216 33.8133 72.0876C34.1864 71.7535 34.4558 71.3777 34.6216 70.9601L40.7773 53.6105L46.9329 70.9601C47.0573 71.3777 47.306 71.7535 47.6791 72.0876C48.0521 72.4216 48.5703 72.5886 49.2335 72.5886H55.5135C56.1768 72.5886 56.7364 72.3903 57.1923 71.9936C57.6483 71.5969 57.9177 71.1063 58.0007 70.5217L64.6537 30.436V30.0602C64.6537 29.7261 64.5294 29.4234 64.2807 29.152C64.032 28.8806 63.7211 28.7449 63.348 28.7449H55.2026C54.5808 28.7449 54.1249 28.8597 53.8347 29.0894C53.5445 29.319 53.358 29.6844 53.2751 30.1855L49.4201 53.7984L45.1297 40.1442C44.7981 39.0168 44.1142 38.4531 43.0779 38.4531H38.4145C37.3782 38.4531 36.6942 39.0168 36.3626 40.1442L32.0723 53.8611L28.2794 30.1855C28.1551 29.2251 27.4918 28.7449 26.2897 28.7449H18.1444C17.8127 28.7449 17.5122 28.8806 17.2428 29.152C16.9733 29.4234 16.8386 29.7261 16.8386 30.0602C16.8386 30.2272 16.8593 30.3525 16.9008 30.436L23.5539 70.5217C23.6368 71.1063 23.8959 71.5969 24.3311 71.9936Z" fill="white"/>
</mask>
<g mask="url(#mask0_1039_2314)">
</g>
</svg>
