<svg width="258" height="120" viewBox="0 0 258 120" fill="none" xmlns="http://www.w3.org/2000/svg">
<path fill-rule="evenodd" clip-rule="evenodd" d="M48 108C74.5097 108 96 86.5097 96 60C96 33.4903 74.5097 12 48 12C21.4903 12 0 33.4903 0 60C0 86.5097 21.4903 108 48 108ZM29.1973 86.3923C29.7196 86.8683 30.4036 87.1063 31.2492 87.1063H38.7106C39.5065 87.1063 40.1283 86.9059 40.576 86.5051C41.0236 86.1042 41.347 85.6532 41.5459 85.1522L48.9327 64.3326L56.3195 85.1522C56.4687 85.6532 56.7672 86.1042 57.2149 86.5051C57.6625 86.9059 58.2843 87.1063 59.0802 87.1063H66.6162C67.4121 87.1063 68.0836 86.8683 68.6308 86.3923C69.178 85.9163 69.5013 85.3275 69.6008 84.626L77.5845 36.5232V36.0722C77.5845 35.6714 77.4352 35.3081 77.1368 34.9824C76.8383 34.6567 76.4653 34.4938 76.0176 34.4938H66.2432C65.497 34.4938 64.9498 34.6316 64.6016 34.9072C64.2534 35.1828 64.0296 35.6213 63.9301 36.2225L59.3041 64.5581L54.1557 48.1731C53.7577 46.8202 52.937 46.1438 51.6934 46.1438H46.0974C44.8538 46.1438 44.0331 46.8202 43.6351 48.1731L38.4868 64.6333L33.9353 36.2225C33.7861 35.0701 32.9902 34.4938 31.5477 34.4938H21.7732C21.3753 34.4938 21.0147 34.6567 20.6913 34.9824C20.368 35.3081 20.2063 35.6714 20.2063 36.0722C20.2063 36.2727 20.2312 36.423 20.281 36.5232L28.2647 84.626C28.3641 85.3275 28.675 85.9163 29.1973 86.3923Z" fill="#494D9F"/>
<mask id="mask0_1060_43352" style="mask-type:alpha" maskUnits="userSpaceOnUse" x="0" y="12" width="96" height="96">
<path fill-rule="evenodd" clip-rule="evenodd" d="M48 108C74.5097 108 96 86.5097 96 60C96 33.4903 74.5097 12 48 12C21.4903 12 0 33.4903 0 60C0 86.5097 21.4903 108 48 108ZM29.1973 86.3923C29.7196 86.8683 30.4036 87.1063 31.2492 87.1063H38.7106C39.5065 87.1063 40.1283 86.9059 40.576 86.5051C41.0236 86.1042 41.347 85.6532 41.5459 85.1522L48.9327 64.3326L56.3195 85.1522C56.4687 85.6532 56.7672 86.1042 57.2149 86.5051C57.6625 86.9059 58.2843 87.1063 59.0802 87.1063H66.6162C67.4121 87.1063 68.0836 86.8683 68.6308 86.3923C69.178 85.9163 69.5013 85.3275 69.6008 84.626L77.5845 36.5232V36.0722C77.5845 35.6714 77.4352 35.3081 77.1368 34.9824C76.8383 34.6567 76.4653 34.4938 76.0176 34.4938H66.2432C65.497 34.4938 64.9498 34.6316 64.6016 34.9072C64.2534 35.1828 64.0296 35.6213 63.9301 36.2225L59.3041 64.5581L54.1557 48.1731C53.7577 46.8202 52.937 46.1438 51.6934 46.1438H46.0974C44.8538 46.1438 44.0331 46.8202 43.6351 48.1731L38.4868 64.6333L33.9353 36.2225C33.7861 35.0701 32.9902 34.4938 31.5477 34.4938H21.7732C21.3753 34.4938 21.0147 34.6567 20.6913 34.9824C20.368 35.3081 20.2063 35.6714 20.2063 36.0722C20.2063 36.2727 20.2312 36.423 20.281 36.5232L28.2647 84.626C28.3641 85.3275 28.675 85.9163 29.1973 86.3923Z" fill="white"/>
</mask>
<g mask="url(#mask0_1060_43352)">
</g>
</svg>
