<svg width="215" height="100" viewBox="0 0 215 100" fill="none" xmlns="http://www.w3.org/2000/svg">
<path d="M9.12879 58.7895L0.719697 47.0471C0.30303 46.4789 0 45.7971 0 44.9637C0 43.4107 1.25 42.1228 2.87879 42.1228C4.16667 42.1228 5 42.8425 5.7197 43.9031L12.0455 53.2592L18.4848 43.8274C19.2045 42.7668 20.0379 42.085 21.25 42.085C22.9924 42.085 24.053 43.335 24.053 44.9637C24.053 45.7592 23.6742 46.4789 23.2955 47.0092L14.8864 58.6759V66.4031C14.8864 68.0319 13.6364 69.3577 12.0076 69.3577C10.4167 69.3577 9.12879 68.0698 9.12879 66.4031V58.7895Z" fill="white"/>
<path d="M78.9393 66.4031C78.9393 67.9941 77.6893 69.3198 76.0984 69.3198C74.5454 69.3198 73.2575 68.0319 73.2575 66.4031V66.1759C71.9696 67.8804 70.265 69.4713 67.3863 69.4713C63.106 69.4713 60.606 66.5547 60.606 61.8577V51.2516C60.606 49.6607 61.856 48.335 63.4469 48.335C64.9999 48.335 66.2878 49.6228 66.2878 51.2516V60.0016C66.2878 62.7668 67.5378 64.1683 69.7347 64.1683C71.8938 64.1683 73.2575 62.7668 73.2575 60.0016V51.2516C73.2575 49.6607 74.5454 48.335 76.0984 48.335C77.6514 48.335 78.9393 49.6228 78.9393 51.2516V66.4031Z" fill="white"/>
<path d="M85.6819 45.1157C85.6819 43.4869 86.9319 42.1611 88.5607 42.1611H89.2047C90.4168 42.1611 91.288 42.8051 91.8183 43.6763L98.7501 55.2672L105.72 43.6384C106.326 42.6536 107.121 42.1611 108.296 42.1611H108.94C110.53 42.1611 111.818 43.449 111.818 45.1157V66.3657C111.818 67.9945 110.53 69.3202 108.94 69.3202C107.386 69.3202 106.099 67.9945 106.099 66.3657V53.0323L101.061 60.9869C100.455 61.896 99.735 62.4642 98.6743 62.4642C97.6137 62.4642 96.894 61.896 96.288 60.9869L91.288 53.146V66.4414C91.288 68.0323 90.038 69.3202 88.4471 69.3202C86.8562 69.3202 85.644 68.0702 85.644 66.4414V45.1157H85.6819Z" fill="white"/>
<path fill-rule="evenodd" clip-rule="evenodd" d="M117.045 63.1458V63.2215C117.045 67.2746 120.114 69.4715 123.901 69.5473C126.629 69.5473 128.561 68.4867 129.924 66.9336V66.9715C129.924 68.1836 131.023 69.3579 132.651 69.3579C134.205 69.3579 135.417 68.1079 135.417 66.5549V57.2367C135.417 54.4715 134.735 52.1988 133.258 50.6837C131.856 49.2064 129.621 48.373 126.515 48.373C123.864 48.373 121.932 48.7518 120.151 49.4337C119.28 49.7746 118.636 50.6458 118.636 51.6685C118.636 53.0321 119.697 54.0549 120.985 54.0549C121.25 54.0549 121.477 54.017 121.818 53.9033C122.879 53.5624 124.167 53.3352 125.72 53.3352C128.523 53.3352 130 54.6988 130 57.0852V57.4261C128.561 56.9337 127.121 56.5927 125.114 56.5927C120.379 56.5927 117.045 58.6761 117.045 63.1458ZM130.038 60.8352V61.8579C130.038 63.9791 128.258 65.4564 125.606 65.4943C123.788 65.4943 122.5 64.5473 122.5 62.9943V62.9185C122.5 61.0624 123.977 60.0776 126.401 60.0776C127.803 60.0776 129.053 60.3806 130.038 60.8352Z" fill="white"/>
<path fill-rule="evenodd" clip-rule="evenodd" d="M143.788 48.3732C142.197 48.3732 140.947 49.699 140.947 51.2899V72.502C140.947 74.1308 142.235 75.4186 143.788 75.4186C145.379 75.4186 146.629 74.0929 146.629 72.502V66.4035C147.954 68.0702 149.81 69.4717 152.841 69.4717C157.576 69.4717 161.932 65.7596 161.932 58.9035V58.8277C161.932 51.9717 157.5 48.2217 152.841 48.2217C149.924 48.2217 147.992 49.6611 146.629 51.555V51.2899C146.629 49.6611 145.341 48.3732 143.788 48.3732ZM156.25 58.8277V58.9035C156.25 62.3126 154.015 64.5474 151.363 64.5474C148.712 64.5474 146.515 62.3126 146.515 58.9035V58.8277C146.515 55.4565 148.712 53.1838 151.363 53.1838C154.015 53.1838 156.25 55.4186 156.25 58.8277Z" fill="white"/>
<ellipse cx="40.7196" cy="57.6468" rx="15.0374" ry="15.0374" fill="white"/>
<path d="M33.1087 46.0835C33.3281 46.327 33.3563 46.5193 33.2731 46.8126C33.1929 47.1008 33.3127 47.4213 33.1513 47.6912C32.919 48.0783 33.2548 48.0336 33.2528 48.4058C33.2508 48.6647 32.9918 48.9579 32.8145 49.1453C32.4267 49.5538 31.7091 50.1277 31.7681 50.6903C31.7998 50.9805 31.8433 51.2862 31.8998 51.5883C31.9617 51.9143 32.3381 51.7603 32.4792 52.0708C32.612 52.3581 32.456 52.6861 32.602 52.9743C32.6526 53.0742 32.8427 53.1527 32.8051 53.2789C32.7462 53.3341 32.6783 53.3788 32.602 53.4156C32.5179 53.6874 33.0413 53.7396 33.0334 54.0448C33.0294 54.2003 33.3924 54.5551 33.5772 54.5924C33.8248 54.4702 32.9948 52.9296 33.1305 52.5638C33.5445 52.5444 33.2379 52.9843 33.4524 53.2044C33.6886 53.4489 33.7995 53.682 33.8411 53.9613C34.1011 54.1576 34.3384 54.3757 34.4726 54.6496C34.6157 54.9418 34.3577 55.3026 34.5944 55.5292C34.9425 55.8611 35.783 56.1951 36.297 56.3417C36.5961 56.4262 37.0399 56.2408 37.2771 56.3631C37.6342 56.5514 37.7208 56.8705 38.1661 56.9599C38.6885 57.0687 39.0154 57.1105 39.1273 57.5915C39.2085 57.9369 39.6325 57.8614 39.7899 58.1476C39.8479 58.2505 40.355 58.4513 40.5026 58.4875C40.6962 58.5372 40.7552 58.1099 40.7522 58.0169C39.6854 58.2967 39.8553 57.3704 40.0173 56.8958C40.1584 56.4873 39.9078 56.3357 39.4458 56.3223C39.1739 56.3124 38.9223 56.4446 38.8633 56.1474C38.8341 56.0281 38.8693 55.9327 38.9698 55.8552C39.2368 55.6415 39.1199 55.3254 39.3353 55.1212C39.6602 54.8155 38.6796 54.9611 38.5702 54.993C38.1472 55.1222 38.4503 55.5833 37.9358 55.6425C37.6569 55.6743 37.3137 55.722 37.0518 55.6077C36.3971 55.3254 36.7675 54.3887 36.9542 53.9836C37.0849 53.7014 36.9775 53.4907 37.3142 53.3093C37.6054 53.1532 37.9293 53.0404 38.2527 52.9395C38.48 53.0434 39.0931 53.1607 39.2432 53.0076C39.3962 52.8531 39.6909 52.7745 39.9232 52.7979C40.0594 52.8123 40.1851 52.8714 40.2228 52.9912C40.3109 52.9738 40.3981 52.9619 40.4867 52.9564C40.7547 52.9972 40.6744 53.277 40.6908 53.433C40.7101 53.6263 40.9008 54.1705 41.2019 54.0055C41.4554 53.8668 41.4059 53.5657 41.3683 53.354C41.3153 53.0618 41.1845 52.7835 41.4158 52.53C41.6644 52.2542 42.0195 52.0659 42.382 51.9138C43.1259 51.5972 43.1566 51.0327 43.738 50.5502C44.0495 50.2893 44.1867 50.1705 44.617 50.0785C44.9142 50.0134 44.9315 49.9667 44.9781 49.7525C45.1331 49.511 45.6234 49.3575 45.9155 49.3604C46.1805 49.3634 46.2493 49.7118 46.4786 49.4613C46.6237 49.3023 47.6519 49.2119 47.5592 49.0479C47.3706 48.7189 46.5212 49.0195 47.0873 48.3745C47.2992 48.131 47.0368 47.9541 47.5553 47.9436C47.8425 47.9377 48.154 48.0057 48.4333 47.9133C48.5755 48.1976 48.0495 48.2965 48.1278 48.5782C48.471 48.6985 48.8929 48.623 49.2683 48.7383C49.7705 48.8938 49.6125 48.292 49.6744 48.0674C49.2767 47.8239 49.3812 47.7568 49.4991 47.3513C49.5744 47.0998 49.3277 46.7922 49.0212 46.7554C48.8548 46.578 48.883 46.2972 48.8627 46.0865C48.8444 45.8912 48.8097 45.6199 48.5359 45.5612C48.2902 45.6765 48.0713 45.9319 47.7658 45.9379C47.5092 45.9419 47.4463 45.7834 47.5578 45.6184C47.7039 45.3962 47.5132 45.3992 47.3597 45.2536C47.1284 45.0315 46.8288 44.9798 46.4851 44.9847C46.0616 44.9887 46.1622 45.2586 45.8739 45.4082C45.9289 45.7993 45.605 45.673 45.4069 45.9205C45.4545 46.1332 45.6882 46.0701 45.5085 46.3186C45.4069 46.4602 45.2356 46.5517 45.0598 46.6202C44.6309 46.7887 44.5304 46.7609 44.4095 47.151C44.364 47.3055 44.044 47.7876 43.8128 47.4586C43.6493 47.2285 43.9693 46.9423 44.0837 46.7539C43.8747 46.6123 43.5632 46.7171 43.3284 46.6053C43.0942 46.4955 42.9278 46.3037 42.6707 46.2247C41.7169 45.9354 42.8015 45.2407 43.3324 45.0995C43.6469 45.017 44.3451 44.6543 44.6458 44.8093C44.9167 44.946 44.988 44.9346 45.2668 44.7899C45.4535 44.694 45.7883 44.9713 45.8938 44.7586C45.7566 44.5171 45.4768 44.4083 45.8918 44.2925C46.1354 44.2234 46.2895 44.1205 46.443 43.9898C45.7709 43.7046 45.0731 43.4685 44.3546 43.2852C44.2491 43.3766 44.1748 43.4815 44.1802 43.5764C44.2045 43.8994 43.2274 43.8512 43.2507 43.8552C42.9501 43.799 42.6509 43.9531 42.3558 43.8552C42.1012 43.7727 42.0542 43.6589 41.7481 43.6892C41.19 43.7434 40.827 43.959 40.3075 43.6912C40.1237 43.5977 40.0395 43.6797 39.8558 43.6514C39.6845 43.6251 39.5725 43.4924 39.4091 43.4477C38.9421 43.3214 38.3577 43.3935 37.8991 43.4049C37.5381 43.4119 36.869 43.4477 36.5476 43.5699C36.3936 43.6291 36.2302 43.6027 36.0667 43.5555C34.634 44.0231 33.2984 44.704 32.0944 45.5597C32.2455 45.5985 32.3846 45.6373 32.4802 45.6482C32.8601 45.6874 32.9036 45.8554 33.1087 46.0835Z" fill="white"/>
<path d="M41.2046 54.5035C40.9384 54.4159 39.7848 54.325 39.8806 54.8566C40.1291 54.8932 40.3064 54.6842 40.5677 54.7341C40.6989 54.7707 40.8345 54.7918 40.9721 54.7956C41.2802 54.8084 41.3905 55.1022 41.6548 55.1998C41.847 55.3667 41.6374 55.3838 42.0214 55.3534C42.1496 55.4703 42.552 55.4975 42.5754 55.3445C42.6399 54.9154 41.6463 54.6487 41.2046 54.5035Z" fill="white"/>
<path d="M43.9289 55.3331C43.7993 55.2991 42.9632 54.9606 42.9037 55.1949C42.9202 55.3343 43.0833 55.3415 43.0583 55.5012C42.934 55.5149 42.6536 55.463 42.5781 55.6037C42.8272 55.7968 43.2942 55.7908 43.538 55.7878C43.6771 55.764 44.8245 55.5697 43.9289 55.3331Z" fill="white"/>
<path d="M51.8489 62.1112C51.4849 61.8507 51.5046 61.5415 50.9564 61.4398C50.4843 61.3536 50.1405 60.9573 49.765 60.7314C49.467 60.5535 48.9893 60.3792 48.8957 60.0991C48.8434 59.9453 48.7709 59.7368 48.7513 59.5785C48.717 59.2769 48.5509 58.9317 48.1407 58.7448C47.6157 58.5058 47.2166 58.5128 47.0198 58.0304C46.9422 57.8345 46.7711 57.8179 46.6342 57.6636C46.4857 57.4953 45.2243 57.1295 44.8166 56.6566C44.6102 56.4161 44.2227 56.2297 43.8819 56.126C43.6785 56.2162 43.4701 56.2462 43.2124 56.1681C42.9285 56.2081 42.8269 56.2337 42.6728 56.3875C42.6119 56.4481 42.5244 56.4787 42.4161 56.4797C42.0416 56.4827 41.8776 56.2137 41.7734 56.5413C41.7714 56.5538 41.9571 56.87 41.9712 56.9787C41.9948 57.1821 41.9198 57.383 41.796 57.5464C41.4658 57.9858 40.5326 57.8946 40.5286 58.5599C40.5256 58.8896 40.4274 58.7809 40.2633 59.0394C40.1476 59.2213 40.2457 59.4483 40.4098 59.6146C40.6751 59.8836 40.5563 60.1702 40.7823 60.4443C40.9866 60.6938 41.1749 61.0971 41.1905 61.3632C41.2212 61.8747 42.0044 62.1067 42.3673 62.4895C43.0418 63.1979 42.3044 63.9379 42.3351 64.6464C42.3507 64.978 42.1307 65.2621 42.1619 65.6229C42.2002 66.0858 42.0411 66.3458 41.8463 66.7441C41.7371 66.9661 41.9183 67.2196 41.8937 67.4626C41.876 67.6475 41.8358 67.8354 41.9656 68.0213C42.2017 68.3569 42.1484 68.5809 42.1977 68.9266C42.2712 69.4627 42.2999 70.0579 42.6905 70.5795C42.9431 70.9152 43.4752 70.7879 43.6519 71.1391C43.7797 71.3906 43.823 71.3536 44.1698 71.5049C44.28 71.554 44.7889 71.8055 44.7617 71.5735C44.7481 71.4472 44.0983 71.1236 43.9438 70.9412C44.0027 70.7163 43.4571 70.4667 43.7037 70.2769C43.8245 70.1857 44.3399 69.8876 44.1371 69.7027C43.6851 69.2939 44.3505 69.3114 44.1703 68.9657C44.3601 68.9156 44.7975 68.4902 44.8644 68.3434C45.0069 68.0343 45.6451 68.3023 45.8691 67.9997C46.1042 67.6786 46.5013 67.655 46.7882 67.393C46.9946 67.2021 47.1647 66.937 47.5135 66.8714C47.5921 66.695 47.7879 66.6314 47.9796 66.5407C48.0702 66.3764 48.0169 66.2121 48.031 66.0347C48.0556 65.6715 48.7105 65.703 49.081 65.6735C49.4046 65.6479 50.135 65.9044 50.1783 65.4981C50.1949 65.3503 50.3338 65.3583 50.438 65.2611C50.5668 65.1474 50.4893 64.9635 50.6564 64.8728C50.8824 64.7486 50.8688 64.447 50.8774 64.2506C50.893 63.9069 51.194 63.8237 51.4583 63.6163C51.7628 63.3758 52.1584 63.2856 52.3175 62.9244C52.3784 62.7826 52.401 62.6247 52.3492 62.4674C52.2687 62.2349 52.0603 62.262 51.8489 62.1112Z" fill="white"/>
<ellipse opacity="0.5" cx="40.7196" cy="57.6468" rx="15.0374" ry="15.0374" fill="white"/>
<path d="M37.7322 47.168C36.6506 47.4579 35.6563 47.2545 35.5114 46.7136C35.3665 46.1728 36.1258 45.4994 37.2075 45.2096C38.2891 44.9198 39.2834 45.1233 39.4283 45.6641C39.5732 46.2049 38.8139 46.8782 37.7322 47.168Z" fill="white"/>
<path d="M37.2841 46.1684C36.8366 46.2883 36.4822 46.417 36.3622 45.9695L29.9061 21.8749C29.7862 21.4273 30.0519 20.9672 30.4994 20.8473C30.9469 20.7274 31.407 20.993 31.5269 21.4406L37.983 45.5352C38.103 45.9827 37.7317 46.0485 37.2841 46.1684Z" fill="white"/>
<path d="M36.3087 43.2823C36.0849 43.3423 35.9119 43.4222 35.792 42.9747L30.1906 22.07C30.0707 21.6224 30.2371 21.5178 30.4609 21.4578C30.6846 21.3979 30.8811 21.4053 31.001 21.8528L36.6024 42.7576C36.7223 43.2051 36.5325 43.2223 36.3087 43.2823Z" fill="white"/>
<mask id="mask0_1039_22121" style="mask-type:alpha" maskUnits="userSpaceOnUse" x="31" y="16" width="19" height="18">
<path fill-rule="evenodd" clip-rule="evenodd" d="M31.4995 20.5586L46.3608 16.5765L49.7782 29.3305L34.9169 33.3125L31.4995 20.5586Z" fill="white"/>
</mask>
<g mask="url(#mask0_1039_22121)">
<path d="M34.3921 31.3538L32.0243 22.5173C31.6557 21.1414 32.7846 19.8246 34.2008 19.979L46.4299 21.4916C48.1442 21.7037 48.7379 23.8883 47.3668 24.9389L37.5574 32.4555C36.4092 33.3087 34.7623 32.7356 34.3921 31.3538Z" fill="white"/>
</g>
<path d="M32.7407 22.8973C32.4176 21.6914 33.4071 20.5374 34.6482 20.6727L45.366 21.9984C46.8684 22.1842 47.3888 24.0989 46.1872 25.0196L37.59 31.6073C36.5837 32.3552 35.1404 31.8528 34.8159 30.6418L32.7407 22.8973Z" fill="white"/>
</svg>
