<svg width="258" height="120" viewBox="0 0 258 120" fill="none" xmlns="http://www.w3.org/2000/svg">
<path d="M10.9545 70.5474L0.863636 56.4565C0.363636 55.7747 0 54.9565 0 53.9565C0 52.0929 1.5 50.5474 3.45455 50.5474C5 50.5474 6 51.411 6.86364 52.6838L14.4545 63.911L22.1818 52.5929C23.0455 51.3201 24.0455 50.502 25.5 50.502C27.5909 50.502 28.8636 52.002 28.8636 53.9565C28.8636 54.911 28.4091 55.7747 27.9545 56.411L17.8636 70.411V79.6838C17.8636 81.6383 16.3636 83.2292 14.4091 83.2292C12.5 83.2292 10.9545 81.6838 10.9545 79.6838V70.5474Z" fill="#3C3C3C"/>
<path d="M94.7271 79.6838C94.7271 81.5929 93.2271 83.1838 91.318 83.1838C89.4543 83.1838 87.9089 81.6383 87.9089 79.6838V79.411C86.3634 81.4565 84.318 83.3656 80.8634 83.3656C75.7271 83.3656 72.7271 79.8656 72.7271 74.2292V61.502C72.7271 59.5929 74.2271 58.002 76.1361 58.002C77.9998 58.002 79.5452 59.5474 79.5452 61.502V72.002C79.5452 75.3201 81.0452 77.002 83.6816 77.002C86.2725 77.002 87.9089 75.3201 87.9089 72.002V61.502C87.9089 59.5929 89.4543 58.002 91.318 58.002C93.1816 58.002 94.7271 59.5474 94.7271 61.502V79.6838Z" fill="#3C3C3C"/>
<path d="M102.818 54.1382C102.818 52.1837 104.318 50.5928 106.273 50.5928H107.046C108.5 50.5928 109.546 51.3655 110.182 52.411L118.5 66.32L126.864 52.3655C127.591 51.1837 128.546 50.5928 129.955 50.5928H130.728C132.637 50.5928 134.182 52.1382 134.182 54.1382V79.6382C134.182 81.5928 132.637 83.1837 130.728 83.1837C128.864 83.1837 127.318 81.5928 127.318 79.6382V63.6382L121.273 73.1837C120.546 74.2746 119.682 74.9564 118.409 74.9564C117.137 74.9564 116.273 74.2746 115.546 73.1837L109.546 63.7746V79.7291C109.546 81.6382 108.046 83.1837 106.137 83.1837C104.227 83.1837 102.773 81.6837 102.773 79.7291V54.1382H102.818Z" fill="#3C3C3C"/>
<path fill-rule="evenodd" clip-rule="evenodd" d="M140.455 75.7746V75.8655C140.455 80.7292 144.136 83.3655 148.682 83.4565C151.955 83.4565 154.273 82.1837 155.909 80.3201V80.3655C155.909 81.8201 157.227 83.2292 159.182 83.2292C161.046 83.2292 162.5 81.7292 162.5 79.8655V68.6837C162.5 65.3655 161.682 62.6383 159.909 60.8201C158.227 59.0474 155.546 58.0474 151.818 58.0474C148.636 58.0474 146.318 58.5019 144.182 59.3201C143.136 59.7292 142.364 60.7746 142.364 62.0019C142.364 63.6383 143.636 64.8655 145.182 64.8655C145.5 64.8655 145.773 64.8201 146.182 64.6837C147.455 64.2746 149 64.0019 150.864 64.0019C154.227 64.0019 156 65.6383 156 68.5019V68.911C154.273 68.3201 152.546 67.911 150.136 67.911C144.455 67.911 140.455 70.411 140.455 75.7746ZM156.046 73.0019V74.2292C156.046 76.7746 153.909 78.5474 150.727 78.5928C148.545 78.5928 147 77.4565 147 75.5928V75.5019C147 73.2746 148.773 72.0928 151.682 72.0928C153.364 72.0928 154.864 72.4565 156.046 73.0019Z" fill="#3C3C3C"/>
<path fill-rule="evenodd" clip-rule="evenodd" d="M172.545 58.0473C170.636 58.0473 169.136 59.6382 169.136 61.5473V87.0018C169.136 88.9564 170.682 90.5018 172.545 90.5018C174.454 90.5018 175.954 88.9109 175.954 87.0018V79.6837C177.545 81.6837 179.773 83.3655 183.409 83.3655C189.091 83.3655 194.318 78.9109 194.318 70.6837V70.5928C194.318 62.3655 189 57.8655 183.409 57.8655C179.909 57.8655 177.591 59.5928 175.954 61.8655V61.5473C175.954 59.5928 174.409 58.0473 172.545 58.0473ZM187.5 70.5927V70.6837C187.5 74.7746 184.818 77.4564 181.636 77.4564C178.454 77.4564 175.818 74.7746 175.818 70.6837V70.5927C175.818 66.5473 178.454 63.82 181.636 63.82C184.818 63.82 187.5 66.5018 187.5 70.5927Z" fill="#3C3C3C"/>
<ellipse cx="48.8633" cy="69.176" rx="18.0449" ry="18.0449" fill="#0080FF"/>
<path d="M39.7305 55.3002C39.9938 55.5924 40.0277 55.8232 39.9278 56.175C39.8315 56.5209 39.9754 56.9055 39.7816 57.2294C39.5029 57.6939 39.9058 57.6402 39.9034 58.0869C39.9011 58.3976 39.5903 58.7494 39.3775 58.9743C38.9122 59.4645 38.0511 60.1533 38.1218 60.8283C38.1598 61.1766 38.2121 61.5433 38.2799 61.9059C38.3541 62.2971 38.8058 62.1123 38.9752 62.485C39.1344 62.8297 38.9472 63.2232 39.1226 63.5691C39.1832 63.689 39.4114 63.7832 39.3662 63.9347C39.2955 64.0009 39.2141 64.0546 39.1226 64.0987C39.0215 64.4249 39.6497 64.4875 39.6402 64.8537C39.6354 65.0403 40.071 65.4661 40.2927 65.5108C40.5898 65.3641 39.5938 63.5155 39.7567 63.0765C40.2535 63.0533 39.8856 63.5811 40.1429 63.8452C40.4264 64.1386 40.5595 64.4183 40.6095 64.7535C40.9215 64.989 41.2061 65.2508 41.3672 65.5794C41.5389 65.9301 41.2293 66.363 41.5134 66.635C41.9312 67.0333 42.9397 67.4341 43.5565 67.61C43.9155 67.7114 44.448 67.4889 44.7326 67.6356C45.1611 67.8616 45.2651 68.2445 45.7994 68.3518C46.4263 68.4824 46.8186 68.5325 46.9529 69.1098C47.0503 69.5243 47.559 69.4336 47.748 69.7771C47.8176 69.9006 48.4261 70.1415 48.6032 70.185C48.8356 70.2446 48.9063 69.7318 48.9027 69.6203C47.6226 69.956 47.8265 68.8444 48.0208 68.2749C48.1902 67.7847 47.8895 67.6028 47.335 67.5867C47.0087 67.5748 46.7068 67.7334 46.6361 67.3768C46.6011 67.2337 46.6432 67.1192 46.7639 67.0262C47.0842 66.7697 46.944 66.3905 47.2025 66.1454C47.5923 65.7786 46.4156 65.9533 46.2843 65.9915C45.7768 66.1465 46.1405 66.7 45.523 66.7709C45.1884 66.8091 44.7766 66.8663 44.4622 66.7292C43.6766 66.3905 44.1211 65.2663 44.3451 64.7803C44.502 64.4416 44.3731 64.1887 44.7772 63.9711C45.1266 63.7838 45.5153 63.6484 45.9034 63.5274C46.1761 63.652 46.9119 63.7928 47.0919 63.6091C47.2756 63.4236 47.6292 63.3294 47.9079 63.3574C48.0713 63.3747 48.2223 63.4457 48.2674 63.5894C48.3732 63.5685 48.4778 63.5542 48.5842 63.5477C48.9057 63.5966 48.8094 63.9323 48.829 64.1196C48.8522 64.3515 49.081 65.0045 49.4423 64.8066C49.7466 64.6402 49.6872 64.2788 49.642 64.0247C49.5784 63.6741 49.4215 63.3401 49.6991 63.036C49.9974 62.705 50.4235 62.479 50.8585 62.2965C51.7511 61.9167 51.788 61.2392 52.4857 60.6601C52.8595 60.3471 53.0241 60.2045 53.5405 60.0942C53.8971 60.0161 53.9179 59.96 53.9738 59.703C54.1598 59.4132 54.7481 59.2289 55.0988 59.2325C55.4167 59.2361 55.4993 59.6541 55.7745 59.3535C55.9486 59.1627 57.1823 59.0542 57.0712 58.8574C56.8448 58.4626 55.8256 58.8234 56.5048 58.0493C56.7592 57.7571 56.4442 57.5448 57.0664 57.5323C57.4111 57.5251 57.7849 57.6068 58.1201 57.4959C58.2907 57.837 57.6595 57.9557 57.7534 58.2938C58.1653 58.4382 58.6716 58.3475 59.1221 58.4859C59.7247 58.6725 59.5351 57.9503 59.6094 57.6808C59.1322 57.3886 59.2576 57.3081 59.399 56.8215C59.4893 56.5197 59.1934 56.1506 58.8255 56.1064C58.6258 55.8935 58.6597 55.5566 58.6354 55.3038C58.6134 55.0694 58.5718 54.7438 58.2431 54.6734C57.9484 54.8118 57.6857 55.1183 57.319 55.1254C57.0112 55.1302 56.9357 54.94 57.0694 54.742C57.2447 54.4754 57.0159 54.479 56.8317 54.3043C56.5542 54.0377 56.1946 53.9757 55.7822 53.9816C55.2741 53.9864 55.3947 54.3102 55.0488 54.4897C55.1148 54.9591 54.7261 54.8076 54.4884 55.1046C54.5455 55.3598 54.826 55.2841 54.6103 55.5822C54.4884 55.7522 54.2828 55.8619 54.0718 55.9442C53.5572 56.1464 53.4365 56.113 53.2915 56.5811C53.2369 56.7666 52.8529 57.345 52.5754 56.9503C52.3793 56.6742 52.7632 56.3307 52.9005 56.1046C52.6497 55.9347 52.2759 56.0605 51.9942 55.9263C51.7131 55.7945 51.5134 55.5644 51.205 55.4695C50.0604 55.1225 51.3619 54.2888 51.999 54.1194C52.3763 54.0204 53.2143 53.5851 53.575 53.7711C53.9001 53.9351 53.9857 53.9214 54.3202 53.7479C54.5443 53.6328 54.946 53.9655 55.0726 53.7103C54.908 53.4205 54.5722 53.2899 55.0702 53.1509C55.3626 53.068 55.5474 52.9446 55.7317 52.7878C54.9252 52.4455 54.0879 52.1622 53.2256 51.9421C53.099 52.0519 53.0098 52.1777 53.0164 52.2916C53.0455 52.6792 51.873 52.6214 51.9009 52.6261C51.5402 52.5588 51.1812 52.7436 50.827 52.6261C50.5216 52.5272 50.4651 52.3906 50.0978 52.427C49.4281 52.492 48.9925 52.7508 48.3691 52.4294C48.1486 52.3172 48.0475 52.4156 47.8271 52.3816C47.6214 52.35 47.4871 52.1908 47.291 52.1371C46.7306 51.9857 46.0294 52.0721 45.479 52.0859C45.0458 52.0942 44.2429 52.1371 43.8572 52.2838C43.6724 52.3548 43.4763 52.3232 43.2802 52.2666C41.5609 52.8277 39.9581 53.6447 38.5134 54.6716C38.6947 54.7181 38.8617 54.7647 38.9764 54.7778C39.4322 54.8249 39.4845 55.0264 39.7305 55.3002Z" fill="#CCFF00"/>
<path d="M49.4452 65.4041C49.1256 65.299 47.7413 65.1899 47.8564 65.8279C48.1545 65.8718 48.3673 65.621 48.6809 65.6808C48.8383 65.7247 49.001 65.75 49.1662 65.7547C49.5358 65.77 49.6682 66.1226 49.9853 66.2397C50.216 66.4399 49.9645 66.4605 50.4253 66.4239C50.5791 66.5643 51.062 66.5969 51.09 66.4133C51.1675 65.8984 49.9752 65.5784 49.4452 65.4041Z" fill="#CCFF00"/>
<path d="M52.7147 66.3991C52.5592 66.3583 51.5559 65.9521 51.4845 66.2332C51.5042 66.4005 51.6999 66.4091 51.67 66.6008C51.5208 66.6172 51.1843 66.555 51.0938 66.7238C51.3927 66.9555 51.953 66.9483 52.2456 66.9448C52.4126 66.9162 53.7894 66.683 52.7147 66.3991Z" fill="#CCFF00"/>
<path d="M62.218 74.5336C61.7813 74.2209 61.8049 73.85 61.1471 73.7279C60.5806 73.6245 60.168 73.149 59.7174 72.8778C59.3598 72.6644 58.7866 72.4551 58.6743 72.1191C58.6115 71.9345 58.5245 71.6844 58.5009 71.4944C58.4599 71.1324 58.2605 70.7182 57.7683 70.4939C57.1383 70.2071 56.6593 70.2156 56.4231 69.6366C56.3301 69.4015 56.1247 69.3817 55.9604 69.1965C55.7823 68.9945 54.2686 68.5556 53.7793 67.988C53.5317 67.6994 53.0666 67.4758 52.6577 67.3513C52.4137 67.4595 52.1636 67.4956 51.8543 67.4018C51.5137 67.4499 51.3917 67.4806 51.2068 67.6652C51.1337 67.7379 51.0286 67.7746 50.8988 67.7758C50.4494 67.7794 50.2525 67.4565 50.1275 67.8497C50.125 67.8648 50.3479 68.2441 50.3648 68.3746C50.3932 68.6187 50.3032 68.8598 50.1546 69.0558C49.7584 69.5831 48.6385 69.4737 48.6337 70.2721C48.6301 70.6677 48.5123 70.5372 48.3154 70.8475C48.1765 71.0657 48.2943 71.3381 48.4912 71.5377C48.8095 71.8605 48.6669 72.2044 48.9381 72.5333C49.1834 72.8327 49.4093 73.3167 49.428 73.6359C49.4648 74.2498 50.4047 74.5282 50.8402 74.9875C51.6496 75.8376 50.7647 76.7257 50.8015 77.5758C50.8203 77.9738 50.5563 78.3147 50.5938 78.7476C50.6397 79.3031 50.4488 79.6152 50.215 80.0931C50.084 80.3595 50.3014 80.6637 50.2718 80.9553C50.2507 81.1771 50.2023 81.4026 50.3582 81.6257C50.6415 82.0285 50.5774 82.2972 50.6366 82.7121C50.7248 83.3554 50.7593 84.0696 51.228 84.6955C51.5312 85.0983 52.1696 84.9456 52.3816 85.3671C52.5351 85.6689 52.587 85.6244 53.0032 85.806C53.1355 85.8649 53.7461 86.1667 53.7135 85.8884C53.6972 85.7369 52.9174 85.3485 52.732 85.1296C52.8026 84.8597 52.1479 84.5603 52.4439 84.3324C52.5888 84.223 53.2073 83.8652 52.9639 83.6434C52.4215 83.1528 53.22 83.1738 53.0038 82.759C53.2315 82.6989 53.7564 82.1884 53.8367 82.0122C54.0077 81.6413 54.7735 81.9629 55.0423 81.5998C55.3244 81.2144 55.801 81.1862 56.1453 80.8717C56.3929 80.6427 56.5971 80.3246 57.0157 80.2458C57.1099 80.0342 57.3448 79.9579 57.575 79.849C57.6837 79.6518 57.6197 79.4546 57.6366 79.2418C57.6662 78.8059 58.452 78.8438 58.8966 78.8083C59.2849 78.7776 60.1614 79.0855 60.2133 78.5979C60.2332 78.4205 60.4 78.4301 60.525 78.3135C60.6796 78.177 60.5866 77.9564 60.7871 77.8475C61.0583 77.6984 61.042 77.3365 61.0523 77.1008C61.071 76.6884 61.4322 76.5886 61.7493 76.3397C62.1148 76.0511 62.5895 75.9429 62.7804 75.5094C62.8535 75.3392 62.8807 75.1498 62.8184 74.9611C62.7218 74.6821 62.4717 74.7146 62.218 74.5336Z" fill="#CCFF00"/>
<ellipse opacity="0.5" cx="48.8633" cy="69.176" rx="18.0449" ry="18.0449" fill="url(#paint0_radial_1060_43929)"/>
<path d="M45.2787 56.6013C43.9807 56.9491 42.7876 56.705 42.6137 56.056C42.4398 55.407 43.351 54.5989 44.6489 54.2511C45.9469 53.9033 47.14 54.1475 47.3139 54.7965C47.4878 55.4455 46.5767 56.2535 45.2787 56.6013Z" fill="#5528AD"/>
<path d="M44.7412 55.4016C44.2042 55.5455 43.7788 55.6999 43.6349 55.1629L35.8875 26.2493C35.7436 25.7123 36.0624 25.1602 36.5994 25.0163C37.1365 24.8724 37.6886 25.1911 37.8325 25.7282L45.5798 54.6417C45.7237 55.1787 45.2782 55.2577 44.7412 55.4016Z" fill="#CCCCCC"/>
<path d="M43.5701 51.9387C43.3015 52.0107 43.0939 52.1066 42.95 51.5696L36.2283 26.4839C36.0844 25.9469 36.2841 25.8213 36.5526 25.7494C36.8212 25.6774 37.0569 25.6863 37.2008 26.2234L43.9225 51.309C44.0664 51.846 43.8386 51.8667 43.5701 51.9387Z" fill="#EAEAEA"/>
<mask id="mask0_1060_43929" style="mask-type:alpha" maskUnits="userSpaceOnUse" x="37" y="19" width="23" height="21">
<path fill-rule="evenodd" clip-rule="evenodd" d="M37.7993 24.6697L55.6329 19.8912L59.7337 35.1959L41.9002 39.9744L37.7993 24.6697Z" fill="white"/>
</mask>
<g mask="url(#mask0_1060_43929)">
<path d="M41.2704 37.624L38.4291 27.0201C37.9867 25.369 39.3415 23.7889 41.0409 23.9742L55.7158 25.7893C57.7729 26.0438 58.4854 28.6653 56.8401 29.926L45.0687 38.946C43.691 39.9699 41.7147 39.282 41.2704 37.624Z" fill="#D30909"/>
</g>
<path d="M39.2888 27.4764C38.901 26.0294 40.0884 24.6446 41.5777 24.807L54.4391 26.3978C56.242 26.6208 56.8665 28.9184 55.4245 30.0232L45.1079 37.9285C43.9004 38.8259 42.1683 38.2231 41.779 36.7699L39.2888 27.4764Z" fill="#ED2424"/>
<defs>
<radialGradient id="paint0_radial_1060_43929" cx="0" cy="0" r="1" gradientUnits="userSpaceOnUse" gradientTransform="translate(49.9798 65.943) scale(16.9284)">
<stop stop-color="#00B3FF" stop-opacity="0.01"/>
<stop offset="0.5789" stop-color="#005D96" stop-opacity="0.4696"/>
<stop offset="0.876547" stop-color="#001F4B" stop-opacity="0.8331"/>
<stop offset="1" stop-color="#00072E"/>
</radialGradient>
</defs>
</svg>
