<svg xmlns="http://www.w3.org/2000/svg" xmlns:xlink="http://www.w3.org/1999/xlink" viewBox="0 0 60 60"><defs><style>.cls-1{fill:#235795;}.cls-2{fill:#68c1f8;}.cls-3{fill:#59b3ef;}.cls-4{fill:#fff;}.cls-4,.cls-5,.cls-6{isolation:isolate;opacity:0.2;}.cls-5{fill:#283237;}.cls-6{fill:url(#radial-gradient);}</style><radialGradient id="radial-gradient" cx="12.23" cy="1090.16" r="12.23" gradientTransform="translate(0 -1059.11)" gradientUnits="userSpaceOnUse"><stop offset="0" stop-color="#fff" stop-opacity="0.1"/><stop offset="1" stop-color="#fff" stop-opacity="0"/></radialGradient></defs><g id="icons"><path class="cls-1" d="M5,38.3.8,34.11A2.83,2.83,0,0,1,0,32.18a3.19,3.19,0,0,1,.32-1.12l3.87-8Z"/><path class="cls-2" d="M19.32,23.81l-4.19-4.18a2.84,2.84,0,0,0-1.77-.81,3,3,0,0,0-1.45.32L4.19,23Z"/><polygon class="cls-2" points="9.98 43.29 20.12 43.29 20.12 38.95 12.56 36.53 5.63 38.95 9.98 43.29"/><path class="cls-3" d="M4.19,36.05A2.44,2.44,0,0,0,5,38.3l.64.64H20.12L13,30.9,4.19,23Z"/><path class="cls-1" d="M17.06,23H4.19L20.12,38.94h4.35V29l-5.15-5.15A2.75,2.75,0,0,0,17.06,23Z"/><path class="cls-4" d="M5.15,38.46a3,3,0,0,1-.8-2.41V23.17L4.19,23v13a2.53,2.53,0,0,0,1,2.41l.48.48h0Z"/><polygon class="cls-5" points="24.31 28.8 24.31 38.78 19.96 38.78 20.12 38.95 24.47 38.95 24.47 28.96 24.31 28.8"/><path class="cls-4" d="M19.32,23.81A2.81,2.81,0,0,0,16.9,23H4.19l.16.16H16.9a3.36,3.36,0,0,1,2.42.64Z"/><path class="cls-6" d="M24.31,28.8l-5-5-4.19-4.18a2.84,2.84,0,0,0-1.77-.81,3,3,0,0,0-1.45.32L4.19,23l-3.87,8A3.42,3.42,0,0,0,0,32.18a2.81,2.81,0,0,0,.81,1.93l3.85,3.83A3.49,3.49,0,0,0,5,38.3l.16.16.48.48,4.19,4.19.16.16H20.12V38.94h4.34V29Z"/></g></svg>