<svg xmlns="http://www.w3.org/2000/svg" viewBox="0 0 60 60"><defs><style>.cls-1{fill:#eddb68;}.cls-2{fill:#323330;}</style></defs><g id="icons"><path class="cls-1" d="M0,44.49v-25H25v25Zm14.87-4.38.05.1a4,4,0,0,0,1.56,1.62,5.36,5.36,0,0,0,4.44.38,3,3,0,0,0,1.72-1.38A3.25,3.25,0,0,0,23,39a3,3,0,0,0-1.17-2.36,7.53,7.53,0,0,0-1.83-1c-.43-.19-.86-.37-1.28-.58a3,3,0,0,1-.58-.4,1,1,0,0,1,.44-1.7,1.63,1.63,0,0,1,.85,0,1.5,1.5,0,0,1,.89.69c.06.08.11.17.17.26l1.82-1.17a.08.08,0,0,1,0,0A3.35,3.35,0,0,0,20.26,31a4.75,4.75,0,0,0-2.34,0,3,3,0,0,0-2.35,2.94,3.16,3.16,0,0,0,1.48,2.86,11.76,11.76,0,0,0,1.21.65c.49.24,1,.43,1.49.67a3.39,3.39,0,0,1,.63.44,1,1,0,0,1,.27,1,1.07,1.07,0,0,1-.79.8,2.48,2.48,0,0,1-1.76-.06,2.7,2.7,0,0,1-1.24-1.12L16.78,39Zm-8.3.24s0,0,0,.06a3.55,3.55,0,0,0,1.75,1.75,4.46,4.46,0,0,0,2.86.22,2.82,2.82,0,0,0,1.89-1.31,3.66,3.66,0,0,0,.5-1.93c0-2.69,0-5.39,0-8.08a.34.34,0,0,0,0-.1H11.25v.17q0,3.86,0,7.72a4.17,4.17,0,0,1,0,.61,1,1,0,0,1-.47.79,1.48,1.48,0,0,1-1.58-.14,4.41,4.41,0,0,1-.47-.58,2.63,2.63,0,0,1-.2-.33Z"/><path class="cls-2" d="M14.87,40.11,16.78,39l.08.12a2.7,2.7,0,0,0,1.24,1.12,2.48,2.48,0,0,0,1.76.06,1.07,1.07,0,0,0,.79-.8,1,1,0,0,0-.27-1,3.39,3.39,0,0,0-.63-.44c-.49-.24-1-.43-1.49-.67a11.76,11.76,0,0,1-1.21-.65,3.16,3.16,0,0,1-1.48-2.86A3,3,0,0,1,17.92,31a4.75,4.75,0,0,1,2.34,0,3.35,3.35,0,0,1,2.07,1.69.08.08,0,0,0,0,0l-1.82,1.17c-.06-.09-.11-.18-.17-.26a1.5,1.5,0,0,0-.89-.69,1.63,1.63,0,0,0-.85,0,1,1,0,0,0-.44,1.7,3,3,0,0,0,.58.4c.42.21.85.39,1.28.58a7.53,7.53,0,0,1,1.83,1A3,3,0,0,1,23,39a3.25,3.25,0,0,1-.39,1.83,3,3,0,0,1-1.72,1.38,5.36,5.36,0,0,1-4.44-.38,4,4,0,0,1-1.56-1.62Z"/><path class="cls-2" d="M6.57,40.35,8.48,39.2a2.63,2.63,0,0,0,.2.33,4.41,4.41,0,0,0,.47.58,1.48,1.48,0,0,0,1.58.14,1,1,0,0,0,.47-.79,4.17,4.17,0,0,0,0-.61q0-3.87,0-7.72V31h2.33a.34.34,0,0,1,0,.1c0,2.69,0,5.39,0,8.08a3.66,3.66,0,0,1-.5,1.93,2.82,2.82,0,0,1-1.89,1.31,4.46,4.46,0,0,1-2.86-.22,3.55,3.55,0,0,1-1.75-1.75S6.58,40.38,6.57,40.35Z"/></g></svg>