<svg xmlns="http://www.w3.org/2000/svg" xmlns:xlink="http://www.w3.org/1999/xlink" viewBox="0 0 60 60"><defs><style>.cls-1{fill:none;}.cls-2{clip-path:url(#clip-path);}.cls-3{fill:#4a4f99;}.cls-4{fill:#f0af4d;}</style><clipPath id="clip-path"><rect class="cls-1" x="-11.53" width="60" height="60"/></clipPath></defs><g id="icons"><g class="cls-2"><path class="cls-3" d="M35.91,33.79a3.43,3.43,0,0,0-.56,0,4.64,4.64,0,0,0-2.45.7L25.61,39a4.67,4.67,0,0,0-3.39-1.45H8.16A7.5,7.5,0,0,0,.66,45v7.5H19.41a7.38,7.38,0,0,0,4-1.15l14.44-8.94a4.67,4.67,0,0,0-1.91-8.62Zm.93,7L22.39,49.76a5.55,5.55,0,0,1-3,.86H2.54V45a5.63,5.63,0,0,1,5.62-5.63H22.22a2.82,2.82,0,1,1,0,5.63H11.91v1.87H22.22a4.68,4.68,0,0,0,4.69-4.68,4.74,4.74,0,0,0-.3-1.65h0L33.88,36a2.85,2.85,0,0,1,1.47-.42l.34,0a2.81,2.81,0,0,1,1.15,5.17Z"/><path class="cls-4" d="M29.72,13.13a7.5,7.5,0,0,0-15,0c0,.23,0,.46,0,.68h0a7.5,7.5,0,0,0-2.85,5.88,5.07,5.07,0,0,0,0,.68A7.5,7.5,0,1,0,24.1,26.25c0-.23,0-.46,0-.69h0a7.45,7.45,0,0,0,2.85-5.87q0-.35,0-.69A7.47,7.47,0,0,0,29.72,13.13ZM22.22,7.5a5.64,5.64,0,0,1,5.63,5.63,5.57,5.57,0,0,1-1.48,3.78h0a7.51,7.51,0,0,0-7-4.73,7.38,7.38,0,0,0-2.79.54h0A5.62,5.62,0,0,1,22.22,7.5ZM16.6,31.87a5.63,5.63,0,1,1,5.62-5.62A5.63,5.63,0,0,1,16.6,31.87Zm7-8.4h0a7.5,7.5,0,0,0-7-4.72,7.57,7.57,0,0,0-2.79.54,5.62,5.62,0,1,1,9.75,4.18Z"/></g></g></svg>