<svg xmlns="http://www.w3.org/2000/svg" xmlns:xlink="http://www.w3.org/1999/xlink" viewBox="0 0 60 60"><defs><style>.cls-1{fill:none;}.cls-2{clip-path:url(#clip-path);}.cls-3{fill:#f0af4d;}.cls-4{fill:#4a4f99;}</style><clipPath id="clip-path"><rect class="cls-1" x="-3.66" width="60" height="60"/></clipPath></defs><g id="icons"><g class="cls-2"><path class="cls-3" d="M34.77,15a4.69,4.69,0,1,1-4.68,4.69A4.69,4.69,0,0,1,34.77,15m0-1.88a6.57,6.57,0,1,0,6.57,6.57,6.57,6.57,0,0,0-6.57-6.57Z"/><path class="cls-4" d="M27.27,43.12a2.82,2.82,0,1,1-2.81,2.82,2.83,2.83,0,0,1,2.81-2.82m0-1.87A4.69,4.69,0,1,0,32,45.94a4.68,4.68,0,0,0-4.69-4.69Z"/><path class="cls-4" d="M22.59,20.62V33.75H2V20.62H22.59m1.87-1.87H.09V35.62H24.46V18.75Z"/><rect class="cls-4" x="1.96" y="23.44" width="22.5" height="1.88"/><rect class="cls-4" x="5.71" y="29.06" width="5.63" height="1.88"/><polygon class="cls-4" points="15.09 9.38 31.96 9.38 31.96 7.5 13.21 7.5 13.21 16.88 15.09 16.88 15.09 9.38"/><polygon class="cls-4" points="39.46 28.13 39.46 52.5 15.09 52.5 15.09 37.5 13.21 37.5 13.21 54.38 41.34 54.38 41.34 28.13 39.46 28.13"/><path class="cls-3" d="M40.4,7.5a6.56,6.56,0,0,0-6.5,5.69,6.38,6.38,0,0,1,.87-.07,6.79,6.79,0,0,1,1,.09,4.69,4.69,0,1,1,5.46,5.46,6.79,6.79,0,0,1,.09,1,6.38,6.38,0,0,1-.07.87A6.56,6.56,0,0,0,40.4,7.5Z"/></g></g></svg>