<svg xmlns="http://www.w3.org/2000/svg" xmlns:xlink="http://www.w3.org/1999/xlink" viewBox="0 0 60 60"><defs><style>.cls-1{fill:none;}.cls-2{clip-path:url(#clip-path);}.cls-3{fill:#4a4f99;}.cls-4{fill:#f0af4d;}</style><clipPath id="clip-path"><rect class="cls-1" x="-10.26" width="60" height="60"/></clipPath></defs><g id="icons"><g class="cls-2"><path class="cls-3" d="M39.43,34.22a8.43,8.43,0,0,0-3-6.43A7.43,7.43,0,0,0,36,19.28a4.67,4.67,0,0,1-1.29,1.4,5.6,5.6,0,0,1,.2,6.14L34,28.19l1.22,1a6.56,6.56,0,0,1-2.07,11.19l-1.25.44v1.4a5.63,5.63,0,0,1-11.25-.06V21.46a6.53,6.53,0,0,0,4.69,2V21.56a4.69,4.69,0,1,1,0-9.37h0a4.65,4.65,0,0,1,3.28,1.34,4.68,4.68,0,0,1,1.6-1,6.53,6.53,0,0,0-10.51,1A6.55,6.55,0,0,0,7.57,16.65,7.47,7.47,0,0,0,3,27.79,8.44,8.44,0,0,0,5.68,42.17v0a7.5,7.5,0,0,0,7.5,7.5h0a7.49,7.49,0,0,0,6.56-3.87,7.5,7.5,0,0,0,14.07-3.63v0A8.43,8.43,0,0,0,39.43,34.22Zm-31.87,8h0V40.85l-1.25-.44A6.56,6.56,0,0,1,4.24,29.22l1.22-1-.83-1.37A5.6,5.6,0,0,1,8,18.47l1.36-.35,0-1.41a4.69,4.69,0,0,1,9.37.16V37.24a7.49,7.49,0,0,0-5.63-2.55v1.87a5.63,5.63,0,1,1-5.62,5.69Z"/><path class="cls-4" d="M31.93,14.06a2.82,2.82,0,1,1-2.81,2.81,2.81,2.81,0,0,1,2.81-2.81m0-1.87a4.69,4.69,0,1,0,4.69,4.68,4.69,4.69,0,0,0-4.69-4.68Z"/></g></g></svg>