<svg xmlns="http://www.w3.org/2000/svg" xmlns:xlink="http://www.w3.org/1999/xlink" viewBox="0 0 60 60"><defs><style>.cls-1,.cls-4{fill:none;}.cls-2{fill:#383c74;}.cls-3{clip-path:url(#clip-path);}.cls-4{stroke:#7783cc;stroke-miterlimit:10;}</style><clipPath id="clip-path"><rect class="cls-1" x="-1426.15" y="603.88" width="1320.28" height="667.91" transform="translate(-1532.02 1875.67) rotate(-180)"/></clipPath></defs><g id="icons"><path class="cls-2" d="M35.3,12.4c-.59.35-1.23.78-1.87,1.23a6.18,6.18,0,0,0-2.65,3.14c-.61,1.84,1.87,3.12,3.23,2.55a12,12,0,0,1,3.48-.86c1.35-.23,2.79,0,4.12-.32a9.67,9.67,0,0,0,1.18-.33,28.87,28.87,0,0,0-5.72-6.49A14.48,14.48,0,0,1,35.3,12.4"/><path class="cls-2" d="M30.79,8.91A8.11,8.11,0,0,0,26.52,10a8.61,8.61,0,0,0-2.73,2.88,28.25,28.25,0,0,1-7,8.07h0c-.22.17-.87.64-1.08.82,2.18-.89,4.67-1.5,6.82-2.48a33.28,33.28,0,0,0,3.94-2.13C28.57,15.87,30,13.7,32,12.33a39.71,39.71,0,0,1,3.35-2.18,9,9,0,0,0-4.54-1.24"/><path class="cls-2" d="M16.14,31.47a42.33,42.33,0,0,0,12.33-2.85c2.29-.86,4.38-2.49,6.75-3.11a22,22,0,0,1,7.24-1c1.3,0,1.81.44,3.29.24A3.38,3.38,0,0,0,47,24.29c-.81-1.38-1.7-2.78-2.57-4.11a10.59,10.59,0,0,0-2.62-.39,12.52,12.52,0,0,0-4.87.6c-1.57.55-2.82,1.93-4.63,1.19-1.63-.66-1.59-2.78-3.55-3-1.45-.18-3.26,1.07-4.57,1.55-2.94,1.09-5.5,3-8.45,4a15.49,15.49,0,0,1-2.4.6l-.82.11a5.41,5.41,0,0,0-.89,2.58c-.14,1.79.76,2.73,1.64,3.88a8.17,8.17,0,0,0,2.9.15"/><path class="cls-2" d="M39.76,37.54c-.26.22-.79.54-1.06.72-1.56,1-3.14,2.08-4.79,3-3.46,2-7.89,4.4-12.3,2.6A18.1,18.1,0,0,1,17,40.71a14.27,14.27,0,0,0,3.67,5.66c3.73,3.32,9.31.6,12.56-2a48.57,48.57,0,0,0,6.5-6.86s0,0,0,0"/><path class="cls-2" d="M44.84,32.61c2.39-1.72,4.64-3.52,3-6.64l-.25-.46a3.5,3.5,0,0,1-1.46.82,18.06,18.06,0,0,1-3.18-.1,16.72,16.72,0,0,0-4.24.13c-3.24.63-5.85,2.33-8.59,3.81-2,1.08-3.8,2.81-6,3.61-2.64,1-5.14.69-7.9.72-.42,0-.85,0-1.27,0a34.08,34.08,0,0,1,1.19,3.41l.06,0a15.91,15.91,0,0,0,4,1.87,23.25,23.25,0,0,0,6.79.58c3.83-.34,7.83-2.22,11-3.9.84-.44,2.24-1.2,3.12-1.68.53-.29,1.21-.66,1.74-1Z"/></g><g id="header_ver02"><g class="cls-3"><path class="cls-4" d="M86.79,850.92s-306.3,16-434-144.23S-315.69,457.1-385.43,291-627.7,29.77-627.7,29.77"/></g></g></svg>