<svg xmlns="http://www.w3.org/2000/svg" xmlns:xlink="http://www.w3.org/1999/xlink" viewBox="0 0 60 60"><defs><style>.cls-1{fill:none;}.cls-2{clip-path:url(#clip-path);}.cls-3{fill:#4a4f99;}.cls-4{fill:#f0af4d;}.cls-5{clip-path:url(#clip-path-2);}.cls-6{fill:#eaf1fd;}</style><clipPath id="clip-path"><rect class="cls-1" width="60" height="60"/></clipPath><clipPath id="clip-path-2"><rect class="cls-1" x="-496.59" y="603.88" width="1320.28" height="667.91" transform="translate(327.1 1875.67) rotate(-180)"/></clipPath></defs><g id="icons"><g class="cls-2"><path class="cls-3" d="M7.5,14.06v3.85a4.83,4.83,0,0,1,.94-.1,4.92,4.92,0,0,1,.94.1v-2H50.62v5.62H13a5,5,0,0,1,0,1.88H50.62V44.06H9.38v-17a4.92,4.92,0,0,1-.94.1,4.83,4.83,0,0,1-.94-.1V45.94h45V14.06Z"/><path class="cls-4" d="M8.44,19.69A2.81,2.81,0,1,1,5.62,22.5a2.81,2.81,0,0,1,2.82-2.81m0-1.88a4.69,4.69,0,1,0,4.68,4.69,4.69,4.69,0,0,0-4.68-4.69Z"/><rect class="cls-3" x="16.88" y="27.19" width="15" height="1.88"/><rect class="cls-3" x="22.5" y="32.81" width="15" height="1.88"/><rect class="cls-3" x="22.5" y="38.44" width="15" height="1.88"/></g></g><g id="header_ver02"><g class="cls-5"><path class="cls-6" d="M207.81-94.36s301.44,275.58,138.67,570,0,440.81-136,513.08S-415.35,877.52-416.06,395.42,207.81-94.36,207.81-94.36Z"/></g></g></svg>