<svg xmlns="http://www.w3.org/2000/svg" xmlns:xlink="http://www.w3.org/1999/xlink" viewBox="0 0 60 60"><defs><style>.cls-1{fill:none;}.cls-2{clip-path:url(#clip-path);}.cls-3{fill:#f0af4d;}.cls-4{fill:#4a4f99;}</style><clipPath id="clip-path"><rect class="cls-1" width="60" height="60"/></clipPath></defs><g id="Layer_2" data-name="Layer 2"><g class="cls-2"><path class="cls-3" d="M26.25,39.38a2.81,2.81,0,1,1-2.81,2.81,2.81,2.81,0,0,1,2.81-2.81m0-1.88a4.69,4.69,0,1,0,4.69,4.69,4.69,4.69,0,0,0-4.69-4.69Z"/><path class="cls-3" d="M53.44,19.65a2.82,2.82,0,1,1-2.82,2.82,2.81,2.81,0,0,1,2.82-2.82m0-1.87a4.69,4.69,0,1,0,4.68,4.69,4.69,4.69,0,0,0-4.68-4.69Z"/><polygon class="cls-4" points="39.38 13.13 41.25 13.13 41.25 7.5 35.63 7.5 35.63 9.38 39.38 9.38 39.38 13.13"/><rect class="cls-4" x="18.75" y="7.5" width="6.56" height="1.88"/><rect class="cls-4" x="27.19" y="7.5" width="6.56" height="1.88"/><rect class="cls-4" x="39.38" y="15" width="1.88" height="6.56"/><path class="cls-4" d="M40.38,42.19,56.75,25.78a4.66,4.66,0,0,1-3.31,1.37,4.89,4.89,0,0,1-.66,0L39.61,40.31l-4,0v-4L48.8,23.13a4.89,4.89,0,0,1,0-.66,4.67,4.67,0,0,1,1.37-3.32L41.25,28v-4.6H39.38v6.48l-5.63,5.64v6.59l5.63,0v8.44H13.12V9.38h3.76V7.5H11.25v45h30V41.31l-.87.88Z"/></g></g></svg>