<svg xmlns="http://www.w3.org/2000/svg" xmlns:xlink="http://www.w3.org/1999/xlink" viewBox="0 0 60 60"><defs><style>.cls-1{fill:none;}.cls-2{clip-path:url(#clip-path);}.cls-3{fill:#4a4f99;}.cls-4{fill:#f0af4d;}</style><clipPath id="clip-path"><rect class="cls-1" width="60" height="60"/></clipPath></defs><g id="icons"><g class="cls-2"><path class="cls-3" d="M19.69,37.61l6.19,11.14H13.5l6.19-11.14m0-3.86L10.31,50.62H29.06L19.69,33.75Z"/><path class="cls-3" d="M41.25,35.62a6.57,6.57,0,1,1-6.56,6.57,6.57,6.57,0,0,1,6.56-6.57m0-1.87a8.44,8.44,0,1,0,8.44,8.44,8.44,8.44,0,0,0-8.44-8.44Z"/><path class="cls-3" d="M37.5,18.75a4.91,4.91,0,0,1-.94-.09v9.46H23.44V15h9.47a4.83,4.83,0,0,1-.1-.94,4.92,4.92,0,0,1,.1-.94H21.56V30H38.44V18.66A4.91,4.91,0,0,1,37.5,18.75Z"/><path class="cls-4" d="M37.5,11.25a2.82,2.82,0,1,1-2.81,2.81,2.81,2.81,0,0,1,2.81-2.81m0-1.87a4.69,4.69,0,1,0,4.69,4.68A4.68,4.68,0,0,0,37.5,9.38Z"/></g></g></svg>