<svg id="Warstwa_1" data-name="Warstwa 1" xmlns="http://www.w3.org/2000/svg" xmlns:xlink="http://www.w3.org/1999/xlink" viewBox="0 0 60 60"><defs><style>.cls-1{fill:none;}.cls-2{clip-path:url(#clip-path);}.cls-3{fill:#f0af4d;}.cls-4{fill:#4a4f99;}</style><clipPath id="clip-path"><rect class="cls-1" width="60" height="60"/></clipPath></defs><g class="cls-2"><path class="cls-3" d="M34.69,30.94a2.81,2.81,0,1,1-2.81,2.81,2.81,2.81,0,0,1,2.81-2.81h0m0-1.88a4.69,4.69,0,1,0,4.69,4.69h0A4.69,4.69,0,0,0,34.69,29.06Z"/><path class="cls-4" d="M46.88,18.75v-7.5H14.06a4.68,4.68,0,0,0-4.68,4.69h0V44.06a4.68,4.68,0,0,0,4.68,4.69H50.62v-30ZM14.06,13.12H45v5.63H14.06a2.82,2.82,0,0,1,0-5.63ZM38.44,30.94H48.75v5.62H38.43a4.68,4.68,0,0,1-3.75,1.88H48.75v8.44H14.06a2.81,2.81,0,0,1-2.81-2.82h0V19.69a4.61,4.61,0,0,0,2.81.93H48.75v8.44H34.69a4.67,4.67,0,0,1,3.74,1.88Z"/></g></svg>