<svg id="Warstwa_1" data-name="Warstwa 1" xmlns="http://www.w3.org/2000/svg" xmlns:xlink="http://www.w3.org/1999/xlink" viewBox="0 0 60 60"><defs><style>.cls-1{fill:none;}.cls-2{clip-path:url(#clip-path);}.cls-3{fill:#4a4f99;}.cls-4{fill:#f0af4d;}</style><clipPath id="clip-path"><rect class="cls-1" width="60" height="60"/></clipPath></defs><g class="cls-2"><path class="cls-3" d="M47.39,40.53h0a9.37,9.37,0,1,0-1.32,1.32h0l5.27,5.27,1.32-1.33Zm-7.25,1.56a7.5,7.5,0,1,1,7.5-7.5,7.49,7.49,0,0,1-7.5,7.5h0Z"/><rect class="cls-3" x="15.83" y="15" width="18.75" height="1.88"/><rect class="cls-3" x="15.83" y="20.63" width="11.45" height="1.88"/><path class="cls-4" d="M43,13.13a2.81,2.81,0,1,1-2.81,2.81A2.81,2.81,0,0,1,43,13.13h0m0-1.88a4.69,4.69,0,1,0,4.69,4.69A4.69,4.69,0,0,0,43,11.25Z"/><path class="cls-3" d="M42.08,20.53v6.3H44v-6.3a4.9,4.9,0,0,1-1.87,0Z"/><path class="cls-3" d="M42.08,42.26v8.36h-30V9.38h30v2a4.9,4.9,0,0,1,1.87,0V7.5H10.2v45H44V42.26Z"/></g></svg>