<svg id="Warstwa_1" data-name="Warstwa 1" xmlns="http://www.w3.org/2000/svg" xmlns:xlink="http://www.w3.org/1999/xlink" viewBox="0 0 60 60"><defs><style>.cls-1{fill:none;}.cls-2{clip-path:url(#clip-path);}.cls-3{fill:#4a4f99;}.cls-4{fill:#f0af4d;}</style><clipPath id="clip-path"><rect class="cls-1" width="60" height="60"/></clipPath></defs><g class="cls-2"><path class="cls-3" d="M46.82,10.31c0,9.42-.09,17-2.2,23.32C42.37,40.46,37.82,45.37,30,49.46c-7.6-4-12.25-9.26-14.58-16.46-2.1-6.53-2.25-14-2.25-22.68H46.81m1.88-1.88H11.31c0,18.75-.05,33.75,18.69,43.13,18.75-9.38,18.75-22.5,18.69-43.13Z"/><path class="cls-4" d="M38.44,15.94a2.81,2.81,0,1,1-2.82,2.81,2.81,2.81,0,0,1,2.82-2.81m0-1.88a4.69,4.69,0,1,0,4.68,4.69A4.69,4.69,0,0,0,38.44,14.06Z"/><polygon class="cls-3" points="37.51 26.25 30.95 26.25 30.95 19.69 29.07 19.69 29.07 26.25 22.51 26.25 22.51 28.13 29.07 28.13 29.07 34.69 30.95 34.69 30.95 28.13 37.51 28.13 37.51 26.25"/></g></svg>