<svg id="Warstwa_1" data-name="Warstwa 1" xmlns="http://www.w3.org/2000/svg" xmlns:xlink="http://www.w3.org/1999/xlink" viewBox="0 0 60 60"><defs><style>.cls-1{fill:none;}.cls-2{clip-path:url(#clip-path);}.cls-3{fill:#4a4f99;}.cls-4{fill:#f0af4d;}</style><clipPath id="clip-path"><rect class="cls-1" width="60" height="60"/></clipPath></defs><g class="cls-2"><path class="cls-3" d="M47.56,19.19a4.51,4.51,0,0,1-1.5,1.12,18.78,18.78,0,1,1-6.2-6.26A4.72,4.72,0,0,1,41,12.55a20.62,20.62,0,1,0,6.58,6.64Z"/><path class="cls-4" d="M44.06,13.27a2.81,2.81,0,1,1-2.81,2.81h0a2.81,2.81,0,0,1,2.81-2.81m0-1.88a4.69,4.69,0,1,0,4.69,4.69A4.68,4.68,0,0,0,44.06,11.39Z"/><path class="cls-3" d="M27.19,24.87,35.73,30l-8.54,5.13V24.87m-1.88-3.31V38.44L39.38,30Z"/></g></svg>