<svg id="Warstwa_1" data-name="Warstwa 1" xmlns="http://www.w3.org/2000/svg" xmlns:xlink="http://www.w3.org/1999/xlink" viewBox="0 0 60 60"><defs><style>.cls-1{fill:none;}.cls-2{clip-path:url(#clip-path);}.cls-3{fill:#f0af4d;}.cls-4{fill:#4a4f99;}</style><clipPath id="clip-path"><rect class="cls-1" width="60" height="60"/></clipPath></defs><g class="cls-2"><path class="cls-3" d="M52.5,27.19A2.81,2.81,0,1,1,49.69,30a2.81,2.81,0,0,1,2.81-2.81h0m0-1.88A4.69,4.69,0,1,0,57.19,30h0A4.69,4.69,0,0,0,52.5,25.31Z"/><path class="cls-4" d="M45,21.56l-15-15-15,15H4.69l7.5,26.25H47.81L51.59,34.6a4.58,4.58,0,0,1-1.74-.75L46.4,45.92H13.6L7.17,23.42H52.83l-.54,1.88h.21a4.6,4.6,0,0,1,1.65.3l1.16-4Zm-27.35,0L30,9.21,42.35,21.56Z"/><rect class="cls-4" x="17.81" y="27.19" width="1.88" height="15"/><rect class="cls-4" x="29.06" y="27.19" width="1.88" height="15"/><rect class="cls-4" x="40.31" y="27.19" width="1.88" height="15"/></g></svg>