<svg xmlns="http://www.w3.org/2000/svg" xmlns:xlink="http://www.w3.org/1999/xlink" viewBox="0 0 60 60"><defs><style>.cls-1{fill:none;}.cls-2{clip-path:url(#clip-path);}.cls-3{fill:#4a4f99;}.cls-4{fill:#f0af4d;}.cls-5{clip-path:url(#clip-path-2);}.cls-6{fill:#eaf1fd;}</style><clipPath id="clip-path"><rect class="cls-1" x="-8.18" width="60" height="60"/></clipPath><clipPath id="clip-path-2"><rect class="cls-1" x="-229.24" y="603.88" width="1320.28" height="667.91" transform="translate(861.8 1875.67) rotate(-180)"/></clipPath></defs><g id="icons"><g class="cls-2"><path class="cls-3" d="M40.57,30.94a18.61,18.61,0,0,1-.76,5.25,4.69,4.69,0,0,1,1.4.53l.34.22A20.63,20.63,0,0,0,26.48,10.85c0,.13,0,.26,0,.4a4.44,4.44,0,0,1-.24,1.47A18.8,18.8,0,0,1,40.57,30.94Z"/><path class="cls-3" d="M2.42,36.72a4.69,4.69,0,0,1,1.4-.53A18.76,18.76,0,0,1,17.37,12.72a4.44,4.44,0,0,1-.24-1.47c0-.14,0-.27,0-.4A20.63,20.63,0,0,0,2.08,36.94Z"/><path class="cls-3" d="M36.52,44.84a4.5,4.5,0,0,1-1.16-1,18.72,18.72,0,0,1-27.09,0,4.5,4.5,0,0,1-1.16,1L6.75,45a20.62,20.62,0,0,0,30.13,0Z"/><path class="cls-4" d="M21.82,8.44A2.81,2.81,0,1,1,19,11.25a2.81,2.81,0,0,1,2.82-2.81m0-1.88a4.69,4.69,0,1,0,4.68,4.69,4.69,4.69,0,0,0-4.68-4.69Z"/><path class="cls-4" d="M4.76,38h0a2.81,2.81,0,0,1,1.41,5.25,2.87,2.87,0,0,1-1.4.37,2.82,2.82,0,0,1-2.44-1.4,2.81,2.81,0,0,1,1-3.84A2.78,2.78,0,0,1,4.76,38m0-1.88a4.75,4.75,0,0,0-2.34.63,4.68,4.68,0,1,0,2.34-.63Z"/><path class="cls-4" d="M38.87,38h0a2.81,2.81,0,0,1,2.43,4.22,2.82,2.82,0,0,1-2.44,1.4,2.87,2.87,0,0,1-1.4-.37A2.81,2.81,0,0,1,38.87,38m0-1.88a4.69,4.69,0,1,0,2.34.63,4.75,4.75,0,0,0-2.34-.63Z"/></g></g><g id="header_ver02"><g class="cls-5"><path class="cls-6" d="M475.16-94.36s301.44,275.58,138.68,570,0,440.81-136,513.08S-148,877.52-148.71,395.42,475.16-94.36,475.16-94.36Z"/></g></g></svg>