<svg xmlns="http://www.w3.org/2000/svg" xmlns:xlink="http://www.w3.org/1999/xlink" viewBox="0 0 60 60"><defs><style>.cls-1,.cls-5{fill:none;}.cls-2{fill:#4a4f99;}.cls-3{fill:#f0af4d;}.cls-4{clip-path:url(#clip-path);}.cls-5{stroke:#7783cc;stroke-miterlimit:10;}</style><clipPath id="clip-path"><rect class="cls-1" x="-915.7" y="603.88" width="1320.28" height="667.91" transform="translate(-511.13 1875.67) rotate(-180)"/></clipPath></defs><g id="icons"><path class="cls-2" d="M19.19,12.6c5,0,9.16,8,9.16,17.4s-4.19,17.4-9.16,17.4S10,39.43,10,30s4.19-17.4,9.15-17.4m0-1.65c-6,0-10.8,8.53-10.8,19.05s4.83,19,10.8,19S30,40.52,30,30,25.16,11,19.19,11Z"/><path class="cls-2" d="M35,19.3a3.5,3.5,0,0,1-1.31,1A17.42,17.42,0,1,1,29,15.64a3.54,3.54,0,0,1,1-1.29,19,19,0,1,0,4.92,5Z"/><path class="cls-3" d="M32.18,14.54a2.6,2.6,0,1,1-2.6,2.6,2.61,2.61,0,0,1,2.6-2.6m0-1.73a4.33,4.33,0,1,0,4.33,4.33,4.33,4.33,0,0,0-4.33-4.33Z"/><polygon class="cls-2" points="20.06 11.82 18.33 11.82 18.33 48.18 20.06 48.18 20.06 11.82 20.06 11.82"/><polygon class="cls-2" points="37.38 29.13 1.01 29.13 1.01 30.87 37.38 30.87 37.38 29.13 37.38 29.13"/></g><g id="header_ver02"><g class="cls-4"><path class="cls-5" d="M597.24,850.92s-306.31,16-434-144.23S194.76,457.1,125,291-117.26,29.77-117.26,29.77"/></g></g></svg>