<svg xmlns="http://www.w3.org/2000/svg" xmlns:xlink="http://www.w3.org/1999/xlink" viewBox="0 0 60 60"><defs><style>.cls-1{fill:none;}.cls-2{clip-path:url(#clip-path);}.cls-3{fill:#4a4f99;}.cls-4{fill:#f0af4d;}.cls-5{clip-path:url(#clip-path-2);}.cls-6{fill:#eaf1fd;}</style><clipPath id="clip-path"><rect class="cls-1" x="-3.65" width="60" height="60"/></clipPath><clipPath id="clip-path-2"><rect class="cls-1" x="-659.33" y="603.88" width="1320.28" height="667.91" transform="translate(1.61 1875.67) rotate(-180)"/></clipPath></defs><g id="icons"><g class="cls-2"><polygon class="cls-3" points="48.85 45.94 3.85 45.94 3.85 47.81 48.85 47.81 48.85 45.94 48.85 45.94"/><path class="cls-3" d="M3.85,12.19V16a4.91,4.91,0,0,1,.94-.09,4.83,4.83,0,0,1,.94.09v-2H47V40.31H5.73V25.22a4.83,4.83,0,0,1-.94.09,4.91,4.91,0,0,1-.94-.09v17h45v-30Z"/><path class="cls-4" d="M4.79,17.81A2.82,2.82,0,1,1,2,20.62a2.81,2.81,0,0,1,2.81-2.81m0-1.87a4.69,4.69,0,1,0,4.69,4.68,4.69,4.69,0,0,0-4.69-4.68Z"/><path class="cls-4" d="M16,17.81a2.82,2.82,0,1,1-2.81,2.81A2.81,2.81,0,0,1,16,17.81m0-1.87a4.69,4.69,0,1,0,4.69,4.68A4.69,4.69,0,0,0,16,15.94Z"/><path class="cls-4" d="M27.29,17.81a2.82,2.82,0,1,1-2.81,2.81,2.81,2.81,0,0,1,2.81-2.81m0-1.87A4.69,4.69,0,1,0,32,20.62a4.69,4.69,0,0,0-4.69-4.68Z"/></g></g><g id="header_ver02"><g class="cls-5"><path class="cls-6" d="M45.07-94.36s301.44,275.58,138.67,570,0,440.81-136,513.08S-578.09,877.52-578.81,395.42,45.07-94.36,45.07-94.36Z"/></g></g></svg>