<svg xmlns="http://www.w3.org/2000/svg" xmlns:xlink="http://www.w3.org/1999/xlink" viewBox="0 0 60 60"><defs><style>.cls-1{fill:none;}.cls-2{clip-path:url(#clip-path);}.cls-3{fill:#4a4f99;}.cls-4{fill:#f0af4d;}.cls-5{clip-path:url(#clip-path-2);}.cls-6{fill:#eaf1fd;}</style><clipPath id="clip-path"><rect class="cls-1" x="-13.08" width="60" height="60"/></clipPath><clipPath id="clip-path-2"><rect class="cls-1" x="-318.86" y="603.88" width="1320.28" height="667.91" transform="translate(682.57 1875.67) rotate(-180)"/></clipPath></defs><g id="icons"><g class="cls-2"><path class="cls-3" d="M32.36,17.57a4.75,4.75,0,0,1-1.61,1,15,15,0,0,1-7.17,19.22l-1,.52v5.73H11.29V38.33l-1-.52a15,15,0,1,1,14.83-26,4.67,4.67,0,0,1,1.29-1.4,16.87,16.87,0,1,0-17,29.09v8.32A4.69,4.69,0,0,0,14.1,52.5h5.63a4.69,4.69,0,0,0,4.69-4.69V39.49a16.88,16.88,0,0,0,7.94-21.92ZM22.54,46.88v.93a2.81,2.81,0,0,1-2.81,2.81H14.1a2.81,2.81,0,0,1-2.81-2.81V45.94H22.54Z"/><path class="cls-4" d="M29.1,11.39a2.82,2.82,0,1,1-2.81,2.81,2.81,2.81,0,0,1,2.81-2.81m0-1.87a4.69,4.69,0,1,0,4.69,4.68A4.69,4.69,0,0,0,29.1,9.52Z"/></g></g><g id="header_ver02"><g class="cls-5"><path class="cls-6" d="M385.54-94.36S687,181.22,524.22,475.68s0,440.81-136,513.08S-237.62,877.52-238.33,395.42,385.54-94.36,385.54-94.36Z"/></g></g></svg>