<svg xmlns="http://www.w3.org/2000/svg" xmlns:xlink="http://www.w3.org/1999/xlink" viewBox="0 0 60 60"><defs><style>.cls-1,.cls-6{fill:none;}.cls-2{clip-path:url(#clip-path);}.cls-3{fill:#4a4f99;}.cls-4{fill:#f0af4d;}.cls-5{clip-path:url(#clip-path-2);}.cls-6{stroke:#7783cc;stroke-miterlimit:10;}</style><clipPath id="clip-path"><rect class="cls-1" x="-12.07" width="60" height="60"/></clipPath><clipPath id="clip-path-2"><rect class="cls-1" x="-1251.64" y="603.88" width="1320.28" height="667.91" transform="translate(-1183 1875.67) rotate(-180)"/></clipPath></defs><g id="icons"><g class="cls-2"><path class="cls-3" d="M24.49,7V35.16H7.61V7H24.49m1.87-1.87H5.74V37H26.36V5.16Z"/><path class="cls-4" d="M16.05,25.78a2.82,2.82,0,1,1-2.81,2.81,2.81,2.81,0,0,1,2.81-2.81m0-1.87a4.69,4.69,0,1,0,4.69,4.68,4.68,4.68,0,0,0-4.69-4.68Z"/><path class="cls-3" d="M35.36,36.13a5.09,5.09,0,0,0-.56,0,4.67,4.67,0,0,0-2.45.7L25.06,41.3a4.63,4.63,0,0,0-3.38-1.46H7.61a7.5,7.5,0,0,0-7.5,7.5v7.5H18.86a7.46,7.46,0,0,0,4-1.14l14.45-8.94a4.69,4.69,0,0,0-1.92-8.63Zm.93,7-14.45,9a5.64,5.64,0,0,1-3,.86H2V47.34a5.62,5.62,0,0,1,5.62-5.62H21.68a2.81,2.81,0,0,1,0,5.62H11.36v1.88H21.68a4.68,4.68,0,0,0,4.38-6.33h0l7.27-4.5A2.78,2.78,0,0,1,34.8,38l.34,0a2.81,2.81,0,0,1,2.47,2.79A2.78,2.78,0,0,1,36.29,43.16Z"/></g></g><g id="header_ver02"><g class="cls-5"><path class="cls-6" d="M261.3,850.92s-306.3,16-434-144.23S-141.18,457.1-210.92,291-453.19,29.77-453.19,29.77"/></g></g></svg>