<svg xmlns="http://www.w3.org/2000/svg" xmlns:xlink="http://www.w3.org/1999/xlink" viewBox="0 0 60 60"><defs><style>.cls-1,.cls-6{fill:none;}.cls-2{clip-path:url(#clip-path);}.cls-3{fill:#f0af4d;}.cls-4{fill:#4a4f99;}.cls-5{clip-path:url(#clip-path-2);}.cls-6{stroke:#7783cc;stroke-miterlimit:10;}</style><clipPath id="clip-path"><rect class="cls-1" x="-3.65" width="60" height="60"/></clipPath><clipPath id="clip-path-2"><rect class="cls-1" x="-999.45" y="603.88" width="1320.28" height="667.91" transform="translate(-678.62 1875.67) rotate(-180)"/></clipPath></defs><g id="icons"><g class="cls-2"><path class="cls-3" d="M2,45.94a2.81,2.81,0,1,1,2.81,2.81A2.82,2.82,0,0,1,2,45.94m-1.88,0a4.69,4.69,0,1,0,4.69-4.69A4.68,4.68,0,0,0,.1,45.94Z"/><path class="cls-3" d="M45.1,45.94a2.82,2.82,0,1,1,2.82,2.81,2.83,2.83,0,0,1-2.82-2.81m-1.87,0a4.69,4.69,0,1,0,4.69-4.69,4.68,4.68,0,0,0-4.69,4.69Z"/><path class="cls-3" d="M23.54,45.94a2.82,2.82,0,1,1,2.81,2.81,2.82,2.82,0,0,1-2.81-2.81m-1.87,0a4.69,4.69,0,1,0,4.68-4.69,4.67,4.67,0,0,0-4.68,4.69Z"/><path class="cls-4" d="M27.29,30.94V24.38H37.6v-7.6a4.42,4.42,0,0,1-1.87,0V22.5H17V13.12H32.07a4.73,4.73,0,0,1-.09-.93,4.83,4.83,0,0,1,.09-.94h-17V24.38H25.42v6.56H3.85v8.44H5.73V32.81H25.42v6.57h1.87V32.81H47v6.57h1.87V30.94Z"/><path class="cls-3" d="M36.67,9.38a2.81,2.81,0,1,1-2.82,2.81,2.81,2.81,0,0,1,2.82-2.81m0-1.88a4.69,4.69,0,1,0,4.68,4.69A4.69,4.69,0,0,0,36.67,7.5Z"/></g></g><g id="header_ver02"><g class="cls-5"><path class="cls-6" d="M513.49,850.92s-306.3,16-434-144.23S111,457.1,41.27,291-201,29.77-201,29.77"/></g></g></svg>