<svg xmlns="http://www.w3.org/2000/svg" xmlns:xlink="http://www.w3.org/1999/xlink" viewBox="0 0 60 60"><defs><style>.cls-1,.cls-7{fill:none;}.cls-2{clip-path:url(#clip-path);}.cls-3{fill:#f0af4d;}.cls-4{fill:#4a4f99;}.cls-5{clip-path:url(#clip-path-2);}.cls-6{fill:#eaf1fd;}.cls-7{stroke:#7783cc;stroke-miterlimit:10;}</style><clipPath id="clip-path"><rect class="cls-1" x="-14.02" width="60" height="60"/></clipPath><clipPath id="clip-path-2"><rect class="cls-1" x="-832.64" y="603.88" width="1320.28" height="667.91" transform="translate(-345 1875.67) rotate(-180)"/></clipPath></defs><g id="icons"><g class="cls-2"><path class="cls-3" d="M16,40.31a2.82,2.82,0,1,1-2.81,2.81A2.81,2.81,0,0,1,16,40.31m0-1.87a4.69,4.69,0,1,0,4.69,4.68A4.69,4.69,0,0,0,16,38.44Z"/><path class="cls-4" d="M30,8.44V51.56H1.92V8.44H30m1.88-1.88H0V53.44H31.92V6.56Z"/></g></g><g id="header_ver02"><g class="cls-5"><path class="cls-6" d="M-128.24-94.36s301.44,275.58,138.67,570,0,440.81-136,513.08S-751.4,877.52-752.11,395.42-128.24-94.36-128.24-94.36Z"/><path class="cls-7" d="M680.3,850.92s-306.3,16-434-144.23S277.83,457.1,208.08,291-34.19,29.77-34.19,29.77"/></g></g></svg>