<svg xmlns="http://www.w3.org/2000/svg" xmlns:xlink="http://www.w3.org/1999/xlink" viewBox="0 0 60 60"><defs><style>.cls-1,.cls-6{fill:none;}.cls-2{clip-path:url(#clip-path);}.cls-3{fill:#4a4f99;}.cls-4{fill:#f0af4d;}.cls-5{clip-path:url(#clip-path-2);}.cls-6{stroke:#7783cc;stroke-miterlimit:10;}</style><clipPath id="clip-path"><rect class="cls-1" x="-9.32" width="60" height="60"/></clipPath><clipPath id="clip-path-2"><rect class="cls-1" x="-1077.83" y="603.88" width="1320.28" height="667.91" transform="translate(-835.38 1875.67) rotate(-180)"/></clipPath></defs><g id="icons"><g class="cls-2"><path class="cls-3" d="M40.37,34.69a4.83,4.83,0,0,1-1.48-.24,18.75,18.75,0,1,1,0-8.9,4.83,4.83,0,0,1,1.48-.24l.4,0a20.62,20.62,0,1,0,0,9.34Z"/><path class="cls-4" d="M40.37,27.19A2.81,2.81,0,1,1,37.56,30a2.81,2.81,0,0,1,2.81-2.81m0-1.88A4.69,4.69,0,1,0,45.06,30a4.69,4.69,0,0,0-4.69-4.69Z"/><path class="cls-4" d="M29.12,27.19A2.81,2.81,0,1,1,26.31,30a2.81,2.81,0,0,1,2.81-2.81m0-1.88A4.69,4.69,0,1,0,33.81,30a4.69,4.69,0,0,0-4.69-4.69Z"/><path class="cls-4" d="M17.87,27.19A2.81,2.81,0,1,1,15.06,30a2.81,2.81,0,0,1,2.81-2.81m0-1.88A4.69,4.69,0,1,0,22.56,30a4.69,4.69,0,0,0-4.69-4.69Z"/></g></g><g id="header_ver02"><g class="cls-5"><path class="cls-6" d="M435.11,850.92s-306.3,16-434-144.23S32.63,457.1-37.11,291-279.38,29.77-279.38,29.77"/></g></g></svg>