<svg xmlns="http://www.w3.org/2000/svg" xmlns:xlink="http://www.w3.org/1999/xlink" viewBox="0 0 60 60"><defs><style>.cls-1{fill:none;}.cls-2{clip-path:url(#clip-path);}.cls-3{fill:#f0af4d;}.cls-4{fill:#4a4f99;}.cls-5{clip-path:url(#clip-path-2);}.cls-6{fill:#eaf1fd;}</style><clipPath id="clip-path"><rect class="cls-1" x="-9.24" width="60" height="60"/></clipPath><clipPath id="clip-path-2"><rect class="cls-1" x="-62.52" y="603.88" width="1320.28" height="667.91" transform="translate(1195.25 1875.67) rotate(-180)"/></clipPath></defs><g id="icons"><g class="cls-2"><path class="cls-3" d="M10.45,16.88a2.81,2.81,0,1,1-2.81,2.81,2.81,2.81,0,0,1,2.81-2.81m0-1.88a4.69,4.69,0,1,0,4.69,4.69A4.69,4.69,0,0,0,10.45,15Z"/><polygon class="cls-4" points="35.76 43.13 35.76 33.75 33.89 33.75 33.89 43.13 24.51 43.13 24.51 45 33.89 45 33.89 54.38 35.76 54.38 35.76 45 45.14 45 45.14 43.13 35.76 43.13"/><polygon class="cls-4" points="0.14 15 2.01 15 2.01 11.25 5.76 11.25 5.76 9.38 0.14 9.38 0.14 15"/><rect class="cls-4" x="22.64" y="9.38" width="5.63" height="1.88"/><rect class="cls-4" x="15.14" y="9.38" width="5.63" height="1.88"/><rect class="cls-4" x="15.14" y="43.13" width="5.63" height="1.88"/><polygon class="cls-4" points="2.01 39.38 0.14 39.38 0.14 45 5.76 45 5.76 43.13 2.01 43.13 2.01 39.38"/><rect class="cls-4" x="7.64" y="43.13" width="5.63" height="1.88"/><rect class="cls-4" x="7.64" y="9.38" width="5.63" height="1.88"/><rect class="cls-4" x="0.14" y="16.88" width="1.88" height="5.63"/><rect class="cls-4" x="33.89" y="24.38" width="1.88" height="5.63"/><rect class="cls-4" x="33.89" y="16.88" width="1.88" height="5.63"/><rect class="cls-4" x="0.14" y="31.88" width="1.88" height="5.63"/><polygon class="cls-4" points="33.89 15 35.76 15 35.76 9.38 30.14 9.38 30.14 11.25 33.89 11.25 33.89 15"/><rect class="cls-4" x="0.14" y="24.38" width="1.88" height="5.63"/></g></g><g id="header_ver02"><g class="cls-5"><path class="cls-6" d="M641.88-94.36s301.45,275.58,138.68,570,0,440.81-136,513.08S18.72,877.52,18,395.42,641.88-94.36,641.88-94.36Z"/></g></g></svg>