<svg xmlns="http://www.w3.org/2000/svg" xmlns:xlink="http://www.w3.org/1999/xlink" viewBox="0 0 60 60"><defs><style>.cls-1,.cls-6{fill:none;}.cls-2{clip-path:url(#clip-path);}.cls-3{fill:#f0af4d;}.cls-4{fill:#4a4f99;}.cls-5{clip-path:url(#clip-path-2);}.cls-6{stroke:#7783cc;stroke-miterlimit:10;}</style><clipPath id="clip-path"><rect class="cls-1" x="-12" width="60" height="60"/></clipPath><clipPath id="clip-path-2"><rect class="cls-1" x="-1334.24" y="603.88" width="1320.28" height="667.91" transform="translate(-1348.19 1875.67) rotate(-180)"/></clipPath></defs><g id="icons"><g class="cls-2"><path class="cls-3" d="M7.69,9.38a2.81,2.81,0,1,1-2.81,2.81A2.81,2.81,0,0,1,7.69,9.38m0-1.88a4.69,4.69,0,1,0,4.69,4.69A4.69,4.69,0,0,0,7.69,7.5Z"/><path class="cls-3" d="M28.31,9.38a2.81,2.81,0,1,1-2.81,2.81,2.81,2.81,0,0,1,2.81-2.81m0-1.88A4.69,4.69,0,1,0,33,12.19,4.69,4.69,0,0,0,28.31,7.5Z"/><path class="cls-4" d="M14.25,41.25a4.91,4.91,0,0,1-.94-.09v9.46H2.06V26.25a5.63,5.63,0,1,1,11.25,0V32a5,5,0,0,1,1.88,0V26.25a7.5,7.5,0,0,0-15,0V52.5h15V41.16A4.91,4.91,0,0,1,14.25,41.25Z"/><path class="cls-4" d="M28.31,18.75a7.5,7.5,0,0,0-7.5,7.5V32a5,5,0,0,1,1.88,0V26.25a5.63,5.63,0,1,1,11.25,0V50.62H22.69V41.16a5,5,0,0,1-1.88,0V52.5h15V26.25A7.5,7.5,0,0,0,28.31,18.75Z"/><path class="cls-3" d="M21.75,31.88A4.66,4.66,0,0,0,18,33.76a4.69,4.69,0,1,0,0,5.61,4.69,4.69,0,1,0,3.75-7.49Zm-7.5,7.5a2.82,2.82,0,1,1,2.81-2.82A2.82,2.82,0,0,1,14.25,39.38Zm7.5,0a2.82,2.82,0,1,1,2.81-2.82A2.82,2.82,0,0,1,21.75,39.38Z"/></g></g><g id="header_ver02"><g class="cls-5"><path class="cls-6" d="M178.7,850.92s-306.3,16-434-144.23S-223.77,457.1-293.52,291-535.79,29.77-535.79,29.77"/></g></g></svg>