<svg xmlns="http://www.w3.org/2000/svg" xmlns:xlink="http://www.w3.org/1999/xlink" viewBox="0 0 60 60"><defs><style>.cls-1,.cls-6{fill:none;}.cls-2{clip-path:url(#clip-path);}.cls-3{fill:#f0af4d;}.cls-4{fill:#4a4f99;}.cls-5{clip-path:url(#clip-path-2);}.cls-6{stroke:#7783cc;stroke-miterlimit:10;}</style><clipPath id="clip-path"><rect class="cls-1" x="-11.1" width="60" height="60"/></clipPath><clipPath id="clip-path-2"><rect class="cls-1" x="-1158" y="603.88" width="1320.28" height="667.91" transform="translate(-995.72 1875.67) rotate(-180)"/></clipPath></defs><g id="icons"><g class="cls-2"><path class="cls-3" d="M15.15,39.38a2.81,2.81,0,1,1-2.81,2.81,2.81,2.81,0,0,1,2.81-2.81m0-1.88a4.69,4.69,0,1,0,4.69,4.69,4.69,4.69,0,0,0-4.69-4.69Z"/><path class="cls-3" d="M42.34,19.65a2.82,2.82,0,1,1-2.82,2.82,2.81,2.81,0,0,1,2.82-2.82m0-1.87A4.69,4.69,0,1,0,47,22.47a4.69,4.69,0,0,0-4.68-4.69Z"/><polygon class="cls-4" points="28.27 13.13 30.15 13.13 30.15 7.5 24.52 7.5 24.52 9.38 28.27 9.38 28.27 13.13"/><rect class="cls-4" x="7.65" y="7.5" width="6.56" height="1.88"/><rect class="cls-4" x="16.09" y="7.5" width="6.56" height="1.88"/><rect class="cls-4" x="28.27" y="15" width="1.88" height="6.56"/><path class="cls-4" d="M29.28,42.19,45.65,25.78a4.66,4.66,0,0,1-3.31,1.37,4.77,4.77,0,0,1-.66,0L28.5,40.31l-4,0v-4L37.7,23.13a4.89,4.89,0,0,1-.05-.66A4.67,4.67,0,0,1,39,19.15L30.15,28v-4.6H28.27v6.48l-5.62,5.64v6.59l5.62,0v8.44H2V9.38H5.77V7.5H.15v45h30V41.31l-.87.88Z"/></g></g><g id="header_ver02"><g class="cls-5"><path class="cls-6" d="M354.94,850.92s-306.3,16-434-144.23S-47.54,457.1-117.28,291-359.55,29.77-359.55,29.77"/></g></g></svg>