<svg id="Warstwa_1" data-name="Warstwa 1" xmlns="http://www.w3.org/2000/svg" xmlns:xlink="http://www.w3.org/1999/xlink" viewBox="0 0 60 60"><defs><style>.cls-1{fill:none;}.cls-2{clip-path:url(#clip-path);}.cls-3{fill:#fdad31;}.cls-4{fill:#051344;}</style><clipPath id="clip-path"><rect class="cls-1" width="60" height="60"/></clipPath></defs><g class="cls-2"><path class="cls-3" d="M42.19,11.25a2.82,2.82,0,1,1-2.81,2.81,2.81,2.81,0,0,1,2.81-2.81m0-1.87a4.69,4.69,0,1,0,4.69,4.68,4.68,4.68,0,0,0-4.69-4.68Z"/><path class="cls-3" d="M17.81,11.25A2.82,2.82,0,1,1,15,14.06a2.81,2.81,0,0,1,2.81-2.81m0-1.87a4.69,4.69,0,1,0,4.69,4.68,4.68,4.68,0,0,0-4.69-4.68Z"/><path class="cls-3" d="M30,11.25a2.82,2.82,0,1,1-2.81,2.81A2.81,2.81,0,0,1,30,11.25m0-1.87a4.69,4.69,0,1,0,4.69,4.68A4.68,4.68,0,0,0,30,9.38Z"/><path class="cls-3" d="M39.33,35.62a2.82,2.82,0,1,1-2.81,2.82,2.82,2.82,0,0,1,2.81-2.82m0-1.87A4.69,4.69,0,1,0,44,38.44a4.69,4.69,0,0,0-4.69-4.69Z"/><path class="cls-4" d="M42.19,20.62a10.31,10.31,0,0,0-6.1,2,10.27,10.27,0,0,0-12.18,0A10.31,10.31,0,0,0,7.5,30.94V46.88H19.69v3.74H40.31V46.88H52.5V30.94A10.32,10.32,0,0,0,42.19,20.62Zm-5.34,2.61h0Zm-13.69,0h0ZM19.69,45H9.38V30.94a8.43,8.43,0,0,1,13.08-7,10.28,10.28,0,0,0-2.77,7Zm30.93,0H40.31V43a4.46,4.46,0,0,1-1,.1,5.17,5.17,0,0,1-.89-.08v5.71H21.56V30.94a8.44,8.44,0,1,1,16.88,0v2.9a4.33,4.33,0,0,1,.89-.09,4.46,4.46,0,0,1,1,.11V30.94a10.28,10.28,0,0,0-2.77-7,8.43,8.43,0,0,1,13.08,7Z"/></g></svg>