<?xml version="1.0" encoding="UTF-8"?>
<svg id="Warstwa_1" data-name="Warstwa 1" xmlns="http://www.w3.org/2000/svg" xmlns:xlink="http://www.w3.org/1999/xlink" viewBox="0 0 60 60">
  <defs>
    <style>
      .cls-1 {
        fill: none;
      }

      .cls-2 {
        clip-path: url(#clippath);
      }

      .cls-3 {
        fill: #fdad31;
      }

      .cls-4 {
        fill: #051344;
      }
    </style>
    <clipPath id="clippath">
      <rect class="cls-1" width="60" height="60"/>
    </clipPath>
  </defs>
  <g class="cls-2">
    <g>
      <path class="cls-4" d="M30.94,12.19c5.26,0,9.38,4.94,9.38,11.25,0,13.69-15.56,22.33-19.22,24.17-3.66-1.84-19.22-10.47-19.22-24.17,0-6.31,4.12-11.25,9.38-11.25,2.31,0,4.52,.85,6.24,2.38,.79,.71,1.45,1.53,1.96,2.45l1.64,2.96,1.64-2.96c.51-.92,1.17-1.75,1.96-2.45,1.72-1.54,3.94-2.38,6.24-2.38m0-1.88c-2.88,0-5.5,1.08-7.49,2.86-.94,.84-1.74,1.83-2.35,2.94-.62-1.11-1.41-2.1-2.35-2.94-1.99-1.78-4.61-2.86-7.49-2.86C5.04,10.31,0,15.94,0,23.44c0,16.88,21.09,26.25,21.09,26.25,0,0,21.09-9.38,21.09-26.25,0-7.5-5.04-13.12-11.25-13.12h0Z"/>
      <path class="cls-3" d="M30.94,18.75c1.55,0,2.81,1.26,2.81,2.81s-1.26,2.81-2.81,2.81-2.81-1.26-2.81-2.81,1.26-2.81,2.81-2.81m0-1.88c-2.59,0-4.69,2.1-4.69,4.69s2.1,4.69,4.69,4.69,4.69-2.1,4.69-4.69-2.1-4.69-4.69-4.69h0Z"/>
    </g>
  </g>
</svg>