<?xml version="1.0" encoding="UTF-8"?>
<svg id="Warstwa_1" data-name="Warstwa 1" xmlns="http://www.w3.org/2000/svg" xmlns:xlink="http://www.w3.org/1999/xlink" viewBox="0 0 60 60">
  <defs>
    <style>
      .cls-1 {
        fill: none;
      }

      .cls-2 {
        clip-path: url(#clippath);
      }

      .cls-3 {
        fill: #fdad31;
      }

      .cls-4 {
        fill: #051344;
      }
    </style>
    <clipPath id="clippath">
      <rect class="cls-1" width="60" height="60"/>
    </clipPath>
  </defs>
  <g class="cls-2">
    <g>
      <path class="cls-3" d="M12.19,41.25c1.55,0,2.81,1.26,2.81,2.81s-1.26,2.81-2.81,2.81-2.81-1.26-2.81-2.81,1.26-2.81,2.81-2.81m0-1.88c-2.59,0-4.69,2.1-4.69,4.69s2.1,4.69,4.69,4.69,4.69-2.1,4.69-4.69-2.1-4.69-4.69-4.69h0Z"/>
      <g>
        <path class="cls-4" d="M52.5,31.49l-6.56-6.56-6.56,6.56,1.33,1.33,4.24-4.24c.41,5.43-1.54,10.79-5.43,14.69-6.24,6.24-15.83,7.15-23.05,2.73-.26,.58-.64,1.1-1.11,1.53,3.24,2.02,6.98,3.11,10.9,3.11,5.51,0,10.69-2.15,14.58-6.04,4.28-4.28,6.43-10.17,5.98-16.13l4.36,4.36,1.33-1.33Z"/>
        <path class="cls-4" d="M7.56,31.43c-.43-5.47,1.52-10.77,5.44-14.69,6.24-6.24,15.83-7.15,23.05-2.73,.26-.58,.64-1.1,1.11-1.53-3.24-2.02-6.98-3.11-10.9-3.11-5.51,0-10.69,2.15-14.58,6.04-4.31,4.31-6.44,10.12-5.98,16.13L1.33,27.19l-1.33,1.33,6.56,6.56,6.56-6.56-1.33-1.33-4.24,4.24Z"/>
      </g>
      <path class="cls-3" d="M40.31,13.12c1.55,0,2.81,1.26,2.81,2.81s-1.26,2.81-2.81,2.81-2.81-1.26-2.81-2.81,1.26-2.81,2.81-2.81m0-1.88c-2.59,0-4.69,2.1-4.69,4.69s2.1,4.69,4.69,4.69,4.69-2.1,4.69-4.69-2.1-4.69-4.69-4.69h0Z"/>
    </g>
  </g>
</svg>