<?xml version="1.0" encoding="UTF-8"?>
<svg id="Warstwa_1" data-name="Warstwa 1" xmlns="http://www.w3.org/2000/svg" xmlns:xlink="http://www.w3.org/1999/xlink" viewBox="0 0 60 60">
  <defs>
    <style>
      .cls-1 {
        fill: none;
      }

      .cls-2 {
        clip-path: url(#clippath);
      }

      .cls-3 {
        fill: #fdad31;
      }

      .cls-4 {
        fill: #051344;
      }
    </style>
    <clipPath id="clippath">
      <rect class="cls-1" width="60" height="60"/>
    </clipPath>
  </defs>
  <g class="cls-2">
    <g>
      <path class="cls-4" d="M39.38,34.22c0-2.57-1.15-4.88-2.97-6.42,.69-1.13,1.1-2.46,1.1-3.89,0-1.75-.6-3.36-1.6-4.63-.33,.55-.77,1.03-1.29,1.41,.65,.92,1.02,2.04,1.02,3.22,0,1.02-.28,2.03-.82,2.91l-.83,1.37,1.22,1.04c1.47,1.25,2.31,3.07,2.31,5,0,2.78-1.76,5.26-4.38,6.19l-1.25,.44v1.4c-.03,3.07-2.54,5.56-5.62,5.56s-5.62-2.52-5.62-5.62V21.46c1.19,1.22,2.85,1.97,4.69,1.97v-1.88c-2.58,0-4.69-2.1-4.69-4.69s2.1-4.69,4.69-4.69h0c1.28,0,2.44,.51,3.28,1.34,.45-.44,1-.79,1.6-1.02-1.2-1.34-2.94-2.19-4.88-2.19-1.81,0-3.45,.73-4.64,1.92-.38,.38-.71,.81-.98,1.27-1.15-1.91-3.23-3.2-5.62-3.2-3.55,0-6.43,2.82-6.55,6.34-3.24,.83-5.64,3.76-5.64,7.26,0,1.43,.41,2.75,1.1,3.89-1.82,1.55-2.97,3.85-2.97,6.42,0,3.67,2.35,6.8,5.63,7.96h0c0,4.16,3.36,7.51,7.5,7.51h0c2.83,0,5.28-1.56,6.56-3.87,1.28,2.31,3.74,3.87,6.56,3.87,4.14,0,7.5-3.36,7.5-7.5h0c3.28-1.17,5.63-4.3,5.63-7.97ZM7.5,42.25h0v-1.4l-1.25-.44c-2.62-.93-4.38-3.41-4.38-6.19,0-1.92,.84-3.75,2.31-5l1.22-1.04-.83-1.37c-.54-.88-.82-1.89-.82-2.91,0-2.57,1.74-4.8,4.23-5.44l1.36-.35,.05-1.4c.09-2.54,2.14-4.53,4.68-4.53s4.69,2.1,4.69,4.69v20.36c-1.37-1.56-3.38-2.55-5.62-2.55v1.88c3.1,0,5.62,2.52,5.62,5.62s-2.52,5.62-5.62,5.62-5.59-2.49-5.62-5.56Z"/>
      <path class="cls-3" d="M31.88,14.06c1.55,0,2.81,1.26,2.81,2.81s-1.26,2.81-2.81,2.81-2.81-1.26-2.81-2.81,1.26-2.81,2.81-2.81m0-1.88c-2.59,0-4.69,2.1-4.69,4.69s2.1,4.69,4.69,4.69,4.69-2.1,4.69-4.69-2.1-4.69-4.69-4.69h0Z"/>
    </g>
  </g>
</svg>