<?xml version="1.0" encoding="UTF-8"?>
<svg id="Warstwa_1" data-name="Warstwa 1" xmlns="http://www.w3.org/2000/svg" xmlns:xlink="http://www.w3.org/1999/xlink" viewBox="0 0 60 60">
  <defs>
    <style>
      .cls-1 {
        fill: none;
      }

      .cls-2 {
        clip-path: url(#clippath);
      }

      .cls-3 {
        fill: #fdad31;
      }

      .cls-4 {
        fill: #051344;
      }
    </style>
    <clipPath id="clippath">
      <rect class="cls-1" width="60" height="60"/>
    </clipPath>
  </defs>
  <g class="cls-2">
    <g>
      <path class="cls-4" d="M21.57,10.31c.88,0,1.75,.06,2.62,.18,.41,1.97,1.46,3.96,3.47,4.79,.59,.24,1.23,.37,1.9,.37,1.29,0,2.67-.46,3.94-1.3,1.41,1.07,2.65,2.32,3.72,3.72-1.1,1.68-1.76,3.83-.93,5.84,.83,2,2.82,3.06,4.79,3.47,.24,1.75,.24,3.52,0,5.27-1.97,.41-3.96,1.46-4.79,3.47-.83,2-.17,4.16,.94,5.84-1.07,1.41-2.31,2.65-3.72,3.72-1.27-.84-2.65-1.3-3.94-1.3-.67,0-1.31,.12-1.9,.37-2,.83-3.06,2.82-3.47,4.79-.88,.12-1.76,.18-2.64,.18s-1.75-.06-2.62-.18c-.41-1.97-1.46-3.96-3.47-4.79-.59-.24-1.23-.37-1.9-.37-1.29,0-2.67,.46-3.94,1.3-1.41-1.07-2.65-2.32-3.72-3.72,1.1-1.68,1.76-3.83,.93-5.84-.83-2-2.82-3.06-4.79-3.47-.24-1.75-.24-3.52,0-5.27,1.97-.41,3.96-1.46,4.79-3.47,.83-2,.17-4.16-.94-5.84,1.07-1.41,2.31-2.65,3.72-3.72,1.27,.84,2.65,1.3,3.94,1.3,.67,0,1.31-.12,1.9-.37,2-.83,3.06-2.82,3.47-4.79,.88-.12,1.76-.18,2.64-.18h0m0-1.88c-1.44,0-2.88,.14-4.32,.44-.09,1.88-.87,3.99-2.5,4.67-.38,.16-.77,.23-1.18,.23-1.36,0-2.82-.78-3.89-1.76-2.47,1.63-4.53,3.72-6.1,6.1,1.27,1.39,2.21,3.44,1.53,5.07-.68,1.63-2.79,2.42-4.67,2.5-.57,2.8-.59,5.73,0,8.63,1.88,.09,3.99,.87,4.67,2.5,.67,1.63-.26,3.68-1.53,5.07,1.63,2.47,3.72,4.53,6.1,6.1,1.07-.98,2.53-1.76,3.89-1.76,.41,0,.8,.07,1.18,.23,1.63,.68,2.42,2.79,2.5,4.67,1.41,.29,2.85,.44,4.31,.44s2.88-.14,4.32-.44c.09-1.88,.87-3.99,2.5-4.67,.38-.16,.77-.23,1.18-.23,1.36,0,2.82,.78,3.89,1.76,2.47-1.63,4.53-3.72,6.1-6.1-1.27-1.39-2.21-3.44-1.53-5.07,.68-1.63,2.79-2.42,4.67-2.5,.57-2.8,.59-5.73,0-8.63-1.88-.09-3.99-.87-4.67-2.5s.26-3.68,1.53-5.07c-1.63-2.47-3.72-4.53-6.1-6.1-1.07,.98-2.53,1.76-3.89,1.76-.41,0-.8-.07-1.18-.23-1.63-.68-2.42-2.79-2.5-4.67-1.41-.29-2.85-.44-4.31-.44h0Z"/>
      <path class="cls-3" d="M21.57,24.38c3.1,0,5.62,2.52,5.62,5.62s-2.52,5.62-5.62,5.62-5.62-2.52-5.62-5.62,2.52-5.62,5.62-5.62m0-1.88c-4.14,0-7.5,3.36-7.5,7.5s3.36,7.5,7.5,7.5,7.5-3.36,7.5-7.5-3.36-7.5-7.5-7.5h0Z"/>
    </g>
  </g>
</svg>