<?xml version="1.0" encoding="UTF-8"?>
<svg id="Warstwa_1" data-name="Warstwa 1" xmlns="http://www.w3.org/2000/svg" xmlns:xlink="http://www.w3.org/1999/xlink" viewBox="0 0 60 60">
  <defs>
    <style>
      .cls-1 {
        fill: none;
      }

      .cls-2 {
        clip-path: url(#clippath);
      }

      .cls-3 {
        fill: #fdad31;
      }

      .cls-4 {
        fill: #051344;
      }
    </style>
    <clipPath id="clippath">
      <rect class="cls-1" width="60" height="60"/>
    </clipPath>
  </defs>
  <g class="cls-2">
    <g>
      <path class="cls-4" d="M40.49,30.94c0,1.82-.27,3.59-.75,5.25,.48,.1,.95,.27,1.4,.53,.12,.07,.23,.14,.34,.22,.58-1.9,.89-3.92,.89-6,0-9.78-6.82-17.97-15.96-20.09,.01,.13,.02,.27,.02,.4,0,.52-.09,1.01-.24,1.47,8.2,2,14.3,9.41,14.3,18.21Z"/>
      <g>
        <path class="cls-4" d="M2.34,36.72c.45-.26,.92-.43,1.4-.53-.49-1.67-.75-3.43-.75-5.25,0-8.81,6.1-16.21,14.3-18.21-.15-.46-.24-.96-.24-1.47,0-.14,0-.27,.02-.4C7.93,12.97,1.11,21.15,1.11,30.94c0,2.09,.31,4.1,.89,6,.11-.08,.22-.15,.34-.22Z"/>
        <path class="cls-4" d="M36.44,44.84c-.45-.26-.84-.59-1.16-.95-3.42,3.57-8.22,5.8-13.54,5.8s-10.13-2.23-13.54-5.8c-.33,.37-.71,.69-1.16,.95-.12,.07-.23,.13-.35,.18,3.76,4.02,9.12,6.54,15.06,6.54s11.3-2.52,15.06-6.54c-.12-.06-.24-.11-.35-.18Z"/>
      </g>
      <path class="cls-3" d="M21.74,8.44c1.55,0,2.81,1.26,2.81,2.81s-1.26,2.81-2.81,2.81-2.81-1.26-2.81-2.81,1.26-2.81,2.81-2.81m0-1.88c-2.59,0-4.69,2.1-4.69,4.69s2.1,4.69,4.69,4.69,4.69-2.1,4.69-4.69-2.1-4.69-4.69-4.69h0Z"/>
      <path class="cls-3" d="M4.68,37.97h0c1,0,1.94,.54,2.44,1.41,.78,1.34,.31,3.07-1.03,3.84-.43,.25-.91,.38-1.4,.38-1,0-1.94-.54-2.44-1.41-.38-.65-.48-1.41-.28-2.13,.19-.73,.66-1.33,1.31-1.71,.43-.25,.91-.38,1.4-.38m0-1.88c-.8,0-1.6,.2-2.34,.63-2.24,1.29-3.01,4.16-1.72,6.4,.87,1.5,2.44,2.34,4.06,2.34,.8,0,1.6-.2,2.34-.63,2.24-1.29,3.01-4.16,1.72-6.4-.87-1.5-2.44-2.34-4.06-2.34h0Z"/>
      <path class="cls-3" d="M38.79,37.97h0c.49,0,.97,.13,1.4,.38,.65,.38,1.12,.98,1.31,1.71,.19,.73,.09,1.48-.28,2.13-.5,.87-1.44,1.41-2.44,1.41-.49,0-.97-.13-1.4-.38-1.34-.78-1.8-2.5-1.03-3.84,.5-.87,1.44-1.41,2.44-1.41m0-1.88c-1.62,0-3.2,.84-4.06,2.34-1.29,2.24-.53,5.11,1.72,6.4,.74,.43,1.54,.63,2.34,.63,1.62,0,3.2-.84,4.06-2.34,1.29-2.24,.53-5.11-1.72-6.4-.74-.43-1.54-.63-2.34-.63h0Z"/>
    </g>
  </g>
</svg>