<?xml version="1.0" encoding="UTF-8"?>
<svg id="Warstwa_1" data-name="Warstwa 1" xmlns="http://www.w3.org/2000/svg" xmlns:xlink="http://www.w3.org/1999/xlink" viewBox="0 0 60 60">
  <defs>
    <style>
      .cls-1 {
        fill: none;
      }

      .cls-2 {
        clip-path: url(#clippath);
      }

      .cls-3 {
        fill: #fdad31;
      }

      .cls-4 {
        fill: #051344;
      }
    </style>
    <clipPath id="clippath">
      <rect class="cls-1" width="60" height="60"/>
    </clipPath>
  </defs>
  <g class="cls-2">
    <g>
      <path class="cls-3" d="M22.5,17.81c1.55,0,2.81,1.26,2.81,2.81s-1.26,2.81-2.81,2.81-2.81-1.26-2.81-2.81,1.26-2.81,2.81-2.81m0-1.88c-2.59,0-4.69,2.1-4.69,4.69s2.1,4.69,4.69,4.69,4.69-2.1,4.69-4.69-2.1-4.69-4.69-4.69h0Z"/>
      <g>
        <path class="cls-4" d="M0,12.19v30H45V12.19H0Zm14.06,28.12v-2.81c0-4.65,3.79-8.44,8.44-8.44s8.44,3.79,8.44,8.44v2.81H14.06Zm29.06,0h-10.31v-2.81c0-5.7-4.62-10.31-10.31-10.31s-10.31,4.62-10.31,10.31v2.81H1.88V14.06H43.12v26.25Z"/>
        <rect class="cls-4" y="45.94" width="45" height="1.88"/>
      </g>
    </g>
  </g>
</svg>