<svg width="46" height="46" viewBox="0 0 46 46" fill="none" xmlns="http://www.w3.org/2000/svg">
<path d="M31.7637 22.1226C31.7524 22.1226 31.7412 22.1226 31.7299 22.1226C29.7274 22.1339 28.1187 23.7651 28.1299 25.7676C28.1412 27.7701 29.7724 29.3789 31.7749 29.3676C33.7774 29.3564 35.3862 27.7251 35.3749 25.7226V25.7114C35.3637 23.7201 33.7549 22.1114 31.7637 22.1226ZM31.7862 27.8714C30.6049 27.8826 29.6374 26.9151 29.6262 25.7339C29.6149 24.5526 30.5824 23.5851 31.7637 23.5739H31.7749C32.9562 23.5739 33.9237 24.5414 33.9237 25.7226C33.9237 26.9039 32.9674 27.8601 31.7862 27.8714Z" fill="#FDAD31"/>
<path d="M31.6286 17.8361C30.8973 17.8473 30.1661 17.9598 29.4686 18.1736C28.2311 14.9111 25.0811 12.7736 21.5936 12.8073C17.0936 12.7511 13.3473 16.2498 13.0998 20.7498C9.92731 21.1661 7.53106 23.8436 7.47481 27.0386C7.40731 30.6161 10.2536 33.5636 13.8198 33.6311H31.5836L31.6286 33.6648C36.0048 33.6648 39.5486 30.1211 39.5486 25.7561C39.5486 21.3911 36.0048 17.8361 31.6286 17.8361ZM31.5836 32.1798H13.8423C13.6848 32.1911 13.5273 32.1911 13.3698 32.1798C10.5911 32.0448 8.45356 29.6936 8.58856 26.9148C8.72356 24.1361 11.0748 21.9986 13.8536 22.1336H14.5511V21.1998C14.5398 21.1436 14.5398 21.0986 14.5511 21.0423C14.6298 17.9936 16.6661 15.3386 19.6023 14.4836C23.3148 13.4036 27.2073 15.5411 28.2873 19.2536L28.5011 19.9961L29.2323 19.7261C29.9861 19.4336 30.7848 19.2648 31.5948 19.2536C31.7748 19.2423 31.9548 19.2423 32.1348 19.2536C35.7011 19.3998 38.4798 22.4148 38.3336 25.9811C38.1648 29.5586 35.1498 32.3261 31.5836 32.1798Z" fill="#051344"/>
</svg>
