<svg width="46" height="46" viewBox="0 0 46 46" fill="none" xmlns="http://www.w3.org/2000/svg">
<path d="M37.7653 26.5156C37.3896 26.5155 37.0163 26.4547 36.66 26.3356C35.8443 29.6761 33.8329 32.6021 31.0061 34.5601C28.1793 36.5181 24.7331 37.3725 21.319 36.9617C17.9049 36.551 14.7597 34.9035 12.478 32.3308C10.1963 29.7582 8.93633 26.4386 8.93633 22.9999C8.93633 19.5612 10.1963 16.2417 12.478 13.669C14.7597 11.0964 17.9049 9.4489 21.319 9.03813C24.7331 8.62736 28.1793 9.48177 31.0061 11.4398C33.8329 13.3978 35.8443 16.3237 36.66 19.6643C37.0163 19.5452 37.3896 19.4844 37.7653 19.4843C37.8666 19.4843 37.9678 19.4843 38.0663 19.4843C37.2067 15.7855 35.0165 12.532 31.913 10.3438C28.8095 8.15546 25.0095 7.18522 21.2368 7.61784C17.4641 8.05045 13.9823 9.85569 11.4547 12.6897C8.92711 15.5237 7.53027 19.1885 7.53027 22.9859C7.53027 26.7833 8.92711 30.448 11.4547 33.282C13.9823 36.1161 17.4641 37.9213 21.2368 38.3539C25.0095 38.7865 28.8095 37.8163 31.913 35.628C35.0165 33.4397 37.2067 30.1863 38.0663 26.4874C37.9678 26.5099 37.8666 26.5156 37.7653 26.5156Z" fill="#051344"/>
<path d="M37.7656 20.8906C38.1828 20.8906 38.5906 21.0143 38.9375 21.2461C39.2844 21.4779 39.5548 21.8073 39.7144 22.1928C39.8741 22.5782 39.9159 23.0023 39.8345 23.4115C39.7531 23.8207 39.5522 24.1966 39.2572 24.4916C38.9622 24.7866 38.5863 24.9875 38.1771 25.0688C37.768 25.1502 37.3438 25.1085 36.9584 24.9488C36.573 24.7892 36.2435 24.5188 36.0117 24.1719C35.78 23.825 35.6563 23.4172 35.6563 23C35.6563 22.4406 35.8785 21.904 36.2741 21.5084C36.6697 21.1129 37.2062 20.8906 37.7656 20.8906ZM37.7656 19.4844C37.0703 19.4844 36.3906 19.6906 35.8125 20.0769C35.2343 20.4632 34.7837 21.0122 34.5176 21.6546C34.2515 22.297 34.1819 23.0039 34.3176 23.6859C34.4532 24.3678 34.788 24.9943 35.2797 25.4859C35.7714 25.9776 36.3978 26.3124 37.0798 26.4481C37.7617 26.5837 38.4686 26.5141 39.111 26.248C39.7534 25.9819 40.3025 25.5313 40.6888 24.9532C41.0751 24.375 41.2813 23.6953 41.2813 23C41.2813 22.0676 40.9109 21.1734 40.2516 20.5141C39.5922 19.8548 38.698 19.4844 37.7656 19.4844Z" fill="#FDAD31"/>
<path d="M29.3281 20.8906C29.7453 20.8906 30.1531 21.0143 30.5 21.2461C30.8469 21.4779 31.1173 21.8073 31.2769 22.1928C31.4366 22.5782 31.4784 23.0023 31.397 23.4115C31.3156 23.8207 31.1147 24.1966 30.8197 24.4916C30.5247 24.7866 30.1488 24.9875 29.7396 25.0688C29.3305 25.1502 28.9063 25.1085 28.5209 24.9488C28.1355 24.7892 27.806 24.5188 27.5742 24.1719C27.3425 23.825 27.2188 23.4172 27.2188 23C27.2188 22.4406 27.441 21.904 27.8366 21.5084C28.2322 21.1129 28.7687 20.8906 29.3281 20.8906ZM29.3281 19.4844C28.6328 19.4844 27.9531 19.6906 27.375 20.0769C26.7968 20.4632 26.3462 21.0122 26.0801 21.6546C25.814 22.297 25.7444 23.0039 25.8801 23.6859C26.0157 24.3678 26.3505 24.9943 26.8422 25.4859C27.3339 25.9776 27.9603 26.3124 28.6423 26.4481C29.3242 26.5837 30.0311 26.5141 30.6735 26.248C31.3159 25.9819 31.865 25.5313 32.2513 24.9532C32.6376 24.375 32.8438 23.6953 32.8438 23C32.8438 22.0676 32.4734 21.1734 31.814 20.5141C31.1547 19.8548 30.2605 19.4844 29.3281 19.4844Z" fill="#051344"/>
<path d="M20.8906 20.8906C21.3078 20.8906 21.7156 21.0143 22.0625 21.2461C22.4094 21.4779 22.6798 21.8073 22.8394 22.1928C22.9991 22.5782 23.0409 23.0023 22.9595 23.4115C22.8781 23.8207 22.6772 24.1966 22.3822 24.4916C22.0872 24.7866 21.7113 24.9875 21.3021 25.0688C20.893 25.1502 20.4688 25.1085 20.0834 24.9488C19.698 24.7892 19.3685 24.5188 19.1367 24.1719C18.905 23.825 18.7813 23.4172 18.7813 23C18.7813 22.4406 19.0035 21.904 19.3991 21.5084C19.7947 21.1129 20.3312 20.8906 20.8906 20.8906ZM20.8906 19.4844C20.1953 19.4844 19.5156 19.6906 18.9375 20.0769C18.3593 20.4632 17.9087 21.0122 17.6426 21.6546C17.3765 22.297 17.3069 23.0039 17.4426 23.6859C17.5782 24.3678 17.913 24.9943 18.4047 25.4859C18.8964 25.9776 19.5228 26.3124 20.2048 26.4481C20.8867 26.5837 21.5936 26.5141 22.236 26.248C22.8784 25.9819 23.4275 25.5313 23.8138 24.9532C24.2001 24.375 24.4063 23.6953 24.4063 23C24.4063 22.0676 24.0359 21.1734 23.3765 20.5141C22.7172 19.8548 21.823 19.4844 20.8906 19.4844Z" fill="#051344"/>
</svg>
