<svg xmlns="http://www.w3.org/2000/svg" xmlns:xlink="http://www.w3.org/1999/xlink" width="129" height="60" viewBox="0 0 129 60">
    <defs>
        <path id="7tipnsn0aa" d="M0 0.029L12.128 0.029 12.128 14.49 0 14.49z"/>
        <path id="hq8808qgyc" d="M0.03 0.03L9.203 0.03 9.203 18.587 0.03 18.587z"/>
        <path id="n37swwdoee" d="M0.055 0.029L12.21 0.029 12.21 18.888 0.055 18.888z"/>
    </defs>
    <g fill="none" fill-rule="evenodd">
        <g>
            <g>
                <g>
                    <g>
                        <g transform="translate(-221 -267) translate(183 217) translate(0 50) translate(38 21) translate(0 4.118)">
                            <mask id="8a4aaav2jb" fill="#fff">
                                <use xlink:href="#7tipnsn0aa"/>
                            </mask>
                            <path fill="#000" d="M11.556 3.671l-2.89.798c-.337-1.256-1.21-1.884-2.622-1.884-1.331 0-1.997.418-1.997 1.254 0 .33.122.594.366.792.244.197.88.364 1.91.5 1.536.21 2.672.451 3.409.726.736.275 1.32.738 1.75 1.388.43.651.646 1.453.646 2.406 0 1.43-.526 2.593-1.577 3.491-1.052.899-2.523 1.348-4.414 1.348-3.426 0-5.471-1.37-6.137-4.11l3.342-.51c.275 1.247 1.269 1.87 2.982 1.87.656 0 1.211-.121 1.664-.365.452-.243.679-.572.679-.985 0-.643-.501-1.024-1.504-1.142-2.716-.345-4.503-.882-5.359-1.61C.947 6.907.519 5.893.519 4.591c0-1.32.497-2.41 1.491-3.271C3.004.46 4.398.029 6.19.029c1.42 0 2.557.288 3.409.866.852.577 1.504 1.503 1.957 2.776" mask="url(#8a4aaav2jb)"/>
                        </g>
                        <g transform="translate(-221 -267) translate(183 217) translate(0 50) translate(38 21) translate(13.72 .034)">
                            <mask id="crtdckv4cd" fill="#fff">
                                <use xlink:href="#hq8808qgyc"/>
                            </mask>
                            <path fill="#000" d="M6.128 7.59v5.87c0 .733.105 1.223.318 1.47.212.248.71.372 1.497.372.363 0 .783-.018 1.26-.055v3.038c-1.154.201-1.984.302-2.49.302-1.65 0-2.822-.327-3.514-.983-.693-.655-1.039-1.84-1.039-3.553v-6.46H.03V4.4h2.357l.32-4.096L6.126.03v4.371h2.89v3.19h-2.89z" mask="url(#crtdckv4cd)"/>
                        </g>
                        <path fill="#000" d="M28.916 9.686h4.78c-.125-1.906-.884-2.86-2.277-2.86-1.491 0-2.326.954-2.503 2.86m8.667 2.378h-8.654c-.009.248-.013.463-.013.646 0 .99.255 1.737.765 2.24.51.505 1.12.757 1.831.757 1.322 0 2.117-.729 2.383-2.186l3.595.275c-1.003 3.208-3.04 4.811-6.111 4.811-1.34 0-2.479-.277-3.415-.831-.936-.555-1.709-1.363-2.316-2.427-.609-1.063-.912-2.336-.912-3.821 0-2.208.61-3.99 1.83-5.347 1.22-1.356 2.79-2.035 4.706-2.035 1.731 0 3.215.63 4.454 1.89 1.238 1.26 1.857 3.27 1.857 6.028" transform="translate(-221 -267) translate(183 217) translate(0 50) translate(38 21)"/>
                        <g transform="translate(-221 -267) translate(183 217) translate(0 50) translate(38 21) translate(40.712 4.118)">
                            <mask id="9hqp2xe34f" fill="#fff">
                                <use xlink:href="#n37swwdoee"/>
                            </mask>
                            <path fill="#000" d="M3.903 8.125c0 .98.057 1.659.173 2.035.115.375.36.712.732 1.01.373.298.776.447 1.211.447.542 0 1.025-.287 1.451-.86.427-.572.64-1.835.64-3.787 0-2.74-.702-4.11-2.104-4.11-.532 0-1.016.243-1.451.729-.435.486-.652 1.31-.652 2.474v2.062zM.055 18.888V.318h3.648v2.034C4.377.803 5.558.029 7.244.029 8.7.029 9.891.63 10.82 1.836c.927 1.205 1.391 2.958 1.391 5.258 0 2.447-.468 4.291-1.405 5.533-.936 1.242-2.154 1.863-3.654 1.863-1.518 0-2.6-.61-3.248-1.829v6.227H.055z" mask="url(#9hqp2xe34f)"/>
                        </g>
                    </g>
                </g>
            </g>
        </g>
    </g>
</svg>
