<svg xmlns="http://www.w3.org/2000/svg" xmlns:xlink="http://www.w3.org/1999/xlink" width="129" height="60" viewBox="0 0 129 60">
    <defs>
        <radialGradient id="5wmuztgwda" cx="53.094%" cy="41.042%" r="46.906%" fx="53.094%" fy="41.042%">
            <stop offset="0%" stop-color="#00B3FF" stop-opacity="0"/>
            <stop offset="57.89%" stop-color="#005D96" stop-opacity=".47"/>
            <stop offset="87.655%" stop-color="#001F4B" stop-opacity=".833"/>
            <stop offset="100%" stop-color="#00072E"/>
        </radialGradient>
        <path id="qdbfyses9b" d="M0.02 0.003L9.251 0.003 9.251 7.925 0.02 7.925z"/>
    </defs>
    <g fill="none" fill-rule="evenodd">
        <g>
            <g>
                <g>
                    <g>
                        <g>
                            <g fill="#3C3C3C" fill-rule="nonzero">
                                <g>
                                    <path d="M5.477 10.114L.432 3.068C.182 2.728 0 2.318 0 1.818 0 .886.75.114 1.727.114 2.5.114 3 .545 3.432 1.182l3.795 5.613 3.864-5.659C11.523.5 12.023.091 12.75.091c1.045 0 1.682.75 1.682 1.727 0 .477-.227.91-.455 1.227l-5.045 7v4.637c0 .977-.75 1.773-1.727 1.773-.955 0-1.728-.773-1.728-1.773v-4.568zM47.364 14.682c0 .954-.75 1.75-1.705 1.75-.932 0-1.704-.773-1.704-1.75v-.137c-.773 1.023-1.796 1.978-3.523 1.978-2.568 0-4.068-1.75-4.068-4.568V5.59c0-.955.75-1.75 1.704-1.75.932 0 1.705.773 1.705 1.75v5.25c0 1.659.75 2.5 2.068 2.5 1.295 0 2.114-.841 2.114-2.5V5.59c0-.955.772-1.75 1.704-1.75.932 0 1.705.773 1.705 1.75v9.09zM51.41 1.91c0-.978.75-1.774 1.726-1.774h.387c.727 0 1.25.387 1.568.91L59.25 8l4.182-6.977c.363-.591.84-.887 1.545-.887h.387c.954 0 1.727.773 1.727 1.773v12.75c0 .977-.773 1.773-1.727 1.773-.932 0-1.705-.796-1.705-1.773v-8l-3.023 4.773c-.363.545-.795.886-1.431.886-.637 0-1.069-.34-1.432-.886l-3-4.705v7.978c0 .954-.75 1.727-1.705 1.727-.954 0-1.682-.75-1.682-1.727V1.909h.023zM70.227 12.773v-.046c0-2.682 2-3.932 4.841-3.932 1.205 0 2.068.205 2.932.5v-.204c0-1.432-.886-2.25-2.568-2.25-.932 0-1.705.136-2.341.34-.205.069-.341.092-.5.092-.773 0-1.41-.614-1.41-1.432 0-.614.387-1.136.91-1.341 1.068-.41 2.227-.636 3.818-.636 1.864 0 3.205.5 4.046 1.386.886.91 1.295 2.273 1.295 3.932v5.59c0 .933-.727 1.683-1.66 1.683-.976 0-1.635-.705-1.635-1.432V15c-.819.932-1.978 1.568-3.614 1.568-2.273-.045-4.114-1.363-4.114-3.795m7.796-.818v-.614c-.591-.273-1.341-.455-2.182-.455-1.455 0-2.341.591-2.341 1.705v.045c0 .932.773 1.5 1.864 1.5 1.59-.022 2.659-.909 2.659-2.181M84.568 5.614c0-.955.75-1.75 1.705-1.75.932 0 1.704.772 1.704 1.75v.159c.818-1.137 1.978-2 3.728-2 2.795 0 5.454 2.25 5.454 6.363v.046c0 4.113-2.614 6.34-5.454 6.34-1.819 0-2.932-.84-3.728-1.84v3.659c0 .954-.75 1.75-1.704 1.75-.932 0-1.705-.773-1.705-1.75V5.614zm9.182 4.568v-.046c0-2.045-1.34-3.386-2.932-3.386-1.59 0-2.909 1.364-2.909 3.386v.046c0 2.045 1.318 3.386 2.91 3.386 1.59 0 2.931-1.34 2.931-3.386" transform="translate(-919 -140) translate(221 100) translate(628) translate(54 40) translate(16 9) translate(0 16.16)"/>
                                </g>
                            </g>
                            <g fill-rule="nonzero" transform="translate(-919 -140) translate(221 100) translate(628) translate(54 40) translate(16 9) translate(15.41 16.566)">
                                <circle cx="9.022" cy="9.022" r="9.022" fill="#0080FF"/>
                                <path fill="#CF0" d="M4.456 2.085c.132.146.149.261.099.437-.049.173.023.365-.073.527-.14.232.062.206.06.429 0 .155-.156.331-.263.444-.232.245-.663.59-.627.927.019.174.045.357.079.538.037.196.263.104.347.29.08.172-.014.37.074.542.03.06.144.107.122.183-.036.033-.076.06-.122.082-.05.163.264.194.259.377-.003.094.215.306.326.329.149-.073-.35-.998-.268-1.217.248-.012.065.252.193.384.142.147.208.287.233.454.156.118.299.249.38.413.085.175-.07.392.072.528.21.2.714.4 1.022.487.18.051.446-.06.588.013.214.113.266.305.533.358.314.066.51.09.577.38.049.207.303.161.398.333.034.062.339.182.427.204.116.03.152-.227.15-.282-.64.167-.538-.388-.44-.673.084-.245-.067-.336-.344-.344-.163-.006-.314.073-.35-.105-.017-.072.004-.129.065-.175.16-.129.09-.318.219-.44.195-.184-.393-.097-.46-.078-.253.078-.071.354-.38.39-.167.019-.373.048-.53-.021-.393-.17-.17-.731-.059-.974.079-.17.014-.296.216-.405.175-.094.37-.161.563-.222.137.062.505.133.595.041.091-.093.268-.14.408-.126.081.009.157.044.18.116.052-.01.105-.017.158-.02.16.024.112.192.122.285.012.116.126.443.307.344.152-.083.122-.264.1-.391-.032-.176-.11-.342.028-.495.15-.165.362-.278.58-.37.446-.19.465-.528.814-.817.186-.157.269-.228.527-.283.178-.04.189-.068.217-.196.093-.145.387-.237.562-.235.159.001.2.21.338.06.087-.095.704-.15.648-.248-.113-.197-.623-.017-.283-.404.127-.146-.03-.252.28-.258.173-.004.36.037.528-.019.085.171-.23.23-.184.4.206.072.46.026.685.095.301.094.206-.267.243-.402-.238-.146-.176-.187-.105-.43.045-.15-.103-.335-.287-.357-.1-.107-.082-.275-.095-.402-.01-.117-.031-.28-.196-.315-.147.07-.278.223-.462.226-.154.003-.191-.093-.125-.192.088-.133-.026-.131-.118-.218-.14-.134-.319-.165-.525-.162-.254.003-.194.165-.367.254.033.235-.161.16-.28.308.028.127.169.09.06.239-.06.085-.163.14-.268.18-.258.102-.318.085-.39.319-.028.093-.22.382-.359.185-.098-.138.094-.31.163-.423-.125-.085-.312-.022-.453-.09-.14-.065-.24-.18-.395-.228-.572-.173.079-.59.397-.675.189-.05.608-.267.788-.174.163.082.206.075.373-.012.112-.057.313.11.376-.018-.082-.145-.25-.21-.001-.28.146-.042.238-.103.33-.182-.403-.17-.821-.312-1.253-.422-.063.054-.107.117-.104.174.014.194-.572.165-.558.168-.18-.034-.36.058-.537 0-.153-.05-.18-.118-.364-.1-.335.032-.553.162-.865.001-.11-.056-.16-.007-.27-.024C8.4.61 8.334.53 8.235.503c-.28-.076-.63-.032-.906-.026-.216.005-.618.026-.81.1-.093.035-.191.019-.29-.01-.859.281-1.66.69-2.383 1.203.091.024.175.047.232.053.228.024.254.125.377.262z"/>
                                <path fill="#CF0" d="M9.313 7.136c-.16-.052-.852-.107-.794.212.149.022.255-.103.412-.073.079.022.16.034.243.037.185.007.25.184.41.242.115.1-.011.11.22.092.076.07.318.087.332-.005.039-.257-.558-.417-.823-.505zM10.948 7.634c-.078-.02-.58-.224-.615-.083.01.084.108.088.093.184-.075.008-.243-.023-.288.061.15.116.43.113.576.11.083-.013.771-.13.234-.272zM15.7 11.701c-.218-.156-.207-.342-.536-.403-.283-.051-.49-.29-.714-.425-.18-.106-.466-.211-.522-.38-.031-.091-.075-.216-.087-.311-.02-.181-.12-.388-.366-.5-.315-.144-.554-.14-.673-.43-.046-.117-.149-.127-.23-.22-.09-.1-.847-.32-1.091-.604-.124-.144-.357-.256-.561-.318-.122.054-.247.072-.402.025-.17.024-.231.04-.324.132-.036.036-.089.055-.154.055-.224.002-.323-.16-.385.037-.002.008.11.197.118.263.015.122-.03.242-.105.34-.198.264-.758.21-.76.608-.002.198-.06.133-.16.288-.069.11-.01.245.088.345.16.162.088.334.224.498.123.15.236.392.245.551.018.307.488.447.706.676.405.425-.038.87-.02 1.294.01.2-.122.37-.103.586.023.278-.073.434-.19.673-.065.133.044.285.029.431-.01.111-.035.224.043.335.142.202.11.336.14.543.043.322.06.68.295.992.151.202.47.125.577.336.076.15.102.129.31.22.067.029.372.18.356.04-.009-.075-.398-.27-.491-.379.035-.135-.292-.284-.144-.398.072-.055.382-.234.26-.345-.271-.245.128-.235.02-.442.114-.03.376-.285.416-.373.086-.186.469-.025.603-.207.141-.192.38-.207.552-.364.123-.114.225-.273.435-.313.047-.105.164-.144.28-.198.054-.099.022-.197.03-.304.015-.218.408-.199.63-.216.194-.016.633.138.659-.106.01-.088.093-.084.155-.142.078-.068.031-.178.131-.233.136-.074.128-.255.133-.373.01-.206.19-.256.349-.38.182-.145.42-.2.515-.416.037-.085.05-.18.02-.274-.05-.14-.174-.123-.301-.214z"/>
                                <circle cx="9.022" cy="9.022" r="9.022" fill="url(#5wmuztgwda)" opacity=".5"/>
                            </g>
                            <g>
                                <path fill="#5528AD" fill-rule="nonzero" d="M1.216 16.392C.544 16.392 0 16.12 0 15.784c0-.336.544-.608 1.216-.608.672 0 1.217.272 1.217.608 0 .336-.545.608-1.217.608z" transform="translate(-919 -140) translate(221 100) translate(628) translate(54 40) translate(16 9) rotate(-15 22.973 -63.517)"/>
                                <path fill="#CCC" fill-rule="nonzero" d="M1.112 15.743c-.278 0-.504.02-.504-.258V.518c0-.278.226-.503.504-.503s.503.225.503.503v14.967c0 .278-.225.258-.503.258" transform="translate(-919 -140) translate(221 100) translate(628) translate(54 40) translate(16 9) rotate(-15 22.973 -63.517)"/>
                                <path fill="#EAEAEA" fill-rule="nonzero" d="M.994 13.92c-.139 0-.251.019-.251-.26V.677c0-.278.112-.313.251-.313.14 0 .252.035.252.313V13.66c0 .278-.113.258-.252.258" transform="translate(-919 -140) translate(221 100) translate(628) translate(54 40) translate(16 9) rotate(-15 22.973 -63.517)"/>
                                <g>
                                    <g transform="translate(-919 -140) translate(221 100) translate(628) translate(54 40) translate(16 9) rotate(-15 22.973 -63.517) translate(1.716)">
                                        <mask id="jjbeh9cz3c" fill="#fff">
                                            <use xlink:href="#qdbfyses9b"/>
                                        </mask>
                                        <path fill="#D30909" fill-rule="nonzero" d="M.02 6.708V1.22C.02.365.878-.223 1.675.086l6.853 2.776c.96.39.965 1.747.007 2.143L1.683 7.838C.885 8.155.02 7.567.02 6.708" mask="url(#jjbeh9cz3c)"/>
                                    </g>
                                </g>
                                <path fill="#ED2424" fill-rule="nonzero" d="M2.092 1.551c0-.749.753-1.264 1.451-.993L9.55 2.991c.842.34.846 1.531.007 1.878L3.55 7.352c-.7.277-1.458-.238-1.458-.99V1.55z" transform="translate(-919 -140) translate(221 100) translate(628) translate(54 40) translate(16 9) rotate(-15 22.973 -63.517)"/>
                            </g>
                        </g>
                    </g>
                </g>
            </g>
        </g>
    </g>
</svg>
