<svg xmlns="http://www.w3.org/2000/svg" xmlns:xlink="http://www.w3.org/1999/xlink" width="150" height="70" viewBox="0 0 150 70">
    <defs>
        <radialGradient id="8zbng7ig9a" cx="53.094%" cy="41.042%" r="46.906%" fx="53.094%" fy="41.042%" gradientTransform="translate(0.530937,0.410417),scale(1.000000,0.996678),translate(-0.530937,-0.410417)">
            <stop offset="0%" stop-color="#00B3FF" stop-opacity="0"/>
            <stop offset="57.89%" stop-color="#005D96" stop-opacity=".47"/>
            <stop offset="87.655%" stop-color="#001F4B" stop-opacity=".833"/>
            <stop offset="100%" stop-color="#00072E"/>
        </radialGradient>
        <path id="wi5558y02b" d="M0.023 0.003L10.757 0.003 10.757 9.246 0.023 9.246z"/>
    </defs>
    <g fill="none" fill-rule="evenodd">
        <g>
            <g>
                <g>
                    <g>
                        <g fill="#FFF" fill-rule="nonzero">
                            <g>
                                <path d="M6.369 11.8L.502 3.58C.212 3.182 0 2.705 0 2.12 0 1.034.872.133 2.008.133c.899 0 1.48.503 1.982 1.246l4.414 6.549 4.492-6.602C13.4.583 13.98.106 14.826.106c1.215 0 1.955.875 1.955 2.015 0 .557-.264 1.06-.528 1.432l-5.867 8.167v5.409c0 1.14-.872 2.068-2.009 2.068-1.11 0-2.008-.902-2.008-2.068v-5.33zM55.074 17.129c0 1.113-.872 2.041-1.982 2.041-1.084 0-1.982-.901-1.982-2.041v-.16c-.899 1.194-2.088 2.308-4.096 2.308-2.987 0-4.73-2.042-4.73-5.33V6.523c0-1.114.871-2.042 1.981-2.042 1.084 0 1.982.902 1.982 2.042v6.125c0 1.935.872 2.916 2.405 2.916 1.507 0 2.458-.98 2.458-2.916V6.523c0-1.114.898-2.042 1.982-2.042 1.083 0 1.982.902 1.982 2.042v10.606zM59.778 2.227c0-1.14.872-2.068 2.008-2.068h.45c.845 0 1.453.45 1.823 1.06l4.836 8.114 4.863-8.14C74.18.503 74.736.16 75.555.16h.45c1.11 0 2.008.902 2.008 2.068v14.875c0 1.14-.899 2.068-2.009 2.068-1.083 0-1.982-.928-1.982-2.068V7.77l-3.515 5.568c-.422.636-.925 1.034-1.665 1.034s-1.242-.398-1.664-1.034l-3.489-5.489v9.307c0 1.114-.872 2.015-1.982 2.015-1.11 0-1.955-.875-1.955-2.015V2.227h.026zM81.66 14.902v-.054c0-3.128 2.325-4.587 5.629-4.587 1.4 0 2.404.239 3.409.584v-.239c0-1.67-1.031-2.625-2.987-2.625-1.083 0-1.982.16-2.722.398-.237.08-.396.106-.581.106-.898 0-1.638-.716-1.638-1.67 0-.717.449-1.326 1.057-1.565 1.242-.477 2.59-.742 4.44-.742 2.166 0 3.726.583 4.703 1.617 1.031 1.06 1.507 2.652 1.507 4.587v6.523c0 1.087-.846 1.962-1.93 1.962-1.136 0-1.902-.822-1.902-1.67V17.5c-.952 1.087-2.3 1.83-4.202 1.83-2.643-.053-4.783-1.591-4.783-4.428m9.064-.955v-.716c-.687-.318-1.56-.53-2.537-.53-1.691 0-2.722.69-2.722 1.988v.053c0 1.088.899 1.75 2.167 1.75 1.85-.026 3.092-1.06 3.092-2.545M98.335 6.55c0-1.114.872-2.042 1.982-2.042 1.084 0 1.982.901 1.982 2.041v.186c.952-1.326 2.3-2.333 4.334-2.333 3.25 0 6.343 2.625 6.343 7.424v.053c0 4.799-3.04 7.398-6.343 7.398-2.114 0-3.409-.982-4.334-2.148v4.269c0 1.113-.872 2.041-1.982 2.041-1.083 0-1.982-.901-1.982-2.041V6.549zm10.677 5.329v-.053c0-2.387-1.56-3.951-3.41-3.951s-3.382 1.59-3.382 3.95v.054c0 2.386 1.533 3.95 3.383 3.95s3.409-1.564 3.409-3.95" transform="translate(-219.000000, -168.000000) translate(-2.000000, 80.000000) translate(221.000000, 88.000000) translate(0.000000, 10.500000) translate(0.000000, 18.853333)"/>
                            </g>
                        </g>
                        <g fill-rule="nonzero" transform="translate(-219.000000, -168.000000) translate(-2.000000, 80.000000) translate(221.000000, 88.000000) translate(0.000000, 10.500000) translate(17.917619, 19.326421)">
                            <ellipse cx="10.491" cy="10.526" fill="#0080FF" rx="10.491" ry="10.526"/>
                            <path fill="#CF0" d="M5.181 2.432c.153.17.173.305.115.51-.056.202.028.426-.085.615-.162.271.072.24.07.5 0 .182-.181.387-.305.518-.27.286-.771.688-.73 1.082.022.203.053.417.092.628.043.228.306.12.404.338.093.201-.016.43.086.633.035.07.168.124.142.213-.042.038-.089.07-.142.095-.059.19.306.227.3.44-.002.11.251.358.38.384.173-.085-.406-1.164-.311-1.42.288-.013.075.294.224.449.165.17.242.334.271.53.182.137.347.29.44.481.1.205-.08.457.086.616.243.232.83.466 1.188.569.208.059.518-.071.684.015.249.131.31.355.62.417.364.077.592.106.67.443.057.241.353.188.463.389.04.072.394.212.497.238.135.035.176-.265.174-.33-.744.196-.626-.452-.513-.784.099-.286-.076-.393-.398-.402-.19-.007-.366.086-.407-.122-.02-.084.004-.15.075-.205.186-.15.104-.37.255-.514.226-.214-.458-.112-.534-.09-.295.091-.084.414-.443.455-.194.022-.434.056-.617-.024-.456-.198-.198-.853-.068-1.137.091-.198.017-.345.251-.472.204-.11.43-.188.655-.259.159.073.587.155.691.048.107-.108.313-.163.475-.147.095.01.182.051.209.135.061-.012.122-.02.184-.024.187.029.13.224.142.334.014.135.147.516.357.4.177-.097.142-.308.116-.456-.037-.204-.128-.4.033-.576.173-.194.421-.325.674-.432.52-.221.54-.617.946-.954.217-.183.313-.266.613-.33.208-.046.22-.079.252-.229.108-.169.45-.276.654-.274.185.002.233.246.393.07.101-.11.819-.174.754-.289-.132-.23-.724-.02-.33-.471.149-.17-.034-.295.327-.302.2-.004.418.044.613-.021.1.199-.268.268-.213.465.24.084.534.032.796.112.35.11.24-.312.283-.47-.278-.17-.205-.217-.122-.5.052-.177-.12-.392-.334-.418-.116-.124-.096-.32-.11-.468-.013-.137-.037-.327-.229-.368-.17.081-.324.26-.537.264-.179.003-.223-.108-.145-.224.102-.155-.031-.153-.138-.255-.161-.155-.37-.192-.61-.188-.296.003-.226.191-.427.296.039.274-.187.186-.325.359.033.149.196.105.07.278-.07.1-.19.164-.313.212-.299.118-.369.098-.453.371-.032.108-.255.446-.417.215-.114-.16.11-.36.19-.493-.147-.099-.364-.026-.528-.104-.163-.077-.28-.211-.458-.266-.666-.203.09-.689.461-.788.22-.058.707-.312.916-.203.19.096.24.088.434-.014.13-.067.364.127.437-.021-.096-.17-.29-.246-.001-.327.17-.048.277-.12.384-.212-.469-.2-.955-.365-1.457-.493-.073.064-.125.137-.121.204.017.226-.665.192-.649.195-.21-.04-.418.069-.624 0-.178-.058-.21-.137-.424-.116-.39.038-.643.189-1.005.001-.128-.065-.187-.008-.315-.028-.12-.018-.198-.11-.312-.142-.326-.089-.734-.038-1.053-.03-.252.005-.72.03-.943.115-.108.042-.222.023-.336-.01-1 .328-1.931.804-2.771 1.403.105.027.202.055.269.062.265.028.295.145.438.305z"/>
                            <path fill="#CF0" d="M10.83 8.326c-.186-.061-.991-.125-.924.247.173.026.297-.12.48-.086.09.026.185.04.281.043.215.01.292.215.477.283.134.117-.013.13.255.108.09.082.37.1.387-.006.045-.3-.648-.487-.956-.59zM12.73 8.906c-.09-.023-.673-.26-.715-.096.012.097.125.102.108.214-.087.01-.282-.027-.335.072.174.135.5.13.67.129.097-.017.897-.153.272-.319zM18.256 13.651c-.254-.182-.24-.398-.623-.47-.33-.06-.57-.337-.831-.495-.208-.125-.541-.247-.607-.443-.036-.108-.087-.254-.1-.364-.024-.212-.14-.453-.426-.584-.367-.167-.645-.162-.782-.5-.055-.137-.174-.149-.27-.257-.103-.118-.983-.374-1.268-.705-.143-.168-.414-.299-.652-.371-.142.063-.287.084-.467.03-.198.027-.269.045-.376.153-.043.042-.104.064-.18.064-.26.002-.375-.186-.448.044-.001.008.128.23.138.306.017.142-.036.283-.122.397-.23.308-.881.244-.884.71-.002.23-.07.154-.185.335-.081.127-.013.286.102.403.185.188.102.389.26.58.142.175.274.458.285.644.021.358.567.52.82.788.471.496-.043 1.014-.022 1.51.011.232-.142.431-.12.684.026.324-.085.506-.22.784-.077.156.05.333.032.503-.012.13-.04.261.05.391.165.235.128.392.162.634.052.375.072.792.344 1.157.176.235.548.146.67.392.09.176.12.15.362.256.077.034.432.21.413.048-.01-.088-.463-.315-.57-.443.04-.157-.34-.332-.168-.465.084-.063.444-.272.302-.402-.315-.286.15-.273.024-.515.132-.036.437-.333.484-.436.1-.216.545-.029.7-.24.165-.225.442-.242.642-.425.144-.134.263-.32.506-.365.055-.124.191-.168.325-.232.063-.115.026-.23.036-.354.017-.254.474-.232.733-.253.225-.018.735.162.765-.123.012-.103.109-.098.181-.166.09-.08.036-.208.153-.271.157-.087.148-.299.154-.436.01-.24.22-.299.405-.444.213-.168.489-.232.6-.484.042-.1.058-.21.022-.32-.056-.163-.202-.144-.35-.25z"/>
                            <ellipse cx="10.491" cy="10.526" fill="url(#8zbng7ig9a)" opacity=".5" rx="10.491" ry="10.526"/>
                        </g>
                        <g>
                            <path fill="#5528AD" fill-rule="nonzero" d="M1.414 19.124c-.781 0-1.414-.317-1.414-.71 0-.391.633-.709 1.414-.709.781 0 1.415.318 1.415.71 0 .392-.634.71-1.415.71z" transform="translate(-219.000000, -168.000000) translate(-2.000000, 80.000000) translate(221.000000, 88.000000) translate(0.000000, 10.500000) translate(29.322912, 12.178893) rotate(-15.000000) translate(-29.322912, -12.178893) translate(22.346168, 2.262226)"/>
                            <path fill="#CCC" fill-rule="nonzero" d="M1.293 18.367c-.324 0-.586.023-.586-.301V.605c0-.325.262-.588.586-.588.323 0 .585.263.585.588v17.46c0 .325-.262.302-.585.302" transform="translate(-219.000000, -168.000000) translate(-2.000000, 80.000000) translate(221.000000, 88.000000) translate(0.000000, 10.500000) translate(29.322912, 12.178893) rotate(-15.000000) translate(-29.322912, -12.178893) translate(22.346168, 2.262226)"/>
                            <path fill="#EAEAEA" fill-rule="nonzero" d="M1.156 16.24c-.162 0-.293.022-.293-.302V.788c0-.324.131-.365.293-.365.162 0 .293.04.293.365v15.15c0 .324-.131.301-.293.301" transform="translate(-219.000000, -168.000000) translate(-2.000000, 80.000000) translate(221.000000, 88.000000) translate(0.000000, 10.500000) translate(29.322912, 12.178893) rotate(-15.000000) translate(-29.322912, -12.178893) translate(22.346168, 2.262226)"/>
                            <g>
                                <g transform="translate(-219.000000, -168.000000) translate(-2.000000, 80.000000) translate(221.000000, 88.000000) translate(0.000000, 10.500000) translate(29.322912, 12.178893) rotate(-15.000000) translate(-29.322912, -12.178893) translate(22.346168, 2.262226) translate(1.995834, -0.000000) translate(0.000000, 0.000000)">
                                    <mask id="27jgfnf2ec" fill="#fff">
                                        <use xlink:href="#wi5558y02b"/>
                                    </mask>
                                    <path fill="#D30909" fill-rule="nonzero" d="M.023 7.826V1.423C.023.425 1.02-.26 1.948.1l7.968 3.238c1.117.454 1.123 2.039.009 2.5L1.957 9.146C1.029 9.514.023 8.828.023 7.826" mask="url(#27jgfnf2ec)"/>
                                </g>
                            </g>
                            <path fill="#ED2424" fill-rule="nonzero" d="M2.433 1.81C2.433.936 3.308.335 4.12.65l6.983 2.838c.98.398.984 1.787.008 2.192L4.128 8.577c-.813.324-1.695-.277-1.695-1.155V1.81z" transform="translate(-219.000000, -168.000000) translate(-2.000000, 80.000000) translate(221.000000, 88.000000) translate(0.000000, 10.500000) translate(29.322912, 12.178893) rotate(-15.000000) translate(-29.322912, -12.178893) translate(22.346168, 2.262226)"/>
                        </g>
                    </g>
                </g>
            </g>
        </g>
    </g>
</svg>
