<svg width="180" height="180" viewBox="0 0 180 180" fill="none" xmlns="http://www.w3.org/2000/svg">
<g clip-path="url(#clip0_62_537)">
<path d="M14.3292 63.6558H31.8378C43.9117 63.6558 47.1574 69.0135 47.1574 76.4843C47.1574 84.1059 43.7613 89.4643 31.6861 89.4643H24.1392V116.481H14.3292V63.6558ZM32.5168 80.7105C35.9122 80.7105 37.7235 79.5032 37.7235 76.5594C37.7235 73.6169 35.9122 72.4096 32.5168 72.4096H24.1392V80.7105H32.5168H32.5168Z" fill="#20205D"/>
<path d="M85.637 101.916C85.637 114.218 75.5242 117.613 67.5251 117.613C60.1293 117.613 49.7149 114.293 49.7149 101.916V77.9181C49.7149 65.4661 59.8278 62.5986 67.4494 62.5986C75.5242 62.5986 85.637 66.0704 85.637 78.296V78.5224H75.8263V78.296C75.8263 73.767 72.2798 71.5039 67.6761 71.5039C63.9022 71.5039 59.5256 74.2199 59.5256 79.4269V100.785C59.5256 105.992 62.9968 108.558 67.6004 108.558C72.9582 108.558 75.8263 106.746 75.8263 101.161V92.6333H66.9214V84.1823H85.637V101.916Z" fill="#20205D"/>
<path d="M105.696 63.6552C120.186 63.6552 124.337 70.1452 124.337 82.22V97.8404C124.337 111.047 120.186 116.481 105.696 116.481H90.6024V63.6552H105.696ZM100.414 107.954H107.432C113.469 107.954 114.601 103.727 114.601 99.5756V81.1634C114.601 77.7667 113.545 72.2589 107.281 72.2589H100.414V107.954H100.414Z" fill="#20205D"/>
<path d="M151.618 99.9541H138.94L135.316 116.481H125.507L136.902 63.6552H153.731L165.126 116.481H155.315L151.618 99.9541H151.618ZM145.429 70.8996H145.128L140.751 90.8988H149.807L145.429 70.8996Z" fill="#E6194B"/>
<path d="M14.3366 50.1726H17.0438C18.5013 50.1726 19.2945 50.9231 19.2945 52.1302C19.2945 53.4236 18.4756 54.1309 17.0353 54.1309H15.5693V56.3124H14.3366V50.1726ZM16.8973 53.1477C17.6734 53.1477 18.0788 52.7936 18.0788 52.1563C18.0788 51.5091 17.6649 51.1559 16.8888 51.1559H15.5693V53.1477H16.8973Z" fill="#E6194B"/>
<path d="M20.0156 53.242C20.0156 51.3968 21.154 50 23.0078 50C24.8705 50 26.0089 51.3968 26.0089 53.242C26.0089 55.0873 24.8705 56.4849 23.0078 56.4849C21.154 56.4849 20.0156 55.0873 20.0156 53.242ZM24.7411 53.242C24.7411 52.0349 24.0944 51.0696 23.0078 51.0696C21.9215 51.0696 21.2748 52.0349 21.2748 53.242C21.2748 54.4492 21.9215 55.4153 23.0078 55.4153C24.0944 55.4153 24.7411 54.4491 24.7411 53.242Z" fill="#E6194B"/>
<path d="M27.0817 50.1726H28.3144V55.2518H31.143V56.3124H27.0817V50.1726H27.0817Z" fill="#E6194B"/>
<path d="M32.0029 50.1726H33.2357V56.3124H32.0029V50.1726Z" fill="#E6194B"/>
<path d="M34.1062 54.9408L35.0378 54.3458C35.3654 55.036 36.0638 55.4756 36.9173 55.4756C37.7109 55.4756 38.1679 55.1483 38.1679 54.6307C38.1679 54.1651 37.8574 53.8973 36.6759 53.6824C35.1151 53.3975 34.4684 52.8025 34.4684 51.8282C34.4684 50.6642 35.4517 50 36.7793 50C37.9522 50 38.78 50.4485 39.2542 51.2592L38.3401 51.8624C37.9954 51.2421 37.452 50.9914 36.7708 50.9914C36.0895 50.9914 35.6931 51.2934 35.6931 51.6987C35.6931 52.1472 36.0121 52.3629 37.1073 52.5697C38.6767 52.8717 39.3921 53.4667 39.3921 54.5273C39.3921 55.8117 38.3315 56.4849 36.8741 56.4849C35.5807 56.4849 34.503 55.9411 34.1062 54.9408V54.9408Z" fill="#E6194B"/>
<path d="M40.4177 50.1726H41.6505V52.5526H44.4273V50.1726H45.6605V56.3124H44.4273V53.6735H41.6505V56.3124H40.4177V50.1726Z" fill="#E6194B"/>
<path d="M48.9156 53.277C48.9156 51.3797 49.9937 50 51.8646 50C53.1755 50 54.1237 50.6292 54.538 51.6727L53.4429 52.052C53.184 51.466 52.7184 51.0696 51.8992 51.0696C50.8471 51.0696 50.1748 51.8624 50.1748 53.242C50.1748 54.5533 50.8125 55.4153 51.9423 55.4153C52.8303 55.4153 53.5291 54.8977 53.5291 53.9583H51.9338V52.9661H54.6068V56.3123H53.5291V55.631H53.5116C53.184 56.1569 52.4942 56.4499 51.7095 56.4499C49.9676 56.4499 48.9156 55.1915 48.9156 53.277H48.9156Z" fill="#E6194B"/>
<path d="M55.8925 50.1726H58.6172C59.9969 50.1726 60.8764 50.7416 60.8764 52.061C60.8764 53.0272 60.3331 53.6214 59.5313 53.8631L61.0832 56.3124H59.6778L58.229 53.9836H57.1252V56.3124H55.8925V50.1726ZM58.4793 53.0093C59.1777 53.0093 59.6518 52.7252 59.6518 52.0781C59.6518 51.475 59.2294 51.1469 58.4793 51.1469H57.1252V53.0093H58.4793Z" fill="#E6194B"/>
<path d="M64.0452 50.1726H65.3044L67.6498 56.3124H66.365L65.9079 55.0271H63.3985L62.9329 56.3124H61.6651L64.0452 50.1726ZM65.5543 54.0267L64.6833 51.5612H64.6662L63.7692 54.0267H65.5543Z" fill="#E6194B"/>
<path d="M68.4048 50.1726H71.112C72.5695 50.1726 73.3627 50.9231 73.3627 52.1302C73.3627 53.4236 72.5438 54.1309 71.1035 54.1309H69.6375V56.3124H68.4048V50.1726H68.4048ZM70.9655 53.1477C71.7416 53.1477 72.147 52.7936 72.147 52.1563C72.147 51.5091 71.7331 51.1559 70.957 51.1559H69.6375V53.1477H70.9655Z" fill="#E6194B"/>
<path d="M74.2153 50.1726H75.448V52.5526H78.2249V50.1726H79.4581V56.3124H78.2249V53.6735H75.448V56.3124H74.2153V50.1726Z" fill="#E6194B"/>
<path d="M80.7791 50.1726H82.0119V56.3124H80.7791V50.1726Z" fill="#E6194B"/>
<path d="M83.0965 53.242C83.0965 51.3968 84.114 50 86.0113 50C87.4166 50 88.3222 50.7415 88.6758 51.8624L87.5806 52.2164C87.391 51.5262 86.8562 51.0696 86.0545 51.0696C84.9507 51.0696 84.3557 51.9657 84.3557 53.242C84.3557 54.6307 85.028 55.4153 86.063 55.4153C86.8994 55.4153 87.3735 54.9668 87.6063 54.2253L88.7015 54.5533C88.3478 55.7173 87.3995 56.4849 85.9938 56.4849C84.14 56.4849 83.0965 55.2086 83.0965 53.242Z" fill="#E6194B"/>
<path d="M91.9048 50.1726H94.4139C96.3886 50.1726 97.3373 51.2853 97.3373 53.26C97.3373 55.1826 96.3629 56.3124 94.4139 56.3124H91.9048V50.1726ZM94.3451 55.2518C95.621 55.2518 96.0781 54.4492 96.0781 53.2168C96.0781 51.9918 95.6039 51.2332 94.3883 51.2332H93.1376V55.2518H94.3451Z" fill="#E6194B"/>
<path d="M98.4255 50.1726H102.892V51.1811H99.6583V52.6471H102.539V53.6393H99.6583V55.303H102.996V56.3124H98.4255V50.1726H98.4255Z" fill="#E6194B"/>
<path d="M103.648 54.9408L104.58 54.3458C104.907 55.036 105.606 55.4756 106.459 55.4756C107.253 55.4756 107.71 55.1483 107.71 54.6307C107.71 54.1651 107.399 53.8973 106.218 53.6824C104.657 53.3975 104.01 52.8025 104.01 51.8282C104.01 50.6642 104.993 50 106.321 50C107.494 50 108.322 50.4485 108.796 51.2592L107.882 51.8624C107.537 51.2421 106.994 50.9914 106.312 50.9914C105.631 50.9914 105.235 51.2934 105.235 51.6987C105.235 52.1472 105.554 52.3629 106.649 52.5697C108.218 52.8717 108.934 53.4667 108.934 54.5273C108.934 55.8117 107.873 56.4849 106.416 56.4849C105.122 56.4849 104.045 55.9411 103.648 54.9408V54.9408Z" fill="#E6194B"/>
<path d="M109.972 50.1726H111.204V56.3124H109.972V50.1726Z" fill="#E6194B"/>
<path d="M112.289 53.277C112.289 51.3797 113.367 50 115.238 50C116.549 50 117.498 50.6292 117.911 51.6727L116.816 52.052C116.558 51.466 116.092 51.0696 115.273 51.0696C114.221 51.0696 113.548 51.8624 113.548 53.242C113.548 54.5533 114.186 55.4153 115.316 55.4153C116.204 55.4153 116.903 54.8977 116.903 53.9583H115.307V52.9661H117.98V56.3123H116.903V55.631H116.885C116.558 56.1569 115.868 56.4499 115.083 56.4499C113.341 56.4499 112.289 55.1915 112.289 53.277Z" fill="#E6194B"/>
<path d="M119.266 50.1726H120.559L123.276 54.415H123.293V50.1726H124.457V56.3124H123.189L120.447 52.1042H120.43V56.3124H119.266V50.1726Z" fill="#E6194B"/>
<path d="M129.781 50.1726H131.04L133.386 56.3124H132.101L131.644 55.0271H129.135L128.669 56.3124H127.401L129.781 50.1726ZM131.29 54.0267L130.419 51.5612H130.402L129.505 54.0267H131.29Z" fill="#E6194B"/>
<path d="M133.246 50.1726H134.505L135.591 54.6999H135.608L136.842 50.1726H137.971L139.213 54.6999H139.23L140.325 50.1726H141.567L139.859 56.3124H138.592L137.411 51.8974H137.393L136.177 56.3124H134.962L133.246 50.1726Z" fill="#E6194B"/>
<path d="M143.813 50.1726H145.072L147.418 56.3124H146.133L145.676 55.0271H143.167L142.701 56.3124H141.433L143.813 50.1726ZM145.322 54.0267L144.451 51.5612H144.434L143.537 54.0267H145.322Z" fill="#E6194B"/>
<path d="M148.172 50.1726H150.897C152.277 50.1726 153.156 50.7416 153.156 52.061C153.156 53.0272 152.613 53.6214 151.811 53.8631L153.363 56.3124H151.958L150.509 53.9836H149.405V56.3124H148.172V50.1726ZM150.759 53.0093C151.458 53.0093 151.932 52.7252 151.932 52.0781C151.932 51.475 151.509 51.1469 150.759 51.1469H149.405V53.0093H150.759Z" fill="#E6194B"/>
<path d="M154.271 50.1726H156.78C158.755 50.1726 159.703 51.2853 159.703 53.26C159.703 55.1826 158.729 56.3124 156.78 56.3124H154.271V50.1726ZM156.711 55.2518C157.987 55.2518 158.444 54.4492 158.444 53.2168C158.444 51.9918 157.97 51.2332 156.754 51.2332H155.504V55.2518H156.711Z" fill="#E6194B"/>
<path d="M160.301 54.9408L161.232 54.3458C161.56 55.036 162.258 55.4756 163.112 55.4756C163.905 55.4756 164.362 55.1483 164.362 54.6307C164.362 54.1651 164.052 53.8973 162.87 53.6824C161.309 53.3975 160.663 52.8025 160.663 51.8282C160.663 50.6642 161.646 50 162.974 50C164.147 50 164.974 50.4485 165.448 51.2592L164.534 51.8624C164.19 51.2421 163.646 50.9914 162.965 50.9914C162.284 50.9914 161.887 51.2934 161.887 51.6987C161.887 52.1472 162.206 52.3629 163.302 52.5697C164.871 52.8717 165.586 53.4667 165.586 54.5273C165.586 55.8117 164.526 56.4849 163.068 56.4849C161.775 56.4849 160.697 55.9411 160.301 54.9408V54.9408Z" fill="#E6194B"/>
<path d="M39.9045 123.902H41.0958V126.201H43.7782V123.902H44.9694V129.833H43.7782V127.285H41.0958V129.833H39.9045V123.902Z" fill="#E6194B"/>
<path d="M46.0203 126.868C46.0203 125.085 47.1199 123.736 48.9107 123.736C50.7103 123.736 51.8096 125.085 51.8096 126.868C51.8096 128.65 50.7103 130 48.9107 130C47.1199 130 46.0203 128.65 46.0203 126.868ZM50.585 126.868C50.585 125.701 49.9603 124.769 48.9107 124.769C47.861 124.769 47.2363 125.701 47.2363 126.868C47.2363 128.034 47.861 128.967 48.9107 128.967C49.9603 128.967 50.585 128.034 50.585 126.868Z" fill="#E6194B"/>
<path d="M52.8604 123.902H54.1103L56.7341 128.001H56.7508V123.902H57.8757V129.833H56.6511L54.002 125.768H53.9853V129.833H52.8604V123.902Z" fill="#E6194B"/>
<path d="M58.9261 126.868C58.9261 125.085 60.0254 123.736 61.8165 123.736C63.6162 123.736 64.7155 125.085 64.7155 126.868C64.7155 128.65 63.6162 130 61.8165 130C60.0254 130 58.9261 128.65 58.9261 126.868ZM63.4913 126.868C63.4913 125.701 62.8661 124.769 61.8165 124.769C60.7669 124.769 60.1422 125.701 60.1422 126.868C60.1422 128.034 60.7669 128.967 61.8165 128.967C62.8661 128.967 63.4913 128.034 63.4913 126.868Z" fill="#E6194B"/>
<path d="M65.7207 127.676V123.902H66.912V127.617C66.912 128.475 67.3617 128.967 68.2196 128.967C69.0861 128.967 69.5358 128.475 69.5358 127.617V123.902H70.727V127.676C70.727 129.25 69.7275 130 68.2282 130C66.7203 130 65.7207 129.25 65.7207 127.676Z" fill="#E6194B"/>
<path d="M71.9899 123.902H74.6227C75.9555 123.902 76.8049 124.452 76.8049 125.727C76.8049 126.659 76.2803 127.234 75.5054 127.468L77.0052 129.833H75.6471L74.2474 127.584H73.1811V129.833H71.9899V123.902ZM74.4892 126.642C75.164 126.642 75.6222 126.368 75.6222 125.743C75.6222 125.16 75.214 124.844 74.4892 124.844H73.1811V126.642H74.4892Z" fill="#E6194B"/>
<path d="M79.883 123.902H81.0994L83.3651 129.833H82.1238L81.6822 128.592H79.2582L78.8085 129.833H77.5839L79.8829 123.902H79.883ZM81.3408 127.626L80.4995 125.243H80.4828L79.6164 127.626H81.3408Z" fill="#E6194B"/>
<path d="M84.1119 123.902H86.8196C88.1691 123.902 88.8272 124.444 88.8272 125.452C88.8272 126.077 88.4357 126.559 87.8273 126.709V126.726C88.5106 126.876 89.0022 127.326 89.0022 128.192C89.0022 129.209 88.3275 129.833 86.9111 129.833H84.1119V123.902V123.902ZM86.6779 126.309C87.2445 126.309 87.6441 126.109 87.6441 125.56C87.6441 125.085 87.336 124.835 86.6779 124.835H85.2869V126.309H86.6779ZM86.7361 128.9C87.4943 128.9 87.8191 128.609 87.8191 128.076C87.8191 127.551 87.5025 127.242 86.7194 127.242H85.2869V128.9H86.7361Z" fill="#E6194B"/>
<path d="M90.06 123.902H91.2512V128.808H93.9837V129.833H90.06V123.902Z" fill="#E6194B"/>
<path d="M94.8335 123.902H99.1488V124.877H96.0247V126.293H98.8073V127.251H96.0247V128.859H99.2489V129.833H94.8335V123.902Z" fill="#E6194B"/>
<path d="M102.385 123.902H104.017L105.442 128.459H105.459L106.908 123.902H108.516V129.833H107.4V125.36H107.383L105.95 129.833H104.951L103.518 125.36H103.501V129.833H102.385V123.902H102.385Z" fill="#E6194B"/>
<path d="M109.815 123.902H114.131V124.877H111.007V126.293H113.789V127.251H111.007V128.859H114.231V129.833H109.815V123.902Z" fill="#E6194B"/>
<path d="M115.272 123.902H116.522L119.146 128.001H119.163V123.902H120.287V129.833H119.063L116.414 125.768H116.397V129.833H115.272V123.902Z" fill="#E6194B"/>
<path d="M122.76 124.927H121.069V123.902H125.642V124.927H123.951V129.833H122.76V124.927Z" fill="#E6194B"/>
<path d="M126.423 123.902H127.614V129.833H126.423V123.902Z" fill="#E6194B"/>
<path d="M128.662 126.868C128.662 125.085 129.761 123.736 131.552 123.736C133.352 123.736 134.451 125.085 134.451 126.868C134.451 128.65 133.352 130 131.552 130C129.761 130 128.662 128.65 128.662 126.868ZM133.227 126.868C133.227 125.701 132.602 124.769 131.552 124.769C130.503 124.769 129.878 125.701 129.878 126.868C129.878 128.034 130.503 128.967 131.552 128.967C132.602 128.967 133.227 128.034 133.227 126.868Z" fill="#E6194B"/>
<path d="M135.506 123.902H136.756L139.38 128.001H139.397V123.902H140.521V129.833H139.297L136.648 125.768H136.631V129.833H135.506V123.902Z" fill="#E6194B"/>
<path d="M14.125 128.851C16.2323 127.426 16.9653 126.626 16.9653 125.685C16.9653 125.085 16.6238 124.735 16.074 124.735C15.4411 124.735 15.166 125.135 15.0329 125.76L14 125.576C14.2332 124.344 15.0162 123.785 16.124 123.785C17.3405 123.785 18.065 124.51 18.065 125.668C18.065 126.926 17.2986 127.734 15.7826 128.834V128.851H18.0401V129.833H14.125V128.851Z" fill="#20205D"/>
<path d="M18.903 126.868C18.903 124.877 19.6111 123.785 21.0856 123.785C22.5601 123.785 23.2683 124.877 23.2683 126.868C23.2683 128.842 22.5601 129.95 21.0856 129.95C19.6111 129.95 18.903 128.842 18.903 126.868ZM22.1686 126.868C22.1686 125.369 21.8186 124.727 21.0856 124.727C20.3526 124.727 20.0026 125.369 20.0026 126.868C20.0026 128.351 20.3608 129.009 21.0856 129.009C21.8104 129.009 22.1686 128.342 22.1686 126.868Z" fill="#20205D"/>
<path d="M24.0659 128.851C26.1733 127.426 26.9063 126.626 26.9063 125.685C26.9063 125.085 26.5648 124.735 26.015 124.735C25.3821 124.735 25.107 125.135 24.9739 125.76L23.941 125.576C24.1742 124.344 24.9572 123.785 26.065 123.785C27.2815 123.785 28.0059 124.51 28.0059 125.668C28.0059 126.926 27.2396 127.734 25.7236 128.834V128.851H27.9811V129.833H24.0659V128.851H24.0659Z" fill="#20205D"/>
<path d="M29.929 125.668H28.7878V124.844C29.6872 124.835 29.9957 124.66 30.0954 123.902H31.012V129.833H29.929V125.668Z" fill="#20205D"/>
<path d="M147.485 128.851C149.593 127.426 150.326 126.626 150.326 125.685C150.326 125.085 149.984 124.735 149.434 124.735C148.802 124.735 148.526 125.135 148.393 125.76L147.36 125.576C147.594 124.344 148.377 123.785 149.485 123.785C150.701 123.785 151.425 124.51 151.425 125.668C151.425 126.926 150.659 127.734 149.143 128.834V128.851H151.401V129.833H147.485V128.851H147.485Z" fill="#20205D"/>
<path d="M152.263 126.868C152.263 124.877 152.972 123.785 154.446 123.785C155.921 123.785 156.629 124.877 156.629 126.868C156.629 128.842 155.921 129.95 154.446 129.95C152.972 129.95 152.263 128.842 152.263 126.868ZM155.529 126.868C155.529 125.369 155.179 124.727 154.446 124.727C153.713 124.727 153.363 125.369 153.363 126.868C153.363 128.351 153.721 129.009 154.446 129.009C155.171 129.009 155.529 128.342 155.529 126.868Z" fill="#20205D"/>
<path d="M157.426 128.851C159.534 127.426 160.267 126.626 160.267 125.685C160.267 125.085 159.925 124.735 159.375 124.735C158.743 124.735 158.467 125.135 158.334 125.76L157.301 125.576C157.535 124.344 158.318 123.785 159.426 123.785C160.642 123.785 161.366 124.51 161.366 125.668C161.366 126.926 160.6 127.734 159.084 128.834V128.851H161.342V129.833H157.426V128.851H157.426Z" fill="#20205D"/>
<path d="M163.289 125.668H162.148V124.844C163.048 124.835 163.356 124.66 163.456 123.902H164.372V129.833H163.289V125.668Z" fill="#20205D"/>
</g>
<defs>
<clipPath id="clip0_62_537">
<rect width="151.586" height="80" fill="white" transform="translate(14 50)"/>
</clipPath>
</defs>
</svg>
