<svg xmlns="http://www.w3.org/2000/svg" width="150" height="70" viewBox="0 0 150 70">
    <g fill="none" fill-rule="evenodd">
        <g fill="#FFF">
            <g>
                <g>
                    <path d="M17.094 50.58L7.422 33.67v16.91H0V21.51h7.422l9.652 16.892V21.51h7.402v29.07h-7.382zm15.083-30.747c.757 0 1.433.153 2.03.46.597.306 1.065.732 1.403 1.277.338.546.507 1.165.507 1.857 0 .706-.165 1.331-.497 1.877-.332.546-.8.972-1.403 1.278-.604.306-1.283.459-2.04.459-.77 0-1.452-.153-2.05-.46-.596-.305-1.064-.731-1.402-1.277-.338-.546-.508-1.171-.508-1.877 0-.692.17-1.31.508-1.857.338-.545.806-.971 1.403-1.277.597-.307 1.28-.46 2.05-.46zm-3.542 30.748V28.978H35.8V50.58h-7.164zm18.726-23.04v5.79h11.183v6.009H47.361v11.24h-7.423V21.51H59.56v6.03H47.361zm18.466-7.708c.757 0 1.433.153 2.03.46.597.306 1.065.732 1.403 1.277.338.546.507 1.165.507 1.857 0 .706-.165 1.331-.497 1.877-.332.546-.8.972-1.403 1.278-.604.306-1.283.459-2.04.459-.77 0-1.452-.153-2.05-.46-.596-.305-1.064-.731-1.402-1.277-.338-.546-.508-1.171-.508-1.877 0-.692.17-1.31.508-1.857.338-.545.806-.971 1.403-1.277.597-.307 1.28-.46 2.05-.46zm-3.542 30.748V28.978h7.164V50.58h-7.164z" transform="translate(-219.000000, -168.000000) translate(-2.000000, 80.000000) translate(221.000000, 88.000000)"/>
                </g>
            </g>
        </g>
    </g>
</svg>
