<svg xmlns="http://www.w3.org/2000/svg" width="121" height="31" viewBox="0 0 121 31"><g fill="#373B78" fill-rule="evenodd"><path d="M18.81 2.93c-.482.3-1.017.673-1.544 1.06-.982.722-1.797 1.461-2.189 2.702-.5 1.584 1.547 2.684 2.667 2.188 1.2-.531 1.742-.54 2.874-.74 1.114-.198 2.306-.026 3.404-.268.072-.016.997-.26.978-.288-1.29-1.95-2.861-4.072-4.724-5.584.007.087-.987.634-1.466.93M15.294 0c-1.37.02-2.518.293-3.48.866-.864.514-1.608 1.259-2.227 2.236-1.571 2.477-3.173 4.327-5.71 6.26-.146.111.15-.11 0 0-.177.13-.705.5-.877.638 1.782-.689 3.813-1.168 5.568-1.922a27.716 27.716 0 003.208-1.656c1.708-1.016 2.831-2.699 4.49-3.767C17.2 2.056 18.668 1.071 19 .96 17.857.357 16.629-.018 15.294 0m36.69 22v-9.069c0-1.115-.643-2.086-2.25-2.086-.915 0-1.607.285-2.226.878V22h-3.016v-9.14c0-1.232-.866-2.038-2.496-2.038-.89 0-1.386.12-1.98.357V22H37V9.922C38.335 9.308 39.77 9 41.996 9c2.15 0 3.386.592 4.153 1.397C47.039 9.615 48.4 9 50.429 9 53.591 9 55 10.895 55 12.906V22h-3.016M59.5 6.893c-.83 0-1.5-.647-1.5-1.436C58 4.645 58.67 4 59.5 4c.85 0 1.5.645 1.5 1.457 0 .789-.65 1.436-1.5 1.436zM58.133 22h2.732V9.116h-2.732V22zm13.111 5v-5.397c-.57.306-1.345.52-2.347.52-2.916 0-4.897-2.404-4.897-6.22C64 11.967 65.775 9 69.944 9c1.869 0 3.236.423 4.056.917V27h-2.756zm0-16.045c-.365-.189-.843-.26-1.434-.26-2.097 0-3.055 1.838-3.055 5.02 0 2.968.866 4.664 2.895 4.664.66 0 1.206-.164 1.594-.4v-9.024zM82.025 22C78.562 22 77 20.51 77 17.699V9h2.932v8.863c0 1.205.675 2.153 2.188 2.153.841 0 1.442-.142 1.948-.426V9H87v11.984C85.92 21.55 84.284 22 82.025 22M92.5 6.893c-.827 0-1.5-.647-1.5-1.436C91 4.645 91.673 4 92.5 4c.85 0 1.5.645 1.5 1.457 0 .789-.65 1.436-1.5 1.436zM91.133 22h2.73V9.116h-2.73V22zm11.585 0C99.097 22 97 19.564 97 15.476c0-4.208 2.187-6.716 5.376-6.716.684 0 1.297.072 1.846.238V3H107v18.069c-.98.574-2.369.931-4.282.931m1.504-11.424a4.182 4.182 0 00-1.231-.167c-2.414 0-3.235 2.175-3.235 4.9 0 2.914.889 4.826 3.03 4.826.661 0 1.114-.07 1.436-.285v-9.274M115.5 22c-3.708 0-5.5-2.79-5.5-6.49 0-3.744 1.792-6.51 5.5-6.51 3.732 0 5.5 2.766 5.5 6.51 0 3.7-1.792 6.49-5.5 6.49m0-11.21c-2.112 0-2.53 2.302-2.53 4.698 0 2.373.47 4.583 2.53 4.583 2.135 0 2.53-2.21 2.53-4.583 0-2.396-.395-4.698-2.53-4.698"/><path d="M13.363 15.765c1.808-.663 3.465-1.916 5.34-2.39 2.092-.528 3.442-.859 5.728-.774 1.028.038 1.435.337 2.606.187.492-.063.956-.348.963-.351a66.39 66.39 0 00-2.034-3.166c-.156-.1-1.355-.284-2.069-.304-1.44-.04-2.495.007-3.854.465-1.247.42-2.234 1.485-3.667.918-1.287-.509-1.255-2.144-2.81-2.336-1.151-.142-2.582.822-3.617 1.194-2.328.836-4.352 2.306-6.69 3.12-.426.147-1.23.36-1.896.463-.185.028-.426.062-.647.084a4.04 4.04 0 00-.704 1.982c-.114 1.38.597 2.105 1.293 2.99.493.183 1.347.172 2.298.119 3.385-.189 6.718-1.087 9.76-2.201zm8.634 7.238c-.206.171-.624.412-.839.55-1.238.81-2.486 1.611-3.792 2.352-2.74 1.554-6.25 3.394-9.739 2.005-1.025-.409-3.376-2.04-3.627-2.463.629 1.642 1.589 3.216 2.91 4.366 2.946 2.565 7.367.463 9.941-1.516 1.968-1.515 3.507-3.44 5.146-5.294-.01.012.01-.011 0 0"/><path d="M26.222 18.707c1.862-1.388 3.606-2.83 2.355-5.342L28.388 13c-.298.202-.608.563-1.14.659-.677.121-1.725-.052-2.473-.083-1.215-.05-2.099-.139-3.302.103-2.524.51-4.552 1.873-6.683 3.06-1.566.87-2.96 2.261-4.657 2.904-2.051.777-3.996.555-6.145.58-.324.005-.659 0-.988-.013.421 1.062.64 1.745.923 2.736.026.015.046.03.046.03.814.504 2.18 1.304 3.139 1.508 1.764.375 3.503.628 5.285.466 2.98-.272 6.093-1.786 8.592-3.137.652-.352 1.738-.962 2.425-1.351.412-.233.947-.532 1.358-.81l1.454-.945"/></g></svg>