<svg xmlns="http://www.w3.org/2000/svg" width="23" height="24" viewBox="0 0 23 24">
    <g fill="none" fill-rule="evenodd">
        <g fill="#051344">
            <path d="M9.599 0C4.298 0 0 4.298 0 9.599s4.298 9.599 9.599 9.599 9.599-4.298 9.599-9.6c0-5.3-4.298-9.598-9.6-9.598zm0 2.071c4.157 0 7.528 3.37 7.528 7.528 0 4.157-3.37 7.528-7.528 7.528-4.158 0-7.528-3.37-7.528-7.528 0-4.158 3.37-7.528 7.528-7.528z" transform="translate(-1393.000000, -1014.000000) translate(0.000000, 986.000000) translate(1393.000000, 28.000000)"/>
            <path d="M16.077 14.992L23.03 22.603 21.501 24 14.548 16.389z" transform="translate(-1393.000000, -1014.000000) translate(0.000000, 986.000000) translate(1393.000000, 28.000000)"/>
        </g>
    </g>
</svg>
