<svg xmlns="http://www.w3.org/2000/svg" width="30" height="24" viewBox="0 0 30 24">
    <g fill="none" fill-rule="evenodd" opacity=".3">
        <g fill="#051344" fill-rule="nonzero">
            <path d="M5.1 24.2c2.467-2.533 4.217-5.067 5.25-7.6 1.033-2.533 1.55-5.367 1.55-8.5V0H0v11.9h5.5c-.4 2.867-2 5.8-4.8 8.8l4.4 3.5zm17.8 0c2.467-2.533 4.217-5.067 5.25-7.6 1.033-2.533 1.55-5.367 1.55-8.5V0H17.8v11.9h5.5c-.4 2.867-2 5.8-4.8 8.8l4.4 3.5z" transform="translate(-753.000000, -6816.000000) translate(0.000000, 6598.000000) translate(221.000000, 100.000000) translate(502.000000, 0.000000) translate(30.000000, 118.000000)"/>
        </g>
    </g>
</svg>
