<svg xmlns="http://www.w3.org/2000/svg" width="43" height="40" viewBox="0 0 43 40">
    <g fill="none" fill-rule="evenodd">
        <g stroke="#43b8c9" stroke-width="2">
            <g>
                <g>
                    <g>
                        <path d="M5 23c-2.21 0-4-1.79-4-4v-8c0-2.21 1.79-4 4-4V2.5C5 1.12 6.12 0 7.5 0S10 1.12 10 2.5v1.728M14 7h8c1.105 0 2 .895 2 2s-.895 2-2 2h-8" transform="translate(-235.000000, -80.000000) translate(235.000000, 80.000000) translate(0.500000, 0.500000) translate(19.798990, 19.798990) rotate(-45.000000) translate(-19.798990, -19.798990) translate(5.298990, 6.298990)"/>
                        <path d="M21 27H9c-2.21 0-4-1.79-4-4m0-8c0-2.21 1.79-4 4-4V6.5C9 5.12 10.12 4 11.5 4S14 5.12 14 6.5V11h7" transform="translate(-235.000000, -80.000000) translate(235.000000, 80.000000) translate(0.500000, 0.500000) translate(19.798990, 19.798990) rotate(-45.000000) translate(-19.798990, -19.798990) translate(5.298990, 6.298990)"/>
                        <path d="M18 11h8c1.105 0 2 .895 2 2s-.895 2-2 2h-8M18 15h9c1.105 0 2 .895 2 2s-.895 2-2 2h-9M18 19h8c1.105 0 2 .895 2 2s-.895 2-2 2h-8M18 23h6c1.105 0 2 .895 2 2s-.895 2-2 2h-6M5 15c1.105 0 2.105.448 2.828 1.172C8.552 16.895 9 17.895 9 19c0 1.105-.448 2.105-1.172 2.828C7.105 22.552 6.105 23 5 23c-1.105 0-2.105-.448-2.828-1.172C1.448 21.105 1 20.105 1 19c0-1.105.448-2.105 1.172-2.828C2.895 15.448 3.895 15 5 15z" transform="translate(-235.000000, -80.000000) translate(235.000000, 80.000000) translate(0.500000, 0.500000) translate(19.798990, 19.798990) rotate(-45.000000) translate(-19.798990, -19.798990) translate(5.298990, 6.298990)"/>
                    </g>
                    <g stroke-linecap="round">
                        <path d="M11.914 3L11.914 0" transform="translate(-235.000000, -80.000000) translate(235.000000, 80.000000) translate(0.500000, 0.500000) translate(12.585786, 3.500000) translate(11.914214, 1.500000) scale(-1, 1) rotate(180.000000) translate(-11.914214, -1.500000)"/>
                        <path d="M23.414 6L23.414 3" transform="translate(-235.000000, -80.000000) translate(235.000000, 80.000000) translate(0.500000, 0.500000) translate(12.585786, 3.500000) translate(23.414214, 4.500000) scale(-1, 1) rotate(135.000000) translate(-23.414214, -4.500000)"/>
                        <path d="M1.414 6L1.414 3" transform="translate(-235.000000, -80.000000) translate(235.000000, 80.000000) translate(0.500000, 0.500000) translate(12.585786, 3.500000) translate(1.414214, 4.500000) scale(-1, 1) rotate(45.000000) translate(-1.414214, -4.500000)"/>
                    </g>
                </g>
            </g>
        </g>
    </g>
</svg>
