<svg xmlns="http://www.w3.org/2000/svg" xmlns:xlink="http://www.w3.org/1999/xlink" width="1478" height="641" viewBox="0 0 1478 641">
    <defs>
        <path id="sj1jzj0t0a" d="M0 0H1478V641H0z"/>
        <path id="m92df2u7wd" d="M0 0.253L269.86 0.253 269.86 323 0 323z"/>
        <path id="nbkp3bs2jf" d="M0.261 0.255L492 0.255 492 423.875 0.261 423.875z"/>
        <path id="mcmfp4d6ch" d="M0 0.141L421.962 0.141 421.962 367.559 0 367.559z"/>
        <filter id="1y9v40n1nb" width="106.8%" height="115.6%" x="-3%" y="-6.2%" filterUnits="objectBoundingBox">
            <feOffset dx="5" dy="10" in="SourceAlpha" result="shadowOffsetOuter1"/>
            <feGaussianBlur in="shadowOffsetOuter1" result="shadowBlurOuter1" stdDeviation="15"/>
            <feColorMatrix in="shadowBlurOuter1" values="0 0 0 0 0.28627451 0 0 0 0 0.305882353 0 0 0 0 0.623529412 0 0 0 0.18 0"/>
        </filter>
    </defs>
    <g fill="none" fill-rule="evenodd">
        <g>
            <g transform="translate(-221.000000, -730.000000) translate(221.000000, 730.000000)">
                <mask id="xs0nxjir3c" fill="#fff">
                    <use xlink:href="#sj1jzj0t0a"/>
                </mask>
                <g>
                    <use fill="#000" filter="url(#1y9v40n1nb)" xlink:href="#sj1jzj0t0a"/>
                    <use fill="#FFF" xlink:href="#sj1jzj0t0a"/>
                </g>
                <g mask="url(#xs0nxjir3c)">
                    <g>
                        <g transform="translate(1075.000000, 287.000000) translate(0.000000, 219.000000)">
                            <mask id="geq7wl3bte" fill="#fff">
                                <use xlink:href="#m92df2u7wd"/>
                            </mask>
                            <path fill="#FDAD31" d="M269.015 208.638c2.264-36.839.468-74.49-11.471-109.409-11.939-34.918-34.895-67.048-67.325-84.59-34.282-18.544-77.396-18.97-112.66-2.374C42.295 28.86 15.396 61.727 4.683 99.239.729 113.086-1.137 127.68.727 141.96c4.876 37.363 34.231 67.035 66.144 87.004 31.912 19.968 67.793 33.29 98.458 55.13 25.544 18.192 53.442 61.31 77.732 24.45 18.814-28.55 23.906-66.556 25.954-99.906" mask="url(#geq7wl3bte)"/>
                        </g>
                        <g transform="translate(1075.000000, 287.000000) translate(132.000000, 0.000000)">
                            <mask id="y1gk480ifg" fill="#fff">
                                <use xlink:href="#nbkp3bs2jf"/>
                            </mask>
                            <path fill="#F9FBFF" d="M7.459 88.976c-12.453 41.354-7.44 86.27 5.077 127.605 21.993 72.635 69.132 139.677 136.452 174.556 29.804 15.442 62.693 24.288 95.92 28.987 61.837 8.747 126.939 2.905 182.804-25.046 28.988-14.502 56.936-37.634 63.048-69.5 4.61-24.026-4.183-48.867-17.283-69.518-43.25-68.185-127.132-97.773-184.617-154.443-20.498-20.208-37.652-43.905-60.204-61.785-77.28-61.27-189.48-56.188-221.197 49.144" mask="url(#y1gk480ifg)"/>
                        </g>
                        <path fill="#D9E8FF" d="M269 385c-1.063-22.659-4.57-45.113-11.968-66.53-11.957-34.609-34.948-66.454-67.426-83.84C175.51 227.084 159.922 222.567 144 221c21.259 66.895 64.262 128.624 125 164" transform="translate(1075.000000, 287.000000) translate(206.500000, 303.000000) rotate(1.000000) translate(-206.500000, -303.000000)"/>
                    </g>
                </g>
                <g mask="url(#xs0nxjir3c)">
                    <g>
                        <g transform="translate(-256.000000, -99.000000)">
                            <mask id="26eqw3a44i" fill="#fff">
                                <use xlink:href="#mcmfp4d6ch"/>
                            </mask>
                            <path fill="#FDAD31" d="M57.082 48.018C22.61 65.236 4.316 103.383.756 140.411c-5.624 58.488 20.553 117.93 64.7 158.774 44.147 40.846 104.805 63.623 166.088 67.74 28.05 1.883 56.952-.078 82.832-10.593 36.859-14.975 64.536-46.336 80.862-81.3 16.325-34.964 22.368-73.498 25.45-111.674 1.923-23.804 2.673-48.307-5.234-70.953-9.832-28.157-32.623-51.142-59.573-65.88-26.95-14.74-57.851-21.812-88.738-24.828C205.63-4.308 139.856 6.524 91.8 43.725l-34.72 4.293z" mask="url(#26eqw3a44i)"/>
                        </g>
                        <path fill="#F9FBFF" d="M272.709 97.29c33.375-.408 104.87 178.329 187.275 175.68 66.709-2.142 91.598-63.376 117.239-90.778C602.863 154.789 706 94 706 94s-466.667 3.698-433.291 3.29" transform="translate(-256.000000, -99.000000)"/>
                        <path fill="#D9E8FF" d="M405.072 250c9.176-27.96 13.293-57.487 15.658-86.805 1.787-22.147 2.556-44.899-3.718-66.195-70.915.543-130.308.986-143.012 1.046C299.81 99.87 347.468 202.862 405.072 250" transform="translate(-256.000000, -99.000000)"/>
                    </g>
                </g>
            </g>
        </g>
    </g>
</svg>
