<svg width="26" height="19" viewBox="0 0 26 19" fill="none" xmlns="http://www.w3.org/2000/svg">
<path d="M21.43 0.0199968L25.21 1.91C24.0433 3.59 23.0867 5.06 22.34 6.32C21.64 7.53333 20.9633 9.28333 20.31 11.57C19.7033 13.8567 19.4 16.2833 19.4 18.85H12.12C12.26 15.0233 13.3333 11.3367 15.34 7.79C17.3933 4.19667 19.4233 1.60667 21.43 0.0199968ZM10.02 0.0199968L13.73 1.91C12.5633 3.54333 11.6067 5.01333 10.86 6.32C10.16 7.58 9.48333 9.35333 8.83 11.64C8.22333 13.88 7.92 16.2833 7.92 18.85H0.71C0.803334 15.0233 1.87667 11.3367 3.93 7.79C5.98333 4.19667 8.01333 1.60667 10.02 0.0199968Z" fill="#FF8819"/>
</svg>
