<svg xmlns="http://www.w3.org/2000/svg" xmlns:xlink="http://www.w3.org/1999/xlink" width="880" height="600" viewBox="0 0 880 600">
    <defs>
        <path id="a" d="M0 0h880v600H0z"/>
    </defs>
    <g fill="none" fill-rule="evenodd">
        <mask id="b" fill="#fff">
            <use xlink:href="#a"/>
        </mask>
        <path stroke="#343337" stroke-width="2" d="M341-220.658c-1.627 0-3.251-.003-4.878-.003-.039.567-.08 1.137-.122 1.704 1.52.207 3.035.414 4.552.618.149-.771.3-1.545.448-2.319zM196 297.804c-.89-.637-2.239-1.992-2.591-1.782-1.348.788-2.477 2.011-3.4 3.267-.131.179 1.305 1.428 2.519 2.711 1.449-1.751 2.457-2.975 3.472-4.196zM310.911-201c-4.02 2.665-4.02 2.665-4.911 7 2.975-1.095 5.512-2.52 4.911-7zm-26.323 32c2.14-1.882 6.174-1.746 5.286-7L283-170.5c.53.498 1.058.999 1.588 1.5zM109.67 30c-2.139 2.568-3.887 4.664-6.669 8 7.442-2.51 7.442-2.51 6.67-8zm226.235-241.938c.267-.6-.058-2.032-.55-2.311-3.663-2.083-5.262.469-7.354 3.957 3.868 2.031 6.369 1.8 7.904-1.646zm-72.67 293.862c.924-.528 1.013-2.144 1.766-3.915L256 78c1.002 4.361 2.894 6.416 7.235 3.924zM334.647 36c-2.304 3.67-2.32 6.393.783 10 1.655-3.752 2.789-6.502-.783-10zM364-237.739c7.149 2.118 9.668-.527 11-5.261l-11 5.261zM389 312c-1.08-5.422-2.78-8.64-8-10 .177 2.44.306 4.187.435 5.932l2.181 1.966c1.516.59 3.032 1.182 5.384 2.102zm-69.992-509.009c6.097.269 5.638-5.818 8.992-8.991-8.205.138-9.104 1.094-8.992 8.991zm48.813 222.97c-3.163 3.227-1.82 5.481 1.088 8.039 2.561-2.145 4.912-4.12 8.091-6.787-3.354-3.373-5.938-4.56-9.179-1.252zM317-189.885c-2.978.217-5.955.408-9.282.618L306-178.8l1.847.799 9.111-12s.042.085.042.115zM247.192 271c4.656-4.796 3.88-10.319 3.54-16-6.646 5.254-7.068 7.1-3.54 16zM470 343c-4.579 1.363-10.222.612-13 7.322 10.282 1.797 12.836.24 13-7.322zm-78.297.664c-3.308.092-7.148-4.498-10.703 1.187 7.178 2.153 13.439 7.381 21 1.308-2.957-3.88-6.947-2.587-10.297-2.495zM276.021 70c-3.69 1.653-6.838 3.066-10.021 4.495 3.375 6.66 3.375 6.66 10.983 8.505 4.092-4.404 1.013-8.202-.962-13zM303 313c-8.045 3.716-16.652-2.578-26 3.451L301.922 328c.422-5.867.718-9.962 1.078-15zm-50.226-18.13c1.367-6.526 2.796-13.623-2.928-19.87l-6.827 4.76-.019 20.073c4.945.715 8.914-.85 9.774-4.962zM82.049 142c7.533-3.15 14.92-6.347 22.398-9.32 3.79-1.51 6.192-3.504 6.3-8.078.116-5.222 2.034-10.55 1.383-15.6-.847-6.57 6.358-8.158 6.78-13.497.05-.605.099-1.21.089-1.116-3.357-7.144-8.5-10.852-15.942-11.32-8.956-.56-12.362 2.25-13.354 11.258-.16 1.432-.694 2.818-1.163 4.643-1.904-.095-3.408-.293-4.902-.225-6.433.3-6.935 1.181-5.369 7.935.46 1.988.336 4.109.479 6.19l4.583 1.657-1.282 11.581c-10.717 5.823-10.747 8.924 0 15.892zm38.657-4.454c7.79 1.753 14.186 3.187 20.581 4.627-10.065 2.662-15.344 9.772-20.197 19.827 7.881-3.089 14.056-6.354 20.633-7.853 7.127-1.626 14.622-1.955 21.974-2.2 6.265-.208 11.401-1.433 14.056-8.18-2.008-.8-3.504-1.395-5.378-2.138 6.135-5.403 11.457-10.698 6.936-19.254-10.29-1.404-10.602-1.395-10.9-11.831-.196-6.908-3.631-11.887-8.163-16.214-3.158-3.017-4.606-6.145-4.964-10.518-.741-9.09-4.088-12.079-13.389-13.219 2.83-9.195 5.638-18.325 8.767-28.501l-18.63-1.9c3.081-4.913 5.423-8.65 8.234-13.13-2.616-.004-4.122-.15-5.592.022-3.647.427-8.617-.287-10.618 1.802-3.679 3.835-8.165 9.641-7.664 14.105.788 7.006-.546 12.29-4.108 17.794-.67 1.036.023 3.02.28 4.533.058.365.884.6 1.577 1.03l4.805-6.498c.579 7.074-4.883 12.226-1.474 18.72 1.783-1.9 3.217-3.435 4.727-5.044 6.291 5.9.51 11.3-.17 17.65 5.007.003 9.395.007 12.44.01 2.43 5.138 3.884 9.215 6.164 12.76 2.248 3.5 1.493 5.956-1.542 7.891-3.106 1.988-6.506 3.516-10.321 5.533 3.149 8.436-1.123 14.673-8.064 20.176zm195.796-327.379l-1.399 6.43c2.081.818 3.86 1.52 6.53 2.575-3.218 2.718-8.439 2.591-7.647 7.787.055.354-1.71 1.201-2.724 1.471-6.925 1.85-8.227 4.783-4.883 11.486-1.366 2.208-6.24 2.175-4.519 6.715.185.478-1.799 2.173-3.032 2.731-8.305 3.741-10.867 11.83-15.746 18.474l7.022 4.283c-3.286 1.228-5.46 2.04-6.915 2.582-1.705 5.387-4.12 9.995-4.425 14.74-.39 6.111-5.604 7.94-8.299 11.914-.867 1.286-2.503 2.37-2.724 3.718-.944 5.793-5.99 8.47-9.022 12.649-2.51 3.451-4.99 6.975-6.99 10.732-1.53 2.87-3.208 4.517-6.506 5.722-7.227 2.63-13.208 7.774-17.623 13.876-1.854 2.565-2.912 4.627-6.022 6.449-10.438 6.124-12.071 12.122-8.153 24.14 4.062-.328 8.191-.662 12.321-1 .107.572.218 1.143.328 1.715-4.15 1.24-8.298 2.484-12.405 3.711l3.2 11.463c2.202-.357 4.442-.727 6.384-1.045-.653 7.001-9.886 9.654-8.88 17.967 2.549-.675 4.23-1.123 7.565-2.007-2.59 4.501-4.458 7.749-6.536 11.366 3.172 3.088 4.127 8.982 10.565 8.183.815 8.32 2.12 9.258 8.61 5.813 5.811-3.085 11.12-6.816 14.11-13.044.65-1.351 1.64-3.57 2.539-3.602 7.07-.253 9.834-5.079 12.168-11.158 3.146 12.506 10.542 22.816 11.48 35.978.675 9.427 5.497 18.756 9.467 27.68 2.932 6.582 9.12 6.423 13.886.636 1.526-1.857 3.315-4.695 5.185-4.864 7.22-.66 9.126-5.729 10.37-11.291 1.535-6.885 3.746-13.925 3.513-20.829-.306-9.008 4.168-13.557 11.09-17.344 2.052-1.123 4.11-2.672 5.467-4.533 6.03-8.267 4.237-19.844-5.025-26.027-5.406-3.611-7.312-8.083-5.74-13.288 2.233-7.404-3.75-16.993 5.967-22.504 1.061-.604.656-3.546 1.243-5.296.679-2.024 1.234-4.414 2.663-5.797 5.09-4.923 10.788-9.232 15.778-14.252 6.013-6.053 13.013-11.804 10.86-22.095-.34-1.614.484-3.692 1.296-5.287 2.876-5.65 5.983-11.184 8.6-16.022 4.318-.698 7.38-1.055 10.383-1.708 7.233-1.575 14.223 1.588 16.687 8.206 1.468 3.949 1.604 9.03-2.513 10.784-4.12 1.757-4.045 5.017-5.519 7.842-1.708 3.27-2.997 6.904-5.311 9.674-5.263 6.29-10.679 12.548-16.704 18.085-7.542 6.93-10.61 14.593-7.299 24.588 2.033 6.138 3.578 12.278 1.857 19-1.675 6.544 1.711 11.06 7.474 14.159 3.1 1.669 5.922 3.86 9.282 6.092 14.876-1.423 28.135-12.194 44.794-10.726.338 4.523 3.071 5.842 7.558 5.562 4.013-.25 7.191 1.189 5.928 5.508C430.128.6 423.758.548 420.505 3.704c-4.99 4.845-9.542 4.063-15.233 3.485-10.224-1.04-20.289-.481-26.899 9.157.831 2.955 1.221 5.764 2.406 8.177 1.296 2.64 3.383 4.887 5.032 7.365 2.66 3.99 2.51 12.93-.214 16.986-1.71 2.55-4.854 2.868-6.983.27-2.536-3.092-4.64-6.537-6.932-9.833-7.295 1.075-14.048 2.335-12.444 12.142.045.28-.052.701-.244.88-5.675 5.247-3.25 11.255-1.714 17.23.695 2.702 1.182 5.469 1.584 8.235.536 3.634-.863 6.063-4.707 6.638-1.799.27-3.614.441-5.383.653-.344 1.273-.79 2.15-.783 3.026.04 4.748-3.814 5.238-6.95 6.079-2.87.773-4.815-.182-6.556-3.37-2.555-4.68-6.853-4.976-11.882-2.592-9.02 4.273-16.717 11.55-28.317 12.05-2.01-2.529-4.448-5.598-7.718-9.709-3.555 1.682-7.535 3.686-11.622 5.443-1.896.815-4.357 2.117-5.945 1.533-7.256-2.69-13.996-6.105-16.327-14.65-1.02-3.72-.929-6.442 2.162-9.101 3.993-3.436 7.665-7.248 11.63-11.045-4.117-3.348-8.056-6.546-11.835-9.618 1.806-1.046 4.15-2.403 6.64-3.842-.172-2.753-.325-5.153-.474-7.51-1.052-.072-1.831-.377-2.244-.114-3.11 1.984-6.159 4.072-9.21 6.15-10.61 7.216-13.263 19.614-7.977 31.402 2.688 6.004 3.48 12.905 4.785 19.47.737 3.696-1.802 6.771-4.948 6.609-5.925-.302-10.431 3.15-15.7 4.338-9.026 2.036-8.929 1.926-7.864 10.924.153 1.286-1.503 2.79-2.746 4.92a930.09 930.09 0 0 0-1.578-3.283c-.451-.948-.903-1.896-1.802-3.793-5.737 6.631-8.987 13.275-10.217 20.448-5.795 2.735-11.107 5.125-16.292 7.768-1.276.653-2.909 2.03-3.058 3.238-1.036 8.27-8.055 11.164-13.305 15.801-4.068 3.588-7.6 4.712-12.337 1.351-1.36-.964-3.821-.38-6.656-.568.968 2.438 1.65 3.802 2.05 5.247.68 2.472 1.184 4.995 1.762 7.495-3.172.37-6.34.913-9.522 1.013-1.081.033-2.172-1.47-3.299-1.53-2-.103-4.107.085-6.026.654-2.577.766-5.012 2.003-7.561 3.062-.734 7.868 4.837 9.83 10.724 11.502 5.626 1.598 11.93 2.305 11.954 10.495.003 1.185 1.539 2.64 2.71 3.498 3.322 2.425 4.367 5.367 4.234 9.56-.11 3.494 1.549 7.037 2.305 10.58.237 1.104.322 2.344.072 3.429-.9 3.922-1.822 7.855-3.007 11.7-2.035 6.624-3.814 7.647-10.934 6.8-4.896-.585-9.802-1.108-14.691-1.777-7.49-1.023-14.844-3.698-22.574-.613-1.604.64-4.127-.939-6.198-1.592-1.99-.63-3.945-1.39-5.584-1.97-2.838 2.33-5.036 4.494-7.565 6.137-4.039 2.627-4.399 5.884-1.854 9.472 2.163 3.05 2.877 6.004 1.663 9.602-.445 1.322-.416 3.14.133 4.41 3.276 7.537 1.425 14.701-1.86 21.465-2.721 5.608-4.87 10.564.224 16.087 1.142 1.24.522 4.176.58 6.336.075 2.74.014 5.485.01 9.479 4.439-.296 8.484.169 11.99-.994 4.081-1.354 6.906-.89 8.247 3.046 1.844 5.413 5.85 7.55 10.801 8.972 5.185-3.945 10.376-8.508 16.905-6.507 6.737 2.065 11.204.64 15.318-4.822 1.789-2.377 4.98-3.65 7.25-5.738 1.938-1.786 3.444-4.037 5.181-6.05 4.598-5.326 5.068-11.535 4.763-18.292-.425-9.46 5.76-18.257 13.675-20.81 11.876-3.825 12.022-4.016 13.061-16.84.666-8.193 4.036-10.495 12.11-9.21 5.376.855 11.285 2.193 16.253.8 6.064-1.695 12.171-5.157 16.879-9.388 10.892-9.794 19.23-3.722 22.174 6.812.663 2.374.344 5.391 1.714 7.135 6.604 8.384 14.13 15.736 23.522 21.237 7.795 4.563 15.016 10.119 22.402 15.37.9.64 1.672 2.059 1.743 3.17.3 4.662 3.484 9.455-1.029 14.008-1.117 1.12-.571 3.887-.857 6.524 8.27-1.468 8.136-9.644 13.383-12.697-.685-1.679-.952-2.935-1.637-3.89-2.45-3.423-4.811-7.213-1.415-10.86 3.363-3.614 6.782-.399 9.99 1.342 1.23.666 2.587 1.1 4.48 1.887.796-5.953-3.633-7.385-6.34-9.953-5.14-4.871-13.72-5.216-16.873-12.84-.299-.718-2.175-.841-3.344-1.134-7.666-1.9-13.386-5.773-16.276-13.687-1.89-5.18-4.918-9.827-9.96-13.022-3.766-2.387-5.25-9.823-3.27-14.295 1.903-4.296 5.64-5.254 9.89-4.828l5 8.092c1.782-.987 3.253-1.809 4.83-2.686 2.078 3.089 4.637 5.42 5.335 8.216 1.6 6.404 6.33 9.775 11.129 13.11 7.042 4.89 14.376 9.355 21.444 14.207 4.094 2.812 8.876 5.851 7.724 11.693-1.442 7.32.354 13.314 4.649 19.15 2.72 3.705 4.928 7.852 6.902 12.021 1.714 3.628 4.016 5.099 8.055 4.618 2.997-.357 6.53-1.429 9.328 2.828-2.62.335-4.41.52-6.182.802-1.776.286-3.535.663-5.292.997 2.48 14.428 5.377 17.253 15.308 14.85-1.545-5.647.792-9.8 5.477-12.947 2.503-1.682 2.743-3.942 1.315-6.478l-2.195-1.929c-3.675-1.257-6.798-2.598-6.396-7.69.195-2.484-1.568-5.098-2.279-7.696-.548-2-.974-4.059-1.14-6.118-.038-.503 1.166-1.107 2.234-2.049a6931.6 6931.6 0 0 0 4.857 6.147l6.364-1.945c-.844-2.338-1.52-4.202-2.763-7.644 8.366 1.374 16.363-5.157 22.622 3.842 3.322-1.618 6.53-3.605 10.013-4.758 3.64-1.204 7.545-1.607 13.045-2.702-2.99-3.429-5.364-5.695-7.156-8.355-1.276-1.89-2.311-4.257-2.506-6.491-.364-4.219 7.123-27.135 9.535-30.47.906-1.257 2.016-2.367 2.938-3.614.91-1.224 2.023-2.43 2.49-3.829 2.815-8.469 8.227-14.337 17.1-17.837 3.202 7.715 13.12 1.773 17.344 8.845l-6.279 4.875c2.02 3.104 4.273 5.5 5.289 8.342 2.084 5.832 3.854 6.83 9.402 3.968 5.036-2.6 10.045-5.254 15.392-8.053-6.441-3.098-12.863-6.18-19.285-9.265 7.883-.812 10.919-9.33 18.798-9.583 6.789-.217 13.484-3.35 20.22-5.199-2.46 3.465-6.051 5.264-3.526 10.113.55 1.058-.584 3.562-1.646 4.786-2.503 2.887-5.431 5.4-8.83 8.687 2.905 2.763 5.32 6.676 8.71 7.913 5.377 1.965 8.53 5.878 12.302 9.528 3.983 3.851 8.048 8.242 12.957 10.36 6.691 2.886 7.63 8.673 9.237 14.057.555 1.864-1.413 5.582-3.302 6.839-3.247 2.156-7.237 3.627-11.1 4.3-3.533.616-7.37-.693-10.977-.303-8.312.9-15.38-1.471-22.616-5.563-5.338-3.02-11.847-4.319-18.006-5.445-8.617-1.579-16.538 1.338-23.846 5.786-3.033 1.845-5.838 2.601-9.562 1.984-3.643-.604-7.558.43-12.204.812l3.708 8.141c-2.883.663-4.9 1.377-6.958 1.546-3.681.299-7.435-.052-11.077.451-7.127.978-9.98 6.346-6.743 12.61 2.652 5.127.464 9.167-2.896 12.759 4.798 3.763 4.798 3.763 6.775 17.236 1.984.004 4.013.007 6.63.007l-1.581 9.346 8.396-7.021c7.584 6.206 10.61 3.296 20.444-3.608 2.383 1.63 5.207 3.056 7.382 5.16 4.403 4.26 9.461 4.267 14.747 2.858 3.275-.87 6.454-2.176 9.574-3.527 3.805-1.646 7.519-2.806 11.82-.162-.207 16.441-1.872 32.502-9.093 47.748-5.522 11.655-17.064 17.11-28.593 11.405-5.292-2.617-9.279-2.452-13.801.458-5.939 3.819-11.945 3.608-18.58 1.445-5.504-1.796-11.487-2.806-17.276-2.893-8.922-.13-15.483-5.654-22.253-9.716-3.71-2.225-6.152-6.885-11.382-5.9-4.464.834-9.165 1.76-13.078 3.9-7.678 4.205-7.782 4.711-5.555 13.32.961 3.728-.107 5.864-2.801 7.985-3.763 2.961-7.419 2.62-11.127.03-6.473-4.528-13.577-7.129-21.463-8.178-2.185-.289-5.15-2.78-5.831-4.884-2.695-8.342-8.954-10.966-16.493-10.336-10.035.841-18.093-3.744-26.288-8.047-7.084-3.721-7.564-7.102-1.782-12.596 3.48-3.306 4.847-7.511 2.561-10.781-3.525-5.04-2.571-9.641-.681-14.496-6.468-3.764-12.039-5.78-18.52-.828-2.022 1.545-5.967.786-9.022.691-1.798-.055-3.756-1.61-5.33-1.224-9.701 2.397-19.363 3-29.36 1.958-4.042-.419-8.386 2.829-12.564 2.76-10.354-.165-18.337 4.264-26.19 10.363-4.26 3.306-9.617 5.884-14.86 7.033-4.978 1.088-10.552.442-15.675-.48-4.127-.744-8.276-2.55-11.873-4.764-5.123-3.156-5.169-2.981-8.28 2.562-4.687 8.365-8.145 17.708-19.002 21.215-4.204 1.36-8.798 5.699-10.46 9.8-2.714 6.69-5.51 13.775-4.27 21.63.435 2.751-.931 6.073-2.24 8.762-4.191 8.592-11.957 12.99-20.376 16.526-2.51 1.055-5.512 1.935-7.162 3.864-5.415 6.332-10.658 12.87-15.301 19.78-4.63 6.88-8.58 14.236-12.577 21.52-2.835 5.153-5.51 10.433-7.73 15.87-.988 2.412-1.932 6.322-.728 7.887 4.711 6.134 3.766 13.541 5.9 20.12 2.564 7.91 1.733 14.85-.468 22.478-2.714 9.414-8.808 18.766-2.484 29.129.65 1.065.195 3.172-.367 4.54-2.055 5.007.78 7.166 4.51 9.64 3.76 2.498 7.019 5.813 10.26 9.012 2.415 2.387 4.23 5.39 6.69 7.719 6.03 5.702 10.373 12.48 12.614 20.364 1.064 3.744 2.88 5.89 6.392 7.157 9.023 3.25 15.746 9.59 22.399 16.253 3.36 3.367 7.805 5.874 12.139 7.988 7.178 3.504 14.467 1.05 21.807-.292 9.4-1.718 19.149-4.351 28.373-3.3 7.74.884 13.736-1.246 20.353-3.542 8.48-2.945 16.96-6.134 25.694-8.066 9.291-2.06 19.453-2.407 25.09 6.991 5.925 9.878 14.453 10.265 23.966 9.722 1.237-.071 2.503-.1 3.727.062 7.802 1.023 15.545 9.427 15.061 17.282-.49 7.992-.178 16.724-3.373 23.686-4.113 8.96-.993 14.617 3.977 20.981 4.565 5.846 8.922 11.86 13.207 17.916a343.475 343.475 0 0 1 10.205 15.343c.931 1.484 1.243 3.371 1.772 5.092.809 2.65 1.023 5.647 2.438 7.9 2.809 4.476 3.588 9.162 3.205 14.244-.455 6.004.614 11.69 3.315 17.13 3.902 7.845.753 14.083-4.48 20.1-2.55 2.93-4.504 6.508-6.156 10.057-1.555 3.348-2.185 7.109-3.52 10.573-3.363 8.736-3.902 17.99-1.23 26.521 3.376 10.794 8.155 21.3 13.548 31.269 4.224 7.813 6.938 15.74 8.032 24.433 3.107 24.764 13.993 46.654 25.57 68.249 1.156 2.156 3.12 3.867 4.397 5.978 4.428 7.31 8.2 15.106 5.503 23.754-1.715 5.491-.14 8.943 3.681 12.249 2.35 2.033 4.796 3.971 7.007 6.147 3.194 3.144 6.327 2.887 10.123.929 3.506-1.802 7.334-3.504 11.18-4.004 7.348-.955 14.867-.588 22.205-1.588 6.642-.91 13.882-1.568 19.544-4.702 12.802-7.092 23.133-17.493 32.418-28.81.763-.932 1.568-2.075 1.734-3.209 1.146-7.855 6.428-13.447 11.06-19.1 7.065-8.619 9.819-18.338 9.364-29.057-.204-4.823 1.5-7.703 5.701-9.346 2.588-1.01 5.247-2.244 7.951-2.478 6.159-.539 8.47-4.42 9.334-9.72.448-2.74.549-5.552.669-8.335.41-9.434-1.364-18.461-4.493-27.378-2.422-6.894-1.37-9.08 3.532-13.006 6.023-4.825 11.814-9.95 17.918-14.671 2.386-1.848 5.208-3.741 8.071-4.25 9.247-1.65 14.97-6.814 17.603-15.815-3.779-10.32-3.551-10.197 1.961-20.387 1.672-3.092 2.299-7.066 2.344-10.645.062-4.93-.57-9.933-1.519-14.782-.552-2.841-1.584-6.325-3.636-7.995-5.877-4.773-6.776-10.992-6.114-17.58.705-6.992.945-13.561-5.045-18.166 3.987-9.654 7.73-18.773 11.552-27.865.337-.809 1.045-1.585 1.782-2.082 9.34-6.244 15.909-15.175 22.597-23.874 7.714-10.031 17.68-17.34 28.184-23.816 5.707-3.517 10.817-7.235 14.333-12.879 9.497-15.233 19.328-30.284 28.132-45.914 4.896-8.693 5.838-18.607 3.812-28.933-2.325-.004-3.922-.351-5.305.045-15.665 4.517-31.268 9.258-46.969 13.642-2.77.773-6.766 1.377-8.72-.013-4.176-2.968-7.383-7.297-11.068-11.151 1.497-1.744 3.016-3.51 5.922-6.885-2.221-1.36-4.23-2.312-5.903-3.672-3.808-3.108-7.473-6.397-11.162-9.648-3.681-3.244-6.847-7.479-11.08-9.602-8.282-4.154-12.513-10.902-14.285-19.296-1.565-7.404-5.387-13.018-11.146-17.458-4.656-3.585-6.26-8.225-6.036-13.86.124-3.1.364-6.296-.204-9.306-.672-3.566-1.12-8.173-3.487-10.239-7.373-6.426-11.857-13.96-12.938-23.62-.065-.582-.506-1.128-.77-1.69-2.908-6.18-5.37-12.628-8.837-18.477-4.347-7.332-6.506-15.863-13.324-21.935-3.915-3.491-2.587-8.765-.919-14.74 1.263 1.897 2.15 2.614 2.072 3.199-.984 7.098 3.733 11.57 7.577 16.343 1.01 1.25 3.565 2.75 4.435 2.29 1.555-.822 2.705-2.913 3.413-4.715.883-2.24 1.149-4.725 1.678-7.105.552.123 1.104.246 1.656.367l-.01 9.92c2.179 2.163 4.623 3.81 5.99 6.095 4.263 7.128 6.169 15.617 12.526 21.572.574.54.769 1.738.75 2.62-.173 7.135 3.95 11.321 9.535 14.848 5.529 3.494 8.899 8.186 8.64 15.389-.124 3.484 1.168 7.533 3.11 10.479 6.139 9.326 15.61 16.428 18.353 28.07.276 1.178 2.626 1.727 3.474 2.942 2.275 3.273 5.382 6.52 6.139 10.196 1.974 9.622 3.506 19.302 6.003 28.856 2.227 8.537 5.85 11.603 14.473 9.054 4.055-1.202 7.763-3.556 11.799-4.852 9.921-3.189 20.544-4.523 28.645-12.18 1.675-1.582 4.412-2.147 6.756-2.89 4.71-1.498 9.665-2.384 14.178-4.323 2.902-1.247 5.863-3.462 7.63-6.043 3.58-5.241 8.048-8.135 14.304-9.314 5.688-1.074 12.694.104 15.844-7.04.178-.409 1.09-.513 1.678-.717 8.15-2.845 11.503-10.522 16.519-16.497 2.896-3.448 5.185-7.459 8.357-10.6 5.052-5 10.308-9.715 13.035-16.882-3.747-3.283-7.539-6.007-10.552-9.417-2.74-3.105-5.399-5.07-9.713-5.995-8.458-1.815-11.581-6.592-11.935-15.366-.088-2.27-.429-4.53-.757-7.82-6.795 5.872-13.44 10.178-18.125 16.045-5.24 6.56-11.494 6.3-18.34 5.94-4.49-.237-6.815-2.335-6.526-7.105.22-3.715.392-7.492-.062-11.161-.192-1.55-2.055-2.887-4.292-5.79-1.016 5.393-1.646 8.728-2.487 13.187-4.896-3.773-8.701-6.553-8.188-12.509.15-1.708-.227-3.783-1.136-5.195-3.309-5.131-6.929-10.06-10.464-15.045-2.812-3.968-5.669-7.904-8.685-12.103 2.172-2.546 3.698-4.955 5.792-6.67 5.773-4.738 12.467-2.939 17.431 2.74 6.662 7.629 8.4 19.77 20.36 22.657.734.176 1.182 1.39 1.844 2.046 5.854 5.797 22.31 8.648 29.648 5.15 7.428-3.542 9.084-3.263 10.918 4.339 1.341 5.569 4.322 7.826 9.451 8.508 9.156 1.218 18.412 1.987 27.431 3.87 14.224 2.972 28.385 1.585 42.557.445 4.782-.386 7.21.452 10.39 4.904 6.453 9.034 12.453 19.887 26.183 19.815.185 0 .377.958.76 1.997-2.776.806-5.506 1.598-8.669 2.52 2.422 8.203 8.312 12.36 14.626 15.376 5.961 2.845 12.328-1.37 13.838-8.047.412-1.821.918-3.624 1.642-6.455 1.257 1.955 2.068 2.65 2.14 3.413.704 7.683 1.052 15.402 1.954 23.059 1.377 11.69 3.331 23.247 8.237 34.145 3.295 7.317 6.058 14.876 8.967 22.361 1.679 4.323 3 8.794 4.799 13.068 3.821 9.08 7.87 18.061 11.775 27.105.98 2.273 1.426 4.845 2.727 6.894 2.601 4.095 8.386 6.3 12.497 1.28 2.73-3.342 7.1-5.79 8.684-9.512 2.137-5.007 7.883-7.514 8.081-13.733.39-12.314 1.094-24.63 2.208-36.896.237-2.624 2.169-6.095 4.363-7.349 6.935-3.961 13.65-7.793 18.172-14.807 1.766-2.735 4.964-4.573 7.6-6.706 3.364-2.718 8.35-4.634 9.919-8.122 3.357-7.478 9.366-10.368 16.184-12.788 3.948-1.4 6.185-3.747 5.766-8.329-.305-3.319.961-6.537 4.49-7.254 5.27-1.072 9.896-4.32 16.08-2.579 6.325 1.78 11.059-2.581 12.835-9.462.276-1.072 1.318-1.946 2.084-3.017 4.73 1.825 7.48 4.77 8.487 9.436 1.776 8.23 3.474 16.494 12.304 20.627 1.127.527 1.663 2.416 2.354 3.738 1.559 2.981 3.175 5.94 4.526 9.015 1.084 2.474 2.21 5.046 2.617 7.68.97 6.342 1.529 12.749 2.263 19.204 10.642 2.436 17.116-3.15 22.953-9.631 5.62 2.503 7.065 6.615 7.28 12.119.265 6.741 1.048 13.47 5.512 19.321 1.685 2.208 2.191 5.849 2.09 8.797-.382 11.132-1.408 22.241-1.817 33.373-.15 4.004-.533 7.615 3.931 11.232 5.555 4.508 10.789 11.054 12.89 17.747 2.382 7.602 5.22 15.094 7.382 22.757 1.377 4.884 4.188 8.177 7.916 11.074 2.185 1.701 4.811 2.994 6.587 5.036 4.152 4.793 9.409 6.115 15.431 6.719-.438-7.131-2.6-12.704-6.789-17.613-1.275-1.497-2.181-3.845-2.197-5.813-.091-13.103-6.698-22.355-17.195-29.1-6.061-3.89-10.308-8.803-12.291-15.742-.494-1.731-1.211-3.605-2.383-4.904-7.16-7.95-7.636-14.087-2.23-22.744 2.054-3.286 3.525-7.131 4.379-10.92.912-4.063 2.156-7.08 6.72-7.259 2.728 2.54 4.952 5.878 8.042 7.222 5.636 2.449 9.058 6.41 11.09 11.843 2.014 5.388 5.273 9.2 11.341 9.515 4.945.257 6.224 3.066 6.1 7.443-.08 2.906.306 5.826.588 10.437 6.786-5.54 12.107-10.021 17.584-14.301 2.594-2.027 5.354-3.926 8.272-5.436 6.99-3.621 14.188-6.891 13.266-16.77-.11-1.178.65-2.41.711-3.63.526-10.232.78-20.403-6.564-28.869-7.03-8.105-13.961-16.295-21.006-24.387-5.208-5.979-5.179-12.204.237-17.73 1.52-1.55 3.649-2.855 4.425-4.722 2.844-6.839 9.707-7.34 15.139-9.492 5.883-2.332 8.88.123 11.243 6.624.364 1.004 1.51 1.722 2.87 3.196 4.766-6.914 12.029-9.16 18.973-11.054 5.714-1.556 9.442-4.05 11.542-9.443.477-1.225 1.796-2.118 3.308-3.82 1.49 2.001 2.25 3.859 3.624 4.648 1.617.932 4.084 1.783 5.626 1.195 5.678-2.156 11.305-4.595 16.603-7.557 4.503-2.52 10.48-5.027 12.315-9.108 2.996-6.664 9.08-9.018 13.412-13.61 1.23-1.305 3-2.78 3.152-4.31.938-9.452 7.107-16.275 12.412-23.058 3.828-4.897 3.785-10.86 7.042-15.688.867-1.28.156-4.595-1.016-5.966-.932-1.1-3.672-.604-5.588-.951-.75-.14-1.432-.66-3.37-1.601 3.607-3.017 6.539-5.468 9.15-7.65.009-7.343-.462-14.299-6.41-19.494-.98-.854-.954-2.89-1.34-4.397-1.689-6.58-2.91-13.233-10.776-15.98-1.815-.633-4.178-5.443-3.503-6.443 2.672-3.945 6.448-7.138 9.814-10.606 8.974 1.608 11.63-8.589 18.899-10.235.094-.023-.172-1.653-.286-2.67-5.246-1.029-10.44-3.091-15.46-2.737-4.903.35-9.626 3.17-14.753 5.024-1.883-3.64-2.435-7.72-7.116-8.213-1.15-.123-2.228-2.042-3.12-3.293-3.325-4.64-2.825-7.452 2.522-9.056 3.724-1.12 5.87-3.128 7.406-6.32 3.795-7.875 12.649-9.359 18.61-14.532 1.12-.97 5.223-.58 5.882.475 1.049 1.678.961 4.653.254 6.696-.851 2.461-2.857 4.526-4.325 6.705 1.633 2.43 2.99 4.446 4.643 6.898 3.318-1.819 6.561-3.079 9.175-5.134 7.097-5.583 14.028-5.927 21.405-.134.37 2.507 1.526 5.391.974 7.898-.61 2.783-2.78 5.228-4.13 7.573 1.73 4.988 5.578 3.617 8.808 3.737 3.756.143 7.107 1.01 6.74 5.654-.691 8.735-1.799 17.435-2.574 26.164-.4 4.513 2.496 6.55 7.123 5.215 3.558-1.023 7.12-2.04 10.63-3.202 6.184-2.052 12.086-9.034 11.288-14.373-1.05-7-2.53-14.009-4.637-20.76-1.928-6.17-4.318-12.33-11.236-15.24-1.331-.558-2.747-4.1-2.16-5.315 1.046-2.163 3.31-4.33 5.562-5.212 8.942-3.51 15.003-8.68 16.496-19.059.575-4.023 4.435-8.001 7.666-11.096 3.185-3.056 7.464-4.968 11.382-7.46l13.09 4.651c3.816-2.198 6.65-3.5 9.098-5.322 3.136-2.338 6.311-4.79 8.85-7.726 5.864-6.787 11.13-14.093 17.094-20.783 2.967-3.328 5.236-6.455 6.035-11.06 1.175-6.758 3.701-13.252 9.097-17.919 11.428-9.878 14.003-23.332 13.376-37.048-.38-8.304 1.078-15.165 5.188-22.01 4.86-8.093 4.672-8.999-1.529-16.893 4-1.851 3.552-5.095 1.162-7.505-5.681-5.728-7.866-16.223-19.661-14.82-1.354 4.565-2.14 10.134-9.367 9.098-.503-2.516-1.026-5.134-1.61-8.066-2.412.438-4.357.796-6.198 1.133l-2.792-7.835c-3.071-.37-6.162-.52-9.136-1.202-1.321-.302-3.425-1.757-3.363-2.543.12-1.47 1.23-3.354 2.503-4.163 9.246-5.877 17.577-12.67 23.531-22.036 1.939-3.052 3.137-7.352 5.903-8.963 11.759-6.845 15.512-20.776 26.122-28.479.672-.49.997-1.575 1.295-2.445 1.815-5.273 6.085-8.118 10.984-9.027 7.824-1.455 15.837-1.88 23.161-2.676 1.688 2.679 2.714 4.3 4.386 6.952 3.734-4.874 8.162-4.705 12.932-4.387 5.737.383 12.038 1.43 15.57-5.355.445-.86 2.137-1.633 3.163-1.539 6.597.627 13.168 1.504 20.59 2.403-1.643 3.884-2.701 6.378-4.081 9.632 4.035-.26 7.003-.24 9.899-.698 3.12-.49 6.168-1.43 9.892-2.326l5.114 3.089c3.526-2.744 6.532-5.082 11.064-8.606a9454.695 9454.695 0 0 1-10.467-4.338c.348-1.29.325-2.728 1.026-3.553 6.286-7.423 12.743-14.704 19.035-22.12 1.127-1.329 2.107-3.014 2.506-4.69 1.672-7.03 3.77-9.03 10.977-9.602 6.737-.532 13.484-.958 19.915-1.41 3.016 5.765-1.182 9.34-2.77 13.178 2.12 3.38 3.952 6.307 6.134 9.788 7.064-8.252 11.954-17.822 21.892-19.013 1.49-5.871 2.032-11.096 4.233-15.484 1.257-2.497 5.078-4.049 8.065-5.13.925-.338 2.919 2.263 4.438 3.536-2 2.143-4.188 3.465-4.753 5.287-1.734 5.588-3.234 11.313-4.09 17.094-.955 6.465-2.523 11.66-9.67 14.174-3.444 1.211-7.051 4.287-8.817 7.495-4.432 8.044-13.276 12.583-16.39 21.562-.437 1.27-2.294 2.017-3.418 3.085-1.561 1.49-3.565 2.8-4.487 4.637-3.314 6.586-9.269 9.843-15.622 12.019-4.12 1.409-5.581 3.708-5.387 7.436.319 5.998-2.23 10.573-5.668 15.285-2.23 3.053-3.6 7.303-3.86 11.122-.984 14.305.324 28.444 3.756 42.456 1.825 7.452 2.581 15.204 3.289 22.87.4 4.307.425 8.473 4.237 12.292 6.934-8.628 15.11-16.003 16.564-27.401.552-4.339 2.808-5.738 6.64-6.212 6.467-.796 6.7-.936 5.256-7.69-.913-4.238-.03-7.482 3.574-9.631 2.821-1.68 5.87-3.154 9.006-4.099 4.854-1.464 7.53-4.53 5.211-8.612-4.821-8.488.783-13.674 4.52-20.623 2.535 4.494 4.905 7.098 9.535 1.864-1.744-3.076-3.292-6.65-5.588-9.648-2.681-3.494-2.821-6.68-.422-10.135 1.185-1.708 2.536-3.303 4.37-5.67-2.704-1.315-4.902-3.36-6.844-3.14-4.938.565-5.295-2.221-4.782-5.527.367-2.341 1.435-4.663 2.584-6.777 2.6-4.803 6.052-9.232 8.065-14.25 3.607-8.994 5.821-10.654 15.042-8.757 3.149-2.744 6.373-5.553 10.113-8.814.208 4.01.367 7.135.623 12.123 2.539-2.75 4.188-3.822 4.789-5.316 3.113-7.722 10.876-8.752 17.08-11.804 1.608-.79 5.107.363 6.672 1.792 3.003 2.744 5.244 6.32 8.575 10.528 4.415-8.238 10.717-14.087 18.233-19.179 6.434-4.357 11.597-10.44 18.697-14.353 4.808-2.65 8.613-6.933 14.658-7.296 1.28-.075 2.809-1.491 3.64-2.692 4.24-6.138 9.857-5.222 15.727-3.368 3.126.987 6.246 2.017 9.227 2.981 2.801-5.738 3.47-10.09 1.681-15.76-1.863-5.913-5.662-11.543-4.63-18.551.319-2.166-2.649-5.732-5.015-7.16-3.799-2.3-8.458-3.118-12.532-5.04-1.935-.913-3.351-2.926-4.883-4.329 3.165-2.28 5.389-3.88 8.045-5.796 2.289 2.805 4.574 5.61 6.464 7.93 9.6 2.9 14.009-3.936 19.548-8.658 8.019-6.832 1.636-14.246.766-20.906 3.032-4.377 6.438-5.371 11.006-3.536-.003 2.685-.013 5.117-.006 7.55.019 8.024 1.136 9.086 9.262 8.839 12.516-.383 13.694.62 15.347 12.866.068.503.695.932 1.357 1.77 6.21-2.472 10.032.935 13.801 5.737 4.929 6.278 5.99 6.15 13.045 1.741-4.814-7.927 4.156-13.379 3.844-20.637-.02-.522 1.286-1.422 2.101-1.62 6.441-1.552 12.146-3.991 14.895-10.726.212-.516 1.828-.312 2.598-.766 3.766-2.238 3.87-4.176.51-7.067-4.448-3.825-9.656-7.066-13.166-11.615-6.554-8.495-15.259-7.235-24.437-8.005.594 6.134 1.091 11.223 1.795 18.474-3.785-3.546-6.282-5.88-8.58-8.037 1.383-3.225 3.616-5.865 3.269-8.102-.977-6.212-3.571-12.768-8.983-15.665-4.254-2.28-6.744-5.676-10.045-8.544-1.147-.99-2.192-2.133-3.455-2.945-6.438-4.13-13.006-7.989-16.593-15.344-.8-1.636-3.36-2.464-5.185-3.533-1.28-.75-3.425-.919-3.919-1.951-3.188-6.67-9.659-9.035-15.061-13.068-5.039-3.763-10.626-4.984-15.947-6.923-7.451-2.718-15.646-5.436-23.311-4.933-7.22.478-13.35-1.266-19.811-3.075-3.51-.984-6.954-2.192-10.695-3.38-1.438 5.247-2.64 9.641-4.061 14.83 2.087 2.257 4.669 4.907 7.087 7.7 3.14 3.62 1.247 6.767-.61 9.732l-11.363-.01c-.825-2.559-1.471-4.572-2.088-6.495-2.938-.542-5.607-1.032-7.883-1.451-2.311-4.576-4.314-8.544-6.399-12.678-9.301 6.842-17.22 8.255-25.668 3.485-8.2-4.624-15.856-4.647-24.43-1.449-3.504 1.306-8 .93-11.825.182-10.373-2.026-11.75-4.614-8.801-14.674 1.815-6.2.64-11.502-3.942-16.218-9.837-10.128-27.356-13.038-40.466-6.916-5.003 2.338-10.337 4.075-15.665 5.575-4.662 1.312-8.98-.33-10.915-4.76-4.029-9.239-11.603-14.155-20.152-18.195-1.97-.929-3.84-2.072-5.714-3.088 2.916-1.9 5.912-2.78 6.757-4.64 1.603-3.524-1.283-5.573-4.205-7.135-1.084-.581-1.958-1.971-3.029-2.091-5.159-.585-10.45-1.588-15.486-.903-2.143.289-4.22 4.114-5.549 6.732-2.795 5.517-7.899 7.741-13.087 9.654-1.38.513-4.305-.64-5.188-1.935-1.205-1.773-.857-4.3 2.172-4.92 3.393-.695 4.678-2.598 3.662-5.855-3.59-1.935-8.483 1.445-11.243-3.338 1.24-7.167 8.373-2.991 12.074-5.667-5.788-5.163-8.01-6.118-13.85-7.082-8.95-1.475-17.866-3.166-26.898-4.787-1.117 5.58-4.162 10.112-11.097 10.898-1.474.169-3.09.35-4.305 1.085-.815.493-1.033 1.97-1.623 3.234 2.003 1.036 3.61 1.867 4.555 2.358.685 5.939 1.506 11.408 1.814 16.902.082 1.452-1.094 3.682-2.318 4.286-1.045.514-3.113-.568-4.496-1.35-1.53-.861-2.799-2.183-4.948-3.93l-6.516 12.779c-1.867-1.069-3.35-1.582-4.383-2.566-8.89-8.475-12.993-9.251-23.493-3.819-4.402 2.28-8.272 2.3-11.746-1.539-2.623-2.9-5.217-5.829-7.964-8.9-8.194 7.945-4.951 20.613-13.051 29.154-5.244-4.969-10.182-9.619-15.08-14.311-2.819-2.696-4.663-5.638-3.533-9.92.756-2.872.34-5.327-3.692-5.911-4.233-.61-4.681-3.835-4.217-7.67l9.042 1.169c.201-2.033 1.039-4.16.373-4.858-2.727-2.861-5.909-5.29-10.178-8.947 3.364.004 5.48.63 6.64-.152 1.431-.974 3.278-3.601 2.847-4.673-2.153-5.378-4.685-10.664-7.656-15.64-5.272-8.848-5.954-8.903-13.46-5.692-5.802-1.289-9.955-2.211-14.834-3.293-5.821-8.735-7.325-9.209-17.944-4.672.659 5.254 1.334 10.628 1.909 15.19-8.64 5.91-16.587 10.256-25.928 4.28-.227-.142-.646-.146-.915-.048-6.286 2.273-11.429-.974-16.555-3.663-2.26-1.185-5.175-2.945-5.802-5.04-1.253-4.176 3.41-4.15 5.675-5.839.3-.224.104-1.104.179-2.373-3.123-.76-6.354-1.81-9.668-2.283-4.28-.614-8.672-.497-12.938-1.17-9.48-1.49-18.376-1.854-24.223 7.93-.487.812-3.085.361-5.805.592 1.2-2.692 1.915-4.274 2.61-5.862.86-1.961 1.704-3.93 2.753-6.358-1.954-1.556-3.766-2.994-6.188-4.92-1.062 2.968-1.825 5.112-2.532 7.083-10.256-.263-10.984-.715-13.487-8.414-5.578.406-12.444-2.858-15.399 6.54 2.445 1.35 4.89 2.695 7.273 4.01-1.893 4.313-3.85 7.518-9.363 7.69-3.426.11-7.66 1.819-9.964 4.28-3.974 4.248-8.724 5.443-13.798 5.917-1.62 6.942-6.166 9.544-11.623 10.511 1.334-4.208 2.405-8.17 3.866-11.982.737-1.926 1.776-4.2 3.377-5.245 5.535-3.614 6.756-12.619 15.412-12.353.519.017 1.013-1.458 1.64-2.127 3.992-4.244 8.002-8.475 12.038-12.677 1.454-1.513 3.09-2.858 4.496-4.41 5.042-5.582 8.302-13.275 17.217-14.227.692-.074 1.393-1.01 1.906-1.685 2.578-3.403 4.993-6.93 7.652-10.268 6.445-8.092 6.188-13.132-.64-20.737-1.769-1.968-2.538-4.839-3.766-7.29.429-.212.854-.42 1.283-.627l10.98 7.686c1.159-5.696 1.633-9.349-.834-13.655-1.913-3.332-1.67-7.897-2.585-13.018-2.89 2.581-4.821 4.302-7.314 6.53-.26-3.394.539-6.897-.848-8.443-4.061-4.52-9.159-8.09-13.525-12.356-3.451-3.37-6.974-1.17-10.526-.922-2.477.175-4.967.233-7.45.276-4.74.08-8.923.704-12.536 4.721-3.743 4.16-6.467 3.595-11.133-.318 1.838-3.24 4.133-6.267 5.26-9.684.633-1.915-.007-4.978-1.26-6.62-1.701-2.241-4.324-1.647-6.555.269-1.087.935-2.584 1.4-3.097 1.662l-12.305-9.608c3.266-.699 5.562-1.079 7.792-1.696 3.403-.945 7.136-5.702 6.753-9.017-.422-3.628-1.96-6.359-6.367-6.635-2.048-.126-4.337-1.042-5.96-2.309-4.221-3.292-8.14-2.373-11.941.345-2.728 1.948-5.091 4.4-7.744 6.468-7.136 5.563-9.11 14.38-13.353 21.709-1.263 2.175 1.117 6.248 1.214 9.469.156 5.433 3.16 7.446 7.73 9.95 4.87 2.669 9.571-.884 14.412 1.477-3.863 4.589-8.311 5.45-12.837 3.072-9.282-4.88-19.425-3.757-29.629-5.699 1.059 5.936 5.364 8.183 8.773 11.158 3.714 3.238 4.178 7.248 3.188 11.872-.844 3.94-2.59 6.19-6.782 5.69-4.549-4.024-.718-8.031.104-12.51-2.672-1.925-5.36-3.86-9.5-6.848-4.49 5.77-8.837 11.36-13.103 16.847-2.89-2.292-4.228-3.354-5.461-4.335a6519.24 6519.24 0 0 0-7.182 4.306c1.188-3.767 1.98-6.27 2.747-8.706-8.578-3.936-19.681-3.202-27.428 1.442-1.353 5.722 4.87 4.328 7.52 7.508-9.023 3.874-18.298 3.549-26.795 7.313-9.347 4.143-20.217 4.776-24.892 15.411-4.026.588-7.516 1.098-13.158 1.92 4.038 2.156 5.99 3.201 8.454 4.517-3.15 3.549-5.776 6.514-8.253 9.306-.948 0-1.656.208-2.133-.035-2.438-1.234-4.906-1.984-6.065 1.331-1.107 3.163 1.062 4.209 3.747 5.108 1.763.591 3.191 2.189 5.328 3.738-3.114 1.347-5.23 2.266-7.633 3.306 6.386 5.478 6.386 5.478 9.415 19.094-6.062-2.078-11.633-2.072-16.824 1.805-1.198.893-3.594.16-5.438.208-2.997.085-6.049-.13-8.98.367-6.698 1.133-13.34 2.604-20 3.968-5.08 1.043-8.483 5.858-7.759 10.866.614 4.238 1 8.514 1.812 12.713 1.357 7.04 1.149 14.99 10.649 17.338 1.74.431 3.694 3.28 4.048 5.28.591 3.299 2.41 4.585 5.062 5.952 6.272 3.24 8.285 6.725 5.684 12.538-3.444 7.686-2.88 14.317 2.013 20.926 3.049 4.12 2.594 8.053-1.039 11.684-1.035 1.032-1.896 2.24-2.766 3.286 4.318 5.4 8.266 10.34 12.21 15.275-2.827 1.374-5.307 1.835-6.005.926-4.439-5.787-8.484-11.876-12.805-18.072 5.191-4.679 6.941-9.862 4.419-16.389-2.072 0-4.114-.003-5.997-.006l-2.951-11.424c4.746-2.316 9.71-4.93 7.811-12.542-7.607 2.962-12.782-.272-17.538-5.439-2.919-3.172-6.597-5.637-9.756-8.608-6.46-6.076-13.58-6.846-21.395-3.05l.337-.344-2.026 5.03c6.205 3.098 6.205 3.098 3.451 9.262-1.779-1.296-3.311-3.098-5.19-3.611-2.42-.663-5.715-1.27-7.566-.147-3.061 1.858-2.844 5.57-.63 8.203 2.348 2.79 5 6.32 8.172 7.216 7.636 2.156 10.542 9.089 16.35 12.895-.337.636-.675 1.273-1.013 1.906-10.113-3.868-20.226-7.732-30.586-11.69 1.036-5.479 2.565-10.23-1.305-14.555-.76-.847-.124-3.851.825-5.17 4.074-5.67 2.792-11.985 2.409-18.071-.354-5.647-4.968-9.365-10.994-9.375.744 1.247 1.338 2.263 1.955 3.267 7.76 12.606 6.665 18.006-5.289 26.15-8.925 6.08-10.159 13.909-3.695 22.693 4.676 6.352 7.666 13.655 2.562 20.533-6.34 8.543-6.11 17.038-3.331 26.404 2.438 8.212 6.357 10.631 14.422 7.209 5.042-2.144 9.882-1.377 12.804 2.01 5.078 5.887 12.247 10.657 13.185 19.73-2.166 3.264-6.25 5.816-4.675 11.145 1.337 4.517 4.857 6.082 10.785 7.456-12.769 2.199-16.288-.367-14.73-9.664 1.597-9.554-.545-17.656-6.821-24.774-7.415-.152-12.016 1.88-20.73 9.239 1.646 4.465 3.023 9.213 5.117 13.616 2.542 5.355.445 9.466-2.477 13.668-2.1 3.017-3.997 6.173-6.02 9.248-2.188 3.322-4.26 6.735-6.665 9.892-2.425 3.172-5.201 6.072-8.01 9.306-3.928-.185-8.36.163-12.522-.75-4.068-.89-8.895-2.107-11.476-4.932-2.711-2.972-9.571-.341-9.266-6.817 8.597-3.656 15.684-2.438 21.17 6.437 2.77-2.75 5.55-4.459 6.78-6.937 3.1-6.25 4.83-13.047 10.152-18.292 2.416-2.38 4.581-7.13 3.88-10.109-1.364-5.819 2.555-9.095 4.292-13.483-.675-.766-1.16-1.594-1.873-2.084-5.737-3.94-9.968-8.34-6.692-16.156.588-1.403-.428-3.497-.763-5.264-1.802-9.511-3.207-18.967 2.448-25.897-.925-4.861-2.013-8.336-2.165-11.856-.276-6.456-1.263-12.268-9.795-14.912 2.909-4.715 4.944-8.764 7.684-12.268 3.429-4.39 5.526-8.804 4.192-14.542-.474-2.039.006-4.302.081-6.465.27-7.82-4.191-12.538-12.168-13.006-3.059-.178-6.162-.36-9.146-.993-7.71-1.64-10.035-.48-11.152 7.647-2.325 16.912-7.682 32.444-17.847 46.401-2.292 3.15-2.555 8.07-2.938 12.25-.513 5.539-.195 11.157-.29 16.739-.07 4.38-.223 8.761-.356 13.707 5.915-1.143 9.464 1.072 9.38 5.218-.16 7.615 4.967 10.658 9.957 13.977.143 8.862-.208 9.456-8.6 14.649-.553-.647-1.569-1.28-1.624-1.991-.532-6.732-4.084-10.245-10.529-12.428-4.802-1.623-9.837-4.48-13.149-8.222-8.44-9.527-19.548-12.531-31.138-15.015-8.545-1.832-8.532-1.88-13.762 6.829 3.87 5 4.555 10.82.977 16.207-2.37 3.569-6.055 6.264-9.208 9.41-6.665-1.233.39-12.287-7.856-11.849-4.575 2.18-9.24 3.456-12.646 6.264-4.036 3.329-7.393 4.914-12.483 2.53-3.25-1.523-6.062.185-7.354 3.66-.617 1.653-1.003 3.393-1.52 5.176-4.548-.25-8.577-.474-14.379-.796 4.416-5.322 5.825-10.27 3.192-15.934-6.883 1.16-10.662 5.608-12.932 11.434-8.473-3.44-12.983-2.31-18.09 4.543-3.149 4.221-5.636 9.08-11.921 9.268-.809.022-2.198.74-2.293 1.302-.918 5.663-5.116 3.513-8.655 3.091-1.182 7.638 1.935 17.789-8.785 19.315-9.776 1.397-13.136-6.82-15.922-14.385 3.26-5.927 3.26-5.927 13.883-11.074-5.03-13.23-17.058-19.828-30.921-16.529.584 1.702.652 3.923 1.792 4.91 7.555 6.553 7.574 14.191 4.156 22.745-1.195 2.987-.67 5.978 1.931 8.543 1.413 1.393 3.156 3.735 2.887 5.332-.935 5.52-2.692 10.902-4.318 17.036-6.568-4.572-11.428-10.245-19.545-7.148.227 4.495-1.831 7.326-5.805 9.522-3.747 2.065-6.863 5.26-10.34 7.845-3.11 2.309-3.28 4.959-1.397 8.099.8 1.328 1.354 2.796 2.056 4.183 1.405 2.786 3.59 6.13.64 8.469-2.348 1.864-6.257 3.247-9.072 2.718-6.045-1.137-11.892-3.44-16.068-8.638-.964-1.202-3.704-2.569-4.36-2.098-1.529 1.104-3.107 3.234-3.198 5.024-.246 5.059 2.815 8.598 6.698 11.515 2.078 1.565 4.03 3.299 6.338 5.202-8.461 5.27-12.01 5.81-15.578 1.312-3.347-4.215-6.948-6.667-12.85-5.524-1.448-7.55 3.302-15.704-4.068-20.838 6.023-9.992 5.945-10.983-1.6-19.01-4.471-4.757-9.007-9.453-13.558-14.129-2.387-2.449-4.698-4.842-1.572-9.294 4.445 4.978 8.532 10.34 15.95 9.93 1.024-.058 2.069 1.3 3.186 1.819 8.662 4.033 17.136 8.615 26.103 11.804 5.37 1.91 11.853 2.877 17.087-.822 10.097-7.13 18.544-15.168 15.84-29.628-1.062-5.67-3.328-10.33-7.695-13.175-12.671-8.26-25.275-16.434-36.573-26.676-5.276-4.78-11.843-8.011-20.363-6.307-4.236.848-9.399-2.932-14.791-4.845 2.373-2.747 3.883-4.49 5.347-6.18-5.837-6.578-5.812-6.526-12.055-3.305-1.279.656-2.821 1.042-4.256 1.107-3.51.153-7.032.046-10.243.043-2.838-3.046-5.412-5.807-7.987-8.567 7.237.559 12.96-.266 15.055-8.66-4.094-3.732-8.39-7.641-12.799-11.662-2.899 1.971-5.223 3.55-8.054 5.479 1.405-10.204.925-10.743-8.552-10.726-.766 2.925-1.542 5.877-2.545 9.7-2.072-3.264-3.689-5.66-5.997-2.293-1.542 2.25-2.1 5.147-3.464 7.543-1.429 2.517-3.289 4.79-5.532 7.976-3.903-8.356 4.305-12.006 4.577-18.893-3.769-.003-7.058-.007-8.934-.007-1.815 4.813-2.137 9.869-4.62 11.385-5.464 3.339-7.321 7.726-7.055 13.194-5.136 2.15-5.617-2.107-7.484-4.195-4.613-5.167-6.967-5.417-12.032-.903 2.124 2.543 4.253 5.098 7.146 8.566-10.96-1.643-10.87-1.62-13.197 7.391-.461 1.786-1.929 3.31-2.932 4.956l-1.932-.569c.266-3.987.536-7.978.841-12.573-3.932 2.806-7.11 5.072-10.483 7.485.279 1.682.571 3.462.844 5.095-.29.41-.41.734-.64.887-6.236 4.143-14.93 5.497-15.356 15.889-.107 2.685-4.52 3.857-7.308.535l-.043-.084zM656 575.177l-8-.01c4.24 3.552 4.24 3.552 8 .01zm239.118 26.83c3.15 3.61 5.571 6.69 8.301 9.46 6.497 6.586 6.062 15.834-1.17 21.459-4.586 3.57-9.035 2.514-10.66-3.038-2.168-7.42-3.534-15-1.804-22.82.685-3.086 1.881-5.202 5.333-5.061z" mask="url(#b)"/>
        <g fill="#E4AD61" mask="url(#b)">
            <g transform="translate(280 106)">
                <circle cx="5" cy="14.6" r="5"/>
                <text font-family="Helvetica" font-size="24">
                    <tspan x="13.4" y="23.72">BERLIN</tspan>
                </text>
            </g>
            <g transform="translate(340 132)">
                <circle cx="5" cy="14.6" r="5"/>
                <text font-family="Helvetica" font-size="24">
                    <tspan x="13.4" y="23.72">KRAKOW</tspan>
                </text>
            </g>
            <g transform="translate(647 440)">
                <circle cx="12" cy="13" r="12" fill-opacity=".2"/>
                <circle cx="12" cy="13" r="5"/>
                <text font-family="Helvetica" font-size="24">
                    <tspan x="28" y="23">DUBAI</tspan>
                </text>
            </g>
            <g transform="translate(161 126)">
                <circle cx="5" cy="14.6" r="5"/>
                <text font-family="Helvetica" font-size="24">
                    <tspan x="14.4" y="23.72">LONDON</tspan>
                </text>
            </g>
        </g>
    </g>
</svg>
