<svg xmlns="http://www.w3.org/2000/svg" xmlns:xlink="http://www.w3.org/1999/xlink" width="347" height="465" viewBox="0 0 347 465">
    <defs>
        <path id="4fj8fibaja" d="M0 31.383c0 11.994 6.729 22.411 16.616 27.694l-1.027 4.108 24.278 69.739 69.443-26.91L114.755.024 31.383 0C14.05 0 0 14.051 0 31.383z"/>
        <path id="6885hauhvc" d="M0 0L43.412 0 43.412 25.124 0 25.124z"/>
        <path id="wkd5nf9lze" d="M0 0L103.105 0 103.105 53.916 0 53.916z"/>
        <path id="7aha3jqs7g" d="M0 5.471l4.552 52.038c1.512 17.266 16.733 30.038 34 28.528C55.817 84.526 68.59 69.304 67.08 52.038L62.527 0 0 5.471z"/>
        <path id="vkpcejf0ri" d="M42.524 1.077C25.782 5.563 15.847 22.771 20.333 39.513l10.196 38.05L0 130.441l54.356 31.383 37.037-64.151c4.221-7.31 5.158-15.61 3.283-23.205l.003-.001-.031-.111c-.082-.331-.17-.659-.263-.987L80.959 23.268C77.203 9.247 64.521 0 50.666 0c-2.69 0-5.421.348-8.142 1.077z"/>
    </defs>
    <g fill="none" fill-rule="evenodd">
        <g>
            <g>
                <path fill="#FFF" d="M111.614 71.287c-17.332 0-31.383 14.05-31.383 31.383 0 11.993 6.73 22.41 16.616 27.694l-1.026 4.107 24.277 69.74 69.443-26.91 5.445-105.991-83.372-.023z" transform="translate(-1226.000000, -607.000000) translate(1226.000000, 607.000000)"/>
                <g transform="translate(-1226.000000, -607.000000) translate(1226.000000, 607.000000) translate(80.231682, 71.286000)">
                    <mask id="ood3htoc0b" fill="#fff">
                        <use xlink:href="#4fj8fibaja"/>
                    </mask>
                    <path fill="#051344" d="M-173.317 9.522L306.163 9.522 306.163 0-173.317 0zM-173.317 28.566L306.163 28.566 306.163 19.044-173.317 19.044zM-173.317 47.609L306.163 47.609 306.163 38.087-173.317 38.087zM-173.317 66.653L306.163 66.653 306.163 57.131-173.317 57.131zM-173.317 85.696L306.163 85.696 306.163 76.174-173.317 76.174zM-173.317 104.739L306.163 104.739 306.163 95.217-173.317 95.217zM-173.317 123.783L306.163 123.783 306.163 114.261-173.317 114.261z" mask="url(#ood3htoc0b)"/>
                </g>
                <g>
                    <path fill="#F9C4AC" d="M60.707 81.958L60.707 81.958 58.604 57.916 1.385 62.922 5.267 107.291 62.485 102.285z" transform="translate(-1226.000000, -607.000000) translate(1226.000000, 607.000000) translate(44.007768, 0.000000)"/>
                    <path fill="#F9C4AC" d="M56.407 32.883c-.16-1.83-1.018-3.6-2.537-4.874-3.038-2.55-7.566-2.153-10.115.885-1.274 1.519-1.812 3.41-1.652 5.24h-.001l2.65 30.298 14.306-1.252-2.651-30.297zM30.448 65.683l14.302-1.251-2.94-33.606c-.16-1.83-1.018-3.6-2.537-4.874-3.037-2.549-7.566-2.153-10.115.885-1.274 1.519-1.812 3.41-1.652 5.241l.271 3.1.006.045 2.665 30.46zM14.332 46.234c-.16-1.83-1.019-3.6-2.537-4.874-3.038-2.549-7.566-2.153-10.115.885-1.274 1.52-1.813 3.41-1.653 5.24L1.84 68.186l14.304-1.252-1.81-20.7z" transform="translate(-1226.000000, -607.000000) translate(1226.000000, 607.000000) translate(44.007768, 0.000000)"/>
                    <path stroke="#FFF" stroke-width="1.5" d="M59.057 63.18l-2.651-30.297c-.16-1.831-1.018-3.6-2.537-4.874-3.037-2.549-7.566-2.153-10.115.885-1.274 1.518-1.812 3.41-1.652 5.24h0l2.65 30.297M16.143 66.934l-1.811-20.7c-.16-1.83-1.019-3.6-2.537-4.873-3.038-2.55-7.566-2.153-10.115.884-1.274 1.519-1.813 3.41-1.652 5.24H.027l1.812 20.7" transform="translate(-1226.000000, -607.000000) translate(1226.000000, 607.000000) translate(44.007768, 0.000000)"/>
                    <path fill="#F9C4AC" d="M29.995 60.419L27.62 33.267l-.007-.045 2.382 27.197z" transform="translate(-1226.000000, -607.000000) translate(1226.000000, 607.000000) translate(44.007768, 0.000000)"/>
                    <path fill="#F9C4AC" d="M29.993 60.419c0 .007-.238-2.731 0 0 0-.007.003.007.002 0h-.002zM27.791 35.341c-.17-1.814-1.025-3.565-2.53-4.829-3.039-2.549-7.567-2.153-10.116.885-1.274 1.518-1.812 3.41-1.652 5.24L14.47 47.8l1.674 19.135 14.303-1.25-2.655-30.343z" transform="translate(-1226.000000, -607.000000) translate(1226.000000, 607.000000) translate(44.007768, 0.000000)"/>
                    <path stroke="#FFF" stroke-width="1.5" d="M30.448 65.683l-2.651-30.297c-.16-1.831-1.018-3.6-2.537-4.874-3.037-2.549-7.566-2.153-10.115.885-1.274 1.518-1.812 3.41-1.652 5.24h0l.976 11.162 1.675 19.135" transform="translate(-1226.000000, -607.000000) translate(1226.000000, 607.000000) translate(44.007768, 0.000000)"/>
                    <path stroke="#FFF" stroke-width="1.5" d="M44.75 64.432l-2.94-33.606c-.16-1.83-1.019-3.6-2.537-4.874-3.038-2.55-7.566-2.152-10.115.885-1.275 1.519-1.813 3.41-1.653 5.24h0l2.941 33.606" transform="translate(-1226.000000, -607.000000) translate(1226.000000, 607.000000) translate(44.007768, 0.000000)"/>
                    <path stroke="#FFF" stroke-width="1.5" d="M60.481 79.372L59.23 65.067c-.161-1.83-1.019-3.599-2.538-4.874-3.037-2.549-7.566-2.152-10.115.885-1.274 1.52-1.812 3.41-1.652 5.241h0l1.252 14.304c-1.85-.199-3.789.404-5.313 1.471-1.524 1.067-2.742 2.513-3.84 4.016-3.236 4.428-4.655 7.655-7.958 11.125" transform="translate(-1226.000000, -607.000000) translate(1226.000000, 607.000000) translate(44.007768, 0.000000)"/>
                    <path fill="#F9C4AC" d="M119.212 71.31L88.665 71.31 85.343 28.844 114.327 28.844z" transform="translate(-1226.000000, -607.000000) translate(1226.000000, 607.000000) translate(44.007768, 0.000000)"/>
                    <path fill="#F9C4AC" d="M77.725 28.844c0 10.63 8.617 19.247 19.247 19.247 10.63 0 19.246-8.617 19.246-19.247 0-10.63-8.617-19.247-19.246-19.247-10.63 0-19.247 8.617-19.247 19.247" transform="translate(-1226.000000, -607.000000) translate(1226.000000, 607.000000) translate(44.007768, 0.000000)"/>
                    <path stroke="#FFF" stroke-linejoin="round" stroke-width="1.5" d="M96.972 9.597c-10.63 0-19.247 8.617-19.247 19.247 0 10.629 8.617 19.246 19.247 19.246" transform="translate(-1226.000000, -607.000000) translate(1226.000000, 607.000000) translate(44.007768, 0.000000)"/>
                    <path fill="#F9C4AC" d="M122.872 28.844c0 3.672-2.977 6.649-6.65 6.649-3.671 0-6.647-2.977-6.647-6.65 0-3.671 2.976-6.648 6.648-6.648 3.672 0 6.649 2.977 6.649 6.649M84.705 27.183c0 2.938-2.38 5.319-5.319 5.319-2.938 0-5.319-2.381-5.319-5.32 0-2.937 2.381-5.318 5.32-5.318 2.937 0 5.318 2.38 5.318 5.319" transform="translate(-1226.000000, -607.000000) translate(1226.000000, 607.000000) translate(44.007768, 0.000000)"/>
                    <path stroke="#353B7C" stroke-width=".5" d="M91.989 28.844c0 2.938-2.381 5.319-5.32 5.319-2.937 0-5.318-2.381-5.318-5.32 0-2.937 2.38-5.318 5.319-5.318 2.938 0 5.319 2.38 5.319 5.319zM105.949 28.844c0 2.938-2.381 5.319-5.32 5.319-2.937 0-5.318-2.381-5.318-5.32 0-2.937 2.38-5.318 5.319-5.318 2.938 0 5.319 2.38 5.319 5.319zM86.67 23.525L100.63 23.525M91.277 26.184L96.023 26.184" transform="translate(-1226.000000, -607.000000) translate(1226.000000, 607.000000) translate(44.007768, 0.000000)"/>
                    <g transform="translate(-1226.000000, -607.000000) translate(1226.000000, 607.000000) translate(44.007768, 0.000000) translate(77.739976, 0.000000)">
                        <mask id="2fi17ta5md" fill="#fff">
                            <use xlink:href="#6885hauhvc"/>
                        </mask>
                        <path fill="#373B78" d="M32.08 17.273c-1.435-.831-3.192-.694-4.837-.581-6 .414-12.042.198-17.999-.643-.493-.07-1.014-.14-1.472.06-.279.12-.51.335-.72.562-1.086 1.183-1.634 2.769-2.488 4.138-.854 1.368-2.268 2.614-3.839 2.407-1.154-1.901-.45-4.726 1.452-5.83-1.135-.371-2.013-1.46-2.156-2.672-.144-1.213.455-2.486 1.471-3.127 1.215-.767 2.952-.731 4.128-.07C8.726 6.166 13.98 2.169 19.875.674 25.77-.822 32.231.202 37.407 3.452c1.965 1.234 3.748 2.715 4.876 4.906.851 1.654 1.727 4.263.581 6.8-.445.986-1.274 1.796-1.92 2.516-1.204 1.338-1.77 4.515-2.822 5.97-.76 1.054-2.262 1.533-3.814 1.476.131-2.361.028-6.54-2.229-7.847" mask="url(#2fi17ta5md)"/>
                    </g>
                    <path fill="#F9C4AC" d="M103.938 86.583c8.436 0 15.274-6.838 15.274-15.274H88.664c0 8.436 6.839 15.274 15.274 15.274" transform="translate(-1226.000000, -607.000000) translate(1226.000000, 607.000000) translate(44.007768, 0.000000)"/>
                    <g transform="translate(-1226.000000, -607.000000) translate(1226.000000, 607.000000) translate(44.007768, 0.000000) translate(84.119650, 410.601300)">
                        <mask id="shq5s414if" fill="#fff">
                            <use xlink:href="#wkd5nf9lze"/>
                        </mask>
                        <path fill="#FFF" d="M41.156 5.075L99.176 0l3.93 44.912-58.02 5.074-44.912 3.93C-1.996 29.112 16.352 7.245 41.156 5.075" mask="url(#shq5s414if)"/>
                    </g>
                    <path fill="#F15B22" d="M150.493 172.195c24.01 6.434 38.26 31.114 31.827 55.126l-19.726 73.7-86.952-23.297 19.726-73.702c6.434-24.011 31.114-38.261 55.125-31.827" transform="translate(-1226.000000, -607.000000) translate(1226.000000, 607.000000) translate(44.007768, 0.000000)"/>
                    <path stroke="#373B78" stroke-width="1.5" d="M120.945 411.345h0l58.02-5.075 3.929 44.912-58.02 5.074-44.911 3.93c-2.17-24.804 16.178-46.67 40.982-48.84z" transform="translate(-1226.000000, -607.000000) translate(1226.000000, 607.000000) translate(44.007768, 0.000000)"/>
                    <path fill="#F15B22" d="M101.56 175.672c24.48-4.317 47.825 12.03 52.142 36.51l34.895 198.746-88.652 15.631L65.05 227.814c-4.316-24.48 12.03-47.825 36.51-52.142" transform="translate(-1226.000000, -607.000000) translate(1226.000000, 607.000000) translate(44.007768, 0.000000)"/>
                    <path fill="#FFF" d="M240.473 348.956l15.075-56.256 43.547 11.668-15.075 56.256-11.668 43.547c-24.051-6.444-38.323-31.165-31.879-55.215" transform="translate(-1226.000000, -607.000000) translate(1226.000000, 607.000000) translate(44.007768, 0.000000)"/>
                    <path stroke="#373B78" stroke-width="1.5" d="M244.37 347.214h0l15.075-56.256 43.547 11.668-15.075 56.256-11.668 43.547c-24.051-6.444-38.323-31.165-31.88-55.215zM111.377 423.633L98.929 354.377" transform="translate(-1226.000000, -607.000000) translate(1226.000000, 607.000000) translate(44.007768, 0.000000)"/>
                    <path fill="#F15B22" d="M75.633 277.724c6.434-24.01 31.114-38.26 55.126-31.826l138.124 37.054-23.3 86.952-138.123-37.055c-24.011-6.433-38.261-31.113-31.827-55.125M142.085 170.773c0 10.356-5.002 43.15-20.78 43.15-15.778 0-28.569-8.395-28.569-18.752 0-10.356-17.602-8.63-3.393-15.49 22.13-10.685 52.742-8.908 52.742-8.908" transform="translate(-1226.000000, -607.000000) translate(1226.000000, 607.000000) translate(44.007768, 0.000000)"/>
                    <path stroke="#373B78" stroke-width="1.5" d="M69.859 282.055c.028-.106.063-.208.092-.313l19.642-73.39c6.434-24.01 31.114-38.26 55.125-31.827 24.012 6.434 38.26 31.115 31.827 55.126l-8.088 30.221 93.135 24.945-23.3 86.952-136.606-36.589c-24.011-6.434-38.261-31.114-31.827-55.125zM243.722 353.579L117.562 319.789" transform="translate(-1226.000000, -607.000000) translate(1226.000000, 607.000000) translate(44.007768, 0.000000)"/>
                </g>
                <g transform="translate(-1226.000000, -607.000000) translate(1226.000000, 607.000000) translate(46.456682, 100.063000)">
                    <mask id="knn4abydvh" fill="#fff">
                        <use xlink:href="#7aha3jqs7g"/>
                    </mask>
                    <path fill="#051344" d="M-139.542 18.832L339.938 18.832 339.938 9.31-139.542 9.31zM-139.542 37.876L339.938 37.876 339.938 28.354-139.542 28.354zM-139.542 56.919L339.938 56.919 339.938 47.397-139.542 47.397zM-139.542 75.962L339.938 75.962 339.938 66.44-139.542 66.44z" mask="url(#knn4abydvh)"/>
                </g>
                <g>
                    <path stroke="#57C9EE" stroke-width="1.5" d="M313.587 201.793l-275.81 48.633c-4.518.796-8.827-2.22-9.624-6.738L.128 84.746c-.797-4.518 2.22-8.827 6.738-9.623l275.81-48.633c4.518-.797 8.827 2.22 9.624 6.738l28.025 158.942c.797 4.518-2.22 8.826-6.738 9.623z" transform="translate(-1226.000000, -607.000000) translate(1226.000000, 607.000000) translate(0.000000, 71.331817)"/>
                    <path stroke="#57C9EE" stroke-width="1.5" d="M288.556 27.659L165.346 167.491 1.738 78.231M196.569 132.055L318.713 198.694M31.896 249.266L123.882 144.87" transform="translate(-1226.000000, -607.000000) translate(1226.000000, 607.000000) translate(0.000000, 71.331817)"/>
                    <path fill="#FFF" d="M239.213 74.467l-13.72-51.199C221.009 6.526 203.8-3.409 187.059 1.078c-16.742 4.485-26.677 21.693-22.191 38.435l13.719 51.2 60.627-16.246z" transform="translate(-1226.000000, -607.000000) translate(1226.000000, 607.000000) translate(0.000000, 71.331817)"/>
                    <path fill="#F9C4AC" d="M142.726 138.678L142.726 138.678 130.34 160.13 180.275 188.96 197.487 159.148 198.657 157.121 202.334 150.753 196.092 147.15 191.275 144.369 171.125 132.735 164.883 129.131 152.399 121.924z" transform="translate(-1226.000000, -607.000000) translate(1226.000000, 607.000000) translate(0.000000, 71.331817)"/>
                    <g>
                        <path fill="#F9C4AC" d="M4.26 0L.967 5.704C.045 7.301-.268 9.25.247 11.173c1.03 3.845 4.982 6.127 8.827 5.096 1.923-.515 3.454-1.761 4.376-3.358h.001l3.293-5.704" transform="translate(-1226.000000, -607.000000) translate(1226.000000, 607.000000) translate(0.000000, 71.331817) translate(126.079812, 160.130483)"/>
                        <path stroke="#FFF" stroke-width="1.77" d="M4.26 0L.967 5.704C.045 7.301-.268 9.25.247 11.173c1.03 3.845 4.982 6.127 8.827 5.096 1.923-.515 3.454-1.761 4.376-3.358h.001l3.293-5.704" transform="translate(-1226.000000, -607.000000) translate(1226.000000, 607.000000) translate(0.000000, 71.331817) translate(126.079812, 160.130483)"/>
                    </g>
                    <g>
                        <path fill="#F9C4AC" d="M4.26 0L.967 5.704C.045 7.301-.268 9.25.247 11.173c1.03 3.845 4.982 6.126 8.827 5.096 1.923-.515 3.454-1.761 4.376-3.358h.001l3.293-5.704" transform="translate(-1226.000000, -607.000000) translate(1226.000000, 607.000000) translate(0.000000, 71.331817) translate(138.563412, 167.337983)"/>
                        <path stroke="#FFF" stroke-width="1.77" d="M4.26 0L.967 5.704C.045 7.301-.268 9.25.247 11.173c1.03 3.845 4.982 6.126 8.827 5.096 1.923-.515 3.454-1.761 4.376-3.358h.001l3.293-5.704" transform="translate(-1226.000000, -607.000000) translate(1226.000000, 607.000000) translate(0.000000, 71.331817) translate(138.563412, 167.337983)"/>
                    </g>
                    <g>
                        <path fill="#F9C4AC" d="M2.551 0L.967 2.743C.045 4.34-.268 6.29.247 8.212c1.03 3.845 4.983 6.127 8.828 5.096 1.922-.515 3.454-1.76 4.376-3.358l1.584-2.743" transform="translate(-1226.000000, -607.000000) translate(1226.000000, 607.000000) translate(0.000000, 71.331817) translate(152.756012, 174.545383)"/>
                        <path stroke="#FFF" stroke-width="1.77" d="M2.551 0L.967 2.743C.045 4.34-.268 6.29.247 8.212c1.03 3.845 4.983 6.127 8.828 5.096 1.922-.515 3.454-1.76 4.376-3.358h0l1.584-2.743" transform="translate(-1226.000000, -607.000000) translate(1226.000000, 607.000000) translate(0.000000, 71.331817) translate(152.756012, 174.545383)"/>
                    </g>
                    <g>
                        <path fill="#F9C4AC" d="M.967 0C.045 1.597-.268 3.547.247 5.469c1.03 3.845 4.982 6.127 8.827 5.096 1.923-.515 3.454-1.76 4.376-3.358h.001" transform="translate(-1226.000000, -607.000000) translate(1226.000000, 607.000000) translate(0.000000, 71.331817) translate(166.823612, 181.752783)"/>
                        <path stroke="#FFF" stroke-width="1.77" d="M.967 0C.045 1.597-.268 3.547.247 5.469c1.03 3.845 4.982 6.127 8.827 5.096 1.923-.515 3.454-1.76 4.376-3.358h.001" transform="translate(-1226.000000, -607.000000) translate(1226.000000, 607.000000) translate(0.000000, 71.331817) translate(166.823612, 181.752783)"/>
                    </g>
                    <path stroke="#FFF" stroke-width="1.77" d="M180.274 188.96L202.333 150.753M130.34 160.13L152.399 121.923" transform="translate(-1226.000000, -607.000000) translate(1226.000000, 607.000000) translate(0.000000, 71.331817)"/>
                    <path fill="#FFF" d="M198.89 161.824l37.037-64.151c8.667-15.01 3.524-34.203-11.487-42.87-15.01-8.666-34.203-3.523-42.87 11.488l-37.037 64.15 54.357 31.383z" transform="translate(-1226.000000, -607.000000) translate(1226.000000, 607.000000) translate(0.000000, 71.331817)"/>
                </g>
                <g transform="translate(-1226.000000, -607.000000) translate(1226.000000, 607.000000) translate(144.533682, 71.331998)">
                    <mask id="ukw20c1dkj" fill="#fff">
                        <use xlink:href="#vkpcejf0ri"/>
                    </mask>
                    <path fill="#051344" d="M-237.619 9.476L241.861 9.476 241.861-.046-237.619-.046zM-237.619 28.52L241.861 28.52 241.861 18.998-237.619 18.998zM-237.619 47.563L241.861 47.563 241.861 38.041-237.619 38.041zM-237.619 66.607L241.861 66.607 241.861 57.085-237.619 57.085zM-237.619 85.65L241.861 85.65 241.861 76.128-237.619 76.128zM-237.619 104.693L241.861 104.693 241.861 95.171-237.619 95.171zM-237.619 123.737L241.861 123.737 241.861 114.215-237.619 114.215zM-237.619 161.824L241.861 161.824 241.861 152.302-237.619 152.302zM-237.619 142.78L241.861 142.78 241.861 133.258-237.619 133.258z" mask="url(#ukw20c1dkj)"/>
                </g>
                <path stroke="#373B78" stroke-width="1.5" d="M241.865 143.115l.003-.001-.03-.11c-.083-.331-.171-.66-.265-.988l-13.425-50.101c-4.485-16.742-21.694-26.677-38.436-22.191-16.741 4.486-26.676 21.695-22.191 38.436l10.196 38.05-30.53 52.878 54.358 31.383 37.037-64.15c4.22-7.311 5.158-15.611 3.283-23.206z" transform="translate(-1226.000000, -607.000000) translate(1226.000000, 607.000000)"/>
            </g>
        </g>
    </g>
</svg>
