<svg xmlns="http://www.w3.org/2000/svg" xmlns:xlink="http://www.w3.org/1999/xlink" width="266" height="44" viewBox="0 0 266 44">
    <defs>
        <path id="32rnxtex5a" d="M0 0.45L105.417 0.45 105.417 43.875 0 43.875z"/>
        <path id="0lksa7emxc" d="M0 44.55L265.307 44.55 265.307 1.125 0 1.125z"/>
    </defs>
    <g fill="none" fill-rule="evenodd" transform="translate(0 -1)">
        <path fill="#FFF" d="M108.45 3.262v-.675h.45c.225 0 .45 0 .45.338 0 .337-.225.337-.562.337h-.338zm0 .338h.338l.562.9h.338l-.675-1.013c.337 0 .562-.225.562-.562 0-.45-.225-.675-.787-.675H108V4.5h.338v-.9h.112zm.338 1.8c1.012 0 1.912-.788 1.912-1.913s-.9-1.912-1.912-1.912c-1.013 0-1.913.787-1.913 1.912 0 1.013.9 1.913 1.913 1.913zm-1.463-1.913c0-.9.675-1.575 1.575-1.575.9 0 1.575.675 1.575 1.575 0 .9-.675 1.575-1.575 1.575-.9 0-1.575-.675-1.575-1.575z"/>
        <g transform="translate(0 .675)">
            <mask id="nh5r6f2l2b" fill="#fff">
                <use xlink:href="#32rnxtex5a"/>
            </mask>
            <path fill="#FFF" d="M82.125 33.412H63.788V11.025h18.337c6.413 0 12.263 4.837 12.263 11.25 0 6.3-5.85 11.137-12.263 11.137zM46.8 33.3h11.25V11.025H46.8V33.3zm-6.075 0h-11.25v-9.563h-7.537V33.3h-11.25V11.025h11.25v9.562h7.537v-9.562h11.25V33.3zM100.575.45H4.838C2.138.45 0 2.587 0 5.287v33.75c0 2.7 2.138 4.838 4.838 4.838h95.737c2.7 0 4.838-2.138 4.838-4.838V5.287c.112-2.7-2.138-4.837-4.838-4.837z" mask="url(#nh5r6f2l2b)"/>
        </g>
        <path fill="#FFF" d="M74.813 13.725v18.338c4.612 0 7.312.787 7.312-9.113 0-10.012-3.15-9.225-7.312-9.225M132.117 11.296c-.542-.404-1.261-.606-2.157-.606h-2.794v4.85h2.731c.454 0 .866-.057 1.24-.172.373-.115.695-.28.964-.495.269-.216.474-.474.615-.773.143-.298.214-.633.214-1 0-.797-.27-1.4-.813-1.804m1.711 3.331c-.232.451-.543.83-.937 1.135-.394.304-.853.532-1.378.684-.526.153-1.083.229-1.67.229h-2.677v3.89h-1.245V9.54h4.127c.619 0 1.183.082 1.693.244.51.163.945.394 1.307.693.363.3.64.667.835 1.103.195.436.291.927.291 1.473 0 .598-.115 1.124-.346 1.574M142.672 15.269c-.153-.388-.365-.727-.638-1.014-.273-.288-.594-.515-.96-.684-.369-.166-.768-.25-1.198-.25-.44 0-.845.08-1.212.242-.368.163-.68.388-.938.676-.257.288-.46.624-.606 1.006-.147.382-.22.794-.22 1.233 0 .44.076.854.228 1.242.152.386.362.722.63 1.005.268.282.585.507.953.676.368.166.766.25 1.197.25.442 0 .845-.08 1.213-.242.366-.163.682-.385.945-.668.262-.283.466-.616.614-.998.147-.383.22-.793.22-1.233 0-.44-.075-.854-.228-1.241m1.15 2.863c-.215.52-.512.974-.89 1.362-.377.39-.83.696-1.355.922-.524.225-1.09.338-1.7.338-.61 0-1.172-.113-1.686-.338-.514-.226-.96-.53-1.339-.914-.378-.382-.672-.832-.882-1.346-.21-.516-.315-1.061-.315-1.638 0-.578.105-1.127.315-1.646.21-.52.504-.975.882-1.363s.827-.696 1.347-.921c.52-.226 1.089-.339 1.709-.339.608 0 1.173.113 1.693.339.52.225.969.531 1.347.913.378.384.671.833.882 1.347.21.514.315 1.06.315 1.638 0 .578-.108 1.126-.323 1.646M154.082 18.959L156.224 12.422 157.484 12.422 154.619 20.627 153.563 20.627 151.374 14.201 149.169 20.627 148.098 20.627 145.247 12.422 146.538 12.422 148.68 18.959 150.87 12.391 151.877 12.391zM165.061 16.046c-.031-.368-.108-.72-.227-1.056-.12-.336-.287-.63-.5-.883-.216-.25-.476-.453-.784-.606-.308-.151-.666-.229-1.073-.229-.354 0-.683.072-.986.214-.302.142-.569.335-.798.582-.23.247-.418.539-.564.875-.146.335-.24.703-.282 1.103h5.214zm-4.898 2.07c.167.342.382.63.646.866.262.236.555.415.882.536.325.12.667.182 1.023.182.567 0 1.053-.106 1.457-.315.403-.21.773-.49 1.11-.835l.755.676c-.408.462-.876.832-1.4 1.11-.526.28-1.177.419-1.953.419-.557 0-1.082-.103-1.576-.308-.493-.205-.925-.493-1.295-.866-.37-.372-.664-.822-.881-1.347-.22-.525-.327-1.102-.327-1.733 0-.587.096-1.14.29-1.66.194-.52.466-.972.81-1.355.349-.383.76-.686 1.238-.905.479-.221 1-.331 1.566-.331.6 0 1.134.112 1.607.338.474.225.873.533 1.198.92.325.39.572.847.74 1.372.168.525.251 1.087.251 1.685v.172c0 .065-.004.132-.014.206h-6.443c.042.44.147.832.316 1.174zM169.644 20.565h-1.212v-8.142h1.212v2.126c.147-.335.331-.646.55-.93.222-.283.473-.527.757-.732.283-.205.592-.36.929-.464.336-.105.698-.152 1.087-.142v1.307h-.095c-.44 0-.858.079-1.25.236-.396.158-.739.394-1.033.71-.294.314-.525.706-.693 1.172-.168.468-.252 1.006-.252 1.615v3.244z"/>
        <mask id="fhs1a42ncd" fill="#fff">
            <use xlink:href="#0lksa7emxc"/>
        </mask>
        <path fill="#FFF" d="M174.92 20.565h1.213v-8.143h-1.212v8.143zm-.08-9.923h1.387V9.306h-1.386v1.338zM180.165 20.565h-1.213v-8.142h1.213v1.417c.272-.44.63-.816 1.07-1.126.442-.31 1.015-.465 1.718-.465.493 0 .931.08 1.314.237.383.157.709.38.977.669.268.29.473.633.615 1.032.141.399.212.84.212 1.323v5.055h-1.212V15.81c0-.756-.195-1.355-.584-1.796-.387-.44-.945-.661-1.669-.661-.347 0-.67.06-.968.181-.3.12-.56.295-.781.52-.22.226-.39.496-.512.81-.12.316-.18.662-.18 1.04v4.662zM194.986 14.95c-.168-.34-.392-.632-.67-.873-.279-.242-.596-.428-.953-.559-.357-.133-.73-.198-1.12-.198-.386 0-.752.063-1.093.19-.342.125-.64.308-.897.55-.26.242-.46.534-.607.874-.147.342-.22.723-.22 1.142 0 .421.075.801.228 1.143.152.34.357.635.614.881.257.248.557.437.897.568.342.13.702.196 1.079.196.39 0 .762-.065 1.12-.196.356-.131.673-.318.951-.559.28-.242.503-.533.67-.875.167-.34.253-.721.253-1.14 0-.422-.086-.802-.252-1.144m1.126 5.93c-.195.494-.473.906-.835 1.236-.362.331-.798.581-1.307.749-.51.168-1.08.252-1.71.252-.682 0-1.332-.095-1.952-.284-.62-.189-1.204-.472-1.748-.85l.55-.945c.472.336.967.592 1.481.772.514.178 1.066.267 1.653.267.903 0 1.623-.244 2.158-.731.536-.49.803-1.212.803-2.167v-.96c-.357.472-.792.877-1.306 1.212-.515.336-1.144.505-1.89.505-.494 0-.969-.088-1.426-.26-.456-.174-.864-.426-1.22-.757-.357-.33-.644-.732-.86-1.205-.215-.472-.321-1.007-.321-1.606 0-.599.106-1.136.321-1.615.216-.477.503-.88.86-1.211.356-.33.766-.586 1.228-.765.462-.178.935-.267 1.418-.267.377 0 .727.044 1.047.133.32.09.609.207.866.354.257.148.49.321.701.52.21.2.399.41.567.631v-1.466h1.213v6.726c0 .661-.098 1.24-.291 1.732M130.678 28.652L130.678 37.441 128.252 37.441 128.252 28.652 124.897 28.652 124.897 26.416 134.032 26.416 134.032 28.652zM140.6 31.345c-.798 0-1.425.242-1.882.725-.457.482-.685 1.234-.685 2.252v3.118h-2.394v-8.442h2.394V30.7c.242-.577.572-1.04.992-1.386.42-.346.988-.504 1.7-.472v2.504h-.125zM147.5 37.44v-1.206c-.138.18-.288.351-.45.516-.163.163-.344.308-.544.435-.2.128-.42.228-.662.301-.241.075-.514.112-.817.112-.915 0-1.62-.278-2.119-.835-.498-.557-.748-1.323-.748-2.3v-5.465h2.394v4.698c0 .566.126.993.378 1.282.25.287.609.43 1.071.43.461 0 .826-.143 1.095-.43.267-.29.401-.716.401-1.282v-4.698h2.394v8.442H147.5zM157.98 36.093c-.163.342-.391.624-.685.843-.293.22-.638.386-1.031.496-.394.11-.817.165-1.268.165-.6 0-1.21-.102-1.835-.307-.626-.204-1.22-.526-1.788-.968l1.024-1.574c.461.336.92.587 1.378.756.457.168.884.25 1.284.25.346 0 .6-.057.764-.172.163-.116.244-.267.244-.456v-.033c0-.126-.048-.236-.142-.33-.095-.095-.223-.176-.386-.243-.162-.07-.349-.136-.559-.199-.21-.063-.43-.13-.661-.204-.295-.084-.591-.186-.89-.306-.3-.122-.57-.28-.811-.474-.241-.193-.44-.433-.591-.717-.153-.283-.228-.628-.228-1.039v-.032c0-.43.08-.81.244-1.141.162-.331.383-.612.661-.843.278-.23.604-.404.977-.52.372-.115.774-.173 1.204-.173.536 0 1.08.087 1.63.261.552.172 1.058.412 1.52.716l-.913 1.653c-.42-.24-.83-.433-1.229-.575-.399-.141-.75-.211-1.055-.211-.294 0-.514.055-.661.164-.148.11-.22.25-.22.418v.032c0 .115.047.217.141.306.094.089.22.173.378.253.157.078.339.154.543.228.205.073.422.147.654.22.294.094.594.208.898.339.305.131.577.292.819.481.24.19.44.42.598.692.157.273.237.604.237.993v.03c0 .473-.082.88-.245 1.221M163.847 37.448c-.305.089-.656.134-1.054.134-.37 0-.702-.04-1-.117-.3-.08-.557-.22-.773-.418-.215-.2-.384-.46-.504-.78s-.181-.727-.181-1.22v-4h-1.008v-2.049h1.008V26.84h2.395v2.158h1.984v2.049h-1.984v3.606c0 .546.256.818.77.818.42 0 .815-.1 1.182-.298v1.922c-.251.146-.53.264-.835.353M171.454 31.258c-.305-.33-.709-.495-1.213-.495-.503 0-.911.162-1.22.487-.31.326-.512.762-.607 1.308h3.607c-.074-.536-.262-.969-.567-1.3m2.89 2.497c-.006.084-.012.184-.024.299h-5.874c.116.547.355.958.716 1.236.363.278.813.418 1.347.418.4 0 .756-.068 1.07-.205.317-.136.642-.357.977-.66l1.37 1.211c-.398.494-.881.88-1.448 1.158-.567.278-1.234.417-2 .417-.63 0-1.216-.106-1.757-.315-.54-.21-1.008-.508-1.401-.898-.393-.388-.701-.848-.922-1.378-.22-.53-.33-1.12-.33-1.772v-.031c0-.597.103-1.166.307-1.701.204-.534.491-1.002.858-1.402.368-.398.807-.714 1.315-.945.51-.23 1.073-.345 1.693-.345.704 0 1.313.125 1.827.378.515.25.943.59 1.284 1.015.34.425.594.913.756 1.465.163.55.244 1.127.244 1.724v.031c0 .116-.002.216-.008.3M182.259 33.204c0-.35-.055-.67-.165-.96-.11-.29-.258-.539-.441-.746-.184-.205-.4-.364-.646-.474-.248-.112-.512-.167-.796-.167-.283 0-.549.055-.795.167-.247.11-.464.269-.654.474-.189.207-.338.453-.448.738-.11.286-.166.61-.166.968v.03c0 .35.055.67.166.961.11.29.26.538.448.745.19.207.407.364.654.476.246.11.512.165.796.165.283 0 .547-.055.795-.165.246-.112.462-.27.646-.476.183-.207.33-.455.44-.745.11-.291.166-.61.166-.96v-.031zm-.031 4.237v-1.203c-.295.396-.649.722-1.065.977-.414.255-.937.382-1.566.382-.494 0-.97-.094-1.434-.283-.461-.19-.87-.47-1.228-.843-.357-.372-.643-.83-.858-1.37-.216-.54-.323-1.162-.323-1.867v-.03c0-.704.107-1.326.323-1.866.215-.542.499-.998.85-1.37.352-.374.759-.654 1.221-.843.463-.19.945-.284 1.45-.284.64 0 1.167.124 1.582.375.414.25.764.542 1.047.874v-4.147h2.394v11.498h-2.394zM191.85 37.44L194.275 37.44 194.275 26.415 191.85 26.415zM202.907 33.204c0-.35-.055-.67-.166-.96-.11-.29-.257-.539-.44-.746-.184-.205-.4-.364-.646-.474-.248-.112-.512-.167-.796-.167-.283 0-.549.055-.795.167-.248.11-.465.269-.654.474-.189.207-.338.453-.449.738-.11.286-.165.61-.165.968v.03c0 .35.055.67.165.961.11.29.26.538.45.745.188.207.405.364.653.476.246.11.512.165.795.165.284 0 .548-.055.796-.165.246-.112.462-.27.645-.476.184-.207.331-.455.441-.745.11-.291.166-.61.166-.96v-.031zm-.032 4.237v-1.203c-.295.396-.648.722-1.064.977-.414.255-.937.382-1.566.382-.494 0-.97-.094-1.434-.283-.462-.19-.871-.47-1.228-.843-.358-.372-.643-.83-.858-1.37-.216-.54-.323-1.162-.323-1.867v-.03c0-.704.107-1.326.323-1.866.215-.542.498-.998.85-1.37.351-.374.759-.654 1.22-.843.463-.19.946-.284 1.45-.284.64 0 1.168.124 1.583.375.414.25.764.542 1.047.874v-4.147h2.394v11.498h-2.394zM212.388 31.258c-.305-.33-.709-.495-1.213-.495-.503 0-.911.162-1.22.487-.31.326-.512.762-.607 1.308h3.607c-.074-.536-.262-.969-.567-1.3m2.89 2.497c-.006.084-.012.184-.024.299h-5.874c.116.547.355.958.716 1.236.363.278.813.418 1.347.418.4 0 .756-.068 1.071-.205.316-.136.641-.357.976-.66l1.37 1.211c-.398.494-.881.88-1.448 1.158-.567.278-1.234.417-2 .417-.63 0-1.216-.106-1.757-.315-.54-.21-1.008-.508-1.401-.898-.393-.388-.701-.848-.922-1.378-.22-.53-.33-1.12-.33-1.772v-.031c0-.597.103-1.166.307-1.701.204-.534.491-1.002.858-1.402.368-.398.807-.714 1.315-.945.51-.23 1.073-.345 1.693-.345.704 0 1.313.125 1.827.378.515.25.943.59 1.284 1.015.34.425.594.913.756 1.465.163.55.244 1.127.244 1.724v.031c0 .116-.002.216-.008.3M222.405 37.44v-4.698c0-.566-.126-.992-.379-1.279-.252-.288-.608-.433-1.07-.433-.462 0-.827.145-1.095.433-.267.287-.4.713-.4 1.28l-.001 4.697h-2.394v-8.442h2.394v1.206c.136-.179.286-.35.448-.515.163-.163.344-.308.544-.435.198-.127.42-.228.662-.302.24-.074.514-.111.818-.111.914 0 1.62.279 2.12.835.496.556.747 1.323.747 2.3v5.464h-2.394zM230.783 37.448c-.304.089-.655.134-1.054.134-.369 0-.702-.04-1-.117-.3-.08-.557-.22-.773-.418-.215-.2-.383-.46-.504-.78-.12-.32-.18-.727-.18-1.22v-4h-1.009v-2.049h1.008V26.84h2.395v2.158h1.985v2.049h-1.985v3.606c0 .546.257.818.77.818.42 0 .815-.1 1.182-.298v1.922c-.25.146-.53.264-.835.353M233.523 37.44h2.395v-8.442h-2.395v8.442zm-.062-9.37h2.52v-2.126h-2.52v2.126zM242.076 37.448c-.305.089-.656.134-1.055.134-.368 0-.702-.04-1-.117-.3-.08-.557-.22-.772-.418-.215-.2-.383-.46-.504-.78-.12-.32-.181-.727-.181-1.22v-4h-1.01v-2.049h1.01V26.84h2.394v2.158h1.985v2.049h-1.985v3.606c0 .546.257.818.772.818.42 0 .813-.1 1.181-.298v1.922c-.252.146-.53.264-.835.353M244.816 37.44h2.395v-8.442h-2.395v8.442zm-.062-9.37h2.52v-2.126h-2.52v2.126zM254.44 31.258c-.306-.33-.71-.495-1.214-.495-.502 0-.91.162-1.22.487-.31.326-.512.762-.607 1.308h3.607c-.074-.536-.262-.969-.567-1.3m2.89 2.497c-.005.084-.012.184-.023.299h-5.875c.116.547.355.958.717 1.236s.812.418 1.346.418c.4 0 .756-.068 1.071-.205.316-.136.641-.357.977-.66l1.37 1.211c-.398.494-.882.88-1.449 1.158-.567.278-1.234.417-2 .417-.63 0-1.215-.106-1.756-.315-.54-.21-1.008-.508-1.402-.898-.393-.388-.701-.848-.922-1.378-.219-.53-.33-1.12-.33-1.772v-.031c0-.597.103-1.166.307-1.701.205-.534.491-1.002.858-1.402.368-.398.807-.714 1.315-.945.51-.23 1.074-.345 1.693-.345.705 0 1.313.125 1.827.378.516.25.943.59 1.284 1.015.341.425.594.913.756 1.465.163.55.244 1.127.244 1.724v.031c0 .116-.002.216-.008.3M265.063 36.093c-.163.342-.392.624-.685.843-.294.22-.638.386-1.032.496-.394.11-.817.165-1.268.165-.6 0-1.21-.102-1.835-.307-.625-.204-1.22-.526-1.787-.968l1.024-1.574c.46.336.92.587 1.378.756.456.168.884.25 1.283.25.347 0 .601-.057.764-.172.163-.116.244-.267.244-.456v-.033c0-.126-.047-.236-.141-.33-.095-.095-.223-.176-.386-.243-.162-.07-.35-.136-.56-.199-.21-.063-.43-.13-.66-.204-.296-.084-.592-.186-.89-.306-.3-.122-.571-.28-.812-.474-.24-.193-.439-.433-.59-.717-.154-.283-.229-.628-.229-1.039v-.032c0-.43.081-.81.244-1.141.162-.331.384-.612.662-.843.278-.23.604-.404.976-.52.373-.115.774-.173 1.205-.173.536 0 1.079.087 1.63.261.551.172 1.058.412 1.52.716l-.913 1.653c-.421-.24-.83-.433-1.229-.575-.4-.141-.75-.211-1.055-.211-.295 0-.514.055-.662.164-.147.11-.22.25-.22.418v.032c0 .115.047.217.142.306.094.089.22.173.378.253.157.078.338.154.543.228.205.073.422.147.654.22.293.094.594.208.897.339.305.131.577.292.82.481.24.19.44.42.598.692.156.273.236.604.236.993v.03c0 .473-.08.88-.244 1.221" mask="url(#fhs1a42ncd)"/>
    </g>
</svg>
