<?xml version="1.0" encoding="UTF-8"?>
<svg width="255px" height="51px" viewBox="0 0 255 51" version="1.1" xmlns="http://www.w3.org/2000/svg" xmlns:xlink="http://www.w3.org/1999/xlink">
    <title>EE482B20-9999-460F-9B40-3DA3EAC847A2</title>
    <g id="Picniic" stroke="none" stroke-width="1" fill="none" fill-rule="evenodd">
        <g id="[Miquido]-Portfolio---Picniic-01" transform="translate(-256.000000, -206.000000)" fill="#FFFFFF" fill-rule="nonzero">
            <g id="header" transform="translate(0.000000, 100.000000)">
                <g id="img-/-1920-/-Case_study-/-Picniic">
                    <g id="Clients-/-Logo-/-Piicnic" transform="translate(256.000000, 106.000000)">
                        <path d="M129.668199,8.5 L117.839809,8.5 C117.306044,8.5 116.875,8.94284324 116.875,9.48957869 L116.875,43.069983 C116.875,43.6167841 117.306044,44.0603006 117.839809,44.0603006 L121.908928,44.0603006 C122.441899,44.0603006 122.872308,43.6167841 122.872308,43.069983 L122.872308,14.6209215 C122.872308,14.3866016 123.057109,14.195993 123.286682,14.195993 L129.467998,14.195993 C134.065166,14.195993 137.163286,16.7634295 137.163286,20.5613165 C137.163286,24.7697148 134.065166,27.5413233 129.467998,27.5413233 L127.221805,27.5413233 C126.764883,27.5413233 126.395121,27.9232631 126.395121,28.3925597 L126.395121,32.3380665 C126.395121,32.8073631 126.764883,33.187825 127.221805,33.187825 L128.819288,33.187825 C137.413022,33.187825 143.108837,28.1569261 143.108837,20.5613165 C143.108837,13.3239355 137.763255,8.5 129.668199,8.5 Z M224.081943,8.5 C222.084693,8.5 220.484352,10.0406163 220.484352,12.1444542 C220.484352,14.1458285 222.084693,15.6857387 224.081943,15.6857387 C226.080781,15.6857387 227.679534,14.1458285 227.679534,12.1444542 C227.679534,10.0406163 226.080781,8.5 224.081943,8.5 Z M222.129146,44.0603006 L226.083956,44.0603006 C226.5793,44.0603006 226.980973,43.6489682 226.980973,43.1409193 L226.980973,20.7023682 C226.980973,20.1951403 226.5793,19.7823301 226.083956,19.7823301 L222.129146,19.7823301 C221.635391,19.7823301 221.233718,20.1951403 221.233718,20.7023682 L221.233718,43.1409193 C221.233718,43.6489682 221.635391,44.0603006 222.129146,44.0603006 Z M213.917875,8.5 C211.919037,8.5 210.320284,10.0406163 210.320284,12.1444542 C210.320284,14.1458285 211.919037,15.6857387 213.917875,15.6857387 C215.915126,15.6857387 217.515466,14.1458285 217.515466,12.1444542 C217.515466,10.0406163 215.915126,8.5 213.917875,8.5 Z M149.006441,8.5 C147.007127,8.5 145.40885,10.0406163 145.40885,12.1444542 C145.40885,14.1458285 147.007127,15.6857387 149.006441,15.6857387 C151.005756,15.6857387 152.603874,14.1458285 152.603874,12.1444542 C152.603874,10.0406163 151.005756,8.5 149.006441,8.5 Z M243.522588,39.2872028 C239.424891,39.2872028 236.727491,36.0527017 236.727491,31.9474239 C236.727491,27.8408324 239.424891,24.6069881 243.522588,24.6069881 C246.2184,24.6069881 248.285507,26.022267 249.042811,28.2270415 C249.17141,28.6083244 249.517515,28.8669466 249.91125,28.8669466 L254.375692,28.8669466 C254.772602,28.8669466 255.064727,28.4900972 254.985345,28.0902591 C253.915276,22.8148597 249.242853,19.2184517 243.522588,19.2184517 C236.42584,19.2184517 230.980237,24.7101085 230.980237,31.9474239 C230.980237,39.1325222 236.42584,44.625 243.522588,44.625 C249.244441,44.625 253.920039,41.0737483 254.986933,35.7502369 C255.066315,35.3518767 254.774189,34.9750273 254.377279,34.9750273 L249.916013,34.9750273 C249.52069,34.9750273 249.17141,35.2366051 249.042811,35.6206795 C248.29027,37.8678187 246.219988,39.2872028 243.522588,39.2872028 Z M211.965079,44.0603006 L215.919888,44.0603006 C216.413644,44.0603006 216.815317,43.6489682 216.815317,43.1409193 L216.815317,20.7023682 C216.815317,20.1951403 216.413644,19.7823301 215.919888,19.7823301 L211.965079,19.7823301 C211.469735,19.7823301 211.06965,20.1951403 211.06965,20.7023682 L211.06965,43.1409193 C211.06965,43.6489682 211.469735,44.0603006 211.965079,44.0603006 Z M196.280788,19.0127034 C193.894566,19.0127034 191.824284,19.7322477 190.0112,20.9933386 C189.576187,21.2949824 188.991935,21.2613205 188.983997,20.4631222 C188.980822,20.0918557 188.715686,19.7823301 188.352117,19.7823301 L183.838458,19.7823301 C183.479651,19.7823301 183.189113,20.0818392 183.189113,20.4494932 L183.189113,43.3939585 C183.189113,43.7622693 183.479651,44.0603006 183.838458,44.0603006 L188.334653,44.0603006 C188.693459,44.0603006 188.983997,43.7622693 188.983997,43.3939585 L188.983997,28.050029 C188.983997,27.9490432 189.022101,27.8472364 189.084018,27.7692392 C190.86535,25.5894239 193.068994,24.4027176 195.08212,24.4027176 C198.679711,24.4027176 200.877004,26.763158 200.877004,31.0231165 L200.877004,43.3939585 C200.877004,43.7622693 201.16913,44.0603006 201.527937,44.0603006 L205.973327,44.0603006 C206.333721,44.0603006 206.624259,43.7622693 206.624259,43.3939585 L206.624259,30.6641653 C206.624259,23.6330909 202.477345,19.0127034 196.280788,19.0127034 Z M168.447881,24.6069881 C171.169095,24.6069881 173.252078,26.0523165 173.988742,28.2943653 C174.101465,28.636896 174.415817,28.8669466 174.766686,28.8669466 L179.300984,28.8669466 C179.697894,28.8669466 179.991607,28.4886193 179.910638,28.0915727 C178.840569,22.8148597 174.166558,19.2184517 168.447881,19.2184517 C161.351132,19.2184517 155.904894,24.7101085 155.904894,31.9474239 C155.904894,39.1325222 161.351132,44.625 168.447881,44.625 C174.168146,44.625 178.845332,41.0737483 179.912225,35.7502369 C179.991607,35.3518767 179.697894,34.9750273 179.300984,34.9750273 L174.771449,34.9750273 C174.415817,34.9750273 174.101465,35.2078693 173.99033,35.5531915 C173.256841,37.8405608 171.17227,39.2872028 168.447881,39.2872028 C164.350183,39.2872028 161.651196,36.0527017 161.651196,31.9474239 C161.651196,27.8423102 164.350183,24.6069881 168.447881,24.6069881 Z M147.117309,44.0603006 C146.587831,44.0603006 146.158851,43.6203966 146.158851,43.0750733 L146.158851,20.7675574 C146.158851,20.224533 146.587831,19.7823301 147.117309,19.7823301 L150.946378,19.7823301 C151.475221,19.7823301 151.904995,20.224533 151.904995,20.7675574 L151.904995,43.0750733 C151.904995,43.6203966 151.475221,44.0603006 150.946378,44.0603006 L147.117309,44.0603006 Z" id="Shape"></path>
                        <path d="M91.2457714,29.9938969 L87.395358,21.3015844 C87.1584243,20.7673594 86.6305334,20.4224719 86.0479778,20.4224719 L71.0629623,20.4224719 C70.7720051,20.4224719 70.5078192,20.2500281 70.389673,19.9822781 L66.9356988,12.1781625 C66.8274916,11.9336653 67.0059132,11.6573569 67.2723434,11.6573569 L75.77727,11.6573569 C76.8449144,11.6573569 77.5584408,10.5521869 77.1248104,9.57207844 L73.3726653,1.09952494 C73.0767386,0.431047219 72.4167547,0 71.6892817,0 L19.68185,0 C18.9537357,0 18.2937519,0.431754844 17.9978252,1.10093859 L14.2527656,9.57279562 C13.8190871,10.5528881 14.5332227,11.6573569 15.6002099,11.6573569 L24.102315,11.6573569 C24.3693864,11.6573569 24.5479684,11.9336653 24.4389596,12.1788637 L20.97168,19.9837125 C20.8528925,20.250825 20.5893478,20.4224719 20.2983907,20.4224719 L5.56295704,20.4224719 C4.83476258,20.4224719 4.17546807,20.8535813 3.87883603,21.522 L0.128931311,29.9945344 C-0.304751329,30.9746906 0.408680457,32.0791594 1.47636823,32.0791594 L15.1004529,32.0791594 C15.3675564,32.0791594 15.5460902,32.3561531 15.4371456,32.6012719 L8.17700281,48.9118688 C7.74051896,49.8926625 8.45394915,51 9.5230364,51 L21.2711334,51 C21.9986065,51 22.6579491,50.5696875 22.954517,49.9011094 L39.7191004,12.0968972 C39.8378878,11.8290834 40.1014325,11.6573569 40.39255,11.6573569 L47.5372718,11.6573569 C50.0698014,11.6573569 52.2579917,12.1237519 53.1491382,14.1221072 C54.040445,16.119825 55.0891733,18.4524375 55.9044946,20.3419875 C56.1181838,20.8358906 57.1149726,23.4016688 55.8004553,25.4163281 C54.470709,27.4542562 51.9282402,28.5311531 46.0436916,28.5311531 L38.182558,28.5311531 C37.746042,28.5311531 37.3504044,28.7898187 37.172624,29.1903281 L36.3536156,31.2233156 C36.13656,31.7138719 36.4935636,32.266425 37.0270652,32.266425 L46.7902412,32.266425 C52.9630218,32.266425 56.9104209,30.6954656 58.9528921,27.5658187 C61.2050449,24.11535 59.6199295,20.0359875 59.1426956,18.9292875 C58.3155116,17.0150344 57.278646,14.7114441 56.1063211,12.0792225 C54.9367213,9.45265875 52.0709135,8.10935062 47.5372718,8.10935062 L38.8194576,8.10935062 C38.0919845,8.10935062 37.4326419,8.539695 37.136074,9.20746031 L20.3714906,47.0124375 C20.2527032,47.27955 19.9889982,47.4519937 19.698041,47.4519937 L13.2624051,47.4519937 C12.9953016,47.4519937 12.8167677,47.175 12.9257124,46.9297219 L20.1858552,30.6192844 C20.6223711,29.6383312 19.9088447,28.5311531 18.8397575,28.5311531 L5.20659462,28.5311531 C4.94019648,28.5311531 4.7616626,28.2547969 4.8699179,28.0096781 L6.46336928,24.4106719 C6.58215676,24.1429219 6.84573349,23.9704781 7.13742807,23.9704781 L21.8700403,23.9704781 C22.5975134,23.9704781 23.2560544,23.5408031 23.5526224,22.8730219 L29.1856493,10.1960475 C29.6213637,9.21523781 28.9079976,8.10935062 27.8395516,8.10935062 L19.3290144,8.10935062 C19.0625842,8.10935062 18.8841625,7.83305812 18.9923697,7.58784375 L20.5829356,3.988965 C20.701723,3.72113531 20.965428,3.54872344 21.2570264,3.54872344 L70.1149068,3.54872344 C70.405864,3.54872344 70.6700499,3.72043406 70.7881961,3.98824781 L72.3822887,7.58784375 C72.4912975,7.83305812 72.3127155,8.10935062 72.0456441,8.10935062 L63.5421603,8.10935062 C62.4743555,8.10935062 61.7609895,9.21381937 62.1946199,10.1939278 L67.8052038,22.87095 C68.1011305,23.5393688 68.7611144,23.9704781 69.4892287,23.9704781 L84.2352265,23.9704781 C84.5261837,23.9704781 84.7903696,24.1429219 84.9085158,24.4100344 L86.50341,28.0096781 C86.6116172,28.2547969 86.4338367,28.5311531 86.1667653,28.5311531 L72.5805885,28.5311531 C71.512944,28.5311531 70.7994176,29.6356219 71.2332083,30.6164156 L78.4539156,46.9305187 C78.5621228,47.1756375 78.3835408,47.4519937 78.1164694,47.4519937 L71.6751746,47.4519937 C71.3835762,47.4519937 71.11923,47.27955 71.0012441,47.0118 L64.6899583,32.7397688 C64.5121779,32.337825 64.1163799,32.0791594 63.6792228,32.0791594 L61.6696145,32.0791594 C61.1361129,32.0791594 60.7797505,32.6317125 60.9963252,33.1214719 L68.4159734,49.8998344 C68.7119001,50.5688906 69.371884,51 70.0999983,51 L81.8474541,51 C82.9150985,51 83.6286249,49.8948938 83.1948342,48.9147375 L75.9741269,32.6006344 C75.8659197,32.3553562 76.0443414,32.0791594 76.3107716,32.0791594 L89.8990324,32.0791594 C90.9660357,32.0791594 91.6802033,30.9738937 91.2457714,29.9938969 Z" id="Path"></path>
                    </g>
                </g>
            </g>
        </g>
    </g>
</svg>