<svg id="Warstwa_1" data-name="Warstwa 1" xmlns="http://www.w3.org/2000/svg" xmlns:xlink="http://www.w3.org/1999/xlink" viewBox="0 0 60 60"><defs><style>.cls-1{fill:none;}.cls-2{clip-path:url(#clip-path);}.cls-3{fill:#051344;}.cls-4{fill:#fdad31;}</style><clipPath id="clip-path"><rect class="cls-1" width="60" height="60"/></clipPath></defs><g class="cls-2"><path class="cls-3" d="M49.69,34.22a8.46,8.46,0,0,0-3-6.43,7.48,7.48,0,0,0-.51-8.51,4.57,4.57,0,0,1-1.3,1.4,5.59,5.59,0,0,1,1,3.23,5.66,5.66,0,0,1-.82,2.91l-.84,1.37,1.22,1a6.57,6.57,0,0,1-2.06,11.19l-1.25.44v1.4a5.63,5.63,0,0,1-11.25-.06V21.46a6.53,6.53,0,0,0,4.69,2V21.56a4.69,4.69,0,1,1,0-9.37h0a4.65,4.65,0,0,1,3.28,1.34,4.49,4.49,0,0,1,1.6-1,6.51,6.51,0,0,0-10.51,1,6.55,6.55,0,0,0-12.18,3.14,7.5,7.5,0,0,0-5.63,7.26,7.43,7.43,0,0,0,1.09,3.88,8.43,8.43,0,0,0,2.66,14.38v0a7.5,7.5,0,0,0,7.5,7.5h0A7.51,7.51,0,0,0,30,45.82a7.5,7.5,0,0,0,14.06-3.63v0A8.43,8.43,0,0,0,49.69,34.22Zm-31.88,8h0V40.85l-1.25-.44A6.57,6.57,0,0,1,14.5,29.22l1.22-1-.84-1.37a5.6,5.6,0,0,1,3.41-8.35l1.36-.35.05-1.41a4.68,4.68,0,0,1,9.36.16V37.24a7.46,7.46,0,0,0-5.62-2.55v1.87a5.63,5.63,0,1,1-5.63,5.69Z"/><path class="cls-4" d="M42.19,14.06a2.82,2.82,0,1,1-2.81,2.81,2.81,2.81,0,0,1,2.81-2.81m0-1.87a4.69,4.69,0,1,0,4.69,4.68,4.69,4.69,0,0,0-4.69-4.68Z"/></g></svg>