<svg xmlns="http://www.w3.org/2000/svg" xmlns:xlink="http://www.w3.org/1999/xlink" viewBox="0 0 60 60"><defs><style>.cls-1{fill:none;}.cls-2{clip-path:url(#clip-path);}.cls-3{fill:#f0af4d;}.cls-4{fill:#4a4f99;}</style><clipPath id="clip-path"><rect class="cls-1" x="-8.36" width="60" height="60"/></clipPath></defs><g id="icons"><g class="cls-2"><path class="cls-3" d="M31,10.31a2.82,2.82,0,1,1-2.81,2.81A2.81,2.81,0,0,1,31,10.31m0-1.87a4.69,4.69,0,1,0,4.69,4.68A4.69,4.69,0,0,0,31,8.44Z"/><path class="cls-3" d="M4.76,10.31A2.82,2.82,0,1,1,2,13.12a2.81,2.81,0,0,1,2.81-2.81m0-1.87a4.69,4.69,0,1,0,4.69,4.68A4.69,4.69,0,0,0,4.76,8.44Z"/><path class="cls-4" d="M32.89,29.06a4.64,4.64,0,0,0-3.11,1.19,4.69,4.69,0,0,0-7.21-2.12V18.75a4.69,4.69,0,1,0-9.37,0v8.54a4.17,4.17,0,0,0-.94-.1,4.69,4.69,0,0,0-4.69,4.68V44.06a7.5,7.5,0,0,0,7.5,7.5h15a7.5,7.5,0,0,0,7.5-7.5V33.75A4.68,4.68,0,0,0,32.89,29.06Zm2.81,7.5v7.5a5.64,5.64,0,0,1-5.63,5.63h-15a5.63,5.63,0,0,1-5.62-5.63V31.87a2.81,2.81,0,0,1,2.81-2.81,2.7,2.7,0,0,1,.94.17V39.37h1.87V18.75a2.82,2.82,0,0,1,5.63,0V32.81h1.87v-.94a2.82,2.82,0,0,1,5.63,0v1.88h1.87a2.82,2.82,0,0,1,5.63,0Z"/><path class="cls-3" d="M15.55,14.69a2.82,2.82,0,1,1,4.67,0,4.69,4.69,0,0,1,1.41,1.25,4.69,4.69,0,1,0-7.49,0A4.69,4.69,0,0,1,15.55,14.69Z"/></g></g></svg>