<svg xmlns="http://www.w3.org/2000/svg" xmlns:xlink="http://www.w3.org/1999/xlink" viewBox="0 0 60 60"><defs><style>.cls-1{fill:url(#linear-gradient);}.cls-2{fill:url(#linear-gradient-2);}.cls-3{fill:#fff;}</style><linearGradient id="linear-gradient" x1="-3111.31" y1="-1075.26" x2="-3106.41" y2="-1047.5" gradientTransform="matrix(-1, 0, 0, 1, -3095.89, 1093.76)" gradientUnits="userSpaceOnUse"><stop offset="0" stop-color="#eeaf58"/><stop offset="1" stop-color="#dc4d3d"/></linearGradient><linearGradient id="linear-gradient-2" x1="13.23" y1="-7777.66" x2="9.65" y2="-7797.97" gradientTransform="matrix(1, 0, 0, -1, 0, -7757.81)" gradientUnits="userSpaceOnUse"><stop offset="0" stop-color="#d8a04e"/><stop offset="1" stop-color="#c24634"/></linearGradient></defs><g id="icons"><path class="cls-1" d="M5.76,19.43H20.18a5.74,5.74,0,0,1,5.74,5.74V39.6a5.74,5.74,0,0,1-5.74,5.73H5.76A5.74,5.74,0,0,1,0,39.6V25.17A5.74,5.74,0,0,1,5.76,19.43Z"/><path class="cls-2" d="M21.88,40.62A3.52,3.52,0,0,0,19.2,39c-1.62,0-2.57,1.67-5.84,1.67a12.89,12.89,0,0,1-10.7-6.06h0L0,31.7V25.17a5.74,5.74,0,0,1,5.74-5.74h5.12l3.79,3.84h0c8.55,5.81,5.78,12.21,5.78,12.21S22.86,38.22,21.88,40.62Z"/><path class="cls-3" d="M14.67,23.27c8.55,5.82,5.78,12.21,5.78,12.21s2.43,2.74,1.46,5.15A3.55,3.55,0,0,0,19.22,39c-1.62,0-2.57,1.68-5.84,1.68a12.89,12.89,0,0,1-10.7-6.07c6.54,4.31,11,1.26,11,1.26-2.95-1.71-9.22-9.89-9.22-9.89,5.46,4.65,7.82,5.87,7.82,5.87C10.88,30.63,6.93,25,6.93,25a92.29,92.29,0,0,0,9.44,7.66C18.16,27.68,14.67,23.27,14.67,23.27Z"/></g></svg>