<svg xmlns="http://www.w3.org/2000/svg" xmlns:xlink="http://www.w3.org/1999/xlink" viewBox="0 0 60 60"><defs><style>.cls-1{fill:none;}.cls-2{clip-path:url(#clip-path);}.cls-3{fill:#4a4f99;}.cls-4{fill:#f0af4d;}</style><clipPath id="clip-path"><rect class="cls-1" x="-11.24" width="60" height="60"/></clipPath></defs><g id="icons"><g class="cls-2"><path class="cls-3" d="M15,13.12V26.25H1.88V13.12H15m1.87-1.87H0V28.12H16.88V11.25Z"/><path class="cls-3" d="M15,33.75V46.87H1.88V33.75H15m1.87-1.88H0V48.75H16.88V31.87Z"/><path class="cls-3" d="M35.63,33.75V46.87H22.51V33.75H35.63m1.88-1.88H20.63V48.75H37.51V31.87Z"/><path class="cls-3" d="M36.57,16.87a4.91,4.91,0,0,1-.94-.09v9.47H22.51V13.12H32a4.42,4.42,0,0,1,0-1.87H20.63V28.12H37.51V16.78A4.91,4.91,0,0,1,36.57,16.87Z"/><path class="cls-4" d="M36.57,9.37a2.82,2.82,0,1,1-2.81,2.82,2.81,2.81,0,0,1,2.81-2.82m0-1.87a4.69,4.69,0,1,0,4.69,4.69A4.69,4.69,0,0,0,36.57,7.5Z"/></g></g></svg>