<svg xmlns="http://www.w3.org/2000/svg" xmlns:xlink="http://www.w3.org/1999/xlink" viewBox="0 0 60 60"><defs><style>.cls-1{fill:none;}.cls-2{clip-path:url(#clip-path);}.cls-3{fill:#fbab32;}.cls-4{fill:#494e9d;}</style><clipPath id="clip-path"><rect class="cls-1" x="-10.98" width="60" height="60"/></clipPath></defs><g id="icons"><g class="cls-2"><path class="cls-3" d="M5,14.06a2.82,2.82,0,1,1-2.81,2.81A2.81,2.81,0,0,1,5,14.06H5m0-1.87a4.69,4.69,0,1,0,4.69,4.68A4.68,4.68,0,0,0,5,12.19Z"/><path class="cls-3" d="M5,27.19A2.81,2.81,0,1,1,2.14,30,2.81,2.81,0,0,1,5,27.19H5m0-1.88A4.69,4.69,0,1,0,9.64,30h0A4.69,4.69,0,0,0,5,25.31Z"/><path class="cls-3" d="M5,40.31a2.82,2.82,0,1,1-2.81,2.81h0A2.81,2.81,0,0,1,5,40.31m0-1.87a4.69,4.69,0,1,0,4.69,4.68h0A4.69,4.69,0,0,0,5,38.44Z"/><rect class="cls-4" x="13.39" y="15.94" width="24.37" height="1.88"/><rect class="cls-4" x="13.39" y="24.69" width="24.37" height="1.88"/><rect class="cls-4" x="13.39" y="33.44" width="24.37" height="1.88"/><rect class="cls-4" x="13.39" y="42.19" width="24.37" height="1.88"/></g></g></svg>