<svg xmlns="http://www.w3.org/2000/svg" xmlns:xlink="http://www.w3.org/1999/xlink" viewBox="0 0 60 60"><defs><style>.cls-1{fill:none;}.cls-2{clip-path:url(#clip-path);}.cls-3{fill:#f0af4d;}.cls-4{fill:#383c74;}.cls-5{fill:#4a4f99;}</style><clipPath id="clip-path"><rect class="cls-1" x="-4.66" width="60" height="60"/></clipPath></defs><g id="icons"><g class="cls-2"><path class="cls-3" d="M25.34,27.19A2.81,2.81,0,1,1,22.53,30a2.81,2.81,0,0,1,2.81-2.81m0-1.88A4.69,4.69,0,1,0,30,30a4.69,4.69,0,0,0-4.69-4.69Z"/><rect class="cls-4" x="24.4" y="5.63" width="1.88" height="9.38"/><path class="cls-5" d="M50.65,29.06H45.94A20.63,20.63,0,0,0,26.28,9.4V4.69H24.4V9.4A20.63,20.63,0,0,0,4.74,29.06H0v1.88H4.74A20.63,20.63,0,0,0,24.4,50.6v4.71h1.88V50.6A20.63,20.63,0,0,0,45.94,30.94h4.71ZM26.28,48.73V44.06H24.4v4.67A18.79,18.79,0,0,1,6.61,30.94h4.67V29.06H6.61A18.79,18.79,0,0,1,24.4,11.27v4.67h1.88V11.27A18.79,18.79,0,0,1,44.07,29.06H39.4v1.88h4.67A18.79,18.79,0,0,1,26.28,48.73Z"/></g></g></svg>