<svg xmlns="http://www.w3.org/2000/svg" xmlns:xlink="http://www.w3.org/1999/xlink" viewBox="0 0 60 60"><defs><style>.cls-1{fill:none;}.cls-2{clip-path:url(#clip-path);}.cls-3{fill:#f0af4d;}.cls-4{fill:#4a4f99;}</style><clipPath id="clip-path"><rect class="cls-1" x="-8.1" y="-0.02" width="60" height="60"/></clipPath></defs><g id="icons"><g class="cls-2"><path class="cls-3" d="M21.9,46.85h0a2.77,2.77,0,0,1,2,.83,2.8,2.8,0,0,1-2,4.79,2.77,2.77,0,0,1-2-.83,2.81,2.81,0,0,1,2-4.79m0-1.88a4.69,4.69,0,1,0,3.33,1.39A4.68,4.68,0,0,0,21.9,45Z"/><path class="cls-4" d="M35.44,17l-9.1-5.25a4.76,4.76,0,0,1-.93,1.62l9.09,5.25A4.67,4.67,0,0,1,35.44,17Z"/><path class="cls-3" d="M38.94,17.32h0a2.82,2.82,0,1,1-2,4.8,2.82,2.82,0,0,1,2-4.8m0-1.87a4.68,4.68,0,1,0,3.33,1.39,4.67,4.67,0,0,0-3.33-1.39Z"/><path class="cls-3" d="M4.85,17.32h0a2.82,2.82,0,1,1-2,4.8,2.82,2.82,0,0,1,2-4.8m0-1.87a4.68,4.68,0,1,0,3.33,1.39,4.67,4.67,0,0,0-3.33-1.39Z"/><path class="cls-3" d="M38.94,37h0a2.77,2.77,0,0,1,2,.83,2.81,2.81,0,0,1-2,4.79,2.77,2.77,0,0,1-2-.83,2.8,2.8,0,0,1,2-4.79m0-1.88a4.69,4.69,0,1,0,3.33,1.39,4.66,4.66,0,0,0-3.33-1.39Z"/><path class="cls-3" d="M4.85,37h0a2.77,2.77,0,0,1,2,.83,2.81,2.81,0,0,1-2,4.79,2.77,2.77,0,0,1-2-.83,2.8,2.8,0,0,1,2-4.79m0-1.88a4.69,4.69,0,1,0,3.33,1.39,4.67,4.67,0,0,0-3.33-1.39Z"/><path class="cls-3" d="M21.9,27.17h0a2.77,2.77,0,0,1,2,.83,2.81,2.81,0,1,1-4,0,2.77,2.77,0,0,1,2-.81m0-1.88a4.64,4.64,0,0,0-3.3,1.36,4.68,4.68,0,1,0,3.3-1.36Z"/><path class="cls-3" d="M21.9,7.48h0a2.82,2.82,0,0,1,0,5.63,2.81,2.81,0,0,1-2-4.81,2.78,2.78,0,0,1,2-.82m0-1.87A4.64,4.64,0,0,0,18.6,7a4.68,4.68,0,1,0,3.3-1.36Z"/><path class="cls-4" d="M38,24.73v10.5a4.71,4.71,0,0,1,1.87,0V24.73A4.9,4.9,0,0,1,38,24.73Z"/><path class="cls-4" d="M18.39,33.08a4.74,4.74,0,0,1-.94-1.62L8.36,36.71a4.6,4.6,0,0,1,.93,1.63Z"/><path class="cls-4" d="M35.44,36.71l-9.1-5.25a4.5,4.5,0,0,1-.94,1.62l9.1,5.26A4.56,4.56,0,0,1,35.44,36.71Z"/><path class="cls-4" d="M3.91,24.72V35.23a4.58,4.58,0,0,1,1.88,0V24.73A4.76,4.76,0,0,1,3.91,24.72Z"/><path class="cls-4" d="M9.3,18.65l9.09-5.25a4.58,4.58,0,0,1-.93-1.62L8.36,17A4.62,4.62,0,0,1,9.3,18.65Z"/><path class="cls-4" d="M26.34,48.18l9.1-5.25a4.76,4.76,0,0,1-.94-1.63l-9.1,5.25A4.71,4.71,0,0,1,26.34,48.18Z"/><path class="cls-4" d="M18.39,46.55,9.3,41.3a4.65,4.65,0,0,1-.94,1.62l9.09,5.26A4.67,4.67,0,0,1,18.39,46.55Z"/><path class="cls-4" d="M21.89,15a4.81,4.81,0,0,1-.93-.09v10.5a4.53,4.53,0,0,1,1.87,0V14.88A5,5,0,0,1,21.89,15Z"/></g></g></svg>