<svg width="299" height="375" viewBox="0 0 299 375" xmlns="http://www.w3.org/2000/svg" xmlns:xlink="http://www.w3.org/1999/xlink">
    <defs>
        <path id="a" d="M0 0h258.197v184.593H0z"/>
    </defs>
    <g fill="none" fill-rule="evenodd">
        <g transform="translate(40.803 7.463)">
            <mask id="b" fill="#fff">
                <use xlink:href="#a"/>
            </mask>
            <path d="M40.886 155.531c30.417 22.928 66.736 30.476 104.749 28.85 66.473-2.843 98.397-27.336 107.06-47.873 10.789-25.575 4.852-51.364-10.33-64.77-24.268-21.433-63.616-3.069-93.262-16.012-22.172-9.679-37.807-29.696-56.907-44.57C64.865-10.129 18.019-1.474 4.76 41.58c-9.935 32.263-7.162 81.323 36.125 113.952" fill="#F1F7FF" mask="url(#b)"/>
        </g>
        <path d="M209.562 108.137c31.77 0 57.524 25.754 57.524 57.524v77.957H169.54v-95.46c0-22.102 17.918-40.021 40.022-40.021" fill="#262952"/>
        <path d="m220.861 92.805 1.555 20.298s1.915 9.375-7.543 13.558c-13.337 2.83-17.629-4.366-17.629-4.366l-4.725-34.27 23.145 9.173 5.197-4.393z" fill="#F9C4AC"/>
        <path d="M189.366 78.026c-.976 13.012 6.758 24.2 17.275 24.989 10.517.79 19.835-9.12 20.81-22.132.977-13.012-6.757-24.2-17.274-24.99-10.518-.788-19.835 9.12-20.811 22.133" fill="#F9C4AC"/>
        <path d="M179.193 53.66c1.334-3.616 5.634-5.413 9.475-5.1 3.84.313 7.333 2.251 10.689 4.146l3.155 1.786c1.414-.265 7.5-2.013 8.922-2.208 5.93-.813 24.442 3.93 16.984 22.307-1.008 2.484 7.65 9.798-1.824 18.644l-4.88 10.706s-1.218-21.52-1.326-24.868c-.985-1.496-2-1.462-2.767-1.056-.834.441-1.285 1.375-1.254 2.316l-.053 11.888s2.338 41.882-12.114 42.786c-28.225.451-15.222-50.77-15.222-50.77s11.694-6.203 18.118-.05c2.673 2.557 5.448-.29 5.448-.29l-.218-11.503-9.575.144c-.774.057-1.552.102-2.338.11-5.612.055-11-2.988-15.26-6.376-1.948-1.55-3.826-3.27-5.062-5.433-1.236-2.162-1.76-4.843-.898-7.18" fill="#373B78"/>
        <path d="M224.655 76.91a4.715 4.715 0 1 0-7.148 6.151 4.715 4.715 0 0 0 7.148-6.15" fill="#F9C4AC"/>
        <path d="m135.861 251.094 45.19 30.801 71.21-104.476c8.504-12.479 5.283-29.49-7.196-37.995-12.478-8.506-29.489-5.285-37.994 7.194l-71.21 104.476z" stroke="#57C9EE" stroke-width="1.2"/>
        <path fill="#F15B22" d="m93.903 267.033 46.9-50.577V94.61l-46.9 50.578z"/>
        <path fill="#57C9EE" d="m93.903 267.033 82.764-26.668V118.52l-82.764 26.668z"/>
        <path d="m56.145 286.038 54.628 39.836 81.352-112.288c11-15.086 7.689-36.232-7.396-47.233-15.085-11-36.232-7.69-47.233 7.396L56.145 286.038z" fill="#F15B22"/>
        <path d="M138.704 172.776c-11.549 14.67-9.019 35.924 5.65 47.473l67.612 53.23c14.67 11.548 35.924 9.018 47.473-5.65 11.55-14.67 9.02-35.925-5.65-47.474l-67.612-53.229c-14.67-11.549-35.924-9.02-47.473 5.65" fill="#F15B22"/>
        <path d="m0 303.478 83.397 60.407 28.225-38.979-54.91-39.688c-.508-.37-8.435 9.836-8.956 9.497-15.617-10.156-36.622-6.44-47.756 8.763z" fill="#FDAD31"/>
        <path d="M49.889 291.539c-.422-.308.43.286 0 0-15.625-10.398-36.812-6.763-48.036 8.507l83.294 60.55" stroke="#373B78" stroke-width="1.2"/>
        <path d="M99.276 371.772 205.881 373l.568-43.358-74.87-.747c-.566-.01-1.11 11.622-1.67 11.643-16.773.622-30.319 14.257-30.633 31.234z" fill="#FDAD31"/>
        <path d="M129.833 337.091c-.47-.007.466-.012 0 0-16.906.448-30.627 14.118-30.972 31.19l106.603 1.387" stroke="#373B78" stroke-width="1.2"/>
        <path d="M132.475 335.406h74.322V218.571c0-20.523-16.638-37.16-37.16-37.16-20.525 0-37.162 16.637-37.162 37.16v116.835z" fill="#F15B22"/>
        <path d="M128.008 332.088h74.32V214.104c0-20.524-16.636-37.161-37.16-37.161-20.523 0-37.16 16.637-37.16 37.16v117.985zM167.331 228.202v103.513" stroke="#373B78" stroke-width="1.2"/>
        <path d="M87.888 101.794h2.972l-1.486-4.407-1.486 4.407zm4.61 4.83-.946-2.786h-4.356l-.93 2.786h-2.498l4.339-11.634h2.533l4.323 11.634h-2.465z" fill="#55C9EF"/>
        <path d="M175.585 12.557c1.097 0 1.638-.709 1.638-1.486 0-.725-.491-1.486-1.605-1.486h-2.313v2.972h2.28zm-.153-7.48h-2.127v2.549h2.127c.743 0 1.199-.489 1.199-1.283 0-.709-.371-1.266-1.2-1.266zm4.155 6.231c0 1.604-1.1 3.326-3.665 3.326h-4.964V3h4.609c2.078 0 3.412 1.249 3.412 3.005 0 .862-.338 2.027-1.605 2.415 1.486.254 2.213 1.57 2.213 2.888z" fill="#57C9EE"/>
        <path d="M271.663 97.321c1.942 0 2.94-1.722 2.94-3.715 0-1.992-.998-3.765-2.94-3.765h-2.21v7.48h2.21zm0-9.557c3.344 0 5.286 2.532 5.286 5.842 0 3.293-1.942 5.792-5.286 5.792h-4.559V87.764h4.56z" fill="#55C9EF"/>
        <path fill="#FDAD31" d="M144.568 76.168h5.1v2.077h-7.447V66.611h7.294v2.077h-4.947v2.77h4.34v2.11h-4.34z"/>
        <path d="M247.572 29.057c0-3.31 2.6-6.028 5.944-6.028 1.756 0 3.293.725 4.306 1.857l-1.705 1.469a3.547 3.547 0 0 0-2.601-1.148c-2.026 0-3.597 1.773-3.597 3.85s1.537 3.9 3.666 3.9c1.519 0 3.02-.911 3.02-2.262h-3.291v-1.908h5.859c0 4.306-2.381 6.28-5.54 6.28-3.511 0-6.061-2.717-6.061-6.01" fill="#C5DDFC"/>
        <path fill="#FDAD31" d="M108.043 39.202h2.347v11.634h-2.11l-4.222-7.294v7.294h-2.348V39.202h2.178l4.155 7.21z"/>
    </g>
</svg>
