<svg width="347" height="375" viewBox="0 0 347 375" xmlns="http://www.w3.org/2000/svg" xmlns:xlink="http://www.w3.org/1999/xlink">
    <defs>
        <path id="a" d="M0 0h108.575v116.6H0z"/>
        <path id="c" d="M0 374.6h347.769V0H0z"/>
        <path id="e" d="M14.975 8.189H0v34.464h74.361V8.189h-34.59L26.434 0"/>
        <path id="g" d="M0 374.6h347.769V0H0z"/>
    </defs>
    <g fill="none" fill-rule="evenodd">
        <g transform="translate(-1)">
            <g transform="translate(35.047)">
                <mask id="b" fill="#fff">
                    <use xlink:href="#a"/>
                </mask>
                <path d="M6.704 86.947c20.962 44.117 61.537 29.048 69.024 17.642 9.284-14.146 7.38-34.668 15.08-49.797 4.692-9.217 15.517-15.364 17.475-25.446 2.209-11.379-8.461-21.738-19.891-25.48-24.435-8.004-58.75-4.32-76.876 18.041C-5.212 42.542-.86 71.03 6.704 86.947" fill="#F1F7FF" mask="url(#b)"/>
            </g>
            <path d="M217.747 300.92c53.908-6.536 119.635-52.852 129.353-141.113 3.015-27.384-4.096-56.493-22.583-77.171-15.662-17.52-39.05-28.01-62.752-28.492-23.703-.483-47.386 8.959-64.316 25.295-13.687 13.207-23.273 30.746-39.41 40.926-21.434 13.52-51.534 12.127-69.112 30.254-12.163 12.543-14.883 31.77-11.32 48.75 2.99 14.245 10.563 25.95 16.129 39.16 4.576 10.86 3.288 17.26 9.457 28.012 9.06 15.793 48.749 42.356 114.554 34.379" fill="#E9F2FF"/>
            <path d="M202.828 94.49c-18.502-2.642-31.97 34.261-58.679 14.315-.81-24.238 3.845-36.49 9.899-45.93 7.305-11.393 17.053-12.93 24.505-12.423 5.49.374 13.069 3.554 17.46 12.155 5.651 11.07 6.3 29.597 6.815 31.882" fill="#373B78"/>
            <path fill="#F9C4AC" d="m192.886 110.133-24.96.75-3.188-42.083h22.627z"/>
            <path d="M192.34 71.075c0 8.698-7.051 15.75-15.75 15.75-8.698 0-15.75-7.052-15.75-15.75s7.052-15.75 15.75-15.75c8.699 0 15.75 7.052 15.75 15.75" fill="#F9C4AC"/>
            <path d="M176.59 86.825c8.698 0 15.75-7.05 15.75-15.75 0-8.698-7.052-15.75-15.75-15.75" stroke="#FFF" stroke-width="1.2"/>
            <path d="M178.21 57.16c-4.767 7.361-16.932 9.681-20.016 10.05.391-.694.61-1.469.878-2.219a17.649 17.649 0 0 1 6.6-8.565 17.661 17.661 0 0 1 10.371-3.06c.695.019 1.42.089 2.01.455 1.34.831.86 2.255.157 3.339" fill="#373B78"/>
            <path d="M178.891 56.643c2.528 2.584 9.276 5.095 12.39 5.09.21 0 .44-.088.532-.276.056-.114.045-.25.017-.373-.143-.654-.667-1.148-1.174-1.585-1.225-1.057-2.516-2.052-3.95-2.802-1.22-.64-2.528-1.092-3.83-1.543l-2.484-.86c-.595-.206-1.523-.747-2.166-.65-1.672.255.136 2.458.665 2.999" fill="#373B78"/>
            <path d="M164.167 74.404a4.078 4.078 0 1 1-7.879 2.112 4.078 4.078 0 0 1 7.879-2.112M256.863 87.805l.021.012a5.273 5.273 0 1 1 7.573 7.313 5.273 5.273 0 0 0 1.224 8.155 5.272 5.272 0 1 1-5.273 9.132c-7.566-4.368-10.158-14.042-5.79-21.608a15.865 15.865 0 0 1 2.245-3.004" fill="#F9C4AC"/>
            <path d="M252.497 110.626c1.302-4.462 4.293-8.694 8.27-8.697 2.582-.003 10.273 4.723 10.273 4.723l.649 8.378 3.887 4.577-1.875 3.257s-17.47-10.111-21.204-12.238" fill="#F9C4AC"/>
            <path d="M265.693 103.263c2.522 1.456 5.744.597 7.196-1.918a5.24 5.24 0 0 0 .438-4.268l16.248 9.381-14.82 25.668-4.806-2.775-15.644-9.032 10.317-17.871c.314.309.672.584 1.071.815" fill="#F9C4AC"/>
            <path d="M272.78 83.54c-2.348-.83-5.039.123-6.329 2.358a5.272 5.272 0 0 0 3.415 7.783c.371.114.737.268 1.088.47a5.273 5.273 0 0 1 1.93 7.204 5.273 5.273 0 0 0 9.132 5.272c4.368-7.565 1.776-17.24-5.79-21.608a15.907 15.907 0 0 0-3.446-1.48" fill="#F9C4AC"/>
            <path d="M282.016 106.627c8.32-14.446-9.538-29.321-15.565-20.73M263.747 96.089a5.273 5.273 0 0 0 1.93 7.203M268.625 114.244a8.03 8.03 0 0 0-2.939-10.969" stroke="#FFF" stroke-width="1.2"/>
            <path d="M300.636 85.5a5.273 5.273 0 0 0-9.133-5.272l-16.586 28.728 9.133 5.273L300.636 85.5z" fill="#F9C4AC"/>
            <path d="M298.706 78.298a5.273 5.273 0 0 0-7.203 1.93v.001l-12.26 21.234" stroke="#FFF" stroke-width="1.2"/>
            <path d="M302.605 95.201a5.273 5.273 0 0 0-8.366-6.42v.001L274.044 115.1l8.366 6.42L302.605 95.2z" fill="#F9C4AC"/>
            <path d="M301.632 87.808a5.273 5.273 0 0 0-7.393.973l-.001.001-14.302 18.638" stroke="#FFF" stroke-width="1.2"/>
            <path d="M299.04 110.255a5.273 5.273 0 0 0-6.779-8.078l-22.12 18.623 9.67 5.593 19.23-16.138z" fill="#F9C4AC"/>
            <path d="M299.69 102.827a5.272 5.272 0 0 0-7.427-.65h-.001l-11.784 9.898" stroke="#FFF" stroke-width="1.2"/>
            <mask id="d" fill="#fff">
                <use xlink:href="#c"/>
            </mask>
            <path fill="#FDAD31" mask="url(#d)" d="M154.621 146.547h56.376v-40.224h-56.376z"/>
            <path d="M230.424 121.23c2.875 10.728-3.492 21.758-14.222 24.632-10.729 2.875-21.757-3.493-24.632-14.221-2.875-10.73 3.492-21.758 14.222-24.632 10.73-2.876 21.757 3.492 24.632 14.22M174.733 126.435c0 11.108-9.005 20.112-20.112 20.112-11.108 0-20.113-9.004-20.113-20.112 0-11.108 9.005-20.112 20.113-20.112 11.107 0 20.112 9.004 20.112 20.112" fill="#FDAD31" mask="url(#d)"/>
            <path fill="#FDAD31" mask="url(#d)" d="M211.409 217.684h-73.245v-91.29h92.95z"/>
            <path fill="#FDAD31" mask="url(#d)" d="m135.887 199.207-34.835-20.112 36.207-62.713 34.835 20.112zM196.772 140.661l32.873 32.882c7.855 7.854 20.588 7.854 28.444 0 7.853-7.855 7.853-20.589 0-28.443l-32.875-32.882-28.442 28.443z"/>
            <path d="m249.7 108.998-23.254 40.264c-5.554 9.619-2.258 21.92 7.362 27.474 9.62 5.554 21.92 2.258 27.473-7.362l23.253-40.264-34.835-20.112z" fill="#FDAD31" mask="url(#d)"/>
        </g>
        <g transform="translate(151.606 98.134)">
            <mask id="f" fill="#fff">
                <use xlink:href="#e"/>
            </mask>
            <path d="M54.557 10.51c0 15.963-10.547 28.903-23.558 28.903-13.01 0-23.557-12.94-23.557-28.903S17.99-18.393 31-18.393c13.011 0 23.558 12.94 23.558 28.903" fill="#F9C4AC" mask="url(#f)"/>
        </g>
        <g transform="translate(-1)">
            <path d="M81.341 334.096h48.02v37.172l-48.02-.001H44.17c0-20.53 16.642-37.171 37.171-37.171" fill="#FFF"/>
            <path d="m83.56 336.827 48.02.002v37.17H46.39c0-20.53 16.641-37.172 37.17-37.172z" stroke="#262952" stroke-width="1.2"/>
            <path d="M102.894 187.615c20.496 0 37.111 16.615 37.111 37.11l-.034 117.912H65.75l.034-117.911c0-20.496 16.615-37.111 37.111-37.111" fill="#F15B22"/>
            <path d="M220.514 214.404c1.786 20.418-13.317 38.418-33.735 40.204l-80.567 7.077-6.469-73.94 80.567-7.076c20.418-1.786 38.418 13.317 40.204 33.735" fill="#F15B22"/>
            <path d="M223.451 213.906c2.024 23.131-15.087 43.522-38.217 45.545l-41.986 3.688.008 79.498h-74.22l-.013-116.604" stroke="#262952" stroke-width="1.2"/>
            <mask id="h" fill="#fff">
                <use xlink:href="#g"/>
            </mask>
            <path fill="#57C9EE" mask="url(#h)" d="M62.668 186.968h128.565v-5.656H62.668zM44.022 123.647h100.076l18.854 54.836H62.876z"/>
            <path d="M90.703 152.457c0 7.581 6.146 13.727 13.727 13.727 7.58 0 13.727-6.146 13.727-13.727 0-7.58-6.146-13.727-13.727-13.727s-13.727 6.146-13.727 13.727" fill="#373B78" mask="url(#h)"/>
            <path d="m54.697 303.656 46.383 12.43-9.62 35.904-46.384-12.429-35.904-9.62c5.313-19.83 25.695-31.598 45.525-26.285" fill="#FFF" mask="url(#h)"/>
            <path d="m56.133 306.87 46.383 12.43-9.62 35.903-46.384-12.429-35.904-9.62c5.313-19.83 25.695-31.598 45.525-26.285z" stroke="#262952" stroke-width="1.2" mask="url(#h)"/>
            <path d="M113.428 167.745c19.797 5.305 31.546 25.654 26.24 45.45l-30.55 113.886-71.692-19.21 30.55-113.885c5.306-19.797 25.655-31.546 45.452-26.241" fill="#F15B22" mask="url(#h)"/>
            <path stroke="#262952" stroke-width="1.2" mask="url(#h)" d="m50.885 306.335 27.86-104.02"/>
            <path d="M220.106 224.063c-3.559 20.184-22.807 33.662-42.99 30.103L97.461 240.15l12.888-73.093 79.653 14.016c20.185 3.56 33.662 22.807 30.103 42.991" fill="#F15B22" mask="url(#h)"/>
            <path stroke="#262952" stroke-width="1.2" mask="url(#h)" d="m151.811 250.668-25.404-4.472-20.567 76.791-71.692-19.21 30.167-112.634"/>
            <path stroke="#C5DDFC" stroke-width="1.2" mask="url(#h)" d="m261.864 35.708-31.12 11.327-14.008-38.482L237.484 1l14.15 6.598z"/>
            <path stroke="#C5DDFC" stroke-width="1.2" mask="url(#h)" d="m251.634 7.599-10.374 3.776L237.484 1M237.484 1.001l14.15 6.598M233.929 39.649l20.748-7.551M235.93 45.147l20.748-7.552M231.928 34.152l20.748-7.551M229.927 28.654l20.748-7.551M223.924 12.162l10.374-3.776"/>
            <path stroke="#F15B22" stroke-width="1.2" mask="url(#h)" d="m286.397 236.837-28.943-7.755 9.59-35.79 28.943 7.755z"/>
            <path d="M257.537 229.104a4.047 4.047 0 1 0-2.095 7.82l28.86 7.733 2.095-7.82-28.86-7.733z" stroke="#F15B22" stroke-width="1.2" mask="url(#h)"/>
            <path d="M267.127 193.314a4.047 4.047 0 0 0-4.957 2.862l-9.59 35.79M272.952 205.484l11.739 3.145M271.863 209.547l11.739 3.145" stroke="#F15B22" stroke-width="1.2" mask="url(#h)"/>
            <path stroke="#55C9EF" stroke-width="1.2" mask="url(#h)" d="m88.34 84.668-28.943-7.755 9.59-35.79L97.93 48.88zM59.48 76.936a4.047 4.047 0 1 0-2.095 7.82l28.86 7.733 2.095-7.82-28.86-7.733z"/>
            <path stroke="#55C9EF" stroke-width="1.2" mask="url(#h)" d="m85.545 60.524-11.74-3.145 1.09-4.064 11.739 3.146zM69.07 41.146a4.047 4.047 0 0 0-4.957 2.862l-9.59 35.79"/>
            <path stroke="#C5DDFC" stroke-width="1.2" mask="url(#h)" d="m46.897 202.577-31.121 11.327-14.007-38.482 20.748-7.552 14.149 6.598z"/>
            <path stroke="#C5DDFC" stroke-width="1.2" mask="url(#h)" d="m35.666 174.468-10.374 3.776-3.776-10.374M21.517 167.87l14.15 6.598M19.962 212.017l20.749-7.552"/>
        </g>
    </g>
</svg>
