<svg width="376" height="375" viewBox="0 0 376 375" xmlns="http://www.w3.org/2000/svg" xmlns:xlink="http://www.w3.org/1999/xlink">
    <defs>
        <path id="a" d="M0 0h114.855v123.345H0z"/>
        <path id="c" d="M0 367.82h377V0H0z"/>
        <path d="M175.592 37.506 160.57 11.923c-.028-.052-.06-.102-.089-.154l-.207-.359-.008.004c-3.552-6.138-10.174-10.279-17.779-10.279H84.901c-8.024 0-14.956 4.611-18.338 11.319L50.742 39.856 20.543 22.421 0 58.004 30.199 75.44l-.018.029 35.583 20.545 31.057-53.792h33.798l23.775 41.181 26.023-15.024 24.576 8.483 22.861-62.81L189.243 0l-13.651 37.506z" id="e"/>
        <path id="g" d="M15.296 8.442H0v35.204h75.958V8.442H40.625L28.733 0"/>
    </defs>
    <g fill="none" fill-rule="evenodd">
        <g transform="translate(-1 4)">
            <path d="M171.131 166.411c32.896 11.031 72.404-3.624 106.393 3.727 20.708 4.48 38.632 22.813 59.587 21.382 23.651-1.614 38.405-28.375 39.69-53.149 2.745-52.964-22.826-103.17-76.668-127.488-49.688-22.442-111.705-6.843-139.095 16.661-75.917 65.146-16.43 129.973 10.093 138.867z" fill="#F1F7FF"/>
            <path stroke="#57C9EE" stroke-width="1.2" d="M200.173 8.332 194.977 37.8 153.4 30.47 158.596 1z"/>
            <path d="M162.921 5.62a1.263 1.263 0 1 1-2.49-.44 1.264 1.264 0 1 1 2.49.44M167.901 6.497a1.265 1.265 0 1 1-2.49-.439 1.265 1.265 0 0 1 2.49.44M172.881 7.375a1.265 1.265 0 1 1-2.49-.438 1.265 1.265 0 0 1 2.49.438" fill="#57C9EE"/>
            <path stroke="#57C9EE" stroke-width="1.2" d="m164.426 11.646 13.314 2.348M172.007 17.269l18.314 3.229M171.274 21.426l18.314 3.229M170.541 25.583l13.314 2.348"/>
            <g transform="translate(1 70.79)">
                <mask id="b" fill="#fff">
                    <use xlink:href="#a"/>
                </mask>
                <path d="M80.108 110.639c9.82-14.964 7.808-36.673 15.954-52.677 4.962-9.75 16.413-16.253 18.484-26.918 2.337-12.037-8.95-22.995-21.041-26.955C67.655-4.376 31.357-.48 12.182 23.175-5.514 45.004-.908 75.139 7.092 91.977c22.174 46.668 65.096 30.728 73.016 18.662z" fill="#F1F7FF" mask="url(#b)"/>
            </g>
            <mask id="d" fill="#fff">
                <use xlink:href="#c"/>
            </mask>
            <path fill="#57C9EE" mask="url(#d)" d="M108.217 240.793h173.276v-7.623H108.217z"/>
            <path d="M224.637 87.132c2.292-.22 4.681-.833 6.833.005 3.493 1.362 7.993 10.998-.82 22.534-8.225 10.764-25.438 14.124-39.95 8.182-5.423-2.22-25.364-14.231-20.998-36.725 1.95-10.041 13.4-17.04 25.904-17.04 12.162 0 19.67 10.02 19.67 17.513 0 5.844 4.657 5.981 9.36 5.53z" fill="#373B78" mask="url(#d)"/>
            <path fill="#F9C4AC" mask="url(#d)" d="m211.293 122.972-25.495.767-3.257-42.988h23.112z"/>
            <path d="M210.735 83.076c0 8.886-7.203 16.089-16.088 16.089-8.885 0-16.088-7.204-16.088-16.089 0-8.884 7.203-16.087 16.088-16.087 8.885 0 16.088 7.203 16.088 16.087" fill="#F9C4AC" mask="url(#d)"/>
            <path d="M194.647 99.164c8.885 0 16.088-7.203 16.088-16.088 0-8.885-7.203-16.088-16.088-16.088" stroke="#FFF" stroke-width="1.2" mask="url(#d)"/>
            <path d="M177.144 79.35c.232-5.576 4.418-11.482 9.642-13.45 5.221-1.968 13.59-2.156 18.317.809 6.936 4.351 6.823 10.284 7.046 12.468-2.076.731-5.343.24-7.613.29-5.988.132-10.743-7.464-10.743-7.464-2.643 4.987-11.239 7.35-16.649 7.347" fill="#373B78" mask="url(#d)"/>
            <path d="m89.883 125.797-.011.021a5.388 5.388 0 0 0-6.454 2.387 5.387 5.387 0 0 0 3.488 7.95 5.386 5.386 0 0 1 3.083 7.839 5.385 5.385 0 0 0 1.972 7.357 5.385 5.385 0 0 0 7.356-1.97c4.463-7.729 1.815-17.61-5.913-22.073a16.203 16.203 0 0 0-3.52-1.51" fill="#F9C4AC" mask="url(#d)"/>
            <path d="M105.713 144.06c-3.446-3.447-8.442-5.865-12.069-3.775-2.286 1.316-6.676 9.425-6.676 9.425l3.706 7.743-1.102 6.034 3.694 2.132s10.645-18.432 12.447-21.559" fill="#F9C4AC" mask="url(#d)"/>
            <path d="M89.99 143.994a5.385 5.385 0 0 1-9.936-1.586l-9.582 16.597 19.966 11.53 12.06-20.897-11.978-6.912c-.12.434-.295.86-.53 1.268" fill="#F9C4AC" mask="url(#d)"/>
            <path d="M73.625 130.154c1.654-1.933 4.52-2.465 6.803-1.147a5.387 5.387 0 0 1 .954 8.629 5.385 5.385 0 0 0 1.25 8.33 5.386 5.386 0 0 1-5.386 9.329c-7.728-4.462-10.376-14.344-5.914-22.072a16.174 16.174 0 0 1 2.293-3.07" fill="#F9C4AC" mask="url(#d)"/>
            <path d="M77.246 155.294c-14.737-8.53-6.538-30.81 3.182-26.288M88.025 136.641a5.385 5.385 0 0 1 1.971 7.357M92.983 155.194a8.202 8.202 0 0 1-3.002-11.204" stroke="#FFF" stroke-width="1.2" mask="url(#d)"/>
            <path d="M49.985 146.116a5.386 5.386 0 1 1 5.387-9.328l29.344 16.942-5.386 9.328-29.345-16.942z" fill="#F9C4AC" mask="url(#d)"/>
            <path d="M48.013 138.758a5.385 5.385 0 0 1 7.357-1.97h.001l21.691 12.522" stroke="#FFF" stroke-width="1.2" mask="url(#d)"/>
            <path d="M53.197 155.703a5.386 5.386 0 0 1 4.122-9.952h.001l31.305 12.967-4.123 9.952-31.305-12.967z" fill="#F9C4AC" mask="url(#d)"/>
            <path d="M50.282 148.666a5.386 5.386 0 0 1 7.037-2.915h.001l22.171 9.183" stroke="#FFF" stroke-width="1.2" mask="url(#d)"/>
            <path d="M64.039 167.199a5.387 5.387 0 0 1 1.87-10.608l29.552 5.234-5.728 9.906-25.694-4.532z" fill="#F9C4AC" mask="url(#d)"/>
            <path d="M64.039 167.199a5.387 5.387 0 0 1 1.87-10.608l26.378 4.651-2.545 10.49-25.703-4.533z" fill="#F9C4AC" mask="url(#d)"/>
            <path d="M59.67 160.96a5.387 5.387 0 0 1 6.24-4.37l15.48 2.738" stroke="#FFF" stroke-width="1.2" mask="url(#d)"/>
            <path d="m279.996 95.355.023.008a5.386 5.386 0 1 1 8.916 6.013 5.349 5.349 0 0 0-.542 1.083 5.386 5.386 0 0 0 3.22 6.904 5.386 5.386 0 0 1-3.685 10.122c-8.386-3.052-12.71-12.324-9.657-20.71a16.198 16.198 0 0 1 1.725-3.42" fill="#F9C4AC" mask="url(#d)"/>
            <path d="M279.652 119.087c.518-4.72 2.777-9.507 6.776-10.216 2.597-.46 11.172 2.929 11.172 2.929l2.139 8.314 4.722 3.913-1.308 3.61s-19.367-7.072-23.501-8.55" fill="#F9C4AC" mask="url(#d)"/>
            <path d="M291.61 109.369a5.387 5.387 0 0 0 6.904-3.222 5.373 5.373 0 0 0-.311-4.384l18.008 6.554-10.389 28.545-5.327-1.94-17.339-6.31 7.233-19.873c.37.255.778.469 1.221.63" fill="#F9C4AC" mask="url(#d)"/>
            <path d="M295.251 88.242c-2.509-.418-5.047 1.017-5.948 3.494a5.384 5.384 0 0 0 4.815 7.224c.394.049.79.139 1.178.28a5.386 5.386 0 0 1 3.22 6.904 5.386 5.386 0 0 0 10.121 3.684c3.052-8.385-1.27-17.657-9.657-20.71a16.225 16.225 0 0 0-3.729-.876" fill="#F9C4AC" mask="url(#d)"/>
            <path d="M308.638 109.828c5.806-16.008-14.796-27.804-19.335-18.092M288.39 102.468a5.386 5.386 0 0 0 3.22 6.903M296.518 119.866a8.202 8.202 0 0 0-4.902-10.513" stroke="#FFF" stroke-width="1.35" mask="url(#d)"/>
            <path d="M323.62 85.273A5.386 5.386 0 0 0 313.5 81.59h-.001l-11.588 31.84 10.122 3.684 11.589-31.84z" fill="#F9C4AC" mask="url(#d)"/>
            <path d="M320.402 78.37a5.386 5.386 0 0 0-6.903 3.22h-.001l-8.566 23.536" stroke="#FFF" stroke-width="1.35" mask="url(#d)"/>
            <path d="M327.322 94.683a5.385 5.385 0 1 0-9.555-4.975v.002l-15.646 30.055 9.555 4.974 15.646-30.056z" fill="#F9C4AC" mask="url(#d)"/>
            <path d="M325.032 87.418a5.385 5.385 0 0 0-7.264 2.29l-.001.001-11.081 21.286" stroke="#FFF" stroke-width="1.35" mask="url(#d)"/>
            <path d="M326.407 110.458a5.386 5.386 0 1 0-8.252-6.924v.001l-18.95 22.657 10.72 3.911 16.482-19.645z" fill="#F9C4AC" mask="url(#d)"/>
            <path d="M325.743 102.87a5.386 5.386 0 0 0-7.588.664v.001l-10.1 12.046" stroke="#FFF" stroke-width="1.35" mask="url(#d)"/>
            <path d="M192.75 139.625c0 11.346-9.197 20.544-20.543 20.544s-20.544-9.198-20.544-20.544 9.197-20.544 20.543-20.544c11.347 0 20.544 9.198 20.544 20.544M250.337 139.625c0 11.346-9.198 20.544-20.544 20.544s-20.544-9.198-20.544-20.544 9.198-20.544 20.544-20.544 20.544 9.198 20.544 20.544" fill="#FFF" mask="url(#d)"/>
            <path fill="#FFF" mask="url(#d)" d="M172.206 160.169h57.587v-41.088h-57.587zM165.733 173.786 145.19 209.37l-57.885-33.42 20.544-35.583zM253.688 180.755l38.61 14.053 22.861-62.81-38.61-14.052z"/>
            <path fill="#FFF" mask="url(#d)" d="m153.07 213.96-35.583-20.545 36.984-64.059 35.584 20.544zM241.7 201.349l35.583-20.544-29.704-51.449-35.583 20.544z"/>
        </g>
        <g transform="translate(86.305 121.946)">
            <mask id="f" fill="#fff">
                <use xlink:href="#e"/>
            </mask>
            <path fill="#051344" mask="url(#f)" d="M-12.706 5.647h245.273V-.001H-12.706zM-12.706 16.943h245.273v-5.648H-12.706zM-12.706 28.239h245.273v-5.648H-12.706zM-12.706 39.535h245.273v-5.648H-12.706zM-12.706 50.83h245.273v-5.648H-12.706zM-12.706 62.126h245.273v-5.648H-12.706zM-12.706 73.422h245.273v-5.648H-12.706zM-12.706 84.718h245.273V79.07H-12.706zM-12.706 96.013h245.273v-5.648H-12.706z"/>
        </g>
        <g transform="translate(169.148 114.639)">
            <mask id="h" fill="#fff">
                <use xlink:href="#g"/>
            </mask>
            <path d="M55.729 10.813c0 16.305-10.774 29.523-24.063 29.523-13.29 0-24.064-13.218-24.064-29.523S18.376-18.71 31.666-18.71c13.289 0 24.063 13.218 24.063 29.523" fill="#F9C4AC" mask="url(#h)"/>
        </g>
        <path fill="#57C9EE" d="M305.624 159.452h-134.88l-25.41 73.906h134.879z"/>
        <path d="M242.71 198.281c0 10.218-8.284 18.501-18.502 18.501-10.218 0-18.5-8.283-18.5-18.501 0-10.218 8.282-18.501 18.5-18.501s18.501 8.283 18.501 18.501" fill="#373B78"/>
        <path d="m215.16 313.418 25.63-44.39 34.362 19.84-25.63 44.39-19.84 34.361c-18.976-10.957-25.48-35.223-14.522-54.2" fill="#FFF"/>
        <path d="m213.17 316.8 25.63-44.39 34.363 19.838-25.63 44.39L227.693 371c-18.976-10.957-25.48-35.223-14.522-54.2z" stroke="#373B78" stroke-width="1.2"/>
        <path d="M64.31 212.913c10.939-18.947 35.166-25.438 54.113-14.5l131.336 75.796-39.613 68.612L78.81 267.026c-18.947-10.939-25.439-35.166-14.5-54.113" fill="#F15B22"/>
        <path stroke="#373B78" stroke-width="1.2" d="m230.12 308.228-112.188-64.745M249.76 274.209l-39.614 68.612M210.146 342.821 78.81 267.026c-18.947-10.939-25.44-35.166-14.5-54.113"/>
        <path d="m170.642 310.61-17.533-48.167-37.285 13.571 17.533 48.167 13.57 37.285c20.593-7.495 31.21-30.264 23.715-50.856" fill="#FFF"/>
        <path d="m172.013 314.285-17.533-48.167-37.285 13.571 17.533 48.167 13.571 37.285c20.592-7.495 31.21-30.264 23.714-50.856z" stroke="#373B78" stroke-width="1.2"/>
        <path d="M336.652 237.827c-7.483-20.56-30.215-31.16-50.773-23.676l-142.503 51.838 27.098 74.448L312.976 288.6c20.56-7.483 31.16-30.215 23.676-50.773" fill="#F15B22"/>
        <path stroke="#373B78" stroke-width="1.2" d="m156.81 302.9 121.726-44.28"/>
        <path d="M170.474 340.437 312.977 288.6c20.558-7.482 31.158-30.214 23.675-50.772" fill="#F15B22"/>
        <path d="M336.652 237.827c-7.483-20.56-30.215-31.16-50.773-23.676l-138.728 50.465M147.151 264.616l27.134 74.55" stroke="#373B78" stroke-width="1.2"/>
        <path stroke="#C5DDFC" stroke-width="1.2" d="m77.064 68.088 7.744 28.902-40.779 10.927-7.745-28.903z"/>
        <path d="M42.156 81.372a1.264 1.264 0 1 1-2.442.654 1.264 1.264 0 0 1 2.442-.654M47.04 80.063a1.264 1.264 0 1 1-2.441.654 1.264 1.264 0 0 1 2.442-.654M51.925 78.754a1.264 1.264 0 1 1-2.441.655 1.264 1.264 0 0 1 2.441-.655" fill="#C5DDFC"/>
        <path stroke="#C5DDFC" stroke-width="1.2" d="m59.924 95.194 1.68-12.757M56.218 96.313l-7.429-4.289 4.29-7.429M65.31 81.317l7.43 4.29-4.29 7.428"/>
        <path stroke="#FDAD31" stroke-width="1.2" d="m331.326 38.62-5.197 29.468-41.577-7.332 5.197-29.466z"/>
        <path d="M294.074 35.908a1.265 1.265 0 1 1-2.491-.439 1.265 1.265 0 0 1 2.49.439M299.054 36.786a1.265 1.265 0 1 1-2.491-.439 1.265 1.265 0 0 1 2.49.439M304.034 37.664a1.263 1.263 0 1 1-2.49-.439 1.264 1.264 0 1 1 2.49.44" fill="#FDAD31"/>
        <path stroke="#FDAD31" stroke-width="1.2" d="m295.578 41.935 13.314 2.348M303.16 47.558l18.313 3.229M302.426 51.715l18.314 3.229M301.693 55.872l13.314 2.348"/>
    </g>
</svg>
