<svg xmlns="http://www.w3.org/2000/svg" xmlns:xlink="http://www.w3.org/1999/xlink" width="222" height="74" viewBox="0 0 222 74">
    <defs>
        <path id="63cg9wkrga" d="M0 43L120 43 120 0 0 0z"/>
    </defs>
    <g fill="none" fill-rule="evenodd" opacity=".3">
        <g>
            <g>
                <g>
                    <g>
                        <g transform="translate(-221 -12507) translate(0 12254) translate(221 239) translate(0 14) translate(0 10)">
                            <path fill="#051344" d="M66.709 29.49c0-4.417-3.587-8.024-7.97-8.014-4.397.009-8.012 3.627-8 8.006.013 4.401 3.613 7.979 8.023 7.971 4.38-.007 7.947-3.581 7.947-7.963m5.28.019c.002 7.33-5.935 13.229-13.309 13.227-7.25-.002-13.22-5.967-13.219-13.21 0-7.378 5.936-13.329 13.297-13.333 7.316-.004 13.228 5.947 13.23 13.316M114.674 29.49c0-4.417-3.587-8.024-7.97-8.014-4.396.009-8.012 3.627-8 8.006.013 4.401 3.613 7.979 8.023 7.971 4.38-.007 7.947-3.581 7.947-7.963m5.28.019c.002 7.33-5.934 13.229-13.309 13.227-7.25-.002-13.22-5.967-13.219-13.21.001-7.378 5.936-13.329 13.297-13.333 7.316-.004 13.229 5.947 13.23 13.316M32.1 12.135c.007-2.197 1.762-3.924 3.976-3.912 2.202.013 3.946 1.76 3.948 3.954.002 2.16-1.8 3.969-3.956 3.972-2.208.002-3.974-1.785-3.968-4.014M38.78 34.9c.728-.008 1.335.573 1.351 1.291.016.73-.622 1.375-1.353 1.367-.717-.009-1.311-.615-1.307-1.336.004-.745.567-1.314 1.309-1.322M33.364 34.9c.735-.014 1.341.545 1.374 1.267.032.73-.595 1.389-1.325 1.393-.721.003-1.313-.584-1.324-1.314-.011-.749.54-1.331 1.275-1.346M38.812 24.227c.727.012 1.32.609 1.318 1.324-.003.741-.645 1.355-1.386 1.325-.731-.029-1.29-.627-1.272-1.361.017-.736.604-1.3 1.34-1.288M37.476 30.748c.043-.768.656-1.298 1.436-1.242.686.05 1.247.673 1.218 1.353-.032.742-.695 1.343-1.423 1.29-.73-.055-1.271-.671-1.231-1.4M32.09 20.106c.009-.749.572-1.3 1.322-1.296.73.003 1.32.588 1.324 1.31.004.74-.633 1.364-1.37 1.339-.73-.025-1.286-.614-1.277-1.353M38.805 18.81c.725.005 1.325.6 1.324 1.315 0 .717-.597 1.321-1.316 1.334-.75.013-1.36-.604-1.341-1.357.017-.745.586-1.297 1.333-1.292M32.09 25.538c.005-.747.566-1.31 1.308-1.31.732-.002 1.33.579 1.338 1.298.009.743-.616 1.364-1.358 1.351-.726-.013-1.293-.602-1.288-1.339M32.09 30.838c-.009-.752.537-1.32 1.28-1.335.762-.014 1.373.58 1.367 1.329-.006.71-.617 1.317-1.33 1.318-.727.002-1.31-.579-1.318-1.312M33.319 42.873c-.73-.037-1.26-.637-1.228-1.388.03-.726.643-1.288 1.37-1.259.714.029 1.296.654 1.274 1.37-.023.747-.653 1.316-1.416 1.277M38.8 42.873c-.748.003-1.313-.548-1.329-1.294-.015-.753.598-1.368 1.347-1.353.719.015 1.313.622 1.31 1.338-.002.716-.6 1.306-1.328 1.309"/>
                            <mask id="uwoj5ftiqb" fill="#fff">
                                <use xlink:href="#63cg9wkrga"/>
                            </mask>
                            <path fill="#051344" d="M8.706 34.287h9.381v-9.39H8.706v9.39zm18.087-9.39v-1.26h-7.448v-7.454h-1.258v7.455H8.706v-7.455H7.447v7.455H0v1.259h7.447v9.39H0v1.26h7.447V43h1.259v-7.454h9.381V43h1.258v-7.454h7.448v-1.26h-7.448v-9.39h7.448zM74.71 42.78L90.656 42.78 90.656 37.408 74.71 37.408zM80.023 34.784L85.43 34.784 85.43 32.171 80.023 32.171zM80.019 29.411L85.43 29.411 85.43 26.872 80.019 26.872zM80.019 24.217L85.43 24.217 85.43 10.885 80.019 10.885zM74.563 5.632v5.289c6.017 0 10.912-4.9 10.912-10.92H80.19c0 3.105-2.524 5.631-5.627 5.631M106.68 12.18c-.755 0-1.37.615-1.37 1.372 0 .756.615 1.372 1.37 1.372.757 0 1.372-.616 1.372-1.372 0-.757-.615-1.373-1.371-1.373m0 4.004c-1.45 0-2.63-1.18-2.63-2.631 0-1.451 1.18-2.632 2.63-2.632s2.629 1.18 2.629 2.632c0 1.45-1.18 2.63-2.63 2.63" mask="url(#uwoj5ftiqb)"/>
                            <path fill="#051344" d="M106.673 1.598c-6.585 0-11.943 5.362-11.943 11.954 0 6.59 5.358 11.953 11.943 11.953 6.586 0 11.943-5.362 11.943-11.953 0-6.592-5.357-11.954-11.943-11.954m0 25.292c-7.348 0-13.326-5.984-13.326-13.338 0-7.355 5.978-13.339 13.326-13.339C114.022.213 120 6.197 120 13.552c0 7.354-5.978 13.338-13.327 13.338" mask="url(#uwoj5ftiqb)"/>
                            <path fill="#051344" d="M107.215 21.493c-.169-.01-.339-.018-.51-.017-.179 0-.354.008-.53.02.166.01.331.017.498.017.183 0 .363-.008.542-.02M101.076 17.449c-.771-1.106-1.225-2.45-1.225-3.898 0-3.765 3.06-6.828 6.822-6.828s6.823 3.063 6.823 6.828c0 1.436-.446 2.77-1.205 3.87.345.161.683.336 1.011.526.837-1.261 1.326-2.772 1.326-4.396 0-4.39-3.568-7.961-7.955-7.961-4.386 0-7.955 3.571-7.955 7.961 0 1.637.497 3.16 1.346 4.427.329-.19.666-.367 1.012-.53" mask="url(#uwoj5ftiqb)"/>
                        </g>
                    </g>
                </g>
            </g>
        </g>
    </g>
</svg>
