<svg width="568" height="379" viewBox="0 0 568 379" fill="none" xmlns="http://www.w3.org/2000/svg">
<rect width="568" height="379" fill="#F9FBFF"/>
<path d="M202.88 142H218.428V237.992H202.88V142Z" fill="#17313B"/>
<path d="M272.508 207.572C272.508 222.444 260.34 223.796 256.284 223.796C246.82 223.796 245.468 215.008 245.468 210.276V173.096H229.92V209.6C229.92 218.388 232.624 226.5 238.032 231.232C242.764 235.964 248.848 237.992 256.284 237.992C261.692 237.992 268.452 236.64 272.508 232.584V237.992H288.056V173.096H272.508V207.572Z" fill="#17313B"/>
<path d="M318.476 149.436H302.928V173.096H291.436V187.968H302.928V237.992H318.476V187.968H329.968V173.096H318.476V149.436Z" fill="#17313B"/>
<path d="M378.64 218.388C375.26 221.092 370.528 223.12 365.796 223.12C354.98 223.12 347.544 215.008 347.544 204.192C347.544 193.376 354.98 185.94 365.796 185.94C370.528 185.94 375.26 187.292 378.64 190.672L380.668 192.7L391.484 182.56L388.78 180.532C382.696 175.124 374.584 171.744 365.796 171.744C346.868 171.744 332.672 185.94 332.672 204.868C332.672 223.796 346.868 237.992 365.796 237.992C374.584 237.992 382.696 234.612 388.78 229.204L391.484 227.176L380.668 216.36L378.64 218.388Z" fill="#17313B"/>
<path d="M446.24 178.504C441.508 173.772 436.776 171.744 429.34 171.744C423.932 171.744 418.524 173.096 414.468 177.152V142H398.92V237.992H414.468V202.164C414.468 187.292 424.608 185.94 428.664 185.94C438.128 185.94 437.452 194.728 437.452 199.46V237.316H453V200.136C453 191.348 450.972 183.236 446.24 178.504Z" fill="#17313B"/>
<path d="M365.12 215.684C371.094 215.684 375.936 210.842 375.936 204.868C375.936 198.894 371.094 194.052 365.12 194.052C359.146 194.052 354.304 198.894 354.304 204.868C354.304 210.842 359.146 215.684 365.12 215.684Z" fill="#EF4335"/>
<path d="M181.248 214.332C175.84 219.74 167.728 223.12 158.94 223.12C142.04 223.12 129.872 209.6 129.872 191.348C129.872 173.096 142.04 159.576 159.616 159.576C167.728 159.576 175.84 162.956 181.924 169.04L183.952 171.068L194.092 160.928L192.064 158.9C183.276 150.112 171.784 145.38 159.616 145.38C133.928 144.704 115 164.984 115 191.348C115 217.712 133.928 237.992 158.94 237.992C171.108 237.992 183.276 233.26 191.388 224.472L193.416 222.444L183.276 212.304L181.248 214.332Z" fill="#17313B"/>
</svg>
