<svg xmlns="http://www.w3.org/2000/svg" xmlns:xlink="http://www.w3.org/1999/xlink" width="129" height="60" viewBox="0 0 129 60">
    <defs>
        <path id="nlwazg9rqa" d="M0 0L8.367 0 8.367 8.472 0 8.472z"/>
        <path id="5l1tp0xddc" d="M0 0L5.728 0 5.728 8.471 0 8.471z"/>
        <path id="fxz7ghdnse" d="M0 0L53.001 0 53.001 40.888 0 40.888z"/>
    </defs>
    <g fill="none" fill-rule="evenodd">
        <g>
            <g>
                <g>
                    <g>
                        <g>
                            <path fill="#000" d="M46.057 38.793l-2.367 6.158h4.732l-2.365-6.158zm4.94 9.69c.122.295-.018.626-.331.747-.313.122-.644-.053-.748-.348l-1.096-2.853h-5.548l-1.096 2.853c-.105.295-.436.47-.75.348-.312-.12-.451-.452-.33-.747l4.158-10.838c.122-.33.348-.538.748-.538h.088c.4 0 .626.208.747.538l4.158 10.838zM54.215 48.674c0 .33-.244.59-.574.59-.332 0-.575-.26-.575-.59V37.697c0-.33.243-.59.575-.59.33 0 .574.26.574.59v10.977zM64.982 47.369l2.418-8.315c.053-.208.225-.348.487-.348h.034c.244 0 .436.14.488.348l2.417 8.315 3.253-9.845c.087-.313.365-.488.713-.4.313.087.487.4.4.713l-3.687 10.888c-.104.331-.331.54-.661.54h-.052c-.33 0-.592-.225-.678-.54l-2.21-7.583-2.21 7.583c-.086.315-.347.54-.678.54h-.052c-.33 0-.556-.209-.66-.54l-3.688-10.888c-.087-.313.087-.626.4-.713.348-.088.626.087.713.4l3.253 9.845z" transform="translate(-142 -260) translate(96 140) translate(0 100) translate(46 20) translate(9 5)"/>
                            <g transform="translate(-142 -260) translate(96 140) translate(0 100) translate(46 20) translate(9 5) translate(75.663 40.88)">
                                <mask id="keyulnvolb" fill="#fff">
                                    <use xlink:href="#nlwazg9rqa"/>
                                </mask>
                                <path fill="#000" d="M4.157 7.306c1.652 0 3.061-1.095 3.061-3.095 0-2.001-1.6-3.045-3.061-3.045-1.688 0-2.992 1.183-2.992 3.045 0 1.808 1.304 3.095 2.992 3.095zm4.21.487c0 .33-.245.591-.575.591-.33 0-.574-.26-.574-.59v-.887c-.61 1.025-1.879 1.565-3.061 1.565C1.844 8.472 0 6.784 0 4.211 0 1.636 1.844 0 4.157 0c1.182 0 2.452.488 3.061 1.514V.68c0-.331.243-.592.574-.592.33 0 .575.26.575.592v7.113z" mask="url(#keyulnvolb)"/>
                            </g>
                            <path fill="#000" d="M88.865 48.638l-2.852-6.87c-.122-.296 0-.661.296-.765.312-.105.626.017.747.33L89.7 47.82l2.644-6.489c.121-.312.435-.434.748-.329.295.104.417.469.295.765l-2.852 6.87c-.156.384-.417.626-.8.626h-.07c-.383 0-.643-.242-.8-.626M101.581 44.551c-.226-1.548-1.304-2.522-2.8-2.522-1.514 0-2.696.974-2.923 2.522h5.723zm-2.8 4.8c-2.314 0-4.106-1.687-4.106-4.261 0-2.575 1.792-4.21 4.106-4.21 2.313 0 3.983 1.635 3.983 4.21 0 .312-.26.539-.54.539h-6.366c.209 1.583 1.41 2.574 2.923 2.574 1.13 0 1.792-.433 2.365-1.112.209-.262.522-.4.8-.21.279.175.348.522.174.802-.73 1.06-1.965 1.668-3.34 1.668z" transform="translate(-142 -260) translate(96 140) translate(0 100) translate(46 20) translate(9 5)"/>
                            <g transform="translate(-142 -260) translate(96 140) translate(0 100) translate(46 20) translate(9 5) translate(104.272 40.88)">
                                <mask id="42p2rhpcdd" fill="#fff">
                                    <use xlink:href="#5l1tp0xddc"/>
                                </mask>
                                <path fill="#000" d="M.405 5.896c.314-.068.557.14.661.436.21.521.679 1.043 1.792 1.043 1.044 0 1.722-.522 1.722-1.287 0-.538-.313-1.043-1.165-1.252l-1.131-.261C1.275 4.33.022 3.827.231 1.932.405.766 1.554 0 2.876 0c1.043 0 2 .434 2.4 1.462.105.295-.07.625-.383.712-.383.105-.556-.121-.713-.4-.244-.435-.627-.66-1.304-.66-.783 0-1.427.416-1.514.991-.175.939.626 1.217 1.2 1.357l1.114.26c1.53.366 2.052 1.252 2.052 2.366 0 1.409-1.287 2.383-2.974 2.383-1.183 0-2.366-.696-2.732-1.896-.086-.313.087-.61.383-.679" mask="url(#42p2rhpcdd)"/>
                            </g>
                            <g transform="translate(-142 -260) translate(96 140) translate(0 100) translate(46 20) translate(9 5)">
                                <mask id="9i1a765ccf" fill="#fff">
                                    <use xlink:href="#fxz7ghdnse"/>
                                </mask>
                                <path fill="#000" d="M51.717 20.578c-.306 2.424-1.777 4.363-3.708 5.71.7-.93 1.254-2.037 1.543-3.113.539-2.001.127-3.937-1.1-5.179-1.145-1.156-2.705-1.624-4.077-1.971-1.973-.5-3.52-1.193-4.73-2.12-.232-.178-.446-.375-.654-.58.07.027.14.053.213.079 3.803 1.271 9.103-.564 11.717 3.42.716 1.092.958 2.458.796 3.754M32.426 36.485c-2.306 2.005-5.392 3.169-8.451 3.169l-.182-.002c-4.387-.066-8.177-2.364-12.445-3.077-2.96-.495-7.664-.144-9.51-3.06-.865-1.366-.735-3.192-.022-4.646 1.247-2.54 3.678-3.78 5.814-5.395-.022.04-.046.078-.067.119-.612 1.179-.758 2.499-.402 3.62.871 2.738 3.917 3.583 6.14 4.2.554.154 1.077.299 1.51.454 1.215.434 2.346 1.061 3.543 1.724 1.735.96 3.528 1.953 5.653 2.362.652.126 1.328.189 2.008.189 1.74 0 3.478-.41 5.028-1.187 1.293-.65 2.327-1.652 3.327-2.623.483-.468.938-.912 1.397-1.288.616-.504 1.22-.756 1.969-.894-2.259 1.637-3.211 4.51-5.31 6.335M14.849 11.508c.871-2.268 1.656-4.604 3.178-6.612 1.56-2.06 4.033-3.662 6.627-3.662.585 0 1.174.08 1.762.255 1.474.44 2.72 1.364 3.81 2.431-.303-.05-.614-.08-.932-.08-.238 0-.48.016-.72.044-1.679.206-3.438 1.074-4.826 2.383-1.39 1.31-2.304 2.87-3.19 4.378-.11.189-.221.377-.332.564-1.667 2.808-3.365 5.47-5.811 7.165-.634.44-1.337.803-2.082 1.187-.583.303-1.191.619-1.785.987 2.024-2.713 3.12-5.966 4.301-9.04m31.593 14.716c.018-.043.038-.084.053-.128.71-1.903.28-3.862-1.156-5.239-.864-.828-1.93-1.27-2.871-1.662-.49-.202-.952-.394-1.356-.623-1.5-.849-2.131-2.344-2.72-4.11.162.146.327.289.502.422 1.517 1.164 3.337 1.872 5.178 2.338 1.235.312 2.58.711 3.502 1.643 1.03 1.043 1.152 2.629.785 3.989-.295 1.096-.9 2.213-1.642 3.074-.088.102-.181.2-.275.296M31.33 5.618c.797.494 1.324 1.28 1.877 2.016-.307-.057-.617-.091-.926-.091-3.043 0-5.398 2.783-6.956 4.623l-.014.016c-1.372 1.622-3.072 3.42-5.288 4.462-.504.238-1.089.434-1.706.644-.415.14-.838.285-1.254.445 1.712-1.741 3.03-3.882 4.224-5.893.97-1.633 1.881-3.33 3.308-4.675 1.109-1.046 2.602-1.87 4.128-2.056.19-.021.38-.034.57-.034.716 0 1.432.168 2.037.543m4.823 6.185c1.199 2.766 1.46 6.207 4.35 7.843 1.29.73 2.888 1.052 3.981 2.101 2.588 2.486.264 6.667-2.98 6.83-.077.003-.153.005-.23.005-.577 0-1.148-.103-1.718-.238-1.04-.248-2.071-.598-3.114-.598-.191 0-.382.011-.573.038-1.698.23-3.02 1.526-4.513 2.368-1.196.675-2.559 1.073-3.932 1.073-.062 0-.123-.002-.185-.003-3.12-.081-5.1-2.472-7.503-4.11-1.686-1.148-4.881-1.853-5.318-4.177-.255-1.357.572-2.7 1.831-3.455 1.26-.755 2.958-1.088 4.3-1.72 2.32-1.092 4.115-2.902 5.705-4.779 1.455-1.72 3.548-4.203 6.027-4.204.378 0 .765.058 1.161.186.927.299 1.646 1 2.177 1.83l.132.217c.15.257.285.524.402.793M8.658 24.161c1.097-2.113 3.19-2.918 5.136-3.973-.559.909-.783 1.952-.59 2.975.428 2.277 2.57 3.31 4.29 4.143.588.284 1.143.553 1.547.828.572.389 1.12.825 1.699 1.285 1.745 1.39 3.724 2.965 6.466 3.038l.218.003c1.542 0 3.112-.427 4.539-1.232.494-.278.956-.592 1.402-.897.911-.617 1.771-1.202 2.67-1.324.13-.018.264-.025.407-.025.204 0 .414.018.628.05-.732.186-1.409.503-2.085 1.057-1.455 1.193-2.786 2.904-4.496 3.762-1.374.689-2.927 1.056-4.474 1.056-.597 0-1.192-.053-1.775-.166-3.317-.638-5.876-2.916-9.014-4.037-2.232-.797-6.039-1.197-6.888-3.866-.28-.878-.103-1.857.32-2.677m43.295-8.014c-2.05-3.125-5.399-3.273-8.353-3.401-1.462-.065-2.844-.126-4.004-.514-1.327-.443-2.166-1.39-3.125-2.582-.548-.68-1.09-1.399-1.614-2.094-.833-1.107-1.694-2.25-2.642-3.324-1.282-1.456-3.06-3.215-5.449-3.926C26.083.103 25.373 0 24.656 0h-.002c-2.754 0-5.67 1.59-7.61 4.15-1.455 1.918-2.265 4.058-3.049 6.13l-.299.785c-.142.37-.282.742-.424 1.116-1.252 3.311-2.548 6.735-5.112 9.23-.779.758-1.683 1.39-2.641 2.057-1.815 1.267-3.693 2.577-4.812 4.858-.973 1.987-.94 4.227.088 5.849 1.763 2.783 5.366 3.113 8.263 3.38.759.07 1.475.135 2.085.237 1.685.282 3.288.823 4.985 1.398 2.408.814 4.899 1.655 7.646 1.697l.2.001c3.35 0 6.726-1.266 9.263-3.471 1.095-.954 1.878-2.11 2.637-3.23.807-1.191 1.569-2.316 2.623-3.066 1.153-.82 2.623-1.128 4.179-1.455.347-.074.706-.149 1.062-.23.317-.073.599-.143.862-.217 3.475-.959 7.745-3.757 8.34-8.486.212-1.667-.14-3.295-.987-4.586" mask="url(#9i1a765ccf)"/>
                            </g>
                        </g>
                    </g>
                </g>
            </g>
        </g>
    </g>
</svg>
