<svg xmlns="http://www.w3.org/2000/svg" width="129" height="60" viewBox="0 0 129 60">
    <g fill="none" fill-rule="evenodd">
        <g fill="#000">
            <g>
                <g>
                    <g>
                        <g>
                            <path d="M6.057 18.172v-1.37c-.338.563-1.255 1.615-2.848 1.615-1.013 0-2.002-.44-2.558-1.322C.121 16.263 0 15.53 0 13.717V4.513C0 2.14.917.695 3.547.695c2.437 0 3.282 1.567 3.282 3.158v2.594H5.694V4.416c0-1.371-.314-2.693-2.22-2.693-1.833 0-2.316 1.297-2.316 2.815v8.836c0 1.42.024 2.179.338 2.815.168.368.724 1.175 1.858 1.175 1.52 0 2.413-1.763 2.413-2.888v-3.133h-2.51V10.29H6.95v7.882h-.893zm8.872-12.869c0-2.745-.923-3.53-2.332-3.53-1.701 0-2.31 1.324-2.31 2.623V14.57c0 1.74.705 2.77 2.334 2.77 1.968 0 2.308-1.716 2.308-2.966v-9.07zm-5.807-.809c0-2.132 1.044-3.799 3.475-3.799 3.231 0 3.474 2.353 3.474 4.24v9.879c0 1.569-.655 3.603-3.523 3.603-2.552 0-3.426-1.495-3.426-3.8V4.495zM63.678 14.52c0 1.542-.399 3.55-3.372 3.55-2.786 0-3.23-2.301-3.23-3.795V3.8c0-2.57 1.685-3.452 3.277-3.452 1.78 0 3.137 1.028 3.137 3.207V6.1h-1.147V4.606c0-1.688-.117-3.157-1.967-3.157-2.013 0-2.177 1.934-2.177 2.57v9.351c0 2.374.492 3.574 2.294 3.574 1.499 0 2.014-1.078 2.014-2.277v-2.815h1.17v2.668zm8.066-9.564c0-2.746-.924-3.53-2.333-3.53-1.7 0-2.308 1.324-2.308 2.623V14.22c0 1.74.705 2.77 2.333 2.77 1.968 0 2.308-1.716 2.308-2.966V4.956zm-5.808-.81c0-2.132 1.045-3.799 3.475-3.799 3.232 0 3.475 2.354 3.475 4.241v9.878c0 1.569-.656 3.603-3.523 3.603-2.552 0-3.427-1.495-3.427-3.799V4.147zM79.904 18.07l-3.84-16.414s.094 14.642.094 16.414h-1.1V.695h1.685l3.957 16.71s-.164-15.75-.164-16.71h1.124v17.374h-1.756zm5.327-16.291V8.47h4.2V9.53h-4.2v8.54h-1.138V.694H90v1.083h-4.769zm-51.804.228c1.462 1.106 2.345 2.597 2.648 4.474h-5.22c-.27-.486-.665-.872-1.185-1.156-.522-.285-1.135-.428-1.841-.428-1.21 0-2.173.407-2.888 1.219-.714.813-1.071 1.897-1.071 3.255 0 1.541.382 2.71 1.147 3.505.765.796 1.887 1.194 3.366 1.194.84 0 1.58-.201 2.22-.603.639-.402 1.142-.997 1.512-1.784h-4.942V8.163h9.053v4.9c-.64 1.476-1.66 2.736-3.064 3.783-1.404 1.048-3.174 1.571-5.308 1.571-1.816 0-3.405-.38-4.766-1.144-1.362-.762-2.408-1.83-3.14-3.204-.73-1.373-1.097-2.94-1.097-4.7 0-1.759.366-3.32 1.097-4.687.732-1.365 1.77-2.429 3.114-3.191C24.407.729 25.989.347 27.805.347c2.286 0 4.16.553 5.623 1.659m9.584 3.73c-.719.806-1.078 1.905-1.078 3.298 0 1.362.36 2.448 1.078 3.261.718.813 1.704 1.22 2.957 1.22 1.236 0 2.214-.407 2.932-1.22s1.078-1.9 1.078-3.26c0-1.394-.355-2.493-1.065-3.298-.71-.805-1.692-1.207-2.945-1.207s-2.239.402-2.957 1.207m7.53-4.58c1.38.772 2.465 1.847 3.259 3.224.793 1.377 1.19 2.928 1.19 4.653 0 1.726-.401 3.278-1.203 4.655-.802 1.377-1.891 2.451-3.27 3.223-1.379.771-2.895 1.157-4.549 1.157-1.654 0-3.175-.386-4.561-1.157-1.387-.772-2.482-1.846-3.283-3.223-.802-1.377-1.203-2.929-1.203-4.655 0-1.725.4-3.277 1.203-4.654.801-1.377 1.896-2.451 3.283-3.223C42.793.387 44.314 0 45.967 0c1.672 0 3.196.386 4.575 1.158" transform="translate(-142 -560) translate(96 140) translate(0 400) translate(46 20) translate(20 21)"/>
                        </g>
                    </g>
                </g>
            </g>
        </g>
    </g>
</svg>
