<svg xmlns="http://www.w3.org/2000/svg" width="129" height="60" viewBox="0 0 129 60">
    <g fill="none" fill-rule="evenodd">
        <g fill="#000">
            <g>
                <g>
                    <g>
                        <path d="M.052 14.876V3.909h2.51v.935h.04c.268-.4.656-.714 1.163-.953.508-.233 1.094-.35 1.757-.35.789 0 1.492.177 2.108.531.455.27.869.665 1.245 1.188.273-.356.524-.622.752-.803.348-.276.766-.497 1.254-.666.488-.163 1.051-.25 1.687-.25.669 0 1.256.093 1.76.28.506.188.948.433 1.325.739.378.305.672.617.88.935.206.32.365.693.477 1.128.109.435.164 1.05.164 1.846v6.407h-2.74V8.787c0-1.015-.194-1.743-.582-2.182-.388-.442-.9-.663-1.536-.663-.481 0-.917.132-1.309.397-.392.263-.661.595-.808.992-.147.4-.221 1.09-.221 2.073v5.472h-2.73V8.787c0-.952-.212-1.663-.636-2.135-.426-.473-.95-.71-1.572-.71-.415 0-.762.067-1.044.206-.28.13-.51.333-.687.593-.178.267-.31.594-.397.987-.087.39-.13.953-.13 1.676v5.472H.052zM24.218 12.885c.97 0 1.772-.342 2.406-1.021.635-.68.951-1.482.951-2.407 0-.622-.155-1.21-.467-1.764-.312-.552-.733-.981-1.268-1.28-.533-.305-1.068-.454-1.611-.454-.537 0-1.08.15-1.634.446-.553.3-.987.718-1.3 1.254-.318.536-.476 1.134-.476 1.786 0 .643.157 1.23.469 1.77.311.535.735.95 1.267 1.237.533.286 1.087.433 1.663.433m0 2.427c-.813 0-1.597-.148-2.35-.447-.754-.297-1.402-.707-1.943-1.228-.543-.52-.968-1.086-1.273-1.695-.4-.79-.6-1.629-.6-2.514 0-1.024.271-2 .82-2.93.545-.93 1.306-1.654 2.284-2.175.977-.52 1.997-.782 3.062-.782 1.072 0 2.092.26 3.065.776.97.52 1.723 1.235 2.257 2.154.535.917.805 1.907.805 2.974 0 .758-.131 1.468-.393 2.133-.263.665-.618 1.243-1.068 1.733-.451.494-.92.875-1.404 1.146-.487.273-1.01.483-1.573.632-.562.148-1.124.223-1.69.223M33.757 9.386c0 1.112.343 1.98 1.023 2.605.683.621 1.473.936 2.371.936.91 0 1.676-.315 2.297-.946.626-.63.938-1.45.938-2.462 0-1-.32-1.815-.955-2.45-.638-.631-1.418-.949-2.342-.949-.597 0-1.162.152-1.691.448-.526.301-.933.71-1.215 1.228-.285.52-.426 1.048-.426 1.59zm-2.534 5.574V.49h2.693v4.6c.982-.898 2.157-1.346 3.523-1.346.987 0 1.92.246 2.798.742.877.49 1.569 1.2 2.078 2.12.509.925.762 1.88.762 2.865 0 .94-.236 1.893-.706 2.858-.474.964-1.135 1.703-1.99 2.215-.857.512-1.834.768-2.942.768-.806 0-1.498-.134-2.074-.396-.577-.264-1.134-.685-1.665-1.262v1.306h-2.477zM44.394 14.876h2.634V4.087h-2.634v10.789zm0-12.015h2.634V.49h-2.634v2.37zM58.642 11.435h1.557c-.376.686-.757 1.237-1.142 1.648-.54.565-1.165 1.005-1.875 1.32-.714.316-1.517.473-2.409.473-1.118 0-2.13-.248-3.041-.743-.907-.497-1.627-1.183-2.154-2.07-.53-.88-.794-1.826-.794-2.835 0-.983.258-1.923.777-2.818.518-.898 1.248-1.599 2.188-2.107.939-.506 1.926-.762 2.964-.762.853 0 1.67.166 2.447.499.777.331 1.435.786 1.974 1.364.4.429.754.987 1.065 1.674h-1.557c-.255-.435-.507-.78-.757-1.03-.388-.38-.847-.685-1.374-.915-.531-.231-1.107-.35-1.738-.35-.797 0-1.56.194-2.292.58-.73.385-1.296.917-1.693 1.595-.4.678-.595 1.417-.595 2.222 0 .795.2 1.543.6 2.24.4.698.956 1.243 1.665 1.63.707.387 1.483.583 2.323.583.84 0 1.596-.19 2.266-.568.67-.381 1.2-.922 1.595-1.63M62.526 9.266c0 .754.194 1.47.581 2.154.386.685.944 1.223 1.67 1.62.726.394 1.468.593 2.23.593s1.497-.19 2.207-.574c.708-.383 1.262-.92 1.665-1.612.4-.695.602-1.45.602-2.267 0-.829-.205-1.578-.611-2.25-.412-.672-.977-1.197-1.7-1.575-.726-.38-1.449-.571-2.173-.571-.728 0-1.459.2-2.19.594-.731.394-1.296.938-1.692 1.634-.393.694-.589 1.442-.589 2.254m-1.45.02c0-.81.155-1.56.464-2.256.312-.694.724-1.283 1.239-1.772.511-.49 1.078-.875 1.699-1.158.802-.373 1.648-.559 2.529-.559 1.014 0 1.988.254 2.923.756.933.508 1.667 1.21 2.199 2.116.535.907.802 1.838.802 2.795 0 .957-.267 1.892-.796 2.796-.53.907-1.262 1.61-2.197 2.116-.934.503-1.915.756-2.94.756-.73 0-1.425-.124-2.089-.37-.665-.241-1.254-.58-1.767-1.015-.514-.432-.913-.874-1.193-1.324-.286-.45-.5-.92-.65-1.412-.15-.49-.222-.98-.222-1.47M74.687 14.876V4.254h1.4V5.61h.04c.762-1.088 1.925-1.633 3.482-1.633.738 0 1.404.131 2.004.39.599.259 1.122.63 1.574 1.108.294.323.538.734.724 1.225.29.72.434 1.499.434 2.332v5.844h-1.404V9.032c0-.854-.159-1.57-.476-2.157-.313-.583-.753-1.009-1.307-1.276-.557-.265-1.106-.4-1.657-.4-.584 0-1.157.15-1.724.444-.565.293-.986.726-1.27 1.294-.279.575-.42 1.274-.42 2.095v5.844h-1.4zM86.992 14.876V5.348h-1.769V4.11h1.77c.028-.77.112-1.378.253-1.828.144-.447.39-.841.74-1.176.35-.338.794-.592 1.337-.766.544-.173 1.228-.268 2.047-.286v1.278c-.786.012-1.39.129-1.812.344-.42.219-.722.54-.906.962-.135.3-.202.79-.202 1.472h2.92v1.238h-2.92v9.528h-1.458z" transform="translate(-142 -160) translate(96 140) translate(46 20) translate(18.92 24.429)"/>
                    </g>
                </g>
            </g>
        </g>
    </g>
</svg>
