<svg xmlns="http://www.w3.org/2000/svg" width="222" height="74" viewBox="0 0 222 74">
    <g fill="none" fill-rule="evenodd" opacity=".3">
        <g fill="#051344">
            <g>
                <g>
                    <g>
                        <g>
                            <path d="M.001 18.872L11.695 13.096 6.477 10.361.001 6.967zM.001 18.872L11.695 25.005 11.695 13.096zM11.695 25.005L23.39 18.872 11.695 13.096z" transform="translate(-694 -12507) translate(0 12254) translate(221 239) translate(473 14) translate(0 20)"/>
                            <path d="M11.695 13.096L23.39 18.872 23.39 6.967zM35.084 13.096L46.779 18.872 46.779 6.967 40.302 10.361z" transform="translate(-694 -12507) translate(0 12254) translate(221 239) translate(473 14) translate(0 20)"/>
                            <path d="M35.084 13.096L46.779 6.967 35.084 1.182zM35.085 25.005L46.779 18.872 35.085 13.096zM23.39 18.872L35.085 25.005 35.085 13.096zM23.39 18.872L35.084 13.096 23.39 6.967zM0 6.967L11.695 13.096 11.695 1.181zM77.079 6.472h-4.36l-2.803 11.113-2.93-11.113h-4.11l-2.928 11.113-2.802-11.113h-4.36l4.982 15.896h4.269l2.893-10.525 2.897 10.525h4.237L77.08 6.472zm3.292 6.205c.593-1.853 2.087-3.025 3.956-3.025 1.962 0 3.52 1.174 4.019 3.025H80.37zm12.055 3.334c.592-6.297-3.334-9.94-8.068-9.94-4.517 0-8.223 3.766-8.223 8.365 0 4.6 3.706 8.308 8.223 8.308 3.988 0 6.822-2.197 7.756-5.438h-4.392c-.685 1.265-2.025 1.852-3.395 1.852-1.932 0-3.488-1.204-4.018-3.147h12.117zm17.358-1.385c0-4.63-3.361-8.141-7.485-8.141-1.802 0-3.42.666-4.612 1.816V.491h-4.061v13.78c.093 5.11 3.359 8.473 8.673 8.473 4.125 0 7.484-3.515 7.485-8.118zm-4.032.031c0 2.482-1.803 4.389-4.033 4.389-2.23 0-4.032-1.966-4.032-4.389 0-2.483 1.803-4.48 4.032-4.48 2.23 0 4.033 1.938 4.033 4.48zM129.758 15.975v.047c0 1.45-.903 2.933-2.926 2.933-2.057 0-2.96-1.482-2.96-2.933v-5.017h3.949v-4.62h-3.949V.687h-4.111v15.118c0 4.01 2.771 7.012 7.07 7.012 4.238 0 6.96-2.915 7.037-6.843h-4.11zm-15.616-10.83h4.11V.707h-4.11v4.44zm0 5.71v11.35h4.11V6.413h-10.468l.001.184c1.208.613 2.6 3.026 2.951 4.258h3.406z" transform="translate(-694 -12507) translate(0 12254) translate(221 239) translate(473 14) translate(0 20)"/>
                        </g>
                    </g>
                </g>
            </g>
        </g>
    </g>
</svg>
