<svg xmlns="http://www.w3.org/2000/svg" xmlns:xlink="http://www.w3.org/1999/xlink" width="129" height="60" viewBox="0 0 129 60">
    <defs>
        <path id="gg2i8pke6a" d="M0 40L72.978 40 72.978 0 0 0z"/>
    </defs>
    <g fill="none" fill-rule="evenodd">
        <g>
            <g>
                <g>
                    <g>
                        <g transform="translate(-142 -360) translate(96 140) translate(0 200) translate(46 20) translate(28 7)">
                            <path fill="#1D1D1B" d="M59.198 15.544c-.648-.494-.814-1.048-.499-1.664.21-.406.49-.58.84-.529.295.019.513.247.654.687.121.423.148.977.08 1.664v.159c0 .07-.02.123-.054.157-.088-.016-.193-.07-.314-.157l-.054.105c-.261-.14-.48-.281-.653-.422m-33.216 4.038c-.346-.09-.57-.522-.676-1.292-.104-.81-.096-1.532.027-2.165.402-2.835 1.188-4.516 2.36-5.044 1.17-.546 2.533-.123 4.088 1.268-3.335 4.855-5.266 7.264-5.799 7.233M46.538 2.286l.025.053c.28-.353.577-.493.891-.422.332.088.481.343.446.765-.053 1.884-1.24 4.262-3.565 7.13.804-4.084 1.538-6.592 2.203-7.526M61.53 18.158c1.488-.04 3.045-.78 4.672-2.219l-1.068-1.267c-1.064.894-2.065 1.434-3.002 1.611v-.317c.122-1.602-.13-2.79-.76-3.565-.628-.775-1.432-1.012-2.41-.713-.508.14-.953.431-1.338.871-.402.459-.664.97-.786 1.532-.14.581-.036 1.188.314 1.823.332.633.918 1.17 1.757 1.61.035.036.113.08.236.132.121.054.28.124.471.212-.68 1.355-1.556 2.112-2.622 2.27-.716.107-1.37-.008-1.965-.343-.611-.352-1.03-.81-1.258-1.373-.385-.968-.463-2.06-.237-3.275.228-1.214.725-2.27 1.495-3.169.945-1.126 2.228-1.786 3.853-1.98l-.183-1.954c-.996 0-1.984.254-2.961.766-.98.51-1.81 1.25-2.49 2.218-.22.303-.417.62-.598.945-.17.201-.33.397-.477.573-.227.274-.437.524-.63.753-.366.458-.864 1.065-1.494 1.822-.314.388-.606.74-.877 1.057-.272.316-.529.607-.774.87-.245.265-.49.534-.733.806-.246.273-.499.55-.76.832-.263.282-.503.533-.722.752-.219.221-.424.41-.616.57-.385.334-.673.536-.864.606-.368.141-.621.088-.76-.159-.07-.105-.124-.193-.158-.263-.053-.106-.131-.317-.237-.634-.104-.317-.182-.678-.234-1.083-.036-.193-.053-.427-.053-.7 0-.273.009-.585.026-.937.017-.688.096-1.427.235-2.219l.394-2.06c.42-.422.79-.805 1.114-1.149.323-.343.608-.637.852-.884.47-.492 1.048-1.18 1.73-2.06.68-.863 1.206-1.725 1.572-2.588.35-.81.568-1.646.656-2.51.07-.914-.062-1.662-.394-2.244-.332-.563-.768-.915-1.31-1.056-.507-.122-1.058-.08-1.651.132-.56.211-1.04.6-1.442 1.162-.79 1.127-1.748 4.481-2.869 10.045-1.481 2.432-2.867 4.464-4.156 6.09-1.467 1.85-2.507 2.773-3.118 2.773-.157 0-.271-.052-.34-.158-.594-.792-.438-3.23.47-7.315.385-1.567.788-2.834 1.207-3.803l-1.704-.897c-.087.122-.28.405-.577.845-.297.44-.7 1.047-1.206 1.822-1.712-1.567-3.53-2.113-5.452-1.638-1.1.37-2.01 1.153-2.725 2.35-.377.63-.677 1.349-.904 2.15l-1.009 1.892c-.246.457-.524.932-.84 1.425-.313.493-.654 1.022-1.02 1.585-.753 1.145-1.417 1.954-1.994 2.429-.506.405-.925.423-1.258.053-.56-.668-.865-2.183-.917-4.542-.053-2.377.105-4.551.472-6.523l-1.939-.793-5.715 8.954 4.194-16.11-1.992-.475-4.875 19.885 1.86.924 6.134-9.454c-.245 1.92-.262 3.786-.052 5.6.21 1.866.637 3.16 1.284 3.882.402.474.865.756 1.39.844.54.088 1.013.027 1.414-.185.403-.194.83-.485 1.284-.871.595-.51 1.172-1.18 1.73-2.008.514-.75.96-1.456 1.348-2.124.1 2.197.88 3.446 2.348 3.736.21.018.429-.01.656-.08.262-.087.524-.228.786-.423.296-.21.568-.43.812-.659.141-.123.28-.265.42-.422.14-.159.297-.336.472-.53.174-.193.332-.382.472-.567.139-.184.28-.356.419-.515.261-.316.577-.739.944-1.268.192-.264.357-.501.497-.712.14-.212.272-.405.393-.581.227-.335.543-.783.944-1.347l.866-1.268c-1.137 4.86-.953 7.703.55 8.53.279.16.584.238.917.238 1.17.018 2.569-.924 4.194-2.826.808-.937 1.648-2.051 2.518-3.34-.1.992-.111 1.869-.028 2.627.12 1.11.297 1.928.524 2.455.209.494.462.864.76 1.11.42.317.882.476 1.388.476.49.034 1.014-.097 1.573-.396.245-.14.516-.334.813-.582.314-.264.664-.59 1.048-.976.193-.194.381-.392.564-.596.184-.201.37-.399.563-.593.367-.387.787-.863 1.26-1.427.243-.281.466-.541.667-.778.202-.238.389-.462.564-.674.116-.141.242-.296.371-.458-.046 1.025.107 2.031.467 3.02.472 1.145 1.232 1.954 2.28 2.43 1.05.475 2.14.607 3.277.396.855-.159 1.643-.59 2.36-1.294.75-.74 1.319-1.594 1.703-2.562M5.727 36.926H3.306v-8.738h2.421c2.168 0 3.284 2.127 3.284 4.4 0 2.254-1.116 4.338-3.284 4.338m0-11.623H0v14.508h5.727c4.19 0 6.612-3.117 6.612-7.223 0-4.126-2.422-7.285-6.612-7.285M18.191 34.147L23.455 34.147 23.455 31.178 18.191 31.178 18.191 28.188 24.192 28.188 24.192 25.303 14.886 25.303 14.886 39.811 24.382 39.811 24.382 36.926 18.191 36.926zM32.74 31.22l-1.515-.463c-1.348-.38-1.432-1.032-1.432-1.327 0-.8.673-1.432 1.705-1.432 1.137 0 1.663.737 1.663 1.6h3.306c0-2.82-2.126-4.484-4.906-4.484-2.884 0-5.116 1.768-5.116 4.38 0 1.368.61 3.326 3.812 4.19l1.726.526c1.284.421 1.6.948 1.6 1.516 0 .948-.822 1.432-1.894 1.432-1.138 0-2.065-.716-2.065-1.643h-3.305c0 2.675 2.147 4.485 5.242 4.485 2.654 0 5.348-1.326 5.348-4.442 0-2.632-2.105-3.706-4.168-4.338"/>
                            <mask id="pqlzj29hmb" fill="#fff">
                                <use xlink:href="#gg2i8pke6a"/>
                            </mask>
                            <path fill="#1D1D1B" d="M39.437 39.81L42.742 39.81 42.742 25.303 39.437 25.303zM52.133 34.778h4.084c-.021.127-.063.232-.105.337-.422 1.263-1.727 1.937-3.411 1.937-2.337 0-4.127-2.106-4.127-4.484 0-2.422 1.79-4.38 4.127-4.38 1.243 0 2.337.547 3.116 1.453l2.442-2.043c-1.263-1.516-3.263-2.484-5.558-2.484-4.19 0-7.453 3.327-7.453 7.454 0 4.084 3.263 7.432 7.453 7.432 4.17 0 7.117-2.4 7.117-7.896h-7.685v2.674zM69.672 25.303L69.672 33.536 65.04 25.303 62.008 25.303 62.008 39.811 65.313 39.811 65.313 31.473 70.072 39.811 72.977 39.811 72.977 25.303z" mask="url(#pqlzj29hmb)"/>
                        </g>
                    </g>
                </g>
            </g>
        </g>
    </g>
</svg>
