<svg xmlns="http://www.w3.org/2000/svg" width="65" height="13" viewBox="0 0 65 13">
    <g fill="none" fill-rule="evenodd">
        <g fill="#051344">
            <g>
                <g>
                    <path d="M6.344 0L4.537 4.81 0 4.81 3.835 7.697 1.989 12.545 6.344 9.269 10.712 12.545 8.853 7.697 12.688 4.81 8.138 4.81zM19.344 0L17.538 4.81 13 4.81 16.836 7.697 14.989 12.545 19.344 9.269 23.713 12.545 21.853 7.697 25.689 4.81 21.139 4.81zM32.343 0L30.537 4.81 26 4.81 29.835 7.697 27.989 12.545 32.343 9.269 36.712 12.545 34.853 7.697 38.689 4.81 34.138 4.81zM45.344 0L43.538 4.81 39.001 4.81 42.836 7.697 40.989 12.545 45.344 9.269 49.713 12.545 47.853 7.697 51.689 4.81 47.139 4.81zM58.344 0L56.538 4.81 52 4.81 55.835 7.697 53.989 12.545 58.344 9.269 62.712 12.545 60.852 7.697 64.689 4.81 60.138 4.81z" transform="translate(-329 -348) translate(125 220) translate(204 128)"/>
                </g>
            </g>
        </g>
    </g>
</svg>
