<svg xmlns="http://www.w3.org/2000/svg" width="56" height="36" viewBox="0 0 56 36">
    <g fill="none" fill-rule="evenodd">
        <g stroke-width="2">
            <g>
                <g>
                    <g>
                        <g>
                            <path stroke="#FDAD31" d="M21 1c1.105 0 2.105.448 2.828 1.172C24.552 2.895 25 3.895 25 5c0 1.105-.448 2.105-1.172 2.828C23.105 8.552 22.105 9 21 9c-1.105 0-2.105-.448-2.828-1.172C17.448 7.105 17 6.105 17 5c0-1.105.448-2.105 1.172-2.828C18.895 1.448 19.895 1 21 1zM9 1c1.105 0 2.105.448 2.828 1.172C12.552 2.895 13 3.895 13 5c0 1.105-.448 2.105-1.172 2.828C11.105 8.552 10.105 9 9 9c-1.105 0-2.105-.448-2.828-1.172C5.448 7.105 5 6.105 5 5c0-1.105.448-2.105 1.172-2.828C6.895 1.448 7.895 1 9 1z" transform="translate(-1351 -220) translate(221 150) translate(1130) translate(0 70) translate(6)"/>
                            <path stroke="#FFF" d="M0 22c0-4.97 4.03-9 9-9 2.311 0 4.419.871 6.012 2.303M12.014 35H0V22" transform="translate(-1351 -220) translate(221 150) translate(1130) translate(0 70) translate(6)"/>
                            <path stroke="#FFF" d="M21 13c2.44 0 4.653.97 6.274 2.547 1.622 1.578 2.652 3.762 2.722 6.187h0L30 35H12V22c0-2.485 1.007-4.735 2.636-6.364C16.265 14.007 18.515 13 21 13z" transform="translate(-1351 -220) translate(221 150) translate(1130) translate(0 70) translate(6)"/>
                        </g>
                    </g>
                </g>
            </g>
        </g>
    </g>
</svg>
