<svg xmlns="http://www.w3.org/2000/svg" width="129" height="60" viewBox="0 0 129 60">
    <g fill="none" fill-rule="evenodd">
        <g fill="#2A6FE3" fill-rule="nonzero">
            <g>
                <g>
                    <g>
                        <g>
                            <path d="M12.89 15.932c.271 0 .53-.06.774-.193l2.824-1.52c.568-.303 1.225-.435 1.883-.363 3.43.374 5.829.978 6.538 1.171.142.036.31-.012.4-.12.116-.133.258-.35.374-.665.103-.301.116-.555.103-.736-.013-.145-.116-.278-.27-.314-1.11-.302-6.023-1.545-12.626-1.545-6.602 0-11.516 1.243-12.625 1.545-.154.036-.258.17-.27.314-.013.169 0 .422.103.736s.258.532.374.664c.09.109.258.157.4.121.709-.193 3.12-.797 6.538-1.171.657-.072 1.315.06 1.882.362l2.825 1.521c.245.133.515.193.773.193zM8.382 6.818c.142.26.367.432.627.506.26.074.533.037.78-.111.25-.148.415-.383.486-.654.07-.272.035-.556-.107-.815l-2.33-4.208c-.07-.136-.224-.185-.366-.173-.19.012-.45.111-.757.296-.308.185-.52.37-.627.53-.083.124-.107.285-.036.42l2.33 4.209zm-2.27 2.978c.26.142.558.165.818.106.273-.07.508-.236.657-.484.149-.247.174-.53.112-.779-.062-.247-.248-.483-.509-.625L2.964 5.689c-.137-.071-.298-.047-.422.035-.16.106-.347.319-.533.626-.186.307-.285.566-.297.755-.012.153.05.295.173.366l4.227 2.325zm7.638-4.442c0 .318-.148.608-.37.82-.238.211-.549.33-.92.33-.356 0-.682-.132-.919-.33-.237-.212-.37-.49-.37-.82V.162c0-.172.118-.304.296-.37.207-.092.549-.145.993-.145.445 0 .786.053.994.145.163.08.296.198.296.37v5.192zm3.648 1.464c-.142.26-.366.432-.627.506-.26.074-.532.037-.78-.111-.249-.148-.414-.383-.485-.654-.071-.272-.036-.556.106-.815l2.33-4.208c.071-.136.225-.185.367-.173.19.012.45.111.757.296.308.185.52.37.627.53.083.124.106.285.035.42l-2.33 4.209zm2.27 2.978c-.26.142-.557.165-.817.106-.273-.07-.509-.236-.657-.484-.15-.247-.174-.53-.112-.779.074-.26.248-.483.508-.625l4.227-2.325c.136-.071.297-.047.421.035.161.106.347.319.533.626.186.307.285.566.298.755.012.153-.05.295-.174.366L19.67 9.796zm27.814-3.292h2.207c.08 0 .148.05.188.114l2.194 5.297 2.127-5.297c.027-.076.108-.114.188-.114h2.167c.148 0 .243.14.175.253L51.344 18.39c-.026.063-.107.114-.175.114h-1.91c-.135 0-.243-.14-.176-.254l1.844-4.067-3.607-7.426c-.08-.114.013-.253.162-.253zM79.349 7.84v-.983c0-.1.093-.189.2-.189h1.94c.108 0 .201.088.201.19v7.852c0 .1-.093.189-.2.189h-1.94c-.108 0-.201-.088-.201-.19v-1.033c-.415.605-1.325 1.4-2.81 1.4-2.837 0-4.309-2.043-4.309-4.324 0-2.975 2.195-4.248 4.242-4.248 1.351-.012 2.288.593 2.877 1.336zm-4.539 2.93c0 1.466.82 2.591 2.138 2.591 1.319 0 2.162-.981 2.162-2.486 0-1.505-.82-2.657-2.22-2.657-1.32 0-2.08 1.126-2.08 2.552zm8.6 4.112V6.864c0-.103.088-.193.188-.193h1.813c.1 0 .188.09.188.193v1.094c.425-.76 1.225-1.454 2.588-1.454 1.4 0 2.963.708 2.963 3.964v4.414c0 .103-.087.193-.187.193H89.15c-.1 0-.188-.09-.188-.193v-4.376c0-.785-.187-2.136-1.538-2.136-1.35 0-1.825 1.223-1.825 2.355v4.157c0 .103-.088.193-.188.193h-1.813c-.113-.013-.188-.09-.188-.193zm9.46 0V6.864c0-.103.088-.193.188-.193h1.813c.1 0 .188.09.188.193v1.094c.425-.76 1.225-1.454 2.588-1.454 1.4 0 2.963.708 2.963 3.964v4.414c0 .103-.087.193-.187.193H98.61c-.1 0-.188-.09-.188-.193v-4.376c0-.785-.187-2.136-1.538-2.136-1.35 0-1.825 1.223-1.825 2.355v4.157c0 .103-.088.193-.188.193h-1.813c-.1-.013-.188-.09-.188-.193zm19.126-8.208h1.815c.103 0 .193.09.193.193v1.66c.36-1.647 1.775-2.213 2.805-1.969.09.013.141.09.141.18v1.827c0 .116-.103.206-.231.18-1.905-.373-2.677.657-2.677 2.098v4.04c0 .102-.09.192-.193.192h-1.866c-.103 0-.193-.09-.193-.193V6.867c.013-.103.103-.193.206-.193zM35.563 8.257c-.6-.195-.919-.312-1.398-.467-.492-.17-1.33-.637-1.33-1.39 0-.753.532-1.234 1.61-1.234.985 0 1.53.468 1.89 1.221.053.104.173.143.28.091l1.583-.896c.08-.052.12-.156.08-.247-.48-1.026-1.597-2.26-3.807-2.26-2.462 0-4.006 1.429-4.006 3.312 0 1.87 1.265 2.844 2.982 3.416.625.207.878.298 1.41.467 1.012.338 1.478.78 1.478 1.39 0 .61-.4 1.337-1.97 1.337-1.437 0-1.943-.74-2.236-1.441-.04-.104-.173-.156-.28-.091l-1.663.935c-.08.052-.12.143-.08.234.639 1.532 2.382 2.441 4.339 2.441 2.302 0 4.245-1.143 4.245-3.454 0-2.312-2.528-3.169-3.127-3.364zm11.862 4.457c-.05-.09-.176-.128-.264-.064-.705.523-1.535.536-2.164-.447-.528-.83-1.17-1.851-1.17-1.851l2.768-3.485c.1-.128.012-.307-.139-.307h-2.163c-.063 0-.114.026-.151.077l-2.39 3.332V3.267c0-.102-.088-.192-.189-.192h-1.824c-.1 0-.189.09-.189.192v11.438c0 .102.088.192.189.192h1.837c.1 0 .188-.09.188-.192V10.99s1.22 1.953 1.686 2.681c.629.996 1.51 1.404 2.465 1.404.906 0 1.485-.242 2.176-.932.063-.063.076-.153.038-.23l-.704-1.2zm14.013-2.562l-1.273-.454c-.46-.164-.866-.404-.866-.758 0-.353.341-.745 1.037-.745.604 0 .971.228 1.181.632.053.1.17.126.263.075l1.338-.744c.092-.05.119-.164.066-.253-.367-.618-1.09-1.401-2.835-1.401-2.14 0-3.242 1.187-3.242 2.5 0 1.312 1.116 1.93 2.14 2.322 1.155.455 1.233.48 1.378.53.354.14.787.354.787.745s-.472.745-1.194.745c-.67 0-1.43-.265-1.746-1.01-.04-.101-.17-.151-.276-.088l-1.351.744c-.08.051-.119.14-.08.228.395.984 1.563 1.855 3.453 1.855 2.047 0 3.412-1.047 3.412-2.524s-1.05-1.995-2.192-2.399zm6.899-1.682c.818 0 1.422.252 1.988.656.088.063.214.038.264-.05l.755-1.312c.05-.088.025-.189-.063-.24-.78-.528-1.749-1.02-3.058-1.02-1.296 0-2.491.353-3.347 1.223-.856.857-1.246 1.878-1.246 3.088 0 1.462.604 2.395 1.259 3.05.654.656 1.837 1.21 3.347 1.21 1.359 0 2.366-.567 3.058-1.02.075-.051.1-.165.05-.24l-.742-1.298c-.05-.089-.176-.127-.265-.063-.49.352-1.195.655-1.988.655-.893 0-2.516-.504-2.516-2.32 0-1.814 1.61-2.319 2.504-2.319zm38.298 4.79c-.776 0-1.512-.176-2.047-.58-.535-.403-.79-.819-.79-1.31h6.932c.107 0 .2-.089.2-.19-.04-1.94-.709-2.848-1.351-3.466-.67-.63-1.806-1.21-3.305-1.21s-2.65.517-3.439 1.248c-.776.73-1.365 1.664-1.365 3.075 0 1.412.602 2.345 1.338 3.038.736.694 1.94 1.21 3.667 1.21 1.632 0 3.01-.542 4-1.613.08-.088.054-.227-.053-.277l-1.378-.757c-.067-.038-.16-.038-.228.026-.682.605-1.552.806-2.18.806zm-.392-5.042c1.023 0 1.96.612 2.107 1.714h-4.3c.284-1.187 1.17-1.714 2.193-1.714z" transform="translate(-1302 -431) translate(125 220) translate(1005 211) translate(172) translate(6.02 24)"/>
                        </g>
                    </g>
                </g>
            </g>
        </g>
    </g>
</svg>
