<svg xmlns="http://www.w3.org/2000/svg" xmlns:xlink="http://www.w3.org/1999/xlink" width="129" height="60" viewBox="0 0 129 60">
    <defs>
        <path id="x8030ju0na" d="M0.379 0.612L0.804 0.612 0.804 1.416 0.379 1.416z"/>
        <path id="ppaiobm3dc" d="M0.379 0.16L0.804 0.16 0.804 0.964 0.379 0.964z"/>
        <path id="zei211gtfe" d="M18.304.228c-.537.002-1.074.03-1.61.086-1.07.11-2.118.316-3.145.63-2.531.77-4.78 2.042-6.739 3.82-1.846 1.677-3.255 3.663-4.188 5.98-.503 1.248-.832 2.542-.971 3.884-.082.785-.1 1.57-.045 2.357.05.695.044 1.389-.071 2.079-.042.25-.088.501-.133.752-.045.064-.046.14-.049.213-.04.022-.035.062-.034.1-.008.019-.014.038-.021.058-.052.161-.123.316-.152.484-.107.253-.215.506-.32.759-.006.016-.009.031-.013.045-.071.11-.136.225-.175.35-.045.024-.051.07-.063.112-.15.248-.323.485-.425.761-.03.057-.06.113-.058.179-.017.042-.021.083-.014.128-.028.012-.034.062-.078.049v.512c.11.07.08.204.134.3-.001.034.012.062.036.085l.01.047c.01.049.03.093.072.124.042.155.148.266.26.372.147.141.281.299.49.356.094.065.198.111.314.124.006.012.014.016.026.012.047.03.096.034.149.026.07.043.148.037.227.035.141-.001.282-.001.424-.005.44-.01.878.019 1.313.07l.012.01.016-.002c.487.088.969.19 1.439.34.075.032.148.072.234.066.078.065.179.081.27.116.272.1.522.247.793.35h.002c.048.039.094.082.163.08.022.031.05.05.089.053.089.078.191.133.298.18.006.02.02.027.042.024.115.09.24.17.373.236.007.022.022.034.044.039.11.073.215.155.33.22.273.155.528.344.825.456.06.057.132.094.212.114.465.255.953.456 1.452.635.324.115.646.247.987.314.046.046.106.033.163.042.137.056.28.1.428.113-.016-.08-.05-.14-.098-.18.049.04.082.1.098.18l.084.02c.066.037.14.05.215.053.267.064.533.14.81.148.04.03.085.031.132.026l.08.01c.436.083.877.125 1.321.14l.002.034h1.619l-.001-.046v.046h.554c-.02-.008-.027-.023-.018-.044l-.131-.004.132.004c.268-.01.537-.025.8-.083l.012-.001.06-.006c.071.003.144.008.208-.032.062.005.123.006.183-.014.197-.031.395-.053.586-.114l.028.001c.039.002.078.006.101-.04l.081-.011c.143.03.267-.028.395-.073l.127-.019c.042.004.078-.016.115-.035.11-.003.214-.028.312-.08.277-.038.535-.14.798-.223.025.002.05.005.05-.032l.003.007c.136-.015.264-.058.384-.124.135-.035.27-.071.39-.145.072 0 .134-.021.182-.078.043.014.083-.002.121-.018.272-.113.546-.223.813-.347.228-.105.466-.194.678-.333.112-.024.203-.089.294-.153l-.059-.047-.007-.038.007.038.059.047c.093-.019.168-.07.239-.13-.026-.003-.051-.01-.069-.026.018.017.043.023.069.026.024-.003.045-.012.059-.034.07-.017.13-.048.178-.1.064-.002.11-.035.15-.083.07-.02.128-.06.183-.106l-.004-.005.004.005c.035-.01.068-.021.088-.054.047-.019.095-.038.13-.08.22-.125.447-.241.63-.422l.005-.004c.053.008.084-.024.112-.06.085-.04.16-.094.225-.16.199-.108.37-.252.541-.397.062-.02.112-.055.143-.113.07-.025.118-.078.173-.122.542-.438 1.054-.906 1.538-1.406 1.744-1.802 3.03-3.883 3.798-6.274.548-1.705.777-3.454.643-5.241-.08-1.074.024-2.12.31-3.155.057-.204.155-.395.184-.607l-.004-.006c.09-.114.131-.25.165-.388.035-.023.041-.06.042-.097.072-.087.11-.19.136-.297l.003-.001c.078-.113.146-.231.194-.36.05-.05.075-.11.09-.177.053-.047.09-.106.113-.174l.027-.048c.04-.035.063-.078.073-.129.096-.124.159-.262.17-.42.07-.215.112-.43.04-.652.004-.071.013-.142-.033-.204.004-.033-.002-.064-.024-.091-.035-.145-.084-.283-.185-.398-.125-.24-.31-.422-.548-.551h-.006c-.033-.048-.084-.067-.139-.08-.05-.04-.102-.076-.17-.076-.096-.056-.195-.092-.308-.079-.033-.014-.067-.009-.1-.004-.02.002-.04.005-.059.003-.01-.02-.022-.038-.05-.03l-.092-.005-.068.004c-.01.024-.021.048-.03.073.009-.025.02-.049.03-.073l-.097.002-.122.002c-.027-.01-.055-.009-.082.004-.17-.014-.34-.018-.51-.01l-.09-.003-.252-.014c0 .016-.001.033-.003.048.002-.015.003-.032.003-.048-.15-.05-.31-.032-.464-.065l-.774-.136-.075-.02c-.002.01-.005.017-.01.025.005-.008.008-.016.01-.025l-.352-.098-.594-.19c-.12-.055-.237-.119-.362-.16-.09-.03-.167-.108-.274-.085l-.045-.009c-.002-.022-.009-.04-.034-.046-.049-.046-.109-.072-.174-.088l-.56-.312c-.106-.071-.207-.152-.329-.2-.087-.067-.163-.145-.268-.185-.053-.04-.097-.098-.171-.103-.057-.066-.131-.105-.212-.132-.364-.254-.763-.448-1.162-.638-.271-.128-.538-.273-.833-.347l-.002.007c-.004-.032-.026-.036-.051-.034-.37-.169-.755-.296-1.148-.394-.008-.012-.021-.017-.035-.015-.053-.02-.104-.043-.159-.057-.911-.254-1.839-.428-2.78-.51-.44-.038-.88-.058-1.32-.06h-.108zm-.827 28.389c.022.03.031.066.032.106 0-.04-.01-.076-.032-.106z"/>
        <path id="s3fj73cc1h" d="M16.697.228c-.537.002-1.074.03-1.61.086-1.07.11-2.118.316-3.145.63-2.531.77-4.78 2.042-6.739 3.82-1.846 1.677-3.255 3.663-4.188 5.98-.099.245-.19.492-.276.74h29.61c-.003-.843.109-1.672.336-2.493.056-.204.155-.395.183-.607l-.004-.006c.091-.114.132-.25.166-.388.034-.023.04-.06.042-.097.072-.087.11-.19.136-.297l.003-.001c.078-.113.146-.231.193-.36.05-.05.076-.11.091-.177.053-.047.09-.106.113-.174l.027-.048c.04-.035.063-.078.073-.129.096-.124.158-.262.17-.42.07-.215.111-.43.04-.652.004-.071.013-.142-.033-.204.004-.033-.003-.064-.024-.091-.035-.145-.085-.283-.185-.398-.125-.24-.311-.422-.548-.551h-.006c-.033-.048-.084-.067-.139-.08-.05-.04-.103-.076-.17-.076-.096-.056-.195-.092-.308-.079-.034-.014-.067-.009-.1-.004-.02.002-.04.005-.059.003-.01-.02-.022-.038-.05-.03l-.092-.005-.068.004c-.01.024-.021.048-.03.073.009-.025.02-.049.03-.073l-.097.002-.122.002c-.027-.01-.055-.009-.082.004-.17-.014-.34-.018-.51-.01l-.09-.003-.252-.014c0 .016-.001.033-.003.048.002-.015.002-.032.003-.048-.15-.05-.31-.032-.464-.065l-.774-.136-.076-.02c-.001.01-.004.017-.008.025.004-.008.007-.016.008-.025l-.35-.098-.595-.19c-.121-.055-.237-.119-.362-.16-.09-.03-.167-.108-.274-.085l-.045-.009c-.002-.022-.009-.04-.034-.046-.049-.046-.11-.072-.174-.088l-.56-.312c-.106-.071-.208-.152-.329-.2-.087-.067-.163-.145-.268-.185-.053-.04-.097-.098-.171-.103-.058-.066-.131-.105-.212-.132-.365-.254-.763-.448-1.162-.638-.271-.128-.538-.273-.833-.347l-.002.007c-.005-.032-.026-.036-.051-.034-.37-.169-.755-.296-1.148-.394-.008-.012-.021-.017-.035-.015-.053-.02-.104-.043-.16-.057-.91-.254-1.838-.428-2.779-.51-.44-.038-.88-.058-1.32-.06h-.108z"/>
        <linearGradient id="bmv3zolrpf" x1="37.761%" x2="26.401%" y1="54.178%" y2="85.283%">
            <stop offset="0%" stop-color="#97DF13"/>
            <stop offset="57.881%" stop-color="#6CBF24"/>
            <stop offset="100%" stop-color="#057D46"/>
        </linearGradient>
        <linearGradient id="vgj0pc5ysi" x1="81.998%" x2="68.584%" y1="43.499%" y2="50%">
            <stop offset="0%" stop-color="#069553"/>
            <stop offset="35.738%" stop-color="#6CBF24"/>
            <stop offset="100%" stop-color="#96DC14"/>
        </linearGradient>
    </defs>
    <g fill="none" fill-rule="evenodd">
        <g>
            <g>
                <g>
                    <g>
                        <g>
                            <g>
                                <path fill="#242424" d="M46.718 6.011c.004-.226-.006-.452-.048-.677-.19-1.038-.74-1.793-1.727-2.207-.454-.19-.932-.24-1.418-.196-1.136.106-1.966.657-2.397 1.728-.339.84-.336 1.703-.047 2.56.265.783.791 1.332 1.564 1.633.728.284 1.471.293 2.206.036.843-.295 1.405-.882 1.693-1.727.127-.372.184-.756.174-1.15m3.063.768c-.043.78-.286 1.5-.667 2.175-.62 1.1-1.554 1.84-2.709 2.323-.961.402-1.967.518-3 .477-1.047-.04-2.028-.31-2.937-.829-1.386-.79-2.238-1.98-2.564-3.536-.233-1.107-.204-2.216.132-3.3.491-1.58 1.535-2.665 3.042-3.324.962-.422 1.97-.562 3.012-.53.971.031 1.894.248 2.761.69 1.657.843 2.61 2.195 2.915 4.017.017.104.012.213.016.318-.009.094-.013.187.04.272v.936c-.06.098-.046.205-.04.311" transform="translate(-800 -431) translate(125 220) translate(503 211) translate(172) translate(20 15) translate(38.571 2.986)"/>
                                <g transform="translate(-800 -431) translate(125 220) translate(503 211) translate(172) translate(20 15) translate(38.571 2.986) translate(49.018 5.625)">
                                    <mask id="w8soxo8lcb" fill="#fff">
                                        <use xlink:href="#x8030ju0na"/>
                                    </mask>
                                    <path fill="#4FAE2C" d="M.763 1.154C.757 1.048.745.941.804.844v.34l-.041-.03" mask="url(#w8soxo8lcb)"/>
                                </g>
                                <g transform="translate(-800 -431) translate(125 220) translate(503 211) translate(172) translate(20 15) translate(38.571 2.986) translate(49.018 4.821)">
                                    <mask id="1dpmjae0wd" fill="#fff">
                                        <use xlink:href="#ppaiobm3dc"/>
                                    </mask>
                                    <path fill="#4FAE2C" d="M.804.711C.752.626.754.531.764.44l.04-.026v.298z" mask="url(#1dpmjae0wd)"/>
                                </g>
                                <path fill="#242424" d="M12.262 16.514c0 .418.001.836-.002 1.254 0 .1.014.156.137.153.467-.007.935.008 1.403-.009.414-.015.79-.157 1.107-.432.605-.524.61-1.365.008-1.895-.308-.271-.676-.42-1.083-.434-.475-.017-.95-.01-1.425-.01-.141 0-.145.005-.145.161v1.212m3.77 2.966c.49.972 1.201 1.6 2.292 1.723.172.02.174.02.174.19v2.427c0 .179-.002.183-.193.179-1.488-.037-2.783-.548-3.858-1.59-.646-.623-1.134-1.358-1.487-2.182-.058-.136-.124-.206-.278-.185-.104.013-.213.005-.32.002-.07-.001-.104.028-.1.1.002.05 0 .1 0 .15v3.32c0 .042-.004.084 0 .127.01.097-.022.15-.13.135-.035-.005-.071-.001-.107-.001H9.15c-.062 0-.09-.03-.088-.09V13.143c0-.035.002-.07 0-.106-.011-.096.02-.152.127-.137h.042c1.683.001 3.366-.01 5.048.008.875.01 1.719.193 2.493.623.854.475 1.437 1.166 1.675 2.125.13.523.141 1.053.017 1.58-.155.666-.53 1.183-1.085 1.575-.355.25-.743.442-1.148.596l-.199.073M7.372 6.823c-.586.201-1.138.356-1.702.469-.656.13-1.314.225-1.982.251-.196.007-.208-.041-.208.21v3.49c0 .27.025.235-.242.235-.901.002-1.803.001-2.704.001-.036 0-.072-.003-.106 0-.104.012-.165-.02-.15-.138.005-.035 0-.071 0-.107 0-3.496 0-6.994.002-10.49C.28.477.245.506.517.506h2.768c.209 0 .195-.024.195.193l.001 4.17c.001.228-.056.244.248.227 1.195-.067 2.359-.306 3.5-.667.14-.044.144-.125.144-.236-.002-1.149-.002-2.299 0-3.447 0-.277-.03-.24.235-.24H10.504c.052.002.077.029.076.08v10.663c0 .244.029.23-.226.23H7.48c-.07.003-.107-.025-.106-.098l-.001-.17V6.823zM46.42 19.209c-.309.092-.59.184-.876.262-.927.254-1.87.406-2.83.45-.179.008-.18.008-.18.192v3.468c0 .043-.006.086 0 .128.018.118-.041.141-.147.141-.972-.003-1.943-.004-2.916.001-.12 0-.148-.046-.136-.149.004-.041 0-.085 0-.127V13.149c0-.043.004-.086 0-.127-.019-.12.041-.14.145-.14.965.004 1.931.003 2.896.002.187 0 .158.024.158.192v4.129c0 .276 0 .273.271.26 1.185-.054 2.331-.303 3.458-.66.17-.053.157-.01.157-.219v-3.447c0-.05.003-.1 0-.149-.003-.069.02-.108.095-.105.037.002.072 0 .107 0h2.811c.2 0 .187-.013.187.18v10.597c0 .209.014.187-.201.188h-2.79c-.237 0-.208 0-.208-.204v-4.436zM37.456 14.836c-.764.406-1.516.803-2.27 1.202-.018-.034-.034-.057-.042-.084-.175-.614-.602-.963-1.198-1.117-.455-.118-.916-.122-1.365.025-.364.12-.64.338-.71.743-.053.297.036.547.27.739.206.17.444.275.702.34.605.156 1.22.26 1.83.382.557.112 1.108.245 1.646.425.586.196 1.076.537 1.48 1.002.262.302.416.656.49 1.046.138.711.107 1.41-.172 2.088-.338.82-.95 1.38-1.722 1.781-.676.351-1.4.537-2.156.608-.911.087-1.814.047-2.703-.183-.915-.237-1.74-.643-2.408-1.33-.299-.31-.556-.688-.666-.997.821-.436 1.645-.872 2.47-1.308.022.031.04.046.045.066.187.706.663 1.142 1.332 1.375.672.233 1.36.266 2.05.067.24-.069.462-.182.642-.36.382-.38.335-.943-.102-1.253-.29-.205-.62-.31-.96-.385-.665-.144-1.331-.28-1.996-.426-.402-.088-.797-.202-1.184-.339-.562-.198-1.031-.53-1.425-.974-.296-.332-.46-.728-.531-1.163-.114-.707-.067-1.402.214-2.065.396-.939 1.117-1.534 2.054-1.887.81-.305 1.654-.381 2.512-.323.7.047 1.376.194 2.012.496.749.355 1.364.861 1.77 1.598.023.043.045.088.066.133.008.019.013.04.025.078M11.938 5.979V.744c0-.274-.022-.235.241-.235h7.496c.27 0 .238-.028.238.239.002.673 0 1.347 0 2.022 0 .194 0 .196-.196.196h-4.558c-.159.003-.161.003-.162.166v1.532c0 .179.003.18.192.18H19c.052 0 .077.025.076.077v1.852c0 .175-.001.177-.19.177H15.16c-.16.003-.162.004-.163.168V8.84c0 .176.003.177.193.178h4.387c.285 0 .285 0 .285.279v1.979c0 .24.007.21-.225.21H12.098c-.156-.002-.159-.002-.159-.167V5.979zM19.786 18.354v-5.235c0-.265-.037-.235.24-.235l7.28-.001c.043 0 .086.005.129 0 .099-.011.116.04.116.125-.003.73-.005 1.461.001 2.192.002.13-.06.13-.153.13-.682-.001-1.364 0-2.044 0h-2.322c-.182 0-.183.001-.183.185v1.532c0 .158.001.16.163.16l3.662.001c.292 0 .258-.028.259.264v1.639c0 .227.01.21-.205.21-1.215 0-2.428-.002-3.642 0-.27 0-.236-.039-.237.236-.002.538-.001 1.077 0 1.616 0 .23-.026.207.201.207H27.523c.184.002.185.002.185.186v2.106c0 .174-.001.176-.171.176h-7.58c-.17 0-.171-.002-.171-.196v-5.298zM.279 18.361v-5.256c0-.225-.016-.206.208-.206h6.175l1.194.001c.15.001.153.004.153.154.002.794.002 1.588 0 2.382 0 .143-.004.145-.16.145-.887.002-1.774 0-2.662 0H3.675c-.218 0-.201-.015-.201.212v1.746c0 .201-.017.198.195.198h3.13c.043 0 .086-.002.128 0 .15.004.154.004.155.153v1.979c-.001.18-.002.182-.189.182l-3.152.001c-.308 0-.266-.044-.266.272-.002 1.086-.001 2.172-.001 3.257 0 .05-.003.098 0 .148.006.082-.028.114-.11.112-.155-.005-.312-.002-.468-.002-.788 0-1.576.002-2.364 0-.291 0-.252.035-.252-.242C.278 21.85.279 20.106.279 18.36M29.807 5.988V.69c.001-.183.001-.185.185-.185h2.831c.19 0 .184-.018.184.183v7.85c0 .049.002.1 0 .149-.002.073.035.102.105.1.05-.002.099 0 .149 0h3.831c.043 0 .086-.002.129 0 .15.005.153.005.154.153.002.354 0 .71 0 1.064 0 .44.002.879 0 1.32 0 .15-.004.152-.152.153-.25.003-.497.001-.746.001h-6.386c-.057 0-.114-.002-.17 0-.08.004-.12-.025-.114-.11.003-.049 0-.1 0-.148V5.988zM21.14 5.974V.741c0-.273-.03-.235.239-.235.909-.002 1.817 0 2.725 0h.15c.06-.002.09.023.09.087-.002.057 0 .113 0 .17V8.55c0 .254-.042.238.238.238l3.832.001c.05 0 .1.004.149 0 .1-.01.136.026.135.13-.006.37-.003.738-.003 1.107v1.277c0 .173-.002.176-.172.176h-7.175c-.207-.001-.208-.001-.208-.208V5.974" transform="translate(-800 -431) translate(125 220) translate(503 211) translate(172) translate(20 15) translate(38.571 2.986)"/>
                            </g>
                            <g transform="translate(-800 -431) translate(125 220) translate(503 211) translate(172) translate(20 15) translate(0 .575)">
                                <mask id="d891cchkhg" fill="#fff">
                                    <use xlink:href="#zei211gtfe"/>
                                </mask>
                                <path fill="url(#bmv3zolrpf)" d="M18.304.228c-.537.002-1.074.03-1.61.086-1.07.11-2.118.316-3.145.63-2.531.77-4.78 2.042-6.739 3.82-1.846 1.677-3.255 3.663-4.188 5.98-.503 1.248-.832 2.542-.971 3.884-.082.785-.1 1.57-.045 2.357.05.695.044 1.389-.071 2.079-.042.25-.088.501-.133.752-.045.064-.046.14-.049.213-.04.022-.035.062-.034.1-.008.019-.014.038-.021.058-.052.161-.123.316-.152.484-.107.253-.215.506-.32.759-.006.016-.009.031-.013.045-.071.11-.136.225-.175.35-.045.024-.051.07-.063.112-.15.248-.323.485-.425.761-.03.057-.06.113-.058.179-.017.042-.021.083-.014.128-.028.012-.034.062-.078.049v.512c.11.07.08.204.134.3-.001.034.012.062.036.085l.01.047c.01.049.03.093.072.124.042.155.148.266.26.372.147.141.281.299.49.356.094.065.198.111.314.124.006.012.014.016.026.012.047.03.096.034.149.026.07.043.148.037.227.035.141-.001.282-.001.424-.005.44-.01.878.019 1.313.07l.012.01.016-.002c.487.088.969.19 1.439.34.075.032.148.072.234.066.078.065.179.081.27.116.272.1.522.247.793.35h.002c.048.039.094.082.163.08.022.031.05.05.089.053.089.078.191.133.298.18.006.02.02.027.042.024.115.09.24.17.373.236.007.022.022.034.044.039.11.073.215.155.33.22.273.155.528.344.825.456.06.057.132.094.212.114.465.255.953.456 1.452.635.324.115.646.247.987.314.046.046.106.033.163.042.137.056.28.1.428.113-.016-.08-.05-.14-.098-.18.049.04.082.1.098.18l.084.02c.066.037.14.05.215.053.267.064.533.14.81.148.04.03.085.031.132.026l.08.01c.436.083.877.125 1.321.14l.002.034h1.619l-.001-.046v.046h.554c-.02-.008-.027-.023-.018-.044l-.131-.004.132.004c.268-.01.537-.025.8-.083l.012-.001.06-.006c.071.003.144.008.208-.032.062.005.123.006.183-.014.197-.031.395-.053.586-.114l.028.001c.039.002.078.006.101-.04l.081-.011c.143.03.267-.028.395-.073l.127-.019c.042.004.078-.016.115-.035.11-.003.214-.028.312-.08.277-.038.535-.14.798-.223.025.002.05.005.05-.032l.003.007c.136-.015.264-.058.384-.124.135-.035.27-.071.39-.145.072 0 .134-.021.182-.078.043.014.083-.002.121-.018.272-.113.546-.223.813-.347.228-.105.466-.194.678-.333.112-.024.203-.089.294-.153l-.059-.047-.007-.038.007.038.059.047c.093-.019.168-.07.239-.13-.026-.003-.051-.01-.069-.026.018.017.043.023.069.026.024-.003.045-.012.059-.034.07-.017.13-.048.178-.1.064-.002.11-.035.15-.083.07-.02.128-.06.183-.106l-.004-.005.004.005c.035-.01.068-.021.088-.054.047-.019.095-.038.13-.08.22-.125.447-.241.63-.422l.005-.004c.053.008.084-.024.112-.06.085-.04.16-.094.225-.16.199-.108.37-.252.541-.397.062-.02.112-.055.143-.113.07-.025.118-.078.173-.122.542-.438 1.054-.906 1.538-1.406 1.744-1.802 3.03-3.883 3.798-6.274.548-1.705.777-3.454.643-5.241-.08-1.074.024-2.12.31-3.155.057-.204.155-.395.184-.607l-.004-.006c.09-.114.131-.25.165-.388.035-.023.041-.06.042-.097.072-.087.11-.19.136-.297l.003-.001c.078-.113.146-.231.194-.36.05-.05.075-.11.09-.177.053-.047.09-.106.113-.174l.027-.048c.04-.035.063-.078.073-.129.096-.124.159-.262.17-.42.07-.215.112-.43.04-.652.004-.071.013-.142-.033-.204.004-.033-.002-.064-.024-.091-.035-.145-.084-.283-.185-.398-.125-.24-.31-.422-.548-.551h-.006c-.033-.048-.084-.067-.139-.08-.05-.04-.102-.076-.17-.076-.096-.056-.195-.092-.308-.079-.033-.014-.067-.009-.1-.004-.02.002-.04.005-.059.003-.01-.02-.022-.038-.05-.03l-.092-.005-.068.004c-.01.024-.021.048-.03.073.009-.025.02-.049.03-.073l-.097.002-.122.002c-.027-.01-.055-.009-.082.004-.17-.014-.34-.018-.51-.01l-.09-.003-.252-.014c0 .016-.001.033-.003.048.002-.015.003-.032.003-.048-.15-.05-.31-.032-.464-.065l-.774-.136-.075-.02c-.002.01-.005.017-.01.025.005-.008.008-.016.01-.025l-.352-.098-.594-.19c-.12-.055-.237-.119-.362-.16-.09-.03-.167-.108-.274-.085l-.045-.009c-.002-.022-.009-.04-.034-.046-.049-.046-.109-.072-.174-.088l-.56-.312c-.106-.071-.207-.152-.329-.2-.087-.067-.163-.145-.268-.185-.053-.04-.097-.098-.171-.103-.057-.066-.131-.105-.212-.132-.364-.254-.763-.448-1.162-.638-.271-.128-.538-.273-.833-.347l-.002.007c-.004-.032-.026-.036-.051-.034-.37-.169-.755-.296-1.148-.394-.008-.012-.021-.017-.035-.015-.053-.02-.104-.043-.159-.057-.911-.254-1.839-.428-2.78-.51-.44-.038-.88-.058-1.32-.06h-.108zm-.827 28.389c.022.03.031.066.032.106 0-.04-.01-.076-.032-.106z" mask="url(#d891cchkhg)"/>
                            </g>
                            <g transform="translate(-800 -431) translate(125 220) translate(503 211) translate(172) translate(20 15) translate(1.607 .575)">
                                <mask id="1943r9kkkj" fill="#fff">
                                    <use xlink:href="#s3fj73cc1h"/>
                                </mask>
                                <path fill="url(#vgj0pc5ysi)" d="M16.697.228c-.537.002-1.074.03-1.61.086-1.07.11-2.118.316-3.145.63-2.531.77-4.78 2.042-6.739 3.82-1.846 1.677-3.255 3.663-4.188 5.98-.099.245-.19.492-.276.74h29.61c-.003-.843.109-1.672.336-2.493.056-.204.155-.395.183-.607l-.004-.006c.091-.114.132-.25.166-.388.034-.023.04-.06.042-.097.072-.087.11-.19.136-.297l.003-.001c.078-.113.146-.231.193-.36.05-.05.076-.11.091-.177.053-.047.09-.106.113-.174l.027-.048c.04-.035.063-.078.073-.129.096-.124.158-.262.17-.42.07-.215.111-.43.04-.652.004-.071.013-.142-.033-.204.004-.033-.003-.064-.024-.091-.035-.145-.085-.283-.185-.398-.125-.24-.311-.422-.548-.551h-.006c-.033-.048-.084-.067-.139-.08-.05-.04-.103-.076-.17-.076-.096-.056-.195-.092-.308-.079-.034-.014-.067-.009-.1-.004-.02.002-.04.005-.059.003-.01-.02-.022-.038-.05-.03l-.092-.005-.068.004c-.01.024-.021.048-.03.073.009-.025.02-.049.03-.073l-.097.002-.122.002c-.027-.01-.055-.009-.082.004-.17-.014-.34-.018-.51-.01l-.09-.003-.252-.014c0 .016-.001.033-.003.048.002-.015.002-.032.003-.048-.15-.05-.31-.032-.464-.065l-.774-.136-.076-.02c-.001.01-.004.017-.008.025.004-.008.007-.016.008-.025l-.35-.098-.595-.19c-.121-.055-.237-.119-.362-.16-.09-.03-.167-.108-.274-.085l-.045-.009c-.002-.022-.009-.04-.034-.046-.049-.046-.11-.072-.174-.088l-.56-.312c-.106-.071-.208-.152-.329-.2-.087-.067-.163-.145-.268-.185-.053-.04-.097-.098-.171-.103-.058-.066-.131-.105-.212-.132-.365-.254-.763-.448-1.162-.638-.271-.128-.538-.273-.833-.347l-.002.007c-.005-.032-.026-.036-.051-.034-.37-.169-.755-.296-1.148-.394-.008-.012-.021-.017-.035-.015-.053-.02-.104-.043-.16-.057-.91-.254-1.838-.428-2.779-.51-.44-.038-.88-.058-1.32-.06h-.108z" mask="url(#1943r9kkkj)"/>
                            </g>
                        </g>
                    </g>
                </g>
            </g>
        </g>
    </g>
</svg>
