<svg xmlns="http://www.w3.org/2000/svg" width="56" height="36" viewBox="0 0 56 36">
    <g fill="none" fill-rule="evenodd">
        <g stroke-width="2">
            <g>
                <g>
                    <g>
                        <g stroke="#FFF">
                            <path d="M5 1c1.105 0 2.105.448 2.828 1.172C8.552 2.895 9 3.895 9 5c0 1.105-.448 2.105-1.172 2.828C7.105 8.552 6.105 9 5 9c-1.105 0-2.105-.448-2.828-1.172C1.448 7.105 1 6.105 1 5c0-1.105.448-2.105 1.172-2.828C2.895 1.448 3.895 1 5 1zM17 1c1.105 0 2.105.448 2.828 1.172C20.552 2.895 21 3.895 21 5c0 1.105-.448 2.105-1.172 2.828C19.105 8.552 18.105 9 17 9c-1.105 0-2.105-.448-2.828-1.172C13.448 7.105 13 6.105 13 5c0-1.105.448-2.105 1.172-2.828C14.895 1.448 15.895 1 17 1zM5 13c1.105 0 2.105.448 2.828 1.172C8.552 14.895 9 15.895 9 17c0 1.105-.448 2.105-1.172 2.828C7.105 20.552 6.105 21 5 21c-1.105 0-2.105-.448-2.828-1.172C1.448 19.105 1 18.105 1 17c0-1.105.448-2.105 1.172-2.828C2.895 13.448 3.895 13 5 13zM5 25c1.105 0 2.105.448 2.828 1.172C8.552 26.895 9 27.895 9 29c0 1.105-.448 2.105-1.172 2.828C7.105 32.552 6.105 33 5 33c-1.105 0-2.105-.448-2.828-1.172C1.448 31.105 1 30.105 1 29c0-1.105.448-2.105 1.172-2.828C2.895 25.448 3.895 25 5 25zM17 13c1.105 0 2.105.448 2.828 1.172C20.552 14.895 21 15.895 21 17c0 1.105-.448 2.105-1.172 2.828C19.105 20.552 18.105 21 17 21c-1.105 0-2.105-.448-2.828-1.172C13.448 19.105 13 18.105 13 17c0-1.105.448-2.105 1.172-2.828C14.895 13.448 15.895 13 17 13zM29 1c1.105 0 2.105.448 2.828 1.172C32.552 2.895 33 3.895 33 5c0 1.105-.448 2.105-1.172 2.828C31.105 8.552 30.105 9 29 9c-1.105 0-2.105-.448-2.828-1.172C25.448 7.105 25 6.105 25 5c0-1.105.448-2.105 1.172-2.828C26.895 1.448 27.895 1 29 1zM17 25c1.105 0 2.105.448 2.828 1.172C20.552 26.895 21 27.895 21 29c0 1.105-.448 2.105-1.172 2.828C19.105 32.552 18.105 33 17 33c-1.105 0-2.105-.448-2.828-1.172C13.448 31.105 13 30.105 13 29c0-1.105.448-2.105 1.172-2.828C14.895 25.448 15.895 25 17 25zM29 25c1.105 0 2.105.448 2.828 1.172C32.552 26.895 33 27.895 33 29c0 1.105-.448 2.105-1.172 2.828C31.105 32.552 30.105 33 29 33c-1.105 0-2.105-.448-2.828-1.172C25.448 31.105 25 30.105 25 29c0-1.105.448-2.105 1.172-2.828C26.895 25.448 27.895 25 29 25z" transform="translate(-221 -220) translate(221 150) translate(0 70) translate(4 1)"/>
                        </g>
                        <g stroke="#FDAD31">
                            <path d="M5 1c1.105 0 2.105.448 2.828 1.172C8.552 2.895 9 3.895 9 5c0 1.105-.448 2.105-1.172 2.828C7.105 8.552 6.105 9 5 9c-1.105 0-2.105-.448-2.828-1.172C1.448 7.105 1 6.105 1 5c0-1.105.448-2.105 1.172-2.828C2.895 1.448 3.895 1 5 1zM12.848 12.757L8 8" transform="translate(-221 -220) translate(221 150) translate(0 70) translate(4 1) translate(24 12)"/>
                        </g>
                    </g>
                </g>
            </g>
        </g>
    </g>
</svg>
