<svg xmlns="http://www.w3.org/2000/svg" width="129" height="60" viewBox="0 0 129 60">
    <defs>
        <linearGradient id="6q439dcita" x1="-13.615%" x2="49.306%" y1="24.467%" y2="-9.038%">
            <stop offset="0%" stop-color="#FCC85D"/>
            <stop offset="26%" stop-color="#FBC241"/>
            <stop offset="59%" stop-color="#F8B500"/>
            <stop offset="84%" stop-color="#F8AF05"/>
            <stop offset="92%" stop-color="#F8A111"/>
            <stop offset="100%" stop-color="#F7931D"/>
        </linearGradient>
        <linearGradient id="9xjgxm1ypb" x1="-37.91%" x2="48.587%" y1="61.506%" y2="-7.545%">
            <stop offset="0%" stop-color="#6100F6"/>
            <stop offset="63.769%" stop-color="#865CF3"/>
        </linearGradient>
        <radialGradient id="s35drg73dc" cx="72.715%" cy="14.155%" r="3.009%" fx="72.715%" fy="14.155%" gradientTransform="matrix(1 0 0 .65239 0 .05)">
            <stop offset="0%" stop-color="#FF9CDB"/>
            <stop offset="14.035%" stop-color="#ED7EC5"/>
            <stop offset="49.718%" stop-color="#E71E93"/>
        </radialGradient>
    </defs>
    <g fill="none" fill-rule="evenodd">
        <g fill-rule="nonzero">
            <g>
                <g>
                    <g>
                        <g>
                            <path fill="url(#6q439dcita)" d="M15.143.711L15.15.71c3.069-.78 5.784-.311 7.466 1.583 1.393 1.566 1.88 3.881 1.563 6.543-.162 1.331-.521 2.751-1.07 4.212-.458 1.22-1.002 2.49-1.718 3.736-.69 1.2-1.238 2.094-2.065 3.127-1.23 1.538-2.468 2.617-3.705 3.264-2.679 1.399-7.696.843-6.512-.447l.007-.008c.953-1.016 1.869-2.065 2.744-3.147v.002c1.49-1.849 2.636-3.545 3.491-5.072l.006-.01c1.02-1.823 1.623-3.404 1.898-4.712.07-.333.129-.662.178-.986.005-.037.02-.172.022-.203.044-.758-.053-1.383-.266-1.865-1.062-2.408-6.403-.202-10.335 3.999-1.276 1.362-1.919 2.147-3.94 2.562C.778 13.727 0 13.014 0 13.014c1.039-1.748 2.337-3.46 3.848-5.074 2.305-2.462 4.824-4.44 7.77-5.88.544-.266 1.101-.514 1.676-.742.602-.242 1.22-.444 1.85-.606z" transform="translate(-800 -220) translate(125 220) translate(503) translate(172) translate(4.344 17.97)"/>
                            <path fill="url(#9xjgxm1ypb)" d="M24.165 8.91c-.162 1.31-.518 2.705-1.057 4.139-.457 1.219-1.002 2.49-1.718 3.735-.689 1.2-1.237 2.094-2.064 3.127-1.231 1.538-2.468 2.618-3.705 3.264-2.68 1.399-7.696.843-6.512-.447l.007-.008c.928-.99 1.82-2.011 2.674-3.064 3.856-1.912 8.954-5.023 12.375-10.746z" transform="translate(-800 -220) translate(125 220) translate(503) translate(172) translate(4.344 17.97)"/>
                            <path fill="url(#s35drg73dc)" d="M11.86 19.573l-.07.083c3.857-1.913 8.968-5.03 12.375-10.746l.014-.074c.814-2.753.544-5.29-1.317-6.771C21.626-.11 18.115-.418 15.302.45c.08.02.167.043.257.07l-.103.027-.226.056-.154.039c-.605.153-1.186.372-1.804.622l-.553.245c4.017-.343 5.612 3.23 4.744 7.246-.05.228-.087.421-.124.607l-.085.419c-.104.499-.258 1.039-.477 1.621-.318.93-.79 1.964-1.42 3.09l-.006.011c-.85 1.518-1.989 3.202-3.492 5.07z" transform="translate(-800 -220) translate(125 220) translate(503) translate(172) translate(4.344 17.97)"/>
                            <path fill="#666777" d="M39.177 23.653c-.28 0-.55-.045-.81-.134-.255-.089-.453-.206-.593-.353l.157-.305c.137.136.318.246.545.332.226.082.46.123.702.123.338 0 .591-.06.76-.182.17-.125.254-.285.254-.481 0-.15-.047-.27-.14-.36-.095-.092-.21-.161-.335-.203-.182-.064-.368-.118-.556-.16-.23-.055-.457-.123-.68-.204-.167-.066-.317-.17-.437-.305-.119-.135-.178-.32-.178-.55 0-.19.05-.36.15-.514.102-.157.256-.283.465-.375.209-.093.468-.14.777-.14.216 0 .426.031.631.092.21.057.389.137.54.24l-.135.316c-.156-.102-.327-.18-.507-.23-.171-.052-.35-.08-.528-.08-.332 0-.582.064-.751.192-.159.112-.251.294-.248.488 0 .15.045.27.135.364.093.089.208.158.345.208.14.047.328.099.561.156.277.067.5.134.67.202.172.065.318.165.436.3.12.132.179.313.179.541 0 .189-.052.362-.157.52-.1.153-.257.275-.47.368-.212.09-.472.134-.782.134zm9.65 0c-.373 0-.714-.082-1.02-.246-.295-.16-.54-.397-.712-.685-.17-.296-.258-.633-.254-.974 0-.36.085-.685.254-.974.173-.289.41-.515.712-.68.313-.17.664-.256 1.02-.251.352-.006.7.08 1.01.246.302.164.54.392.712.685.172.289.259.613.259.974 0 .36-.087.687-.26.98-.172.288-.41.515-.711.679-.31.167-.658.251-1.01.246zm0-.353c.299 0 .569-.066.81-.199.24-.134.43-.32.567-.556.136-.239.204-.504.204-.797 0-.293-.068-.557-.204-.792-.133-.235-.33-.428-.567-.557-.247-.137-.527-.207-.81-.203-.285-.004-.565.066-.814.203-.24.13-.437.323-.573.557-.138.241-.209.515-.205.792 0 .293.069.558.205.797.14.236.332.421.573.557.244.132.516.198.814.198zm8.995-3.082v1.471h1.954v.343h-1.954v1.589h-.399v-3.746h2.59v.343h-2.19zm9.497 0h-1.328v-.343h3.054v.343h-1.327v3.403h-.4v-3.403h.001zm13.244-.343L79.29 23.62h-.422l-1.106-3.195-1.111 3.195h-.416l-1.273-3.746h.41l1.09 3.221 1.128-3.221h.372l1.112 3.237 1.106-3.237h.383zm8.706 2.745h-2.105l-.453 1.001h-.416l1.727-3.746h.394l1.727 3.746h-.421l-.453-1zm-.146-.32l-.906-2.013-.907 2.012h1.813zm9.944 1.321l-.862-1.204c-.098.01-.199.016-.303.016h-1.015v1.188h-.399v-3.746h1.414c.482 0 .86.114 1.133.343.274.228.41.542.41.941 0 .293-.075.54-.226.744-.148.2-.36.344-.637.434l.922 1.284h-.437zm-1.176-1.525c.374 0 .66-.082.858-.247.198-.164.296-.394.296-.69 0-.303-.098-.535-.296-.696-.197-.163-.484-.245-.858-.245h-1.004v1.878h1.005-.001zm10.888 1.183v.342h-2.671v-3.746h2.59v.343h-2.19v1.332h1.953v.337h-1.953v1.392h2.271zm-76.568-7.246h-2.155V6.348h2.155v.85c.355-.31.785-.567 1.287-.769.524-.206 1.082-.309 1.645-.303.385 0 .822.054 1.31.162.49.108.944.31 1.366.606.422.297.777.708 1.066 1.234.289.526.434 1.206.434 2.042v5.862h-2.045V10.15c0-.419-.071-.772-.211-1.062-.128-.273-.318-.512-.555-.697-.231-.176-.496-.303-.778-.374-.294-.075-.596-.113-.9-.112-.274.006-.546.047-.81.122-.306.082-.595.215-.855.394-.268.183-.498.417-.678.687-.185.276-.276.617-.276 1.02v5.905zm31.032 0h-2.64l-2.751-3.475-2.774 3.475h-2.64l4.094-5.13-3.803-4.777h2.64l2.483 3.102 2.46-3.102h2.64l-3.78 4.778 4.071 5.129zm8.443-.343c-.64.183-1.27.293-1.895.333-.623.039-1.184-.036-1.683-.226-.499-.19-.904-.522-1.216-.999-.312-.476-.468-1.145-.468-2.007v-4.76h-1.637V6.347h1.637V4.184l2.269-.344v2.507h3.04v1.684h-3.04v5.054c0 .313.043.56.129.744.085.183.229.32.432.411.203.092.468.137.795.137.328 0 .725-.026 1.193-.078l.444 1.39zm3.775.098h-2.184V2.673l2.184-.357v4.797c.42-.407.918-.728 1.462-.944.556-.224 1.201-.336 1.936-.336.75 0 1.445.132 2.083.397.637.264 1.189.626 1.654 1.086.468.465.84 1.017 1.092 1.625.262.624.394 1.288.394 1.992.004.683-.13 1.36-.394 1.992-.253.608-.624 1.16-1.092 1.624-.474.467-1.037.837-1.654 1.087-.638.265-1.332.396-2.083.396-.705 0-1.339-.111-1.902-.335-.55-.216-1.057-.529-1.496-.924v1.015zm3.219-8.167c-.436 0-.849.058-1.238.172-.38.11-.731.305-1.025.57-.293.264-.522.606-.687 1.026-.165.42-.247.935-.247 1.544 0 .569.082 1.063.247 1.483.166.42.394.77.687 1.046.293.278.634.484 1.025.62.39.135.802.204 1.238.204.434 0 .847-.089 1.237-.265.383-.17.727-.416 1.013-.721.29-.311.519-.673.676-1.067.167-.413.25-.855.247-1.3.006-.875-.325-1.718-.923-2.357-.287-.3-.631-.538-1.013-.701-.39-.17-.812-.256-1.237-.254zm17.75-1.278v9.453h-2.183V14.71c-.376.433-.855.762-1.441.986-.585.224-1.178.335-1.778.335-.75 0-1.452-.128-2.105-.385-.63-.243-1.211-.6-1.71-1.055-.487-.446-.881-.982-1.16-1.579-.285-.605-.431-1.265-.427-1.933 0-.684.141-1.329.427-1.934.28-.597.673-1.134 1.16-1.58.499-.454 1.08-.812 1.71-1.055.653-.256 1.354-.385 2.105-.385.6 0 1.178.102 1.733.306.56.207 1.067.534 1.486.957l-.045-1.046h2.229zm-5.402 7.993c.435 0 .848-.086 1.238-.257.38-.165.725-.403 1.013-.7.285-.297.51-.642.675-1.036.166-.4.25-.83.248-1.263 0-.448-.083-.87-.248-1.263-.158-.385-.387-.736-.676-1.037-.287-.298-.632-.536-1.012-.7-.39-.171-.812-.259-1.238-.257-.85.002-1.662.348-2.251.957-.594.62-.924 1.443-.923 2.3 0 .446.082.867.248 1.263.158.384.387.735.675 1.035.285.297.623.53 1.012.701.39.17.812.258 1.239.257zm10.644 1.697h-2.154V6.348h2.154v.85c.356-.31.785-.567 1.288-.77.523-.205 1.081-.308 1.644-.302.385 0 .821.054 1.31.161.491.11.956.316 1.366.607.422.297.777.708 1.066 1.233.289.526.433 1.207.433 2.042v5.863h-2.043V10.15c0-.417-.07-.772-.211-1.062-.127-.272-.318-.511-.556-.697-.23-.176-.495-.303-.777-.374-.294-.075-.596-.112-.9-.11-.236 0-.506.04-.81.12-.303.081-.588.212-.855.395-.268.183-.498.416-.677.687-.185.276-.278.616-.278 1.02v5.905-.001zm11.566-.762h-2.144V2.659l2.144-.343v7.446l4.157-3.85h2.652l-4.067 3.771 4.376 5.588h-2.431l-3.338-4.298-1.349 1.25v3.048zM43.863 11.827c.066.352.284.762.502 1.058.22.296.478.552.777.77.298.217.634.384 1.005.504.378.119.773.178 1.17.177.553 0 1.067-.093 1.54-.276.474-.185.879-.428 1.214-.73l1.311 1.183c-.51.46-1.133.829-1.869 1.105s-1.541.414-2.415.414c-.728.006-1.45-.125-2.13-.385-.64-.241-1.23-.6-1.74-1.055-.491-.442-.889-.98-1.168-1.578-.285-.605-.43-1.266-.427-1.934 0-.684.135-1.329.405-1.934.26-.591.63-1.127 1.093-1.578.463-.451 1.008-.81 1.606-1.057.612-.256 1.268-.385 1.968-.385.714 0 1.373.112 1.978.336.605.224 1.13.572 1.574 1.046.444.473.79 1.075 1.038 1.805s.371 1.602.371 2.615h-6.245l1.13-1.697h2.842c-.028-.314-.11-.62-.24-.908-.13-.287-.316-.545-.547-.76-.239-.22-.517-.394-.82-.513-.313-.124-.674-.187-1.081-.187-.326-.002-.648.058-.951.177-.615.247-1.136.683-1.487 1.243-.182.29-.347.685-.404 1.026l-.006.038c-.117.666-.118.828.006 1.48z" transform="translate(-800 -220) translate(125 220) translate(503) translate(172) translate(4.344 17.97)"/>
                        </g>
                    </g>
                </g>
            </g>
        </g>
    </g>
</svg>
