<svg xmlns="http://www.w3.org/2000/svg" width="56" height="36" viewBox="0 0 56 36">
    <g fill="none" fill-rule="evenodd">
        <g stroke-width="2">
            <g>
                <g>
                    <g>
                        <g>
                            <g>
                                <path stroke="#FFF" d="M16 29H45V30H16zM45 13.235V25H15.18M4 9.082V0h41v4.954" transform="translate(-850.000000, -10640.000000) translate(-4.790000, 10320.000000) translate(246.476292, 260.000000) translate(583.313708, 0.000000) translate(25.000000, 60.000000) translate(3.000000, 2.000000)"/>
                                <path stroke="#FDAD31" d="M45 5c1.105 0 2.105.448 2.828 1.172C48.552 6.895 49 7.895 49 9c0 1.105-.448 2.105-1.172 2.828C47.105 12.552 46.105 13 45 13c-1.105 0-2.105-.448-2.828-1.172C41.448 11.105 41 10.105 41 9c0-1.105.448-2.105 1.172-2.828C42.895 5.448 43.895 5 45 5z" transform="translate(-850.000000, -10640.000000) translate(-4.790000, 10320.000000) translate(246.476292, 260.000000) translate(583.313708, 0.000000) translate(25.000000, 60.000000) translate(3.000000, 2.000000)"/>
                                <path stroke="#FFF" d="M0 9L15 9 15 33 0 33z" transform="translate(-850.000000, -10640.000000) translate(-4.790000, 10320.000000) translate(246.476292, 260.000000) translate(583.313708, 0.000000) translate(25.000000, 60.000000) translate(3.000000, 2.000000)"/>
                            </g>
                        </g>
                    </g>
                </g>
            </g>
        </g>
    </g>
</svg>
