<svg xmlns="http://www.w3.org/2000/svg" width="129" height="60" viewBox="0 0 129 60">
    <g fill="none" fill-rule="evenodd">
        <g fill="#000">
            <g>
                <g>
                    <g>
                        <g>
                            <path d="M51.688 13.53l-1.152-1.912 1.913-1.17 1.346 2.204c.976-.78 1.562-2.03 1.562-3.453 0-2.4-1.718-4.332-4.118-4.332-2.42 0-4.116 1.931-4.116 4.332 0 2.419 1.696 4.35 4.116 4.35.157 0 .312 0 .45-.02m3.472 1.347l1.308 2.147-1.932 1.17-1.424-2.341c-.605.156-1.23.254-1.874.254-3.824 0-6.828-3.103-6.828-6.907 0-3.805 3.004-6.888 6.828-6.888 3.805 0 6.849 3.083 6.849 6.888 0 2.34-1.151 4.429-2.927 5.677M66.752 10.33l-1.717-5.053-1.698 5.053h3.415zm.82 2.361h-5.034l-1.075 3.22h-2.886L63.59 2.466h2.926l4.995 13.443h-2.848l-1.092-3.219zM47.942 25.653L47.942 28.892 52.39 28.892 52.39 31.272 47.942 31.272 47.942 36.696 45.23 36.696 45.23 23.253 53.542 23.253 53.542 25.653zM61.093 31.311c-.078-1.073-.975-1.717-2.127-1.717-1.034 0-1.95.488-2.224 1.717h4.351zm2.517 1.659h-6.868c.274 1.053 1.132 1.639 2.36 1.639.918 0 1.834-.371 2.382-1.015l1.502 1.503c-.859 1.15-2.459 1.775-4.059 1.775-2.79 0-4.838-1.912-4.838-4.722 0-2.946 2.224-4.78 4.838-4.78 2.596 0 4.723 1.834 4.723 4.624 0 .254-.02.566-.04.976zM65.054 33.77h2.4c0 .527.449 1.092 1.346 1.092.742 0 1.308-.312 1.308-.839 0-.39-.312-.585-.995-.76l-1.21-.293c-2.342-.625-2.654-1.932-2.654-2.888 0-1.405 1.463-2.712 3.571-2.712 1.658 0 3.61.82 3.59 2.966H69.97c0-.605-.507-.937-1.112-.937-.586 0-1.054.293-1.054.761 0 .43.39.644.897.78l1.503.39c2.186.586 2.458 1.952 2.458 2.693 0 1.913-1.95 2.85-3.824 2.85-1.912 0-3.765-1.093-3.785-3.103M80 29.575L78.069 29.575 78.069 36.696 75.512 36.696 75.512 29.575 73.854 29.575 73.854 27.604 75.512 27.604 75.512 24.268 78.069 24.268 78.069 27.604 80 27.604zM28.454 34.909c.775 1.871-.114 4.016-1.985 4.791-1.87.776-4.016-.113-4.791-1.984-.775-1.871.113-4.017 1.985-4.791 1.87-.776 4.016.113 4.791 1.984M17.113 34.227C7.677 34.227 0 26.55 0 17.114 0 7.677 7.677 0 17.113 0c9.437 0 17.114 7.677 17.114 17.114 0 4.57-1.78 8.868-5.012 12.1-.955.955-2.503.955-3.458 0-.954-.954-.954-2.503 0-3.457 2.31-2.309 3.58-5.378 3.58-8.643 0-6.74-5.483-12.225-12.224-12.225-6.74 0-12.224 5.484-12.224 12.225 0 6.74 5.484 12.224 12.224 12.224 1.35 0 2.445 1.094 2.445 2.444 0 1.35-1.094 2.445-2.445 2.445" transform="translate(-142 -460) translate(96 140) translate(0 300) translate(46 20) translate(25 10)"/>
                        </g>
                    </g>
                </g>
            </g>
        </g>
    </g>
</svg>
