<svg xmlns="http://www.w3.org/2000/svg" width="56" height="36" viewBox="0 0 56 36">
    <g fill="none" fill-rule="evenodd">
        <g stroke-width="2">
            <g>
                <g>
                    <g>
                        <g>
                            <g>
                                <path stroke="#FFF" d="M18.94 0C13.014 0 8.19 4.71 8.19 10.5c0 .172.024.332.032.5H8.19C3.68 11 0 14.594 0 19c0 4.406 3.68 8 8.19 8h24.572C38.405 27 43 22.512 43 17S38.405 7 32.762 7c-1.284 0-2.484.297-3.615.719C27.879 3.297 23.864 0 18.94 0z" transform="translate(-1453.000000, -10640.000000) translate(-4.790000, 10320.000000) translate(246.476292, 260.000000) translate(1186.313708, 0.000000) translate(25.000000, 60.000000) translate(4.000000, 4.000000)"/>
                                <path stroke="#FDAD31" d="M33 13c1.105 0 2.105.448 2.828 1.172C36.552 14.895 37 15.895 37 17c0 1.105-.448 2.105-1.172 2.828C35.105 20.552 34.105 21 33 21c-1.105 0-2.105-.448-2.828-1.172C29.448 19.105 29 18.105 29 17c0-1.105.448-2.105 1.172-2.828C30.895 13.448 31.895 13 33 13z" transform="translate(-1453.000000, -10640.000000) translate(-4.790000, 10320.000000) translate(246.476292, 260.000000) translate(1186.313708, 0.000000) translate(25.000000, 60.000000) translate(4.000000, 4.000000)"/>
                            </g>
                        </g>
                    </g>
                </g>
            </g>
        </g>
    </g>
</svg>
