<svg xmlns="http://www.w3.org/2000/svg" xmlns:xlink="http://www.w3.org/1999/xlink" width="598" height="456" viewBox="0 0 598 456">
    <defs>
        <path id="0l6llswgma" d="M0 0L598 0 598 456 0 456z"/>
        <path id="buih3harzc" d="M0.796 0.546L9.891 0.546 9.891 16.868 0.796 16.868z"/>
        <path id="zoeb0pvi9e" d="M0 149.454L350.425 149.454 350.425 1.316 0 1.316z"/>
    </defs>
    <g fill="none" fill-rule="evenodd">
        <g>
            <g>
                <g>
                    <g transform="translate(-1322 -9052) translate(-5 9012) translate(101 40) translate(1226)">
                        <mask id="2avi5uvq9b" fill="#fff">
                            <use xlink:href="#0l6llswgma"/>
                        </mask>
                        <path stroke="#C62354" stroke-width="2" d="M352-289.43c-2.278 0-4.552-.005-6.83-.005-.054.945-.112 1.895-.17 2.84 2.129.345 4.249.69 6.373 1.03.208-1.285.42-2.575.627-3.865h0zM161 394.406c-1.188-.85-2.985-2.657-3.455-2.377-1.797 1.05-3.303 2.682-4.534 4.356-.174.238 1.74 1.904 3.36 3.615 1.931-2.335 3.276-3.967 4.629-5.594h0zM311.875-262c-5.628 3.427-5.628 3.427-6.875 9 4.165-1.407 7.717-3.239 6.875-9h0zm-34.833 42c2.75-2.42 7.938-2.245 6.797-9L275-221.929c.682.64 1.36 1.285 2.042 1.929h0zM47.575 42c-2.75 3.53-4.998 6.413-8.575 11 9.568-3.452 9.568-3.452 8.575-11h0zm297.293-317.918c.367-.8-.08-2.708-.757-3.08-5.035-2.778-7.235.624-10.111 5.275 5.319 2.709 8.757 2.4 10.868-2.195h0zM250.45 110.494c1.334-.74 1.463-3.001 2.55-5.482L240 105c1.448 6.106 4.18 8.983 10.45 5.494h0zM342.47 49c-3.457 4.772-3.48 8.312 1.174 13 2.483-4.878 4.183-8.452-1.174-13h0zM382-310.985c9.748 2.823 13.184-.703 15-7.015l-15 7.015h0zM415 411c-1.486-7.049-3.823-11.231-11-13 .244 3.171.421 5.444.599 7.711l2.998 2.556c2.085.766 4.17 1.537 7.403 2.733h0zm-92.988-670.012c8.806.387 8.144-8.405 12.988-12.988-11.852.199-13.15 1.58-12.988 12.988h0zM385.483 36.55c-4.313 4.194-2.48 7.125 1.484 10.45 3.492-2.789 6.697-5.356 11.033-8.823-4.574-4.385-8.097-5.928-12.517-1.627h0zM321-248.847c-4.06.29-8.121.544-12.657.824-.859 5.123-1.603 9.54-2.343 13.958l2.52 1.065c4.139-5.333 8.283-10.667 12.423-16 0 0 .057.114.057.153h0zM227.923 358c6.207-6.295 5.172-13.544 4.72-21-8.862 6.896-9.424 9.32-4.72 21h0zM521 454c-5.988 1.875-13.368.842-17 10.068 13.446 2.471 16.785.33 17-10.068h0zm-103.73-.86c-4.41.117-9.53-5.784-14.27 1.525 9.57 2.77 17.919 9.491 28 1.683-3.942-4.989-9.263-3.327-13.73-3.209h0zM266.106 94c-4.827 2.162-8.943 4.01-13.105 5.878 4.414 8.709 4.414 8.709 14.362 11.122 5.35-5.759 1.325-10.726-1.257-17h0zM302 414c-10.52 4.707-21.776-3.266-34 4.372 11.72 5.26 21.288 9.554 32.59 14.628.552-7.431.939-12.618 1.41-19h0zm-64.672-23.77c1.864-8.615 3.813-17.983-3.992-26.23-3.664 2.471-6.892 4.65-9.31 6.283L224 396.78c6.743.944 12.155-1.12 13.328-6.55h0zM11.374 188c9.71-4.056 19.23-8.176 28.868-12.006 4.884-1.944 7.981-4.513 8.12-10.405.15-6.726 2.622-13.59 1.783-20.094-1.091-8.465 8.195-10.51 8.74-17.387.063-.78.126-1.559.113-1.437-4.326-9.203-10.955-13.98-20.547-14.583-11.543-.721-15.932 2.9-17.212 14.503-.206 1.844-.894 3.63-1.498 5.98-2.455-.121-4.393-.377-6.32-.289-8.29.386-8.937 1.521-6.918 10.22.591 2.561.432 5.294.616 7.976 2.115.762 4.234 1.53 5.908 2.133-.596 5.372-1.107 10.007-1.653 14.918-13.813 7.501-13.85 11.495 0 20.471h0zm48.234-5.062c10.387 2.298 18.914 4.178 27.441 6.066-13.42 3.49-20.458 12.812-26.93 25.996 10.51-4.05 18.742-8.33 27.512-10.296 9.503-2.131 19.496-2.563 29.298-2.883 8.353-.274 15.202-1.88 18.741-10.728-2.676-1.046-4.671-1.828-7.17-2.802 8.18-7.083 15.276-14.025 9.248-25.244-13.72-1.841-14.136-1.828-14.535-15.512-.26-9.057-4.84-15.584-10.882-21.258-4.211-3.956-6.141-8.057-6.618-13.79-.99-11.919-5.452-15.837-17.853-17.332C91.634 83.1 95.377 71.13 99.55 57.787c-9.1-.914-16.153-1.619-24.84-2.49 4.107-6.443 7.23-11.343 10.978-17.217-3.488-.004-5.496-.196-7.456.03-4.862.56-11.49-.376-14.157 2.363-4.905 5.028-10.887 12.64-10.219 18.493 1.05 9.185-.728 16.115-5.478 23.33-.893 1.359.03 3.96.373 5.943.079.478 1.18.786 2.104 1.35l6.406-8.519c.772 9.275-6.51 16.029-1.965 24.543 2.377-2.49 4.29-4.502 6.302-6.613 8.389 7.737.681 14.816-.225 23.142 6.675.004 12.526.009 16.586.013 3.24 6.737 5.178 12.081 8.219 16.73 2.997 4.588 1.99 7.809-2.056 10.346-4.142 2.606-8.675 4.61-13.762 7.254 4.198 11.06-1.497 19.237-10.752 26.453h0zm259.78-431.274c-.594 2.72-1.184 5.443-1.842 8.465 2.739 1.078 5.08 2.001 8.592 3.39-4.234 3.58-11.104 3.412-10.061 10.253.072.466-2.252 1.582-3.585 1.937-9.113 2.437-10.826 6.298-6.425 15.122-1.799 2.907-8.212 2.864-5.947 8.841.243.629-2.367 2.86-3.99 3.596-10.93 4.925-14.3 15.575-20.722 24.323 3.534 2.155 5.713 3.484 9.241 5.639-4.323 1.616-7.186 2.685-9.1 3.399-2.243 7.093-5.421 13.16-5.823 19.406-.512 8.046-7.374 10.453-10.92 15.686-1.14 1.693-3.294 3.121-3.584 4.896-1.244 7.627-7.883 11.15-11.873 16.652-3.303 4.545-6.567 9.184-9.199 14.13-2.012 3.78-4.22 5.947-8.561 7.534-9.51 3.463-17.38 10.235-23.19 18.268-2.44 3.378-3.833 6.093-7.926 8.491-13.735 8.064-15.884 15.96-10.727 31.784 5.344-.432 10.779-.873 16.213-1.317.141.752.286 1.505.432 2.257-5.46 1.633-10.92 3.27-16.325 4.887l4.212 15.092c2.897-.47 5.845-.958 8.4-1.377-.859 9.218-13.01 12.711-11.685 23.656 3.354-.89 5.567-1.48 9.955-2.642-3.41 5.926-5.866 10.201-8.6 14.964 4.173 4.066 5.43 11.826 13.902 10.774 1.072 10.953 2.79 12.189 11.33 7.653 7.647-4.062 14.632-8.974 18.567-17.175.855-1.778 2.158-4.698 3.341-4.74 9.305-.334 12.941-6.688 16.013-14.691 4.14 16.464 13.872 30.039 15.107 47.367.889 12.411 7.233 24.695 12.458 36.443 3.858 8.667 12.001 8.457 18.273.838 2.008-2.445 4.362-6.182 6.823-6.404 9.501-.868 12.01-7.542 13.646-14.866 2.02-9.064 4.93-18.333 4.622-27.422-.401-11.86 5.486-17.85 14.595-22.835 2.7-1.48 5.408-3.519 7.194-5.968 7.934-10.886 5.576-26.127-6.613-34.268-7.114-4.754-9.622-10.641-7.554-17.495 2.94-9.747-4.934-22.373 7.853-29.628 1.397-.795.863-4.669 1.636-6.973.893-2.664 1.623-5.81 3.503-7.632 6.7-6.481 14.197-12.155 20.764-18.764 7.912-7.97 17.123-15.542 14.29-29.09-.448-2.125.637-4.861 1.705-6.96 3.786-7.44 7.874-14.725 11.318-21.095 5.682-.92 9.71-1.39 13.663-2.25 9.518-2.073 18.717 2.091 21.96 10.805 1.93 5.199 2.11 11.89-3.307 14.198-5.422 2.313-5.324 6.606-7.263 10.325-2.247 4.306-3.944 9.09-6.99 12.737-6.925 8.281-14.051 16.52-21.98 23.81-9.926 9.123-13.963 19.213-9.605 32.373 2.674 8.08 4.708 16.165 2.444 25.015-2.205 8.615 2.251 14.562 9.835 18.64 4.08 2.198 7.792 5.084 12.214 8.021 19.576-1.872 37.024-16.054 58.946-14.121.444 5.955 4.041 7.691 9.946 7.323 5.28-.329 9.463 1.565 7.8 7.251-7.873 2.194-16.255 2.125-20.536 6.281-6.567 6.379-12.557 5.349-20.046 4.588-13.454-1.369-26.698-.633-35.396 12.056 1.093 3.89 1.606 7.589 3.165 10.766 1.705 3.475 4.452 6.434 6.623 9.696 3.499 5.255 3.302 17.025-.282 22.365-2.252 3.356-6.388 3.775-9.19.355-3.337-4.07-6.105-8.607-9.122-12.946-9.6 1.415-18.486 3.074-16.375 15.985.06.368-.069.924-.32 1.159-7.469 6.909-4.278 14.819-2.257 22.685.915 3.557 1.555 7.2 2.085 10.843.705 4.784-1.136 7.982-6.195 8.739-2.367.354-4.755.581-7.083.859-.453 1.676-1.038 2.83-1.03 3.985.051 6.25-5.02 6.896-9.147 8.003-3.777 1.018-6.336-.24-8.626-4.438-3.362-6.16-9.019-6.55-15.636-3.412-11.869 5.627-21.999 15.208-37.264 15.866-2.644-3.33-5.853-7.37-10.155-12.783-4.678 2.215-9.916 4.853-15.295 7.166-2.495 1.073-5.734 2.787-7.823 2.018-9.548-3.54-18.418-8.038-21.485-19.287-1.342-4.9-1.222-8.482 2.845-11.984 5.255-4.523 10.087-9.542 15.304-14.54-5.418-4.408-10.6-8.62-15.573-12.664 2.375-1.377 5.46-3.164 8.737-5.058-.227-3.625-.427-6.785-.624-9.889-1.384-.094-2.41-.496-2.952-.15-4.093 2.613-8.105 5.362-12.12 8.098-13.963 9.5-17.453 25.824-10.498 41.343 3.538 7.905 4.58 16.99 6.298 25.635.97 4.866-2.372 8.915-6.511 8.7-7.797-.397-13.727 4.148-20.661 5.713-11.878 2.68-11.75 2.535-10.348 14.382.2 1.693-1.978 3.673-3.614 6.477-1.111-2.321-1.594-3.322-2.077-4.322-.594-1.248-1.187-2.497-2.37-4.994-7.55 8.73-11.827 17.478-13.446 26.923-7.626 3.6-14.616 6.746-21.438 10.226-1.68.86-3.829 2.672-4.025 4.263-1.363 10.89-10.6 14.699-17.508 20.804-5.353 4.724-10.002 6.203-16.235 1.778-1.79-1.27-5.028-.5-8.758-.748 1.273 3.211 2.17 5.007 2.696 6.91.897 3.253 1.559 6.575 2.32 9.867-4.175.487-8.344 1.201-12.531 1.334-1.423.043-2.858-1.937-4.34-2.014-2.633-.137-5.405.111-7.93.86-3.393 1.008-6.597 2.637-9.95 4.031-.966 10.36 6.365 12.942 14.11 15.144 7.405 2.103 15.702 3.035 15.732 13.818.004 1.56 2.025 3.475 3.567 4.604 4.37 3.194 5.746 7.067 5.571 12.587-.145 4.6 2.038 9.265 3.033 13.93.312 1.453.423 3.086.094 4.514-1.183 5.165-2.396 10.342-3.956 15.404-2.678 8.722-5.02 10.069-14.389 8.953-6.443-.77-12.898-1.458-19.332-2.339-9.856-1.347-19.533-4.87-29.706-.808-2.11.842-5.43-1.235-8.156-2.095-2.619-.83-5.19-1.83-7.348-2.595-3.734 3.07-6.626 5.917-9.955 8.08-5.314 3.46-5.789 7.748-2.44 12.472 2.846 4.014 3.786 7.905 2.188 12.642-.585 1.74-.547 4.135.176 5.806 4.31 9.923 1.875 19.355-2.449 28.26-3.58 7.384-6.408 13.908.295 21.18 1.504 1.634.688 5.499.765 8.342.098 3.609.017 7.221.013 12.48 5.84-.39 11.163.222 15.778-1.308 5.37-1.783 9.087-1.172 10.851 4.01 2.427 7.127 7.699 9.94 14.214 11.813 6.823-5.195 13.655-11.202 22.246-8.568 8.865 2.72 14.744.842 20.157-6.349 2.354-3.13 6.554-4.805 9.54-7.555 2.55-2.351 4.533-5.314 6.819-7.965 6.05-7.011 6.67-15.186 6.268-24.083-.56-12.454 7.579-24.036 17.995-27.397 15.628-5.036 15.82-5.288 17.187-22.172.876-10.787 5.31-13.818 15.936-12.125 7.075 1.125 14.85 2.886 21.387 1.052 7.981-2.232 16.017-6.79 22.212-12.36 14.334-12.895 25.305-4.9 29.18 8.97.872 3.125.453 7.097 2.256 9.393 8.69 11.039 18.593 20.718 30.953 27.96 10.258 6.008 19.76 13.323 29.48 20.236 1.183.842 2.2 2.71 2.293 4.173.393 6.14 4.585 12.45-1.354 18.444-1.47 1.475-.752 5.118-1.128 8.59 10.882-1.933 10.707-12.699 17.61-16.718-.9-2.21-1.251-3.865-2.153-5.121-3.225-4.507-6.331-9.496-1.862-14.297 4.426-4.759 8.925-.526 13.146 1.765 1.619.877 3.405 1.45 5.895 2.484 1.047-7.836-4.78-9.722-8.343-13.104-6.764-6.413-18.055-6.866-22.204-16.905-.393-.944-2.862-1.107-4.4-1.492-10.087-2.5-17.615-7.601-21.417-18.02-2.487-6.82-6.473-12.938-13.108-17.145-4.956-3.142-6.908-12.933-4.302-18.82 2.503-5.656 7.42-6.918 13.013-6.358l6.58 10.655c2.345-1.3 4.28-2.382 6.357-3.536 2.734 4.066 6.1 7.136 7.02 10.817 2.106 8.43 8.33 12.869 14.645 17.26 9.267 6.438 18.918 12.317 28.219 18.704 5.387 3.703 11.68 7.704 10.164 15.396-1.897 9.637.465 17.529 6.118 25.212 3.58 4.878 6.485 10.338 9.083 15.827 2.255 4.776 5.284 6.713 10.6 6.08 3.943-.47 8.59-1.881 12.274 3.724-3.448.44-5.802.684-8.135 1.056-2.337.376-4.652.872-6.964 1.312 3.264 18.996 7.075 22.716 20.144 19.552-2.033-7.435 1.043-12.903 7.208-17.046 3.294-2.215 3.61-5.19 1.73-8.53l-2.888-2.54c-4.836-1.654-8.946-3.42-8.417-10.123.257-3.271-2.063-6.713-2.999-10.133-.722-2.634-1.282-5.344-1.5-8.055-.05-.662 1.534-1.458 2.94-2.698 2.354 2.985 4.465 5.657 6.391 8.094 3.397-1.04 5.858-1.792 8.374-2.561-1.11-3.079-2-5.533-3.636-10.064 11.01 1.808 21.533-6.79 29.77 5.057 4.37-2.129 8.592-4.745 13.176-6.263 4.79-1.586 9.929-2.116 17.166-3.557-3.935-4.515-7.058-7.5-9.416-11-1.68-2.49-3.042-5.606-3.298-8.547-.479-5.554 9.373-35.726 12.547-40.116 1.192-1.655 2.654-3.117 3.867-4.759 1.196-1.612 2.662-3.198 3.277-5.04 3.704-11.15 10.826-18.876 22.502-23.485 4.213 10.158 17.265 2.334 22.823 11.646-3.243 2.518-6.003 4.664-8.263 6.417 2.658 4.088 5.623 7.243 6.96 10.984 2.743 7.678 5.071 8.99 12.373 5.224 6.626-3.424 13.218-6.917 20.255-10.603-8.477-4.078-16.927-8.136-25.378-12.197 10.373-1.07 14.368-12.284 24.737-12.617 8.933-.287 17.743-4.412 26.608-6.845-3.238 4.562-7.964 6.93-4.64 13.314.722 1.393-.769 4.69-2.166 6.302-3.294 3.8-7.147 7.11-11.62 11.436 3.823 3.639 7.002 8.79 11.462 10.42 7.075 2.586 11.223 7.738 16.188 12.543 5.242 5.07 10.591 10.851 17.05 13.639 8.806 3.8 10.04 11.42 12.156 18.508.73 2.454-1.859 7.35-4.345 9.004-4.273 2.839-9.523 4.776-14.607 5.66-4.649.813-9.699-.91-14.445-.397-10.937 1.184-20.238-1.937-29.761-7.324-7.024-3.976-15.59-5.686-23.695-7.17-11.338-2.077-21.763 1.762-31.38 7.62-3.99 2.428-7.682 3.424-12.582 2.611-4.793-.795-9.946.565-16.06 1.07l4.88 10.718c-3.794.872-6.448 1.812-9.156 2.035-4.845.393-9.784-.069-14.577.594-9.378 1.287-13.134 8.354-8.874 16.601 3.49 6.751.61 12.07-3.811 16.798 6.315 4.956 6.315 4.956 8.916 22.694 2.61.004 5.281.009 8.724.009-.692 4.087-1.26 7.452-2.08 12.304 4.456-3.728 7.78-6.507 11.048-9.243 9.98 8.17 13.962 4.34 26.903-4.75 3.136 2.146 6.853 4.023 9.715 6.793 5.794 5.61 12.45 5.618 19.405 3.763 4.311-1.146 8.494-2.865 12.6-4.643 5.006-2.168 9.894-3.694 15.555-.214-.274 21.646-2.465 42.792-11.967 62.865-7.267 15.345-22.455 22.527-37.626 15.015-6.964-3.445-12.21-3.227-18.162.603-7.814 5.028-15.718 4.75-24.45 1.903-7.242-2.364-15.116-3.694-22.734-3.81-11.74-.17-20.374-7.443-29.282-12.791-4.884-2.93-8.096-9.064-14.98-7.769-5.874 1.099-12.06 2.317-17.208 5.135-10.104 5.537-10.24 6.203-7.31 17.538 1.265 4.908-.141 7.72-3.687 10.513-4.952 3.899-9.762 3.45-14.641.038-8.52-5.96-17.867-9.384-28.245-10.765-2.875-.38-6.776-3.66-7.673-6.43-3.546-10.984-11.783-14.438-21.703-13.609-13.206 1.107-23.81-4.93-34.593-10.594-9.323-4.9-9.955-9.35-2.346-16.585 4.58-4.352 6.379-9.889 3.371-14.194-4.64-6.635-3.384-12.694-.897-19.085-8.51-4.955-15.842-7.61-24.37-1.09-2.661 2.035-7.852 1.034-11.872.91-2.367-.073-4.943-2.12-7.016-1.612-12.765 3.156-25.48 3.95-38.634 2.578-5.32-.551-11.036 3.724-16.534 3.634-13.625-.218-24.13 5.614-34.465 13.643-5.605 4.353-12.655 7.747-19.555 9.26-6.549 1.433-13.885.582-20.626-.632-5.43-.98-10.89-3.356-15.624-6.272-6.742-4.156-6.802-3.925-10.895 3.373-6.169 11.014-10.719 23.314-25.006 27.931-5.532 1.792-11.578 7.504-13.765 12.904-3.572 8.807-7.25 18.136-5.618 28.478.572 3.621-1.226 7.995-2.948 11.535-5.516 11.313-15.735 17.101-26.813 21.757-3.303 1.39-7.255 2.548-9.425 5.088-7.126 8.337-14.026 16.943-20.136 26.041-6.092 9.06-11.291 18.744-16.55 28.333-3.73 6.786-7.25 13.737-10.173 20.894-1.299 3.177-2.542 8.325-.957 10.385 6.2 8.076 4.956 17.829 7.763 26.49 3.375 10.415 2.281 19.552-.615 29.595-3.572 12.394-11.591 24.707-3.269 38.35.855 1.402.257 4.177-.483 5.977-2.704 6.593 1.026 9.436 5.935 12.694 4.947 3.287 9.237 7.653 13.5 11.864 3.179 3.142 5.567 7.097 8.806 10.163 7.933 7.507 13.65 16.43 16.598 26.81 1.4 4.93 3.79 7.756 8.412 9.423 11.873 4.28 20.72 12.626 29.475 21.399 4.422 4.433 10.27 7.734 15.974 10.517 9.446 4.613 19.037 1.381 28.697-.385 12.369-2.261 25.198-5.729 37.336-4.343 10.185 1.163 18.076-1.642 26.783-4.665 11.16-3.878 22.319-8.076 33.812-10.62 12.227-2.71 25.6-3.168 33.016 9.205 7.797 13.006 19.02 13.515 31.539 12.8 1.627-.094 3.293-.132 4.904.082 10.267 1.347 20.456 12.411 19.82 22.753-.646 10.522-.235 22.019-4.44 31.185-5.412 11.796-1.307 19.244 5.234 27.623 6.007 7.696 11.74 15.614 17.38 23.588 4.661 6.6 9.126 13.356 13.428 20.201 1.226 1.954 1.636 4.438 2.333 6.704 1.063 3.488 1.345 7.435 3.208 10.402 3.696 5.891 4.721 12.06 4.217 18.752-.598 7.905.807 15.391 4.362 22.552 5.135 10.33.991 18.543-5.896 26.465-3.354 3.856-5.926 8.568-8.1 13.24-2.047 4.409-2.875 9.36-4.631 13.922-4.426 11.5-5.136 23.685-1.62 34.917 4.444 14.211 10.733 28.042 17.829 41.167 5.558 10.287 9.13 20.723 10.57 32.168 4.088 32.605 18.413 61.425 33.649 89.856 1.52 2.84 4.105 5.092 5.784 7.871 5.828 9.624 10.792 19.89 7.242 31.275-2.256 7.23-.184 11.774 4.845 16.127 3.093 2.676 6.31 5.228 9.22 8.093 4.203 4.138 8.326 3.8 13.32 1.223 4.615-2.373 9.652-4.614 14.714-5.272 9.669-1.257 19.563-.774 29.219-2.09 8.741-1.198 18.268-2.066 25.72-6.191 16.845-9.338 30.44-23.032 42.659-37.932 1.004-1.227 2.063-2.732 2.281-4.224 1.508-10.342 8.46-17.704 14.556-25.148 9.296-11.346 12.92-24.143 12.321-38.256-.269-6.349 1.974-10.141 7.502-12.304 3.406-1.33 6.905-2.955 10.463-3.262 8.105-.71 11.147-5.82 12.283-12.797.59-3.608.722-7.31.88-10.975.539-12.42-1.794-24.305-5.912-36.045-3.188-9.077-1.803-11.954 4.648-17.123 7.925-6.354 15.547-13.1 23.579-19.317 3.14-2.432 6.853-4.925 10.62-5.596 12.168-2.172 19.7-8.97 23.165-20.821-4.973-13.587-4.673-13.425 2.581-26.841 2.2-4.07 3.025-9.303 3.085-14.015.08-6.49-.752-13.078-2-19.461-.726-3.741-2.085-8.329-4.785-10.526-7.733-6.285-8.916-14.473-8.045-23.147.927-9.205 1.244-17.854-6.639-23.917 5.247-12.71 10.173-24.716 15.201-36.687.444-1.065 1.376-2.086 2.346-2.74 12.291-8.222 20.934-19.98 29.735-31.433 10.151-13.207 23.267-22.83 37.088-31.356 7.51-4.63 14.236-9.526 18.862-16.956 12.497-20.056 25.434-39.872 37.02-60.45 6.443-11.445 7.682-24.498 5.016-38.094-3.059-.004-5.161-.461-6.981.06-20.614 5.947-41.147 12.19-61.808 17.961-3.644 1.018-8.903 1.813-11.475-.017-5.495-3.908-9.716-9.607-14.565-14.682 1.97-2.296 3.97-4.621 7.793-9.063-2.922-1.792-5.567-3.045-7.767-4.836-5.012-4.091-9.835-8.422-14.688-12.702-4.845-4.271-9.01-9.846-14.582-12.642-10.899-5.469-16.465-14.353-18.798-25.405-2.06-9.748-7.088-17.14-14.667-22.984-6.127-4.72-8.237-10.83-7.942-18.248.162-4.083.478-8.29-.27-12.253-.884-4.694-1.473-10.761-4.588-13.48-9.702-8.461-15.602-18.38-17.025-31.1-.086-.765-.667-1.483-1.013-2.223-3.828-8.136-7.066-16.627-11.629-24.327-5.72-9.653-8.562-20.885-17.534-28.88-5.152-4.596-3.405-11.54-1.209-19.406 1.662 2.497 2.829 3.442 2.726 4.211-1.295 9.346 4.913 15.234 9.972 21.518 1.328 1.646 4.69 3.622 5.836 3.015 2.046-1.082 3.558-3.835 4.49-6.208 1.162-2.95 1.512-6.221 2.209-9.355.726.163 1.452.325 2.179.483l-.013 13.062c2.866 2.847 6.084 5.015 7.882 8.025 5.61 9.384 8.118 20.56 16.483 28.4.756.71 1.012 2.288.987 3.451-.227 9.393 5.2 14.904 12.548 19.547 7.275 4.6 11.71 10.779 11.368 20.261-.162 4.588 1.538 9.92 4.093 13.797 8.08 12.279 20.542 21.63 24.152 36.956.363 1.552 3.456 2.275 4.571 3.874 2.995 4.31 7.084 8.585 8.079 13.425 2.598 12.668 4.614 25.413 7.9 37.99 2.93 11.24 7.698 15.277 19.046 11.92 5.336-1.581 10.215-4.68 15.525-6.387 13.057-4.198 27.036-5.955 37.695-16.037 2.205-2.082 5.806-2.826 8.89-3.805 6.2-1.97 12.72-3.138 18.658-5.69 3.82-1.642 7.716-4.558 10.04-7.957 4.712-6.9 10.591-10.71 18.824-12.262 7.485-1.415 16.705.137 20.849-9.269.235-.539 1.435-.675 2.209-.945 10.723-3.745 15.137-13.852 21.737-21.719 3.811-4.54 6.823-9.82 10.997-13.955 6.648-6.584 13.565-12.792 17.154-22.227-4.93-4.323-9.92-7.91-13.885-12.399-3.606-4.087-7.105-6.674-12.783-7.892-11.13-2.39-15.24-8.68-15.705-20.231-.116-2.989-.564-5.965-.996-10.296-8.942 7.73-17.687 13.4-23.852 21.125-6.896 8.636-15.124 8.294-24.135 7.82-5.908-.312-8.967-3.074-8.587-9.355.29-4.89.517-9.863-.081-14.694-.252-2.04-2.704-3.801-5.648-7.623-1.337 7.101-2.166 11.492-3.273 17.362-6.442-4.968-11.45-8.628-10.775-16.469.197-2.249-.299-4.98-1.495-6.84-4.353-6.755-9.117-13.246-13.77-19.808-3.7-5.225-7.46-10.407-11.428-15.935 2.858-3.352 4.866-6.524 7.622-8.781 7.596-6.238 16.406-3.87 22.938 3.608 8.767 10.043 11.052 26.029 26.792 29.83.965.23 1.555 1.83 2.426 2.693 7.703 7.632 29.36 11.385 39.015 6.78 9.775-4.664 11.954-4.296 14.368 5.713 1.765 7.332 5.687 10.303 12.437 11.201 12.048 1.604 24.228 2.617 36.097 5.097 18.717 3.912 37.353 2.086 56.002.585 6.293-.509 9.488.595 13.671 6.456 8.493 11.894 16.389 26.183 34.456 26.089.244 0 .496 1.26 1 2.629-3.653 1.06-7.246 2.103-11.407 3.318 3.187 10.8 10.937 16.272 19.247 20.244 7.844 3.745 16.222-1.805 18.209-10.595.542-2.398 1.209-4.771 2.161-8.5 1.654 2.574 2.722 3.49 2.816 4.494.927 10.116 1.384 20.278 2.572 30.36 1.811 15.391 4.383 30.607 10.839 44.955 4.336 9.633 7.972 19.586 11.8 29.44 2.209 5.691 3.948 11.578 6.314 17.205 5.029 11.954 10.357 23.78 15.496 35.687 1.29 2.992 1.876 6.378 3.589 9.076 3.422 5.392 11.035 8.294 16.444 1.685 3.593-4.4 9.344-7.623 11.429-12.523 2.81-6.593 10.373-9.893 10.633-18.08.513-16.213 1.44-32.43 2.906-48.577.312-3.455 2.854-8.025 5.742-9.676 9.125-5.216 17.96-10.26 23.912-19.495 2.324-3.6 6.532-6.02 10.001-8.83 4.427-3.578 10.989-6.1 13.052-10.692 4.418-9.846 12.326-13.651 21.298-16.836 5.195-1.843 8.139-4.934 7.588-10.967-.402-4.37 1.264-8.606 5.908-9.551 6.934-1.41 13.022-5.686 21.161-3.395 8.323 2.343 14.552-3.399 16.889-12.458.363-1.411 1.734-2.561 2.743-3.972 6.224 2.403 9.843 6.28 11.167 12.424 2.337 10.834 4.572 21.715 16.193 27.158 1.482.692 2.187 3.18 3.097 4.92 2.05 3.925 4.178 7.82 5.956 11.869 1.427 3.258 2.909 6.644 3.443 10.111 1.278 8.35 2.012 16.786 2.978 25.285 14.005 3.207 22.524-4.147 30.205-12.68 7.396 3.296 9.297 8.708 9.579 15.955.35 8.876 1.38 17.734 7.254 25.439 2.218 2.907 2.884 7.7 2.752 11.582-.504 14.656-1.855 29.282-2.393 43.938-.196 5.271-.7 10.026 5.174 14.788 7.31 5.935 14.197 14.554 16.961 23.365 3.136 10.009 6.87 19.872 9.715 29.962 1.812 6.43 5.512 10.766 10.416 14.58 2.876 2.24 6.332 3.941 8.669 6.63 5.464 6.31 12.381 8.051 20.306 8.846-.576-9.389-3.422-16.725-8.933-23.19-1.68-1.97-2.871-5.062-2.893-7.652-.12-17.252-8.813-29.432-22.626-38.312-7.976-5.122-13.564-11.59-16.175-20.727-.65-2.28-1.593-4.746-3.136-6.456-9.42-10.466-10.048-18.547-2.935-29.945 2.705-4.327 4.64-9.389 5.764-14.378 1.2-5.349 2.836-9.32 8.843-9.556 3.59 3.344 6.516 7.739 10.583 9.509 7.417 3.224 11.92 8.44 14.594 15.592 2.649 7.093 6.938 12.112 14.923 12.527 6.507.338 8.19 4.036 8.028 9.8-.107 3.826.402 7.67.773 13.74 8.93-7.293 15.932-13.193 23.14-18.828 3.413-2.668 7.044-5.17 10.885-7.157 9.199-4.767 18.67-9.073 17.457-22.079-.145-1.551.854-3.172.936-4.78.692-13.471 1.025-26.862-8.639-38.008-9.25-10.671-18.371-21.454-27.642-32.108-6.853-7.87-6.814-16.067.312-23.343 2-2.04 4.802-3.758 5.823-6.217 3.743-9.004 12.774-9.662 19.922-12.497 7.741-3.07 11.685.163 14.795 8.722.479 1.321 1.987 2.266 3.777 4.207 6.272-9.102 15.829-12.06 24.967-14.553 7.52-2.048 12.424-5.332 15.188-12.433.628-1.612 2.363-2.788 4.354-5.028 1.961 2.633 2.96 5.079 4.768 6.118 2.127 1.227 5.374 2.347 7.404 1.573 7.472-2.839 14.876-6.05 21.849-9.949 5.925-3.317 13.79-6.618 16.204-11.992 3.944-8.773 11.95-11.873 17.65-17.918 1.619-1.719 3.947-3.66 4.148-5.674 1.235-12.445 9.352-21.428 16.333-30.36 5.037-6.446 4.982-14.296 9.267-20.654 1.14-1.684.205-6.05-1.337-7.853-1.227-1.45-4.832-.796-7.353-1.253-.987-.184-1.884-.868-4.435-2.108l12.04-10.073c.012-9.666-.607-18.824-8.434-25.665-1.29-1.124-1.256-3.805-1.764-5.789-2.222-8.662-3.828-17.422-14.18-21.039-2.389-.834-5.499-7.166-4.61-8.482 3.516-5.195 8.485-9.398 12.915-13.964 11.809 2.117 15.304-11.308 24.87-13.476.123-.03-.227-2.176-.377-3.514-6.904-1.355-13.74-4.07-20.345-3.604-6.45.461-12.667 4.172-19.413 6.614-2.478-4.793-3.204-10.163-9.365-10.813-1.512-.162-2.93-2.689-4.106-4.335-4.375-6.11-3.717-9.812 3.32-11.924 4.9-1.475 7.724-4.117 9.745-8.32 4.995-10.368 16.645-12.322 24.49-19.132 1.473-1.279 6.873-.766 7.74.624 1.38 2.21 1.265 6.126.334 8.816-1.12 3.24-3.76 5.96-5.69 8.828 2.148 3.198 3.934 5.853 6.109 9.081 4.366-2.394 8.634-4.053 12.073-6.76 9.34-7.348 18.46-7.802 28.168-.174.487 3.3 2.008 7.097 1.281 10.397-.803 3.664-3.657 6.884-5.434 9.97 2.277 6.568 7.34 4.763 11.59 4.922 4.944.188 9.353 1.33 8.87 7.443-.91 11.5-2.367 22.955-3.388 34.447-.525 5.943 3.286 8.623 9.374 6.866 4.682-1.347 9.369-2.685 13.987-4.215 8.14-2.702 15.906-11.895 14.855-18.923-1.38-9.218-3.328-18.444-6.1-27.333-2.538-8.123-5.683-16.234-14.787-20.064-1.752-.736-3.615-5.4-2.841-7 1.375-2.847 4.353-5.698 7.318-6.861 11.766-4.622 19.743-11.428 21.708-25.092.756-5.298 5.836-10.535 10.087-14.61 4.191-4.023 9.822-6.54 14.979-9.82 5.874 2.086 12.236 4.348 17.226 6.122 5.02-2.894 8.75-4.608 11.97-7.007 4.128-3.078 8.306-6.306 11.647-10.171 7.716-8.936 14.646-18.555 22.494-27.363 3.905-4.382 6.891-8.5 7.942-14.562 1.547-8.897 4.87-17.447 11.971-23.591 15.039-13.006 18.427-30.719 17.602-48.778-.5-10.932 1.419-19.966 6.828-28.979 6.395-10.654 6.147-11.847-2.013-22.24 5.264-2.437 4.674-6.708 1.53-9.88-7.477-7.543-10.352-21.36-25.873-19.514-1.782 6.012-2.816 13.344-12.326 11.98l-2.12-10.62c-3.174.577-5.733 1.047-8.155 1.492-1.316-3.694-2.401-6.738-3.674-10.316-4.042-.488-8.11-.684-12.023-1.582-1.739-.398-4.507-2.313-4.426-3.348.158-1.937 1.62-4.416 3.294-5.481 12.168-7.738 23.13-16.683 30.966-29.013 2.55-4.019 4.127-9.68 7.767-11.8 15.475-9.012 20.413-27.354 34.375-37.495.885-.646 1.312-2.074 1.705-3.22 2.388-6.943 8.006-10.688 14.453-11.885 10.297-1.915 20.84-2.475 30.48-3.523 2.22 3.527 3.57 5.66 5.771 9.154 4.913-6.418 10.74-6.195 17.017-5.776 7.549.504 15.842 1.88 20.49-7.05.585-1.133 2.811-2.151 4.161-2.027 8.681.825 17.329 1.98 27.095 3.164-2.162 5.113-3.554 8.397-5.37 12.68 5.31-.341 9.215-.316 13.026-.919 4.106-.645 8.118-1.88 13.018-3.06l6.729 4.065c4.64-3.613 8.596-6.69 14.56-11.33-5.73-2.373-9.617-3.984-13.774-5.712.457-1.697.427-3.59 1.35-4.677 8.271-9.773 16.769-19.359 25.049-29.124 1.482-1.748 2.773-3.967 3.298-6.174 2.2-9.256 4.96-11.89 14.445-12.642 8.865-.701 17.743-1.261 26.206-1.855 3.97 7.588-1.555 12.296-3.644 17.35 2.79 4.45 5.2 8.302 8.07 12.885 9.297-10.864 15.731-23.463 28.809-25.032 1.96-7.73 2.674-14.61 5.57-20.385 1.654-3.288 6.683-5.332 10.613-6.755 1.218-.445 3.841 2.98 5.84 4.656-2.631 2.821-5.51 4.561-6.254 6.96-2.281 7.358-4.255 14.895-5.383 22.505-1.256 8.513-3.32 15.353-12.723 18.663-4.533 1.594-9.28 5.643-11.604 9.867-5.832 10.59-17.47 16.567-21.567 28.389-.576 1.671-3.02 2.655-4.498 4.061-2.055 1.963-4.691 3.686-5.905 6.106-4.362 8.67-12.197 12.958-20.558 15.823-5.422 1.855-7.344 4.882-7.088 9.79.419 7.897-2.935 13.921-7.46 20.125-2.935 4.019-4.738 9.615-5.08 14.643-1.294 18.833.428 37.448 4.944 55.896 2.4 9.812 3.396 20.018 4.328 30.112.525 5.67.56 11.154 5.575 16.182 9.126-11.36 19.884-21.069 21.798-36.075.726-5.712 3.695-7.555 8.736-8.18 8.51-1.047 8.819-1.23 6.917-10.123-1.2-5.58-.038-9.85 4.704-12.681 3.713-2.21 7.725-4.152 11.852-5.396 6.387-1.928 9.907-5.964 6.857-11.338-6.345-11.176 1.03-18.004 5.947-27.153 3.336 5.917 6.455 9.346 12.548 2.454-2.295-4.049-4.333-8.756-7.353-12.702-3.529-4.6-3.713-8.795-.555-13.344 1.559-2.248 3.336-4.348 5.75-7.464-3.559-1.732-6.451-4.425-9.006-4.135-6.498.744-6.968-2.924-6.293-7.276.483-3.083 1.888-6.14 3.4-8.923 3.423-6.324 7.964-12.155 10.613-18.76 4.747-11.843 7.66-14.028 19.794-11.531l13.308-11.604c.274 5.28.483 9.393.82 15.96 3.341-3.621 5.512-5.032 6.302-6.999 4.097-10.166 14.312-11.522 22.477-15.54 2.115-1.04 6.72.478 8.78 2.36 3.951 3.612 6.9 8.32 11.283 13.86 5.81-10.846 14.103-18.546 23.993-25.25 8.468-5.738 15.261-13.746 24.605-18.897 6.327-3.49 11.334-9.128 19.29-9.607 1.682-.099 3.695-1.963 4.788-3.545 5.58-8.08 12.971-6.874 20.696-4.433 4.114 1.3 8.22 2.655 12.142 3.925 3.687-7.555 4.567-13.284 2.213-20.749-2.453-7.785-7.451-15.199-6.093-24.425.419-2.852-3.486-7.546-6.6-9.427-5-3.027-11.13-4.105-16.492-6.636-2.546-1.201-4.409-3.852-6.425-5.699 4.165-3.001 7.092-5.109 10.587-7.631 3.012 3.694 6.02 7.387 8.506 10.44 12.633 3.818 18.435-5.182 25.724-11.398 10.552-8.995 2.153-18.756 1.008-27.525 3.99-5.763 8.472-7.072 14.483-4.656-.004 3.536-.017 6.738-.009 9.94.026 10.565 1.496 11.963 12.19 11.638 16.47-.505 18.02.817 20.195 16.94.09.662.914 1.226 1.786 2.33 8.173-3.254 13.201 1.23 18.161 7.554 6.486 8.264 7.883 8.097 17.166 2.291-6.335-10.436 5.47-17.614 5.059-27.17-.026-.688 1.692-1.872 2.764-2.133 8.476-2.044 15.983-5.255 19.602-14.122.277-.68 2.405-.41 3.417-1.009 4.956-2.946 5.093-5.498.671-9.303-5.853-5.036-12.706-9.303-17.324-15.293-8.626-11.185-20.08-9.526-32.158-10.539.782 8.076 1.436 14.776 2.363 24.323-4.982-4.669-8.267-7.743-11.292-10.582 1.82-4.245 4.76-7.721 4.302-10.667-1.286-8.179-4.7-16.81-11.821-20.624-5.597-3.002-8.874-7.474-13.219-11.249-1.508-1.304-2.884-2.809-4.546-3.878-8.472-5.438-17.115-10.517-21.836-20.2-1.05-2.156-4.422-3.246-6.823-4.653-1.683-.987-4.507-1.21-5.156-2.57-4.196-8.78-12.71-11.893-19.82-17.203-6.63-4.955-13.983-6.563-20.985-9.115-9.805-3.579-20.589-7.157-30.676-6.495-9.501.629-17.568-1.667-26.07-4.048-4.618-1.296-9.15-2.886-14.073-4.451-1.892 6.909-3.473 12.693-5.344 19.526 2.747 2.97 6.143 6.46 9.326 10.136 4.132 4.768 1.64 8.91-.803 12.814l-14.953-.013c-1.085-3.369-1.935-6.02-2.747-8.55-3.867-.715-7.379-1.36-10.373-1.912-3.042-6.024-5.678-11.248-8.421-16.691-12.24 9.008-22.66 10.868-33.777 4.587-10.792-6.088-20.866-6.118-32.15-1.906-4.61 1.718-10.527 1.222-15.56.24-13.65-2.669-15.461-6.076-11.582-19.321 2.389-8.162.842-15.144-5.186-21.352-12.945-13.335-35.999-17.165-53.25-9.106-6.584 3.078-13.604 5.365-20.615 7.34-6.135 1.728-11.817-.436-14.363-6.267-5.302-12.164-15.27-18.637-26.519-23.955-2.593-1.223-5.054-2.728-7.519-4.066 3.837-2.501 7.78-3.66 8.89-6.11 2.111-4.638-1.687-7.336-5.532-9.393-1.427-.765-2.576-2.595-3.986-2.753-6.789-.77-13.753-2.09-20.379-1.189-2.82.381-5.554 5.417-7.301 8.863-3.679 7.264-10.395 10.193-17.222 12.711-1.816.676-5.665-.842-6.827-2.548-1.585-2.334-1.128-5.66 2.858-6.477 4.464-.915 6.156-3.42 4.819-7.709-4.725-2.548-11.164 1.903-14.795-4.395 1.632-9.436 11.018-3.938 15.889-7.46-7.618-6.798-10.54-8.055-18.226-9.325-11.779-1.941-23.51-4.169-35.396-6.302-1.47 7.345-5.477 13.314-14.603 14.348-1.94.223-4.067.462-5.665 1.428-1.073.65-1.359 2.595-2.136 4.258l5.994 3.104c.901 7.82 1.982 15.02 2.388 22.254.107 1.91-1.44 4.848-3.05 5.643-1.376.676-4.098-.748-5.918-1.778-2.012-1.133-3.682-2.873-6.51-5.173-3.034 5.95-5.662 11.107-8.575 16.823-2.457-1.406-4.41-2.082-5.768-3.377-11.698-11.16-17.098-12.18-30.915-5.028-5.793 3.001-10.885 3.027-15.457-2.027-3.452-3.818-6.865-7.674-10.48-11.719-10.783 10.462-6.515 27.14-17.175 38.385-6.9-6.541-13.398-12.664-19.845-18.842-3.708-3.548-6.135-7.422-4.648-13.061.996-3.78.449-7.012-4.858-7.781-5.57-.804-6.16-5.05-5.55-10.099l11.9 1.54c.264-2.677 1.366-5.477.49-6.397-3.588-3.766-7.775-6.964-13.393-11.778 4.426.004 7.211.83 8.737-.201 1.884-1.283 4.315-4.742 3.746-6.153-2.832-7.08-6.165-14.04-10.074-20.59-6.938-11.65-7.835-11.723-17.713-7.495-7.635-1.697-13.099-2.911-19.52-4.335-7.66-11.5-9.639-12.125-23.613-6.152.867 6.917 1.756 13.993 2.512 20-11.369 7.781-21.828 13.502-34.119 5.635-.3-.188-.85-.192-1.205-.064-8.271 2.993-15.038-1.283-21.784-4.823-2.974-1.56-6.81-3.877-7.635-6.635-1.65-5.498 4.486-5.464 7.468-7.687.393-.295.137-1.454.235-3.126-4.11-1-8.361-2.38-12.723-3.005-5.631-.808-11.411-.654-17.025-1.54-12.476-1.962-24.182-2.44-31.876 10.441-.641 1.07-4.059.475-7.64.778 1.582-3.544 2.522-5.626 3.436-7.717 1.132-2.582 2.243-5.173 3.623-8.37-2.572-2.049-4.956-3.943-8.143-6.478-1.397 3.908-2.401 6.73-3.333 9.324-13.496-.346-14.453-.94-17.747-11.077-7.34.534-16.376-3.762-20.264 8.61 3.217 1.78 6.434 3.55 9.57 5.28-2.49 5.678-5.067 9.898-12.321 10.125-4.507.145-10.078 2.394-13.112 5.635-5.23 5.592-11.48 7.165-18.157 7.79-2.132 9.14-8.113 12.565-15.295 13.839 1.756-5.54 3.166-10.757 5.088-15.776.97-2.536 2.337-5.528 4.443-6.905 7.285-4.758 8.891-16.614 20.281-16.264.684.022 1.333-1.92 2.158-2.8 5.255-5.588 10.531-11.159 15.841-16.691 1.914-1.992 4.068-3.762 5.918-5.806 6.635-7.35 10.924-17.478 22.656-18.73.91-.099 1.833-1.33 2.508-2.22 3.392-4.48 6.57-9.123 10.07-13.518 8.48-10.655 8.143-17.29-.842-27.303-2.329-2.59-3.341-6.37-4.956-9.598.564-.278 1.124-.552 1.688-.825l14.449 10.12c1.525-7.5 2.149-12.31-1.098-17.978-2.517-4.387-2.196-10.398-3.401-17.14-3.803 3.398-6.345 5.664-9.626 8.597-.341-4.467.71-9.08-1.115-11.116-5.344-5.951-12.052-10.65-17.798-16.268-4.542-4.437-9.177-1.539-13.851-1.214-3.26.231-6.537.308-9.805.364-6.238.107-11.74.927-16.496 6.216-4.926 5.477-8.51 4.733-14.65-.419 2.419-4.267 5.44-8.251 6.922-12.75.833-2.522-.009-6.553-1.658-8.717-2.239-2.95-5.69-2.167-8.626.355-1.431 1.232-3.4 1.843-4.076 2.19-5.558-4.345-10.18-7.953-16.192-12.652 4.298-.919 7.319-1.42 10.254-2.231 4.477-1.245 9.39-7.508 8.886-11.873-.555-4.776-2.58-8.371-8.378-8.735-2.696-.167-5.708-1.372-7.844-3.04-5.554-4.335-10.71-3.125-15.713.454-3.59 2.565-6.7 5.793-10.19 8.516-9.39 7.324-11.988 18.932-17.572 28.581-1.662 2.865 1.47 8.226 1.598 12.467.205 7.153 4.157 9.804 10.172 13.1 6.409 3.514 12.595-1.163 18.965 1.945-5.084 6.041-10.937 7.174-16.893 4.045-12.214-6.426-25.561-4.947-38.989-7.504 1.393 7.816 7.058 10.774 11.544 14.69 4.887 4.263 5.498 9.543 4.195 15.632-1.11 5.186-3.41 8.148-8.925 7.49-5.985-5.297-.944-10.573.137-16.469-3.516-2.535-7.054-5.083-12.5-9.017-5.91 7.598-11.63 14.956-17.244 22.181-3.802-3.018-5.562-4.416-7.186-5.707-3.106 1.86-5.69 3.411-9.45 5.669 1.563-4.96 2.606-8.256 3.614-11.463-11.287-5.181-25.899-4.215-36.093 1.899-1.781 7.533 6.409 5.699 9.895 9.884-11.873 5.1-24.079 4.673-35.26 9.629-12.3 5.455-26.603 6.289-32.755 20.29-5.298.774-9.89 1.446-17.316 2.527 5.315 2.84 7.882 4.216 11.125 5.947-4.144 4.673-7.6 8.577-10.86 12.254-1.248 0-2.18.273-2.807-.047-3.209-1.625-6.456-2.613-7.981 1.752-1.457 4.165 1.397 5.541 4.93 6.726 2.32.778 4.2 2.881 7.011 4.92-4.097 1.775-6.883 2.985-10.044 4.353 8.404 7.213 8.404 7.213 12.39 25.14-7.977-2.737-15.308-2.728-22.14 2.376-1.576 1.176-4.729.21-7.156.274-3.943.111-7.959-.171-11.817.483-8.814 1.492-17.555 3.429-26.318 5.225-6.686 1.372-11.163 7.712-10.21 14.305.807 5.58 1.315 11.21 2.384 16.738 1.785 9.27 1.512 19.735 14.013 22.827 2.29.568 4.862 4.318 5.327 6.951.778 4.344 3.17 6.037 6.661 7.837 8.254 4.267 10.903 8.854 7.48 16.507-4.532 10.12-3.789 18.85 2.65 27.551 4.011 5.426 3.413 10.603-1.367 15.383-1.363 1.36-2.495 2.95-3.64 4.327 5.682 7.11 10.877 13.612 16.068 20.111-3.721 1.809-6.986 2.416-7.904 1.219-5.84-7.62-11.164-15.636-16.85-23.793 6.831-6.16 9.134-12.984 5.815-21.578-2.726 0-5.414-.004-7.891-.008-1.32-5.114-2.517-9.74-3.884-15.041 6.246-3.049 12.779-6.49 10.28-16.512-10.01 3.9-16.821-.359-23.08-7.161-3.84-4.177-8.681-7.422-12.838-11.334-8.502-8-17.871-9.013-28.155-4.015l.444-.453-2.666 6.623c8.165 4.078 8.165 4.078 4.542 12.193-2.341-1.706-4.358-4.079-6.832-4.754-3.182-.872-7.519-1.672-9.954-.193-4.029 2.446-3.743 7.333-.829 10.8 3.089 3.673 6.58 8.32 10.754 9.5 10.048 2.839 13.872 11.967 21.515 16.978l-1.333 2.51c-13.308-5.093-26.617-10.18-40.25-15.392 1.363-7.213 3.376-13.468-1.717-19.163-1-1.115-.162-5.07 1.085-6.806 5.362-7.465 3.674-15.78 3.17-23.792-.466-7.435-6.537-12.33-14.466-12.344.978 1.642 1.76 2.98 2.572 4.302 10.21 16.597 8.771 23.707-6.96 34.43-11.744 8.003-13.368 18.31-4.862 29.876 6.153 8.362 10.087 17.978 3.371 27.033-8.344 11.248-8.04 22.433-4.383 34.763 3.208 10.813 8.365 13.998 18.978 9.492 6.635-2.822 13.005-1.813 16.85 2.646 6.682 7.751 16.115 14.032 17.35 25.977-2.85 4.297-8.225 7.657-6.153 14.673 1.76 5.947 6.392 8.008 14.193 9.817-16.803 2.894-21.434-.483-19.383-12.724 2.102-12.578-.718-23.245-8.977-32.617-9.758-.2-15.812 2.476-27.278 12.164 2.166 5.878 3.977 12.129 6.733 17.926 3.345 7.05.585 12.463-3.26 17.995-2.764 3.972-5.26 8.128-7.92 12.177-2.88 4.374-5.606 8.867-8.772 13.023-3.191 4.177-6.844 7.995-10.54 12.253-5.17-.244-11.001.214-16.478-.988-5.354-1.171-11.706-2.774-15.103-6.494-3.567-3.912-12.595-.449-12.193-8.974 11.313-4.814 20.64-3.21 27.86 8.474 3.644-3.622 7.301-5.87 8.92-9.132 4.08-8.23 6.358-17.179 13.36-24.084 3.179-3.134 6.028-9.389 5.105-13.31-1.794-7.66 3.363-11.974 5.648-17.75-.888-1.01-1.525-2.1-2.465-2.745-7.549-5.186-13.116-10.98-8.805-21.27.773-1.847-.564-4.605-1.004-6.93-2.371-12.523-4.221-24.973 3.221-34.097-1.217-6.4-2.649-10.975-2.85-15.61-.363-8.499-1.661-16.152-12.889-19.632 3.828-6.208 6.507-11.54 10.113-16.152 4.511-5.78 7.271-11.591 5.515-19.146-.624-2.685.009-5.665.107-8.512.355-10.295-5.516-16.507-16.013-17.123-4.024-.235-8.109-.474-12.035-1.308-10.147-2.16-13.206-.633-14.675 10.068-3.06 22.267-10.109 42.716-23.485 61.091-3.017 4.148-3.363 10.625-3.867 16.127-.675 7.294-.256 14.69-.38 22.04-.094 5.767-.295 11.535-.47 18.046 7.784-1.505 12.454 1.411 12.343 6.87-.21 10.027 6.536 14.033 13.103 18.402.188 11.668-.273 12.45-11.317 19.286-.727-.85-2.064-1.684-2.137-2.62-.7-8.863-5.374-13.49-13.855-16.362-6.318-2.138-12.945-5.9-17.303-10.826-11.108-12.544-25.723-16.498-40.976-19.769-11.244-2.411-11.227-2.475-18.11 8.991 5.093 6.584 5.994 14.246 1.286 21.339-3.119 4.698-7.968 8.247-12.116 12.39-8.771-1.625.512-16.178-10.34-15.601-6.02 2.869-12.158 4.549-16.64 8.247-5.31 4.382-9.728 6.469-16.427 3.33-4.277-2.005-7.977.244-9.677 4.819-.812 2.176-1.32 4.468-2 6.815-5.985-.33-11.287-.624-18.922-1.048 5.81-7.007 7.665-13.523 4.2-20.979-9.057 1.526-14.03 7.384-17.017 15.054-11.15-4.528-17.085-3.04-23.805 5.981-4.144 5.558-7.417 11.954-15.688 12.202-1.064.03-2.893.975-3.016 1.714-1.21 7.457-6.734 4.626-11.39 4.07-1.556 10.056 2.546 23.421-11.561 25.43-12.864 1.839-17.286-8.978-20.952-18.94 4.29-7.802 4.29-7.802 18.269-14.579-6.618-17.417-22.447-26.105-40.69-21.761.769 2.24.859 5.164 2.358 6.464 9.942 8.628 9.968 18.684 5.469 29.945-1.572 3.933-.88 7.871 2.542 11.249 1.858 1.834 4.153 4.916 3.798 7.02-1.23 7.268-3.542 14.352-5.682 22.428-8.643-6.02-15.039-13.488-25.72-9.41.3 5.917-2.41 9.646-7.639 12.536-4.93 2.719-9.031 6.926-13.607 10.33-4.093 3.039-4.315 6.528-1.837 10.662 1.05 1.749 1.781 3.681 2.704 5.507 1.85 3.668 4.725 8.072.842 11.15-3.089 2.454-8.233 4.275-11.937 3.578-7.955-1.496-15.65-4.527-21.144-11.372-1.269-1.582-4.874-3.382-5.738-2.762-2.012 1.454-4.088 4.258-4.208 6.614-.324 6.661 3.704 11.321 8.814 15.16 2.734 2.061 5.302 4.344 8.34 6.85-11.134 6.939-15.804 7.648-20.499 1.727-4.405-5.55-9.143-8.778-16.91-7.273-1.905-9.94 4.345-20.675-5.353-27.435 7.925-13.155 7.823-14.46-2.106-25.028-5.883-6.263-11.852-12.446-17.842-18.602-3.14-3.224-6.182-6.375-2.067-12.236 5.848 6.554 11.227 13.613 20.99 13.074 1.345-.077 2.721 1.71 4.19 2.394 11.4 5.31 22.55 11.343 34.35 15.541 7.067 2.514 15.599 3.788 22.486-1.082 13.286-9.388 24.403-19.97 20.844-39.008-1.397-7.465-4.379-13.6-10.125-17.345-16.675-10.877-33.26-21.638-48.128-35.123-6.943-6.293-15.585-10.547-26.796-8.303-5.575 1.116-12.368-3.86-19.465-6.378 3.123-3.617 5.11-5.913 7.037-8.137-7.682-8.661-7.648-8.593-15.863-4.352-1.684.864-3.713 1.373-5.602 1.458-4.618.201-9.253.06-13.479.056-3.734-4.01-7.122-7.645-10.51-11.279 9.523.735 17.056-.35 19.811-11.402-5.387-4.913-11.04-10.06-16.841-15.353-3.816 2.595-6.875 4.673-10.6 7.212 1.85-13.433 1.218-14.143-11.253-14.121-1.009 3.852-2.03 7.738-3.35 12.77-2.726-4.296-4.853-7.452-7.89-3.018-2.03 2.963-2.765 6.776-4.56 9.932-1.88 3.313-4.327 6.306-7.28 10.5-5.135-11 5.666-15.806 6.024-24.874-4.96-.005-9.288-.009-11.757-.009-2.388 6.336-2.811 12.993-6.08 14.99-7.19 4.395-9.634 10.17-9.283 17.37-6.76 2.83-7.391-2.774-9.848-5.523-6.071-6.802-9.168-7.132-15.833-1.189 2.794 3.348 5.596 6.713 9.403 11.279-14.423-2.164-14.304-2.134-17.367 9.73-.607 2.352-2.538 4.357-3.858 6.525l-2.542-.748c.35-5.25.705-10.505 1.107-16.555-5.174 3.694-9.357 6.678-13.796 9.855.368 2.215.752 4.558 1.111 6.708-.38.539-.538.966-.842 1.167-8.207 5.456-19.648 7.239-20.208 20.92-.14 3.536-5.947 5.079-9.617.705l-.055-.11zM766 759.294l-11-.015c5.831 5.92 5.831 5.92 11 .015h0zm315.728 34.714c3.978 4.595 7.037 8.516 10.486 12.041 8.207 8.382 7.656 20.152-1.478 27.31-5.793 4.546-11.414 3.201-13.466-3.866-2.739-9.443-4.463-19.09-2.279-29.042.866-3.929 2.377-6.622 6.737-6.443h0z" mask="url(#2avi5uvq9b)"/>
                        <g mask="url(#2avi5uvq9b)">
                            <g transform="translate(113.558 148.684)">
                                <path fill="#FFF" d="M160.628 17.638c3.577 0 6.477-2.946 6.477-6.579 0-3.633-2.9-6.579-6.477-6.579-3.577 0-6.477 2.946-6.477 6.58 0 3.632 2.9 6.578 6.477 6.578M188.338 12.71c0-1.16-.746-2.37-2.45-2.37h-3.52v4.715h3.45c1.656 0 2.52-1.112 2.52-2.344zm-5.97-8.813v4.004h3.287c1.19 0 1.843-.806 1.843-1.99 0-1.137-.606-2.014-1.843-2.014h-3.288zm8.838 9.098c0 2.298-1.61 4.643-4.945 4.643h-6.741V1.316h6.253c2.798 0 4.57 1.705 4.57 4.192 0 1.28-.466 2.82-2.099 3.412 1.959.402 2.962 2.275 2.962 4.075zM204.426 15.056L204.426 17.638 194.326 17.638 194.326 1.316 204.192 1.316 204.192 3.898 197.149 3.898 197.149 8.304 203.307 8.304 203.307 10.933 197.149 10.933 197.149 15.056zM210.487 9.251h2.868c2.007 0 2.846-1.16 2.846-2.653 0-1.491-.91-2.7-2.473-2.7h-3.241V9.25zm1.446 2.44h-1.446v5.947h-2.846V1.316h6.297c3.592 0 5.108 2.629 5.108 5.234 0 2.323-1.19 4.526-3.989 5.046l4.2 6.042h-3.36l-3.964-5.947z"/>
                                <g transform="translate(221.512 .77)">
                                    <mask id="b78p8lsh9d" fill="#fff">
                                        <use xlink:href="#buih3harzc"/>
                                    </mask>
                                    <path fill="#FFF" d="M0.796 0.546L3.641 0.546 3.641 14.285 9.891 14.285 9.891 16.868 0.796 16.868z" mask="url(#b78p8lsh9d)"/>
                                </g>
                                <mask id="240c1w903f" fill="#fff">
                                    <use xlink:href="#zoeb0pvi9e"/>
                                </mask>
                                <path fill="#FFF" d="M233.942 17.638L236.788 17.638 236.788 1.316 233.942 1.316zM252.739 1.316L252.739 17.638 250.149 17.638 243.736 6.646 243.736 17.638 240.891 17.638 240.891 1.316 243.573 1.316 249.894 12.213 249.894 1.316zM238.352 51.849c3.576 0 6.477-2.946 6.477-6.58 0-3.632-2.9-6.578-6.477-6.578-3.578 0-6.477 2.946-6.477 6.579 0 3.633 2.899 6.579 6.477 6.579M265.617 51.849L260.066 45.641 260.066 51.849 257.244 51.849 257.244 35.526 260.066 35.526 260.066 41.709 264.591 35.526 268.113 35.526 261.978 43.653 269.467 51.849zM273.986 43.462h2.87c2.006 0 2.844-1.16 2.844-2.654 0-1.49-.91-2.7-2.471-2.7h-3.243v5.354zm1.446 2.44h-1.446v5.947h-2.844V35.526h6.297c3.59 0 5.107 2.63 5.107 5.235 0 2.322-1.19 4.526-3.988 5.046l4.2 6.042h-3.36l-3.966-5.948zM293.551 45.334l-2.286-6.587-2.285 6.587h4.571zm.863 2.51h-6.297l-1.4 4.005h-3.033l6.042-16.323h3.08l6.015 16.323h-3.008l-1.399-4.004zM309.173 51.849L303.622 45.641 303.622 51.849 300.8 51.849 300.8 35.526 303.622 35.526 303.622 41.709 308.147 35.526 311.669 35.526 305.534 43.653 313.022 51.849zM326.055 43.7c0-3.128-2.262-5.664-5.341-5.664-3.055 0-5.271 2.536-5.271 5.664 0 3.126 2.216 5.661 5.271 5.661 3.08 0 5.34-2.535 5.34-5.661m-13.479 0c0-4.621 3.568-8.364 8.164-8.364 4.57 0 8.162 3.743 8.162 8.364 0 4.62-3.592 8.385-8.162 8.385-4.596 0-8.164-3.766-8.164-8.385M350.425 35.526L344.991 51.848 342.68 51.848 340.14 42.538 337.643 51.848 335.31 51.848 329.9 35.526 332.955 35.526 336.5 46.944 339.019 37.776 341.281 37.776 343.8 46.992 347.369 35.526zM186.536 113.69c3.577 0 6.477-2.945 6.477-6.578 0-3.633-2.9-6.579-6.477-6.579-3.578 0-6.477 2.946-6.477 6.579 0 3.633 2.9 6.579 6.477 6.579M216.204 97.368L211.329 113.691 208.74 113.691 203.843 97.368 206.804 97.368 210.023 108.929 213.242 97.368zM218.742 113.691L221.587 113.691 221.587 97.368 218.742 97.368zM235.79 111.108L235.79 113.691 225.69 113.691 225.69 97.369 235.556 97.369 235.556 99.95 228.513 99.95 228.513 104.357 234.671 104.357 234.671 106.986 228.513 106.986 228.513 111.108zM250.854 97.368L250.854 113.691 248.265 113.691 241.851 102.698 241.851 113.691 239.005 113.691 239.005 97.368 241.688 97.368 248.008 108.266 248.008 97.368zM266.802 97.368L266.802 113.691 264.213 113.691 257.799 102.698 257.799 113.691 254.953 113.691 254.953 97.368 257.636 97.368 263.956 108.266 263.956 97.368zM278.645 107.176l-2.286-6.587-2.285 6.587h4.571zm.863 2.51h-6.297l-1.399 4.005h-3.032l6.04-16.323h3.08l6.016 16.323h-3.009l-1.399-4.004zM6.477 43.954c3.577 0 6.477-2.946 6.477-6.579 0-3.633-2.9-6.579-6.477-6.579C2.9 30.796 0 33.742 0 37.376c0 3.632 2.9 6.578 6.477 6.578M25.369 27.631L28.215 27.631 28.215 41.371 34.465 41.371 34.465 43.954 25.369 43.954zM48.713 35.805c0-3.128-2.262-5.663-5.341-5.663-3.055 0-5.271 2.535-5.271 5.663 0 3.126 2.216 5.662 5.27 5.662 3.08 0 5.342-2.536 5.342-5.662m-13.48 0c0-4.621 3.567-8.363 8.163-8.363 4.57 0 8.163 3.742 8.163 8.363 0 4.62-3.593 8.385-8.163 8.385-4.596 0-8.163-3.765-8.163-8.385M66.481 27.631L66.481 43.954 63.892 43.954 57.478 32.962 57.478 43.954 54.632 43.954 54.632 27.631 57.315 27.631 63.635 38.529 63.635 27.631zM76.877 41.371c2.916 0 4.408-2.51 4.408-5.543 0-3.055-1.492-5.615-4.408-5.615h-3.45v11.158h3.45zm-6.297-13.74h6.297c4.596 0 7.278 3.553 7.278 8.197 0 4.62-2.682 8.126-7.278 8.126H70.58V27.632zM99.777 35.805c0-3.128-2.263-5.663-5.341-5.663-3.056 0-5.271 2.535-5.271 5.663 0 3.126 2.215 5.662 5.27 5.662 3.079 0 5.342-2.536 5.342-5.662m-13.481 0c0-4.621 3.569-8.363 8.163-8.363 4.572 0 8.162 3.742 8.162 8.363 0 4.62-3.59 8.385-8.162 8.385-4.594 0-8.163-3.765-8.163-8.385M117.544 27.631L117.544 43.954 114.955 43.954 108.541 32.962 108.541 43.954 105.696 43.954 105.696 27.631 108.378 27.631 114.699 38.529 114.699 27.631zM101.04 149.217c3.577 0 6.477-2.946 6.477-6.579 0-3.633-2.9-6.579-6.477-6.579-3.577 0-6.476 2.946-6.476 6.58 0 3.632 2.899 6.578 6.476 6.578M130.335 135.192L122.406 146.634 130.335 146.634 130.335 149.217 118.812 149.217 118.812 146.92 126.696 135.476 119.139 135.476 119.139 132.895 130.335 132.895zM133.294 143.484v-10.59h2.844v10.449c0 2.345 1.517 3.363 3.22 3.363 1.68 0 3.194-1.018 3.194-3.363v-10.449h2.847v10.59c0 3.72-2.823 5.97-6.04 5.97-3.243 0-6.065-2.25-6.065-5.97M152.18 140.83h2.87c2.006 0 2.845-1.16 2.845-2.654 0-1.49-.91-2.7-2.472-2.7h-3.242v5.354zm1.446 2.44h-1.445v5.947h-2.845v-16.322h6.297c3.59 0 5.108 2.629 5.108 5.234 0 2.322-1.19 4.526-3.989 5.046l4.2 6.042h-3.36l-3.966-5.947zM164.001 149.217L166.847 149.217 166.847 132.895 164.001 132.895zM169.924 141.068c0-4.621 3.639-8.363 8.163-8.363 2.635 0 4.944 1.255 6.39 3.175l-2.146 1.656c-.98-1.302-2.425-2.131-4.175-2.131-3.055 0-5.364 2.535-5.364 5.663 0 3.126 2.263 5.662 5.364 5.662 1.75 0 3.196-.83 4.175-2.11l2.147 1.635c-1.447 1.943-3.756 3.175-6.39 3.175-4.525 0-8.164-3.742-8.164-8.362M199.541 132.894L199.541 149.217 196.695 149.217 196.695 142.394 190.023 142.394 190.023 149.217 187.179 149.217 187.179 132.894 190.023 132.894 190.023 139.812 196.695 139.812 196.695 132.894z" mask="url(#240c1w903f)"/>
                            </g>
                        </g>
                    </g>
                </g>
            </g>
        </g>
    </g>
</svg>
