<svg xmlns="http://www.w3.org/2000/svg" width="245" height="51" viewBox="0 0 245 51">
    <g fill="#FFF" fill-rule="evenodd">
        <path d="M48.714 2.229C46.485.782 43.885 0 41.012 0 36.907 0 32.45 1.7 28.09 4.887 24.552 2.248 20.975.626 17.534.097l-.215.196c-.9.743-3.147 2.17-4.418 1.74-1.29-.45-4.046 1.642-4.496 1.662-.156 0 0-1.584.88-1.701-.293.039 1.876-1.114 2.697-1.76-1.407.294-2.736.802-3.948 1.506.195.098.352.176-.157.606-.43.313-.723 2.072-1.134 2.111-1.192.684-1.446-.919-2.619 1.31-.098.215-.508.371-.938.528-1.31 1.954-2.268 4.3-2.776 6.959-.86 4.437-.391 9.422 1.642 14.368l1.036.156c.43.196 1.114 1.623 1.466 2.033.9 1.017 2.053 1.29 3.186 2.072.685.45 2.073 1.78 2.19 2.542.059-.548 3.597.801 4.281 1.094 1.583.743 3.05 1.838 1.955 3.793-.372.645 2.111 2.424 1.7 3.343l-.801.645c-.352.547-.156 1.134.215 1.603 2.952 1.896 6.295 3.636 10.087 5.14.235.099.489.157.723.157.235 0 .489-.058.724-.156 17.652-7.213 25.862-19.06 27.094-29.655-1.036.059-2.287.195-2.385-.391-.078-.626-.86.098-1.349-.41-.235-.235-.704-1.545-1.114-1.525-.802.039.43 2.639.86 3.05.586-.216 2.346-.49 2.365.625.059 2.111-2.952 3.46-4.515 4.183-2.327 1.095-1.154-1.505-2.092-2.834-.508-.704-.176-1.78-.723-2.346-.235-.254-1.115-2.21-1.037-2.424l-.156.39c-.274.099-.508-.84-.508-.996-.215.704.567 2.17.782 2.834.352 1.154.273 2.659.82 3.695.274.547 1.37 2.776 1.8 2.874l2.462-.372c1.408.821-5.903 6.49-6.666 7.253-.625.625-.469 2.697-.801 3.577-.391.997-1.29 1.075-2.229 1.408-.997.351-1.173 1.563-1.994 1.778-1.446.391-3.069 2.561-4.809 2.014-.527-.156-2.97.039-2.99-.88-.04-.684-.196-1.231-.333-1.935-.137-.665.333-1.193.118-1.838-.157-.43-.763-1.524-.724-1.974.118-.371.743-1.388 1.193-1.466.625-.117.43-1.056.508-1.544.137-.88-.176-1.72-.645-2.405-.704-.977-.059-1.407.469-2.346.156-.488.04-1.212-.665-1.212-1.446-.02-.606-1.329-1.603-1.564-.703-.176-1.427.098-2.13.098-.9 0-1.603-.704-2.385-1.055-3.206-1.427-3.128-5.572-1.408-8.054.215-.43.118-1.369.391-1.682.626-.703 1.662-1.407 2.522-1.837.489-.235.938 0 1.466-.137.802-.235 1.095-1.114 1.916-1.447 1.192-.469 2.482-.058 3.773.157.684.098 3.342.332 3.597.938-.04.098.02 1.564-.47 1.349 1.017.352 1.955 2.522 3.05 2.424.567-.059.84-1.642 1.642-.586.489.625 3.206 1.68 3.93 1.368.449-.176 1.23-2.033.86-2.365.195.351-1.525-.157-1.662-.274-.254-.176-.645.117-1.036-.235.234.196-1.27-1.31-.04-1.74-.508.176-.781-.351-1.348-.136-.391.156.02.469-.508.547-.821.156-.86-1.622-1.076-1.877-.234-.273-1.896-2.424-1.622-1.27l1.31 2.443c-.118.02-.274-.84-.45-.293.215-.274-.371 1.388-.489.743-.078-.254.313-.254.196-.626.058-.195-.41-.567-.47-.742-.195-.45-.723-1.506-1.094-1.818-.098-.098-1.877-.352-2.033-.352-.235.195-.45.39-.645.606-.391.039-.782.097-1.154.215l-.625.723c-.215.078-2.033.137-2.033.156.117-.156-1.036-.762-.84-1.094.195-.372.996-1.466 1.016-1.936.039-.508 2.346 1.447 2.893.274.234-.508.47-1.114-.372-1.466.157.059 1.838-.098 2.17-.293.47-.274 1.447-.685 2.033-.509.665.196.821-.82 1.271-1.212.274.215-.43.841-.156 1.271.058-.254 1.016.45 1.133.43.294-.059 1.643.43 1.623-.274-.04-.723.274-.43.606-.469-.04 0 .919-.899 1.192-.801-.175-.293-1.016-.02-1.29-.137-.703-.274-.039-1.349.333-1.623.293-.195-.391-.781-.548-.254-.254.763-1.192 1.251-1.349 2.346-.215 1.642-1.622-.919-1.837-.86-.782.195-1.036-.88-.528-1.31.508-.45 1.349-.176 1.877-.664.39-.333.82-.743 1.29-.939 1.603-.684 1.681.274 2.913.782 1.212.489.332.41.02.84-.314.392.488.822.898.529.235-.157.782-.606 1.056-.958.235-.293 1.075-.137 1.388-.293zM34.287 4.105l.235-.156.176.02c.137-.06.293-.216.43-.138.097.06.273.333.156.43-.117.098-.117-.156-.254.176-.176.391-.567.255-.9.294-.234.02-.39-.157-.136-.313l.293-.176.02-.137h-.02zm.88.9c.137-.079.313.078.41-.118.098-.176.313-.352.215-.782-.02-.117.333-.117.235-.293h-.293s.84-1.447 1.114-.587l-.274.176c.215.41.059 1.212.02 1.76.234.254.704.41.078.528.293.039-1.662.293-1.798-.098-.118-.254.84-.098.84-.196 0-.02-.723-.273-.547-.39z"/>
        <path fill-rule="nonzero" d="M97.174 28.423c2.913 0 5.298.978 7.175 2.933 1.622 1.72 2.521 3.968 2.521 6.392 0 2.776-1.192 5.376-3.284 7.135-1.76 1.466-3.91 2.21-6.49 2.21-5.512 0-9.618-4.047-9.618-9.501 0-2.64 1.212-5.2 3.285-6.96 1.661-1.427 3.968-2.209 6.411-2.209zm117.408 0c2.913 0 5.298.978 7.174 2.933 1.623 1.72 2.522 3.968 2.522 6.392 0 2.776-1.192 5.376-3.284 7.135-1.76 1.466-3.91 2.21-6.49 2.21-5.513 0-9.618-4.047-9.618-9.501 0-2.64 1.212-5.2 3.284-6.96 1.662-1.427 3.969-2.209 6.412-2.209zm-100.283.528v9.481c0 1.994.039 2.385.488 3.128.509.84 1.447 1.33 2.561 1.33 1.154 0 2.17-.548 2.64-1.408.39-.684.469-1.212.469-3.05v-9.48h4.554v10.106c0 2.58-.45 3.968-1.7 5.376-1.447 1.642-3.5 2.482-6.04 2.482-2.679 0-5.044-.997-6.256-2.639-.92-1.212-1.271-2.639-1.271-5.22V28.952h4.555zm117.407 0l8.367 10.713V28.95h4.555v17.516h-4.555l-8.367-10.713v10.713h-4.554V28.95h4.554zm-146.085 0v3.851h-5.493v2.913h4.985v3.87h-4.985v6.882h-4.535V28.95H85.62zm47.6 0l8.387 10.713V28.95h4.535v17.516h-4.535l-8.386-10.713v10.713h-4.536V28.95h4.536zm23.322 0c4.633 0 8.62 4.047 8.62 8.738 0 4.731-3.987 8.778-8.62 8.778h-6.725V28.95zm20.858 0l6.588 17.516h-4.868l-1.114-3.05h-6.275l-1.212 3.05h-4.809l6.725-17.516h4.965zm18.004 0v3.851h-3.773v13.665h-4.555V32.802h-3.694v-3.85h12.022zm6.588 0v17.516h-4.535V28.95h4.535zm-104.819 3.89c-2.697 0-4.945 2.19-4.945 4.848 0 2.776 2.19 4.985 4.945 4.985 2.737 0 4.927-2.209 4.927-4.926s-2.19-4.907-4.927-4.907zm117.408 0c-2.698 0-4.946 2.19-4.946 4.848 0 2.776 2.19 4.985 4.946 4.985 2.737 0 4.926-2.209 4.926-4.926s-2.19-4.907-4.926-4.907zm-59.173-.039h-1.036v9.794h1.036c1.72 0 2.815-.45 3.734-1.466.82-.9 1.27-2.13 1.27-3.44 0-1.29-.45-2.522-1.27-3.422-.919-1.016-2.014-1.466-3.734-1.466zm19.49 1.545l-1.916 5.61h3.792l-1.876-5.61zM80.129 3.108v6.764h6.587V3.108h4.555v17.516h-4.555V13.41h-6.588v7.214h-4.535V3.108h4.535zm24.767 0V6.96h-5.415v2.913h5.122v3.87H99.48v3.011h5.415v3.87h-9.95V3.109h9.95zm13.332 0l6.588 17.516h-4.848l-1.134-3.05h-6.275l-1.212 3.05h-4.79l6.706-17.516h4.965zm15.678 0c1.974 0 3.284.47 4.32 1.545.938.996 1.486 2.404 1.486 3.85 0 1.545-.606 3.03-1.603 3.89-.606.528-1.173.783-2.229 1.056l5.513 7.175h-5.67l-4.339-6.725v6.725h-4.535V3.108zm19.783 0V6.96h-3.793v13.665h-4.535V6.959h-3.694V3.11h12.022zm6.353 0l3.304 4.77 3.186-4.77h5.513l-6.568 9.11v8.406h-4.536v-8.406l-6.333-9.11h5.434zm-44.297 5.396l-1.915 5.59h3.772l-1.857-5.59zm16.48-1.916h-.84v4.36h.84c.88 0 1.524-.157 1.955-.47.488-.332.86-1.075.86-1.7 0-.646-.372-1.35-.86-1.721-.43-.274-1.076-.47-1.955-.47z"/>
    </g>
</svg>
