<svg xmlns="http://www.w3.org/2000/svg" width="201" height="58" viewBox="0 0 201 58">
    <path fill="#FFF" fill-rule="evenodd" d="M187.948 30.254c0 2.799 2.55 4.043 5.474 4.664 2.237.467 2.92.652 2.92 1.616 0 .901-1.274 1.337-2.797 1.337-2.488 0-4.447-2.113-4.447-2.113l-2.083 2.704s2.331 2.673 6.654 2.673c3.762 0 6.436-2.021 6.436-4.537 0-3.048-2.084-4.012-5.006-4.633-2.487-.529-3.482-.746-3.482-1.648 0-.901 1.273-1.401 2.674-1.401 1.99 0 3.669 1.277 3.669 1.277l1.865-2.736s-2.206-1.805-5.534-1.805c-4.042 0-6.343 2.302-6.343 4.602zm-11.224-8.612v4.384h-2.891v3.356h2.891v6.53c0 3.141 2.176 5.223 5.037 5.223 2.146 0 3.545-.963 3.545-.963l-1.369-3.048s-.715.531-1.554.531c-.996 0-1.927-.531-1.927-2.332v-5.941h4.446v-3.356h-4.446v-4.384h-3.732zm-11.877 4.011c4.042 0 7.431 3.141 7.431 7.679 0 .28 0 .839-.031 1.399h-11.006c.279 1.306 1.801 2.985 4.133 2.985 2.583 0 4.044-1.492 4.044-1.492l1.865 2.798s-2.332 2.113-5.909 2.113c-4.476 0-7.927-3.419-7.927-7.741 0-4.322 3.141-7.741 7.4-7.741zm-3.606 6.373h7.307c-.064-1.273-1.245-2.985-3.701-2.985-2.394 0-3.481 1.679-3.606 2.985zm-12.966-6.373c4.043 0 7.432 3.141 7.432 7.679 0 .28 0 .839-.032 1.399h-11.006c.28 1.306 1.804 2.985 4.135 2.985 2.581 0 4.041-1.492 4.041-1.492l1.866 2.798s-2.332 2.113-5.907 2.113c-4.477 0-7.928-3.419-7.928-7.741 0-4.322 3.14-7.741 7.399-7.741zm-3.606 6.373h7.306c-.061-1.273-1.243-2.985-3.7-2.985-2.393 0-3.48 1.679-3.606 2.985zm-19.837-14.769v23.506h3.73v-9.7s.994-1.929 2.922-1.929c1.617 0 2.924.901 2.924 3.016v8.613h3.73v-9.544c0-3.545-2.548-5.567-5.409-5.567-2.859 0-4.167 2.146-4.167 2.146V17.257h-3.73zm-15.453 12.997c0 2.799 2.549 4.043 5.473 4.664 2.238.467 2.921.652 2.921 1.616 0 .901-1.273 1.337-2.798 1.337-2.487 0-4.445-2.113-4.445-2.113l-2.083 2.704s2.331 2.673 6.652 2.673c3.763 0 6.437-2.021 6.437-4.537 0-3.048-2.083-4.012-5.006-4.633-2.487-.529-3.482-.746-3.482-1.648 0-.901 1.274-1.401 2.673-1.401 1.991 0 3.67 1.277 3.67 1.277l1.865-2.736s-2.206-1.805-5.535-1.805c-4.042 0-6.342 2.302-6.342 4.602zm-10.167-4.601c4.043 0 7.431 3.141 7.431 7.679 0 .28 0 .839-.031 1.399H95.606c.279 1.306 1.802 2.985 4.134 2.985 2.582 0 4.043-1.492 4.043-1.492l1.865 2.798s-2.331 2.113-5.908 2.113c-4.476 0-7.927-3.419-7.927-7.741 0-4.322 3.14-7.741 7.399-7.741zm-3.606 6.373h7.307c-.064-1.273-1.244-2.985-3.701-2.985-2.394 0-3.482 1.679-3.606 2.985zM79.22 28.234s-1.026-2.582-4.571-2.582c-3.015 0-4.353 2.519-4.353 2.519v-2.145h-3.481v14.736h3.73v-9.73s.934-1.897 2.891-1.897c1.866 0 2.642 1.088 2.642 3.11v8.517h3.732v-9.73s.932-1.897 2.891-1.897c1.866 0 2.642 1.088 2.642 3.11v8.517h3.733v-9.481c0-3.545-2.177-5.629-5.162-5.629-3.451 0-4.694 2.582-4.694 2.582zm-18.594-9.42c1.368 0 2.458 1.087 2.458 2.455 0 1.367-1.09 2.455-2.458 2.455s-2.456-1.088-2.456-2.455c0-1.368 1.088-2.455 2.456-2.455zm-1.865 21.949h3.731V26.026h-3.731v14.737zM40.136 18.999v3.545h6.002v18.219h3.731V22.544h6v-3.545H40.136zM.162 1.072H0l.003 15.786 27.266 27.266v9.451H4.427v-9.469l8.243-8.401-3.082.052-.042-3.157-9.518 9.681L.025 57.98H31.68l-.006-15.684L4.406 15.031V5.405h22.863v9.673l-3.793 3.796-.01-.011-4.559 4.556-.004 3.168 3.085-.008.064-.065.007.005 9.615-9.613V1.538l-.025-.518L.679 1l-.517.072zM23.808 9.22v4.007l-4.005 4.004v-4.006h-1.936v5.902l-1.976 1.983-2.029-2.034v-5.851h-1.981v3.927l-4.004-4.004V9.22h15.931z"/>
</svg>
