<svg xmlns="http://www.w3.org/2000/svg" width="221" height="44" viewBox="0 0 221 44">
    <path fill="#FFF" fill-rule="evenodd" d="M145.573 11.917c-2.384 0-4.658 1.253-6.052 3.188-1.408-2.083-3.305-3.19-5.7-3.19-1.753 0-3.516.891-4.81 2.299v-1.707h-4.785V33.32h4.785V23.084c0-3.354.463-6.783 3.885-6.783 2.592 0 3.123 2.408 3.123 6.018V33.32h4.787V23.084c0-3.522.466-6.783 3.842-6.783 2.218 0 3.167 1.586 3.167 5.3V33.32h4.786V20.968c0-6.005-2.363-9.051-7.028-9.051m23.806.592V23.97c0 3.834-1.212 5.467-4.05 5.467-2.84 0-4.053-1.634-4.053-5.467V12.507h-4.786v11.886c0 6.19 3.138 9.602 8.838 9.602 5.697 0 8.835-3.412 8.835-9.602V12.507h-4.784v.002zm17.47 8.341l-.855-.382c-1.85-.818-3.445-1.523-3.445-2.72 0-.853.825-1.447 1.564-1.447.83 0 1.666.583 2.08 1.452l.224.471 3.958-2.125-.213-.434c-1.161-2.381-3.291-3.75-5.838-3.75-3.48 0-6.31 2.805-6.31 6.256 0 3 1.836 4.237 4.05 5.437l3.71 1.989c.765.517 1.127.897 1.127 1.717 0 1.49-1.285 2.295-2.492 2.295-1.588 0-2.405-.91-3.145-2.278l-.22-.408-4.09 1.865.164.44c1.076 2.851 4.005 4.769 7.291 4.769 4.08 0 7.28-3.103 7.28-7.062 0-3.414-2.448-4.991-4.84-6.086m8.393-8.34v20.81h4.785v-20.81h-4.785zM197.635.782c-1.713 0-3.11 1.42-3.11 3.167 0 1.7 1.397 3.082 3.11 3.082 1.708.004 3.097-1.374 3.106-3.082 0-1.748-1.394-3.167-3.106-3.167M14.188 23.27c0 1.01-.013 1.995-.04 2.95-.02.844-.115 1.686-.286 2.513-.177.74-.435 1.313-.792 1.751-.352.436-.87.653-1.546.653-.654 0-1.16-.245-1.525-.71-.367-.476-.639-1.092-.802-1.87-.187-.868-.288-1.753-.3-2.64-.026-.987-.04-1.974-.043-2.96 0-1.08.032-2.091.085-3.021.052-.93.175-1.734.35-2.392.18-.666.457-1.202.806-1.581.353-.384.83-.558 1.43-.558.65 0 1.159.213 1.509.667.352.435.608 1.021.782 1.763.166.736.275 1.57.318 2.51.04.954.054 1.932.054 2.925M11.6 12.79c-1.59 0-3.084.235-4.483.67-1.344.424-2.596 1.102-3.685 1.996-1.07.894-1.926 2.015-2.506 3.281C.316 20.047 0 21.561 0 23.27c0 1.778.292 3.32.847 4.63.57 1.313 1.358 2.404 2.381 3.25 1.015.846 2.227 1.475 3.626 1.873 1.415.392 2.957.59 4.626.59 1.535.01 3.064-.197 4.54-.618 1.346-.363 2.598-1.01 3.673-1.897 1.052-.891 1.89-2.008 2.451-3.267.599-1.313.894-2.856.894-4.599 0-1.421-.24-2.764-.715-4.017-.484-1.246-1.223-2.378-2.168-3.323-.95-.966-2.145-1.72-3.575-2.268-1.443-.544-3.097-.833-4.98-.833m202.838 3.679c2.08 0 3.806.816 5.275 2.499l.87.996V13.44l-.246-.144c-1.496-.877-3.493-1.38-5.476-1.38-6.43 0-11.28 4.8-11.28 11.168 0 6.117 4.863 10.91 11.07 10.91 2.133 0 3.935-.434 5.67-1.37l.262-.14v-6.477l-.868.974c-1.452 1.632-3.142 2.458-5.02 2.458-3.727 0-6.33-2.683-6.33-6.528 0-3.492 2.784-6.441 6.075-6.441M25.85 20.238v3.098c0 1.723-.025 3.446-.076 5.168-.057 1.691-.162 3.38-.315 5.066l2.098-.235c.692-.081 1.384-.119 2.091-.119.765 0 1.498.051 2.213.136.726.094 1.457.164 2.209.218-.08-.891-.14-1.784-.179-2.678-.024-.969-.05-2.213-.05-3.73V23.61c0-.723.008-1.445.04-2.156.024-.714.105-1.34.253-1.884.135-.547.37-1 .668-1.34.3-.344.731-.52 1.31-.52.526 0 .922.133 1.206.378.296.248.505.592.655 1.006.148.417.231.884.258 1.376.027.503.038 1.013.038 1.531 0 1.964-.024 3.9-.08 5.792-.055 1.887-.136 3.808-.228 5.777.713-.113 1.43-.2 2.149-.262.715-.056 1.431-.087 2.149-.092.702 0 1.41.038 2.118.092.705.068 1.412.153 2.108.262-.048-.956-.08-1.913-.095-2.87l-.014-3.072v-3.187l.014-1.688.03-1.695V19.57c0-2.2-.578-3.88-1.686-5.015-1.132-1.145-2.79-1.72-4.978-1.72-.714 0-1.333.068-1.878.204-.56.124-1.076.326-1.564.602-.504.289-.98.612-1.442 1.01-.491.43-.955.89-1.389 1.377.135-1.022.22-2.047.243-3.069-1.33.23-2.69.354-4.08.354-.68 0-1.37-.03-2.09-.099-.69-.06-1.376-.145-2.06-.255.128 1.226.222 2.404.278 3.494.05 1.105.076 2.363.076 3.785m23.426-7.117v12.457c0 1.338-.042 2.678-.127 3.999l-.23 3.995 2.22-.237c.786-.081 1.52-.119 2.202-.119.733 0 1.457.038 2.176.092.717.068 1.428.153 2.137.262-.124-1.882-.235-3.553-.316-4.974-.073-1.342-.108-2.686-.106-4.03l4.42 9.004c1.48-.235 3.01-.355 4.544-.355 1.467 0 2.89.12 4.305.357v-.757c-.125-.118-.23-.256-.31-.408-.081-.136-.177-.285-.27-.45l-6.584-11.883c1.066-1.15 2.15-2.284 3.252-3.4l3.123-3.17v-.545c-.517.107-.986.19-1.398.255-.421.068-.909.099-1.453.099-.475 0-.95-.028-1.421-.084-.485-.057-.966-.148-1.438-.27-.452.752-.941 1.48-1.467 2.181-.567.753-1.143 1.491-1.741 2.242-.614.755-1.224 1.476-1.857 2.202-.615.723-1.207 1.402-1.747 2.06v-1.72c0-2.757.027-5.474.093-8.167.068-2.693.179-5.384.328-8.09-.593.12-1.193.207-1.797.262-.683.071-1.52.093-2.504.093-.977 0-1.803-.022-2.528-.093-.625-.053-1.247-.14-1.863-.262.229 3.146.348 6.3.357 9.454M75.796 41l-1.414 2.883 1.304-.248c.442-.068.867-.108 1.32-.108.415 0 .813.04 1.211.108l1.209.248c.683-2.16 1.52-4.536 2.516-7.147 1.008-2.662 2.047-5.313 3.116-7.95 1.047-2.606 2.121-5.2 3.223-7.782.944-2.214 1.902-4.423 2.873-6.626l.62-1.42c-.455.098-.913.183-1.373.255-.837.133-1.69.133-2.526 0-.454-.068-.905-.153-1.352-.255-.434 1.857-.954 3.693-1.56 5.501l-1.847 5.4c-.608-1.821-1.173-3.622-1.732-5.44l-1.632-5.46c-.785.162-1.576.254-2.351.297-.792.027-1.57.056-2.355.056-.856 0-1.7-.03-2.499-.084-.79-.045-1.576-.135-2.356-.27.6 1.595 1.267 3.18 2.013 4.75.752 1.583 1.454 3.17 2.132 4.768.958 2.186 1.875 4.39 2.749 6.61l1.958 5.005c-.189.435-.42.965-.705 1.58l-.896 1.912-.916 1.885-.73 1.532zm29.567-17.731c0 1.01-.01 1.995-.04 2.95-.021.844-.118 1.686-.288 2.513-.177.74-.437 1.313-.791 1.751-.352.436-.867.653-1.549.653-.65 0-1.16-.245-1.521-.71-.36-.476-.643-1.092-.803-1.87-.187-.868-.287-1.753-.299-2.64-.027-.987-.04-1.973-.04-2.96 0-1.08.028-2.091.084-3.021.05-.93.17-1.734.352-2.392.177-.666.444-1.202.801-1.581.352-.384.83-.558 1.426-.558.655 0 1.16.213 1.51.667.357.435.615 1.021.787 1.763.163.736.277 1.57.311 2.51.05.954.06 1.932.06 2.925m-2.59-10.48c-1.589 0-3.085.235-4.487.67-1.344.425-2.595 1.103-3.684 1.996-1.069.893-1.923 2.014-2.5 3.281-.615 1.31-.926 2.824-.926 4.533 0 1.778.286 3.32.838 4.63.577 1.313 1.367 2.404 2.389 3.25 1.065.873 2.302 1.51 3.63 1.873 1.412.392 2.95.59 4.621.59 1.619 0 3.145-.21 4.545-.618 1.344-.364 2.594-1.01 3.668-1.897 1.054-.889 1.891-2.006 2.448-3.267.599-1.313.898-2.856.898-4.599 0-1.421-.24-2.764-.721-4.017-.478-1.246-1.213-2.378-2.156-3.323-.96-.966-2.152-1.72-3.578-2.268-1.44-.544-3.106-.833-4.984-.833"/>
</svg>
