<svg xmlns="http://www.w3.org/2000/svg" width="109" height="99" viewBox="0 0 109 99">
    <g fill="none" fill-rule="evenodd">
        <g fill="#FFF">
            <g>
                <g>
                    <path d="M61.994 98.834h5.7c0-.527-.013-1.019.005-1.51.01-.284-.106-.357-.37-.353-.884.011-1.768.004-2.652.004h-.603v-5.962h-2.08v7.82zm-24.425-.007c0-.399.003-.756 0-1.114-.01-.847.109-.731-.74-.737-.939-.006-1.877-.001-2.86-.001v-5.953h-2.105v7.805h5.705zm-10.662-5.656l-.965 2.736h1.926l-.96-2.736zm-4.24 5.698c.436-1.103.841-2.127 1.244-3.152.573-1.458 1.151-2.914 1.708-4.378.103-.27.237-.365.52-.354.538.021 1.079-.011 1.616.019.136.007.337.135.385.256.991 2.48 1.965 4.966 2.94 7.452.01.026.004.058.008.152-.666 0-1.331.017-1.994-.019-.104-.005-.228-.241-.286-.392-.306-.8-.3-.801-1.138-.801-.674 0-1.348.012-2.02-.007-.268-.007-.39.083-.481.335-.32.893-.33.89-1.29.89h-1.212zm21.078-3.067V93.97h-3.181v-1.166h3.492v-1.778h-5.634v7.813h5.706v-1.803h-3.571c-.008-.175-.018-.307-.02-.439-.003-.238 0-.476 0-.795h3.208zm44.216-2.983v4.228c.97-.038 2.019.222 2.616-.794.5-.85.503-1.795-.003-2.645-.6-1.01-1.643-.762-2.613-.789zm-2.138 5.993v-7.774c.068-.015.137-.043.206-.043 1.183.006 2.367-.02 3.548.033 2.049.09 3.455 1.55 3.485 3.597.008.518-.018 1.054-.139 1.555-.372 1.544-1.431 2.446-2.958 2.602-1.359.14-2.743.03-4.142.03zM51.247 63.106c1.03.43 1.292.83 1.292 1.938V83.25h5.601V62.184h-7.671v.646c.275.097.532.173.778.276zm12.81 2.051c2.312 5.941 4.69 11.857 7.033 17.786.108.273.238.35.518.349 1.738-.013 3.477-.015 5.215 0 .313.003.469-.085.594-.385 2.529-6.097 5.07-12.188 7.61-18.28.336-.809.667-1.62 1.019-2.471-1.308 0-2.551.012-3.794-.009-.323-.005-.465.104-.586.397-1.585 3.836-3.184 7.667-4.78 11.5-.482 1.155-.967 2.31-1.47 3.512-.086-.193-.151-.327-.206-.465-1.914-4.83-3.83-9.66-5.732-14.496-.136-.347-.31-.451-.676-.449-2.293.019-4.585.01-6.878.01h-.486v.712c1.376.207 2.127 1.023 2.62 2.289zm-27.38 11.95c-1.922-4.844-3.846-9.689-5.76-14.537-.119-.302-.258-.427-.608-.425-2.322.02-4.645.01-6.968.012-.146 0-.292.013-.456.02v.63c.042.029.064.05.091.06.07.025.141.05.214.066 1.095.243 1.785.887 2.202 1.95 2.353 6.005 4.747 11.996 7.114 17.997.124.315.272.418.611.415 1.709-.02 3.417-.018 5.126-.002.327.003.49-.077.624-.401 2.582-6.221 5.181-12.436 7.775-18.652.284-.68.558-1.364.847-2.07h-4.204L36.87 77.555c-.093-.215-.147-.33-.193-.447zM11.88 66.627l-3.675 8.198h6.885l-3.21-8.198zm-5.122-3.783v-.66h9.24l8.23 21.101h-3.563c-.614 0-1.23-.021-1.843.01-.33.016-.46-.112-.572-.405-.684-1.784-1.39-3.56-2.099-5.365h-.403c-2.772 0-5.545.006-8.317-.008-.337-.002-.496.105-.63.411-.73 1.67-1.49 3.327-2.226 4.995-.118.266-.252.376-.562.372-1.318-.022-2.637-.01-4.013-.01.077-.205.134-.38.208-.548l7.913-17.72c.508-1.136.262-1.674-.928-2.043-.14-.044-.282-.084-.435-.13zm76.393-40.382c-.05-.372-.08-.748-.15-1.116-.415-2.202-1.454-4.074-3.198-5.468-2.523-2.016-5.416-2.647-8.567-1.91-1.945.455-3.641 1.403-4.942 2.931-1.212 1.423-2.159 3.04-2.883 4.755-1.314 3.113-2.541 6.261-3.795 9.399-1.304 3.266-2.67 6.503-4.496 9.523-1.675 2.771-3.634 5.316-5.998 7.538-.535.502-1.09.983-1.636 1.474.111.04.174.017.225-.023 1.331-1.025 2.685-2.024 3.986-3.087 2.082-1.7 3.853-3.7 5.449-5.857 2.124-2.871 3.733-6.027 5.085-9.32 1.232-3 2.412-6.023 3.703-8.997.84-1.934 1.897-3.752 3.607-5.093 2.127-1.666 4.538-2.183 7.1-1.467 3.42.956 5.443 3.367 6.51 6.718zM66.01 49.959c-5.571 5.447-14.144 5.582-19.853.685-4.907 3.542-10.271 4.533-16.042 2.603-4.569-1.528-7.912-4.567-9.922-8.937-2.292-4.984-2.214-10.03.263-14.925 2.482-4.903 6.559-7.844 11.908-9.061-.817-1.954-1.21-3.958-1.164-6.056.08-3.706 1.385-6.916 3.891-9.627C37.408 2.135 40.285.62 43.66.148c6.078-.85 11.766 2.017 14.762 7.223.125.216.117.342-.069.533-.793.816-1.656 1.587-2.315 2.502-1.346 1.869-2.619 3.794-3.84 5.746-.956 1.53-1.775 3.144-2.683 4.704-1.084 1.864-2.167 3.731-3.313 5.558-.849 1.354-1.744 2.686-2.714 3.955-1.354 1.773-2.863 3.424-4.738 4.66-1.71 1.126-3.555 1.878-5.671 1.971-2.352.104-4.453-.498-6.323-1.862-.783-.571-1.428-1.33-2.153-2.02.251.54.455 1.117.77 1.627 1.298 2.113 3.101 3.627 5.492 4.35 2.26.685 4.457.462 6.632-.48 2.197-.95 3.922-2.482 5.481-4.215 1.763-1.96 3.235-4.148 4.59-6.41.994-1.661 1.941-3.351 2.919-5.023 1.281-2.191 2.542-4.395 3.87-6.558.775-1.261 1.606-2.498 2.52-3.66.73-.927 1.505-1.903 2.468-2.545 2.596-1.728 5.383-3.01 8.613-3.092 4.284-.11 7.967 1.278 11.011 4.267 2.38 2.336 3.767 5.198 4.226 8.518.292 2.111.077 4.167-.505 6.197-.088.308-.036.422.249.573 4.135 2.196 6.74 5.584 7.669 10.172 1.544 7.616-3.319 15.204-10.883 16.936-5.084 1.164-9.595-.07-13.454-3.607-.075-.069-.159-.128-.26-.21zm-6.479 49.063c.365-.12.735-.229 1.092-.369.102-.04.235-.17.238-.262.022-.604.011-1.21.011-1.916-.785.654-1.62.739-2.488.663-.926-.08-1.726-.723-1.906-1.525-.39-1.72.87-3.13 2.635-2.9.573.074 1.127.296 1.705.455 0-.474-.016-.998.006-1.52.012-.278-.096-.428-.349-.48-.567-.115-1.133-.276-1.707-.321-2.077-.163-4.216.96-4.495 3.574-.165 1.54.18 2.92 1.531 3.826.542.364 1.222.523 1.839.775h1.888zm-39.028 0c.066-.03.13-.07.199-.085 1.17-.259 1.76-.835 1.932-1.894.17-1.043-.278-1.957-1.29-2.487-.511-.27-1.074-.442-1.612-.66-.304-.124-.62-.228-.899-.394-.124-.075-.249-.297-.227-.427.022-.132.21-.3.353-.333.301-.069.634-.128.929-.068.717.147 1.42.365 2.143.558 0-.434-.015-.955.007-1.474.01-.254-.092-.374-.31-.468-1.152-.491-2.341-.614-3.553-.323-1.026.247-1.68.965-1.775 1.907-.104 1.028.317 1.814 1.222 2.305.443.24.928.405 1.394.603.398.169.81.31 1.184.518.134.075.26.328.234.472-.025.141-.235.327-.387.352-.393.062-.817.129-1.197.046-.804-.175-1.587-.444-2.393-.68 0 .446.017.981-.007 1.514-.012.273.089.416.333.493.551.173 1.101.35 1.652.525h2.068zm28.687 0c.109-.038.216-.082.327-.113.9-.252 1.571-.742 1.732-1.726.176-1.073-.122-1.96-1.095-2.538-.307-.182-.636-.331-.967-.465-.525-.213-1.072-.376-1.585-.614-.167-.078-.257-.323-.383-.492.171-.122.327-.316.515-.355.918-.189 1.776.036 2.592.463.108.056.218.11.37.188 0-.6.015-1.124-.01-1.647-.006-.133-.108-.33-.218-.38-1.319-.584-2.676-.741-4.051-.226-.752.282-1.241.842-1.349 1.655-.118.89.11 1.687.897 2.2.446.29.95.495 1.439.714.449.2.928.338 1.361.564.16.084.33.356.31.519-.017.144-.276.333-.456.372-.975.208-1.898-.023-2.787-.421-.238-.107-.466-.237-.758-.386 0 .592.017 1.114-.006 1.633-.013.29.093.445.36.53.537.169 1.07.349 1.603.525h2.159zm32.643 0c.048-.03.093-.073.146-.086 1.7-.445 2.455-1.415 2.456-3.157V91.031h-2.131v.57c-.003 1.454.009 2.908-.014 4.36-.01.727-.475 1.15-1.203 1.178-1.034.039-1.564-.27-1.598-1.078-.062-1.48-.042-2.964-.056-4.446-.002-.19 0-.38 0-.597h-2.07c-.01.088-.024.16-.024.231-.001 1.649-.035 3.298.01 4.945.034 1.217.664 2.083 1.804 2.549.258.106.527.186.791.279h1.889zm-7.643-4.073c.007-1.3-.8-2.168-2.035-2.192-1.23-.023-2.11.892-2.098 2.18.012 1.303.829 2.16 2.065 2.167 1.23.008 2.06-.858 2.068-2.155zm-2.969 4.073c-.857-.236-1.69-.525-2.287-1.234-1.168-1.384-1.334-2.953-.697-4.585.608-1.558 1.87-2.261 3.501-2.364 1.17-.074 2.281.102 3.203.883 1.345 1.138 1.634 2.642 1.293 4.278-.318 1.524-1.296 2.487-2.802 2.904-.11.03-.215.078-.322.118h-1.889zm29.134-24.204l-3.21-8.189-3.673 8.189h6.883zm9.085 8.468c-1.783 0-3.566-.01-5.349.008-.325.003-.467-.104-.58-.402-.683-1.785-1.387-3.562-2.086-5.347-.118-.007-.22-.02-.324-.02-2.817 0-5.634.006-8.45-.008-.304-.001-.449.094-.569.366-.74 1.682-1.502 3.354-2.241 5.037-.118.268-.25.379-.56.374-1.328-.02-2.657-.009-4.042-.009.51-1.153.996-2.256 1.488-3.357l6.78-15.177c.325-.728.143-1.243-.575-1.585-.292-.139-.607-.23-.919-.345v-.665h.471c2.772 0 5.544.009 8.316-.011.372-.003.508.13.634.452 2.601 6.694 5.214 13.383 7.827 20.072.047.12.119.232.179.347v.27z" transform="translate(-253 -196) translate(0 100) translate(253 96)"/>
                </g>
            </g>
        </g>
    </g>
</svg>
