<svg width="570" height="380" viewBox="0 0 570 380" fill="none" xmlns="http://www.w3.org/2000/svg">
<g filter="url(#filter0_d_141_4655)">
<path d="M401.52 202.19H252.87V310.57H401.52V202.19Z" fill="white"/>
<path d="M485.09 204.31H84.92C76.1994 204.31 69.13 211.38 69.13 220.1V220.11C69.13 228.831 76.1994 235.9 84.92 235.9H485.09C493.811 235.9 500.88 228.831 500.88 220.11V220.1C500.88 211.38 493.811 204.31 485.09 204.31Z" fill="white"/>
<path d="M485.08 238.39H84.92C74.84 238.39 66.64 230.19 66.64 220.11C66.64 210.03 74.84 201.83 84.92 201.83H485.08C495.16 201.83 503.36 210.03 503.36 220.11C503.36 230.19 495.16 238.39 485.08 238.39ZM84.92 206.8C77.58 206.8 71.62 212.77 71.62 220.1C71.62 227.43 77.59 233.4 84.92 233.4H485.08C492.42 233.4 498.38 227.43 498.38 220.1C498.38 212.77 492.41 206.8 485.08 206.8H84.92Z" fill="#C5DDFC"/>
<path d="M84.56 225.78C87.6915 225.78 90.23 223.242 90.23 220.11C90.23 216.979 87.6915 214.44 84.56 214.44C81.4286 214.44 78.89 216.979 78.89 220.11C78.89 223.242 81.4286 225.78 84.56 225.78Z" fill="#C5DDFC"/>
<path d="M173.65 225.78C176.781 225.78 179.32 223.242 179.32 220.11C179.32 216.979 176.781 214.44 173.65 214.44C170.519 214.44 167.98 216.979 167.98 220.11C167.98 223.242 170.519 225.78 173.65 225.78Z" fill="#C5DDFC"/>
<path d="M440.9 225.78C444.031 225.78 446.57 223.242 446.57 220.11C446.57 216.979 444.031 214.44 440.9 214.44C437.769 214.44 435.23 216.979 435.23 220.11C435.23 223.242 437.769 225.78 440.9 225.78Z" fill="#C5DDFC"/>
<path d="M485.44 225.78C488.571 225.78 491.11 223.242 491.11 220.11C491.11 216.979 488.571 214.44 485.44 214.44C482.309 214.44 479.77 216.979 479.77 220.11C479.77 223.242 482.309 225.78 485.44 225.78Z" fill="#C5DDFC"/>
<path d="M485.08 238.39H84.92C74.84 238.39 66.64 230.19 66.64 220.11H71.62C71.62 227.45 77.59 233.41 84.92 233.41H485.08C492.42 233.41 498.38 227.44 498.38 220.11H503.36C503.36 230.19 495.16 238.39 485.08 238.39Z" fill="#051344"/>
<path d="M256.78 167.12H209.6V201.83H256.78V167.12Z" fill="#F15B22"/>
<path d="M481.63 167.12H434.45V201.83H481.63V167.12Z" fill="#FDAD31"/>
<path d="M153.47 167.12H106.29V201.83H153.47V167.12Z" fill="#55C9EF"/>
<path d="M129.1 225.78C132.231 225.78 134.77 223.242 134.77 220.11C134.77 216.979 132.231 214.44 129.1 214.44C125.969 214.44 123.43 216.979 123.43 220.11C123.43 223.242 125.969 225.78 129.1 225.78Z" fill="#C5DDFC"/>
<path d="M218.19 226.52C221.321 226.52 223.86 223.982 223.86 220.85C223.86 217.719 221.321 215.18 218.19 215.18C215.059 215.18 212.52 217.719 212.52 220.85C212.52 223.982 215.059 226.52 218.19 226.52Z" fill="#C5DDFC"/>
<path d="M401.52 136.56H252.87V244.94H401.52V136.56Z" fill="#C5DDFC"/>
<path d="M394.25 72.9099C398.58 72.9099 402.09 76.4199 402.09 80.7499V92.3499H386.41V80.7499C386.41 76.4199 389.92 72.9099 394.25 72.9099Z" fill="#F15B22"/>
<path d="M404.72 86.9099H383.78V96.6299H404.72V86.9099Z" fill="#051344"/>
<path d="M364.85 72.9099C369.18 72.9099 372.69 76.4199 372.69 80.7499V92.3499H357.01V80.7499C357.01 76.4199 360.52 72.9099 364.85 72.9099Z" fill="#FDAD31"/>
<path d="M375.32 86.9099H354.38V96.6299H375.32V86.9099Z" fill="#051344"/>
<path d="M416.24 93.8899H342.65C339.9 93.8899 337.67 96.1199 337.67 98.8699V113.64C337.67 116.39 335.44 118.62 332.69 118.62H276.49C273.74 118.62 271.51 116.39 271.51 113.64V109.08C271.51 98.4899 262.93 89.9099 252.34 89.9099C241.75 89.9099 233.17 98.4899 233.17 109.08V239.38H421.2V98.8699C421.2 96.1199 418.97 93.8899 416.22 93.8899H416.24Z" fill="white"/>
<path d="M174.36 134.51C167.83 126.62 164.57 119.07 164.66 112.07C164.73 106.47 167.69 101.32 172.2 98.9399C176.18 96.8399 180.81 97.1899 184.9 99.9099C187.85 101.87 190.09 104.59 192.27 107.22C194.38 109.78 196.57 112.43 199.38 114.33C203.68 117.23 208.85 118.01 213.21 116.41C221.77 113.27 223.45 103.77 224.93 95.3999C225.28 93.4299 225.61 91.5699 226.01 89.8299C227.16 84.8799 228.79 81.2799 231.13 78.4999C234.39 74.6299 239.42 72.7299 244.59 73.4299C249.8 74.1299 254.19 77.3199 256.32 81.9599C260.39 90.7999 257.07 101.07 253.56 108.13L252.84 107.77C256.27 100.87 259.53 90.8399 255.59 82.2899C253.57 77.8999 249.41 74.8799 244.48 74.2099C239.59 73.5499 234.82 75.3399 231.74 78.9999C229.48 81.6799 227.91 85.1799 226.79 89.9999C226.39 91.7199 226.06 93.5699 225.72 95.5299C224.2 104.12 222.49 113.85 213.49 117.15C208.9 118.84 203.46 118.03 198.94 114.98C196.03 113.02 193.81 110.32 191.66 107.72C189.53 105.14 187.32 102.46 184.47 100.56C180.58 97.9699 176.36 97.6399 172.59 99.6299C168.34 101.88 165.55 106.76 165.48 112.07C165.4 118.88 168.6 126.25 175 133.99L174.38 134.5L174.36 134.51Z" fill="#7583D3"/>
<path d="M176.85 175.62L171.12 168.22L181.66 160.06C184.17 158.12 185.47 155.19 185.24 152.02C185.01 148.86 183.29 146.15 180.52 144.59L159.55 132.79C156.78 131.23 153.58 131.17 150.75 132.61C147.93 134.05 146.1 136.69 145.74 139.84L144.23 153.09L134.93 152.03L136.44 138.78C137.15 132.55 140.9 127.12 146.49 124.27C152.07 121.41 158.67 121.55 164.14 124.62L185.11 136.42C190.58 139.5 194.11 145.07 194.57 151.32C195.03 157.58 192.34 163.6 187.38 167.44L176.84 175.6L176.85 175.62Z" fill="white"/>
<path d="M199.431 78.6039L170.754 129.581L178.912 134.17L207.589 83.193L199.431 78.6039Z" fill="white"/>
<path d="M203.185 75.7899L198.594 83.9468L249.567 112.633L254.157 104.476L203.185 75.7899Z" fill="white"/>
<path d="M173.98 142.98C178.89 142.98 182.87 139 182.87 134.09C182.87 129.18 178.89 125.2 173.98 125.2C169.07 125.2 165.09 129.18 165.09 134.09C165.09 139 169.07 142.98 173.98 142.98Z" fill="white"/>
<path d="M173.97 145.47C167.7 145.47 162.59 140.37 162.59 134.09C162.59 127.81 167.69 122.71 173.97 122.71C180.25 122.71 185.35 127.81 185.35 134.09C185.35 140.37 180.25 145.47 173.97 145.47ZM173.97 127.7C170.44 127.7 167.57 130.57 167.57 134.1C167.57 137.63 170.44 140.5 173.97 140.5C177.5 140.5 180.37 137.63 180.37 134.1C180.37 130.57 177.5 127.7 173.97 127.7Z" fill="#C5DDFC"/>
<path d="M202.56 89.6899C207.47 89.6899 211.45 85.7097 211.45 80.7999C211.45 75.8901 207.47 71.9099 202.56 71.9099C197.65 71.9099 193.67 75.8901 193.67 80.7999C193.67 85.7097 197.65 89.6899 202.56 89.6899Z" fill="white"/>
<path d="M202.56 92.1799C196.29 92.1799 191.18 87.0799 191.18 80.7999C191.18 74.5199 196.28 69.4199 202.56 69.4199C208.84 69.4199 213.94 74.5199 213.94 80.7999C213.94 87.0799 208.84 92.1799 202.56 92.1799ZM202.56 74.4099C199.03 74.4099 196.16 77.2799 196.16 80.8099C196.16 84.3399 199.03 87.2099 202.56 87.2099C206.09 87.2099 208.96 84.3399 208.96 80.8099C208.96 77.2799 206.09 74.4099 202.56 74.4099Z" fill="#C5DDFC"/>
<path d="M252.22 117.04C257.13 117.04 261.11 113.06 261.11 108.15C261.11 103.24 257.13 99.2599 252.22 99.2599C247.31 99.2599 243.33 103.24 243.33 108.15C243.33 113.06 247.31 117.04 252.22 117.04Z" fill="white"/>
<path d="M252.22 119.53C245.95 119.53 240.84 114.43 240.84 108.15C240.84 101.87 245.94 96.7699 252.22 96.7699C258.5 96.7699 263.6 101.87 263.6 108.15C263.6 114.43 258.5 119.53 252.22 119.53ZM252.22 101.76C248.69 101.76 245.82 104.63 245.82 108.16C245.82 111.69 248.69 114.56 252.22 114.56C255.75 114.56 258.62 111.69 258.62 108.16C258.62 104.63 255.75 101.76 252.22 101.76Z" fill="#C5DDFC"/>
<path d="M283.586 266.218L278.584 269.898L291.318 287.208L296.32 283.528L283.586 266.218Z" fill="#051344"/>
<path d="M279.37 271.66C282.656 271.66 285.32 268.996 285.32 265.71C285.32 262.424 282.656 259.76 279.37 259.76C276.084 259.76 273.42 262.424 273.42 265.71C273.42 268.996 276.084 271.66 279.37 271.66Z" fill="#F15B22"/>
<path d="M270.87 280.77H304.59C307.35 280.77 309.59 283.01 309.59 285.77V310.58H265.87V285.77C265.87 283.01 268.11 280.77 270.87 280.77Z" fill="#E9F2FF"/>
<path d="M300.26 280.77H274.7C272.634 280.77 270.96 282.444 270.96 284.51V284.85C270.96 286.916 272.634 288.59 274.7 288.59H300.26C302.326 288.59 304 286.916 304 284.85V284.51C304 282.444 302.326 280.77 300.26 280.77Z" fill="#C5DDFC"/>
<path d="M386.14 267.01H347.19C345.627 267.01 344.36 268.277 344.36 269.84V270.35C344.36 271.913 345.627 273.18 347.19 273.18H386.14C387.703 273.18 388.97 271.913 388.97 270.35V269.84C388.97 268.277 387.703 267.01 386.14 267.01Z" fill="#E9F2FF"/>
<path d="M386.14 280.12H347.19C345.627 280.12 344.36 281.387 344.36 282.95V283.46C344.36 285.023 345.627 286.29 347.19 286.29H386.14C387.703 286.29 388.97 285.023 388.97 283.46V282.95C388.97 281.387 387.703 280.12 386.14 280.12Z" fill="#E9F2FF"/>
<path d="M386.14 293.24H347.19C345.627 293.24 344.36 294.507 344.36 296.07V296.58C344.36 298.143 345.627 299.41 347.19 299.41H386.14C387.703 299.41 388.97 298.143 388.97 296.58V296.07C388.97 294.507 387.703 293.24 386.14 293.24Z" fill="#E9F2FF"/>
<path d="M379.27 199.06C369.42 199.06 360.31 202.31 352.97 207.8L367.07 221.9C370.67 219.82 374.83 218.61 379.27 218.61C383.71 218.61 387.88 219.82 391.47 221.9L405.57 207.8C398.23 202.31 389.12 199.06 379.27 199.06Z" fill="#E9F2FF"/>
<path d="M395.03 211.65C390.46 208.73 385.01 207.19 379.27 207.19C373.53 207.19 368.09 208.73 363.51 211.65L361.27 208.13C366.51 204.79 372.74 203.02 379.27 203.02C385.8 203.02 392.02 204.79 397.27 208.13L395.03 211.65Z" fill="#FDAD31"/>
<path d="M386.93 203.88L385.62 207.85C389 208.56 392.18 209.84 395.03 211.66L397.27 208.14C394.13 206.14 390.63 204.71 386.93 203.88Z" fill="#F15B22"/>
<path d="M371.61 203.88C367.91 204.71 364.41 206.14 361.27 208.14L363.51 211.66C366.36 209.85 369.54 208.56 372.92 207.85L371.61 203.88Z" fill="#55C9EF"/>
<path d="M384.89 218.85C384.78 218.85 384.67 218.83 384.57 218.78C384.19 218.6 384.03 218.15 384.21 217.77L389.67 206.16C389.85 205.78 390.3 205.62 390.68 205.8C391.06 205.98 391.22 206.43 391.04 206.81L385.58 218.42C385.45 218.7 385.18 218.86 384.89 218.86V218.85Z" fill="#051344"/>
<path d="M379.38 139.92C387.195 139.92 393.53 133.585 393.53 125.77C393.53 117.955 387.195 111.62 379.38 111.62C371.565 111.62 365.23 117.955 365.23 125.77C365.23 133.585 371.565 139.92 379.38 139.92Z" fill="white"/>
<path d="M379.38 142.42C370.2 142.42 362.73 134.95 362.73 125.77C362.73 116.59 370.2 109.12 379.38 109.12C388.56 109.12 396.03 116.59 396.03 125.77C396.03 134.95 388.56 142.42 379.38 142.42ZM379.38 114.12C372.96 114.12 367.73 119.35 367.73 125.77C367.73 132.19 372.96 137.42 379.38 137.42C385.8 137.42 391.03 132.19 391.03 125.77C391.03 119.35 385.8 114.12 379.38 114.12Z" fill="#051344"/>
<path d="M379.53 117.75H379.23C378.7 117.75 378.27 118.18 378.27 118.71V125.03C378.27 125.56 378.7 125.99 379.23 125.99H379.53C380.06 125.99 380.49 125.56 380.49 125.03V118.71C380.49 118.18 380.06 117.75 379.53 117.75Z" fill="#F15B22"/>
<path d="M379.38 128.59C380.937 128.59 382.2 127.328 382.2 125.77C382.2 124.213 380.937 122.95 379.38 122.95C377.823 122.95 376.56 124.213 376.56 125.77C376.56 127.328 377.823 128.59 379.38 128.59Z" fill="#051344"/>
<path d="M379.16 181.31C386.975 181.31 393.31 174.975 393.31 167.16C393.31 159.345 386.975 153.01 379.16 153.01C371.345 153.01 365.01 159.345 365.01 167.16C365.01 174.975 371.345 181.31 379.16 181.31Z" fill="white"/>
<path d="M379.16 183.8C374.9 183.8 370.63 182.18 367.39 178.93C360.9 172.44 360.9 161.88 367.39 155.39C373.88 148.9 384.44 148.9 390.93 155.39C397.42 161.88 397.42 172.44 390.93 178.93C387.68 182.18 383.42 183.8 379.16 183.8ZM379.16 155.51C376.18 155.51 373.19 156.65 370.92 158.92C366.38 163.46 366.38 170.85 370.92 175.39C375.46 179.93 382.85 179.93 387.39 175.39C391.93 170.85 391.93 163.46 387.39 158.92C385.12 156.65 382.14 155.51 379.15 155.51H379.16Z" fill="#051344"/>
<path d="M384.939 161.59L384.727 161.377C384.352 161.002 383.744 161.002 383.369 161.377L378.901 165.846C378.526 166.221 378.526 166.829 378.901 167.204L379.113 167.416C379.488 167.791 380.095 167.791 380.47 167.416L384.939 162.947C385.314 162.572 385.314 161.964 384.939 161.59Z" fill="#F15B22"/>
<path d="M379.16 169.98C380.717 169.98 381.98 168.718 381.98 167.16C381.98 165.603 380.717 164.34 379.16 164.34C377.603 164.34 376.34 165.603 376.34 167.16C376.34 168.718 377.603 169.98 379.16 169.98Z" fill="#051344"/>
<path d="M268.09 188.15C268.09 185.957 266.315 184.18 264.125 184.18C261.935 184.18 260.16 185.957 260.16 188.15V221.06C260.16 223.253 261.935 225.03 264.125 225.03C266.315 225.03 268.09 223.253 268.09 221.06V188.15Z" fill="#E9F2FF"/>
<path d="M270.73 192.13H257.52C255.758 192.13 254.33 193.558 254.33 195.32C254.33 197.082 255.758 198.51 257.52 198.51H270.73C272.492 198.51 273.92 197.082 273.92 195.32C273.92 193.558 272.492 192.13 270.73 192.13Z" fill="#F15B22"/>
<path d="M329.24 188.15C329.24 185.957 327.465 184.18 325.275 184.18C323.085 184.18 321.31 185.957 321.31 188.15V221.06C321.31 223.253 323.085 225.03 325.275 225.03C327.465 225.03 329.24 223.253 329.24 221.06V188.15Z" fill="#E9F2FF"/>
<path d="M331.89 201.6H318.68C316.918 201.6 315.49 203.028 315.49 204.79C315.49 206.552 316.918 207.98 318.68 207.98H331.89C333.652 207.98 335.08 206.552 335.08 204.79C335.08 203.028 333.652 201.6 331.89 201.6Z" fill="#F15B22"/>
<path d="M290.74 221.06C290.74 223.252 292.515 225.03 294.705 225.03C296.895 225.03 298.67 223.252 298.67 221.06V188.15C298.67 185.957 296.895 184.18 294.705 184.18C292.515 184.18 290.74 185.957 290.74 188.15V221.06Z" fill="#E9F2FF"/>
<path d="M288.1 217.07H301.31C303.072 217.07 304.5 215.642 304.5 213.88C304.5 212.118 303.072 210.69 301.31 210.69H288.1C286.338 210.69 284.91 212.118 284.91 213.88C284.91 215.642 286.338 217.07 288.1 217.07Z" fill="#F15B22"/>
<path d="M330.82 164.41H258.58C253.2 164.41 248.82 160.03 248.82 154.65V143.27C248.82 137.89 253.2 133.51 258.58 133.51H330.82C336.2 133.51 340.58 137.89 340.58 143.27V154.65C340.58 160.03 336.2 164.41 330.82 164.41ZM258.58 137.05C255.15 137.05 252.37 139.84 252.37 143.26V154.64C252.37 158.07 255.16 160.85 258.58 160.85H330.82C334.25 160.85 337.03 158.06 337.03 154.64V143.26C337.03 139.83 334.24 137.05 330.82 137.05H258.58Z" fill="#E9F2FF"/>
<path fill-rule="evenodd" clip-rule="evenodd" d="M264.73 145.13H279.19C279.93 145.13 280.53 145.73 280.53 146.47C280.53 147.21 279.93 147.81 279.19 147.81H264.73C263.99 147.81 263.39 147.21 263.39 146.47C263.39 145.73 263.99 145.13 264.73 145.13Z" fill="#D9E8FF"/>
<path fill-rule="evenodd" clip-rule="evenodd" d="M286.65 145.13H316.58C317.32 145.13 317.92 145.73 317.92 146.47C317.92 147.21 317.32 147.81 316.58 147.81H286.65C285.91 147.81 285.31 147.21 285.31 146.47C285.31 145.73 285.91 145.13 286.65 145.13Z" fill="#D9E8FF"/>
<path fill-rule="evenodd" clip-rule="evenodd" d="M264.73 150.5H289.93C290.67 150.5 291.27 151.1 291.27 151.84C291.27 152.58 290.67 153.18 289.93 153.18H264.73C263.99 153.18 263.39 152.58 263.39 151.84C263.39 151.1 263.99 150.5 264.73 150.5Z" fill="#D9E8FF"/>
</g>
<defs>
<filter id="filter0_d_141_4655" x="25.64" y="28.4199" width="536.72" height="341.16" filterUnits="userSpaceOnUse" color-interpolation-filters="sRGB">
<feFlood flood-opacity="0" result="BackgroundImageFix"/>
<feColorMatrix in="SourceAlpha" type="matrix" values="0 0 0 0 0 0 0 0 0 0 0 0 0 0 0 0 0 0 127 0" result="hardAlpha"/>
<feOffset dx="9" dy="9"/>
<feGaussianBlur stdDeviation="25"/>
<feComposite in2="hardAlpha" operator="out"/>
<feColorMatrix type="matrix" values="0 0 0 0 0.215686 0 0 0 0 0.231373 0 0 0 0 0.470588 0 0 0 0.1 0"/>
<feBlend mode="normal" in2="BackgroundImageFix" result="effect1_dropShadow_141_4655"/>
<feBlend mode="normal" in="SourceGraphic" in2="effect1_dropShadow_141_4655" result="shape"/>
</filter>
</defs>
</svg>
