<svg width="570" height="380" viewBox="0 0 570 380" fill="none" xmlns="http://www.w3.org/2000/svg">
<g clip-path="url(#clip0_141_4295)">
<g filter="url(#filter0_d_141_4295)">
<path d="M447.7 311.4H122.7C119.9 311.4 117.7 309.2 117.7 306.4V99.3001C117.7 96.5001 119.9 94.3001 122.7 94.3001H447.8C450.6 94.3001 452.8 96.5001 452.8 99.3001V306.4C452.7 309.2 450.5 311.4 447.7 311.4Z" fill="white"/>
<path d="M371.266 172.488L336.629 174.546L338.212 201.198L372.85 199.14L371.266 172.488Z" fill="#C5DDFC"/>
<path d="M372.5 238.8H369.1V238H371.7V235.7H372.5V238.8ZM365.1 238.8H362.1V238H365.1V238.8ZM359.1 238.8H355.1V238H359.1V238.8ZM352.1 238.8H349.1V238H352.1V238.8ZM345.1 238.8H342.1V238H345.1V238.8ZM339.1 238.8H337V236.1H337.8V238H339.1V238.8ZM337.8 233.1H337V230.1H337.8V233.1ZM372.5 232.7H371.7V228.7H372.5V232.7ZM337.8 226.1H337V223.1H337.8V226.1ZM372.5 225.7H371.7V222.7H372.5V225.7ZM337.8 220.1H337V216.1H337.8V220.1ZM372.5 218.7H371.7V215.7H372.5V218.7ZM337.8 213.1H337V211.3H339V212.1H337.8V213.1ZM372.5 212.7H371.7V212.1H369.1V211.3H372.5V212.7ZM366 212.1H363V211.3H366V212.1ZM359 212.1H356V211.3H359V212.1ZM353 212.1H349V211.3H353V212.1ZM346 212.1H343V211.3H346V212.1Z" fill="#D9E8FF"/>
<path d="M372.763 250.794L338.104 249.062L336.772 275.73L371.43 277.462L372.763 250.794Z" fill="#C5DDFC"/>
<path d="M326.3 173.5H291.6V200.2H326.3V173.5Z" fill="#55C9EF"/>
<path d="M326.3 249.9H291.6V276.6H326.3V249.9Z" fill="#55C9EF"/>
<path d="M323.603 132.567L289.365 138.216L293.712 164.561L327.95 158.912L323.603 132.567Z" fill="#55C9EF"/>
<path d="M326.958 212.593L292.3 210.862L290.968 237.53L325.626 239.261L326.958 212.593Z" fill="#55C9EF"/>
<path d="M262 135.1H227.3V161.8H262V135.1Z" fill="#F15B22"/>
<path d="M262.656 174.189L227.997 172.457L226.665 199.125L261.324 200.857L262.656 174.189Z" fill="#F15B22"/>
<path d="M261.169 248.787L226.532 250.845L228.115 277.497L262.753 275.439L261.169 248.787Z" fill="#F15B22"/>
<path d="M216.2 249.8H181.5V276.5H216.2V249.8Z" fill="#FDAD31"/>
<path d="M216.852 135.988L182.193 134.257L180.861 160.925L215.519 162.656L216.852 135.988Z" fill="#FDAD31"/>
<path d="M215.37 172.288L180.732 174.346L182.316 200.998L216.954 198.94L215.37 172.288Z" fill="#FDAD31"/>
<path d="M216.856 212.392L182.197 210.66L180.865 237.328L215.523 239.06L216.856 212.392Z" fill="#FDAD31"/>
<path d="M439.7 122.9H128.6V123.7H439.7V122.9Z" fill="#D9E8FF"/>
<path d="M167.1 102.7H166.3V302.3H167.1V102.7Z" fill="#D9E8FF"/>
<path fill-rule="evenodd" clip-rule="evenodd" d="M131.6 182.7H155.3C156 182.7 156.6 183.3 156.6 184C156.6 184.7 156 185.4 155.3 185.4H131.6C130.9 185.4 130.2 184.8 130.2 184C130.2 183.3 130.8 182.7 131.6 182.7Z" fill="#D9E8FF"/>
<path fill-rule="evenodd" clip-rule="evenodd" d="M131.6 188.1H141.8C142.5 188.1 143.1 188.7 143.1 189.5C143.1 190.2 142.5 190.8 141.8 190.8H131.6C130.9 190.8 130.2 190.2 130.2 189.5C130.2 188.7 130.8 188.1 131.6 188.1Z" fill="#D9E8FF"/>
<path fill-rule="evenodd" clip-rule="evenodd" d="M131 221H140.3C141 221 141.7 221.6 141.7 222.4C141.7 223.2 141.1 223.8 140.3 223.8H131C130.3 223.8 129.6 223.2 129.6 222.4C129.6 221.6 130.3 221 131 221Z" fill="#D9E8FF"/>
<path fill-rule="evenodd" clip-rule="evenodd" d="M131 226.4H149.3C150 226.4 150.7 227 150.7 227.7C150.7 228.4 150.1 229.1 149.3 229.1H131C130.3 229.1 129.6 228.5 129.6 227.7C129.7 227 130.3 226.4 131 226.4Z" fill="#D9E8FF"/>
<path d="M277.2 102.7H276.4V302.3H277.2V102.7Z" fill="#D9E8FF"/>
<path d="M387.3 102.7H386.5V302.3H387.3V102.7Z" fill="#D9E8FF"/>
<path fill-rule="evenodd" clip-rule="evenodd" d="M207.5 109.1H236.1C236.8 109.1 237.5 109.7 237.5 110.4C237.5 111.1 236.9 111.8 236.1 111.8H207.5C206.8 111.8 206.1 111.2 206.1 110.4C206.1 109.7 206.7 109.1 207.5 109.1Z" fill="#D9E8FF"/>
<path fill-rule="evenodd" clip-rule="evenodd" d="M198.5 114.5H245C245.7 114.5 246.3 115.1 246.3 115.9C246.3 116.6 245.7 117.2 245 117.2H198.5C197.8 117.2 197.2 116.6 197.2 115.9C197.2 115.1 197.8 114.5 198.5 114.5Z" fill="#D9E8FF"/>
<path fill-rule="evenodd" clip-rule="evenodd" d="M319.1 109.1H322.1C322.8 109.1 323.5 109.7 323.5 110.5C323.5 111.2 322.9 111.8 322.1 111.8H319.1C318.4 111.8 317.7 111.2 317.7 110.5C317.7 109.7 318.3 109.1 319.1 109.1Z" fill="#D9E8FF"/>
<path fill-rule="evenodd" clip-rule="evenodd" d="M326.6 109.1H344.6C345.3 109.1 346 109.7 346 110.5C346 111.2 345.4 111.8 344.6 111.8H326.6C325.9 111.8 325.2 111.2 325.2 110.5C325.2 109.7 325.8 109.1 326.6 109.1Z" fill="#D9E8FF"/>
<path fill-rule="evenodd" clip-rule="evenodd" d="M311.2 114.5H352.4C353.1 114.5 353.8 115.1 353.8 115.8C353.8 116.5 353.2 117.2 352.4 117.2H311.2C310.5 117.2 309.8 116.6 309.8 115.8C309.9 115.1 310.5 114.5 311.2 114.5Z" fill="#D9E8FF"/>
<path fill-rule="evenodd" clip-rule="evenodd" d="M408.5 109.1H417.8C418.5 109.1 419.1 109.7 419.1 110.4C419.1 111.1 418.5 111.8 417.8 111.8H408.5C407.8 111.8 407.1 111.2 407.1 110.4C407.2 109.7 407.8 109.1 408.5 109.1Z" fill="#D9E8FF"/>
<path fill-rule="evenodd" clip-rule="evenodd" d="M404 114.5H422.3C423 114.5 423.6 115.1 423.6 115.8C423.6 116.5 423 117.1 422.3 117.1H404C403.3 117.1 402.6 116.5 402.6 115.8C402.6 115.1 403.3 114.5 404 114.5Z" fill="#D9E8FF"/>
<path d="M523.4 213.8H469.1C466.3 213.8 464.1 211.6 464.1 208.8V188.7C464.1 185.9 466.3 183.7 469.1 183.7H523.4C526.2 183.7 528.4 185.9 528.4 188.7V208.8C528.4 211.6 526.1 213.8 523.4 213.8Z" fill="white"/>
<path fill-rule="evenodd" clip-rule="evenodd" d="M475.9 194.7H480.9C481.6 194.7 482.2 195.3 482.2 196C482.2 196.7 481.6 197.4 480.9 197.4H475.9C475.2 197.4 474.6 196.8 474.6 196C474.6 195.3 475.2 194.7 475.9 194.7Z" fill="#D9E8FF"/>
<path fill-rule="evenodd" clip-rule="evenodd" d="M475.9 200.1H488.9C489.6 200.1 490.2 200.7 490.2 201.5C490.2 202.2 489.6 202.8 488.9 202.8H475.9C475.2 202.8 474.6 202.2 474.6 201.5C474.6 200.7 475.2 200.1 475.9 200.1Z" fill="#D9E8FF"/>
<path fill-rule="evenodd" clip-rule="evenodd" d="M498.5 194.7H500.5C501.2 194.7 501.9 195.3 501.9 196.1C501.9 196.8 501.3 197.4 500.5 197.4H498.5C497.8 197.4 497.1 196.8 497.1 196.1C497.1 195.3 497.8 194.7 498.5 194.7Z" fill="#D9E8FF"/>
<path fill-rule="evenodd" clip-rule="evenodd" d="M505 194.7H511.7C512.4 194.7 513.1 195.3 513.1 196.1C513.1 196.8 512.5 197.4 511.7 197.4H505C504.3 197.4 503.6 196.8 503.6 196.1C503.6 195.3 504.3 194.7 505 194.7Z" fill="#D9E8FF"/>
<path fill-rule="evenodd" clip-rule="evenodd" d="M498.5 200.1H516.5C517.2 200.1 517.9 200.7 517.9 201.5C517.9 202.3 517.3 202.9 516.5 202.9H498.5C497.8 202.9 497.1 202.3 497.1 201.5C497.1 200.7 497.8 200.1 498.5 200.1Z" fill="#D9E8FF"/>
<path d="M523.4 267.3H469.1C466.3 267.3 464.1 265.1 464.1 262.3V226C464.1 223.2 466.3 221 469.1 221H523.4C526.2 221 528.4 223.2 528.4 226V262.4C528.4 265.1 526.1 267.3 523.4 267.3Z" fill="white"/>
<path fill-rule="evenodd" clip-rule="evenodd" d="M475.9 248.5H478.5C479.2 248.5 479.9 249.1 479.9 249.9C479.9 250.6 479.3 251.2 478.5 251.2H475.9C475.2 251.2 474.6 250.6 474.6 249.9C474.6 249.1 475.2 248.5 475.9 248.5Z" fill="#D9E8FF"/>
<path fill-rule="evenodd" clip-rule="evenodd" d="M483.1 248.5H499.4C500.1 248.5 500.8 249.1 500.8 249.9C500.8 250.6 500.2 251.2 499.4 251.2H483.1C482.4 251.2 481.8 250.6 481.8 249.9C481.7 249.1 482.3 248.5 483.1 248.5Z" fill="#D9E8FF"/>
<path fill-rule="evenodd" clip-rule="evenodd" d="M475.9 253.9H510.1C510.8 253.9 511.5 254.5 511.5 255.3C511.5 256 510.9 256.6 510.1 256.6H475.9C475.2 256.6 474.6 256 474.6 255.3C474.6 254.5 475.2 253.9 475.9 253.9Z" fill="#D9E8FF"/>
<path fill-rule="evenodd" clip-rule="evenodd" d="M498.5 231.6H513.2C513.9 231.6 514.5 232.2 514.5 232.9C514.5 233.6 513.9 234.3 513.2 234.3H498.5C497.8 234.3 497.1 233.7 497.1 232.9C497.1 232.2 497.8 231.6 498.5 231.6Z" fill="#D9E8FF"/>
<path fill-rule="evenodd" clip-rule="evenodd" d="M498.5 237H506.2C506.9 237 507.6 237.6 507.6 238.4C507.6 239.1 507 239.7 506.2 239.7H498.5C497.8 239.7 497.1 239.1 497.1 238.4C497.1 237.6 497.8 237 498.5 237Z" fill="#D9E8FF"/>
<path fill-rule="evenodd" clip-rule="evenodd" d="M475.9 231.6H482.5C483.2 231.6 483.9 232.2 483.9 233C483.9 233.8 483.3 234.4 482.5 234.4H475.9C475.2 234.4 474.6 233.8 474.6 233C474.6 232.2 475.2 231.6 475.9 231.6Z" fill="#D9E8FF"/>
<path fill-rule="evenodd" clip-rule="evenodd" d="M475.9 237H490.8C491.5 237 492.2 237.6 492.2 238.3C492.2 239 491.6 239.7 490.8 239.7H475.9C475.2 239.7 474.6 239.1 474.6 238.3C474.6 237.6 475.2 237 475.9 237Z" fill="#D9E8FF"/>
<path d="M101.4 134.1H47C44.2 134.1 42 131.9 42 129.1V73.6001C42 70.8001 44.2 68.6001 47 68.6001H101.3C104.1 68.6001 106.3 70.8001 106.3 73.6001V129.1C106.4 131.9 104.1 134.1 101.4 134.1Z" fill="white"/>
<path d="M55.6 86.0001C56.9807 86.0001 58.1 84.8808 58.1 83.5001C58.1 82.1193 56.9807 81.0001 55.6 81.0001C54.2193 81.0001 53.1 82.1193 53.1 83.5001C53.1 84.8808 54.2193 86.0001 55.6 86.0001Z" fill="#FDAD31"/>
<path fill-rule="evenodd" clip-rule="evenodd" d="M67.6 79.2001H70.5C71.2 79.2001 71.8 79.8001 71.8 80.5001C71.8 81.2001 71.2 81.8001 70.5 81.8001H67.6C66.9 81.8001 66.3 81.2001 66.3 80.5001C66.3 79.8001 66.9 79.2001 67.6 79.2001Z" fill="#D9E8FF"/>
<path fill-rule="evenodd" clip-rule="evenodd" d="M75.6 79.2001H88.9C89.6 79.2001 90.2 79.8001 90.2 80.5001C90.2 81.2001 89.6 81.8001 88.9 81.8001H75.6C74.9 81.8001 74.3 81.2001 74.3 80.5001C74.3 79.8001 74.9 79.2001 75.6 79.2001Z" fill="#D9E8FF"/>
<path fill-rule="evenodd" clip-rule="evenodd" d="M67.6 85.2001H93.4C94.1 85.2001 94.7 85.8001 94.7 86.5001C94.7 87.2001 94.1 87.8001 93.4 87.8001H67.6C66.9 87.8001 66.3 87.2001 66.3 86.5001C66.3 85.7001 66.9 85.2001 67.6 85.2001Z" fill="#D9E8FF"/>
<path d="M55.6 103.9C56.9807 103.9 58.1 102.781 58.1 101.4C58.1 100.019 56.9807 98.9001 55.6 98.9001C54.2193 98.9001 53.1 100.019 53.1 101.4C53.1 102.781 54.2193 103.9 55.6 103.9Z" fill="#F15B22"/>
<path fill-rule="evenodd" clip-rule="evenodd" d="M67.6 97.1001H79.2C79.9 97.1001 80.5 97.7001 80.5 98.4001C80.5 99.1001 79.9 99.7001 79.2 99.7001H67.6C66.9 99.7001 66.3 99.1001 66.3 98.4001C66.3 97.7001 66.9 97.1001 67.6 97.1001Z" fill="#D9E8FF"/>
<path fill-rule="evenodd" clip-rule="evenodd" d="M84.2 97.1001H86.9C87.6 97.1001 88.2 97.7001 88.2 98.4001C88.2 99.1001 87.6 99.7001 86.9 99.7001H84.2C83.5 99.7001 82.9 99.1001 82.9 98.4001C82.9 97.7001 83.5 97.1001 84.2 97.1001Z" fill="#D9E8FF"/>
<path fill-rule="evenodd" clip-rule="evenodd" d="M67.6 103.1H94.1C94.8 103.1 95.4 103.7 95.4 104.4C95.4 105.1 94.8 105.7 94.1 105.7H67.6C66.9 105.7 66.3 105.1 66.3 104.4C66.3 103.6 66.9 103.1 67.6 103.1Z" fill="#D9E8FF"/>
<path d="M55.6 121.8C56.9807 121.8 58.1 120.681 58.1 119.3C58.1 117.919 56.9807 116.8 55.6 116.8C54.2193 116.8 53.1 117.919 53.1 119.3C53.1 120.681 54.2193 121.8 55.6 121.8Z" fill="#55C9EF"/>
<path fill-rule="evenodd" clip-rule="evenodd" d="M67.6 115H88.4C89.1 115 89.7 115.6 89.7 116.3C89.7 117 89.1 117.6 88.4 117.6H67.6C66.9 117.6 66.3 117 66.3 116.3C66.3 115.6 66.9 115 67.6 115Z" fill="#D9E8FF"/>
<path fill-rule="evenodd" clip-rule="evenodd" d="M67.6 121H82C82.7 121 83.3 121.6 83.3 122.3C83.3 123 82.7 123.6 82 123.6H67.6C66.9 123.6 66.3 123 66.3 122.3C66.3 121.5 66.9 121 67.6 121Z" fill="#D9E8FF"/>
<path fill-rule="evenodd" clip-rule="evenodd" d="M131.7 259.2H134.7C135.4 259.2 136.1 259.8 136.1 260.6C136.1 261.4 135.5 262 134.7 262H131.7C131 262 130.3 261.4 130.3 260.6C130.3 259.8 131 259.2 131.7 259.2Z" fill="#D9E8FF"/>
<path fill-rule="evenodd" clip-rule="evenodd" d="M139.2 259.2H157.2C157.9 259.2 158.6 259.8 158.6 260.6C158.6 261.4 158 262 157.2 262H139.2C138.5 262 137.9 261.4 137.9 260.6C137.9 259.8 138.5 259.2 139.2 259.2Z" fill="#D9E8FF"/>
<path fill-rule="evenodd" clip-rule="evenodd" d="M131.7 264.6H146.4C147.1 264.6 147.7 265.2 147.7 266C147.7 266.8 147.1 267.4 146.4 267.4H131.7C131 267.4 130.3 266.8 130.3 266C130.3 265.2 131 264.6 131.7 264.6Z" fill="#D9E8FF"/>
<path fill-rule="evenodd" clip-rule="evenodd" d="M132.7 144.5H160C160.7 144.5 161.4 145.1 161.4 145.8C161.4 146.5 160.8 147.2 160 147.2H132.7C132 147.2 131.3 146.6 131.3 145.8C131.3 145.1 131.9 144.5 132.7 144.5Z" fill="#D9E8FF"/>
<path fill-rule="evenodd" clip-rule="evenodd" d="M132.7 149.9H151C151.7 149.9 152.4 150.5 152.4 151.3C152.4 152 151.8 152.6 151 152.6H132.7C132 152.6 131.3 152 131.3 151.3C131.3 150.5 131.9 149.9 132.7 149.9Z" fill="#D9E8FF"/>
<path d="M430.9 200.5H395.4V173H430.9V200.5ZM396.2 199.7H430.1V173.8H396.2V199.7Z" fill="#D9E8FF"/>
<path d="M430.9 238.8H395.4V211.3H430.9V238.8ZM396.2 238H430.1V212.1H396.2V238Z" fill="#D9E8FF"/>
<path d="M430.9 277H395.4V249.5H430.9V277ZM396.2 276.2H430.1V250.3H396.2V276.2Z" fill="#D9E8FF"/>
<path d="M430.9 162.3H395.4V134.8H430.9V162.3ZM396.2 161.5H430.1V135.6H396.2V161.5Z" fill="#D9E8FF"/>
<path d="M250 208.5H239.4V214.6H250V208.5Z" fill="#E9F2FF"/>
<path d="M262 211.5H227.3V238.2H262V211.5Z" fill="#F15B22"/>
<path d="M250 211.5H239.4V214.5H250V211.5Z" fill="#C5DDFC"/>
<path d="M434.864 257.685L400.226 259.743L401.81 286.395L436.447 284.337L434.864 257.685Z" fill="#FDAD31"/>
<path d="M423.1 255.5H412.5V261.6H423.1V255.5Z" fill="#E9F2FF"/>
<path d="M423.1 258.4L412.5 259V261.6H423.1V258.4Z" fill="#C5DDFC"/>
<path d="M313.5 131.9H302.9V138H313.5V131.9Z" fill="#E9F2FF"/>
<path d="M372.1 135.1H337.4V161.8H372.1V135.1Z" fill="#C5DDFC"/>
<path d="M313.5 134.2L302.9 136V138H313.5V134.2Z" fill="#C5DDFC"/>
<path d="M124.672 121.592L90.034 123.65L91.6175 150.302L126.255 148.244L124.672 121.592Z" fill="#55C9EF"/>
<path d="M368 188C367.9 188 367.7 188 367.6 188C364.7 187.9 360.6 187.5 357.3 185.7C352.7 183.2 349.4 177.5 352.1 172.4C354.5 167.8 360.2 165.9 364.4 165.7C369.1 165.4 374.3 166.8 378 169.4L377.6 170.1C374 167.7 369 166.3 364.5 166.6C360.5 166.8 355 168.6 352.8 172.9C350.4 177.5 353.4 182.7 357.7 185.1C360.9 186.8 364.9 187.3 367.7 187.3C372 187.4 377.2 185.8 378.9 181.1C379.6 179.2 379.5 177.2 378.6 175.4C377.7 173.4 375.9 171.9 373.7 171.1L374 170.3C376.4 171.1 378.4 172.8 379.4 175C380.4 177 380.5 179.2 379.7 181.3C377.8 186.3 372.5 188 368 188Z" fill="#7583D3"/>
<path d="M476.6 175.5C476.5 174.5 476.3 173.5 476.1 172.6L476.9 172.4C477.1 173.4 477.2 174.4 477.4 175.4L476.6 175.5ZM475.2 168.7C474.9 167.7 474.6 166.8 474.3 165.9L475.1 165.6C475.4 166.5 475.8 167.5 476 168.5L475.2 168.7ZM473.2 163.2C472.6 162 472 160.8 471.4 159.7L472.1 159.3C472.8 160.4 473.4 161.6 474 162.9L473.2 163.2ZM469.7 157.2C469.1 156.4 468.5 155.6 467.9 154.9L468.5 154.4C469.2 155.2 469.8 156 470.4 156.8L469.7 157.2ZM465.1 152.1C464.4 151.4 463.6 150.8 462.8 150.2L463.3 149.6C464.1 150.2 464.9 150.8 465.7 151.5L465.1 152.1ZM460.3 148.6C459.2 147.9 458 147.3 456.8 146.8L457.1 146.1C458.3 146.6 459.5 147.3 460.7 147.9L460.3 148.6ZM425.3 148.5L424.9 147.8C425.8 147.3 426.7 146.9 427.6 146.5L427.9 147.2C427.1 147.6 426.2 148.1 425.3 148.5ZM431.7 145.8L431.5 145C432.5 144.7 433.4 144.4 434.4 144.2L434.6 145C433.6 145.3 432.6 145.5 431.7 145.8ZM454.1 145.7C453.2 145.4 452.2 145.1 451.2 144.9L451.4 144.1C452.4 144.3 453.4 144.6 454.3 144.9L454.1 145.7ZM437.5 144.5L437.4 143.7C438.7 143.5 440.1 143.4 441.4 143.3V144.1C440.1 144.1 438.8 144.3 437.5 144.5ZM447.3 144.3C446.3 144.2 445.3 144.1 444.3 144.1V143.3C445.3 143.3 446.3 143.4 447.3 143.5V144.3Z" fill="#7583D3"/>
<path d="M424.6 144.8L425.3 145.1L424.1 148.8L427.9 149.8L427.7 150.6L423 149.4L424.6 144.8Z" fill="#7583D3"/>
<path d="M134.8 278.2H134.4V277.4H134.8C136 277.4 137.2 277.4 138.4 277.3V278.1C137.2 278.2 136 278.2 134.8 278.2ZM131.4 278.2C130.4 278.2 129.4 278.1 128.4 278L128.5 277.2C129.5 277.3 130.5 277.4 131.5 277.4L131.4 278.2ZM141.4 278L141.3 277.2C142.3 277.1 143.3 277 144.3 276.9L144.4 277.7C143.4 277.8 142.4 277.9 141.4 278ZM124.4 277.5C123.4 277.4 122.4 277.2 121.4 277L121.5 276.2C122.5 276.4 123.5 276.5 124.4 276.7V277.5ZM148.4 277.1L148.3 276.3C149.3 276.1 150.3 275.9 151.2 275.7L151.4 276.5C150.4 276.7 149.4 276.9 148.4 277.1ZM118.5 276.4C117.2 276.1 115.9 275.7 114.6 275.4L114.8 274.6C116.1 275 117.3 275.3 118.6 275.6L118.5 276.4ZM154.3 275.8L154.1 275C155.4 274.7 156.7 274.3 157.9 274L158.1 274.8C156.9 275.1 155.6 275.5 154.3 275.8ZM111.7 274.4C110.8 274.1 109.8 273.7 108.9 273.3L109.2 272.6C110.1 273 111.1 273.3 112 273.7L111.7 274.4ZM161.1 273.9L160.8 273.1C161.7 272.8 162.7 272.5 163.6 272.1L163.9 272.9C163 273.2 162 273.5 161.1 273.9ZM105.2 271.7C104.3 271.3 103.4 270.8 102.5 270.3L102.9 269.6C103.8 270.1 104.7 270.5 105.6 270.9L105.2 271.7ZM167.6 271.4L167.3 270.7C168.2 270.3 169.1 269.9 170 269.5L170.3 270.2C169.5 270.6 168.6 271 167.6 271.4ZM99.9 268.9C98.8 268.2 97.6 267.5 96.5 266.7L97 266C98.1 266.7 99.2 267.5 100.3 268.2L99.9 268.9ZM173.1 268.8L172.7 268.1C173.9 267.5 175.1 266.9 176.2 266.2L176.6 266.9C175.5 267.6 174.3 268.2 173.1 268.8ZM179.3 265.4L178.9 264.7C179.8 264.2 180.6 263.7 181.4 263.1L181.8 263.8C181 264.4 180.1 264.9 179.3 265.4ZM94.1 264.9C93.3 264.3 92.5 263.7 91.7 263L92.2 262.4C93 263 93.8 263.7 94.5 264.3L94.1 264.9ZM185.1 261.6L184.6 260.9C185.4 260.3 186.2 259.7 187 259.1L187.5 259.7C186.8 260.4 186 261 185.1 261.6ZM88.7 260.4C88.1 259.8 87.5 259.3 86.9 258.7C86.8 258.6 86.6 258.4 86.5 258.3L87.1 257.7C87.2 257.8 87.4 258 87.5 258.1C88.1 258.7 88.7 259.2 89.2 259.8L88.7 260.4ZM189.9 257.9L189.4 257.3C190.4 256.5 191.4 255.6 192.4 254.7L192.9 255.3C192 256.2 191 257.1 189.9 257.9ZM84.5 256C83.7 255 82.9 253.9 82.1 252.8L82.8 252.4C83.6 253.5 84.4 254.6 85.2 255.6L84.5 256ZM195.2 253.3L194.6 252.7L195.2 252.1C195.7 251.6 196.2 251.1 196.7 250.6L197.3 251.2C196.8 251.7 196.3 252.2 195.8 252.7L195.2 253.3ZM80.5 250.2C80 249.4 79.5 248.5 79 247.6L79.7 247.2C80.2 248.1 80.7 249 81.1 249.8L80.5 250.2ZM200.1 248.2L199.5 247.7C200.2 247 200.9 246.2 201.5 245.5L202.1 246C201.5 246.8 200.8 247.5 200.1 248.2ZM77.3 243.9C76.9 243 76.5 242.1 76.2 241.1L76.9 240.8C77.3 241.7 77.6 242.7 78 243.6L77.3 243.9ZM75.1 238.3C74.7 237 74.3 235.7 73.9 234.4L74.7 234.2C75 235.5 75.4 236.8 75.8 238L75.1 238.3ZM73.2 231.5C73 230.5 72.8 229.5 72.6 228.5L73.4 228.4C73.6 229.4 73.8 230.4 74 231.3L73.2 231.5ZM72.1 224.6C72 223.6 71.9 222.6 71.9 221.6H72.7C72.8 222.6 72.8 223.6 72.9 224.6H72.1ZM71.8 218.5V218.3C71.8 217 71.8 215.7 71.9 214.5L72.7 214.6C72.6 215.8 72.6 217.1 72.6 218.3V218.5H71.8ZM73 211.6L72.2 211.5C72.3 210.5 72.5 209.5 72.7 208.5L73.5 208.7C73.3 209.6 73.1 210.6 73 211.6ZM87.9 206.8L87.8 206C88.8 205.9 89.7 205.7 90.6 205.3L90.9 206C89.9 206.4 88.9 206.7 87.9 206.8ZM84.8 206.5C84.3 206.4 83.9 206.2 83.5 206.1C82.7 205.7 81.9 205.3 81.1 204.7L81.6 204.1C82.3 204.6 83.1 205.1 83.8 205.4C84.2 205.6 84.6 205.7 85 205.8L84.8 206.5ZM74.6 204.9L73.8 204.6C73.9 204.3 74 204 74.1 203.7C74.3 203 74.6 202.4 74.9 201.8L75.6 202.1C75.3 202.7 75.1 203.3 74.8 204C74.8 204.3 74.7 204.6 74.6 204.9ZM94.3 203.7L93.7 203.2C94.4 202.5 94.8 201.6 95 200.8L95.8 201C95.6 201.9 95.1 202.8 94.3 203.7ZM78.8 202.6C78.2 201.9 77.6 201 77 200.1L77.7 199.7C78.2 200.6 78.8 201.4 79.4 202.1L78.8 202.6ZM77 199.5L76.3 199.1C77 197.9 77.9 196.8 78.7 195.8L79.3 196.3C78.5 197.3 77.7 198.3 77 199.5ZM95.1 197.9C94.8 196.7 94.1 195.7 93.1 194.8L93.6 194.2C94.7 195.2 95.5 196.4 95.8 197.7L95.1 197.9ZM75.3 196.4C75 195.5 74.7 194.5 74.4 193.5L75.2 193.3C75.4 194.3 75.7 195.2 76.1 196.1L75.3 196.4ZM81.5 194.4L81 193.7C81.9 193.1 82.8 192.6 83.7 192.3L84 193.1C83.2 193.4 82.3 193.9 81.5 194.4ZM90.6 193.3C89.7 192.9 88.8 192.7 87.8 192.6L87.9 191.8C88.9 191.9 90 192.1 90.9 192.5L90.6 193.3ZM73.8 190.6C73.6 189.3 73.5 187.9 73.4 186.6H74.2C74.3 187.9 74.4 189.3 74.6 190.5L73.8 190.6ZM74.1 183.5H73.3C73.3 182.5 73.4 181.5 73.4 180.5L74.2 180.6C74.2 181.5 74.1 182.5 74.1 183.5ZM74.8 176.6L74 176.5C74.2 175.5 74.4 174.5 74.6 173.5L75.4 173.7C75.2 174.7 74.9 175.6 74.8 176.6ZM76.2 170.9L75.4 170.6C75.8 169.3 76.4 168 76.9 166.9L77.6 167.2C77.2 168.4 76.7 169.6 76.2 170.9ZM79.1 164.6L78.4 164.2C78.9 163.3 79.5 162.5 80.1 161.7L80.7 162.2C80.2 162.9 79.7 163.8 79.1 164.6ZM83.5 159.3L83 158.7C83.8 158 84.6 157.4 85.4 156.8L85.8 157.5C85 158.1 84.2 158.7 83.5 159.3Z" fill="#7583D3"/>
<path d="M204.3 247.9H203.5L203.4 243.9L199.5 244.3L199.4 243.5L204.2 243.1L204.3 247.9Z" fill="#7583D3"/>
</g>
</g>
<defs>
<filter id="filter0_d_141_4295" x="1" y="27.6001" width="586.4" height="342.8" filterUnits="userSpaceOnUse" color-interpolation-filters="sRGB">
<feFlood flood-opacity="0" result="BackgroundImageFix"/>
<feColorMatrix in="SourceAlpha" type="matrix" values="0 0 0 0 0 0 0 0 0 0 0 0 0 0 0 0 0 0 127 0" result="hardAlpha"/>
<feOffset dx="9" dy="9"/>
<feGaussianBlur stdDeviation="25"/>
<feComposite in2="hardAlpha" operator="out"/>
<feColorMatrix type="matrix" values="0 0 0 0 0.215686 0 0 0 0 0.231373 0 0 0 0 0.470588 0 0 0 0.1 0"/>
<feBlend mode="normal" in2="BackgroundImageFix" result="effect1_dropShadow_141_4295"/>
<feBlend mode="normal" in="SourceGraphic" in2="effect1_dropShadow_141_4295" result="shape"/>
</filter>
<clipPath id="clip0_141_4295">
<rect width="570" height="380" fill="white"/>
</clipPath>
</defs>
</svg>
