<svg width="115" height="29" viewBox="0 0 115 29" fill="none" xmlns="http://www.w3.org/2000/svg">
<path d="M32.1267 22.3057H28.8879C22.6919 22.3057 17.7632 17.2235 17.7632 11.153C17.7632 5.08251 22.8328 0 28.8879 0H32.1267V22.3057Z" fill="black"/>
<path d="M0 0H3.23885C9.4348 0 14.3632 5.08251 14.3632 11.153C14.3632 17.2235 9.29392 22.3057 3.23885 22.3057H0V0Z" fill="black"/>
<path d="M77.3018 0.00378418H80.6703V22.3057H77.3018V0.00378418Z" fill="black"/>
<path d="M67.4221 6.86218C63.198 6.86218 59.7222 10.3466 59.7222 14.5814C59.7222 18.8162 63.198 22.3009 67.4221 22.3009C71.6461 22.3009 75.122 18.8162 75.122 14.5814C75.1175 10.3485 71.6445 6.86635 67.4221 6.86218ZM67.4221 19.2075C67.4042 19.2075 67.3863 19.2075 67.3684 19.2075C64.8215 19.2075 62.7256 17.1066 62.7256 14.5532C62.7256 11.9998 64.8215 9.89856 67.3684 9.89856C67.3863 9.89856 67.4042 9.89856 67.4221 9.89888C69.9706 9.89888 72.0649 11.9988 72.0649 14.5535C72.063 17.106 69.9684 19.2059 67.4221 19.2075V19.2075Z" fill="black"/>
<path d="M91.2765 6.8631C89.7013 6.86182 88.1635 7.34797 86.8739 8.25494V0.00378418H83.4983V22.3063H86.8739V20.9106C88.1654 21.8137 89.7029 22.2983 91.2778 22.2983C95.5008 22.2983 98.9757 18.8145 98.9757 14.5807C98.9757 10.3472 95.5008 6.8631 91.2778 6.8631C91.2774 6.8631 91.2771 6.8631 91.2765 6.8631ZM91.2765 19.2084C88.75 19.1793 86.6877 17.0874 86.6877 14.5544C86.6877 12.0212 88.75 9.92925 91.2765 9.90011C93.825 9.90011 95.9193 12.0001 95.9193 14.5541C95.918 17.1069 93.8231 19.2072 91.2765 19.2084Z" fill="black"/>
<path d="M46.9014 0H38.8754V22.2798H46.9014C53.0281 22.2798 58.0127 17.2825 58.0127 11.1402C58.0127 4.99796 53.0281 0 46.9014 0V0ZM46.9014 18.902H42.2446V3.37777H46.9014C51.1663 3.37777 54.6435 6.86379 54.6435 11.1402C54.6435 15.4166 51.1663 18.902 46.9014 18.902Z" fill="black"/>
<path d="M111.321 6.86767L106.932 16.7595L102.543 6.86767H98.8638L105.092 20.903C105.092 20.903 103.569 24.342 103.565 24.35C103.163 25.2505 102.094 25.6624 101.193 25.2643L100.71 25.0478L99.3496 28.1079H99.3554L100.522 28.6293C102.707 29.599 105.301 28.5992 106.275 26.4121L115 6.86511L111.321 6.86767Z" fill="black"/>
</svg>
