<svg width="130" height="60" viewBox="0 0 130 60" fill="none" xmlns="http://www.w3.org/2000/svg">
<g clip-path="url(#clip0_502_4427)">
<path d="M32.6268 38.3057H29.3879C23.192 38.3057 18.2632 33.2235 18.2632 27.153C18.2632 21.0825 23.3328 16 29.3879 16H32.6268V38.3057Z" fill="white"/>
<path d="M0.5 16H3.73885C9.9348 16 14.8632 21.0825 14.8632 27.153C14.8632 33.2235 9.79392 38.3057 3.73885 38.3057H0.5V16Z" fill="white"/>
<path d="M77.8018 16.0039H81.1703V38.3058H77.8018V16.0039Z" fill="white"/>
<path d="M67.9221 22.8623C63.698 22.8623 60.2222 26.3467 60.2222 30.5815C60.2222 34.8163 63.698 38.301 67.9221 38.301C72.1461 38.301 75.622 34.8163 75.622 30.5815C75.6175 26.3486 72.1445 22.8665 67.9221 22.8623ZM67.9221 35.2077C67.9042 35.2077 67.8863 35.2077 67.8684 35.2077C65.3215 35.2077 63.2256 33.1068 63.2256 30.5533C63.2256 27.9999 65.3215 25.8987 67.8684 25.8987C67.8863 25.8987 67.9042 25.8987 67.9221 25.899C70.4706 25.899 72.5649 27.9989 72.5649 30.5536C72.563 33.1061 70.4684 35.2061 67.9221 35.2077Z" fill="white"/>
<path d="M91.7764 22.8632C90.2013 22.8619 88.6635 23.3481 87.3739 24.2551V16.0039H83.9983V38.3064H87.3739V36.9107C88.6654 37.8139 90.2029 38.2984 91.7777 38.2984C96.0008 38.2984 99.4757 34.8146 99.4757 30.5808C99.4757 26.3473 96.0008 22.8632 91.7777 22.8632C91.7774 22.8632 91.7771 22.8632 91.7764 22.8632ZM91.7764 35.2086C89.25 35.1794 87.1876 33.0875 87.1876 30.5546C87.1876 28.0213 89.25 25.9294 91.7764 25.9002C94.325 25.9002 96.4193 28.0002 96.4193 30.5542C96.418 33.107 94.3231 35.2073 91.7764 35.2086Z" fill="white"/>
<path d="M47.4014 16H39.3754V38.2798H47.4014C53.528 38.2798 58.5127 33.2825 58.5127 27.1402C58.5127 20.998 53.528 16 47.4014 16ZM47.4014 34.902H42.7445V19.3778H47.4014C51.6663 19.3778 55.1435 22.8638 55.1435 27.1402C55.1435 31.4166 51.6663 34.902 47.4014 34.902Z" fill="white"/>
<path d="M111.821 22.8676L107.432 32.7594L103.043 22.8676H99.3638L105.592 36.9029C105.592 36.9029 104.069 40.3418 104.065 40.3499C103.663 41.2504 102.594 41.6623 101.693 41.2642L101.21 41.0477L99.8496 44.1078H99.8554L101.022 44.6292C103.207 45.5989 105.801 44.5991 106.775 42.412L115.5 22.865L111.821 22.8676Z" fill="white"/>
</g>
<defs>
<clipPath id="clip0_502_4427">
<rect width="129" height="60" fill="white" transform="translate(0.5)"/>
</clipPath>
</defs>
</svg>
