<svg width="570" height="380" viewBox="0 0 570 380" fill="none" xmlns="http://www.w3.org/2000/svg">
<g filter="url(#filter0_d_141_4400)">
<path d="M322.4 60.3999H234.5C223.5 60.3999 214.6 69.2999 214.6 80.2999V299.7C214.6 310.7 223.5 319.6 234.5 319.6H322.4C333.4 319.6 342.3 310.7 342.3 299.7V80.2999C342.3 69.2999 333.4 60.3999 322.4 60.3999Z" fill="white"/>
<path d="M334.3 299.7C334.3 306.3 329 311.6 322.4 311.6H234.5C227.9 311.6 222.6 306.3 222.6 299.7V80.2999C222.6 73.6999 227.9 68.3999 234.5 68.3999H247.2V71.0999C247.2 74.3999 249.9 77.0999 253.2 77.0999H303.6C306.9 77.0999 309.6 74.3999 309.6 71.0999V68.3999H322.3C328.9 68.3999 334.2 73.6999 334.2 80.2999V299.7H334.3Z" fill="#F9FBFF"/>
<path d="M222.6 287.6V299.7C222.6 306.3 227.9 311.6 234.5 311.6H322.4C329 311.6 334.3 306.3 334.3 299.7V287.6H222.6Z" fill="#F9FBFF"/>
<path d="M249.6 287.6V311.6H322.4C329 311.6 334.3 306.3 334.3 299.7V287.6H249.6Z" fill="#E9F2FF"/>
<path d="M278.6 287.6V311.6H322.3C328.9 311.6 334.2 306.3 334.2 299.7V287.6H278.6Z" fill="#D9E8FF"/>
<path d="M306.6 287.6V311.6H322.3C328.9 311.6 334.2 306.3 334.2 299.7V287.6H306.6Z" fill="#C5DDFC"/>
<path d="M300.8 123.5H277.1C273 123.5 269.7 120.2 269.7 116.1C269.7 112 273 108.7 277.1 108.7H300.8C304.9 108.7 308.2 112 308.2 116.1C308.2 120.2 304.9 123.5 300.8 123.5Z" fill="#F15B22"/>
<path d="M260.3 123.5H236.6C232.5 123.5 229.2 120.2 229.2 116.1C229.2 112 232.5 108.7 236.6 108.7H260.3C264.4 108.7 267.7 112 267.7 116.1C267.7 120.2 264.4 123.5 260.3 123.5Z" fill="#FDAD31"/>
<path fill-rule="evenodd" clip-rule="evenodd" d="M229.8 89.4999H267C267.7 89.4999 268.3 90.0999 268.3 90.7999C268.3 91.4999 267.7 92.1999 267 92.1999H229.8C229.1 92.1999 228.5 91.5999 228.5 90.7999C228.4 90.0999 229 89.4999 229.8 89.4999Z" fill="#D9E8FF"/>
<path fill-rule="evenodd" clip-rule="evenodd" d="M229.8 94.8999H248.5C249.2 94.8999 249.9 95.4999 249.9 96.2999C249.9 96.9999 249.3 97.5999 248.5 97.5999H229.8C229.1 97.5999 228.5 96.9999 228.5 96.2999C228.4 95.4999 229 94.8999 229.8 94.8999Z" fill="#D9E8FF"/>
<path fill-rule="evenodd" clip-rule="evenodd" d="M229.8 270.7H256.6C257.3 270.7 258 271.3 258 272.1C258 272.9 257.4 273.5 256.6 273.5H229.8C229.1 273.5 228.5 272.9 228.5 272.1C228.5 271.3 229 270.7 229.8 270.7Z" fill="#D9E8FF"/>
<path fill-rule="evenodd" clip-rule="evenodd" d="M229.8 276.1H279C279.7 276.1 280.4 276.7 280.4 277.5C280.4 278.3 279.8 278.9 279 278.9H229.8C229.1 278.9 228.5 278.3 228.5 277.5C228.5 276.7 229 276.1 229.8 276.1Z" fill="#D9E8FF"/>
<path fill-rule="evenodd" clip-rule="evenodd" d="M229.8 191.7H286.2C286.9 191.7 287.6 192.3 287.6 193.1C287.6 193.9 287 194.5 286.2 194.5H229.8C229.1 194.5 228.5 193.9 228.5 193.1C228.5 192.3 229 191.7 229.8 191.7Z" fill="#D9E8FF"/>
<path fill-rule="evenodd" clip-rule="evenodd" d="M292.7 191.7H310.7C311.4 191.7 312.1 192.3 312.1 193.1C312.1 193.9 311.5 194.5 310.7 194.5H292.7C292 194.5 291.3 193.9 291.3 193.1C291.3 192.3 292 191.7 292.7 191.7Z" fill="#D9E8FF"/>
<path fill-rule="evenodd" clip-rule="evenodd" d="M229.8 197.1H266.2C266.9 197.1 267.6 197.7 267.6 198.4C267.6 199.1 267 199.8 266.2 199.8H229.8C229.1 199.8 228.5 199.2 228.5 198.4C228.4 197.8 229 197.1 229.8 197.1Z" fill="#D9E8FF"/>
<path d="M321.4 264.3H235.4C231.5 264.3 228.4 261.2 228.4 257.3V214.4C228.4 210.5 231.5 207.4 235.4 207.4H321.4C325.3 207.4 328.4 210.5 328.4 214.4V257.3C328.4 261.2 325.3 264.3 321.4 264.3Z" fill="#E9F2FF"/>
<path d="M289.5 225.7L266.6 251.1L256.4 239.7L241.3 256.4H261.8H271.4H317.1L289.5 225.7Z" fill="#D9E8FF"/>
<path d="M249.3 230.7C252.669 230.7 255.4 227.969 255.4 224.6C255.4 221.231 252.669 218.5 249.3 218.5C245.931 218.5 243.2 221.231 243.2 224.6C243.2 227.969 245.931 230.7 249.3 230.7Z" fill="#D9E8FF"/>
<path d="M323.9 258.5H313.2C309.4 258.5 306.3 255.4 306.3 251.6C306.3 247.8 309.4 244.7 313.2 244.7H323.9C327.7 244.7 330.8 247.8 330.8 251.6C330.9 255.4 327.8 258.5 323.9 258.5Z" fill="#C5DDFC"/>
<path d="M321.4 185.1H235.4C231.5 185.1 228.4 182 228.4 178.1V135.2C228.4 131.3 231.5 128.2 235.4 128.2H321.4C325.3 128.2 328.4 131.3 328.4 135.2V178.1C328.4 182 325.3 185.1 321.4 185.1Z" fill="#E9F2FF"/>
<path d="M289.5 146.5L266.6 171.9L256.4 160.5L241.3 177.2H261.8H271.4H317.1L289.5 146.5Z" fill="#D9E8FF"/>
<path d="M249.3 151.5C252.669 151.5 255.4 148.769 255.4 145.4C255.4 142.031 252.669 139.3 249.3 139.3C245.931 139.3 243.2 142.031 243.2 145.4C243.2 148.769 245.931 151.5 249.3 151.5Z" fill="#D9E8FF"/>
<path d="M323.9 179.3H313.2C309.4 179.3 306.3 176.2 306.3 172.4C306.3 168.6 309.4 165.5 313.2 165.5H323.9C327.7 165.5 330.8 168.6 330.8 172.4C330.9 176.2 327.8 179.3 323.9 179.3Z" fill="#C5DDFC"/>
<path d="M323.8 98.1999C326.341 98.1999 328.4 96.1404 328.4 93.5999C328.4 91.0594 326.341 88.9999 323.8 88.9999C321.26 88.9999 319.2 91.0594 319.2 93.5999C319.2 96.1404 321.26 98.1999 323.8 98.1999Z" fill="#D9E8FF"/>
<path d="M217.4 179.2C240.044 179.2 258.4 160.844 258.4 138.2C258.4 115.556 240.044 97.1999 217.4 97.1999C194.756 97.1999 176.4 115.556 176.4 138.2C176.4 160.844 194.756 179.2 217.4 179.2Z" fill="white"/>
<path d="M217.8 97.1999C212.6 97.1999 207.6 98.0999 203 99.7999V176.5C207.4 178.1 212.1 179.1 217 179.1C239.6 179.3 258.1 161.1 258.3 138.5C258.6 115.9 240.4 97.3999 217.8 97.1999Z" fill="#F9FBFF"/>
<path d="M221.5 134.3C216.2 134.3 211.9 138.6 211.9 143.9C211.9 149.2 216.2 153.5 221.5 153.5H252.3C253.5 153.5 254.6 153.3 255.6 152.9C257.3 148.4 258.3 143.6 258.4 138.5C258.4 137.8 258.4 137.1 258.4 136.4C256.8 135.1 254.7 134.3 252.4 134.3H221.5Z" fill="#FDAD31"/>
<path d="M247.7 110.6H213.7C212.7 110.6 211.9 111.4 211.9 112.4C211.9 113.4 212.7 114.2 213.7 114.2H250.6C249.7 112.9 248.7 111.7 247.7 110.6Z" fill="#D9E8FF"/>
<path d="M217 179.2C231.8 179.3 244.9 171.6 252.2 159.8H221C216 159.8 211.9 163.9 211.9 168.9V178.8C213.6 179 215.3 179.1 217 179.2Z" fill="#D9E8FF"/>
<path fill-rule="evenodd" clip-rule="evenodd" d="M213.6 117.6H237.9C238.9 117.6 239.7 118.4 239.7 119.4C239.7 120.4 238.9 121.2 237.9 121.2H213.6C212.6 121.2 211.8 120.4 211.8 119.4C211.9 118.4 212.7 117.6 213.6 117.6Z" fill="#D9E8FF"/>
<path d="M172.6 137.8C172.8 113.1 193.1 93.0999 217.9 93.3999C242.6 93.5999 262.6 113.9 262.3 138.7C262.1 163.4 241.8 183.4 217 183.1C192.3 182.8 172.3 162.5 172.6 137.8ZM180.3 137.9C180.1 158.4 196.6 175.1 217.1 175.3C237.6 175.5 254.3 159 254.5 138.5C254.7 118 238.2 101.3 217.7 101.1C197.3 100.9 180.5 117.4 180.3 137.9Z" fill="#55C9EF"/>
<path d="M172.6 206.6L191.4 174.7C191.4 174.7 191.5 174.6 191.5 174.7C193.6 176.2 195.7 177.5 198 178.6C198 178.6 198.1 178.7 198 178.7L179.1 210.8C178.4 212 177.1 212.7 175.7 212.7C174.9 212.7 174.2 212.5 173.5 212C171.9 210.8 171.5 208.4 172.6 206.6Z" fill="#55C9EF"/>
<path d="M217 183.8C191.8 183.6 171.5 162.9 171.8 137.7C172 112.5 192.7 92.1999 217.9 92.4999V93.9999C217.8 93.9999 217.6 93.9999 217.5 93.9999C193.3 93.9999 173.6 113.5 173.4 137.7C173.3 149.5 177.8 160.6 186.1 169C194.4 177.4 205.4 182.1 217.2 182.2L217 183.8Z" fill="#D9E8FF"/>
<path d="M397.2 293.6H281C274.9 293.6 270 288.7 270 282.6V266C270 259.9 274.9 255 281 255H397.2C403.3 255 408.2 259.9 408.2 266V282.6C408.2 288.6 403.3 293.6 397.2 293.6Z" fill="white"/>
<path d="M281 259C277.1 259 274 262.1 274 266V282.6C274 286.5 277.1 289.6 281 289.6H397.2C401.1 289.6 404.2 286.5 404.2 282.6V266C404.2 262.1 401.1 259 397.2 259H281Z" fill="#F9FBFF"/>
<path fill-rule="evenodd" clip-rule="evenodd" d="M286.2 269.2H317C317.7 269.2 318.4 269.8 318.4 270.5C318.4 271.2 317.8 271.9 317 271.9H286.2C285.5 271.9 284.8 271.3 284.8 270.5C284.8 269.8 285.4 269.2 286.2 269.2Z" fill="#D9E8FF"/>
<path fill-rule="evenodd" clip-rule="evenodd" d="M324.5 269.2H377.1C377.8 269.2 378.5 269.8 378.5 270.5C378.5 271.2 377.9 271.9 377.1 271.9H324.5C323.8 271.9 323.1 271.3 323.1 270.5C323.1 269.8 323.7 269.2 324.5 269.2Z" fill="#D9E8FF"/>
<path fill-rule="evenodd" clip-rule="evenodd" d="M286.2 274.6H327.8C328.5 274.6 329.2 275.2 329.2 276C329.2 276.7 328.6 277.3 327.8 277.3H286.2C285.5 277.3 284.8 276.7 284.8 276C284.8 275.2 285.4 274.6 286.2 274.6Z" fill="#D9E8FF"/>
<path d="M334.3 108.7H317.7C313.6 108.7 310.3 112 310.3 116.1C310.3 120.2 313.6 123.5 317.7 123.5H334.3V108.7Z" fill="#55C9EF"/>
</g>
<defs>
<filter id="filter0_d_141_4400" x="130.797" y="19.3999" width="336.403" height="359.2" filterUnits="userSpaceOnUse" color-interpolation-filters="sRGB">
<feFlood flood-opacity="0" result="BackgroundImageFix"/>
<feColorMatrix in="SourceAlpha" type="matrix" values="0 0 0 0 0 0 0 0 0 0 0 0 0 0 0 0 0 0 127 0" result="hardAlpha"/>
<feOffset dx="9" dy="9"/>
<feGaussianBlur stdDeviation="25"/>
<feComposite in2="hardAlpha" operator="out"/>
<feColorMatrix type="matrix" values="0 0 0 0 0.215686 0 0 0 0 0.231373 0 0 0 0 0.470588 0 0 0 0.1 0"/>
<feBlend mode="normal" in2="BackgroundImageFix" result="effect1_dropShadow_141_4400"/>
<feBlend mode="normal" in="SourceGraphic" in2="effect1_dropShadow_141_4400" result="shape"/>
</filter>
</defs>
</svg>
