<svg width="570" height="380" viewBox="0 0 570 380" fill="none" xmlns="http://www.w3.org/2000/svg">
<g clip-path="url(#clip0_141_4448)">
<g filter="url(#filter0_d_141_4448)">
<path d="M111.7 80.2001H57.4C54.6 80.2001 52.4 78.0001 52.4 75.2001V55.1001C52.4 52.3001 54.6 50.1001 57.4 50.1001H111.7C114.5 50.1001 116.7 52.3001 116.7 55.1001V75.2001C116.7 78.0001 114.5 80.2001 111.7 80.2001Z" fill="white"/>
<path fill-rule="evenodd" clip-rule="evenodd" d="M64.3 61.1001H69.3C70 61.1001 70.6 61.7001 70.6 62.4001C70.6 63.1001 70 63.8001 69.3 63.8001H64.3C63.6 63.8001 62.9 63.2001 62.9 62.4001C62.9 61.7001 63.5 61.1001 64.3 61.1001Z" fill="#D9E8FF"/>
<path fill-rule="evenodd" clip-rule="evenodd" d="M64.3 66.5001H77.3C78 66.5001 78.6 67.1001 78.6 67.8001C78.6 68.5001 78 69.1001 77.3 69.1001H64.3C63.6 69.1001 62.9 68.5001 62.9 67.8001C62.9 67.1001 63.5 66.5001 64.3 66.5001Z" fill="#D9E8FF"/>
<path fill-rule="evenodd" clip-rule="evenodd" d="M86.8 61.1001H88.8C89.5 61.1001 90.2 61.7001 90.2 62.5001C90.2 63.2001 89.6 63.8001 88.8 63.8001H86.8C86.1 63.8001 85.4 63.2001 85.4 62.5001C85.5 61.7001 86.1 61.1001 86.8 61.1001Z" fill="#D9E8FF"/>
<path fill-rule="evenodd" clip-rule="evenodd" d="M93.3 61.1001H100C100.7 61.1001 101.4 61.7001 101.4 62.5001C101.4 63.2001 100.8 63.8001 100 63.8001H93.3C92.6 63.8001 92 63.2001 92 62.5001C92 61.7001 92.6 61.1001 93.3 61.1001Z" fill="#D9E8FF"/>
<path fill-rule="evenodd" clip-rule="evenodd" d="M86.8 66.5001H104.8C105.5 66.5001 106.2 67.1001 106.2 67.8001C106.2 68.5001 105.6 69.1001 104.8 69.1001H86.8C86.1 69.1001 85.4 68.5001 85.4 67.8001C85.4 67.1001 86.1 66.5001 86.8 66.5001Z" fill="#D9E8FF"/>
<path d="M111.7 133.7H57.4C54.6 133.7 52.4 131.5 52.4 128.7V92.4001C52.4 89.6001 54.6 87.4001 57.4 87.4001H111.7C114.5 87.4001 116.7 89.6001 116.7 92.4001V128.8C116.7 131.5 114.5 133.7 111.7 133.7Z" fill="white"/>
<path fill-rule="evenodd" clip-rule="evenodd" d="M64.3 114.9H66.9C67.6 114.9 68.2 115.5 68.2 116.3C68.2 117 67.6 117.6 66.9 117.6H64.3C63.6 117.6 62.9 117 62.9 116.3C62.9 115.5 63.5 114.9 64.3 114.9Z" fill="#D9E8FF"/>
<path fill-rule="evenodd" clip-rule="evenodd" d="M71.4 114.9H87.7C88.4 114.9 89.1 115.5 89.1 116.3C89.1 117 88.5 117.6 87.7 117.6H71.4C70.7 117.6 70.1 117 70.1 116.3C70 115.5 70.6 114.9 71.4 114.9Z" fill="#D9E8FF"/>
<path fill-rule="evenodd" clip-rule="evenodd" d="M64.3 120.3H98.5C99.2 120.3 99.8 120.9 99.8 121.6C99.8 122.3 99.2 123 98.5 123H64.3C63.6 123 62.9 122.4 62.9 121.6C62.9 120.9 63.5 120.3 64.3 120.3Z" fill="#D9E8FF"/>
<path fill-rule="evenodd" clip-rule="evenodd" d="M86.8 98.0001H101.5C102.2 98.0001 102.8 98.6001 102.8 99.3001C102.8 100 102.2 100.7 101.5 100.7H86.8C86.1 100.7 85.4 100.1 85.4 99.3001C85.5 98.7001 86.1 98.0001 86.8 98.0001Z" fill="#D9E8FF"/>
<path fill-rule="evenodd" clip-rule="evenodd" d="M86.8 103.4H94.5C95.2 103.4 95.8 104 95.8 104.8C95.8 105.5 95.2 106.1 94.5 106.1H86.8C86.1 106.1 85.4 105.5 85.4 104.8C85.5 104.1 86.1 103.4 86.8 103.4Z" fill="#D9E8FF"/>
<path fill-rule="evenodd" clip-rule="evenodd" d="M64.3 98.0001H70.9C71.6 98.0001 72.2 98.6001 72.2 99.3001C72.2 100 71.6 100.7 70.9 100.7H64.3C63.6 100.7 62.9 100.1 62.9 99.3001C62.9 98.7001 63.5 98.0001 64.3 98.0001Z" fill="#D9E8FF"/>
<path fill-rule="evenodd" clip-rule="evenodd" d="M64.3 103.4H79.2C79.9 103.4 80.5 104 80.5 104.7C80.5 105.4 79.9 106 79.2 106H64.3C63.6 106 62.9 105.4 62.9 104.7C62.9 104 63.5 103.4 64.3 103.4Z" fill="#D9E8FF"/>
<path d="M145.6 207.8C148.417 207.8 150.7 205.517 150.7 202.7C150.7 199.883 148.417 197.6 145.6 197.6C142.783 197.6 140.5 199.883 140.5 202.7C140.5 205.517 142.783 207.8 145.6 207.8Z" fill="#051344"/>
<path d="M212.3 166.5C215.117 166.5 217.4 164.217 217.4 161.4C217.4 158.583 215.117 156.3 212.3 156.3C209.483 156.3 207.2 158.583 207.2 161.4C207.2 164.217 209.483 166.5 212.3 166.5Z" fill="#051344"/>
<path d="M279 179.7C281.817 179.7 284.1 177.417 284.1 174.6C284.1 171.783 281.817 169.5 279 169.5C276.183 169.5 273.9 171.783 273.9 174.6C273.9 177.417 276.183 179.7 279 179.7Z" fill="#051344"/>
<path d="M345.8 130.1C348.617 130.1 350.9 127.817 350.9 125C350.9 122.183 348.617 119.9 345.8 119.9C342.983 119.9 340.7 122.183 340.7 125C340.7 127.817 342.983 130.1 345.8 130.1Z" fill="#051344"/>
<path d="M412.5 102.3C415.317 102.3 417.6 100.017 417.6 97.2001C417.6 94.3834 415.317 92.1001 412.5 92.1001C409.683 92.1001 407.4 94.3834 407.4 97.2001C407.4 100.017 409.683 102.3 412.5 102.3Z" fill="#051344"/>
<path d="M424.8 294.3H400.1C397.3 294.3 395.1 292.1 395.1 289.3V140.1C395.1 137.3 397.3 135.1 400.1 135.1H424.8C427.6 135.1 429.8 137.3 429.8 140.1V289.3C429.8 292.1 427.6 294.3 424.8 294.3Z" fill="#F15B22"/>
<path d="M224.7 294.3H200C197.2 294.3 195 292.1 195 289.3V204.2C195 201.4 197.2 199.2 200 199.2H224.7C227.5 199.2 229.7 201.4 229.7 204.2V289.3C229.7 292.1 227.4 294.3 224.7 294.3Z" fill="#55C9EF"/>
<path d="M358.1 294.3H333.4C330.6 294.3 328.4 292.1 328.4 289.3V167.4C328.4 164.6 330.6 162.4 333.4 162.4H358.1C360.9 162.4 363.1 164.6 363.1 167.4V289.3C363.1 292.1 360.9 294.3 358.1 294.3Z" fill="#FDAD31"/>
<path d="M146.1 203.5L145.1 201.8L212.1 160.4H212.5L278.8 173.6L345.3 124.1L345.4 124L412.1 96.3L412.9 98.1L346.3 125.8L279.3 175.7L278.8 175.6L212.5 162.5L146.1 203.5Z" fill="#051344"/>
<path d="M135.2 217.2C134.3 216.7 133.5 216.1 132.6 215.6L133 214.9C133.8 215.4 134.7 216 135.5 216.5L135.2 217.2ZM129.4 213.3C128.6 212.7 127.8 212.1 127 211.4L127.5 210.8C128.3 211.4 129 212 129.8 212.6L129.4 213.3ZM124.7 209.5C123.7 208.6 122.7 207.7 121.8 206.7L122.4 206.1C123.3 207 124.3 208 125.3 208.8L124.7 209.5ZM119.7 204.5C119 203.8 118.4 203 117.7 202.2L118.3 201.7C118.9 202.5 119.6 203.2 120.3 203.9L119.7 204.5ZM115.2 199.1C114.6 198.3 114 197.5 113.4 196.7L114.1 196.2C114.7 197 115.2 197.8 115.8 198.6L115.2 199.1ZM111.8 194.2C111.1 193.1 110.4 191.9 109.7 190.7L110.4 190.3C111 191.5 111.7 192.6 112.4 193.7L111.8 194.2ZM108.3 188.1C107.8 187.2 107.4 186.3 107 185.4L107.7 185.1C108.1 186 108.5 186.9 109 187.8L108.3 188.1ZM105.4 181.6C105 180.7 104.7 179.7 104.4 178.8L105.2 178.5C105.5 179.4 105.9 180.4 106.2 181.3L105.4 181.6ZM103.4 175.9C103 174.6 102.7 173.3 102.4 172L103.2 171.8C103.5 173.1 103.8 174.4 104.2 175.6L103.4 175.9ZM101.8 169.1C101.6 168.3 101.5 167.5 101.4 166.7L101.3 166.1L102.1 166L102.2 166.5C102.3 167.3 102.5 168.1 102.6 168.9L101.8 169.1ZM100.9 162.1C100.8 161.1 100.8 160.1 100.7 159.1H101.5C101.5 160.1 101.6 161.1 101.7 162.1H100.9ZM101.4 156.1H100.6C100.6 154.8 100.6 153.4 100.7 152.1H101.5C101.5 153.4 101.4 154.8 101.4 156.1ZM101.8 149.1L101 149C101.1 148 101.2 147 101.4 146L102.2 146.1C102 147.2 101.9 148.1 101.8 149.1ZM102.8 142.2L102 142C102.2 141 102.4 140 102.6 139.1L103.4 139.3C103.2 140.3 103 141.3 102.8 142.2ZM104.2 136.4L103.4 136.2C103.8 134.9 104.2 133.6 104.6 132.4L105.4 132.7C104.9 133.9 104.5 135.2 104.2 136.4ZM106.4 129.8L105.7 129.5C106.1 128.6 106.5 127.6 106.9 126.7L107.6 127C107.1 128 106.7 128.9 106.4 129.8ZM109.3 123.5L108.6 123.1C109.1 122.2 109.6 121.3 110.1 120.5L110.8 120.9C110.2 121.8 109.7 122.6 109.3 123.5ZM195.9 123C194.9 122.8 193.9 122.5 192.9 122L193.3 121.3C194.1 121.8 195 122.1 196 122.2L195.9 123ZM199 122.9L198.9 122.1C200.2 121.9 201.4 121.3 202.3 120.6L202.8 121.2C201.7 122.1 200.4 122.7 199 122.9ZM189.7 119.3C189 118.5 188.5 117.6 188.1 116.6L188.8 116.3C189.2 117.2 189.7 118 190.3 118.8L189.7 119.3ZM204.8 118.9L204.1 118.5C204.6 117.7 204.8 116.8 205 115.8L205.8 115.9C205.7 116.9 205.3 118 204.8 118.9ZM112.3 118.4L111.6 118C112.3 116.9 113.1 115.8 113.9 114.7L114.5 115.2C113.8 116.2 113 117.3 112.3 118.4ZM187.3 113.7C187.2 112.9 187.1 112.1 187.1 111.3C187.1 110.8 187.1 110.2 187.2 109.6L188 109.7C188 110.2 187.9 110.8 187.9 111.3C187.9 112.1 188 112.9 188.1 113.6L187.3 113.7ZM116.4 112.8L115.8 112.3C116.5 111.5 117.1 110.8 117.8 110.1L118.4 110.7C117.8 111.3 117.1 112.1 116.4 112.8ZM204.7 111.9C204.5 111 204.2 110 203.8 109.1L204.5 108.8C204.9 109.7 205.2 110.7 205.4 111.7L204.7 111.9ZM121.3 107.9L120.8 107.3C121 107.1 121.2 106.9 121.4 106.8C122 106.3 122.5 105.9 123.1 105.4L123.6 106C123 106.5 122.5 106.9 121.9 107.4C121.7 107.5 121.5 107.7 121.3 107.9ZM188.4 106.8L187.6 106.6C187.8 105.6 188.1 104.7 188.4 103.7L189.2 103.9C188.9 104.9 188.6 105.8 188.4 106.8ZM202.4 106.6C201.7 105.6 200.9 104.5 199.9 103.6L200.5 103C201.5 104 202.4 105.1 203.1 106.2L202.4 106.6ZM125.9 104.1L125.4 103.5C126.5 102.7 127.6 102 128.7 101.2L129.1 101.9C128.1 102.6 127 103.4 125.9 104.1ZM197.7 101.6C197 101 196.1 100.4 195.3 99.9001L195.7 99.2001C196.6 99.8001 197.4 100.4 198.2 101L197.7 101.6ZM348.2 101H347.4V100.2H348.2C348.9 100.2 349.6 100.2 350.4 100.2V101C349.6 100.9 348.9 101 348.2 101ZM344.3 100.9C343.8 100.9 343.2 100.8 342.7 100.8C341.9 100.7 341.1 100.7 340.3 100.6L340.4 99.8001C341.2 99.9001 342 100 342.8 100C343.3 100 343.8 100.1 344.4 100.1L344.3 100.9ZM354.4 100.7L354.3 99.9001C355.3 99.8001 356.3 99.7001 357.3 99.6001L357.4 100.4C356.4 100.5 355.4 100.6 354.4 100.7ZM131.8 100.4L131.4 99.7001C132.3 99.2001 133.2 98.7001 134.1 98.3001L134.5 99.0001C133.5 99.4001 132.7 99.9001 131.8 100.4ZM190.7 100.2L190 99.9001C190.4 99.1001 190.8 98.3001 191.2 97.5001C190.6 97.2001 189.9 96.9001 189.3 96.6001L189.6 95.9001C190.5 96.3001 191.5 96.7001 192.3 97.2001L191.9 97.9001C191.9 97.9001 191.9 97.9001 191.8 97.9001C191.4 98.6001 191 99.4001 190.7 100.2ZM337.3 100.1C336.3 100 335.3 99.8001 334.3 99.6001L334.4 98.8001C335.4 99.0001 336.4 99.1001 337.3 99.3001V100.1ZM360.3 99.9001L360.2 99.1001C361.5 98.9001 362.8 98.6001 364.1 98.3001L364.3 99.1001C363 99.5001 361.7 99.7001 360.3 99.9001ZM330.4 98.8001C329.4 98.6001 328.4 98.3001 327.5 98.1001L327.7 97.3001C328.7 97.6001 329.6 97.8001 330.6 98.0001L330.4 98.8001ZM367.2 98.5001L367 97.7001C368 97.4001 368.9 97.2001 369.9 96.9001L370.1 97.7001C369.2 97.9001 368.2 98.2001 367.2 98.5001ZM324.6 97.3001C323.3 96.9001 322 96.5001 320.8 96.1001L321 95.3001C322.3 95.7001 323.5 96.1001 324.8 96.5001L324.6 97.3001ZM138 97.2001L137.7 96.5001C138.6 96.1001 139.6 95.7001 140.5 95.3001L140.8 96.0001C139.8 96.5001 138.9 96.8001 138 97.2001ZM373.9 96.3001L373.6 95.5001C374.5 95.2001 375.5 94.8001 376.4 94.4001L376.7 95.1001C375.8 95.6001 374.9 96.0001 373.9 96.3001ZM186.4 95.5001C185.2 95.1001 183.9 94.6001 182.6 94.2001L182.8 93.4001C184.1 93.8001 185.4 94.2001 186.6 94.7001L186.4 95.5001ZM317.9 95.1001C317 94.8001 316 94.4001 315.1 94.1001L315.4 93.3001C316.3 93.6001 317.3 94.0001 318.2 94.3001L317.9 95.1001ZM143.6 95.1001L143.3 94.3001C144.6 93.9001 145.9 93.5001 147.1 93.1001L147.3 93.9001C146.1 94.3001 144.8 94.7001 143.6 95.1001ZM193.5 95.0001L192.8 94.6001C193.6 93.4001 194.4 92.3001 195.2 91.4001L195.8 91.9001C195.1 92.8001 194.3 93.9001 193.5 95.0001ZM379.5 94.0001L379.2 93.3001C380.4 92.7001 381.6 92.1001 382.8 91.5001L383.2 92.2001C381.9 92.8001 380.7 93.5001 379.5 94.0001ZM179.8 93.4001C178.8 93.2001 177.9 92.9001 176.9 92.7001L177.1 91.9001C178.1 92.1001 179.1 92.3001 180 92.6001L179.8 93.4001ZM150.3 93.2001L150.1 92.4001C151.1 92.2001 152.1 92.0001 153.1 91.8001L153.2 92.6001C152.2 92.8001 151.2 93.0001 150.3 93.2001ZM311.3 92.6001C310.4 92.2001 309.4 91.9001 308.5 91.5001L308.8 90.8001C309.7 91.2001 310.6 91.6001 311.6 91.9001L311.3 92.6001ZM173 92.1001C172 92.0001 171 91.9001 170 91.8001L170.1 91.0001C171.1 91.1001 172.1 91.2001 173.1 91.3001L173 92.1001ZM157.1 92.0001L157 91.2001C158 91.1001 159 91.0001 160 90.9001L160.1 91.7001C159.1 91.8001 158.1 91.9001 157.1 92.0001ZM167 91.6001C165.7 91.6001 164.4 91.5001 163 91.6001V90.8001C164.3 90.8001 165.7 90.8001 167 90.8001V91.6001ZM385.7 90.7001L385.3 90.0001C386.1 89.5001 387 89.0001 387.8 88.4001L388.2 89.1001C387.4 89.7001 386.6 90.2001 385.7 90.7001ZM305.8 90.3001C304.6 89.8001 303.3 89.2001 302.1 88.7001L302.4 88.0001C303.6 88.5001 304.8 89.1001 306.1 89.6001L305.8 90.3001ZM197.9 89.7001L197.3 89.1001C198 88.4001 198.7 87.7001 199.5 87.0001L200 87.6001C199.3 88.3001 198.6 89.0001 197.9 89.7001ZM299.4 87.5001L296.7 86.3001L297 85.6001L299.7 86.8001L299.4 87.5001ZM391.5 86.8001L391 86.2001C391.8 85.6001 392.6 85.0001 393.3 84.3001L393.8 84.9001C393.1 85.5001 392.3 86.2001 391.5 86.8001ZM203.1 85.0001L202.6 84.4001C203.4 83.8001 204.2 83.1001 205 82.5001L205.5 83.1001C204.6 83.8001 203.8 84.4001 203.1 85.0001ZM293 84.7001L290.3 83.5001L290.6 82.8001L293.3 84.0001L293 84.7001ZM396.2 82.9001L395.7 82.3001C396.7 81.4001 397.6 80.5001 398.5 79.5001L399 80.0001C398.1 81.0001 397.1 82.0001 396.2 82.9001ZM287.5 82.2001C286.3 81.7001 285.1 81.1001 283.8 80.6001L284.1 79.9001C285.3 80.4001 286.6 80.9001 287.8 81.5001L287.5 82.2001ZM207.8 81.4001L207.4 80.7001C208.5 80.0001 209.7 79.2001 210.8 78.6001L211.2 79.3001C210.1 80.0001 208.9 80.7001 207.8 81.4001ZM281.1 79.5001C280.2 79.1001 279.2 78.7001 278.3 78.4001L278.6 77.7001C279.5 78.1001 280.5 78.4001 281.4 78.8001L281.1 79.5001ZM213.8 77.9001L213.4 77.2001C214.3 76.7001 215.2 76.3001 216.1 75.9001L216.4 76.6001C215.6 77.0001 214.7 77.5001 213.8 77.9001ZM401 77.8001L400.4 77.3001C401 76.5001 401.6 75.8001 402.2 75.0001L402.8 75.5001C402.3 76.2001 401.6 77.0001 401 77.8001ZM274.6 77.0001C273.7 76.7001 272.7 76.3001 271.8 76.0001L272.1 75.2001C273 75.5001 274 75.9001 274.9 76.2001L274.6 77.0001ZM220.2 75.1001L219.9 74.4001C220.8 74.0001 221.8 73.7001 222.7 73.4001L222.9 74.2001C222 74.4001 221.1 74.7001 220.2 75.1001ZM268.9 75.0001C267.6 74.6001 266.3 74.2001 265.1 73.8001L265.3 73.0001C266.6 73.4001 267.9 73.7001 269.1 74.2001L268.9 75.0001ZM225.8 73.2001L225.6 72.4001C226.9 72.0001 228.2 71.7001 229.5 71.4001L229.7 72.2001C228.4 72.5001 227.1 72.9001 225.8 73.2001ZM262.2 73.1001L262 73.0001C261.1 72.8001 260.2 72.6001 259.3 72.4001L259.5 71.6001C260.4 71.8001 261.3 72.0001 262.2 72.2001L262.4 72.3001L262.2 73.1001ZM405.1 72.0001L404.4 71.6001C404.9 70.8001 405.4 69.9001 405.9 69.0001L406.6 69.4001C406.2 70.3001 405.7 71.2001 405.1 72.0001ZM232.6 71.7001L232.5 70.9001C233.5 70.7001 234.5 70.6001 235.5 70.5001L235.6 71.3001C234.6 71.4001 233.6 71.5001 232.6 71.7001ZM255.4 71.7001C254.4 71.5001 253.4 71.4001 252.4 71.3001L252.5 70.5001C253.5 70.6001 254.5 70.8001 255.5 70.9001L255.4 71.7001ZM249.5 71.0001C248.2 70.9001 246.8 70.8001 245.5 70.8001V70.0001C246.8 70.0001 248.2 70.1001 249.5 70.2001V71.0001ZM239.5 70.9001L239.4 70.1001C240.4 70.0001 241.4 70.0001 242.4 70.0001V70.8001C241.5 70.8001 240.5 70.9001 239.5 70.9001Z" fill="#7583D3"/>
<path d="M407.8 73.1001L407 73.2001L406.2 69.4001L402.4 70.5001L402.2 69.8001L406.8 68.4001L407.8 73.1001Z" fill="#7583D3"/>
<path d="M157.9 294.3H133.2C130.4 294.3 128.2 292.1 128.2 289.3V246.5C128.2 243.7 130.4 241.5 133.2 241.5H157.9C160.7 241.5 162.9 243.7 162.9 246.5V289.3C162.9 292.1 160.7 294.3 157.9 294.3Z" fill="#55C9EF"/>
<path d="M112.5 281.5C129.455 281.5 143.2 267.755 143.2 250.8C143.2 233.845 129.455 220.1 112.5 220.1C95.5449 220.1 81.8 233.845 81.8 250.8C81.8 267.755 95.5449 281.5 112.5 281.5Z" fill="white"/>
<path d="M123 252.5V249C121.6 249 120.5 249.2 119.8 247.7C119.2 246.2 120.3 245.4 121.2 244.6L118.7 242.1C117.8 243 117 244.1 115.5 243.5C114 242.9 114.3 241.5 114.3 240.3H110.8C110.8 241.4 111 242.9 109.6 243.5C108.1 244.1 107.3 243 106.4 242.1L103.9 244.6C104.8 245.5 105.9 246.3 105.3 247.8C105 248.5 104.3 249 103.5 249H102V252.5C103.3 252.5 104.6 252.3 105.2 253.8C105.8 255.3 104.7 256.1 103.8 256.9L106.3 259.4C107.2 258.5 108 257.4 109.5 258C111 258.6 110.7 260 110.7 261.2H114.2C114.2 260.1 114 258.6 115.5 258C116.9 257.4 117.8 258.5 118.6 259.4L121.1 256.9C120.2 256 119.1 255.2 119.7 253.8V253.7C120.4 252.3 121.8 252.5 123 252.5ZM112.5 254.2C110.6 254.2 109 252.6 109 250.7C109 248.8 110.6 247.2 112.5 247.2C114.4 247.2 116 248.8 116 250.7C116 252.6 114.5 254.2 112.5 254.2Z" fill="#55C9EF"/>
<path d="M328.5 330.3C342.086 330.3 353.1 319.286 353.1 305.7C353.1 292.114 342.086 281.1 328.5 281.1C314.914 281.1 303.9 292.114 303.9 305.7C303.9 319.286 314.914 330.3 328.5 330.3Z" fill="white"/>
<path d="M327.6 294.3H329.3V296.9C330.7 297.1 331.8 297.6 332.7 298.5C333.6 299.4 334 300.5 334 301.9H330.8C330.8 301.2 330.6 300.7 330.1 300.3C329.6 299.9 329 299.7 328.2 299.7C327.5 299.7 326.9 299.9 326.4 300.3C325.9 300.7 325.7 301.2 325.7 301.7C325.7 302.6 326.4 303.3 327.7 303.7L329.8 304.3C331.6 304.8 332.8 305.5 333.5 306.4C334.2 307.3 334.5 308.3 334.4 309.5C334.3 310.9 333.8 312 332.8 312.8C331.8 313.6 330.6 314.1 329.2 314.3V317.1H327.5V314.3C326 314.1 324.7 313.6 323.8 312.6C322.8 311.6 322.4 310.5 322.4 309.1H325.6C325.6 309.8 325.9 310.3 326.4 310.8C326.9 311.3 327.6 311.5 328.5 311.5C329.3 311.5 330 311.3 330.5 310.9C331 310.5 331.3 310 331.3 309.4C331.3 308.8 331.2 308.4 330.8 308C330.4 307.6 329.8 307.3 329 307.1L326.9 306.6C324 305.8 322.6 304.2 322.6 301.9C322.6 300.6 323.1 299.4 324 298.5C325 297.6 326.1 297.1 327.6 296.9V294.3Z" fill="#FDAD31"/>
<path d="M279.4 111.5C296.355 111.5 310.1 97.7552 310.1 80.8001C310.1 63.845 296.355 50.1001 279.4 50.1001C262.445 50.1001 248.7 63.845 248.7 80.8001C248.7 97.7552 262.445 111.5 279.4 111.5Z" fill="white"/>
<path d="M257.4 102.8C245.3 90.7001 245.3 70.9001 257.4 58.8001C269.5 46.7001 289.3 46.7001 301.4 58.8001L300.8 59.4001C289 47.6001 269.7 47.6001 257.9 59.4001C246.1 71.2001 246.1 90.5001 257.9 102.3L257.4 102.8Z" fill="#7583D3"/>
<path d="M279.4 77.9001C284.6 77.9001 289.1 75.9001 289.1 73.5001C289.1 71.1001 284.6 69.1001 279.4 69.1001C274.2 69.1001 269.7 71.1001 269.7 73.5001C269.7 75.9001 274.3 77.9001 279.4 77.9001ZM279.6 74.0001C279 73.8001 277.2 73.7001 277.2 72.7001C277.2 72.1001 277.8 71.7001 279.1 71.5001V71.1001H279.7V71.5001C280.2 71.5001 280.7 71.6001 281.2 71.7001L281 72.4001C280.6 72.3001 280.1 72.2001 279.6 72.2001H279.5C278.6 72.2001 278.5 72.8001 279.1 73.0001C280.2 73.3001 281.6 73.6001 281.6 74.4001C281.6 75.1001 280.8 75.5001 279.7 75.6001V76.0001H279.1V75.6001C278.5 75.6001 277.8 75.5001 277.2 75.3001L277.5 74.6001C278 74.7001 278.6 74.8001 279.1 74.8001C279.2 74.8001 279.4 74.8001 279.5 74.8001C280.3 74.7001 280.4 74.2001 279.6 74.0001ZM279.4 89.6001C283.1 89.6001 286.9 88.7001 289.1 86.9001V88.2001C289.1 90.6001 284.6 92.6001 279.4 92.6001C274.2 92.6001 269.7 90.6001 269.7 88.2001V86.9001C272 88.6001 275.8 89.6001 279.4 89.6001ZM279.4 79.9001C283.1 79.9001 286.9 79.0001 289.1 77.2001V78.5001C289.1 80.9001 284.6 82.9001 279.4 82.9001C274.2 82.9001 269.7 80.9001 269.7 78.5001V77.2001C272 78.9001 275.8 79.9001 279.4 79.9001ZM279.4 84.7001C283.1 84.7001 286.9 83.8001 289.1 82.0001V83.3001C289.1 85.7001 284.6 87.7001 279.4 87.7001C274.2 87.7001 269.7 85.7001 269.7 83.3001V82.0001C272 83.8001 275.8 84.7001 279.4 84.7001Z" fill="#051344"/>
<path d="M435.5 215.5C449.086 215.5 460.1 204.486 460.1 190.9C460.1 177.314 449.086 166.3 435.5 166.3C421.914 166.3 410.9 177.314 410.9 190.9C410.9 204.486 421.914 215.5 435.5 215.5Z" fill="white"/>
<path d="M443.9 185.3L439.7 186.2L440.9 187.4L437.2 191.1L435.1 189L430 194.1L431 195.1L435.1 191L437.2 193.1L441.9 188.4L443.1 189.6L443.9 185.3ZM443.9 197.2V198.6H427.1V183.2H428.5V197.2H443.9Z" fill="#F15B22"/>
<path d="M435.5 215.9C429.1 215.9 422.7 213.5 417.8 208.6L418.4 208C427.8 217.4 443.2 217.4 452.6 208C462 198.6 462 183.2 452.6 173.8L453.2 173.2C462.9 182.9 462.9 198.8 453.2 208.5C448.3 213.5 441.9 215.9 435.5 215.9Z" fill="#7583D3"/>
<path d="M419 267.5H512.4C515 267.5 517.1 269.6 517.1 272.2V308.4C517.1 311 515 313.1 512.4 313.1H419C416.4 313.1 414.3 311 414.3 308.4V272.2C414.3 269.6 416.4 267.5 419 267.5Z" fill="white"/>
<path d="M512 313.6H419.4C416.3 313.6 413.8 311.1 413.8 308V272.6C413.8 269.5 416.3 267 419.4 267H512C515.1 267 517.6 269.5 517.6 272.6V308C517.6 311.1 515.1 313.6 512 313.6ZM419.4 269.1C417.5 269.1 416 270.6 416 272.5V308C416 309.9 417.5 311.4 419.4 311.4H512C513.9 311.4 515.4 309.9 515.4 308V272.6C515.4 270.7 513.9 269.2 512 269.2H419.4V269.1Z" fill="#D9E8FF"/>
<path fill-rule="evenodd" clip-rule="evenodd" d="M424.4 279.1H439.8C440.6 279.1 441.2 279.7 441.2 280.5C441.2 281.3 440.6 281.9 439.8 281.9H424.4C423.6 281.9 423 281.3 423 280.5C423 279.7 423.6 279.1 424.4 279.1Z" fill="#D9E8FF"/>
<path fill-rule="evenodd" clip-rule="evenodd" d="M424.4 284.5H452.5C453.3 284.5 453.9 285.1 453.9 285.9C453.9 286.7 453.3 287.3 452.5 287.3H424.4C423.6 287.3 423 286.7 423 285.9C423 285.1 423.6 284.5 424.4 284.5Z" fill="#D9E8FF"/>
<path fill-rule="evenodd" clip-rule="evenodd" d="M478 279.1H502.5C503.3 279.1 503.9 279.7 503.9 280.5C503.9 281.3 503.3 281.9 502.5 281.9H478C477.2 281.9 476.6 281.3 476.6 280.5C476.6 279.7 477.2 279.1 478 279.1Z" fill="#D9E8FF"/>
<path fill-rule="evenodd" clip-rule="evenodd" d="M478 284.5H493.4C494.2 284.5 494.8 285.1 494.8 285.9C494.8 286.7 494.2 287.3 493.4 287.3H478C477.2 287.3 476.6 286.7 476.6 285.9C476.6 285.1 477.2 284.5 478 284.5Z" fill="#D9E8FF"/>
<path fill-rule="evenodd" clip-rule="evenodd" d="M498.8 284.5H504.7C505.5 284.5 506.1 285.1 506.1 285.9C506.1 286.7 505.5 287.3 504.7 287.3H498.8C498 287.3 497.4 286.7 497.4 285.9C497.4 285.1 498.1 284.5 498.8 284.5Z" fill="#D9E8FF"/>
<path fill-rule="evenodd" clip-rule="evenodd" d="M425.3 295.3H507C507.8 295.3 508.4 295.9 508.4 296.7V298.5C508.4 299.3 507.8 299.9 507 299.9H425.3C424.5 299.9 423.9 299.3 423.9 298.5V296.7C423.9 295.9 424.5 295.3 425.3 295.3Z" fill="#D9E8FF"/>
<path fill-rule="evenodd" clip-rule="evenodd" d="M425.3 295.3H481.7C482.5 295.3 483.1 295.9 483.1 296.7V298.5C483.1 299.3 482.5 299.9 481.7 299.9H425.3C424.5 299.9 423.9 299.3 423.9 298.5V296.7C423.9 295.9 424.5 295.3 425.3 295.3Z" fill="#051344"/>
<path d="M484.122 302.38C487.04 301.761 488.903 298.894 488.284 295.976C487.665 293.059 484.798 291.196 481.88 291.815C478.963 292.434 477.1 295.301 477.719 298.219C478.338 301.136 481.205 302.999 484.122 302.38Z" fill="#051344"/>
<path d="M483 299.8C484.491 299.8 485.7 298.591 485.7 297.1C485.7 295.609 484.491 294.4 483 294.4C481.509 294.4 480.3 295.609 480.3 297.1C480.3 298.591 481.509 299.8 483 299.8Z" fill="white"/>
<path d="M291.4 294.3H266.7C263.9 294.3 261.7 292.1 261.7 289.3V218C261.7 215.2 263.9 213 266.7 213H291.4C294.2 213 296.4 215.2 296.4 218V289.4C296.4 292.1 294.1 294.3 291.4 294.3Z" fill="#FDAD31"/>
</g>
</g>
<defs>
<filter id="filter0_d_141_4448" x="11.4" y="8.7251" width="565.2" height="380.575" filterUnits="userSpaceOnUse" color-interpolation-filters="sRGB">
<feFlood flood-opacity="0" result="BackgroundImageFix"/>
<feColorMatrix in="SourceAlpha" type="matrix" values="0 0 0 0 0 0 0 0 0 0 0 0 0 0 0 0 0 0 127 0" result="hardAlpha"/>
<feOffset dx="9" dy="9"/>
<feGaussianBlur stdDeviation="25"/>
<feComposite in2="hardAlpha" operator="out"/>
<feColorMatrix type="matrix" values="0 0 0 0 0.215686 0 0 0 0 0.231373 0 0 0 0 0.470588 0 0 0 0.1 0"/>
<feBlend mode="normal" in2="BackgroundImageFix" result="effect1_dropShadow_141_4448"/>
<feBlend mode="normal" in="SourceGraphic" in2="effect1_dropShadow_141_4448" result="shape"/>
</filter>
<clipPath id="clip0_141_4448">
<rect width="570" height="380" fill="white"/>
</clipPath>
</defs>
</svg>
