<svg width="570" height="380" viewBox="0 0 570 380" fill="none" xmlns="http://www.w3.org/2000/svg">
<g filter="url(#filter0_d_141_4582)">
<path d="M440 108.4H133.5V307H440V108.4Z" fill="white"/>
<path d="M444.6 311.5H128.9V103.8H444.6V311.5ZM138.1 302.4H435.5V112.9H138.1V302.4Z" fill="white"/>
<path d="M362.303 196.205L338.261 220.246L350.848 232.833L374.889 208.791L362.303 196.205Z" fill="#E9F2FF"/>
<path d="M219.8 138L252.4 170.5L279.2 143.7L257.7 122.2L219.8 138Z" fill="#C5DDFC"/>
<path d="M321.332 155.241L297.29 179.282L335.686 217.678L359.727 193.636L321.332 155.241Z" fill="#E9F2FF"/>
<path d="M294.676 181.808L269.503 206.981L283.858 221.335L309.03 196.163L294.676 181.808Z" fill="#E9F2FF"/>
<path d="M271.772 158.871L235.639 195.004L254.66 214.025L290.793 177.892L271.772 158.871Z" fill="#E9F2FF"/>
<path d="M298.426 132.312L274.385 156.354L293.406 175.375L317.447 151.333L298.426 132.312Z" fill="#E9F2FF"/>
<path d="M311.677 198.802L286.504 223.975L323.132 260.602L348.304 235.43L311.677 198.802Z" fill="#E9F2FF"/>
<path d="M403.9 141.3L395.1 143.8L390 164.1L382.6 171.5L397.4 186.3L423.2 160.5L403.9 141.3Z" fill="#C5DDFC"/>
<path d="M297.545 264.756L273.362 288.939L284.11 299.687L308.292 275.504L297.545 264.756Z" fill="#E9F2FF"/>
<path d="M254.664 221.883L230.482 246.065L270.786 286.37L294.969 262.187L254.664 221.883Z" fill="#E9F2FF"/>
<path d="M265.622 210.881L258.551 217.952L312.149 271.55L319.22 264.479L265.622 210.881Z" fill="#E9F2FF"/>
<path d="M386.7 162.2L391.1 144.9L363.7 152.6L380 168.9L386.7 162.2Z" fill="#C5DDFC"/>
<path d="M414.5 248.4L400.1 234L359 260.9L386.1 276.7L414.5 248.4Z" fill="#C5DDFC"/>
<path d="M227.905 248.554L202.237 274.221L218.076 290.06L243.744 264.393L227.905 248.554Z" fill="#E9F2FF"/>
<path d="M335.6 255.9L355.1 259.1L397.5 231.4L378.8 212.7L335.6 255.9Z" fill="#C5DDFC"/>
<path d="M243.9 108.4H229.9C227.3 109.8 224.3 111.4 221.1 113.1L219.2 134.4L255 119.5L243.9 108.4Z" fill="#C5DDFC"/>
<path d="M339.882 136.678L325.174 151.386L378.772 204.984L393.48 190.276L339.882 136.678Z" fill="#E9F2FF"/>
<path d="M199.69 276.873L192.478 284.085L208.317 299.924L215.529 292.712L199.69 276.873Z" fill="#E9F2FF"/>
<path d="M437.5 146.2L426.3 135L408 140.1L425.8 157.9L437.5 146.2Z" fill="#C5DDFC"/>
<path d="M204.2 218.7L216.9 206L191.3 180.4C188.1 183.4 184.3 187.2 181.3 190.1L178.4 193L204.2 218.7Z" fill="#C5DDFC"/>
<path d="M360.7 149.7L375.5 145.5L366.4 121.2L379.2 108.4H368.2L343.8 132.7L360.7 149.7Z" fill="#C5DDFC"/>
<path d="M174.565 196.903L162.686 208.783L188.354 234.45L200.233 222.571L174.565 196.903Z" fill="#E9F2FF"/>
<path d="M231.716 198.955L192.26 238.411L211.281 257.432L250.737 217.976L231.716 198.955Z" fill="#E9F2FF"/>
<path d="M417.189 174.292L382.683 208.798L396.542 222.657L431.049 188.151L417.189 174.292Z" fill="#E9F2FF"/>
<path d="M370.3 271.7L354.9 262.7L343.3 260.9L317.4 307H339.9L370.3 271.7Z" fill="#C5DDFC"/>
<path d="M399.5 271.1L379.6 291L375.7 287.1L383.4 279.4L373.5 273.6L344.8 307H420.1L399.5 271.1Z" fill="#E9F2FF"/>
<path d="M376.1 136.8L379 144.5L423.4 132L402.2 110.8L376.1 136.8Z" fill="#C5DDFC"/>
<path d="M210.2 307L189.9 286.7L169.6 307H210.2Z" fill="#E9F2FF"/>
<path d="M281.5 302.2L246.4 267.1L220.7 292.7L235 307H276.8L281.5 302.2Z" fill="#E9F2FF"/>
<path d="M218.1 295.3L210.9 302.5L215.4 307H229.8L218.1 295.3Z" fill="#E9F2FF"/>
<path d="M339.5 260.2L332.4 259.1L284.5 307H313.2L339.5 260.2Z" fill="#C5DDFC"/>
<path d="M419.7 171.8L440 192V151.5L419.7 171.8Z" fill="#E9F2FF"/>
<path d="M186 282.8L167 263.7L133.5 297.2V307H161.8L186 282.8Z" fill="#E9F2FF"/>
<path d="M415.8 288.4L426.4 307H440V264.1L415.8 288.4Z" fill="#FCC070"/>
<path d="M440 140.9V108.4H407.5L440 140.9Z" fill="#E9F2FF"/>
<path d="M163.6 132.6C183.8 125.3 203.8 115.7 218 108.4H133.4V141.4C142.5 139.5 152.5 136.6 163.6 132.6Z" fill="#55C9EF"/>
<path d="M440 197.2L433.6 190.8L399.1 225.3L422.2 248.4L403.5 267L412.9 283.4L440 256.4V197.2Z" fill="#E9F2FF"/>
<path d="M193.5 149V177.4L219.5 203.4L249.8 173.1L216.2 139.5L193.5 149Z" fill="#C5DDFC"/>
<path d="M167.5 155.8L215.3 135.9L217.2 115C203.4 122 185.1 130.6 166.6 137.4L167.5 155.8Z" fill="#C5DDFC"/>
<path d="M283.1 139.8L298.4 124.5L321.3 147.5L360.4 108.4H251.6L283.1 139.8Z" fill="#E9F2FF"/>
<path d="M189.694 240.969L169.542 261.121L188.563 280.142L208.715 259.989L189.694 240.969Z" fill="#E9F2FF"/>
<path d="M370.6 122.1L374.7 133L399.4 108.4H384.4L370.6 122.1Z" fill="#C5DDFC"/>
<path d="M174.6 189.1C176 187.7 177.9 185.8 180.8 183C183.7 180.2 186.6 177.4 188 176.1V151.3L151.8 166.4L174.6 189.1Z" fill="#C5DDFC"/>
<path d="M163.1 259.8L137.4 234.2L133.5 238V289.4L163.1 259.8Z" fill="#E9F2FF"/>
<path d="M160.121 211.466L139.969 231.618L165.636 257.286L185.789 237.134L160.121 211.466Z" fill="#E9F2FF"/>
<path d="M144.3 166.6L133.5 155.8V177.4L144.3 166.6Z" fill="#E9F2FF"/>
<path d="M133.5 147V148L149 163.5L163.9 157.3L162.9 138.6C152.2 142.4 142.3 145.2 133.5 147Z" fill="#C5DDFC"/>
<path d="M146.9 169.2L133.5 182.6V230.3L170.7 193L146.9 169.2Z" fill="#E9F2FF"/>
<path d="M440 108.4V307H133.5V108.4H440ZM449.2 99.1999H440H133.5H124.4V108.3V307V316.1H133.5H440H449.1V307V108.4V99.1999H449.2Z" fill="white"/>
<path d="M426.5 83.9999C426 72.7999 416.8 63.8999 405.5 63.8999C394.2 63.8999 385 72.7999 384.5 83.9999C384.5 84.2999 384.5 84.5999 384.5 84.8999C384.5 85.1999 384.5 85.4999 384.5 85.6999C384.6 87.0999 384.8 88.4999 385.1 89.7999C388.5 105.4 405.5 126.8 405.5 126.8C405.5 126.8 422.5 105.3 425.9 89.7999C426.2 88.4999 426.4 87.0999 426.5 85.6999C426.5 85.3999 426.5 85.0999 426.5 84.8999C426.5 84.5999 426.5 84.2999 426.5 83.9999ZM405.5 91.8999C401.6 91.8999 398.5 88.7999 398.5 84.8999C398.5 80.9999 401.6 77.8999 405.5 77.8999C409.4 77.8999 412.5 80.9999 412.5 84.8999C412.5 88.7999 409.4 91.8999 405.5 91.8999Z" fill="#55C9EF"/>
<path d="M405.5 98.2999C412.901 98.2999 418.9 92.3005 418.9 84.8999C418.9 77.4993 412.901 71.4999 405.5 71.4999C398.099 71.4999 392.1 77.4993 392.1 84.8999C392.1 92.3005 398.099 98.2999 405.5 98.2999Z" fill="#051344"/>
<path d="M409.6 87.5999C409.6 89.7999 407.8 91.2999 405.2 91.2999C403.5 91.2999 402.1 90.5999 401.3 89.1999L403 87.8999C403.6 88.6999 404.3 89.0999 405.2 89.0999C406.4 89.0999 407.3 88.3999 407.3 87.3999C407.3 86.3999 406.5 85.6999 405.2 85.6999H404.1V83.8999H404.8C406.1 83.8999 406.8 83.1999 406.8 82.3999C406.8 81.6999 406.1 81.1999 405.3 81.1999C404.5 81.1999 403.7 81.5999 403.3 82.1999L402 80.6999C402.8 79.6999 404.1 78.9999 405.6 78.9999C407.7 78.9999 409.3 80.2999 409.3 82.2999C409.3 83.2999 408.7 84.1999 407.7 84.6999C408.7 85.0999 409.6 86.1999 409.6 87.5999Z" fill="#E9F2FF"/>
<path d="M162.8 226.4C162.3 215.2 153.1 206.3 141.8 206.3C130.5 206.3 121.3 215.2 120.8 226.4C120.8 226.7 120.8 227 120.8 227.3C120.8 227.6 120.8 227.9 120.8 228.1C120.9 229.5 121.1 230.9 121.4 232.2C124.8 247.8 141.8 269.2 141.8 269.2C141.8 269.2 158.8 247.7 162.2 232.2C162.5 230.9 162.7 229.5 162.8 228.1C162.8 227.8 162.8 227.5 162.8 227.3C162.8 227 162.8 226.7 162.8 226.4ZM141.8 234.4C137.9 234.4 134.8 231.3 134.8 227.4C134.8 223.5 137.9 220.4 141.8 220.4C145.7 220.4 148.8 223.5 148.8 227.4C148.8 231.3 145.7 234.4 141.8 234.4Z" fill="#F15B22"/>
<path d="M141.8 240.8C149.201 240.8 155.2 234.8 155.2 227.4C155.2 219.999 149.201 214 141.8 214C134.399 214 128.4 219.999 128.4 227.4C128.4 234.8 134.399 240.8 141.8 240.8Z" fill="#051344"/>
<path d="M143.6 221.4H143.8V233.5H141.4V224.6L138.6 225.7V223.5L143.6 221.4Z" fill="#E9F2FF"/>
<path d="M290.5 144.3C290 133.1 280.8 124.2 269.5 124.2C258.2 124.2 249 133.1 248.5 144.3C248.5 144.6 248.5 144.9 248.5 145.2C248.5 145.5 248.5 145.8 248.5 146C248.6 147.4 248.8 148.8 249.1 150.1C252.5 165.7 269.5 187.1 269.5 187.1C269.5 187.1 286.5 165.6 289.9 150.1C290.2 148.8 290.4 147.4 290.5 146C290.5 145.7 290.5 145.4 290.5 145.2C290.5 144.9 290.5 144.6 290.5 144.3ZM269.5 152.2C265.6 152.2 262.5 149.1 262.5 145.2C262.5 141.3 265.6 138.2 269.5 138.2C273.4 138.2 276.5 141.3 276.5 145.2C276.5 149.1 273.3 152.2 269.5 152.2Z" fill="#FDAD31"/>
<path d="M269.5 158.7C276.901 158.7 282.9 152.701 282.9 145.3C282.9 137.899 276.901 131.9 269.5 131.9C262.099 131.9 256.1 137.899 256.1 145.3C256.1 152.701 262.099 158.7 269.5 158.7Z" fill="#051344"/>
<path d="M269.4 148.2H273.6V150.4H265.5V149.1L270.2 143.5C270.7 142.9 271 142.3 271 141.9C271 141.1 270.3 140.5 269.4 140.5C268.3 140.5 267.7 141.2 267.6 142.2L265.4 141.8C265.7 139.7 267.1 138.2 269.5 138.2C271.9 138.2 273.4 139.6 273.4 141.8C273.4 143 272.9 144 272.1 144.8L269.4 148.2Z" fill="#E9F2FF"/>
<path d="M440 126.3L353.8 150.5L393.4 190.2L378.7 204.9L362.9 189.2L335.7 216.4L294 174.7L211.9 256.8L189 233.9L133.5 289.4V297.2L189 241.6L211.9 264.6L294 182.5L335.7 224.1L362.9 196.9L378.7 212.7L401.2 190.2L364.3 153.3L440 132V126.3Z" fill="#FDAD31"/>
</g>
<defs>
<filter id="filter0_d_141_4582" x="79.8" y="22.8999" width="428.4" height="352.2" filterUnits="userSpaceOnUse" color-interpolation-filters="sRGB">
<feFlood flood-opacity="0" result="BackgroundImageFix"/>
<feColorMatrix in="SourceAlpha" type="matrix" values="0 0 0 0 0 0 0 0 0 0 0 0 0 0 0 0 0 0 127 0" result="hardAlpha"/>
<feOffset dx="9" dy="9"/>
<feGaussianBlur stdDeviation="25"/>
<feComposite in2="hardAlpha" operator="out"/>
<feColorMatrix type="matrix" values="0 0 0 0 0.215686 0 0 0 0 0.231373 0 0 0 0 0.470588 0 0 0 0.1 0"/>
<feBlend mode="normal" in2="BackgroundImageFix" result="effect1_dropShadow_141_4582"/>
<feBlend mode="normal" in="SourceGraphic" in2="effect1_dropShadow_141_4582" result="shape"/>
</filter>
</defs>
</svg>
