<svg width="46" height="46" viewBox="0 0 46 46" fill="none" xmlns="http://www.w3.org/2000/svg">
<mask id="mask0_302_219" style="mask-type:alpha" maskUnits="userSpaceOnUse" x="23" y="27" width="14" height="10">
<path d="M36.0234 27.6875H23.1406V36.7812H36.0234V27.6875Z" fill="white"/>
</mask>
<g mask="url(#mask0_302_219)">
<path d="M28.4453 36.0234C24.6786 36.0234 21.625 32.2913 21.625 27.6875C21.625 23.0837 24.6786 19.3516 28.4453 19.3516C32.2121 19.3516 35.2656 23.0837 35.2656 27.6875C35.2656 32.2913 32.2121 36.0234 28.4453 36.0234Z" stroke="#051344" stroke-width="1.2"/>
</g>
<mask id="mask1_302_219" style="mask-type:alpha" maskUnits="userSpaceOnUse" x="21" y="9" width="16" height="19">
<path d="M33.7523 16.3203L32.9922 27.6875H36.7812V16.3203H33.7523ZM21.625 9.5V14.0469H29.2031L31.4766 12.5479V9.5H21.625Z" fill="white"/>
</mask>
<g mask="url(#mask1_302_219)">
<path fill-rule="evenodd" clip-rule="evenodd" d="M27.3086 10.2578C26.1575 10.2578 25.1155 10.7246 24.3607 11.4779C23.6074 12.2327 23.1406 13.2747 23.1406 14.4258C23.1406 15.1957 23.349 15.9164 23.7128 16.5348C24.0902 17.1759 24.6335 17.7079 25.2837 18.0701C25.4732 18.1747 25.6687 18.2649 25.8695 18.3391C25.7793 18.5407 25.7028 18.7453 25.6406 18.953C25.4929 19.438 25.4141 19.9533 25.4141 20.4883C25.4141 21.8584 25.9332 23.1073 26.7857 24.0485C26.9138 24.1894 27.0487 24.3236 27.1911 24.4501C27.079 24.6062 26.9767 24.7661 26.8835 24.9306C26.431 25.7286 26.1719 26.6743 26.1719 27.6875C26.1719 29.116 26.6872 30.4111 27.5314 31.3477C28.3468 32.2548 29.4714 32.824 30.7188 32.824C31.9661 32.824 33.0907 32.2548 33.9061 31.3485C34.7503 30.4111 35.2656 29.116 35.2656 27.6875C35.2656 26.6743 35.0057 25.7286 34.554 24.9291C34.4616 24.7654 34.3593 24.6047 34.2479 24.4486C34.3896 24.3221 34.5245 24.1879 34.6518 24.047C35.5043 23.108 36.0234 21.8592 36.0234 20.4883C36.0234 19.2652 35.6097 18.1391 34.9148 17.2418C34.2039 16.3249 33.1991 15.6466 32.0419 15.3496C31.8396 15.298 31.6365 15.2586 31.4319 15.2313C31.4584 15.0305 31.472 14.8244 31.472 14.6145C31.4743 13.3815 31.0173 12.2941 30.2648 11.5127C29.5116 10.7299 28.465 10.2578 27.3086 10.2578Z" stroke="#051344" stroke-width="1.2"/>
</g>
<mask id="mask2_302_219" style="mask-type:alpha" maskUnits="userSpaceOnUse" x="10" y="27" width="14" height="10">
<path d="M10.2578 27.6875H23.1406V36.7812H10.2578V27.6875Z" fill="white"/>
</mask>
<g mask="url(#mask2_302_219)">
<path d="M17.8359 36.0234C21.6027 36.0234 24.6562 32.2913 24.6562 27.6875C24.6562 23.0837 21.6027 19.3516 17.8359 19.3516C14.0692 19.3516 11.0156 23.0837 11.0156 27.6875C11.0156 32.2913 14.0692 36.0234 17.8359 36.0234Z" stroke="#051344" stroke-width="1.2"/>
</g>
<mask id="mask3_302_219" style="mask-type:alpha" maskUnits="userSpaceOnUse" x="10" y="20" width="6" height="8">
<path d="M10.2578 20.1094H15.5625V27.6875H10.2578V20.1094Z" fill="white"/>
</mask>
<g mask="url(#mask3_302_219)">
<path fill-rule="evenodd" clip-rule="evenodd" d="M15.5625 22.5511C16.8099 22.5511 17.9345 23.1202 18.7499 24.0265C19.5941 24.9639 20.1094 26.259 20.1094 27.6875C20.1094 29.116 19.5941 30.4111 18.7499 31.3477C17.9345 32.2548 16.8099 32.824 15.5625 32.824C14.3151 32.824 13.1905 32.2548 12.3751 31.3485C11.5309 30.4111 11.0156 29.116 11.0156 27.6875C11.0156 26.259 11.5309 24.9639 12.3751 24.0273C13.1905 23.1194 14.3151 22.5503 15.5625 22.5503V22.5511Z" stroke="#051344" stroke-width="1.2"/>
</g>
<mask id="mask4_302_219" style="mask-type:alpha" maskUnits="userSpaceOnUse" x="9" y="9" width="16" height="16">
<path d="M9.5 14.8047H12.5312V24.6562H9.5V14.8047ZM10.2578 14.0469V9.5H24.6562V14.0469H15.5625V17.0781H12.5312V14.0469H10.2578Z" fill="white"/>
</mask>
<g mask="url(#mask4_302_219)">
<path fill-rule="evenodd" clip-rule="evenodd" d="M18.9727 10.2578C20.1238 10.2578 21.1658 10.7246 21.9205 11.4779C22.6738 12.2327 23.1406 13.2747 23.1406 14.4258C23.1406 15.1957 22.9322 15.9164 22.5685 16.5348C22.1911 17.1759 21.6477 17.7079 20.9975 18.0701C20.8081 18.1747 20.6126 18.2649 20.4117 18.3391C20.5019 18.5407 20.5785 18.7453 20.6406 18.953C20.7884 19.438 20.8672 19.9533 20.8672 20.4883C20.8672 21.9531 20.2731 23.2793 19.3137 24.2395C18.3535 25.1988 17.0274 25.793 15.5625 25.793C14.0976 25.793 12.7715 25.1988 11.8113 24.2395C10.8519 23.2793 10.2578 21.9531 10.2578 20.4883C10.2578 19.2652 10.6716 18.1391 11.3665 17.2418C12.0773 16.3249 13.0822 15.6466 14.2394 15.3496C14.4417 15.298 14.6448 15.2586 14.8494 15.2313C14.8229 15.0305 14.8092 14.8244 14.8092 14.6145C14.807 13.3815 15.2639 12.2941 16.0164 11.5128C16.7697 10.7299 17.8162 10.2578 18.9727 10.2578Z" stroke="#051344" stroke-width="1.2"/>
</g>
<path d="M23.1406 14.0469V33.75" stroke="#051344" stroke-width="1.2"/>
<path fill-rule="evenodd" clip-rule="evenodd" d="M31.4766 12.5312C32.3139 12.5312 33.0718 12.8707 33.6197 13.4194C34.1683 13.9673 34.5078 14.7251 34.5078 15.5625C34.5078 16.3999 34.1683 17.1577 33.6197 17.7056C33.0718 18.2543 32.3139 18.5938 31.4766 18.5938C30.6392 18.5938 29.8814 18.2543 29.3335 17.7056C28.7848 17.1577 28.4453 16.3999 28.4453 15.5625C28.4453 14.7251 28.7848 13.9673 29.3335 13.4194C29.8814 12.8707 30.6392 12.5312 31.4766 12.5312Z" stroke="#FDAD31" stroke-width="1.2"/>
</svg>
