<svg width="46" height="46" viewBox="0 0 46 46" fill="none" xmlns="http://www.w3.org/2000/svg">
<path fill-rule="evenodd" clip-rule="evenodd" d="M31.5056 18.7832C31.5056 14.1795 27.7734 10.4473 23.1697 10.4473C18.566 10.4473 14.8337 14.1795 14.8337 18.7832H31.5056ZM14.8337 18.7832H31.5056V35.4551H14.8337V18.7832Z" stroke="#051344" stroke-width="1.2"/>
<path fill-rule="evenodd" clip-rule="evenodd" d="M31.5056 24.0879C30.6682 24.0879 29.9104 24.4274 29.3625 24.976C28.8139 25.5239 28.4744 26.2818 28.4744 27.1191C28.4744 27.9565 28.8139 28.7143 29.3625 29.2622C29.9104 29.8109 30.6682 30.1504 31.5056 30.1504C32.343 30.1504 33.1008 29.8109 33.6487 29.2622C34.1974 28.7143 34.5369 27.9565 34.5369 27.1191C34.5369 26.2818 34.1974 25.5239 33.6487 24.976C33.1008 24.4274 32.343 24.0879 31.5056 24.0879Z" fill="white" stroke="#FDAD31" stroke-width="1.2"/>
<path d="M14.1136 9.50005L17.1069 12.7205" stroke="#051344" stroke-width="1.2"/>
<path d="M32.2255 9.50005L29.2323 12.7205" stroke="#051344" stroke-width="1.2"/>
</svg>
