<svg width="46" height="46" viewBox="0 0 46 46" fill="none" xmlns="http://www.w3.org/2000/svg">
<path fill-rule="evenodd" clip-rule="evenodd" d="M27.2969 18.5938C26.4595 18.5938 25.7017 18.9332 25.1538 19.4819C24.6051 20.0298 24.2656 20.7876 24.2656 21.625C24.2656 22.4624 24.6051 23.2202 25.1538 23.7681C25.7017 24.3167 26.4595 24.6562 27.2969 24.6562C28.1343 24.6562 28.8921 24.3167 29.44 23.7681C29.9886 23.2202 30.3281 22.4624 30.3281 21.625C30.3281 20.7876 29.9886 20.0298 29.44 19.4819C28.8921 18.9332 28.1343 18.5938 27.2969 18.5938Z" stroke="#FDAD31" stroke-width="1.2"/>
<path d="M23.1289 14.8047V9.5M27.0059 13.3724C29.4983 13.0814 31.6361 13.8976 33.1533 15.5231C34.731 17.2145 35.6328 19.7532 35.6328 22.7754C35.6328 25.8642 34.484 29.0288 32.7781 31.4152C31.1693 33.6644 29.0573 35.2656 26.918 35.2656C25.7562 35.2656 24.5922 34.9034 23.5131 34.2683C23.382 34.191 23.2532 34.1107 23.1281 34.0281C23.0031 34.1115 22.875 34.191 22.7439 34.2683C21.6648 34.9034 20.5008 35.2656 19.3398 35.2656C17.2005 35.2656 15.0885 33.6644 13.4797 31.4159C11.7738 29.0288 10.625 25.8634 10.625 22.7746C10.625 19.7517 11.5268 17.2138 13.1046 15.5223C14.6209 13.8968 16.7595 13.0807 19.2519 13.3717C20.3098 13.4952 21.5246 14.0022 22.7068 14.7979C22.8515 14.8956 22.9933 14.9949 23.1304 15.0964C23.2668 14.9949 23.4078 14.8956 23.5533 14.7979C24.734 14.0022 25.948 13.4952 27.0059 13.3717V13.3724Z" stroke="#051344" stroke-width="1.2"/>
</svg>
