<svg width="46" height="46" viewBox="0 0 46 46" fill="none" xmlns="http://www.w3.org/2000/svg">
<path d="M22.7617 35.2656C29.2489 35.2656 34.5078 30.0067 34.5078 23.5195C34.5078 17.0323 29.2489 11.7734 22.7617 11.7734C16.2745 11.7734 11.0156 17.0323 11.0156 23.5195C11.0156 30.0067 16.2745 35.2656 22.7617 35.2656Z" stroke="#051344" stroke-width="1.2"/>
<path fill-rule="evenodd" clip-rule="evenodd" d="M32.9922 26.1719C33.8296 26.1719 34.5874 26.5114 35.1353 27.06C35.6839 27.6079 36.0234 28.3657 36.0234 29.2031C36.0234 30.0405 35.6839 30.7983 35.1353 31.3462C34.5874 31.8949 33.8296 32.2344 32.9922 32.2344C32.1548 32.2344 31.397 31.8949 30.8491 31.3462C30.3004 30.7983 29.9609 30.0405 29.9609 29.2031C29.9609 28.3657 30.3004 27.6079 30.8491 27.06C31.397 26.5114 32.1548 26.1719 32.9922 26.1719ZM12.5312 26.1719C13.3686 26.1719 14.1264 26.5114 14.6743 27.06C15.223 27.6079 15.5625 28.3657 15.5625 29.2031C15.5625 30.0405 15.223 30.7983 14.6743 31.3462C14.1264 31.8949 13.3686 32.2344 12.5312 32.2344C11.6939 32.2344 10.9361 31.8949 10.3882 31.3462C9.8395 30.7983 9.5 30.0405 9.5 29.2031C9.5 28.3657 9.8395 27.6079 10.3882 27.06C10.9361 26.5114 11.6939 26.1719 12.5312 26.1719ZM23.1406 9.5C23.978 9.5 24.7358 9.8395 25.2837 10.3882C25.8324 10.9361 26.1719 11.6939 26.1719 12.5313C26.1719 13.3686 25.8324 14.1264 25.2837 14.6743C24.7358 15.223 23.978 15.5625 23.1406 15.5625C22.3032 15.5625 21.5454 15.223 20.9975 14.6743C20.4489 14.1264 20.1094 13.3686 20.1094 12.5313C20.1094 11.6939 20.4489 10.9361 20.9975 10.3882C21.5454 9.8395 22.3032 9.5 23.1406 9.5Z" fill="white" stroke="#FDAD31" stroke-width="1.2"/>
</svg>
