<svg width="46" height="46" viewBox="0 0 46 46" fill="none" xmlns="http://www.w3.org/2000/svg">
<path d="M41.2074 35.3452H6.74683V36.7811H41.2074V35.3452Z" fill="#051344"/>
<path d="M6.74683 9.5V12.4435C7.22066 12.3478 7.70885 12.3478 8.18268 12.4435V10.9359H39.7715V31.0378H8.18268V19.4792C7.70885 19.5749 7.22066 19.5749 6.74683 19.4792V32.4737H41.2074V9.5H6.74683Z" fill="#051344"/>
<path d="M7.46464 13.8074C7.89062 13.8074 8.30703 13.9338 8.66122 14.1704C9.0154 14.4071 9.29146 14.7435 9.45448 15.137C9.61749 15.5306 9.66014 15.9636 9.57704 16.3814C9.49393 16.7992 9.28881 17.183 8.98759 17.4842C8.68638 17.7854 8.30261 17.9905 7.88482 18.0736C7.46703 18.1567 7.03398 18.1141 6.64042 17.9511C6.24687 17.788 5.9105 17.512 5.67383 17.1578C5.43717 16.8036 5.31086 16.3872 5.31086 15.9612C5.31086 15.39 5.53777 14.8422 5.94169 14.4383C6.3456 14.0344 6.89342 13.8074 7.46464 13.8074ZM7.46464 12.3716C6.75468 12.3716 6.06066 12.5821 5.47034 12.9765C4.88003 13.371 4.41994 13.9316 4.14825 14.5875C3.87656 15.2434 3.80547 15.9652 3.94398 16.6615C4.08248 17.3578 4.42436 17.9975 4.92638 18.4995C5.4284 19.0015 6.06801 19.3434 6.76434 19.4819C7.46066 19.6204 8.18241 19.5493 8.83833 19.2776C9.49426 19.0059 10.0549 18.5458 10.4493 17.9555C10.8437 17.3652 11.0543 16.6712 11.0543 15.9612C11.0543 15.4898 10.9614 15.023 10.781 14.5875C10.6006 14.152 10.3362 13.7563 10.0029 13.423C9.66957 13.0896 9.27385 12.8252 8.83833 12.6448C8.40282 12.4644 7.93604 12.3716 7.46464 12.3716Z" fill="#FDAD31"/>
<path d="M16.0799 13.8074C16.5059 13.8074 16.9223 13.9338 17.2765 14.1704C17.6306 14.4071 17.9067 14.7435 18.0697 15.137C18.2327 15.5306 18.2754 15.9636 18.1923 16.3814C18.1092 16.7992 17.904 17.183 17.6028 17.4842C17.3016 17.7854 16.9178 17.9905 16.5001 18.0736C16.0823 18.1567 15.6492 18.1141 15.2557 17.9511C14.8621 17.788 14.5257 17.512 14.2891 17.1578C14.0524 16.8036 13.9261 16.3872 13.9261 15.9612C13.9261 15.39 14.153 14.8422 14.5569 14.4383C14.9608 14.0344 15.5087 13.8074 16.0799 13.8074ZM16.0799 12.3716C15.3699 12.3716 14.6759 12.5821 14.0856 12.9765C13.4953 13.371 13.0352 13.9316 12.7635 14.5875C12.4918 15.2434 12.4207 15.9652 12.5592 16.6615C12.6977 17.3578 13.0396 17.9975 13.5416 18.4995C14.0436 19.0015 14.6832 19.3434 15.3796 19.4819C16.0759 19.6204 16.7976 19.5493 17.4536 19.2776C18.1095 19.0059 18.6701 18.5458 19.0645 17.9555C19.459 17.3652 19.6695 16.6712 19.6695 15.9612C19.6695 15.0092 19.2913 14.0961 18.6181 13.423C17.9449 12.7498 17.0319 12.3716 16.0799 12.3716Z" fill="#FDAD31"/>
<path d="M24.6949 13.8074C25.1208 13.8074 25.5373 13.9338 25.8914 14.1704C26.2456 14.4071 26.5217 14.7435 26.6847 15.137C26.8477 15.5306 26.8904 15.9636 26.8073 16.3814C26.7242 16.7992 26.519 17.183 26.2178 17.4842C25.9166 17.7854 25.5328 17.9905 25.115 18.0736C24.6973 18.1567 24.2642 18.1141 23.8706 17.9511C23.4771 17.788 23.1407 17.512 22.9041 17.1578C22.6674 16.8036 22.5411 16.3872 22.5411 15.9612C22.5411 15.39 22.768 14.8422 23.1719 14.4383C23.5758 14.0344 24.1236 13.8074 24.6949 13.8074ZM24.6949 12.3716C23.9849 12.3716 23.2909 12.5821 22.7006 12.9765C22.1103 13.371 21.6502 13.9316 21.3785 14.5875C21.1068 15.2434 21.0357 15.9652 21.1742 16.6615C21.3127 17.3578 21.6546 17.9975 22.1566 18.4995C22.6586 19.0015 23.2982 19.3434 23.9946 19.4819C24.6909 19.6204 25.4126 19.5493 26.0686 19.2776C26.7245 19.0059 27.2851 18.5458 27.6795 17.9555C28.074 17.3652 28.2845 16.6712 28.2845 15.9612C28.2845 15.0092 27.9063 14.0961 27.2331 13.423C26.5599 12.7498 25.6469 12.3716 24.6949 12.3716Z" fill="#FDAD31"/>
</svg>
