<svg xmlns="http://www.w3.org/2000/svg" xmlns:xlink="http://www.w3.org/1999/xlink" width="129" height="60" viewBox="0 0 129 60">
    <defs>
        <path id="6erh3ymfwa" d="M0 0.289L4.165 0.289 4.165 17.654 0 17.654z"/>
        <path id="0lj3v4qz5c" d="M0.015 0.943L13.411 0.943 13.411 19 0.015 19z"/>
    </defs>
    <g fill="none" fill-rule="evenodd">
        <g>
            <g>
                <g>
                    <g>
                        <g>
                            <g>
                                <g transform="translate(-912 -7738) translate(-5 7558) translate(226 140) translate(628) translate(63 40) translate(7 21) translate(0 1.057)">
                                    <mask id="veh74vw03b" fill="#fff">
                                        <use xlink:href="#6erh3ymfwa"/>
                                    </mask>
                                    <path fill="#C63F41" d="M.433 17.654c-.018-.001-.035-.001-.052-.003-.035-.004-.07-.013-.101-.025-.066-.025-.125-.066-.171-.118-.034-.039-.062-.084-.081-.133-.012-.033-.02-.067-.025-.102C0 17.256 0 17.238 0 17.221V.722C0 .704 0 .687.003.67.008.635.016.601.028.568.053.503.094.444.146.398.185.363.23.336.28.317.312.305.346.297.38.292L.434.289h3.3l.052.003c.035.005.069.013.1.025.067.025.126.066.172.118.034.039.062.084.08.133.013.033.02.067.025.102.002.017.002.034.003.052V6.35H3.3V1.154H.866v15.634H3.3v-6.655h.865v7.088c-.001.017-.001.035-.003.052-.004.035-.012.069-.024.102-.02.049-.047.094-.081.133-.046.052-.105.093-.171.118-.032.012-.066.021-.101.025l-.052.003h-3.3z" mask="url(#veh74vw03b)"/>
                                </g>
                                <path fill="#9F9F9F" d="M24.126 17.845c1.504 0 3.01.002 4.514 0h.092c.101-.002.202-.004.303-.009.215-.009.43-.025.644-.048.551-.06 1.096-.17 1.624-.339.313-.099.62-.218.916-.358.278-.13.546-.279.804-.445.302-.193.59-.41.857-.649.257-.229.497-.476.718-.74.17-.204.33-.416.476-.638.11-.164.212-.332.308-.504.07-.125.136-.253.2-.383.483-.996.754-2.092.817-3.197.013-.207.017-.415.014-.622-.003-.276-.02-.553-.049-.827-.04-.38-.107-.76-.198-1.13-.132-.54-.317-1.068-.555-1.57-.28-.589-.634-1.143-1.057-1.639-.244-.285-.51-.55-.797-.794-.238-.202-.49-.388-.754-.556-.259-.165-.528-.312-.806-.442-.337-.157-.686-.288-1.043-.394-.345-.102-.698-.18-1.053-.237-.333-.052-.669-.085-1.006-.102-.162-.007-.324-.01-.487-.01h-4.482v15.633zm3.3-3.3c.406 0 .812.002 1.218 0h.086c.134-.004.27-.012.402-.024.254-.025.506-.068.752-.133.273-.072.538-.17.79-.295.26-.129.506-.288.731-.472.201-.165.387-.35.552-.552.082-.1.16-.205.232-.312.408-.606.656-1.312.752-2.035.015-.106.025-.212.033-.319.01-.142.014-.286.013-.429-.002-.187-.014-.375-.036-.56-.03-.265-.082-.527-.154-.784-.113-.405-.278-.795-.496-1.155-.13-.215-.279-.418-.446-.606-.16-.182-.34-.35-.533-.499-.238-.185-.499-.34-.773-.466-.354-.16-.73-.269-1.114-.33-.183-.029-.367-.047-.552-.056-.085-.005-.17-.006-.257-.007h-1.2v9.034zm-.433.865c-.017 0-.034 0-.052-.003-.035-.004-.068-.012-.1-.024-.05-.019-.095-.046-.134-.08-.053-.047-.094-.106-.118-.17-.013-.034-.02-.068-.025-.103-.002-.017-.002-.035-.003-.052v-9.9l.003-.052c.004-.035.012-.069.025-.1.018-.05.046-.096.08-.135.047-.052.105-.092.171-.117.033-.013.066-.02.101-.025l.052-.003c.552 0 1.104-.003 1.656 0 .1.001.198.003.296.01.197.01.393.028.59.058.444.068.881.19 1.294.368.374.162.728.371 1.048.623.21.164.405.346.584.543.316.347.581.741.79 1.161.186.372.328.765.427 1.168.065.262.111.53.14.797.021.197.033.394.034.592.002.146-.002.291-.01.436-.052.85-.28 1.692-.692 2.44-.06.108-.124.215-.192.32-.09.141-.188.276-.293.407-.205.256-.435.492-.687.701-.273.227-.572.423-.889.583-.324.164-.667.29-1.019.381-.299.076-.605.127-.912.153-.17.015-.339.022-.509.023-.552.003-1.104 0-1.656 0zm-3.3 3.301c-.017 0-.034 0-.052-.004-.035-.004-.068-.012-.1-.025-.066-.025-.125-.065-.17-.117-.036-.039-.064-.085-.082-.134-.013-.032-.02-.066-.025-.1l-.003-.053V1.78c.001-.018.001-.036.003-.053.004-.034.012-.068.025-.1.025-.066.065-.125.117-.172.04-.034.085-.062.134-.08.033-.012.066-.02.101-.025l.052-.003c1.65 0 3.3-.002 4.95 0 .174 0 .35.005.525.014.358.018.714.054 1.067.11.374.06.745.14 1.11.245.39.113.773.253 1.143.422.322.146.635.313.934.501.321.202.627.426.915.672.366.312.703.66 1.005 1.033.198.243.381.5.55.763.122.193.236.39.342.592.082.156.16.315.233.477.557 1.237.826 2.6.812 3.954-.003.27-.017.54-.042.808-.035.37-.09.737-.168 1.1-.139.65-.346 1.286-.623 1.891-.31.676-.707 1.313-1.185 1.885-.264.316-.554.612-.865.883-.298.26-.617.496-.95.708-.316.198-.644.375-.984.527-.318.144-.646.267-.979.37-.587.18-1.193.296-1.804.357-.223.022-.449.038-.674.045-.12.005-.242.007-.363.008-1.65.002-3.299 0-4.949 0zM45.812 17.984c.065 0 .131-.001.196-.003.12-.004.24-.011.36-.021.453-.04.903-.129 1.338-.268.45-.144.881-.342 1.281-.594.262-.165.51-.354.736-.564.226-.209.433-.439.615-.687.155-.211.293-.434.412-.667.117-.229.216-.467.297-.71.128-.385.212-.784.257-1.187.027-.242.04-.486.04-.729V2.212h-2.41c0 3.439.01 6.88 0 10.32 0 .015 0 .031-.002.046-.002.103-.008.207-.019.31-.02.203-.06.403-.12.598-.073.232-.173.456-.302.662-.148.238-.332.453-.545.636-.087.075-.179.145-.275.21-.065.043-.13.085-.2.123-.51.288-1.099.427-1.683.421-.107-.001-.215-.007-.32-.018-.156-.016-.309-.042-.459-.078-.233-.056-.459-.136-.674-.241-.228-.112-.442-.251-.634-.417-.122-.105-.235-.22-.336-.344-.154-.187-.283-.396-.383-.617-.112-.249-.188-.514-.229-.785-.018-.115-.029-.231-.035-.348-.003-.06-.004-.12-.004-.18V2.212H40.28c0 3.454-.015 6.909 0 10.364.002.242.015.486.043.727.045.39.126.776.25 1.15.075.233.17.461.278.681.122.245.264.479.426.7.18.244.38.472.601.678.226.212.472.402.733.569.39.249.81.445 1.246.591.423.14.86.233 1.303.278.12.013.238.022.36.027.064.003.13.005.195.006l.098.001m0 .865c-.075 0-.149-.001-.223-.003-.136-.004-.273-.012-.408-.024-.518-.046-1.032-.147-1.527-.306-.519-.166-1.018-.395-1.479-.686-.317-.2-.615-.429-.889-.686-.26-.243-.498-.512-.709-.8-.19-.259-.358-.536-.5-.824-.13-.257-.239-.524-.328-.797-.142-.429-.235-.873-.287-1.322-.02-.185-.035-.371-.042-.557-.004-.104-.006-.208-.006-.312V1.779c.001-.018.001-.035.003-.052.004-.035.013-.069.025-.102.018-.049.046-.094.081-.133.046-.052.105-.093.17-.118.033-.012.067-.02.101-.025l.053-.003h3.3c.017.001.035.001.052.003.034.005.07.013.101.025.065.025.124.066.17.118.035.039.063.084.081.133.012.033.021.067.025.102.002.017.002.034.003.052 0 3.582-.01 7.165 0 10.748.001.074.004.147.01.221.014.154.041.307.084.455.051.172.123.337.218.489.097.156.217.297.356.42.044.039.09.077.138.112.307.226.674.364 1.05.42.057.008.115.015.173.02.076.006.152.009.23.008.102 0 .205-.006.308-.019.142-.017.282-.046.418-.087.192-.057.378-.137.55-.242.206-.127.391-.29.54-.483.082-.108.153-.226.21-.349.087-.185.143-.383.174-.584.013-.086.022-.173.026-.26.002-.047.003-.093.003-.14V1.779l.004-.052c.004-.035.012-.069.025-.102.018-.049.046-.094.08-.133.047-.052.106-.093.171-.118.032-.012.067-.02.101-.025.017-.002.035-.002.052-.003h3.277c.017.001.035.001.052.003.035.005.07.013.102.025.048.019.094.046.133.081.052.046.093.105.118.17.012.033.02.067.025.102l.003.052c0 3.601.015 7.201 0 10.802 0 .088-.003.175-.006.263-.007.179-.02.357-.04.535-.052.463-.148.921-.295 1.364-.096.285-.21.563-.348.831-.14.274-.303.538-.486.786-.204.277-.433.536-.683.771-.255.241-.532.457-.825.648-.45.295-.942.53-1.452.703-.48.162-.979.271-1.484.325-.148.016-.296.028-.445.034-.074.004-.148.006-.223.008h-.11M59.423 18.865c-.084 0-.17 0-.254-.004-.27-.008-.54-.029-.808-.06-.286-.033-.572-.078-.855-.134-.728-.144-1.442-.362-2.13-.644-.29-.119-.577-.25-.858-.394l-.027-.014c-.026-.014-.047-.023-.072-.04-.015-.01-.03-.02-.042-.033-.04-.034-.073-.076-.098-.123-.024-.046-.04-.097-.046-.149-.006-.047-.004-.059-.001-.105l.416-3.462c.003-.017.004-.034.009-.05.008-.036.02-.068.037-.1.04-.077.105-.142.184-.182.046-.024.097-.04.149-.046.035-.004.07-.003.105.001.052.006.103.023.149.048.028.014.043.026.067.042l.04.03.064.042c.096.065.194.127.293.187.19.113.387.218.588.313.442.208.905.367 1.38.48.295.068.596.12.898.151.272.03.547.042.82.037.077 0 .154-.005.229-.01l.09-.007.059-.005c.042-.004.084-.01.126-.018.076-.013.15-.03.225-.054.058-.018.115-.039.17-.063.044-.019.087-.04.129-.063.033-.018.066-.038.098-.059l.073-.05c.149-.11.279-.254.358-.424.012-.026.022-.053.032-.08.014-.04.025-.083.033-.125.01-.056.015-.11.014-.167l-.003-.057-.003-.027-.006-.066c-.005-.047-.013-.093-.023-.14-.015-.063-.034-.126-.06-.186-.025-.057-.055-.113-.09-.165-.11-.163-.266-.29-.432-.394-.1-.063-.206-.117-.314-.167-.148-.068-.3-.127-.453-.182l-.021-.007-.024-.008c-.042-.016-.083-.03-.125-.047-.265-.099-.53-.202-.79-.31-.21-.089-.415-.18-.62-.278-.153-.073-.305-.149-.456-.228-.112-.059-.223-.12-.332-.183-.081-.047-.162-.095-.242-.144-.562-.346-1.088-.758-1.52-1.259-.066-.076-.13-.154-.19-.234-.084-.11-.164-.227-.238-.346-.13-.208-.241-.426-.333-.65-.074-.18-.135-.364-.183-.552-.055-.21-.094-.425-.118-.64-.037-.327-.04-.655-.018-.98.033-.497.125-.99.282-1.462.096-.293.218-.578.363-.85.142-.268.308-.523.495-.76.179-.23.377-.444.593-.638.2-.182.416-.348.643-.495.41-.266.86-.472 1.329-.613.308-.094.624-.159.943-.197.09-.01.182-.02.273-.026.059-.005.118-.008.178-.01l.17-.009c.183-.007.367-.009.55-.005.205.004.41.017.615.038.616.06 1.222.19 1.817.354.296.082.589.173.879.27l.15.051c.033.012.068.022.1.038.064.032.12.08.16.138.033.044.056.094.068.146.009.035.013.071.013.107 0 .018-.003.035-.004.053l-.415 3.185c-.003.017-.005.035-.01.051-.01.034-.021.067-.038.098-.017.031-.037.06-.061.086-.035.04-.078.071-.125.095-.062.032-.133.048-.203.046-.035 0-.07-.005-.104-.014-.033-.009-.06-.02-.092-.034l-.04-.016-.082-.032c-.103-.04-.207-.079-.312-.117-.313-.112-.631-.21-.953-.29-.331-.084-.668-.146-1.008-.176-.138-.012-.276-.019-.413-.02-.105 0-.21.001-.314.006l-.03.001c-.12.008-.24.026-.356.058-.08.022-.156.05-.23.087-.082.04-.16.088-.23.146-.047.041-.092.086-.132.134-.028.033-.054.068-.078.104-.128.197-.19.431-.198.665v.12c0 .02.002.041.004.062l.003.034c.004.023.007.046.012.068.01.053.024.106.043.157.022.06.05.117.083.172.1.163.245.292.402.398.028.02.057.038.086.055.124.076.253.14.386.2.178.077.36.145.545.208l.127.047c.264.1.526.206.785.32.206.09.41.186.612.287.15.076.3.156.449.24.11.061.219.125.325.19.089.055.177.11.263.168.539.357 1.04.778 1.45 1.28.057.068.112.138.165.21.077.104.149.211.217.321.094.152.18.311.256.474.099.211.18.43.244.655.062.222.108.45.135.678.017.13.027.26.032.39.004.102.005.203.003.304-.001.103-.006.205-.012.307-.02.288-.06.575-.12.858-.064.294-.151.584-.263.865-.161.403-.372.785-.63 1.134-.257.35-.561.664-.9.936-.315.252-.66.466-1.023.64-.31.15-.631.268-.962.36-.313.087-.633.15-.956.19-.173.021-.348.037-.523.046l-.067.005c-.108.006-.216.01-.325.012h-.09m0-.865c.084 0 .168-.002.25-.006.06-.002.119-.005.177-.009l.073-.005c.144-.009.287-.022.43-.04.27-.036.537-.089.8-.162.28-.079.556-.18.819-.306.312-.149.608-.334.877-.552.279-.227.528-.489.74-.779.206-.284.376-.594.506-.92.186-.465.29-.96.323-1.459.006-.088.009-.176.01-.264.002-.094 0-.188-.003-.282-.005-.115-.016-.23-.031-.345-.027-.199-.071-.398-.131-.59-.056-.178-.126-.352-.21-.519-.046-.094-.097-.186-.152-.275-.042-.069-.087-.138-.133-.204-.295-.42-.667-.78-1.074-1.09-.36-.276-.746-.513-1.145-.723-.51-.27-1.043-.497-1.584-.698l-.025-.01-.11-.037-.091-.033c-.083-.03-.166-.062-.248-.096-.067-.027-.133-.056-.2-.085-.216-.098-.427-.21-.62-.35-.19-.134-.361-.293-.5-.479-.046-.063-.09-.128-.128-.195-.052-.092-.096-.188-.131-.287-.037-.103-.064-.209-.083-.316-.01-.05-.015-.102-.021-.153l-.003-.057c-.004-.069-.005-.138-.003-.207.004-.14.019-.282.049-.42.035-.17.092-.339.168-.496.07-.144.157-.279.26-.402.08-.095.168-.182.265-.26.129-.104.27-.19.42-.26.183-.085.377-.143.576-.178.104-.018.209-.029.315-.036.036 0 .073-.003.109-.004.118-.004.235-.005.353-.003.16.003.32.014.48.03.282.028.563.075.839.136.32.07.637.16.948.261.092.031.184.062.277.095l.028.01.299-2.288-.091-.03-.353-.109c-.296-.087-.594-.166-.896-.232-.302-.066-.607-.12-.915-.155-.204-.023-.408-.038-.613-.044-.181-.005-.362-.003-.543.004l-.16.007c-.063.003-.125.007-.188.012-.106.008-.212.02-.317.035-.383.056-.76.157-1.116.307-.34.141-.66.326-.95.55-.308.236-.582.515-.813.826-.286.384-.506.814-.656 1.268-.124.375-.2.765-.233 1.158-.01.118-.015.236-.017.355-.002.083-.001.167.002.251.004.116.013.233.028.35.023.19.06.38.113.565.05.175.115.346.192.512.097.206.215.401.348.585.039.053.079.105.12.156.316.391.704.72 1.118 1.001.069.047.138.092.209.137.378.24.776.445 1.182.631.27.124.546.24.824.347.097.04.195.076.294.113l.175.065.087.031.089.033c.059.022.118.045.177.07l.15.063c.33.147.65.331.91.586.045.044.087.09.127.137.049.057.094.117.136.18.058.088.108.18.15.276.042.092.075.187.1.283.024.088.04.178.053.268.004.026.007.053.009.08l.004.047.003.036.005.082c.003.082-.001.164-.01.245-.012.114-.036.227-.071.336-.028.087-.063.171-.104.252-.031.061-.065.121-.102.178-.031.046-.063.091-.097.135-.244.31-.58.542-.943.687-.181.072-.37.124-.56.154-.05.008-.1.014-.147.02l-.078.006-.078.006-.162.01c-.235.01-.47.005-.705-.009-.35-.02-.698-.065-1.042-.132-.568-.11-1.124-.28-1.655-.51-.258-.112-.51-.238-.753-.377l-.296 2.475c.782.377 1.61.66 2.462.836.252.052.505.094.76.127.24.031.482.052.723.063.08.004.16.006.239.008l.11.001M70.354 18.711c-.018 0-.035 0-.052-.003-.035-.004-.07-.013-.102-.025-.065-.025-.124-.066-.17-.118-.035-.039-.062-.084-.081-.133-.012-.033-.02-.067-.025-.102-.002-.017-.002-.035-.003-.052V5.511h-3.675l-.052-.003c-.046-.008-.058-.008-.101-.025-.066-.024-.124-.065-.171-.118-.034-.039-.062-.084-.08-.133-.012-.033-.021-.066-.025-.1-.003-.019-.003-.036-.004-.053V1.802c0-.018 0-.035.004-.052.004-.035.013-.069.025-.1.025-.067.065-.126.117-.172.04-.035.085-.062.134-.08.032-.013.067-.02.1-.026l.053-.003H77.76c.018.001.035.001.052.003.035.005.069.013.102.025.048.02.094.046.133.081.053.046.093.105.118.171.012.032.02.066.025.101.002.017.002.034.003.052V5.08l-.003.052c-.004.035-.013.068-.025.101-.025.065-.065.124-.118.17-.04.035-.085.062-.133.081-.033.013-.067.021-.102.025-.017.002-.034.002-.052.003h-3.675v12.767l-.003.052c-.008.046-.008.058-.025.102-.024.065-.065.124-.118.17-.04.035-.084.062-.133.081-.033.012-.066.021-.101.025l-.052.003h-3.3zm.433-.866h2.434V5.08c0-.018 0-.035.003-.053.005-.034.013-.068.025-.1.025-.066.065-.125.118-.17.039-.036.084-.064.133-.082.033-.012.067-.02.102-.025.017-.002.034-.002.052-.003h3.675V2.234h-10.65v2.412h3.675c.017.001.035.001.052.003.034.004.069.013.1.025.05.018.096.046.135.081.052.046.092.105.117.17.013.033.02.067.025.101.003.018.003.035.004.053v12.766zM80.686 17.845h2.435v-5.867c0-.017 0-.035.003-.052.004-.035.012-.069.025-.102.024-.064.065-.124.118-.17.039-.035.084-.062.133-.08.033-.013.067-.02.1-.025l.053-.004h1.592c.047.003.059.002.104.013.084.021.162.068.22.133.03.034.035.046.059.085l3.2 6.07h2.739l-3.468-6.164c-.007-.015-.016-.03-.022-.046-.014-.032-.023-.065-.028-.1-.006-.034-.007-.068-.004-.103.006-.069.029-.136.066-.194.028-.044.064-.083.105-.114.028-.02.058-.038.09-.052.032-.014.067-.023.1-.033l.052-.016.125-.042c.089-.032.177-.066.264-.104.227-.098.445-.219.649-.359.164-.113.319-.239.463-.376.314-.298.576-.649.78-1.03.185-.346.323-.715.416-1.096.064-.26.107-.525.129-.792.015-.179.02-.359.017-.538-.003-.139-.011-.278-.025-.416-.01-.106-.024-.21-.04-.316-.108-.669-.346-1.32-.72-1.887-.061-.093-.126-.184-.194-.272-.138-.177-.29-.342-.453-.493-.162-.149-.334-.284-.518-.403-.168-.11-.345-.207-.528-.29-.175-.08-.357-.147-.542-.203-.31-.092-.631-.149-.953-.176-.103-.009-.206-.015-.308-.018l-.16-.002h-6.074v15.634zm3.3-9.507c.832 0 1.664.008 2.495 0h.04c.11-.006.218-.022.322-.053.074-.022.145-.05.213-.087.073-.04.14-.089.202-.145.025-.02.048-.044.07-.068.154-.165.258-.372.317-.589.01-.038.02-.077.027-.116.01-.049.017-.097.023-.146.008-.064.012-.128.012-.192 0-.088-.004-.175-.016-.262-.015-.11-.04-.219-.076-.324-.074-.219-.198-.424-.373-.576-.035-.029-.071-.057-.108-.08-.055-.038-.115-.07-.176-.096-.103-.043-.211-.07-.321-.083-.058-.007-.118-.01-.177-.01h-2.474v2.827zm-.433.865c-.017 0-.034 0-.052-.003-.034-.004-.068-.013-.101-.025-.05-.018-.094-.046-.133-.08-.053-.047-.094-.106-.118-.17-.013-.034-.021-.068-.025-.102l-.003-.052V5.078c0-.017 0-.034.003-.052.004-.035.012-.069.025-.1.024-.066.065-.125.118-.17.039-.036.084-.064.133-.082.033-.013.067-.02.1-.025l.053-.003c.975 0 1.949-.004 2.924 0 .103.001.206.008.309.022.173.025.345.071.507.138.145.061.283.14.409.234.202.152.373.343.506.557.11.176.194.367.254.566.042.14.072.283.09.428.012.102.019.205.02.308 0 .077-.002.154-.008.231-.03.403-.151.802-.37 1.144-.03.048-.063.094-.097.14-.042.056-.088.11-.136.161-.07.076-.146.145-.227.21-.105.081-.22.152-.34.211-.177.087-.368.146-.563.178-.118.02-.236.028-.354.03-.975.002-1.95 0-2.924 0zm-3.3 9.508c-.017 0-.034 0-.052-.004-.035-.004-.068-.012-.101-.025-.05-.018-.094-.045-.133-.08-.053-.047-.093-.106-.118-.17-.013-.033-.021-.067-.025-.102-.002-.017-.002-.035-.003-.052V1.78c0-.018 0-.036.003-.053.004-.034.012-.068.025-.1.025-.066.065-.125.118-.172.039-.034.084-.062.133-.08.033-.012.066-.02.1-.025l.053-.003h6.509c.06 0 .12 0 .182.002.13.004.262.012.392.023.37.034.736.101 1.092.207.223.066.442.148.654.244.222.101.437.22.642.353.224.146.435.31.63.491.179.164.345.342.497.531.103.127.199.26.288.395.068.104.133.21.194.318.406.723.643 1.537.712 2.361.012.133.018.266.02.4.005.19-.001.38-.014.57-.02.264-.057.528-.111.788-.087.417-.22.825-.4 1.212-.202.44-.465.853-.785 1.217-.185.211-.388.406-.608.581-.218.173-.451.327-.696.46-.1.052-.2.101-.303.148-.046.021-.094.041-.142.061l3.578 6.358c.008.016.017.031.023.048.02.048.03.101.033.154 0 .035-.003.071-.011.105-.012.052-.033.102-.063.146s-.067.082-.11.113c-.03.02-.061.037-.094.05-.032.013-.067.021-.102.025l-.053.004h-3.738c-.047-.003-.058-.002-.104-.013-.084-.02-.162-.067-.22-.133-.031-.034-.035-.046-.06-.085l-3.2-6.069h-.9v5.867c0 .017 0 .035-.002.052-.005.035-.013.07-.025.101-.02.05-.046.095-.081.134-.046.052-.105.092-.17.117-.033.013-.067.021-.102.025-.017.003-.034.003-.052.004h-3.3zM94.832 17.845h7.673V15.41h-4.806l-.052-.003c-.045-.008-.058-.008-.102-.024-.048-.019-.094-.046-.133-.08-.052-.047-.093-.106-.118-.17-.012-.034-.02-.068-.024-.103-.002-.017-.002-.035-.003-.052v-3.3c0-.017 0-.035.003-.052.004-.035.012-.069.024-.1.025-.067.066-.125.118-.172.039-.034.085-.062.133-.08.033-.013.067-.02.102-.025.017-.003.035-.003.052-.004h3.905V8.811h-3.905c-.017 0-.035 0-.052-.003-.035-.005-.07-.013-.102-.025-.065-.025-.124-.065-.17-.118-.035-.039-.062-.085-.081-.133-.012-.033-.02-.067-.024-.102-.002-.017-.002-.034-.003-.052v-3.3c0-.017 0-.034.003-.052.004-.035.012-.069.024-.1.025-.066.066-.125.118-.17.039-.036.085-.064.133-.082.033-.013.067-.02.102-.025.017-.002.035-.002.052-.003h4.529V2.211h-7.396v15.634zm-.433.866c-.017 0-.035 0-.052-.004-.035-.004-.07-.012-.101-.025-.065-.025-.124-.065-.171-.117-.035-.039-.062-.085-.08-.134-.013-.032-.021-.066-.025-.1l-.004-.053V1.78l.004-.053c.004-.034.012-.068.025-.1.018-.05.045-.095.08-.135.047-.052.106-.092.17-.117.033-.012.067-.02.102-.025.017-.002.035-.002.052-.003h8.262c.017.001.034.001.05.003.036.004.07.013.103.025.049.018.094.046.133.08.052.047.093.106.118.171.012.033.02.067.025.101.002.017.002.035.003.053v3.3l-.003.052c-.004.034-.013.068-.025.101-.02.05-.046.094-.081.134-.046.052-.105.092-.17.117-.033.012-.067.021-.102.025l-.051.003h-4.53v2.435h3.907c.017.001.034.001.05.003.036.004.07.012.103.024.065.025.124.066.17.118.035.04.062.085.08.134.013.033.022.066.026.101l.003.052v3.3c-.001.018-.001.035-.003.052-.004.035-.013.07-.025.101-.025.066-.066.125-.118.171-.04.035-.084.062-.133.081-.033.012-.067.02-.102.025l-.051.003h-3.906v2.434h4.805l.053.004c.034.004.068.012.1.025.066.024.125.065.17.117.036.04.063.085.082.133.012.033.02.067.025.102.002.017.002.035.003.052v3.3c-.001.017-.001.035-.003.052-.004.035-.013.07-.025.101-.02.05-.046.095-.081.134-.046.052-.105.092-.17.117-.033.013-.067.021-.101.025-.018.003-.035.003-.053.004h-8.538zM106.462 17.845h7.673V15.41h-4.806l-.052-.003c-.045-.008-.058-.008-.102-.024-.048-.019-.094-.046-.133-.08-.052-.047-.093-.106-.118-.17-.012-.034-.02-.068-.024-.103-.002-.017-.002-.035-.003-.052v-3.3c.001-.017.001-.035.003-.052.004-.035.012-.069.024-.1.025-.067.066-.125.118-.172.039-.034.085-.062.133-.08.033-.013.067-.02.102-.025.017-.003.035-.003.052-.004h3.905V8.811h-3.905c-.017 0-.035 0-.052-.003-.035-.005-.069-.013-.102-.025-.065-.025-.124-.065-.17-.118-.035-.039-.062-.085-.081-.133-.012-.033-.02-.067-.024-.102-.002-.017-.002-.034-.003-.052v-3.3l.003-.052c.004-.035.012-.069.024-.1.025-.066.066-.125.118-.17.039-.036.085-.064.133-.082.033-.013.067-.02.102-.025.017-.002.035-.002.052-.003h4.529V2.211h-7.396v15.634zm-.433.866c-.017 0-.035 0-.052-.004-.035-.004-.069-.012-.101-.025-.065-.025-.124-.065-.171-.117-.035-.039-.062-.085-.08-.134-.013-.032-.021-.066-.025-.1l-.004-.053V1.78l.004-.053c.004-.034.012-.068.025-.1.018-.05.045-.095.08-.135.047-.052.106-.092.171-.117.032-.012.066-.02.101-.025.017-.002.035-.002.052-.003h8.262l.051.003c.035.004.069.013.102.025.065.025.124.065.17.117.035.04.062.085.081.134.013.033.021.067.025.101.002.017.002.035.003.053v3.3l-.003.052c-.004.034-.012.068-.025.101-.019.05-.046.094-.081.134-.046.052-.105.092-.17.117-.033.012-.067.021-.102.025l-.051.003h-4.529v2.435h3.906l.051.003c.035.004.069.012.102.024.065.025.124.066.17.118.035.04.062.085.081.134.012.033.021.066.025.101l.003.052v3.3c-.001.018-.001.035-.003.052-.004.035-.013.07-.025.101-.025.066-.066.125-.118.171-.039.035-.084.062-.133.081-.033.012-.067.02-.102.025l-.051.003h-3.906v2.434h4.805l.053.004c.034.004.068.012.101.025.049.018.094.045.133.08.052.046.093.105.118.17.012.033.021.067.025.102.002.017.002.035.003.052v3.3c-.001.017-.001.035-.003.052-.004.035-.013.07-.025.101-.025.065-.066.124-.118.171-.039.035-.084.062-.133.08-.033.013-.067.021-.101.025-.018.003-.035.003-.053.004h-8.538z" transform="translate(-912 -7738) translate(-5 7558) translate(226 140) translate(628) translate(63 40) translate(7 21)"/>
                                <g transform="translate(-912 -7738) translate(-5 7558) translate(226 140) translate(628) translate(63 40) translate(7 21) translate(7 .057)">
                                    <mask id="idyqhdzz0d" fill="#fff">
                                        <use xlink:href="#0lj3v4qz5c"/>
                                    </mask>
                                    <path fill="#C63F41" d="M4.132 5.3l-.003.002-3.003-3.494H.88v15.98h2.434V9.244c0-.017 0-.034.003-.051.006-.052.022-.103.046-.149.025-.046.057-.088.096-.123.026-.023.055-.043.086-.059.06-.033.13-.05.2-.05.053 0 .104.009.154.027.048.019.094.046.133.08.013.011.025.025.037.037l8.225 9.178h.25V2.177h-2.457v8.891c-.001.017-.001.035-.003.052-.007.052-.022.103-.047.15-.025.046-.058.088-.097.123-.053.046-.117.079-.185.095-.052.013-.105.016-.157.009-.035-.005-.07-.014-.102-.027-.05-.019-.094-.047-.133-.083-.013-.011-.024-.025-.037-.037L6.385 7.927l.008-.007L4.132 5.3zm2.97 2.133l2.12 2.468V1.745l.004-.052c.008-.046.008-.058.025-.101.018-.049.046-.095.08-.134.047-.053.106-.093.17-.118.033-.012.068-.02.102-.025.017-.002.035-.002.052-.003h3.323c.018.001.035.001.052.003.035.005.069.013.102.025.049.019.094.046.133.081.053.046.093.105.118.171.012.032.02.066.025.101.002.017.002.034.003.052v16.822c-.001.018-.001.035-.003.052-.005.035-.013.069-.025.102-.025.065-.065.124-.118.17-.04.035-.084.062-.133.081-.033.012-.067.02-.102.025-.017.002-.034.002-.052.003H12.1l-.052-.003c-.068-.009-.135-.033-.192-.072-.038-.027-.045-.037-.078-.069l-7.6-8.48v7.845l-.002.052c-.003.018-.005.035-.01.052-.008.034-.02.066-.036.097-.033.062-.08.116-.137.155-.044.03-.092.052-.143.064-.045.012-.057.01-.103.013h-3.3c-.018-.001-.035-.001-.052-.003-.035-.004-.07-.013-.101-.025-.066-.025-.125-.066-.171-.118-.034-.039-.062-.084-.081-.133-.012-.033-.02-.067-.025-.102-.002-.017-.002-.035-.003-.052V1.376c0-.018 0-.035.003-.053.005-.034.013-.068.025-.101.019-.049.047-.094.08-.133C.17 1.036.23.996.296.971.327.959.36.95.395.946L.449.943h.877l.053.003c.07.009.138.035.196.076.039.028.046.038.079.071l3.012 3.505.002-.002 2.443 2.83-.008.007z" mask="url(#idyqhdzz0d)"/>
                                </g>
                                <path fill="#C63F41" d="M3.733 6.803c.452 0 .818.366.818.817 0 .452-.366.818-.818.818-.452 0-.818-.366-.818-.818 0-.45.366-.817.818-.817M3.713 10.282c.452 0 .819.366.819.817 0 .452-.367.818-.819.818-.452 0-.817-.366-.817-.818 0-.45.365-.817.817-.817" transform="translate(-912 -7738) translate(-5 7558) translate(226 140) translate(628) translate(63 40) translate(7 21)"/>
                                <path fill="#C63F41" fill-opacity=".4" d="M3.733 6.333c.711 0 1.289.577 1.289 1.288 0 .712-.578 1.289-1.289 1.289s-1.289-.577-1.289-1.29c0-.71.578-1.287 1.289-1.287" transform="translate(-912 -7738) translate(-5 7558) translate(226 140) translate(628) translate(63 40) translate(7 21)"/>
                                <path fill="#C63F41" fill-opacity=".25" d="M3.733 5.746c1.047 0 1.896.839 1.896 1.875S4.78 9.496 3.733 9.496s-1.896-.84-1.896-1.875c0-1.036.849-1.875 1.896-1.875" transform="translate(-912 -7738) translate(-5 7558) translate(226 140) translate(628) translate(63 40) translate(7 21)"/>
                            </g>
                        </g>
                    </g>
                </g>
            </g>
        </g>
    </g>
</svg>
