<svg xmlns="http://www.w3.org/2000/svg" width="129" height="60" viewBox="0 0 129 60">
    <g fill="none" fill-rule="evenodd">
        <g fill-rule="nonzero">
            <g>
                <g>
                    <g>
                        <g>
                            <g>
                                <path fill="#000" d="M8.213 23.173c4.728 0 7.563-2.31 7.563-6.029 0-2.751-2.019-4.645-5.918-5.696l-1.894-.512c-2.807-.746-3.678-1.7-3.678-3.027 0-1.715 1.576-2.627 3.623-2.627 2.24 0 3.553 1.133 3.65 2.972h3.677c-.041-3.691-3.055-6.083-7.327-6.083-4.08 0-7.3 2.212-7.3 5.89 0 2.75 1.714 4.77 5.143 5.668l1.908.498c3.235.843 4.424 1.784 4.424 3.18 0 1.797-1.728 2.655-3.871 2.655-2.53 0-4.397-1.314-4.535-3.526H0c.152 4.12 3.401 6.637 8.213 6.637z" transform="translate(-919 -7896) translate(0 7756) translate(221 100) translate(628) translate(44 40) translate(25 18)"/>
                                <path fill="#FF620F" d="M76.08 16.619L79.425.857 75.333 0 71.987 15.748zM75.706 24.721c1.507 0 2.752-1.147 2.752-2.696 0-1.549-1.231-2.71-2.752-2.71-1.52 0-2.737 1.162-2.737 2.71 0 1.549 1.23 2.696 2.737 2.696z" transform="translate(-919 -7896) translate(0 7756) translate(221 100) translate(628) translate(44 40) translate(25 18)"/>
                                <path fill="#000" d="M65.032 12.485v-.47c2.392-.567 3.54-2.17 3.54-4.3 0-2.903-2.06-5.157-7.19-5.157h-7.424v20.227h8.13c5.447 0 7.424-2.474 7.424-5.488 0-2.6-1.507-4.259-4.48-4.812zm-7.521-6.816h4.106c2.185 0 3.374.83 3.374 2.571 0 1.742-1.19 2.655-3.374 2.655h-4.106V5.669zm4.729 14.006H57.51v-5.697h4.729c2.46 0 3.691 1.079 3.691 2.82 0 1.743-1.23 2.877-3.691 2.877zM28.944 12.485v-.47c2.391-.567 3.539-2.17 3.539-4.3 0-2.903-2.06-5.157-7.19-5.157H17.87v20.227h8.13c5.447 0 7.424-2.474 7.424-5.488 0-2.6-1.507-4.259-4.48-4.812zm-7.439-6.816h4.106c2.185 0 3.374.83 3.374 2.571 0 1.742-1.19 2.655-3.374 2.655h-4.106V5.669zm4.729 14.006h-4.729v-5.697h4.729c2.46 0 3.691 1.079 3.691 2.82 0 1.743-1.23 2.877-3.691 2.877zM48.756 22.785h3.982L45.424 2.558h-4.562l-7.37 20.227h3.789l1.818-5.17h7.862l1.795 5.17zm-8.621-8.115l2.62-7.453h.595l2.588 7.453h-5.803z" transform="translate(-919 -7896) translate(0 7756) translate(221 100) translate(628) translate(44 40) translate(25 18)"/>
                            </g>
                        </g>
                    </g>
                </g>
            </g>
        </g>
    </g>
</svg>
