<svg xmlns="http://www.w3.org/2000/svg" xmlns:xlink="http://www.w3.org/1999/xlink" width="129" height="60" viewBox="0 0 129 60">
    <defs>
        <path id="094betfg9a" d="M0 0L60.288 0 60.288 22.163 0 22.163z"/>
    </defs>
    <g fill="none" fill-rule="evenodd">
        <g>
            <g>
                <g>
                    <g>
                        <g>
                            <g>
                                <g>
                                    <g transform="translate(-920 -7949) translate(1 7446) translate(221 100) translate(628) translate(0 363) translate(57 40) translate(13 21)">
                                        <mask id="gzynspy13b" fill="#fff">
                                            <use xlink:href="#094betfg9a"/>
                                        </mask>
                                        <path fill="#000" d="M5.481 7.015c.791 0 1.5.137 2.123.41.624.276 1.154.656 1.587 1.143.435.488.766 1.059.994 1.714.228.655.343 1.356.343 2.102v1.28H3.082c.063.528.18.962.356 1.302.176.34.383.608.62.804.236.197.497.332.78.407.283.076.562.114.837.114.688 0 1.202-.126 1.538-.377.336-.252.588-.575.757-.971l2.466 1.005c-.35.92-.933 1.626-1.747 2.118-.815.492-1.854.738-3.118.738-.866 0-1.647-.137-2.34-.412-.692-.273-1.279-.673-1.758-1.198-.48-.526-.845-1.158-1.096-1.897-.25-.74-.377-1.58-.377-2.524 0-.808.117-1.561.354-2.262C.59 9.81.94 9.2 1.405 8.68c.464-.516 1.034-.923 1.712-1.221.677-.297 1.465-.445 2.364-.445zm.08 2.444c-.688 0-1.235.195-1.64.583-.406.389-.67.925-.793 1.61h4.637c-.032-.64-.246-1.164-.643-1.576-.398-.411-.919-.617-1.56-.617zm16.613 9.162h-3.083v-6.968c0-.716-.133-1.245-.4-1.588-.266-.343-.689-.514-1.267-.514-.44 0-.826.068-1.153.205-.328.137-.644.336-.948.594v8.27H12.24V7.199h2.97v.845c1.004-.685 2.008-1.028 3.014-1.028.502 0 1 .106 1.495.32.494.213.917.593 1.267 1.142.427-.441.948-.796 1.564-1.062.618-.267 1.337-.4 2.158-.4.503 0 1.01.065 1.52.194.51.13.97.362 1.381.697.411.335.75.792 1.016 1.37.267.58.4 1.326.4 2.239v7.106h-3.083v-6.968c0-.7-.126-1.222-.378-1.565-.25-.343-.665-.514-1.244-.514-.67 0-1.194.202-1.574.605-.382.404-.572.919-.572 1.543v6.899zm8.792-11.423h2.9v.822c.456-.335.911-.574 1.366-.72.455-.144.995-.217 1.617-.217.682 0 1.31.126 1.88.377.567.252 1.053.617 1.456 1.097.401.479.713 1.066.933 1.759.22.694.33 1.482.33 2.365 0 .838-.126 1.619-.376 2.342-.25.724-.614 1.356-1.093 1.896-.478.54-1.069.964-1.775 1.268-.706.305-1.515.457-2.425.457-.288 0-.577-.008-.865-.023-.288-.015-.577-.038-.866-.068v3.61h-3.082V7.198zm5.093 2.444c-.792 0-1.462.206-2.01.617v5.895c.275.03.544.046.81.046h.925c.853 0 1.496-.324 1.93-.972.434-.647.651-1.542.651-2.684 0-1.006-.187-1.74-.559-2.205-.373-.464-.956-.697-1.747-.697zm7.924.069h-1.598V7.198h4.681V18.62h-3.083V9.71zm3.083-7.745c0 .532-.034 1.005-.103 1.416-.068.41-.182.804-.343 1.176-.159.374-.368.735-.628 1.086-.259.35-.57.716-.936 1.097l-1.05-1.052c.35-.365.62-.711.81-1.04.19-.327.323-.642.4-.947h-1.85V0h3.7v1.966zm2.512.205h3.082v9.39h1.21l2.901-4.363h3.311l-3.585 5.209 3.791 6.214h-3.426l-2.923-4.592H52.66v4.592h-3.082V2.17z" mask="url(#gzynspy13b)"/>
                                    </g>
                                    <path fill="#00C5CF" d="M88.304 17.022c-.487.35-.971.602-1.45.753-.48.153-1.008.229-1.587.229-.731 0-1.389-.128-1.976-.389-.585-.258-1.077-.624-1.472-1.096-.396-.472-.701-1.032-.914-1.679-.213-.647-.32-1.36-.32-2.137 0-.715.127-1.396.377-2.044.252-.648.628-1.216 1.131-1.702.502-.488 1.126-.873 1.872-1.154.746-.282 1.614-.423 2.604-.423h4.864v1.508h-1.142v8.696c0 .81-.122 1.518-.365 2.129-.244.61-.591 1.121-1.039 1.534-.45.411-.986.723-1.61.938-.625.212-1.325.32-2.101.32-.869 0-1.664-.134-2.387-.4-.722-.267-1.358-.644-1.907-1.131l1.028-1.279c.472.395.951.692 1.438.891.488.198 1.059.296 1.713.296 1.005 0 1.797-.27 2.375-.81.579-.541.868-1.368.868-2.479v-.571zm-2.672-.571c1.051 0 1.942-.336 2.672-1.009V8.888h-1.735c-.67 0-1.253.095-1.747.287-.496.191-.906.453-1.233.789-.327.337-.576.738-.743 1.204-.167.466-.251.982-.251 1.546 0 1.239.274 2.17.822 2.797.548.627 1.286.94 2.215.94zM102.988 13c0 .854-.107 1.634-.321 2.342-.213.709-.535 1.322-.969 1.839-.435.519-.983.919-1.644 1.2-.663.281-1.437.423-2.318.423-.884 0-1.652-.142-2.307-.423s-1.199-.681-1.633-1.2c-.434-.517-.757-1.13-.97-1.839-.213-.708-.32-1.488-.32-2.342 0-.853.107-1.633.32-2.341.213-.709.536-1.322.97-1.84.434-.517.978-.917 1.633-1.199.655-.282 1.423-.423 2.307-.423.881 0 1.655.141 2.318.423.661.282 1.209.682 1.644 1.199.434.518.756 1.131.969 1.84.214.708.321 1.488.321 2.341zm-2.01-.022c0-2.772-1.081-4.159-3.242-4.159-2.147 0-3.22 1.387-3.22 4.159 0 1.385.269 2.433.81 3.142.54.707 1.343 1.061 2.41 1.061 1.08 0 1.891-.354 2.432-1.061.54-.709.81-1.757.81-3.142zM63.987 7.197V18.62h5.71c-.236.94-.646 1.916-1.234 2.927-.587 1.012-1.422 2.08-2.5 3.208L69.202 28c1.13-1.175 2.091-2.303 2.89-3.385.8-1.081 1.445-2.197 1.938-3.35.494-1.151.847-2.362 1.058-3.631.212-1.27.318-2.727.318-4.373V7.197h-11.42zm2.885 9.432V9.032l6.642 3.798-6.642 3.799z" transform="translate(-920 -7949) translate(1 7446) translate(221 100) translate(628) translate(0 363) translate(57 40) translate(13 21)"/>
                                </g>
                            </g>
                        </g>
                    </g>
                </g>
            </g>
        </g>
    </g>
</svg>
