<svg xmlns="http://www.w3.org/2000/svg" width="56" height="36" viewBox="0 0 56 36">
    <g fill="none" fill-rule="evenodd">
        <g stroke-width="2">
            <g>
                <g>
                    <g>
                        <g>
                            <path stroke="#FFF" d="M5 34H55V35H5zM5 6.556L5 0 55 0 55 30 5 30 5 14.218" transform="translate(-1164 -6985) translate(-5 6495) translate(1144 430) translate(25 60) translate(0 1)"/>
                            <path stroke="#FDAD31" d="M5 6c1.105 0 2.105.448 2.828 1.172C8.552 7.895 9 8.895 9 10c0 1.105-.448 2.105-1.172 2.828C7.105 13.552 6.105 14 5 14c-1.105 0-2.105-.448-2.828-1.172C1.448 12.105 1 11.105 1 10c0-1.105.448-2.105 1.172-2.828C2.895 6.448 3.895 6 5 6z" transform="translate(-1164 -6985) translate(-5 6495) translate(1144 430) translate(25 60) translate(0 1)"/>
                            <path stroke="#FFF" d="M24 22L42 22M24 16L42 16M17 10L35 10" transform="translate(-1164 -6985) translate(-5 6495) translate(1144 430) translate(25 60) translate(0 1)"/>
                        </g>
                    </g>
                </g>
            </g>
        </g>
    </g>
</svg>
