<svg xmlns="http://www.w3.org/2000/svg" width="129" height="60" viewBox="0 0 129 60">
    <g fill="none" fill-rule="evenodd">
        <g fill-rule="nonzero">
            <g>
                <g>
                    <g>
                        <g>
                            <path fill="#654079" d="M0 0.035H77.4V24.525H0z" transform="translate(-1351 -3623) translate(184 3503) translate(1141 120) translate(.989) translate(25.8 21.516)"/>
                            <path fill="#FFF" d="M25.649 6.132h-3.037V18.42h12.436v-2.696h-9.399V6.132zM18.51 6.103H6.298V18.44h3.075v-2.55h1c2.491 0 4.984-.02 7.477.012.616.01 1.04-.197 1.438-.639 2.328-2.593 1.962-6.998-.778-9.16zm-.998 6.958H9.435V8.966h8.043c.727 1.332.7 2.685.034 4.095zM43.574 6.102L35.727 18.45h3.46l1.362-1.973h9.585l1.204 1.944h3.645l-7.788-12.32h-3.621zm-1.383 7.492l3.2-5.13c1.062 1.748 2.06 3.392 3.113 5.13h-6.313zM61.778 13.265l-5.66-7.155h-4.06c2.656 3.302 5.185 6.45 7.738 9.625l-2.01 2.709h3.712l9.704-12.342h-3.997c-1.81 2.39-3.609 4.761-5.427 7.163z" transform="translate(-1351 -3623) translate(184 3503) translate(1141 120) translate(.989) translate(25.8 21.516)"/>
                            <path fill="#654079" d="M.246 24.646h76.908v-.122H.246v.122zM77.154 0H.246v.121h76.908V0z" transform="translate(-1351 -3623) translate(184 3503) translate(1141 120) translate(.989) translate(25.8 21.516)"/>
                        </g>
                    </g>
                </g>
            </g>
        </g>
    </g>
</svg>
