<svg xmlns="http://www.w3.org/2000/svg" width="129" height="60" viewBox="0 0 129 60">
    <g fill="none" fill-rule="evenodd">
        <g>
            <g>
                <g>
                    <g>
                        <g>
                            <path fill="#F03D4A" d="M22.568 1.064C21.536.377 20.331.006 19 .006c-1.902 0-3.967.807-5.986 2.32C11.374 1.073 9.717.303 8.124.052l-.1.093c-.417.353-1.458 1.03-2.047.826-.598-.213-1.875.78-2.083.789-.073 0 0-.752.407-.808-.135.019.87-.528 1.25-.835-.652.14-1.268.38-1.83.715.091.046.164.083-.072.288-.199.148-.335.983-.525 1.002-.552.324-.67-.436-1.213.621-.046.102-.236.177-.435.25C.869 3.923.426 5.036.19 6.298c-.399 2.107-.181 4.473.76 6.82l.48.075c.2.092.517.77.68.965.416.482.95.612 1.476.983.317.214.96.845 1.014 1.207.027-.26 1.667.38 1.984.52.733.352 1.412.871.905 1.8-.172.306.978 1.15.788 1.586l-.371.306c-.163.26-.073.538.1.761 1.367.9 2.916 1.726 4.673 2.44.108.047.226.075.335.075.108 0 .226-.028.335-.074C21.527 20.337 25.33 14.713 25.9 9.684c-.48.028-1.06.093-1.105-.185-.036-.297-.398.046-.625-.195-.109-.112-.326-.733-.516-.724-.371.018.2 1.253.398 1.447.272-.102 1.087-.231 1.096.297.027 1.003-1.367 1.643-2.092 1.986-1.078.52-.534-.714-.969-1.345-.235-.334-.081-.845-.335-1.114-.109-.12-.516-1.048-.48-1.15l-.072.185c-.127.047-.236-.399-.236-.473-.1.334.263 1.03.362 1.345.163.548.127 1.262.38 1.754.128.26.635 1.318.834 1.364l1.141-.176c.652.39-2.735 3.08-3.088 3.442-.29.297-.217 1.281-.371 1.699-.182.473-.598.51-1.033.668-.462.167-.543.742-.924.844-.67.186-1.421 1.216-2.227.956-.245-.074-1.377.018-1.386-.418-.018-.325-.09-.584-.154-.918-.063-.316.154-.566.054-.873-.072-.204-.353-.723-.335-.937.055-.176.344-.659.553-.696.29-.055.199-.5.235-.733.063-.417-.081-.816-.299-1.141-.326-.464-.027-.668.218-1.114.072-.232.018-.575-.308-.575-.67-.01-.281-.631-.743-.742-.326-.084-.661.046-.987.046-.417 0-.743-.334-1.105-.501-1.485-.677-1.449-2.645-.652-3.823.1-.204.054-.65.181-.798.29-.334.77-.668 1.168-.872.227-.112.435 0 .68-.065.37-.112.507-.53.887-.687.553-.223 1.15-.028 1.748.074.317.047 1.549.158 1.666.446-.018.046.01.742-.217.64.47.167.906 1.197 1.413 1.15.262-.027.39-.779.76-.278.227.297 1.486.798 1.82.65.21-.084.571-.965.4-1.123.09.167-.707-.074-.77-.13-.118-.083-.3.056-.48-.111.108.093-.59-.622-.019-.826-.235.083-.362-.167-.624-.065-.182.074.009.223-.236.26-.38.074-.398-.77-.498-.891-.109-.13-.878-1.15-.752-.603l.607 1.16c-.054.009-.127-.4-.208-.14.1-.13-.172.66-.227.353-.036-.12.145-.12.091-.297.027-.093-.19-.269-.217-.352-.091-.214-.335-.715-.508-.863-.045-.047-.869-.167-.941-.167-.11.092-.209.185-.3.287-.18.019-.362.047-.534.102l-.29.344c-.099.037-.941.065-.941.074.054-.074-.48-.362-.39-.52.09-.176.462-.696.471-.918.018-.242 1.087.686 1.34.13.11-.242.218-.53-.171-.696.072.027.85-.047 1.005-.14.217-.13.67-.324.942-.24.308.092.38-.39.588-.576.127.102-.199.399-.072.603.027-.12.47.213.525.204.136-.028.76.204.752-.13-.018-.343.127-.204.28-.222-.018 0 .426-.427.553-.38-.082-.14-.471-.01-.598-.066-.326-.13-.018-.64.154-.77.136-.093-.18-.371-.253-.12-.118.361-.553.593-.625 1.113-.1.78-.752-.436-.852-.408-.362.092-.48-.418-.244-.622.235-.214.625-.084.87-.316.18-.157.38-.352.597-.445.743-.325.779.13 1.35.371.561.232.153.195.009.4-.145.185.226.389.416.25.109-.075.362-.288.49-.455.108-.14.497-.065.642-.14zm-6.683.89l.108-.074.082.01c.063-.028.136-.102.199-.065.045.028.127.157.072.204-.054.046-.054-.074-.117.083-.082.186-.263.121-.417.14-.109.009-.181-.075-.063-.149l.136-.083.009-.065h-.01zm.407.427c.063-.037.145.038.19-.055.046-.084.145-.167.1-.371-.01-.056.154-.056.109-.14h-.136s.39-.686.516-.278l-.127.084c.1.194.027.575.01.835.108.12.325.195.035.25.136.019-.77.14-.833-.046-.054-.12.39-.047.39-.093 0-.01-.335-.13-.254-.186z" transform="translate(-975 -8387) translate(0 8120) translate(967 217) translate(0 50) translate(8 19)"/>
                            <path fill="#434242" fill-rule="nonzero" d="M45.053 15.04c1.357 0 2.468.46 3.342 1.381.756.81 1.174 1.87 1.174 3.012 0 1.308-.555 2.532-1.53 3.361-.819.69-1.82 1.04-3.023 1.04-2.567 0-4.48-1.905-4.48-4.475 0-1.243.565-2.45 1.53-3.278.774-.673 1.849-1.04 2.987-1.04zm54.69 0c1.357 0 2.468.46 3.342 1.381.756.81 1.174 1.87 1.174 3.012 0 1.308-.555 2.532-1.53 3.361-.819.69-1.82 1.04-3.022 1.04-2.568 0-4.48-1.905-4.48-4.475 0-1.243.564-2.45 1.53-3.278.773-.673 1.848-1.04 2.986-1.04zm-46.713.249v4.466c0 .94.018 1.124.227 1.474.237.396.674.626 1.193.626.537 0 1.011-.258 1.23-.663.182-.323.218-.571.218-1.437V15.29h2.122v4.76c0 1.216-.21 1.87-.792 2.533-.674.774-1.63 1.17-2.814 1.17-1.248 0-2.35-.47-2.914-1.243-.428-.571-.592-1.244-.592-2.46v-4.76h2.122zm54.69 0l3.897 5.046V15.29h2.122v8.251h-2.122l-3.897-5.046v5.046h-2.122V15.29h2.122zm-68.049 0v1.814h-2.558v1.372h2.322V20.3h-2.322v3.241H35V15.29h4.671zm22.173 0l3.907 5.046V15.29h2.112v8.251h-2.112l-3.907-5.046v5.046h-2.112V15.29h2.112zm10.864 0c2.158 0 4.015 1.906 4.015 4.116 0 2.229-1.857 4.135-4.015 4.135h-3.133V15.29zm9.716 0l3.068 8.251h-2.267l-.52-1.436h-2.922l-.565 1.436h-2.24l3.133-8.251h2.313zm8.386 0v1.814h-1.757v6.437H86.93v-6.437H85.21v-1.814h5.6zm3.069 0v8.251h-2.113V15.29h2.113zM45.053 17.12c-1.257 0-2.304 1.032-2.304 2.284 0 1.308 1.02 2.349 2.304 2.349 1.275 0 2.295-1.041 2.295-2.321 0-1.28-1.02-2.312-2.295-2.312zm54.69 0c-1.257 0-2.304 1.032-2.304 2.284 0 1.308 1.02 2.349 2.304 2.349 1.275 0 2.295-1.041 2.295-2.321 0-1.28-1.02-2.312-2.295-2.312zm-27.564-.018h-.482v4.614h.482c.802 0 1.312-.212 1.74-.691.382-.424.592-1.004.592-1.62 0-.609-.21-1.189-.592-1.612-.428-.48-.938-.691-1.74-.691zm9.079.727l-.892 2.643h1.766l-.874-2.643zM37.113 3.114v3.187h3.068V3.114h2.122v8.252H40.18V7.967h-3.068v3.399H35V3.114h2.113zm11.537 0v1.814h-2.523v1.373h2.386v1.823h-2.386v1.418h2.523v1.824h-4.635V3.114h4.635zm6.21 0l3.069 8.252H55.67l-.528-1.437H52.22l-.564 1.437h-2.231l3.123-8.252h2.313zm7.303 0c.92 0 1.53.221 2.012.728.437.47.692 1.132.692 1.814 0 .727-.282 1.427-.746 1.832-.283.25-.547.369-1.038.498l2.567 3.38h-2.64l-2.022-3.168v3.168h-2.112V3.114zm9.215 0v1.814h-1.766v6.438h-2.113V4.928h-1.721V3.114h5.6zm2.96 0l1.538 2.247 1.485-2.247h2.568l-3.06 4.292v3.96h-2.113v-3.96l-2.95-4.292h2.531zM53.703 5.656L52.81 8.29h1.758l-.865-2.634zm7.676-.903h-.392v2.054h.392c.41 0 .71-.074.91-.221.228-.157.401-.507.401-.801 0-.304-.173-.636-.4-.81-.2-.13-.501-.222-.911-.222z" transform="translate(-975 -8387) translate(0 8120) translate(967 217) translate(0 50) translate(8 19)"/>
                        </g>
                    </g>
                </g>
            </g>
        </g>
    </g>
</svg>
