<svg xmlns="http://www.w3.org/2000/svg" width="130" height="60" viewBox="0 0 130 60">
    <defs>
        <linearGradient id="3m6xlussia" x1="50%" x2="50%" y1="102.499%" y2="-4.849%">
            <stop offset="0%" stop-color="#007348"/>
            <stop offset="60%" stop-color="#8DC9AB"/>
            <stop offset="100%" stop-color="#00925B"/>
        </linearGradient>
        <linearGradient id="jwmh86bqpb" x1="50.003%" x2="50.003%" y1="128.003%" y2="3.13%">
            <stop offset="0%" stop-color="#00925B"/>
            <stop offset="30%" stop-color="#8DC9AB"/>
            <stop offset="55%" stop-color="#00925B"/>
            <stop offset="83.5%" stop-color="#007348"/>
            <stop offset="100%" stop-color="#009C6D"/>
        </linearGradient>
        <linearGradient id="9o6xixy38c" x1="50.003%" x2="50.003%" y1="-126.358%" y2="101.867%">
            <stop offset="0%" stop-color="#00A678"/>
            <stop offset="100%" stop-color="#00925B"/>
        </linearGradient>
        <linearGradient id="19oe49h32d" x1="50.005%" x2="50.005%" y1="-5.097%" y2="270.432%">
            <stop offset="0%" stop-color="#00A678"/>
            <stop offset="100%" stop-color="#00925B"/>
        </linearGradient>
        <linearGradient id="hsve7yg7qe" x1="51.349%" x2="51.349%" y1="-107.079%" y2="174.779%">
            <stop offset="0%" stop-color="#00A678"/>
            <stop offset="100%" stop-color="#00925B"/>
        </linearGradient>
        <linearGradient id="2cnt1609bf" x1="49.989%" x2="49.989%" y1="4.68%" y2="540.684%">
            <stop offset="0%" stop-color="#00A678"/>
            <stop offset="100%" stop-color="#00925B"/>
        </linearGradient>
    </defs>
    <g fill="none" fill-rule="evenodd">
        <g fill-rule="nonzero">
            <g>
                <g>
                    <g>
                        <g>
                            <path fill="url(#3m6xlussia)" d="M0.035 0.312L25.642 0.312 25.642 25.41 0.035 25.41z" transform="translate(-445 -935) translate(0 80) translate(221 855) translate(224.667) matrix(1 0 0 -1 6.904 46.413)"/>
                            <path fill="url(#jwmh86bqpb)" d="M2.035 24.96c-.496 0-.821-.418-.898-1.003-.077-.586-.64-3.35-.64-10.464 0-7.118.64-11.775.64-11.775.059-.563.402-1.003.898-1.003H24.2c.495 0 .889.392.897 1.003.008.612-.246 5.455-.246 10.782 0 5.328.246 11.457.246 11.457.012.545-.402 1.003-.897 1.003H2.035z" transform="translate(-445 -935) translate(0 80) translate(221 855) translate(224.667) matrix(1 0 0 -1 6.904 46.413)"/>
                            <path fill="url(#9o6xixy38c)" d="M14.483 22.4c.7-.292 3.509-1.807 3.853-2.29-1.414-.186-4.187-.906-5.68-1.63l-.087-.176c1.647.362 3.949.55 5.536.636-.592-.866-.985-1.28-1.887-2.26l-.083-.19c1.718 1.029 2.201 1.102 3.785 2.027.598-.882.742-2.914.765-4.524.515 1.022 1.141 4.87.88 5.566 1.051.718 1.193 1.297 1.193 1.297-.963-.083-1.494-.1-2.013-.263-1.23.752-4.051 1.744-6.18 1.984l-.082-.177z" transform="translate(-445 -935) translate(0 80) translate(221 855) translate(224.667) matrix(1 0 0 -1 6.904 46.413)"/>
                            <path fill="url(#19oe49h32d)" d="M3.993 10.44c-.14-1.281-.195-2.198-.01-3.224-.522-.144-.978-.164-1.398-.342l-.08-.176c.668-.41 1.212-.725 1.967-1.076.404-.865.821-1.448 1.498-2.115l.082.179c-.121.491-.279.898-.22 1.435.84-.244 1.56-.373 2.517-.402l.08.178c-.84.326-1.681.582-2.361 1.222.213.593.458 1.058.858 1.646l.085.18c-.723-.108-1.378-.372-2.003-.493-.493.863-.684 2.043-.932 3.168l-.083-.18z" transform="translate(-445 -935) translate(0 80) translate(221 855) translate(224.667) matrix(1 0 0 -1 6.904 46.413)"/>
                            <path fill="url(#hsve7yg7qe)" d="M8.28 16.292s-.54.051-1.435.024c-.756-.034-1.884-.102-2.433-.262l-.08-.176c.872-.037 2.067-.27 2.524-.728.457-.457-1.324-1.19-2.636-3.795C2.908 8.751 6.6 13.58 7.63 14.131c1.03.552.54-1.79.914-2.687l.082.178c.104.577.362 2.14.8 3.096.439.956.156.094.916.168.763.067 1.84.108 3.887-.25l.084.175c-.468.274-2.33 1.07-4.302 1.335h.065c.27.793.608 1.392.608 1.392-.417-.059-1.607-.614-2.403-1.246" transform="translate(-445 -935) translate(0 80) translate(221 855) translate(224.667) matrix(1 0 0 -1 6.904 46.413)"/>
                            <path fill="url(#2cnt1609bf)" d="M13.263 5.303c-.03.345-.054.69-.07 1.035-.382-.523-.79-1.027-1.223-1.51-.482-.134-1.034-.129-1.537-.123-.189.003-.378.003-.567-.001l-.081-.179c.468-.24.927-.387 1.417-.488-.397-.36-.928-.635-1.302-.886l-.081-.175c.8.188 1.852.527 2.637.988.408-.018.79.01 1.07.064.28.056.083.182.083.178-.051.18-.212.29-.259.542.736.569 1.268 1.088 1.883 1.704l.086.179c-.608-.418-1.345-.992-2.056-1.328" transform="translate(-445 -935) translate(0 80) translate(221 855) translate(224.667) matrix(1 0 0 -1 6.904 46.413)"/>
                            <path fill="#FFF" d="M20.001 18.697c-1.58-.926-2.064-1.004-3.783-2.03 1.001 1.083 1.35 1.544 1.968 2.45-1.584-.085-3.886-.274-5.53-.638 1.43.762 4.268 1.609 5.765 1.81-.347.478-3.158 1.996-3.857 2.288 2.225-.172 4.945-1.001 6.264-1.805.518.162 1.058.17 2.023.255-.246-.42-.257-.664-1.204-1.29.263-.7-.364-4.546-.882-5.564-.019 1.609-.16 3.64-.764 4.524M8.43 4.897c-.908.336-1.562.727-2.282 1.398.215.593.462 1.056.863 1.65-.642-.091-1.282-.195-1.919-.313-.518.903-.753 1.775-1.016 2.988-.141-1.285-.195-2.204-.013-3.227-.584-.162-.997-.303-1.478-.519.673-.41 1.217-.726 1.969-1.076.403-.864.821-1.447 1.5-2.112-.16.567-.202 1.018-.137 1.612.84-.243 1.559-.372 2.513-.4m2.364 12.792c-.283-.366-.611-1.048-.7-1.365 2.341-.316 4.22-1.514 4.22-1.514-2.048.361-3.126.316-3.89.248-.758-.07-.915-.16-.915-.16-.552-1.206-.883-3.277-.883-3.277-.372.895-.91 2.687-.91 2.687-1.033-.55-3.409-2.777-3.409-2.777 1.307 2.607 2.632 3.794 2.632 3.794-.456.46-1.652.69-2.527.728.454.185 1.62.401 2.514.442.896.026 1.438-.025 1.438-.025.8.629 2.012 1.158 2.43 1.22m2.483-11.177c-.383-.523-.793-1.027-1.227-1.509-.71-.206-1.445-.308-2.184-.301.448-.229.926-.394 1.42-.49-.43-.395-.893-.75-1.385-1.063.8.189 1.852.527 2.636.989.41-.016.792.01 1.072.066-.073.237-.118.413-.177.72.737.57 1.273 1.085 1.887 1.705-.622-.442-1.282-.826-1.974-1.15-.031.344-.054.688-.068 1.033" transform="translate(-445 -935) translate(0 80) translate(221 855) translate(224.667) matrix(1 0 0 -1 6.904 46.413)"/>
                            <path fill="#000" d="M34.983 15.79c1.567-.013 2.141-.33 2.141-1.181 0-.235-.072-.443-.21-.602-.3-.36-.886-.546-1.631-.5h-.039l-.437-1.136h.437c.866.024 1.618-.247 2.004-.718.179-.214.268-.472.268-.735 0-.89-.786-1.349-2.336-1.349-.26 0-.685 0-.949.009-.037 1.092-.058 2.184-.064 3.277 0 .56.037 1.809.064 2.874.18.038.476.06.752.06m-2.903.819c.049-.844.097-2.976.097-3.753 0-.716 0-3.115-.126-4.149l-.008-.08h3.76c1.848 0 3.802.572 3.802 2.208 0 1.023-.744 1.78-2.135 2.194 1.032.276 1.72.978 1.72 1.783 0 1.335-1.54 1.837-2.986 1.872h-4.146l.022-.075zm16.201.075h-1.829l.074-2.032c.036-1.004.07-2.037.141-3.04-.118.315-.228.476-.785 1.283-.001.028-1.903 2.943-2.563 3.77l-.018.02h-2.123v-.076c.067-.844.094-2.976.094-3.753 0-.717 0-3.115-.101-4.149l-.018-.081h1.891v.081c-.107 1.967-.107 3.952-.107 5.877.066-.233.149-.434.447-.874.025-.052 3.283-4.78 3.441-5.05l.017-.034h1.515l-.002.081c-.116 1.034-.125 3.432-.125 4.149 0 .777.051 2.91.1 3.753l.025.075h-.074zm4.962-.972c1.054.02 1.79-.193 2.14-.635.16-.19.25-.44.25-.726 0-1.166-1.317-1.42-2.417-1.42l-.447.025-.184.018c-.008.27-.008.626-.008 1.024 0 .507 0 1.11.024 1.667.213.03.427.045.642.047m-2.774.897c.074-.844.103-2.976.103-3.753 0-.716 0-3.115-.111-4.149v-.081h2.25l-.01.081c-.077.744-.116 2.163-.124 3.247l.426-.02.317-.007c2.96 0 4.4.78 4.4 2.424 0 1.87-2.02 2.298-3.703 2.333H50.47v-.075zm14.318-.897c1.056.02 1.792-.193 2.146-.635.162-.19.244-.44.244-.726 0-1.166-1.315-1.42-2.401-1.42l-.446.025s-.118.01-.187.018c-.012.27-.012.628-.012 1.024 0 .512 0 1.11.02 1.667.142.02.385.047.636.047m-2.77.897c.07-.844.112-2.976.112-3.753 0-.716-.008-3.115-.124-4.149v-.081h2.252l-.014.081c-.071.744-.112 2.163-.112 3.247l.405-.02.326-.007c2.96 0 4.412.78 4.412 2.424 0 1.87-2.031 2.298-3.721 2.333h-3.536v-.075zm10.815-2.298c.179-.384.643-1.455 1.166-2.734-.08-.003-.182-.003-.182-.003l-.984-.014-1.19.017c.426 1.022.846 1.946 1.19 2.734m-.548 2.373h-.03l-.015-.04c-.419-1.147-3.119-7.019-3.546-7.918l-.036-.1h1.917l.016.044c.169.553.396 1.176.643 1.84.076 0 1.599.024 1.599.024l1.324-.01s.213-.013.277-.013c.34-.866.603-1.52.716-1.851l.022-.034h2.222l-3.589 8.058h-1.52zm6.011-.075c.065-.844.097-2.976.097-3.753 0-.717 0-3.115-.123-4.149v-.081h2.265l-.01.081c-.12 1.041-.128 3.432-.128 4.149 0 .56.018 1.808.073 2.817.172.012.434.039.61.039 1.049.02 1.79-.196 2.135-.635.166-.19.24-.445.24-.726 0-.931-.87-1.403-1.683-1.445-.272-.011-.475.024-.475.024l-.157.026.086-.147c.804-1.169 2.006-3.192 2.503-4.15l.014-.033h2.419l-.06.108c-.1.136-1.674 2.447-2.344 3.434l-.058.06c1.24.371 1.84 1.063 1.84 2.123 0 1.855-2.02 2.297-3.726 2.333H78.29l.006-.075zm11.067.075h-2.156l.012-.075c.056-.844.1-2.976.1-3.753 0-.713-.01-3.108-.112-4.149l-.009-.081h2.236l-.012.081c-.086 1.041-.113 3.436-.113 4.149 0 .777.055 2.91.113 3.753v.075h-.059zm5.01-.893c1.58-.013 2.154-.33 2.154-1.181 0-.235-.073-.443-.217-.602-.284-.36-.892-.546-1.633-.5h-.036l-.435-1.136h.435c.868.024 1.613-.247 2-.718.188-.214.278-.472.278-.735 0-.89-.79-1.349-2.348-1.349-.25 0-.672 0-.935.009-.065 1.187-.065 2.793-.065 3.277 0 .56.02 1.809.065 2.874.17.038.466.06.737.06m-2.902.819c.065-.844.104-2.976.104-3.753 0-.716 0-3.115-.113-4.149l-.018-.08h3.765c1.84 0 3.802.572 3.802 2.208 0 1.023-.746 1.78-2.149 2.194 1.034.276 1.73.978 1.73 1.783 0 1.335-1.542 1.837-2.975 1.872H91.46l.01-.075zm12.146-2.294c.18-.375.642-1.448 1.165-2.73-.079 0-.177-.008-.177-.008l-.988-.013s-1.031.022-1.184.022c.376.917.771 1.827 1.184 2.73m.93 2.368h-1.514l-.009-.036c-.452-1.22-3.304-7.401-3.544-7.914l-.042-.108h1.927l.012.048c.16.552.385 1.172.635 1.85l1.593.024 1.326-.021.282-.003c.348-.866.606-1.525.719-1.85l.02-.048h2.23l-3.586 8.058h-.049zm4.265-2.084c0-1.415 1.423-1.985 2.683-2.506.981-.39 2.007-.8 2.007-1.475 0-.204-.04-.375-.155-.496-.236-.277-.713-.394-1.471-.352-.75.03-1.597.266-2.55.704l-.373.179V8.897l.254-.065.148-.025c.47-.116 1.379-.33 2.28-.33 2.376 0 3.793.945 3.793 2.505 0 1.466-1.464 2.035-2.756 2.549-.952.385-1.938.766-1.938 1.394 0 .181 0 .71 1.23.71.907 0 1.788-.368 2.288-.558l.457-.19-.003.302v1.46l-.454.081c-.461.093-1.23.246-2.023.246-2.049 0-3.416-.964-3.416-2.377" transform="translate(-445 -935) translate(0 80) translate(221 855) translate(224.667) matrix(1 0 0 -1 6.904 46.413)"/>
                        </g>
                    </g>
                </g>
            </g>
        </g>
    </g>
</svg>
