<svg xmlns="http://www.w3.org/2000/svg" width="129" height="60" viewBox="0 0 129 60">
    <g fill="none" fill-rule="evenodd">
        <g fill="#000">
            <g>
                <g>
                    <g>
                        <g>
                            <g>
                                <path d="M47.785 1.699V0h-3.259v3.196h1.624c-.106.517-.438 1.087-1.064 1.717l.931.887c.795-.803 1.265-1.428 1.552-2.293.19-.57.217-1.282.216-1.808M10.837 11.769v1.292h-7.64c.259 2.146 1.528 2.677 2.656 2.677 1.411 0 2.022-.554 2.351-1.361l2.539 1.015c-.729 1.846-2.421 2.861-5.007 2.861C2.139 18.253 0 15.946 0 12.161c0-3.276 1.975-5.815 5.642-5.815 3.244 0 5.195 2.377 5.195 5.423zm-7.593-.738h4.749c-.047-1.27-.94-2.216-2.257-2.216-1.41 0-2.233.854-2.492 2.216zM22.826 18.069h-3.173V11.03c0-1.431-.518-2.123-1.716-2.123-.917 0-1.552.3-2.163.807v8.354H12.6V6.53h3.056v.854c1.035-.692 2.046-1.039 3.103-1.039 1.035 0 2.14.37 2.845 1.477.87-.877 2.163-1.477 3.832-1.477 2.045 0 4.443.877 4.443 4.546v7.177h-3.174V11.03c0-1.408-.494-2.1-1.669-2.1-1.363 0-2.21.923-2.21 2.169v6.969M31.877 6.53h2.985v.832c.94-.67 1.81-.946 3.08-.946 2.844 0 4.748 2.1 4.748 5.653 0 3.369-2.092 6.023-5.853 6.023-.588 0-1.199-.023-1.787-.093v3.646h-3.173V6.531zm3.173 3.093v5.953c.565.047 1.058.047 1.787.047 1.74 0 2.656-1.408 2.656-3.693 0-2.007-.752-2.93-2.374-2.93-.823 0-1.48.185-2.069.623zM45.073 9.069L43.428 9.069 43.428 6.531 48.247 6.531 48.247 18.069 45.073 18.069 45.073 9.069M50.711 1.454L53.884 1.454 53.884 10.939 55.13 10.939 58.116 6.531 61.524 6.531 57.834 11.792 61.736 18.069 58.21 18.069 55.201 13.431 53.884 13.431 53.884 18.069 50.711 18.069 50.711 1.454" transform="translate(-918 -7793) translate(-6 7613) translate(226 140) translate(628) translate(37 40) translate(33.632 21.545)"/>
                            </g>
                        </g>
                    </g>
                </g>
            </g>
        </g>
    </g>
</svg>
