<svg xmlns="http://www.w3.org/2000/svg" width="130" height="60" viewBox="0 0 130 60">
    <g fill="none" fill-rule="evenodd">
        <g>
            <g>
                <g>
                    <g>
                        <g>
                            <path fill="#C9252B" d="M73.643 5.614c-1.206 0-2.356.632-3.062 1.607-.712-1.05-1.672-1.607-2.884-1.607-.886 0-1.778.449-2.433 1.158v-.86h-2.42v10.493h2.42v-5.161c0-1.69.234-3.42 1.965-3.42 1.312 0 1.58 1.214 1.58 3.035v5.546h2.422v-5.161c0-1.776.236-3.42 1.944-3.42 1.122 0 1.602.8 1.602 2.673v5.908h2.42v-6.229c0-3.027-1.195-4.562-3.554-4.562M85.686 5.912v5.78c0 1.933-.613 2.757-2.05 2.757-1.436 0-2.05-.824-2.05-2.757v-5.78h-2.42v5.994c0 3.12 1.587 4.84 4.47 4.84s4.47-1.72 4.47-4.84V5.912h-2.42zM94.523 10.118l-.432-.193c-.936-.412-1.743-.767-1.743-1.37 0-.43.417-.73.792-.73.42 0 .843.294 1.051.732l.114.237 2.002-1.071-.107-.219c-.588-1.201-1.665-1.89-2.954-1.89-1.76 0-3.192 1.414-3.192 3.154 0 1.512.93 2.135 2.05 2.74l1.876 1.004c.387.26.57.452.57.866 0 .751-.65 1.156-1.26 1.156-.804 0-1.218-.458-1.592-1.148l-.111-.206-2.069.94.083.222c.544 1.438 2.026 2.404 3.688 2.404 2.065 0 3.683-1.564 3.683-3.56 0-1.72-1.239-2.516-2.449-3.068M98.769 5.912L98.769 16.405 101.19 16.405 101.19 5.912 100.938 5.912zM99.98 0c-.867 0-1.573.716-1.573 1.597 0 .856.706 1.554 1.573 1.554.866 0 1.571-.698 1.571-1.554 0-.88-.705-1.597-1.571-1.597M108.481 7.91c1.052 0 1.925.412 2.667 1.26l.441.502v-3.29l-.125-.073c-.757-.442-1.767-.695-2.77-.695-3.252 0-5.706 2.42-5.706 5.63 0 3.085 2.46 5.502 5.6 5.502 1.079 0 1.99-.22 2.869-.691l.132-.071v-3.266l-.44.492c-.734.822-1.589 1.239-2.54 1.239-1.884 0-3.2-1.353-3.2-3.291 0-1.76 1.407-3.248 3.072-3.248" transform="translate(-897 -7112) translate(1.094 7012) translate(472 90) translate(424 10) translate(8.6 22.937)"/>
                            <path fill="#231F20" d="M7.177 11.338c0 .51-.007 1.006-.02 1.487-.014.476-.065.896-.145 1.268-.09.373-.22.662-.4.883-.179.22-.441.33-.782.33-.331 0-.588-.125-.772-.36-.185-.24-.323-.55-.406-.943-.09-.393-.139-.832-.152-1.33-.01-.495-.02-.997-.02-1.493 0-.544.015-1.054.042-1.523.026-.468.089-.874.177-1.205.09-.337.23-.606.408-.797.178-.194.42-.282.723-.282.33 0 .586.107.763.336.179.22.309.515.396.889.084.371.14.792.16 1.266.021.48.028.973.028 1.474m-1.31-5.283c-.803 0-1.56.118-2.267.338-.708.228-1.33.565-1.864 1.006-.531.44-.958.99-1.268 1.654C.16 9.713 0 10.477 0 11.338c0 .897.148 1.675.428 2.335.288.662.687 1.212 1.205 1.639.514.426 1.127.743 1.835.944.715.198 1.495.298 2.34.298.818 0 1.59-.106 2.297-.312.716-.2 1.337-.524 1.857-.956.526-.443.937-.985 1.24-1.648.303-.662.453-1.44.453-2.319 0-.716-.122-1.393-.363-2.025-.25-.636-.614-1.192-1.096-1.675-.48-.487-1.085-.868-1.808-1.144-.73-.275-1.568-.42-2.52-.42M13.077 9.81v1.561c0 .876-.012 1.744-.039 2.607-.027.852-.083 1.706-.16 2.554l1.062-.118c.35-.042.7-.061 1.058-.061.386 0 .758.027 1.12.07.368.046.737.081 1.117.109-.036-.406-.07-.863-.09-1.35-.012-.49-.026-1.116-.026-1.88V11.51c0-.365.005-.73.02-1.087.013-.36.054-.676.129-.95.067-.276.187-.504.338-.676.151-.173.37-.262.662-.262.266 0 .467.068.61.191.15.125.256.298.332.507.075.21.116.446.13.693.014.255.02.512.02.773 0 .99-.013 1.967-.04 2.92-.028.951-.07 1.92-.117 2.913.337-.056.7-.097 1.087-.132.384-.028.743-.047 1.088-.047.355 0 .714.019 1.072.047.357.035.714.076 1.066.132-.02-.42-.04-.903-.048-1.447l-.008-1.55V11.93l.008-.85.015-.856v-.75c0-1.109-.292-1.957-.853-2.53-.573-.576-1.411-.865-2.518-.865-.361 0-.675.033-.95.101-.283.063-.545.166-.791.305-.255.145-.496.307-.73.508-.229.2-.463.427-.702.695.067-.515.11-1.032.122-1.547-.672.115-1.36.178-2.063.178-.345 0-.694-.015-1.058-.05-.366-.032-.709-.074-1.042-.128.064.618.113 1.212.14 1.761.027.558.039 1.192.039 1.909M24.927 6.221v6.281c0 .675-.02 1.35-.064 2.017l-.116 2.013 1.124-.118c.397-.042.768-.061 1.113-.061.371 0 .737.019 1.101.047.363.035.722.076 1.08.132-.062-.95-.118-1.79-.16-2.508-.039-.723-.052-1.398-.052-2.032l2.236 4.54c.748-.118 1.521-.179 2.298-.179.742 0 1.462.06 2.178.179v-.38c-.066-.061-.115-.13-.156-.206-.042-.069-.09-.145-.137-.228l-3.331-5.99c.551-.594 1.101-1.165 1.645-1.716l1.58-1.598V6.14c-.262.054-.5.096-.707.128-.214.035-.46.05-.736.05-.25 0-.489-.015-.718-.042-.218-.027-.466-.068-.728-.136-.211.356-.461.723-.742 1.1-.286.379-.578.751-.881 1.13-.31.38-.619.744-.938 1.11-.312.364-.61.707-.885 1.038v-.866c0-1.391.014-2.761.047-4.118.035-1.358.09-2.715.167-4.08-.264.057-.564.097-.91.132-.346.036-.769.048-1.266.048-.495 0-.913-.012-1.28-.048-.362-.035-.679-.075-.942-.131.056.8.099 1.591.132 2.384.028.79.048 1.584.048 2.382M38.344 20.278l-.716 1.454.66-.125c.223-.035.44-.054.668-.054.21 0 .411.02.612.054l.612.125c.345-1.089.769-2.287 1.273-3.603.5-1.316 1.025-2.653 1.576-4.01.545-1.356 1.095-2.666 1.63-3.922.542-1.263 1.027-2.379 1.454-3.341l.314-.716c-.255.054-.48.095-.695.128-.212.035-.427.05-.632.05-.214 0-.428-.015-.647-.05-.222-.033-.445-.074-.683-.128-.226.95-.486 1.88-.79 2.773l-.933 2.722c-.308-.918-.594-1.825-.876-2.742l-.826-2.753c-.397.082-.797.128-1.19.15-.4.013-.794.028-1.19.028-.434 0-.86-.015-1.265-.042-.414-.027-.813-.067-1.191-.136.303.804.64 1.603 1.018 2.395.38.798.735 1.598 1.078 2.404.56 1.282 1.022 2.39 1.39 3.332l.991 2.524c-.095.219-.212.487-.356.796l-.454.964-.463.95-.37.773zM53.3 11.338c0 .51-.004 1.006-.019 1.487-.017.476-.064.896-.145 1.268-.09.373-.222.662-.401.883-.178.22-.438.33-.783.33-.33 0-.587-.125-.77-.36-.183-.24-.325-.55-.406-.943-.092-.393-.137-.832-.151-1.33-.014-.495-.02-.997-.02-1.493 0-.544.013-1.054.042-1.523.025-.468.087-.874.178-1.205.09-.337.225-.606.405-.797.178-.194.42-.282.722-.282.33 0 .586.107.763.336.18.22.312.515.398.889.083.371.14.792.158 1.266.025.48.03.973.03 1.474m-1.31-5.283c-.804 0-1.56.118-2.27.338-.707.228-1.328.565-1.863 1.006-.53.44-.958.99-1.265 1.654-.312.66-.468 1.424-.468 2.285 0 .897.144 1.675.423 2.335.292.662.692 1.212 1.209 1.639.513.426 1.128.743 1.836.944.714.198 1.493.298 2.338.298.819 0 1.591-.106 2.299-.312.717-.2 1.334-.524 1.855-.956.528-.443.939-.985 1.24-1.648.302-.662.453-1.44.453-2.319 0-.716-.121-1.393-.365-2.025-.244-.636-.611-1.192-1.09-1.675-.486-.487-1.089-.868-1.81-1.144-.729-.275-1.571-.42-2.522-.42" transform="translate(-897 -7112) translate(1.094 7012) translate(472 90) translate(424 10) translate(8.6 22.937)"/>
                        </g>
                    </g>
                </g>
            </g>
        </g>
    </g>
</svg>
