<svg xmlns="http://www.w3.org/2000/svg" xmlns:xlink="http://www.w3.org/1999/xlink" width="129" height="60" viewBox="0 0 129 60">
    <defs>
        <path id="bf3c4jf41a" d="M0 0.047L90 0.047 90 40 0 40z"/>
    </defs>
    <g fill="none" fill-rule="evenodd">
        <g>
            <g>
                <g>
                    <g>
                        <g>
                            <g>
                                <g>
                                    <path fill="#231F20" d="M26.431 20.752c-.226-.143-.568-.196-1.135-.097L24 20.876v2.728l1.296-.225c.567-.097.932-.273 1.135-.47.249-.222.569-.507.569-1.185 0-.686-.34-.853-.569-.972M13.586 27.75c-.31-.176-.517-.182-1.034-.077L11 27.981v2.623l1.552-.308c.517-.103.724-.217 1.034-.517.31-.304.414-.683.414-1.085 0-.428-.104-.768-.414-.943M13.478 23.87c.391-.343.522-.689.522-1.145 0-.484-.13-.785-.522-.983-.39-.2-.65-.154-1.304-.038l-1.174.21v2.69l1.174-.208c.653-.116.913-.19 1.304-.527M36.001 22.604L36 22.604 38 22.24 36.999 18.604z" transform="translate(-918 -8189) translate(-6 7613) translate(226 140) translate(628) translate(0 396) translate(50 40) translate(20 12)"/>
                                    <g transform="translate(-918 -8189) translate(-6 7613) translate(226 140) translate(628) translate(0 396) translate(50 40) translate(20 12) translate(0 .604)">
                                        <mask id="440w8a09gb" fill="#fff">
                                            <use xlink:href="#bf3c4jf41a"/>
                                        </mask>
                                        <path fill="#231F20" d="M80.954 15.404v5.451l-.728.13-3.857.66-10.934 1.885V9.6L70 8.81v10.2l6.37-1.1v-1.717L71.521 8.55l5.071-.874 2.068 4.346 2.092-5.062 5.068-.873-4.866 9.316zM63.88 23.811l-4.766.82-4.26-7.039s.101 1.498.101 2.507v5.25l-4.463.769V12.184l4.97-.856 4.057 7.076s-.101-1.498-.101-2.507v-5.251l4.462-.767V23.81zm-14.942 2.58l-4.586.791v-.002l-4.307.743-.548-1.865-3.997.687-.528 2.05-3.043.522-1.724.297-3.55.614-2.231-4.26-.59.102v4.643l-4.584.79V17.572l6.086-1.05c1.724-.294 3.042-.222 4.059.311 1.013.533 1.722 1.622 1.722 3.137 0 2.826-1.722 4.134-2.331 4.602l2.057 3.107 4.23-12.833 5.073-.874 4.207 11.318V13.247l.443-.076v-.005l4.142-.711v13.937zm-32.123 4.623c-.912.764-2.331 1.31-3.65 1.536L4.943 33.96v-3.292l1.324-.22V23.1l-1.324.22v-3.292l7.106-1.216c1.217-.207 2.536-.335 3.55-.106 1.014.229 2.069 1.055 2.069 2.672 0 1.616-1.055 2.908-1.968 3.428l-.001.002c1.623.164 2.681 1.194 2.681 2.81 0 1.615-.652 2.636-1.565 3.397zM0 15.469V40l90-15.331V.047L0 15.469z" mask="url(#440w8a09gb)"/>
                                    </g>
                                </g>
                            </g>
                        </g>
                    </g>
                </g>
            </g>
        </g>
    </g>
</svg>
