<svg xmlns="http://www.w3.org/2000/svg" width="129" height="60" viewBox="0 0 129 60">
    <g fill="none" fill-rule="evenodd">
        <g fill-rule="nonzero">
            <g>
                <g>
                    <g>
                        <path fill="#231F20" d="M22.18 29.475h.657c.658 0 1.15.328 1.15.983 0 .328-.164.983-1.15.983h-.657v-1.966zm-1.725 5.486h1.725V32.67l1.643 2.292h2.054l-1.89-2.374c1.315-.246 1.726-1.392 1.726-2.21 0-.738-.247-1.475-.904-1.884-.493-.328-.904-.491-2.136-.491h-2.218v6.96zM33.353 32.341c0-.573.41-1.392 1.314-1.392.904 0 1.314.737 1.314 1.31 0 .492-.328 1.31-1.314 1.31-.986.082-1.314-.737-1.314-1.228zm4.19-2.62H35.98v.573c-.164-.327-.657-.737-1.56-.737-1.397 0-2.63 1.065-2.63 2.784 0 1.474.987 2.784 2.63 2.784.657 0 1.314-.246 1.56-.737v.573h1.561v-5.24zM39.432 32.341c0-.573.41-1.31 1.314-1.31.904 0 1.314.655 1.314 1.31 0 .573-.328 1.392-1.314 1.392-.74-.082-1.314-.573-1.314-1.392zm4.107-4.421h-1.56v2.21c-.165-.163-.658-.655-1.562-.655-1.314 0-2.628.983-2.628 2.784 0 1.556 1.068 2.784 2.628 2.784 1.068 0 1.48-.491 1.561-.737v.573h1.561v-6.96z" transform="translate(-221 -4016) translate(184 3503) translate(0 513) translate(37.84 3.429)"/>
                        <path fill="#231F20" d="M27.356 32.341c0-.737.575-1.31 1.232-1.31s1.232.573 1.232 1.31c0 .737-.575 1.31-1.232 1.31s-1.232-.573-1.232-1.31m-1.643 0c0 1.31.903 2.784 2.875 2.784 1.89 0 2.875-1.474 2.875-2.784 0-1.31-.903-2.784-2.875-2.784-1.89 0-2.875 1.474-2.875 2.784M48.55 22.107L47.564 25.136 47.482 25.136 46.414 22.107 44.771 22.107 46.743 27.101 45.921 29.148 47.564 29.148 50.193 22.107zM41.157 24.154c.082-.328.41-.901 1.232-.901.822 0 1.15.573 1.232.9h-2.464zm2.136 1.555c-.247.246-.493.491-.986.491-.657 0-1.15-.409-1.232-.982h3.943v-.41c0-1.637-1.15-2.865-2.793-2.865-1.643 0-2.793 1.392-2.793 2.866 0 1.555 1.314 2.783 2.793 2.783.575 0 1.068-.163 1.478-.49.411-.328.822-.738 1.068-1.311h-1.478v-.082zM35.078 24.727c0-.655.493-1.31 1.314-1.31.822 0 1.315.655 1.315 1.31s-.493 1.31-1.315 1.31c-.821 0-1.314-.573-1.314-1.31zm-1.561 2.62h1.479v-.573c.164.409.739.736 1.478.736 1.315 0 2.629-.982 2.629-2.865 0-1.965-1.479-2.784-2.629-2.784-.246 0-.986 0-1.56.573v-2.21h-1.561v7.123h.164zM28.999 24.727c0-.655.493-1.31 1.314-1.31.822 0 1.314.655 1.314 1.31s-.492 1.31-1.314 1.31c-.821 0-1.314-.573-1.314-1.31zm-1.561 2.62h1.479v-.573c.164.409.739.736 1.478.736 1.315 0 2.711-.982 2.711-2.865 0-1.965-1.479-2.784-2.629-2.784-.246 0-.985 0-1.56.573v-2.21h-1.561v7.123h.082zM24.48 25.136H23.084l.657-1.474.74 1.474zm2.876 2.21l-3.615-7.04-3.614 7.04h1.889l.493-.982h2.464l.493.983h1.89z" transform="translate(-221 -4016) translate(184 3503) translate(0 513) translate(37.84 3.429)"/>
                        <path fill="#231F20" d="M0 0L0 36.599 18.319 54.857 18.319 18.258 55.04 18.258 36.721 0z" transform="translate(-221 -4016) translate(184 3503) translate(0 513) translate(37.84 3.429)"/>
                        <path fill="#CD2037" d="M32.778 37.5h-1.48v2.62c0 .736-.41.982-.82.982-.822 0-.822-.655-.822-.983v-2.702h-1.479v2.948c0 .655.082.983.41 1.474.412.573 1.151.655 1.48.655.41 0 .985-.082 1.314-.655v.491h1.397V37.5zm-5.669-1.638h-1.478v1.637h-.74v1.147h.74v3.766h1.478v-3.766h.74v-1.147h-.74v-1.637zm-2.382 1.883c0-.41-.082-.819-.41-1.31-.412-.491-1.15-.737-1.808-.737-1.068 0-2.3.737-2.3 1.883 0 1.228 1.15 1.72 1.56 1.883.986.41 1.315.492 1.315.983 0 .327-.247.655-.657.655-.247 0-.657-.164-.657-.9h-1.643v.245c0 .819.492 2.047 2.382 2.047 1.725 0 2.3-1.065 2.3-1.965 0-.737-.329-1.31-1.56-1.883-1.15-.492-1.315-.574-1.315-.983 0-.327.246-.491.575-.491.493 0 .575.41.575.655h1.643v-.082zM34.667 39.874c0-.573.41-1.228 1.232-1.228.822 0 1.232.655 1.232 1.228 0 .491-.328 1.228-1.232 1.228-.74.082-1.232-.491-1.232-1.228zm3.861-4.012h-1.479v2.047c-.164-.164-.575-.573-1.478-.573-1.233 0-2.465.982-2.465 2.62 0 1.473.986 2.62 2.465 2.62.985 0 1.314-.492 1.478-.655v.49h1.397v-6.55h.082zM50.029 38.81c-.164-1.31-1.232-1.556-1.89-1.556-.985 0-1.889.655-1.889 1.637 0 .655.493 1.065 1.15 1.31.904.328 1.315.41 1.315.819 0 .246-.247.41-.493.41-.083 0-.493 0-.575-.41h-1.48c.165 1.31 1.233 1.638 1.972 1.638 1.068 0 1.972-.655 1.972-1.638 0-1.064-.904-1.31-1.725-1.556-.41-.081-.74-.245-.74-.49 0-.165.083-.328.411-.328.411 0 .411.245.493.409h1.479v-.246zm-7.722 1.064c0-.737.575-1.228 1.15-1.228.657 0 1.15.49 1.15 1.228 0 .737-.575 1.228-1.15 1.228-.657.082-1.15-.491-1.15-1.228zm-1.479 0c0 1.228.822 2.62 2.629 2.62s2.629-1.392 2.629-2.62c0-1.228-.822-2.62-2.629-2.62-1.807.082-2.629 1.474-2.629 2.62zm-.41-4.012h-1.48v1.146h1.48v-1.146zm0 1.637h-1.48v4.913h1.48v-4.913z" transform="translate(-221 -4016) translate(184 3503) translate(0 513) translate(37.84 3.429)"/>
                    </g>
                </g>
            </g>
        </g>
    </g>
</svg>
