<svg xmlns="http://www.w3.org/2000/svg" width="129" height="60" viewBox="0 0 129 60">
    <g fill="none" fill-rule="evenodd">
        <g>
            <g>
                <g>
                    <g>
                        <path fill="#DB2128" d="M53.882 27.897c.069-.054.123-.124.157-.203.036-.11.053-.226.048-.342V17.81h2.843c.173.005.345-.015.512-.06.132-.043.242-.136.303-.26.102-.217.169-.448.198-.686.041-.232.065-.466.07-.702.004-.113-.009-.226-.038-.335-.025-.08-.078-.15-.15-.194-.061-.035-.128-.058-.198-.07-.124-.017-.249-.024-.374-.021h-8.854c-.172-.005-.344.015-.511.06-.139.04-.254.133-.32.26-.098.188-.165.391-.198.601-.047.256-.07.515-.07.774 0 .118.019.235.054.348.026.082.082.151.157.194.179.076.374.107.569.091h3.166v9.536c-.026.206.054.411.214.548.173.13.58.194 1.22.194.642 0 1.041-.062 1.199-.188l.003-.003zm13.937.063c.594-.19 1.139-.501 1.598-.915.417-.379.737-.85.933-1.373.2-.558.3-1.147.294-1.739v-7.762c.025-.203-.048-.406-.198-.548-.188-.13-.588-.194-1.202-.194-.613 0-1.02.064-1.22.194-.074.047-.132.115-.166.194-.043.114-.065.233-.064.354V23.9c-.002.32-.057.637-.163.94-.129.343-.383.626-.713.796-.448.228-.95.336-1.453.313-.362.008-.722-.042-1.068-.147-.27-.083-.516-.226-.722-.417-.19-.182-.332-.405-.415-.652-.09-.27-.134-.552-.131-.836V16.17c.025-.203-.048-.406-.198-.548-.188-.13-.588-.194-1.202-.194-.613 0-1.02.064-1.22.194-.074.047-.132.115-.166.194-.034.115-.047.235-.039.354v7.759c-.005.592.094 1.18.294 1.74.19.526.506 1 .92 1.384.461.41 1.006.717 1.598.903 1.534.438 3.163.438 4.697 0l.006.003zm8.506-.063c.07-.054.126-.124.163-.203.04-.11.057-.226.051-.342v-11.18c.005-.119-.012-.237-.051-.348-.036-.078-.092-.145-.163-.195-.173-.13-.573-.194-1.201-.194-.629 0-1.036.065-1.221.194-.07.05-.127.117-.163.195-.036.112-.05.23-.042.347v11.187c-.02.201.053.4.199.542.172.13.579.195 1.22.195s1.044-.066 1.208-.198z" transform="translate(-975 -3623) translate(184 3503) translate(765 120) translate(26.66 9.429)"/>
                        <path d="M0 9.484L36.887 9.484 36.887 33.235 0 33.235z" transform="translate(-975 -3623) translate(184 3503) translate(765 120) translate(26.66 9.429)"/>
                        <path fill="#DB2128" d="M1.975 9.484h9.948c.983 0 1.71.314 1.997 1.667.32 1.516.198 2.57-1.544 2.69l-3.126.22c2.303 14.28 15.732 18.938 23.046 3.55 1.212-2.546 1.595-3.01 2.932-2.687 1.795.44 2.041 1.356 1.18 3.913-6.313 18.97-27.563 20.872-31.732-4.453l-2.53.179C.084 14.707 0 12.993 0 12.052c-.006-1.893.705-2.568 1.975-2.568M38.27 0c2.137 0 3.87 1.727 3.87 3.857s-1.733 3.857-3.87 3.857-3.87-1.727-3.87-3.857S36.133 0 38.27 0" transform="translate(-975 -3623) translate(184 3503) translate(765 120) translate(26.66 9.429)"/>
                    </g>
                </g>
            </g>
        </g>
    </g>
</svg>
