<svg xmlns="http://www.w3.org/2000/svg" width="129" height="60" viewBox="0 0 129 60">
    <g fill="none" fill-rule="evenodd">
        <g>
            <g>
                <g>
                    <g>
                        <path fill="#18414F" d="M65.102 14.765c1.881-.01 3.41-1.536 3.398-3.392-.012-1.855-1.554-3.366-3.418-3.35-1.875.017-3.4 1.544-3.384 3.388.016 1.847 1.556 3.364 3.404 3.354zm6.413 2.923c-.55 0-1.094.035-1.631-.01-.465-.041-.807-.328-1.024-.746l-.073-.138c-1.656 1.054-3.436 1.378-5.34.905-1.36-.338-2.499-1.058-3.39-2.13-1.881-2.264-2.06-5.297-.447-7.753.943-1.437 2.28-2.362 3.957-2.763 1.674-.4 3.272-.143 4.81.684V.174h3.138v17.514zM22.996 14.886c1.877.002 3.4-1.506 3.399-3.367 0-1.852-1.54-3.381-3.4-3.377-1.863.004-3.404 1.533-3.403 3.378 0 1.856 1.526 3.365 3.404 3.366zm-6.402-9.663c.552 0 1.085-.036 1.61.011.456.04.799.318 1.021.726.026.046.05.092.083.154 1.755-1.098 3.626-1.412 5.616-.825 1.281.377 2.348 1.102 3.186 2.136 1.909 2.352 1.89 5.503.317 7.763-.971 1.396-2.29 2.304-3.955 2.68-1.653.371-3.229.134-4.75-.7v.24c0 1.71-.002 3.422.003 5.134 0 .156-.03.214-.204.213-.912-.01-1.824-.005-2.736-.005h-.19V5.223zM37.219 14.886c1.877.002 3.403-1.502 3.41-3.36.005-1.843-1.535-3.376-3.4-3.384-1.858-.008-3.4 1.52-3.404 3.372-.003 1.861 1.516 3.37 3.394 3.372m3.7-8.76c.151-.324.354-.586.666-.735.154-.073.323-.148.489-.154.517-.02 1.036-.008 1.567-.008v12.593c-.045.004-.09.012-.135.012-.394.001-.787.003-1.18 0-.656-.003-1.128-.294-1.4-.914-1.862 1.171-3.84 1.445-5.92.734-1.343-.459-2.412-1.303-3.217-2.47-1.587-2.299-1.574-5.45.337-7.777 1.072-1.306 2.465-2.096 4.15-2.335 1.673-.237 3.217.135 4.643 1.054M76.002 11.388c-.008 1.862 1.52 3.383 3.401 3.387 1.875.003 3.395-1.5 3.402-3.365.008-1.852-1.518-3.374-3.389-3.38-1.866-.006-3.405 1.508-3.414 3.358m3.4 6.529c-3.55.022-6.575-2.853-6.57-6.525.004-3.679 3.087-6.61 6.774-6.504 3.429.1 6.379 2.888 6.373 6.53-.006 3.635-2.998 6.522-6.578 6.499M48.448 17.802h-3.162V5.197h.358c.262 0 .525.008.787-.002.63-.024 1.15.166 1.486.744.049-.022.092-.038.131-.061 1.07-.634 2.238-.883 3.471-.878 1.078.004 2.11.213 3.067.715 1.548.812 2.465 2.095 2.772 3.803.074.412.1.838.1 1.258.01 2.258.005 4.515.005 6.773v.246h-3.169v-.231-6.435c0-.754-.184-1.449-.7-2.023-.67-.745-1.525-1.026-2.508-.952-.652.05-1.245.264-1.741.7-.664.586-.896 1.351-.896 2.206v6.742z" transform="translate(-598 -4016) translate(184 3503) translate(393 513) translate(21.5 22.286)"/>
                        <path fill="#5BC8B6" d="M10.373 11.246c1.535.032 2.839-1.075 3.056-2.553.14-.956-.102-1.816-.782-2.505-1.753-1.774-3.525-3.53-5.295-5.287C7.193.743 7.01.602 6.817.488 5.719-.16 4.604-.172 3.528.511c-1.53.973-1.86 3-.731 4.418.26.328.581.61.881.908 1.345 1.33 2.69 2.66 4.04 3.987.283.28.562.567.874.811.535.42 1.155.626 1.78.611" transform="translate(-598 -4016) translate(184 3503) translate(393 513) translate(21.5 22.286)"/>
                        <path fill="#8EE7FA" d="M12.53 10.38c1.109-1.06 1.245-2.761.35-3.96-.58-.775-1.36-1.211-2.33-1.219-2.498-.02-4.997-.012-7.495-.007-.224 0-.454.03-.672.085C1.146 5.594.35 6.371.074 7.613c-.392 1.767.814 3.432 2.617 3.64.418.047.845.021 1.268.02 1.895-.007 3.79-.015 5.685-.027.398-.002.8.004 1.194-.043.676-.08 1.26-.371 1.692-.823" transform="translate(-598 -4016) translate(184 3503) translate(393 513) translate(21.5 22.286)"/>
                        <path fill="#18414F" d="M10.373 5.223c1.535-.032 2.839 1.076 3.056 2.553.14.957-.102 1.816-.782 2.505-1.753 1.774-3.525 3.53-5.295 5.287-.159.158-.342.3-.535.413-1.098.65-2.213.66-3.289-.023-1.53-.973-1.86-3-.731-4.417.26-.329.581-.611.881-.908 1.345-1.331 2.69-2.66 4.04-3.988.283-.279.562-.566.874-.811.535-.42 1.155-.626 1.78-.61" transform="translate(-598 -4016) translate(184 3503) translate(393 513) translate(21.5 22.286)"/>
                        <path fill="#EE732E" d="M13.467 8.235c0 1.682-1.368 3.046-3.056 3.046S7.354 9.917 7.354 8.235c0-1.683 1.369-3.047 3.057-3.047s3.056 1.364 3.056 3.047" transform="translate(-598 -4016) translate(184 3503) translate(393 513) translate(21.5 22.286)"/>
                    </g>
                </g>
            </g>
        </g>
    </g>
</svg>
