<svg xmlns="http://www.w3.org/2000/svg" xmlns:xlink="http://www.w3.org/1999/xlink" viewBox="0 0 60 60"><defs><style>.cls-1{fill:none;}.cls-2{clip-path:url(#clip-path);}.cls-3{fill:#4a4f99;}.cls-4{fill:#f0af4d;}</style><clipPath id="clip-path"><rect class="cls-1" width="60" height="60"/></clipPath></defs><g id="Layer_6" data-name="Layer 6"><g class="cls-2"><polygon class="cls-3" points="49.69 36.01 48.36 34.69 42.19 40.86 36.01 34.69 34.69 36.01 40.86 42.19 34.69 48.36 36.01 49.69 42.19 43.51 48.36 49.69 49.69 48.36 43.51 42.19 49.69 36.01"/><polygon class="cls-3" points="23.99 10.31 17.81 16.49 11.64 10.31 10.31 11.64 16.49 17.81 10.31 23.99 11.64 25.31 17.81 19.14 23.99 25.31 25.31 23.99 19.14 17.81 25.31 11.64 23.99 10.31"/><path class="cls-4" d="M45,12.19A2.81,2.81,0,1,1,42.19,15,2.81,2.81,0,0,1,45,12.19m0-1.88A4.69,4.69,0,1,0,49.69,15,4.69,4.69,0,0,0,45,10.31Z"/><path class="cls-3" d="M45,19.69a4.68,4.68,0,0,1-1.64-.3A14.09,14.09,0,0,1,30,29.06,16,16,0,0,0,14.76,40.32H15a4.68,4.68,0,0,1,1.64.3A14.09,14.09,0,0,1,30,30.94,16,16,0,0,0,45.24,19.68Z"/><path class="cls-4" d="M15,42.19A2.81,2.81,0,1,1,12.19,45,2.81,2.81,0,0,1,15,42.19m0-1.88A4.69,4.69,0,1,0,19.69,45,4.69,4.69,0,0,0,15,40.31Z"/></g></g></svg>