<svg xmlns="http://www.w3.org/2000/svg" xmlns:xlink="http://www.w3.org/1999/xlink" viewBox="0 0 60 60"><defs><style>.cls-1{fill:none;}.cls-2{clip-path:url(#clip-path);}.cls-3{fill:#f0af4d;}.cls-4{fill:#4a4f99;}</style><clipPath id="clip-path"><rect class="cls-1" width="60" height="60"/></clipPath></defs><g id="Layer_6" data-name="Layer 6"><g class="cls-2"><path class="cls-3" d="M19.69,16.88a2.81,2.81,0,1,1-2.81,2.81,2.81,2.81,0,0,1,2.81-2.81m0-1.88a4.69,4.69,0,1,0,4.69,4.69A4.69,4.69,0,0,0,19.69,15Z"/><polygon class="cls-4" points="45 43.13 45 33.75 43.13 33.75 43.13 43.13 33.75 43.13 33.75 45 43.13 45 43.13 54.38 45 54.38 45 45 54.38 45 54.38 43.13 45 43.13"/><polygon class="cls-4" points="9.38 15 11.25 15 11.25 11.25 15 11.25 15 9.38 9.38 9.38 9.38 15"/><rect class="cls-4" x="31.88" y="9.38" width="5.63" height="1.88"/><rect class="cls-4" x="24.38" y="9.38" width="5.63" height="1.88"/><rect class="cls-4" x="24.38" y="43.13" width="5.63" height="1.88"/><polygon class="cls-4" points="11.25 39.38 9.38 39.38 9.38 45 15 45 15 43.13 11.25 43.13 11.25 39.38"/><rect class="cls-4" x="16.88" y="43.13" width="5.63" height="1.88"/><rect class="cls-4" x="16.88" y="9.38" width="5.63" height="1.88"/><rect class="cls-4" x="9.38" y="16.88" width="1.88" height="5.63"/><rect class="cls-4" x="43.13" y="24.38" width="1.88" height="5.63"/><rect class="cls-4" x="43.13" y="16.88" width="1.88" height="5.63"/><rect class="cls-4" x="9.38" y="31.88" width="1.88" height="5.63"/><polygon class="cls-4" points="43.13 15 45 15 45 9.38 39.38 9.38 39.38 11.25 43.13 11.25 43.13 15"/><rect class="cls-4" x="9.38" y="24.38" width="1.88" height="5.63"/></g></g></svg>