<svg id="Warstwa_1" data-name="Warstwa 1" xmlns="http://www.w3.org/2000/svg" xmlns:xlink="http://www.w3.org/1999/xlink" viewBox="0 0 60 60"><defs><style>.cls-1{fill:none;}.cls-2{clip-path:url(#clip-path);}.cls-3{fill:#4a4f99;}.cls-4{fill:#f0af4d;}</style><clipPath id="clip-path"><rect class="cls-1" width="60" height="60"/></clipPath></defs><g class="cls-2"><path class="cls-3" d="M40.49,30.94a18.61,18.61,0,0,1-.76,5.25,4.69,4.69,0,0,1,1.4.53l.34.22A20.63,20.63,0,0,0,26.41,10.85c0,.13,0,.26,0,.4a4.72,4.72,0,0,1-.24,1.47A18.8,18.8,0,0,1,40.49,30.94Z"/><path class="cls-3" d="M2.34,36.72a4.69,4.69,0,0,1,1.4-.53A18.76,18.76,0,0,1,17.29,12.72a4.72,4.72,0,0,1-.24-1.47c0-.14,0-.27,0-.4A20.63,20.63,0,0,0,2,36.94Z"/><path class="cls-3" d="M36.44,44.84a4.68,4.68,0,0,1-1.16-1,18.7,18.7,0,0,1-27.08,0,4.73,4.73,0,0,1-1.17,1,2.31,2.31,0,0,1-.35.18A20.61,20.61,0,0,0,36.8,45Z"/><path class="cls-4" d="M21.74,8.44a2.81,2.81,0,1,1-2.81,2.81,2.81,2.81,0,0,1,2.81-2.81m0-1.88a4.69,4.69,0,1,0,4.69,4.69,4.69,4.69,0,0,0-4.69-4.69Z"/><path class="cls-4" d="M4.68,38h0a2.81,2.81,0,0,1,1.41,5.25A2.81,2.81,0,0,1,2,40.05,2.83,2.83,0,0,1,4.68,38m0-1.88a4.75,4.75,0,0,0-2.34.63,4.69,4.69,0,0,0,2.35,8.75A4.62,4.62,0,0,0,7,44.84a4.69,4.69,0,0,0-2.35-8.75Z"/><path class="cls-4" d="M38.79,38h0a2.81,2.81,0,0,1,2.43,4.22,2.8,2.8,0,0,1-2.44,1.4,2.87,2.87,0,0,1-1.4-.37A2.81,2.81,0,0,1,38.79,38m0-1.88a4.7,4.7,0,1,0,2.34.63,4.73,4.73,0,0,0-2.34-.63Z"/></g></svg>