<svg id="Warstwa_1" data-name="Warstwa 1" xmlns="http://www.w3.org/2000/svg" xmlns:xlink="http://www.w3.org/1999/xlink" viewBox="0 0 60 60"><defs><style>.cls-1{fill:none;}.cls-2{clip-path:url(#clip-path);}.cls-3{fill:#4a4f99;}.cls-4{fill:#f0af4d;}</style><clipPath id="clip-path"><rect class="cls-1" width="60" height="60"/></clipPath></defs><g class="cls-2"><path class="cls-3" d="M30,28.12V30A11.25,11.25,0,0,0,41.25,18.75H39.37A9.38,9.38,0,0,1,30,28.12Z"/><path class="cls-3" d="M26.25,40.31a4.69,4.69,0,0,0-1.88-3.75h0a4.68,4.68,0,0,0-2.81-8.43H15V21.56a4.69,4.69,0,0,0-9.38,0v6.81A7.49,7.49,0,0,0,0,35.63V45a7.5,7.5,0,0,0,7.5,7.5H21.56a4.66,4.66,0,0,0,2.81-.94h0a4.68,4.68,0,0,0,0-7.5h0A4.66,4.66,0,0,0,26.25,40.31Zm-4.69,2.82h-.94V45h.94a2.82,2.82,0,1,1,0,5.63H7.5A5.63,5.63,0,0,1,1.88,45V35.63A5.63,5.63,0,0,1,7.5,30V21.56a2.81,2.81,0,0,1,5.62,0V30h8.44a2.82,2.82,0,1,1,0,5.63h-.94V37.5h.94a2.82,2.82,0,1,1,0,5.63Z"/><path class="cls-4" d="M21.56,9.38a2.81,2.81,0,1,1-2.81,2.81,2.82,2.82,0,0,1,2.81-2.81m0-1.88a4.69,4.69,0,1,0,4.69,4.69A4.68,4.68,0,0,0,21.56,7.5Z"/><path class="cls-4" d="M34.69,9.38a2.81,2.81,0,1,1-2.81,2.81,2.81,2.81,0,0,1,2.81-2.81m0-1.88a4.69,4.69,0,1,0,4.69,4.69A4.69,4.69,0,0,0,34.69,7.5Z"/></g></svg>