<svg xmlns="http://www.w3.org/2000/svg" xmlns:xlink="http://www.w3.org/1999/xlink" viewBox="0 0 60 60"><defs><style>.cls-1{fill:none;}.cls-2{clip-path:url(#clip-path);}.cls-3{fill:#f0af4d;}.cls-4{fill:#4a4f99;}</style><clipPath id="clip-path"><rect class="cls-1" x="-7.46" width="60" height="60"/></clipPath></defs><g id="Layer_6" data-name="Layer 6"><g class="cls-2"><path class="cls-3" d="M34.73,11.25a2.82,2.82,0,1,1-2.81,2.81,2.81,2.81,0,0,1,2.81-2.81m0-1.87a4.69,4.69,0,1,0,4.69,4.68,4.68,4.68,0,0,0-4.69-4.68Z"/><path class="cls-3" d="M10.36,11.25a2.82,2.82,0,1,1-2.82,2.81,2.81,2.81,0,0,1,2.82-2.81m0-1.87A4.69,4.69,0,1,0,15,14.06a4.68,4.68,0,0,0-4.68-4.68Z"/><path class="cls-3" d="M22.54,11.25a2.82,2.82,0,1,1-2.81,2.81,2.81,2.81,0,0,1,2.81-2.81m0-1.87a4.69,4.69,0,1,0,4.69,4.68,4.68,4.68,0,0,0-4.69-4.68Z"/><path class="cls-3" d="M31.87,35.62a2.82,2.82,0,1,1-2.81,2.82,2.83,2.83,0,0,1,2.81-2.82m0-1.87a4.69,4.69,0,1,0,4.69,4.69,4.69,4.69,0,0,0-4.69-4.69Z"/><path class="cls-4" d="M34.73,20.62a10.28,10.28,0,0,0-6.09,2,10.29,10.29,0,0,0-12.19,0A10.31,10.31,0,0,0,0,30.94V46.88H12.23v3.74H32.86V46.88H45V30.94A10.31,10.31,0,0,0,34.73,20.62Zm-5.34,2.61Zm-13.69,0ZM12.23,45H1.92V30.94A8.44,8.44,0,0,1,15,23.9a10.29,10.29,0,0,0-2.78,7Zm30.94,0H32.86V43a4.62,4.62,0,0,1-1,.1A5.26,5.26,0,0,1,31,43v5.71H14.11V30.94a8.44,8.44,0,1,1,16.87,0v2.9a4.41,4.41,0,0,1,.89-.09,4.62,4.62,0,0,1,1,.11V30.94a10.29,10.29,0,0,0-2.78-7,8.44,8.44,0,0,1,13.09,7Z"/></g></g></svg>