<svg xmlns="http://www.w3.org/2000/svg" xmlns:xlink="http://www.w3.org/1999/xlink" viewBox="0 0 60 60"><defs><style>.cls-1{fill:none;}.cls-2{clip-path:url(#clip-path);}.cls-3{fill:#f0af4d;}.cls-4{fill:#4a4f99;}</style><clipPath id="clip-path"><rect class="cls-1" x="-11.67" width="60" height="60"/></clipPath></defs><g id="Layer_6" data-name="Layer 6"><g class="cls-2"><path class="cls-3" d="M4.87,13.73a2.82,2.82,0,1,1-2.81,2.81,2.81,2.81,0,0,1,2.81-2.81m0-1.87a4.69,4.69,0,1,0,4.69,4.68,4.68,4.68,0,0,0-4.69-4.68Z"/><path class="cls-3" d="M4.87,26.86a2.81,2.81,0,1,1-2.81,2.81,2.81,2.81,0,0,1,2.81-2.81m0-1.88a4.69,4.69,0,1,0,4.69,4.69A4.69,4.69,0,0,0,4.87,25Z"/><path class="cls-3" d="M4.87,40a2.82,2.82,0,1,1-2.81,2.81A2.81,2.81,0,0,1,4.87,40m0-1.87a4.69,4.69,0,1,0,4.69,4.68,4.68,4.68,0,0,0-4.69-4.68Z"/><path class="cls-3" d="M18,13.73a2.82,2.82,0,1,1-2.81,2.81A2.81,2.81,0,0,1,18,13.73m0-1.87a4.69,4.69,0,1,0,4.69,4.68A4.68,4.68,0,0,0,18,11.86Z"/><path class="cls-3" d="M31.12,13.73a2.82,2.82,0,1,1-2.81,2.81,2.81,2.81,0,0,1,2.81-2.81m0-1.87a4.69,4.69,0,1,0,4.69,4.68,4.68,4.68,0,0,0-4.69-4.68Z"/><path class="cls-4" d="M30,40.29h0a9.38,9.38,0,1,0-1.32,1.32h0l6.53,6.53,1.32-1.32Zm-7.26,1.57a7.5,7.5,0,1,1,7.5-7.5A7.51,7.51,0,0,1,22.69,41.86Z"/></g></g></svg>