<svg xmlns="http://www.w3.org/2000/svg" xmlns:xlink="http://www.w3.org/1999/xlink" viewBox="0 0 60 60"><defs><style>.cls-1{fill:none;}.cls-2{clip-path:url(#clip-path);}.cls-3{fill:#f0af4d;}.cls-4{fill:#4a4f99;}</style><clipPath id="clip-path"><rect class="cls-1" x="-12.07" width="60" height="60"/></clipPath></defs><g id="Layer_6" data-name="Layer 6"><g class="cls-2"><path class="cls-3" d="M7.61,9.38A2.81,2.81,0,1,1,4.8,12.19,2.82,2.82,0,0,1,7.61,9.38m0-1.88a4.69,4.69,0,1,0,4.69,4.69A4.68,4.68,0,0,0,7.61,7.5Z"/><path class="cls-3" d="M28.24,9.38a2.81,2.81,0,1,1-2.81,2.81,2.81,2.81,0,0,1,2.81-2.81m0-1.88a4.69,4.69,0,1,0,4.69,4.69A4.69,4.69,0,0,0,28.24,7.5Z"/><path class="cls-4" d="M14.18,41.25a4.76,4.76,0,0,1-.94-.09v9.46H2V26.25a5.63,5.63,0,1,1,11.25,0V32a4.9,4.9,0,0,1,1.87,0V26.25a7.5,7.5,0,0,0-15,0V52.5h15V41.16A4.73,4.73,0,0,1,14.18,41.25Z"/><path class="cls-4" d="M28.24,18.75a7.5,7.5,0,0,0-7.5,7.5V32a4.9,4.9,0,0,1,1.87,0V26.25a5.63,5.63,0,1,1,11.25,0V50.62H22.61V41.16a4.9,4.9,0,0,1-1.87,0V52.5h15V26.25A7.5,7.5,0,0,0,28.24,18.75Z"/><path class="cls-3" d="M21.68,31.88a4.66,4.66,0,0,0-3.75,1.88,4.69,4.69,0,1,0,0,5.61,4.68,4.68,0,1,0,3.75-7.49Zm-7.5,7.5A2.82,2.82,0,1,1,17,36.56,2.82,2.82,0,0,1,14.18,39.38Zm7.5,0a2.82,2.82,0,1,1,2.81-2.82A2.82,2.82,0,0,1,21.68,39.38Z"/></g></g></svg>