<svg xmlns="http://www.w3.org/2000/svg" xmlns:xlink="http://www.w3.org/1999/xlink" viewBox="0 0 60 60"><defs><style>.cls-1{fill:none;}.cls-2{clip-path:url(#clip-path);}.cls-3{fill:#f0af4d;}.cls-4{fill:#f1f1f1;}.cls-5{fill:#4a4f99;}</style><clipPath id="clip-path"><rect class="cls-1" x="-5.51" width="60" height="60"/></clipPath></defs><g id="Layer_6" data-name="Layer 6"><g class="cls-2"><path class="cls-3" d="M4.8,24.34A2.82,2.82,0,1,1,2,27.15,2.81,2.81,0,0,1,4.8,24.34m0-1.87a4.69,4.69,0,1,0,4.69,4.68A4.68,4.68,0,0,0,4.8,22.47Z"/><rect class="cls-4" x="13.24" y="13.13" width="22.5" height="1.88"/><polygon class="cls-5" points="35.74 13.13 13.24 13.13 13.24 15 35.74 15 35.74 13.13 35.74 13.13"/><rect class="cls-5" x="28.24" y="45" width="7.5" height="1.88"/><rect class="cls-5" x="28.24" y="39.38" width="7.5" height="1.88"/><rect class="cls-5" x="24.49" y="33.75" width="11.25" height="1.88"/><rect class="cls-5" x="18.86" y="28.13" width="16.88" height="1.88"/><path class="cls-5" d="M7.61,7.5V23.41a4.63,4.63,0,0,1,1.81,3h0c0,.12,0,.24.05.36s0,.26,0,.39h0c0,.13,0,.25,0,.37l0,.3L22.61,41v4l-4,0L5.46,31.79l-.29,0-.36,0h0a4.66,4.66,0,0,1-3.31-1.37l6.12,6.14V52.5H41.36V7.5ZM39.49,50.62h-30V38.49l8.37,8.39,6.63,0V40.25l-15-15V9.38h30Z"/></g></g></svg>