<svg xmlns="http://www.w3.org/2000/svg" xmlns:xlink="http://www.w3.org/1999/xlink" viewBox="0 0 60 60"><defs><style>.cls-1{fill:none;}.cls-2{clip-path:url(#clip-path);}.cls-3{fill:#f0af4d;}.cls-4{fill:#4a4f99;}</style><clipPath id="clip-path"><rect class="cls-1" x="-9.24" width="60" height="60"/></clipPath></defs><g id="Layer_6" data-name="Layer 6"><g class="cls-2"><path class="cls-3" d="M20.76,24.38A5.62,5.62,0,1,1,15.14,30a5.63,5.63,0,0,1,5.62-5.62m0-1.88a7.5,7.5,0,1,0,7.5,7.5,7.5,7.5,0,0,0-7.5-7.5Z"/><path class="cls-4" d="M38.33,19.19a4.72,4.72,0,0,1-1.52,1.13,18.78,18.78,0,1,1-6.21-6.27,4.59,4.59,0,0,1,1.15-1.5,20.6,20.6,0,1,0,6.58,6.64Z"/><path class="cls-3" d="M34.82,13.27A2.81,2.81,0,1,1,32,16.08a2.81,2.81,0,0,1,2.81-2.81m0-1.88a4.69,4.69,0,1,0,4.69,4.69,4.69,4.69,0,0,0-4.69-4.69Z"/></g></g></svg>