<svg xmlns="http://www.w3.org/2000/svg" xmlns:xlink="http://www.w3.org/1999/xlink" viewBox="0 0 60 60"><defs><style>.cls-1{fill:none;}.cls-2{clip-path:url(#clip-path);}.cls-3{fill:#f0af4d;}.cls-4{fill:#4a4f99;}</style><clipPath id="clip-path"><rect class="cls-1" x="-8.34" width="60" height="60"/></clipPath></defs><g id="Layer_6" data-name="Layer 6"><g class="cls-2"><path class="cls-3" d="M31,10.31a2.82,2.82,0,1,1-2.81,2.81A2.82,2.82,0,0,1,31,10.31m0-1.87a4.69,4.69,0,1,0,4.69,4.68A4.68,4.68,0,0,0,31,8.44Z"/><path class="cls-3" d="M4.78,10.31A2.82,2.82,0,1,1,2,13.12a2.82,2.82,0,0,1,2.81-2.81m0-1.87a4.69,4.69,0,1,0,4.69,4.68A4.68,4.68,0,0,0,4.78,8.44Z"/><path class="cls-4" d="M32.91,29.06a4.64,4.64,0,0,0-3.11,1.19,4.68,4.68,0,0,0-7.2-2.12V18.75a4.69,4.69,0,0,0-9.38,0v8.54a4.11,4.11,0,0,0-.94-.1A4.68,4.68,0,0,0,7.6,31.87V44.06a7.5,7.5,0,0,0,7.5,7.5h15a7.5,7.5,0,0,0,7.5-7.5V33.75A4.69,4.69,0,0,0,32.91,29.06Zm2.81,7.5v7.5a5.63,5.63,0,0,1-5.62,5.63h-15a5.64,5.64,0,0,1-5.63-5.63V31.87a2.81,2.81,0,0,1,2.81-2.81,2.7,2.7,0,0,1,.94.17V39.37H15.1V18.75a2.81,2.81,0,1,1,5.62,0V32.81H22.6v-.94a2.81,2.81,0,1,1,5.62,0v1.88H30.1a2.81,2.81,0,0,1,5.62,0Z"/><path class="cls-3" d="M15.57,14.69a2.82,2.82,0,1,1,4.67,0,4.69,4.69,0,0,1,1.41,1.25,4.69,4.69,0,1,0-7.49,0A4.69,4.69,0,0,1,15.57,14.69Z"/></g></g></svg>