<svg xmlns="http://www.w3.org/2000/svg" xmlns:xlink="http://www.w3.org/1999/xlink" viewBox="0 0 60 60"><defs><style>.cls-1{fill:none;}.cls-2{clip-path:url(#clip-path);}.cls-3{fill:#4a4f99;}.cls-4{fill:#f0af4d;}</style><clipPath id="clip-path"><rect class="cls-1" width="60" height="60"/></clipPath></defs><g id="Layer_6" data-name="Layer 6"><g class="cls-2"><path class="cls-3" d="M44.53,36.09A4.64,4.64,0,0,1,43.41,36a8.43,8.43,0,0,1-16.69-1.73V32.34H39.94a4.73,4.73,0,0,1-.1-.93,4.83,4.83,0,0,1,.1-.94H2.53l4.86-11a3.75,3.75,0,0,1,7.14,1.61h1.88A5.63,5.63,0,0,0,5.69,18.7L.48,30.47h0v3.75a10.31,10.31,0,0,0,20.62,0V32.34h3.75v1.88A10.31,10.31,0,0,0,45.31,36,4,4,0,0,1,44.53,36.09ZM19.22,34.22a8.44,8.44,0,0,1-16.88,0V32.34H19.22Z"/><path class="cls-3" d="M53.91,15.47a5.66,5.66,0,0,0-5.09,3.23l-3.58,8.08a4.61,4.61,0,0,1,1.76.65l3.52-7.95a3.75,3.75,0,0,1,7.14,1.61h1.87A5.62,5.62,0,0,0,53.91,15.47Z"/><path class="cls-4" d="M44.53,28.59a2.82,2.82,0,1,1-2.81,2.82,2.82,2.82,0,0,1,2.81-2.82m0-1.87a4.69,4.69,0,1,0,4.69,4.69,4.69,4.69,0,0,0-4.69-4.69Z"/></g></g></svg>