<svg xmlns="http://www.w3.org/2000/svg" xmlns:xlink="http://www.w3.org/1999/xlink" viewBox="0 0 60 60"><defs><style>.cls-1{fill:none;}.cls-2{clip-path:url(#clip-path);}.cls-3{fill:#4a4f99;}.cls-4{fill:#f0af4d;}</style><clipPath id="clip-path"><rect class="cls-1" x="-11.07" width="60" height="60"/></clipPath></defs><g id="Layer_6" data-name="Layer 6"><g class="cls-2"><path class="cls-3" d="M15.18,13.12V26.25H2.06V13.12H15.18m1.88-1.87H.18V28.12H17.06V11.25Z"/><path class="cls-3" d="M15.18,33.75V46.87H2.06V33.75H15.18m1.88-1.88H.18V48.75H17.06V31.87Z"/><path class="cls-3" d="M35.81,33.75V46.87H22.68V33.75H35.81m1.87-1.88H20.81V48.75H37.68V31.87Z"/><path class="cls-3" d="M36.75,16.87a4.76,4.76,0,0,1-.94-.09v9.47H22.68V13.12h9.47a4.9,4.9,0,0,1,0-1.87H20.81V28.12H37.68V16.78A4.73,4.73,0,0,1,36.75,16.87Z"/><path class="cls-4" d="M36.75,9.37a2.82,2.82,0,1,1-2.82,2.82,2.81,2.81,0,0,1,2.82-2.82m0-1.87a4.69,4.69,0,1,0,4.68,4.69A4.69,4.69,0,0,0,36.75,7.5Z"/></g></g></svg>