<svg width="130" height="60" viewBox="0 0 130 60" fill="none" xmlns="http://www.w3.org/2000/svg">
<rect x="1.57642" y="30.3501" width="86.2774" height="20.2187" transform="rotate(-9.62454 1.57642 30.3501)" fill="white"/>
<path fill-rule="evenodd" clip-rule="evenodd" d="M26.9314 32.7519C26.7048 32.6085 26.3634 32.5559 25.796 32.6548L24.5 32.8763V35.604L25.796 35.3787C26.3634 35.2823 26.7277 35.1063 26.9314 34.9084V34.9085C27.1799 34.6871 27.5 34.4023 27.5 33.7236C27.5 33.0379 27.1594 32.8708 26.9314 32.7519Z" fill="#231F20"/>
<path fill-rule="evenodd" clip-rule="evenodd" d="M14.0865 39.7506C13.7757 39.5743 13.5692 39.5681 13.0523 39.6731L11.5 39.9805V42.604L13.0523 42.2956C13.5692 42.1929 13.7756 42.0791 14.0865 41.7785L14.0859 41.778C14.3954 41.4753 14.5 41.0962 14.5 40.6936C14.5 40.2657 14.3955 39.9259 14.0865 39.7506Z" fill="#231F20"/>
<path fill-rule="evenodd" clip-rule="evenodd" d="M13.9778 35.8692C14.3691 35.5265 14.5 35.1813 14.5 34.7253C14.5 34.2412 14.3691 33.9404 13.9778 33.7417C13.5874 33.541 13.3272 33.5879 12.674 33.7037L11.5 33.9139V36.604L12.674 36.3962C13.3272 36.2796 13.5874 36.2061 13.9778 35.8692Z" fill="#231F20"/>
<path fill-rule="evenodd" clip-rule="evenodd" d="M36.5006 34.6036L36.5 34.604L38.5 34.2398L37.4992 30.604L36.5006 34.6036Z" fill="#231F20"/>
<mask id="mask0_931_1341" style="mask-type:alpha" maskUnits="userSpaceOnUse" x="0" y="12" width="91" height="41">
<path fill-rule="evenodd" clip-rule="evenodd" d="M0.5 12.6509H90.5V52.604H0.5V12.6509Z" fill="white"/>
</mask>
<g mask="url(#mask0_931_1341)">
<path fill-rule="evenodd" clip-rule="evenodd" d="M81.454 28.0083V33.4593L80.7256 33.5884L76.8692 34.2499L65.9352 36.1343V22.2035L70.4991 21.4155V31.6145L76.8692 30.5155V28.7979L72.0207 21.1553L77.0921 20.2812L79.16 24.627L81.252 19.565L86.3202 18.6917L81.454 28.0083ZM64.3801 36.4149L59.6144 37.2357L55.3546 30.1961C55.3546 30.1961 55.4549 31.694 55.4549 32.7028V37.9529L50.9918 38.7217V24.7884L55.9618 23.9321L60.0194 31.0084C60.0194 31.0084 59.9178 29.5105 59.9178 28.5009V28.5V23.2499L64.3801 22.4826V36.4149ZM49.4375 38.9957L44.8524 39.7863V39.7845L40.545 40.5266L39.9969 38.6619L36 39.3488L35.472 41.3991L32.4293 41.921L30.705 42.2178L27.1557 42.8324L24.9237 38.5714L24.3345 38.6737V43.3174L19.7501 44.108V30.1746L25.8362 29.1248C27.5599 28.8307 28.8784 28.9035 29.8945 29.4364C30.9084 29.9691 31.6174 31.0585 31.6174 32.5732C31.6174 35.3989 29.8945 36.7074 29.2857 37.1755L31.3429 40.2825L35.5734 27.4492L40.646 26.5747L44.8526 37.8935V25.8509L45.2959 25.7749L45.2957 25.7726V25.7706L49.4375 25.0591V38.9957ZM17.3146 43.6178C16.4031 44.3825 14.9838 44.9288 13.6649 45.1542L5.44267 46.5629V43.2708L6.76693 43.0517V35.7029L5.44267 35.9223V32.6308L12.5488 31.4146C13.7662 31.2078 15.085 31.0801 16.0986 31.3091C17.1135 31.5381 18.1679 32.3642 18.1679 33.9812C18.1679 35.5967 17.1135 36.8895 16.1998 37.4093L16.1989 37.4106C17.8221 37.5751 18.8801 38.6053 18.8801 40.2209C18.8801 41.8357 18.2282 42.8573 17.3146 43.6178ZM0.5 28.0729V52.6041L90.5 37.2728V12.6509L0.5 28.0729Z" fill="#231F20"/>
</g>
</svg>
