<svg width="215" height="100" viewBox="0 0 215 100" fill="none" xmlns="http://www.w3.org/2000/svg">
<path fill-rule="evenodd" clip-rule="evenodd" d="M44.0523 54.5868C43.6747 54.3477 43.1057 54.26 42.1601 54.4248L40 54.7941V59.3402L42.1601 58.9647C43.1057 58.804 43.7128 58.5108 44.0523 58.1808V58.181C44.4665 57.812 45 57.3373 45 56.2062C45 55.0634 44.4323 54.7849 44.0523 54.5868Z" fill="white"/>
<path fill-rule="evenodd" clip-rule="evenodd" d="M22.6443 66.2512C22.1264 65.9573 21.7822 65.947 20.9206 66.122L18.3335 66.6344V71.0068L20.9206 70.4928C21.7822 70.3217 22.1262 70.132 22.6443 69.6311L22.6434 69.6302C23.1592 69.1256 23.3335 68.4939 23.3335 67.8229C23.3335 67.1097 23.1594 66.5433 22.6443 66.2512Z" fill="white"/>
<path fill-rule="evenodd" clip-rule="evenodd" d="M22.4632 59.7822C23.1153 59.2109 23.3335 58.6357 23.3335 57.8757C23.3335 57.0689 23.1153 56.5675 22.4632 56.2364C21.8125 55.9018 21.3788 55.98 20.2902 56.173L18.3335 56.5233V61.0068L20.2902 60.6605C21.3788 60.4661 21.8125 60.3437 22.4632 59.7822Z" fill="white"/>
<path fill-rule="evenodd" clip-rule="evenodd" d="M60.001 57.6728L60 57.6735L63.3333 57.0665L61.6653 51.0068L60.001 57.6728Z" fill="white"/>
<mask id="mask0_1039_2011" style="mask-type:alpha" maskUnits="userSpaceOnUse" x="0" y="21" width="150" height="67">
<path fill-rule="evenodd" clip-rule="evenodd" d="M0 21.085H150V87.6735H0V21.085Z" fill="white"/>
</mask>
<g mask="url(#mask0_1039_2011)">
<path fill-rule="evenodd" clip-rule="evenodd" d="M134.923 46.6805V55.7656L133.709 55.9807L127.282 57.0833L109.059 60.2239V37.0058L116.665 35.6925V52.6909L127.282 50.8591V47.9965L119.201 35.2588L127.653 33.802L131.1 41.0451L134.587 32.6085L143.034 31.1529L134.923 46.6805ZM106.467 60.6916L98.524 62.0595L91.4243 50.3269C91.4243 50.3269 91.5916 52.8234 91.5916 54.5046V63.2548L84.153 64.5362V41.314L92.4363 39.8869L99.199 51.6807C99.199 51.6807 99.0297 49.1841 99.0297 47.5015V47.5001V38.7499L106.467 37.4711V60.6916ZM81.5625 64.9928L73.9207 66.3105V66.3076L66.7416 67.5444L65.8282 64.4366L59.1666 65.5814L58.2867 68.9986L53.2155 69.8683L50.3417 70.363L44.4262 71.3874L40.7062 64.2857L39.7242 64.4562V72.1958L32.0834 73.5133V50.2911L42.2269 48.5414C45.0998 48.0512 47.2973 48.1725 48.9909 49.0607C50.6806 49.9486 51.8623 51.7642 51.8623 54.2887C51.8623 58.9982 48.9909 61.1791 47.9761 61.9591L51.4048 67.1376L58.4557 45.7487L66.9099 44.2913L73.921 63.1558V43.0848L74.6599 42.9583L74.6595 42.9545V42.951L81.5625 41.7652V64.9928ZM28.0244 72.6963C26.5052 73.9709 24.1397 74.8814 21.9415 75.2571L8.23779 77.6048V72.118L10.4449 71.7529V59.5048L8.23779 59.8706V54.3847L20.0813 52.3578C22.1103 52.013 24.3084 51.8003 25.9976 52.1819C27.6891 52.5635 29.4466 53.9404 29.4466 56.6354C29.4466 59.3279 27.6891 61.4826 26.1663 62.3489L26.1649 62.351C28.8701 62.6253 30.6335 64.3421 30.6335 67.0348C30.6335 69.7262 29.547 71.4289 28.0244 72.6963ZM0 46.7881V87.6736L150 62.1213V21.0848L0 46.7881Z" fill="white"/>
</g>
</svg>
