<?xml version="1.0" encoding="UTF-8"?><svg id="Warstwa_1" xmlns="http://www.w3.org/2000/svg" viewBox="0 0 60 60"><defs><style>.cls-1{fill:#fdad31;}.cls-2{fill:#051344;}</style></defs><g><path class="cls-1" d="M4.68,13.77c1.55,0,2.81,1.26,2.81,2.81s-1.26,2.81-2.81,2.81-2.81-1.26-2.81-2.81,1.26-2.81,2.81-2.81m0-1.87C2.09,11.9,0,13.99,0,16.58s2.09,4.68,4.68,4.68,4.68-2.09,4.68-4.68-2.09-4.68-4.68-4.68h0Z"/><path class="cls-1" d="M4.68,26.86c1.55,0,2.81,1.26,2.81,2.81s-1.26,2.81-2.81,2.81-2.81-1.26-2.81-2.81,1.26-2.81,2.81-2.81m0-1.87C2.09,24.99,0,27.09,0,29.67s2.09,4.68,4.68,4.68,4.68-2.09,4.68-4.68-2.09-4.68-4.68-4.68h0Z"/><path class="cls-1" d="M4.68,39.96c1.55,0,2.81,1.26,2.81,2.81s-1.26,2.81-2.81,2.81-2.81-1.26-2.81-2.81,1.26-2.81,2.81-2.81m0-1.87C2.09,38.09,0,40.18,0,42.76s2.09,4.68,4.68,4.68,4.68-2.09,4.68-4.68-2.09-4.68-4.68-4.68h0Z"/><path class="cls-1" d="M17.77,13.77c1.55,0,2.81,1.26,2.81,2.81s-1.26,2.81-2.81,2.81-2.81-1.26-2.81-2.81,1.26-2.81,2.81-2.81m0-1.87c-2.58,0-4.68,2.09-4.68,4.68s2.09,4.68,4.68,4.68,4.68-2.09,4.68-4.68-2.09-4.68-4.68-4.68h0Z"/><path class="cls-1" d="M30.86,13.77c1.55,0,2.81,1.26,2.81,2.81s-1.26,2.81-2.81,2.81-2.81-1.26-2.81-2.81,1.26-2.81,2.81-2.81m0-1.87c-2.58,0-4.68,2.09-4.68,4.68s2.09,4.68,4.68,4.68,4.68-2.09,4.68-4.68-2.09-4.68-4.68-4.68h0Z"/><path class="cls-2" d="M29.69,40.26h0c1.32-1.61,2.11-3.67,2.11-5.92,0-5.16-4.19-9.35-9.35-9.35s-9.35,4.19-9.35,9.35,4.19,9.35,9.35,9.35c2.25,0,4.31-.79,5.92-2.11h0l6.51,6.51,1.32-1.32-6.51-6.51Zm-7.24,1.56c-4.13,0-7.48-3.36-7.48-7.48s3.36-7.48,7.48-7.48,7.48,3.36,7.48,7.48-3.36,7.48-7.48,7.48Z"/></g><g><path class="cls-1" d="M4.68,13.77c1.55,0,2.81,1.26,2.81,2.81s-1.26,2.81-2.81,2.81-2.81-1.26-2.81-2.81,1.26-2.81,2.81-2.81m0-1.87C2.09,11.9,0,13.99,0,16.58s2.09,4.68,4.68,4.68,4.68-2.09,4.68-4.68-2.09-4.68-4.68-4.68h0Z"/><path class="cls-1" d="M4.68,26.86c1.55,0,2.81,1.26,2.81,2.81s-1.26,2.81-2.81,2.81-2.81-1.26-2.81-2.81,1.26-2.81,2.81-2.81m0-1.87C2.09,24.99,0,27.09,0,29.67s2.09,4.68,4.68,4.68,4.68-2.09,4.68-4.68-2.09-4.68-4.68-4.68h0Z"/><path class="cls-1" d="M4.68,39.96c1.55,0,2.81,1.26,2.81,2.81s-1.26,2.81-2.81,2.81-2.81-1.26-2.81-2.81,1.26-2.81,2.81-2.81m0-1.87C2.09,38.09,0,40.18,0,42.76s2.09,4.68,4.68,4.68,4.68-2.09,4.68-4.68-2.09-4.68-4.68-4.68h0Z"/><path class="cls-1" d="M17.77,13.77c1.55,0,2.81,1.26,2.81,2.81s-1.26,2.81-2.81,2.81-2.81-1.26-2.81-2.81,1.26-2.81,2.81-2.81m0-1.87c-2.58,0-4.68,2.09-4.68,4.68s2.09,4.68,4.68,4.68,4.68-2.09,4.68-4.68-2.09-4.68-4.68-4.68h0Z"/><path class="cls-1" d="M30.86,13.77c1.55,0,2.81,1.26,2.81,2.81s-1.26,2.81-2.81,2.81-2.81-1.26-2.81-2.81,1.26-2.81,2.81-2.81m0-1.87c-2.58,0-4.68,2.09-4.68,4.68s2.09,4.68,4.68,4.68,4.68-2.09,4.68-4.68-2.09-4.68-4.68-4.68h0Z"/><path class="cls-2" d="M29.69,40.26h0c1.32-1.61,2.11-3.67,2.11-5.92,0-5.16-4.19-9.35-9.35-9.35s-9.35,4.19-9.35,9.35,4.19,9.35,9.35,9.35c2.25,0,4.31-.79,5.92-2.11h0l6.51,6.51,1.32-1.32-6.51-6.51Zm-7.24,1.56c-4.13,0-7.48-3.36-7.48-7.48s3.36-7.48,7.48-7.48,7.48,3.36,7.48,7.48-3.36,7.48-7.48,7.48Z"/></g><g><path class="cls-1" d="M4.68,13.77c1.55,0,2.81,1.26,2.81,2.81s-1.26,2.81-2.81,2.81-2.81-1.26-2.81-2.81,1.26-2.81,2.81-2.81m0-1.87C2.09,11.9,0,13.99,0,16.58s2.09,4.68,4.68,4.68,4.68-2.09,4.68-4.68-2.09-4.68-4.68-4.68h0Z"/><path class="cls-1" d="M4.68,26.86c1.55,0,2.81,1.26,2.81,2.81s-1.26,2.81-2.81,2.81-2.81-1.26-2.81-2.81,1.26-2.81,2.81-2.81m0-1.87C2.09,24.99,0,27.09,0,29.67s2.09,4.68,4.68,4.68,4.68-2.09,4.68-4.68-2.09-4.68-4.68-4.68h0Z"/><path class="cls-1" d="M4.68,39.96c1.55,0,2.81,1.26,2.81,2.81s-1.26,2.81-2.81,2.81-2.81-1.26-2.81-2.81,1.26-2.81,2.81-2.81m0-1.87C2.09,38.09,0,40.18,0,42.76s2.09,4.68,4.68,4.68,4.68-2.09,4.68-4.68-2.09-4.68-4.68-4.68h0Z"/><path class="cls-1" d="M17.77,13.77c1.55,0,2.81,1.26,2.81,2.81s-1.26,2.81-2.81,2.81-2.81-1.26-2.81-2.81,1.26-2.81,2.81-2.81m0-1.87c-2.58,0-4.68,2.09-4.68,4.68s2.09,4.68,4.68,4.68,4.68-2.09,4.68-4.68-2.09-4.68-4.68-4.68h0Z"/><path class="cls-1" d="M30.86,13.77c1.55,0,2.81,1.26,2.81,2.81s-1.26,2.81-2.81,2.81-2.81-1.26-2.81-2.81,1.26-2.81,2.81-2.81m0-1.87c-2.58,0-4.68,2.09-4.68,4.68s2.09,4.68,4.68,4.68,4.68-2.09,4.68-4.68-2.09-4.68-4.68-4.68h0Z"/><path class="cls-2" d="M29.69,40.26h0c1.32-1.61,2.11-3.67,2.11-5.92,0-5.16-4.19-9.35-9.35-9.35s-9.35,4.19-9.35,9.35,4.19,9.35,9.35,9.35c2.25,0,4.31-.79,5.92-2.11h0l6.51,6.51,1.32-1.32-6.51-6.51Zm-7.24,1.56c-4.13,0-7.48-3.36-7.48-7.48s3.36-7.48,7.48-7.48,7.48,3.36,7.48,7.48-3.36,7.48-7.48,7.48Z"/></g><g><path class="cls-1" d="M4.68,13.77c1.55,0,2.81,1.26,2.81,2.81s-1.26,2.81-2.81,2.81-2.81-1.26-2.81-2.81,1.26-2.81,2.81-2.81m0-1.87C2.09,11.9,0,13.99,0,16.58s2.09,4.68,4.68,4.68,4.68-2.09,4.68-4.68-2.09-4.68-4.68-4.68h0Z"/><path class="cls-1" d="M4.68,26.86c1.55,0,2.81,1.26,2.81,2.81s-1.26,2.81-2.81,2.81-2.81-1.26-2.81-2.81,1.26-2.81,2.81-2.81m0-1.87C2.09,24.99,0,27.09,0,29.67s2.09,4.68,4.68,4.68,4.68-2.09,4.68-4.68-2.09-4.68-4.68-4.68h0Z"/><path class="cls-1" d="M4.68,39.96c1.55,0,2.81,1.26,2.81,2.81s-1.26,2.81-2.81,2.81-2.81-1.26-2.81-2.81,1.26-2.81,2.81-2.81m0-1.87C2.09,38.09,0,40.18,0,42.76s2.09,4.68,4.68,4.68,4.68-2.09,4.68-4.68-2.09-4.68-4.68-4.68h0Z"/><path class="cls-1" d="M17.77,13.77c1.55,0,2.81,1.26,2.81,2.81s-1.26,2.81-2.81,2.81-2.81-1.26-2.81-2.81,1.26-2.81,2.81-2.81m0-1.87c-2.58,0-4.68,2.09-4.68,4.68s2.09,4.68,4.68,4.68,4.68-2.09,4.68-4.68-2.09-4.68-4.68-4.68h0Z"/><path class="cls-1" d="M30.86,13.77c1.55,0,2.81,1.26,2.81,2.81s-1.26,2.81-2.81,2.81-2.81-1.26-2.81-2.81,1.26-2.81,2.81-2.81m0-1.87c-2.58,0-4.68,2.09-4.68,4.68s2.09,4.68,4.68,4.68,4.68-2.09,4.68-4.68-2.09-4.68-4.68-4.68h0Z"/><path class="cls-2" d="M29.69,40.26h0c1.32-1.61,2.11-3.67,2.11-5.92,0-5.16-4.19-9.35-9.35-9.35s-9.35,4.19-9.35,9.35,4.19,9.35,9.35,9.35c2.25,0,4.31-.79,5.92-2.11h0l6.51,6.51,1.32-1.32-6.51-6.51Zm-7.24,1.56c-4.13,0-7.48-3.36-7.48-7.48s3.36-7.48,7.48-7.48,7.48,3.36,7.48,7.48-3.36,7.48-7.48,7.48Z"/></g></svg>