<svg width="700" height="546" viewBox="0 0 700 546" fill="none" xmlns="http://www.w3.org/2000/svg">
<g clip-path="url(#clip0_1508_20630)">
<path d="M213.725 477.954C234.64 468.55 229.242 433.323 203.109 423.46C176.382 413.373 171.059 453.106 186.196 470.771C192.118 477.683 202.414 483.039 213.725 477.954" fill="#373B78"/>
<path d="M134.082 319.045C187.546 425.638 322.025 493.621 448.899 434.876C644.822 344.159 636.195 142.263 548.107 102.095C486.007 73.7768 420.979 126.856 343.239 127.469C315.52 127.687 287.874 125.528 260.168 126.439C150.429 130.052 86.2871 223.751 134.082 319.045" fill="#262952"/>
<path d="M416.674 7.93351C378.866 16.1805 332.038 36.0416 306.854 74.7043C284.536 108.968 289.907 142.489 303.425 164.829C332.63 213.085 392.002 232.42 424.105 278.17C439.982 300.797 448.806 329.39 464.819 351.898C480.829 374.404 506.333 390.907 541.954 383.731C572.717 377.532 607.127 353.826 633.015 324.788C658.905 295.751 676.829 262.015 687.585 229.962C749.03 46.8242 570.316 -25.5783 416.674 7.93351Z" fill="#E9F2FF"/>
<path d="M548.108 102.094C486.008 73.7769 420.98 126.856 343.24 127.469C326.066 127.603 308.924 126.829 291.775 126.432C292.406 141.015 296.989 154.189 303.425 164.828C332.629 213.085 392.003 232.419 424.105 278.17C439.981 300.796 448.807 329.39 464.817 351.898C478.333 370.896 498.612 385.615 526.029 385.426C640.204 285.189 622.477 136.007 548.108 102.094" fill="#051344"/>
</g>
<defs>
<clipPath id="clip0_1508_20630">
<rect width="700" height="546" fill="white"/>
</clipPath>
</defs>
</svg>
