<svg width="80" height="37" viewBox="0 0 80 37" fill="none" xmlns="http://www.w3.org/2000/svg">
<path fill-rule="evenodd" clip-rule="evenodd" d="M28.7949 19.6733C28.6544 19.5872 28.4427 19.5556 28.0909 19.615L27.2871 19.748V21.3865L28.0909 21.2512C28.4427 21.1933 28.6686 21.0876 28.7949 20.9687V20.9687C28.9491 20.8357 29.1476 20.6646 29.1476 20.257C29.1476 19.8451 28.9363 19.7447 28.7949 19.6733Z" fill="#231F20"/>
<path fill-rule="evenodd" clip-rule="evenodd" d="M20.8291 23.8774C20.6364 23.7714 20.5083 23.7678 20.1878 23.8308L19.2251 24.0155V25.5913L20.1878 25.4061C20.5083 25.3444 20.6363 25.276 20.8291 25.0955L20.8288 25.0952C21.0207 24.9133 21.0856 24.6856 21.0856 24.4438C21.0856 24.1868 21.0208 23.9827 20.8291 23.8774Z" fill="#231F20"/>
<path fill-rule="evenodd" clip-rule="evenodd" d="M20.7617 21.546C21.0044 21.3401 21.0856 21.1328 21.0856 20.8588C21.0856 20.5681 21.0044 20.3874 20.7617 20.268C20.5196 20.1475 20.3582 20.1756 19.9532 20.2452L19.2251 20.3714V21.9873L19.9532 21.8625C20.3582 21.7925 20.5196 21.7484 20.7617 21.546Z" fill="#231F20"/>
<path fill-rule="evenodd" clip-rule="evenodd" d="M34.7294 20.7858L34.729 20.786L35.9693 20.5673L35.3487 18.3833L34.7294 20.7858Z" fill="#231F20"/>
<mask id="mask0_1508_20626" style="mask-type:alpha" maskUnits="userSpaceOnUse" x="12" y="7" width="57" height="25">
<path fill-rule="evenodd" clip-rule="evenodd" d="M12.4033 7.59912H68.2173V31.5982H12.4033V7.59912Z" fill="white"/>
</mask>
<g mask="url(#mask0_1508_20626)">
<path fill-rule="evenodd" clip-rule="evenodd" d="M62.6073 16.824V20.0984L62.1556 20.1759L59.7641 20.5733L52.9833 21.7052V13.3372L55.8136 12.8638V18.9902L59.7641 18.33V17.2983L56.7572 12.7075L59.9023 12.1825L61.1847 14.793L62.4821 11.7523L65.6252 11.2277L62.6073 16.824ZM52.0189 21.8737L49.0634 22.3667L46.4217 18.1382C46.4217 18.1382 46.4839 19.038 46.4839 19.6439V22.7975L43.7161 23.2594V14.8899L46.7982 14.3756L49.3146 18.6261C49.3146 18.6261 49.2516 17.7264 49.2516 17.1199V17.1194V13.9658L52.0189 13.5049V21.8737ZM42.7522 23.4239L39.9087 23.8989V23.8978L37.2374 24.3435L36.8975 23.2235L34.4188 23.6361L34.0914 24.8676L32.2044 25.1811L31.1351 25.3594L28.934 25.7286L27.5498 23.1691L27.1844 23.2305V26.0199L24.3413 26.4948V18.1253L28.1157 17.4947C29.1846 17.318 30.0023 17.3618 30.6325 17.6819C31.2612 18.0019 31.7009 18.6562 31.7009 19.5661C31.7009 21.2634 30.6325 22.0494 30.2549 22.3306L31.5307 24.1969L34.1543 16.4882L37.3 15.9629L39.9088 22.7619V15.5281L40.1837 15.4825L40.1836 15.4811V15.4799L42.7522 15.0525V23.4239ZM22.831 26.2003C22.2657 26.6597 21.3855 26.9879 20.5676 27.1233L15.4685 27.9694V25.9919L16.2898 25.8603V21.446L15.4685 21.5778V19.6007L19.8754 18.8702C20.6304 18.7459 21.4483 18.6692 22.0769 18.8068C22.7063 18.9443 23.3602 19.4405 23.3602 20.4118C23.3602 21.3822 22.7063 22.1588 22.1396 22.471L22.1391 22.4718C23.1457 22.5707 23.8018 23.1894 23.8018 24.1599C23.8018 25.1299 23.3976 25.7436 22.831 26.2003ZM12.4033 16.8628V31.5983L68.2173 22.389V7.59912L12.4033 16.8628Z" fill="#231F20"/>
</g>
</svg>
