<svg width="90" height="24" viewBox="0 0 90 24" fill="none" xmlns="http://www.w3.org/2000/svg">
<path fill-rule="evenodd" clip-rule="evenodd" d="M13.7775 2.86779C13.4317 3.07301 13.0475 3.32992 12.6696 3.59604C11.9647 4.09229 11.3794 4.60083 11.0984 5.45418C10.7396 6.54292 12.2083 7.29959 13.0126 6.9584C13.8739 6.59329 14.2633 6.58737 15.0755 6.44953C15.8752 6.31389 16.731 6.43197 17.5192 6.26517C17.5702 6.2543 18.2342 6.08695 18.2207 6.0673C17.2959 4.72681 16.167 3.26725 14.8304 2.22778C14.8351 2.28737 14.1215 2.66357 13.7775 2.86779Z" fill="#383B78"/>
<path fill-rule="evenodd" clip-rule="evenodd" d="M11.1181 0.623772C10.1247 0.637583 9.29312 0.843024 8.59567 1.27149C7.9701 1.65627 7.43046 2.21432 6.98214 2.94588C5.84327 4.80068 4.68246 6.1859 2.84427 7.63305C2.73858 7.71624 2.95281 7.55094 2.84427 7.63305C2.71543 7.73059 2.33295 8.00779 2.2085 8.11062C3.4998 7.59475 4.97143 7.2363 6.24331 6.67123C7.04733 6.31398 7.82029 5.89155 8.56823 5.432C9.80598 4.67099 10.6201 3.41093 11.8226 2.6115C12.4982 2.16285 13.5627 1.42536 13.8036 1.34217C12.9753 0.890284 12.0851 0.610068 11.1181 0.623772Z" fill="#383B78"/>
<path fill-rule="evenodd" clip-rule="evenodd" d="M38.6388 16.6676V9.95226C38.6388 9.12646 38.1655 8.4072 36.9823 8.4072C36.3086 8.4072 35.7989 8.61859 35.3432 9.0572V16.6676H33.123V9.89872C33.123 8.9873 32.4858 8.39031 31.2852 8.39031C30.6298 8.39031 30.2653 8.4789 29.8275 8.6548V16.6676H27.6074V7.72353C28.5905 7.26877 29.6462 7.04102 31.2852 7.04102C32.8686 7.04102 33.7785 7.47952 34.3426 8.07534C34.9986 7.49641 36.0003 7.04102 37.4932 7.04102C39.8221 7.04102 40.859 8.44395 40.859 9.93357V16.6676H38.6388Z" fill="#383B78"/>
<path fill-rule="evenodd" clip-rule="evenodd" d="M44.1717 5.44607C43.561 5.44607 43.0674 4.9655 43.0674 4.37995C43.0674 3.77611 43.561 3.29736 44.1717 3.29736C44.7972 3.29736 45.276 3.77611 45.276 4.37995C45.276 4.9655 44.7972 5.44607 44.1717 5.44607ZM43.1653 16.6676H45.1765V7.09721H43.1653V16.6676Z" fill="#383B78"/>
<path fill-rule="evenodd" clip-rule="evenodd" d="M53.0845 20.4112V16.4026C52.6437 16.6299 52.0449 16.7886 51.2701 16.7886C49.0164 16.7886 47.4849 15.003 47.4849 12.1679C47.4849 9.24552 48.8573 7.04102 52.08 7.04102C53.5243 7.04102 54.5809 7.35546 55.2149 7.72207V20.4112H53.0845ZM53.0845 8.4928C52.8022 8.35276 52.4331 8.30049 51.9759 8.30049C50.3549 8.30049 49.6145 9.66513 49.6145 12.0284C49.6145 14.2336 50.2841 15.4936 51.8525 15.4936C52.3619 15.4936 52.7846 15.3715 53.0845 15.1955V8.4928Z" fill="#383B78"/>
<path fill-rule="evenodd" clip-rule="evenodd" d="M61.3075 16.6676C58.6311 16.6676 57.4233 15.5638 57.4233 13.4825V7.04102H59.6896V13.6044C59.6896 14.4966 60.2119 15.1982 61.381 15.1982C62.0315 15.1982 62.4961 15.093 62.887 14.8826V7.04102H65.1534V15.9149C64.3183 16.3346 63.0542 16.6676 61.3075 16.6676Z" fill="#383B78"/>
<path fill-rule="evenodd" clip-rule="evenodd" d="M68.4655 5.44607C67.857 5.44607 67.3618 4.9655 67.3618 4.37995C67.3618 3.77611 67.857 3.29736 68.4655 3.29736C69.0921 3.29736 69.5704 3.77611 69.5704 4.37995C69.5704 4.9655 69.0921 5.44607 68.4655 5.44607ZM67.4607 16.6676H69.4708V7.09721H67.4607V16.6676Z" fill="#383B78"/>
<path fill-rule="evenodd" clip-rule="evenodd" d="M76.1995 16.6675C73.3999 16.6675 71.7793 14.8847 71.7793 11.8931C71.7793 8.81368 73.4696 6.97814 75.9352 6.97814C76.4638 6.97814 76.9373 7.03038 77.3619 7.15235V2.76245H79.5094V15.9862C78.7522 16.4061 77.6782 16.6675 76.1995 16.6675ZM77.3619 8.30719C77.0607 8.22009 76.7445 8.1846 76.41 8.1846C74.5442 8.1846 73.9098 9.77621 73.9098 11.7705C73.9098 13.9035 74.5968 15.3029 76.2515 15.3029C76.7631 15.3029 77.1134 15.2512 77.3619 15.0939V8.30719Z" fill="#383B78"/>
<path fill-rule="evenodd" clip-rule="evenodd" d="M85.8589 16.6676C83.0673 16.6676 81.7178 14.6009 81.7178 11.8623C81.7178 9.0893 83.0673 7.04102 85.8589 7.04102C88.6687 7.04102 90 9.0893 90 11.8623C90 14.6009 88.6508 16.6676 85.8589 16.6676ZM85.8589 8.36627C84.2688 8.36627 83.9544 10.0715 83.9544 11.8457C83.9544 13.6024 84.3074 15.2393 85.8589 15.2393C87.4664 15.2393 87.7637 13.6024 87.7637 11.8457C87.7637 10.0715 87.4664 8.36627 85.8589 8.36627Z" fill="#383B78"/>
<path fill-rule="evenodd" clip-rule="evenodd" d="M2.69979 13.9678C5.23604 13.8268 7.73365 13.1543 10.0136 12.3197C11.3683 11.8237 12.6103 10.8852 14.0154 10.5307C15.5828 10.1352 16.5944 9.88747 18.307 9.95082C19.0777 9.97929 19.3822 10.2037 20.26 10.0913C20.6286 10.0441 20.9765 9.83064 20.9816 9.82818C20.5058 9.02773 19.9745 8.22385 19.4576 7.45785C19.3407 7.38304 18.4423 7.24478 17.9071 7.2298C16.8285 7.20059 16.0371 7.23547 15.019 7.57802C14.0846 7.89339 13.3447 8.68999 12.2709 8.26569C11.307 7.88451 11.3311 6.6606 10.1659 6.51677C9.30302 6.41008 8.23068 7.13199 7.45513 7.41023C5.71084 8.03679 4.1942 9.13741 2.44263 9.74653C2.12295 9.85654 1.52078 10.0166 1.021 10.0931C0.883062 10.1142 0.701972 10.1394 0.536184 10.1564C0.247872 10.5833 0.0567642 11.0607 0.00909738 11.64C-0.0764386 12.6732 0.456152 13.2162 0.978175 13.8794C1.34729 14.0162 1.98721 14.0077 2.69979 13.9678Z" fill="#383B78"/>
<path fill-rule="evenodd" clip-rule="evenodd" d="M16.5625 17.2048C16.4108 17.3305 16.1032 17.5079 15.9449 17.6092C15.0331 18.2045 14.1146 18.7938 13.153 19.3387C11.1363 20.4816 8.55151 21.8342 5.98321 20.8133C5.22856 20.5122 3.498 19.3132 3.31299 19.0019C3.77584 20.2094 4.48245 21.3666 5.45544 22.2126C7.6244 24.0988 10.8788 22.553 12.7739 21.0977C14.2227 19.9836 15.3558 18.5686 16.5625 17.2048C16.5698 17.1964 16.5545 17.2135 16.5625 17.2048Z" fill="#383B78"/>
<path fill-rule="evenodd" clip-rule="evenodd" d="M19.469 14.319C20.853 13.3295 22.149 12.3019 21.2191 10.5102C21.1913 10.4567 21.1072 10.3035 21.0788 10.2498C20.8574 10.3941 20.6265 10.6515 20.2317 10.7195C19.7285 10.8062 18.9491 10.6824 18.3933 10.6605C17.4901 10.6246 16.8334 10.5614 15.9394 10.7339C14.063 11.0974 12.5559 12.0695 10.9716 12.916C9.80746 13.5369 8.77116 14.5283 7.51014 14.9866C5.98564 15.5406 4.54006 15.3823 2.94267 15.401C2.70174 15.4038 2.45329 15.4001 2.2085 15.391C2.52147 16.1482 2.68424 16.6357 2.89435 17.3422C2.91357 17.3529 2.92903 17.3634 2.92903 17.3634C3.53393 17.7231 4.5494 18.2929 5.26189 18.4387C6.57326 18.7063 7.86563 18.8868 9.19021 18.771C11.4049 18.5771 13.7188 17.4978 15.5766 16.5344C16.0611 16.2829 16.8684 15.848 17.3789 15.5704C17.6847 15.4044 18.0824 15.1913 18.3881 14.9931L19.469 14.319Z" fill="#383B78"/>
</svg>
