<svg width="200" height="200" viewBox="0 0 200 200" fill="none" xmlns="http://www.w3.org/2000/svg">
<path d="M63.9197 103.148C63.9147 103.45 63.6664 103.692 63.3642 103.688H53.1327C53.395 106.219 55.2932 108.534 57.9784 108.534C59.8148 108.534 61.1728 107.839 62.1913 106.373C62.2876 106.217 62.4553 106.119 62.6389 106.111C62.9123 106.103 63.1403 106.319 63.1481 106.592C63.1484 106.602 63.1484 106.611 63.1481 106.62C63.1485 106.713 63.1217 106.805 63.071 106.883C62.037 108.673 59.9845 109.552 57.9784 109.552C54.537 109.552 52.0679 106.466 52.0679 103.179C52.0679 99.892 54.5216 96.8055 57.9784 96.8055C61.4352 96.8055 63.9043 99.8611 63.9197 103.148H63.9197H63.9197ZM62.8241 102.67C62.608 100.139 60.6636 97.8241 57.9784 97.8241C55.2932 97.8241 53.395 100.139 53.1327 102.67H62.8241H62.8241Z" fill="#3B3B3B"/>
<path d="M76.358 97.0525C76.6358 97.0606 76.8592 97.2839 76.8673 97.5618C76.875 97.8352 76.6597 98.0633 76.3862 98.071C76.3768 98.0713 76.3674 98.0713 76.358 98.071H73.6111V108.858C73.6086 109.138 73.382 109.365 73.1018 109.367C72.824 109.359 72.6006 109.136 72.5926 108.858V98.071H69.9537C69.6802 98.0788 69.4522 97.8634 69.4444 97.59C69.4441 97.5806 69.4441 97.5712 69.4444 97.5618C69.4469 97.2816 69.6735 97.055 69.9537 97.0525H72.5926V93.1173C72.5931 92.8479 72.7894 92.6189 73.0555 92.5772C73.3318 92.5405 73.5855 92.7347 73.6222 93.011C73.6255 93.036 73.627 93.0612 73.6265 93.0865V97.0525H76.358Z" fill="#3B3B3B"/>
<path d="M93.1019 102.269V108.796C93.0938 109.074 92.8705 109.298 92.5926 109.306C92.3191 109.313 92.0911 109.098 92.0833 108.824C92.0831 108.815 92.0831 108.806 92.0833 108.796V102.269C92.0833 100.062 90.8333 97.8704 88.3796 97.8704C85.2315 97.8704 83.8735 100.617 84.0586 103.441C84.0586 103.519 84.0895 103.843 84.0895 103.889V108.781C84.089 109.05 83.8927 109.279 83.6266 109.321C83.3503 109.358 83.0966 109.163 83.0599 108.887C83.0566 108.862 83.0551 108.837 83.0556 108.812V87.3457C83.0581 87.0655 83.2846 86.8389 83.5648 86.8364C83.8427 86.8445 84.066 87.0678 84.0741 87.3457V99.4753C84.9537 97.9012 86.5278 96.8364 88.3642 96.8364C91.3889 96.8364 93.1019 99.4753 93.1019 102.269Z" fill="#3B3B3B"/>
<path d="M111.481 103.148C111.476 103.45 111.228 103.692 110.926 103.688H100.694C100.957 106.219 102.855 108.534 105.54 108.534C107.377 108.534 108.735 107.839 109.753 106.373C109.849 106.217 110.017 106.119 110.201 106.111C110.474 106.103 110.702 106.319 110.71 106.592C110.71 106.602 110.71 106.611 110.71 106.62C110.71 106.713 110.683 106.805 110.633 106.883C109.599 108.673 107.546 109.552 105.54 109.552C102.099 109.552 99.6296 106.466 99.6296 103.179C99.6296 99.892 102.083 96.8055 105.54 96.8055C108.966 96.8055 111.466 99.8611 111.481 103.148ZM110.37 102.67C110.154 100.139 108.21 97.8241 105.525 97.8241C102.839 97.8241 100.941 100.139 100.679 102.67H110.37Z" fill="#3B3B3B"/>
<path d="M124.059 97.5309C124.079 97.8161 123.865 98.0642 123.58 98.0864C120.571 98.534 119.213 100.988 119.213 103.843V108.735C119.212 109.004 119.016 109.233 118.75 109.275C118.474 109.311 118.22 109.117 118.183 108.841C118.18 108.816 118.179 108.791 118.179 108.765V97.608C118.18 97.3387 118.376 97.1097 118.642 97.0679C118.918 97.0312 119.172 97.2254 119.209 97.5017C119.212 97.5267 119.213 97.552 119.213 97.5772V99.8457C120.062 98.4105 121.744 97.0525 123.503 97.0525C123.765 97.0525 124.059 97.2377 124.059 97.5309Z" fill="#3B3B3B"/>
<path d="M140.88 103.148C140.875 103.45 140.626 103.692 140.324 103.688H130.093C130.355 106.219 132.253 108.534 134.938 108.534C136.775 108.534 138.133 107.839 139.151 106.373C139.248 106.217 139.415 106.119 139.599 106.111C139.872 106.103 140.1 106.319 140.108 106.592C140.108 106.602 140.108 106.611 140.108 106.62C140.108 106.713 140.082 106.805 140.031 106.883C138.997 108.673 136.944 109.552 134.938 109.552C131.497 109.552 129.028 106.466 129.028 103.179C129.028 99.892 131.481 96.8055 134.938 96.8055C138.395 96.8055 140.864 99.8611 140.88 103.148ZM139.784 102.67C139.568 100.139 137.623 97.8241 134.938 97.8241C132.253 97.8241 130.355 100.139 130.093 102.67H139.784Z" fill="#3B3B3B"/>
<path d="M157.423 97.6543V108.858C157.415 109.136 157.191 109.359 156.914 109.367C156.64 109.375 156.412 109.16 156.404 108.886C156.404 108.877 156.404 108.867 156.404 108.858V106.728C155.556 108.411 154.059 109.63 152.145 109.63C149.105 109.63 147.423 106.991 147.423 104.198V97.6389C147.425 97.3587 147.652 97.1322 147.932 97.1296C148.21 97.1377 148.433 97.3611 148.441 97.6389V104.198C148.441 106.404 149.691 108.596 152.145 108.596C155.586 108.596 156.404 105.37 156.404 101.806V97.6235C156.408 97.338 156.643 97.1098 156.928 97.1137C156.987 97.1145 157.044 97.1251 157.099 97.1451C157.297 97.2371 157.423 97.4359 157.423 97.6543Z" fill="#3B3B3B"/>
<path d="M183.333 102.222V108.781C183.325 109.059 183.102 109.282 182.824 109.29C182.551 109.298 182.323 109.083 182.315 108.809C182.315 108.8 182.315 108.79 182.315 108.781V102.222C182.315 100.015 181.065 97.8549 178.611 97.8549C175.525 97.8549 174.352 101.157 174.352 103.719V108.781C174.344 109.059 174.12 109.282 173.843 109.29C173.569 109.298 173.341 109.083 173.333 108.809C173.333 108.8 173.333 108.79 173.333 108.781V102.222C173.333 100.015 172.083 97.8549 169.63 97.8549C166.512 97.8549 165.231 100.309 165.339 103.58C165.339 103.657 165.37 103.796 165.339 103.843V108.765C165.339 109.035 165.143 109.264 164.877 109.306C164.6 109.342 164.347 109.148 164.31 108.872C164.307 108.847 164.305 108.822 164.306 108.796V97.608C164.306 97.3387 164.502 97.1096 164.769 97.0679C165.045 97.0312 165.298 97.2254 165.335 97.5017C165.339 97.5267 165.34 97.5519 165.339 97.5772V99.4444C166.219 97.8704 167.793 96.8364 169.63 96.8364C171.713 96.8364 173.333 98.1636 173.997 100.093C174.846 98.179 176.497 96.8364 178.611 96.8364C181.62 96.8364 183.333 99.4444 183.333 102.222H183.333V102.222Z" fill="#3B3B3B"/>
<path opacity="0.6" d="M29.4753 94.5679L16.6667 100.386L29.4753 107.963L42.2994 100.386L29.4753 94.5679Z" fill="black"/>
<path opacity="0.45" d="M16.6667 100.386L29.4753 107.963V79.1204L16.6667 100.386Z" fill="black"/>
<path opacity="0.8" d="M29.4753 79.1204V107.963L42.2994 100.386L29.4753 79.1204Z" fill="black"/>
<path opacity="0.45" d="M16.6667 102.824L29.4753 120.88V110.386L16.6667 102.824Z" fill="black"/>
<path opacity="0.8" d="M29.4753 110.386V120.88L42.2994 102.824L29.4753 110.386Z" fill="black"/>
</svg>
