<svg width="200" height="200" viewBox="0 0 200 200" fill="none" xmlns="http://www.w3.org/2000/svg">
<path d="M32.4851 90.4809C32.2335 90.4809 32.1706 90.3551 32.2964 90.1664L33.6173 88.468C33.7432 88.2793 34.0577 88.1534 34.3093 88.1534H56.7659C57.0175 88.1534 57.0805 88.3422 56.9546 88.5309L55.8853 90.1664C55.7595 90.3551 55.445 90.5438 55.2562 90.5438L32.4851 90.4809H32.4851Z" fill="#00ACD7"/>
<path d="M22.9866 96.268C22.735 96.268 22.6721 96.1422 22.7979 95.9535L24.1189 94.2551C24.2447 94.0664 24.5592 93.9406 24.8108 93.9406H53.4949C53.7465 93.9406 53.8723 94.1293 53.8094 94.318L53.3062 95.8277C53.2433 96.0793 52.9917 96.2051 52.7401 96.2051L22.9866 96.268L22.9866 96.268Z" fill="#00ACD7"/>
<path d="M38.2093 102.055C37.9577 102.055 37.8948 101.867 38.0206 101.678L38.9013 100.105C39.0271 99.9165 39.2787 99.7278 39.5303 99.7278H52.111C52.3627 99.7278 52.4885 99.9165 52.4885 100.168L52.3627 101.678C52.3627 101.929 52.111 102.118 51.9223 102.118L38.2093 102.055V102.055Z" fill="#00ACD7"/>
<path d="M103.503 89.3486C99.5405 90.355 96.8356 91.1099 92.9356 92.1164C91.992 92.368 91.9291 92.4309 91.1114 91.4873C90.1678 90.418 89.4759 89.726 88.1549 89.097C84.192 87.147 80.3548 87.7131 76.7693 90.0405C72.4919 92.8083 70.2902 96.897 70.3531 101.992C70.416 107.025 73.8758 111.176 78.8452 111.868C83.1226 112.434 86.7081 110.925 89.5388 107.716C90.1049 107.025 90.6082 106.27 91.2372 105.389H79.0968C77.7758 105.389 77.4613 104.571 77.9016 103.502C78.7193 101.552 80.229 98.2809 81.1097 96.6454C81.2984 96.268 81.7387 95.639 82.6823 95.639H105.579C105.453 97.3374 105.453 99.0358 105.202 100.734C104.51 105.263 102.811 109.415 100.044 113.063C95.5146 119.039 89.6017 122.75 82.1161 123.757C75.9516 124.575 70.2273 123.38 65.195 119.605C60.5401 116.083 57.8982 111.428 57.2062 105.641C56.3885 98.7842 58.4014 92.6196 62.5531 87.2099C67.0192 81.3598 72.9322 77.6485 80.1661 76.3275C86.0791 75.2582 91.7404 75.9501 96.8356 79.4098C100.17 81.6114 102.56 84.6308 104.132 88.2792C104.51 88.8454 104.258 89.1599 103.503 89.3486V89.3486Z" fill="#00ACD7"/>
<path d="M124.325 124.134C118.6 124.009 113.379 122.373 108.976 118.599C105.265 115.391 102.937 111.302 102.182 106.458C101.05 99.3503 103 93.06 107.278 87.4615C111.87 81.4228 117.405 78.2776 124.891 76.9566C131.307 75.8243 137.346 76.4534 142.818 80.1647C147.788 83.5615 150.87 88.1535 151.688 94.1922C152.757 102.684 150.304 109.604 144.454 115.517C140.302 119.731 135.207 122.373 129.357 123.568C127.658 123.883 125.96 123.946 124.325 124.134ZM139.296 98.7213C139.233 97.9036 139.233 97.2745 139.107 96.6455C137.975 90.418 132.25 86.8954 126.275 88.2793C120.425 89.6003 116.65 93.3116 115.266 99.2245C114.134 104.131 116.525 109.1 121.054 111.113C124.513 112.623 127.973 112.434 131.307 110.736C136.276 108.157 138.981 104.131 139.296 98.7213Z" fill="#00ACD7"/>
</svg>
