<svg width="72" height="72" viewBox="0 0 72 72" fill="none" xmlns="http://www.w3.org/2000/svg">
<circle cx="36" cy="36" r="36" fill="#D9E8FF"/>
<path d="M45.1406 21.9375C45.5578 21.9375 45.9657 22.0612 46.3125 22.293C46.6594 22.5248 46.9298 22.8542 47.0894 23.2397C47.2491 23.6251 47.2909 24.0492 47.2095 24.4584C47.1281 24.8676 46.9272 25.2434 46.6322 25.5384C46.3372 25.8334 45.9613 26.0343 45.5522 26.1157C45.143 26.1971 44.7188 26.1553 44.3334 25.9957C43.948 25.836 43.6185 25.5657 43.3867 25.2188C43.155 24.8719 43.0313 24.4641 43.0313 24.0469C43.0313 23.4874 43.2535 22.9509 43.6491 22.5553C44.0447 22.1597 44.5812 21.9375 45.1406 21.9375ZM45.1406 20.5312C44.4453 20.5312 43.7656 20.7374 43.1875 21.1237C42.6093 21.51 42.1587 22.0591 41.8926 22.7015C41.6265 23.3439 41.5569 24.0508 41.6926 24.7327C41.8282 25.4147 42.163 26.0411 42.6547 26.5328C43.1464 27.0245 43.7728 27.3593 44.4548 27.4949C45.1367 27.6306 45.8436 27.561 46.486 27.2949C47.1284 27.0288 47.6775 26.5782 48.0638 26.0001C48.4501 25.4219 48.6563 24.7422 48.6563 24.0469C48.6563 23.1145 48.2859 22.2203 47.6266 21.561C46.9672 20.9016 46.073 20.5312 45.1406 20.5312Z" fill="#FDAD31"/>
<path d="M26.8594 21.9375C27.2766 21.9375 27.6844 22.0612 28.0313 22.293C28.3782 22.5248 28.6485 22.8542 28.8082 23.2397C28.9678 23.6251 29.0096 24.0492 28.9282 24.4584C28.8468 24.8676 28.6459 25.2434 28.3509 25.5384C28.0559 25.8334 27.6801 26.0343 27.2709 26.1157C26.8617 26.1971 26.4376 26.1553 26.0522 25.9957C25.6667 25.836 25.3373 25.5657 25.1055 25.2188C24.8737 24.8719 24.75 24.4641 24.75 24.0469C24.75 23.4874 24.9722 22.9509 25.3678 22.5553C25.7634 22.1597 26.2999 21.9375 26.8594 21.9375ZM26.8594 20.5312C26.1641 20.5312 25.4843 20.7374 24.9062 21.1237C24.3281 21.51 23.8775 22.0591 23.6114 22.7015C23.3453 23.3439 23.2757 24.0508 23.4113 24.7327C23.547 25.4147 23.8818 26.0411 24.3735 26.5328C24.8651 27.0245 25.4915 27.3593 26.1735 27.4949C26.8555 27.6306 27.5624 27.561 28.2047 27.2949C28.8471 27.0288 29.3962 26.5782 29.7825 26.0001C30.1688 25.4219 30.375 24.7422 30.375 24.0469C30.375 23.1145 30.0046 22.2203 29.3453 21.561C28.686 20.9016 27.7918 20.5313 26.8594 20.5312Z" fill="#FDAD31"/>
<path d="M36 21.9375C36.4172 21.9375 36.825 22.0612 37.1719 22.293C37.5188 22.5248 37.7892 22.8542 37.9488 23.2397C38.1085 23.6251 38.1502 24.0492 38.0688 24.4584C37.9875 24.8676 37.7866 25.2434 37.4916 25.5384C37.1966 25.8334 36.8207 26.0343 36.4115 26.1157C36.0023 26.1971 35.5782 26.1553 35.1928 25.9957C34.8073 25.836 34.4779 25.5657 34.2461 25.2188C34.0143 24.8719 33.8906 24.4641 33.8906 24.0469C33.8906 23.4874 34.1129 22.9509 34.5084 22.5553C34.904 22.1597 35.4406 21.9375 36 21.9375ZM36 20.5312C35.3047 20.5312 34.625 20.7374 34.0468 21.1237C33.4687 21.51 33.0181 22.0591 32.752 22.7015C32.4859 23.3439 32.4163 24.0508 32.5519 24.7327C32.6876 25.4147 33.0224 26.0411 33.5141 26.5328C34.0057 27.0245 34.6322 27.3593 35.3141 27.4949C35.9961 27.6306 36.703 27.561 37.3454 27.2949C37.9878 27.0288 38.5368 26.5782 38.9231 26.0001C39.3094 25.4219 39.5156 24.7422 39.5156 24.0469C39.5156 23.1145 39.1452 22.2203 38.4859 21.561C37.8266 20.9016 36.9324 20.5312 36 20.5312Z" fill="#FDAD31"/>
<path d="M42.9976 40.2188C43.4148 40.2188 43.8226 40.3425 44.1695 40.5742C44.5163 40.806 44.7867 41.1355 44.9464 41.5209C45.106 41.9063 45.1478 42.3305 45.0664 42.7396C44.985 43.1488 44.7841 43.5247 44.4891 43.8197C44.1941 44.1147 43.8183 44.3156 43.4091 44.397C42.9999 44.4784 42.5758 44.4366 42.1903 44.2769C41.8049 44.1173 41.4755 43.8469 41.2437 43.5C41.0119 43.1531 40.8882 42.7453 40.8882 42.3281C40.8889 41.7689 41.1114 41.2328 41.5068 40.8374C41.9023 40.442 42.4383 40.2195 42.9976 40.2188ZM42.9976 38.8125C42.3022 38.8125 41.6225 39.0187 41.0444 39.405C40.4662 39.7913 40.0156 40.3404 39.7495 40.9828C39.4835 41.6251 39.4138 42.332 39.5495 43.014C39.6851 43.696 40.02 44.3224 40.5116 44.814C41.0033 45.3057 41.6297 45.6405 42.3117 45.7762C42.9937 45.9119 43.7005 45.8422 44.3429 45.5761C44.9853 45.3101 45.5344 44.8594 45.9207 44.2813C46.307 43.7032 46.5132 43.0235 46.5132 42.3281C46.5132 41.3957 46.1428 40.5015 45.4835 39.8422C44.8242 39.1829 43.93 38.8125 42.9976 38.8125Z" fill="#FDAD31"/>
<path d="M45.1406 28.9688C43.4965 28.9667 41.8949 29.491 40.5703 30.465C39.2447 29.493 37.6438 28.9689 36 28.9689C34.3562 28.9689 32.7553 29.493 31.4297 30.465C30.2773 29.6197 28.9131 29.1103 27.4887 28.9934C26.0642 28.8766 24.6353 29.1568 23.3605 29.8031C22.0857 30.4494 21.015 31.4364 20.2674 32.6544C19.5197 33.8725 19.1243 35.2739 19.125 36.7032V48.6563H28.2656V51.4688H43.7344V48.6563H52.875V36.7032C52.875 34.6519 52.0601 32.6846 50.6096 31.2341C49.1592 29.7836 47.1919 28.9688 45.1406 28.9688ZM28.2656 47.25H20.5313V36.7032C20.5301 35.5597 20.8391 34.4373 21.4253 33.4555C22.0115 32.4737 22.8531 31.6693 23.8602 31.1279C24.8674 30.5865 26.0026 30.3284 27.1449 30.381C28.2872 30.4337 29.3938 30.7951 30.3469 31.4269C29.0073 32.857 28.2631 34.7437 28.2656 36.7032V47.25ZM51.4687 47.25H43.7344V45.765C43.4922 45.817 43.2452 45.8434 42.9975 45.8438C42.7728 45.8438 42.5486 45.8222 42.3281 45.7791V50.0625H29.6719V36.7032C29.6719 35.0248 30.3386 33.4152 31.5253 32.2285C32.7121 31.0417 34.3217 30.375 36 30.375C37.6783 30.375 39.2879 31.0417 40.4747 32.2285C41.6614 33.4152 42.3281 35.0248 42.3281 36.7032V38.8772C42.5486 38.8341 42.7728 38.8125 42.9975 38.8125C43.2452 38.8129 43.4922 38.8393 43.7344 38.8913V36.7032C43.7369 34.7437 42.9927 32.857 41.6531 31.4269C42.6062 30.7951 43.7128 30.4337 44.8551 30.381C45.9974 30.3284 47.1326 30.5865 48.1397 31.1279C49.1469 31.6693 49.9885 32.4737 50.5747 33.4555C51.1609 34.4373 51.4699 35.5597 51.4687 36.7032V47.25Z" fill="#051344"/>
</svg>
