<svg width="72" height="72" viewBox="0 0 72 72" fill="none" xmlns="http://www.w3.org/2000/svg">
<circle cx="36" cy="36" r="36" fill="#D9E8FF"/>
<path d="M49.0161 33.0412C48.9261 31.7024 48.3749 30.4874 47.5086 29.5424C47.3961 30.1049 47.1486 30.6112 46.8111 31.0499C47.9024 32.6587 47.8124 34.8524 46.4511 36.3487L45.7424 37.1249L46.2599 38.0587C46.6424 38.7449 46.8449 39.5212 46.8449 40.3087C46.8449 44.2687 44.2574 47.4862 41.0624 47.4862C39.3299 47.4862 37.7886 46.5412 36.7311 45.0562V27.3712H36.7536C36.9336 25.7512 38.3061 24.4912 39.9824 24.5137C40.0049 24.5137 40.0274 24.5137 40.0499 24.5137C40.9949 24.5249 41.8274 24.9299 42.4124 25.5712C42.8736 25.3574 43.3799 25.2224 43.9199 25.2224C43.9311 25.2224 43.9424 25.2224 43.9536 25.2224C43.1099 23.9174 41.6474 23.0512 39.9824 23.0624C38.2836 23.0624 36.8099 23.9849 35.9999 25.3462C35.1899 23.9849 33.7161 23.0624 32.0174 23.0624C29.4411 23.0399 27.3261 25.0987 27.2924 27.6749V27.8549C24.8736 28.4737 23.1636 30.5887 22.9836 33.0524V33.7837C23.0624 35.1562 23.6136 36.4049 24.4799 37.3612C23.9961 38.2162 23.7036 39.2287 23.7036 40.3199C23.7036 45.0899 26.9436 48.9487 30.9374 48.9487C32.9061 48.9487 34.6949 48.0037 35.9999 46.4737C37.3049 48.0037 39.0936 48.9487 41.0624 48.9487C45.0561 48.9487 48.2961 45.0899 48.2961 40.3199H48.3299C48.3299 39.2737 48.0711 38.2499 47.5536 37.3499C48.4311 36.3937 48.9374 35.1674 49.0161 33.8737V33.0412ZM30.9374 47.4862C27.7424 47.4862 25.1549 44.2687 25.1549 40.3087C25.0199 38.1712 26.6286 36.3262 28.7661 36.1687V34.7174C27.4836 34.7174 26.3249 35.2687 25.4249 36.1349C25.0761 35.6962 24.8061 35.1674 24.6599 34.5937C24.2324 33.0074 24.7611 31.4212 25.8749 30.3637V30.2512H25.9986C26.4824 29.8237 27.0561 29.4974 27.7086 29.3174L28.7661 28.9462V27.7312V27.3712H28.7999C28.9911 25.7512 30.3524 24.5024 32.0286 24.5137H32.0511C33.2436 24.5024 34.3349 25.1437 34.9086 26.1899C35.1111 26.5724 35.2349 26.9662 35.2799 27.3712V45.0337C34.2224 46.5299 32.6699 47.4862 30.9374 47.4862Z" fill="#051344"/>
<path d="M42.4125 25.5712C41.175 26.1562 40.3087 27.4162 40.3312 28.8787C40.3537 30.8812 41.985 32.49 43.9875 32.4675C45.1462 32.4562 46.1587 31.8937 46.8112 31.05C47.1487 30.6112 47.3962 30.105 47.5087 29.5425C47.5537 29.3062 47.5762 29.0587 47.5762 28.8112C47.565 26.82 45.945 25.2112 43.9537 25.2225C43.9425 25.2225 43.9312 25.2225 43.92 25.2225C43.38 25.2225 42.8737 25.3575 42.4125 25.5712ZM46.125 28.8112C46.125 29.9925 45.18 30.9487 43.9987 30.96C42.8175 30.9712 41.8387 30.015 41.8275 28.8337C41.8162 27.6525 42.7725 26.6737 43.9537 26.6625C45.1462 26.6625 46.1137 27.6187 46.125 28.8112Z" fill="#FDAD31"/>
</svg>
