<svg width="72" height="72" viewBox="0 0 72 72" fill="none" xmlns="http://www.w3.org/2000/svg">
<circle cx="36" cy="36" r="36" fill="#D9E8FF"/>
<path d="M48.6141 21.2345C48.6282 28.2967 48.5466 33.961 46.966 38.7198C45.2785 43.847 41.8669 47.5285 35.9972 50.5914C30.2963 47.5904 26.8144 43.6529 25.0679 38.2501C23.4901 33.3535 23.3804 27.7145 23.3804 21.2373H48.6085L48.6141 21.2345ZM50.0147 19.8311H21.9797C21.9797 33.8935 21.9432 45.1435 35.9972 52.1748C50.0597 45.1435 50.0597 35.2998 50.0175 19.8311H50.0147Z" fill="#051344"/>
<path d="M42.3338 25.4531C42.7507 25.4542 43.158 25.5789 43.5041 25.8114C43.8503 26.0438 44.1198 26.3736 44.2785 26.7592C44.4373 27.1447 44.4783 27.5686 44.3963 27.9775C44.3143 28.3863 44.1129 28.7616 43.8177 29.056C43.5225 29.3505 43.1466 29.5508 42.7376 29.6317C42.3286 29.7127 41.9047 29.6706 41.5196 29.5108C41.1345 29.3509 40.8054 29.0806 40.5739 28.7338C40.3423 28.3871 40.2188 27.9795 40.2188 27.5625C40.2195 27.0033 40.442 26.4672 40.8374 26.0718C41.2328 25.6763 41.7689 25.4539 42.3281 25.4531H42.3338ZM42.3281 24.0469C41.6328 24.0469 40.9531 24.2531 40.375 24.6394C39.7968 25.0257 39.3462 25.5747 39.0801 26.2171C38.814 26.8595 38.7444 27.5664 38.8801 28.2484C39.0157 28.9303 39.3505 29.5568 39.8422 30.0484C40.3339 30.5401 40.9603 30.8749 41.6423 31.0106C42.3242 31.1462 43.0311 31.0766 43.6735 30.8105C44.3159 30.5444 44.865 30.0938 45.2513 29.5157C45.6376 28.9375 45.8438 28.2578 45.8438 27.5625C45.8438 26.6301 45.4734 25.7359 44.8141 25.0766C44.1547 24.4173 43.2605 24.0469 42.3281 24.0469Z" fill="#FDAD31"/>
<path d="M35.685 47.1572C26.1562 42.3984 26.1562 33.1031 26.1562 24.1172V24.0469H27.5625V24.1172C27.5625 33.0722 27.5625 41.5294 36.3009 45.9L35.685 47.1572Z" fill="#051344"/>
</svg>
