<?xml version="1.0" encoding="UTF-8"?><svg id="Warstwa_1" xmlns="http://www.w3.org/2000/svg" viewBox="0 0 60 60"><defs><style>.cls-1{fill:#fdad31;}.cls-2{fill:#051344;}</style></defs><path class="cls-1" d="M32.79,18.76c1.55,0,2.81,1.26,2.81,2.81s-1.26,2.81-2.81,2.81-2.81-1.26-2.81-2.81,1.26-2.81,2.81-2.81m0-1.87c-2.59,0-4.68,2.1-4.68,4.68s2.1,4.68,4.68,4.68,4.68-2.1,4.68-4.68-2.1-4.68-4.68-4.68h0Z"/><path class="cls-2" d="M41.22,13.14v24.35h-7.49v6.72l-6.17-6.17-.55-.55H1.89V13.14H41.22m1.87-1.87H.01v28.1H26.23l9.37,9.37v-9.37h7.49V11.27h0Z"/></svg>