<svg width="200" height="200" viewBox="0 0 200 200" fill="none" xmlns="http://www.w3.org/2000/svg">
<path d="M98.8953 145.076C98.4087 145.076 97.9243 144.949 97.4986 144.702L93.052 142.071C92.3884 141.7 92.7125 141.568 92.9314 141.492C93.8172 141.184 93.9964 141.113 94.9418 140.577C95.0402 140.522 95.1708 140.543 95.2725 140.602L98.6885 142.631C98.8124 142.699 98.9871 142.699 99.101 142.631L112.419 134.944C112.543 134.873 112.622 134.73 112.622 134.583V119.214C112.622 119.064 112.543 118.923 112.416 118.847L99.1032 111.167C98.9804 111.095 98.8168 111.095 98.6929 111.167L85.3839 118.849C85.2545 118.923 85.1728 119.068 85.1728 119.214V134.583C85.1728 134.73 85.2545 134.87 85.3828 134.939L89.0311 137.047C91.0105 138.037 92.2225 136.871 92.2225 135.7V120.526C92.2225 120.311 92.3951 120.142 92.6096 120.142H94.2983C94.5095 120.142 94.6842 120.311 94.6842 120.526V135.7C94.6842 138.342 93.2455 139.857 90.7408 139.857C89.9711 139.857 89.365 139.857 87.6731 139.023L84.1808 137.013C83.3182 136.514 82.7841 135.582 82.7841 134.583V119.214C82.7841 118.216 83.3182 117.283 84.1808 116.787L97.4986 109.091C98.3413 108.614 99.4615 108.614 100.298 109.091L113.614 116.787C114.477 117.285 115.013 118.216 115.013 119.214V134.583C115.013 135.582 114.477 136.511 113.614 137.013L100.298 144.702C99.8717 144.949 99.3885 145.076 98.8953 145.076H98.8953Z" fill="#679E63"/>
<path d="M103.009 134.487C97.1813 134.487 95.9603 131.812 95.9603 129.568C95.9603 129.355 96.1318 129.184 96.3452 129.184H98.067C98.2594 129.184 98.4198 129.323 98.4497 129.511C98.7096 131.263 99.4847 132.148 103.009 132.148C105.815 132.148 107.009 131.513 107.009 130.025C107.009 129.167 106.671 128.53 102.31 128.103C98.6664 127.742 96.4126 126.937 96.4126 124.022C96.4126 121.335 98.6774 119.733 102.475 119.733C106.741 119.733 108.852 121.213 109.12 124.391C109.13 124.5 109.091 124.605 109.018 124.687C108.945 124.763 108.844 124.81 108.736 124.81H107.008C106.829 124.81 106.671 124.682 106.634 124.509C106.219 122.664 105.211 122.075 102.475 122.075C99.4118 122.075 99.0556 123.142 99.0556 123.942C99.0556 124.91 99.4759 125.192 103.612 125.74C107.705 126.281 109.649 127.047 109.649 129.923C109.649 132.825 107.229 134.487 103.009 134.487L103.009 134.487Z" fill="#679E63"/>
<path d="M122.213 118.369C122.213 119.781 121.058 120.935 119.646 120.935C118.247 120.935 117.079 119.795 117.079 118.369C117.079 116.915 118.275 115.801 119.646 115.801C121.032 115.801 122.213 116.915 122.213 118.369ZM117.494 118.361C117.494 119.557 118.458 120.521 119.639 120.521C120.835 120.521 121.799 119.536 121.799 118.361C121.799 117.166 120.821 116.216 119.639 116.216C118.472 116.216 117.494 117.153 117.494 118.361ZM118.682 116.929H119.674C120.013 116.929 120.679 116.929 120.679 117.69C120.679 118.219 120.339 118.328 120.135 118.396C120.529 118.423 120.556 118.681 120.61 119.048C120.638 119.278 120.679 119.672 120.76 119.808H120.149C120.135 119.672 120.04 118.939 120.04 118.898C120 118.735 119.944 118.654 119.741 118.654H119.239V119.808H118.682V116.929ZM119.226 118.192H119.674C120.04 118.192 120.108 117.934 120.108 117.785C120.108 117.39 119.836 117.39 119.687 117.39H119.226V118.192Z" fill="#679E63"/>
<path fill-rule="evenodd" clip-rule="evenodd" d="M57.6546 84.9442C57.6546 84.3305 57.3317 83.7664 56.8019 83.4624L42.6824 75.3365C42.4436 75.1961 42.1759 75.123 41.905 75.1119H41.759C41.4892 75.123 41.2216 75.1961 40.9794 75.3365L26.8597 83.4624C26.3334 83.7664 26.006 84.3305 26.006 84.9442L26.037 106.825C26.037 107.129 26.1951 107.412 26.4628 107.561C26.7249 107.718 27.0488 107.718 27.3099 107.561L35.7012 102.756C36.2319 102.441 36.5549 101.885 36.5549 101.277V91.0541C36.5549 90.4447 36.8777 89.8807 37.4063 89.5778L40.9794 87.5197C41.2458 87.366 41.5367 87.2908 41.8342 87.2908C42.125 87.2908 42.4236 87.366 42.6824 87.5197L46.2543 89.5778C46.7829 89.8807 47.1069 90.4447 47.1069 91.0541V101.277C47.1069 101.885 47.4343 102.444 47.9617 102.756L56.3508 107.561C56.614 107.718 56.9425 107.718 57.2034 107.561C57.4633 107.412 57.627 107.129 57.627 106.825L57.6546 84.9442Z" fill="#333333"/>
<path fill-rule="evenodd" clip-rule="evenodd" d="M125.594 54.8659C125.329 54.719 125.007 54.7222 124.746 54.8753C124.485 55.0286 124.325 55.3084 124.325 55.6107V77.2795C124.325 77.4924 124.211 77.6898 124.027 77.7964C123.842 77.9032 123.615 77.9032 123.43 77.7964L119.893 75.7589C119.366 75.4549 118.717 75.4554 118.189 75.7595L104.064 83.9113C103.536 84.216 103.211 84.7789 103.211 85.3882V101.695C103.211 102.304 103.536 102.867 104.064 103.173L118.188 111.331C118.716 111.635 119.366 111.635 119.894 111.331L134.021 103.173C134.549 102.867 134.874 102.304 134.874 101.695V61.0461C134.874 60.4279 134.539 59.8578 133.999 59.5565L125.594 54.8659H125.594ZM124.283 96.3373C124.283 96.4894 124.202 96.6304 124.07 96.7061L119.22 99.5017C119.088 99.5775 118.926 99.5775 118.794 99.5017L113.944 96.7061C113.812 96.6304 113.731 96.4894 113.731 96.3373V90.7373C113.731 90.5852 113.812 90.4442 113.944 90.3679L118.794 87.5668C118.926 87.4905 119.088 87.4905 119.22 87.5668L124.07 90.3679C124.202 90.4442 124.283 90.5852 124.283 90.7373V96.3373H124.283Z" fill="#333333"/>
<path fill-rule="evenodd" clip-rule="evenodd" d="M172.628 90.5907C173.153 90.2856 173.477 89.7238 173.477 89.116V85.1643C173.477 84.5566 173.153 83.9943 172.628 83.6891L158.593 75.5406C158.065 75.2337 157.413 75.2331 156.884 75.5383L142.764 83.6901C142.236 83.9949 141.911 84.5577 141.911 85.167V101.47C141.911 102.083 142.24 102.648 142.773 102.951L156.805 110.947C157.322 111.243 157.957 111.246 158.478 110.957L166.965 106.239C167.234 106.089 167.402 105.807 167.403 105.499C167.406 105.192 167.242 104.907 166.976 104.754L152.766 96.5983C152.5 96.4463 152.337 96.1637 152.337 95.8584V90.7494C152.337 90.4448 152.5 90.1628 152.764 90.0107L157.186 87.4611C157.45 87.309 157.775 87.309 158.038 87.4611L162.463 90.0107C162.727 90.1628 162.889 90.4448 162.889 90.7494V94.7692C162.889 95.0745 163.053 95.3564 163.317 95.5085C163.581 95.6611 163.907 95.6599 164.171 95.5068L172.628 90.5907Z" fill="#333333"/>
<path fill-rule="evenodd" clip-rule="evenodd" d="M157.53 89.8272C157.632 89.7685 157.757 89.7685 157.858 89.8272L160.568 91.3908C160.669 91.4495 160.732 91.5573 160.732 91.6745V94.8041C160.732 94.9213 160.669 95.0291 160.568 95.0878L157.858 96.6514C157.757 96.71 157.632 96.71 157.53 96.6514L154.822 95.0878C154.721 95.0291 154.659 94.9213 154.659 94.8041V91.6745C154.659 91.5573 154.721 91.4495 154.822 91.3908L157.53 89.8272Z" fill="#679E63"/>
<path fill-rule="evenodd" clip-rule="evenodd" d="M79.5853 75.6229C80.1085 75.3207 80.7536 75.3207 81.2769 75.6229L95.287 83.7077C95.8109 84.0099 96.1334 84.5683 96.1334 85.1733V101.355C96.1334 101.96 95.8109 102.518 95.2875 102.821L81.2774 110.912C80.7536 111.215 80.1085 111.215 79.5847 110.912L65.5778 102.821C65.0546 102.518 64.7321 101.96 64.7321 101.355V85.1727C64.7321 84.5683 65.0546 84.0099 65.5784 83.7077L79.5853 75.6229Z" fill="url(#paint0_linear_181_5107)"/>
<path opacity="0.66" d="M95.2162 83.7076L81.2687 75.6228C81.1289 75.5421 80.9796 75.4846 80.8263 75.447L65.0608 102.416C65.1935 102.576 65.3534 102.715 65.5368 102.821L79.568 110.912C79.9862 111.154 80.4703 111.199 80.9154 111.055L95.6447 84.0835C95.5294 83.9362 95.3885 83.807 95.2162 83.7076Z" fill="#B4B4B4"/>
<path d="M81.2441 110.912L95.2208 102.821C95.7442 102.518 96 101.96 96 101.355V101.292L80.8799 75.4609C80.4442 75.3389 79.9687 75.3919 79.5689 75.6228L65.7046 83.616L80.7867 111.092C80.9442 111.055 81.0983 110.996 81.2441 110.912H81.2441Z" fill="url(#paint1_linear_181_5107)"/>
<defs>
<linearGradient id="paint0_linear_181_5107" x1="64.7321" y1="93.2677" x2="96.1334" y2="93.2677" gradientUnits="userSpaceOnUse">
<stop offset="0.0053"/>
<stop offset="0.19218" stop-color="#161616"/>
<stop offset="0.54145" stop-color="#3C3C3C"/>
<stop offset="0.82312" stop-color="#535353"/>
<stop offset="1" stop-color="#5C5C5C"/>
</linearGradient>
<linearGradient id="paint1_linear_181_5107" x1="64.515" y1="93.2446" x2="96.9076" y2="93.2446" gradientUnits="userSpaceOnUse">
<stop stop-color="#5C5C5C"/>
<stop offset="0.17688" stop-color="#535353"/>
<stop offset="0.45855" stop-color="#3C3C3C"/>
<stop offset="0.80782" stop-color="#161616"/>
<stop offset="0.9947"/>
</linearGradient>
</defs>
</svg>
