<svg width="200" height="200" viewBox="0 0 200 200" fill="none" xmlns="http://www.w3.org/2000/svg">
<path d="M54.0064 106.455C54.4713 103.581 52.5183 100.874 49.6442 100.409C46.7702 99.9439 44.0634 101.897 43.5985 104.771C43.1336 107.645 45.0866 110.352 47.9607 110.817C50.8347 111.282 53.5415 109.329 54.0064 106.455Z" fill="#00D8FF"/>
<path d="M48.8024 117.697C41.3984 117.697 34.9242 116.822 30.08 115.166C26.9349 114.091 24.2688 112.663 22.37 111.037C20.3518 109.309 19.285 107.433 19.285 105.613C19.285 102.128 23.1137 98.7122 29.5267 96.4763C34.7851 94.6431 41.6307 93.6335 48.8024 93.6335C55.8404 93.6335 62.5955 94.6247 67.8235 96.4246C70.8802 97.4769 73.4599 98.8375 75.2838 100.359C77.27 102.017 78.3198 103.833 78.3198 105.613C78.3198 109.236 74.0393 112.905 67.1487 115.188C62.2646 116.806 55.7491 117.697 48.8024 117.697L48.8024 117.697ZM48.8024 96.1555C42.006 96.1555 35.2829 97.1404 30.3569 98.8576C24.4507 100.917 21.807 103.734 21.807 105.613C21.807 107.568 24.6511 110.645 30.8957 112.78C35.4805 114.347 41.6725 115.175 48.8024 115.175C55.4867 115.175 61.7205 114.329 66.3556 112.794C69.3212 111.811 71.7949 110.546 73.5094 109.134C74.9852 107.919 75.7979 106.669 75.7979 105.613C75.7979 104.62 75.0415 103.442 73.668 102.296C72.0772 100.968 69.7723 99.7627 67.0026 98.8092C62.0319 97.0979 55.5683 96.1555 48.8024 96.1555H48.8024Z" fill="#00D8FF"/>
<path d="M36.8271 131.901C35.7592 131.901 34.8105 131.67 34.0108 131.209C30.9918 129.468 29.9458 124.445 31.2126 117.773C32.2515 112.302 34.7967 105.867 38.3796 99.6546C41.8955 93.558 46.1288 88.2014 50.2998 84.5715C52.7384 82.4493 55.2058 80.8943 57.4353 80.0746C59.8632 79.182 61.9613 79.18 63.5029 80.069C66.6415 81.8789 67.6814 87.4198 66.2168 94.5295C65.1785 99.5689 62.6956 105.658 59.2253 111.676C55.5265 118.09 51.534 123.261 47.6795 126.63C45.1771 128.818 42.6083 130.414 40.251 131.247C39.0161 131.683 37.8653 131.901 36.8271 131.901ZM40.5643 100.914C37.1689 106.802 34.6635 113.118 33.6903 118.243C32.5236 124.388 33.6433 128.086 35.2707 129.025C36.9648 130.001 41.0512 129.075 46.0197 124.732C49.6678 121.543 53.4787 116.593 57.0406 110.416C60.3798 104.626 62.7613 98.803 63.7466 94.0206C64.377 90.9608 64.5166 88.1857 64.1504 85.9953C63.8352 84.11 63.1579 82.7812 62.2431 82.2537C61.3828 81.7576 59.9845 81.8245 58.3055 82.4417C56.3609 83.1566 54.1651 84.551 51.9554 86.474C47.9897 89.9252 43.9443 95.0536 40.5643 100.915V100.914V100.914Z" fill="#00D8FF"/>
<path d="M60.7711 131.93C57.9145 131.93 54.2847 130.202 50.5073 126.951C46.2865 123.319 41.9831 117.901 38.3896 111.694V111.693C34.8635 105.603 32.3369 99.2598 31.2752 93.8336C30.6545 90.661 30.5395 87.7467 30.9428 85.4058C31.382 82.8565 32.4282 81.0377 33.9683 80.1462C37.1041 78.331 42.4237 80.1973 47.8516 85.0169C51.699 88.433 55.7347 93.6253 59.2152 99.6373C62.9248 106.045 65.411 112.087 66.4051 117.108C67.0505 120.369 67.1506 123.392 66.6946 125.85C66.2099 128.462 65.121 130.325 63.5456 131.237C62.7425 131.702 61.8076 131.93 60.7711 131.93L60.7711 131.93ZM40.5722 110.43C43.9776 116.312 48.1984 121.637 52.1522 125.04C56.8935 129.119 60.656 129.995 62.2821 129.055C63.9745 128.075 65.2125 124.072 63.9312 117.598C62.9904 112.845 60.6049 107.071 57.0326 100.901C53.6836 95.1159 49.8284 90.1446 46.1772 86.9027C43.8411 84.8285 41.5066 83.3216 39.426 82.5449C37.6352 81.8765 36.1458 81.7996 35.2319 82.3288C34.3724 82.8263 33.7319 84.0711 33.4281 85.834C33.0764 87.8758 33.1878 90.4746 33.7503 93.3493C34.7596 98.5082 37.1827 104.575 40.5722 110.43H40.5722Z" fill="#00D8FF"/>
<path d="M109.326 109.968L102.138 99.1068C105.772 98.7874 109.046 96.1519 109.046 91.3602C109.046 86.4487 105.572 83.3341 100.701 83.3341H89.999V109.968H93.3132V99.3863H98.624L105.412 109.968H109.325H109.326ZM100.301 96.4714H93.3132V86.289H100.301C103.456 86.289 105.612 88.3654 105.612 91.3602C105.612 94.355 103.456 96.4714 100.301 96.4714ZM121.664 110.447C124.819 110.447 127.414 109.409 129.331 107.492L127.893 105.536C126.376 107.093 124.14 107.971 121.944 107.971C117.791 107.971 115.235 104.937 114.996 101.303H130.609V100.544C130.609 94.7543 127.175 90.2022 121.345 90.2022C115.834 90.2022 111.841 94.7144 111.841 100.305C111.841 106.334 115.954 110.447 121.664 110.447ZM127.654 99.1068H114.996C115.155 96.1519 117.192 92.6779 121.305 92.6779C125.697 92.6779 127.614 96.2318 127.654 99.1068ZM150.494 109.968V96.7109C150.494 92.039 147.1 90.2022 143.027 90.2022C139.873 90.2022 137.397 91.2404 135.32 93.3967L136.718 95.4731C138.435 93.6363 140.312 92.7977 142.628 92.7977C145.423 92.7977 147.499 94.2752 147.499 96.8707V100.345C145.942 98.5477 143.746 97.7092 141.11 97.7092C137.836 97.7092 134.362 99.7457 134.362 104.058C134.362 108.251 137.836 110.447 141.11 110.447C143.706 110.447 145.902 109.529 147.499 107.772V109.968H150.494ZM142.189 108.291C139.393 108.291 137.437 106.534 137.437 104.098C137.437 101.622 139.393 99.8654 142.189 99.8654C144.305 99.8654 146.341 100.664 147.499 102.261V105.895C146.341 107.492 144.305 108.291 142.189 108.291V108.291ZM164.989 110.447C168.503 110.447 170.58 109.01 172.057 107.093L170.06 105.256C168.783 106.973 167.145 107.772 165.149 107.772C161.036 107.772 158.48 104.577 158.48 100.305C158.48 96.0321 161.036 92.8776 165.149 92.8776C167.145 92.8776 168.783 93.6363 170.06 95.3932L172.057 93.5564C170.58 91.6397 168.503 90.2022 164.989 90.2022C159.239 90.2022 155.366 94.5946 155.366 100.305C155.366 106.055 159.239 110.447 164.989 110.447ZM181.121 110.447C182.878 110.447 183.956 109.928 184.715 109.209L183.836 106.973C183.437 107.412 182.639 107.772 181.8 107.772C180.482 107.772 179.843 106.734 179.843 105.296V93.3168H183.757V90.6814H179.843V85.4105H176.849V90.6814H173.654V93.3168H176.849V105.935C176.849 108.81 178.286 110.447 181.121 110.447Z" fill="#00D8FF"/>
</svg>
