<?xml version="1.0" encoding="UTF-8"?><svg id="Warstwa_1" xmlns="http://www.w3.org/2000/svg" viewBox="0 0 60 60"><defs><style>.cls-1{fill:#fdad31;}.cls-2{fill:#051344;}</style></defs><path class="cls-2" d="M42.31,16.21v27.59H1.85V16.21H42.31m1.84-1.84H.01v31.26H44.15V14.37h0Z"/><path class="cls-2" d="M30.2,27.02l-3.52,3.52-2.76-2.76-9.2,9.2-3.68-3.68-4.98,4.98,1.3,1.3,3.68-3.68,3.68,3.68,9.2-9.2,2.76,2.76,4.82-4.82c-.52-.34-.96-.78-1.3-1.3Z"/><path class="cls-1" d="M34.04,21.72c1.52,0,2.76,1.24,2.76,2.76s-1.24,2.76-2.76,2.76-2.76-1.24-2.76-2.76,1.24-2.76,2.76-2.76m0-1.84c-2.54,0-4.6,2.06-4.6,4.6s2.06,4.6,4.6,4.6,4.6-2.06,4.6-4.6-2.06-4.6-4.6-4.6h0Z"/></svg>