<?xml version="1.0" encoding="UTF-8"?><svg id="Warstwa_1" xmlns="http://www.w3.org/2000/svg" xmlns:xlink="http://www.w3.org/1999/xlink" viewBox="0 0 60 60"><defs><style>.cls-1{fill:none;}.cls-2{clip-path:url(#clippath);}.cls-3{fill:#fdad31;}.cls-4{fill:#051344;}</style><clipPath id="clippath"><rect class="cls-1" x="-7.53" y=".39" width="59.22" height="59.22"/></clipPath></defs><g class="cls-2"><g><path class="cls-3" d="M34.11,11.49c1.53,0,2.78,1.25,2.78,2.78s-1.25,2.78-2.78,2.78-2.78-1.25-2.78-2.78,1.25-2.78,2.78-2.78m0-1.85c-2.56,0-4.63,2.07-4.63,4.63s2.07,4.63,4.63,4.63,4.63-2.07,4.63-4.63-2.07-4.63-4.63-4.63h0Z"/><path class="cls-3" d="M10.05,11.49c1.53,0,2.78,1.25,2.78,2.78s-1.25,2.78-2.78,2.78-2.78-1.25-2.78-2.78,1.25-2.78,2.78-2.78m0-1.85c-2.56,0-4.63,2.07-4.63,4.63s2.07,4.63,4.63,4.63,4.63-2.07,4.63-4.63-2.07-4.63-4.63-4.63h0Z"/><path class="cls-3" d="M22.08,11.49c1.53,0,2.78,1.25,2.78,2.78s-1.25,2.78-2.78,2.78-2.78-1.25-2.78-2.78,1.25-2.78,2.78-2.78m0-1.85c-2.56,0-4.63,2.07-4.63,4.63s2.07,4.63,4.63,4.63,4.63-2.07,4.63-4.63-2.07-4.63-4.63-4.63h0Z"/><path class="cls-3" d="M31.29,35.55c1.53,0,2.78,1.25,2.78,2.78s-1.25,2.78-2.78,2.78-2.78-1.25-2.78-2.78,1.25-2.78,2.78-2.78m0-1.85c-2.56,0-4.63,2.07-4.63,4.63s2.07,4.63,4.63,4.63,4.63-2.07,4.63-4.63-2.07-4.63-4.63-4.63h0Z"/><path class="cls-4" d="M34.11,20.75c-2.25,0-4.33,.73-6.01,1.97-1.69-1.24-3.76-1.97-6.01-1.97s-4.33,.73-6.01,1.97c-1.69-1.24-3.76-1.97-6.01-1.97C4.43,20.75-.13,25.3-.13,30.93v15.73H11.9v3.7h20.36v-3.7h12.03v-15.73c0-5.62-4.56-10.18-10.18-10.18Zm-5.27,2.57h0Zm-13.51,0h0Zm-3.42,21.49H1.73v-13.88c0-4.59,3.74-8.33,8.33-8.33,1.7,0,3.27,.51,4.59,1.38-1.7,1.82-2.74,4.26-2.74,6.94v13.88Zm30.53,0h-10.18v-1.95c-.31,.07-.64,.1-.97,.1-.3,0-.6-.03-.88-.09v5.64H13.75V30.93c0-4.59,3.74-8.33,8.33-8.33s8.33,3.74,8.33,8.33v2.86c.29-.05,.58-.09,.88-.09,.33,0,.66,.04,.97,.1v-2.88c0-2.68-1.04-5.12-2.74-6.94,1.32-.87,2.89-1.38,4.59-1.38,4.59,0,8.33,3.74,8.33,8.33v13.88Z"/></g></g></svg>