<svg width="200" height="200" viewBox="0 0 200 200" fill="none" xmlns="http://www.w3.org/2000/svg">
<path d="M67.3904 98.0833H55.8904V94.25H70.3836V90.4166H55.8642C54.8664 90.4166 53.895 90.8105 53.1861 91.5194C52.4772 92.2283 52.0833 93.1997 52.0833 94.1975V98.0833C52.0833 99.081 52.4772 100.052 53.1861 100.761C53.895 101.47 54.8664 101.864 55.8642 101.864H67.3642V105.697H52.3196V109.531H67.3904C68.3881 109.531 69.3596 109.137 70.0685 108.428C70.7774 107.719 71.1712 106.748 71.1712 105.75V101.864C71.1712 100.866 70.7774 99.895 70.0685 99.186C69.3858 98.4771 68.4144 98.0833 67.3904 98.0833H67.3904ZM89.7078 90.4166H78.1552C77.6564 90.4166 77.1575 90.5217 76.7112 90.7054C76.2386 90.8892 75.8185 91.178 75.4772 91.5194C75.1358 91.8607 74.847 92.2808 74.6632 92.7534C74.4794 93.226 74.3744 93.6986 74.3744 94.1975V105.776C74.3744 106.275 74.4794 106.774 74.6632 107.22C74.847 107.693 75.1358 108.113 75.4772 108.454C75.8185 108.796 76.2386 109.084 76.7112 109.268C77.1838 109.452 77.6564 109.557 78.1552 109.557H89.7078C90.7055 109.557 91.6769 109.163 92.3858 108.454C93.0948 107.745 93.4886 106.774 93.4886 105.776V94.2237C93.4886 93.226 93.0948 92.2545 92.3858 91.5456C91.6769 90.8367 90.7055 90.4166 89.7078 90.4166ZM89.6815 105.75H78.2078V94.2762H89.6815V105.75ZM130.142 90.4166H118.878C117.88 90.4166 116.909 90.8105 116.2 91.5194C115.491 92.2283 115.097 93.1997 115.097 94.1975V109.531H118.904V103.229H130.115V109.531H133.949V94.2237C133.949 93.7249 133.844 93.226 133.66 92.7796C133.476 92.307 133.187 91.887 132.846 91.5456C132.505 91.2043 132.084 90.9155 131.612 90.7317C131.139 90.5217 130.64 90.4166 130.142 90.4166L130.142 90.4166ZM130.115 99.4486H118.904V94.25H130.115V99.4486ZM174.96 90.4166H163.696C163.197 90.4166 162.699 90.5217 162.226 90.7054C161.753 90.8892 161.333 91.178 160.992 91.5194C160.651 91.8607 160.362 92.2808 160.178 92.7534C159.994 93.226 159.889 93.6986 159.889 94.1975V109.531H163.723V103.229H174.934V109.531H178.767V94.2237C178.767 93.226 178.373 92.2545 177.664 91.5456C176.929 90.8367 175.984 90.4166 174.96 90.4166ZM174.934 99.4486H163.723V94.25H174.934V99.4486ZM152.669 105.75H151.146L145.659 92.0182C145.475 91.5456 145.134 91.1518 144.74 90.863C144.32 90.5742 143.821 90.4166 143.322 90.4166H139.909C139.226 90.4166 138.596 90.6792 138.123 91.1518C137.651 91.6244 137.388 92.2808 137.388 92.9372V109.557H141.221V94.25H142.744L148.232 107.982C148.416 108.454 148.731 108.848 149.151 109.137C149.571 109.426 150.07 109.583 150.569 109.583H153.982C154.664 109.583 155.295 109.321 155.767 108.848C156.24 108.376 156.502 107.719 156.502 107.063V90.4429H152.669L152.669 105.75ZM100.709 90.4166H96.8756V105.776C96.8756 106.774 97.2694 107.745 97.9783 108.454C98.6872 109.163 99.6587 109.557 100.656 109.557H112.156V105.724H100.683V90.4166H100.709Z" fill="black"/>
<path d="M24.8824 105.015C24.9612 104.936 25.0399 104.884 25.1187 104.831C25.1975 104.778 25.3025 104.778 25.4075 104.778H42.1062C42.1849 104.778 42.2374 104.805 42.3162 104.831C42.3687 104.857 42.4212 104.936 42.4475 104.989C42.4737 105.041 42.4737 105.12 42.4737 105.199C42.4737 105.277 42.4212 105.33 42.395 105.382L38.8505 109.321C38.7717 109.399 38.6929 109.452 38.6142 109.505C38.5354 109.557 38.4304 109.557 38.3253 109.557H21.6005C21.5217 109.557 21.4692 109.531 21.3904 109.505C21.3379 109.478 21.2854 109.4 21.2591 109.347C21.2329 109.294 21.2329 109.216 21.2329 109.137C21.2329 109.058 21.2854 109.006 21.3116 108.953L24.8824 105.015H24.8824ZM42.395 101.759C42.4475 101.812 42.4737 101.864 42.4737 101.943C42.4737 102.022 42.4737 102.074 42.4475 102.153C42.4212 102.205 42.3687 102.284 42.3162 102.31C42.2637 102.337 42.1849 102.363 42.1062 102.363L25.4338 102.389C25.3288 102.389 25.2237 102.363 25.145 102.337C25.0662 102.31 24.9612 102.232 24.9087 102.153L21.3379 98.2408C21.2854 98.1883 21.2591 98.1358 21.2591 98.057C21.2591 97.9783 21.2591 97.9257 21.2854 97.847C21.3116 97.7945 21.3641 97.7157 21.4167 97.6894C21.4692 97.6632 21.5479 97.6369 21.6267 97.6369L38.3516 97.6107C38.4566 97.6107 38.5616 97.6369 38.6404 97.6632C38.7192 97.7157 38.8242 97.7682 38.8767 97.847L42.395 101.759ZM24.8824 90.6792C24.9612 90.6004 25.0399 90.5479 25.1187 90.4954C25.1975 90.4429 25.3025 90.4429 25.4075 90.4429L42.1324 90.4691C42.2112 90.4691 42.2637 90.4954 42.3425 90.5216C42.395 90.5479 42.4475 90.6267 42.4737 90.6792C42.5 90.7317 42.5 90.8105 42.5 90.8892C42.5 90.968 42.4475 91.0205 42.4212 91.073L38.8767 94.9851C38.7979 95.0639 38.7192 95.1164 38.6404 95.1689C38.5616 95.2214 38.4566 95.2214 38.3516 95.2214H21.6004C21.5217 95.2214 21.4692 95.1952 21.3904 95.1689C21.3379 95.1426 21.2854 95.0639 21.2591 95.0114C21.2329 94.9589 21.2329 94.8801 21.2329 94.8013C21.2329 94.7226 21.2854 94.67 21.3116 94.6175L24.8824 90.6792Z" fill="url(#paint0_linear_181_5104)"/>
<defs>
<linearGradient id="paint0_linear_181_5104" x1="21.8707" y1="109.996" x2="41.8491" y2="90.0174" gradientUnits="userSpaceOnUse">
<stop stop-color="#9945FF"/>
<stop offset="0.14" stop-color="#8A53F4"/>
<stop offset="0.42" stop-color="#6377D6"/>
<stop offset="0.79" stop-color="#24B0A7"/>
<stop offset="0.99" stop-color="#00D18C"/>
<stop offset="1" stop-color="#00D18C"/>
</linearGradient>
</defs>
</svg>
