<svg width="200" height="200" viewBox="0 0 200 200" fill="none" xmlns="http://www.w3.org/2000/svg">
<g opacity="0.8">
<path d="M73.5667 104.3H77.1C77.1333 106.533 78.4667 107.633 80.6 107.633C82.9 107.633 84.0333 106.4 84.0333 104.667C84.0333 100.333 74 100.1 74 93.6334C74 90.5001 76.5333 88.1334 80.5667 88.1334C84.6667 88.1334 87.1333 90.5334 87.2333 94.2334H83.7C83.6333 92.1668 82.4333 91.1668 80.5667 91.1668C78.6 91.1668 77.4666 92.1668 77.4666 93.7001C77.4666 97.9668 87.5333 97.9668 87.5333 104.7C87.5333 107.933 85.0333 110.7 80.5333 110.7C76.3333 110.667 73.6 108.267 73.5667 104.3Z" fill="black"/>
<path d="M90.3 103.367V95.4001C90.3 90.8668 93.0333 88.1001 97.6333 88.1001C102.233 88.1001 104.967 90.8668 104.967 95.4001V103.367C104.967 107.9 102.233 110.667 97.6333 110.667C93.0333 110.667 90.3 107.9 90.3 103.367ZM101.4 103.367V95.4001C101.4 92.6668 100.1 91.1668 97.6333 91.1668C95.1333 91.1668 93.8667 92.6668 93.8667 95.4001V103.367C93.8667 106.1 95.1333 107.6 97.6333 107.6C100.1 107.6 101.4 106.1 101.4 103.367Z" fill="black"/>
<path d="M120.5 107.267V110.233H109.1V88.5001H112.567V107.267H120.5Z" fill="black"/>
<path d="M126.6 88.5001V110.233H123.133V88.5001H126.6Z" fill="black"/>
<path d="M131.367 88.5001H137.333C142 88.5001 144.733 91.0001 144.733 95.2668V103.4C144.733 107.733 142 110.233 137.367 110.233H131.367V88.5001ZM137.367 107.267C139.833 107.267 141.233 105.933 141.233 103.367V95.3668C141.233 92.8335 139.867 91.5001 137.367 91.5001H134.833V107.3H137.367V107.267Z" fill="black"/>
<path d="M152.3 88.5001V110.233H148.833V88.5001H152.3Z" fill="black"/>
<path d="M168.733 91.5001H163.733V110.267H160.2V91.5001H155.233V88.5334H168.733V91.5001Z" fill="black"/>
<path d="M175.2 103.1L169.367 88.5001H173L175.7 95.7335C176.033 96.6668 176.567 98.0668 176.9 99.1668H176.967L178.2 95.7001L180.867 88.5335H184.5L178.667 103.1V110.233H175.2V103.1Z" fill="black"/>
</g>
<path opacity="0.45" d="M49 65.2667L37.8333 85.1334H15.5L26.6667 65.2667H49Z" fill="black"/>
<path opacity="0.6" d="M37.8334 85.1001H60.1667L49 65.2667H26.6667L37.8334 85.1001Z" fill="black"/>
<path opacity="0.8" d="M26.6667 104.967L37.8333 85.1001L26.6667 65.2667L15.5 85.1334L26.6667 104.967Z" fill="black"/>
<path opacity="0.45" d="M26.7667 134.733L37.9333 114.867H60.2667L49.1 134.733H26.7667Z" fill="black"/>
<path opacity="0.6" d="M37.9333 114.9H15.6L26.7666 134.767H49.1L37.9333 114.9Z" fill="black"/>
<path opacity="0.8" d="M49.1333 95.0334L37.9667 114.9L49.1333 134.767L60.3 114.9L49.1333 95.0334Z" fill="black"/>
</svg>
