<?xml version="1.0" encoding="UTF-8"?><svg id="Warstwa_1" xmlns="http://www.w3.org/2000/svg" xmlns:xlink="http://www.w3.org/1999/xlink" viewBox="0 0 60 60"><defs><style>.cls-1{fill:none;}.cls-2{clip-path:url(#clippath);}.cls-3{fill:#f2f2f2;}.cls-4{fill:#fdad31;}.cls-5{fill:#051344;}</style><clipPath id="clippath"><rect class="cls-1" x="-5.53" y="-.12" width="60.25" height="60.25"/></clipPath></defs><g class="cls-2"><g><path class="cls-4" d="M4.82,24.32c1.56,0,2.82,1.27,2.82,2.82s-1.27,2.82-2.82,2.82-2.82-1.27-2.82-2.82,1.27-2.82,2.82-2.82m0-1.88C2.22,22.43,.11,24.54,.11,27.14s2.11,4.71,4.71,4.71,4.71-2.11,4.71-4.71-2.11-4.71-4.71-4.71h0Z"/><rect class="cls-3" x="13.29" y="13.06" width="22.59" height="1.88"/><polygon class="cls-5" points="35.89 13.06 13.29 13.06 13.29 14.94 35.89 14.94 35.89 13.06 35.89 13.06"/><rect class="cls-5" x="28.36" y="45.06" width="7.53" height="1.88"/><rect class="cls-5" x="28.36" y="39.41" width="7.53" height="1.88"/><rect class="cls-5" x="24.59" y="33.77" width="11.3" height="1.88"/><rect class="cls-5" x="18.94" y="28.12" width="16.94" height="1.88"/><path class="cls-5" d="M7.64,7.41v15.97c.95,.72,1.62,1.78,1.82,3h0c.02,.12,.04,.24,.05,.36,.01,.13,.02,.26,.02,.4h0c0,.13,0,.25-.02,.37,0,.1-.02,.2-.03,.29l13.23,13.26v3.97l-4,.02L5.48,31.8c-.09,.01-.19,.02-.29,.03-.12,.01-.24,.02-.37,.02h0c-1.3,0-2.48-.53-3.33-1.38l6.15,6.17v15.96H41.53V7.41H7.64ZM39.65,50.71H9.53v-12.19l8.41,8.42,6.66-.03v-6.62l-15.06-15.09V9.29h30.12V50.71Z"/></g></g><rect class="cls-1" x="12.42" y="11.82" width="15.15" height="9.44"/></svg>