<?xml version="1.0" encoding="UTF-8"?><svg id="Warstwa_1" xmlns="http://www.w3.org/2000/svg" xmlns:xlink="http://www.w3.org/1999/xlink" viewBox="0 0 60 60"><defs><style>.cls-1{fill:none;}.cls-2{clip-path:url(#clippath);}.cls-3{fill:#fdad31;}.cls-4{fill:#051344;}</style><clipPath id="clippath"><rect class="cls-1" x="-14.03" y=".17" width="59.96" height="59.96"/></clipPath></defs><g class="cls-2"><g><path class="cls-3" d="M15.95,7.66c3.1,0,5.62,2.52,5.62,5.62s-2.52,5.62-5.62,5.62-5.62-2.52-5.62-5.62,2.52-5.62,5.62-5.62m0-1.87c-4.14,0-7.49,3.36-7.49,7.49s3.36,7.49,7.49,7.49,7.49-3.36,7.49-7.49-3.36-7.49-7.49-7.49h0Z"/><path class="cls-3" d="M20.64,32.91c1.55,0,2.81,1.26,2.81,2.81s-1.26,2.81-2.81,2.81-2.81-1.26-2.81-2.81,1.26-2.81,2.81-2.81m0-1.87c-2.59,0-4.68,2.1-4.68,4.68s2.1,4.68,4.68,4.68,4.68-2.1,4.68-4.68-2.1-4.68-4.68-4.68h0Z"/><path class="cls-4" d="M15.95,24.53c7.75,0,14.05,6.3,14.05,14.05v14.05H1.9v-14.05c0-7.75,6.3-14.05,14.05-14.05m0-1.87C7.16,22.65,.03,29.78,.03,38.58v15.93H31.88v-15.93c0-8.8-7.13-15.93-15.93-15.93h0Z"/></g></g></svg>