<svg width="46" height="46" viewBox="0 0 46 46" fill="none" xmlns="http://www.w3.org/2000/svg">
<path d="M6.6875 10.625V13.5078C7.15157 13.4141 7.62968 13.4141 8.09375 13.5078V12.0312H39.0313V16.25H10.8359C10.9297 16.7141 10.9297 17.1922 10.8359 17.6562H39.0313V33.125H8.09375V20.3984C7.62968 20.4921 7.15157 20.4921 6.6875 20.3984V34.5312H40.4375V10.625H6.6875Z" fill="#051344"/>
<path d="M7.39063 14.8438C7.80782 14.8438 8.21565 14.9675 8.56253 15.1992C8.90942 15.431 9.17978 15.7605 9.33944 16.1459C9.49909 16.5313 9.54086 16.9555 9.45947 17.3646C9.37808 17.7738 9.17718 18.1497 8.88218 18.4447C8.58718 18.7397 8.21132 18.9406 7.80215 19.022C7.39297 19.1034 6.96884 19.0616 6.5834 18.9019C6.19797 18.7423 5.86853 18.4719 5.63675 18.125C5.40496 17.7781 5.28125 17.3703 5.28125 16.9531C5.28125 16.3937 5.50349 15.8572 5.89907 15.4616C6.29466 15.066 6.83119 14.8438 7.39063 14.8438ZM7.39063 13.4375C6.6953 13.4375 6.01559 13.6437 5.43745 14.03C4.85931 14.4163 4.4087 14.9654 4.14261 15.6078C3.87652 16.2502 3.8069 16.957 3.94255 17.639C4.0782 18.321 4.41304 18.9474 4.9047 19.439C5.39637 19.9307 6.0228 20.2655 6.70476 20.4012C7.38673 20.5369 8.0936 20.4672 8.736 20.2011C9.37839 19.935 9.92746 19.4844 10.3138 18.9063C10.7001 18.3282 10.9063 17.6484 10.9063 16.9531C10.9063 16.4914 10.8153 16.0343 10.6386 15.6078C10.462 15.1812 10.203 14.7937 9.87655 14.4672C9.55009 14.1407 9.16253 13.8818 8.736 13.7051C8.30946 13.5284 7.8523 13.4375 7.39063 13.4375Z" fill="#FDAD31"/>
<path d="M24.9688 20.4688H13.7188V21.875H24.9688V20.4688Z" fill="#051344"/>
<path d="M29.1875 24.6875H17.9375V26.0938H29.1875V24.6875Z" fill="#051344"/>
<path d="M29.1875 28.9062H17.9375V30.3125H29.1875V28.9062Z" fill="#051344"/>
</svg>
