<svg width="46" height="46" viewBox="0 0 46 46" fill="none" xmlns="http://www.w3.org/2000/svg">
<path d="M41.2071 35.3455H6.74658V36.7813H41.2071V35.3455Z" fill="#051344"/>
<path d="M6.74658 9.5V12.4435C7.22042 12.3478 7.7086 12.3478 8.18244 12.4435V10.9359H39.7713V31.0378H8.18244V19.4792C7.7086 19.5749 7.22042 19.5749 6.74658 19.4792V32.4737H41.2071V9.5H6.74658Z" fill="#051344"/>
<path d="M7.46464 13.8077C7.89062 13.8077 8.30703 13.934 8.66122 14.1707C9.0154 14.4073 9.29146 14.7437 9.45448 15.1372C9.61749 15.5308 9.66014 15.9639 9.57704 16.3816C9.49393 16.7994 9.28881 17.1832 8.98759 17.4844C8.68638 17.7856 8.30261 17.9908 7.88482 18.0739C7.46703 18.157 7.03398 18.1143 6.64042 17.9513C6.24687 17.7883 5.9105 17.5122 5.67383 17.158C5.43717 16.8039 5.31086 16.3874 5.31086 15.9615C5.31086 15.3902 5.53777 14.8424 5.94169 14.4385C6.3456 14.0346 6.89342 13.8077 7.46464 13.8077ZM7.46464 12.3718C6.75468 12.3718 6.06066 12.5824 5.47034 12.9768C4.88003 13.3712 4.41994 13.9318 4.14825 14.5878C3.87656 15.2437 3.80547 15.9654 3.94398 16.6618C4.08248 17.3581 4.42436 17.9977 4.92638 18.4997C5.4284 19.0017 6.06801 19.3436 6.76434 19.4821C7.46066 19.6206 8.18241 19.5495 8.83833 19.2779C9.49426 19.0062 10.0549 18.5461 10.4493 17.9558C10.8437 17.3654 11.0543 16.6714 11.0543 15.9615C11.0543 15.4901 10.9614 15.0233 10.781 14.5878C10.6006 14.1523 10.3362 13.7565 10.0029 13.4232C9.66957 13.0899 9.27385 12.8255 8.83833 12.6451C8.40282 12.4647 7.93604 12.3718 7.46464 12.3718Z" fill="#FDAD31"/>
<path d="M16.0799 13.8077C16.5059 13.8077 16.9223 13.934 17.2765 14.1707C17.6306 14.4073 17.9067 14.7437 18.0697 15.1372C18.2327 15.5308 18.2754 15.9639 18.1923 16.3816C18.1092 16.7994 17.904 17.1832 17.6028 17.4844C17.3016 17.7856 16.9178 17.9908 16.5001 18.0739C16.0823 18.157 15.6492 18.1143 15.2557 17.9513C14.8621 17.7883 14.5257 17.5122 14.2891 17.158C14.0524 16.8039 13.9261 16.3874 13.9261 15.9615C13.9261 15.3902 14.153 14.8424 14.5569 14.4385C14.9608 14.0346 15.5087 13.8077 16.0799 13.8077ZM16.0799 12.3718C15.3699 12.3718 14.6759 12.5824 14.0856 12.9768C13.4953 13.3712 13.0352 13.9318 12.7635 14.5878C12.4918 15.2437 12.4207 15.9654 12.5592 16.6618C12.6977 17.3581 13.0396 17.9977 13.5416 18.4997C14.0436 19.0017 14.6832 19.3436 15.3796 19.4821C16.0759 19.6206 16.7976 19.5495 17.4536 19.2779C18.1095 19.0062 18.6701 18.5461 19.0645 17.9558C19.459 17.3654 19.6695 16.6714 19.6695 15.9615C19.6695 15.0094 19.2913 14.0964 18.6181 13.4232C17.9449 12.75 17.0319 12.3718 16.0799 12.3718Z" fill="#FDAD31"/>
<path d="M24.6951 13.8077C25.1211 13.8077 25.5375 13.934 25.8917 14.1707C26.2459 14.4073 26.5219 14.7437 26.6849 15.1372C26.848 15.5308 26.8906 15.9639 26.8075 16.3816C26.7244 16.7994 26.5193 17.1832 26.2181 17.4844C25.9169 17.7856 25.5331 17.9908 25.1153 18.0739C24.6975 18.157 24.2644 18.1143 23.8709 17.9513C23.4773 17.7883 23.141 17.5122 22.9043 17.158C22.6676 16.8039 22.5413 16.3874 22.5413 15.9615C22.5413 15.3902 22.7682 14.8424 23.1722 14.4385C23.5761 14.0346 24.1239 13.8077 24.6951 13.8077ZM24.6951 12.3718C23.9851 12.3718 23.2911 12.5824 22.7008 12.9768C22.1105 13.3712 21.6504 13.9318 21.3787 14.5878C21.107 15.2437 21.0359 15.9654 21.1744 16.6618C21.313 17.3581 21.6548 17.9977 22.1569 18.4997C22.6589 19.0017 23.2985 19.3436 23.9948 19.4821C24.6911 19.6206 25.4129 19.5495 26.0688 19.2779C26.7247 19.0062 27.2854 18.5461 27.6798 17.9558C28.0742 17.3654 28.2847 16.6714 28.2847 15.9615C28.2847 15.0094 27.9066 14.0964 27.2334 13.4232C26.5602 12.75 25.6471 12.3718 24.6951 12.3718Z" fill="#FDAD31"/>
</svg>
