<?xml version="1.0" encoding="UTF-8"?>
<svg id="Warstwa_1" data-name="Warstwa 1" xmlns="http://www.w3.org/2000/svg" xmlns:xlink="http://www.w3.org/1999/xlink" viewBox="0 0 60 60">
  <defs>
    <style>
      .cls-1 {
        fill: none;
      }

      .cls-2 {
        fill: #fdad31;
      }

      .cls-3 {
        fill: #051344;
      }

      .cls-4 {
        clip-path: url(#clippath);
      }
    </style>
    <clipPath id="clippath">
      <rect class="cls-1" width="60" height="60"/>
    </clipPath>
  </defs>
  <g class="cls-4">
    <g>
      <path class="cls-3" d="M35.51,10.31c.02,9.42-.09,16.97-2.2,23.32-2.27,6.83-6.8,11.74-14.62,15.83-7.61-4-12.25-9.25-14.57-16.46C2.01,26.47,1.88,18.95,1.88,10.31H35.51m1.87-1.88H0C0,27.19-.05,42.19,18.69,51.56c18.76-9.38,18.75-22.5,18.69-43.12h0Z"/>
      <path class="cls-2" d="M27.14,15.94c1.55,0,2.81,1.26,2.81,2.81s-1.26,2.81-2.81,2.81-2.81-1.26-2.81-2.81,1.26-2.81,2.81-2.81m0-1.88c-2.59,0-4.69,2.1-4.69,4.69s2.1,4.69,4.69,4.69,4.69-2.1,4.69-4.69-2.1-4.69-4.69-4.69h0Z"/>
      <path class="cls-3" d="M18.27,44.88C5.58,38.53,5.58,26.14,5.58,14.16v-.09h1.88v.09c0,11.94,0,23.22,11.65,29.05l-.84,1.68Z"/>
    </g>
  </g>
</svg>