<?xml version="1.0" encoding="UTF-8"?>
<svg id="Warstwa_1" data-name="Warstwa 1" xmlns="http://www.w3.org/2000/svg" xmlns:xlink="http://www.w3.org/1999/xlink" viewBox="0 0 60 60">
  <defs>
    <style>
      .cls-1 {
        fill: none;
      }

      .cls-2 {
        fill: #fdad31;
      }

      .cls-3 {
        fill: #051344;
      }

      .cls-4 {
        clip-path: url(#clippath);
      }
    </style>
    <clipPath id="clippath">
      <rect class="cls-1" width="60" height="60"/>
    </clipPath>
  </defs>
  <g class="cls-4">
    <g>
      <path class="cls-2" d="M4.69,17.81c1.55,0,2.81,1.26,2.81,2.81s-1.26,2.81-2.81,2.81-2.81-1.26-2.81-2.81,1.26-2.81,2.81-2.81m0-1.88c-2.59,0-4.69,2.1-4.69,4.69s2.1,4.69,4.69,4.69,4.69-2.1,4.69-4.69-2.1-4.69-4.69-4.69h0Z"/>
      <g>
        <rect class="cls-3" x="3.75" y="45.94" width="45" height="1.88"/>
        <path class="cls-3" d="M3.75,12.19v3.84c.3-.06,.62-.09,.94-.09s.63,.03,.94,.09v-1.97H46.88v26.25H5.62v-15.09c-.3,.06-.62,.09-.94,.09s-.63-.03-.94-.09v16.97H48.75V12.19H3.75Z"/>
        <polygon class="cls-3" points="22.5 19.69 16.33 25.86 16.33 25.86 15 27.19 22.5 34.69 23.83 33.36 17.65 27.19 23.83 21.01 22.5 19.69"/>
        <polygon class="cls-3" points="30 34.69 37.5 27.19 36.17 25.86 36.17 25.86 30 19.69 28.67 21.01 34.85 27.19 28.67 33.36 30 34.69"/>
      </g>
    </g>
  </g>
</svg>