<?xml version="1.0" encoding="UTF-8"?>
<svg id="Warstwa_1" data-name="Warstwa 1" xmlns="http://www.w3.org/2000/svg" xmlns:xlink="http://www.w3.org/1999/xlink" viewBox="0 0 60 60">
  <defs>
    <style>
      .cls-1 {
        fill: none;
      }

      .cls-2 {
        fill: #fdad31;
      }

      .cls-3 {
        fill: #383c74;
      }

      .cls-4 {
        fill: #051344;
      }

      .cls-5 {
        clip-path: url(#clippath);
      }
    </style>
    <clipPath id="clippath">
      <rect class="cls-1" width="60" height="60"/>
    </clipPath>
  </defs>
  <g class="cls-5">
    <g>
      <path class="cls-2" d="M25.31,27.19c1.55,0,2.81,1.26,2.81,2.81s-1.26,2.81-2.81,2.81-2.81-1.26-2.81-2.81,1.26-2.81,2.81-2.81m0-1.88c-2.59,0-4.69,2.1-4.69,4.69s2.1,4.69,4.69,4.69,4.69-2.1,4.69-4.69-2.1-4.69-4.69-4.69h0Z"/>
      <rect class="cls-3" x="24.38" y="5.62" width="1.88" height="9.38"/>
      <path class="cls-4" d="M50.62,29.06h-4.71c-.48-10.64-9.02-19.19-19.66-19.66V4.69h-1.88v4.71c-10.64,.48-19.19,9.02-19.66,19.66H0v1.88H4.71c.48,10.64,9.02,19.19,19.66,19.66v4.71h1.88v-4.71c10.64-.48,19.19-9.02,19.66-19.66h4.71v-1.88Zm-24.38,19.66v-4.66h-1.88v4.66c-9.59-.47-17.31-8.19-17.79-17.79h4.66v-1.88H6.59c.47-9.59,8.19-17.31,17.79-17.79v4.66h1.88v-4.66c9.59,.47,17.31,8.19,17.79,17.79h-4.66v1.88h4.66c-.47,9.59-8.19,17.31-17.79,17.79Z"/>
    </g>
  </g>
</svg>