<svg width="46" height="46" viewBox="0 0 46 46" fill="none" xmlns="http://www.w3.org/2000/svg">
<path d="M13.0156 10.9063C13.4328 10.9063 13.8406 11.03 14.1875 11.2617C14.5344 11.4935 14.8048 11.823 14.9644 12.2084C15.1241 12.5938 15.1659 13.018 15.0845 13.4271C15.0031 13.8363 14.8022 14.2122 14.5072 14.5072C14.2122 14.8022 13.8363 15.0031 13.4271 15.0845C13.018 15.1659 12.5938 15.1241 12.2084 14.9644C11.823 14.8048 11.4935 14.5344 11.2617 14.1875C11.03 13.8406 10.9063 13.4328 10.9063 13.0156C10.907 12.4564 11.1295 11.9203 11.5249 11.5249C11.9203 11.1295 12.4564 10.907 13.0156 10.9063V10.9063ZM13.0156 9.5C12.3203 9.5 11.6406 9.70619 11.0624 10.0925C10.4843 10.4788 10.0337 11.0279 9.76761 11.6703C9.50152 12.3126 9.4319 13.0195 9.56755 13.7015C9.7032 14.3835 10.038 15.0099 10.5297 15.5015C11.0214 15.9932 11.6478 16.328 12.3298 16.4637C13.0117 16.5993 13.7186 16.5297 14.361 16.2636C15.0034 15.9975 15.5525 15.5469 15.9388 14.9688C16.3251 14.3907 16.5312 13.7109 16.5312 13.0156C16.5316 12.5538 16.4409 12.0965 16.2644 11.6698C16.0878 11.2431 15.8289 10.8554 15.5024 10.5289C15.1758 10.2023 14.7881 9.9434 14.3614 9.76686C13.9347 9.59031 13.4774 9.49963 13.0156 9.5V9.5Z" fill="#051344"/>
<path d="M22.8594 10.9063C23.2766 10.9063 23.6844 11.03 24.0313 11.2617C24.3782 11.4935 24.6485 11.823 24.8082 12.2084C24.9678 12.5938 25.0096 13.018 24.9282 13.4271C24.8468 13.8363 24.6459 14.2122 24.3509 14.5072C24.0559 14.8022 23.6801 15.0031 23.2709 15.0845C22.8617 15.1659 22.4376 15.1241 22.0522 14.9644C21.6667 14.8048 21.3373 14.5344 21.1055 14.1875C20.8737 13.8406 20.75 13.4328 20.75 13.0156C20.7507 12.4564 20.9732 11.9203 21.3686 11.5249C21.7641 11.1295 22.3002 10.907 22.8594 10.9063V10.9063ZM22.8594 9.5C22.1641 9.5 21.4843 9.70619 20.9062 10.0925C20.3281 10.4788 19.8775 11.0279 19.6114 11.6703C19.3453 12.3126 19.2757 13.0195 19.4113 13.7015C19.547 14.3835 19.8818 15.0099 20.3735 15.5015C20.8651 15.9932 21.4915 16.328 22.1735 16.4637C22.8555 16.5993 23.5624 16.5297 24.2047 16.2636C24.8471 15.9975 25.3962 15.5469 25.7825 14.9688C26.1688 14.3907 26.375 13.7109 26.375 13.0156C26.3754 12.5538 26.2847 12.0965 26.1081 11.6698C25.9316 11.2431 25.6727 10.8554 25.3461 10.5289C25.0196 10.2023 24.6319 9.9434 24.2052 9.76686C23.7785 9.59031 23.3212 9.49963 22.8594 9.5Z" fill="#051344"/>
<path d="M32.7031 10.9063C33.1203 10.9063 33.5281 11.03 33.875 11.2617C34.2219 11.4935 34.4923 11.823 34.6519 12.2084C34.8116 12.5938 34.8534 13.018 34.772 13.4271C34.6906 13.8363 34.4897 14.2122 34.1947 14.5072C33.8997 14.8022 33.5238 15.0031 33.1146 15.0845C32.7055 15.1659 32.2813 15.1241 31.8959 14.9644C31.5105 14.8048 31.181 14.5344 30.9492 14.1875C30.7175 13.8406 30.5938 13.4328 30.5938 13.0156C30.5945 12.4564 30.817 11.9203 31.2124 11.5249C31.6078 11.1295 32.1439 10.907 32.7031 10.9063V10.9063ZM32.7031 9.5C32.0078 9.5 31.3281 9.70619 30.7499 10.0925C30.1718 10.4788 29.7212 11.0279 29.4551 11.6703C29.189 12.3126 29.1194 13.0195 29.2551 13.7015C29.3907 14.3835 29.7255 15.0099 30.2172 15.5015C30.7089 15.9932 31.3353 16.328 32.0173 16.4637C32.6992 16.5993 33.4061 16.5297 34.0485 16.2636C34.6909 15.9975 35.24 15.5469 35.6263 14.9688C36.0126 14.3907 36.2188 13.7109 36.2188 13.0156C36.2191 12.5538 36.1284 12.0965 35.9519 11.6698C35.7753 11.2431 35.5164 10.8554 35.1899 10.5289C34.8633 10.2023 34.4756 9.9434 34.0489 9.76686C33.6222 9.59031 33.1649 9.49963 32.7031 9.5Z" fill="#051344"/>
<path d="M13.0156 21.0313C13.4328 21.0313 13.8406 21.155 14.1875 21.3867C14.5344 21.6185 14.8048 21.948 14.9644 22.3334C15.1241 22.7188 15.1659 23.143 15.0845 23.5521C15.0031 23.9613 14.8022 24.3372 14.5072 24.6322C14.2122 24.9272 13.8363 25.1281 13.4271 25.2095C13.018 25.2909 12.5938 25.2491 12.2084 25.0894C11.823 24.9298 11.4935 24.6594 11.2617 24.3125C11.03 23.9656 10.9063 23.5578 10.9063 23.1406C10.907 22.5814 11.1295 22.0453 11.5249 21.6499C11.9203 21.2545 12.4564 21.032 13.0156 21.0313V21.0313ZM13.0156 19.625C12.3203 19.625 11.6406 19.8312 11.0624 20.2175C10.4843 20.6038 10.0337 21.1529 9.76761 21.7953C9.50152 22.4376 9.4319 23.1445 9.56755 23.8265C9.7032 24.5085 10.038 25.1349 10.5297 25.6265C11.0214 26.1182 11.6478 26.453 12.3298 26.5887C13.0117 26.7243 13.7186 26.6547 14.361 26.3886C15.0034 26.1225 15.5525 25.6719 15.9388 25.0938C16.3251 24.5157 16.5312 23.8359 16.5312 23.1406C16.5316 22.6788 16.4409 22.2215 16.2644 21.7948C16.0878 21.3681 15.8289 20.9804 15.5024 20.6539C15.1758 20.3273 14.7881 20.0684 14.3614 19.8919C13.9347 19.7153 13.4774 19.6246 13.0156 19.625V19.625Z" fill="#051344"/>
<path d="M22.8594 21.0313C23.2766 21.0313 23.6844 21.155 24.0313 21.3867C24.3782 21.6185 24.6485 21.948 24.8082 22.3334C24.9678 22.7188 25.0096 23.143 24.9282 23.5521C24.8468 23.9613 24.6459 24.3372 24.3509 24.6322C24.0559 24.9272 23.6801 25.1281 23.2709 25.2095C22.8617 25.2909 22.4376 25.2491 22.0522 25.0894C21.6667 24.9298 21.3373 24.6594 21.1055 24.3125C20.8737 23.9656 20.75 23.5578 20.75 23.1406C20.7507 22.5814 20.9732 22.0453 21.3686 21.6499C21.7641 21.2545 22.3002 21.032 22.8594 21.0313V21.0313ZM22.8594 19.625C22.1641 19.625 21.4843 19.8312 20.9062 20.2175C20.3281 20.6038 19.8775 21.1529 19.6114 21.7953C19.3453 22.4376 19.2757 23.1445 19.4113 23.8265C19.547 24.5085 19.8818 25.1349 20.3735 25.6265C20.8651 26.1182 21.4915 26.453 22.1735 26.5887C22.8555 26.7243 23.5624 26.6547 24.2047 26.3886C24.8471 26.1225 25.3962 25.6719 25.7825 25.0938C26.1688 24.5157 26.375 23.8359 26.375 23.1406C26.3754 22.6788 26.2847 22.2215 26.1081 21.7948C25.9316 21.3681 25.6727 20.9804 25.3461 20.6539C25.0196 20.3273 24.6319 20.0684 24.2052 19.8919C23.7785 19.7153 23.3212 19.6246 22.8594 19.625Z" fill="#051344"/>
<path d="M32.7031 21.0313C33.1203 21.0313 33.5281 21.155 33.875 21.3867C34.2219 21.6185 34.4923 21.948 34.6519 22.3334C34.8116 22.7188 34.8534 23.143 34.772 23.5521C34.6906 23.9613 34.4897 24.3372 34.1947 24.6322C33.8997 24.9272 33.5238 25.1281 33.1146 25.2095C32.7055 25.2909 32.2813 25.2491 31.8959 25.0894C31.5105 24.9298 31.181 24.6594 30.9492 24.3125C30.7175 23.9656 30.5938 23.5578 30.5938 23.1406C30.5945 22.5814 30.817 22.0453 31.2124 21.6499C31.6078 21.2545 32.1439 21.032 32.7031 21.0313V21.0313ZM32.7031 19.625C32.0078 19.625 31.3281 19.8312 30.7499 20.2175C30.1718 20.6038 29.7212 21.1529 29.4551 21.7953C29.189 22.4376 29.1194 23.1445 29.2551 23.8265C29.3907 24.5085 29.7255 25.1349 30.2172 25.6265C30.7089 26.1182 31.3353 26.453 32.0173 26.5887C32.6992 26.7243 33.4061 26.6547 34.0485 26.3886C34.6909 26.1225 35.24 25.6719 35.6263 25.0938C36.0126 24.5157 36.2188 23.8359 36.2188 23.1406C36.2191 22.6788 36.1284 22.2215 35.9519 21.7948C35.7753 21.3681 35.5164 20.9804 35.1899 20.6539C34.8633 20.3273 34.4756 20.0684 34.0489 19.8919C33.6222 19.7153 33.1649 19.6246 32.7031 19.625Z" fill="#FDAD31"/>
<path d="M13.0156 31.1563C13.4328 31.1563 13.8406 31.28 14.1875 31.5117C14.5344 31.7435 14.8048 32.073 14.9644 32.4584C15.1241 32.8438 15.1659 33.268 15.0845 33.6771C15.0031 34.0863 14.8022 34.4622 14.5072 34.7572C14.2122 35.0522 13.8363 35.2531 13.4271 35.3345C13.018 35.4159 12.5938 35.3741 12.2084 35.2144C11.823 35.0548 11.4935 34.7844 11.2617 34.4375C11.03 34.0906 10.9063 33.6828 10.9063 33.2656C10.907 32.7064 11.1295 32.1703 11.5249 31.7749C11.9203 31.3795 12.4564 31.157 13.0156 31.1563V31.1563ZM13.0156 29.75C12.3203 29.75 11.6406 29.9562 11.0624 30.3425C10.4843 30.7288 10.0337 31.2779 9.76761 31.9203C9.50152 32.5627 9.4319 33.2695 9.56755 33.9515C9.7032 34.6335 10.038 35.2599 10.5297 35.7515C11.0214 36.2432 11.6478 36.578 12.3298 36.7137C13.0117 36.8493 13.7186 36.7797 14.361 36.5136C15.0034 36.2476 15.5525 35.7969 15.9388 35.2188C16.3251 34.6407 16.5312 33.961 16.5312 33.2656C16.5316 32.8038 16.4409 32.3465 16.2644 31.9198C16.0878 31.4931 15.8289 31.1054 15.5024 30.7789C15.1758 30.4523 14.7881 30.1934 14.3614 30.0169C13.9347 29.8403 13.4774 29.7496 13.0156 29.75V29.75Z" fill="#051344"/>
<path d="M22.8594 31.1563C23.2766 31.1563 23.6844 31.28 24.0313 31.5117C24.3782 31.7435 24.6485 32.073 24.8082 32.4584C24.9678 32.8438 25.0096 33.268 24.9282 33.6771C24.8468 34.0863 24.6459 34.4622 24.3509 34.7572C24.0559 35.0522 23.6801 35.2531 23.2709 35.3345C22.8617 35.4159 22.4376 35.3741 22.0522 35.2144C21.6667 35.0548 21.3373 34.7844 21.1055 34.4375C20.8737 34.0906 20.75 33.6828 20.75 33.2656C20.7507 32.7064 20.9732 32.1703 21.3686 31.7749C21.7641 31.3795 22.3002 31.157 22.8594 31.1563V31.1563ZM22.8594 29.75C22.1641 29.75 21.4843 29.9562 20.9062 30.3425C20.3281 30.7288 19.8775 31.2779 19.6114 31.9203C19.3453 32.5627 19.2757 33.2695 19.4113 33.9515C19.547 34.6335 19.8818 35.2599 20.3735 35.7515C20.8651 36.2432 21.4915 36.578 22.1735 36.7137C22.8555 36.8493 23.5624 36.7797 24.2047 36.5136C24.8471 36.2476 25.3962 35.7969 25.7825 35.2188C26.1688 34.6407 26.375 33.961 26.375 33.2656C26.3754 32.8038 26.2847 32.3465 26.1081 31.9198C25.9316 31.4931 25.6727 31.1054 25.3461 30.7789C25.0196 30.4523 24.6319 30.1934 24.2052 30.0169C23.7785 29.8403 23.3212 29.7496 22.8594 29.75Z" fill="#051344"/>
<path d="M32.7031 31.1563C33.1203 31.1563 33.5281 31.28 33.875 31.5117C34.2219 31.7435 34.4923 32.073 34.6519 32.4584C34.8116 32.8438 34.8534 33.268 34.772 33.6771C34.6906 34.0863 34.4897 34.4622 34.1947 34.7572C33.8997 35.0522 33.5238 35.2531 33.1146 35.3345C32.7055 35.4159 32.2813 35.3741 31.8959 35.2144C31.5105 35.0548 31.181 34.7844 30.9492 34.4375C30.7175 34.0906 30.5938 33.6828 30.5938 33.2656C30.5945 32.7064 30.817 32.1703 31.2124 31.7749C31.6078 31.3795 32.1439 31.157 32.7031 31.1563V31.1563ZM32.7031 29.75C32.0078 29.75 31.3281 29.9562 30.7499 30.3425C30.1718 30.7288 29.7212 31.2779 29.4551 31.9203C29.189 32.5627 29.1194 33.2695 29.2551 33.9515C29.3907 34.6335 29.7255 35.2599 30.2172 35.7515C30.7089 36.2432 31.3353 36.578 32.0173 36.7137C32.6992 36.8493 33.4061 36.7797 34.0485 36.5136C34.6909 36.2476 35.24 35.7969 35.6263 35.2188C36.0126 34.6407 36.2188 33.961 36.2188 33.2656C36.2191 32.8038 36.1284 32.3465 35.9519 31.9198C35.7753 31.4931 35.5164 31.1054 35.1899 30.7789C34.8633 30.4523 34.4756 30.1934 34.0489 30.0169C33.6222 29.8403 33.1649 29.7496 32.7031 29.75Z" fill="#051344"/>
<rect x="34.25" y="25.0797" width="1.35" height="3.79958" transform="rotate(-45 34.25 25.0797)" fill="#FDAD31"/>
</svg>
