<svg width="129" height="60" viewBox="0 0 129 60" xmlns="http://www.w3.org/2000/svg" xmlns:xlink="http://www.w3.org/1999/xlink">
    <defs>
        <path id="a" d="M.38.612h.424v.804H.379z"/>
        <path id="c" d="M.38.16h.424v.804H.379z"/>
        <path d="M18.304.228c-.537.002-1.074.03-1.61.086-1.07.11-2.118.316-3.145.63a17.474 17.474 0 0 0-6.739 3.82c-1.846 1.677-3.255 3.663-4.188 5.98a14.293 14.293 0 0 0-.971 3.884c-.082.785-.1 1.57-.045 2.357.05.695.044 1.389-.071 2.079-.042.25-.088.501-.133.752-.045.064-.046.14-.049.213-.04.022-.035.062-.034.1-.008.019-.014.038-.021.058-.052.161-.123.316-.152.484-.107.253-.215.506-.32.759-.006.016-.009.031-.013.045-.071.11-.136.225-.175.35-.045.024-.051.07-.063.112-.15.248-.323.485-.425.761a.365.365 0 0 0-.058.179.232.232 0 0 0-.014.128c-.028.012-.034.062-.078.049v.512c.11.07.08.204.134.3a.109.109 0 0 0 .036.085l.01.047c.01.049.03.093.072.124.042.155.148.266.26.372.147.141.281.299.49.356.094.065.198.111.314.124.006.012.014.016.026.012a.21.21 0 0 0 .149.026c.07.043.148.037.227.035.141-.001.282-.001.424-.005.44-.01.878.019 1.313.07l.012.01.016-.002c.487.088.969.19 1.439.34.075.032.148.072.234.066.078.065.179.081.27.116.272.1.522.247.793.35h.002c.048.039.094.082.163.08.022.031.05.05.089.053.089.078.191.133.298.18.006.02.02.027.042.024.115.09.24.17.373.236a.056.056 0 0 0 .044.039c.11.073.215.155.33.22.273.155.528.344.825.456.06.057.132.094.212.114.465.255.953.456 1.452.635.324.115.646.247.987.314.046.046.106.033.163.042.137.056.28.1.428.113a.3.3 0 0 1 0 0l.084.02a.47.47 0 0 0 .215.053c.267.064.533.14.81.148.04.03.085.031.132.026l.08.01c.436.083.877.125 1.321.14l.002.034h1.619l-.001-.046v.046h.554c-.02-.008-.027-.023-.018-.044l-.131-.004.132.004c.268-.01.537-.025.8-.083l.012-.001.06-.006c.071.003.144.008.208-.032a.455.455 0 0 0 .183-.014c.197-.031.395-.053.586-.114l.028.001c.039.002.078.006.101-.04l.081-.011c.143.03.267-.028.395-.073l.127-.019c.042.004.078-.016.115-.035a.686.686 0 0 0 .312-.08c.277-.038.535-.14.798-.223.025.002.05.005.05-.032l.003.007c.136-.015.264-.058.384-.124.135-.035.27-.071.39-.145a.225.225 0 0 0 .182-.078c.043.014.083-.002.121-.018.272-.113.546-.223.813-.347.228-.105.466-.194.678-.333.112-.024.203-.089.294-.153l-.059-.047-.007-.038.007.038.059.047a.534.534 0 0 0 .239-.13.117.117 0 0 0 0 0c.024-.003.045-.012.059-.034a.346.346 0 0 0 .178-.1c.064-.002.11-.035.15-.083.07-.02.128-.06.183-.106l-.004-.005.004.005c.035-.01.068-.021.088-.054a.297.297 0 0 0 .13-.08c.22-.125.447-.241.63-.422l.005-.004c.053.008.084-.024.112-.06a.753.753 0 0 0 .225-.16c.199-.108.37-.252.541-.397a.235.235 0 0 0 .143-.113c.07-.025.118-.078.173-.122a16.872 16.872 0 0 0 1.538-1.406c1.744-1.802 3.03-3.883 3.798-6.274.548-1.705.777-3.454.643-5.241a9.159 9.159 0 0 1 .31-3.155c.057-.204.155-.395.184-.607l-.004-.006a.97.97 0 0 0 .165-.388c.035-.023.041-.06.042-.097a.723.723 0 0 0 .136-.297l.003-.001c.078-.113.146-.231.194-.36a.346.346 0 0 0 .09-.177.4.4 0 0 0 .113-.174l.027-.048a.227.227 0 0 0 .073-.129.773.773 0 0 0 .17-.42c.07-.215.112-.43.04-.652.004-.071.013-.142-.033-.204a.117.117 0 0 0-.024-.091.9.9 0 0 0-.185-.398 1.31 1.31 0 0 0-.548-.551h-.006c-.033-.048-.084-.067-.139-.08-.05-.04-.102-.076-.17-.076a.484.484 0 0 0-.308-.079.186.186 0 0 0-.1-.004c-.02.002-.04.005-.059.003-.01-.02-.022-.038-.05-.03l-.092-.005-.068.004c-.01.024-.021.048-.03.073.009-.025.02-.049.03-.073l-.097.002-.122.002a.1.1 0 0 0-.082.004 3.861 3.861 0 0 0-.51-.01l-.09-.003-.252-.014c0 .016-.001.033-.003.048.002-.015.003-.032.003-.048-.15-.05-.31-.032-.464-.065l-.774-.136a10.19 10.19 0 0 1-.075-.02.092.092 0 0 0 0 0l-.352-.098-.594-.19c-.12-.055-.237-.119-.362-.16-.09-.03-.167-.108-.274-.085l-.045-.009c-.002-.022-.009-.04-.034-.046a.376.376 0 0 0-.174-.088l-.56-.312c-.106-.071-.207-.152-.329-.2-.087-.067-.163-.145-.268-.185-.053-.04-.097-.098-.171-.103a.467.467 0 0 0-.212-.132c-.364-.254-.763-.448-1.162-.638-.271-.128-.538-.273-.833-.347l-.002.007c-.004-.032-.026-.036-.051-.034A6.523 6.523 0 0 0 22.706.87a.035.035 0 0 0-.035-.015c-.053-.02-.104-.043-.159-.057a15.357 15.357 0 0 0-2.78-.51c-.44-.038-.88-.058-1.32-.06h-.108zm-.827 28.389a.184.184 0 0 0 0 0z" id="e"/>
        <path d="M16.697.228c-.537.002-1.074.03-1.61.086-1.07.11-2.118.316-3.145.63a17.474 17.474 0 0 0-6.739 3.82c-1.846 1.677-3.255 3.663-4.188 5.98-.099.245-.19.492-.276.74h29.61a9.182 9.182 0 0 1 .336-2.493c.056-.204.155-.395.183-.607l-.004-.006a.97.97 0 0 0 .166-.388c.034-.023.04-.06.042-.097a.723.723 0 0 0 .136-.297l.003-.001c.078-.113.146-.231.193-.36a.346.346 0 0 0 .091-.177.4.4 0 0 0 .113-.174l.027-.048a.227.227 0 0 0 .073-.129.773.773 0 0 0 .17-.42c.07-.215.111-.43.04-.652.004-.071.013-.142-.033-.204a.117.117 0 0 0-.024-.091.9.9 0 0 0-.185-.398 1.31 1.31 0 0 0-.548-.551h-.006c-.033-.048-.084-.067-.139-.08-.05-.04-.103-.076-.17-.076a.484.484 0 0 0-.308-.079.186.186 0 0 0-.1-.004c-.02.002-.04.005-.059.003-.01-.02-.022-.038-.05-.03l-.092-.005-.068.004c-.01.024-.021.048-.03.073.009-.025.02-.049.03-.073l-.097.002-.122.002a.1.1 0 0 0-.082.004 3.861 3.861 0 0 0-.51-.01l-.09-.003-.252-.014c0 .016-.001.033-.003.048.002-.015.002-.032.003-.048-.15-.05-.31-.032-.464-.065l-.774-.136a10.19 10.19 0 0 1-.076-.02.092.092 0 0 0 0 0l-.35-.098-.595-.19c-.121-.055-.237-.119-.362-.16-.09-.03-.167-.108-.274-.085l-.045-.009c-.002-.022-.009-.04-.034-.046a.376.376 0 0 0-.174-.088l-.56-.312c-.106-.071-.208-.152-.329-.2-.087-.067-.163-.145-.268-.185-.053-.04-.097-.098-.171-.103a.467.467 0 0 0-.212-.132c-.365-.254-.763-.448-1.162-.638-.271-.128-.538-.273-.833-.347l-.002.007c-.005-.032-.026-.036-.051-.034A6.523 6.523 0 0 0 21.099.87a.035.035 0 0 0-.035-.015c-.053-.02-.104-.043-.16-.057a15.357 15.357 0 0 0-2.779-.51c-.44-.038-.88-.058-1.32-.06h-.108z" id="h"/>
        <linearGradient x1="37.761%" y1="54.178%" x2="26.401%" y2="85.283%" id="f">
            <stop stop-color="#97DF13" offset="0%"/>
            <stop stop-color="#6CBF24" offset="57.881%"/>
            <stop stop-color="#057D46" offset="100%"/>
        </linearGradient>
        <linearGradient x1="81.998%" y1="43.499%" x2="68.584%" y2="50%" id="i">
            <stop stop-color="#069553" offset="0%"/>
            <stop stop-color="#6CBF24" offset="35.738%"/>
            <stop stop-color="#96DC14" offset="100%"/>
        </linearGradient>
    </defs>
    <g fill="none" fill-rule="evenodd">
        <path d="M85.29 23.997a3.365 3.365 0 0 0-.049-.677c-.19-1.038-.739-1.793-1.727-2.207a2.93 2.93 0 0 0-1.418-.196c-1.135.106-1.965.657-2.397 1.728-.338.84-.336 1.703-.047 2.56a2.564 2.564 0 0 0 1.564 1.633 3.099 3.099 0 0 0 2.207.036c.843-.295 1.404-.881 1.693-1.727.127-.372.184-.756.173-1.15m3.064.768c-.044.78-.286 1.5-.667 2.175-.62 1.1-1.554 1.84-2.71 2.323-.961.402-1.966.518-2.999.477a6.313 6.313 0 0 1-2.938-.829c-1.386-.79-2.238-1.98-2.564-3.536-.232-1.107-.203-2.216.133-3.3.49-1.58 1.535-2.665 3.041-3.324.963-.422 1.971-.562 3.012-.529.972.03 1.894.247 2.762.69 1.657.842 2.61 2.194 2.914 4.017.017.103.012.212.016.317-.008.094-.012.187.04.272v.936c-.06.098-.046.205-.04.311" fill="#242424"/>
        <g transform="translate(87.59 23.611)">
            <mask id="b" fill="#fff">
                <use xlink:href="#a"/>
            </mask>
            <path d="M.763 1.154C.757 1.048.745.941.804.844v.34l-.041-.03" fill="#4FAE2C" mask="url(#b)"/>
        </g>
        <g transform="translate(87.59 22.807)">
            <mask id="d" fill="#fff">
                <use xlink:href="#c"/>
            </mask>
            <path d="M.804.711C.752.626.754.531.764.44l.04-.026v.298z" fill="#4FAE2C" mask="url(#d)"/>
        </g>
        <path d="M50.833 34.5c0 .418.002.836-.002 1.254 0 .1.014.156.137.153.468-.007.935.008 1.403-.009.414-.015.79-.157 1.107-.432.606-.524.61-1.365.009-1.895a1.7 1.7 0 0 0-1.084-.434c-.475-.017-.95-.01-1.424-.01-.142 0-.145.005-.145.161-.002.405 0 .808 0 1.212m3.77 2.966c.489.972 1.2 1.6 2.291 1.723.172.02.175.02.175.19v2.427c0 .179-.003.183-.193.179-1.488-.037-2.784-.548-3.859-1.589a6.617 6.617 0 0 1-1.487-2.183c-.057-.136-.123-.206-.278-.185-.104.014-.213.005-.319.002-.071-.001-.104.028-.1.1.002.05 0 .1 0 .15v3.32c0 .042-.004.084 0 .127.009.097-.023.15-.131.135-.035-.005-.07-.001-.106-.001h-2.875c-.062 0-.09-.03-.089-.09V31.129c0-.035.003-.07 0-.106-.01-.096.02-.152.127-.137h.043c1.683.001 3.365-.01 5.048.009.874.01 1.718.192 2.493.622.854.475 1.436 1.166 1.674 2.125.13.523.142 1.053.018 1.58-.156.666-.53 1.183-1.086 1.575-.355.25-.742.442-1.148.596-.059.023-.118.044-.199.073M45.943 24.81c-.585.2-1.137.355-1.701.468-.656.13-1.314.225-1.983.251-.196.007-.207-.041-.207.211v3.49c0 .27.025.235-.242.235h-2.705c-.035 0-.071-.003-.106 0-.104.012-.165-.02-.15-.138.005-.035.001-.071.001-.107l.001-10.49c0-.267-.034-.237.237-.237.923-.002 1.846-.001 2.769-.001.208 0 .195-.024.195.193v4.17c.001.228-.056.244.248.227 1.196-.067 2.36-.306 3.5-.667.14-.044.144-.125.144-.236v-3.447c0-.277-.029-.24.236-.24h2.895c.052.002.077.029.076.08l.001.15v10.513c0 .244.028.23-.226.23H46.05c-.069.003-.107-.025-.106-.098V24.81zM84.992 37.195c-.31.092-.59.184-.877.262-.926.254-1.87.407-2.83.45-.178.008-.18.008-.18.192v3.468c0 .043-.006.086 0 .128.019.118-.04.141-.146.141-.972-.003-1.944-.004-2.916.001-.12.001-.148-.046-.137-.148.004-.042 0-.086 0-.127V31.134c0-.043.005-.086 0-.127-.018-.12.042-.14.146-.14.965.004 1.93.003 2.896.002.187 0 .157.024.157.192v4.13c0 .275 0 .272.272.26 1.184-.055 2.33-.304 3.457-.66.17-.054.157-.012.157-.22.002-1.148.001-2.298.001-3.447 0-.049.002-.1 0-.149-.004-.069.02-.108.095-.105.036.002.071 0 .107 0h2.81c.2 0 .188-.013.188.18v10.598c0 .208.013.186-.202.187H85.2c-.236 0-.208 0-.208-.204v-4.436zM76.027 32.822l-2.27 1.203c-.018-.035-.034-.058-.042-.085-.174-.614-.602-.963-1.198-1.117a2.39 2.39 0 0 0-1.364.025c-.364.12-.64.338-.711.743a.735.735 0 0 0 .27.739c.206.17.445.275.703.34.604.156 1.219.26 1.83.382.556.112 1.108.245 1.646.425a3.339 3.339 0 0 1 1.48 1.002c.261.302.416.656.49 1.046.138.711.106 1.411-.172 2.088-.339.82-.951 1.38-1.723 1.781-.675.351-1.4.537-2.156.608-.91.087-1.814.047-2.703-.183-.915-.237-1.74-.643-2.407-1.33-.3-.31-.556-.688-.666-.997l2.47-1.308c.021.031.04.046.044.066.187.706.663 1.142 1.332 1.375.673.233 1.36.266 2.05.067.24-.069.462-.182.642-.36.382-.38.335-.942-.102-1.253-.29-.205-.62-.31-.96-.385-.665-.144-1.33-.28-1.995-.426a9.907 9.907 0 0 1-1.185-.339 3.397 3.397 0 0 1-1.425-.973 2.244 2.244 0 0 1-.53-1.164c-.115-.707-.067-1.401.213-2.065.396-.939 1.117-1.534 2.054-1.887.81-.305 1.655-.38 2.513-.323.699.047 1.375.194 2.012.496.748.355 1.364.861 1.77 1.598.023.043.044.088.065.133.008.019.013.04.025.078M50.51 23.965V18.73c0-.273-.023-.235.24-.235h7.497c.269 0 .237-.028.237.239.002.673.001 1.347 0 2.022 0 .194 0 .196-.196.196H53.731c-.16.003-.162.003-.163.166v1.532c.001.179.003.18.192.18h3.812c.053 0 .078.025.077.078v1.851c0 .175-.002.177-.191.177H53.73c-.159.003-.162.004-.163.168v1.723c.001.176.003.177.194.178h4.387c.284 0 .284 0 .284.279v1.979c0 .24.007.21-.225.21H50.67c-.157-.002-.16-.002-.16-.167V23.965zM58.357 36.34l.001-5.235c0-.265-.038-.235.239-.235l7.28-.001c.043 0 .087.005.13 0 .098-.011.115.04.115.125-.002.73-.005 1.461.002 2.192.001.13-.06.13-.154.13-.682-.001-1.363 0-2.044 0h-2.322c-.182 0-.183.001-.183.185v1.532c0 .158.002.16.163.16 1.221.002 2.442 0 3.662.002.293 0 .258-.03.259.263v1.639c0 .227.01.21-.205.21h-3.642c-.269 0-.236-.038-.237.236v1.616c0 .231-.025.207.202.207H66.095c.183.002.185.002.185.186v2.106c0 .174-.002.176-.172.176h-7.58c-.17 0-.17-.002-.17-.196V36.34zM38.85 36.347v-5.256c.001-.225-.016-.205.208-.205h7.369c.15.001.154.004.154.154a588.7 588.7 0 0 1 0 2.382c0 .143-.004.145-.16.145-.888.002-1.775 0-2.663 0h-1.511c-.219 0-.202-.015-.202.212v1.746c0 .201-.017.198.195.198h3.13c.043 0 .086-.002.128 0 .151.004.154.004.155.153.002.361.001.723.001 1.085v.894c-.002.18-.002.182-.19.182l-3.151.001c-.309 0-.266-.044-.267.273-.002 1.085 0 2.17 0 3.256 0 .05-.004.098 0 .148.006.082-.028.114-.11.112-.156-.005-.313-.002-.469-.002-.788 0-1.575.002-2.364 0-.29 0-.252.035-.252-.242-.002-1.746 0-3.491 0-5.236M68.378 23.974v-5.297c.002-.183.002-.185.185-.185h2.832c.19 0 .184-.018.184.183v7.85c0 .05.002.1 0 .149-.002.073.034.102.104.1h4.11c.15.005.153.005.153.153.002.354.001.71.001 1.064v1.32c-.001.15-.005.152-.153.154-.249.002-.497 0-.745 0h-6.386c-.057 0-.114-.002-.17 0-.08.004-.121-.025-.115-.11.004-.049 0-.1 0-.148v-5.233zM59.71 23.96c0-1.744 0-3.489.002-5.233 0-.273-.03-.235.238-.235.91-.002 1.817 0 2.725 0h.15c.06-.002.091.023.09.087-.002.057 0 .113 0 .17v7.787c0 .254-.041.238.238.238l3.833.001c.05 0 .1.004.148 0 .1-.01.137.026.135.13-.005.37-.002.738-.002 1.107v1.277c0 .173-.003.176-.173.176H59.92c-.206-.001-.207-.001-.207-.207l-.001-5.298" fill="#242424"/>
        <g transform="translate(0 15.575)">
            <mask id="g" fill="#fff">
                <use xlink:href="#e"/>
            </mask>
            <path d="M18.304.228c-.537.002-1.074.03-1.61.086-1.07.11-2.118.316-3.145.63a17.474 17.474 0 0 0-6.739 3.82c-1.846 1.677-3.255 3.663-4.188 5.98a14.293 14.293 0 0 0-.971 3.884c-.082.785-.1 1.57-.045 2.357.05.695.044 1.389-.071 2.079-.042.25-.088.501-.133.752-.045.064-.046.14-.049.213-.04.022-.035.062-.034.1-.008.019-.014.038-.021.058-.052.161-.123.316-.152.484-.107.253-.215.506-.32.759-.006.016-.009.031-.013.045-.071.11-.136.225-.175.35-.045.024-.051.07-.063.112-.15.248-.323.485-.425.761a.365.365 0 0 0-.058.179.232.232 0 0 0-.014.128c-.028.012-.034.062-.078.049v.512c.11.07.08.204.134.3a.109.109 0 0 0 .036.085l.01.047c.01.049.03.093.072.124.042.155.148.266.26.372.147.141.281.299.49.356.094.065.198.111.314.124.006.012.014.016.026.012a.21.21 0 0 0 .149.026c.07.043.148.037.227.035.141-.001.282-.001.424-.005.44-.01.878.019 1.313.07l.012.01.016-.002c.487.088.969.19 1.439.34.075.032.148.072.234.066.078.065.179.081.27.116.272.1.522.247.793.35h.002c.048.039.094.082.163.08.022.031.05.05.089.053.089.078.191.133.298.18.006.02.02.027.042.024.115.09.24.17.373.236a.056.056 0 0 0 .044.039c.11.073.215.155.33.22.273.155.528.344.825.456.06.057.132.094.212.114.465.255.953.456 1.452.635.324.115.646.247.987.314.046.046.106.033.163.042.137.056.28.1.428.113a.3.3 0 0 1 0 0l.084.02a.47.47 0 0 0 .215.053c.267.064.533.14.81.148.04.03.085.031.132.026l.08.01c.436.083.877.125 1.321.14l.002.034h1.619l-.001-.046v.046h.554c-.02-.008-.027-.023-.018-.044l-.131-.004.132.004c.268-.01.537-.025.8-.083l.012-.001.06-.006c.071.003.144.008.208-.032a.455.455 0 0 0 .183-.014c.197-.031.395-.053.586-.114l.028.001c.039.002.078.006.101-.04l.081-.011c.143.03.267-.028.395-.073l.127-.019c.042.004.078-.016.115-.035a.686.686 0 0 0 .312-.08c.277-.038.535-.14.798-.223.025.002.05.005.05-.032l.003.007c.136-.015.264-.058.384-.124.135-.035.27-.071.39-.145a.225.225 0 0 0 .182-.078c.043.014.083-.002.121-.018.272-.113.546-.223.813-.347.228-.105.466-.194.678-.333.112-.024.203-.089.294-.153l-.059-.047-.007-.038.007.038.059.047a.534.534 0 0 0 .239-.13.117.117 0 0 0 0 0c.024-.003.045-.012.059-.034a.346.346 0 0 0 .178-.1c.064-.002.11-.035.15-.083.07-.02.128-.06.183-.106l-.004-.005.004.005c.035-.01.068-.021.088-.054a.297.297 0 0 0 .13-.08c.22-.125.447-.241.63-.422l.005-.004c.053.008.084-.024.112-.06a.753.753 0 0 0 .225-.16c.199-.108.37-.252.541-.397a.235.235 0 0 0 .143-.113c.07-.025.118-.078.173-.122a16.872 16.872 0 0 0 1.538-1.406c1.744-1.802 3.03-3.883 3.798-6.274.548-1.705.777-3.454.643-5.241a9.159 9.159 0 0 1 .31-3.155c.057-.204.155-.395.184-.607l-.004-.006a.97.97 0 0 0 .165-.388c.035-.023.041-.06.042-.097a.723.723 0 0 0 .136-.297l.003-.001c.078-.113.146-.231.194-.36a.346.346 0 0 0 .09-.177.4.4 0 0 0 .113-.174l.027-.048a.227.227 0 0 0 .073-.129.773.773 0 0 0 .17-.42c.07-.215.112-.43.04-.652.004-.071.013-.142-.033-.204a.117.117 0 0 0-.024-.091.9.9 0 0 0-.185-.398 1.31 1.31 0 0 0-.548-.551h-.006c-.033-.048-.084-.067-.139-.08-.05-.04-.102-.076-.17-.076a.484.484 0 0 0-.308-.079.186.186 0 0 0-.1-.004c-.02.002-.04.005-.059.003-.01-.02-.022-.038-.05-.03l-.092-.005-.068.004c-.01.024-.021.048-.03.073.009-.025.02-.049.03-.073l-.097.002-.122.002a.1.1 0 0 0-.082.004 3.861 3.861 0 0 0-.51-.01l-.09-.003-.252-.014c0 .016-.001.033-.003.048.002-.015.003-.032.003-.048-.15-.05-.31-.032-.464-.065l-.774-.136a10.19 10.19 0 0 1-.075-.02.092.092 0 0 0 0 0l-.352-.098-.594-.19c-.12-.055-.237-.119-.362-.16-.09-.03-.167-.108-.274-.085l-.045-.009c-.002-.022-.009-.04-.034-.046a.376.376 0 0 0-.174-.088l-.56-.312c-.106-.071-.207-.152-.329-.2-.087-.067-.163-.145-.268-.185-.053-.04-.097-.098-.171-.103a.467.467 0 0 0-.212-.132c-.364-.254-.763-.448-1.162-.638-.271-.128-.538-.273-.833-.347l-.002.007c-.004-.032-.026-.036-.051-.034A6.523 6.523 0 0 0 22.706.87a.035.035 0 0 0-.035-.015c-.053-.02-.104-.043-.159-.057a15.357 15.357 0 0 0-2.78-.51c-.44-.038-.88-.058-1.32-.06h-.108zm-.827 28.389a.184.184 0 0 0 0 0z" fill="url(#f)" mask="url(#g)"/>
        </g>
        <g transform="translate(1.607 15.575)">
            <mask id="j" fill="#fff">
                <use xlink:href="#h"/>
            </mask>
            <path d="M16.697.228c-.537.002-1.074.03-1.61.086-1.07.11-2.118.316-3.145.63a17.474 17.474 0 0 0-6.739 3.82c-1.846 1.677-3.255 3.663-4.188 5.98-.099.245-.19.492-.276.74h29.61a9.182 9.182 0 0 1 .336-2.493c.056-.204.155-.395.183-.607l-.004-.006a.97.97 0 0 0 .166-.388c.034-.023.04-.06.042-.097a.723.723 0 0 0 .136-.297l.003-.001c.078-.113.146-.231.193-.36a.346.346 0 0 0 .091-.177.4.4 0 0 0 .113-.174l.027-.048a.227.227 0 0 0 .073-.129.773.773 0 0 0 .17-.42c.07-.215.111-.43.04-.652.004-.071.013-.142-.033-.204a.117.117 0 0 0-.024-.091.9.9 0 0 0-.185-.398 1.31 1.31 0 0 0-.548-.551h-.006c-.033-.048-.084-.067-.139-.08-.05-.04-.103-.076-.17-.076a.484.484 0 0 0-.308-.079.186.186 0 0 0-.1-.004c-.02.002-.04.005-.059.003-.01-.02-.022-.038-.05-.03l-.092-.005-.068.004c-.01.024-.021.048-.03.073.009-.025.02-.049.03-.073l-.097.002-.122.002a.1.1 0 0 0-.082.004 3.861 3.861 0 0 0-.51-.01l-.09-.003-.252-.014c0 .016-.001.033-.003.048.002-.015.002-.032.003-.048-.15-.05-.31-.032-.464-.065l-.774-.136a10.19 10.19 0 0 1-.076-.02.092.092 0 0 0 0 0l-.35-.098-.595-.19c-.121-.055-.237-.119-.362-.16-.09-.03-.167-.108-.274-.085l-.045-.009c-.002-.022-.009-.04-.034-.046a.376.376 0 0 0-.174-.088l-.56-.312c-.106-.071-.208-.152-.329-.2-.087-.067-.163-.145-.268-.185-.053-.04-.097-.098-.171-.103a.467.467 0 0 0-.212-.132c-.365-.254-.763-.448-1.162-.638-.271-.128-.538-.273-.833-.347l-.002.007c-.005-.032-.026-.036-.051-.034A6.523 6.523 0 0 0 21.099.87a.035.035 0 0 0-.035-.015c-.053-.02-.104-.043-.16-.057a15.357 15.357 0 0 0-2.779-.51c-.44-.038-.88-.058-1.32-.06h-.108z" fill="url(#i)" mask="url(#j)"/>
        </g>
    </g>
</svg>
