<svg width="46" height="46" viewBox="0 0 46 46" fill="none" xmlns="http://www.w3.org/2000/svg">
<g clip-path="url(#clip0_211_199)">
<g clip-path="url(#clip1_211_199)">
<path fill-rule="evenodd" clip-rule="evenodd" d="M35.6797 10.2578V36.0234H9.91406V10.2578H35.6797Z" stroke="#051344" stroke-width="1.2"/>
<path fill-rule="evenodd" clip-rule="evenodd" d="M27.3437 15.5625C28.1811 15.5625 28.9389 15.902 29.4868 16.4507C30.0355 16.9986 30.375 17.7564 30.375 18.5937C30.375 19.4311 30.0355 20.1889 29.4868 20.7368C28.9389 21.2855 28.1811 21.625 27.3437 21.625C26.5064 21.625 25.7486 21.2855 25.2007 20.7368C24.652 20.1889 24.3125 19.4311 24.3125 18.5937C24.3125 17.7564 24.652 16.9986 25.2007 16.4507C25.7486 15.902 26.5064 15.5625 27.3437 15.5625ZM18.25 15.5625C19.0874 15.5625 19.8452 15.902 20.3931 16.4507C20.9417 16.9986 21.2812 17.7564 21.2812 18.5937C21.2812 19.4311 20.9417 20.1889 20.3931 20.7368C19.8452 21.2855 19.0874 21.625 18.25 21.625C17.4126 21.625 16.6548 21.2855 16.1069 20.7368C15.5582 20.1889 15.2188 19.4311 15.2188 18.5937C15.2188 17.7564 15.5582 16.9986 16.1069 16.4507C16.6548 15.902 17.4126 15.5625 18.25 15.5625ZM18.25 24.6562C19.0874 24.6562 19.8452 24.9957 20.3931 25.5444C20.9417 26.0923 21.2812 26.8501 21.2812 27.6875C21.2812 28.5249 20.9417 29.2827 20.3931 29.8306C19.8452 30.3792 19.0874 30.7187 18.25 30.7187C17.4126 30.7187 16.6548 30.3792 16.1069 29.8306C15.5582 29.2827 15.2188 28.5249 15.2188 27.6875C15.2188 26.8501 15.5582 26.0923 16.1069 25.5444C16.6548 24.9957 17.4126 24.6562 18.25 24.6562ZM27.3437 24.6562C28.1811 24.6562 28.9389 24.9957 29.4868 25.5444C30.0355 26.0923 30.375 26.8501 30.375 27.6875C30.375 28.5249 30.0355 29.2827 29.4868 29.8306C28.9389 30.3792 28.1811 30.7187 27.3437 30.7187C26.5064 30.7187 25.7486 30.3792 25.2007 29.8306C24.652 29.2827 24.3125 28.5249 24.3125 27.6875C24.3125 26.8501 24.652 26.0923 25.2007 25.5444C25.7486 24.9957 26.5064 24.6562 27.3437 24.6562Z" stroke="#FDAD31" stroke-width="1.2"/>
</g>
</g>
<defs>
<clipPath id="clip0_211_199">
<rect width="45" height="45" fill="white" transform="translate(0.5 0.5)"/>
</clipPath>
<clipPath id="clip1_211_199">
<rect width="42.4375" height="27.2812" fill="white" transform="translate(6.125 9.5)"/>
</clipPath>
</defs>
</svg>
