<svg xmlns="http://www.w3.org/2000/svg" xmlns:xlink="http://www.w3.org/1999/xlink" viewBox="0 0 60 60"><defs><style>.cls-1{fill:none;}.cls-2{clip-path:url(#clip-path);}.cls-3{fill:#fdad31;}.cls-4{fill:#051344;}</style><clipPath id="clip-path"><rect class="cls-1" x="-9.15" y="3" width="58.86" height="58.86"/></clipPath></defs><g id="graphics"><g class="cls-2"><path class="cls-3" d="M24.88,33.35a2.76,2.76,0,1,1-2.76,2.76,2.77,2.77,0,0,1,2.76-2.76m0-1.84a4.6,4.6,0,1,0,4.6,4.6,4.6,4.6,0,0,0-4.6-4.6Z"/><path class="cls-4" d="M36.84,21.39V14H4.65a4.6,4.6,0,0,0-4.6,4.6V46.22a4.6,4.6,0,0,0,4.6,4.6H40.52V21.39ZM4.65,15.87H35v5.52H4.65a2.76,2.76,0,0,1,0-5.52Zm23.9,17.48H38.68v5.52H28.55a4.6,4.6,0,0,1-3.67,1.84h13.8V49h-34a2.76,2.76,0,0,1-2.76-2.76V22.31a4.62,4.62,0,0,0,2.76.92h34v8.28H24.88A4.57,4.57,0,0,1,28.55,33.35Z"/></g></g></svg>