<svg xmlns="http://www.w3.org/2000/svg" xmlns:xlink="http://www.w3.org/1999/xlink" viewBox="0 0 60 60"><defs><style>.cls-1{fill:none;}.cls-2{clip-path:url(#clip-path);}.cls-3{fill:#051344;}.cls-4{fill:#fdad31;}</style><clipPath id="clip-path"><rect class="cls-1" x="-9.85" y="2.44" width="58.86" height="58.86"/></clipPath></defs><g id="graphics"><g class="cls-2"><path class="cls-3" d="M38.89,36A8.27,8.27,0,0,0,36,29.7a7.34,7.34,0,0,0-.5-8.35,4.65,4.65,0,0,1-1.27,1.38,5.42,5.42,0,0,1,1,3.16,5.49,5.49,0,0,1-.8,2.86l-.82,1.34,1.2,1a6.44,6.44,0,0,1-2,11l-1.22.44v1.37a5.52,5.52,0,0,1-11-.06V23.49a6.44,6.44,0,0,0,4.6,1.94V23.59a4.6,4.6,0,1,1,0-9.2h0a4.55,4.55,0,0,1,3.22,1.32,4.55,4.55,0,0,1,1.57-1,6.42,6.42,0,0,0-9.34-.26,5.9,5.9,0,0,0-1,1.25A6.42,6.42,0,0,0,7.64,18.77a7.35,7.35,0,0,0-5.53,7.12A7.26,7.26,0,0,0,3.18,29.7,8.28,8.28,0,0,0,5.79,43.81h0a7.36,7.36,0,0,0,7.36,7.36h0a7.34,7.34,0,0,0,6.44-3.8,7.36,7.36,0,0,0,13.8-3.56h0A8.28,8.28,0,0,0,38.89,36ZM7.62,43.88h0V42.51L6.4,42.07a6.44,6.44,0,0,1-2-11l1.2-1-.82-1.34a5.51,5.51,0,0,1,3.34-8.2l1.34-.34,0-1.38a4.6,4.6,0,0,1,9.19.16V39a7.35,7.35,0,0,0-5.52-2.51V38.3a5.52,5.52,0,1,1-5.52,5.58Z"/><path class="cls-4" d="M31.54,16.23A2.76,2.76,0,1,1,28.78,19a2.77,2.77,0,0,1,2.76-2.76m0-1.84A4.6,4.6,0,1,0,36.13,19a4.6,4.6,0,0,0-4.59-4.6Z"/></g></g></svg>