<svg xmlns="http://www.w3.org/2000/svg" xmlns:xlink="http://www.w3.org/1999/xlink" viewBox="0 0 60 60"><defs><style>.cls-1{fill:none;}.cls-2{clip-path:url(#clip-path);}.cls-3{fill:#051344;}.cls-4{fill:#fff;}.cls-5{fill:#fdad31;}</style><clipPath id="clip-path"><rect class="cls-1" x="-11.25" y="0.57" width="58.86" height="58.86"/></clipPath></defs><g id="graphics"><g class="cls-2"><polygon class="cls-3" points="19.09 22.27 17.26 22.27 17.26 30.55 17.26 31.47 17.26 32.39 27.37 32.39 27.37 30.55 19.09 30.55 19.09 22.27 19.09 22.27"/><polygon class="cls-3" points="26.46 17.89 22.76 8.89 13.53 8.89 9.82 17.89 8.12 17.19 12.29 7.05 23.99 7.05 28.16 17.19 26.46 17.89"/><polygon class="cls-3" points="23.99 54.33 12.29 54.33 8.12 44.19 9.82 43.49 13.53 52.49 22.76 52.49 26.46 43.49 28.16 44.19 23.99 54.33"/><path class="cls-3" d="M26.76,45.13H9.84a6.07,6.07,0,0,1-6.07-6.07V22.14a6.07,6.07,0,0,1,6.07-6.07H26.76a6.07,6.07,0,0,1,6.07,6.07V39.06A6.07,6.07,0,0,1,26.76,45.13ZM9.84,17.91a4.23,4.23,0,0,0-4.23,4.23V39.06a4.23,4.23,0,0,0,4.23,4.23H26.76A4.24,4.24,0,0,0,31,39.06V22.14a4.23,4.23,0,0,0-4.23-4.23Z"/><circle class="cls-4" cx="4.69" cy="30.6" r="4.6"/><path class="cls-5" d="M4.69,27.84A2.76,2.76,0,1,1,1.93,30.6a2.76,2.76,0,0,1,2.76-2.76m0-1.84a4.6,4.6,0,1,0,4.59,4.6A4.6,4.6,0,0,0,4.69,26Z"/></g></g></svg>