<?xml version="1.0" encoding="utf-8"?>
<!-- Generator: Adobe Illustrator 25.1.0, SVG Export Plug-In . SVG Version: 6.00 Build 0)  -->
<svg version="1.1" id="Warstwa_1" xmlns="http://www.w3.org/2000/svg" xmlns:xlink="http://www.w3.org/1999/xlink" x="0px" y="0px"
	 viewBox="0 0 60 60" style="enable-background:new 0 0 60 60;" xml:space="preserve">
<style type="text/css">
	.st0{fill:#FFFFFF;}
	.st1{clip-path:url(#SVGID_2_);}
	.st2{fill:#051344;}
	.st3{fill:#FDAD31;}
	.st4{clip-path:url(#SVGID_4_);}
	.st5{clip-path:url(#SVGID_6_);}
	.st6{display:none;fill:#C5DDFC;}
	.st7{clip-path:url(#SVGID_8_);}
	.st8{fill:#4A4F99;}
	.st9{fill:#F0AF4D;}
	.st10{clip-path:url(#SVGID_10_);}
	.st11{fill:#C5DDFC;}
	.st12{fill:#FFFFFF;stroke:#D4E6FF;stroke-width:1.5;stroke-miterlimit:10;}
	.st13{clip-path:url(#SVGID_12_);}
	.st14{clip-path:url(#SVGID_14_);}
	.st15{clip-path:url(#SVGID_16_);}
	.st16{clip-path:url(#SVGID_18_);}
	.st17{clip-path:url(#SVGID_20_);}
	.st18{clip-path:url(#SVGID_22_);}
	.st19{clip-path:url(#SVGID_24_);}
	.st20{clip-path:url(#SVGID_26_);}
	.st21{clip-path:url(#SVGID_28_);}
	.st22{clip-path:url(#SVGID_30_);}
	.st23{clip-path:url(#SVGID_32_);}
	.st24{clip-path:url(#SVGID_34_);}
</style>
<g>
	<defs>
		<rect id="SVGID_1_" width="60" height="60"/>
	</defs>
	<clipPath id="SVGID_2_">
		<use xlink:href="#SVGID_1_"  style="overflow:visible;"/>
	</clipPath>
	<g class="st1">
		<polygon class="st2" points="48.8,45.9 3.8,45.9 3.8,47.8 48.8,47.8 48.8,45.9 		"/>
		<path class="st2" d="M3.8,12.2V16c0.6-0.1,1.3-0.1,1.9,0v-2h41.2v26.2H5.6V25.2c-0.6,0.1-1.3,0.1-1.9,0v17h45v-30H3.8z"/>
		<path class="st3" d="M4.7,17.8c1.6,0,2.8,1.3,2.8,2.8s-1.3,2.8-2.8,2.8s-2.8-1.3-2.8-2.8S3.1,17.8,4.7,17.8L4.7,17.8 M4.7,15.9
			C2.1,15.9,0,18,0,20.6s2.1,4.7,4.7,4.7s4.7-2.1,4.7-4.7S7.3,15.9,4.7,15.9z"/>
		<path class="st3" d="M15.9,17.8c1.6,0,2.8,1.3,2.8,2.8s-1.3,2.8-2.8,2.8s-2.8-1.3-2.8-2.8S14.4,17.8,15.9,17.8L15.9,17.8
			 M15.9,15.9c-2.6,0-4.7,2.1-4.7,4.7s2.1,4.7,4.7,4.7s4.7-2.1,4.7-4.7S18.5,15.9,15.9,15.9z"/>
		<path class="st3" d="M27.2,17.8c1.6,0,2.8,1.3,2.8,2.8s-1.3,2.8-2.8,2.8s-2.8-1.3-2.8-2.8S25.6,17.8,27.2,17.8L27.2,17.8
			 M27.2,15.9c-2.6,0-4.7,2.1-4.7,4.7s2.1,4.7,4.7,4.7s4.7-2.1,4.7-4.7S29.8,15.9,27.2,15.9z"/>
	</g>
</g>
</svg>
