<?xml version="1.0" encoding="utf-8"?>
<!-- Generator: Adobe Illustrator 25.1.0, SVG Export Plug-In . SVG Version: 6.00 Build 0)  -->
<svg version="1.1" id="Warstwa_1" xmlns="http://www.w3.org/2000/svg" xmlns:xlink="http://www.w3.org/1999/xlink" x="0px" y="0px"
	 viewBox="0 0 60 60" style="enable-background:new 0 0 60 60;" xml:space="preserve">
<style type="text/css">
	.st0{fill:#FFFFFF;}
	.st1{clip-path:url(#SVGID_2_);}
	.st2{fill:#051344;}
	.st3{fill:#FDAD31;}
	.st4{clip-path:url(#SVGID_4_);}
	.st5{clip-path:url(#SVGID_6_);}
	.st6{display:none;fill:#C5DDFC;}
	.st7{clip-path:url(#SVGID_8_);}
	.st8{fill:#4A4F99;}
	.st9{fill:#F0AF4D;}
	.st10{clip-path:url(#SVGID_10_);}
	.st11{fill:#C5DDFC;}
	.st12{fill:#FFFFFF;stroke:#D4E6FF;stroke-width:1.5;stroke-miterlimit:10;}
	.st13{clip-path:url(#SVGID_12_);}
	.st14{clip-path:url(#SVGID_14_);}
	.st15{clip-path:url(#SVGID_16_);}
	.st16{clip-path:url(#SVGID_18_);}
	.st17{clip-path:url(#SVGID_20_);}
	.st18{clip-path:url(#SVGID_22_);}
	.st19{clip-path:url(#SVGID_24_);}
	.st20{clip-path:url(#SVGID_26_);}
	.st21{clip-path:url(#SVGID_28_);}
	.st22{clip-path:url(#SVGID_30_);}
	.st23{clip-path:url(#SVGID_32_);}
	.st24{clip-path:url(#SVGID_34_);}
</style>
<g>
	<defs>
		<rect id="SVGID_5_" width="60" height="60"/>
	</defs>
	<clipPath id="SVGID_2_">
		<use xlink:href="#SVGID_5_"  style="overflow:visible;"/>
	</clipPath>
	<g class="st1">
		<polygon class="st2" points="50.6,51.9 5.6,51.9 5.6,53.8 50.6,53.8 50.6,51.9 		"/>
		<g>
			<path class="st3" d="M19.9,27.4c1.6,0,2.8,1.3,2.8,2.8S21.5,33,19.9,33s-2.8-1.3-2.8-2.8S18.4,27.4,19.9,27.4L19.9,27.4
				 M19.9,25.5c-2.6,0-4.7,2.1-4.7,4.7c0,2.6,2.1,4.7,4.7,4.7s4.7-2.1,4.7-4.7C24.6,27.6,22.5,25.5,19.9,25.5z"/>
			<path class="st3" d="M36.3,27.4c1.6,0,2.8,1.3,2.8,2.8S37.9,33,36.3,33c-1.6,0-2.8-1.3-2.8-2.8S34.8,27.4,36.3,27.4L36.3,27.4
				 M36.3,25.5c-2.6,0-4.7,2.1-4.7,4.7c0,2.6,2.1,4.7,4.7,4.7s4.7-2.1,4.7-4.7C41,27.6,38.9,25.5,36.3,25.5z"/>
		</g>
		<polygon class="st2" points="36.2,40.7 20.1,40.7 20.1,42.6 36.2,42.6 36.2,40.7 		"/>
		<path class="st2" d="M50.6,26.6v-8.5H29.1v-4.7h-1.9v4.7H5.6v8.5C2.5,27.1,0,29.8,0,33.1s2.5,6,5.6,6.5v8.5h45v-8.5
			c3.2-0.5,5.6-3.2,5.6-6.5S53.8,27.1,50.6,26.6z M5.6,37.7c-2.1-0.4-3.7-2.3-3.7-4.6s1.6-4.1,3.7-4.6V37.7z M48.8,46.3H7.5V20h41.2
			V46.3z M50.6,37.7v-9.2c2.1,0.4,3.7,2.3,3.7,4.6C54.4,35.4,52.8,37.3,50.6,37.7z"/>
		<path class="st3" d="M28.1,7C29.7,7,31,8.3,31,9.8s-1.3,2.8-2.8,2.8s-2.8-1.3-2.8-2.8S26.6,7,28.1,7L28.1,7 M28.1,5.1
			c-2.6,0-4.7,2.1-4.7,4.7s2.1,4.7,4.7,4.7s4.7-2.1,4.7-4.7S30.7,5.1,28.1,5.1z"/>
	</g>
</g>
</svg>
