<svg xmlns="http://www.w3.org/2000/svg" xmlns:xlink="http://www.w3.org/1999/xlink" viewBox="0 0 60 60"><defs><style>.cls-1{fill:none;}.cls-2{clip-path:url(#clip-path);}.cls-3{fill:#051344;}.cls-4{fill:#fdad31;}</style><clipPath id="clip-path"><rect class="cls-1" y="0.17" width="60" height="60"/></clipPath></defs><g id="graphics"><g class="cls-2"><path class="cls-3" d="M44.53,36.26a4.58,4.58,0,0,1-1.12-.14,8.44,8.44,0,0,1-16.69-1.74V32.51H39.94a4.83,4.83,0,0,1-.1-.94,4.92,4.92,0,0,1,.1-.94H2.53l4.86-11a3.75,3.75,0,0,1,7.14,1.61h1.88a5.63,5.63,0,0,0-10.72-2.4L.48,30.63h0v3.75a10.31,10.31,0,1,0,20.62,0V32.51h3.75v1.87a10.31,10.31,0,0,0,20.47,1.81A5,5,0,0,1,44.53,36.26ZM19.22,34.38a8.44,8.44,0,0,1-16.88,0V32.51H19.22Z"/><path class="cls-3" d="M53.91,15.63a5.66,5.66,0,0,0-5.09,3.23l-3.58,8.08a4.78,4.78,0,0,1,1.76.65l3.52-7.94a3.75,3.75,0,0,1,7.14,1.61h1.87A5.63,5.63,0,0,0,53.91,15.63Z"/><path class="cls-4" d="M44.53,28.76a2.81,2.81,0,1,1-2.81,2.81,2.81,2.81,0,0,1,2.81-2.81m0-1.88a4.69,4.69,0,1,0,4.69,4.69,4.69,4.69,0,0,0-4.69-4.69Z"/></g></g></svg>