<svg xmlns="http://www.w3.org/2000/svg" viewBox="0 0 60 60"><defs><style>.cls-1{fill:#051344;}.cls-2{fill:#fff;}.cls-3{fill:#fdad31;}</style></defs><g id="graphics"><path class="cls-1" d="M19.58,21.26V52.9H1.84V21.26H19.58m1.84-1.84H0V54.74H21.42V19.42Z"/><circle class="cls-2" cx="10.57" cy="46.09" r="4.6"/><path class="cls-3" d="M10.57,43.34a2.76,2.76,0,1,1-2.76,2.75,2.76,2.76,0,0,1,2.76-2.75m0-1.84a4.6,4.6,0,1,0,4.6,4.59,4.6,4.6,0,0,0-4.6-4.59Z"/><path class="cls-1" d="M29,19.42H27.12a5.7,5.7,0,0,0-5.7-5.7h0V11.88h0A7.55,7.55,0,0,1,29,19.42Z"/><path class="cls-1" d="M35.58,19.42H33.74A12.33,12.33,0,0,0,21.42,7.1h0V5.26h0A14.17,14.17,0,0,1,35.58,19.42Z"/></g></svg>