<?xml version="1.0" encoding="utf-8"?>
<!-- Generator: Adobe Illustrator 25.1.0, SVG Export Plug-In . SVG Version: 6.00 Build 0)  -->
<svg version="1.1" id="Warstwa_1" xmlns="http://www.w3.org/2000/svg" xmlns:xlink="http://www.w3.org/1999/xlink" x="0px" y="0px"
	 viewBox="0 0 60 60" style="enable-background:new 0 0 60 60;" xml:space="preserve">
<style type="text/css">
	.st0{fill:#FFFFFF;}
	.st1{clip-path:url(#SVGID_2_);}
	.st2{fill:#051344;}
	.st3{fill:#FDAD31;}
	.st4{clip-path:url(#SVGID_4_);}
	.st5{clip-path:url(#SVGID_6_);}
	.st6{display:none;fill:#C5DDFC;}
	.st7{clip-path:url(#SVGID_8_);}
	.st8{fill:#4A4F99;}
	.st9{fill:#F0AF4D;}
	.st10{clip-path:url(#SVGID_10_);}
	.st11{fill:#C5DDFC;}
	.st12{fill:#FFFFFF;stroke:#D4E6FF;stroke-width:1.5;stroke-miterlimit:10;}
	.st13{clip-path:url(#SVGID_12_);}
	.st14{clip-path:url(#SVGID_14_);}
	.st15{clip-path:url(#SVGID_16_);}
	.st16{clip-path:url(#SVGID_18_);}
	.st17{clip-path:url(#SVGID_20_);}
	.st18{clip-path:url(#SVGID_22_);}
	.st19{clip-path:url(#SVGID_24_);}
	.st20{clip-path:url(#SVGID_26_);}
	.st21{clip-path:url(#SVGID_28_);}
	.st22{clip-path:url(#SVGID_30_);}
	.st23{clip-path:url(#SVGID_32_);}
	.st24{clip-path:url(#SVGID_34_);}
</style>
<g>
	<defs>
		<rect id="SVGID_3_" width="60" height="60"/>
	</defs>
	<clipPath id="SVGID_2_">
		<use xlink:href="#SVGID_3_"  style="overflow:visible;"/>
	</clipPath>
	<g class="st1">
		<path class="st2" d="M39.4,34.2c0-2.5-1.1-4.8-3-6.4c1.6-2.7,1.4-6.1-0.5-8.5c-0.3,0.6-0.8,1-1.3,1.4c1.3,1.8,1.4,4.2,0.2,6.1
			L34,28.2l1.2,1c2.8,2.3,3.1,6.5,0.7,9.3c-0.8,0.9-1.7,1.5-2.8,1.9l-1.2,0.4v1.4c0,3.1-2.5,5.6-5.7,5.6s-5.6-2.5-5.6-5.7V21.5
			c1.2,1.3,2.9,2,4.7,2v-1.9c-2.6,0-4.7-2.1-4.7-4.7s2.1-4.7,4.7-4.7l0,0c1.2,0,2.4,0.5,3.3,1.3c0.5-0.4,1-0.8,1.6-1
			C27.8,9.8,23.7,9.6,21,12c-0.5,0.4-0.9,1-1.3,1.5c-1.9-3.1-5.9-4.1-9-2.3c-1.9,1.1-3.1,3.2-3.2,5.4c-4,1-6.4,5.1-5.4,9.1
			c0.2,0.7,0.5,1.4,0.9,2c-3.5,3-4,8.3-1,11.9c1,1.1,2.2,2,3.6,2.5l0,0c0,4.1,3.4,7.5,7.5,7.5l0,0c2.7,0,5.2-1.5,6.6-3.9
			c2,3.6,6.6,4.9,10.2,2.9c2.4-1.3,3.9-3.8,3.9-6.6l0,0C37.1,41,39.4,37.8,39.4,34.2z M7.5,42.2L7.5,42.2v-1.4l-1.2-0.4
			c-3.4-1.2-5.2-5-4-8.4c0.4-1.1,1.1-2.1,1.9-2.8l1.2-1l-0.8-1.4c-1.6-2.6-0.8-6.1,1.9-7.7c0.5-0.3,1-0.5,1.5-0.6l1.4-0.3l0-1.4
			c0-2.6,2.2-4.7,4.8-4.6s4.7,2.2,4.6,4.8l0,0v20.4c-1.4-1.6-3.5-2.5-5.6-2.6v1.9c3.1,0,5.6,2.5,5.6,5.6s-2.5,5.6-5.6,5.6
			C10.1,47.8,7.5,45.3,7.5,42.2L7.5,42.2z"/>
		<path class="st3" d="M31.9,14.1c1.6,0,2.8,1.3,2.8,2.8s-1.3,2.8-2.8,2.8c-1.6,0-2.8-1.3-2.8-2.8S30.3,14.1,31.9,14.1L31.9,14.1
			 M31.9,12.2c-2.6,0-4.7,2.1-4.7,4.7s2.1,4.7,4.7,4.7s4.7-2.1,4.7-4.7S34.5,12.2,31.9,12.2z"/>
	</g>
</g>
</svg>
