<svg xmlns="http://www.w3.org/2000/svg" xmlns:xlink="http://www.w3.org/1999/xlink" viewBox="0 0 60 60"><defs><style>.cls-1{fill:none;}.cls-2{clip-path:url(#clip-path);}.cls-3{fill:#051344;}.cls-4{fill:#fdad31;}</style><clipPath id="clip-path"><rect class="cls-1" x="-8.01" y="0.57" width="58.86" height="58.86"/></clipPath></defs><g id="graphics"><g class="cls-2"><path class="cls-3" d="M39.81,31.84A18.21,18.21,0,0,1,39.07,37a4.66,4.66,0,0,1,1.37.52l.34.22A20.26,20.26,0,0,0,26,12.13c0,.13,0,.26,0,.4A4.58,4.58,0,0,1,25.78,14,18.43,18.43,0,0,1,39.81,31.84Z"/><path class="cls-3" d="M2.39,37.51A4.83,4.83,0,0,1,3.77,37,18.21,18.21,0,0,1,3,31.84,18.42,18.42,0,0,1,17.06,14a4.58,4.58,0,0,1-.24-1.44c0-.14,0-.27,0-.4A20.26,20.26,0,0,0,2.06,37.73Z"/><path class="cls-3" d="M35.85,45.48a4.63,4.63,0,0,1-1.15-.94,18.34,18.34,0,0,1-26.56,0A5,5,0,0,1,7,45.48l-.35.18a20.23,20.23,0,0,0,29.55,0Z"/><path class="cls-4" d="M21.42,9.77a2.76,2.76,0,1,1-2.76,2.76,2.76,2.76,0,0,1,2.76-2.76m0-1.84a4.6,4.6,0,1,0,4.6,4.6,4.6,4.6,0,0,0-4.6-4.6Z"/><path class="cls-4" d="M4.69,38.74h0A2.76,2.76,0,1,1,2.3,42.88,2.8,2.8,0,0,1,2,40.78a2.76,2.76,0,0,1,1.28-1.67,2.7,2.7,0,0,1,1.38-.37m0-1.84a4.69,4.69,0,0,0-2.3.61A4.6,4.6,0,0,0,4.7,46.1,4.53,4.53,0,0,0,7,45.48a4.6,4.6,0,0,0-2.3-8.58Z"/><path class="cls-4" d="M38.15,38.74h0a2.7,2.7,0,0,1,1.38.37,2.76,2.76,0,0,1,1.28,1.67,2.75,2.75,0,0,1-2.67,3.48,2.76,2.76,0,0,1,0-5.52m0-1.84a4.6,4.6,0,0,0-2.3,8.58,4.53,4.53,0,0,0,2.29.62,4.6,4.6,0,1,0,0-9.2Z"/></g></g></svg>