<svg xmlns="http://www.w3.org/2000/svg" xmlns:xlink="http://www.w3.org/1999/xlink" viewBox="0 0 60 60"><defs><style>.cls-1{fill:none;}.cls-2{clip-path:url(#clip-path);}.cls-3{fill:#fdad31;}.cls-4{fill:#051344;}</style><clipPath id="clip-path"><rect class="cls-1" x="-8.02" y="1.14" width="58.86" height="58.86"/></clipPath></defs><g id="graphic02"><g class="cls-2"><path class="cls-3" d="M21.42,47.12h0a2.71,2.71,0,0,1,2,.82,2.75,2.75,0,0,1-1.95,4.7,2.71,2.71,0,0,1-2-.82,2.76,2.76,0,0,1,2-4.7m0-1.84a4.55,4.55,0,0,0-3.23,1.33,4.6,4.6,0,1,0,3.23-1.33Z"/><path class="cls-4" d="M34.7,17.87l-8.93-5.15a4.51,4.51,0,0,1-.91,1.59l8.92,5.15A4.56,4.56,0,0,1,34.7,17.87Z"/><path class="cls-3" d="M38.14,18.16h0a2.76,2.76,0,1,1-2,.8,2.74,2.74,0,0,1,2-.8m0-1.84a4.6,4.6,0,1,0,3.26,1.36,4.59,4.59,0,0,0-3.26-1.36Z"/><path class="cls-3" d="M4.69,18.16h0a2.7,2.7,0,0,1,2,.81,2.76,2.76,0,0,1,0,3.9,2.76,2.76,0,1,1-1.95-4.71m0-1.84A4.6,4.6,0,1,0,8,17.68a4.55,4.55,0,0,0-3.27-1.36Z"/><path class="cls-3" d="M38.14,37.46h0a2.76,2.76,0,1,1-2,.8,2.75,2.75,0,0,1,2-.8m0-1.83A4.6,4.6,0,1,0,41.4,37a4.59,4.59,0,0,0-3.26-1.36Z"/><path class="cls-3" d="M4.69,37.46h0a2.73,2.73,0,0,1,2,.82,2.76,2.76,0,0,1,0,3.9,2.73,2.73,0,0,1-1.95.8,2.76,2.76,0,0,1,0-5.52m0-1.84a4.6,4.6,0,1,0,3.24,7.87,4.6,4.6,0,0,0-3.24-7.87Z"/><path class="cls-3" d="M21.42,27.81h0a2.71,2.71,0,0,1,2,.82,2.75,2.75,0,0,1-1.95,4.7,2.71,2.71,0,0,1-2-.82,2.76,2.76,0,0,1,2-4.7m0-1.84a4.55,4.55,0,0,0-3.23,1.33A4.6,4.6,0,1,0,21.41,26Z"/><path class="cls-3" d="M21.42,8.5h0a2.71,2.71,0,0,1,2,.82,2.75,2.75,0,0,1,0,3.9,2.75,2.75,0,0,1-3.9,0,2.76,2.76,0,0,1,2-4.7m0-1.84A4.6,4.6,0,1,0,24.68,8a4.61,4.61,0,0,0-3.27-1.36Z"/><path class="cls-4" d="M37.22,25.42v10.3a4.56,4.56,0,0,1,1.84,0V25.42A4.75,4.75,0,0,1,37.22,25.42Z"/><path class="cls-4" d="M18,33.61A4.33,4.33,0,0,1,17.06,32L8.13,37.18a4.47,4.47,0,0,1,.92,1.59Z"/><path class="cls-4" d="M34.7,37.17,25.77,32a4.33,4.33,0,0,1-.92,1.59l8.93,5.16A4.62,4.62,0,0,1,34.7,37.17Z"/><path class="cls-4" d="M3.77,25.41V35.72a4.56,4.56,0,0,1,1.84,0V25.42A4.56,4.56,0,0,1,3.77,25.41Z"/><path class="cls-4" d="M9.05,19.46,18,14.31a4.39,4.39,0,0,1-.92-1.6L8.13,17.87A4.45,4.45,0,0,1,9.05,19.46Z"/><path class="cls-4" d="M25.77,48.42l8.93-5.15a4.45,4.45,0,0,1-.92-1.59l-8.93,5.15A4.43,4.43,0,0,1,25.77,48.42Z"/><path class="cls-4" d="M18,46.83,9.05,41.68a4.65,4.65,0,0,1-.92,1.59l8.92,5.15A4.6,4.6,0,0,1,18,46.83Z"/><path class="cls-4" d="M21.41,15.86a4.53,4.53,0,0,1-.91-.1v10.3a4.7,4.7,0,0,1,1.83,0V15.76A4.71,4.71,0,0,1,21.41,15.86Z"/></g></g></svg>