<svg xmlns="http://www.w3.org/2000/svg" xmlns:xlink="http://www.w3.org/1999/xlink" viewBox="0 0 60 60"><defs><style>.cls-1{fill:none;}.cls-2{clip-path:url(#clip-path);}.cls-3{fill:#051344;}.cls-4{fill:#fdad31;}</style><clipPath id="clip-path"><rect class="cls-1" x="-11.9" y="1.14" width="58.86" height="58.86"/></clipPath></defs><g id="graphics"><g class="cls-2"><path class="cls-3" d="M34.64,34.28a5.07,5.07,0,0,0-.55,0,4.58,4.58,0,0,0-2.41.68l-7.15,4.42a4.58,4.58,0,0,0-3.32-1.42H7.42A7.35,7.35,0,0,0,.06,45.28v7.36H18.45a7.31,7.31,0,0,0,3.9-1.12l14.17-8.77a4.6,4.6,0,0,0-1.88-8.47Zm.91,6.9L21.37,50a5.51,5.51,0,0,1-2.92.84H1.9V45.28a5.52,5.52,0,0,1,5.52-5.51H21.21a2.76,2.76,0,1,1,0,5.51H11.09v1.84H21.21a4.58,4.58,0,0,0,4.3-6.21h0l7.14-4.41a2.71,2.71,0,0,1,1.44-.41l.33,0a2.77,2.77,0,0,1,2.43,2.74A2.73,2.73,0,0,1,35.55,41.18Z"/><path class="cls-4" d="M28.57,14a7.36,7.36,0,0,0-14.72,0c0,.23,0,.46,0,.68h0a7.35,7.35,0,0,0-2.8,5.76c0,.23,0,.45,0,.68a7.35,7.35,0,1,0,11.92,5.76c0-.23,0-.45,0-.67h0a7.35,7.35,0,0,0,2.79-5.77c0-.22,0-.45,0-.67A7.35,7.35,0,0,0,28.57,14ZM21.21,8.5a5.51,5.51,0,0,1,4.07,9.23h0a7.35,7.35,0,0,0-9.57-4.1h0A5.52,5.52,0,0,1,21.21,8.5ZM15.69,32.41a5.52,5.52,0,1,1,5.52-5.52A5.53,5.53,0,0,1,15.69,32.41Zm6.83-8.24h0A7.32,7.32,0,0,0,13,20.07a5.52,5.52,0,1,1,9.57,4.1Z"/></g></g></svg>