<svg xmlns="http://www.w3.org/2000/svg" xmlns:xlink="http://www.w3.org/1999/xlink" width="129" height="60" viewBox="0 0 129 60">
    <defs>
        <path id="g7h8nk7z5a" d="M0 34L94 34 94 0 0 0z"/>
        <path id="lvpynpon5c" d="M4.36 0L0 9.678l4.332 9.614h.057l8.473-18.8c.066-.15.103-.317.103-.492H4.36z"/>
        <linearGradient id="ktuth9yh0d" x1="33.263%" x2="66.885%" y1="104.108%" y2="-4.585%">
            <stop offset="0%" stop-color="#3BB6BA"/>
            <stop offset="100%" stop-color="#3F75B3"/>
        </linearGradient>
    </defs>
    <g fill="none" fill-rule="evenodd">
        <g>
            <g>
                <g>
                    <g>
                        <g>
                            <g>
                                <g>
                                    <g transform="translate(-793.000000, -7101.000000) translate(0.000000, 6598.000000) translate(221.000000, 100.000000) translate(502.000000, 0.000000) translate(0.000000, 363.000000) translate(67.000000, 40.000000) translate(0.000000, 13.000000)">
                                        <path fill="#004A97" d="M32.231 11.06c-.906-.835-2.22-1.314-3.687-1.314-4.223 0-7.059 3.684-7.059 7.124 0 3.503 2.592 7.125 6.928 7.125 1.454 0 2.842-.51 3.818-1.37v.963h3.475V5.44h-3.475v5.62zm-3.479 9.573c-2.004 0-3.635-1.688-3.635-3.763 0-2.074 1.63-3.762 3.635-3.762 1.943 0 3.584 1.723 3.584 3.762 0 2.04-1.641 3.763-3.584 3.763zM69.884 20.262l1.557.901-1.33 2.95-.322-.156c-2.605-1.258-4.312-2.31-4.312-5.343v-5.713h-1.539V9.676h1.54V5.438h3.474v4.238h2.165V12.9h-2.165v5.211c0 1.355.314 1.787.932 2.15M94 21.163l-1.329 2.95-.322-.156c-2.605-1.258-4.312-2.309-4.312-5.343V5.44h3.475v12.673c0 1.38.275 1.764.932 2.15l1.556.901zM82.78 11.06c-.906-.836-2.22-1.314-3.688-1.314-4.222 0-7.058 3.684-7.058 7.125 0 3.502 2.591 7.124 6.928 7.124 1.453 0 2.841-.51 3.818-1.37v.963h3.475V9.676H82.78v1.383zm-3.48 9.573c-2.004 0-3.635-1.688-3.635-3.762 0-2.075 1.631-3.763 3.636-3.763 1.942 0 3.583 1.723 3.583 3.763 0 2.039-1.64 3.762-3.583 3.762z"/>
                                        <mask id="yuh81wsxhb" fill="#fff">
                                            <use xlink:href="#g7h8nk7z5a"/>
                                        </mask>
                                        <path fill="#004A97" d="M37.937 23.588h3.475V9.676h-3.475v13.912zm1.737-19.287c-1.172 0-2.122.962-2.122 2.15 0 1.187.95 2.15 2.122 2.15s2.123-.963 2.123-2.15c0-1.188-.95-2.15-2.123-2.15zM58.735 23.588h3.474V9.676h-3.474v13.912zm1.737-19.287c-1.172 0-2.122.962-2.122 2.15 0 1.187.95 2.15 2.122 2.15s2.122-.963 2.122-2.15c0-1.188-.95-2.15-2.122-2.15zM53.526 11.048h-.003c-.935-.855-2.166-1.302-3.61-1.302-3.39 0-6.823 2.402-6.823 6.992 0 2.026.676 3.774 1.955 5.055 1.197 1.198 2.815 1.859 4.555 1.859 1.563 0 2.804-.45 3.922-1.44h.004v.256c-.003.326-.444 1.816-1.73 2.643-1.285.826-3.034.736-5.2-.269l-1.382 3.067s2.226 1.13 4.573 1.13c1.664 0 2.928-.518 3.822-1.1 2.365-1.538 3.246-4.172 3.246-5.47V9.675h-3.33v1.372zm-3.378 9.241c-1.986 0-3.427-1.515-3.427-3.603 0-1.973 1.537-3.578 3.427-3.578 1.861 0 3.375 1.617 3.375 3.604 0 2.04-1.451 3.577-3.375 3.577zM2.933 9.678V0H15.25c.48 0 .893.286 1.082.7l3.826 8.488c.065.15.101.315.101.49H2.933" mask="url(#yuh81wsxhb)"/>
                                    </g>
                                    <g transform="translate(-793.000000, -7101.000000) translate(0.000000, 6598.000000) translate(221.000000, 100.000000) translate(502.000000, 0.000000) translate(0.000000, 363.000000) translate(67.000000, 40.000000) translate(0.000000, 13.000000) translate(7.293852, 9.677525)">
                                        <mask id="cjwbtin19e" fill="#fff">
                                            <use xlink:href="#lvpynpon5c"/>
                                        </mask>
                                        <path fill="url(#ktuth9yh0d)" d="M4.36 0L0 9.678l4.332 9.614h.057l8.473-18.8c.066-.15.103-.317.103-.492H4.36z" mask="url(#cjwbtin19e)"/>
                                    </g>
                                </g>
                            </g>
                        </g>
                    </g>
                </g>
            </g>
        </g>
    </g>
</svg>
