<svg width="46" height="46" viewBox="0 0 46 46" fill="none" xmlns="http://www.w3.org/2000/svg">
<path d="M36.0164 20.0413C35.9264 18.7025 35.3751 17.4875 34.5089 16.5425C34.3964 17.105 34.1489 17.6113 33.8114 18.05C34.9026 19.6588 34.8126 21.8525 33.4514 23.3487L32.7426 24.125L33.2601 25.0587C33.6426 25.745 33.8451 26.5212 33.8451 27.3088C33.8451 31.2687 31.2576 34.4862 28.0626 34.4862C26.3301 34.4862 24.7889 33.5412 23.7314 32.0562V14.3712H23.7539C23.9339 12.7512 25.3064 11.4912 26.9826 11.5137C27.0051 11.5137 27.0276 11.5137 27.0501 11.5137C27.9951 11.525 28.8276 11.93 29.4126 12.5712C29.8739 12.3575 30.3801 12.2225 30.9201 12.2225C30.9314 12.2225 30.9426 12.2225 30.9539 12.2225C30.1101 10.9175 28.6476 10.0512 26.9826 10.0625C25.2839 10.0625 23.8101 10.985 23.0001 12.3462C22.1901 10.985 20.7164 10.0625 19.0176 10.0625C16.4414 10.04 14.3264 12.0988 14.2926 14.675V14.855C11.8739 15.4738 10.1639 17.5887 9.98389 20.0525V20.7838C10.0626 22.1562 10.6139 23.405 11.4801 24.3612C10.9964 25.2162 10.7039 26.2288 10.7039 27.32C10.7039 32.09 13.9439 35.9487 17.9376 35.9487C19.9064 35.9487 21.6951 35.0037 23.0001 33.4737C24.3051 35.0037 26.0939 35.9487 28.0626 35.9487C32.0564 35.9487 35.2964 32.09 35.2964 27.32H35.3301C35.3301 26.2738 35.0714 25.25 34.5539 24.35C35.4314 23.3938 35.9376 22.1675 36.0164 20.8737V20.0413ZM17.9376 34.4862C14.7426 34.4862 12.1551 31.2687 12.1551 27.3088C12.0201 25.1712 13.6289 23.3262 15.7664 23.1687V21.7175C14.4839 21.7175 13.3251 22.2688 12.4251 23.135C12.0764 22.6962 11.8064 22.1675 11.6601 21.5937C11.2326 20.0075 11.7614 18.4212 12.8751 17.3637V17.2513H12.9989C13.4826 16.8238 14.0564 16.4975 14.7089 16.3175L15.7664 15.9462V14.7312V14.3712H15.8001C15.9914 12.7512 17.3526 11.5025 19.0289 11.5137H19.0514C20.2439 11.5025 21.3351 12.1437 21.9089 13.19C22.1114 13.5725 22.2351 13.9662 22.2801 14.3712V32.0338C21.2226 33.53 19.6701 34.4862 17.9376 34.4862Z" fill="#051344"/>
<path d="M29.4127 12.5712C28.1752 13.1562 27.309 14.4162 27.3315 15.8787C27.354 17.8812 28.9852 19.49 30.9877 19.4675C32.1465 19.4562 33.159 18.8937 33.8115 18.05C34.149 17.6112 34.3965 17.105 34.509 16.5425C34.554 16.3062 34.5765 16.0587 34.5765 15.8112C34.5652 13.82 32.9452 12.2112 30.954 12.2225C30.9427 12.2225 30.9315 12.2225 30.9202 12.2225C30.3802 12.2225 29.874 12.3575 29.4127 12.5712ZM33.1252 15.8112C33.1252 16.9925 32.1802 17.9487 30.999 17.96C29.8177 17.9712 28.839 17.015 28.8277 15.8337C28.8165 14.6525 29.7727 13.6737 30.954 13.6625C32.1465 13.6625 33.114 14.6187 33.1252 15.8112Z" fill="#FDAD31"/>
</svg>
