<svg width="64" height="65" viewBox="0 0 64 65" fill="none" xmlns="http://www.w3.org/2000/svg">
<circle cx="32" cy="32.4062" r="32" fill="#F1F7FF"/>
<path d="M35.7306 23.711C36.0991 23.711 36.4594 23.8203 36.7658 24.025C37.0722 24.2298 37.3111 24.5208 37.4521 24.8613C37.5931 25.2017 37.63 25.5764 37.5581 25.9379C37.4862 26.2993 37.3088 26.6313 37.0482 26.8919C36.7876 27.1525 36.4556 27.33 36.0941 27.4019C35.7327 27.4738 35.358 27.4369 35.0175 27.2959C34.677 27.1548 34.386 26.916 34.1813 26.6096C33.9765 26.3031 33.8672 25.9429 33.8672 25.5743C33.8672 25.0801 34.0636 24.6062 34.413 24.2567C34.7624 23.9073 35.2364 23.711 35.7306 23.711ZM35.7306 22.4688C35.1164 22.4688 34.5159 22.6509 34.0052 22.9921C33.4945 23.3334 33.0965 23.8184 32.8614 24.3859C32.6263 24.9534 32.5648 25.5778 32.6847 26.1802C32.8045 26.7826 33.1003 27.336 33.5346 27.7703C33.9689 28.2046 34.5223 28.5004 35.1247 28.6203C35.7271 28.7401 36.3516 28.6786 36.919 28.4435C37.4865 28.2085 37.9715 27.8104 38.3128 27.2997C38.654 26.789 38.8362 26.1886 38.8362 25.5743C38.8362 24.7507 38.509 23.9608 37.9266 23.3784C37.3442 22.7959 36.5542 22.4688 35.7306 22.4688Z" fill="#FDAD31"/>
<path d="M43.1087 21.2267C43.1087 21.2267 43.1808 19.8577 43.1808 18.7422H20.8205C20.8205 19.8577 20.8926 21.2267 20.8926 21.2267H15.8516C15.8516 31.4403 23.1087 33.3583 24.3634 33.6142C25.6347 35.7299 27.4036 37.503 29.5162 38.7795V42.3447H25.7895V47.3136H38.2118V42.3447H34.4851V38.7795C36.5977 37.503 38.3665 35.7299 39.6379 33.6142C40.8926 33.3658 48.1497 31.4403 48.1497 21.2267H43.1087ZM17.1336 22.4689H20.9845C21.3497 26.5285 22.3013 29.6739 23.5013 32.0689C22.5881 31.7313 21.7332 31.2535 20.9671 30.6527C18.654 28.8366 17.3671 26.0863 17.1336 22.4689ZM36.9696 43.5869V46.0714H27.0317V43.5869H36.9696ZM33.864 37.7086L33.2503 38.0689V42.3447H30.7658V38.0689L30.1373 37.7086C27.2304 35.9944 22.4056 31.4378 22.0801 19.9844H41.9211C41.5957 31.4378 36.7708 35.9944 33.864 37.7086ZM40.4926 32.0838C41.6975 29.6739 42.6516 26.5385 43.0168 22.4689H46.8677C46.4304 29.0652 42.5273 31.3409 40.4926 32.0838Z" fill="#051344"/>
</svg>
