<svg width="64" height="65" viewBox="0 0 64 65" fill="none" xmlns="http://www.w3.org/2000/svg">
<circle cx="32" cy="32.4062" r="32" fill="#F1F7FF"/>
<path d="M32 28.6563C32.7417 28.6563 33.4667 28.8762 34.0834 29.2882C34.7001 29.7003 35.1807 30.286 35.4646 30.9712C35.7484 31.6564 35.8226 32.4104 35.6779 33.1378C35.5333 33.8653 35.1761 34.5335 34.6517 35.0579C34.1272 35.5823 33.459 35.9395 32.7316 36.0842C32.0042 36.2289 31.2502 36.1546 30.5649 35.8708C29.8797 35.587 29.294 35.1063 28.882 34.4896C28.4699 33.873 28.25 33.1479 28.25 32.4063C28.25 31.4117 28.6451 30.4579 29.3484 29.7546C30.0516 29.0513 31.0054 28.6563 32 28.6563ZM32 27.4063C31.0111 27.4062 30.0444 27.6995 29.2222 28.2489C28.3999 28.7983 27.759 29.5792 27.3806 30.4928C27.0022 31.4065 26.9031 32.4118 27.0961 33.3817C27.289 34.3516 27.7652 35.2425 28.4645 35.9418C29.1637 36.641 30.0546 37.1173 31.0246 37.3102C31.9945 37.5031 32.9998 37.4041 33.9134 37.0257C34.8271 36.6472 35.6079 36.0063 36.1574 35.1841C36.7068 34.3619 37 33.3952 37 32.4063C37 31.0802 36.4732 29.8084 35.5355 28.8707C34.5979 27.933 33.3261 27.4063 32 27.4063Z" fill="#FDAD31"/>
<path d="M43.7104 25.1999C43.4315 25.5153 43.0912 25.7705 42.7104 25.9499C44.2951 28.5724 44.8631 31.6851 44.3068 34.6983C43.7504 37.7116 42.1084 40.4162 39.6916 42.2999C37.2749 44.1836 34.2512 45.1156 31.1933 44.9194C28.1354 44.7233 25.2557 43.4125 23.0994 41.2354C20.9432 39.0583 19.6602 36.1661 19.4934 33.1064C19.3267 30.0468 20.2878 27.0323 22.1946 24.6337C24.1015 22.2352 26.8218 20.6192 29.8402 20.0919C32.8587 19.5646 35.9657 20.1625 38.5729 21.7724C38.7532 21.3921 39.0082 21.052 39.3229 20.7724C36.4662 18.9749 33.0481 18.2908 29.7196 18.8506C26.3912 19.4104 23.3849 21.1748 21.2733 23.8079C19.1617 26.441 18.0923 29.7587 18.2688 33.1293C18.4454 36.4999 19.8554 39.6878 22.2305 42.0859C24.6056 44.484 27.7798 45.9248 31.1485 46.1338C34.5172 46.3428 37.8451 45.3055 40.4985 43.2194C43.1518 41.1333 44.9451 38.1441 45.537 34.8212C46.1288 31.4983 45.4778 28.0738 43.7079 25.1999H43.7104Z" fill="#051344"/>
<path d="M41.375 21.2539C41.7458 21.2539 42.1084 21.3639 42.4167 21.5699C42.725 21.7759 42.9654 22.0688 43.1073 22.4114C43.2492 22.754 43.2863 23.131 43.214 23.4947C43.1416 23.8584 42.9631 24.1925 42.7008 24.4547C42.4386 24.717 42.1045 24.8955 41.7408 24.9679C41.3771 25.0402 41.0001 25.0031 40.6575 24.8612C40.3149 24.7193 40.022 24.4789 39.816 24.1706C39.61 23.8623 39.5 23.4997 39.5 23.1289C39.5 22.6316 39.6975 22.1547 40.0492 21.8031C40.4008 21.4515 40.8777 21.2539 41.375 21.2539ZM41.375 20.0039C40.7569 20.0039 40.1528 20.1872 39.6388 20.5306C39.1249 20.8739 38.7244 21.362 38.4879 21.933C38.2514 22.504 38.1895 23.1324 38.31 23.7386C38.4306 24.3448 38.7283 24.9016 39.1653 25.3386C39.6023 25.7757 40.1592 26.0733 40.7653 26.1939C41.3715 26.3144 41.9999 26.2526 42.5709 26.016C43.1419 25.7795 43.63 25.379 43.9734 24.8651C44.3167 24.3512 44.5 23.747 44.5 23.1289C44.5 22.3001 44.1708 21.5052 43.5847 20.9192C42.9987 20.3331 42.2038 20.0039 41.375 20.0039Z" fill="#FDAD31"/>
</svg>
