<svg width="64" height="65" viewBox="0 0 64 65" fill="none" xmlns="http://www.w3.org/2000/svg">
<circle cx="32" cy="32.4062" r="32" fill="#F1F7FF"/>
<path d="M42.2949 24.1215C41.9879 24.4176 41.6238 24.6481 41.2249 24.799C42.2047 27.143 42.2556 29.772 41.3674 32.1521C40.4791 34.5322 38.7183 36.4851 36.4424 37.614L35.7499 37.959V41.7815H28.2499V37.959L27.5574 37.614C26.3309 37.0129 25.2406 36.1669 24.3537 35.1283C23.4667 34.0896 22.8019 32.8802 22.4004 31.5747C21.9988 30.2692 21.8689 28.8953 22.0187 27.5377C22.1685 26.1801 22.5948 24.8676 23.2714 23.6811C23.9479 22.4946 24.8604 21.4592 25.9525 20.6389C27.0445 19.8186 28.2931 19.2307 29.6211 18.9115C30.9491 18.5922 32.3285 18.5485 33.6741 18.7828C35.0197 19.0171 36.303 19.5246 37.4449 20.274C37.6648 19.9069 37.9574 19.5887 38.3049 19.339C37.0287 18.4754 35.5886 17.8832 34.074 17.5991C32.5595 17.315 31.0027 17.3451 29.5002 17.6875C27.9978 18.0299 26.5817 18.6773 25.3397 19.5896C24.0978 20.5019 23.0566 21.6596 22.2806 22.991C21.5046 24.3223 21.0103 25.7989 20.8286 27.3291C20.6468 28.8593 20.7813 30.4106 21.2238 31.8867C21.6663 33.3627 22.4073 34.7322 23.4009 35.9101C24.3945 37.0879 25.6195 38.0491 26.9999 38.734V44.2815C26.9999 45.1103 27.3291 45.9052 27.9152 46.4912C28.5012 47.0773 29.2961 47.4065 30.1249 47.4065H33.8749C34.7037 47.4065 35.4986 47.0773 36.0846 46.4912C36.6707 45.9052 36.9999 45.1103 36.9999 44.2815V38.734C39.5929 37.4474 41.5902 35.2107 42.5764 32.4891C43.5626 29.7676 43.4618 26.7706 42.2949 24.1215ZM35.7499 43.6565V44.2815C35.7499 44.7788 35.5524 45.2557 35.2007 45.6074C34.8491 45.959 34.3722 46.1565 33.8749 46.1565H30.1249C29.6276 46.1565 29.1507 45.959 28.7991 45.6074C28.4474 45.2557 28.2499 44.7788 28.2499 44.2815V43.0315H35.7499V43.6565Z" fill="#051344"/>
<path d="M40.125 20C40.4958 20 40.8584 20.11 41.1667 20.316C41.475 20.522 41.7154 20.8149 41.8573 21.1575C41.9992 21.5001 42.0363 21.8771 41.964 22.2408C41.8916 22.6045 41.713 22.9386 41.4508 23.2008C41.1886 23.463 40.8545 23.6416 40.4908 23.714C40.1271 23.7863 39.7501 23.7492 39.4075 23.6073C39.0649 23.4654 38.772 23.225 38.566 22.9167C38.36 22.6084 38.25 22.2458 38.25 21.875C38.25 21.3777 38.4475 20.9008 38.7992 20.5492C39.1508 20.1975 39.6277 20 40.125 20ZM40.125 18.75C39.5069 18.75 38.9027 18.9333 38.3888 19.2767C37.8749 19.62 37.4744 20.1081 37.2379 20.6791C37.0014 21.2501 36.9395 21.8785 37.06 22.4847C37.1806 23.0908 37.4783 23.6477 37.9153 24.0847C38.3523 24.5217 38.9092 24.8194 39.5153 24.94C40.1215 25.0605 40.7499 24.9986 41.3209 24.7621C41.8919 24.5256 42.38 24.1251 42.7233 23.6112C43.0667 23.0973 43.25 22.4931 43.25 21.875C43.25 21.0462 42.9208 20.2513 42.3347 19.6653C41.7487 19.0792 40.9538 18.75 40.125 18.75Z" fill="#FDAD31"/>
</svg>
