<svg width="64" height="65" viewBox="0 0 64 65" fill="none" xmlns="http://www.w3.org/2000/svg">
<circle cx="32" cy="32.4062" r="32" fill="#F1F7FF"/>
<path d="M40.125 19.9062C40.4958 19.9062 40.8584 20.0162 41.1667 20.2222C41.475 20.4283 41.7154 20.7211 41.8573 21.0637C41.9992 21.4063 42.0363 21.7833 41.964 22.147C41.8916 22.5108 41.7131 22.8449 41.4508 23.1071C41.1886 23.3693 40.8545 23.5479 40.4908 23.6202C40.1271 23.6926 39.7501 23.6554 39.4075 23.5135C39.0649 23.3716 38.772 23.1313 38.566 22.8229C38.36 22.5146 38.25 22.1521 38.25 21.7812C38.25 21.284 38.4475 20.8071 38.7992 20.4554C39.1508 20.1038 39.6277 19.9062 40.125 19.9062ZM40.125 18.6562C39.5069 18.6562 38.9028 18.8395 38.3888 19.1829C37.8749 19.5263 37.4744 20.0143 37.2379 20.5854C37.0014 21.1564 36.9395 21.7847 37.06 22.3909C37.1806 22.9971 37.4783 23.5539 37.9153 23.991C38.3523 24.428 38.9092 24.7256 39.5153 24.8462C40.1215 24.9668 40.7499 24.9049 41.3209 24.6684C41.8919 24.4318 42.38 24.0313 42.7234 23.5174C43.0667 23.0035 43.25 22.3993 43.25 21.7812C43.25 20.9524 42.9208 20.1576 42.3347 19.5715C41.7487 18.9855 40.9538 18.6562 40.125 18.6562Z" fill="#FDAD31"/>
<path d="M23.875 19.9062C24.2458 19.9062 24.6084 20.0162 24.9167 20.2222C25.225 20.4283 25.4654 20.7211 25.6073 21.0637C25.7492 21.4063 25.7863 21.7833 25.714 22.147C25.6416 22.5108 25.463 22.8449 25.2008 23.1071C24.9386 23.3693 24.6045 23.5479 24.2408 23.6202C23.8771 23.6926 23.5001 23.6554 23.1575 23.5135C22.8149 23.3716 22.522 23.1313 22.316 22.8229C22.11 22.5146 22 22.1521 22 21.7812C22 21.284 22.1975 20.8071 22.5492 20.4554C22.9008 20.1038 23.3777 19.9062 23.875 19.9062ZM23.875 18.6562C23.2569 18.6562 22.6527 18.8395 22.1388 19.1829C21.6249 19.5263 21.2244 20.0143 20.9879 20.5854C20.7514 21.1564 20.6895 21.7847 20.81 22.3909C20.9306 22.9971 21.2283 23.5539 21.6653 23.991C22.1023 24.428 22.6592 24.7256 23.2653 24.8462C23.8715 24.9668 24.4999 24.9049 25.0709 24.6684C25.6419 24.4318 26.13 24.0313 26.4733 23.5174C26.8167 23.0035 27 22.3993 27 21.7812C27 20.9524 26.6708 20.1576 26.0847 19.5715C25.4987 18.9855 24.7038 18.6563 23.875 18.6562Z" fill="#FDAD31"/>
<path d="M32 19.9062C32.3708 19.9062 32.7334 20.0162 33.0417 20.2222C33.35 20.4283 33.5904 20.7211 33.7323 21.0637C33.8742 21.4063 33.9113 21.7833 33.839 22.147C33.7666 22.5108 33.588 22.8449 33.3258 23.1071C33.0636 23.3693 32.7295 23.5479 32.3658 23.6202C32.0021 23.6926 31.6251 23.6554 31.2825 23.5135C30.9399 23.3716 30.647 23.1313 30.441 22.8229C30.235 22.5146 30.125 22.1521 30.125 21.7812C30.125 21.284 30.3225 20.8071 30.6742 20.4554C31.0258 20.1038 31.5027 19.9062 32 19.9062ZM32 18.6562C31.3819 18.6562 30.7777 18.8395 30.2638 19.1829C29.7499 19.5263 29.3494 20.0143 29.1129 20.5854C28.8764 21.1564 28.8145 21.7847 28.935 22.3909C29.0556 22.9971 29.3533 23.5539 29.7903 23.991C30.2273 24.428 30.7842 24.7256 31.3903 24.8462C31.9965 24.9668 32.6249 24.9049 33.1959 24.6684C33.7669 24.4318 34.255 24.0313 34.5983 23.5174C34.9417 23.0035 35.125 22.3993 35.125 21.7812C35.125 20.9524 34.7958 20.1576 34.2097 19.5715C33.6237 18.9855 32.8288 18.6562 32 18.6562Z" fill="#FDAD31"/>
<path d="M38.2188 36.1562C38.5896 36.1562 38.9521 36.2662 39.2604 36.4722C39.5688 36.6783 39.8091 36.9711 39.951 37.3137C40.0929 37.6563 40.1301 38.0333 40.0577 38.397C39.9854 38.7608 39.8068 39.0949 39.5446 39.3571C39.2824 39.6193 38.9483 39.7979 38.5845 39.8702C38.2208 39.9426 37.8438 39.9054 37.5012 39.7635C37.1586 39.6216 36.8658 39.3813 36.6597 39.0729C36.4537 38.7646 36.3438 38.4021 36.3438 38.0312C36.3444 37.5342 36.5422 37.0576 36.8937 36.7062C37.2451 36.3547 37.7217 36.1569 38.2188 36.1562ZM38.2188 34.9062C37.6007 34.9062 36.9965 35.0895 36.4826 35.4329C35.9687 35.7763 35.5682 36.2643 35.3316 36.8354C35.0951 37.4064 35.0332 38.0347 35.1538 38.6409C35.2744 39.2471 35.572 39.8039 36.009 40.241C36.4461 40.678 37.0029 40.9756 37.6091 41.0962C38.2153 41.2168 38.8436 41.1549 39.4146 40.9184C39.9857 40.6818 40.4737 40.2813 40.8171 39.7674C41.1605 39.2535 41.3438 38.6493 41.3438 38.0312C41.3438 37.2024 41.0145 36.4076 40.4285 35.8215C39.8424 35.2355 39.0476 34.9062 38.2188 34.9062Z" fill="#FDAD31"/>
<path d="M40.125 26.1574C38.6635 26.1555 37.2399 26.6216 36.0625 27.4874C34.8842 26.6233 33.4611 26.1575 32 26.1575C30.5389 26.1575 29.1158 26.6233 27.9375 27.4874C26.9131 26.7359 25.7005 26.2831 24.4344 26.1793C23.1682 26.0754 21.898 26.3245 20.7649 26.899C19.6318 27.4735 18.68 28.3508 18.0154 29.4335C17.3508 30.5162 16.9993 31.7619 17 33.0324V43.6574H25.125V46.1574H38.875V43.6574H47V33.0324C47 31.209 46.2757 29.4603 44.9864 28.171C43.697 26.8817 41.9484 26.1574 40.125 26.1574ZM25.125 42.4074H18.25V33.0324C18.249 32.0159 18.5236 31.0183 19.0447 30.1456C19.5658 29.2729 20.3138 28.5578 21.2091 28.0766C22.1044 27.5953 23.1134 27.3659 24.1288 27.4127C25.1441 27.4595 26.1278 27.7808 26.975 28.3424C25.7843 29.6135 25.1228 31.2906 25.125 33.0324V42.4074ZM45.75 42.4074H38.875V41.0874C38.6597 41.1335 38.4402 41.157 38.22 41.1574C38.0203 41.1574 37.821 41.1382 37.625 41.0999V44.9074H26.375V33.0324C26.375 31.5405 26.9676 30.1098 28.0225 29.0549C29.0774 28 30.5082 27.4074 32 27.4074C33.4918 27.4074 34.9226 28 35.9775 29.0549C37.0324 30.1098 37.625 31.5405 37.625 33.0324V34.9649C37.821 34.9266 38.0203 34.9073 38.22 34.9074C38.4402 34.9077 38.6597 34.9312 38.875 34.9774V33.0324C38.8772 31.2906 38.2157 29.6135 37.025 28.3424C37.8722 27.7808 38.8559 27.4595 39.8712 27.4127C40.8866 27.3659 41.8956 27.5953 42.7909 28.0766C43.6862 28.5578 44.4342 29.2729 44.9553 30.1456C45.4764 31.0183 45.751 32.0159 45.75 33.0324V42.4074Z" fill="#051344"/>
</svg>
