<svg width="46" height="46" viewBox="0 0 46 46" fill="none" xmlns="http://www.w3.org/2000/svg">
<path d="M31.7637 22.1225C31.7524 22.1225 31.7412 22.1225 31.7299 22.1225C29.7274 22.1337 28.1187 23.765 28.1299 25.7675C28.1412 27.77 29.7724 29.3787 31.7749 29.3675C33.7774 29.3562 35.3862 27.725 35.3749 25.7225V25.7112C35.3637 23.72 33.7549 22.1112 31.7637 22.1225ZM31.7862 27.8712C30.6049 27.8825 29.6374 26.915 29.6262 25.7337C29.6149 24.5525 30.5824 23.585 31.7637 23.5737H31.7749C32.9562 23.5737 33.9237 24.5412 33.9237 25.7225C33.9237 26.9037 32.9674 27.86 31.7862 27.8712Z" fill="#FDAD31"/>
<path d="M31.6286 17.8362C30.8973 17.8475 30.1661 17.96 29.4686 18.1737C28.2311 14.9112 25.0811 12.7737 21.5936 12.8075C17.0936 12.7512 13.3473 16.25 13.0998 20.75C9.92731 21.1662 7.53106 23.8437 7.47481 27.0387C7.40731 30.6162 10.2536 33.5637 13.8198 33.6312H31.5836L31.6286 33.665C36.0048 33.665 39.5486 30.1212 39.5486 25.7562C39.5486 21.3912 36.0048 17.8362 31.6286 17.8362ZM31.5836 32.18H13.8423C13.6848 32.1912 13.5273 32.1912 13.3698 32.18C10.5911 32.045 8.45356 29.6937 8.58856 26.915C8.72356 24.1362 11.0748 21.9987 13.8536 22.1337H14.5511V21.2C14.5398 21.1437 14.5398 21.0987 14.5511 21.0425C14.6298 17.9937 16.6661 15.3387 19.6023 14.4837C23.3148 13.4037 27.2073 15.5412 28.2873 19.2537L28.5011 19.9962L29.2323 19.7262C29.9861 19.4337 30.7848 19.265 31.5948 19.2537C31.7748 19.2425 31.9548 19.2425 32.1348 19.2537C35.7011 19.4 38.4798 22.415 38.3336 25.9812C38.1648 29.5587 35.1498 32.3262 31.5836 32.18Z" fill="#051344"/>
</svg>
