<svg width="151" height="61" viewBox="0 0 151 61" fill="none" xmlns="http://www.w3.org/2000/svg">
<g clip-path="url(#clip0_364_11458)">
<path d="M97.3016 30.3482C96.9606 30.3482 96.6042 30.3482 96.2168 30.3482C95.8294 30.3482 95.4937 30.3482 95.0546 30.3482H95.0288C94.9671 30.3561 94.9044 30.3511 94.8448 30.3334C94.7852 30.3156 94.73 30.2857 94.6827 30.2454C94.5984 30.1393 94.5594 30.0045 94.5742 29.8701C94.5742 28.3023 94.5742 26.7088 94.5742 25.1667C94.5484 21.8151 94.5226 18.3454 94.6465 14.9424C94.6896 12.8971 95.3109 10.9052 96.4392 9.19509C97.5674 7.48496 99.157 6.12579 101.026 5.27334C102.752 4.39714 104.662 3.93919 106.599 3.93684C108.682 3.9302 110.732 4.45849 112.55 5.47064C114.368 6.48279 115.892 7.94457 116.976 9.71464C117.831 11.1349 118.362 12.7245 118.531 14.3713C118.701 16.018 118.505 17.6817 117.958 19.2449C117.408 20.8357 116.512 22.2865 115.336 23.4946C114.159 24.7027 112.73 25.6386 111.15 26.2359C109.634 26.8383 108.019 27.1555 106.387 27.1714C103.455 27.1251 100.637 26.0304 98.4482 24.0872L98.221 23.8918L97.9885 23.7016L97.8594 23.7428V25.655C97.8594 27.0121 97.8594 28.4205 97.8594 29.8033C97.8699 29.8779 97.8649 29.9539 97.8444 30.0264C97.824 30.099 97.7886 30.1665 97.7406 30.2248C97.6867 30.2701 97.6241 30.304 97.5566 30.3244C97.4891 30.3447 97.4181 30.351 97.348 30.343L97.3016 30.3482ZM100.37 9.62725C99.5778 10.3879 98.9472 11.2989 98.5152 12.3063C98.0831 13.3137 97.8583 14.3971 97.8542 15.4924C97.8535 16.608 98.0787 17.7123 98.5162 18.7394C98.9537 19.7666 99.5947 20.6955 100.401 21.4707C102.048 23.0638 104.256 23.9514 106.553 23.9432H106.63C108.851 23.9337 110.987 23.0954 112.617 21.5941C114.231 20.0909 115.179 18.0118 115.253 15.8134C115.328 13.6149 114.523 11.4769 113.015 9.86885L112.689 9.54501C111.1 8.07594 109.035 7.22241 106.868 7.13931H106.542C104.24 7.123 102.023 8.00723 100.37 9.60155V9.62725ZM14.8879 23.7582C13.8315 22.7942 12.9761 21.6325 12.3708 20.3395C11.7655 19.0465 11.422 17.6475 11.36 16.2224C11.3299 16.077 11.2831 15.9356 11.2205 15.8009V4.30695C11.3635 4.24231 11.5147 4.19735 11.6699 4.1733H14.2216C14.6658 4.1733 14.5987 4.43546 14.5987 4.68734V15.5336C14.6635 17.8279 15.6413 20.0026 17.3171 21.5796C18.9928 23.1567 21.2293 24.0068 23.5348 23.9432C25.5215 23.8848 27.4281 23.1511 28.9375 21.8642C30.4468 20.5773 31.4677 18.8148 31.8304 16.8701C31.9097 16.3598 31.9494 15.8443 31.9492 15.3279C31.9492 11.7965 31.9492 8.26505 31.9492 4.7336C31.9492 4.14759 31.9492 4.14759 32.5587 4.14759C33.3077 4.14759 34.0515 4.14759 34.8005 4.14759C35.1207 4.14759 35.2499 4.2504 35.2499 4.56397C35.2499 8.36786 35.3222 12.1717 35.2499 15.9705C35.1746 18.3811 34.3308 20.7054 32.8404 22.6071C31.3501 24.5089 29.2904 25.8896 26.9594 26.5494C25.7032 26.9205 24.4009 27.1143 23.0906 27.1251C20.0199 27.1094 17.0768 25.9013 14.8879 23.7582ZM78.1173 26.8835C75.8665 26.4984 73.7682 25.4962 72.0583 23.9895C70.421 22.4531 69.2641 20.479 68.7267 18.3042C68.2151 16.5076 68.1742 14.6106 68.6079 12.7937C69.0876 10.9693 70.0139 9.29156 71.3042 7.91037C72.3864 6.6474 73.7333 5.63542 75.2502 4.94544C76.7672 4.25546 78.4175 3.90419 80.0853 3.91628C80.6657 3.918 81.2453 3.95577 81.8209 4.02937C84.0739 4.21929 86.2196 5.06983 87.9867 6.47342C89.7539 7.87702 91.0631 9.77062 91.7488 11.9147C92.1663 13.1107 92.3691 14.3705 92.348 15.6364V26.3489C92.348 26.9144 92.348 26.9144 91.7591 26.9144H90.4729C90.1217 26.9144 89.8324 26.9144 89.5587 26.9144H89.4967C89.4322 26.9213 89.367 26.9154 89.3049 26.8968C89.2428 26.8783 89.1851 26.8475 89.1351 26.8064C89.058 26.6974 89.0266 26.5629 89.0473 26.4312C89.0473 25.84 89.0473 25.2438 89.0473 24.6629V24.0923C89.0473 24.0049 89.0473 23.9124 89.0473 23.7942C89.0473 23.6759 89.0473 23.6657 89.0473 23.5886L88.9078 23.6914C88.8148 23.7633 88.7477 23.8096 88.6857 23.8661C86.5105 25.9288 83.6271 27.0888 80.6226 27.1097C79.782 27.1178 78.9427 27.042 78.1173 26.8835ZM71.64 15.3125C71.6177 16.4209 71.8209 17.5222 72.2372 18.5505C72.6535 19.5787 73.2744 20.5126 74.0625 21.2959C74.8701 22.1192 75.8338 22.7748 76.8978 23.2248C77.9618 23.6748 79.1049 23.9103 80.261 23.9175H80.4108C82.6476 23.9222 84.7991 23.0636 86.4129 21.5221C88.0142 20.0263 88.9542 17.9596 89.0266 15.7752C89.0609 14.6903 88.8791 13.6095 88.4917 12.5949C88.1043 11.5803 87.5189 10.6521 86.7693 9.86371C85.1693 8.17611 82.9631 7.18739 80.6329 7.1136H80.3746C78.134 7.08461 75.97 7.92387 74.34 9.45393C72.7099 10.984 71.7417 13.0849 71.64 15.3125ZM8.74113 59.7564C6.88742 59.3042 5.17801 58.3947 3.77062 57.1118C2.36322 55.8289 1.30319 54.2139 0.68832 52.4159C-0.238762 49.8712 -0.217978 47.0801 0.746897 44.5494C1.71177 42.0187 3.55673 39.9164 5.94667 38.6242C7.75785 37.5797 9.81419 37.03 11.9075 37.0307C12.7985 37.0341 13.6866 37.1306 14.5573 37.3185C16.3735 37.6578 18.0816 38.4247 19.5391 39.555C20.9967 40.6853 22.1613 42.1463 22.9356 43.816C23.6581 45.3208 24.0255 46.97 24.01 48.6377V59.4582C24.01 60.0391 24.01 60.0391 23.3953 60.0391H22.1143C21.7734 60.0391 21.4945 60.0391 21.2414 60.0391H21.1639C21.0974 60.0467 21.0301 60.0407 20.9661 60.0212C20.9021 60.0017 20.8428 59.9693 20.792 59.926C20.7459 59.863 20.7134 59.7912 20.6965 59.7151C20.6796 59.6391 20.6787 59.5604 20.6938 59.4839C20.6938 58.9133 20.6938 58.3325 20.6938 57.767V57.1913C20.6988 57.0988 20.6988 57.0062 20.6938 56.9137C20.6966 56.8641 20.6966 56.8143 20.6938 56.7646C20.4975 56.9137 20.3013 57.0782 20.1153 57.2273C19.7345 57.5606 19.3344 57.8712 18.9169 58.1577C16.9369 59.5047 14.6003 60.2381 12.2019 60.2652C11.0301 60.2569 9.86526 60.0857 8.74113 59.7564ZM11.7629 40.2229C9.53406 40.2943 7.41519 41.2035 5.83302 42.7674C5.0405 43.5179 4.40762 44.4194 3.97195 45.4181C3.53627 46.4168 3.30669 47.4924 3.29683 48.5811C3.29936 49.6995 3.52949 50.8058 3.97337 51.8333C4.41725 52.8608 5.06568 53.7881 5.87952 54.5594C7.52387 56.1581 9.73262 57.0514 12.0315 57.0474H12.1244C14.3756 57.0482 16.5376 56.1718 18.1473 54.6057C19.6961 53.1139 20.619 51.0934 20.73 48.9512C20.7673 47.8424 20.5788 46.7375 20.1757 45.703C19.7727 44.6685 19.1635 43.7259 18.3849 42.9319C17.5513 42.0771 16.5543 41.397 15.4525 40.9318C14.3506 40.4665 13.1664 40.2255 11.9695 40.2229H11.7629ZM42.1146 57.0782L42.001 56.9548L40.5237 58.2194C39.6435 58.9523 38.6267 59.5054 37.5315 59.847C36.4364 60.1887 35.2843 60.3122 34.1411 60.2105C32.998 60.1088 31.8862 59.7839 30.8693 59.2544C29.8524 58.7249 28.9503 58.0011 28.2146 57.1245C27.5431 56.3299 27.0185 55.4232 26.665 54.4463C26.4008 53.6147 26.2633 52.7483 26.2569 51.8761C26.2156 47.1675 26.2569 42.4589 26.2569 37.7452C26.2569 37.0821 26.2569 37.0821 26.9646 37.0821C27.6723 37.0821 28.3438 37.0821 29.0307 37.0821C29.4336 37.0821 29.5215 37.2106 29.5215 37.5961C29.5215 42.3047 29.5215 47.0133 29.5215 51.7219C29.4976 52.8405 29.8364 53.9369 30.4876 54.8488C31.1388 55.7608 32.0679 56.4398 33.1372 56.7852C34.4846 57.2351 35.9563 57.1343 37.229 56.5049C38.5017 55.8755 39.4712 54.769 39.9245 53.4285C39.987 53.2449 40.0388 53.0578 40.0795 52.8682C40.1653 52.3586 40.2084 51.8428 40.2086 51.3261C40.2086 46.7854 40.2086 42.2465 40.2086 37.7092C40.2086 37.0975 40.2086 37.0975 40.8285 37.0975H42.9463C43.4886 37.0975 43.499 37.0975 43.499 37.6578V51.7014C43.4695 52.7855 43.7854 53.8512 44.4015 54.7459C45.0175 55.6405 45.9021 56.3184 46.9288 56.6824C48.1528 57.1429 49.503 57.1461 50.7292 56.6914C51.9554 56.2368 52.9744 55.3551 53.5973 54.2099C54.0006 53.4389 54.2064 52.5808 54.1965 51.7116V37.7246C54.1965 37.1181 54.1965 37.1181 54.8266 37.1181C55.4568 37.1181 56.2368 37.1181 56.9393 37.1181C57.3628 37.1181 57.4868 37.2466 57.4868 37.6321C57.4868 41.4309 57.4868 45.2347 57.4868 49.0386C57.5428 50.3137 57.5186 51.591 57.4145 52.8631C57.2695 54.3795 56.6929 55.8234 55.7523 57.0252C54.8118 58.2271 53.5464 59.1371 52.1045 59.6484C51.0771 60.0532 49.9811 60.2573 48.8761 60.2498C47.5833 60.2534 46.3058 59.9707 45.1363 59.4222C43.9668 58.8736 42.9346 58.0729 42.1146 57.0782ZM63.3392 56.9189C62.2422 55.8949 61.3587 54.6659 60.739 53.3021C60.1194 51.9383 59.7757 50.4663 59.7278 48.9703C59.6798 47.4743 59.9284 45.9836 60.4594 44.5833C60.9905 43.1829 61.7935 41.9004 62.8226 40.8089C64.1436 39.4005 65.8017 38.3483 67.642 37.7503C69.0468 37.286 70.5161 37.0431 71.9964 37.0307C73.6166 37.0457 75.2163 37.3926 76.6959 38.0497C78.1755 38.7068 79.5034 39.66 80.5967 40.85C82.4911 42.7088 83.5888 45.2252 83.6598 47.8718C83.7218 50.4831 83.7269 53.1355 83.7269 55.7006C83.7269 56.9857 83.7269 58.3119 83.7269 59.6124C83.7367 59.7352 83.7019 59.8574 83.6288 59.9568C83.5818 59.9955 83.5272 60.0242 83.4686 60.041C83.4099 60.0578 83.3484 60.0624 83.2879 60.0545H83.2569H81.9707C81.5626 60.0545 81.1907 60.0545 80.8343 60.0545H80.7982C80.7432 60.0616 80.6875 60.0575 80.6342 60.0425C80.5809 60.0275 80.5312 60.0018 80.4883 59.9671C80.4503 59.916 80.423 59.8578 80.4079 59.796C80.3928 59.7342 80.3903 59.6701 80.4004 59.6073C80.4004 58.9904 80.4004 58.3684 80.4004 57.7619V57.2478C80.4004 57.1553 80.4004 57.0576 80.4004 56.9651V56.8418C80.1267 57.0371 79.8529 57.2376 79.5946 57.438C79.0161 57.8647 78.4686 58.2656 77.8746 58.6203C76.0294 59.7108 73.9202 60.2795 71.7743 60.2652C68.6333 60.2783 65.6096 59.0788 63.3392 56.9189ZM71.4488 40.2177C69.2218 40.2969 67.1041 41.1985 65.5086 42.7468C64.6893 43.5363 64.0442 44.4871 63.6146 45.5386C63.1851 46.59 62.9804 47.719 63.0138 48.8536C63.0466 49.941 63.2959 51.0112 63.7472 52.0021C64.1985 52.993 64.8428 53.8849 65.643 54.6262C67.255 56.1729 69.4059 57.0387 71.6451 57.0422H71.6968C73.957 57.0716 76.1384 56.2163 77.7711 54.6607C79.4039 53.1051 80.3574 50.9735 80.4263 48.7251C80.4336 47.6272 80.2209 46.5389 79.8005 45.5239C79.3801 44.5088 78.7605 43.5874 77.9779 42.8136C77.1596 41.9924 76.1848 41.3421 75.1107 40.9007C74.0366 40.4594 72.8847 40.2359 71.7226 40.2434L71.4488 40.2177ZM129.973 56.9908C128.128 55.306 126.883 53.0711 126.424 50.6219C126.346 50.2672 126.424 50.1387 126.832 50.149C127.659 50.149 128.48 50.149 129.301 50.149C129.353 50.1386 129.406 50.1386 129.458 50.1491C129.51 50.1595 129.56 50.1802 129.603 50.2099C129.647 50.2396 129.685 50.2777 129.713 50.3219C129.742 50.3662 129.762 50.4157 129.771 50.4677C129.774 50.4795 129.774 50.4918 129.771 50.5036C130.123 52.0313 130.901 53.4291 132.016 54.5359C133.13 55.6427 134.537 56.4135 136.073 56.7595C137.434 57.1414 138.87 57.1763 140.248 56.8609C141.627 56.5456 142.903 55.8903 143.96 54.9552C144.941 54.1644 145.726 53.1607 146.256 52.0211C146.786 50.8814 147.047 49.6361 147.018 48.3807C147.018 45.8996 147.018 43.4168 147.018 40.9322C147.018 40.5724 146.905 40.4799 146.543 40.485C143.523 40.485 140.5 40.485 137.473 40.485C137.345 40.4747 137.218 40.5031 137.107 40.5664C136.997 40.6298 136.908 40.7251 136.853 40.8397C135.38 43.3945 132.999 45.3073 130.179 46.2011C129.072 46.581 127.91 46.7823 126.739 46.7974C126.481 46.7974 126.403 46.7152 126.403 46.4839C126.403 45.6306 126.403 44.7824 126.403 43.9137C126.403 43.6618 126.496 43.5795 126.765 43.559C128.493 43.5248 130.169 42.9645 131.567 41.9535C132.965 40.9425 134.019 39.5294 134.585 37.9045C134.625 37.8287 134.653 37.7472 134.668 37.6629C134.668 37.2928 134.906 37.2106 135.262 37.2157C137.679 37.2157 140.102 37.2157 142.524 37.2157C144.947 37.2157 147.339 37.2157 149.756 37.2157C150.19 37.2157 150.273 37.3442 150.273 37.7298C150.273 41.4206 150.273 45.1062 150.273 48.797C150.263 51.583 149.182 54.2595 147.251 56.2763C146.152 57.4969 144.809 58.4745 143.307 59.1457C141.805 59.8169 140.178 60.1668 138.532 60.1727H138.237C135.164 60.2141 132.197 59.0552 129.973 56.9446V56.9908ZM59.0674 26.9298C58.2616 26.9298 57.4558 26.9298 56.6448 26.9298C56.2781 26.9298 56.1645 26.8116 56.1645 26.462C56.1645 25.0124 56.2523 23.5629 56.1335 22.1235C56.0399 20.6474 55.543 19.2247 54.6964 18.009C53.8498 16.7933 52.6857 15.8307 51.3297 15.2251C50.1356 14.6262 48.8133 14.3246 47.4763 14.3461C45.4101 14.3461 43.344 14.3461 41.2778 14.3461C40.8594 14.3461 40.7251 14.4541 40.7251 14.8602C40.7251 18.6743 40.7251 22.4937 40.7251 26.3078C40.7251 26.9144 40.7252 26.9144 40.0898 26.9144H39.3925C38.876 26.9144 38.3904 26.9144 37.8894 26.9144C37.5536 26.9144 37.44 26.8013 37.4658 26.4929C37.4658 26.3798 37.4658 26.2667 37.4658 26.1536V1.40777C37.4812 1.18144 37.5123 0.956445 37.5588 0.734375H40.5547C40.6373 0.937385 40.6946 1.14973 40.7251 1.36664C40.7251 4.38919 40.7251 7.41174 40.7251 10.4343V10.9483L40.8543 11.0152C41.1177 10.7684 41.3708 10.5011 41.6446 10.2698L47.0114 5.05745C47.1625 4.92857 47.3548 4.85749 47.5538 4.85697C49.8989 4.85697 52.2491 4.85697 54.5994 4.85697C54.93 4.85697 55.0694 4.93408 55.0539 5.28876C55.0281 6.00842 55.0539 6.73321 55.0539 7.45801C55.0539 8.00803 55.0539 8.01317 54.4961 8.01317H49.1241C48.9657 8.00428 48.8073 8.03005 48.6601 8.08867C48.5128 8.14728 48.3803 8.23732 48.2718 8.35244C47.4195 9.21088 46.5517 10.0539 45.6891 10.9226C45.6116 11.0152 45.5444 11.1128 45.4773 11.2105H46.0662C47.651 11.1222 49.24 11.2783 50.777 11.6731C52.6046 12.1518 54.2885 13.064 55.6846 14.3316C57.0807 15.5992 58.1475 17.1845 58.7937 18.9519C59.2775 20.2686 59.5139 21.6625 59.491 23.0642V26.5546C59.491 26.8527 59.4083 26.9761 59.0933 26.9761L59.0674 26.9298ZM85.9274 59.5919C85.9274 57.7362 85.9274 55.8754 85.9274 54.0197C85.9274 52.2462 85.8912 50.4728 85.9274 48.7045C85.9133 46.634 86.4635 44.5984 87.5196 42.8143C88.5756 41.0302 90.0978 39.5644 91.9244 38.5728C93.6227 37.6055 95.5319 37.0639 97.4875 36.9947C97.8284 36.9947 97.9627 37.0975 97.9576 37.4316C97.9576 38.213 97.9576 38.9738 97.9576 39.7705C97.9576 40.0584 97.8646 40.1663 97.5546 40.1817C95.6807 40.2575 93.8811 40.9318 92.4224 42.1048C90.9636 43.2778 89.9232 44.8872 89.4553 46.6946C89.315 47.2876 89.244 47.8948 89.2436 48.504C89.2436 52.1589 89.2436 55.8188 89.2436 59.4736C89.2436 60.0339 89.2436 60.0339 88.6651 60.0339H87.9419C87.4253 60.0339 86.9088 60.0339 86.3923 60.0339H86.3613C86.0307 60.0339 85.9325 59.9003 85.9325 59.5816L85.9274 59.5919Z" fill="#051344"/>
<path d="M124.109 29.7871C124.109 28.9184 124.109 28.0445 124.109 27.1758V29.9105C124.114 29.8695 124.114 29.8281 124.109 29.7871Z" fill="#051344"/>
<path d="M140.745 6.85807C138.606 4.97287 135.853 3.9228 132.997 3.90234C131.509 3.91255 130.033 4.16431 128.627 4.6477C126.42 5.39587 124.487 6.78092 123.074 8.62636C121.672 10.4299 120.88 12.6288 120.811 14.9079C120.749 18.2492 120.765 21.6573 120.775 24.9522C120.775 25.5691 120.775 26.2014 120.775 26.8336H124.097V23.6671L124.236 23.734C124.269 23.7442 124.301 23.7598 124.329 23.7802C126.192 25.5865 128.605 26.7272 131.189 27.0238C131.754 27.0913 132.324 27.1257 132.893 27.1266C135.865 27.148 138.734 26.0456 140.92 24.0424C142.087 23.0417 143.031 21.8089 143.69 20.4233C144.349 19.0378 144.709 17.5302 144.748 15.9977C144.863 14.2668 144.559 12.5337 143.863 10.9435C143.166 9.35335 142.097 7.95242 140.745 6.85807ZM132.743 23.9344H132.661C131.491 23.9181 130.336 23.6707 129.263 23.2066C128.19 22.7424 127.221 22.0707 126.411 21.2306C125.656 20.4701 125.062 19.5662 124.665 18.5727C124.269 17.5792 124.077 16.5164 124.102 15.4477C124.092 14.3992 124.292 13.3593 124.691 12.3886C125.089 11.4178 125.677 10.5356 126.421 9.79323C128.051 8.121 130.279 7.15669 132.619 7.10994H132.738C135.101 7.11378 137.366 8.04689 139.04 9.70584C139.815 10.4698 140.429 11.3796 140.846 12.3822C141.264 13.3848 141.477 14.46 141.473 15.5453C141.421 17.8059 140.476 19.955 138.841 21.5258C137.207 23.0966 135.015 23.9621 132.743 23.9344Z" fill="#051344"/>
<path d="M120.845 35.7148V39.9145C120.852 40.0309 120.852 40.1476 120.845 40.2641C120.845 40.3309 120.845 40.4029 120.845 40.4902L120.644 40.3412C120.53 40.2589 120.442 40.1818 120.36 40.1098C118.128 38.1196 115.236 37.0211 112.24 37.0256C110.524 37.0206 108.827 37.3707 107.255 38.0537C104.588 39.197 102.44 41.2827 101.227 43.9086C100.023 46.4908 99.8584 49.434 100.767 52.1332C101.584 54.499 103.127 56.5496 105.178 57.9958C107.229 59.442 109.685 60.2107 112.198 60.1934C113.718 60.1929 115.226 59.9159 116.646 59.376C118.795 58.5735 120.657 57.1548 121.997 55.2993C123.337 53.4438 124.093 51.2347 124.172 48.9513C124.172 44.6077 124.172 40.2127 124.172 35.9307V34.3886C124.172 34.3372 124.172 34.2858 124.141 34.2344V35.6942L120.845 35.7148ZM118.262 54.5801C116.654 56.1485 114.492 57.0269 112.24 57.0269H112.059C110.904 57.0213 109.762 56.7882 108.698 56.3408C107.634 55.8935 106.669 55.2409 105.86 54.4207L105.649 54.2048C104.16 52.6366 103.358 50.5445 103.419 48.3882C103.48 46.232 104.399 44.1881 105.974 42.7057C107.633 41.1014 109.859 40.2098 112.173 40.2229H112.482C114.698 40.3148 116.798 41.2322 118.366 42.7931C119.176 43.5878 119.812 44.5404 120.235 45.5912C120.658 46.642 120.859 47.7684 120.825 48.8999C120.738 51.047 119.829 53.0796 118.283 54.5801H118.262Z" fill="#051344"/>
<path d="M120.758 26.832V35.7198H120.84H124.095V34.2548V29.9163V27.1764V26.832H120.773H120.758Z" fill="#051344"/>
</g>
<defs>
<clipPath id="clip0_364_11458">
<rect width="150.271" height="59.536" fill="white" transform="translate(0 0.734375)"/>
</clipPath>
</defs>
</svg>
