<svg width="166" height="60" viewBox="0 0 166 60" fill="none" xmlns="http://www.w3.org/2000/svg">
<path fill-rule="evenodd" clip-rule="evenodd" d="M92.2863 40.6624C92.2856 34.5806 87.3248 29.6159 81.2615 29.6289C75.1796 29.6418 70.1783 34.6229 70.1954 40.6503C70.2126 46.7101 75.1923 51.6344 81.2931 51.6243C87.3525 51.6146 92.287 46.6939 92.2863 40.6624ZM99.5867 40.6905C99.5895 50.7806 91.3779 58.9024 81.1768 58.8997C71.1473 58.8967 62.8898 50.6849 62.8906 40.7144C62.8913 30.5579 71.1013 22.3651 81.2845 22.3594C91.4043 22.3538 99.5837 30.5461 99.5867 40.6905Z" fill="#051344"/>
<path fill-rule="evenodd" clip-rule="evenodd" d="M158.638 40.6624C158.637 34.5806 153.677 29.6159 147.613 29.6289C141.531 29.6418 136.53 34.6229 136.547 40.6503C136.564 46.7101 141.544 51.6344 147.645 51.6243C153.704 51.6146 158.639 46.6939 158.638 40.6624ZM165.938 40.6905C165.941 50.7806 157.73 58.9024 147.528 58.8997C137.499 58.8967 129.241 50.6849 129.242 40.7144C129.243 30.5579 137.453 22.3651 147.636 22.3594C157.756 22.3538 165.935 30.5461 165.938 40.6905Z" fill="#051344"/>
<path fill-rule="evenodd" clip-rule="evenodd" d="M44.4141 16.7788C44.4233 13.7543 46.8509 11.3775 49.9134 11.3946C52.9593 11.4118 55.3718 13.8157 55.3749 16.8367C55.3777 19.8111 52.8855 22.301 49.9021 22.3047C46.8488 22.3083 44.4047 19.8475 44.4141 16.7788Z" fill="#051344"/>
<path fill-rule="evenodd" clip-rule="evenodd" d="M53.6389 48.1173C54.6461 48.1064 55.4867 48.9052 55.5085 49.8942C55.5306 50.8993 54.6475 51.7871 53.6372 51.7755C52.6441 51.7638 51.8226 50.929 51.8282 49.9363C51.8337 48.9116 52.6133 48.1284 53.6389 48.1173Z" fill="#051344"/>
<path fill-rule="evenodd" clip-rule="evenodd" d="M46.1459 48.1176C47.1629 48.0976 48.0018 48.8673 48.0465 49.8613C48.0916 50.8651 47.2235 51.7733 46.2142 51.7785C45.2169 51.7837 44.3982 50.975 44.383 49.97C44.3674 48.9393 45.1306 48.1375 46.1459 48.1176Z" fill="#051344"/>
<path fill-rule="evenodd" clip-rule="evenodd" d="M53.6826 33.426C54.6882 33.4425 55.5101 34.2635 55.5064 35.2482C55.5024 36.2682 54.6144 37.113 53.5891 37.0722C52.5776 37.0322 51.8043 36.2089 51.8287 35.1979C51.8532 34.1847 52.6644 33.4092 53.6826 33.426Z" fill="#051344"/>
<path fill-rule="evenodd" clip-rule="evenodd" d="M51.8467 42.403C51.9057 41.3448 52.7538 40.6152 53.8332 40.6932C54.7819 40.7619 55.558 41.6196 55.5178 42.5549C55.4738 43.5766 54.5562 44.4042 53.55 44.33C52.5408 44.2556 51.7908 43.4072 51.8467 42.403Z" fill="#051344"/>
<path fill-rule="evenodd" clip-rule="evenodd" d="M44.383 27.7526C44.3964 26.7227 45.1749 25.9637 46.2127 25.9688C47.2229 25.9738 48.0395 26.7782 48.0445 27.773C48.0497 28.7924 47.1679 29.6498 46.1495 29.6154C45.139 29.5815 44.3698 28.7703 44.383 27.7526Z" fill="#051344"/>
<path fill-rule="evenodd" clip-rule="evenodd" d="M53.6728 25.9688C54.6755 25.9752 55.5053 26.7955 55.5046 27.7795C55.504 28.7662 54.679 29.5981 53.6843 29.6151C52.6474 29.633 51.8039 28.7841 51.8287 27.7471C51.853 26.7211 52.64 25.9622 53.6728 25.9688Z" fill="#051344"/>
<path fill-rule="evenodd" clip-rule="evenodd" d="M44.3985 35.2299C44.4051 34.2008 45.181 33.4272 46.2078 33.4258C47.2197 33.4242 48.0472 34.2234 48.0586 35.2132C48.0705 36.2365 47.2067 37.0915 46.1797 37.0731C45.1752 37.0551 44.3919 36.2447 44.3985 35.2299Z" fill="#051344"/>
<path fill-rule="evenodd" clip-rule="evenodd" d="M44.3829 42.525C44.3721 41.4901 45.1273 40.7067 46.1538 40.6878C47.2096 40.6686 48.0539 41.4847 48.0457 42.5167C48.0379 43.4953 47.1922 44.3297 46.206 44.3317C45.1997 44.3337 44.3935 43.5348 44.3829 42.525Z" fill="#051344"/>
<path fill-rule="evenodd" clip-rule="evenodd" d="M46.0834 59.0991C45.0746 59.0481 44.3403 58.2221 44.3847 57.188C44.4277 56.189 45.2748 55.4141 46.2795 55.4546C47.2681 55.4945 48.0726 56.3547 48.0426 57.3397C48.0113 58.3694 47.1393 59.1525 46.0834 59.0991Z" fill="#051344"/>
<path fill-rule="evenodd" clip-rule="evenodd" d="M53.6669 59.0972C52.6323 59.1014 51.8497 58.343 51.8285 57.3153C51.8073 56.2796 52.6552 55.432 53.6911 55.4535C54.6856 55.4743 55.508 56.3095 55.5047 57.2952C55.5014 58.2808 54.6731 59.0931 53.6669 59.0972Z" fill="#051344"/>
<mask id="mask0_364_11477" style="mask-type:alpha" maskUnits="userSpaceOnUse" x="0" y="0" width="166" height="60">
<path fill-rule="evenodd" clip-rule="evenodd" d="M0 59.2698H166V0.0742188H0V59.2698Z" fill="white"/>
</mask>
<g mask="url(#mask0_364_11477)">
<path fill-rule="evenodd" clip-rule="evenodd" d="M12.0391 47.2742H25.017V34.3477H12.0391V47.2742ZM37.0637 34.3467V32.6131H26.7613V22.3516H25.0208V32.6131H12.0427V22.3516H10.3022V32.6131H0V34.3467H10.3022V47.2734H0V49.0069H10.3022V59.2683H12.0427V49.0069H25.0208V59.2683H26.7613V49.0069H37.0635V47.2734H26.7613V34.3467H37.0637Z" fill="#051344"/>
<path fill-rule="evenodd" clip-rule="evenodd" d="M103.352 58.9646H125.41V51.5703H103.352V58.9646Z" fill="#051344"/>
<path fill-rule="evenodd" clip-rule="evenodd" d="M110.703 47.9566H118.182V44.3594H110.703V47.9566Z" fill="#051344"/>
<path fill-rule="evenodd" clip-rule="evenodd" d="M110.688 40.5577H118.173V37.0625H110.688V40.5577Z" fill="#051344"/>
<path fill-rule="evenodd" clip-rule="evenodd" d="M110.688 33.4086H118.173V15.0547H110.688V33.4086Z" fill="#051344"/>
<path fill-rule="evenodd" clip-rule="evenodd" d="M103.148 7.82751V15.1084C111.471 15.1084 118.243 8.36422 118.243 0.0742188H110.933C110.933 4.3495 107.441 7.82751 103.148 7.82751Z" fill="#051344"/>
<path fill-rule="evenodd" clip-rule="evenodd" d="M147.568 16.8398C146.523 16.8398 145.672 17.6872 145.672 18.7287C145.672 19.77 146.523 20.6174 147.568 20.6174C148.614 20.6174 149.465 19.77 149.465 18.7287C149.465 17.6872 148.614 16.8398 147.568 16.8398ZM147.574 22.3501C145.569 22.3501 143.938 20.7251 143.938 18.7279C143.938 16.7305 145.569 15.1055 147.574 15.1055C149.58 15.1055 151.211 16.7305 151.211 18.7279C151.211 20.7251 149.58 22.3501 147.574 22.3501Z" fill="#051344"/>
<path fill-rule="evenodd" clip-rule="evenodd" d="M147.56 2.28516C138.45 2.28516 131.039 9.66712 131.039 18.7407C131.039 27.8142 138.45 35.196 147.56 35.196C156.67 35.196 164.081 27.8142 164.081 18.7407C164.081 9.66712 156.67 2.28516 147.56 2.28516ZM147.56 37.0997C137.395 37.0997 129.125 28.8624 129.125 18.7374C129.125 8.6123 137.395 0.375 147.56 0.375C157.726 0.375 165.996 8.6123 165.996 18.7374C165.996 28.8624 157.726 37.0997 147.56 37.0997Z" fill="#051344"/>
<path fill-rule="evenodd" clip-rule="evenodd" d="M148.305 29.6631C148.071 29.6484 147.836 29.6385 147.598 29.639C147.352 29.6395 147.109 29.6512 146.867 29.6678C147.095 29.6819 147.324 29.6915 147.556 29.6915C147.808 29.6915 148.057 29.6798 148.305 29.6631Z" fill="#051344"/>
<path fill-rule="evenodd" clip-rule="evenodd" d="M139.824 24.0956C138.757 22.5728 138.129 20.7238 138.129 18.7302C138.129 13.5468 142.363 9.32973 147.567 9.32973C152.771 9.32973 157.005 13.5468 157.005 18.7302C157.005 20.707 156.388 22.542 155.337 24.0573C155.815 24.2792 156.282 24.5198 156.737 24.7807C157.894 23.0454 158.571 20.9655 158.571 18.7302C158.571 12.6866 153.635 7.76953 147.567 7.76953C141.499 7.76953 136.562 12.6866 136.562 18.7302C136.562 20.9835 137.249 23.0799 138.424 24.8235C138.879 24.5616 139.346 24.319 139.824 24.0956Z" fill="#051344"/>
</g>
</svg>
