<svg id="Layer_1" data-name="Layer 1" xmlns="http://www.w3.org/2000/svg" xmlns:xlink="http://www.w3.org/1999/xlink" viewBox="0 0 60 60"><defs><style>.cls-1{fill:none;}.cls-2{clip-path:url(#clip-path);}.cls-3{fill:#051344;}.cls-4{fill:#fdad31;}</style><clipPath id="clip-path"><rect class="cls-1" width="60" height="60"/></clipPath></defs><g class="cls-2"><path class="cls-3" d="M21.57,10.31a19.26,19.26,0,0,1,2.63.18,6.31,6.31,0,0,0,3.46,4.79,5,5,0,0,0,1.9.36,7.27,7.27,0,0,0,3.94-1.3,19.28,19.28,0,0,1,3.72,3.72,6.33,6.33,0,0,0-.93,5.84,6.33,6.33,0,0,0,4.79,3.47,19.3,19.3,0,0,1,0,5.26,6.3,6.3,0,0,0-4.79,3.47,6.3,6.3,0,0,0,.94,5.84,19.61,19.61,0,0,1-3.73,3.72,7.27,7.27,0,0,0-3.94-1.3,5,5,0,0,0-1.9.36,6.32,6.32,0,0,0-3.46,4.79,19.52,19.52,0,0,1-2.64.18,19.26,19.26,0,0,1-2.63-.18,6.31,6.31,0,0,0-3.46-4.79,5,5,0,0,0-1.9-.36,7.27,7.27,0,0,0-3.94,1.3,19.56,19.56,0,0,1-3.72-3.72,6.33,6.33,0,0,0,.93-5.84,6.33,6.33,0,0,0-4.79-3.47,19.3,19.3,0,0,1,0-5.26A6.3,6.3,0,0,0,6.84,23.9a6.33,6.33,0,0,0-.93-5.84,19.28,19.28,0,0,1,3.72-3.72,7.27,7.27,0,0,0,3.94,1.3,5,5,0,0,0,1.9-.36,6.29,6.29,0,0,0,3.46-4.79,19.52,19.52,0,0,1,2.64-.18h0m0-1.88a21.92,21.92,0,0,0-4.32.44c-.09,1.89-.87,4-2.5,4.67a3,3,0,0,1-1.18.23A6.19,6.19,0,0,1,9.68,12a21.64,21.64,0,0,0-6.11,6.1c1.28,1.39,2.21,3.44,1.54,5.07S2.32,25.6.44,25.69a21.21,21.21,0,0,0,0,8.62c1.88.09,4,.88,4.67,2.51s-.26,3.68-1.53,5.07A21.35,21.35,0,0,0,9.68,48a6.19,6.19,0,0,1,3.89-1.76,3,3,0,0,1,1.18.23c1.63.67,2.42,2.78,2.5,4.67a21.37,21.37,0,0,0,4.31.44,21.92,21.92,0,0,0,4.32-.44c.09-1.89.87-4,2.5-4.67a3,3,0,0,1,1.18-.23A6.19,6.19,0,0,1,33.45,48a21.64,21.64,0,0,0,6.11-6.1c-1.28-1.39-2.21-3.44-1.54-5.07s2.79-2.42,4.67-2.51a21.21,21.21,0,0,0,0-8.62c-1.88-.09-4-.88-4.67-2.51s.26-3.68,1.53-5.07a21.35,21.35,0,0,0-6.1-6.1,6.19,6.19,0,0,1-3.89,1.76,3,3,0,0,1-1.18-.23c-1.63-.67-2.41-2.78-2.5-4.67a21.37,21.37,0,0,0-4.31-.44Z"/><path class="cls-4" d="M21.57,24.38A5.63,5.63,0,1,1,15.94,30a5.62,5.62,0,0,1,5.63-5.62m0-1.88a7.5,7.5,0,1,0,7.5,7.5,7.5,7.5,0,0,0-7.5-7.5Z"/></g></svg>