<svg id="Layer_1" data-name="Layer 1" xmlns="http://www.w3.org/2000/svg" xmlns:xlink="http://www.w3.org/1999/xlink" viewBox="0 0 60 60"><defs><style>.cls-1{fill:none;}.cls-2{clip-path:url(#clip-path);}.cls-3{fill:#fdad31;}.cls-4{fill:#051344;}</style><clipPath id="clip-path"><rect class="cls-1" width="60" height="60"/></clipPath></defs><g class="cls-2"><path class="cls-3" d="M30.94,10.31a2.82,2.82,0,1,1-2.82,2.81,2.81,2.81,0,0,1,2.82-2.81m0-1.87a4.69,4.69,0,1,0,4.68,4.68,4.69,4.69,0,0,0-4.68-4.68Z"/><path class="cls-3" d="M4.69,10.31a2.82,2.82,0,1,1-2.81,2.81,2.81,2.81,0,0,1,2.81-2.81m0-1.87a4.69,4.69,0,1,0,4.69,4.68A4.69,4.69,0,0,0,4.69,8.44Z"/><path class="cls-4" d="M32.81,29.06a4.66,4.66,0,0,0-3.11,1.19,4.68,4.68,0,0,0-7.2-2.12V18.75a4.69,4.69,0,0,0-9.38,0v8.54a4.08,4.08,0,0,0-.93-.1A4.69,4.69,0,0,0,7.5,31.87V44.06a7.5,7.5,0,0,0,7.5,7.5H30a7.5,7.5,0,0,0,7.5-7.5V33.75A4.69,4.69,0,0,0,32.81,29.06Zm2.81,7.5v7.5A5.63,5.63,0,0,1,30,49.69H15a5.63,5.63,0,0,1-5.62-5.63V31.87a2.81,2.81,0,0,1,2.81-2.81,2.64,2.64,0,0,1,.93.17V39.37H15V18.75a2.81,2.81,0,0,1,5.62,0V32.81H22.5v-.94a2.81,2.81,0,0,1,5.62,0v1.88H30a2.81,2.81,0,1,1,5.62,0Z"/><path class="cls-3" d="M15.48,14.69a2.81,2.81,0,1,1,4.67,0,4.69,4.69,0,0,1,1.41,1.25,4.7,4.7,0,1,0-7.49,0A4.69,4.69,0,0,1,15.48,14.69Z"/></g></svg>