<svg id="Layer_1" data-name="Layer 1" xmlns="http://www.w3.org/2000/svg" xmlns:xlink="http://www.w3.org/1999/xlink" viewBox="0 0 60 60"><defs><style>.cls-1{fill:none;}.cls-2{clip-path:url(#clip-path);}.cls-3{fill:#051344;}.cls-4{fill:#fdad31;}</style><clipPath id="clip-path"><rect class="cls-1" width="60" height="60"/></clipPath></defs><g class="cls-2"><g class="cls-2"><path class="cls-3" d="M43.12,15.94V44.06H1.88V15.94H43.12M45,14.06H0V45.94H45V14.06Z"/><path class="cls-3" d="M30.78,27l-3.59,3.59-2.81-2.81L15,37.11l-3.75-3.75L6.17,38.44,7.5,39.77,11.25,36,15,39.76l9.38-9.37,2.81,2.81,4.91-4.92A4.74,4.74,0,0,1,30.78,27Z"/><path class="cls-4" d="M34.69,21.56a2.82,2.82,0,1,1-2.81,2.82,2.81,2.81,0,0,1,2.81-2.82m0-1.87a4.69,4.69,0,1,0,4.69,4.69,4.69,4.69,0,0,0-4.69-4.69Z"/></g></g></svg>