<svg id="Warstwa_1" data-name="Warstwa 1" xmlns="http://www.w3.org/2000/svg" xmlns:xlink="http://www.w3.org/1999/xlink" viewBox="0 0 60 60">
  <defs>
    <style>
      .cls-1 {
        fill: none;
      }

      .cls-2 {
        clip-path: url(#clip-path);
      }

      .cls-3 {
        fill: #fdad31;
      }

      .cls-4 {
        fill: #051344;
      }
    </style>
    <clipPath id="clip-path">
      <rect class="cls-1" width="60" height="60"/>
    </clipPath>
  </defs>
  <g class="cls-2">
    <g>
      <path class="cls-3" d="M35.37,12.44a2.82,2.82,0,1,1-2,.83,2.83,2.83,0,0,1,2-.83m0-1.87a4.68,4.68,0,1,0,3.32,1.37A4.69,4.69,0,0,0,35.37,10.57Z"/>
      <path class="cls-3" d="M35.37,36.31a2.8,2.8,0,1,1-2,.81,2.78,2.78,0,0,1,2-.82m0-1.87a4.68,4.68,0,1,0,3.32,1.37A4.67,4.67,0,0,0,35.36,34.43Z"/>
      <path class="cls-3" d="M40.31,24.38a2.81,2.81,0,1,1-2.81,2.81,2.81,2.81,0,0,1,2.81-2.81h0m0-1.88A4.69,4.69,0,1,0,45,27.19h0A4.69,4.69,0,0,0,40.31,22.5Z"/>
      <path class="cls-4" d="M14.53,7.5A14.55,14.55,0,0,0,0,22V41.72a10.78,10.78,0,1,0,21.56.05,13,13,0,0,0-.08-1.39,8.92,8.92,0,0,1,2.9-7.67A14.53,14.53,0,0,0,14.53,7.5Zm8.58,23.83a10.85,10.85,0,0,0-3.49,9.28,10.52,10.52,0,0,1,.07,1.12,8.91,8.91,0,1,1-17.81,0V22a12.66,12.66,0,1,1,21.23,9.3Z"/>
      <path class="cls-4" d="M8.25,15.75a8.81,8.81,0,0,0-2.62,6.3V37.5a4.69,4.69,0,1,0,9.37,0c0-4.65-3.37-8.44-7.5-8.44V22a7,7,0,1,1,12,5l1.32,1.32A8.9,8.9,0,0,0,8.25,15.75ZM13.13,37.5a2.82,2.82,0,0,1-5.63,0V30.94C10.6,30.94,13.13,33.88,13.13,37.5Z"/>
    </g>
  </g>
</svg>
