<svg id="Layer_1" data-name="Layer 1" xmlns="http://www.w3.org/2000/svg" xmlns:xlink="http://www.w3.org/1999/xlink" viewBox="0 0 60 60"><defs><style>.cls-1{fill:none;}.cls-2{clip-path:url(#clip-path);}.cls-3{fill:#051344;}.cls-4{fill:#fdad31;}</style><clipPath id="clip-path"><rect class="cls-1" width="60" height="60"/></clipPath></defs><g class="cls-2"><path class="cls-3" d="M35.51,10.31c0,9.42-.09,17-2.19,23.32-2.27,6.83-6.8,11.74-14.63,15.83C11.09,45.45,6.45,40.2,4.12,33,2,26.47,1.88,19,1.88,10.31H35.51m1.87-1.87H0C0,27.19,0,42.19,18.69,51.56c18.76-9.37,18.75-22.5,18.69-43.12Z"/><path class="cls-4" d="M27.14,15.94a2.81,2.81,0,1,1-2.81,2.81,2.81,2.81,0,0,1,2.81-2.81m0-1.88a4.69,4.69,0,1,0,4.69,4.69,4.69,4.69,0,0,0-4.69-4.69Z"/><path class="cls-3" d="M18.27,44.88C5.58,38.53,5.58,26.14,5.58,14.16v-.1H7.46v.1c0,11.93,0,23.21,11.65,29Z"/></g></svg>