<svg id="Warstwa_1" data-name="Warstwa 1" xmlns="http://www.w3.org/2000/svg" xmlns:xlink="http://www.w3.org/1999/xlink" viewBox="0 0 60 60">
  <defs>
    <style>
      .cls-1 {
        fill: none;
      }

      .cls-2 {
        clip-path: url(#clip-path);
      }

      .cls-3 {
        fill: #051344;
      }

      .cls-4 {
        fill: #fdad31;
      }
    </style>
    <clipPath id="clip-path">
      <rect class="cls-1" width="60" height="60"/>
    </clipPath>
  </defs>
  <g class="cls-2">
    <g>
      <path class="cls-3" d="M35.25,33.79a4.51,4.51,0,0,0-3,.66L24.94,39a4.68,4.68,0,0,0-3.38-1.45H7.5A7.5,7.5,0,0,0,0,45v7.5H18.75a7.43,7.43,0,0,0,4-1.15l14.44-8.94a4.68,4.68,0,0,0-1.91-8.62Zm.94,7-14.46,9a5.63,5.63,0,0,1-3,.85H1.88V45A5.61,5.61,0,0,1,7.5,39.38H21.56a2.81,2.81,0,1,1,0,5.62H11.25v1.88H21.56a4.69,4.69,0,0,0,4.69-4.69,4.64,4.64,0,0,0-.3-1.65h0L33.22,36a2.92,2.92,0,0,1,1.47-.42c.11,0,.23,0,.34,0a2.81,2.81,0,0,1,1.16,5.17Z"/>
      <path class="cls-4" d="M29.06,13.12a7.5,7.5,0,0,0-15,0,3.88,3.88,0,0,0,0,.69h0a7.49,7.49,0,0,0-2.85,5.88,5.08,5.08,0,0,0,0,.68,7.5,7.5,0,1,0,12.16,5.88,4,4,0,0,0,0-.69h0a7.47,7.47,0,0,0,2.85-5.87,5.31,5.31,0,0,0,0-.69A7.5,7.5,0,0,0,29.06,13.12ZM21.56,7.5a5.62,5.62,0,0,1,4.15,9.41h0A7.49,7.49,0,0,0,16,12.75h0A5.61,5.61,0,0,1,21.56,7.5ZM15.94,31.88a5.63,5.63,0,1,1,5.62-5.63,5.63,5.63,0,0,1-5.62,5.63Zm7-8.41h0a7.5,7.5,0,0,0-9.75-4.18h0a5.63,5.63,0,1,1,9.75,4.18Z"/>
    </g>
  </g>
</svg>
