<svg id="Warstwa_1" data-name="Warstwa 1" xmlns="http://www.w3.org/2000/svg" xmlns:xlink="http://www.w3.org/1999/xlink" viewBox="0 0 60 60">
  <defs>
    <style>
      .cls-1 {
        fill: none;
      }

      .cls-2 {
        clip-path: url(#clip-path);
      }

      .cls-3 {
        fill: #051344;
      }

      .cls-4 {
        fill: #fdad31;
      }
    </style>
    <clipPath id="clip-path">
      <rect class="cls-1" width="60" height="60"/>
    </clipPath>
  </defs>
  <g class="cls-2">
    <g>
      <path class="cls-3" d="M24.38,15A25.94,25.94,0,0,1,41,20.89C45,24.26,46.88,28,46.88,30S45,35.74,41,39.11A25.94,25.94,0,0,1,24.38,45,26,26,0,0,1,7.76,39.11C3.72,35.74,1.88,32,1.88,30s1.84-5.74,5.88-9.11A26,26,0,0,1,24.38,15m0-1.88C9.38,13.12,0,24.37,0,30S9.38,46.87,24.38,46.87,48.75,35.62,48.75,30,39.38,13.12,24.38,13.12Z"/>
      <path class="cls-3" d="M31.76,28.72A7.71,7.71,0,0,1,31.88,30a7.5,7.5,0,1,1-7.5-7.5,7.81,7.81,0,0,1,1.28.12A4.63,4.63,0,0,1,26.81,21a9.35,9.35,0,1,0,6.62,6.61A4.65,4.65,0,0,1,31.76,28.72Z"/>
      <path class="cls-4" d="M30,21.56a2.82,2.82,0,1,1-2.81,2.81A2.81,2.81,0,0,1,30,21.56m0-1.87a4.69,4.69,0,1,0,4.69,4.68A4.69,4.69,0,0,0,30,19.69Z"/>
    </g>
  </g>
</svg>
