<svg id="Warstwa_1" data-name="Warstwa 1" xmlns="http://www.w3.org/2000/svg" xmlns:xlink="http://www.w3.org/1999/xlink" viewBox="0 0 60 60">
  <defs>
    <style>
      .cls-1 {
        fill: none;
      }

      .cls-2 {
        clip-path: url(#clip-path);
      }

      .cls-3 {
        fill: #051344;
      }

      .cls-4 {
        fill: #fdad31;
      }
    </style>
    <clipPath id="clip-path">
      <rect class="cls-1" width="60" height="60"/>
    </clipPath>
  </defs>
  <g class="cls-2">
    <g>
      <path class="cls-3" d="M40.32,34.69a4.68,4.68,0,0,1-1.48-.24,18.75,18.75,0,1,1,0-8.9,4.68,4.68,0,0,1,1.48-.24h.4a20.63,20.63,0,1,0,0,9.34A1.81,1.81,0,0,1,40.32,34.69Z"/>
      <path class="cls-4" d="M40.32,27.19A2.81,2.81,0,1,1,37.51,30a2.81,2.81,0,0,1,2.81-2.81h0m0-1.88A4.69,4.69,0,1,0,45,30h0A4.69,4.69,0,0,0,40.32,25.31Z"/>
      <path class="cls-4" d="M29.07,27.19A2.81,2.81,0,1,1,26.26,30a2.81,2.81,0,0,1,2.81-2.81h0m0-1.88A4.69,4.69,0,1,0,33.76,30h0A4.69,4.69,0,0,0,29.07,25.31Z"/>
      <path class="cls-4" d="M17.82,27.19A2.81,2.81,0,1,1,15,30a2.81,2.81,0,0,1,2.81-2.81h0m0-1.88A4.69,4.69,0,1,0,22.51,30h0A4.69,4.69,0,0,0,17.82,25.31Z"/>
    </g>
  </g>
</svg>
