<svg id="Warstwa_1" data-name="Warstwa 1" xmlns="http://www.w3.org/2000/svg" xmlns:xlink="http://www.w3.org/1999/xlink" viewBox="0 0 60 60">
  <defs>
    <style>
      .cls-1 {
        fill: none;
      }

      .cls-2 {
        clip-path: url(#clip-path);
      }

      .cls-3 {
        fill: #051344;
      }

      .cls-4 {
        fill: #fdad31;
      }
    </style>
    <clipPath id="clip-path">
      <rect class="cls-1" width="60" height="60"/>
    </clipPath>
  </defs>
  <g class="cls-2">
    <g>
      <path class="cls-3" d="M47.31,22.81,34.88,21.1a3.55,3.55,0,0,1,0,.46,4.61,4.61,0,0,1-.22,1.4l8.54,1.18-9.89,9.51,2.41,13.5L23.66,40.68l-12.1,6.47L14,33.65,4.09,24.14l13.59-1.88,6-12.34,3.8,7.86A4.59,4.59,0,0,1,29.17,17L23.66,5.62,16.43,20.54,0,22.81,12,34.3,9,50.62,23.66,42.8l14.62,7.82L35.36,34.3Z"/>
      <path class="cls-4" d="M30.22,18.75a2.82,2.82,0,1,1-2.81,2.81,2.81,2.81,0,0,1,2.81-2.81m0-1.87a4.69,4.69,0,1,0,4.69,4.68,4.68,4.68,0,0,0-4.69-4.68Z"/>
    </g>
  </g>
</svg>
