<svg id="Warstwa_1" data-name="Warstwa 1" xmlns="http://www.w3.org/2000/svg" xmlns:xlink="http://www.w3.org/1999/xlink" viewBox="0 0 60 60">
  <defs>
    <style>
      .cls-1 {
        fill: none;
      }

      .cls-2 {
        clip-path: url(#clip-path);
      }

      .cls-3 {
        fill: #fdad31;
      }

      .cls-4 {
        fill: #051344;
      }
    </style>
    <clipPath id="clip-path">
      <rect class="cls-1" width="60" height="60"/>
    </clipPath>
  </defs>
  <g class="cls-2">
    <g>
      <path class="cls-3" d="M4.69,13.73a2.82,2.82,0,1,1-2.81,2.81,2.81,2.81,0,0,1,2.81-2.81m0-1.87a4.69,4.69,0,1,0,4.69,4.68,4.68,4.68,0,0,0-4.69-4.68Z"/>
      <path class="cls-3" d="M4.69,26.86a2.81,2.81,0,1,1-2.81,2.81,2.81,2.81,0,0,1,2.81-2.81m0-1.88a4.69,4.69,0,1,0,4.69,4.69A4.69,4.69,0,0,0,4.69,25Z"/>
      <path class="cls-3" d="M4.69,40a2.82,2.82,0,1,1-2.81,2.81A2.81,2.81,0,0,1,4.69,40m0-1.87a4.69,4.69,0,1,0,4.69,4.68,4.68,4.68,0,0,0-4.69-4.68Z"/>
      <path class="cls-3" d="M17.81,13.73A2.82,2.82,0,1,1,15,16.54a2.81,2.81,0,0,1,2.81-2.81m0-1.87a4.69,4.69,0,1,0,4.69,4.68,4.68,4.68,0,0,0-4.69-4.68Z"/>
      <path class="cls-3" d="M30.94,13.73a2.82,2.82,0,1,1-2.82,2.81,2.81,2.81,0,0,1,2.82-2.81m0-1.87a4.69,4.69,0,1,0,4.68,4.68,4.68,4.68,0,0,0-4.68-4.68Z"/>
      <path class="cls-4" d="M29.76,40.29h0a9.47,9.47,0,1,0-1.33,1.32h0L35,48.14l1.33-1.32ZM22.5,41.86a7.5,7.5,0,1,1,7.5-7.5A7.51,7.51,0,0,1,22.5,41.86Z"/>
    </g>
  </g>
</svg>
