<svg width="46" height="46" viewBox="0 0 46 46" fill="none" xmlns="http://www.w3.org/2000/svg">
<path d="M33.5525 17.2737C33.4512 17.285 33.35 17.3075 33.2375 17.3075C32.8212 17.3075 32.4387 17.2287 32.0675 17.105C31.0212 20.1537 28.175 22.2575 24.89 22.28H23.7762H21.9987C17.96 22.28 14.4387 24.9575 13.3137 28.7825C13.4262 28.7712 13.5387 28.7487 13.6512 28.7487C13.6625 28.7487 13.6625 28.7487 13.6737 28.7487C14.0787 28.7487 14.45 28.8275 14.81 28.9512C15.845 25.8912 18.7025 23.7762 21.9987 23.765L23.1012 23.72H24.89C28.9062 23.7087 32.405 21.065 33.5525 17.2737Z" fill="#051344"/>
<path d="M32.0674 30.92L35.6224 27.365L34.5874 26.3412L31.0324 29.8962L27.4549 26.3187L26.4424 27.3312L30.0199 30.9087L26.4649 34.4637L27.4886 35.4987L31.0436 31.9325L34.6211 35.5212L35.6449 34.4975L32.0674 30.92Z" fill="#051344"/>
<path d="M18.7024 19.6925L19.7262 18.68L16.1487 15.1025L19.7037 11.5475L18.6687 10.5125L15.1137 14.0675L11.5362 10.49L10.5237 11.5137L14.1012 15.0912L10.5462 18.6462L11.5699 19.67L15.1249 16.115L18.7024 19.6925Z" fill="#051344"/>
<path d="M14.8101 28.9513C14.4501 28.8275 14.0676 28.7488 13.6738 28.7488C13.6626 28.7488 13.6626 28.7488 13.6513 28.7488C13.5388 28.7488 13.4263 28.7713 13.3138 28.7825C11.4801 28.9738 10.0401 30.5038 10.0513 32.3938C10.0626 34.3963 11.6938 36.005 13.6963 35.9938C15.6988 35.9825 17.3076 34.3513 17.2963 32.3488C17.2963 30.7513 16.2501 29.4238 14.8101 28.9513ZM13.7188 34.4975C12.5376 34.5088 11.5588 33.5525 11.5476 32.3713C11.5363 31.19 12.4926 30.2113 13.6738 30.2C13.6851 30.2 13.6851 30.2 13.6963 30.2C14.8776 30.2 15.8451 31.1675 15.8451 32.3488C15.8451 33.53 14.9001 34.4863 13.7188 34.4975Z" fill="#FDAD31"/>
<path d="M33.2038 10.0625C33.1925 10.0625 33.1813 10.0625 33.17 10.0625C31.1675 10.085 29.5588 11.7162 29.5813 13.7187C29.5925 15.305 30.6388 16.6325 32.0675 17.105C32.4388 17.2287 32.8213 17.3075 33.2375 17.3075C33.35 17.3075 33.44 17.285 33.5525 17.2737C35.3975 17.0937 36.8488 15.5412 36.8263 13.6512C36.815 11.66 35.195 10.0512 33.2038 10.0625ZM33.2488 15.8112C32.0675 15.8225 31.0888 14.8662 31.0775 13.685C31.0663 12.5037 32.0225 11.525 33.2038 11.5137C34.3963 11.5025 35.3638 12.4587 35.375 13.6512C35.3863 14.8325 34.43 15.8 33.2488 15.8112Z" fill="#FDAD31"/>
</svg>
