<svg width="46" height="46" viewBox="0 0 46 46" fill="none" xmlns="http://www.w3.org/2000/svg">
<g clip-path="url(#clip0_85_29)">
<path d="M42.1361 15.0463C41.4611 14.3713 40.5499 14 39.5936 14C38.6374 14 37.7149 14.3825 37.0399 15.0575C37.0174 15.08 37.0061 15.1025 36.9949 15.1137C36.2074 15.935 35.8924 17.0375 36.0386 18.095C36.1399 18.8488 36.4661 19.5687 37.0511 20.1425C37.6136 20.6937 38.3336 21.0312 39.1099 21.1437C39.2786 21.1662 39.4361 21.1887 39.6049 21.1887L39.5936 21.1775C40.5499 21.1775 41.4611 20.8063 42.1361 20.1313C42.1474 20.12 42.1586 20.0975 42.1811 20.0862C43.5311 18.68 43.5199 16.4413 42.1361 15.0463ZM41.1349 19.13C40.7186 19.5237 40.1674 19.7488 39.5936 19.76C39.0199 19.76 38.4686 19.535 38.0636 19.13C38.0524 19.1187 38.0299 19.0963 38.0186 19.085C37.2086 18.2413 37.2311 16.9025 38.0636 16.0925C38.4686 15.6762 39.0199 15.4512 39.5936 15.4512C40.1674 15.4512 40.7299 15.6762 41.1349 16.0925C41.9674 16.9362 41.9786 18.2862 41.1349 19.13Z" fill="#FDAD31"/>
<path d="M25.4975 10.0625H21.155V11.5025H25.4975V10.0625Z" fill="#051344"/>
<path d="M30.5487 13.6512H31.9999V11.5025V10.0625H30.5487H28.3887V11.5025H30.5487V13.6512Z" fill="#051344"/>
<path d="M32.0001 16.5312H30.5488V19.4112H32.0001V16.5312Z" fill="#051344"/>
<path d="M23.3262 29.4688C22.5275 29.4688 21.8862 30.11 21.8862 30.9088C21.8862 31.7075 22.5275 32.3488 23.3262 32.3488C24.125 32.3488 24.7662 31.7075 24.7662 30.9088C24.7662 30.11 24.125 29.4688 23.3262 29.4688Z" fill="#051344"/>
<path d="M42.1701 20.0863C42.1589 20.0975 42.1476 20.12 42.1251 20.1313C41.4501 20.8063 40.5276 21.1887 39.5826 21.1775L39.5939 21.1887C39.4251 21.1887 39.2676 21.1663 39.0989 21.1438L31.4489 28.7375H28.3776V25.7L36.0276 18.095C35.8814 17.0375 36.1964 15.935 36.9839 15.1137L26.9376 25.0925V30.1775H30.5489V34.4862H16.0926V11.5025H18.2526V10.0625H14.6414V10.7825V11.5025V35.9375H32.0001V30.1887H32.0451L42.1926 20.1088L42.1701 20.0863Z" fill="#051344"/>
</g>
<defs>
<clipPath id="clip0_85_29">
<rect width="45" height="45" fill="white" transform="translate(0.5 0.5)"/>
</clipPath>
</defs>
</svg>
