<svg width="30" height="22" viewBox="0 0 30 22" fill="none" xmlns="http://www.w3.org/2000/svg">
<path d="M3.0625 3.6875C3.39626 3.6875 3.72252 3.78647 4.00003 3.97189C4.27753 4.15732 4.49383 4.42087 4.62155 4.72922C4.74927 5.03757 4.78269 5.37687 4.71758 5.70421C4.65246 6.03156 4.49175 6.33224 4.25574 6.56824C4.01974 6.80424 3.71906 6.96496 3.39172 7.03008C3.06437 7.09519 2.72507 7.06177 2.41672 6.93405C2.10837 6.80632 1.84482 6.59003 1.6594 6.31253C1.47397 6.03502 1.375 5.70876 1.375 5.375C1.375 4.92745 1.55279 4.49822 1.86926 4.18176C2.18573 3.86529 2.61495 3.6875 3.0625 3.6875V3.6875ZM3.0625 2.5625C2.50624 2.5625 1.96247 2.72745 1.49996 3.03649C1.03745 3.34553 0.676962 3.78479 0.46409 4.2987C0.251219 4.81262 0.195522 5.37812 0.304043 5.92369C0.412564 6.46926 0.680428 6.9704 1.07376 7.36374C1.4671 7.75707 1.96824 8.02494 2.51381 8.13346C3.05938 8.24198 3.62488 8.18628 4.1388 7.97341C4.65272 7.76054 5.09197 7.40006 5.40101 6.93754C5.71005 6.47503 5.875 5.93126 5.875 5.375C5.875 5.00566 5.80225 4.63993 5.66091 4.2987C5.51957 3.95747 5.3124 3.64743 5.05124 3.38626C4.79007 3.1251 4.48003 2.91793 4.1388 2.77659C3.79757 2.63525 3.43184 2.5625 3.0625 2.5625V2.5625Z" fill="#FDAD31"/>
<path d="M29.5 20.5625H2.5V21.6875H29.5V20.5625Z" fill="#051344"/>
<path d="M2.5 0.3125V2.61875C2.87125 2.54378 3.25375 2.54378 3.625 2.61875V1.4375H28.375V17.1875H3.625V8.13125C3.25375 8.20622 2.87125 8.20622 2.5 8.13125V18.3125H29.5V0.3125H2.5Z" fill="#051344"/>
<path d="M13.75 4.8125L10.0465 8.516L9.25 9.3125L13.75 13.8125L14.5465 13.016L10.8408 9.3125L14.5465 5.609L13.75 4.8125Z" fill="#051344"/>
<path d="M18.25 13.8125L22.75 9.3125L21.9535 8.516L18.25 4.8125L17.4535 5.609L21.1592 9.3125L17.4535 13.016L18.25 13.8125Z" fill="#051344"/>
</svg>
