<svg width="28" height="26" viewBox="0 0 28 26" fill="none" xmlns="http://www.w3.org/2000/svg">
<path d="M21.3125 1.75C21.6463 1.75 21.9725 1.84897 22.25 2.03439C22.5275 2.21982 22.7438 2.48337 22.8716 2.79172C22.9993 3.10007 23.0327 3.43937 22.9676 3.76671C22.9025 4.09406 22.7417 4.39474 22.5057 4.63074C22.2697 4.86674 21.9691 5.02746 21.6417 5.09258C21.3144 5.15769 20.9751 5.12427 20.6667 4.99655C20.3584 4.86882 20.0948 4.65253 19.9094 4.37503C19.724 4.09752 19.625 3.77126 19.625 3.4375C19.625 2.98995 19.8028 2.56072 20.1193 2.24426C20.4357 1.92779 20.865 1.75 21.3125 1.75ZM21.3125 0.625C20.7562 0.625 20.2125 0.78995 19.75 1.09899C19.2874 1.40803 18.927 1.84729 18.7141 2.3612C18.5012 2.87512 18.4455 3.44062 18.554 3.98619C18.6626 4.53176 18.9304 5.0329 19.3238 5.42624C19.7171 5.81957 20.2182 6.08744 20.7638 6.19596C21.3094 6.30448 21.8749 6.24878 22.3888 6.03591C22.9027 5.82304 23.342 5.46255 23.651 5.00004C23.9601 4.53753 24.125 3.99376 24.125 3.4375C24.125 2.69158 23.8287 1.97621 23.3012 1.44876C22.7738 0.921316 22.0584 0.625 21.3125 0.625Z" fill="#FDAD31"/>
<path d="M6.6875 1.75C7.02126 1.75 7.34752 1.84897 7.62503 2.03439C7.90253 2.21982 8.11882 2.48337 8.24655 2.79172C8.37427 3.10007 8.40769 3.43937 8.34258 3.76671C8.27746 4.09406 8.11675 4.39474 7.88074 4.63074C7.64474 4.86674 7.34406 5.02746 7.01672 5.09258C6.68937 5.15769 6.35007 5.12427 6.04172 4.99655C5.73337 4.86882 5.46982 4.65253 5.2844 4.37503C5.09897 4.09752 5 3.77126 5 3.4375C5 2.98995 5.17779 2.56072 5.49426 2.24426C5.81073 1.92779 6.23995 1.75 6.6875 1.75ZM6.6875 0.625C6.13124 0.625 5.58747 0.78995 5.12496 1.09899C4.66245 1.40803 4.30196 1.84729 4.08909 2.3612C3.87622 2.87512 3.82052 3.44062 3.92904 3.98619C4.03756 4.53176 4.30543 5.0329 4.69876 5.42624C5.0921 5.81957 5.59324 6.08744 6.13881 6.19596C6.68438 6.30448 7.24988 6.24878 7.7638 6.03591C8.27772 5.82304 8.71697 5.46255 9.02601 5.00004C9.33505 4.53753 9.5 3.99376 9.5 3.4375C9.5 2.69158 9.20369 1.97621 8.67624 1.44876C8.14879 0.921316 7.43342 0.625 6.6875 0.625Z" fill="#FDAD31"/>
<path d="M14 1.75C14.3338 1.75 14.66 1.84897 14.9375 2.03439C15.215 2.21982 15.4313 2.48337 15.559 2.79172C15.6868 3.10007 15.7202 3.43937 15.6551 3.76671C15.59 4.09406 15.4292 4.39474 15.1932 4.63074C14.9572 4.86674 14.6566 5.02746 14.3292 5.09258C14.0019 5.15769 13.6626 5.12427 13.3542 4.99655C13.0459 4.86882 12.7823 4.65253 12.5969 4.37503C12.4115 4.09752 12.3125 3.77126 12.3125 3.4375C12.3125 2.98995 12.4903 2.56072 12.8068 2.24426C13.1232 1.92779 13.5524 1.75 14 1.75ZM14 0.625C13.4437 0.625 12.9 0.78995 12.4375 1.09899C11.9749 1.40803 11.6145 1.84729 11.4016 2.3612C11.1887 2.87512 11.133 3.44062 11.2415 3.98619C11.3501 4.53176 11.6179 5.0329 12.0113 5.42624C12.4046 5.81957 12.9057 6.08744 13.4513 6.19596C13.9969 6.30448 14.5624 6.24878 15.0763 6.03591C15.5902 5.82304 16.0295 5.46255 16.3385 5.00004C16.6476 4.53753 16.8125 3.99376 16.8125 3.4375C16.8125 2.69158 16.5162 1.97621 15.9887 1.44876C15.4613 0.921316 14.7459 0.625 14 0.625Z" fill="#FDAD31"/>
<path d="M19.598 16.375C19.9318 16.375 20.258 16.474 20.5355 16.6594C20.813 16.8448 21.0293 17.1084 21.157 17.4167C21.2848 17.7251 21.3182 18.0644 21.2531 18.3917C21.188 18.7191 21.0272 19.0197 20.7912 19.2557C20.5552 19.4917 20.2546 19.6525 19.9272 19.7176C19.5999 19.7827 19.2606 19.7493 18.9522 19.6215C18.6439 19.4938 18.3803 19.2775 18.1949 19C18.0095 18.7225 17.9105 18.3963 17.9105 18.0625C17.9111 17.6151 18.0891 17.1863 18.4054 16.8699C18.7217 16.5536 19.1506 16.3756 19.598 16.375ZM19.598 15.25C19.0417 15.25 18.498 15.4149 18.0355 15.724C17.5729 16.033 17.2125 16.4723 16.9996 16.9862C16.7867 17.5001 16.731 18.0656 16.8395 18.6112C16.9481 19.1568 17.2159 19.6579 17.6093 20.0512C18.0026 20.4446 18.5037 20.7124 19.0493 20.821C19.5949 20.9295 20.1604 20.8738 20.6743 20.6609C21.1882 20.448 21.6275 20.0876 21.9365 19.625C22.2455 19.1625 22.4105 18.6188 22.4105 18.0625C22.4105 17.3166 22.1142 16.6012 21.5867 16.0738C21.0593 15.5463 20.3439 15.25 19.598 15.25Z" fill="#FDAD31"/>
<path d="M21.3125 7.37502C19.9972 7.37333 18.7159 7.7928 17.6562 8.57202C16.5958 7.7944 15.315 7.37514 14 7.37514C12.685 7.37514 11.4042 7.7944 10.3437 8.57202C9.42182 7.89573 8.33048 7.48821 7.19093 7.39473C6.05137 7.30125 4.90821 7.52547 3.8884 8.04249C2.86858 8.55951 2.01204 9.34908 1.41389 10.3235C0.815741 11.298 0.499401 12.4191 0.500001 13.5625V23.125H7.8125V25.375H20.1875V23.125H27.5V13.5625C27.5 11.9215 26.8481 10.3477 25.6877 9.1873C24.5273 8.02692 22.9535 7.37502 21.3125 7.37502ZM7.8125 22H1.625V13.5625C1.62408 12.6477 1.87128 11.7498 2.34026 10.9644C2.80924 10.179 3.48244 9.53544 4.2882 9.10232C5.09395 8.66919 6.00209 8.4627 6.9159 8.50482C7.82972 8.54695 8.71501 8.83611 9.4775 9.34152C8.40587 10.4856 7.81048 11.995 7.8125 13.5625V22ZM26.375 22H20.1875V20.812C19.9937 20.8536 19.7962 20.8747 19.598 20.875C19.4182 20.8751 19.2389 20.8577 19.0625 20.8233V24.25H8.9375V13.5625C8.9375 12.2199 9.47087 10.9322 10.4203 9.98279C11.3697 9.03339 12.6573 8.50002 14 8.50002C15.3427 8.50002 16.6303 9.03339 17.5797 9.98279C18.5291 10.9322 19.0625 12.2199 19.0625 13.5625V15.3018C19.2389 15.2673 19.4182 15.25 19.598 15.25C19.7962 15.2503 19.9937 15.2715 20.1875 15.313V13.5625C20.1895 11.995 19.5941 10.4856 18.5225 9.34152C19.285 8.83611 20.1703 8.54695 21.0841 8.50482C21.9979 8.4627 22.906 8.66919 23.7118 9.10232C24.5176 9.53544 25.1908 10.179 25.6597 10.9644C26.1287 11.7498 26.3759 12.6477 26.375 13.5625V22Z" fill="#051344"/>
</svg>
