<svg width="28" height="28" viewBox="0 0 28 28" fill="none" xmlns="http://www.w3.org/2000/svg">
<path d="M25.25 15.125C25.2503 16.1911 25.0988 17.2517 24.8 18.275C25.0944 18.337 25.3775 18.444 25.6393 18.5923C25.709 18.635 25.7765 18.68 25.8418 18.725C26.3347 17.1035 26.4892 15.398 26.2959 13.7143C26.1026 12.0305 25.5654 10.4045 24.7178 8.93686C23.8702 7.46925 22.7302 6.19139 21.3684 5.1825C20.0066 4.17361 18.4521 3.45519 16.8013 3.07178C16.8013 3.15053 16.8013 3.23153 16.8013 3.31253C16.8012 3.61311 16.7526 3.91171 16.6573 4.19678C19.1051 4.79546 21.2817 6.19725 22.8393 8.17822C24.3969 10.1592 25.2457 12.605 25.25 15.125Z" fill="#051344"/>
<path d="M2.36302 18.5945C2.62396 18.4457 2.90627 18.3379 3.20002 18.275C2.77471 16.8165 2.64923 15.287 2.83114 13.7786C3.01305 12.2703 3.49858 10.8145 4.25844 9.49889C5.01831 8.18332 6.03677 7.03528 7.2524 6.12402C8.46802 5.21276 9.85563 4.55717 11.3315 4.19678C11.2362 3.91171 11.1876 3.61311 11.1875 3.31253C11.1875 3.23153 11.1875 3.15053 11.1875 3.07178C9.53788 3.45672 7.98483 4.17625 6.62457 5.1858C5.26431 6.19535 4.1258 7.47342 3.27955 8.94086C2.4333 10.4083 1.89733 12.0338 1.70485 13.7168C1.51236 15.3998 1.66745 17.1044 2.16052 18.725C2.22577 18.6823 2.30002 18.6373 2.36302 18.5945Z" fill="#051344"/>
<path d="M22.8245 23.468C22.5624 23.315 22.3262 23.1214 22.1248 22.8943C21.0766 23.9942 19.8161 24.8698 18.4195 25.4681C17.0229 26.0664 15.5194 26.3749 14 26.3749C12.4807 26.3749 10.9771 26.0664 9.58056 25.4681C8.18398 24.8698 6.92341 23.9942 5.87527 22.8943C5.67387 23.1214 5.43768 23.315 5.17552 23.468C5.10577 23.5063 5.03602 23.5423 4.96402 23.576C6.12162 24.8132 7.52093 25.7994 9.07524 26.4736C10.6296 27.1479 12.3058 27.4958 14 27.4958C15.6943 27.4958 17.3705 27.1479 18.9248 26.4736C20.4791 25.7994 21.8784 24.8132 23.036 23.576C22.964 23.5423 22.8943 23.5063 22.8245 23.468Z" fill="#051344"/>
<path d="M14 1.625C14.3338 1.625 14.66 1.72397 14.9375 1.90939C15.215 2.09482 15.4313 2.35837 15.559 2.66672C15.6868 2.97507 15.7202 3.31437 15.6551 3.64171C15.59 3.96906 15.4292 4.26974 15.1932 4.50574C14.9572 4.74174 14.6566 4.90246 14.3292 4.96758C14.0019 5.03269 13.6626 4.99927 13.3542 4.87155C13.0459 4.74382 12.7823 4.52753 12.5969 4.25003C12.4115 3.97252 12.3125 3.64626 12.3125 3.3125C12.3125 2.86495 12.4903 2.43572 12.8068 2.11926C13.1232 1.80279 13.5524 1.625 14 1.625ZM14 0.5C13.4437 0.5 12.9 0.66495 12.4375 0.973992C11.9749 1.28303 11.6145 1.72229 11.4016 2.2362C11.1887 2.75012 11.133 3.31562 11.2415 3.86119C11.3501 4.40676 11.6179 4.9079 12.0113 5.30124C12.4046 5.69457 12.9057 5.96244 13.4513 6.07096C13.9969 6.17948 14.5624 6.12378 15.0763 5.91091C15.5902 5.69804 16.0295 5.33755 16.3385 4.87504C16.6476 4.41253 16.8125 3.86876 16.8125 3.3125C16.8125 2.56658 16.5162 1.85121 15.9887 1.32376C15.4613 0.796316 14.7459 0.5 14 0.5Z" fill="#FDAD31"/>
<path d="M3.76701 19.3438C4.06299 19.3447 4.3535 19.4235 4.6094 19.5723C4.8653 19.721 5.07757 19.9344 5.22493 20.1911C5.37228 20.4478 5.44953 20.7387 5.44892 21.0347C5.44831 21.3307 5.36986 21.6213 5.22144 21.8774C5.07303 22.1335 4.85987 22.346 4.60336 22.4937C4.34685 22.6414 4.05601 22.719 3.76003 22.7187C3.46405 22.7185 3.17334 22.6404 2.91707 22.4923C2.66081 22.3442 2.448 22.1313 2.30001 21.875C2.0764 21.4873 2.01573 21.0267 2.13131 20.5944C2.24689 20.162 2.52928 19.7932 2.91651 19.5688C3.17284 19.4223 3.46277 19.3448 3.75801 19.3438H3.76701ZM3.75801 18.2188C3.13941 18.2215 2.53897 18.428 2.04964 18.8065C1.56031 19.1849 1.20941 19.7142 1.05126 20.3122C0.893112 20.9102 0.936543 21.5437 1.17483 22.1146C1.41311 22.6855 1.83296 23.1618 2.36936 23.47C2.90575 23.7781 3.52877 23.9008 4.14195 23.8191C4.75513 23.7373 5.32425 23.4557 5.76119 23.0178C6.19813 22.5799 6.47852 22.0102 6.55893 21.3968C6.63935 20.7835 6.5153 20.1607 6.20601 19.625C5.9587 19.1971 5.6031 18.8419 5.17496 18.595C4.74681 18.3482 4.26122 18.2184 3.76701 18.2188H3.75801Z" fill="#FDAD31"/>
<path d="M24.233 19.3438C24.5283 19.3448 24.8182 19.4223 25.0745 19.5688C25.4306 19.7734 25.7001 20.1006 25.8328 20.4893C25.9654 20.878 25.9522 21.3016 25.7955 21.6813C25.6388 22.0609 25.3493 22.3706 24.9812 22.5526C24.613 22.7346 24.1912 22.7764 23.7944 22.6703C23.3976 22.5642 23.053 22.3175 22.8248 21.976C22.5965 21.6346 22.5003 21.2217 22.554 20.8146C22.6077 20.4074 22.8076 20.0336 23.1166 19.763C23.4255 19.4924 23.8223 19.3434 24.233 19.3438ZM24.233 18.2188C23.5512 18.2188 22.8926 18.4667 22.38 18.9164C21.8674 19.366 21.5358 19.9867 21.4469 20.6627C21.358 21.3387 21.518 22.024 21.8969 22.5909C22.2759 23.1577 22.848 23.5674 23.5067 23.7437C24.1653 23.92 24.8656 23.8508 25.477 23.549C26.0885 23.2472 26.5693 22.7334 26.83 22.1034C27.0907 21.4733 27.1134 20.77 26.8939 20.1244C26.6744 19.4789 26.2277 18.9351 25.637 18.5945C25.21 18.3484 24.7259 18.2188 24.233 18.2188Z" fill="#FDAD31"/>
</svg>
