<svg width="28" height="20" viewBox="0 0 28 20" fill="none" xmlns="http://www.w3.org/2000/svg">
<path d="M26.375 1.5625V18.4375H1.625V1.5625H26.375ZM27.5 0.4375H0.5V19.5625H27.5V0.4375Z" fill="#051344"/>
<path d="M18.9658 8.17529L16.8125 10.3285L15.125 8.65004L9.50001 14.275L7.25001 12.025L4.20126 15.0648L5.00001 15.8613L7.25001 13.6L9.50001 15.85L15.125 10.225L16.8125 11.9125L19.7623 8.96279C19.4474 8.75545 19.1767 8.48781 18.9658 8.17529Z" fill="#051344"/>
<path d="M21.3125 4.9375C21.6463 4.9375 21.9725 5.03647 22.25 5.22189C22.5275 5.40732 22.7438 5.67087 22.8715 5.97922C22.9993 6.28757 23.0327 6.62687 22.9676 6.95422C22.9025 7.28156 22.7417 7.58224 22.5057 7.81824C22.2697 8.05424 21.9691 8.21496 21.6417 8.28008C21.3144 8.34519 20.9751 8.31177 20.6667 8.18405C20.3584 8.05632 20.0948 7.84003 19.9094 7.56253C19.724 7.28502 19.625 6.95876 19.625 6.625C19.625 6.17745 19.8028 5.74822 20.1193 5.43176C20.4357 5.11529 20.8649 4.9375 21.3125 4.9375ZM21.3125 3.8125C20.7562 3.8125 20.2125 3.97745 19.75 4.28649C19.2874 4.59553 18.927 5.03479 18.7141 5.5487C18.5012 6.06262 18.4455 6.62812 18.554 7.17369C18.6626 7.71926 18.9304 8.2204 19.3238 8.61374C19.7171 9.00707 20.2182 9.27494 20.7638 9.38346C21.3094 9.49198 21.8749 9.43628 22.3888 9.22341C22.9027 9.01054 23.342 8.65005 23.651 8.18754C23.9601 7.72503 24.125 7.18126 24.125 6.625C24.125 5.87908 23.8287 5.16371 23.3012 4.63626C22.7738 4.10882 22.0584 3.8125 21.3125 3.8125Z" fill="#FDAD31"/>
</svg>
