<svg width="46" height="46" viewBox="0 0 46 46" fill="none" xmlns="http://www.w3.org/2000/svg">
<path d="M37.4674 13.82C37.7149 13.82 37.9512 13.8425 38.1874 13.8875V10.2087H7.09242V16.6775H4.20117V35.375H16.4862V32.5062H38.1874V31.0662H16.4862V29.6262H38.1874V20.93C37.9512 20.975 37.7149 20.9975 37.4674 20.9975C37.2199 20.9975 36.9724 20.975 36.7362 20.9187V28.1862H16.4862V16.6775H8.53242V11.66H36.7362V13.8987C36.9724 13.8425 37.2199 13.82 37.4674 13.82ZM15.0462 18.185V33.935H5.64117V18.185H15.0462Z" fill="#051344"/>
<path d="M36.7362 13.8988C35.0937 14.2363 33.8562 15.6763 33.8562 17.4088C33.8562 19.1413 35.0937 20.5925 36.7362 20.9188C36.9724 20.9638 37.22 20.9975 37.4675 20.9975C37.715 20.9975 37.9512 20.975 38.1874 20.93C39.8412 20.6038 41.0787 19.1525 41.0787 17.4088C41.0787 15.6763 39.8412 14.225 38.1874 13.8875C37.9512 13.8425 37.715 13.82 37.4675 13.82C37.22 13.82 36.9724 13.8425 36.7362 13.8988ZM39.6387 17.375C39.6387 17.375 39.6387 17.3863 39.6387 17.375C39.6499 18.5675 38.705 19.5463 37.5125 19.5575C36.3312 19.5688 35.3525 18.6238 35.3412 17.4313C35.33 16.2388 36.275 15.2713 37.4675 15.26C38.6487 15.2488 39.6162 16.1938 39.6387 17.375Z" fill="#FDAD31"/>
</svg>
