<svg xmlns="http://www.w3.org/2000/svg" width="150" height="70" viewBox="0 0 150 70">
    <g fill="none" fill-rule="evenodd">
        <g fill="#FFF">
            <g>
                <g>
                    <g>
                        <path d="M13.224 0C5.92 0 0 5.915 0 13.203c0 7.289 5.921 13.198 13.224 13.198 7.295 0 13.214-5.91 13.214-13.198S20.518 0 13.224 0m0 25.592C6.36 25.592.812 20.042.812 13.203.812 6.355 6.36.81 13.224.81c6.85 0 12.402 5.546 12.402 12.394 0 6.839-5.552 12.39-12.402 12.39" transform="translate(-219.000000, -168.000000) translate(-2.000000, 80.000000) translate(221.000000, 88.000000) translate(0.697558, 22.387500)"/>
                        <path d="M1.828 13.113c4.513 1.419 8.768 5.814 10.057 11.435-6.344-.825-10.041-6.03-10.057-11.435M24.555 13.113c-4.512 1.419-8.82 5.814-10.056 11.435 6.342-.825 10.043-6.03 10.056-11.435M13.207 24.548c-4.81-7.416-3.772-17.586.004-23.062 3.601 5.476 4.726 15.646-.004 23.062M30.019 1.543L32.927 1.543 32.927 5.514 38.279 5.514 38.279 1.543 41.189 1.543 41.189 11.887 38.279 11.887 38.279 7.426 32.927 7.426 32.927 11.887 30.019 11.887zM43.523 1.543L53.413 1.543 53.413 3.456 46.431 3.456 46.431 5.671 52.839 5.671 52.839 7.44 46.431 7.44 46.431 9.974 53.561 9.974 53.561 11.887 43.523 11.887zM58.21 6.223h3.187c1.314 0 1.999-.435 1.999-1.478 0-.999-.685-1.434-2-1.434H58.21v2.912zm-2.908-4.68h7.132c2.37 0 3.871 1.29 3.871 2.854 0 1.217-.612 2.13-2.093 2.594v.028c1.426.305 1.832 1.363 1.925 2.42.055.653.02 1.884.556 2.448h-2.907c-.334-.65-.316-1.65-.463-2.477-.204-1.087-.74-1.564-2.205-1.564H58.21v4.04h-2.908V1.544zM74.472 10.12c1.132 0 2.15-.29 2.15-1.361 0-1.058-.834-1.479-2.094-1.479h-3.167v2.84h3.11zm-.167-4.39c1.039 0 1.78-.363 1.78-1.231 0-.971-.965-1.188-2.002-1.188h-2.722v2.42h2.944zm-5.852-4.187h6.224c2.519 0 4.223.638 4.223 2.565 0 1.028-.63 1.709-1.798 2.16 1.63.36 2.428 1.331 2.428 2.62 0 2.102-2.278 3-4.668 3h-6.409V1.542zM87.66 7.889l-1.667-3.795h-.036l-1.722 3.795h3.426zm-3.149-6.345h2.983l4.946 10.342h-3.02l-1-2.303h-4.946l-1.036 2.303h-2.945L84.51 1.544zM93.365 1.543L96.274 1.543 96.274 9.974 102.72 9.974 102.72 11.887 93.365 11.887zM103.758 11.886L106.666 11.886 106.666 1.543 103.758 1.543zM108.999 1.543L118.298 1.543 118.298 3.456 111.907 3.456 111.907 5.847 117.445 5.847 117.445 7.614 111.907 7.614 111.907 11.887 108.999 11.887zM119.761 1.543L129.652 1.543 129.652 3.456 122.668 3.456 122.668 5.671 129.077 5.671 129.077 7.44 122.668 7.44 122.668 9.974 129.8 9.974 129.8 11.887 119.761 11.887zM30.018 14.269L32.906 14.269 38.428 21.208 38.465 21.208 38.465 14.269 41.187 14.269 41.187 24.612 38.278 24.612 32.778 17.686 32.74 17.686 32.74 24.612 30.018 24.612zM54.803 20.7c0 2.798-2.111 4.158-5.65 4.158-3.575 0-5.63-1.33-5.63-4.158v-6.43h2.908v6.43c0 1.131.37 2.247 2.722 2.247 2.075 0 2.742-.697 2.742-2.247v-6.43h2.908v6.43zM60.182 16.181L56.219 16.181 56.219 14.268 67.054 14.268 67.054 16.181 63.09 16.181 63.09 24.612 60.182 24.612zM71.41 18.949h3.185c1.315 0 2.002-.435 2.002-1.478 0-1-.687-1.435-2.002-1.435H71.41v2.913zm-2.908-4.68h7.132c2.372 0 3.87 1.289 3.87 2.853 0 1.217-.61 2.13-2.094 2.594v.03c1.427.303 1.835 1.361 1.928 2.417.055.653.018 1.885.555 2.45h-2.908c-.333-.653-.315-1.652-.464-2.478-.203-1.085-.738-1.564-2.203-1.564h-2.909v4.041h-2.907V14.27zM82.245 24.612L85.153 24.612 85.153 14.268 82.245 14.268zM90.822 16.181L86.857 16.181 86.857 14.268 97.694 14.268 97.694 16.181 93.73 16.181 93.73 24.612 90.822 24.612zM99.398 24.612L102.307 24.612 102.307 14.268 99.398 14.268zM110.419 22.947c2.611 0 3.593-1.738 3.593-3.463 0-1.81-.982-3.55-3.593-3.55-2.613 0-3.594 1.74-3.594 3.55 0 1.725.981 3.463 3.594 3.463m0-8.925c4.073 0 6.5 2.39 6.5 5.462 0 2.987-2.427 5.374-6.5 5.374-4.075 0-6.502-2.387-6.502-5.374 0-3.072 2.427-5.462 6.502-5.462M118.626 14.269L121.517 14.269 127.036 21.208 127.073 21.208 127.073 14.269 129.796 14.269 129.796 24.612 126.889 24.612 121.386 17.686 121.349 17.686 121.349 24.612 118.626 24.612z" transform="translate(-219.000000, -168.000000) translate(-2.000000, 80.000000) translate(221.000000, 88.000000) translate(0.697558, 22.387500)"/>
                    </g>
                </g>
            </g>
        </g>
    </g>
</svg>
