<svg xmlns:xlink="http://www.w3.org/1999/xlink" xmlns="http://www.w3.org/2000/svg" width="150" height="70" viewBox="0 0 150 70">
    <g fill="none" fill-rule="evenodd">
        <g fill="#FFF" fill-rule="nonzero">
            <g>
                <g>
                    <path d="M14.989 18.588c.315 0 .615-.07.9-.225l3.283-1.775c.66-.352 1.425-.507 2.19-.423 3.988.437 6.778 1.141 7.602 1.367.165.042.36-.015.465-.141.135-.155.3-.409.435-.775.12-.352.135-.648.12-.86-.015-.168-.135-.323-.315-.365-1.29-.352-7.003-1.803-14.68-1.803-7.678 0-13.39 1.45-14.68 1.803-.18.042-.3.197-.315.366-.015.197 0 .493.12.86.12.365.3.619.434.774.105.126.3.183.465.14.825-.225 3.63-.929 7.603-1.366.765-.084 1.53.07 2.19.423l3.283 1.775c.285.154.6.225.9.225zM9.747 7.954c.165.303.426.504.729.59.303.087.619.044.908-.129.288-.173.481-.446.564-.763.082-.317.04-.648-.124-.95l-2.71-4.91c-.082-.159-.26-.216-.426-.202-.22.014-.523.13-.88.346-.358.216-.605.432-.73.619-.095.144-.123.33-.04.49l2.709 4.91zm-2.64 3.475c.303.165.649.193.951.124.317-.083.591-.276.764-.565.173-.289.202-.62.13-.909-.072-.289-.288-.564-.591-.73L3.446 6.638c-.158-.083-.346-.055-.49.041-.187.124-.403.372-.62.73-.216.358-.331.66-.345.881-.015.18.057.344.201.427l4.915 2.713zm8.882-5.182c0 .37-.173.709-.431.956-.276.246-.638.385-1.07.385-.413 0-.792-.154-1.068-.385-.276-.247-.431-.57-.431-.956V.189c0-.2.138-.354.345-.432.241-.107.638-.17 1.155-.17s.914.063 1.155.17c.19.093.345.232.345.432v6.058zm4.242 1.707c-.165.303-.427.504-.73.59-.302.087-.618.044-.907-.129-.289-.173-.481-.446-.564-.763-.082-.317-.041-.648.124-.95l2.71-4.91c.082-.159.26-.216.426-.202.22.014.522.13.88.346.357.216.605.432.729.619.096.144.123.33.04.49l-2.708 4.91zm2.64 3.475c-.303.165-.65.193-.952.124-.317-.083-.59-.276-.764-.565-.173-.289-.201-.62-.13-.909.087-.303.289-.564.592-.73l4.914-2.712c.159-.083.346-.055.49.041.188.124.404.372.62.73.216.358.332.66.346.881.014.18-.058.344-.202.427L22.87 11.43zm32.34-3.841h2.567c.094 0 .172.059.219.133l2.55 6.18 2.474-6.18c.031-.089.125-.133.219-.133h2.52c.172 0 .281.163.203.296l-6.26 13.57c-.031.075-.125.134-.204.134h-2.222c-.157 0-.282-.163-.203-.296l2.144-4.745-4.195-8.663c-.094-.133.016-.296.188-.296zm37.055 1.559V8c0-.118.109-.22.233-.22h2.256c.125 0 .234.102.234.22v9.161c0 .118-.11.221-.234.221H92.5c-.124 0-.233-.103-.233-.22v-1.206c-.482.705-1.54 1.632-3.267 1.632-3.299 0-5.01-2.382-5.01-5.044 0-3.47 2.551-4.956 4.932-4.956 1.571-.015 2.66.691 3.345 1.559zm-5.277 3.418c0 1.71.953 3.023 2.486 3.023 1.533 0 2.514-1.145 2.514-2.9 0-1.757-.953-3.1-2.583-3.1-1.533 0-2.417 1.313-2.417 2.977zm10 4.798V8.008c0-.12.102-.225.218-.225h2.108c.116 0 .218.105.218.225v1.277c.495-.886 1.425-1.697 3.01-1.697 1.628 0 3.446.826 3.446 4.625v5.15c0 .12-.102.225-.218.225h-2.109c-.116 0-.218-.105-.218-.225v-5.105c0-.916-.218-2.493-1.788-2.493s-2.123 1.427-2.123 2.748v4.85c0 .12-.102.225-.218.225h-2.108c-.131-.015-.218-.105-.218-.225zm11 0V8.008c0-.12.102-.225.218-.225h2.108c.116 0 .218.105.218.225v1.277c.495-.886 1.425-1.697 3.01-1.697 1.628 0 3.446.826 3.446 4.625v5.15c0 .12-.102.225-.218.225h-2.109c-.116 0-.218-.105-.218-.225v-5.105c0-.916-.218-2.493-1.788-2.493s-2.123 1.427-2.123 2.748v4.85c0 .12-.102.225-.218.225h-2.108c-.116-.015-.218-.105-.218-.225zm22.24-9.577h2.109c.12 0 .224.106.224.226v1.936c.42-1.921 2.065-2.582 3.262-2.297.105.015.165.105.165.21v2.132c0 .135-.12.24-.27.21-2.214-.435-3.112.766-3.112 2.447v4.713c0 .12-.104.225-.224.225h-2.17c-.12 0-.224-.105-.224-.225V8.012c.015-.12.12-.226.24-.226zM41.351 9.633c-.696-.227-1.068-.363-1.625-.545-.573-.197-1.547-.743-1.547-1.621 0-.88.619-1.44 1.872-1.44 1.145 0 1.78.546 2.198 1.425.062.12.2.166.325.106l1.841-1.046c.093-.06.14-.182.093-.288-.557-1.197-1.857-2.636-4.426-2.636-2.863 0-4.658 1.667-4.658 3.864 0 2.181 1.47 3.318 3.466 3.984.728.243 1.022.349 1.64.546 1.177.394 1.719.909 1.719 1.621s-.465 1.56-2.29 1.56c-1.672 0-2.26-.863-2.6-1.681-.047-.121-.202-.182-.326-.106l-1.934 1.09c-.093.061-.14.167-.093.273.743 1.788 2.77 2.849 5.045 2.849 2.677 0 4.937-1.333 4.937-4.03s-2.94-3.697-3.637-3.925zm13.793 5.2c-.058-.105-.205-.15-.307-.075-.82.61-1.785.626-2.516-.521-.614-.968-1.36-2.16-1.36-2.16l3.218-4.066c.117-.149.014-.357-.161-.357h-2.516c-.073 0-.132.03-.176.09l-2.779 3.886V3.811c0-.119-.102-.223-.219-.223h-2.12c-.118 0-.22.104-.22.223v13.345c0 .12.102.223.22.223h2.135c.117 0 .22-.104.22-.223v-4.334s1.418 2.279 1.959 3.128c.731 1.161 1.755 1.638 2.867 1.638 1.053 0 1.726-.283 2.53-1.087.073-.075.088-.179.044-.268l-.819-1.4zm16.295-2.989c-.702-.25-.946-.339-1.48-.53-.535-.191-1.008-.471-1.008-.884 0-.412.397-.869 1.206-.869.702 0 1.13.265 1.374.737.06.118.198.147.305.088l1.557-.869c.106-.059.137-.191.076-.294-.427-.722-1.267-1.635-3.297-1.635-2.487 0-3.77 1.384-3.77 2.916s1.298 2.253 2.488 2.71c1.343.53 1.435.56 1.603.618.412.162.916.413.916.87 0 .456-.55.868-1.39.868-.778 0-1.663-.309-2.03-1.178-.045-.118-.198-.177-.32-.103l-1.572.869c-.091.059-.137.162-.091.265.458 1.149 1.816 2.165 4.014 2.165 2.38 0 3.968-1.222 3.968-2.946 0-1.723-1.221-2.327-2.549-2.798zm8.021-1.962c.951 0 1.654.294 2.312.765.103.073.249.044.307-.06l.878-1.528c.059-.103.03-.221-.073-.28-.907-.618-2.034-1.191-3.555-1.191-1.508 0-2.898.412-3.893 1.426-.995 1-1.448 2.192-1.448 3.603 0 1.706.702 2.794 1.463 3.56.76.764 2.136 1.41 3.892 1.41 1.58 0 2.751-.66 3.556-1.19.088-.06.117-.191.058-.28l-.863-1.514c-.058-.103-.205-.147-.307-.074-.57.412-1.39.765-2.312.765-1.039 0-2.927-.588-2.927-2.706s1.873-2.706 2.912-2.706zm44.533 5.588c-.902 0-1.758-.206-2.38-.676-.622-.47-.918-.956-.918-1.53h8.06c.124 0 .233-.103.233-.22-.047-2.265-.825-3.324-1.572-4.044-.778-.736-2.1-1.412-3.843-1.412-1.742 0-3.08.603-3.998 1.456-.903.853-1.587 1.941-1.587 3.588s.7 2.735 1.556 3.544c.855.809 2.256 1.412 4.263 1.412 1.898 0 3.5-.632 4.652-1.882.093-.103.062-.265-.062-.324l-1.603-.882c-.078-.044-.187-.044-.264.03-.794.705-1.805.94-2.537.94zm-.455-5.882c1.189 0 2.278.714 2.45 2h-5c.33-1.386 1.36-2 2.55-2z" transform="translate(-221.000000, -88.000000) translate(221.000000, 88.000000) translate(0.023256, 28.000000)"/>
                </g>
            </g>
        </g>
    </g>
</svg>