<svg xmlns="http://www.w3.org/2000/svg" width="150" height="70" viewBox="0 0 150 70">
    <g fill="#DB2128" fill-rule="nonzero">
        <path d="M111.994 44.973a4.062 4.062 0 0 1-.786.469c-.502.25-1.047.506-1.543.506-.34 0-.587-.091-.776-.248a1.282 1.282 0 0 1-.205-.218c-.041-.056-.079-.112-.12-.164-.13-.167-.259-.41-.385-.712-.79.778-2.2 1.436-4.248 1.436-1.733 0-3.105-.44-4.086-1.37-.956-.904-1.5-2.206-1.5-4.004V30.403c0-.435.087-.73.398-.963.321-.246.936-.33 1.72-.33.764 0 1.38.085 1.7.334.307.233.394.527.394.96v9.792c0 1.457.597 2.177 2.318 2.177 1.724 0 2.743-1.028 2.743-2.436v-9.534c0-.435.088-.73.4-.963.32-.245.91-.33 1.695-.33.764 0 1.38.085 1.7.334.308.233.394.527.394.96V41.8c0 .377.06.712.13.982.07.263.149.461.194.574.14.281.266.555.266.922 0 .307-.212.539-.403.694zM93.214 33.098v11.381c0 .435-.088.73-.4.963-.32.246-.934.33-1.694.33-.787 0-1.404-.085-1.724-.334-.308-.233-.395-.526-.395-.959V33.402l-1.941.14c-1.738.126-1.806-1.349-1.806-2.169 0-1.622.598-2.203 1.673-2.204h8.371c.821 0 1.44.262 1.683 1.435.27 1.304.16 2.212-1.3 2.315l-2.467.179zM119.548 45.477c-.321.246-.935.33-1.696.33-.786 0-1.404-.085-1.724-.334-.307-.233-.393-.526-.393-.959V30.403c0-.435.087-.73.399-.963.32-.246.936-.33 1.719-.33.764 0 1.38.085 1.7.334.307.233.394.527.394.96v14.11c0 .435-.088.73-.4.963zM32.224 21.43h11.125c1.09 0 1.913.345 2.237 1.894.36 1.722.211 2.921-1.727 3.059l-3.493.249c2.57 16.243 17.601 21.538 25.785 4.043 1.355-2.895 1.798-3.423 3.282-3.054 2.011.499 2.286 1.533 1.328 4.452-7.076 21.568-30.857 23.73-35.523-5.072l-2.838.205c-2.309.166-2.4-1.782-2.4-2.866 0-2.142.795-2.91 2.224-2.91zM72.674 11a4.13 4.13 0 1 1 0 8.258 4.13 4.13 0 0 1 0-8.258z"/>
    </g>
</svg>
