<svg xmlns="http://www.w3.org/2000/svg" xmlns:xlink="http://www.w3.org/1999/xlink" width="225" height="45" viewBox="0 0 225 45">
    <defs>
        <path id="prefix__a" d="M0.125 0.235L16.936 0.235 16.936 16 0.125 16z"/>
        <path id="prefix__c" d="M0.041 0.262L16.852 0.262 16.852 16.735 0.041 16.735z"/>
    </defs>
    <g fill="none" fill-rule="evenodd">
        <path fill="#FFF" d="M57.924 34H51.2c-.092-7.496.137-14.984-.199-22.486h5.88l.284 3.065c.028.01.056.018.085.027.063-.075.133-.145.19-.225 1.721-2.424 4.094-3.476 7.011-3.36 1.827.072 3.421.707 4.649 2.106.37.42.634.936.942 1.411.067.104.113.222.19.376l.405-.51c1.368-1.745 3.094-2.918 5.3-3.269 2.213-.352 4.303-.063 6.098 1.422 1.267 1.047 1.991 2.445 2.44 4.003.346 1.193.513 2.42.517 3.658.015 4.496.006 8.992.006 13.488v.284h-6.76v-.417l-.001-11.842c0-.994-.09-1.977-.43-2.919-.397-1.101-1.085-1.91-2.289-2.1-1.298-.206-2.369.23-3.197 1.266-.706.882-.85 1.924-.851 3.006-.002 4.195 0 8.39 0 12.585v.43h-6.762v-.385c0-4.098.001-8.196-.001-12.294 0-.897-.12-1.775-.429-2.624-.912-2.504-3.762-2.536-5.178-.986-.877.96-1.18 2.104-1.178 3.377.009 4.14.003 8.282.003 12.423V34zM97.087 22.514c.033.48.045.962.103 1.438.152 1.26.485 2.46 1.246 3.505 1.227 1.686 3.518 2.135 5.174 1.008.923-.627 1.459-1.54 1.812-2.57.557-1.625.628-3.3.414-4.988-.163-1.29-.524-2.522-1.35-3.562-.942-1.184-2.185-1.607-3.654-1.347-1.45.257-2.35 1.203-2.942 2.483-.591 1.277-.778 2.638-.803 4.033M90 22.618c.074-1.96.414-3.84 1.271-5.605 1.116-2.298 2.855-3.968 5.213-4.94 3.051-1.26 6.196-1.435 9.326-.396 3.8 1.26 6.05 3.989 6.882 7.871.505 2.354.39 4.707-.354 7.005-.996 3.07-2.998 5.254-5.988 6.448-3.444 1.374-6.92 1.354-10.302-.204-3.146-1.448-4.987-3.989-5.69-7.353-.192-.926-.242-1.883-.358-2.826M137.994 34h-7.151v-.395c-.003-4.165.009-8.33-.023-12.495-.005-.678-.127-1.377-.327-2.028-.725-2.367-3.456-3.22-5.477-1.724-1.053.78-1.658 1.831-1.687 3.143-.028 1.323-.012 2.647-.013 3.971V33.99h-7.133c-.096-7.492.131-14.976-.183-22.48h6.18l.338 3.11.084.023c.06-.067.124-.13.176-.2 1.82-2.455 4.318-3.524 7.367-3.437 1.894.054 3.602.616 5.017 1.892 1.405 1.266 2.167 2.885 2.502 4.69.19 1.02.308 2.069.316 3.106.034 4.326.014 8.652.014 12.978V34zM196.128 23.087c-.679.038-1.282.052-1.882.11-.992.094-1.964.289-2.861.751-1.248.644-1.821 1.714-1.632 3.108.133.979.664 1.655 1.617 1.97.655.215 1.323.23 1.976.032 1.389-.42 2.425-1.267 2.66-2.752.162-1.025.087-2.089.122-3.22m-.307-4.179c.164-1.144-.343-2.13-1.304-2.644-.748-.4-1.562-.516-2.398-.53-2.225-.035-4.3.535-6.294 1.59-.052-.165-.106-.327-.153-.49-.341-1.19-.674-2.381-1.029-3.566-.07-.233-.014-.334.19-.437 1.65-.836 3.403-1.334 5.224-1.605 1.58-.236 3.167-.298 4.757-.13 1.965.209 3.79.784 5.278 2.163 1.237 1.146 1.96 2.592 2.266 4.226.188 1.006.3 2.04.313 3.062.042 3.078-.006 6.158.036 9.236.015 1.15.182 2.298.28 3.448.005.071.008.143.013.243-.125.006-.237.015-.35.015-1.8.001-3.602-.004-5.403.006-.268.002-.384-.062-.421-.35-.068-.53-.186-1.053-.285-1.579-.017-.09-.045-.177-.082-.324-.102.093-.173.146-.23.211-1.284 1.455-2.928 2.204-4.816 2.452-1.55.204-3.079.113-4.516-.563-2.376-1.119-3.678-3.02-3.872-5.637-.156-2.092.417-3.973 1.884-5.519 1.064-1.12 2.388-1.826 3.83-2.326 1.633-.566 3.32-.852 5.04-.946.676-.036 1.356-.006 2.042-.006M149.824 19.992h8.545c-.054-.413-.078-.8-.159-1.178-.228-1.059-.678-2.006-1.646-2.644-1.56-1.028-3.925-.77-5.25.574-.892.906-1.334 2.005-1.49 3.248m14.955 4.725h-14.908c.097 1.102.571 1.982 1.416 2.68.985.812 2.163 1.221 3.43 1.38 2.625.328 5.194.024 7.716-.71l.346-.102c.133.637.266 1.263.394 1.89.168.826.323 1.654.505 2.477.047.21.001.292-.207.37-1.571.59-3.205.933-4.877 1.117-1.515.166-3.037.237-4.561.13-2.689-.187-5.193-.866-7.3-2.555-1.926-1.543-3.013-3.55-3.457-5.879-.633-3.324-.213-6.508 1.631-9.436 1.87-2.968 4.663-4.61 8.267-4.99 1.934-.204 3.84-.08 5.668.61 2.682 1.015 4.36 2.932 5.327 5.465.783 2.054.95 4.182.758 6.344-.035.395-.096.789-.148 1.21M176.576 5.003v6.06h.441c1.529 0 3.057.006 4.585-.006.292-.003.401.051.398.35-.017 1.49-.008 2.982-.009 4.473 0 .095-.011.188-.02.322h-5.379c-.008.153-.02.267-.02.38.004 2.757-.006 5.515.026 8.272.007.581.112 1.177.275 1.74.313 1.083 1.11 1.663 2.32 1.694.736.02 1.475-.063 2.212-.102.113-.006.226-.023.393-.041 0 .225-.002.426 0 .627.008 1.437.008 2.875.033 4.312.004.27-.099.37-.364.434-1.272.314-2.568.42-3.878.472-1.382.054-2.721-.1-4.017-.557-2.219-.78-3.504-2.31-3.963-4.414-.244-1.117-.387-2.27-.409-3.41-.055-2.992-.018-5.986-.018-8.98v-.41H166v-5.15h3.163c.007-.138.018-.251.018-.364.001-1.191.003-2.382 0-3.573-.002-.172.007-.292.24-.351 2.332-.585 4.659-1.184 6.987-1.777.032-.008.067-.001.168-.001M208 32.435l1.229-4.808c.77.301 1.514.63 2.284.884 1.332.44 2.701.74 4.116.65.58-.037 1.189-.135 1.718-.357 1.073-.45 1.302-1.856.44-2.632-.379-.34-.861-.6-1.338-.798-1.098-.454-2.237-.814-3.332-1.273-1.146-.481-2.182-1.15-3.027-2.06-1.815-1.952-1.937-4.174-.951-6.5.785-1.854 2.29-3.016 4.154-3.759 1.857-.74 3.8-.88 5.773-.726 1.606.124 3.164.465 4.652 1.092.261.11.32.22.246.495-.365 1.363-.705 2.733-1.054 4.1-.018.07-.045.136-.067.202-.688-.244-1.352-.512-2.036-.716-1.148-.342-2.322-.55-3.532-.407-.586.07-1.138.232-1.566.664-.578.584-.611 1.543.025 2.062.478.39 1.049.698 1.623.941 1.015.43 2.077.751 3.095 1.174 1.158.481 2.21 1.135 3.056 2.067 1.188 1.308 1.576 2.868 1.477 4.57-.145 2.503-1.415 4.3-3.65 5.46-1.601.83-3.34 1.14-5.131 1.218-2.58.114-5.086-.212-7.479-1.207-.236-.098-.465-.215-.725-.336M44 29.186c-.476 1.337-1.087 2.63-1.832 3.863-1.604 2.655-3.625 4.956-6.251 6.722-2.326 1.563-4.892 2.385-7.756 2.204-2.128-.134-4.056-.838-5.83-1.953-2.541-1.594-4.459-3.762-6.062-6.209-2.022-3.086-3.429-6.438-4.483-9.93-.318-1.05-.563-2.127-.746-3.207-.086-.505-.024-1.064.103-1.568.474-1.895 2.991-2.757 4.464-1.552.457.374.735.877.901 1.415.333 1.07.61 2.158.921 3.236.881 3.05 1.96 6.026 3.623 8.774 1.098 1.815 2.4 3.477 4.202 4.693 3.41 2.299 7.041 2.469 10.783.862 2.606-1.118 4.624-2.955 6.339-5.116.571-.72 1.082-1.485 1.624-2.234"/>
        <path fill="#FFF" d="M0 15.688c.414-.893.789-1.805 1.25-2.675 1.668-3.15 3.915-5.838 6.954-7.855 2.286-1.517 4.813-2.306 7.617-2.135 2.176.133 4.141.86 5.948 2.01 2.396 1.523 4.237 3.563 5.783 5.866 2.25 3.348 3.743 7.016 4.867 10.834.24.82.435 1.66.547 2.505.071.543.028 1.127-.098 1.663-.355 1.504-2.111 2.437-3.645 1.984-.745-.22-1.259-.718-1.513-1.4-.336-.902-.606-1.828-.862-2.754-.91-3.296-2.004-6.523-3.764-9.503-1.162-1.966-2.571-3.734-4.524-5.044-1.607-1.077-3.393-1.645-5.346-1.736-3.041-.14-5.666.9-8.032 2.65-2 1.478-3.585 3.317-4.911 5.372l-.173.267L0 15.688"/>
        <path fill="#FFF" d="M14 .901c1.993-.688 3.958-1.017 5.995-.864 3.757.282 6.823 1.967 9.47 4.487 2.644 2.516 4.57 5.517 6.104 8.776.558 1.185 1.106 2.375 1.348 3.672.102.548.132 1.097-.04 1.635-.24.758-.763 1.243-1.567 1.362-.863.128-1.597-.14-2.084-.873-.183-.276-.298-.606-.395-.925-1.024-3.365-2.33-6.609-4.274-9.578-1.489-2.273-3.282-4.27-5.616-5.753-2.148-1.366-4.49-2.123-7.068-2.092-.6.007-1.2.096-1.873.153M29 44.197c-1.012.226-2.014.528-3.038.666-4.774.643-8.753-1.01-12.175-4.16-2.818-2.594-4.83-5.738-6.427-9.156-.537-1.15-1.062-2.307-1.288-3.566-.093-.518-.11-1.034.034-1.547.215-.767.864-1.33 1.633-1.417.91-.103 1.743.266 2.11 1.006.221.446.361.932.513 1.408 1.067 3.345 2.42 6.562 4.437 9.48 1.599 2.313 3.523 4.302 6.028 5.696 1.982 1.103 4.108 1.695 6.398 1.651.582-.011 1.162-.096 1.742-.148l.033.087"/>
        <g transform="translate(2 29)">
            <mask id="prefix__b" fill="#fff">
                <use xlink:href="#prefix__a"/>
            </mask>
            <path fill="#FFF" d="M16.906 16c-1.001-.224-2.015-.404-3.002-.682-3.506-.989-6.543-2.82-9.124-5.423C2.963 8.062 1.51 5.963.485 3.569.236 2.99.077 2.384.138 1.738.208 1.002.717.393 1.375.266c.717-.139 1.373.184 1.694.901.405.905.736 1.844 1.15 2.743 1.642 3.57 3.89 6.657 7.03 9.018 1.627 1.223 3.404 2.155 5.317 2.82.124.042.247.089.37.133l-.03.12" mask="url(#prefix__b)"/>
        </g>
        <g transform="translate(25)">
            <mask id="prefix__d" fill="#fff">
                <use xlink:href="#prefix__c"/>
            </mask>
            <path fill="#FFF" d="M.05.262c.834.178 1.68.306 2.5.543 6.298 1.82 10.912 5.835 13.796 12.08.311.674.54 1.377.501 2.144-.034.7-.32 1.252-.933 1.544-.56.267-1.13.214-1.583-.237-.245-.243-.435-.588-.556-.925-.978-2.727-2.22-5.298-3.9-7.615C7.351 4.32 4.161 1.835.234.445.186.427.138.409.09.388.072.381.057.368.04.357L.05.262" mask="url(#prefix__d)"/>
        </g>
    </g>
</svg>
