<svg xmlns="http://www.w3.org/2000/svg" width="152" height="64" viewBox="0 0 152 64">
    <path fill="#FFF" d="M148.38.693c.828.116 1.658.407 2.26 1.01.558.498.924 1.173 1.115 1.89.16.846.096 1.707.107 2.562V58.59c-.01.823.052 1.652-.11 2.466-.316 1.364-1.442 2.484-2.803 2.808-.814.156-1.643.098-2.466.107-47.337 0-94.673.002-142.01 0-.296-.014-.586-.076-.88-.108-1.36-.322-2.485-1.441-2.803-2.804-.033-.294-.097-.585-.11-.88V4.562c0-.326.075-.645.108-.969C1.093 2.343 2.06 1.26 3.3.882c.28-.096.576-.119.86-.189C11.07.674 17.98.68 24.89.682h112.06c3.81.007 7.62-.017 11.43.011zM90.532 44.062c-.05 0-.099.003-.149.007-.36.13-.75.018-1.117.105-1.693.229-3.42.883-4.55 2.214-.659.734-1.043 1.687-1.145 2.662.01.578-.056 1.167.082 1.735.15.82.58 1.563 1.102 2.203.934 1.035 2.262 1.663 3.615 1.934 1.018.196 2.077.32 3.108.171 1.436-.063 2.873-.526 4.045-1.366.95-.657 1.596-1.682 1.914-2.783.096-.663.247-1.335.132-2.006-.104-1.11-.624-2.17-1.41-2.957-.166-.132-.32-.275-.467-.424-1.19-.88-2.652-1.335-4.12-1.423-.35.023-.692-.074-1.04-.072zm-15.018-2.818h-3.372v2.875c0 .48-.003.959-.01 1.438-.721-.617-1.623-.95-2.532-1.177-1.045-.206-2.133-.211-3.163.077-1.23.316-2.314 1.117-3.014 2.172-1.205 1.927-1.15 4.615.216 6.448.392.395.754.835 1.246 1.112.526.354 1.125.577 1.736.738 1.9.417 4.067.048 5.514-1.316.007.376.005.753.007 1.13h3.372V41.243zm-20.94 2.964c-.382 0-.765.001-1.147.003-1.193.105-2.438.218-3.493.84-.892.466-1.37 1.428-1.567 2.378 1.142.013 2.287.023 3.429-.005.18-.217.371-.427.608-.584.396-.139.803-.224 1.217-.288 1.03-.013 2.12-.097 3.078.355.508.24.678.847.648 1.368-1.208.028-2.415-.042-3.622-.01-.526.094-1.06.06-1.591.07-.569.063-1.14.095-1.699.226-.508.102-.975.325-1.427.568-.713.49-1.138 1.356-1.098 2.217.02.396-.063.811.1 1.187.238.921 1.01 1.618 1.862 1.982.74.317 1.555.422 2.353.449.602.116 1.206-.04 1.81-.032 1.172-.175 2.3-.602 3.288-1.257.013.365.097.722.218 1.065 1.232-.001 2.463.005 3.694-.002-.285-.417-.49-.888-.514-1.398-.03-2.052.03-4.106-.032-6.157-.134-.69-.422-1.376-.99-1.82-1.113-.9-2.608-1.034-3.98-1.15-.382-.004-.763-.005-1.145-.005zm71.524-22.73h-8.39v33.327c6.078-.011 12.156.019 18.233-.015-2.188-.824-4.078-2.337-5.501-4.18-2.63-3.372-3.926-7.654-4.081-11.895-.07-.603-.08-1.216-.002-1.819.164-4.31 1.506-8.663 4.22-12.06 1.08-1.35 2.417-2.484 3.911-3.354l-8.39-.004zm-11.066-11.57h-11.505c-.002 14.966 0 29.931 0 44.897 3.834-.001 7.669-.001 11.503 0 .003-14.966 0-29.931.002-44.897zm-33.46 34.505H78.2l-.001 10.328h3.373V44.413zm-35.125-.205l-.095.058c-.593-.007-1.177.149-1.733.342-.785.283-1.429.862-1.876 1.557.01-.54.002-1.079.007-1.618-1.15-.002-2.298.001-3.446-.002V54.74h3.445c-.003-1.694.003-3.389-.003-5.083-.011-.545.15-1.108.513-1.523.32-.299.706-.52 1.114-.678.432-.09.86-.237 1.306-.226l1.337.002v-3.02l-.57-.004zm22.54 2.409c.345 0 .692.083 1.033.144.213.064.424.137.635.21.699.334 1.275.945 1.455 1.711.207 1.019.108 2.17-.556 3.01-.527.68-1.401 1.01-2.24 1.057-.81.052-1.672-.152-2.291-.7-.362-.359-.623-.806-.787-1.286-.21-.765-.252-1.608.062-2.351.335-.943 1.24-1.606 2.22-1.736.156-.043.312-.06.469-.06zM56.352 50.06c.334.001.668.005 1.003.008l-.04.387c-.105.581-.45 1.107-.94 1.435-.488.386-1.09.57-1.672.755-.904.136-1.894.195-2.718-.273-.668-.314-.674-1.376-.095-1.783.426-.303.953-.373 1.455-.457 1-.059 2.004-.074 3.007-.072zm34.429-3.518l.283.05c.89.041 1.794.407 2.383 1.09.704.83.842 2.045.445 3.044-.301.852-1.062 1.448-1.897 1.733-.654.208-1.345.134-2.019.141-.46-.046-.908-.18-1.333-.36-.76-.358-1.318-1.076-1.497-1.894-.109-.386-.069-.79-.065-1.184.169-.748.526-1.49 1.182-1.925.732-.517 1.645-.65 2.518-.695zM42.24 27.33c-.442 0-.88.01-1.319.015l-1.388.157c-.926.214-1.921.462-2.59 1.192-.52.49-.747 1.187-.893 1.867 1.146.01 2.292.009 3.439.002.214-.328.506-.632.903-.715 1.155-.262 2.375-.246 3.531 0 .555.122 1.006.548 1.095 1.12 0 .143.003.287.005.432-1.269-.001-2.538.003-3.806 0-1.133.081-2.28.066-3.39.357-.256.09-.509.188-.761.286-.657.323-1.203.895-1.388 1.616-.112.291-.062.61-.15.906v.276c.082.33.062.681.2 1 .374 1.036 1.363 1.714 2.388 2.014.369.08.743.144 1.115.214.432-.005.862.014 1.29.07.368-.076.745-.054 1.118-.078.721-.123 1.455-.257 2.113-.593l.634-.314c.211-.106.419-.218.617-.347.014.363.09.72.216 1.06 1.23 0 2.461.006 3.692-.002-.266-.4-.497-.835-.512-1.326-.018-2.013.006-4.027-.012-6.04-.136-.645-.293-1.348-.804-1.808-.381-.424-.915-.652-1.428-.871-1.264-.42-2.592-.49-3.915-.49zm30.15.209c-1.464-.288-2.971-.252-4.441-.029-1.099.232-2.267.6-3.004 1.5-.582.666-.678 1.624-.516 2.463.203.944 1.069 1.58 1.951 1.847 1.869.557 3.877.311 5.742.89.365.1.66.562.431.91-.325.513-1 .574-1.541.678-.824.002-1.682.078-2.466-.229-.591-.192-1.032-.702-1.237-1.275-.884.073-1.77.129-2.653.2-.3-.013-.595.035-.883.113.214.712.529 1.424 1.083 1.94.719.718 1.71 1.085 2.689 1.275.583.123 1.175.202 1.772.195.518.094 1.074.098 1.59-.002 1.605-.038 3.392-.393 4.495-1.661.594-.704.765-1.711.553-2.593-.163-.574-.499-1.124-1.007-1.452-.402-.279-.873-.431-1.341-.556-1.421-.2-2.853-.307-4.28-.458-.464-.102-.964-.136-1.368-.412-.198-.108-.258-.37-.198-.572.147-.357.549-.49.884-.606 1.028-.275 2.161-.233 3.139.204.381.159.623.493.812.845 1.14-.081 2.277-.157 3.418-.217-.124-.435-.286-.862-.54-1.238-.726-.995-1.913-1.506-3.083-1.76zm-15.584-.204c-.798-.036-1.588.071-2.38.15-.325.078-.655.138-.977.227-.917.247-1.791.747-2.338 1.54-.488.772-.536 1.758-.226 2.606.174.344.402.664.72.889 1.216.89 2.788.854 4.213 1.047.698-.005 1.382.151 2.07.25.327.071.654.184.927.38.072.13.12.272.173.411-.061.296-.244.527-.5.678-.565.22-1.172.325-1.777.29-.821.032-1.704-.048-2.391-.543-.343-.227-.538-.608-.664-.987-.696.08-1.394.145-2.094.166-.475.097-.967.011-1.436.15.134.385.225.79.444 1.14.168.289.39.539.584.809.254.183.487.394.756.556.859.545 1.88.736 2.87.882.343.065.701-.02 1.038.089 1.413.035 2.857-.057 4.2-.536.838-.314 1.652-.847 2.048-1.68.452-.917.412-2.087-.154-2.947-.193-.187-.384-.376-.57-.57-.403-.273-.862-.451-1.338-.547-.974-.206-1.97-.255-2.96-.328l-.081-.05c-.776-.04-1.558-.116-2.305-.34-.233-.047-.39-.232-.553-.386l-.01-.342c.16-.244.359-.479.65-.565.92-.299 1.925-.322 2.858-.068.578.138 1.07.525 1.348 1.049.376-.082.763-.011 1.141-.077.362-.074.734-.008 1.098-.067.383-.077.778-.013 1.162-.089-.172-.77-.593-1.49-1.242-1.95-1.212-.954-2.807-1.189-4.304-1.237zm-33.221.34c-1.493 1.361-3.064 2.636-4.57 3.983-.037-1.326-.005-2.654-.016-3.981h-3.442c0 3.397.001 6.795 0 10.193h3.442c.003-.916-.003-1.832.003-2.748.636-.48 1.207-1.041 1.84-1.526 1.018 1.363 2.13 2.653 3.161 4.006l.252.266c1.434-.002 2.868.012 4.302-.008-.79-.914-1.554-1.853-2.357-2.756-.123-.172-.269-.325-.414-.477-.382-.481-.771-.96-1.2-1.399l-.022-.087c-.438-.44-.812-.939-1.217-1.408l-.094-.063c1.595-1.338 3.214-2.647 4.807-3.987-1.492-.014-2.983.002-4.475-.008zm73.068.017c-1.479-.033-2.959-.005-4.438-.015-.512.475-1.062.908-1.584 1.372-.58.545-1.233 1.012-1.79 1.583l-.09.02c-.35.35-.73.668-1.121.97v-3.945h-3.444c.001 3.398 0 6.796 0 10.193h3.443v-2.74c.602-.504 1.19-1.024 1.791-1.53 1.117 1.336 2.16 2.733 3.27 4.074l.124.197c1.46-.008 2.918.01 4.377-.01-.312-.359-.635-.709-.926-1.084-1.322-1.51-2.601-3.056-3.913-4.575-.146-.193-.322-.362-.49-.533 1.596-1.326 3.212-2.631 4.791-3.977zm-63.203-3.04c-1.125.001-2.25-.003-3.375.001.001 4.406-.001 8.81.002 13.216h3.373zM81.5 27.676H78.13V37.87h3.373V27.678zM44.544 33.19c.115.782-.427 1.463-1.023 1.894-.643.476-1.442.666-2.22.775-.59.053-1.192-.01-1.755-.194-.466-.165-.904-.582-.864-1.112-.002-.456.372-.772.717-1.006.738-.287 1.533-.29 2.31-.357.944-.003 1.89-.001 2.835 0z"/>
</svg>
