<?xml version="1.0" encoding="UTF-8"?>
<svg width="169px" height="36px" viewBox="0 0 169 36" version="1.1" xmlns="http://www.w3.org/2000/svg" xmlns:xlink="http://www.w3.org/1999/xlink">
    <!-- Generator: Sketch 62 (91390) - https://sketch.com -->
    <title>portfoio__pando-main-logo</title>
    <desc>Created with Sketch.</desc>
    <defs>
        <polygon id="path-1" points="0.21879406 0.3290625 99.1983707 0.3290625 99.1983707 35.989875 0.21879406 35.989875"></polygon>
    </defs>
    <g id="portfoio__pando-main-logo" stroke="none" stroke-width="1" fill="none" fill-rule="evenodd">
        <g id="pando_logo" transform="translate(23.000000, 0.000000)">
            <g id="Layer-1">
                <path d="M10.5587259,1.492875 C8.85070423,-0.381375 6.08135284,-0.381375 4.37333115,1.492875 C3.5536774,2.3904054 3.09256527,3.61158481 3.09256527,4.88547667 C3.09256527,6.15936853 3.55330233,7.38063223 4.37282114,8.2783125 L14.9315471,8.2783125 C16.1397595,8.2783125 17.2327098,8.8155 18.0247545,9.684 L10.5587259,1.492875 L10.5587259,1.492875 Z" id="svg_2" fill="#FFFFFF"></path>
                <path d="M19.3053882,13.077 C19.3053882,15.7275 17.3469519,17.87625 14.9315471,17.87625 C12.5161422,17.87625 10.5582159,15.7275 10.5582159,13.077 C10.5582159,10.4270625 12.5166523,8.278875 14.9315471,8.278875 C17.3474619,8.278875 19.3053882,10.4270625 19.3053882,13.077 Z" id="svg_3" fill="#FFFFFF"></path>
                <g id="svg_4-Clipped" transform="translate(23.460435, 0.000000)">
                    <mask id="mask-2" fill="white">
                        <use xlink:href="#path-1"></use>
                    </mask>
                    <g id="svg_1"></g>
                    <g id="svg_4" mask="url(#mask-2)" fill="#FFFFFF">
                        <path d="M69.4168781,23.371875 C66.7490186,23.371875 64.5784183,20.9908125 64.5784183,18.0635625 C64.5784183,15.136875 66.7490186,12.75525 69.4168781,12.75525 C72.0847376,12.75525 74.2548278,15.136875 74.2548278,18.0635625 C74.2548278,20.9908125 72.0847376,23.371875 69.4168781,23.371875 Z M78.5899083,0.3290625 L74.0804046,0.3290625 L74.0804046,9.1276875 C72.6590997,8.23566483 71.0521866,7.76584313 69.4168781,7.7641875 C64.240792,7.7641875 60.0301539,12.3845625 60.0301539,18.0635625 C60.0301539,23.7425625 64.240792,28.3629375 69.4168781,28.3629375 C71.2913565,28.3612443 73.1229906,27.7444503 74.6786457,26.5910625 C74.9736544,27.4616807 75.727571,28.0389627 76.5702708,28.0395 L78.5899083,28.0395 L78.5899083,0.3290625 Z M89.8121565,23.3915625 C87.143787,23.3915625 84.9736967,21.0105 84.9736967,18.08325 C84.9736967,15.1565625 87.143787,12.7749375 89.8121565,12.7749375 C92.479506,12.7749375 94.6501063,15.1565625 94.6501063,18.08325 C94.6501063,21.0105 92.479506,23.3915625 89.8121565,23.3915625 Z M89.8121565,7.7844375 C84.6360705,7.7844375 80.4249223,12.40425 80.4249223,18.0838125 C80.4249223,23.76225 84.6360705,28.382625 89.8121565,28.382625 C94.9877325,28.382625 99.1988807,23.76225 99.1988807,18.08325 C99.1988807,12.40425 94.9877325,7.783875 89.8121565,7.783875 L89.8121565,7.7844375 Z M41.1332832,28.2110625 L45.6820577,28.2110625 L45.6820577,17.3694375 C45.7422388,14.3145 47.7985969,12.9436875 49.8381248,12.9436875 C52.2479195,12.9436875 53.9967419,14.862375 53.9967419,17.506125 L53.9967419,28.2105 L58.5424563,28.2105 L58.5424563,16.918875 C58.5424563,11.3540625 54.8112271,7.9565625 50.011528,7.9565625 C48.0087208,7.9565625 46.3006991,8.51175 44.9318337,9.4651875 C44.5813077,8.73558981 43.8939157,8.27936469 43.1452706,8.2794375 L41.1332832,8.2794375 L41.1332832,28.211625 L41.1332832,28.2110625 L41.1332832,28.2110625 Z M9.39233428,23.5738125 C6.72447478,23.5738125 4.5538745,21.1921875 4.5538745,18.2655 C4.5538745,15.3388125 6.72447478,12.9571875 9.39233428,12.9571875 C12.0596838,12.9571875 14.2302841,15.3388125 14.2302841,18.2655 C14.2302841,21.1921875 12.0596838,23.5738125 9.39233428,23.5738125 Z M9.39233428,7.9666875 C7.51793863,7.96787813 5.68626943,8.58429232 4.13056664,9.7374375 C3.83532517,8.86684808 3.08118857,8.28977748 2.23843154,8.2895625 L0.225934192,8.2895625 L0.219304069,36 L4.72931775,36 L4.72931775,27.201375 C6.15064046,28.0933497 7.75754183,28.5631679 9.39284429,28.564875 C14.5684203,28.564875 18.7795685,23.9445 18.7795685,18.2655 C18.7795685,12.5865 14.5684203,7.966125 9.39284429,7.966125 L9.39233428,7.9666875 Z" id="svg_5"></path>
                    </g>
                </g>
                <path d="M53.1348259,23.5738125 C50.4674765,23.5738125 48.2968762,21.19275 48.2968762,18.2655 C48.2968762,15.3388125 50.4669664,12.9571875 53.1348259,12.9571875 C55.8026854,12.9571875 57.9727757,15.3388125 57.9727757,18.2655 C57.9727757,21.19275 55.8026854,23.5738125 53.1348259,23.5738125 Z M60.2963788,8.30925 C59.4576948,8.30957084 58.706372,8.88125397 58.4083238,9.745875 C56.8501118,8.58741168 55.0139956,7.96793765 53.1348259,7.9666875 C47.9587399,7.9666875 43.7481018,12.5865 43.7481018,18.2660625 C43.7481018,23.9445 47.9587399,28.564875 53.1348259,28.564875 C55.0147208,28.564875 56.856875,27.939375 58.4027137,26.7890625 C58.6968097,27.6620027 59.4520248,28.2412262 60.2963788,28.2414375 L62.3083662,28.2414375 L62.3083662,8.30925 L60.2963788,8.30925 L60.2963788,8.30925 Z M10.5582159,13.077 C10.5582159,11.7523125 11.047825,10.5525 11.8388497,9.684 L4.37333115,17.875125 C3.55343091,18.7727744 3.0923066,19.9942376 3.0923066,21.2684062 C3.0923066,22.5425749 3.55343091,23.7640381 4.37333115,24.6616875 C6.08186285,26.5359375 8.85121424,26.5359375 10.5587259,24.6616875 L18.0247545,16.4705625 C17.2035415,17.3727243 16.0911389,17.8783316 14.9320571,17.87625 C12.5161422,17.87625 10.5582159,15.7275 10.5582159,13.077 L10.5582159,13.077 Z" id="svg_6" fill="#FFFFFF"></path>
                <path d="M4.37333115,17.875125 L11.8388497,9.684 C12.6600311,8.78178581 13.7724542,8.27616915 14.9315471,8.27830571 L4.37384116,8.27830571 C1.95843634,8.27830571 0,10.4270625 0,13.077 C0,15.7269375 1.95792633,17.875125 4.37282114,17.87625 L4.37333115,17.875125 L4.37333115,17.875125 Z" id="svg_7" fill="#FFFFFF"></path>
            </g>
        </g>
    </g>
</svg>