<?xml version="1.0" encoding="UTF-8"?>
<svg width="207px" height="30px" viewBox="0 0 207 30" version="1.1" xmlns="http://www.w3.org/2000/svg" xmlns:xlink="http://www.w3.org/1999/xlink">
    <title>8B71DDAF-9C15-413A-86B8-407D2A9BBECA</title>
    <defs>
        <polygon id="path-1" points="0.0457612927 0.0548130671 16.8863581 0.0548130671 16.8863581 21.7303008 0.0457612927 21.7303008"></polygon>
        <polygon id="path-3" points="3.91215053e-06 0.0520921497 23.146011 0.0520921497 23.146011 29.3673192 3.91215053e-06 29.3673192"></polygon>
        <polygon id="path-5" points="0 29.704034 206.336399 29.704034 206.336399 0.0757153338 0 0.0757153338"></polygon>
    </defs>
    <g id="VhedaHealth" stroke="none" stroke-width="1" fill="none" fill-rule="evenodd">
        <g id="[Miquido]-Portfolio---Vheda-01" transform="translate(-259.000000, -226.000000)">
            <g id="header" transform="translate(0.000000, 100.000000)">
                <g id="img-/-1920-/-Case_study-/-VhedaHealth">
                    <g id="logo" transform="translate(259.000000, 126.000000)">
                        <path d="M94.6597041,20.2220211 C93.3155297,20.2544272 92.0162546,20.127074 90.7384069,20.4326611 C89.3578892,20.76278 88.7967629,21.5283377 88.8862584,22.9398987 C89.0190631,25.0350934 90.8746188,26.0194685 92.6262173,24.8713969 C93.3237827,24.414152 93.9095165,23.785109 94.5387867,23.2258755 C94.6048104,23.1671961 94.6537226,23.0524874 94.6546311,22.9631433 C94.6630355,22.0698538 94.6597041,21.1764886 94.6597041,20.2220211 L94.6597041,20.2220211 Z M89.4127071,29.7040038 C88.9258575,29.5965637 88.4281049,29.5236498 87.9538241,29.3757778 C84.8933346,28.4222189 83.0368703,25.5853925 83.3166385,22.3556792 C83.5484031,19.6791421 85.034468,17.9993974 87.4661416,17.0566658 C89.1126473,16.4183856 90.8367611,16.2257658 92.5863154,16.1993411 C93.2903923,16.1886652 93.9948477,16.1975996 94.6933217,16.1975996 C95.0220777,14.016468 93.509891,12.2283747 91.3557898,12.2367791 C89.3422162,12.2445778 87.362033,12.5382018 85.4042617,12.995901 C85.3199148,13.015587 85.2345079,13.0306544 85.095646,13.0588205 C84.789226,11.8322321 84.4856832,10.617001 84.1652559,9.33445893 C85.1552339,9.0864155 86.1122,8.81755034 87.0822649,8.60963604 C89.1994928,8.15587404 91.3432967,7.93864675 93.5086038,8.06524279 C95.2393807,8.16647419 96.8913378,8.55300097 98.2027274,9.78549517 C98.609243,10.1676305 98.8982485,10.673106 99.2561548,11.1097564 C99.3462561,11.2197707 99.4939767,11.3547712 99.6161055,11.3556798 C101.622183,11.37052 103.628413,11.3659013 105.634642,11.3645385 C105.6831,11.3645385 105.731482,11.3510611 105.816207,11.3384924 L105.816207,0.116268467 L111.901221,0.116268467 L111.901221,11.3442467 L121.202169,11.3442467 L121.202169,0.110741247 L127.258638,0.110741247 L127.258638,29.3506403 L121.217615,29.3506403 L121.217615,16.9938221 L111.909777,16.9938221 L111.909777,29.3591961 L105.832334,29.3591961 L105.832334,16.9938978 L100.1262,16.9938978 L100.1262,29.3481417 C99.9911236,29.3630576 99.8953437,29.3824407 99.7996395,29.3826679 C98.6640609,29.3848636 97.5284066,29.3763078 96.3929795,29.3901637 C96.1446332,29.3931923 96.0391617,29.2966553 95.9581463,29.0792765 C95.7435691,28.5036886 95.5079429,27.9358993 95.2629281,27.3202579 C94.9843714,27.5561112 94.7385994,27.7656155 94.4913889,27.9733784 C93.3751177,28.9119456 92.1376263,29.5729405 90.6458071,29.6528202 C90.612568,29.6545616 90.5808433,29.6862864 90.5484372,29.7040038 L89.4127071,29.7040038 Z" id="Fill-1" fill="#FFFFFF"></path>
                        <g id="Group-5" transform="translate(147.720616, 7.973733)">
                            <mask id="mask-2" fill="white">
                                <use xlink:href="#path-1"></use>
                            </mask>
                            <g id="Clip-4"></g>
                            <path d="M11.431539,12.2620377 C10.5819372,12.2620377 9.77685605,12.2434875 8.97328921,12.2693064 C8.52187439,12.283768 8.06652238,12.3406303 7.62396625,12.4318672 C6.10027087,12.7461616 5.49477535,13.5978077 5.66286339,15.1456562 C5.87214057,17.0737472 7.64509083,17.9933099 9.28470638,16.9543441 C10.030351,16.481729 10.6520496,15.8124812 11.322206,15.2235673 C11.3867912,15.1667808 11.4261632,15.0476049 11.4269203,14.9569736 C11.4345676,14.07542 11.431539,13.1939421 11.431539,12.2620377 L11.431539,12.2620377 Z M6.20157799,21.730316 C5.73691299,21.6318103 5.26240499,21.566468 4.80924872,21.4298018 C-0.465990022,19.8392498 -0.895674541,13.8076148 1.27243404,11.1487195 C2.27180073,9.92326679 3.58917183,9.23122864 5.06721086,8.7970012 C6.48119472,8.38177831 7.93462627,8.23640487 9.40350374,8.22482043 C10.0945576,8.21929321 10.7857629,8.22383613 11.4740153,8.22383613 C11.5744895,5.96850348 10.4096848,4.23068514 8.06379663,4.26028983 C6.08898929,4.28512446 4.14643668,4.56542263 2.2247058,5.00669159 C2.1165843,5.03145051 2.00808423,5.05469511 1.85763786,5.08800986 C1.54993074,3.85021558 1.24820514,2.63596877 0.928004989,1.34744522 C2.07433514,1.0713114 3.16652883,0.772538694 4.27394131,0.549254175 C6.24602289,0.151748672 8.2429391,-0.0255766398 10.2546198,0.0892078063 C11.8510019,0.180369068 13.3789373,0.52661529 14.6723824,1.54551654 C16.0663017,2.64354031 16.6237937,4.16693282 16.8068734,5.86378917 C16.8635842,6.38910216 16.8818315,6.92077523 16.8825887,7.44957112 C16.8882674,11.9408533 16.8858445,16.4321355 16.8858445,20.9234934 L16.8858445,21.4104187 L15.9818034,21.4104187 C15.0482333,21.4104187 14.1144361,21.4003485 13.1810932,21.4168545 C12.9204053,21.4215488 12.8022136,21.3317504 12.7152167,21.0931714 C12.505031,20.515842 12.2659219,19.9489613 12.0306744,19.3587603 C11.5847868,19.7180295 11.1797855,20.0567042 10.7617611,20.3787215 C9.80108496,21.1189903 8.72713866,21.5804753 7.50660748,21.6708037 C7.44898811,21.6750438 7.39364021,21.7097214 7.337308,21.730316 L6.20157799,21.730316 Z" id="Fill-3" fill="#FFFFFF" mask="url(#mask-2)"></path>
                        </g>
                        <g id="Group-8" transform="translate(0.000000, 0.023623)">
                            <mask id="mask-4" fill="white">
                                <use xlink:href="#path-3"></use>
                            </mask>
                            <g id="Clip-7"></g>
                            <path d="M9.52217238,19.8734277 C10.0030405,18.6160231 10.4845143,17.3588457 10.9645495,16.101214 C12.9554085,10.8855633 14.9482361,5.67074536 16.9300092,0.451687395 C17.039645,0.162984828 17.1678311,0.0491089655 17.4917413,0.052078858 C19.3579728,0.0699306823 21.2245072,0.0608448423 23.146011,0.0608448423 C23.0981589,0.205688276 23.0660556,0.317822685 23.0246393,0.426398474 C19.3864418,9.96372907 15.7465785,19.5003782 12.113984,29.0398288 C12.0240342,29.275985 11.9191684,29.3685091 11.6562091,29.3673192 C9.54912704,29.3553346 7.4419693,29.3546532 5.33488728,29.3673192 C5.03997605,29.3690391 4.95926351,29.2653091 4.91247143,28.9896296 C4.11995903,24.3167063 3.3139693,19.6460545 2.51388537,14.9744184 C1.67556519,10.0792707 0.840122201,5.1835929 0.00490635363,0.287915128 C-0.00531521643,0.228251445 0.00361919296,0.165256288 0.00361919296,0.0608448423 L0.379545825,0.0608448423 C2.1333401,0.0608448423 3.8872101,0.0686435216 5.64085294,0.0535004549 C5.95037723,0.0508504182 6.07068889,0.124370007 6.12565822,0.448810213 C7.17189271,6.62559143 8.23228596,12.7999498 9.28957488,18.9749138 C9.34030415,19.2709608 9.38883768,19.567462 9.43843123,19.8637361 C9.46629447,19.8669919 9.49423343,19.8701719 9.52217238,19.8734277" id="Fill-6" fill="#FFFFFF" mask="url(#mask-4)"></path>
                        </g>
                        <path d="M76.1419064,18.8028734 C76.1419064,17.5167728 76.1464494,16.2305207 76.1356221,14.94442 C76.1344106,14.7971537 76.0932215,14.5952209 75.9930501,14.5123883 C75.2143936,13.8688837 74.4062081,13.2660382 73.4286475,12.9443995 C72.16882,12.5299337 71.0105268,12.8856444 70.275861,13.9808667 C69.9854926,14.413807 69.7482765,14.9052752 69.5956344,15.4034821 C69.07388,17.1058656 69.0227722,18.8594328 69.2443152,20.608987 C69.3476667,21.4244411 69.5388479,22.2565527 69.8560951,23.0114345 C70.5158786,24.5810891 71.8457427,25.1074621 73.4577221,24.5554216 C74.3407901,24.2528632 75.0947634,23.7295188 75.8347293,23.1774783 C76.0584681,23.0106017 76.1528852,22.8341849 76.1490237,22.5478296 C76.132442,21.299738 76.1419064,20.0511921 76.1419064,18.8028734 M76.1931657,10.0918243 L76.1931657,0.110574674 L81.5700144,0.110574674 L81.5700144,29.3619067 C81.4543214,29.3690997 81.3337826,29.3829556 81.2132438,29.383107 C80.090234,29.3848485 78.9670727,29.3734912 77.84429,29.39136 C77.5494545,29.3959786 77.4317929,29.2944444 77.345326,29.0199006 C77.1382445,28.3626915 76.8898982,27.7185054 76.6445048,27.0304045 C76.2699411,27.294121 75.9274806,27.544663 75.5757072,27.7815763 C74.4518645,28.5386539 73.2906184,29.2167604 71.9397054,29.49509 C69.0897802,30.0823381 66.584057,28.9222278 65.1893805,26.3608538 C64.3164585,24.757733 63.9365946,23.0162803 63.784634,21.2176626 C63.5750539,18.7376825 63.6569779,16.275647 64.3608276,13.8682023 C64.8021723,12.3588171 65.499132,10.9864767 66.638042,9.87012977 C68.6091393,7.93802588 72.1421682,7.16981811 75.1110422,9.31150204 C75.4457039,9.55295824 75.7805172,9.79426301 76.1931657,10.0918243" id="Fill-9" fill="#FFFFFF"></path>
                        <path d="M188.682097,0.104260015 L194.102179,0.104260015 L194.102179,10.3048569 C194.308503,10.1591806 194.446533,10.0619621 194.584334,9.96444079 C195.755802,9.13550932 196.981179,8.41379076 198.424086,8.17861893 C199.793398,7.95541012 201.16642,7.90967806 202.497798,8.38274747 C204.476997,9.08614292 205.545643,10.5954524 206.008794,12.5621582 C206.197931,13.3654222 206.313473,14.2053324 206.318621,15.0295695 C206.347393,19.6846996 206.332553,24.3401326 206.332553,28.9955657 L206.332553,29.3572578 L200.87855,29.3572578 L200.87855,28.8858541 C200.87855,24.8360681 200.887257,20.786282 200.868404,16.736496 C200.86583,16.1765054 200.785875,15.6009174 200.639138,15.0604613 C200.197794,13.4350045 198.974385,12.733502 197.339615,13.1355504 C196.161561,13.4253887 195.171204,14.0754048 194.253837,14.839524 C194.148214,14.9274295 194.116262,15.1505626 194.116035,15.3110791 C194.108918,19.8277259 194.110356,24.344297 194.110356,28.8608681 L194.110356,29.3485506 L188.682097,29.3485506 L188.682097,0.104260015 Z" id="Fill-11" fill="#FFFFFF"></path>
                        <path d="M42.703789,29.3613919 L37.2499378,29.3613919 L37.2499378,28.8972569 C37.2499378,24.8466379 37.258645,20.7958676 37.2398676,16.7453244 C37.2372933,16.1850309 37.159988,15.6085344 37.0119645,15.0685326 C36.556991,13.4090039 35.3123067,12.7177986 33.6432379,13.1528589 C32.4945605,13.4522374 31.52601,14.0883219 30.6274961,14.8340422 C30.5150588,14.9273235 30.4862113,15.1695368 30.4859842,15.3428492 C30.478564,19.8604046 30.4801541,24.37796 30.4801541,28.8955154 L30.4801541,29.3604076 L25.0509861,29.3604076 L25.0509861,0.111271255 L30.4702354,0.111271255 L30.4702354,10.298618 C30.7303933,10.1184155 30.9135486,9.9930309 31.0950383,9.86537485 C32.3790946,8.96216663 33.7442421,8.24688387 35.3386556,8.09477177 C36.957828,7.94031249 38.5473957,7.99452467 39.9737212,8.91991748 C41.4118583,9.85303325 42.1284282,11.2577041 42.4563513,12.8789966 C42.6005133,13.5916293 42.6900088,14.3281881 42.6931888,15.0543738 C42.7139348,19.7106397 42.703789,24.3671327 42.703789,29.0234743 C42.703789,29.1234186 42.703789,29.2233628 42.703789,29.3613919" id="Fill-13" fill="#FFFFFF"></path>
                        <path d="M49.4509565,16.668284 L56.5618378,16.668284 C56.4688594,15.9811674 56.437589,15.3126767 56.2804039,14.6751536 C55.9007672,13.1354065 54.8811846,12.2758861 53.4000412,12.1593602 C51.7991162,12.0334456 50.5956967,12.7489555 49.9543878,14.2053399 C49.6138959,14.9784692 49.4925243,15.7949834 49.4509565,16.668284 M61.5699529,20.5622479 L49.5480236,20.5622479 C49.4098431,22.628368 50.4195828,24.5030796 52.4997102,25.0951735 C53.8042097,25.4665572 55.1261994,25.4067421 56.437059,25.1930735 C57.7539758,24.9783448 59.0571124,24.6795721 60.4168083,24.4075269 C60.7107353,25.5957276 61.0147323,26.8246632 61.3372039,28.1284055 C60.3326886,28.4492114 59.3631537,28.8027263 58.36992,29.0675028 C55.8078645,29.7505308 53.2177944,29.8674353 50.6225756,29.2683756 C47.6363628,28.5790632 45.643611,26.7483421 44.7934035,23.819143 C43.7914625,20.3674324 43.808347,16.876804 45.006315,13.4729455 C46.1308391,10.2777584 48.5008805,8.54251439 51.8452268,8.13016869 C53.3859582,7.94019891 54.9210108,7.97078791 56.4113915,8.45748607 C59.2091488,9.37099158 60.7479115,11.3985725 61.405802,14.1840639 C61.8283693,15.9735201 61.7762772,17.7866752 61.6575555,19.6018746 C61.6372638,19.9121561 61.6014504,20.2213775 61.5699529,20.5622479" id="Fill-15" fill="#FFFFFF"></path>
                        <path d="M134.385851,16.6624388 L141.424122,16.6624388 C141.4404,15.747419 141.33402,14.8847185 141.003447,14.0505626 C140.054204,11.6549295 136.629751,11.6119232 135.368258,13.3668532 C134.662969,14.347821 134.415835,15.4540978 134.385851,16.6624388 L134.385851,16.6624388 Z M134.457251,20.5582199 C134.366771,22.7653976 135.405661,24.6202718 137.666672,25.1598193 C139.057336,25.4916796 140.45224,25.3690207 141.833893,25.1253688 C142.900041,24.9373676 143.951121,24.6637324 145.009091,24.4293177 C145.104795,24.4081174 145.202392,24.3951701 145.330351,24.3729098 C145.63715,25.6086598 145.939633,26.8272224 146.254911,28.0974228 C145.600049,28.3287331 144.967296,28.5685236 144.324322,28.7766651 C141.662852,29.637927 138.947624,29.8896048 136.185756,29.4057081 C132.84512,28.8202771 130.581383,26.9446568 129.668786,23.6471783 C128.728704,20.2505128 128.756492,16.8278768 129.927884,13.4867863 C131.050667,10.2844062 133.415711,8.55188795 136.756423,8.13151642 C138.231357,7.94593814 139.703718,7.9689556 141.141628,8.39841297 C143.942338,9.23514313 145.559466,11.1833744 146.274294,13.9480441 C146.816719,16.0460403 146.702843,18.1751555 146.529607,20.3051792 C146.508179,20.5691986 146.353796,20.560037 146.167612,20.5595827 C145.082762,20.556857 143.997913,20.5582199 142.912988,20.5582199 L134.927746,20.5582199 L134.457251,20.5582199 Z" id="Fill-17" fill="#FFFFFF"></path>
                        <path d="M176.570968,13.0619324 L174.464718,13.0619324 L174.464718,8.45147428 L176.607235,8.45147428 L176.607235,2.48737743 L182.016414,2.48737743 L182.016414,8.44026841 L186.395108,8.44026841 L186.395108,13.0461836 L182.023153,13.0461836 C182.013916,13.2204046 182.000893,13.3529064 182.000817,13.4854082 C181.999606,16.4760882 181.987718,19.4669196 182.011417,22.4574482 C182.015581,22.9778396 182.119463,23.5125413 182.269985,24.0126411 C182.449506,24.6092779 182.90819,24.9601428 183.546091,24.956357 C184.098056,24.9531013 184.650021,24.880566 185.201153,24.8298367 C185.373102,24.8140122 185.542326,24.7694159 185.74759,24.7314825 C186.041669,26.1916527 186.329235,27.6194925 186.622557,29.0761798 C185.661275,29.3925942 184.701507,29.5823368 183.717814,29.6223145 C182.219104,29.6832653 180.740005,29.5663609 179.336773,28.976917 C177.499086,28.2048477 176.57286,26.8159256 176.571649,24.8202966 C176.569226,21.0724633 176.570892,17.3245542 176.570892,13.5766452 C176.570892,13.4265774 176.570968,13.2764339 176.570968,13.0619324" id="Fill-19" fill="#FFFFFF"></path>
                        <mask id="mask-6" fill="white">
                            <use xlink:href="#path-5"></use>
                        </mask>
                        <g id="Clip-22"></g>
                        <polygon id="Fill-21" fill="#FFFFFF" mask="url(#mask-6)" points="166.795277 29.3584693 172.199384 29.3584693 172.199384 0.106682905 166.795277 0.106682905"></polygon>
                    </g>
                </g>
            </g>
        </g>
    </g>
</svg>