<svg xmlns="http://www.w3.org/2000/svg" width="88" height="81" viewBox="0 0 88 81">
    <path fill="#FFF" fill-rule="evenodd" d="M77.719 47.614c-1.372 1.246-2.658 1.158-4.867-.348l-11.46-11.287-4.207 4.143 11.399 11.226c1.205 1.977 1.084 3.704-.37 5.135-.232.23-2.278 2.103-5.27.665L51.612 45.875l-4.227 4.122 11.243 11.186-.024.027c.076.099 1.852 2.44.008 4.626-1.374 1.63-2.878 1.352-3.649 1.04-.38-1.592-1.194-3.056-2.397-4.241-1.709-1.683-3.98-2.61-6.397-2.61-.079 0-.155.01-.233.011.002-.08.012-.16.012-.241 0-2.38-.941-4.618-2.65-6.3-1.977-1.947-4.649-2.802-7.237-2.566.015-.209.031-.417.031-.628 0-2.38-.94-4.618-2.65-6.3-1.895-1.867-4.429-2.721-6.915-2.581.01-.181.026-.362.026-.545 0-2.38-.94-4.617-2.649-6.3-3.527-3.473-9.266-3.473-12.794 0l-2.72 2.679C5.653 32.21.96 20.648 9.588 12.176c4.827-4.74 11.153-6.27 18.806-4.549 3.806.857 7.3 2.416 9.73 3.755l-8.255 8.13c-3.563 3.509-3.563 9.22 0 12.728 1.727 1.7 4.022 2.637 6.463 2.637 2.082 0 4.054-.686 5.661-1.941l.025.026.499-.473c.092-.083.189-.16.278-.248l-.008-.008 8.773-8.303.068-.066c.07-.07 1.74-1.68 4.316-1.68 2.491 0 4.418 2.133 4.421 2.136l.07.078c.603.654 14.801 16.033 16.695 17.912.793.787 1.634 2.176 1.608 3.367-.01.443-.127 1.127-1.018 1.937M47.822 69.51l-3.739 3.738c-.521.52-1.215.808-1.952.808-.738 0-1.432-.287-1.953-.808-.522-.522-.81-1.215-.81-1.952 0-.737.288-1.43.81-1.95l3.739-3.738c.521-.521 1.215-.809 1.953-.809.737 0 1.43.288 1.953.809.52.521.809 1.214.809 1.951 0 .737-.288 1.43-.81 1.951m-16.908-5.52c-.522-.521-.809-1.214-.809-1.952 0-.737.287-1.43.809-1.951l3.74-3.738c1.077-1.076 2.829-1.076 3.905 0 .522.522.81 1.215.81 1.952 0 .737-.288 1.43-.81 1.951l-3.74 3.738c-.521.521-1.215.809-1.952.809-.738 0-1.432-.288-1.953-.81m-9.263-9.255c-.522-.52-.809-1.214-.809-1.952 0-.737.287-1.43.809-1.952l3.74-3.738c1.077-1.076 2.829-1.076 3.905 0 .522.521.81 1.215.81 1.952 0 .738-.288 1.43-.81 1.952l-3.739 3.738c-1.077 1.077-2.83 1.077-3.906 0m-9.264-9.257c-1.077-1.076-1.077-2.827 0-3.904l3.74-3.738c1.077-1.076 2.83-1.077 3.906 0 .522.521.81 1.215.81 1.952 0 .737-.288 1.43-.81 1.952l-3.74 3.738c-1.077 1.076-2.829 1.077-3.906 0m65.39-32.986c8.589 8.118 5.37 17.528 2.846 22.222-3.7-3.785-10.165-10.488-13.954-14.426-.541-.588-3.91-4.02-8.98-4.02-4.908 0-8.033 2.76-8.594 3.296l-9.129 8.29c-.57.436-1.273.675-2.017.675-.858 0-1.664-.316-2.271-.89-.607-.573-.941-1.335-.941-2.146 0-.811.334-1.573.94-2.147l11.758-11.11c5.103-4.823 20.437-9.104 30.342.256m2.983-5.058C69.46-3.763 51.708-.766 43.47 6.295c-2.969-1.83-7.618-4.058-12.693-5.207-9.558-2.163-17.904-.055-24.134 6.1C-4.768 18.461.948 34.272 5.888 41.63c-.872 3.01-.117 6.39 2.271 8.758 1.75 1.733 4.048 2.6 6.346 2.6.172 0 .343-.015.515-.025-.011.181-.027.36-.027.543 0 2.376.934 4.61 2.629 6.29 1.75 1.733 4.047 2.6 6.345 2.6.278 0 .556-.015.833-.04-.015.208-.03.417-.03.627 0 2.376.933 4.609 2.627 6.288 1.695 1.68 3.949 2.605 6.346 2.605.077 0 .153-.01.23-.011-.002.08-.011.16-.011.241 0 2.376.933 4.61 2.628 6.289C38.285 80.075 40.54 81 42.936 81c2.396 0 4.65-.925 6.345-2.604l4.161-4.124c.735-.729 1.317-1.566 1.752-2.469.584.117 1.212.19 1.871.19 2.225 0 4.77-.808 6.913-3.365 1.676-2 2.227-4.118 2.18-6.046 2.29-.005 4.799-.73 6.98-2.893 1.977-1.958 2.804-4.15 2.888-6.279 2.733.177 4.868-1.038 6.369-2.41 1.85-1.693 2.856-3.803 2.907-6.104.052-2.35-.865-4.332-1.777-5.715 1.141-1.91 2.784-5.116 3.727-9.03 2.07-8.601-.175-16.457-6.492-22.717"/>
</svg>
