<svg xmlns="http://www.w3.org/2000/svg" xmlns:xlink="http://www.w3.org/1999/xlink" width="179" height="53" viewBox="0 0 179 53">
    <defs>
        <path id="prefix__a" d="M0.282 0.938L43.015 0.938 43.015 49.283 0.282 49.283z"/>
        <path id="prefix__c" d="M0.634 0.054L9.878 0.054 9.878 15.6 0.634 15.6z"/>
    </defs>
    <g fill="none" fill-rule="evenodd">
        <g transform="translate(17.647)">
            <mask id="prefix__b" fill="#fff">
                <use xlink:href="#prefix__a"/>
            </mask>
            <path fill="#FFF" d="M14.954 13.546c-.525-.578-.478-1.453.107-1.975.568-.508 1.457-.475 1.984.07l.03.032c3.684 4.028 6.225 8.461 7.368 12.558.692 2.482.877 4.853.502 6.957-.394 2.212-1.394 4.132-3.057 5.598-1.17 1.034-2.661 1.826-4.492 2.318-.757.196-1.535-.233-1.74-.96l-.005-.02c-.207-.744.24-1.512.997-1.714 1.375-.37 2.48-.953 3.333-1.704 1.164-1.027 1.868-2.4 2.153-4 .304-1.706.145-3.662-.435-5.741-1.027-3.682-3.351-7.71-6.745-11.418zm3.078 35.327c-.54.535-1.43.549-1.988.03l-.032-.03c-.556-.553-.556-1.43 0-1.982L36.08 27.18c2.72-2.67 4.08-6.193 4.08-9.715 0-3.524-1.36-7.046-4.08-9.718-2.6-2.563-6.168-4.008-9.894-4.004-3.588 0-7.175 1.334-9.893 4.004l-4.412 4.333c-4.165 4.09-6.998 8.708-8.162 12.884-.557 2.002-.727 3.894-.466 5.56.245 1.556.877 2.907 1.933 3.943.883.868 2.07 1.534 3.583 1.942.758.202 1.205.97.998 1.714-.192.73-.964 1.17-1.723.985l-.022-.005c-2.027-.545-3.636-1.457-4.855-2.652C1.663 34.974.768 33.09.431 30.941c-.319-2.039-.122-4.322.544-6.71 1.293-4.637 4.378-9.705 8.886-14.133l4.412-4.332C17.401 2.677 21.7.936 26.186.938c4.317 0 8.635 1.61 11.912 4.828 3.278 3.219 4.917 7.46 4.917 11.7 0 4.239-1.639 8.48-4.917 11.699L18.032 48.874v-.001z" mask="url(#prefix__b)"/>
        </g>
        <path fill="#FFF" d="M31.343 52.198l-.004.007-.012.021-.004.008-.014.022-.005.008-.012.02-.005.01-.015.02-.005.008-.012.017-.008.012c-.013.018-.025.035-.039.051v.001l-.022.027c-.061.072-.13.14-.205.2l-.028.02v.002c-.018.013-.035.026-.053.037l-.012.01-.018.011-.008.006-.023.013-.007.005-.02.012-.01.006-.023.012-.007.003-.03.017c-.41.21-.902.21-1.312 0l-.008-.004-.022-.013-.007-.003-.023-.012-.009-.006-.02-.012-.008-.005-.022-.013-.008-.006-.018-.012-.013-.01c-.018-.01-.035-.022-.051-.036h-.001l-.028-.022c-.04-.031-.08-.065-.116-.103L4.882 28.907C1.627 25.732 0 21.547 0 17.363 0 13.18 1.627 8.995 4.88 5.82c2.967-2.906 6.992-4.608 11.24-4.75 4.244-.147 8.383 1.276 11.554 3.973.59.5.655 1.37.143 1.947-.493.562-1.37.638-1.96.167l-.032-.027c-2.64-2.243-6.085-3.428-9.616-3.302-3.526.12-6.866 1.534-9.325 3.948-2.7 2.635-4.05 6.112-4.05 9.588 0 3.476 1.35 6.953 4.05 9.589l21.785 21.265V34.438l-4.479-4.373c-.553-.545-.553-1.41 0-1.955.537-.528 1.42-.542 1.974-.03l.03.03 2.475 2.413v-3.418l-4.479-4.373c-.553-.545-.553-1.41 0-1.956.536-.528 1.42-.542 1.972-.03l.032.03 2.475 2.415V18.05c0-.766.635-1.386 1.417-1.386.783 0 1.417.62 1.417 1.385v5.141l2.475-2.414c.536-.528 1.419-.542 1.972-.03l.032.03c.553.54.553 1.416 0 1.956l-4.479 4.373v3.418l2.475-2.413c.537-.528 1.42-.542 1.974-.03l.03.03c.553.54.553 1.415 0 1.955l-4.479 4.373v17.12c0 .23-.058.448-.16.639zM77.821 28.773h5.315c1.426 0 2.529-.297 3.311-.891.783-.594 1.173-1.504 1.173-2.73s-.39-2.117-1.173-2.673c-.782-.556-1.885-.834-3.31-.834H77.82v7.128zm5.464-9.714c.97 0 1.885.12 2.747.36.86.239 1.618.608 2.271 1.106.653.498 1.173 1.13 1.56 1.896.385.766.578 1.677.578 2.73 0 1.055-.193 1.97-.579 2.745-.386.776-.906 1.423-1.559 1.94-.653.517-1.41.9-2.271 1.15-.862.248-1.778.373-2.747.373H77.82v7.042c0 .21-.079.392-.238.546-.158.153-.346.23-.564.23h-1.217c-.218 0-.406-.077-.564-.23-.16-.154-.238-.335-.238-.546V19.835c0-.211.079-.393.238-.546.158-.153.346-.23.564-.23h7.483zM98.162 38.371c0 .22-.097.407-.291.567-.194.16-.424.238-.691.238h-1.345c-.267 0-.497-.079-.691-.238-.194-.16-.291-.348-.291-.567V18.804c0-.219.097-.407.29-.566.195-.16.425-.238.692-.238h1.345c.267 0 .497.078.69.238.195.16.292.347.292.566v19.567zM108.146 36.647c.727 0 1.393-.107 2-.324.605-.215 1.125-.514 1.559-.897.433-.382.767-.838 1-1.367.231-.53.348-1.118.348-1.765v-.735l-3.574.558c-1.272.196-2.282.51-3.029.942-.747.43-1.12.99-1.12 1.676 0 .215.05.431.151.647.101.215.262.422.485.618.222.196.509.353.863.47.353.118.792.177 1.317.177m-5.572-1.619c0-.783.161-1.47.484-2.057.323-.59.768-1.09 1.333-1.501.565-.411 1.226-.744 1.984-1 .757-.254 1.56-.45 2.407-.588l4.27-.677v-.382c0-1-.337-1.75-1.014-2.25s-1.52-.75-2.529-.75c-.889 0-1.56.158-2.014.47-.454.315-.843.687-1.166 1.118-.121.158-.253.265-.394.324-.14.058-.333.088-.575.088h-.909c-.222 0-.419-.079-.59-.235-.172-.157-.248-.343-.227-.56.04-.43.216-.87.53-1.322.313-.451.736-.853 1.272-1.207.534-.353 1.15-.641 1.847-.867.697-.225 1.439-.338 2.226-.338.909 0 1.752.127 2.53.382.776.255 1.442.627 1.998 1.118.556.49.99 1.098 1.302 1.824.314.725.47 1.558.47 2.5v8.97c0 .216-.082.402-.242.56-.162.156-.354.234-.576.234h-1.12c-.223 0-.415-.078-.576-.235-.162-.157-.242-.343-.242-.56v-1.205c-.182.373-.465.702-.848.986-.385.284-.824.524-1.318.72-.495.196-1.01.342-1.544.441-.535.098-1.036.147-1.5.147-.787 0-1.51-.108-2.165-.324-.656-.215-1.212-.504-1.666-.867-.454-.362-.808-.798-1.06-1.31-.253-.508-.378-1.057-.378-1.647M134.559 38.367c0 .22-.083.41-.248.57-.166.16-.362.24-.59.24h-1.148c-.228 0-.424-.08-.59-.24-.166-.16-.248-.35-.248-.57v-7.91c0-1.539-.383-2.687-1.149-3.447-.766-.759-1.83-1.139-3.196-1.139-1.304 0-2.354.38-3.15 1.139-.797.76-1.195 1.908-1.195 3.447v7.91c0 .22-.084.41-.248.57-.166.16-.362.24-.59.24h-1.148c-.228 0-.424-.08-.59-.24-.166-.16-.248-.35-.248-.57V24.403c0-.22.082-.41.248-.57.166-.159.362-.238.59-.238h1.148c.228 0 .424.08.59.239.164.16.248.35.248.569v.929c.393-.5.977-.964 1.753-1.394.776-.428 1.795-.644 3.057-.644.972 0 1.873.155 2.7.465.828.31 1.537.749 2.126 1.32.59.568 1.05 1.272 1.381 2.11.331.84.497 1.78.497 2.818v8.36zM142.713 33.957c0 .377.036.73.109 1.059.072.327.201.611.387.85.186.238.45.422.79.552.34.128.78.193 1.317.193h1.642c.227 0 .423.08.588.239.166.158.248.349.248.567v.953c0 .22-.082.408-.248.568-.165.16-.36.238-.588.238h-1.952c-1.797 0-3.098-.448-3.904-1.343-.805-.894-1.208-2.186-1.208-3.876v-7.725H137.6c-.227 0-.423-.08-.588-.239-.166-.159-.248-.347-.248-.566v-.956c0-.218.082-.406.248-.565.165-.16.36-.24.588-.24h2.293v-4.862c0-.218.082-.406.248-.565.165-.16.36-.239.588-.239h1.147c.227 0 .423.08.588.239.166.159.248.347.248.565v4.863h3.935c.226 0 .423.08.588.239.166.159.248.347.248.565v.956c0 .219-.082.407-.248.566-.165.16-.362.239-.588.239h-3.935v7.725zM153.94 29.853h8.711v-.089c0-1.194-.398-2.151-1.193-2.867-.797-.715-1.856-1.074-3.178-1.074-.6 0-1.158.094-1.674.28-.516.186-.972.451-1.364.794-.393.344-.703.76-.93 1.25-.228.49-.352 1.03-.372 1.617v.089zm-2.76-.089c.083-.901.31-1.744.683-2.529.372-.784.857-1.47 1.457-2.059.6-.588 1.317-1.048 2.154-1.382.837-.333 1.772-.5 2.806-.5 1.116 0 2.113.172 2.992.515.878.344 1.627.838 2.247 1.485.62.647 1.096 1.432 1.426 2.354.33.922.496 1.95.496 3.087v.794c0 .217-.082.402-.248.56-.165.157-.361.234-.589.234H153.94v.176c.04 1.334.47 2.358 1.286 3.075.816.715 1.834 1.073 3.054 1.073 1.136 0 1.989-.151 2.558-.457.568-.304 1.027-.642 1.38-1.014.164-.156.31-.265.433-.324.124-.059.31-.088.558-.088h.93c.228 0 .434.08.62.236.186.156.259.343.217.558-.062.353-.238.74-.527 1.163-.29.422-.708.812-1.255 1.175-.549.363-1.23.667-2.046.912-.817.245-1.773.368-2.868.368-1.034 0-1.964-.172-2.79-.515-.827-.343-1.545-.813-2.155-1.412-.61-.598-1.1-1.303-1.472-2.117-.372-.814-.6-1.7-.682-2.661-.104-.903-.104-1.804 0-2.707z"/>
        <g transform="translate(168.75 23.294)">
            <mask id="prefix__d" fill="#fff">
                <use xlink:href="#prefix__c"/>
            </mask>
            <path fill="#FFF" d="M9.02.054c.233 0 .434.08.604.24.169.159.254.348.254.566v.958c0 .22-.085.408-.254.568-.17.16-.371.24-.604.24H7.178c-2.436 0-3.653 1.145-3.653 3.437v8.729c0 .22-.085.41-.254.569-.17.16-.371.239-.604.239H1.492c-.233 0-.434-.08-.603-.24-.17-.159-.255-.348-.255-.568V.86C.634.642.72.453.89.293c.17-.16.37-.239.603-.239h1.175c.233 0 .434.08.604.24.169.159.254.348.254.566v.927C3.948 1.19 4.456.752 5.05.472 5.642.193 6.416.054 7.369.054H9.02z" mask="url(#prefix__d)"/>
        </g>
    </g>
</svg>
