<svg xmlns="http://www.w3.org/2000/svg" width="139" height="50" viewBox="0 0 139 50">
    <g fill="#FFF" fill-rule="evenodd">
        <path d="M107.628 4.104V.264h-7.326V7.49h3.651c-.238 1.169-.985 2.458-2.392 3.881l2.093 2.006c1.786-1.816 2.844-3.23 3.49-5.184.425-1.29.487-2.898.484-4.089M24.568 26.873v2.921H7.393c.581 4.853 3.435 6.052 5.972 6.052 3.17 0 4.545-1.251 5.285-3.078l5.707 2.296c-1.639 4.174-5.444 6.469-11.257 6.469C5.015 41.533.206 36.316.206 27.76c0-7.409 4.44-13.148 12.683-13.148 7.293 0 11.68 5.374 11.68 12.26zm-17.07-1.67h10.676c-.106-2.869-2.114-5.008-5.074-5.008-3.17 0-5.02 1.93-5.601 5.008zM51.52 41.116h-7.134V25.203c0-3.234-1.163-4.8-3.858-4.8-2.061 0-3.488.679-4.862 1.827v18.886h-7.134V15.03h6.87v1.93c2.325-1.565 4.597-2.348 6.976-2.348 2.325 0 4.808.836 6.394 3.34 1.955-1.983 4.862-3.34 8.614-3.34 4.598 0 9.988 1.983 9.988 10.278v16.226H60.24V25.203c0-3.182-1.11-4.747-3.752-4.747-3.066 0-4.968 2.087-4.968 4.904v15.756M71.866 15.03h6.711v1.879c2.115-1.514 4.07-2.14 6.923-2.14 6.395 0 10.675 4.748 10.675 12.782 0 7.617-4.703 13.617-13.158 13.617-1.322 0-2.695-.052-4.017-.209v8.243h-7.134V15.03zM79 22.02v13.46c1.269.105 2.378.105 4.017.105 3.91 0 5.971-3.183 5.971-8.348 0-4.539-1.69-6.626-5.337-6.626-1.85 0-3.33.418-4.65 1.41zM101.532 20.769L97.833 20.769 97.833 15.03 108.666 15.03 108.666 41.116 101.532 41.116 101.532 20.769M114.205 3.552L121.34 3.552 121.34 24.995 124.14 24.995 130.852 15.03 138.514 15.03 130.218 26.925 138.991 41.116 131.063 41.116 124.298 30.63 121.34 30.63 121.34 41.116 114.205 41.116 114.205 3.552"/>
    </g>
</svg>
