<svg xmlns="http://www.w3.org/2000/svg" width="96" height="96" viewBox="0 0 96 96">
    <g fill="#FFF" fill-rule="nonzero">
        <path d="M38.687 51.582h1.146c1.146 0 2.006.573 2.006 1.72 0 .573-.287 1.719-2.006 1.719h-1.146v-3.439zm-3.01 9.6h3.01V57.17l2.865 4.012h3.582l-3.295-4.155c2.292-.43 3.009-2.436 3.009-3.869 0-1.29-.43-2.579-1.576-3.295-.86-.573-1.576-.86-3.726-.86h-3.868v12.18zM58.173 56.597c0-1.003.717-2.436 2.293-2.436s2.292 1.29 2.292 2.293c0 .86-.573 2.292-2.292 2.292-1.72.144-2.293-1.29-2.293-2.149zm7.308-4.585h-2.723v1.003c-.286-.573-1.146-1.29-2.722-1.29-2.436 0-4.585 1.863-4.585 4.872 0 2.58 1.72 4.872 4.585 4.872 1.146 0 2.292-.43 2.722-1.29v1.003h2.723v-9.17zM68.776 56.597c0-1.003.717-2.293 2.293-2.293s2.292 1.147 2.292 2.293c0 1.003-.573 2.436-2.292 2.436-1.29-.143-2.293-1.003-2.293-2.436zm7.164-7.737h-2.722v3.868a3.685 3.685 0 0 0-2.722-1.146c-2.293 0-4.586 1.72-4.586 4.872 0 2.722 1.863 4.871 4.586 4.871 1.862 0 2.579-.86 2.722-1.29v1.004h2.722v-12.18z"/>
        <path d="M47.713 56.597c0-1.29 1.003-2.293 2.15-2.293 1.146 0 2.149 1.003 2.149 2.293 0 1.29-1.003 2.293-2.15 2.293-1.146 0-2.149-1.003-2.149-2.293m-2.865 0c0 2.293 1.576 4.872 5.015 4.872 3.295 0 5.015-2.58 5.015-4.872 0-2.293-1.577-4.872-5.015-4.872-3.296 0-5.015 2.58-5.015 4.872M84.68 38.687l-1.719 5.301h-.143l-1.863-5.301H78.09l3.438 8.74-1.432 3.582h2.865l4.585-12.322zM71.785 42.269c.143-.573.716-1.576 2.15-1.576 1.432 0 2.005 1.003 2.149 1.576h-4.299zm3.725 2.722c-.43.43-.86.86-1.719.86-1.146 0-2.006-.717-2.15-1.72h6.878v-.716c0-2.866-2.006-5.015-4.871-5.015-2.866 0-4.872 2.436-4.872 5.015 0 2.722 2.293 4.872 4.872 4.872 1.003 0 1.862-.287 2.579-.86.716-.573 1.433-1.29 1.863-2.293h-2.58v-.143zM61.182 43.272c0-1.147.86-2.293 2.293-2.293 1.432 0 2.292 1.146 2.292 2.293 0 1.146-.86 2.292-2.292 2.292-1.433 0-2.293-1.003-2.293-2.292zm-2.722 4.585h2.579v-1.003c.286.716 1.29 1.29 2.579 1.29 2.292 0 4.585-1.72 4.585-5.016 0-3.438-2.58-4.871-4.585-4.871-.43 0-1.72 0-2.722 1.003V35.39h-2.723v12.466h.287zM50.58 43.272c0-1.147.859-2.293 2.292-2.293 1.432 0 2.292 1.146 2.292 2.293 0 1.146-.86 2.292-2.292 2.292-1.433 0-2.293-1.003-2.293-2.292zm-2.723 4.585h2.579v-1.003c.286.716 1.29 1.29 2.579 1.29 2.292 0 4.728-1.72 4.728-5.016 0-3.438-2.579-4.871-4.585-4.871-.43 0-1.72 0-2.722 1.003V35.39h-2.723v12.466h.144zM42.699 43.988h-2.436l1.146-2.579 1.29 2.58zm5.014 3.869L41.41 35.534l-6.305 12.323H38.4l.86-1.72h4.298l.86 1.72h3.295z"/>
        <path d="M0 0v64.048L31.952 96V31.952H96L64.048 0z"/>
        <path d="M57.17 65.624h-2.579v4.585c0 1.29-.716 1.72-1.433 1.72-1.433 0-1.433-1.147-1.433-1.72v-4.728h-2.579v5.158c0 1.146.144 1.72.717 2.579.716 1.003 2.006 1.146 2.579 1.146.716 0 1.72-.143 2.292-1.146v.86h2.436v-8.454zm-9.886-2.866h-2.58v2.866h-1.29v2.006h1.29v6.59h2.58v-6.59h1.29v-2.006h-1.29v-2.866zm-4.156 3.296c0-.717-.143-1.433-.716-2.293-.716-.86-2.006-1.29-3.152-1.29-1.863 0-4.012 1.29-4.012 3.296 0 2.15 2.006 3.01 2.722 3.296 1.72.716 2.293.86 2.293 1.72 0 .572-.43 1.145-1.147 1.145-.43 0-1.146-.286-1.146-1.576h-2.866v.43c0 1.433.86 3.582 4.156 3.582 3.009 0 4.012-1.863 4.012-3.439 0-1.29-.573-2.292-2.723-3.295-2.006-.86-2.292-1.003-2.292-1.72 0-.573.43-.86 1.003-.86.86 0 1.003.717 1.003 1.147h2.865v-.143zM60.466 69.78c0-1.004.716-2.15 2.149-2.15s2.15 1.146 2.15 2.15c0 .859-.574 2.148-2.15 2.148-1.29.144-2.15-.86-2.15-2.149zm6.734-7.022h-2.58v3.582c-.286-.286-1.002-1.003-2.578-1.003-2.15 0-4.299 1.72-4.299 4.585 0 2.58 1.72 4.585 4.299 4.585 1.72 0 2.292-.86 2.579-1.146v.86h2.436V62.758h.143zM87.26 67.916c-.287-2.292-2.15-2.722-3.296-2.722-1.72 0-3.295 1.146-3.295 2.866 0 1.146.86 1.862 2.006 2.292 1.576.573 2.292.717 2.292 1.433 0 .43-.43.716-.86.716-.143 0-.86 0-1.003-.716h-2.579c.287 2.293 2.15 2.866 3.44 2.866 1.862 0 3.438-1.147 3.438-2.866 0-1.863-1.576-2.292-3.009-2.722-.716-.144-1.29-.43-1.29-.86 0-.287.144-.573.717-.573.716 0 .716.43.86.716h2.579v-.43zM73.79 69.78c0-1.29 1.003-2.15 2.006-2.15 1.146 0 2.006.86 2.006 2.15s-1.003 2.15-2.006 2.15c-1.146.143-2.006-.86-2.006-2.15zm-2.58 0c0 2.15 1.434 4.585 4.586 4.585s4.585-2.436 4.585-4.585c0-2.15-1.433-4.585-4.585-4.585-3.152.143-4.585 2.58-4.585 4.585zm-.715-7.02h-2.58v2.005h2.58v-2.006zm0 2.865h-2.58v8.597h2.58v-8.597z"/>
    </g>
</svg>
