<svg xmlns="http://www.w3.org/2000/svg" xmlns:xlink="http://www.w3.org/1999/xlink" width="68" height="68" viewBox="0 0 68 68">
    <defs>
        <path id="a" d="M0 .069h67.931V68H.001z"/>
    </defs>
    <g fill="none" fill-rule="evenodd">
        <path fill="#FFF" d="M27 48h14l-.919-4.052h-7.11l.022-.064L40.578 21H27.64l.754 3.807h6.486l-.023.066zM18.576 30.47h.05l2.062-.003c1.044 0 1.965.918 1.965 1.962 0 1.05-.92 2.046-1.965 2.046l-2.063.003h-.049v-4.007zm-3.725 10.127h3.725v-3.182h.05l2.394.002c2.722 0 5.008-2.356 5.008-5.076 0-2.724-2.286-5.012-5.008-5.012h-6.641l.472 3.135v10.133zM48.453 40.974h.013a5.916 5.916 0 0 0 5.916-5.934v-8.011l-3.765.61.009 7.578a2.17 2.17 0 0 1-2.167 2.172 2.17 2.17 0 0 1-2.165-2.172l.004-8.188-3.76.61v7.4a5.915 5.915 0 0 0 5.915 5.935"/>
        <g>
            <mask id="b" fill="#fff">
                <use xlink:href="#a"/>
            </mask>
            <path fill="#FFF" d="M10.082 34.036c.023-13.147 10.739-23.862 23.887-23.885 13.142.023 23.856 10.738 23.884 23.885-.028 13.148-10.742 23.862-23.883 23.882-13.15-.02-23.865-10.734-23.888-23.882M0 34.04C0 52.765 15.238 68 33.97 68c18.723 0 33.96-15.235 33.961-33.961C67.93 15.312 52.693.072 33.97.069 15.24.072 0 15.312 0 34.039" mask="url(#b)"/>
        </g>
    </g>
</svg>
