<svg xmlns="http://www.w3.org/2000/svg" xmlns:xlink="http://www.w3.org/1999/xlink" width="129" height="57" viewBox="0 0 129 57">
    <defs>
        <path id="prefix__a" d="M0 0.094L61.764 0.094 61.764 40.074 0 40.074z"/>
    </defs>
    <g fill="none" fill-rule="evenodd">
        <path fill="#FEFEFE" d="M90.221 46.96c.115-.09.205-.209.262-.343.062-.185.089-.38.08-.575V29.98h4.762c.289.008.577-.025.856-.1.222-.072.405-.23.508-.438.171-.365.283-.755.332-1.155.069-.39.108-.785.118-1.182.006-.19-.015-.38-.064-.564-.042-.135-.131-.25-.252-.327-.102-.058-.215-.097-.332-.116-.207-.03-.416-.042-.626-.037H81.04c-.288-.008-.577.026-.855.1-.232.067-.426.226-.536.438-.165.318-.277.66-.331 1.013-.08.43-.119.866-.118 1.303.001.198.031.396.091.585.042.138.136.255.262.327.3.128.627.18.953.153h5.301v16.052c-.043.347.091.693.359.923.289.218.97.327 2.044.327 1.073 0 1.742-.105 2.006-.317l.005-.005zm23.337.106c.994-.318 1.906-.844 2.675-1.54.699-.638 1.234-1.43 1.562-2.311.335-.94.502-1.931.492-2.928V27.222c.042-.342-.08-.684-.331-.924-.314-.218-.984-.327-2.012-.327-1.027 0-1.708.11-2.044.327-.123.08-.22.194-.278.328-.071.19-.107.392-.107.596v13.007c-.003.54-.095 1.074-.273 1.583-.215.577-.64 1.055-1.193 1.34-.75.383-1.59.565-2.434.527-.605.013-1.209-.07-1.787-.248-.452-.14-.865-.38-1.21-.701-.316-.306-.555-.682-.695-1.097-.15-.455-.224-.93-.219-1.409V27.222c.042-.342-.08-.684-.332-.924-.313-.218-.984-.327-2.011-.327-1.027 0-1.709.11-2.044.327-.124.08-.22.194-.278.328-.057.193-.079.395-.064.596v13.06c-.01.997.157 1.988.492 2.928.319.886.847 1.685 1.54 2.331.772.69 1.684 1.208 2.676 1.52 2.568.738 5.296.738 7.864 0l.01.005zm14.242-.106c.117-.091.21-.209.273-.343.066-.184.095-.38.085-.575v-18.82c.01-.2-.02-.398-.085-.586-.06-.13-.155-.243-.273-.327-.29-.218-.96-.327-2.012-.327s-1.733.11-2.043.327c-.119.084-.213.196-.273.327-.06.19-.084.388-.07.586v18.831c-.034.338.087.673.332.912.289.219.97.327 2.043.327 1.074 0 1.748-.11 2.023-.332z" transform="translate(.64 .871)"/>
        <g transform="translate(.64 .871) translate(0 15.871)">
            <mask id="prefix__b" fill="#fff">
                <use xlink:href="#prefix__a"/>
            </mask>
            <path fill="#FEFEFE" d="M3.306.094h16.659c1.645 0 2.862.528 3.343 2.806.534 2.551.331 4.327-2.585 4.527l-5.234.37c3.856 24.039 26.342 31.88 38.588 5.975 2.03-4.284 2.67-5.066 4.909-4.522 3.006.74 3.418 2.282 1.976 6.588C50.392 47.771 14.81 50.972 7.83 8.341l-4.235.302C.139 8.885 0 6 0 4.416-.01 1.23 1.18.094 3.306.094" mask="url(#prefix__b)"/>
        </g>
        <path fill="#FEFEFE" d="M64.08 0c3.579 0 6.48 2.907 6.48 6.493 0 3.586-2.901 6.493-6.48 6.493-3.579 0-6.48-2.907-6.48-6.493C57.6 2.907 60.501 0 64.08 0" transform="translate(.64 .871)"/>
    </g>
</svg>
