<svg xmlns="http://www.w3.org/2000/svg" width="121" height="34" viewBox="0 0 121 34">
    <path fill="#FFF" fill-rule="evenodd" d="M102.485 16.006c-.222-.962-.66-1.804-1.445-2.406-1.618-1.241-3.387-1.319-5.192-.521-1.279.565-1.965 1.658-2.285 3.06h8.923c0-.058.007-.097-.001-.133zm3.787 3.118c-.016.094-.036.188-.06.31H93.684c-.038 1.1 1.382 2.725 2.865 3.23 1.891.643 4.486.405 5.945-2.003l3.16 1.99a8.367 8.367 0 0 1-3.074 2.967c-2.985 1.694-7.68 1.495-10.488-1.48-1.593-1.689-2.407-3.687-2.464-6.016-.045-1.848.275-3.61 1.244-5.2 1.484-2.434 3.616-3.827 6.463-4.023 2.067-.143 4 .253 5.677 1.55 2.002 1.547 3.07 3.63 3.321 6.157a9.593 9.593 0 0 1-.06 2.518zm-58.22-2.977c-.285-1.908-2.031-3.853-5.126-3.524-1.906.202-3.887 2.035-3.744 3.524h8.87zm3.786 2.963c-.016.095-.037.19-.063.327H39.23c.202 1.328 1.384 2.81 3.087 3.296 1.962.56 4.341.215 5.735-2.072l3.161 1.988a8.11 8.11 0 0 1-2.124 2.352c-1.737 1.296-3.695 1.784-5.829 1.657-1.964-.117-3.71-.778-5.18-2.118-1.81-1.648-2.767-3.712-2.883-6.176-.102-2.17.322-4.201 1.588-5.992 1.49-2.106 3.504-3.29 6.071-3.472 1.785-.126 3.498.13 5.04 1.092 2.263 1.409 3.54 3.492 3.94 6.14a9.51 9.51 0 0 1 0 2.978zm14.652-1.847c-.153-2.287-1.809-4.387-4.291-4.612-1.653-.15-3.104.287-4.23 1.586-.918 1.057-1.26 2.312-1.253 3.698.013 2.847 2.105 4.987 4.902 4.991 1.155.002 2.158-.311 2.97-.961 1.5-1.204 2.028-2.812 1.902-4.702zm3.129 4.251c-1.183 2.71-3.15 4.504-6.082 5.02-2.363.415-4.587.053-6.501-1.553a.677.677 0 0 0-.093-.069c-.013-.007-.035 0-.095 0v8.211c0 .126-.01.251-.014.377h-3.786V13.152c.001-1.977 1.262-3.515 3.172-3.862.183-.033.373-.03.592-.046v2.16c.274-.322.489-.626.753-.878.99-.943 2.196-1.45 3.523-1.595 2.316-.253 4.427.302 6.213 1.87 1.765 1.547 2.732 3.522 2.956 5.874.16 1.664.034 3.299-.638 4.84zM84.836 17.8c.041-2.703-1.794-4.914-4.303-5.15-1.967-.184-3.746.533-4.818 2.405-.57.995-.74 2.082-.654 3.217.323 4.292 4.638 5.675 7.458 3.955 1.62-.987 2.297-2.547 2.317-4.427zm2.604 4.732c-1.263 2.196-3.128 3.618-5.639 4.02-2.379.38-4.608.014-6.51-1.628-.015-.012-.035-.016-.071-.034-.014.044-.037.085-.037.125 0 2.829.003 5.657.005 8.486h-3.843c.007-.135.019-.27.019-.405V13.158c0-1.972 1.265-3.515 3.172-3.865.183-.034.373-.033.588-.051v2.137c.054-.02.089-.021.1-.038.857-1.324 2.136-1.994 3.608-2.307 4.129-.879 8.247 1.68 9.41 5.888.727 2.625.577 5.21-.802 7.609zm30.477-1.312c-1.446-.004-2.61 1.163-2.617 2.626-.007 1.46 1.198 2.68 2.626 2.657 1.442-.023 2.574-1.183 2.574-2.638 0-1.484-1.129-2.64-2.583-2.645zm-6.523 4.664c0-2.286-.007-4.573.005-6.86a22.3 22.3 0 0 1 .098-1.999c.255-2.681 2.138-4.498 4.796-4.636.53-.028 1.061-.004 1.606-.004v-3.36c-2.603-.431-4.878.033-6.575 2.332V9.24c-.231.02-.414.02-.59.051-1.875.343-3.134 1.858-3.137 3.796-.006 4.301-.002 8.603-.001 12.904 0 .094.009.188.014.297h3.784v-.405zm-77.453.404v-.359c0-3.196.003-6.393-.002-9.59-.001-.512-.008-1.028-.059-1.537-.158-1.601-.808-2.97-1.953-4.09-1.147-1.123-2.525-1.706-4.11-1.818-1.772-.125-3.393.271-4.81 1.398-.048.038-.101.071-.2.14V.52c-.061-.01-.09-.02-.117-.019-2.086.082-3.692 1.774-3.692 3.895V26.28h3.816v-.37c0-3.217-.013-6.433.006-9.649.008-1.469.646-2.628 1.967-3.254 1.363-.646 2.745-.574 3.98.372.977.748 1.36 1.808 1.359 3.03-.003 3.167-.001 6.335-.001 9.502v.377h3.816zM.5 21.46l3.29-2.089c.04.078.073.135.1.195.738 1.652 1.984 2.671 3.735 3.032 1.547.32 3.08.292 4.547-.376.958-.436 1.654-1.12 1.776-2.242.128-1.176-.295-2.118-1.28-2.752-.997-.642-2.109-1.037-3.227-1.404-1.651-.543-3.322-1.03-4.887-1.81-2.005-1.001-3.167-2.645-3.381-4.879-.273-2.841.766-5.26 3.54-6.79 1.634-.902 3.394-1.121 5.221-.945 2.09.202 3.866 1.077 5.34 2.584a8.838 8.838 0 0 1 1.605 2.257l-3.22 2.045c-.086-.16-.161-.303-.238-.444-1.08-1.976-2.804-2.737-4.92-2.624-.885.048-1.701.285-2.432.825-1.314.973-1.533 3.579.234 4.508.499.263.993.548 1.518.744 1.512.565 3.044 1.077 4.56 1.634 1.197.44 2.346.982 3.337 1.82 1.465 1.238 2.134 2.844 2.12 4.75-.013 1.74-.563 3.293-1.715 4.594-1.005 1.137-2.285 1.842-3.734 2.201-2.667.661-5.291.553-7.804-.649-1.844-.881-3.2-2.283-4.085-4.185z"/>
</svg>
