<svg xmlns="http://www.w3.org/2000/svg" width="171" height="56" viewBox="0 0 171 56">
    <g fill="none">
        <path fill="#FFF" d="M56.751 13.846h-6.72v27.357h27.516V35.2H56.75V13.846zM40.955 13.78h-27.02v27.467h6.804V35.57h2.21c5.514 0 11.03-.045 16.546.027 1.364.02 2.3-.44 3.18-1.423 5.152-5.774 4.342-15.58-1.72-20.393zm-2.207 15.492H20.876v-9.117h17.795c1.61 2.965 1.548 5.978.077 9.117zM96.412 13.78C90.67 22.867 84.946 31.932 79.05 41.27h7.657l3.011-4.39h21.208c.93 1.512 1.833 2.974 2.664 4.326h8.066l-17.231-27.427h-8.013zm-3.06 16.678c2.377-3.83 4.647-7.492 7.082-11.418 2.349 3.889 4.554 7.549 6.886 11.418H93.352zM136.69 29.725c-4.286-5.45-8.453-10.748-12.523-15.928h-8.981c5.875 7.35 11.47 14.358 17.119 21.427-1.457 1.975-2.853 3.872-4.447 6.03h8.213c7.082-9.06 14.155-18.113 21.471-27.475h-8.844c-4.005 5.32-7.984 10.6-12.007 15.946z"/>
        <path fill="#654079" d="M.544 55.132h170.168v-.34H.544v.34zM170.712.195H.544v.342h170.168V.195z"/>
    </g>
</svg>
