<?xml version="1.0" encoding="UTF-8"?>
<svg width="302px" height="64px" viewBox="0 0 302 64" version="1.1" xmlns="http://www.w3.org/2000/svg" xmlns:xlink="http://www.w3.org/1999/xlink">
    <title>07872A19-7111-4874-85CA-C3074610583A</title>
    <g id="BNP" stroke="none" stroke-width="1" fill="none" fill-rule="evenodd">
        <g id="[Miquido]-Portfolio---BNP-02" transform="translate(-256.000000, -202.000000)" fill="#FFFFFE">
            <g id="header" transform="translate(0.000000, 100.000000)">
                <g id="img-/-1920-/-Case_study-/-BNP-Copy">
                    <g id="BNPP_BL_R" transform="translate(256.000000, 102.000000)">
                        <path d="M49.3399565,17.2441957 C45.507913,19.4998696 44.3328261,19.6888696 40.1625,22.1828478 C42.5921087,19.5505435 43.4343913,18.4302391 44.9381739,16.2252391 C41.0938043,16.4293043 35.5087174,16.8908478 31.521913,17.7742174 C34.9923913,15.9211957 41.8744565,13.8586304 45.507913,13.3683261 C44.6642609,12.2055652 37.8465652,8.51321739 36.1510435,7.80241304 C41.5485,8.2215 48.1443261,10.2388696 51.3436304,12.1946087 C52.6008913,11.8015435 53.9088261,11.7823696 56.2521522,11.5741957 C55.6563913,12.5986304 55.629,13.188913 53.3308696,14.7146087 C53.9677174,16.4156087 52.4488696,25.7779565 51.1916087,28.2568696 C51.146413,24.3412826 50.8040217,19.3957826 49.3399565,17.2441957" id="Fill-1"></path>
                        <path d="M21.2707174,50.8286739 C19.067087,50.012413 17.4811304,49.0605652 15.7349348,47.4280435 C16.2581087,45.9845217 16.8538696,44.8573696 17.8276304,43.4111087 C16.0362391,43.6795435 14.7173478,43.8808696 13.1738478,44.172587 C11.9179565,41.9744348 11.3482174,39.8557174 10.7086304,36.9015652 C10.3662391,40.0310217 10.2361304,42.263413 10.6771304,44.7546522 C9.261,45.149087 8.25847826,45.4928478 7.09297826,46.0187609 C8.72686957,47.0171739 10.0443913,47.7868696 11.8686522,48.6373696 C12.8478913,50.7382826 13.8613696,52.1585217 15.5048478,53.7787174 C15.12,52.3981957 15.0172826,51.3011739 15.1761522,49.8521739 C17.2126957,50.4465652 18.9561522,50.7588261 21.2707174,50.8286739" id="Fill-2"></path>
                        <path d="M27.005087,19.6943478 L27.005087,19.6943478 C26.3189348,20.5859348 25.5232174,22.2472174 25.3081957,23.016913 C30.986413,23.7879783 35.5402174,26.7037826 35.5402174,26.7037826 C30.576913,25.8231522 27.9610435,25.9327174 26.1080217,26.0984348 C24.2673261,26.2723696 23.8893261,26.4887609 23.8893261,26.4887609 C22.5498913,29.4237391 21.7459565,34.461 21.7459565,34.461 C20.843413,32.2833913 19.5382174,27.9226957 19.5382174,27.9226957 C17.0332826,29.2635 11.2715217,34.6801304 11.2715217,34.6801304 C14.4379565,28.3376739 17.6536957,25.4506304 17.6536957,25.4506304 C16.5484565,24.3303261 13.6463478,23.7715435 11.5262609,23.678413 C12.6260217,23.2291957 15.4528043,22.701913 17.6235652,22.6019348 C19.7970652,22.5403043 21.1118478,22.6635652 21.1118478,22.6635652 C23.0497826,21.1337609 25.9916087,19.845 27.005087,19.6943478" id="Fill-3"></path>
                        <path d="M33.0284348,46.8952826 C32.025913,48.2552609 31.163087,49.3235217 30.0523696,50.5657174 C28.1418261,51.102587 26.6175,51.3011739 24.7548913,51.3011739 C25.8984783,51.8914565 27.005087,52.2434348 28.1979783,52.4940652 C27.005087,53.5732826 25.997087,54.3429783 24.8384348,55.0798043 C26.7804783,54.6196304 29.3319783,53.7951522 31.2329348,52.6721087 C32.2258696,52.7104565 33.1544348,52.646087 33.8337391,52.5118696 C33.6570652,51.9366522 33.5475,51.5066087 33.4036957,50.7588261 C35.1923478,49.3728261 36.4934348,48.1183043 37.979413,46.610413 C36.3961957,47.7170217 35.0293696,48.5415 33.1955217,49.4084348 C33.116087,48.563413 33.0708913,47.8471304 33.0284348,46.8952826" id="Fill-4"></path>
                        <path d="M61.6564565,2.22691304 C61.6564565,3.52252174 61.6564565,60.363587 61.6564565,61.6591957 C60.3581087,61.6591957 3.51430435,61.6591957 2.21869565,61.6591957 C2.21869565,60.363587 2.21869565,3.52252174 2.21869565,2.22691304 C3.51430435,2.22691304 60.3581087,2.22691304 61.6564565,2.22691304 Z M0.87926087,63 L62.9958913,63 L62.9958913,0.88473913 L0.87926087,0.88473913 L0.87926087,63 Z" id="Fill-5"></path>
                        <path d="M86.3688913,23.5633696 C90.5501739,23.5989783 92.0827174,24.4481087 92.0827174,26.7243261 C92.0827174,27.3529565 91.8909783,27.9103696 91.5184565,28.3363043 C90.7186304,29.2991087 89.1600652,29.7976304 87.1673478,29.673 L87.066,29.673 L85.8977609,32.7161739 L87.066,32.7161739 C89.375087,32.6504348 91.3828696,33.3776739 92.4141522,34.6390435 C92.8893913,35.2128913 93.1276957,35.9017826 93.1276957,36.6071087 C93.1276957,38.987413 91.0322609,40.2172826 86.8961739,40.2172826 C86.1990652,40.2172826 85.0650652,40.2172826 84.3638478,40.194 C84.2446957,37.0152391 84.1926522,32.7161739 84.1926522,31.4191957 C84.1926522,29.9208913 84.2898913,26.5791522 84.3638478,23.7222391 C84.8404565,23.625 85.6306957,23.5633696 86.3688913,23.5633696 Z M78.6212609,21.3734348 C78.7513696,23.6304783 78.8842174,29.3388261 78.8842174,31.4191957 C78.8842174,33.3379565 78.8801087,39.7571087 78.5473043,42.5263696 L78.5240217,42.7455 L88.5574565,42.7455 C93.4865217,42.7455 98.7018261,41.2102174 98.7018261,36.833087 C98.7018261,34.0912174 96.7159565,32.0656304 93.0030652,30.9562826 C95.7586304,30.218087 97.5938478,28.3363043 97.5938478,26.1833478 C97.5938478,22.6101522 93.4865217,21.2638696 89.627087,21.1707391 L78.5637391,21.1707391 L78.6212609,21.3734348 L78.6212609,21.3734348 Z" id="Fill-6"></path>
                        <path d="M121.854326,21.1707391 L116.970457,21.1707391 L117.169043,26.6120217 C117.263543,29.2991087 117.355304,32.0656304 117.545674,34.7499783 C117.230674,33.9090652 116.936217,33.4762826 115.452978,31.3164783 C115.44613,31.2411522 110.373261,23.436 108.61337,21.221413 L108.561326,21.1707391 L102.898174,21.1707391 L102.898174,21.3734348 C103.077587,23.6304783 103.148804,29.3388261 103.148804,31.4191957 C103.148804,33.3379565 103.148804,39.7571087 102.879,42.5263696 L102.831065,42.7455 L107.877913,42.7455 L107.877913,42.5263696 C107.591674,37.2617609 107.591674,31.9478478 107.591674,26.7941739 C107.768348,27.4186957 107.991587,27.9555652 108.787304,29.1333913 C108.850304,29.273087 117.545674,41.9292391 117.9675,42.6551087 L118.011326,42.7455 L122.054283,42.7455 L122.047435,42.5263696 C121.740652,39.7571087 121.71463,33.3379565 121.71463,31.4191957 C121.71463,29.3388261 121.854326,23.6304783 121.984435,21.3734348 L122.047435,21.1707391 L121.854326,21.1707391" id="Fill-7"></path>
                        <path d="M135.092543,23.7742826 C137.907,23.7222391 139.870957,24.2919783 140.802261,25.4725435 C141.229565,25.9806522 141.46787,26.6503696 141.46787,27.4186957 C141.46787,30.5385652 137.954935,31.2178696 135.018587,31.2178696 L133.828435,31.1507609 C133.828435,31.1507609 133.544935,31.1233696 133.335391,31.100087 C133.314848,30.3796957 133.314848,29.4278478 133.314848,28.3623261 C133.314848,27.0037174 133.314848,25.3917391 133.379217,23.898913 C133.791457,23.8455 134.417348,23.7742826 135.092543,23.7742826 Z M127.690043,21.3734348 C127.89,23.6304783 127.965326,29.3388261 127.965326,31.4191957 C127.965326,33.3379565 127.965326,39.7571087 127.66813,42.5263696 L127.66813,42.7455 L133.672304,42.7455 L133.646283,42.5263696 C133.442217,40.5350217 133.335391,36.7358478 133.314848,33.8323696 C133.598348,33.8446957 134.448848,33.8898913 134.448848,33.8898913 L135.299348,33.9090652 C143.199,33.9090652 147.04063,31.8177391 147.04063,27.4186957 C147.04063,22.4143043 141.650022,21.2638696 137.156478,21.1707391 L127.690043,21.1707391 L127.690043,21.3734348 L127.690043,21.3734348 Z" id="Fill-8"></path>
                        <path d="M165.892696,23.7742826 C168.71263,23.7222391 170.675217,24.2919783 171.620217,25.4725435 C172.053,25.9806522 172.27213,26.6503696 172.27213,27.4186957 C172.27213,30.5385652 168.763304,31.2178696 165.863935,31.2178696 L164.675152,31.1507609 C164.675152,31.1507609 164.360152,31.1233696 164.178,31.100087 C164.143761,30.3796957 164.143761,29.4223696 164.143761,28.3623261 C164.143761,26.9900217 164.143761,25.3917391 164.201283,23.898913 C164.575174,23.8455 165.224348,23.7742826 165.892696,23.7742826 Z M158.501152,21.3734348 C158.691522,23.6304783 158.801087,29.3388261 158.801087,31.4191957 C158.801087,33.3379565 158.781913,39.7571087 158.469652,42.5263696 L158.469652,42.7455 L164.477935,42.7455 L164.442326,42.5263696 C164.253326,40.5350217 164.143761,36.7358478 164.143761,33.8323696 C164.424522,33.8446957 165.224348,33.8898913 165.224348,33.8898913 L166.095391,33.9090652 C173.990935,33.9090652 177.868174,31.8177391 177.868174,27.4186957 C177.868174,22.4143043 172.446065,21.2638696 167.938826,21.1707391 L158.501152,21.1707391 L158.501152,21.3734348 L158.501152,21.3734348 Z" id="Fill-9"></path>
                        <path d="M187.362,27.5241522 C187.837239,28.5540652 189.076696,31.4191957 190.472283,34.8417391 C190.255891,34.8526957 189.988826,34.8526957 189.988826,34.8526957 L187.362,34.8869348 C187.362,34.8869348 184.637935,34.8526957 184.187348,34.8417391 C185.319978,32.108087 186.444391,29.6346522 187.362,27.5241522 Z M185.897935,21.1707391 L185.821239,21.1707391 L185.777413,21.2803043 C184.659848,24.3481304 177.455935,40.068 176.316457,42.4756957 L176.221957,42.7455 L181.335913,42.7455 L181.379739,42.6249783 C181.830326,41.1458478 182.434304,39.479087 183.093065,37.6986522 C183.2985,37.6986522 187.362,37.6356522 187.362,37.6356522 L190.892739,37.6630435 C190.892739,37.6630435 191.462478,37.6986522 191.633674,37.6986522 C192.543065,40.0186957 193.241543,41.7648913 193.544217,42.6551087 L193.603109,42.7455 L199.527848,42.7455 L189.953217,21.1707391 L185.897935,21.1707391 L185.897935,21.1707391 Z" id="Fill-10"></path>
                        <path d="M201.938283,21.3734348 C202.110848,23.6304783 202.19713,29.3388261 202.19713,31.4191957 C202.19713,33.3379565 202.19713,39.7571087 201.868435,42.5263696 L201.868435,42.7455 L207.910957,42.7455 L207.883565,42.5263696 C207.565826,39.7393043 207.541174,33.3379565 207.541174,31.4191957 C207.541174,29.9208913 207.587739,26.5791522 207.739761,23.877 C208.198565,23.8455 208.894304,23.7742826 209.369543,23.7742826 C212.163457,23.7222391 214.137,24.2988261 215.062826,25.4725435 C215.505196,25.9806522 215.705152,26.6654348 215.705152,27.4186957 C215.705152,29.9099348 213.381,31.1726739 211.214348,31.2863478 C210.485739,31.3164783 209.9475,31.2219783 209.9475,31.2219783 L209.524304,31.1507609 L209.755761,31.5465652 C211.90187,34.671913 215.108022,40.0912826 216.432391,42.6551087 L216.473478,42.7455 L222.9255,42.7455 L222.765261,42.4537826 C222.502304,42.0894783 218.299109,35.9031522 216.513196,33.2612609 C216.513196,33.2612609 216.432391,33.1831957 216.357065,33.0996522 C219.667304,32.108087 221.264217,30.2564348 221.264217,27.4186957 C221.264217,22.449913 215.874978,21.2679783 211.326652,21.1707391 L201.921848,21.1707391 L201.938283,21.3734348" id="Fill-11"></path>
                        <path d="M231.466109,21.1707391 L225.715304,21.1707391 L225.746804,21.3734348 C225.894717,23.6304783 226.01113,29.3388261 226.01113,31.4191957 C226.01113,33.3283696 225.985109,39.7393043 225.715304,42.5263696 L225.692022,42.7455 L231.656478,42.7455 L231.623609,42.5263696 C231.396261,39.7393043 231.323674,33.3283696 231.323674,31.4191957 C231.323674,29.3388261 231.466109,23.6304783 231.623609,21.3734348 L231.623609,21.1707391 L231.466109,21.1707391" id="Fill-12"></path>
                        <path d="M244.835804,23.5633696 L244.835804,23.5633696 C249.051326,23.5989783 250.58113,24.4481087 250.58113,26.7243261 C250.58113,27.3529565 250.388022,27.9103696 250.005913,28.3363043 C249.245804,29.2991087 247.62287,29.7976304 245.647957,29.673 L245.550717,29.673 L244.390696,32.7161739 L245.550717,32.7161739 C247.868022,32.6504348 249.85663,33.3776739 250.886543,34.6390435 C251.389174,35.2128913 251.627478,35.9017826 251.627478,36.6071087 C251.627478,38.987413 249.521087,40.2172826 245.364457,40.2172826 C244.696109,40.2172826 243.573065,40.2172826 242.869109,40.194 C242.695174,37.0152391 242.695174,32.7161739 242.695174,31.4191957 C242.695174,29.9208913 242.751326,26.5791522 242.869109,23.7222391 C243.323804,23.625 244.111304,23.5633696 244.835804,23.5633696 Z M237.092283,21.3734348 C237.264848,23.6304783 237.370304,29.3388261 237.370304,31.4191957 C237.370304,33.3379565 237.370304,39.7571087 237.06763,42.5263696 L237.019696,42.7455 L247.065457,42.7455 C251.979457,42.7455 257.209826,41.2102174 257.209826,36.833087 C257.209826,34.0912174 255.222587,32.0656304 251.476826,30.9562826 C254.233761,30.218087 256.090891,28.3363043 256.090891,26.1833478 C256.090891,22.6101522 251.979457,21.2638696 248.154261,21.1707391 L237.06763,21.1707391 L237.092283,21.3734348 L237.092283,21.3734348 Z" id="Fill-13"></path>
                        <path d="M269.500304,27.5118261 C269.98513,28.5184565 271.212261,31.3890652 272.611957,34.8211957 C272.398304,34.8211957 272.138087,34.8417391 272.138087,34.8417391 L269.500304,34.8787174 C269.500304,34.8787174 266.748848,34.8211957 266.340717,34.8211957 C267.458283,32.0656304 268.553935,29.61 269.500304,27.5118261 Z M271.983326,21.1707391 L267.944478,21.1707391 L267.917087,21.2679783 C266.7105,24.5330217 259.102565,41.0814783 258.464348,42.4537826 L258.352043,42.7455 L263.493391,42.7455 L263.524891,42.6167609 C263.953565,41.1376304 264.549326,39.479087 265.220413,37.6630435 C265.382022,37.6630435 269.468804,37.5986739 269.468804,37.5986739 L273.006391,37.6534565 C273.006391,37.6534565 273.622696,37.6630435 273.756913,37.6630435 C274.686848,39.9817174 275.377109,41.7429783 275.677043,42.6167609 L275.733196,42.7455 L281.682587,42.7455 L272.112065,21.1707391 L271.983326,21.1707391 L271.983326,21.1707391 Z" id="Fill-14"></path>
                        <path d="M283.364413,26.7489783 C283.364413,30.5385652 287.160848,32.0656304 290.52313,33.4598478 C293.139,34.5007174 295.87813,35.5991087 295.87813,37.4055652 C295.87813,37.9533913 295.768565,38.4135652 295.464522,38.7367826 C294.834522,39.479087 293.562196,39.7899783 291.539348,39.6790435 C289.532935,39.5968696 287.275891,38.9655 284.732609,37.7958913 L283.738304,37.3151739 L283.738304,42.0182609 L284.417609,42.1894565 L284.812043,42.2565652 C286.066565,42.5674565 288.490696,43.1385652 290.899761,43.1385652 C297.234,43.1385652 301.014,40.6103478 301.014,36.4331739 C301.014,32.5093696 297.110739,30.9850435 293.662174,29.61 C291.118891,28.580087 288.490696,27.5597609 288.490696,25.8765652 C288.490696,25.3917391 288.490696,23.9769783 291.772174,23.9769783 C294.192196,23.9769783 296.543739,24.9603261 297.879065,25.4725435 L299.096609,25.9806522 L299.088391,25.1726087 L299.088391,21.2638696 L297.879065,21.0447391 C296.647826,20.7968478 294.594848,20.3887174 292.47887,20.3887174 C287.012935,20.3887174 283.364413,22.9689783 283.364413,26.7489783" id="Fill-15"></path>
                    </g>
                </g>
            </g>
        </g>
    </g>
</svg>