<svg xmlns="http://www.w3.org/2000/svg" width="156" height="32" viewBox="0 0 156 32">
    <path fill="#FFF" fill-rule="evenodd" d="M21.9 7.76c-.3-3.5-2.6-6-6.4-5.8-.3.2-.2.2-.5.3-3.8 1.9-7.1 4.5-10 7.7-2 2.1-3.6 4.4-5 6.7 0 0 1 .9 3.8.4 2.6-.5 3.5-1.6 5.1-3.4 4.7-5.2 11-8.1 13-5.9zm35 7.4c.1.5.4 1 .7 1.4.3.4.6.7 1 1 .4.3.8.5 1.3.7.5.2 1 .2 1.6.2.7 0 1.4-.1 2.1-.4.6-.2 1.2-.6 1.6-1l1.8 1.6c-.7.6-1.5 1.1-2.5 1.5-1 .4-2.1.6-3.2.6-1 0-2-.2-2.9-.5-.9-.3-1.7-.8-2.3-1.4-.7-.6-1.2-1.3-1.6-2.1-.4-.8-.5-1.6-.5-2.6 0-.9.2-1.8.5-2.6.4-.8.8-1.5 1.5-2.1.6-.6 1.3-1.1 2.2-1.4.8-.3 1.7-.5 2.6-.5 1 0 1.8.1 2.6.4.8.3 1.5.8 2.1 1.4.6.6 1.1 1.4 1.4 2.4.3 1 .5 2.1.5 3.5H59l1.5-2.3h3.8c0-.4-.1-.8-.3-1.2-.2-.4-.4-.7-.7-1-.3-.3-.7-.5-1.1-.7-.4-.2-.9-.2-1.4-.2-.4 0-.9.1-1.3.2-.4.2-.8.4-1.1.7-.3.3-.6.6-.9 1-.3.4-.5 1-.6 1.4v.1c-.1.9-.1 1.1 0 1.9zm89.6 5.2h-2.8v-17l2.8-.5v10l5.5-5.2h3.5l-5.4 5.1 5.8 7.5h-3.2l-4.4-5.8-1.8 1.7v4.2zm-15.1 0h-2.8V7.76h2.8v1.1c.5-.4 1-.7 1.7-1 .7-.3 1.4-.4 2.2-.4.5 0 1.1.1 1.7.2.6.1 1.2.4 1.8.8.6.4 1 .9 1.4 1.6.4.7.6 1.6.6 2.7v7.6h-2.7v-7.6c0-.5-.1-1-.3-1.4-.2-.4-.4-.7-.7-.9-.3-.2-.6-.4-1-.5-.4-.1-.8-.1-1.2-.1-.3 0-.7.1-1.1.2-.4.1-.8.3-1.1.5-.4.2-.6.5-.9.9-.2.4-.4.8-.4 1.3v7.6zm-13.3-1.9c.6 0 1.1-.1 1.6-.3.5-.2.9-.5 1.3-.9s.7-.9.9-1.4c.2-.5.3-1.1.3-1.7 0-.6-.1-1.2-.3-1.7-.2-.5-.5-1-.9-1.4-.4-.4-.8-.7-1.3-.9-.5-.2-1-.3-1.6-.3-.6 0-1.1.1-1.6.3-.5.2-.9.5-1.3.9s-.7.9-.9 1.4c-.2.5-.3 1.1-.3 1.7 0 .6.1 1.2.3 1.7.2.5.5 1 .9 1.4.4.4.8.7 1.3.9.5.2 1 .3 1.6.3zm7-10.7v12.6h-2.8v-1.4c-.5.6-1.1 1-1.9 1.3-.8.3-1.5.4-2.3.4-1 0-1.9-.2-2.7-.5-.8-.3-1.6-.8-2.2-1.4-.6-.6-1.1-1.3-1.5-2.1-.4-.8-.6-1.7-.6-2.6 0-.9.2-1.8.6-2.6.4-.8.9-1.5 1.5-2.1.6-.6 1.4-1.1 2.2-1.4.8-.3 1.8-.5 2.7-.5.8 0 1.5.1 2.3.4.7.3 1.4.7 1.9 1.3l-.1-1.4h2.9zm-22.9 2.1c-.6 0-1.1.1-1.6.2s-1 .4-1.3.7c-.4.3-.7.8-.9 1.3-.2.5-.3 1.2-.3 2 0 .7.1 1.4.3 1.9.2.5.5 1 .9 1.4.4.4.8.6 1.3.8.5.2 1 .3 1.6.3.6 0 1.1-.1 1.6-.3.5-.2.9-.5 1.3-.9s.7-.9.9-1.4c.2-.5.3-1.1.3-1.7 0-.6-.1-1.2-.3-1.7-.2-.5-.5-1-.9-1.4-.4-.4-.8-.7-1.3-.9-.5-.2-1.1-.3-1.6-.3zM98 20.36h-2.8v-17l2.8-.4v6.2c.5-.5 1.2-.9 1.9-1.2.7-.3 1.6-.4 2.5-.4 1 0 1.9.2 2.7.5.8.3 1.5.8 2.2 1.4.6.6 1.1 1.3 1.4 2.1.3.8.5 1.7.5 2.6 0 .9-.2 1.8-.5 2.6s-.8 1.5-1.4 2.1c-.6.6-1.3 1.1-2.2 1.4-.8.3-1.7.5-2.7.5-.9 0-1.7-.1-2.5-.4-.7-.3-1.4-.7-1.9-1.2v1.2zm-5.4 0c-.8.2-1.6.4-2.4.4-.8.1-1.5 0-2.1-.3-.6-.3-1.1-.7-1.5-1.3-.4-.6-.6-1.5-.6-2.7v-6.4h-2v-2.3h2v-2.9l2.8-.5v3.4h3.8v2.3h-3.8v6.8c0 .4.1.8.2 1 .1.2.3.4.5.6.3.1.6.2 1 .2s.9 0 1.5-.1l.6 1.8zm-10.1 0H79l-3.6-4.4-3.6 4.4h-3.5l5.4-6.5-5-6.1h3.5l3.2 3.9 3.2-3.9h3.5l-4.9 6.1 5.3 6.5zm-40.3.5h-2.8V8.26h2.8v1.1c.5-.4 1-.7 1.7-1 .7-.3 1.4-.4 2.2-.4.5 0 1.1.1 1.7.2.6.1 1.2.4 1.8.8.6.4 1 .9 1.4 1.6.4.7.6 1.6.6 2.7v7.6h-2.7v-7.6c0-.5-.1-1-.3-1.4-.2-.4-.4-.7-.7-.9-.3-.2-.6-.4-1-.5-.4-.1-.8-.1-1.2-.1-.3 0-.7.1-1.1.2-.4.1-.8.3-1.1.5-.4.2-.6.5-.9.9-.2.4-.4.8-.4 1.3v7.6zm98.7 9.7v.4h-3.5v-4.9h3.4v.4H138v1.7h2.5v.4H138v1.8h2.9v.2zm-14.2-1.6c.5 0 .9-.1 1.1-.3.3-.2.4-.5.4-.9s-.1-.7-.4-.9c-.3-.2-.6-.3-1.1-.3h-1.3v2.5h1.3v-.1zm1.6 2l-1.1-1.6H125.5v1.6h-.5v-4.9h1.8c.6 0 1.1.1 1.5.4.4.3.5.7.5 1.2 0 .4-.1.7-.3 1-.2.3-.5.5-.8.6l1.2 1.7h-.6zm-12.9-1.7l-1.2-2.6-1.2 2.6h2.4zm.2.4h-2.7l-.6 1.3h-.5l2.2-4.9h.5l2.2 4.9h-.5l-.6-1.3zm-11.3-3.6l-1.7 4.9h-.5l-1.4-4.2-1.4 4.2h-.5l-1.8-4.9h.5l1.4 4.2 1.5-4.2h.5l1.4 4.2 1.4-4.2h.6zm-17.2.5h-1.7v-.4h4v.4h-1.7v4.5h-.5v-4.5h-.1zm-12.3 0v1.9h2.5v.4h-2.5v2.1h-.5v-4.9h3.4v.4h-2.9v.1zm-11.7 4c.4 0 .7-.1 1-.3.3-.2.6-.4.7-.7.2-.3.3-.7.3-1 0-.4-.1-.7-.3-1-.2-.3-.4-.6-.7-.7-.3-.2-.7-.3-1-.3-.4 0-.7.1-1.1.3-.3.2-.6.4-.7.7-.2.3-.3.7-.3 1 0 .4.1.7.3 1 .2.3.4.6.7.7.4.2.7.3 1.1.3zm0 .5c-.5 0-.9-.1-1.3-.3-.4-.2-.7-.5-.9-.9-.2-.4-.3-.8-.3-1.3s.1-.9.3-1.3c.2-.4.5-.7.9-.9.4-.2.8-.3 1.3-.3s.9.1 1.3.3c.4.2.7.5.9.9.2.4.3.8.3 1.3s-.1.9-.3 1.3c-.2.4-.5.7-.9.9-.4.1-.8.3-1.3.3zm-12.5 0c-.4 0-.7-.1-1-.2-.3-.1-.6-.3-.8-.5l.2-.4c.2.2.4.3.7.4.3.1.6.2.9.2.4 0 .8-.1 1-.2.2-.2.3-.4.3-.6 0-.2-.1-.4-.2-.5-.1-.1-.3-.2-.4-.3-.2-.1-.4-.1-.7-.2-.4-.1-.7-.2-.9-.3-.2-.1-.4-.2-.6-.4-.2-.2-.2-.4-.2-.7 0-.2.1-.5.2-.7.1-.2.3-.4.6-.5.3-.1.6-.2 1-.2.3 0 .6 0 .8.1.3.1.5.2.7.3l-.2.5c-.2-.1-.4-.2-.7-.3-.2-.1-.5-.1-.7-.1-.4 0-.8.1-1 .3-.2.2-.3.4-.3.6 0 .2.1.4.2.5.1.1.3.2.4.3.2.1.4.1.7.2.4.1.6.2.9.3.2.1.4.2.6.4.2.2.2.4.2.7 0 .2-.1.5-.2.7-.1.2-.3.4-.6.5-.2 0-.5.1-.9.1zm-34.9-4.8l-2 1c-.6.7-1.2 1.4-1.9 2.1-1.5 1.7 5 2.4 8.4.6 1.6-.8 3.2-2.3 4.8-4.3 1.1-1.4 1.8-2.5 2.7-4.1.9-1.6 1.6-3.3 2.2-4.9.4-1 .7-1.9.9-2.8-4.6 6.5-10.7 10.2-15.1 12.4zm13.6-23.7c-2.2-2.5-5.7-3.1-9.7-2.1-.8.2-1.6.5-2.4.8-.2.1-.4.2-.5.2h.5c4.7 0 6.5 4.5 5.5 9.5-.1.3-.1.6-.2.8 0 .2-.1.4-.1.5-.1.4-.2.7-.3 1.1l-.3.9-.3.9c-.2.4-.3.8-.5 1.3-.1.1-.1.2-.2.3-.2.5-.5 1-.8 1.5-.6 1-1.2 2-1.9 3.2-.7 1-1.5 2.1-2.3 3.1-.1.1-.2.2-.3.4l-.1.1c5-2.5 11.6-6.6 16-14.1v-.1c.3-3.2-.3-6.3-2.1-8.3z"/>
</svg>
