<svg xmlns="http://www.w3.org/2000/svg" xmlns:xlink="http://www.w3.org/1999/xlink" width="140" height="64" viewBox="0 0 140 64">
    <defs>
        <path id="prefix__a" d="M0 0.111L139.866 0.111 139.866 63.125 0 63.125z"/>
    </defs>
    <g fill="none" fill-rule="evenodd">
        <mask id="prefix__b" fill="#fff">
            <use xlink:href="#prefix__a"/>
        </mask>
        <path fill="#FFF" d="M7.086 53.072c.288-.032.495-.044.698-.08 3.648-.629 7.293-1.279 10.945-1.886 1.964-.327 3.886-.76 5.628-1.777 2.494-1.457 3.791-3.59 3.635-6.542-.093-1.756-1.07-3.112-2.725-3.718-.399-.146-.816-.241-1.248-.367 1.828-1.694 2.405-2.566 2.758-4.148.635-2.851-.836-5.088-3.695-5.489-.935-.13-1.92-.145-2.852-.012-2.904.414-5.794.92-8.688 1.4-1.487.246-2.97.512-4.432.765v5.147l1.945-.277v11.505l-1.97.368v5.111zm71.061-12.285l6.91-1.202V27.918c.262.164.396.37.522.58 1.876 3.125 3.762 6.246 5.617 9.385.274.463.563.568 1.068.472 2.013-.38 4.029-.75 6.053-1.058.574-.088.702-.299.7-.845-.017-6.816-.01-13.633-.013-20.45 0-.22-.024-.44-.04-.722l-6.949 1.205v11.833c-.23-.384-.35-.578-.463-.775-1.794-3.147-3.581-6.298-5.39-9.436-.126-.218-.442-.51-.624-.481-2.456.392-4.904.835-7.39 1.272v21.889zm55.024-31.393c-.164 0-.25-.012-.333.002-2.387.41-4.775.81-7.155 1.254-.225.042-.477.339-.579.576-.742 1.742-1.447 3.5-2.166 5.25-.282.686-.569 1.37-.893 2.148l-3.227-6.811-7.894 1.377c.193.314.324.532.46.746 2.105 3.343 4.145 6.731 6.35 10.007.867 1.29.718 2.573.707 3.962l-9.926 1.718V13.6c-2.158.377-4.239.769-6.331 1.088-.608.093-.787.295-.785.917.023 6.772.015 13.543.015 20.315v.808l24.202-4.201v-.837c0-2.343-.015-4.686.013-7.03.006-.423.11-.886.302-1.26 2.09-4.078 4.207-8.14 6.316-12.207.299-.576.593-1.155.924-1.799zM60.948 40.7c.24.806.484 1.513.652 2.238.124.537.321.696.906.587 2.837-.53 5.685-.999 8.53-1.492 1.533-.266 3.066-.537 4.604-.807v-21.89l-7.123 1.232V39.13c-.161-.143-.221-.291-.277-.442-2.006-5.436-4.02-10.87-6.006-16.315-.188-.514-.408-.672-.952-.57-2.174.405-4.352.785-6.536 1.133-.54.086-.761.33-.926.84-2.025 6.246-4.076 12.484-6.122 18.724-.067.204-.154.4-.27.7l-3.139-4.78c.068-.107.077-.13.093-.145.087-.078.175-.154.265-.228 2.427-1.997 3.465-4.595 3.177-7.702-.204-2.195-1.343-3.75-3.46-4.494-1.327-.466-2.706-.536-4.072-.32-3.403.537-6.792 1.158-10.195 1.695-.597.094-.742.289-.74.876.021 6.793.014 13.586.014 20.379v.775l7.148-1.243c0-2.248-.005-4.424.004-6.6.002-.296-.145-.668.359-.774.45-.095.663.077.86.466.964 1.896 1.958 3.776 2.933 5.666.146.283.25.5.665.426 4.011-.713 8.026-1.404 12.04-2.095.354-.06.57-.182.65-.589.155-.778.37-1.546.597-2.307.055-.18.243-.424.404-.454 1.942-.366 3.89-.697 5.917-1.052zM139.441.14c.48-.13.423.186.422.493-.004 7.756-.003 15.511-.003 23.267v15.044c-.252.047-.503.097-.755.141l-19.128 3.308-23.189 4.005c-7.707 1.33-15.413 2.661-23.12 3.993l-23.256 4.021-22.363 3.867c-7.73 1.336-15.46 2.666-23.188 4.008-1.484.258-2.961.558-4.441.838H0V24.463c.252-.047.503-.098.755-.142 5.528-.961 11.055-1.923 16.583-2.883l23.877-4.149c7.408-1.287 14.816-2.577 22.225-3.865l23.05-4.006L110.3 5.282c8.257-1.434 16.514-2.866 24.77-4.308 1.461-.256 2.914-.555 4.372-.833z" mask="url(#prefix__b)"/>
        <path fill="#FFF" d="M36.25 35v-4c.794-.123 1.58-.273 2.373-.358.748-.08 1.457.103 1.801.835.348.738.244 1.515-.314 2.12-.335.362-.782.703-1.244.85-.829.262-1.707.37-2.616.553M59.375 35.051l-3.125.574 1.551-6.25 1.574 5.676M16.25 46.25v-3.366c1.185-.14 2.388-.355 3.596-.384.404-.01.978.378 1.199.723.368.575.225 1.262-.309 1.734-.391.345-.923.64-1.45.772-.962.241-1.967.346-3.036.521M16.256 38.125c0-1.071-.023-2.006.02-2.938.009-.176.254-.44.434-.49.523-.148 1.066-.223 1.605-.297.599-.083 1.179.022 1.48.619.32.634.275 1.324-.203 1.859-.293.328-.693.623-1.098.757-.691.23-1.424.32-2.238.49"/>
    </g>
</svg>
